0
SECTION
2
ENTITIES
0
LINE
8
0
10
-194.204464
20
-135.827689
30
0.0
11
-194.204464
21
-137.008189
31
0.0
0
ARC
8
0
10
-193.998464
20
-137.008189
30
0.0
40
0.206000
50
180.000000
51
270.000000
0
LINE
8
0
10
-193.998464
20
-137.214189
30
0.0
11
-193.615416
21
-137.214189
31
0.0
0
ARC
8
0
10
-193.615416
20
-136.964189
30
0.0
40
0.250000
50
270.000000
51
306.742904
0
LINE
8
0
10
-193.465860
20
-137.164521
30
0.0
11
-193.173679
21
-136.922410
31
0.0
0
ARC
8
0
10
-193.320429
20
-136.745310
30
0.0
40
0.230000
50
309.646274
51
85.066330
0
ARC
8
0
10
-193.283448
20
-136.316903
30
0.0
40
0.200000
50
180.000000
51
265.066330
0
LINE
8
0
10
-193.483448
20
-136.316993
30
0.0
11
-193.483667
21
-135.827689
31
0.0
0
ARC
8
0
10
-193.277667
20
-135.827689
30
0.0
40
0.206000
50
90.000000
51
180.000000
0
LINE
8
0
10
-193.277667
20
-135.621689
30
0.0
11
-192.861021
21
-135.621689
31
0.0
0
ARC
8
0
10
-192.861021
20
-135.415689
30
0.0
40
0.206000
50
270.000000
51
0.000000
0
LINE
8
0
10
-192.655021
20
-135.415689
30
0.0
11
-192.655021
21
-135.018689
31
0.0
0
ARC
8
0
10
-193.055021
20
-135.018689
30
0.0
40
0.400000
50
0.000000
51
90.000000
0
LINE
8
0
10
-193.055021
20
-134.618689
30
0.0
11
-201.255021
21
-134.618689
31
0.0
0
ARC
8
0
10
-201.255021
20
-135.018689
30
0.0
40
0.400000
50
90.000000
51
180.000000
0
LINE
8
0
10
-201.655021
20
-135.018689
30
0.0
11
-201.655021
21
-135.415689
31
0.0
0
ARC
8
0
10
-201.449021
20
-135.415689
30
0.0
40
0.206000
50
180.000000
51
270.000000
0
LINE
8
0
10
-201.449021
20
-135.621689
30
0.0
11
-201.032376
21
-135.621689
31
0.0
0
ARC
8
0
10
-201.032376
20
-135.827689
30
0.0
40
0.206000
50
0.000000
51
90.000000
0
LINE
8
0
10
-200.826376
20
-135.827689
30
0.0
11
-200.826594
21
-136.316993
31
0.0
0
ARC
8
0
10
-201.026594
20
-136.316903
30
0.0
40
0.200000
50
274.933670
51
0.000000
0
ARC
8
0
10
-200.989613
20
-136.745310
30
0.0
40
0.230000
50
94.933670
51
230.353726
0
LINE
8
0
10
-201.136364
20
-136.922410
30
0.0
11
-200.844183
21
-137.164521
31
0.0
0
ARC
8
0
10
-200.694626
20
-136.964189
30
0.0
40
0.250000
50
233.257096
51
270.000000
0
LINE
8
0
10
-200.694626
20
-137.214189
30
0.0
11
-200.311579
21
-137.214189
31
0.0
0
ARC
8
0
10
-200.311579
20
-137.008189
30
0.0
40
0.206000
50
270.000000
51
0.000000
0
LINE
8
0
10
-200.105579
20
-137.008189
30
0.0
11
-200.105579
21
-135.827689
31
0.0
0
ARC
8
0
10
-199.899579
20
-135.827689
30
0.0
40
0.206000
50
90.000000
51
180.000000
0
LINE
8
0
10
-199.899579
20
-135.621689
30
0.0
11
-197.155021
21
-135.621689
31
0.0
0
LINE
8
0
10
-197.155021
20
-135.621689
30
0.0
11
-194.410464
21
-135.621689
31
0.0
0
ARC
8
0
10
-194.410464
20
-135.827689
30
0.0
40
0.206000
50
0.000000
51
90.000000
0
ATTDEF
8
0
10
-201.655021
20
-137.214189
30
0.0
40
3.5
1

3

2
FRONT_VIEW
70
0
0
ATTDEF
8
0
10
-201.655021
20
-137.214189
30
0.0
40
3.5
1

3

2
BL01:6800.000000,,1
70
0
0
ATTDEF
8
0
10
-201.655021
20
-137.214189
30
0.0
40
3.5
1

3

2
OPTI:500.000000,1,0,3000.000000,6500.000000,500.000000,0,0.000000,0
70
0
0
ATTDEF
8
0
10
-201.655021
20
-137.214189
30
0.0
40
3.5
1

3

2
GLASS_MIN:0.000000
70
0
0
ATTDEF
8
0
10
-201.655021
20
-137.214189
30
0.0
40
3.5
1

3

2
GLASS_MAX:0.000000
70
0
0
ATTDEF
8
0
10
-192.655021
20
-135.217189
30
0.0
40
3.5
1

3

2
HC_START
70
0
0
ATTDEF
8
0
10
-201.655021
20
-135.415689
30
0.0
40
3.5
1

3

2
HC_END
70
0
0
ATTDEF
8
0
10
-201.655021
20
-137.214189
30
0.0
40
3.5
1

3

2
FP_LCS_ORIG
70
0
0
ATTDEF
8
0
10
-201.655021
20
-127.214189
30
0.0
40
3.5
1

3

2
FP_LCS_HOT
70
0
0
ATTDEF
8
0
10
-191.655021
20
-137.214189
30
0.0
40
3.5
1

3

2
FP_LCS_INTERN
70
0
0
ATTDEF
8
0
10
0.000000
20
0.000000
30
0.0
40
3.5
1

3

2
TDEV:0
70
0
0
ATTDEF
8
0
10
0.000000
20
0.000000
30
0.0
40
3.5
1

3

2
TDEV2:0
70
0
0
ATTDEF
8
0
10
0.000000
20
0.000000
30
0.0
40
3.5
1

3

2
TDEV3:0
70
0
0
ATTDEF
8
0
10
0.000000
20
0.000000
30
0.0
40
3.5
1

3

2
TDEV4:0
70
0
0
ATTDEF
8
0
10
0.000000
20
0.000000
30
0.0
40
3.5
1

3

2
TDEV5:0
70
0
0
ATTDEF
8
0
10
0.000000
20
0.000000
30
0.0
40
3.5
1

3

2
PANE_WIDTH:0
70
0
0
ATTDEF
8
0
10
0.000000
20
0.000000
30
0.0
40
3.5
1

3

2
MIN_VETRO:0
70
0
0
ATTDEF
8
0
10
0.000000
20
0.000000
30
0.0
40
3.5
1

3

2
MAX_VETRO:0
70
0
0
ATTDEF
8
0
10
0.000000
20
0.000000
30
0.0
40
3.5
1

3

2
JX:0
70
0
0
ATTDEF
8
0
10
0.000000
20
0.000000
30
0.0
40
3.5
1

3

2
WX:0
70
0
0
ATTDEF
8
0
10
0.000000
20
0.000000
30
0.0
40
3.5
1

3

2
JY:0
70
0
0
ATTDEF
8
0
10
0.000000
20
0.000000
30
0.0
40
3.5
1

3

2
WY:0
70
0
0
ATTDEF
8
0
10
0.000000
20
0.000000
30
0.0
40
3.5
1

3

2
DESC:Cover per labirinto maggiorato
70
0
0
ATTDEF
8
0
10
0.000000
20
0.000000
30
0.0
40
3.5
1

3

2
DENS:0
70
0
0
ATTDEF
8
0
10
0.000000
20
0.000000
30
0.0
40
3.5
1

3

2
TDEV:0
70
0
0
ATTDEF
8
0
10
0.000000
20
0.000000
30
0.0
40
3.5
1

3

2
TDEV2:0
70
0
0
ATTDEF
8
0
10
0.000000
20
0.000000
30
0.0
40
3.5
1

3

2
TDEV3:0
70
0
0
ATTDEF
8
0
10
0.000000
20
0.000000
30
0.0
40
3.5
1

3

2
TDEV4:0
70
0
0
ATTDEF
8
0
10
0.000000
20
0.000000
30
0.0
40
3.5
1

3

2
TDEV5:0
70
0
0
ATTDEF
8
0
10
0.000000
20
0.000000
30
0.0
40
3.5
1

3

2
PANE_WIDTH:0
70
0
0
ATTDEF
8
0
10
0.000000
20
0.000000
30
0.0
40
3.5
1

3

2
MIN_VETRO:0
70
0
0
ATTDEF
8
0
10
0.000000
20
0.000000
30
0.0
40
3.5
1

3

2
MAX_VETRO:0
70
0
0
ATTDEF
8
0
10
0.000000
20
0.000000
30
0.0
40
3.5
1

3

2
JX:0
70
0
0
ATTDEF
8
0
10
0.000000
20
0.000000
30
0.0
40
3.5
1

3

2
WX:0
70
0
0
ATTDEF
8
0
10
0.000000
20
0.000000
30
0.0
40
3.5
1

3

2
JY:0
70
0
0
ATTDEF
8
0
10
0.000000
20
0.000000
30
0.0
40
3.5
1

3

2
WY:0
70
0
0
ENDSEC
0
EOF
