0
SECTION
2
ENTITIES
0
LINE
8
0
10
-37.961172
20
164.800211
30
0.0
11
-37.261172
21
164.800211
31
0.0
0
ARC
8
0
10
-37.261172
20
164.500211
30
0.0
40
0.300000
50
0.000000
51
90.000000
0
LINE
8
0
10
-36.961172
20
164.500211
30
0.0
11
-36.961172
21
159.324475
31
0.0
0
ARC
8
0
10
-37.261172
20
159.324475
30
0.0
40
0.300000
50
315.000000
51
0.000000
0
LINE
8
0
10
-37.049039
20
159.112343
30
0.0
11
-38.246223
21
157.915160
31
0.0
0
ARC
8
0
10
-37.892669
20
157.561607
30
0.0
40
0.500000
50
135.000000
51
210.000000
0
LINE
8
0
10
-38.325682
20
157.311607
30
0.0
11
-37.741571
21
156.299897
31
0.0
0
ARC
8
0
10
-37.395161
20
156.499897
30
0.0
40
0.400000
50
210.000000
51
30.000000
0
LINE
8
0
10
-37.048751
20
156.699897
30
0.0
11
-37.402664
21
157.312892
31
0.0
0
ARC
8
0
10
-37.142856
20
157.462892
30
0.0
40
0.300000
50
135.000000
51
210.000000
0
LINE
8
0
10
-37.354988
20
157.675024
30
0.0
11
-36.249039
21
158.780972
31
0.0
0
ARC
8
0
10
-36.461172
20
158.993104
30
0.0
40
0.300000
50
315.000000
51
0.000000
0
LINE
8
0
10
-36.161172
20
158.993104
30
0.0
11
-36.161172
21
164.500211
31
0.0
0
ARC
8
0
10
-35.861172
20
164.500211
30
0.0
40
0.300000
50
90.000000
51
180.000000
0
LINE
8
0
10
-35.861172
20
164.800211
30
0.0
11
-27.661172
21
164.800211
31
0.0
0
ARC
8
0
10
-27.661172
20
164.500211
30
0.0
40
0.300000
50
0.000000
51
90.000000
0
LINE
8
0
10
-27.361172
20
164.500211
30
0.0
11
-27.361172
21
158.993104
31
0.0
0
ARC
8
0
10
-27.061172
20
158.993104
30
0.0
40
0.300000
50
180.000000
51
225.000000
0
LINE
8
0
10
-27.273304
20
158.780972
30
0.0
11
-26.167355
21
157.675024
31
0.0
0
ARC
8
0
10
-26.379487
20
157.462892
30
0.0
40
0.300000
50
330.000000
51
45.000000
0
LINE
8
0
10
-26.119679
20
157.312892
30
0.0
11
-26.473592
21
156.699897
31
0.0
0
ARC
8
0
10
-26.127182
20
156.499897
30
0.0
40
0.400000
50
150.000000
51
330.000000
0
LINE
8
0
10
-25.780772
20
156.299897
30
0.0
11
-25.196661
21
157.311607
31
0.0
0
ARC
8
0
10
-25.629674
20
157.561607
30
0.0
40
0.500000
50
330.000000
51
45.000000
0
LINE
8
0
10
-25.276120
20
157.915160
30
0.0
11
-26.473304
21
159.112343
31
0.0
0
ARC
8
0
10
-26.261172
20
159.324475
30
0.0
40
0.300000
50
180.000000
51
225.000000
0
LINE
8
0
10
-26.561172
20
159.324475
30
0.0
11
-26.561172
21
164.500211
31
0.0
0
ARC
8
0
10
-26.261172
20
164.500211
30
0.0
40
0.300000
50
90.000000
51
180.000000
0
LINE
8
0
10
-26.261172
20
164.800211
30
0.0
11
-25.561172
21
164.800211
31
0.0
0
ARC
8
0
10
-25.561172
20
163.800211
30
0.0
40
1.000000
50
337.380135
51
90.000000
0
ARC
8
0
10
-24.361172
20
163.300211
30
0.0
40
0.300000
50
157.380135
51
270.000000
0
LINE
8
0
10
-24.361172
20
163.000211
30
0.0
11
-23.061172
21
163.000211
31
0.0
0
ARC
8
0
10
-23.061172
20
163.300211
30
0.0
40
0.300000
50
270.000000
51
0.000000
0
LINE
8
0
10
-22.761172
20
163.300211
30
0.0
11
-22.761172
21
166.600211
31
0.0
0
ARC
8
0
10
-23.061172
20
166.600211
30
0.0
40
0.300000
50
0.000000
51
90.000000
0
LINE
8
0
10
-23.061172
20
166.900211
30
0.0
11
-28.761172
21
166.900211
31
0.0
0
ARC
8
0
10
-28.761172
20
167.400211
30
0.0
40
0.500000
50
180.000000
51
270.000000
0
LINE
8
0
10
-29.261172
20
167.400211
30
0.0
11
-29.261172
21
167.700211
31
0.0
0
ARC
8
0
10
-31.761172
20
167.700211
30
0.0
40
2.500000
50
0.000000
51
180.000000
0
LINE
8
0
10
-34.261172
20
167.700211
30
0.0
11
-34.261172
21
167.400211
31
0.0
0
ARC
8
0
10
-34.761172
20
167.400211
30
0.0
40
0.500000
50
270.000000
51
0.000000
0
LINE
8
0
10
-34.761172
20
166.900211
30
0.0
11
-40.461172
21
166.900211
31
0.0
0
ARC
8
0
10
-40.461172
20
166.600211
30
0.0
40
0.300000
50
90.000000
51
180.000000
0
LINE
8
0
10
-40.761172
20
166.600211
30
0.0
11
-40.761172
21
163.300211
31
0.0
0
ARC
8
0
10
-40.461172
20
163.300211
30
0.0
40
0.300000
50
180.000000
51
270.000000
0
LINE
8
0
10
-40.461172
20
163.000211
30
0.0
11
-39.161172
21
163.000211
31
0.0
0
ARC
8
0
10
-39.161172
20
163.300211
30
0.0
40
0.300000
50
270.000000
51
22.619865
0
ARC
8
0
10
-37.961172
20
163.800211
30
0.0
40
1.000000
50
90.000000
51
202.619865
0
ATTDEF
8
0
10
-40.461172
20
166.900211
30
0.0
40
3.5
1

3

2
VC_START
70
0
0
ATTDEF
8
0
10
-40.461172
20
163.000211
30
0.0
40
3.5
1

3

2
VC_END
70
0
0
ATTDEF
8
0
10
-40.761172
20
156.099897
30
0.0
40
3.5
1

3

2
FRONT_VIEW
70
0
0
ATTDEF
8
0
10
-40.761172
20
156.099897
30
0.0
40
3.5
1

3

2
BL01:6800.000000,,1
70
0
0
ATTDEF
8
0
10
-40.761172
20
156.099897
30
0.0
40
3.5
1

3

2
OPTI:500.000000,1,0,3000.000000,6500.000000,500.000000,0,0.000000,0
70
0
0
ATTDEF
8
0
10
-40.761172
20
156.099897
30
0.0
40
3.5
1

3

2
GLASS_MIN:0.000000
70
0
0
ATTDEF
8
0
10
-40.761172
20
156.099897
30
0.0
40
3.5
1

3

2
GLASS_MAX:0.000000
70
0
0
ATTDEF
8
0
10
-40.761172
20
156.099897
30
0.0
40
3.5
1

3

2
FP_LCS_ORIG
70
0
0
ATTDEF
8
0
10
-30.761172
20
156.099897
30
0.0
40
3.5
1

3

2
FP_LCS_HOT
70
0
0
ATTDEF
8
0
10
-40.761172
20
166.099897
30
0.0
40
3.5
1

3

2
FP_LCS_INTERN
70
0
0
ATTDEF
8
0
10
0.000000
20
0.000000
30
0.0
40
3.5
1

3

2
TDEV2:0
70
0
0
ATTDEF
8
0
10
0.000000
20
0.000000
30
0.0
40
3.5
1

3

2
TDEV3:0
70
0
0
ATTDEF
8
0
10
0.000000
20
0.000000
30
0.0
40
3.5
1

3

2
TDEV4:0
70
0
0
ATTDEF
8
0
10
0.000000
20
0.000000
30
0.0
40
3.5
1

3

2
TDEV5:0
70
0
0
ATTDEF
8
0
10
0.000000
20
0.000000
30
0.0
40
3.5
1

3

2
PANE_WIDTH:0
70
0
0
ATTDEF
8
0
10
0.000000
20
0.000000
30
0.0
40
3.5
1

3

2
MIN_VETRO:0
70
0
0
ATTDEF
8
0
10
0.000000
20
0.000000
30
0.0
40
3.5
1

3

2
MAX_VETRO:0
70
0
0
ATTDEF
8
0
10
0.000000
20
0.000000
30
0.0
40
3.5
1

3

2
JX:0
70
0
0
ATTDEF
8
0
10
0.000000
20
0.000000
30
0.0
40
3.5
1

3

2
WX:0
70
0
0
ATTDEF
8
0
10
0.000000
20
0.000000
30
0.0
40
3.5
1

3

2
JY:0
70
0
0
ATTDEF
8
0
10
0.000000
20
0.000000
30
0.0
40
3.5
1

3

2
WY:0
70
0
0
ATTDEF
8
0
10
0.000000
20
0.000000
30
0.0
40
3.5
1

3

2
DESC:Binario
70
0
0
ATTDEF
8
0
10
0.000000
20
0.000000
30
0.0
40
3.5
1

3

2
DENS:0.21
70
0
0
ATTDEF
8
0
10
0.000000
20
0.000000
30
0.0
40
3.5
1

3

2
TDEV:0
70
0
0
ATTDEF
8
0
10
0.000000
20
0.000000
30
0.0
40
3.5
1

3

2
TDEV2:0
70
0
0
ATTDEF
8
0
10
0.000000
20
0.000000
30
0.0
40
3.5
1

3

2
TDEV3:0
70
0
0
ATTDEF
8
0
10
0.000000
20
0.000000
30
0.0
40
3.5
1

3

2
TDEV4:0
70
0
0
ATTDEF
8
0
10
0.000000
20
0.000000
30
0.0
40
3.5
1

3

2
TDEV5:0
70
0
0
ATTDEF
8
0
10
0.000000
20
0.000000
30
0.0
40
3.5
1

3

2
PANE_WIDTH:0
70
0
0
ATTDEF
8
0
10
0.000000
20
0.000000
30
0.0
40
3.5
1

3

2
MIN_VETRO:0
70
0
0
ATTDEF
8
0
10
0.000000
20
0.000000
30
0.0
40
3.5
1

3

2
MAX_VETRO:0
70
0
0
ATTDEF
8
0
10
0.000000
20
0.000000
30
0.0
40
3.5
1

3

2
JX:0
70
0
0
ATTDEF
8
0
10
0.000000
20
0.000000
30
0.0
40
3.5
1

3

2
WX:0
70
0
0
ATTDEF
8
0
10
0.000000
20
0.000000
30
0.0
40
3.5
1

3

2
JY:0
70
0
0
ATTDEF
8
0
10
0.000000
20
0.000000
30
0.0
40
3.5
1

3

2
WY:0
70
0
0
ENDSEC
0
EOF
