0
SECTION
2
ENTITIES
0
LINE
8
0
10
170.747638
20
168.913020
30
0.0
11
170.247638
21
168.913020
31
0.0
0
LINE
8
0
10
170.247638
20
168.913020
30
0.0
11
170.247638
21
157.916538
31
0.0
0
LINE
8
0
10
170.247638
20
157.916538
30
0.0
11
170.747638
21
157.916538
31
0.0
0
LINE
8
0
10
170.747638
20
157.916538
30
0.0
11
170.747638
21
155.916538
31
0.0
0
LINE
8
0
10
170.747638
20
155.916538
30
0.0
11
170.247638
21
155.916538
31
0.0
0
LINE
8
0
10
170.247638
20
155.916538
30
0.0
11
170.247638
21
144.912302
31
0.0
0
LINE
8
0
10
170.247638
20
144.912302
30
0.0
11
170.747638
21
144.913020
31
0.0
0
LINE
8
0
10
170.747638
20
144.913020
30
0.0
11
170.747638
21
142.913020
31
0.0
0
LINE
8
0
10
170.747638
20
142.913020
30
0.0
11
170.247638
21
142.912302
31
0.0
0
LINE
8
0
10
170.247638
20
142.912302
30
0.0
11
170.247638
21
131.912302
31
0.0
0
LINE
8
0
10
170.247638
20
131.912302
30
0.0
11
170.747638
21
131.913020
31
0.0
0
LINE
8
0
10
170.747638
20
131.913020
30
0.0
11
170.747638
21
128.212590
31
0.0
0
ARC
8
0
10
170.447638
20
128.212590
30
0.0
40
0.300000
50
270.000000
51
360.000000
0
LINE
8
0
10
170.448069
20
127.912590
30
0.0
11
102.546738
21
127.912590
31
0.0
0
ARC
8
0
10
102.546738
20
128.412590
30
0.0
40
0.500000
50
180.000000
51
270.000000
0
LINE
8
0
10
102.046738
20
128.412590
30
0.0
11
102.046738
21
141.716523
31
0.0
0
ARC
8
0
10
103.046738
20
141.716523
30
0.0
40
1.000000
50
90.000000
51
180.000000
0
LINE
8
0
10
103.046738
20
142.716523
30
0.0
11
114.946738
21
142.716523
31
0.0
0
ARC
8
0
10
114.946738
20
142.416523
30
0.0
40
0.300000
50
360.000000
51
90.000000
0
LINE
8
0
10
115.246738
20
142.416523
30
0.0
11
115.246738
21
139.116523
31
0.0
0
ARC
8
0
10
115.546738
20
139.116523
30
0.0
40
0.300000
50
180.000000
51
270.000000
0
LINE
8
0
10
115.546738
20
138.816523
30
0.0
11
133.548539
21
138.816523
31
0.0
0
ARC
8
0
10
133.548539
20
139.116523
30
0.0
40
0.300000
50
270.000000
51
360.000000
0
LINE
8
0
10
133.848539
20
139.116523
30
0.0
11
133.848539
21
142.416523
31
0.0
0
ARC
8
0
10
134.148539
20
142.416523
30
0.0
40
0.300000
50
90.000000
51
180.000000
0
LINE
8
0
10
134.148539
20
142.716523
30
0.0
11
146.048539
21
142.716523
31
0.0
0
ARC
8
0
10
146.048539
20
141.716523
30
0.0
40
1.000000
50
360.000000
51
90.000000
0
LINE
8
0
10
147.048539
20
141.716523
30
0.0
11
147.048539
21
131.912590
31
0.0
0
ARC
8
0
10
147.548539
20
131.912590
30
0.0
40
0.500000
50
180.000000
51
270.000000
0
LINE
8
0
10
147.548539
20
131.412590
30
0.0
11
159.747638
21
131.412590
31
0.0
0
ARC
8
0
10
159.747638
20
131.112590
30
0.0
40
0.300000
50
360.000000
51
90.000000
0
LINE
8
0
10
160.047638
20
131.112590
30
0.0
11
160.047638
21
130.913250
31
0.0
0
ARC
8
0
10
160.547638
20
130.913250
30
0.0
40
0.500000
50
180.000000
51
270.000000
0
LINE
8
0
10
160.548298
20
130.413250
30
0.0
11
161.648428
21
130.411801
31
0.0
0
ARC
8
0
10
161.647638
20
130.911801
30
0.0
40
0.500000
50
270.000000
51
360.000000
0
LINE
8
0
10
162.147638
20
130.911801
30
0.0
11
162.147638
21
131.112590
31
0.0
0
ARC
8
0
10
162.447638
20
131.112590
30
0.0
40
0.300000
50
90.000000
51
180.000000
0
LINE
8
0
10
162.447638
20
131.412590
30
0.0
11
165.747638
21
131.412590
31
0.0
0
ARC
8
0
10
165.747638
20
133.412590
30
0.0
40
2.000000
50
270.000000
51
360.000000
0
LINE
8
0
10
167.747638
20
133.412590
30
0.0
11
167.747638
21
147.262985
31
0.0
0
LINE
8
0
10
167.747638
20
147.262985
30
0.0
11
168.101192
21
147.616538
31
0.0
0
LINE
8
0
10
168.101192
20
147.616538
30
0.0
11
167.747638
21
147.970092
31
0.0
0
LINE
8
0
10
167.747638
20
147.970092
30
0.0
11
167.747638
21
163.562985
31
0.0
0
LINE
8
0
10
167.747638
20
163.562985
30
0.0
11
168.101192
21
163.916538
31
0.0
0
LINE
8
0
10
168.101192
20
163.916538
30
0.0
11
167.747638
21
164.270092
31
0.0
0
LINE
8
0
10
167.747638
20
164.270092
30
0.0
11
167.747638
21
172.413020
31
0.0
0
ARC
8
0
10
168.247638
20
172.413020
30
0.0
40
0.500000
50
90.000000
51
180.000000
0
LINE
8
0
10
168.247638
20
172.913020
30
0.0
11
170.247638
21
172.913020
31
0.0
0
ARC
8
0
10
170.247638
20
172.413020
30
0.0
40
0.500000
50
360.000000
51
90.000000
0
LINE
8
0
10
170.747638
20
172.413020
30
0.0
11
170.747638
21
168.913020
31
0.0
0
LINE
8
0
10
123.670820
20
137.150620
30
0.0
11
123.780422
21
136.871358
31
0.0
0
ARC
8
0
10
124.547638
20
134.916523
30
0.0
40
2.100000
50
111.428571
51
154.285714
0
LINE
8
0
10
122.655604
20
135.827679
30
0.0
11
122.385313
21
135.957844
31
0.0
0
ARC
8
0
10
124.547638
20
134.916523
30
0.0
40
2.400000
50
154.285714
51
197.142857
0
LINE
8
0
10
122.254264
20
134.209111
30
0.0
11
122.540935
21
134.297537
31
0.0
0
ARC
8
0
10
124.547638
20
134.916523
30
0.0
40
2.100000
50
197.142857
51
228.912511
0
ARC
8
0
10
122.838891
20
132.956885
30
0.0
40
0.500000
50
330.000000
51
48.912511
0
LINE
8
0
10
123.271903
20
132.706885
30
0.0
11
123.255965
21
132.679280
31
0.0
0
ARC
8
0
10
122.822953
20
132.929280
30
0.0
40
0.500000
50
270.000000
51
330.000000
0
LINE
8
0
10
122.822953
20
132.429280
30
0.0
11
122.294173
21
132.429280
31
0.0
0
ARC
8
0
10
122.294173
20
133.429280
30
0.0
40
1.000000
50
213.424027
51
270.000000
0
ARC
8
0
10
124.547638
20
134.916523
30
0.0
40
3.700000
50
153.103454
51
213.424027
0
ARC
8
0
10
120.801974
20
136.816523
30
0.0
40
0.500000
50
333.103454
51
90.000000
0
LINE
8
0
10
120.801974
20
137.316523
30
0.0
11
114.246738
21
137.316523
31
0.0
0
ARC
8
0
10
114.246738
20
137.816523
30
0.0
40
0.500000
50
180.000000
51
270.000000
0
LINE
8
0
10
113.746738
20
137.816523
30
0.0
11
113.746738
21
140.716523
31
0.0
0
ARC
8
0
10
113.246738
20
140.716523
30
0.0
40
0.500000
50
360.000000
51
90.000000
0
LINE
8
0
10
113.246738
20
141.216523
30
0.0
11
104.846738
21
141.216523
31
0.0
0
ARC
8
0
10
104.846738
20
140.916523
30
0.0
40
0.300000
50
90.000000
51
180.000000
0
LINE
8
0
10
104.546738
20
140.916523
30
0.0
11
104.546738
21
131.826804
31
0.0
0
ARC
8
0
10
105.546738
20
131.826804
30
0.0
40
1.000000
50
180.000000
51
225.000000
0
LINE
8
0
10
104.839631
20
131.119697
30
0.0
11
106.253845
21
129.705483
31
0.0
0
ARC
8
0
10
106.960952
20
130.412590
30
0.0
40
1.000000
50
225.000000
51
270.000000
0
LINE
8
0
10
106.960952
20
129.412590
30
0.0
11
142.134325
21
129.412590
31
0.0
0
ARC
8
0
10
142.134325
20
130.412590
30
0.0
40
1.000000
50
270.000000
51
315.000000
0
LINE
8
0
10
142.841432
20
129.705483
30
0.0
11
144.255645
21
131.119697
31
0.0
0
ARC
8
0
10
143.548539
20
131.826804
30
0.0
40
1.000000
50
315.000000
51
360.000000
0
LINE
8
0
10
144.548539
20
131.826804
30
0.0
11
144.548539
21
140.916523
31
0.0
0
ARC
8
0
10
144.248539
20
140.916523
30
0.0
40
0.300000
50
360.000000
51
90.000000
0
LINE
8
0
10
144.248539
20
141.216523
30
0.0
11
135.848539
21
141.216523
31
0.0
0
ARC
8
0
10
135.848539
20
140.716523
30
0.0
40
0.500000
50
90.000000
51
180.000000
0
LINE
8
0
10
135.348539
20
140.716523
30
0.0
11
135.348539
21
137.816523
31
0.0
0
ARC
8
0
10
134.848539
20
137.816523
30
0.0
40
0.500000
50
270.000000
51
360.000000
0
LINE
8
0
10
134.848539
20
137.316523
30
0.0
11
128.293303
21
137.316523
31
0.0
0
ARC
8
0
10
128.293303
20
136.816523
30
0.0
40
0.500000
50
90.000000
51
206.896546
0
ARC
8
0
10
124.547638
20
134.916523
30
0.0
40
3.700000
50
326.575973
51
26.896546
0
ARC
8
0
10
126.801104
20
133.429280
30
0.0
40
1.000000
50
270.000000
51
326.575973
0
LINE
8
0
10
126.801104
20
132.429280
30
0.0
11
126.272324
21
132.429280
31
0.0
0
ARC
8
0
10
126.272324
20
132.929280
30
0.0
40
0.500000
50
210.000000
51
270.000000
0
LINE
8
0
10
125.839311
20
132.679280
30
0.0
11
125.823373
21
132.706885
31
0.0
0
ARC
8
0
10
126.256386
20
132.956885
30
0.0
40
0.500000
50
131.087489
51
210.000000
0
ARC
8
0
10
124.547638
20
134.916523
30
0.0
40
2.100000
50
311.087489
51
342.857143
0
LINE
8
0
10
126.554341
20
134.297537
30
0.0
11
126.841013
21
134.209111
31
0.0
0
ARC
8
0
10
124.547638
20
134.916523
30
0.0
40
2.400000
50
342.857143
51
25.714286
0
LINE
8
0
10
126.709964
20
135.957844
30
0.0
11
126.439673
21
135.827679
31
0.0
0
ARC
8
0
10
124.547638
20
134.916523
30
0.0
40
2.100000
50
25.714286
51
68.571429
0
LINE
8
0
10
125.314855
20
136.871358
30
0.0
11
125.424457
21
137.150620
31
0.0
0
ARC
8
0
10
124.547638
20
134.916523
30
0.0
40
2.400000
50
68.571429
51
111.428571
0
ATTDEF
8
0
10
103.046738
20
142.716523
30
0.0
40
3.5
1

3

2
VC_START
70
0
0
ATTDEF
8
0
10
102.546738
20
127.912590
30
0.0
40
3.5
1

3

2
VC_END
70
0
0
ATTDEF
8
0
10
102.046738
20
127.912590
30
0.0
40
3.5
1

3

2
DESC:Riporto per OXO
70
0
0
ATTDEF
8
0
10
102.046738
20
127.912590
30
0.0
40
3.5
1

3

2
DENS:1.120000
70
0
0
ATTDEF
8
0
10
102.046738
20
127.912590
30
0.0
40
3.5
1

3

2
TDEV:0.000000
70
0
0
ATTDEF
8
0
10
102.046738
20
127.912590
30
0.0
40
3.5
1

3

2
TDEV2:0.000000
70
0
0
ATTDEF
8
0
10
102.046738
20
127.912590
30
0.0
40
3.5
1

3

2
TDEV3:0.000000
70
0
0
ATTDEF
8
0
10
102.046738
20
127.912590
30
0.0
40
3.5
1

3

2
TDEV4:0.000000
70
0
0
ATTDEF
8
0
10
102.046738
20
127.912590
30
0.0
40
3.5
1

3

2
TDEV5:0.000000
70
0
0
ATTDEF
8
0
10
102.046738
20
127.912590
30
0.0
40
3.5
1

3

2
FRONT_VIEW
70
0
0
ATTDEF
8
0
10
102.046738
20
127.912590
30
0.0
40
3.5
1

3

2
BL01:6800.000000,,1
70
0
0
ATTDEF
8
0
10
102.046738
20
127.912590
30
0.0
40
3.5
1

3

2
OPTI:500.000000,1,0,3000.000000,6500.000000,500.000000,0,0.000000,0
70
0
0
ATTDEF
8
0
10
102.046738
20
127.912590
30
0.0
40
3.5
1

3

2
PANE_WIDTH:0.000000
70
0
0
ATTDEF
8
0
10
102.046738
20
127.912590
30
0.0
40
3.5
1

3

2
GLASS_MIN:0.000000
70
0
0
ATTDEF
8
0
10
102.046738
20
127.912590
30
0.0
40
3.5
1

3

2
GLASS_MAX:0.000000
70
0
0
ATTDEF
8
0
10
102.046738
20
127.912590
30
0.0
40
3.5
1

3

2
JX:0.000000
70
0
0
ATTDEF
8
0
10
102.046738
20
127.912590
30
0.0
40
3.5
1

3

2
WX:0.000000
70
0
0
ATTDEF
8
0
10
102.046738
20
127.912590
30
0.0
40
3.5
1

3

2
JY:0.000000
70
0
0
ATTDEF
8
0
10
102.046738
20
127.912590
30
0.0
40
3.5
1

3

2
WY:0.000000
70
0
0
ATTDEF
8
0
10
102.046738
20
127.912590
30
0.0
40
3.5
1

3

2
FP_LCS_ORIG
70
0
0
ATTDEF
8
0
10
112.046738
20
127.912590
30
0.0
40
3.5
1

3

2
FP_LCS_HOT
70
0
0
ATTDEF
8
0
10
102.046738
20
137.912590
30
0.0
40
3.5
1

3

2
FP_LCS_INTERN
70
0
0
ENDSEC
0
EOF
