0
SECTION
2
ENTITIES
0
LINE
8
0
10
53.860381
20
193.664992
30
0.0
11
53.860381
21
195.564992
31
0.0
0
ARC
8
0
10
53.360381
20
195.564992
30
0.0
40
0.500000
50
0.000000
51
90.000000
0
LINE
8
0
10
53.360381
20
196.064992
30
0.0
11
51.960381
21
196.064992
31
0.0
0
ARC
8
0
10
51.960381
20
196.364992
30
0.0
40
0.300000
50
180.000000
51
270.000000
0
LINE
8
0
10
51.660381
20
196.364992
30
0.0
11
51.660381
21
211.081129
31
0.0
0
ARC
8
0
10
52.160381
20
211.081129
30
0.0
40
0.500000
50
96.000000
51
180.000000
0
LINE
8
0
10
52.108117
20
211.578390
30
0.0
11
57.932593
21
212.190567
31
0.0
0
ARC
8
0
10
57.963951
20
211.892210
30
0.0
40
0.300000
50
0.000000
51
96.000000
0
LINE
8
0
10
58.263951
20
211.892210
30
0.0
11
58.263951
21
210.964992
31
0.0
0
ARC
8
0
10
58.563951
20
210.964992
30
0.0
40
0.300000
50
180.000000
51
270.000000
0
LINE
8
0
10
58.563951
20
210.664992
30
0.0
11
62.263951
21
210.664992
31
0.0
0
LINE
8
0
10
62.263951
20
210.664992
30
0.0
11
62.563951
21
210.964992
31
0.0
0
LINE
8
0
10
62.563951
20
210.964992
30
0.0
11
62.863951
21
210.664992
31
0.0
0
LINE
8
0
10
62.863951
20
210.664992
30
0.0
11
66.563951
21
210.664992
31
0.0
0
ARC
8
0
10
66.563951
20
210.964992
30
0.0
40
0.300000
50
270.000000
51
0.000000
0
LINE
8
0
10
66.863951
20
210.964992
30
0.0
11
66.863951
21
211.964992
31
0.0
0
ARC
8
0
10
67.163951
20
211.964992
30
0.0
40
0.300000
50
90.000000
51
180.000000
0
LINE
8
0
10
67.163951
20
212.264992
30
0.0
11
67.763951
21
212.264992
31
0.0
0
ARC
8
0
10
67.763951
20
212.564992
30
0.0
40
0.300000
50
270.000000
51
0.000000
0
LINE
8
0
10
68.063951
20
212.564992
30
0.0
11
68.063951
21
213.364992
31
0.0
0
ARC
8
0
10
67.763951
20
213.364992
30
0.0
40
0.300000
50
0.000000
51
90.000000
0
LINE
8
0
10
67.763951
20
213.664992
30
0.0
11
65.213951
21
213.664992
31
0.0
0
ARC
8
0
10
65.213951
20
213.364992
30
0.0
40
0.300000
50
90.000000
51
180.000000
0
LINE
8
0
10
64.913951
20
213.364992
30
0.0
11
64.913951
21
213.164992
31
0.0
0
ARC
8
0
10
63.913951
20
213.164992
30
0.0
40
1.000000
50
270.000000
51
0.000000
0
LINE
8
0
10
63.913951
20
212.164992
30
0.0
11
61.213951
21
212.164992
31
0.0
0
ARC
8
0
10
61.213951
20
213.164992
30
0.0
40
1.000000
50
180.000000
51
270.000000
0
LINE
8
0
10
60.213951
20
213.164992
30
0.0
11
60.213951
21
213.364992
31
0.0
0
ARC
8
0
10
59.913951
20
213.364992
30
0.0
40
0.300000
50
0.000000
51
90.000000
0
LINE
8
0
10
59.913951
20
213.664992
30
0.0
11
57.610654
21
213.664992
31
0.0
0
LINE
8
0
10
57.610654
20
213.664992
30
0.0
11
51.503588
21
213.023113
31
0.0
0
ARC
8
0
10
51.660381
20
211.531331
30
0.0
40
1.500000
50
96.000000
51
180.000000
0
LINE
8
0
10
50.160381
20
211.531331
30
0.0
11
50.160381
21
187.564992
31
0.0
0
ARC
8
0
10
51.660381
20
187.564992
30
0.0
40
1.500000
50
180.000000
51
270.000000
0
LINE
8
0
10
51.660381
20
186.064992
30
0.0
11
53.560381
21
186.064992
31
0.0
0
ARC
8
0
10
53.560381
20
186.364992
30
0.0
40
0.300000
50
270.000000
51
0.000000
0
LINE
8
0
10
53.860381
20
186.364992
30
0.0
11
53.860381
21
188.464992
31
0.0
0
ARC
8
0
10
53.560381
20
188.464992
30
0.0
40
0.300000
50
0.000000
51
90.000000
0
LINE
8
0
10
53.560381
20
188.764992
30
0.0
11
53.160381
21
188.764992
31
0.0
0
ARC
8
0
10
53.160381
20
188.464992
30
0.0
40
0.300000
50
90.000000
51
180.000000
0
LINE
8
0
10
52.860381
20
188.464992
30
0.0
11
52.860381
21
187.564992
31
0.0
0
ARC
8
0
10
52.560381
20
187.564992
30
0.0
40
0.300000
50
270.000000
51
0.000000
0
LINE
8
0
10
52.560381
20
187.264992
30
0.0
11
51.862403
21
187.264992
31
0.0
0
ARC
8
0
10
51.862403
20
187.564992
30
0.0
40
0.300000
50
180.000000
51
270.000000
0
LINE
8
0
10
51.562403
20
187.564992
30
0.0
11
51.562403
21
194.564992
31
0.0
0
ARC
8
0
10
51.862403
20
194.564992
30
0.0
40
0.300000
50
90.000000
51
180.000000
0
LINE
8
0
10
51.862403
20
194.864992
30
0.0
11
52.560381
21
194.864992
31
0.0
0
ARC
8
0
10
52.560381
20
194.564992
30
0.0
40
0.300000
50
0.000000
51
90.000000
0
LINE
8
0
10
52.860381
20
194.564992
30
0.0
11
52.860381
21
193.664992
31
0.0
0
ARC
8
0
10
53.160381
20
193.664992
30
0.0
40
0.300000
50
180.000000
51
270.000000
0
LINE
8
0
10
53.160381
20
193.364992
30
0.0
11
53.560381
21
193.364992
31
0.0
0
ARC
8
0
10
53.560381
20
193.664992
30
0.0
40
0.300000
50
270.000000
51
0.000000
0
ATTDEF
8
0
10
58.563951
20
210.664992
30
0.0
40
3.5
1

3

2
VC_START
70
0
0
ATTDEF
8
0
10
65.213951
20
213.664992
30
0.0
40
3.5
1

3

2
VC_END
70
0
0
ATTDEF
8
0
10
50.160381
20
213.664992
30
0.0
40
3.5
1

3

2
FRONT_VIEW
70
0
0
ATTDEF
8
0
10
50.160381
20
213.664992
30
0.0
40
3.5
1

3

2
BL01:6800.000000,,1
70
0
0
ATTDEF
8
0
10
50.160381
20
213.664992
30
0.0
40
3.5
1

3

2
OPTI:500.000000,1,0,3000.000000,6500.000000,500.000000,0,0.000000,0
70
0
0
ATTDEF
8
0
10
50.160381
20
213.664992
30
0.0
40
3.5
1

3

2
GLASS_MIN:0.000000
70
0
0
ATTDEF
8
0
10
50.160381
20
213.664992
30
0.0
40
3.5
1

3

2
GLASS_MAX:0.000000
70
0
0
ATTDEF
8
0
10
50.160381
20
213.664992
30
0.0
40
3.5
1

3

2
FP_LCS_ORIG
70
0
0
ATTDEF
8
0
10
60.160381
20
213.664992
30
0.0
40
3.5
1

3

2
FP_LCS_HOT
70
0
0
ATTDEF
8
0
10
50.160381
20
203.664992
30
0.0
40
3.5
1

3

2
FP_LCS_INTERN
70
0
0
ATTDEF
8
0
10
0.000000
20
0.000000
30
0.0
40
3.5
1

3

2
TDEV2:0
70
0
0
ATTDEF
8
0
10
0.000000
20
0.000000
30
0.0
40
3.5
1

3

2
TDEV3:0
70
0
0
ATTDEF
8
0
10
0.000000
20
0.000000
30
0.0
40
3.5
1

3

2
TDEV4:0
70
0
0
ATTDEF
8
0
10
0.000000
20
0.000000
30
0.0
40
3.5
1

3

2
TDEV5:0
70
0
0
ATTDEF
8
0
10
0.000000
20
0.000000
30
0.0
40
3.5
1

3

2
PANE_WIDTH:0
70
0
0
ATTDEF
8
0
10
0.000000
20
0.000000
30
0.0
40
3.5
1

3

2
MIN_VETRO:0
70
0
0
ATTDEF
8
0
10
0.000000
20
0.000000
30
0.0
40
3.5
1

3

2
MAX_VETRO:0
70
0
0
ATTDEF
8
0
10
0.000000
20
0.000000
30
0.0
40
3.5
1

3

2
JX:0
70
0
0
ATTDEF
8
0
10
0.000000
20
0.000000
30
0.0
40
3.5
1

3

2
WX:0
70
0
0
ATTDEF
8
0
10
0.000000
20
0.000000
30
0.0
40
3.5
1

3

2
JY:0
70
0
0
ATTDEF
8
0
10
0.000000
20
0.000000
30
0.0
40
3.5
1

3

2
WY:0
70
0
0
ATTDEF
8
0
10
0.000000
20
0.000000
30
0.0
40
3.5
1

3

2
DESC:Gocciolatoio
70
0
0
ATTDEF
8
0
10
0.000000
20
0.000000
30
0.0
40
3.5
1

3

2
DENS:0.22
70
0
0
ATTDEF
8
0
10
0.000000
20
0.000000
30
0.0
40
3.5
1

3

2
TDEV:0
70
0
0
ATTDEF
8
0
10
0.000000
20
0.000000
30
0.0
40
3.5
1

3

2
TDEV2:0
70
0
0
ATTDEF
8
0
10
0.000000
20
0.000000
30
0.0
40
3.5
1

3

2
TDEV3:0
70
0
0
ATTDEF
8
0
10
0.000000
20
0.000000
30
0.0
40
3.5
1

3

2
TDEV4:0
70
0
0
ATTDEF
8
0
10
0.000000
20
0.000000
30
0.0
40
3.5
1

3

2
TDEV5:0
70
0
0
ATTDEF
8
0
10
0.000000
20
0.000000
30
0.0
40
3.5
1

3

2
PANE_WIDTH:0
70
0
0
ATTDEF
8
0
10
0.000000
20
0.000000
30
0.0
40
3.5
1

3

2
MIN_VETRO:0
70
0
0
ATTDEF
8
0
10
0.000000
20
0.000000
30
0.0
40
3.5
1

3

2
MAX_VETRO:0
70
0
0
ATTDEF
8
0
10
0.000000
20
0.000000
30
0.0
40
3.5
1

3

2
JX:0
70
0
0
ATTDEF
8
0
10
0.000000
20
0.000000
30
0.0
40
3.5
1

3

2
WX:0
70
0
0
ATTDEF
8
0
10
0.000000
20
0.000000
30
0.0
40
3.5
1

3

2
JY:0
70
0
0
ATTDEF
8
0
10
0.000000
20
0.000000
30
0.0
40
3.5
1

3

2
WY:0
70
0
0
ENDSEC
0
EOF
