0
SECTION
2
ENTITIES
0
LINE
8
0
10
-517536.169510
20
-146463.143705
30
0.0
11
-517536.169510
21
-146462.543705
31
0.0
0
ARC
8
0
10
-517536.469510
20
-146462.543705
30
0.0
40
0.300000
50
0.000000
51
90.000000
0
LINE
8
0
10
-517536.469510
20
-146462.243705
30
0.0
11
-517537.369510
21
-146462.243705
31
0.0
0
ARC
8
0
10
-517537.369510
20
-146461.943705
30
0.0
40
0.300000
50
180.000000
51
270.000000
0
LINE
8
0
10
-517537.669510
20
-146461.943705
30
0.0
11
-517537.669510
21
-146461.243705
31
0.0
0
ARC
8
0
10
-517537.369510
20
-146461.243705
30
0.0
40
0.300000
50
90.000000
51
180.000000
0
LINE
8
0
10
-517537.369510
20
-146460.943705
30
0.0
11
-517530.369510
21
-146460.943705
31
0.0
0
ARC
8
0
10
-517530.369510
20
-146461.243705
30
0.0
40
0.300000
50
0.000000
51
90.000000
0
LINE
8
0
10
-517530.069510
20
-146461.243705
30
0.0
11
-517530.069510
21
-146461.943705
31
0.0
0
ARC
8
0
10
-517530.369510
20
-146461.943705
30
0.0
40
0.300000
50
270.000000
51
0.000000
0
LINE
8
0
10
-517530.369510
20
-146462.243705
30
0.0
11
-517531.269510
21
-146462.243705
31
0.0
0
ARC
8
0
10
-517531.269510
20
-146462.543705
30
0.0
40
0.300000
50
90.000000
51
180.000000
0
LINE
8
0
10
-517531.569510
20
-146462.543705
30
0.0
11
-517531.569510
21
-146463.143705
31
0.0
0
ARC
8
0
10
-517531.269510
20
-146463.143705
30
0.0
40
0.300000
50
180.000000
51
270.000000
0
LINE
8
0
10
-517531.269510
20
-146463.443705
30
0.0
11
-517529.871210
21
-146463.443705
31
0.0
0
ARC
8
0
10
-517529.871210
20
-146462.443705
30
0.0
40
1.000000
50
270.000000
51
0.000000
0
LINE
8
0
10
-517528.871210
20
-146462.443705
30
0.0
11
-517528.871210
21
-146460.543705
31
0.0
0
ARC
8
0
10
-517529.871210
20
-146460.543705
30
0.0
40
1.000000
50
0.000000
51
90.000000
0
LINE
8
0
10
-517529.871210
20
-146459.543705
30
0.0
11
-517536.569510
21
-146459.543705
31
0.0
0
ARC
8
0
10
-517536.569510
20
-146458.543705
30
0.0
40
1.000000
50
180.000000
51
270.000000
0
LINE
8
0
10
-517537.569510
20
-146458.543705
30
0.0
11
-517537.569510
21
-146426.543705
31
0.0
0
ARC
8
0
10
-517537.269510
20
-146426.543705
30
0.0
40
0.300000
50
90.000000
51
180.000000
0
LINE
8
0
10
-517537.269510
20
-146426.243705
30
0.0
11
-517529.693774
21
-146426.243705
31
0.0
0
ARC
8
0
10
-517529.693774
20
-146426.543705
30
0.0
40
0.300000
50
45.000000
51
90.000000
0
LINE
8
0
10
-517529.481642
20
-146426.331573
30
0.0
11
-517528.284459
21
-146427.528756
31
0.0
0
ARC
8
0
10
-517527.930905
20
-146427.175203
30
0.0
40
0.500000
50
225.000000
51
300.000000
0
LINE
8
0
10
-517527.680905
20
-146427.608216
30
0.0
11
-517526.719510
21
-146427.053154
31
0.0
0
ARC
8
0
10
-517526.969510
20
-146426.620141
30
0.0
40
0.500000
50
300.000000
51
120.000000
0
LINE
8
0
10
-517527.219510
20
-146426.187128
30
0.0
11
-517527.649286
21
-146426.435259
31
0.0
0
ARC
8
0
10
-517527.799286
20
-146426.175452
30
0.0
40
0.300000
50
225.000000
51
300.000000
0
LINE
8
0
10
-517528.011418
20
-146426.387584
30
0.0
11
-517529.067428
21
-146425.331573
31
0.0
0
ARC
8
0
10
-517529.279560
20
-146425.543705
30
0.0
40
0.300000
50
45.000000
51
90.000000
0
LINE
8
0
10
-517529.279560
20
-146425.243705
30
0.0
11
-517537.269510
21
-146425.243705
31
0.0
0
ARC
8
0
10
-517537.269510
20
-146424.943705
30
0.0
40
0.300000
50
180.000000
51
270.000000
0
LINE
8
0
10
-517537.569510
20
-146424.943705
30
0.0
11
-517537.569510
21
-146417.143705
31
0.0
0
ARC
8
0
10
-517537.269510
20
-146417.143705
30
0.0
40
0.300000
50
90.000000
51
180.000000
0
LINE
8
0
10
-517537.269510
20
-146416.843705
30
0.0
11
-517529.279560
21
-146416.843705
31
0.0
0
ARC
8
0
10
-517529.279560
20
-146416.543705
30
0.0
40
0.300000
50
270.000000
51
315.000000
0
LINE
8
0
10
-517529.067428
20
-146416.755837
30
0.0
11
-517528.011418
21
-146415.699827
31
0.0
0
ARC
8
0
10
-517527.799286
20
-146415.911959
30
0.0
40
0.300000
50
60.000000
51
135.000000
0
LINE
8
0
10
-517527.649286
20
-146415.652151
30
0.0
11
-517527.219510
21
-146415.900282
31
0.0
0
ARC
8
0
10
-517526.969510
20
-146415.467269
30
0.0
40
0.500000
50
240.000000
51
60.000000
0
LINE
8
0
10
-517526.719510
20
-146415.034257
30
0.0
11
-517527.680905
21
-146414.479195
31
0.0
0
ARC
8
0
10
-517527.930905
20
-146414.912207
30
0.0
40
0.500000
50
60.000000
51
135.000000
0
LINE
8
0
10
-517528.284459
20
-146414.558654
30
0.0
11
-517529.481642
21
-146415.755837
31
0.0
0
ARC
8
0
10
-517529.693774
20
-146415.543705
30
0.0
40
0.300000
50
270.000000
51
315.000000
0
LINE
8
0
10
-517529.693774
20
-146415.843705
30
0.0
11
-517537.269510
21
-146415.843705
31
0.0
0
ARC
8
0
10
-517537.269510
20
-146415.543705
30
0.0
40
0.300000
50
180.000000
51
270.000000
0
LINE
8
0
10
-517537.569510
20
-146415.543705
30
0.0
11
-517537.569510
21
-146399.643705
31
0.0
0
ARC
8
0
10
-517537.869510
20
-146399.643705
30
0.0
40
0.300000
50
0.000000
51
90.000000
0
ARC
8
0
10
-517537.869510
20
-146400.543705
30
0.0
40
1.200000
50
90.000000
51
180.000000
0
LINE
8
0
10
-517539.069510
20
-146400.543705
30
0.0
11
-517539.069510
21
-146463.143705
31
0.0
0
ARC
8
0
10
-517538.769510
20
-146463.143705
30
0.0
40
0.300000
50
180.000000
51
270.000000
0
LINE
8
0
10
-517538.769510
20
-146463.443705
30
0.0
11
-517536.469510
21
-146463.443705
31
0.0
0
ARC
8
0
10
-517536.469510
20
-146463.143705
30
0.0
40
0.300000
50
270.000000
51
0.000000
0
ATTDEF
8
0
10
-517537.569510
20
-146399.643705
30
0.0
40
3.5
1

3

2
HC_START
70
0
0
ATTDEF
8
0
10
-517539.069510
20
-146400.543705
30
0.0
40
3.5
1

3

2
HC_END
70
0
0
ATTDEF
8
0
10
-517539.069510
20
-146399.343705
30
0.0
40
3.5
1

3

2
FRONT_VIEW
70
0
0
ATTDEF
8
0
10
-517539.069510
20
-146399.343705
30
0.0
40
3.5
1

3

2
BL01:6800.000000,,1
70
0
0
ATTDEF
8
0
10
-517539.069510
20
-146399.343705
30
0.0
40
3.5
1

3

2
OPTI:500.000000,1,0,3000.000000,6500.000000,500.000000,0,0.000000,0
70
0
0
ATTDEF
8
0
10
-517539.069510
20
-146399.343705
30
0.0
40
3.5
1

3

2
GLASS_MIN:0.000000
70
0
0
ATTDEF
8
0
10
-517539.069510
20
-146399.343705
30
0.0
40
3.5
1

3

2
GLASS_MAX:0.000000
70
0
0
ATTDEF
8
0
10
-517539.069510
20
-146399.343705
30
0.0
40
3.5
1

3

2
FP_LCS_ORIG
70
0
0
ATTDEF
8
0
10
-517539.069510
20
-146409.343705
30
0.0
40
3.5
1

3

2
FP_LCS_HOT
70
0
0
ATTDEF
8
0
10
-517529.069510
20
-146399.343705
30
0.0
40
3.5
1

3

2
FP_LCS_INTERN
70
0
0
ATTDEF
8
0
10
0.000000
20
0.000000
30
0.0
40
3.5
1

3

2
TDEV2:0
70
0
0
ATTDEF
8
0
10
0.000000
20
0.000000
30
0.0
40
3.5
1

3

2
TDEV3:0
70
0
0
ATTDEF
8
0
10
0.000000
20
0.000000
30
0.0
40
3.5
1

3

2
TDEV4:0
70
0
0
ATTDEF
8
0
10
0.000000
20
0.000000
30
0.0
40
3.5
1

3

2
TDEV5:0
70
0
0
ATTDEF
8
0
10
0.000000
20
0.000000
30
0.0
40
3.5
1

3

2
PANE_WIDTH:0
70
0
0
ATTDEF
8
0
10
0.000000
20
0.000000
30
0.0
40
3.5
1

3

2
MIN_VETRO:0
70
0
0
ATTDEF
8
0
10
0.000000
20
0.000000
30
0.0
40
3.5
1

3

2
MAX_VETRO:0
70
0
0
ATTDEF
8
0
10
0.000000
20
0.000000
30
0.0
40
3.5
1

3

2
JX:0
70
0
0
ATTDEF
8
0
10
0.000000
20
0.000000
30
0.0
40
3.5
1

3

2
WX:0
70
0
0
ATTDEF
8
0
10
0.000000
20
0.000000
30
0.0
40
3.5
1

3

2
JY:0
70
0
0
ATTDEF
8
0
10
0.000000
20
0.000000
30
0.0
40
3.5
1

3

2
WY:0
70
0
0
ATTDEF
8
0
10
0.000000
20
0.000000
30
0.0
40
3.5
1

3

2
DESC:Cover finitura telaio XX
70
0
0
ATTDEF
8
0
10
0.000000
20
0.000000
30
0.0
40
3.5
1

3

2
DENS:0.39
70
0
0
ATTDEF
8
0
10
0.000000
20
0.000000
30
0.0
40
3.5
1

3

2
TDEV:0
70
0
0
ATTDEF
8
0
10
0.000000
20
0.000000
30
0.0
40
3.5
1

3

2
TDEV2:0
70
0
0
ATTDEF
8
0
10
0.000000
20
0.000000
30
0.0
40
3.5
1

3

2
TDEV3:0
70
0
0
ATTDEF
8
0
10
0.000000
20
0.000000
30
0.0
40
3.5
1

3

2
TDEV4:0
70
0
0
ATTDEF
8
0
10
0.000000
20
0.000000
30
0.0
40
3.5
1

3

2
TDEV5:0
70
0
0
ATTDEF
8
0
10
0.000000
20
0.000000
30
0.0
40
3.5
1

3

2
PANE_WIDTH:0
70
0
0
ATTDEF
8
0
10
0.000000
20
0.000000
30
0.0
40
3.5
1

3

2
MIN_VETRO:0
70
0
0
ATTDEF
8
0
10
0.000000
20
0.000000
30
0.0
40
3.5
1

3

2
MAX_VETRO:0
70
0
0
ATTDEF
8
0
10
0.000000
20
0.000000
30
0.0
40
3.5
1

3

2
JX:0
70
0
0
ATTDEF
8
0
10
0.000000
20
0.000000
30
0.0
40
3.5
1

3

2
WX:0
70
0
0
ATTDEF
8
0
10
0.000000
20
0.000000
30
0.0
40
3.5
1

3

2
JY:0
70
0
0
ATTDEF
8
0
10
0.000000
20
0.000000
30
0.0
40
3.5
1

3

2
WY:0
70
0
0
ENDSEC
0
EOF
