0
SECTION
2
ENTITIES
0
LINE
8
0
10
33.263750
20
158.445835
30
0.0
11
34.863750
21
158.445835
31
0.0
0
ARC
8
0
10
34.863750
20
157.945835
30
0.0
40
0.500000
50
0.000000
51
90.000000
0
LINE
8
0
10
35.363750
20
157.945835
30
0.0
11
35.363750
21
156.538424
31
0.0
0
ARC
8
0
10
35.063750
20
156.538424
30
0.0
40
0.300000
50
315.000000
51
0.000000
0
LINE
8
0
10
35.275882
20
156.326292
30
0.0
11
34.966759
21
156.017169
31
0.0
0
ARC
8
0
10
35.461734
20
155.522194
30
0.0
40
0.700000
50
135.000000
51
209.500322
0
LINE
8
0
10
34.852487
20
155.177495
30
0.0
11
35.803638
21
153.496363
31
0.0
0
ARC
8
0
10
36.063750
20
153.645835
30
0.0
40
0.300000
50
209.883652
51
0.000000
0
LINE
8
0
10
36.363750
20
153.645835
30
0.0
11
36.363750
21
159.245835
31
0.0
0
ARC
8
0
10
35.863750
20
159.245835
30
0.0
40
0.500000
50
0.000000
51
90.000000
0
LINE
8
0
10
35.863750
20
159.745835
30
0.0
11
32.963750
21
159.745835
31
0.0
0
ARC
8
0
10
32.963750
20
160.045835
30
0.0
40
0.300000
50
180.000000
51
270.000000
0
LINE
8
0
10
32.663750
20
160.045835
30
0.0
11
32.663750
21
173.158525
31
0.0
0
ARC
8
0
10
33.163750
20
173.158525
30
0.0
40
0.500000
50
77.588060
51
180.000000
0
LINE
8
0
10
33.271219
20
173.646839
30
0.0
11
47.270903
21
170.565751
31
0.0
0
ARC
8
0
10
47.163433
20
170.077437
30
0.0
40
0.500000
50
0.000000
51
77.588060
0
LINE
8
0
10
47.663433
20
170.077437
30
0.0
11
47.663433
21
160.045835
31
0.0
0
ARC
8
0
10
47.363433
20
160.045835
30
0.0
40
0.300000
50
270.000000
51
0.000000
0
LINE
8
0
10
47.363433
20
159.745835
30
0.0
11
44.263433
21
159.745835
31
0.0
0
ARC
8
0
10
44.263433
20
159.245835
30
0.0
40
0.500000
50
90.000000
51
180.000000
0
LINE
8
0
10
43.763433
20
159.245835
30
0.0
11
43.763433
21
153.645835
31
0.0
0
ARC
8
0
10
44.063433
20
153.645835
30
0.0
40
0.300000
50
180.000000
51
330.116348
0
LINE
8
0
10
44.323545
20
153.496363
30
0.0
11
45.274696
21
155.177495
31
0.0
0
ARC
8
0
10
44.665449
20
155.522194
30
0.0
40
0.700000
50
330.499678
51
45.000000
0
LINE
8
0
10
45.160424
20
156.017169
30
0.0
11
44.851301
21
156.326292
31
0.0
0
ARC
8
0
10
45.063433
20
156.538424
30
0.0
40
0.300000
50
180.000000
51
225.000000
0
LINE
8
0
10
44.763433
20
156.538424
30
0.0
11
44.763433
21
157.945835
31
0.0
0
ARC
8
0
10
45.263433
20
157.945835
30
0.0
40
0.500000
50
90.000000
51
180.000000
0
LINE
8
0
10
45.263433
20
158.445835
30
0.0
11
47.363750
21
158.445835
31
0.0
0
LINE
8
0
10
47.363750
20
158.445835
30
0.0
11
47.363750
21
158.245835
31
0.0
0
ARC
8
0
10
47.663750
20
158.245835
30
0.0
40
0.300000
50
180.000000
51
270.000000
0
LINE
8
0
10
47.663750
20
157.945835
30
0.0
11
49.063750
21
157.945835
31
0.0
0
ARC
8
0
10
49.063750
20
158.245835
30
0.0
40
0.300000
50
270.000000
51
0.000000
0
LINE
8
0
10
49.363750
20
158.245835
30
0.0
11
49.363750
21
171.041986
31
0.0
0
ARC
8
0
10
48.363750
20
171.041986
30
0.0
40
1.000000
50
0.000000
51
77.588060
0
LINE
8
0
10
48.578688
20
172.018614
30
0.0
11
9.578146
21
180.601959
31
0.0
0
ARC
8
0
10
9.148268
20
178.648704
30
0.0
40
2.000000
50
77.588060
51
90.000000
0
LINE
8
0
10
9.148268
20
180.648704
30
0.0
11
-23.236250
21
180.648704
31
0.0
0
ARC
8
0
10
-23.236250
20
180.348704
30
0.0
40
0.300000
50
90.000000
51
180.000000
0
LINE
8
0
10
-23.536250
20
180.348704
30
0.0
11
-23.536250
21
178.050405
31
0.0
0
ARC
8
0
10
-23.236250
20
178.050405
30
0.0
40
0.300000
50
180.000000
51
270.000000
0
LINE
8
0
10
-23.236250
20
177.750405
30
0.0
11
-22.636250
21
177.750405
31
0.0
0
ARC
8
0
10
-22.636250
20
178.050405
30
0.0
40
0.300000
50
270.000000
51
0.000000
0
LINE
8
0
10
-22.336250
20
178.050405
30
0.0
11
-22.336250
21
178.950405
31
0.0
0
ARC
8
0
10
-22.036250
20
178.950405
30
0.0
40
0.300000
50
90.000000
51
180.000000
0
LINE
8
0
10
-22.036250
20
179.250405
30
0.0
11
-21.336250
21
179.250405
31
0.0
0
ARC
8
0
10
-21.336250
20
178.950405
30
0.0
40
0.300000
50
0.000000
51
90.000000
0
LINE
8
0
10
-21.036250
20
178.950405
30
0.0
11
-21.036250
21
171.950405
31
0.0
0
ARC
8
0
10
-21.336250
20
171.950405
30
0.0
40
0.300000
50
270.000000
51
0.000000
0
LINE
8
0
10
-21.336250
20
171.650405
30
0.0
11
-22.036250
21
171.650405
31
0.0
0
ARC
8
0
10
-22.036250
20
171.950405
30
0.0
40
0.300000
50
180.000000
51
270.000000
0
LINE
8
0
10
-22.336250
20
171.950405
30
0.0
11
-22.336250
21
172.850405
31
0.0
0
ARC
8
0
10
-22.636250
20
172.850405
30
0.0
40
0.300000
50
0.000000
51
90.000000
0
LINE
8
0
10
-22.636250
20
173.150405
30
0.0
11
-23.236250
21
173.150405
31
0.0
0
ARC
8
0
10
-23.236250
20
172.850405
30
0.0
40
0.300000
50
90.000000
51
180.000000
0
LINE
8
0
10
-23.536250
20
172.850405
30
0.0
11
-23.536250
21
171.450405
31
0.0
0
ARC
8
0
10
-22.536250
20
171.450405
30
0.0
40
1.000000
50
180.000000
51
270.000000
0
LINE
8
0
10
-22.536250
20
170.450405
30
0.0
11
-20.636250
21
170.450405
31
0.0
0
ARC
8
0
10
-20.636250
20
171.450405
30
0.0
40
1.000000
50
270.000000
51
0.000000
0
LINE
8
0
10
-19.636250
20
171.450405
30
0.0
11
-19.636250
21
178.148704
31
0.0
0
ARC
8
0
10
-19.136250
20
178.148704
30
0.0
40
0.500000
50
90.000000
51
180.000000
0
LINE
8
0
10
-19.136250
20
178.648704
30
0.0
11
-2.136266
21
178.648704
31
0.0
0
ARC
8
0
10
-2.136266
20
178.348704
30
0.0
40
0.300000
50
0.000000
51
90.000000
0
LINE
8
0
10
-1.836266
20
178.348704
30
0.0
11
-1.836266
21
176.610722
31
0.0
0
ARC
8
0
10
-2.136266
20
176.610722
30
0.0
40
0.300000
50
285.000000
51
0.000000
0
LINE
8
0
10
-2.058620
20
176.320944
30
0.0
11
-4.113912
21
175.770231
31
0.0
0
ARC
8
0
10
-4.036266
20
175.480453
30
0.0
40
0.300000
50
105.000000
51
180.000000
0
LINE
8
0
10
-4.336266
20
175.480453
30
0.0
11
-4.336266
21
174.548704
31
0.0
0
ARC
8
0
10
-4.036266
20
174.548704
30
0.0
40
0.300000
50
180.000000
51
285.000000
0
LINE
8
0
10
-3.958620
20
174.258927
30
0.0
11
-0.558620
21
175.169954
31
0.0
0
ARC
8
0
10
-0.636266
20
175.459732
30
0.0
40
0.300000
50
285.000000
51
0.000000
0
LINE
8
0
10
-0.336266
20
175.459732
30
0.0
11
-0.336266
21
178.348704
31
0.0
0
ARC
8
0
10
-0.036266
20
178.348704
30
0.0
40
0.300000
50
90.000000
51
180.000000
0
LINE
8
0
10
-0.036266
20
178.648704
30
0.0
11
9.093898
21
178.648704
31
0.0
0
ARC
8
0
10
9.093898
20
178.148704
30
0.0
40
0.500000
50
77.588060
51
90.000000
0
LINE
8
0
10
9.201367
20
178.637018
30
0.0
11
30.871219
21
173.867858
31
0.0
0
ARC
8
0
10
30.763750
20
173.379544
30
0.0
40
0.500000
50
0.000000
51
77.588060
0
LINE
8
0
10
31.263750
20
173.379544
30
0.0
11
31.263750
21
158.245835
31
0.0
0
ARC
8
0
10
31.563750
20
158.245835
30
0.0
40
0.300000
50
180.000000
51
270.000000
0
LINE
8
0
10
31.563750
20
157.945835
30
0.0
11
32.963750
21
157.945835
31
0.0
0
ARC
8
0
10
32.963750
20
158.245835
30
0.0
40
0.300000
50
270.000000
51
0.000000
0
LINE
8
0
10
33.263750
20
158.245835
30
0.0
11
33.263750
21
158.445835
31
0.0
0
ATTDEF
8
0
10
-23.236250
20
180.648704
30
0.0
40
3.5
1

3

2
VC_START
70
0
0
ATTDEF
8
0
10
31.563750
20
157.945835
30
0.0
40
3.5
1

3

2
VC_END
70
0
0
ATTDEF
8
0
10
-23.536250
20
153.345835
30
0.0
40
3.5
1

3

2
FRONT_VIEW
70
0
0
ATTDEF
8
0
10
-23.536250
20
153.345835
30
0.0
40
3.5
1

3

2
BL01:6800.000000,,1
70
0
0
ATTDEF
8
0
10
-23.536250
20
153.345835
30
0.0
40
3.5
1

3

2
OPTI:500.000000,1,0,3000.000000,6500.000000,500.000000,0,0.000000,0
70
0
0
ATTDEF
8
0
10
-23.536250
20
153.345835
30
0.0
40
3.5
1

3

2
GLASS_MIN:0.000000
70
0
0
ATTDEF
8
0
10
-23.536250
20
153.345835
30
0.0
40
3.5
1

3

2
GLASS_MAX:0.000000
70
0
0
ATTDEF
8
0
10
-23.536250
20
153.345835
30
0.0
40
3.5
1

3

2
FP_LCS_ORIG
70
0
0
ATTDEF
8
0
10
-13.536250
20
153.345835
30
0.0
40
3.5
1

3

2
FP_LCS_HOT
70
0
0
ATTDEF
8
0
10
-23.536250
20
163.345835
30
0.0
40
3.5
1

3

2
FP_LCS_INTERN
70
0
0
ATTDEF
8
0
10
0.000000
20
0.000000
30
0.0
40
3.5
1

3

2
TDEV2:0
70
0
0
ATTDEF
8
0
10
0.000000
20
0.000000
30
0.0
40
3.5
1

3

2
TDEV3:0
70
0
0
ATTDEF
8
0
10
0.000000
20
0.000000
30
0.0
40
3.5
1

3

2
TDEV4:0
70
0
0
ATTDEF
8
0
10
0.000000
20
0.000000
30
0.0
40
3.5
1

3

2
TDEV5:0
70
0
0
ATTDEF
8
0
10
0.000000
20
0.000000
30
0.0
40
3.5
1

3

2
PANE_WIDTH:0
70
0
0
ATTDEF
8
0
10
0.000000
20
0.000000
30
0.0
40
3.5
1

3

2
MIN_VETRO:0
70
0
0
ATTDEF
8
0
10
0.000000
20
0.000000
30
0.0
40
3.5
1

3

2
MAX_VETRO:0
70
0
0
ATTDEF
8
0
10
0.000000
20
0.000000
30
0.0
40
3.5
1

3

2
JX:0
70
0
0
ATTDEF
8
0
10
0.000000
20
0.000000
30
0.0
40
3.5
1

3

2
WX:0
70
0
0
ATTDEF
8
0
10
0.000000
20
0.000000
30
0.0
40
3.5
1

3

2
JY:0
70
0
0
ATTDEF
8
0
10
0.000000
20
0.000000
30
0.0
40
3.5
1

3

2
WY:0
70
0
0
ATTDEF
8
0
10
0.000000
20
0.000000
30
0.0
40
3.5
1

3

2
DESC:Cover OX
70
0
0
ATTDEF
8
0
10
0.000000
20
0.000000
30
0.0
40
3.5
1

3

2
DENS:0.66
70
0
0
ATTDEF
8
0
10
0.000000
20
0.000000
30
0.0
40
3.5
1

3

2
TDEV:0
70
0
0
ATTDEF
8
0
10
0.000000
20
0.000000
30
0.0
40
3.5
1

3

2
TDEV2:0
70
0
0
ATTDEF
8
0
10
0.000000
20
0.000000
30
0.0
40
3.5
1

3

2
TDEV3:0
70
0
0
ATTDEF
8
0
10
0.000000
20
0.000000
30
0.0
40
3.5
1

3

2
TDEV4:0
70
0
0
ATTDEF
8
0
10
0.000000
20
0.000000
30
0.0
40
3.5
1

3

2
TDEV5:0
70
0
0
ATTDEF
8
0
10
0.000000
20
0.000000
30
0.0
40
3.5
1

3

2
PANE_WIDTH:0
70
0
0
ATTDEF
8
0
10
0.000000
20
0.000000
30
0.0
40
3.5
1

3

2
MIN_VETRO:0
70
0
0
ATTDEF
8
0
10
0.000000
20
0.000000
30
0.0
40
3.5
1

3

2
MAX_VETRO:0
70
0
0
ATTDEF
8
0
10
0.000000
20
0.000000
30
0.0
40
3.5
1

3

2
JX:0
70
0
0
ATTDEF
8
0
10
0.000000
20
0.000000
30
0.0
40
3.5
1

3

2
WX:0
70
0
0
ATTDEF
8
0
10
0.000000
20
0.000000
30
0.0
40
3.5
1

3

2
JY:0
70
0
0
ATTDEF
8
0
10
0.000000
20
0.000000
30
0.0
40
3.5
1

3

2
WY:0
70
0
0
ENDSEC
0
EOF
