0
SECTION
2
ENTITIES
0
ARC
8
0
10
25.981010
20
154.704986
30
0.0
40
0.500000
50
210.000000
51
30.000000
0
LINE
8
0
10
26.414023
20
154.954986
30
0.0
11
26.165891
21
155.384761
31
0.0
0
ARC
8
0
10
26.425699
20
155.534761
30
0.0
40
0.300000
50
135.000000
51
210.000000
0
LINE
8
0
10
26.213567
20
155.746894
30
0.0
11
27.269578
21
156.802904
31
0.0
0
ARC
8
0
10
27.057446
20
157.015036
30
0.0
40
0.300000
50
315.000000
51
0.000000
0
LINE
8
0
10
27.357446
20
157.015036
30
0.0
11
27.357446
21
165.004986
31
0.0
0
ARC
8
0
10
27.657446
20
165.004986
30
0.0
40
0.300000
50
90.000000
51
180.000000
0
LINE
8
0
10
27.657446
20
165.304986
30
0.0
11
35.457446
21
165.304986
31
0.0
0
ARC
8
0
10
35.457446
20
165.004986
30
0.0
40
0.300000
50
0.000000
51
90.000000
0
LINE
8
0
10
35.757446
20
165.004986
30
0.0
11
35.757446
21
157.015036
31
0.0
0
ARC
8
0
10
36.057446
20
157.015036
30
0.0
40
0.300000
50
180.000000
51
225.000000
0
LINE
8
0
10
35.845314
20
156.802904
30
0.0
11
36.901324
21
155.746894
31
0.0
0
ARC
8
0
10
36.689192
20
155.534761
30
0.0
40
0.300000
50
330.000000
51
45.000000
0
LINE
8
0
10
36.949000
20
155.384761
30
0.0
11
36.700869
21
154.954986
31
0.0
0
ARC
8
0
10
37.133882
20
154.704986
30
0.0
40
0.500000
50
150.000000
51
330.000000
0
LINE
8
0
10
37.566894
20
154.454986
30
0.0
11
38.121956
21
155.416381
31
0.0
0
ARC
8
0
10
37.688943
20
155.666381
30
0.0
40
0.500000
50
330.000000
51
45.000000
0
LINE
8
0
10
38.042497
20
156.019935
30
0.0
11
36.845314
21
157.217118
31
0.0
0
ARC
8
0
10
37.057446
20
157.429250
30
0.0
40
0.300000
50
180.000000
51
225.000000
0
LINE
8
0
10
36.757446
20
157.429250
30
0.0
11
36.757446
21
165.004986
31
0.0
0
ARC
8
0
10
37.057446
20
165.004986
30
0.0
40
0.300000
50
90.000000
51
180.000000
0
LINE
8
0
10
37.057446
20
165.304986
30
0.0
11
64.159215
21
165.304986
31
0.0
0
ARC
8
0
10
64.159215
20
165.004986
30
0.0
40
0.300000
50
0.000000
51
90.000000
0
LINE
8
0
10
64.459215
20
165.004986
30
0.0
11
64.459215
21
157.104986
31
0.0
0
ARC
8
0
10
64.759215
20
157.104986
30
0.0
40
0.300000
50
180.000000
51
270.000000
0
LINE
8
0
10
64.759215
20
156.804986
30
0.0
11
65.659215
21
156.804986
31
0.0
0
ARC
8
0
10
65.659215
20
157.104986
30
0.0
40
0.300000
50
270.000000
51
0.000000
0
LINE
8
0
10
65.959215
20
157.104986
30
0.0
11
65.959215
21
166.504986
31
0.0
0
ARC
8
0
10
65.659215
20
166.504986
30
0.0
40
0.300000
50
0.000000
51
90.000000
0
LINE
8
0
10
65.659215
20
166.804986
30
0.0
11
-10.542554
21
166.804986
31
0.0
0
ARC
8
0
10
-10.542554
20
166.504986
30
0.0
40
0.300000
50
90.000000
51
180.000000
0
LINE
8
0
10
-10.842554
20
166.504986
30
0.0
11
-10.842554
21
164.204986
31
0.0
0
ARC
8
0
10
-10.542554
20
164.204986
30
0.0
40
0.300000
50
180.000000
51
270.000000
0
LINE
8
0
10
-10.542554
20
163.904986
30
0.0
11
-9.942554
21
163.904986
31
0.0
0
ARC
8
0
10
-9.942554
20
164.204986
30
0.0
40
0.300000
50
270.000000
51
0.000000
0
LINE
8
0
10
-9.642554
20
164.204986
30
0.0
11
-9.642554
21
165.104986
31
0.0
0
ARC
8
0
10
-9.342554
20
165.104986
30
0.0
40
0.300000
50
90.000000
51
180.000000
0
LINE
8
0
10
-9.342554
20
165.404986
30
0.0
11
-8.642554
21
165.404986
31
0.0
0
ARC
8
0
10
-8.642554
20
165.104986
30
0.0
40
0.300000
50
0.000000
51
90.000000
0
LINE
8
0
10
-8.342554
20
165.104986
30
0.0
11
-8.342554
21
158.104986
31
0.0
0
ARC
8
0
10
-8.642554
20
158.104986
30
0.0
40
0.300000
50
270.000000
51
0.000000
0
LINE
8
0
10
-8.642554
20
157.804986
30
0.0
11
-9.342554
21
157.804986
31
0.0
0
ARC
8
0
10
-9.342554
20
158.104986
30
0.0
40
0.300000
50
180.000000
51
270.000000
0
LINE
8
0
10
-9.642554
20
158.104986
30
0.0
11
-9.642554
21
159.004986
31
0.0
0
ARC
8
0
10
-9.942554
20
159.004986
30
0.0
40
0.300000
50
0.000000
51
90.000000
0
LINE
8
0
10
-9.942554
20
159.304986
30
0.0
11
-10.542554
21
159.304986
31
0.0
0
ARC
8
0
10
-10.542554
20
159.004986
30
0.0
40
0.300000
50
90.000000
51
180.000000
0
LINE
8
0
10
-10.842554
20
159.004986
30
0.0
11
-10.842554
21
157.606686
31
0.0
0
ARC
8
0
10
-9.842554
20
157.606686
30
0.0
40
1.000000
50
180.000000
51
270.000000
0
LINE
8
0
10
-9.842554
20
156.606686
30
0.0
11
-7.942554
21
156.606686
31
0.0
0
ARC
8
0
10
-7.942554
20
157.606686
30
0.0
40
1.000000
50
270.000000
51
0.000000
0
LINE
8
0
10
-6.942554
20
157.606686
30
0.0
11
-6.942554
21
164.304986
31
0.0
0
ARC
8
0
10
-5.942554
20
164.304986
30
0.0
40
1.000000
50
90.000000
51
180.000000
0
LINE
8
0
10
-5.942554
20
165.304986
30
0.0
11
26.057446
21
165.304986
31
0.0
0
ARC
8
0
10
26.057446
20
165.004986
30
0.0
40
0.300000
50
0.000000
51
90.000000
0
LINE
8
0
10
26.357446
20
165.004986
30
0.0
11
26.357446
21
157.429250
31
0.0
0
ARC
8
0
10
26.057446
20
157.429250
30
0.0
40
0.300000
50
315.000000
51
0.000000
0
LINE
8
0
10
26.269578
20
157.217118
30
0.0
11
25.072395
21
156.019935
31
0.0
0
ARC
8
0
10
25.425948
20
155.666381
30
0.0
40
0.500000
50
135.000000
51
210.000000
0
LINE
8
0
10
24.992935
20
155.416381
30
0.0
11
25.547997
21
154.454986
31
0.0
0
ATTDEF
8
0
10
-10.542554
20
166.804986
30
0.0
40
3.5
1

3

2
VC_START
70
0
0
ATTDEF
8
0
10
-5.942554
20
165.304986
30
0.0
40
3.5
1

3

2
VC_END
70
0
0
ATTDEF
8
0
10
-10.842554
20
154.204986
30
0.0
40
3.5
1

3

2
FRONT_VIEW
70
0
0
ATTDEF
8
0
10
-10.842554
20
154.204986
30
0.0
40
3.5
1

3

2
BL01:6800.000000,,1
70
0
0
ATTDEF
8
0
10
-10.842554
20
154.204986
30
0.0
40
3.5
1

3

2
OPTI:500.000000,1,0,3000.000000,6500.000000,500.000000,0,0.000000,0
70
0
0
ATTDEF
8
0
10
-10.842554
20
154.204986
30
0.0
40
3.5
1

3

2
GLASS_MIN:0.000000
70
0
0
ATTDEF
8
0
10
-10.842554
20
154.204986
30
0.0
40
3.5
1

3

2
GLASS_MAX:0.000000
70
0
0
ATTDEF
8
0
10
-10.842554
20
154.204986
30
0.0
40
3.5
1

3

2
FP_LCS_ORIG
70
0
0
ATTDEF
8
0
10
-0.842554
20
154.204986
30
0.0
40
3.5
1

3

2
FP_LCS_HOT
70
0
0
ATTDEF
8
0
10
-10.842554
20
164.204986
30
0.0
40
3.5
1

3

2
FP_LCS_INTERN
70
0
0
ATTDEF
8
0
10
0.000000
20
0.000000
30
0.0
40
3.5
1

3

2
TDEV2:0
70
0
0
ATTDEF
8
0
10
0.000000
20
0.000000
30
0.0
40
3.5
1

3

2
TDEV3:0
70
0
0
ATTDEF
8
0
10
0.000000
20
0.000000
30
0.0
40
3.5
1

3

2
TDEV4:0
70
0
0
ATTDEF
8
0
10
0.000000
20
0.000000
30
0.0
40
3.5
1

3

2
TDEV5:0
70
0
0
ATTDEF
8
0
10
0.000000
20
0.000000
30
0.0
40
3.5
1

3

2
PANE_WIDTH:0
70
0
0
ATTDEF
8
0
10
0.000000
20
0.000000
30
0.0
40
3.5
1

3

2
MIN_VETRO:0
70
0
0
ATTDEF
8
0
10
0.000000
20
0.000000
30
0.0
40
3.5
1

3

2
MAX_VETRO:0
70
0
0
ATTDEF
8
0
10
0.000000
20
0.000000
30
0.0
40
3.5
1

3

2
JX:0
70
0
0
ATTDEF
8
0
10
0.000000
20
0.000000
30
0.0
40
3.5
1

3

2
WX:0
70
0
0
ATTDEF
8
0
10
0.000000
20
0.000000
30
0.0
40
3.5
1

3

2
JY:0
70
0
0
ATTDEF
8
0
10
0.000000
20
0.000000
30
0.0
40
3.5
1

3

2
WY:0
70
0
0
ATTDEF
8
0
10
0.000000
20
0.000000
30
0.0
40
3.5
1

3

2
DESC:Cover
70
0
0
ATTDEF
8
0
10
0.000000
20
0.000000
30
0.0
40
3.5
1

3

2
DENS:0.48
70
0
0
ATTDEF
8
0
10
0.000000
20
0.000000
30
0.0
40
3.5
1

3

2
TDEV:0
70
0
0
ATTDEF
8
0
10
0.000000
20
0.000000
30
0.0
40
3.5
1

3

2
TDEV2:0
70
0
0
ATTDEF
8
0
10
0.000000
20
0.000000
30
0.0
40
3.5
1

3

2
TDEV3:0
70
0
0
ATTDEF
8
0
10
0.000000
20
0.000000
30
0.0
40
3.5
1

3

2
TDEV4:0
70
0
0
ATTDEF
8
0
10
0.000000
20
0.000000
30
0.0
40
3.5
1

3

2
TDEV5:0
70
0
0
ATTDEF
8
0
10
0.000000
20
0.000000
30
0.0
40
3.5
1

3

2
PANE_WIDTH:0
70
0
0
ATTDEF
8
0
10
0.000000
20
0.000000
30
0.0
40
3.5
1

3

2
MIN_VETRO:0
70
0
0
ATTDEF
8
0
10
0.000000
20
0.000000
30
0.0
40
3.5
1

3

2
MAX_VETRO:0
70
0
0
ATTDEF
8
0
10
0.000000
20
0.000000
30
0.0
40
3.5
1

3

2
JX:0
70
0
0
ATTDEF
8
0
10
0.000000
20
0.000000
30
0.0
40
3.5
1

3

2
WX:0
70
0
0
ATTDEF
8
0
10
0.000000
20
0.000000
30
0.0
40
3.5
1

3

2
JY:0
70
0
0
ATTDEF
8
0
10
0.000000
20
0.000000
30
0.0
40
3.5
1

3

2
WY:0
70
0
0
ENDSEC
0
EOF
