0
SECTION
2
ENTITIES
0
LINE
8
0
10
35.115443
20
159.054566
30
0.0
11
32.015443
21
159.054566
31
0.0
0
ARC
8
0
10
32.015443
20
158.554566
30
0.0
40
0.500000
50
90.000000
51
180.000000
0
LINE
8
0
10
31.515443
20
158.554566
30
0.0
11
31.515443
21
152.954566
31
0.0
0
ARC
8
0
10
31.815443
20
152.954566
30
0.0
40
0.300000
50
180.000000
51
330.116348
0
LINE
8
0
10
32.075554
20
152.805093
30
0.0
11
33.026705
21
154.486225
31
0.0
0
ARC
8
0
10
32.417458
20
154.830925
30
0.0
40
0.700000
50
330.499678
51
45.000000
0
LINE
8
0
10
32.912433
20
155.325900
30
0.0
11
32.603311
21
155.635022
31
0.0
0
ARC
8
0
10
32.815443
20
155.847154
30
0.0
40
0.300000
50
180.000000
51
225.000000
0
LINE
8
0
10
32.515443
20
155.847154
30
0.0
11
32.515443
21
157.254566
31
0.0
0
ARC
8
0
10
33.015443
20
157.254566
30
0.0
40
0.500000
50
90.000000
51
180.000000
0
LINE
8
0
10
33.015443
20
157.754566
30
0.0
11
35.115759
21
157.754566
31
0.0
0
LINE
8
0
10
35.115759
20
157.754566
30
0.0
11
35.115759
21
157.554566
31
0.0
0
ARC
8
0
10
35.415759
20
157.554566
30
0.0
40
0.300000
50
180.000000
51
270.000000
0
LINE
8
0
10
35.415759
20
157.254566
30
0.0
11
36.815759
21
157.254566
31
0.0
0
ARC
8
0
10
36.815759
20
157.554566
30
0.0
40
0.300000
50
270.000000
51
0.000000
0
LINE
8
0
10
37.115759
20
157.554566
30
0.0
11
37.115759
21
181.556161
31
0.0
0
ARC
8
0
10
36.615759
20
181.556161
30
0.0
40
0.500000
50
0.000000
51
90.000000
0
LINE
8
0
10
36.615759
20
182.056161
30
0.0
11
-28.082429
21
182.056161
31
0.0
0
ARC
8
0
10
-28.082429
20
181.756161
30
0.0
40
0.300000
50
90.000000
51
180.000000
0
LINE
8
0
10
-28.382429
20
181.756161
30
0.0
11
-28.382429
21
180.314462
31
0.0
0
ARC
8
0
10
-28.682429
20
180.314462
30
0.0
40
0.300000
50
285.826620
51
0.000000
0
ARC
8
0
10
-28.382429
20
179.256161
30
0.0
40
0.800000
50
105.826620
51
320.000000
0
LINE
8
0
10
-27.769593
20
178.741931
30
0.0
11
-26.952615
21
179.715568
31
0.0
0
ARC
8
0
10
-27.182429
20
179.908404
30
0.0
40
0.300000
50
320.000000
51
0.000000
0
LINE
8
0
10
-26.882429
20
179.908404
30
0.0
11
-26.882429
21
180.259410
31
0.0
0
ARC
8
0
10
-26.582429
20
180.259410
30
0.0
40
0.300000
50
90.000000
51
180.000000
0
LINE
8
0
10
-26.582429
20
180.559410
30
0.0
11
18.715759
21
180.559410
31
0.0
0
ARC
8
0
10
18.715759
20
180.259410
30
0.0
40
0.300000
50
0.000000
51
90.000000
0
LINE
8
0
10
19.015759
20
180.259410
30
0.0
11
19.015759
21
157.554566
31
0.0
0
ARC
8
0
10
19.315759
20
157.554566
30
0.0
40
0.300000
50
180.000000
51
270.000000
0
LINE
8
0
10
19.315759
20
157.254566
30
0.0
11
20.715759
21
157.254566
31
0.0
0
ARC
8
0
10
20.715759
20
157.554566
30
0.0
40
0.300000
50
270.000000
51
0.000000
0
LINE
8
0
10
21.015759
20
157.554566
30
0.0
11
21.015759
21
157.754566
31
0.0
0
LINE
8
0
10
21.015759
20
157.754566
30
0.0
11
22.615759
21
157.754566
31
0.0
0
ARC
8
0
10
22.615759
20
157.254566
30
0.0
40
0.500000
50
0.000000
51
90.000000
0
LINE
8
0
10
23.115759
20
157.254566
30
0.0
11
23.115759
21
155.847154
31
0.0
0
ARC
8
0
10
22.815759
20
155.847154
30
0.0
40
0.300000
50
315.000000
51
0.000000
0
LINE
8
0
10
23.027891
20
155.635022
30
0.0
11
22.718769
21
155.325900
31
0.0
0
ARC
8
0
10
23.213744
20
154.830925
30
0.0
40
0.700000
50
135.000000
51
209.500322
0
LINE
8
0
10
22.604496
20
154.486225
30
0.0
11
23.555647
21
152.805093
31
0.0
0
ARC
8
0
10
23.815759
20
152.954566
30
0.0
40
0.300000
50
209.883652
51
0.000000
0
LINE
8
0
10
24.115759
20
152.954566
30
0.0
11
24.115759
21
158.554566
31
0.0
0
ARC
8
0
10
23.615759
20
158.554566
30
0.0
40
0.500000
50
0.000000
51
90.000000
0
LINE
8
0
10
23.615759
20
159.054566
30
0.0
11
20.715759
21
159.054566
31
0.0
0
ARC
8
0
10
20.715759
20
159.354566
30
0.0
40
0.300000
50
180.000000
51
270.000000
0
LINE
8
0
10
20.415759
20
159.354566
30
0.0
11
20.415759
21
180.059410
31
0.0
0
ARC
8
0
10
20.715759
20
180.059410
30
0.0
40
0.300000
50
90.000000
51
180.000000
0
LINE
8
0
10
20.715759
20
180.359410
30
0.0
11
35.115443
21
180.359410
31
0.0
0
ARC
8
0
10
35.115443
20
180.059410
30
0.0
40
0.300000
50
0.000000
51
90.000000
0
LINE
8
0
10
35.415443
20
180.059410
30
0.0
11
35.415443
21
159.354566
31
0.0
0
ARC
8
0
10
35.115443
20
159.354566
30
0.0
40
0.300000
50
270.000000
51
0.000000
0
ATTDEF
8
0
10
-28.082429
20
182.056161
30
0.0
40
3.5
1

3

2
VC_START
70
0
0
ATTDEF
8
0
10
19.717571
20
157.254566
30
0.0
40
3.5
1

3

2
VC_END
70
0
0
ATTDEF
8
0
10
-29.182429
20
152.654566
30
0.0
40
3.5
1

3

2
FRONT_VIEW
70
0
0
ATTDEF
8
0
10
-29.182429
20
152.654566
30
0.0
40
3.5
1

3

2
BL01:6800.000000,,1
70
0
0
ATTDEF
8
0
10
-29.182429
20
152.654566
30
0.0
40
3.5
1

3

2
OPTI:500.000000,1,0,3000.000000,6500.000000,500.000000,0,0.000000,0
70
0
0
ATTDEF
8
0
10
-29.182429
20
152.654566
30
0.0
40
3.5
1

3

2
GLASS_MIN:0.000000
70
0
0
ATTDEF
8
0
10
-29.182429
20
152.654566
30
0.0
40
3.5
1

3

2
GLASS_MAX:0.000000
70
0
0
ATTDEF
8
0
10
-29.182429
20
152.654566
30
0.0
40
3.5
1

3

2
FP_LCS_ORIG
70
0
0
ATTDEF
8
0
10
-19.182429
20
152.654566
30
0.0
40
3.5
1

3

2
FP_LCS_HOT
70
0
0
ATTDEF
8
0
10
-29.182429
20
162.654566
30
0.0
40
3.5
1

3

2
FP_LCS_INTERN
70
0
0
ATTDEF
8
0
10
0.000000
20
0.000000
30
0.0
40
3.5
1

3

2
TDEV2:0
70
0
0
ATTDEF
8
0
10
0.000000
20
0.000000
30
0.0
40
3.5
1

3

2
TDEV3:0
70
0
0
ATTDEF
8
0
10
0.000000
20
0.000000
30
0.0
40
3.5
1

3

2
TDEV4:0
70
0
0
ATTDEF
8
0
10
0.000000
20
0.000000
30
0.0
40
3.5
1

3

2
TDEV5:0
70
0
0
ATTDEF
8
0
10
0.000000
20
0.000000
30
0.0
40
3.5
1

3

2
PANE_WIDTH:0
70
0
0
ATTDEF
8
0
10
0.000000
20
0.000000
30
0.0
40
3.5
1

3

2
MIN_VETRO:0
70
0
0
ATTDEF
8
0
10
0.000000
20
0.000000
30
0.0
40
3.5
1

3

2
MAX_VETRO:0
70
0
0
ATTDEF
8
0
10
0.000000
20
0.000000
30
0.0
40
3.5
1

3

2
JX:0
70
0
0
ATTDEF
8
0
10
0.000000
20
0.000000
30
0.0
40
3.5
1

3

2
WX:0
70
0
0
ATTDEF
8
0
10
0.000000
20
0.000000
30
0.0
40
3.5
1

3

2
JY:0
70
0
0
ATTDEF
8
0
10
0.000000
20
0.000000
30
0.0
40
3.5
1

3

2
WY:0
70
0
0
ATTDEF
8
0
10
0.000000
20
0.000000
30
0.0
40
3.5
1

3

2
DESC:Cover montante centrale OX
70
0
0
ATTDEF
8
0
10
0.000000
20
0.000000
30
0.0
40
3.5
1

3

2
DENS:0.56
70
0
0
ATTDEF
8
0
10
0.000000
20
0.000000
30
0.0
40
3.5
1

3

2
TDEV:0
70
0
0
ATTDEF
8
0
10
0.000000
20
0.000000
30
0.0
40
3.5
1

3

2
TDEV2:0
70
0
0
ATTDEF
8
0
10
0.000000
20
0.000000
30
0.0
40
3.5
1

3

2
TDEV3:0
70
0
0
ATTDEF
8
0
10
0.000000
20
0.000000
30
0.0
40
3.5
1

3

2
TDEV4:0
70
0
0
ATTDEF
8
0
10
0.000000
20
0.000000
30
0.0
40
3.5
1

3

2
TDEV5:0
70
0
0
ATTDEF
8
0
10
0.000000
20
0.000000
30
0.0
40
3.5
1

3

2
PANE_WIDTH:0
70
0
0
ATTDEF
8
0
10
0.000000
20
0.000000
30
0.0
40
3.5
1

3

2
MIN_VETRO:0
70
0
0
ATTDEF
8
0
10
0.000000
20
0.000000
30
0.0
40
3.5
1

3

2
MAX_VETRO:0
70
0
0
ATTDEF
8
0
10
0.000000
20
0.000000
30
0.0
40
3.5
1

3

2
JX:0
70
0
0
ATTDEF
8
0
10
0.000000
20
0.000000
30
0.0
40
3.5
1

3

2
WX:0
70
0
0
ATTDEF
8
0
10
0.000000
20
0.000000
30
0.0
40
3.5
1

3

2
JY:0
70
0
0
ATTDEF
8
0
10
0.000000
20
0.000000
30
0.0
40
3.5
1

3

2
WY:0
70
0
0
ENDSEC
0
EOF
