0
SECTION
2
ENTITIES
0
LINE
8
0
10
28.666410
20
156.469856
30
0.0
11
28.666410
21
150.869856
31
0.0
0
ARC
8
0
10
28.966410
20
150.869856
30
0.0
40
0.300000
50
180.000000
51
330.116348
0
LINE
8
0
10
29.226521
20
150.720384
30
0.0
11
30.177672
21
152.401516
31
0.0
0
ARC
8
0
10
29.568425
20
152.746216
30
0.0
40
0.700000
50
330.499678
51
45.000000
0
LINE
8
0
10
30.063400
20
153.241190
30
0.0
11
29.754278
21
153.550313
31
0.0
0
ARC
8
0
10
29.966410
20
153.762445
30
0.0
40
0.300000
50
180.000000
51
225.000000
0
LINE
8
0
10
29.666410
20
153.762445
30
0.0
11
29.666410
21
155.169856
31
0.0
0
ARC
8
0
10
30.166410
20
155.169856
30
0.0
40
0.500000
50
90.000000
51
180.000000
0
LINE
8
0
10
30.166410
20
155.669856
30
0.0
11
32.266726
21
155.669856
31
0.0
0
LINE
8
0
10
32.266726
20
155.669856
30
0.0
11
32.266726
21
155.469856
31
0.0
0
ARC
8
0
10
32.566726
20
155.469856
30
0.0
40
0.300000
50
180.000000
51
270.000000
0
LINE
8
0
10
32.566726
20
155.169856
30
0.0
11
33.966726
21
155.169856
31
0.0
0
ARC
8
0
10
33.966726
20
155.469856
30
0.0
40
0.300000
50
270.000000
51
0.000000
0
LINE
8
0
10
34.266726
20
155.469856
30
0.0
11
34.266726
21
177.572725
31
0.0
0
ARC
8
0
10
33.966726
20
177.572725
30
0.0
40
0.300000
50
0.000000
51
90.000000
0
LINE
8
0
10
33.966726
20
177.872725
30
0.0
11
-38.333274
21
177.872725
31
0.0
0
ARC
8
0
10
-38.333274
20
177.572725
30
0.0
40
0.300000
50
90.000000
51
180.000000
0
LINE
8
0
10
-38.633274
20
177.572725
30
0.0
11
-38.633274
21
175.274426
31
0.0
0
ARC
8
0
10
-38.333274
20
175.274426
30
0.0
40
0.300000
50
180.000000
51
270.000000
0
LINE
8
0
10
-38.333274
20
174.974426
30
0.0
11
-37.733274
21
174.974426
31
0.0
0
ARC
8
0
10
-37.733274
20
175.274426
30
0.0
40
0.300000
50
270.000000
51
0.000000
0
LINE
8
0
10
-37.433274
20
175.274426
30
0.0
11
-37.433274
21
176.174426
31
0.0
0
ARC
8
0
10
-37.133274
20
176.174426
30
0.0
40
0.300000
50
90.000000
51
180.000000
0
LINE
8
0
10
-37.133274
20
176.474426
30
0.0
11
-36.433274
21
176.474426
31
0.0
0
ARC
8
0
10
-36.433274
20
176.174426
30
0.0
40
0.300000
50
0.000000
51
90.000000
0
LINE
8
0
10
-36.133274
20
176.174426
30
0.0
11
-36.133274
21
169.174426
31
0.0
0
ARC
8
0
10
-36.433274
20
169.174426
30
0.0
40
0.300000
50
270.000000
51
0.000000
0
LINE
8
0
10
-36.433274
20
168.874426
30
0.0
11
-37.133274
21
168.874426
31
0.0
0
ARC
8
0
10
-37.133274
20
169.174426
30
0.0
40
0.300000
50
180.000000
51
270.000000
0
LINE
8
0
10
-37.433274
20
169.174426
30
0.0
11
-37.433274
21
170.074426
31
0.0
0
ARC
8
0
10
-37.733274
20
170.074426
30
0.0
40
0.300000
50
0.000000
51
90.000000
0
LINE
8
0
10
-37.733274
20
170.374426
30
0.0
11
-38.333274
21
170.374426
31
0.0
0
ARC
8
0
10
-38.333274
20
170.074426
30
0.0
40
0.300000
50
90.000000
51
180.000000
0
LINE
8
0
10
-38.633274
20
170.074426
30
0.0
11
-38.633274
21
168.674426
31
0.0
0
ARC
8
0
10
-37.633274
20
168.674426
30
0.0
40
1.000000
50
180.000000
51
270.000000
0
LINE
8
0
10
-37.633274
20
167.674426
30
0.0
11
-35.733274
21
167.674426
31
0.0
0
ARC
8
0
10
-35.733274
20
168.674426
30
0.0
40
1.000000
50
270.000000
51
0.000000
0
LINE
8
0
10
-34.733274
20
168.674426
30
0.0
11
-34.733274
21
175.372725
31
0.0
0
ARC
8
0
10
-34.233274
20
175.372725
30
0.0
40
0.500000
50
90.000000
51
180.000000
0
LINE
8
0
10
-34.233274
20
175.872725
30
0.0
11
-17.233289
21
175.872725
31
0.0
0
ARC
8
0
10
-17.233289
20
175.572725
30
0.0
40
0.300000
50
0.000000
51
90.000000
0
LINE
8
0
10
-16.933289
20
175.572725
30
0.0
11
-16.933289
21
173.834743
31
0.0
0
ARC
8
0
10
-17.233289
20
173.834743
30
0.0
40
0.300000
50
285.000000
51
0.000000
0
LINE
8
0
10
-17.155644
20
173.544965
30
0.0
11
-19.210935
21
172.994252
31
0.0
0
ARC
8
0
10
-19.133289
20
172.704474
30
0.0
40
0.300000
50
105.000000
51
180.000000
0
LINE
8
0
10
-19.433289
20
172.704474
30
0.0
11
-19.433289
21
171.772725
31
0.0
0
ARC
8
0
10
-19.133289
20
171.772725
30
0.0
40
0.300000
50
180.000000
51
285.000000
0
LINE
8
0
10
-19.055644
20
171.482948
30
0.0
11
-15.655644
21
172.393975
31
0.0
0
ARC
8
0
10
-15.733289
20
172.683753
30
0.0
40
0.300000
50
285.000000
51
0.000000
0
LINE
8
0
10
-15.433289
20
172.683753
30
0.0
11
-15.433289
21
175.572725
31
0.0
0
ARC
8
0
10
-15.133289
20
175.572725
30
0.0
40
0.300000
50
90.000000
51
180.000000
0
LINE
8
0
10
-15.133289
20
175.872725
30
0.0
11
15.866726
21
175.872725
31
0.0
0
ARC
8
0
10
15.866726
20
175.572725
30
0.0
40
0.300000
50
0.000000
51
90.000000
0
LINE
8
0
10
16.166726
20
175.572725
30
0.0
11
16.166726
21
155.469856
31
0.0
0
ARC
8
0
10
16.466726
20
155.469856
30
0.0
40
0.300000
50
180.000000
51
270.000000
0
LINE
8
0
10
16.466726
20
155.169856
30
0.0
11
17.866726
21
155.169856
31
0.0
0
ARC
8
0
10
17.866726
20
155.469856
30
0.0
40
0.300000
50
270.000000
51
0.000000
0
LINE
8
0
10
18.166726
20
155.469856
30
0.0
11
18.166726
21
155.669856
31
0.0
0
LINE
8
0
10
18.166726
20
155.669856
30
0.0
11
19.766726
21
155.669856
31
0.0
0
ARC
8
0
10
19.766726
20
155.169856
30
0.0
40
0.500000
50
0.000000
51
90.000000
0
LINE
8
0
10
20.266726
20
155.169856
30
0.0
11
20.266726
21
153.762445
31
0.0
0
ARC
8
0
10
19.966726
20
153.762445
30
0.0
40
0.300000
50
315.000000
51
0.000000
0
LINE
8
0
10
20.178858
20
153.550313
30
0.0
11
19.869736
21
153.241190
31
0.0
0
ARC
8
0
10
20.364711
20
152.746216
30
0.0
40
0.700000
50
135.000000
51
209.500322
0
LINE
8
0
10
19.755464
20
152.401516
30
0.0
11
20.706614
21
150.720384
31
0.0
0
ARC
8
0
10
20.966726
20
150.869856
30
0.0
40
0.300000
50
209.883652
51
0.000000
0
LINE
8
0
10
21.266726
20
150.869856
30
0.0
11
21.266726
21
156.469856
31
0.0
0
ARC
8
0
10
20.766726
20
156.469856
30
0.0
40
0.500000
50
0.000000
51
90.000000
0
LINE
8
0
10
20.766726
20
156.969856
30
0.0
11
17.866726
21
156.969856
31
0.0
0
ARC
8
0
10
17.866726
20
157.269856
30
0.0
40
0.300000
50
180.000000
51
270.000000
0
LINE
8
0
10
17.566726
20
157.269856
30
0.0
11
17.566726
21
175.872725
31
0.0
0
ARC
8
0
10
17.866726
20
175.872725
30
0.0
40
0.300000
50
90.000000
51
180.000000
0
LINE
8
0
10
17.866726
20
176.172725
30
0.0
11
32.266410
21
176.172725
31
0.0
0
ARC
8
0
10
32.266410
20
175.872725
30
0.0
40
0.300000
50
0.000000
51
90.000000
0
LINE
8
0
10
32.566410
20
175.872725
30
0.0
11
32.566410
21
157.269856
31
0.0
0
ARC
8
0
10
32.266410
20
157.269856
30
0.0
40
0.300000
50
270.000000
51
0.000000
0
LINE
8
0
10
32.266410
20
156.969856
30
0.0
11
29.166410
21
156.969856
31
0.0
0
ARC
8
0
10
29.166410
20
156.469856
30
0.0
40
0.500000
50
90.000000
51
180.000000
0
ATTDEF
8
0
10
-38.333274
20
177.872725
30
0.0
40
3.5
1

3

2
VC_START
70
0
0
ATTDEF
8
0
10
17.166726
20
155.169856
30
0.0
40
3.5
1

3

2
VC_END
70
0
0
ATTDEF
8
0
10
-38.633274
20
150.569856
30
0.0
40
3.5
1

3

2
FRONT_VIEW
70
0
0
ATTDEF
8
0
10
-38.633274
20
150.569856
30
0.0
40
3.5
1

3

2
BL01:6800.000000,,1
70
0
0
ATTDEF
8
0
10
-38.633274
20
150.569856
30
0.0
40
3.5
1

3

2
OPTI:500.000000,1,0,3000.000000,6500.000000,500.000000,0,0.000000,0
70
0
0
ATTDEF
8
0
10
-38.633274
20
150.569856
30
0.0
40
3.5
1

3

2
GLASS_MIN:0.000000
70
0
0
ATTDEF
8
0
10
-38.633274
20
150.569856
30
0.0
40
3.5
1

3

2
GLASS_MAX:0.000000
70
0
0
ATTDEF
8
0
10
-38.633274
20
150.569856
30
0.0
40
3.5
1

3

2
FP_LCS_ORIG
70
0
0
ATTDEF
8
0
10
-28.633274
20
150.569856
30
0.0
40
3.5
1

3

2
FP_LCS_HOT
70
0
0
ATTDEF
8
0
10
-38.633274
20
160.569856
30
0.0
40
3.5
1

3

2
FP_LCS_INTERN
70
0
0
ATTDEF
8
0
10
0.000000
20
0.000000
30
0.0
40
3.5
1

3

2
TDEV2:0
70
0
0
ATTDEF
8
0
10
0.000000
20
0.000000
30
0.0
40
3.5
1

3

2
TDEV3:0
70
0
0
ATTDEF
8
0
10
0.000000
20
0.000000
30
0.0
40
3.5
1

3

2
TDEV4:0
70
0
0
ATTDEF
8
0
10
0.000000
20
0.000000
30
0.0
40
3.5
1

3

2
TDEV5:0
70
0
0
ATTDEF
8
0
10
0.000000
20
0.000000
30
0.0
40
3.5
1

3

2
PANE_WIDTH:0
70
0
0
ATTDEF
8
0
10
0.000000
20
0.000000
30
0.0
40
3.5
1

3

2
MIN_VETRO:0
70
0
0
ATTDEF
8
0
10
0.000000
20
0.000000
30
0.0
40
3.5
1

3

2
MAX_VETRO:0
70
0
0
ATTDEF
8
0
10
0.000000
20
0.000000
30
0.0
40
3.5
1

3

2
JX:0
70
0
0
ATTDEF
8
0
10
0.000000
20
0.000000
30
0.0
40
3.5
1

3

2
WX:0
70
0
0
ATTDEF
8
0
10
0.000000
20
0.000000
30
0.0
40
3.5
1

3

2
JY:0
70
0
0
ATTDEF
8
0
10
0.000000
20
0.000000
30
0.0
40
3.5
1

3

2
WY:0
70
0
0
ATTDEF
8
0
10
0.000000
20
0.000000
30
0.0
40
3.5
1

3

2
DESC:Cover OX
70
0
0
ATTDEF
8
0
10
0.000000
20
0.000000
30
0.0
40
3.5
1

3

2
DENS:0.72
70
0
0
ATTDEF
8
0
10
0.000000
20
0.000000
30
0.0
40
3.5
1

3

2
TDEV:0
70
0
0
ATTDEF
8
0
10
0.000000
20
0.000000
30
0.0
40
3.5
1

3

2
TDEV2:0
70
0
0
ATTDEF
8
0
10
0.000000
20
0.000000
30
0.0
40
3.5
1

3

2
TDEV3:0
70
0
0
ATTDEF
8
0
10
0.000000
20
0.000000
30
0.0
40
3.5
1

3

2
TDEV4:0
70
0
0
ATTDEF
8
0
10
0.000000
20
0.000000
30
0.0
40
3.5
1

3

2
TDEV5:0
70
0
0
ATTDEF
8
0
10
0.000000
20
0.000000
30
0.0
40
3.5
1

3

2
PANE_WIDTH:0
70
0
0
ATTDEF
8
0
10
0.000000
20
0.000000
30
0.0
40
3.5
1

3

2
MIN_VETRO:0
70
0
0
ATTDEF
8
0
10
0.000000
20
0.000000
30
0.0
40
3.5
1

3

2
MAX_VETRO:0
70
0
0
ATTDEF
8
0
10
0.000000
20
0.000000
30
0.0
40
3.5
1

3

2
JX:0
70
0
0
ATTDEF
8
0
10
0.000000
20
0.000000
30
0.0
40
3.5
1

3

2
WX:0
70
0
0
ATTDEF
8
0
10
0.000000
20
0.000000
30
0.0
40
3.5
1

3

2
JY:0
70
0
0
ATTDEF
8
0
10
0.000000
20
0.000000
30
0.0
40
3.5
1

3

2
WY:0
70
0
0
ENDSEC
0
EOF
