0
SECTION
2
ENTITIES
0
LINE
8
0
10
82.938712
20
138.582435
30
0.0
11
79.864441
21
139.069351
31
0.0
0
ARC
8
0
10
79.708006
20
138.081663
30
0.0
40
1.000000
50
81.000000
51
90.000000
0
LINE
8
0
10
79.707913
20
139.081663
30
0.0
11
22.206566
21
139.076279
31
0.0
0
ARC
8
0
10
22.206566
20
139.576279
30
0.0
40
0.500000
50
180.000000
51
270.000000
0
LINE
8
0
10
21.706566
20
139.576279
30
0.0
11
21.706566
21
142.576279
31
0.0
0
ARC
8
0
10
22.206566
20
142.576279
30
0.0
40
0.500000
50
90.000000
51
180.000000
0
LINE
8
0
10
22.206566
20
143.076279
30
0.0
11
24.706566
21
143.076279
31
0.0
0
ARC
8
0
10
24.706566
20
143.576279
30
0.0
40
0.500000
50
270.000000
51
0.000000
0
LINE
8
0
10
25.206566
20
143.576279
30
0.0
11
25.206566
21
146.915756
31
0.0
0
ARC
8
0
10
24.706566
20
146.915756
30
0.0
40
0.500000
50
0.000000
51
48.480642
0
LINE
8
0
10
25.038003
20
147.290122
30
0.0
11
24.353822
21
147.895846
31
0.0
0
ARC
8
0
10
24.552684
20
148.120465
30
0.0
40
0.300000
50
135.954075
51
228.480642
0
LINE
8
0
10
24.337049
20
148.329036
30
0.0
11
25.065958
21
149.082633
31
0.0
0
ARC
8
0
10
24.706566
20
149.430250
30
0.0
40
0.500000
50
315.954075
51
135.954075
0
LINE
8
0
10
24.347175
20
149.777867
30
0.0
11
22.908626
21
148.290594
31
0.0
0
ARC
8
0
10
23.106566
20
148.065162
30
0.0
40
0.300000
50
131.284742
51
228.480642
0
LINE
8
0
10
22.907704
20
147.840542
30
0.0
11
23.890347
21
146.970582
31
0.0
0
ARC
8
0
10
23.706566
20
146.733464
30
0.0
40
0.300000
50
0.000000
51
52.222154
0
LINE
8
0
10
24.006566
20
146.733464
30
0.0
11
24.006566
21
144.576279
31
0.0
0
ARC
8
0
10
23.706566
20
144.576279
30
0.0
40
0.300000
50
270.000000
51
0.000000
0
LINE
8
0
10
23.706566
20
144.276279
30
0.0
11
20.206566
21
144.276279
31
0.0
0
ARC
8
0
10
20.206566
20
143.976279
30
0.0
40
0.300000
50
90.000000
51
180.000000
0
LINE
8
0
10
19.906566
20
143.976279
30
0.0
11
19.906566
21
137.876279
31
0.0
0
ARC
8
0
10
20.206566
20
137.876279
30
0.0
40
0.300000
50
180.000000
51
270.000000
0
LINE
8
0
10
20.206566
20
137.576279
30
0.0
11
84.804754
21
137.576279
31
0.0
0
ARC
8
0
10
84.804754
20
137.876279
30
0.0
40
0.300000
50
270.000000
51
0.000000
0
LINE
8
0
10
85.104754
20
137.876279
30
0.0
11
85.104754
21
138.376279
31
0.0
0
ARC
8
0
10
84.904754
20
138.376279
30
0.0
40
0.200000
50
0.000000
51
90.000000
0
LINE
8
0
10
84.904754
20
138.576279
30
0.0
11
84.696514
21
138.576279
31
0.0
0
ARC
8
0
10
84.696514
20
138.776279
30
0.0
40
0.200000
50
165.000000
51
270.000000
0
LINE
8
0
10
84.503329
20
138.828043
30
0.0
11
84.687012
21
139.513556
31
0.0
0
ARC
8
0
10
85.169975
20
139.384146
30
0.0
40
0.500000
50
113.363301
51
165.000000
0
ARC
8
0
10
87.945894
20
132.958085
30
0.0
40
7.500000
50
97.484586
51
113.363301
0
ARC
8
0
10
86.903819
20
140.889924
30
0.0
40
0.500000
50
277.484586
51
97.484586
0
ARC
8
0
10
87.945894
20
132.958085
30
0.0
40
8.500000
50
97.484586
51
113.363301
0
ARC
8
0
10
85.169975
20
139.384146
30
0.0
40
1.500000
50
113.363301
51
165.000000
0
LINE
8
0
10
83.721086
20
139.772375
30
0.0
11
83.499892
21
138.946869
31
0.0
0
ARC
8
0
10
83.016929
20
139.076279
30
0.0
40
0.500000
50
261.000000
51
345.000000
0
ATTDEF
8
0
10
19.906566
20
137.576279
30
0.0
40
3.5
1

3

2
FRONT_VIEW
70
0
0
ATTDEF
8
0
10
19.906566
20
137.576279
30
0.0
40
3.5
1

3

2
BL01:6800.000000,,1
70
0
0
ATTDEF
8
0
10
19.906566
20
137.576279
30
0.0
40
3.5
1

3

2
OPTI:500.000000,1,0,3000.000000,6500.000000,500.000000,0,0.000000,0
70
0
0
ATTDEF
8
0
10
19.906566
20
137.576279
30
0.0
40
3.5
1

3

2
GLASS_MIN:0.000000
70
0
0
ATTDEF
8
0
10
19.906566
20
137.576279
30
0.0
40
3.5
1

3

2
GLASS_MAX:0.000000
70
0
0
ATTDEF
8
0
10
20.206566
20
144.276279
30
0.0
40
3.5
1

3

2
VC_START
70
0
0
ATTDEF
8
0
10
20.206566
20
137.576279
30
0.0
40
3.5
1

3

2
VC_END
70
0
0
ATTDEF
8
0
10
19.906566
20
137.576279
30
0.0
40
3.5
1

3

2
FP_LCS_ORIG
70
0
0
ATTDEF
8
0
10
29.906566
20
137.576279
30
0.0
40
3.5
1

3

2
FP_LCS_HOT
70
0
0
ATTDEF
8
0
10
19.906566
20
147.576279
30
0.0
40
3.5
1

3

2
FP_LCS_INTERN
70
0
0
ATTDEF
8
0
10
0.000000
20
0.000000
30
0.0
40
3.5
1

3

2
DENS:0.35
70
0
0
ATTDEF
8
0
10
0.000000
20
0.000000
30
0.0
40
3.5
1

3

2
TDEV:0
70
0
0
ATTDEF
8
0
10
0.000000
20
0.000000
30
0.0
40
3.5
1

3

2
TDEV2:0
70
0
0
ATTDEF
8
0
10
0.000000
20
0.000000
30
0.0
40
3.5
1

3

2
TDEV3:0
70
0
0
ATTDEF
8
0
10
0.000000
20
0.000000
30
0.0
40
3.5
1

3

2
TDEV4:0
70
0
0
ATTDEF
8
0
10
0.000000
20
0.000000
30
0.0
40
3.5
1

3

2
TDEV5:0
70
0
0
ATTDEF
8
0
10
0.000000
20
0.000000
30
0.0
40
3.5
1

3

2
PANE_WIDTH:0
70
0
0
ATTDEF
8
0
10
0.000000
20
0.000000
30
0.0
40
3.5
1

3

2
MIN_VETRO:0
70
0
0
ATTDEF
8
0
10
0.000000
20
0.000000
30
0.0
40
3.5
1

3

2
MAX_VETRO:0
70
0
0
ATTDEF
8
0
10
0.000000
20
0.000000
30
0.0
40
3.5
1

3

2
JX:0
70
0
0
ATTDEF
8
0
10
0.000000
20
0.000000
30
0.0
40
3.5
1

3

2
WX:0
70
0
0
ATTDEF
8
0
10
0.000000
20
0.000000
30
0.0
40
3.5
1

3

2
JY:0
70
0
0
ATTDEF
8
0
10
0.000000
20
0.000000
30
0.0
40
3.5
1

3

2
WY:0
70
0
0
ATTDEF
8
0
10
0.000000
20
0.000000
30
0.0
40
3.5
1

3

2
DESC:Cover anta labirinto centrale
70
0
0
ATTDEF
8
0
10
0.000000
20
0.000000
30
0.0
40
3.5
1

3

2
DENS:0.328
70
0
0
ATTDEF
8
0
10
0.000000
20
0.000000
30
0.0
40
3.5
1

3

2
TDEV:0
70
0
0
ATTDEF
8
0
10
0.000000
20
0.000000
30
0.0
40
3.5
1

3

2
TDEV2:0
70
0
0
ATTDEF
8
0
10
0.000000
20
0.000000
30
0.0
40
3.5
1

3

2
TDEV3:0
70
0
0
ATTDEF
8
0
10
0.000000
20
0.000000
30
0.0
40
3.5
1

3

2
TDEV4:0
70
0
0
ATTDEF
8
0
10
0.000000
20
0.000000
30
0.0
40
3.5
1

3

2
TDEV5:0
70
0
0
ATTDEF
8
0
10
0.000000
20
0.000000
30
0.0
40
3.5
1

3

2
PANE_WIDTH:0
70
0
0
ATTDEF
8
0
10
0.000000
20
0.000000
30
0.0
40
3.5
1

3

2
MIN_VETRO:0
70
0
0
ATTDEF
8
0
10
0.000000
20
0.000000
30
0.0
40
3.5
1

3

2
MAX_VETRO:0
70
0
0
ATTDEF
8
0
10
0.000000
20
0.000000
30
0.0
40
3.5
1

3

2
JX:0
70
0
0
ATTDEF
8
0
10
0.000000
20
0.000000
30
0.0
40
3.5
1

3

2
WX:0
70
0
0
ATTDEF
8
0
10
0.000000
20
0.000000
30
0.0
40
3.5
1

3

2
JY:0
70
0
0
ATTDEF
8
0
10
0.000000
20
0.000000
30
0.0
40
3.5
1

3

2
WY:0
70
0
0
ENDSEC
0
EOF
