0
SECTION
2
ENTITIES
0
LINE
8
0
10
218.409045
20
132.185089
30
0.0
11
217.545924
21
132.416361
31
0.0
0
ARC
8
0
10
217.675333
20
132.899324
30
0.0
40
0.500000
50
180.000000
51
255.000000
0
LINE
8
0
10
217.175333
20
132.899324
30
0.0
11
217.175333
21
133.188686
31
0.0
0
ARC
8
0
10
217.475333
20
133.188686
30
0.0
40
0.300000
50
128.682187
51
180.000000
0
ARC
8
0
10
216.975333
20
133.813186
30
0.0
40
0.500000
50
308.682187
51
141.317813
0
ARC
8
0
10
216.350833
20
134.313186
30
0.0
40
0.300000
50
270.000000
51
321.317813
0
LINE
8
0
10
216.350833
20
134.013186
30
0.0
11
184.575333
21
134.013186
31
0.0
0
ARC
8
0
10
184.575333
20
133.513186
30
0.0
40
0.500000
50
90.000000
51
180.000000
0
LINE
8
0
10
184.075333
20
133.513186
30
0.0
11
184.075333
21
128.813186
31
0.0
0
ARC
8
0
10
183.575333
20
128.813186
30
0.0
40
0.500000
50
270.000000
51
360.000000
0
LINE
8
0
10
183.575333
20
128.313186
30
0.0
11
183.275333
21
128.313186
31
0.0
0
ARC
8
0
10
183.275333
20
128.813186
30
0.0
40
0.500000
50
180.000000
51
270.000000
0
LINE
8
0
10
182.775333
20
128.813186
30
0.0
11
182.775333
21
133.513186
31
0.0
0
ARC
8
0
10
182.275333
20
133.513186
30
0.0
40
0.500000
50
360.000000
51
90.000000
0
LINE
8
0
10
182.275333
20
134.013186
30
0.0
11
178.275333
21
134.013186
31
0.0
0
ARC
8
0
10
178.275333
20
134.513186
30
0.0
40
0.500000
50
180.000000
51
270.000000
0
LINE
8
0
10
177.775333
20
134.513186
30
0.0
11
177.775333
21
134.613186
31
0.0
0
ARC
8
0
10
178.575333
20
134.613186
30
0.0
40
0.800000
50
90.000000
51
180.000000
0
LINE
8
0
10
178.575333
20
135.413186
30
0.0
11
217.975333
21
135.413186
31
0.0
0
ARC
8
0
10
217.975333
20
134.913186
30
0.0
40
0.500000
50
360.000000
51
90.000000
0
LINE
8
0
10
218.475333
20
134.913186
30
0.0
11
218.475333
21
133.743384
31
0.0
0
ARC
8
0
10
218.775333
20
133.743384
30
0.0
40
0.300000
50
180.000000
51
255.000000
0
LINE
8
0
10
218.697687
20
133.453606
30
0.0
11
219.623389
21
133.205565
31
0.0
0
ARC
8
0
10
219.493979
20
132.722602
30
0.0
40
0.500000
50
339.537191
51
75.000000
0
LINE
8
0
10
219.962429
20
132.547803
30
0.0
11
218.455111
21
128.508306
31
0.0
0
ARC
8
0
10
218.174041
20
128.613186
30
0.0
40
0.300000
50
270.000000
51
339.537191
0
LINE
8
0
10
218.174041
20
128.313186
30
0.0
11
217.747101
21
128.313186
31
0.0
0
ARC
8
0
10
217.747101
20
128.613186
30
0.0
40
0.300000
50
159.537191
51
270.000000
0
LINE
8
0
10
217.466031
20
128.718066
30
0.0
11
218.612469
21
131.790431
31
0.0
0
ARC
8
0
10
218.331399
20
131.895311
30
0.0
40
0.300000
50
339.537191
51
75.000000
0
ATTDEF
8
0
10
178.575333
20
135.413186
30
0.0
40
3.5
1

3

2
VC_START
70
0
0
ATTDEF
8
0
10
178.275333
20
134.013186
30
0.0
40
3.5
1

3

2
VC_END
70
0
0
ATTDEF
8
0
10
177.775333
20
128.313186
30
0.0
40
3.5
1

3

2
DESC:Cover 
70
0
0
ATTDEF
8
0
10
177.775333
20
128.313186
30
0.0
40
3.5
1

3

2
DENS:0.190000
70
0
0
ATTDEF
8
0
10
177.775333
20
128.313186
30
0.0
40
3.5
1

3

2
TDEV:0.000000
70
0
0
ATTDEF
8
0
10
177.775333
20
128.313186
30
0.0
40
3.5
1

3

2
TDEV2:0.000000
70
0
0
ATTDEF
8
0
10
177.775333
20
128.313186
30
0.0
40
3.5
1

3

2
TDEV3:0.000000
70
0
0
ATTDEF
8
0
10
177.775333
20
128.313186
30
0.0
40
3.5
1

3

2
TDEV4:0.000000
70
0
0
ATTDEF
8
0
10
177.775333
20
128.313186
30
0.0
40
3.5
1

3

2
TDEV5:0.000000
70
0
0
ATTDEF
8
0
10
177.775333
20
128.313186
30
0.0
40
3.5
1

3

2
FRONT_VIEW
70
0
0
ATTDEF
8
0
10
177.775333
20
128.313186
30
0.0
40
3.5
1

3

2
BL01:6800.000000,,1
70
0
0
ATTDEF
8
0
10
177.775333
20
128.313186
30
0.0
40
3.5
1

3

2
OPTI:500.000000,1,0,3000.000000,6500.000000,500.000000,0,0.000000,0
70
0
0
ATTDEF
8
0
10
177.775333
20
128.313186
30
0.0
40
3.5
1

3

2
PANE_WIDTH:0.000000
70
0
0
ATTDEF
8
0
10
177.775333
20
128.313186
30
0.0
40
3.5
1

3

2
GLASS_MIN:0.000000
70
0
0
ATTDEF
8
0
10
177.775333
20
128.313186
30
0.0
40
3.5
1

3

2
GLASS_MAX:0.000000
70
0
0
ATTDEF
8
0
10
177.775333
20
128.313186
30
0.0
40
3.5
1

3

2
JX:0.000000
70
0
0
ATTDEF
8
0
10
177.775333
20
128.313186
30
0.0
40
3.5
1

3

2
WX:0.000000
70
0
0
ATTDEF
8
0
10
177.775333
20
128.313186
30
0.0
40
3.5
1

3

2
JY:0.000000
70
0
0
ATTDEF
8
0
10
177.775333
20
128.313186
30
0.0
40
3.5
1

3

2
WY:0.000000
70
0
0
ATTDEF
8
0
10
177.775333
20
128.313186
30
0.0
40
3.5
1

3

2
FP_LCS_ORIG
70
0
0
ATTDEF
8
0
10
187.775333
20
128.313186
30
0.0
40
3.5
1

3

2
FP_LCS_HOT
70
0
0
ATTDEF
8
0
10
177.775333
20
138.313186
30
0.0
40
3.5
1

3

2
FP_LCS_INTERN
70
0
0
ENDSEC
0
EOF
