0
SECTION
2
ENTITIES
0
LINE
8
0
10
-0.720938
20
204.319416
30
0.0
11
-0.720938
21
189.298624
31
0.0
0
ARC
8
0
10
-0.420938
20
189.298624
30
0.0
40
0.300000
50
180.000000
51
270.000000
0
LINE
8
0
10
-0.420938
20
188.998624
30
0.0
11
2.279062
21
188.998624
31
0.0
0
ARC
8
0
10
2.279062
20
188.698624
30
0.0
40
0.300000
50
0.000000
51
90.000000
0
LINE
8
0
10
2.579062
20
188.698624
30
0.0
11
2.579062
21
187.798624
31
0.0
0
ARC
8
0
10
2.279062
20
187.798624
30
0.0
40
0.300000
50
270.000000
51
0.000000
0
LINE
8
0
10
2.279062
20
187.498624
30
0.0
11
0.979062
21
187.498624
31
0.0
0
ARC
8
0
10
0.979062
20
187.198624
30
0.0
40
0.300000
50
90.000000
51
180.000000
0
LINE
8
0
10
0.679062
20
187.198624
30
0.0
11
0.679062
21
185.798624
31
0.0
0
ARC
8
0
10
0.379062
20
185.798624
30
0.0
40
0.300000
50
270.000000
51
0.000000
0
LINE
8
0
10
0.379062
20
185.498624
30
0.0
11
-0.420938
21
185.498624
31
0.0
0
ARC
8
0
10
-0.420938
20
185.198624
30
0.0
40
0.300000
50
90.000000
51
180.000000
0
LINE
8
0
10
-0.720938
20
185.198624
30
0.0
11
-0.720938
21
183.198624
31
0.0
0
ARC
8
0
10
-1.020938
20
183.198624
30
0.0
40
0.300000
50
270.000000
51
0.000000
0
LINE
8
0
10
-1.020938
20
182.898624
30
0.0
11
-10.720938
21
182.898624
31
0.0
0
ARC
8
0
10
-10.720938
20
182.598624
30
0.0
40
0.300000
50
90.000000
51
180.000000
0
LINE
8
0
10
-11.020938
20
182.598624
30
0.0
11
-11.020938
21
173.198624
31
0.0
0
ARC
8
0
10
-10.720938
20
173.198624
30
0.0
40
0.300000
50
180.000000
51
270.000000
0
LINE
8
0
10
-10.720938
20
172.898624
30
0.0
11
-1.120938
21
172.898624
31
0.0
0
ARC
8
0
10
-1.120938
20
173.198624
30
0.0
40
0.300000
50
270.000000
51
0.000000
0
LINE
8
0
10
-0.820938
20
173.198624
30
0.0
11
-0.820938
21
174.098624
31
0.0
0
ARC
8
0
10
-0.520938
20
174.098624
30
0.0
40
0.300000
50
90.000000
51
180.000000
0
LINE
8
0
10
-0.520938
20
174.398624
30
0.0
11
0.379062
21
174.398624
31
0.0
0
ARC
8
0
10
0.379062
20
174.098624
30
0.0
40
0.300000
50
0.000000
51
90.000000
0
LINE
8
0
10
0.679062
20
174.098624
30
0.0
11
0.679062
21
173.198624
31
0.0
0
ARC
8
0
10
0.979062
20
173.198624
30
0.0
40
0.300000
50
180.000000
51
270.000000
0
LINE
8
0
10
0.979062
20
172.898624
30
0.0
11
23.379062
21
172.898624
31
0.0
0
ARC
8
0
10
23.379062
20
173.198624
30
0.0
40
0.300000
50
270.000000
51
0.000000
0
LINE
8
0
10
23.679062
20
173.198624
30
0.0
11
23.679062
21
174.098624
31
0.0
0
ARC
8
0
10
23.979062
20
174.098624
30
0.0
40
0.300000
50
90.000000
51
180.000000
0
LINE
8
0
10
23.979062
20
174.398624
30
0.0
11
24.879062
21
174.398624
31
0.0
0
ARC
8
0
10
24.879062
20
174.098624
30
0.0
40
0.300000
50
0.000000
51
90.000000
0
LINE
8
0
10
25.179062
20
174.098624
30
0.0
11
25.179062
21
173.198624
31
0.0
0
ARC
8
0
10
25.479062
20
173.198624
30
0.0
40
0.300000
50
180.000000
51
270.000000
0
LINE
8
0
10
25.479062
20
172.898624
30
0.0
11
28.179038
21
172.898624
31
0.0
0
ARC
8
0
10
28.179038
20
173.198624
30
0.0
40
0.300000
50
270.000000
51
0.000000
0
LINE
8
0
10
28.479038
20
173.198624
30
0.0
11
28.479038
21
179.598624
31
0.0
0
ARC
8
0
10
28.179038
20
179.598624
30
0.0
40
0.300000
50
0.000000
51
90.000000
0
LINE
8
0
10
28.179038
20
179.898624
30
0.0
11
25.279038
21
179.898624
31
0.0
0
ARC
8
0
10
25.279038
20
180.198624
30
0.0
40
0.300000
50
180.000000
51
270.000000
0
LINE
8
0
10
24.979038
20
180.198624
30
0.0
11
24.979038
21
185.198624
31
0.0
0
ARC
8
0
10
24.679038
20
185.198624
30
0.0
40
0.300000
50
0.000000
51
90.000000
0
LINE
8
0
10
24.679038
20
185.498624
30
0.0
11
23.979038
21
185.498624
31
0.0
0
ARC
8
0
10
23.979038
20
185.798624
30
0.0
40
0.300000
50
180.000000
51
270.000000
0
LINE
8
0
10
23.679038
20
185.798624
30
0.0
11
23.679038
21
187.198624
31
0.0
0
ARC
8
0
10
23.379038
20
187.198624
30
0.0
40
0.300000
50
0.000000
51
90.000000
0
LINE
8
0
10
23.379038
20
187.498624
30
0.0
11
20.979038
21
187.498624
31
0.0
0
ARC
8
0
10
20.979038
20
187.798624
30
0.0
40
0.300000
50
180.000000
51
270.000000
0
LINE
8
0
10
20.679038
20
187.798624
30
0.0
11
20.679038
21
188.698624
31
0.0
0
ARC
8
0
10
20.979038
20
188.698624
30
0.0
40
0.300000
50
90.000000
51
180.000000
0
LINE
8
0
10
20.979038
20
188.998624
30
0.0
11
24.679038
21
188.998624
31
0.0
0
ARC
8
0
10
24.679038
20
189.298624
30
0.0
40
0.300000
50
270.000000
51
0.000000
0
LINE
8
0
10
24.979038
20
189.298624
30
0.0
11
24.979038
21
193.598624
31
0.0
0
ARC
8
0
10
24.679038
20
193.598624
30
0.0
40
0.300000
50
0.000000
51
90.000000
0
LINE
8
0
10
24.679038
20
193.898624
30
0.0
11
21.653326
21
193.898624
31
0.0
0
ARC
8
0
10
21.653326
20
193.598624
30
0.0
40
0.300000
50
90.000000
51
135.000000
0
LINE
8
0
10
21.441194
20
193.810756
30
0.0
11
21.116930
21
193.486491
31
0.0
0
ARC
8
0
10
20.904798
20
193.698624
30
0.0
40
0.300000
50
270.000000
51
315.000000
0
LINE
8
0
10
20.904798
20
193.398624
30
0.0
11
16.653326
21
193.398624
31
0.0
0
ARC
8
0
10
16.653326
20
193.698624
30
0.0
40
0.300000
50
225.000000
51
270.000000
0
LINE
8
0
10
16.441194
20
193.486491
30
0.0
11
16.116930
21
193.810756
31
0.0
0
ARC
8
0
10
15.904798
20
193.598624
30
0.0
40
0.300000
50
45.000000
51
90.000000
0
LINE
8
0
10
15.904798
20
193.898624
30
0.0
11
12.079062
21
193.898624
31
0.0
0
ARC
8
0
10
12.079062
20
194.898624
30
0.0
40
1.000000
50
180.000000
51
270.000000
0
LINE
8
0
10
11.079062
20
194.898624
30
0.0
11
11.079062
21
197.774251
31
0.0
0
ARC
8
0
10
10.779062
20
197.774251
30
0.0
40
0.300000
50
0.000000
51
30.000000
0
LINE
8
0
10
11.038870
20
197.924251
30
0.0
11
10.187641
21
199.398624
31
0.0
0
ARC
8
0
10
11.919692
20
200.398624
30
0.0
40
2.000000
50
122.643077
51
210.000000
0
ARC
8
0
10
10.679062
20
202.335332
30
0.0
40
0.300000
50
302.643077
51
0.000000
0
LINE
8
0
10
10.979062
20
202.335332
30
0.0
11
10.979062
21
204.098624
31
0.0
0
ARC
8
0
10
10.679062
20
204.098624
30
0.0
40
0.300000
50
0.000000
51
90.000000
0
LINE
8
0
10
10.679062
20
204.398624
30
0.0
11
8.479062
21
204.398624
31
0.0
0
ARC
8
0
10
8.479062
20
204.898624
30
0.0
40
0.500000
50
180.000000
51
270.000000
0
LINE
8
0
10
7.979062
20
204.898624
30
0.0
11
7.979062
21
207.998624
31
0.0
0
ARC
8
0
10
7.679062
20
207.998624
30
0.0
40
0.300000
50
0.000000
51
90.000000
0
LINE
8
0
10
7.679062
20
208.298624
30
0.0
11
-1.920938
21
208.298624
31
0.0
0
ARC
8
0
10
-1.920938
20
207.998624
30
0.0
40
0.300000
50
90.000000
51
180.000000
0
LINE
8
0
10
-2.220938
20
207.998624
30
0.0
11
-2.220938
21
205.181736
31
0.0
0
ARC
8
0
10
-1.920938
20
205.181736
30
0.0
40
0.300000
50
180.000000
51
255.000000
0
LINE
8
0
10
-1.998583
20
204.891958
30
0.0
11
-0.943292
21
204.609194
31
0.0
0
ARC
8
0
10
-1.020938
20
204.319416
30
0.0
40
0.300000
50
0.000000
51
75.000000
0
LINE
8
0
10
29.491194
20
206.786491
30
0.0
11
29.266930
21
207.010756
31
0.0
0
ARC
8
0
10
29.054798
20
206.798624
30
0.0
40
0.300000
50
45.000000
51
90.000000
0
LINE
8
0
10
29.054798
20
207.098624
30
0.0
11
28.379062
21
207.098624
31
0.0
0
ARC
8
0
10
28.379062
20
206.798624
30
0.0
40
0.300000
50
90.000000
51
180.000000
0
LINE
8
0
10
28.079062
20
206.798624
30
0.0
11
28.079062
21
206.198624
31
0.0
0
ARC
8
0
10
27.779062
20
206.198624
30
0.0
40
0.300000
50
270.000000
51
0.000000
0
LINE
8
0
10
27.779062
20
205.898624
30
0.0
11
25.368769
21
205.898624
31
0.0
0
ARC
8
0
10
25.368769
20
205.598624
30
0.0
40
0.300000
50
90.000000
51
178.000000
0
LINE
8
0
10
25.068952
20
205.609093
30
0.0
11
24.922528
21
201.416073
31
0.0
0
ARC
8
0
10
25.422224
20
201.398624
30
0.0
40
0.500000
50
178.000000
51
270.000000
0
LINE
8
0
10
25.422224
20
200.898624
30
0.0
11
25.638433
21
200.898624
31
0.0
0
ARC
8
0
10
25.638433
20
200.398624
30
0.0
40
0.500000
50
330.000000
51
90.000000
0
LINE
8
0
10
26.071446
20
200.148624
30
0.0
11
25.046050
21
198.372585
31
0.0
0
ARC
8
0
10
25.479062
20
198.122585
30
0.0
40
0.500000
50
150.000000
51
180.000000
0
LINE
8
0
10
24.979062
20
198.122585
30
0.0
11
24.979062
21
195.698624
31
0.0
0
ARC
8
0
10
24.679062
20
195.698624
30
0.0
40
0.300000
50
270.000000
51
0.000000
0
LINE
8
0
10
24.679062
20
195.398624
30
0.0
11
19.079062
21
195.398624
31
0.0
0
LINE
8
0
10
19.079062
20
195.398624
30
0.0
11
18.779062
21
195.098624
31
0.0
0
LINE
8
0
10
18.779062
20
195.098624
30
0.0
11
18.479062
21
195.398624
31
0.0
0
LINE
8
0
10
18.479062
20
195.398624
30
0.0
11
12.879062
21
195.398624
31
0.0
0
ARC
8
0
10
12.879062
20
195.698624
30
0.0
40
0.300000
50
180.000000
51
270.000000
0
LINE
8
0
10
12.579062
20
195.698624
30
0.0
11
12.579062
21
198.122585
31
0.0
0
ARC
8
0
10
12.079062
20
198.122585
30
0.0
40
0.500000
50
0.000000
51
30.000000
0
LINE
8
0
10
12.512075
20
198.372585
30
0.0
11
11.486679
21
200.148624
31
0.0
0
ARC
8
0
10
11.919692
20
200.398624
30
0.0
40
0.500000
50
90.000000
51
210.000000
0
LINE
8
0
10
11.919692
20
200.898624
30
0.0
11
12.135901
21
200.898624
31
0.0
0
ARC
8
0
10
12.135901
20
201.398624
30
0.0
40
0.500000
50
270.000000
51
2.000000
0
LINE
8
0
10
12.635596
20
201.416073
30
0.0
11
12.489173
21
205.609093
31
0.0
0
ARC
8
0
10
12.189356
20
205.598624
30
0.0
40
0.300000
50
2.000000
51
90.000000
0
LINE
8
0
10
12.189356
20
205.898624
30
0.0
11
9.779062
21
205.898624
31
0.0
0
ARC
8
0
10
9.779062
20
206.198624
30
0.0
40
0.300000
50
180.000000
51
270.000000
0
LINE
8
0
10
9.479062
20
206.198624
30
0.0
11
9.479062
21
209.498624
31
0.0
0
ARC
8
0
10
9.179062
20
209.498624
30
0.0
40
0.300000
50
0.000000
51
90.000000
0
LINE
8
0
10
9.179062
20
209.798624
30
0.0
11
-2.720938
21
209.798624
31
0.0
0
ARC
8
0
10
-2.720938
20
208.798624
30
0.0
40
1.000000
50
90.000000
51
180.000000
0
LINE
8
0
10
-3.720938
20
208.798624
30
0.0
11
-3.720938
21
204.030745
31
0.0
0
ARC
8
0
10
-3.420938
20
204.030745
30
0.0
40
0.300000
50
180.000000
51
255.000000
0
LINE
8
0
10
-3.498583
20
203.740968
30
0.0
11
-2.443292
21
203.458203
31
0.0
0
ARC
8
0
10
-2.520938
20
203.168425
30
0.0
40
0.300000
50
0.000000
51
75.000000
0
LINE
8
0
10
-2.220938
20
203.168425
30
0.0
11
-2.220938
21
184.698624
31
0.0
0
ARC
8
0
10
-2.520938
20
184.698624
30
0.0
40
0.300000
50
270.000000
51
0.000000
0
LINE
8
0
10
-2.520938
20
184.398624
30
0.0
11
-12.020938
21
184.398624
31
0.0
0
ARC
8
0
10
-12.020938
20
183.898624
30
0.0
40
0.500000
50
90.000000
51
180.000000
0
LINE
8
0
10
-12.520938
20
183.898624
30
0.0
11
-12.520938
21
166.698624
31
0.0
0
ARC
8
0
10
-12.220938
20
166.698624
30
0.0
40
0.300000
50
180.000000
51
270.000000
0
LINE
8
0
10
-12.220938
20
166.398624
30
0.0
11
-8.990795
21
166.398624
31
0.0
0
ARC
8
0
10
-8.990795
20
166.698624
30
0.0
40
0.300000
50
270.000000
51
329.036244
0
LINE
8
0
10
-8.733547
20
166.544275
30
0.0
11
-8.263690
21
167.327370
31
0.0
0
ARC
8
0
10
-8.520938
20
167.481719
30
0.0
40
0.300000
50
329.036244
51
0.000000
0
LINE
8
0
10
-8.220938
20
167.481719
30
0.0
11
-8.220938
21
167.598624
31
0.0
0
ARC
8
0
10
-8.520938
20
167.598624
30
0.0
40
0.300000
50
0.000000
51
90.000000
0
LINE
8
0
10
-8.520938
20
167.898624
30
0.0
11
-10.420938
21
167.898624
31
0.0
0
ARC
8
0
10
-10.420938
20
168.198624
30
0.0
40
0.300000
50
180.000000
51
270.000000
0
LINE
8
0
10
-10.720938
20
168.198624
30
0.0
11
-10.720938
21
171.098624
31
0.0
0
ARC
8
0
10
-10.420938
20
171.098624
30
0.0
40
0.300000
50
90.000000
51
180.000000
0
LINE
8
0
10
-10.420938
20
171.398624
30
0.0
11
3.479062
21
171.398624
31
0.0
0
ARC
8
0
10
3.479062
20
171.098624
30
0.0
40
0.300000
50
0.000000
51
90.000000
0
LINE
8
0
10
3.779062
20
171.098624
30
0.0
11
3.779062
21
168.198624
31
0.0
0
ARC
8
0
10
3.479062
20
168.198624
30
0.0
40
0.300000
50
270.000000
51
0.000000
0
LINE
8
0
10
3.479062
20
167.898624
30
0.0
11
2.079062
21
167.898624
31
0.0
0
ARC
8
0
10
2.079062
20
167.598624
30
0.0
40
0.300000
50
90.000000
51
180.000000
0
LINE
8
0
10
1.779062
20
167.598624
30
0.0
11
1.779062
21
167.481719
31
0.0
0
ARC
8
0
10
2.079062
20
167.481719
30
0.0
40
0.300000
50
180.000000
51
210.963757
0
LINE
8
0
10
1.821814
20
167.327370
30
0.0
11
2.291672
21
166.544275
31
0.0
0
ARC
8
0
10
2.548919
20
166.698624
30
0.0
40
0.300000
50
210.963757
51
270.000000
0
LINE
8
0
10
2.548919
20
166.398624
30
0.0
11
4.979062
21
166.398624
31
0.0
0
ARC
8
0
10
4.979062
20
166.698624
30
0.0
40
0.300000
50
270.000000
51
0.000000
0
LINE
8
0
10
5.279062
20
166.698624
30
0.0
11
5.279062
21
171.098624
31
0.0
0
ARC
8
0
10
5.579062
20
171.098624
30
0.0
40
0.300000
50
90.000000
51
180.000000
0
LINE
8
0
10
5.579062
20
171.398624
30
0.0
11
28.179062
21
171.398624
31
0.0
0
ARC
8
0
10
28.179062
20
171.098624
30
0.0
40
0.300000
50
0.000000
51
90.000000
0
LINE
8
0
10
28.479062
20
171.098624
30
0.0
11
28.479062
21
166.698624
31
0.0
0
ARC
8
0
10
28.779062
20
166.698624
30
0.0
40
0.300000
50
180.000000
51
270.000000
0
LINE
8
0
10
28.779062
20
166.398624
30
0.0
11
30.246978
21
166.398624
31
0.0
0
ARC
8
0
10
30.246978
20
166.698624
30
0.0
40
0.300000
50
270.000000
51
289.778171
0
LINE
8
0
10
30.348492
20
166.416321
30
0.0
11
31.650354
21
166.884460
31
0.0
0
ARC
8
0
10
31.729874
20
166.663322
30
0.0
40
0.235000
50
24.000000
51
109.778171
0
ARC
8
0
10
32.165808
20
166.839736
30
0.0
40
0.235000
50
204.000000
51
270.000000
0
LINE
8
0
10
32.164252
20
166.604741
30
0.0
11
33.743180
21
166.594284
31
0.0
0
ARC
8
0
10
33.745167
20
166.894277
30
0.0
40
0.300000
50
270.000000
51
24.620541
0
LINE
8
0
10
34.017893
20
167.019260
30
0.0
11
33.069243
21
169.124775
31
0.0
0
ARC
8
0
10
32.795724
20
169.001539
30
0.0
40
0.300000
50
24.254172
51
64.620541
0
LINE
8
0
10
32.924307
20
169.272586
30
0.0
11
32.416884
21
169.513305
31
0.0
0
ARC
8
0
10
32.331162
20
169.332607
30
0.0
40
0.200000
50
64.620541
51
184.620541
0
LINE
8
0
10
32.131812
20
169.316496
30
0.0
11
32.141114
21
169.201401
31
0.0
0
ARC
8
0
10
31.842089
20
169.177234
30
0.0
40
0.300000
50
304.620541
51
4.620541
0
LINE
8
0
10
32.012530
20
168.930354
30
0.0
11
30.383774
21
167.805889
31
0.0
0
LINE
8
0
10
30.383774
20
167.805889
30
0.0
11
30.201065
21
167.724541
31
0.0
0
ARC
8
0
10
30.079062
20
167.998624
30
0.0
40
0.300009
50
131.812671
51
293.995287
0
ARC
8
0
10
29.679038
20
168.445828
30
0.0
40
0.300000
50
311.812671
51
0.000000
0
LINE
8
0
10
29.979038
20
168.445828
30
0.0
11
29.979038
21
172.298614
31
0.0
0
ARC
8
0
10
30.279038
20
172.298614
30
0.0
40
0.300000
50
90.000000
51
180.000000
0
LINE
8
0
10
30.279038
20
172.598614
30
0.0
11
30.500231
21
172.598614
31
0.0
0
ARC
8
0
10
30.500231
20
172.298614
30
0.0
40
0.300000
50
58.600000
51
90.000000
0
LINE
8
0
10
30.656534
20
172.554679
30
0.0
11
32.174836
21
171.627904
31
0.0
0
ARC
8
0
10
32.279038
20
171.798614
30
0.0
40
0.200000
50
238.600000
51
0.000000
0
LINE
8
0
10
32.479038
20
171.798614
30
0.0
11
32.479038
21
175.998614
31
0.0
0
ARC
8
0
10
32.279038
20
175.998614
30
0.0
40
0.200000
50
0.000000
51
121.400000
0
LINE
8
0
10
32.174836
20
176.169324
30
0.0
11
30.656534
21
175.242549
31
0.0
0
ARC
8
0
10
30.500231
20
175.498614
30
0.0
40
0.300000
50
270.000000
51
301.400000
0
LINE
8
0
10
30.500231
20
175.198614
30
0.0
11
30.279038
21
175.198614
31
0.0
0
ARC
8
0
10
30.279038
20
175.498614
30
0.0
40
0.300000
50
180.000000
51
270.000000
0
LINE
8
0
10
29.979038
20
175.498614
30
0.0
11
29.979038
21
179.351401
31
0.0
0
ARC
8
0
10
29.679038
20
179.351401
30
0.0
40
0.300000
50
0.000000
51
48.187329
0
ARC
8
0
10
30.079062
20
179.798605
30
0.0
40
0.300009
50
66.004713
51
228.187329
0
LINE
8
0
10
30.201065
20
180.072687
30
0.0
11
30.383774
21
179.991340
31
0.0
0
LINE
8
0
10
30.383774
20
179.991340
30
0.0
11
32.012530
21
178.866874
31
0.0
0
ARC
8
0
10
31.842089
20
178.619994
30
0.0
40
0.300000
50
355.379459
51
55.379459
0
LINE
8
0
10
32.141114
20
178.595827
30
0.0
11
32.131812
21
178.480732
31
0.0
0
ARC
8
0
10
32.331162
20
178.464621
30
0.0
40
0.200000
50
175.379459
51
295.379459
0
LINE
8
0
10
32.416884
20
178.283923
30
0.0
11
32.924307
21
178.524642
31
0.0
0
ARC
8
0
10
32.795724
20
178.795689
30
0.0
40
0.300000
50
295.379459
51
335.745828
0
LINE
8
0
10
33.069243
20
178.672454
30
0.0
11
34.017893
21
180.777969
31
0.0
0
ARC
8
0
10
33.745167
20
180.902951
30
0.0
40
0.300000
50
335.379459
51
90.000000
0
LINE
8
0
10
33.743180
20
181.202944
30
0.0
11
32.164252
21
181.192487
31
0.0
0
ARC
8
0
10
32.165808
20
180.957492
30
0.0
40
0.235000
50
90.000000
51
156.000000
0
ARC
8
0
10
31.729874
20
181.133906
30
0.0
40
0.235000
50
250.221829
51
336.000000
0
LINE
8
0
10
31.650354
20
180.912768
30
0.0
11
30.348440
21
181.380926
31
0.0
0
ARC
8
0
10
30.246926
20
181.098624
30
0.0
40
0.300000
50
70.221829
51
90.000000
0
LINE
8
0
10
30.246926
20
181.398624
30
0.0
11
26.779038
21
181.398624
31
0.0
0
ARC
8
0
10
26.779038
20
181.698624
30
0.0
40
0.300000
50
180.000000
51
270.000000
0
LINE
8
0
10
26.479038
20
181.698624
30
0.0
11
26.479038
21
187.198624
31
0.0
0
ARC
8
0
10
26.779038
20
187.198624
30
0.0
40
0.300000
50
90.000000
51
180.000000
0
LINE
8
0
10
26.779038
20
187.498624
30
0.0
11
29.379038
21
187.498624
31
0.0
0
ARC
8
0
10
29.379038
20
187.798624
30
0.0
40
0.300000
50
270.000000
51
0.000000
0
LINE
8
0
10
29.679038
20
187.798624
30
0.0
11
29.679038
21
188.698624
31
0.0
0
ARC
8
0
10
29.379038
20
188.698624
30
0.0
40
0.300000
50
0.000000
51
90.000000
0
LINE
8
0
10
29.379038
20
188.998624
30
0.0
11
26.779038
21
188.998624
31
0.0
0
ARC
8
0
10
26.779038
20
189.298624
30
0.0
40
0.300000
50
180.000000
51
270.000000
0
LINE
8
0
10
26.479038
20
189.298624
30
0.0
11
26.479038
21
197.774209
31
0.0
0
ARC
8
0
10
26.779038
20
197.774209
30
0.0
40
0.300000
50
150.000000
51
180.000000
0
LINE
8
0
10
26.519230
20
197.924209
30
0.0
11
27.370484
21
199.398624
31
0.0
0
ARC
8
0
10
25.638433
20
200.398624
30
0.0
40
2.000000
50
330.000000
51
57.356923
0
ARC
8
0
10
26.879062
20
202.335332
30
0.0
40
0.300000
50
180.000000
51
237.356923
0
LINE
8
0
10
26.579062
20
202.335332
30
0.0
11
26.579062
21
204.098624
31
0.0
0
ARC
8
0
10
26.879062
20
204.098624
30
0.0
40
0.300000
50
90.000000
51
180.000000
0
LINE
8
0
10
26.879062
20
204.398624
30
0.0
11
29.279062
21
204.398624
31
0.0
0
ARC
8
0
10
29.279062
20
204.698624
30
0.0
40
0.300000
50
270.000000
51
0.000000
0
LINE
8
0
10
29.579062
20
204.698624
30
0.0
11
29.579062
21
206.574359
31
0.0
0
ARC
8
0
10
29.279062
20
206.574359
30
0.0
40
0.300000
50
0.000000
51
45.000000
0
ARC
8
0
10
59.779037
20
173.198624
30
0.0
40
0.300000
50
180.000000
51
270.000000
0
LINE
8
0
10
59.479037
20
173.198624
30
0.0
11
59.479037
21
179.598624
31
0.0
0
ARC
8
0
10
59.779037
20
179.598624
30
0.0
40
0.300000
50
90.000000
51
180.000000
0
LINE
8
0
10
59.779037
20
179.898624
30
0.0
11
79.678162
21
179.898624
31
0.0
0
ARC
8
0
10
79.678162
20
179.598624
30
0.0
40
0.300000
50
0.000000
51
90.000000
0
LINE
8
0
10
79.978162
20
179.598624
30
0.0
11
79.978162
21
173.198624
31
0.0
0
ARC
8
0
10
79.678162
20
173.198624
30
0.0
40
0.300000
50
270.000000
51
0.000000
0
LINE
8
0
10
79.678162
20
172.898624
30
0.0
11
59.779037
21
172.898624
31
0.0
0
LINE
8
0
10
67.078162
20
181.398624
30
0.0
11
81.746050
21
181.398624
31
0.0
0
ARC
8
0
10
81.746050
20
181.098624
30
0.0
40
0.300000
50
70.221829
51
90.000000
0
LINE
8
0
10
81.847564
20
181.380926
30
0.0
11
83.149479
21
180.912768
31
0.0
0
ARC
8
0
10
83.228998
20
181.133906
30
0.0
40
0.235000
50
250.221829
51
336.000000
0
ARC
8
0
10
83.664932
20
180.957492
30
0.0
40
0.235000
50
90.000000
51
156.000000
0
LINE
8
0
10
83.663376
20
181.192487
30
0.0
11
85.242304
21
181.202944
31
0.0
0
ARC
8
0
10
85.244291
20
180.902951
30
0.0
40
0.300000
50
335.379459
51
90.000000
0
LINE
8
0
10
85.517017
20
180.777969
30
0.0
11
84.568367
21
178.672454
31
0.0
0
ARC
8
0
10
84.294848
20
178.795689
30
0.0
40
0.300000
50
295.379459
51
335.745828
0
LINE
8
0
10
84.423431
20
178.524642
30
0.0
11
83.916008
21
178.283923
31
0.0
0
ARC
8
0
10
83.830286
20
178.464621
30
0.0
40
0.200000
50
175.379459
51
295.379459
0
LINE
8
0
10
83.630936
20
178.480732
30
0.0
11
83.640238
21
178.595827
31
0.0
0
ARC
8
0
10
83.341213
20
178.619994
30
0.0
40
0.300000
50
355.379459
51
55.379459
0
LINE
8
0
10
83.511654
20
178.866874
30
0.0
11
81.882898
21
179.991340
31
0.0
0
LINE
8
0
10
81.882898
20
179.991340
30
0.0
11
81.700189
21
180.072687
31
0.0
0
ARC
8
0
10
81.578186
20
179.798605
30
0.0
40
0.300009
50
66.004713
51
228.187329
0
ARC
8
0
10
81.178162
20
179.351401
30
0.0
40
0.300000
50
0.000000
51
48.187329
0
LINE
8
0
10
81.478162
20
179.351401
30
0.0
11
81.478162
21
175.498614
31
0.0
0
ARC
8
0
10
81.778162
20
175.498614
30
0.0
40
0.300000
50
180.000000
51
270.000000
0
LINE
8
0
10
81.778162
20
175.198614
30
0.0
11
81.999355
21
175.198614
31
0.0
0
ARC
8
0
10
81.999355
20
175.498614
30
0.0
40
0.300000
50
270.000000
51
301.400000
0
LINE
8
0
10
82.155658
20
175.242549
30
0.0
11
83.673960
21
176.169324
31
0.0
0
ARC
8
0
10
83.778162
20
175.998614
30
0.0
40
0.200000
50
0.000000
51
121.400000
0
LINE
8
0
10
83.978162
20
175.998614
30
0.0
11
83.978162
21
171.798614
31
0.0
0
ARC
8
0
10
83.778162
20
171.798614
30
0.0
40
0.200000
50
238.600000
51
0.000000
0
LINE
8
0
10
83.673960
20
171.627904
30
0.0
11
82.155658
21
172.554679
31
0.0
0
ARC
8
0
10
81.999355
20
172.298614
30
0.0
40
0.300000
50
58.600000
51
90.000000
0
LINE
8
0
10
81.999355
20
172.598614
30
0.0
11
81.778162
21
172.598614
31
0.0
0
ARC
8
0
10
81.778162
20
172.298614
30
0.0
40
0.300000
50
90.000000
51
180.000000
0
LINE
8
0
10
81.478162
20
172.298614
30
0.0
11
81.478162
21
168.445828
31
0.0
0
ARC
8
0
10
81.178162
20
168.445828
30
0.0
40
0.300000
50
311.812671
51
0.000000
0
ARC
8
0
10
81.578186
20
167.998624
30
0.0
40
0.300009
50
131.812671
51
293.995287
0
LINE
8
0
10
81.700189
20
167.724541
30
0.0
11
81.882898
21
167.805889
31
0.0
0
LINE
8
0
10
81.882898
20
167.805889
30
0.0
11
83.511654
21
168.930354
31
0.0
0
ARC
8
0
10
83.341213
20
169.177234
30
0.0
40
0.300000
50
304.620541
51
4.620541
0
LINE
8
0
10
83.640238
20
169.201401
30
0.0
11
83.630936
21
169.316496
31
0.0
0
ARC
8
0
10
83.830286
20
169.332607
30
0.0
40
0.200000
50
64.620541
51
184.620541
0
LINE
8
0
10
83.916008
20
169.513305
30
0.0
11
84.423431
21
169.272586
31
0.0
0
ARC
8
0
10
84.294848
20
169.001539
30
0.0
40
0.300000
50
24.254172
51
64.620541
0
LINE
8
0
10
84.568367
20
169.124775
30
0.0
11
85.517017
21
167.019260
31
0.0
0
ARC
8
0
10
85.244291
20
166.894277
30
0.0
40
0.300000
50
270.000000
51
24.620541
0
LINE
8
0
10
85.242304
20
166.594284
30
0.0
11
83.663376
21
166.604741
31
0.0
0
ARC
8
0
10
83.664932
20
166.839736
30
0.0
40
0.235000
50
204.000000
51
270.000000
0
ARC
8
0
10
83.228998
20
166.663322
30
0.0
40
0.235000
50
24.000000
51
109.778171
0
LINE
8
0
10
83.149479
20
166.884460
30
0.0
11
81.847616
21
166.416321
31
0.0
0
ARC
8
0
10
81.746102
20
166.698624
30
0.0
40
0.300000
50
270.000000
51
289.778171
0
LINE
8
0
10
81.746102
20
166.398624
30
0.0
11
79.978186
21
166.398624
31
0.0
0
ARC
8
0
10
79.978186
20
166.698624
30
0.0
40
0.300000
50
180.000000
51
270.000000
0
LINE
8
0
10
79.678186
20
166.698624
30
0.0
11
79.678186
21
171.098624
31
0.0
0
ARC
8
0
10
79.378186
20
171.098624
30
0.0
40
0.300000
50
0.000000
51
90.000000
0
LINE
8
0
10
79.378186
20
171.398624
30
0.0
11
60.079013
21
171.398624
31
0.0
0
ARC
8
0
10
60.079013
20
171.098624
30
0.0
40
0.300000
50
90.000000
51
180.000000
0
LINE
8
0
10
59.779013
20
171.098624
30
0.0
11
59.779013
21
166.698624
31
0.0
0
ARC
8
0
10
59.479013
20
166.698624
30
0.0
40
0.300000
50
270.000000
51
0.000000
0
LINE
8
0
10
59.479013
20
166.398624
30
0.0
11
57.711097
21
166.398624
31
0.0
0
ARC
8
0
10
57.711097
20
166.698624
30
0.0
40
0.300000
50
250.221829
51
270.000000
0
LINE
8
0
10
57.609583
20
166.416321
30
0.0
11
56.307721
21
166.884460
31
0.0
0
ARC
8
0
10
56.228201
20
166.663322
30
0.0
40
0.235000
50
70.221829
51
156.000000
0
ARC
8
0
10
55.792267
20
166.839736
30
0.0
40
0.235000
50
270.000000
51
336.000000
0
LINE
8
0
10
55.793823
20
166.604741
30
0.0
11
54.214895
21
166.594284
31
0.0
0
ARC
8
0
10
54.212908
20
166.894277
30
0.0
40
0.300000
50
155.379459
51
270.000000
0
LINE
8
0
10
53.940182
20
167.019260
30
0.0
11
54.888832
21
169.124775
31
0.0
0
ARC
8
0
10
55.162352
20
169.001539
30
0.0
40
0.300000
50
115.379459
51
155.745828
0
LINE
8
0
10
55.033768
20
169.272586
30
0.0
11
55.541191
21
169.513305
31
0.0
0
ARC
8
0
10
55.626913
20
169.332607
30
0.0
40
0.200000
50
355.379459
51
115.379459
0
LINE
8
0
10
55.826263
20
169.316496
30
0.0
11
55.816961
21
169.201401
31
0.0
0
ARC
8
0
10
56.115986
20
169.177234
30
0.0
40
0.300000
50
175.379459
51
235.379459
0
LINE
8
0
10
55.945545
20
168.930354
30
0.0
11
57.574301
21
167.805889
31
0.0
0
LINE
8
0
10
57.574301
20
167.805889
30
0.0
11
57.757010
21
167.724541
31
0.0
0
ARC
8
0
10
57.879013
20
167.998624
30
0.0
40
0.300009
50
246.004713
51
48.187329
0
ARC
8
0
10
58.279037
20
168.445828
30
0.0
40
0.300000
50
180.000000
51
228.187329
0
LINE
8
0
10
57.979037
20
168.445828
30
0.0
11
57.979037
21
172.298614
31
0.0
0
ARC
8
0
10
57.679037
20
172.298614
30
0.0
40
0.300000
50
0.000000
51
90.000000
0
LINE
8
0
10
57.679037
20
172.598614
30
0.0
11
57.457844
21
172.598614
31
0.0
0
ARC
8
0
10
57.457844
20
172.298614
30
0.0
40
0.300000
50
90.000000
51
121.400000
0
LINE
8
0
10
57.301541
20
172.554679
30
0.0
11
55.783239
21
171.627904
31
0.0
0
ARC
8
0
10
55.679037
20
171.798614
30
0.0
40
0.200000
50
180.000000
51
301.400000
0
LINE
8
0
10
55.479037
20
171.798614
30
0.0
11
55.479037
21
175.998614
31
0.0
0
ARC
8
0
10
55.679037
20
175.998614
30
0.0
40
0.200000
50
58.600000
51
180.000000
0
LINE
8
0
10
55.783239
20
176.169324
30
0.0
11
57.301541
21
175.242549
31
0.0
0
ARC
8
0
10
57.457844
20
175.498614
30
0.0
40
0.300000
50
238.600000
51
270.000000
0
LINE
8
0
10
57.457844
20
175.198614
30
0.0
11
57.679037
21
175.198614
31
0.0
0
ARC
8
0
10
57.679037
20
175.498614
30
0.0
40
0.300000
50
270.000000
51
0.000000
0
LINE
8
0
10
57.979037
20
175.498614
30
0.0
11
57.979037
21
179.351401
31
0.0
0
ARC
8
0
10
58.279037
20
179.351401
30
0.0
40
0.300000
50
131.812671
51
180.000000
0
ARC
8
0
10
57.879013
20
179.798605
30
0.0
40
0.300009
50
311.812671
51
113.995287
0
LINE
8
0
10
57.757010
20
180.072687
30
0.0
11
57.574301
21
179.991340
31
0.0
0
LINE
8
0
10
57.574301
20
179.991340
30
0.0
11
55.945545
21
178.866874
31
0.0
0
ARC
8
0
10
56.115986
20
178.619994
30
0.0
40
0.300000
50
124.620541
51
184.620541
0
LINE
8
0
10
55.816961
20
178.595827
30
0.0
11
55.826263
21
178.480732
31
0.0
0
ARC
8
0
10
55.626913
20
178.464621
30
0.0
40
0.200000
50
244.620541
51
4.620541
0
LINE
8
0
10
55.541191
20
178.283923
30
0.0
11
55.033768
21
178.524642
31
0.0
0
ARC
8
0
10
55.162352
20
178.795689
30
0.0
40
0.300000
50
204.254172
51
244.620541
0
LINE
8
0
10
54.888832
20
178.672454
30
0.0
11
53.940182
21
180.777969
31
0.0
0
ARC
8
0
10
54.212908
20
180.902951
30
0.0
40
0.300000
50
90.000000
51
204.620541
0
LINE
8
0
10
54.214895
20
181.202944
30
0.0
11
55.793823
21
181.192487
31
0.0
0
ARC
8
0
10
55.792267
20
180.957492
30
0.0
40
0.235000
50
24.000000
51
90.000000
0
ARC
8
0
10
56.228201
20
181.133906
30
0.0
40
0.235000
50
204.000000
51
289.778171
0
LINE
8
0
10
56.307721
20
180.912768
30
0.0
11
57.609636
21
181.380926
31
0.0
0
ARC
8
0
10
57.711149
20
181.098624
30
0.0
40
0.300000
50
90.000000
51
109.778171
0
LINE
8
0
10
57.711149
20
181.398624
30
0.0
11
64.878162
21
181.398624
31
0.0
0
ARC
8
0
10
64.878162
20
181.698624
30
0.0
40
0.300000
50
270.000000
51
0.000000
0
LINE
8
0
10
65.178162
20
181.698624
30
0.0
11
65.178162
21
187.498624
31
0.0
0
ARC
8
0
10
64.878162
20
187.498624
30
0.0
40
0.300000
50
0.000000
51
90.000000
0
LINE
8
0
10
64.878162
20
187.798624
30
0.0
11
63.978162
21
187.798624
31
0.0
0
ARC
8
0
10
63.978162
20
188.098624
30
0.0
40
0.300000
50
180.000000
51
270.000000
0
LINE
8
0
10
63.678162
20
188.098624
30
0.0
11
63.678162
21
188.298624
31
0.0
0
ARC
8
0
10
64.678162
20
188.298624
30
0.0
40
1.000000
50
94.411726
51
180.000000
0
LINE
8
0
10
64.601239
20
189.295661
30
0.0
11
64.901239
21
189.295661
31
0.0
0
ARC
8
0
10
64.878162
20
189.594772
30
0.0
40
0.300000
50
274.411726
51
0.000000
0
LINE
8
0
10
65.178162
20
189.594772
30
0.0
11
65.178162
21
211.698624
31
0.0
0
ARC
8
0
10
65.478162
20
211.698624
30
0.0
40
0.300000
50
90.000000
51
180.000000
0
LINE
8
0
10
65.478162
20
211.998624
30
0.0
11
69.378162
21
211.998624
31
0.0
0
ARC
8
0
10
69.378162
20
211.698624
30
0.0
40
0.300000
50
0.000000
51
90.000000
0
LINE
8
0
10
69.678162
20
211.698624
30
0.0
11
69.678162
21
210.198624
31
0.0
0
ARC
8
0
10
68.978162
20
210.198624
30
0.0
40
0.700000
50
270.000000
51
0.000000
0
ARC
8
0
10
68.978162
20
209.798624
30
0.0
40
0.300000
50
180.000000
51
270.000000
0
LINE
8
0
10
68.678162
20
209.798624
30
0.0
11
68.678162
21
210.498624
31
0.0
0
ARC
8
0
10
68.378162
20
210.498624
30
0.0
40
0.300000
50
0.000000
51
90.000000
0
LINE
8
0
10
68.378162
20
210.798624
30
0.0
11
67.178162
21
210.798624
31
0.0
0
ARC
8
0
10
67.178162
20
210.098624
30
0.0
40
0.700000
50
90.000000
51
180.000000
0
LINE
8
0
10
66.478162
20
210.098624
30
0.0
11
66.478162
21
203.898624
31
0.0
0
ARC
8
0
10
67.178162
20
203.898624
30
0.0
40
0.700000
50
180.000000
51
270.000000
0
LINE
8
0
10
67.178162
20
203.198624
30
0.0
11
68.378162
21
203.198624
31
0.0
0
ARC
8
0
10
68.378162
20
203.498624
30
0.0
40
0.300000
50
270.000000
51
0.000000
0
LINE
8
0
10
68.678162
20
203.498624
30
0.0
11
68.678162
21
204.198624
31
0.0
0
ARC
8
0
10
68.978162
20
204.198624
30
0.0
40
0.300000
50
90.000000
51
180.000000
0
ARC
8
0
10
68.978162
20
203.798624
30
0.0
40
0.700000
50
0.000000
51
90.000000
0
LINE
8
0
10
69.678162
20
203.798624
30
0.0
11
69.678162
21
200.798624
31
0.0
0
ARC
8
0
10
69.378162
20
200.798624
30
0.0
40
0.300000
50
270.000000
51
0.000000
0
LINE
8
0
10
69.378162
20
200.498624
30
0.0
11
68.978162
21
200.498624
31
0.0
0
ARC
8
0
10
68.978162
20
200.798624
30
0.0
40
0.300000
50
180.000000
51
270.000000
0
LINE
8
0
10
68.678162
20
200.798624
30
0.0
11
68.678162
21
201.698624
31
0.0
0
ARC
8
0
10
68.378162
20
201.698624
30
0.0
40
0.300000
50
0.000000
51
90.000000
0
LINE
8
0
10
68.378162
20
201.998624
30
0.0
11
67.078162
21
201.998624
31
0.0
0
ARC
8
0
10
67.078162
20
201.698624
30
0.0
40
0.300000
50
90.000000
51
180.000000
0
LINE
8
0
10
66.778162
20
201.698624
30
0.0
11
66.778162
21
181.698624
31
0.0
0
ARC
8
0
10
67.078162
20
181.698624
30
0.0
40
0.300000
50
180.000000
51
270.000000
0
ARC
8
0
10
108.957757
20
175.498619
30
0.0
40
0.300000
50
238.600000
51
270.000000
0
LINE
8
0
10
108.957757
20
175.198619
30
0.0
11
109.178951
21
175.198619
31
0.0
0
ARC
8
0
10
109.178951
20
175.498619
30
0.0
40
0.300000
50
270.000000
51
0.000000
0
LINE
8
0
10
109.478951
20
175.498619
30
0.0
11
109.478951
21
179.351405
31
0.0
0
ARC
8
0
10
109.778951
20
179.351405
30
0.0
40
0.300000
50
131.812671
51
180.000000
0
ARC
8
0
10
109.378926
20
179.798609
30
0.0
40
0.300009
50
311.812671
51
113.995287
0
LINE
8
0
10
109.256924
20
180.072692
30
0.0
11
109.074215
21
179.991344
31
0.0
0
LINE
8
0
10
109.074215
20
179.991344
30
0.0
11
107.445458
21
178.866878
31
0.0
0
ARC
8
0
10
107.615900
20
178.619999
30
0.0
40
0.300000
50
124.620541
51
184.620541
0
LINE
8
0
10
107.316875
20
178.595832
30
0.0
11
107.326176
21
178.480737
31
0.0
0
ARC
8
0
10
107.126826
20
178.464626
30
0.0
40
0.200000
50
244.620541
51
4.620541
0
LINE
8
0
10
107.041104
20
178.283928
30
0.0
11
106.533681
21
178.524647
31
0.0
0
ARC
8
0
10
106.662265
20
178.795694
30
0.0
40
0.300000
50
204.254172
51
244.620541
0
LINE
8
0
10
106.388745
20
178.672458
30
0.0
11
105.440095
21
180.777973
31
0.0
0
ARC
8
0
10
105.712821
20
180.902955
30
0.0
40
0.300000
50
90.000000
51
204.620541
0
LINE
8
0
10
105.714808
20
181.202949
30
0.0
11
107.293736
21
181.192492
31
0.0
0
ARC
8
0
10
107.292180
20
180.957497
30
0.0
40
0.235000
50
24.000000
51
90.000000
0
ARC
8
0
10
107.728115
20
181.133910
30
0.0
40
0.235000
50
204.000000
51
289.778171
0
LINE
8
0
10
107.807634
20
180.912773
30
0.0
11
109.109549
21
181.380931
31
0.0
0
LINE
8
0
10
109.195007
20
181.398198
30
0.0
11
109.109549
21
181.380931
31
0.0
0
ARC
8
0
10
109.178951
20
181.697768
30
0.0
40
0.300000
50
273.067931
51
0.000000
0
LINE
8
0
10
109.478951
20
181.697768
30
0.0
11
109.478951
21
193.698624
31
0.0
0
ARC
8
0
10
109.778951
20
193.698624
30
0.0
40
0.300000
50
90.000000
51
180.000000
0
LINE
8
0
10
109.778951
20
193.998624
30
0.0
11
112.428395
21
193.998624
31
0.0
0
ARC
8
0
10
112.428395
20
193.698624
30
0.0
40
0.300000
50
30.000000
51
90.000000
0
LINE
8
0
10
112.688203
20
193.848624
30
0.0
11
113.138758
21
193.068239
31
0.0
0
ARC
8
0
10
112.878951
20
192.918239
30
0.0
40
0.300000
50
0.000000
51
30.000000
0
LINE
8
0
10
113.178951
20
192.918239
30
0.0
11
113.178951
21
192.798624
31
0.0
0
ARC
8
0
10
112.878951
20
192.798624
30
0.0
40
0.300000
50
270.000000
51
0.000000
0
LINE
8
0
10
112.878951
20
192.498624
30
0.0
11
111.478951
21
192.498624
31
0.0
0
ARC
8
0
10
111.478951
20
192.198624
30
0.0
40
0.300000
50
90.000000
51
180.000000
0
LINE
8
0
10
111.178951
20
192.198624
30
0.0
11
111.178951
21
189.298624
31
0.0
0
ARC
8
0
10
111.478951
20
189.298624
30
0.0
40
0.300000
50
180.000000
51
270.000000
0
LINE
8
0
10
111.478951
20
188.998624
30
0.0
11
125.378951
21
188.998624
31
0.0
0
ARC
8
0
10
125.378951
20
189.298624
30
0.0
40
0.300000
50
270.000000
51
0.000000
0
LINE
8
0
10
125.678951
20
189.298624
30
0.0
11
125.678951
21
192.198624
31
0.0
0
ARC
8
0
10
125.378951
20
192.198624
30
0.0
40
0.300000
50
0.000000
51
90.000000
0
LINE
8
0
10
125.378951
20
192.498624
30
0.0
11
123.478951
21
192.498624
31
0.0
0
ARC
8
0
10
123.478951
20
192.798624
30
0.0
40
0.300000
50
180.000000
51
270.000000
0
LINE
8
0
10
123.178951
20
192.798624
30
0.0
11
123.178951
21
192.918239
31
0.0
0
ARC
8
0
10
123.478951
20
192.918239
30
0.0
40
0.300000
50
150.000000
51
180.000000
0
LINE
8
0
10
123.219143
20
193.068239
30
0.0
11
123.669698
21
193.848624
31
0.0
0
ARC
8
0
10
123.929506
20
193.698624
30
0.0
40
0.300000
50
90.000000
51
150.000000
0
LINE
8
0
10
123.929506
20
193.998624
30
0.0
11
127.178951
21
193.998624
31
0.0
0
ARC
8
0
10
127.178951
20
193.698624
30
0.0
40
0.300000
50
0.000000
51
90.000000
0
LINE
8
0
10
127.478951
20
193.698624
30
0.0
11
127.478951
21
166.698624
31
0.0
0
ARC
8
0
10
127.178951
20
166.698624
30
0.0
40
0.300000
50
270.000000
51
0.000000
0
LINE
8
0
10
127.178951
20
166.398624
30
0.0
11
123.929506
21
166.398624
31
0.0
0
ARC
8
0
10
123.929506
20
166.698624
30
0.0
40
0.300000
50
210.000000
51
270.000000
0
LINE
8
0
10
123.669698
20
166.548624
30
0.0
11
123.219143
21
167.329008
31
0.0
0
ARC
8
0
10
123.478951
20
167.479008
30
0.0
40
0.300000
50
180.000000
51
210.000000
0
LINE
8
0
10
123.178951
20
167.479008
30
0.0
11
123.178951
21
167.598624
31
0.0
0
ARC
8
0
10
123.478951
20
167.598624
30
0.0
40
0.300000
50
90.000000
51
180.000000
0
LINE
8
0
10
123.478951
20
167.898624
30
0.0
11
125.378951
21
167.898624
31
0.0
0
ARC
8
0
10
125.378951
20
168.198624
30
0.0
40
0.300000
50
270.000000
51
0.000000
0
LINE
8
0
10
125.678951
20
168.198624
30
0.0
11
125.678951
21
171.098624
31
0.0
0
ARC
8
0
10
125.378951
20
171.098624
30
0.0
40
0.300000
50
0.000000
51
90.000000
0
LINE
8
0
10
125.378951
20
171.398624
30
0.0
11
111.478951
21
171.398624
31
0.0
0
ARC
8
0
10
111.478951
20
171.098624
30
0.0
40
0.300000
50
90.000000
51
180.000000
0
LINE
8
0
10
111.178951
20
171.098624
30
0.0
11
111.178951
21
168.198624
31
0.0
0
ARC
8
0
10
111.478951
20
168.198624
30
0.0
40
0.300000
50
180.000000
51
270.000000
0
LINE
8
0
10
111.478951
20
167.898624
30
0.0
11
112.878951
21
167.898624
31
0.0
0
ARC
8
0
10
112.878951
20
167.598624
30
0.0
40
0.300000
50
0.000000
51
90.000000
0
LINE
8
0
10
113.178951
20
167.598624
30
0.0
11
113.178951
21
167.479008
31
0.0
0
ARC
8
0
10
112.878951
20
167.479008
30
0.0
40
0.300000
50
330.000000
51
0.000000
0
LINE
8
0
10
113.138758
20
167.329008
30
0.0
11
112.688203
21
166.548624
31
0.0
0
ARC
8
0
10
112.428395
20
166.698624
30
0.0
40
0.300000
50
270.000000
51
330.000000
0
LINE
8
0
10
112.428395
20
166.398624
30
0.0
11
109.211010
21
166.398628
31
0.0
0
ARC
8
0
10
109.211010
20
166.698628
30
0.0
40
0.300000
50
250.221829
51
270.000000
0
LINE
8
0
10
109.109496
20
166.416325
30
0.0
11
107.807634
21
166.884464
31
0.0
0
ARC
8
0
10
107.728115
20
166.663327
30
0.0
40
0.235000
50
70.221829
51
156.000000
0
ARC
8
0
10
107.292180
20
166.839741
30
0.0
40
0.235000
50
270.000000
51
336.000000
0
LINE
8
0
10
107.293736
20
166.604746
30
0.0
11
105.714808
21
166.594289
31
0.0
0
ARC
8
0
10
105.712821
20
166.894282
30
0.0
40
0.300000
50
155.379459
51
270.000000
0
LINE
8
0
10
105.440095
20
167.019264
30
0.0
11
106.388745
21
169.124779
31
0.0
0
ARC
8
0
10
106.662265
20
169.001544
30
0.0
40
0.300000
50
115.379459
51
155.745828
0
LINE
8
0
10
106.533681
20
169.272591
30
0.0
11
107.041104
21
169.513310
31
0.0
0
ARC
8
0
10
107.126826
20
169.332612
30
0.0
40
0.200000
50
355.379459
51
115.379459
0
LINE
8
0
10
107.326176
20
169.316501
30
0.0
11
107.316875
21
169.201406
31
0.0
0
ARC
8
0
10
107.615900
20
169.177239
30
0.0
40
0.300000
50
175.379459
51
235.379459
0
LINE
8
0
10
107.445458
20
168.930359
30
0.0
11
109.074215
21
167.805893
31
0.0
0
LINE
8
0
10
109.074215
20
167.805893
30
0.0
11
109.256924
21
167.724546
31
0.0
0
ARC
8
0
10
109.378926
20
167.998628
30
0.0
40
0.300009
50
246.004713
51
48.187329
0
ARC
8
0
10
109.778951
20
168.445832
30
0.0
40
0.300000
50
180.000000
51
228.187329
0
LINE
8
0
10
109.478951
20
168.445832
30
0.0
11
109.478951
21
172.298619
31
0.0
0
ARC
8
0
10
109.178951
20
172.298619
30
0.0
40
0.300000
50
0.000000
51
90.000000
0
LINE
8
0
10
109.178951
20
172.598619
30
0.0
11
108.957757
21
172.598619
31
0.0
0
ARC
8
0
10
108.957757
20
172.298619
30
0.0
40
0.300000
50
90.000000
51
121.400000
0
LINE
8
0
10
108.801454
20
172.554684
30
0.0
11
107.283152
21
171.627909
31
0.0
0
ARC
8
0
10
107.178951
20
171.798619
30
0.0
40
0.200000
50
180.000000
51
301.400000
0
LINE
8
0
10
106.978951
20
171.798619
30
0.0
11
106.978951
21
175.998619
31
0.0
0
ARC
8
0
10
107.178951
20
175.998619
30
0.0
40
0.200000
50
58.600000
51
180.000000
0
LINE
8
0
10
107.283152
20
176.169329
30
0.0
11
108.801454
21
175.242554
31
0.0
0
LINE
8
0
10
125.979601
20
187.198624
30
0.0
11
125.979601
21
173.298624
31
0.0
0
ARC
8
0
10
125.679601
20
173.298624
30
0.0
40
0.300000
50
270.000000
51
0.000000
0
LINE
8
0
10
125.679601
20
172.998624
30
0.0
11
123.579601
21
172.998624
31
0.0
0
LINE
8
0
10
123.579601
20
172.998624
30
0.0
11
123.579601
21
172.898624
31
0.0
0
LINE
8
0
10
123.579601
20
172.898624
30
0.0
11
113.379601
21
172.898624
31
0.0
0
LINE
8
0
10
113.379601
20
172.898624
30
0.0
11
113.379601
21
172.998624
31
0.0
0
LINE
8
0
10
113.379601
20
172.998624
30
0.0
11
111.279601
21
172.998624
31
0.0
0
ARC
8
0
10
111.279601
20
173.298624
30
0.0
40
0.300000
50
180.000000
51
270.000000
0
LINE
8
0
10
110.979601
20
173.298624
30
0.0
11
110.979601
21
187.198624
31
0.0
0
ARC
8
0
10
111.279601
20
187.198624
30
0.0
40
0.300000
50
90.000000
51
180.000000
0
LINE
8
0
10
111.279601
20
187.498624
30
0.0
11
125.679601
21
187.498624
31
0.0
0
ARC
8
0
10
125.679601
20
187.198624
30
0.0
40
0.300000
50
0.000000
51
90.000000
0
ARC
8
0
10
53.197977
20
180.840983
30
0.0
40
0.400000
50
20.000000
51
90.000000
0
LINE
8
0
10
53.573854
20
180.977791
30
0.0
11
54.425331
21
178.638377
31
0.0
0
ARC
8
0
10
54.707239
20
178.740983
30
0.0
40
0.300000
50
200.000000
51
270.000000
0
LINE
8
0
10
54.707239
20
178.440983
30
0.0
11
54.991988
21
178.440983
31
0.0
0
ARC
8
0
10
54.991988
20
179.640983
30
0.0
40
1.200000
50
270.000000
51
299.981639
0
LINE
8
0
10
55.591655
20
178.601560
30
0.0
11
57.173599
21
179.514220
31
0.0
0
ARC
8
0
10
57.273543
20
179.340983
30
0.0
40
0.200000
50
90.000000
51
119.981639
0
LINE
8
0
10
57.273543
20
179.540983
30
0.0
11
57.779988
21
179.540983
31
0.0
0
ARC
8
0
10
57.779988
20
179.340983
30
0.0
40
0.200000
50
0.000000
51
90.000000
0
LINE
8
0
10
57.979988
20
179.340983
30
0.0
11
57.979988
21
175.540983
31
0.0
0
ARC
8
0
10
57.779988
20
175.540983
30
0.0
40
0.200000
50
270.000000
51
0.000000
0
LINE
8
0
10
57.779988
20
175.340983
30
0.0
11
57.273543
21
175.340983
31
0.0
0
ARC
8
0
10
57.273543
20
175.540983
30
0.0
40
0.200000
50
240.018361
51
270.000000
0
LINE
8
0
10
57.173599
20
175.367746
30
0.0
11
55.591655
21
176.280406
31
0.0
0
ARC
8
0
10
54.991988
20
175.240983
30
0.0
40
1.200000
50
60.018361
51
90.000000
0
LINE
8
0
10
54.991988
20
176.440983
30
0.0
11
54.009804
21
176.440983
31
0.0
0
ARC
8
0
10
54.009804
20
177.440983
30
0.0
40
1.000000
50
200.000000
51
270.000000
0
LINE
8
0
10
53.070112
20
177.098963
30
0.0
11
52.313480
21
179.177791
31
0.0
0
ARC
8
0
10
51.937603
20
179.040983
30
0.0
40
0.400000
50
20.000000
51
90.000000
0
LINE
8
0
10
51.937603
20
179.440983
30
0.0
11
46.079513
21
179.440983
31
0.0
0
ARC
8
0
10
46.079513
20
178.940983
30
0.0
40
0.500000
50
90.000000
51
180.000000
0
LINE
8
0
10
45.579513
20
178.940983
30
0.0
11
45.579513
21
170.540983
31
0.0
0
ARC
8
0
10
45.279513
20
170.540983
30
0.0
40
0.300000
50
270.000000
51
0.000000
0
LINE
8
0
10
45.279513
20
170.240983
30
0.0
11
44.879513
21
170.240983
31
0.0
0
ARC
8
0
10
44.879513
20
170.540983
30
0.0
40
0.300000
50
180.000000
51
270.000000
0
LINE
8
0
10
44.579513
20
170.540983
30
0.0
11
44.579513
21
178.940983
31
0.0
0
ARC
8
0
10
44.079513
20
178.940983
30
0.0
40
0.500000
50
0.000000
51
90.000000
0
LINE
8
0
10
44.079513
20
179.440983
30
0.0
11
40.321133
21
179.440983
31
0.0
0
ARC
8
0
10
40.321133
20
179.140983
30
0.0
40
0.300000
50
90.000000
51
157.975687
0
ARC
8
0
10
39.579513
20
179.440983
30
0.0
40
0.500000
50
202.024313
51
337.975687
0
ARC
8
0
10
38.837893
20
179.140983
30
0.0
40
0.300000
50
22.024313
51
90.000000
0
LINE
8
0
10
38.837893
20
179.440983
30
0.0
11
36.021422
21
179.440983
31
0.0
0
ARC
8
0
10
36.021422
20
179.040983
30
0.0
40
0.400000
50
90.000000
51
160.000000
0
LINE
8
0
10
35.645545
20
179.177791
30
0.0
11
34.888914
21
177.098963
31
0.0
0
ARC
8
0
10
33.949221
20
177.440983
30
0.0
40
1.000000
50
270.000000
51
340.000000
0
LINE
8
0
10
33.949221
20
176.440983
30
0.0
11
32.967037
21
176.440983
31
0.0
0
ARC
8
0
10
32.967037
20
175.240983
30
0.0
40
1.200000
50
90.000000
51
119.981639
0
LINE
8
0
10
32.367370
20
176.280406
30
0.0
11
30.785427
21
175.367746
31
0.0
0
ARC
8
0
10
30.685482
20
175.540983
30
0.0
40
0.200000
50
270.000000
51
299.981639
0
LINE
8
0
10
30.685482
20
175.340983
30
0.0
11
30.179038
21
175.340983
31
0.0
0
ARC
8
0
10
30.179038
20
175.540983
30
0.0
40
0.200000
50
180.000000
51
270.000000
0
LINE
8
0
10
29.979038
20
175.540983
30
0.0
11
29.979038
21
179.340983
31
0.0
0
ARC
8
0
10
30.179038
20
179.340983
30
0.0
40
0.200000
50
90.000000
51
180.000000
0
LINE
8
0
10
30.179038
20
179.540983
30
0.0
11
30.685482
21
179.540983
31
0.0
0
ARC
8
0
10
30.685482
20
179.340983
30
0.0
40
0.200000
50
60.018361
51
90.000000
0
LINE
8
0
10
30.785427
20
179.514220
30
0.0
11
32.367370
21
178.601560
31
0.0
0
ARC
8
0
10
32.967037
20
179.640983
30
0.0
40
1.200000
50
240.018361
51
270.000000
0
LINE
8
0
10
32.967037
20
178.440983
30
0.0
11
33.251787
21
178.440983
31
0.0
0
ARC
8
0
10
33.251787
20
178.740983
30
0.0
40
0.300000
50
270.000000
51
340.000000
0
LINE
8
0
10
33.533695
20
178.638377
30
0.0
11
34.385172
21
180.977791
31
0.0
0
ARC
8
0
10
34.761049
20
180.840983
30
0.0
40
0.400000
50
90.000000
51
160.000000
0
LINE
8
0
10
34.761049
20
181.240983
30
0.0
11
53.197977
21
181.240983
31
0.0
0
ARC
8
0
10
34.761049
20
166.956249
30
0.0
40
0.400000
50
200.000000
51
270.000000
0
LINE
8
0
10
34.385172
20
166.819441
30
0.0
11
33.533695
21
169.158855
31
0.0
0
ARC
8
0
10
33.251787
20
169.056249
30
0.0
40
0.300000
50
20.000000
51
90.000000
0
LINE
8
0
10
33.251787
20
169.356249
30
0.0
11
32.967037
21
169.356249
31
0.0
0
ARC
8
0
10
32.967037
20
168.156249
30
0.0
40
1.200000
50
90.000000
51
119.981639
0
LINE
8
0
10
32.367370
20
169.195672
30
0.0
11
30.785427
21
168.283012
31
0.0
0
ARC
8
0
10
30.685482
20
168.456249
30
0.0
40
0.200000
50
270.000000
51
299.981639
0
LINE
8
0
10
30.685482
20
168.256249
30
0.0
11
30.179038
21
168.256249
31
0.0
0
ARC
8
0
10
30.179038
20
168.456249
30
0.0
40
0.200000
50
180.000000
51
270.000000
0
LINE
8
0
10
29.979038
20
168.456249
30
0.0
11
29.979038
21
172.256249
31
0.0
0
ARC
8
0
10
30.179038
20
172.256249
30
0.0
40
0.200000
50
90.000000
51
180.000000
0
LINE
8
0
10
30.179038
20
172.456249
30
0.0
11
30.685482
21
172.456249
31
0.0
0
ARC
8
0
10
30.685482
20
172.256249
30
0.0
40
0.200000
50
60.018361
51
90.000000
0
LINE
8
0
10
30.785427
20
172.429486
30
0.0
11
32.367370
21
171.516826
31
0.0
0
ARC
8
0
10
32.967037
20
172.556249
30
0.0
40
1.200000
50
240.018361
51
270.000000
0
LINE
8
0
10
32.967037
20
171.356249
30
0.0
11
33.949221
21
171.356249
31
0.0
0
ARC
8
0
10
33.949221
20
170.356249
30
0.0
40
1.000000
50
20.000000
51
90.000000
0
LINE
8
0
10
34.888914
20
170.698269
30
0.0
11
35.645545
21
168.619441
31
0.0
0
ARC
8
0
10
36.021422
20
168.756249
30
0.0
40
0.400000
50
200.000000
51
270.000000
0
LINE
8
0
10
36.021422
20
168.356249
30
0.0
11
41.879513
21
168.356249
31
0.0
0
ARC
8
0
10
41.879513
20
168.856249
30
0.0
40
0.500000
50
270.000000
51
0.000000
0
LINE
8
0
10
42.379513
20
168.856249
30
0.0
11
42.379513
21
177.256249
31
0.0
0
ARC
8
0
10
42.679513
20
177.256249
30
0.0
40
0.300000
50
90.000000
51
180.000000
0
LINE
8
0
10
42.679513
20
177.556249
30
0.0
11
43.079513
21
177.556249
31
0.0
0
ARC
8
0
10
43.079513
20
177.256249
30
0.0
40
0.300000
50
0.000000
51
90.000000
0
LINE
8
0
10
43.379513
20
177.256249
30
0.0
11
43.379513
21
168.856249
31
0.0
0
ARC
8
0
10
43.879513
20
168.856249
30
0.0
40
0.500000
50
180.000000
51
270.000000
0
LINE
8
0
10
43.879513
20
168.356249
30
0.0
11
47.637893
21
168.356249
31
0.0
0
ARC
8
0
10
47.637893
20
168.656249
30
0.0
40
0.300000
50
270.000000
51
337.975687
0
ARC
8
0
10
48.379513
20
168.356249
30
0.0
40
0.500000
50
22.024313
51
157.975687
0
ARC
8
0
10
49.121133
20
168.656249
30
0.0
40
0.300000
50
202.024313
51
270.000000
0
LINE
8
0
10
49.121133
20
168.356249
30
0.0
11
51.937603
21
168.356249
31
0.0
0
ARC
8
0
10
51.937603
20
168.756249
30
0.0
40
0.400000
50
270.000000
51
340.000000
0
LINE
8
0
10
52.313480
20
168.619441
30
0.0
11
53.070112
21
170.698269
31
0.0
0
ARC
8
0
10
54.009804
20
170.356249
30
0.0
40
1.000000
50
90.000000
51
160.000000
0
LINE
8
0
10
54.009804
20
171.356249
30
0.0
11
54.991988
21
171.356249
31
0.0
0
ARC
8
0
10
54.991988
20
172.556249
30
0.0
40
1.200000
50
270.000000
51
299.981639
0
LINE
8
0
10
55.591655
20
171.516826
30
0.0
11
57.173599
21
172.429486
31
0.0
0
ARC
8
0
10
57.273543
20
172.256249
30
0.0
40
0.200000
50
90.000000
51
119.981639
0
LINE
8
0
10
57.273543
20
172.456249
30
0.0
11
57.779988
21
172.456249
31
0.0
0
ARC
8
0
10
57.779988
20
172.256249
30
0.0
40
0.200000
50
0.000000
51
90.000000
0
LINE
8
0
10
57.979988
20
172.256249
30
0.0
11
57.979988
21
168.456249
31
0.0
0
ARC
8
0
10
57.779988
20
168.456249
30
0.0
40
0.200000
50
270.000000
51
0.000000
0
LINE
8
0
10
57.779988
20
168.256249
30
0.0
11
57.273543
21
168.256249
31
0.0
0
ARC
8
0
10
57.273543
20
168.456249
30
0.0
40
0.200000
50
240.018361
51
270.000000
0
LINE
8
0
10
57.173599
20
168.283012
30
0.0
11
55.591655
21
169.195672
31
0.0
0
ARC
8
0
10
54.991988
20
168.156249
30
0.0
40
1.200000
50
60.018361
51
90.000000
0
LINE
8
0
10
54.991988
20
169.356249
30
0.0
11
54.707239
21
169.356249
31
0.0
0
ARC
8
0
10
54.707239
20
169.056249
30
0.0
40
0.300000
50
90.000000
51
160.000000
0
LINE
8
0
10
54.425331
20
169.158855
30
0.0
11
53.573854
21
166.819441
31
0.0
0
ARC
8
0
10
53.197977
20
166.956249
30
0.0
40
0.400000
50
270.000000
51
340.000000
0
LINE
8
0
10
53.197977
20
166.556249
30
0.0
11
34.761049
21
166.556249
31
0.0
0
ARC
8
0
10
104.697101
20
180.840983
30
0.0
40
0.400000
50
20.000000
51
90.000000
0
LINE
8
0
10
105.072978
20
180.977791
30
0.0
11
105.924455
21
178.638377
31
0.0
0
ARC
8
0
10
106.206363
20
178.740983
30
0.0
40
0.300000
50
200.000000
51
270.000000
0
LINE
8
0
10
106.206363
20
178.440983
30
0.0
11
106.491112
21
178.440983
31
0.0
0
ARC
8
0
10
106.491112
20
179.640983
30
0.0
40
1.200000
50
270.000000
51
299.981639
0
LINE
8
0
10
107.090779
20
178.601560
30
0.0
11
108.672723
21
179.514220
31
0.0
0
ARC
8
0
10
108.772667
20
179.340983
30
0.0
40
0.200000
50
90.000000
51
119.981639
0
LINE
8
0
10
108.772667
20
179.540983
30
0.0
11
109.279112
21
179.540983
31
0.0
0
ARC
8
0
10
109.279112
20
179.340983
30
0.0
40
0.200000
50
0.000000
51
90.000000
0
LINE
8
0
10
109.479112
20
179.340983
30
0.0
11
109.479112
21
175.540983
31
0.0
0
ARC
8
0
10
109.279112
20
175.540983
30
0.0
40
0.200000
50
270.000000
51
0.000000
0
LINE
8
0
10
109.279112
20
175.340983
30
0.0
11
108.772667
21
175.340983
31
0.0
0
ARC
8
0
10
108.772667
20
175.540983
30
0.0
40
0.200000
50
240.018361
51
270.000000
0
LINE
8
0
10
108.672723
20
175.367746
30
0.0
11
107.090779
21
176.280406
31
0.0
0
ARC
8
0
10
106.491112
20
175.240983
30
0.0
40
1.200000
50
60.018361
51
90.000000
0
LINE
8
0
10
106.491112
20
176.440983
30
0.0
11
105.508928
21
176.440983
31
0.0
0
ARC
8
0
10
105.508928
20
177.440983
30
0.0
40
1.000000
50
200.000000
51
270.000000
0
LINE
8
0
10
104.569236
20
177.098963
30
0.0
11
103.812604
21
179.177791
31
0.0
0
ARC
8
0
10
103.436727
20
179.040983
30
0.0
40
0.400000
50
20.000000
51
90.000000
0
LINE
8
0
10
103.436727
20
179.440983
30
0.0
11
97.578637
21
179.440983
31
0.0
0
ARC
8
0
10
97.578637
20
178.940983
30
0.0
40
0.500000
50
90.000000
51
180.000000
0
LINE
8
0
10
97.078637
20
178.940983
30
0.0
11
97.078637
21
170.540983
31
0.0
0
ARC
8
0
10
96.778637
20
170.540983
30
0.0
40
0.300000
50
270.000000
51
0.000000
0
LINE
8
0
10
96.778637
20
170.240983
30
0.0
11
96.378637
21
170.240983
31
0.0
0
ARC
8
0
10
96.378637
20
170.540983
30
0.0
40
0.300000
50
180.000000
51
270.000000
0
LINE
8
0
10
96.078637
20
170.540983
30
0.0
11
96.078637
21
178.940983
31
0.0
0
ARC
8
0
10
95.578637
20
178.940983
30
0.0
40
0.500000
50
0.000000
51
90.000000
0
LINE
8
0
10
95.578637
20
179.440983
30
0.0
11
91.820257
21
179.440983
31
0.0
0
ARC
8
0
10
91.820257
20
179.140983
30
0.0
40
0.300000
50
90.000000
51
157.975687
0
ARC
8
0
10
91.078637
20
179.440983
30
0.0
40
0.500000
50
202.024313
51
337.975687
0
ARC
8
0
10
90.337017
20
179.140983
30
0.0
40
0.300000
50
22.024313
51
90.000000
0
LINE
8
0
10
90.337017
20
179.440983
30
0.0
11
87.520546
21
179.440983
31
0.0
0
ARC
8
0
10
87.520546
20
179.040983
30
0.0
40
0.400000
50
90.000000
51
160.000000
0
LINE
8
0
10
87.144669
20
179.177791
30
0.0
11
86.388038
21
177.098963
31
0.0
0
ARC
8
0
10
85.448345
20
177.440983
30
0.0
40
1.000000
50
270.000000
51
340.000000
0
LINE
8
0
10
85.448345
20
176.440983
30
0.0
11
84.466161
21
176.440983
31
0.0
0
ARC
8
0
10
84.466161
20
175.240983
30
0.0
40
1.200000
50
90.000000
51
119.981639
0
LINE
8
0
10
83.866494
20
176.280406
30
0.0
11
82.284551
21
175.367746
31
0.0
0
ARC
8
0
10
82.184606
20
175.540983
30
0.0
40
0.200000
50
270.000000
51
299.981639
0
LINE
8
0
10
82.184606
20
175.340983
30
0.0
11
81.678162
21
175.340983
31
0.0
0
ARC
8
0
10
81.678162
20
175.540983
30
0.0
40
0.200000
50
180.000000
51
270.000000
0
LINE
8
0
10
81.478162
20
175.540983
30
0.0
11
81.478162
21
179.340983
31
0.0
0
ARC
8
0
10
81.678162
20
179.340983
30
0.0
40
0.200000
50
90.000000
51
180.000000
0
LINE
8
0
10
81.678162
20
179.540983
30
0.0
11
82.184606
21
179.540983
31
0.0
0
ARC
8
0
10
82.184606
20
179.340983
30
0.0
40
0.200000
50
60.018361
51
90.000000
0
LINE
8
0
10
82.284551
20
179.514220
30
0.0
11
83.866494
21
178.601560
31
0.0
0
ARC
8
0
10
84.466161
20
179.640983
30
0.0
40
1.200000
50
240.018361
51
270.000000
0
LINE
8
0
10
84.466161
20
178.440983
30
0.0
11
84.750911
21
178.440983
31
0.0
0
ARC
8
0
10
84.750911
20
178.740983
30
0.0
40
0.300000
50
270.000000
51
340.000000
0
LINE
8
0
10
85.032819
20
178.638377
30
0.0
11
85.884296
21
180.977791
31
0.0
0
ARC
8
0
10
86.260173
20
180.840983
30
0.0
40
0.400000
50
90.000000
51
160.000000
0
LINE
8
0
10
86.260173
20
181.240983
30
0.0
11
104.697101
21
181.240983
31
0.0
0
ARC
8
0
10
86.260173
20
166.956249
30
0.0
40
0.400000
50
200.000000
51
270.000000
0
LINE
8
0
10
85.884296
20
166.819441
30
0.0
11
85.032819
21
169.158855
31
0.0
0
ARC
8
0
10
84.750911
20
169.056249
30
0.0
40
0.300000
50
20.000000
51
90.000000
0
LINE
8
0
10
84.750911
20
169.356249
30
0.0
11
84.466161
21
169.356249
31
0.0
0
ARC
8
0
10
84.466161
20
168.156249
30
0.0
40
1.200000
50
90.000000
51
119.981639
0
LINE
8
0
10
83.866494
20
169.195672
30
0.0
11
82.284551
21
168.283012
31
0.0
0
ARC
8
0
10
82.184606
20
168.456249
30
0.0
40
0.200000
50
270.000000
51
299.981639
0
LINE
8
0
10
82.184606
20
168.256249
30
0.0
11
81.678162
21
168.256249
31
0.0
0
ARC
8
0
10
81.678162
20
168.456249
30
0.0
40
0.200000
50
180.000000
51
270.000000
0
LINE
8
0
10
81.478162
20
168.456249
30
0.0
11
81.478162
21
172.256249
31
0.0
0
ARC
8
0
10
81.678162
20
172.256249
30
0.0
40
0.200000
50
90.000000
51
180.000000
0
LINE
8
0
10
81.678162
20
172.456249
30
0.0
11
82.184606
21
172.456249
31
0.0
0
ARC
8
0
10
82.184606
20
172.256249
30
0.0
40
0.200000
50
60.018361
51
90.000000
0
LINE
8
0
10
82.284551
20
172.429486
30
0.0
11
83.866494
21
171.516826
31
0.0
0
ARC
8
0
10
84.466161
20
172.556249
30
0.0
40
1.200000
50
240.018361
51
270.000000
0
LINE
8
0
10
84.466161
20
171.356249
30
0.0
11
85.448345
21
171.356249
31
0.0
0
ARC
8
0
10
85.448345
20
170.356249
30
0.0
40
1.000000
50
20.000000
51
90.000000
0
LINE
8
0
10
86.388038
20
170.698269
30
0.0
11
87.144669
21
168.619441
31
0.0
0
ARC
8
0
10
87.520546
20
168.756249
30
0.0
40
0.400000
50
200.000000
51
270.000000
0
LINE
8
0
10
87.520546
20
168.356249
30
0.0
11
93.378637
21
168.356249
31
0.0
0
ARC
8
0
10
93.378637
20
168.856249
30
0.0
40
0.500000
50
270.000000
51
0.000000
0
LINE
8
0
10
93.878637
20
168.856249
30
0.0
11
93.878637
21
177.256249
31
0.0
0
ARC
8
0
10
94.178637
20
177.256249
30
0.0
40
0.300000
50
90.000000
51
180.000000
0
LINE
8
0
10
94.178637
20
177.556249
30
0.0
11
94.578637
21
177.556249
31
0.0
0
ARC
8
0
10
94.578637
20
177.256249
30
0.0
40
0.300000
50
0.000000
51
90.000000
0
LINE
8
0
10
94.878637
20
177.256249
30
0.0
11
94.878637
21
168.856249
31
0.0
0
ARC
8
0
10
95.378637
20
168.856249
30
0.0
40
0.500000
50
180.000000
51
270.000000
0
LINE
8
0
10
95.378637
20
168.356249
30
0.0
11
99.137017
21
168.356249
31
0.0
0
ARC
8
0
10
99.137017
20
168.656249
30
0.0
40
0.300000
50
270.000000
51
337.975687
0
ARC
8
0
10
99.878637
20
168.356249
30
0.0
40
0.500000
50
22.024313
51
157.975687
0
ARC
8
0
10
100.620257
20
168.656249
30
0.0
40
0.300000
50
202.024313
51
270.000000
0
LINE
8
0
10
100.620257
20
168.356249
30
0.0
11
103.436727
21
168.356249
31
0.0
0
ARC
8
0
10
103.436727
20
168.756249
30
0.0
40
0.400000
50
270.000000
51
340.000000
0
LINE
8
0
10
103.812604
20
168.619441
30
0.0
11
104.569236
21
170.698269
31
0.0
0
ARC
8
0
10
105.508928
20
170.356249
30
0.0
40
1.000000
50
90.000000
51
160.000000
0
LINE
8
0
10
105.508928
20
171.356249
30
0.0
11
106.491112
21
171.356249
31
0.0
0
ARC
8
0
10
106.491112
20
172.556249
30
0.0
40
1.200000
50
270.000000
51
299.981639
0
LINE
8
0
10
107.090779
20
171.516826
30
0.0
11
108.672723
21
172.429486
31
0.0
0
ARC
8
0
10
108.772667
20
172.256249
30
0.0
40
0.200000
50
90.000000
51
119.981639
0
LINE
8
0
10
108.772667
20
172.456249
30
0.0
11
109.279112
21
172.456249
31
0.0
0
ARC
8
0
10
109.279112
20
172.256249
30
0.0
40
0.200000
50
0.000000
51
90.000000
0
LINE
8
0
10
109.479112
20
172.256249
30
0.0
11
109.479112
21
168.456249
31
0.0
0
ARC
8
0
10
109.279112
20
168.456249
30
0.0
40
0.200000
50
270.000000
51
0.000000
0
LINE
8
0
10
109.279112
20
168.256249
30
0.0
11
108.772667
21
168.256249
31
0.0
0
ARC
8
0
10
108.772667
20
168.456249
30
0.0
40
0.200000
50
240.018361
51
270.000000
0
LINE
8
0
10
108.672723
20
168.283012
30
0.0
11
107.090779
21
169.195672
31
0.0
0
ARC
8
0
10
106.491112
20
168.156249
30
0.0
40
1.200000
50
60.018361
51
90.000000
0
LINE
8
0
10
106.491112
20
169.356249
30
0.0
11
106.206363
21
169.356249
31
0.0
0
ARC
8
0
10
106.206363
20
169.056249
30
0.0
40
0.300000
50
90.000000
51
160.000000
0
LINE
8
0
10
105.924455
20
169.158855
30
0.0
11
105.072978
21
166.819441
31
0.0
0
ARC
8
0
10
104.697101
20
166.956249
30
0.0
40
0.400000
50
270.000000
51
340.000000
0
LINE
8
0
10
104.697101
20
166.556249
30
0.0
11
86.260173
21
166.556249
31
0.0
0
ATTDEF
8
0
10
127.478951
20
166.398624
30
0.0
40
3.5
1

3

2
FRONT_VIEW
70
0
0
ATTDEF
8
0
10
127.478951
20
166.398624
30
0.0
40
3.5
1

3

2
BL01:6800.000000,,1
70
0
0
ATTDEF
8
0
10
127.478951
20
166.398624
30
0.0
40
3.5
1

3

2
OPTI:500.000000,1,0,3000.000000,6500.000000,500.000000,0,0.000000,0
70
0
0
ATTDEF
8
0
10
127.478951
20
166.398624
30
0.0
40
3.5
1

3

2
GLASS_MIN:0.000000
70
0
0
ATTDEF
8
0
10
127.478951
20
166.398624
30
0.0
40
3.5
1

3

2
GLASS_MAX:0.000000
70
0
0
ATTDEF
8
0
10
125.554228
20
193.998624
30
0.0
40
3.5
1

3

2
VC_START
70
0
0
ATTDEF
8
0
10
125.554228
20
166.398624
30
0.0
40
3.5
1

3

2
VC_END
70
0
0
ATTDEF
8
0
10
127.478951
20
166.398624
30
0.0
40
3.5
1

3

2
FP_LCS_ORIG
70
0
0
ATTDEF
8
0
10
117.478951
20
166.398624
30
0.0
40
3.5
1

3

2
FP_LCS_HOT
70
0
0
ATTDEF
8
0
10
127.478951
20
176.398624
30
0.0
40
3.5
1

3

2
FP_LCS_INTERN
70
0
0
ATTDEF
8
0
10
0.000000
20
0.000000
30
0.0
40
3.5
1

3

2
TDEV2:0
70
0
0
ATTDEF
8
0
10
0.000000
20
0.000000
30
0.0
40
3.5
1

3

2
TDEV3:0
70
0
0
ATTDEF
8
0
10
0.000000
20
0.000000
30
0.0
40
3.5
1

3

2
TDEV4:0
70
0
0
ATTDEF
8
0
10
0.000000
20
0.000000
30
0.0
40
3.5
1

3

2
TDEV5:0
70
0
0
ATTDEF
8
0
10
0.000000
20
0.000000
30
0.0
40
3.5
1

3

2
PANE_WIDTH:0
70
0
0
ATTDEF
8
0
10
0.000000
20
0.000000
30
0.0
40
3.5
1

3

2
MIN_VETRO:0
70
0
0
ATTDEF
8
0
10
0.000000
20
0.000000
30
0.0
40
3.5
1

3

2
MAX_VETRO:0
70
0
0
ATTDEF
8
0
10
0.000000
20
0.000000
30
0.0
40
3.5
1

3

2
JX:0
70
0
0
ATTDEF
8
0
10
0.000000
20
0.000000
30
0.0
40
3.5
1

3

2
WX:0
70
0
0
ATTDEF
8
0
10
0.000000
20
0.000000
30
0.0
40
3.5
1

3

2
JY:0
70
0
0
ATTDEF
8
0
10
0.000000
20
0.000000
30
0.0
40
3.5
1

3

2
WY:0
70
0
0
ATTDEF
8
0
10
0.000000
20
0.000000
30
0.0
40
3.5
1

3

2
DESC:Telaio OX
70
0
0
ATTDEF
8
0
10
0.000000
20
0.000000
30
0.0
40
3.5
1

3

2
DENS:2.4
70
0
0
ATTDEF
8
0
10
0.000000
20
0.000000
30
0.0
40
3.5
1

3

2
TDEV:0
70
0
0
ATTDEF
8
0
10
0.000000
20
0.000000
30
0.0
40
3.5
1

3

2
TDEV2:0
70
0
0
ATTDEF
8
0
10
0.000000
20
0.000000
30
0.0
40
3.5
1

3

2
TDEV3:0
70
0
0
ATTDEF
8
0
10
0.000000
20
0.000000
30
0.0
40
3.5
1

3

2
TDEV4:0
70
0
0
ATTDEF
8
0
10
0.000000
20
0.000000
30
0.0
40
3.5
1

3

2
TDEV5:0
70
0
0
ATTDEF
8
0
10
0.000000
20
0.000000
30
0.0
40
3.5
1

3

2
PANE_WIDTH:0
70
0
0
ATTDEF
8
0
10
0.000000
20
0.000000
30
0.0
40
3.5
1

3

2
MIN_VETRO:0
70
0
0
ATTDEF
8
0
10
0.000000
20
0.000000
30
0.0
40
3.5
1

3

2
MAX_VETRO:0
70
0
0
ATTDEF
8
0
10
0.000000
20
0.000000
30
0.0
40
3.5
1

3

2
JX:0
70
0
0
ATTDEF
8
0
10
0.000000
20
0.000000
30
0.0
40
3.5
1

3

2
WX:0
70
0
0
ATTDEF
8
0
10
0.000000
20
0.000000
30
0.0
40
3.5
1

3

2
JY:0
70
0
0
ATTDEF
8
0
10
0.000000
20
0.000000
30
0.0
40
3.5
1

3

2
WY:0
70
0
0
ENDSEC
0
EOF
