0
SECTION
2
ENTITIES
0
ARC
8
0
10
106.903570
20
6.900000
30
0.0
40
0.300000
50
180.000000
51
270.000000
0
LINE
8
0
10
106.903570
20
6.600000
30
0.0
11
114.658870
21
6.600000
31
0.0
0
ARC
8
0
10
114.658870
20
6.900000
30
0.0
40
0.300000
50
270.000000
51
315.000000
0
LINE
8
0
10
114.871002
20
6.687868
30
0.0
11
116.192323
21
8.009188
31
0.0
0
ARC
8
0
10
116.404455
20
7.797056
30
0.0
40
0.300000
50
45.000000
51
135.000000
0
LINE
8
0
10
116.616587
20
8.009188
30
0.0
11
117.937907
21
6.687868
31
0.0
0
ARC
8
0
10
118.150039
20
6.900000
30
0.0
40
0.300000
50
225.000000
51
270.000000
0
LINE
8
0
10
118.150039
20
6.600000
30
0.0
11
121.122146
21
6.600000
31
0.0
0
ARC
8
0
10
121.122146
20
6.900000
30
0.0
40
0.300000
50
270.000000
51
300.000000
0
LINE
8
0
10
121.272146
20
6.640192
30
0.0
11
121.954455
21
7.034123
31
0.0
0
ARC
8
0
10
121.804455
20
7.293931
30
0.0
40
0.300000
50
300.000000
51
0.000000
0
LINE
8
0
10
122.104455
20
7.293931
30
0.0
11
122.104455
21
10.906069
31
0.0
0
ARC
8
0
10
121.804455
20
10.906069
30
0.0
40
0.300000
50
0.000000
51
60.000000
0
LINE
8
0
10
121.954455
20
11.165876
30
0.0
11
121.272146
21
11.559807
31
0.0
0
ARC
8
0
10
121.122146
20
11.300000
30
0.0
40
0.300000
50
60.000000
51
90.000000
0
LINE
8
0
10
121.122146
20
11.600000
30
0.0
11
106.903570
21
11.600000
31
0.0
0
ARC
8
0
10
106.903570
20
11.300000
30
0.0
40
0.300000
50
90.000000
51
180.000000
0
LINE
8
0
10
106.603570
20
11.300000
30
0.0
11
106.603570
21
6.900000
31
0.0
0
LINE
8
0
10
19.403570
20
37.920802
30
0.0
11
19.403570
21
22.900009
31
0.0
0
ARC
8
0
10
19.703570
20
22.900009
30
0.0
40
0.300000
50
180.000000
51
270.000000
0
LINE
8
0
10
19.703570
20
22.600009
30
0.0
11
22.403570
21
22.600009
31
0.0
0
ARC
8
0
10
22.403570
20
22.300009
30
0.0
40
0.300000
50
0.000000
51
90.000000
0
LINE
8
0
10
22.703570
20
22.300009
30
0.0
11
22.703570
21
21.400009
31
0.0
0
ARC
8
0
10
22.403570
20
21.400009
30
0.0
40
0.300000
50
270.000000
51
0.000000
0
LINE
8
0
10
22.403570
20
21.100009
30
0.0
11
21.103570
21
21.100009
31
0.0
0
ARC
8
0
10
21.103570
20
20.800009
30
0.0
40
0.300000
50
90.000000
51
180.000000
0
LINE
8
0
10
20.803570
20
20.800009
30
0.0
11
20.803570
21
19.400009
31
0.0
0
ARC
8
0
10
20.503570
20
19.400009
30
0.0
40
0.300000
50
270.000000
51
0.000000
0
LINE
8
0
10
20.503570
20
19.100009
30
0.0
11
19.703570
21
19.100009
31
0.0
0
ARC
8
0
10
19.703570
20
18.800009
30
0.0
40
0.300000
50
90.000000
51
180.000000
0
LINE
8
0
10
19.403570
20
18.800009
30
0.0
11
19.403570
21
16.800009
31
0.0
0
ARC
8
0
10
19.103570
20
16.800009
30
0.0
40
0.300000
50
270.000000
51
0.000000
0
LINE
8
0
10
19.103570
20
16.500009
30
0.0
11
9.403570
21
16.500009
31
0.0
0
ARC
8
0
10
9.403570
20
16.200009
30
0.0
40
0.300000
50
90.000000
51
180.000000
0
LINE
8
0
10
9.103570
20
16.200009
30
0.0
11
9.103570
21
6.800009
31
0.0
0
ARC
8
0
10
9.403570
20
6.800009
30
0.0
40
0.300000
50
180.000000
51
270.000000
0
LINE
8
0
10
9.403570
20
6.500009
30
0.0
11
19.003570
21
6.500009
31
0.0
0
ARC
8
0
10
19.003570
20
6.800009
30
0.0
40
0.300000
50
270.000000
51
0.000000
0
LINE
8
0
10
19.303570
20
6.800009
30
0.0
11
19.303570
21
7.700009
31
0.0
0
ARC
8
0
10
19.603570
20
7.700009
30
0.0
40
0.300000
50
90.000000
51
180.000000
0
LINE
8
0
10
19.603570
20
8.000009
30
0.0
11
20.503570
21
8.000009
31
0.0
0
ARC
8
0
10
20.503570
20
7.700009
30
0.0
40
0.300000
50
0.000000
51
90.000000
0
LINE
8
0
10
20.803570
20
7.700009
30
0.0
11
20.803570
21
6.800009
31
0.0
0
ARC
8
0
10
21.103570
20
6.800009
30
0.0
40
0.300000
50
180.000000
51
270.000000
0
LINE
8
0
10
21.103570
20
6.500009
30
0.0
11
43.503570
21
6.500009
31
0.0
0
ARC
8
0
10
43.503570
20
6.800009
30
0.0
40
0.300000
50
270.000000
51
0.000000
0
LINE
8
0
10
43.803570
20
6.800009
30
0.0
11
43.803570
21
7.700009
31
0.0
0
ARC
8
0
10
44.103570
20
7.700009
30
0.0
40
0.300000
50
90.000000
51
180.000000
0
LINE
8
0
10
44.103570
20
8.000009
30
0.0
11
45.003570
21
8.000009
31
0.0
0
ARC
8
0
10
45.003570
20
7.700009
30
0.0
40
0.300000
50
0.000000
51
90.000000
0
LINE
8
0
10
45.303570
20
7.700009
30
0.0
11
45.303570
21
6.800009
31
0.0
0
ARC
8
0
10
45.603570
20
6.800009
30
0.0
40
0.300000
50
180.000000
51
270.000000
0
LINE
8
0
10
45.603570
20
6.500009
30
0.0
11
48.303545
21
6.500009
31
0.0
0
ARC
8
0
10
48.303545
20
6.800009
30
0.0
40
0.300000
50
270.000000
51
0.000000
0
LINE
8
0
10
48.603545
20
6.800009
30
0.0
11
48.603545
21
13.200009
31
0.0
0
ARC
8
0
10
48.303545
20
13.200009
30
0.0
40
0.300000
50
0.000000
51
90.000000
0
LINE
8
0
10
48.303545
20
13.500009
30
0.0
11
45.403545
21
13.500009
31
0.0
0
ARC
8
0
10
45.403545
20
13.800009
30
0.0
40
0.300000
50
180.000000
51
270.000000
0
LINE
8
0
10
45.103545
20
13.800009
30
0.0
11
45.103545
21
18.800009
31
0.0
0
ARC
8
0
10
44.803545
20
18.800009
30
0.0
40
0.300000
50
0.000000
51
90.000000
0
LINE
8
0
10
44.803545
20
19.100009
30
0.0
11
44.103545
21
19.100009
31
0.0
0
ARC
8
0
10
44.103545
20
19.400009
30
0.0
40
0.300000
50
180.000000
51
270.000000
0
LINE
8
0
10
43.803545
20
19.400009
30
0.0
11
43.803545
21
20.800009
31
0.0
0
ARC
8
0
10
43.503545
20
20.800009
30
0.0
40
0.300000
50
0.000000
51
90.000000
0
LINE
8
0
10
43.503545
20
21.100009
30
0.0
11
41.103545
21
21.100009
31
0.0
0
ARC
8
0
10
41.103545
20
21.400009
30
0.0
40
0.300000
50
180.000000
51
270.000000
0
LINE
8
0
10
40.803545
20
21.400009
30
0.0
11
40.803545
21
22.300009
31
0.0
0
ARC
8
0
10
41.103545
20
22.300009
30
0.0
40
0.300000
50
90.000000
51
180.000000
0
LINE
8
0
10
41.103545
20
22.600009
30
0.0
11
44.803545
21
22.600009
31
0.0
0
ARC
8
0
10
44.803545
20
22.900009
30
0.0
40
0.300000
50
270.000000
51
0.000000
0
LINE
8
0
10
45.103545
20
22.900009
30
0.0
11
45.103545
21
27.200009
31
0.0
0
ARC
8
0
10
44.803545
20
27.200009
30
0.0
40
0.300000
50
0.000000
51
90.000000
0
LINE
8
0
10
44.803545
20
27.500009
30
0.0
11
41.777834
21
27.500009
31
0.0
0
ARC
8
0
10
41.777834
20
27.200009
30
0.0
40
0.300000
50
90.000000
51
135.000000
0
LINE
8
0
10
41.565702
20
27.412141
30
0.0
11
41.241438
21
27.087877
31
0.0
0
ARC
8
0
10
41.029306
20
27.300009
30
0.0
40
0.300000
50
270.000000
51
315.000000
0
LINE
8
0
10
41.029306
20
27.000009
30
0.0
11
36.777834
21
27.000009
31
0.0
0
ARC
8
0
10
36.777834
20
27.300009
30
0.0
40
0.300000
50
225.000000
51
270.000000
0
LINE
8
0
10
36.565702
20
27.087877
30
0.0
11
36.241438
21
27.412141
31
0.0
0
ARC
8
0
10
36.029306
20
27.200009
30
0.0
40
0.300000
50
45.000000
51
90.000000
0
LINE
8
0
10
36.029306
20
27.500009
30
0.0
11
32.203570
21
27.500009
31
0.0
0
ARC
8
0
10
32.203570
20
28.500009
30
0.0
40
1.000000
50
180.000000
51
270.000000
0
LINE
8
0
10
31.203570
20
28.500009
30
0.0
11
31.203570
21
31.375637
31
0.0
0
ARC
8
0
10
30.903570
20
31.375637
30
0.0
40
0.300000
50
0.000000
51
30.000000
0
LINE
8
0
10
31.163377
20
31.525637
30
0.0
11
30.312148
21
33.000009
31
0.0
0
ARC
8
0
10
32.044199
20
34.000009
30
0.0
40
2.000000
50
122.643077
51
210.000000
0
ARC
8
0
10
30.803570
20
35.936717
30
0.0
40
0.300000
50
302.643077
51
0.000000
0
LINE
8
0
10
31.103570
20
35.936717
30
0.0
11
31.103570
21
37.700009
31
0.0
0
ARC
8
0
10
30.803570
20
37.700009
30
0.0
40
0.300000
50
0.000000
51
90.000000
0
LINE
8
0
10
30.803570
20
38.000009
30
0.0
11
28.603570
21
38.000009
31
0.0
0
ARC
8
0
10
28.603570
20
38.500009
30
0.0
40
0.500000
50
180.000000
51
270.000000
0
LINE
8
0
10
28.103570
20
38.500009
30
0.0
11
28.103570
21
41.600009
31
0.0
0
ARC
8
0
10
27.803570
20
41.600009
30
0.0
40
0.300000
50
0.000000
51
90.000000
0
LINE
8
0
10
27.803570
20
41.900009
30
0.0
11
18.203570
21
41.900009
31
0.0
0
ARC
8
0
10
18.203570
20
41.600009
30
0.0
40
0.300000
50
90.000000
51
180.000000
0
LINE
8
0
10
17.903570
20
41.600009
30
0.0
11
17.903570
21
38.783122
31
0.0
0
ARC
8
0
10
18.203570
20
38.783122
30
0.0
40
0.300000
50
180.000000
51
255.000000
0
LINE
8
0
10
18.125924
20
38.493344
30
0.0
11
19.181216
21
38.210579
31
0.0
0
ARC
8
0
10
19.103570
20
37.920802
30
0.0
40
0.300000
50
0.000000
51
75.000000
0
ARC
8
0
10
49.403570
20
40.175745
30
0.0
40
0.300000
50
0.000000
51
45.000000
0
LINE
8
0
10
49.703570
20
40.175745
30
0.0
11
49.703570
21
40.300009
31
0.0
0
LINE
8
0
10
49.703570
20
40.300009
30
0.0
11
49.615702
21
40.387877
31
0.0
0
LINE
8
0
10
49.615702
20
40.387877
30
0.0
11
49.391438
21
40.612141
31
0.0
0
ARC
8
0
10
49.179306
20
40.400009
30
0.0
40
0.300000
50
45.000000
51
90.000000
0
LINE
8
0
10
49.179306
20
40.700009
30
0.0
11
48.503570
21
40.700009
31
0.0
0
ARC
8
0
10
48.503570
20
40.400009
30
0.0
40
0.300000
50
90.000000
51
180.000000
0
LINE
8
0
10
48.203570
20
40.400009
30
0.0
11
48.203570
21
39.800009
31
0.0
0
ARC
8
0
10
47.903570
20
39.800009
30
0.0
40
0.300000
50
270.000000
51
0.000000
0
LINE
8
0
10
47.903570
20
39.500009
30
0.0
11
45.493276
21
39.500009
31
0.0
0
ARC
8
0
10
45.493276
20
39.200009
30
0.0
40
0.300000
50
90.000000
51
178.000000
0
LINE
8
0
10
45.193459
20
39.210479
30
0.0
11
45.047036
21
35.017459
31
0.0
0
ARC
8
0
10
45.546731
20
35.000009
30
0.0
40
0.500000
50
178.000000
51
270.000000
0
LINE
8
0
10
45.546731
20
34.500009
30
0.0
11
45.762941
21
34.500009
31
0.0
0
ARC
8
0
10
45.762941
20
34.000009
30
0.0
40
0.500000
50
330.000000
51
90.000000
0
LINE
8
0
10
46.195953
20
33.750009
30
0.0
11
45.170557
21
31.973971
31
0.0
0
ARC
8
0
10
45.603570
20
31.723971
30
0.0
40
0.500000
50
150.000000
51
180.000000
0
LINE
8
0
10
45.103570
20
31.723971
30
0.0
11
45.103570
21
29.300009
31
0.0
0
ARC
8
0
10
44.803570
20
29.300009
30
0.0
40
0.300000
50
270.000000
51
0.000000
0
LINE
8
0
10
44.803570
20
29.000009
30
0.0
11
39.203570
21
29.000009
31
0.0
0
LINE
8
0
10
39.203570
20
29.000009
30
0.0
11
38.903570
21
28.700009
31
0.0
0
LINE
8
0
10
38.903570
20
28.700009
30
0.0
11
38.603570
21
29.000009
31
0.0
0
LINE
8
0
10
38.603570
20
29.000009
30
0.0
11
33.003570
21
29.000009
31
0.0
0
ARC
8
0
10
33.003570
20
29.300009
30
0.0
40
0.300000
50
180.000000
51
270.000000
0
LINE
8
0
10
32.703570
20
29.300009
30
0.0
11
32.703570
21
31.723971
31
0.0
0
ARC
8
0
10
32.203570
20
31.723971
30
0.0
40
0.500000
50
0.000000
51
30.000000
0
LINE
8
0
10
32.636583
20
31.973971
30
0.0
11
31.611186
21
33.750009
31
0.0
0
ARC
8
0
10
32.044199
20
34.000009
30
0.0
40
0.500000
50
90.000000
51
210.000000
0
LINE
8
0
10
32.044199
20
34.500009
30
0.0
11
32.260409
21
34.500009
31
0.0
0
ARC
8
0
10
32.260409
20
35.000009
30
0.0
40
0.500000
50
270.000000
51
2.000000
0
LINE
8
0
10
32.760104
20
35.017459
30
0.0
11
32.613680
21
39.210479
31
0.0
0
ARC
8
0
10
32.313863
20
39.200009
30
0.0
40
0.300000
50
2.000000
51
90.000000
0
LINE
8
0
10
32.313863
20
39.500009
30
0.0
11
29.903570
21
39.500009
31
0.0
0
ARC
8
0
10
29.903570
20
39.800009
30
0.0
40
0.300000
50
180.000000
51
270.000000
0
LINE
8
0
10
29.603570
20
39.800009
30
0.0
11
29.603570
21
43.100009
31
0.0
0
ARC
8
0
10
29.303570
20
43.100009
30
0.0
40
0.300000
50
0.000000
51
90.000000
0
LINE
8
0
10
29.303570
20
43.400009
30
0.0
11
17.403570
21
43.400009
31
0.0
0
ARC
8
0
10
17.403570
20
42.400009
30
0.0
40
1.000000
50
90.000000
51
180.000000
0
LINE
8
0
10
16.403570
20
42.400009
30
0.0
11
16.403570
21
37.632131
31
0.0
0
ARC
8
0
10
16.703570
20
37.632131
30
0.0
40
0.300000
50
180.000000
51
255.000000
0
LINE
8
0
10
16.625924
20
37.342353
30
0.0
11
17.681216
21
37.059589
31
0.0
0
ARC
8
0
10
17.603570
20
36.769811
30
0.0
40
0.300000
50
0.000000
51
75.000000
0
LINE
8
0
10
17.903570
20
36.769811
30
0.0
11
17.903570
21
18.300009
31
0.0
0
ARC
8
0
10
17.603570
20
18.300009
30
0.0
40
0.300000
50
270.000000
51
0.000000
0
LINE
8
0
10
17.603570
20
18.000009
30
0.0
11
8.103570
21
18.000009
31
0.0
0
ARC
8
0
10
8.103570
20
17.500009
30
0.0
40
0.500000
50
90.000000
51
180.000000
0
LINE
8
0
10
7.603570
20
17.500009
30
0.0
11
7.603570
21
0.300009
31
0.0
0
ARC
8
0
10
7.903570
20
0.300009
30
0.0
40
0.300000
50
180.000000
51
270.000000
0
LINE
8
0
10
7.903570
20
0.000009
30
0.0
11
11.133713
21
0.000009
31
0.0
0
ARC
8
0
10
11.133713
20
0.300009
30
0.0
40
0.300000
50
270.000000
51
329.036243
0
LINE
8
0
10
11.390961
20
0.145660
30
0.0
11
11.860818
21
0.928756
31
0.0
0
ARC
8
0
10
11.603570
20
1.083104
30
0.0
40
0.300000
50
329.036243
51
0.000000
0
LINE
8
0
10
11.903570
20
1.083104
30
0.0
11
11.903570
21
1.200009
31
0.0
0
ARC
8
0
10
11.603570
20
1.200009
30
0.0
40
0.300000
50
0.000000
51
90.000000
0
LINE
8
0
10
11.603570
20
1.500009
30
0.0
11
9.703570
21
1.500009
31
0.0
0
ARC
8
0
10
9.703570
20
1.800009
30
0.0
40
0.300000
50
180.000000
51
270.000000
0
LINE
8
0
10
9.403570
20
1.800009
30
0.0
11
9.403570
21
4.700009
31
0.0
0
ARC
8
0
10
9.703570
20
4.700009
30
0.0
40
0.300000
50
90.000000
51
180.000000
0
LINE
8
0
10
9.703570
20
5.000009
30
0.0
11
23.603570
21
5.000009
31
0.0
0
ARC
8
0
10
23.603570
20
4.700009
30
0.0
40
0.300000
50
0.000000
51
90.000000
0
LINE
8
0
10
23.903570
20
4.700009
30
0.0
11
23.903570
21
1.800009
31
0.0
0
ARC
8
0
10
23.603570
20
1.800009
30
0.0
40
0.300000
50
270.000000
51
0.000000
0
LINE
8
0
10
23.603570
20
1.500009
30
0.0
11
22.203570
21
1.500009
31
0.0
0
ARC
8
0
10
22.203570
20
1.200009
30
0.0
40
0.300000
50
90.000000
51
180.000000
0
LINE
8
0
10
21.903570
20
1.200009
30
0.0
11
21.903570
21
1.083104
31
0.0
0
ARC
8
0
10
22.203570
20
1.083104
30
0.0
40
0.300000
50
180.000000
51
210.963756
0
LINE
8
0
10
21.946322
20
0.928756
30
0.0
11
22.416179
21
0.145660
31
0.0
0
ARC
8
0
10
22.673427
20
0.300009
30
0.0
40
0.300000
50
210.963756
51
270.000000
0
LINE
8
0
10
22.673427
20
0.000009
30
0.0
11
25.103570
21
0.000009
31
0.0
0
ARC
8
0
10
25.103570
20
0.300009
30
0.0
40
0.300000
50
270.000000
51
0.000000
0
LINE
8
0
10
25.403570
20
0.300009
30
0.0
11
25.403570
21
4.700009
31
0.0
0
ARC
8
0
10
25.703570
20
4.700009
30
0.0
40
0.300000
50
90.000000
51
180.000000
0
LINE
8
0
10
25.703570
20
5.000009
30
0.0
11
48.303570
21
5.000009
31
0.0
0
ARC
8
0
10
48.303570
20
4.700009
30
0.0
40
0.300000
50
0.000000
51
90.000000
0
LINE
8
0
10
48.603570
20
4.700009
30
0.0
11
48.603570
21
0.300009
31
0.0
0
ARC
8
0
10
48.903570
20
0.300009
30
0.0
40
0.300000
50
180.000000
51
270.000000
0
LINE
8
0
10
48.903570
20
0.000009
30
0.0
11
50.371486
21
0.000009
31
0.0
0
ARC
8
0
10
50.371486
20
0.300009
30
0.0
40
0.300000
50
270.000000
51
289.778171
0
LINE
8
0
10
50.472999
20
0.017706
30
0.0
11
51.774862
21
0.485845
31
0.0
0
ARC
8
0
10
51.854381
20
0.264708
30
0.0
40
0.235000
50
24.000000
51
109.778171
0
ARC
8
0
10
52.290316
20
0.441122
30
0.0
40
0.235000
50
204.000000
51
270.000000
0
LINE
8
0
10
52.288760
20
0.206127
30
0.0
11
53.867688
21
0.195670
31
0.0
0
ARC
8
0
10
53.869675
20
0.495663
30
0.0
40
0.300000
50
270.000000
51
24.620541
0
LINE
8
0
10
54.142401
20
0.620645
30
0.0
11
53.193751
21
2.726160
31
0.0
0
ARC
8
0
10
52.920231
20
2.602925
30
0.0
40
0.300000
50
24.254172
51
64.620541
0
LINE
8
0
10
53.048814
20
2.873971
30
0.0
11
52.541392
21
3.114691
31
0.0
0
ARC
8
0
10
52.455669
20
2.933993
30
0.0
40
0.200000
50
64.620541
51
184.620541
0
LINE
8
0
10
52.256319
20
2.917882
30
0.0
11
52.265621
21
2.802787
31
0.0
0
ARC
8
0
10
51.966596
20
2.778620
30
0.0
40
0.300000
50
304.620541
51
4.620541
0
LINE
8
0
10
52.137038
20
2.531740
30
0.0
11
50.508281
21
1.407274
31
0.0
0
LINE
8
0
10
50.508281
20
1.407274
30
0.0
11
50.325572
21
1.325927
31
0.0
0
ARC
8
0
10
50.203570
20
1.600009
30
0.0
40
0.300009
50
131.812671
51
293.995287
0
ARC
8
0
10
49.803545
20
2.047213
30
0.0
40
0.300000
50
311.812671
51
0.000000
0
LINE
8
0
10
50.103545
20
2.047213
30
0.0
11
50.103545
21
5.900000
31
0.0
0
ARC
8
0
10
50.403545
20
5.900000
30
0.0
40
0.300000
50
90.000000
51
180.000000
0
LINE
8
0
10
50.403545
20
6.200000
30
0.0
11
50.624739
21
6.200000
31
0.0
0
ARC
8
0
10
50.624739
20
5.900000
30
0.0
40
0.300000
50
58.600000
51
90.000000
0
LINE
8
0
10
50.781041
20
6.156065
30
0.0
11
52.299343
21
5.229290
31
0.0
0
ARC
8
0
10
52.403545
20
5.400000
30
0.0
40
0.200000
50
238.600000
51
0.000000
0
LINE
8
0
10
52.603545
20
5.400000
30
0.0
11
52.603545
21
9.600000
31
0.0
0
ARC
8
0
10
52.403545
20
9.600000
30
0.0
40
0.200000
50
0.000000
51
121.400000
0
LINE
8
0
10
52.299343
20
9.770710
30
0.0
11
50.781041
21
8.843934
31
0.0
0
ARC
8
0
10
50.624739
20
9.100000
30
0.0
40
0.300000
50
270.000000
51
301.400000
0
LINE
8
0
10
50.624739
20
8.800000
30
0.0
11
50.403545
21
8.800000
31
0.0
0
ARC
8
0
10
50.403545
20
9.100000
30
0.0
40
0.300000
50
180.000000
51
270.000000
0
LINE
8
0
10
50.103545
20
9.100000
30
0.0
11
50.103545
21
12.952786
31
0.0
0
ARC
8
0
10
49.803545
20
12.952786
30
0.0
40
0.300000
50
0.000000
51
48.187329
0
ARC
8
0
10
50.203570
20
13.399990
30
0.0
40
0.300009
50
66.004713
51
228.187329
0
LINE
8
0
10
50.325572
20
13.674073
30
0.0
11
50.508281
21
13.592725
31
0.0
0
LINE
8
0
10
50.508281
20
13.592725
30
0.0
11
52.137038
21
12.468259
31
0.0
0
ARC
8
0
10
51.966596
20
12.221380
30
0.0
40
0.300000
50
355.379459
51
55.379459
0
LINE
8
0
10
52.265621
20
12.197213
30
0.0
11
52.256319
21
12.082118
31
0.0
0
ARC
8
0
10
52.455669
20
12.066007
30
0.0
40
0.200000
50
175.379459
51
295.379459
0
LINE
8
0
10
52.541392
20
11.885309
30
0.0
11
53.048814
21
12.126028
31
0.0
0
ARC
8
0
10
52.920231
20
12.397075
30
0.0
40
0.300000
50
295.379459
51
335.745828
0
LINE
8
0
10
53.193751
20
12.273839
30
0.0
11
54.142401
21
14.379354
31
0.0
0
ARC
8
0
10
53.869675
20
14.504336
30
0.0
40
0.300000
50
335.379459
51
90.000000
0
LINE
8
0
10
53.867688
20
14.804330
30
0.0
11
52.288760
21
14.793873
31
0.0
0
ARC
8
0
10
52.290316
20
14.558878
30
0.0
40
0.235000
50
90.000000
51
156.000000
0
ARC
8
0
10
51.854381
20
14.735291
30
0.0
40
0.235000
50
250.221829
51
336.000000
0
LINE
8
0
10
51.774862
20
14.514154
30
0.0
11
50.472947
21
14.982312
31
0.0
0
ARC
8
0
10
50.371433
20
14.700009
30
0.0
40
0.300000
50
70.221829
51
90.000000
0
LINE
8
0
10
50.371433
20
15.000009
30
0.0
11
46.903545
21
15.000009
31
0.0
0
ARC
8
0
10
46.903545
20
15.300009
30
0.0
40
0.300000
50
180.000000
51
270.000000
0
LINE
8
0
10
46.603545
20
15.300009
30
0.0
11
46.603545
21
20.800009
31
0.0
0
ARC
8
0
10
46.903545
20
20.800009
30
0.0
40
0.300000
50
90.000000
51
180.000000
0
LINE
8
0
10
46.903545
20
21.100009
30
0.0
11
49.503545
21
21.100009
31
0.0
0
ARC
8
0
10
49.503545
20
21.400009
30
0.0
40
0.300000
50
270.000000
51
0.000000
0
LINE
8
0
10
49.803545
20
21.400009
30
0.0
11
49.803545
21
22.300009
31
0.0
0
ARC
8
0
10
49.503545
20
22.300009
30
0.0
40
0.300000
50
0.000000
51
90.000000
0
LINE
8
0
10
49.503545
20
22.600009
30
0.0
11
46.903545
21
22.600009
31
0.0
0
ARC
8
0
10
46.903545
20
22.900009
30
0.0
40
0.300000
50
180.000000
51
270.000000
0
LINE
8
0
10
46.603545
20
22.900009
30
0.0
11
46.603545
21
31.375594
31
0.0
0
ARC
8
0
10
46.903545
20
31.375594
30
0.0
40
0.300000
50
150.000000
51
180.000000
0
LINE
8
0
10
46.643738
20
31.525594
30
0.0
11
47.494991
21
33.000009
31
0.0
0
ARC
8
0
10
45.762941
20
34.000009
30
0.0
40
2.000000
50
330.000000
51
57.356923
0
ARC
8
0
10
47.003570
20
35.936717
30
0.0
40
0.300000
50
180.000000
51
237.356923
0
LINE
8
0
10
46.703570
20
35.936717
30
0.0
11
46.703570
21
37.700009
31
0.0
0
ARC
8
0
10
47.003570
20
37.700009
30
0.0
40
0.300000
50
90.000000
51
180.000000
0
LINE
8
0
10
47.003570
20
38.000009
30
0.0
11
49.403570
21
38.000009
31
0.0
0
ARC
8
0
10
49.403570
20
38.300009
30
0.0
40
0.300000
50
270.000000
51
0.000000
0
LINE
8
0
10
49.703570
20
38.300009
30
0.0
11
49.703570
21
40.175745
31
0.0
0
ARC
8
0
10
121.524070
20
12.800000
30
0.0
40
0.300000
50
60.000000
51
90.000000
0
LINE
8
0
10
121.524070
20
13.100000
30
0.0
11
108.604455
21
13.100000
31
0.0
0
ARC
8
0
10
108.604455
20
13.600000
30
0.0
40
0.500000
50
180.000000
51
270.000000
0
LINE
8
0
10
108.104455
20
13.600000
30
0.0
11
108.104455
21
14.500000
31
0.0
0
ARC
8
0
10
107.604455
20
14.500000
30
0.0
40
0.500000
50
0.000000
51
90.000000
0
LINE
8
0
10
107.604455
20
15.000000
30
0.0
11
104.835631
21
15.000000
31
0.0
0
ARC
8
0
10
104.835631
20
14.700000
30
0.0
40
0.300000
50
90.000000
51
109.778171
0
LINE
8
0
10
104.734117
20
14.982303
30
0.0
11
103.432228
21
14.514154
31
0.0
0
ARC
8
0
10
103.352709
20
14.735291
30
0.0
40
0.235000
50
204.000000
51
289.778171
0
ARC
8
0
10
102.916774
20
14.558878
30
0.0
40
0.235000
50
24.000000
51
90.000000
0
LINE
8
0
10
102.918331
20
14.793873
30
0.0
11
101.339403
21
14.804330
31
0.0
0
ARC
8
0
10
101.337416
20
14.504336
30
0.0
40
0.300000
50
90.000000
51
204.620541
0
LINE
8
0
10
101.064690
20
14.379354
30
0.0
11
102.013340
21
12.273839
31
0.0
0
ARC
8
0
10
102.286859
20
12.397075
30
0.0
40
0.300000
50
204.254172
51
244.620541
0
LINE
8
0
10
102.158276
20
12.126028
30
0.0
11
102.665699
21
11.885309
31
0.0
0
ARC
8
0
10
102.751421
20
12.066007
30
0.0
40
0.200000
50
244.620541
51
4.620541
0
LINE
8
0
10
102.950771
20
12.082118
30
0.0
11
102.941469
21
12.197213
31
0.0
0
ARC
8
0
10
103.240494
20
12.221380
30
0.0
40
0.300000
50
124.620541
51
184.620541
0
LINE
8
0
10
103.070053
20
12.468259
30
0.0
11
104.698809
21
13.592725
31
0.0
0
LINE
8
0
10
104.698809
20
13.592725
30
0.0
11
104.881518
21
13.674073
31
0.0
0
ARC
8
0
10
105.003520
20
13.399990
30
0.0
40
0.300009
50
311.812671
51
113.995287
0
ARC
8
0
10
105.403545
20
12.952786
30
0.0
40
0.300000
50
131.812671
51
180.000000
0
LINE
8
0
10
105.103545
20
12.952786
30
0.0
11
105.103545
21
9.100000
31
0.0
0
ARC
8
0
10
104.803545
20
9.100000
30
0.0
40
0.300000
50
270.000000
51
0.000000
0
LINE
8
0
10
104.803545
20
8.800000
30
0.0
11
104.582352
21
8.800000
31
0.0
0
ARC
8
0
10
104.582352
20
9.100000
30
0.0
40
0.300000
50
238.600000
51
270.000000
0
LINE
8
0
10
104.426049
20
8.843934
30
0.0
11
102.907747
21
9.770710
31
0.0
0
ARC
8
0
10
102.803545
20
9.600000
30
0.0
40
0.200000
50
58.600000
51
180.000000
0
LINE
8
0
10
102.603545
20
9.600000
30
0.0
11
102.603545
21
5.400000
31
0.0
0
ARC
8
0
10
102.803545
20
5.400000
30
0.0
40
0.200000
50
180.000000
51
301.400000
0
LINE
8
0
10
102.907747
20
5.229290
30
0.0
11
104.426049
21
6.156065
31
0.0
0
ARC
8
0
10
104.582352
20
5.900000
30
0.0
40
0.300000
50
90.000000
51
121.400000
0
LINE
8
0
10
104.582352
20
6.200000
30
0.0
11
104.803545
21
6.200000
31
0.0
0
ARC
8
0
10
104.803545
20
5.900000
30
0.0
40
0.300000
50
0.000000
51
90.000000
0
LINE
8
0
10
105.103545
20
5.900000
30
0.0
11
105.103545
21
2.047213
31
0.0
0
ARC
8
0
10
105.403545
20
2.047213
30
0.0
40
0.300000
50
180.000000
51
228.187329
0
ARC
8
0
10
105.003520
20
1.600009
30
0.0
40
0.300009
50
246.004713
51
48.187329
0
LINE
8
0
10
104.881518
20
1.325927
30
0.0
11
104.698809
21
1.407274
31
0.0
0
LINE
8
0
10
104.698809
20
1.407274
30
0.0
11
103.070053
21
2.531740
31
0.0
0
ARC
8
0
10
103.240494
20
2.778620
30
0.0
40
0.300000
50
175.379459
51
235.379459
0
LINE
8
0
10
102.941469
20
2.802787
30
0.0
11
102.950771
21
2.917882
31
0.0
0
ARC
8
0
10
102.751421
20
2.933993
30
0.0
40
0.200000
50
355.379459
51
115.379459
0
LINE
8
0
10
102.665699
20
3.114691
30
0.0
11
102.158276
21
2.873971
31
0.0
0
ARC
8
0
10
102.286859
20
2.602925
30
0.0
40
0.300000
50
115.379459
51
155.745828
0
LINE
8
0
10
102.013340
20
2.726160
30
0.0
11
101.064690
21
0.620645
31
0.0
0
ARC
8
0
10
101.337416
20
0.495663
30
0.0
40
0.300000
50
155.379459
51
270.000000
0
LINE
8
0
10
101.339403
20
0.195670
30
0.0
11
102.918331
21
0.206127
31
0.0
0
ARC
8
0
10
102.916774
20
0.441122
30
0.0
40
0.235000
50
270.000000
51
336.000000
0
ARC
8
0
10
103.352709
20
0.264708
30
0.0
40
0.235000
50
70.221829
51
156.000000
0
LINE
8
0
10
103.432228
20
0.485845
30
0.0
11
104.734117
21
0.017697
31
0.0
0
ARC
8
0
10
104.835631
20
0.300000
30
0.0
40
0.300000
50
250.221829
51
270.000000
0
LINE
8
0
10
104.835631
20
0.000000
30
0.0
11
106.403570
21
0.000000
31
0.0
0
ARC
8
0
10
106.403570
20
0.500000
30
0.0
40
0.500000
50
270.000000
51
0.000000
0
LINE
8
0
10
106.903570
20
0.500000
30
0.0
11
106.903570
21
0.900000
31
0.0
0
ARC
8
0
10
107.403570
20
0.900000
30
0.0
40
0.500000
50
90.000000
51
180.000000
0
LINE
8
0
10
107.403570
20
1.400000
30
0.0
11
109.904039
21
1.400000
31
0.0
0
ARC
8
0
10
109.904039
20
1.900000
30
0.0
40
0.500000
50
270.000000
51
0.000000
0
LINE
8
0
10
110.404039
20
1.900000
30
0.0
11
110.404039
21
2.300000
31
0.0
0
ARC
8
0
10
109.904039
20
2.300000
30
0.0
40
0.500000
50
0.000000
51
90.000000
0
LINE
8
0
10
109.904039
20
2.800000
30
0.0
11
108.204039
21
2.800000
31
0.0
0
ARC
8
0
10
108.204039
20
3.300000
30
0.0
40
0.500000
50
180.000000
51
270.000000
0
LINE
8
0
10
107.704039
20
3.300000
30
0.0
11
107.704039
21
4.600000
31
0.0
0
ARC
8
0
10
108.204039
20
4.600000
30
0.0
40
0.500000
50
90.000000
51
180.000000
0
LINE
8
0
10
108.204039
20
5.100000
30
0.0
11
115.280191
21
5.100000
31
0.0
0
ARC
8
0
10
115.280191
20
5.400000
30
0.0
40
0.300000
50
270.000000
51
315.000000
0
LINE
8
0
10
115.492323
20
5.187868
30
0.0
11
116.192323
21
5.887868
31
0.0
0
ARC
8
0
10
116.404455
20
5.675736
30
0.0
40
0.300000
50
45.000000
51
135.000000
0
LINE
8
0
10
116.616587
20
5.887868
30
0.0
11
117.316587
21
5.187868
31
0.0
0
ARC
8
0
10
117.528719
20
5.400000
30
0.0
40
0.300000
50
225.000000
51
270.000000
0
LINE
8
0
10
117.528719
20
5.100000
30
0.0
11
121.524070
21
5.100000
31
0.0
0
ARC
8
0
10
121.524070
20
5.400000
30
0.0
40
0.300000
50
270.000000
51
300.000000
0
LINE
8
0
10
121.674070
20
5.140192
30
0.0
11
123.454455
21
6.168098
31
0.0
0
ARC
8
0
10
123.304455
20
6.427905
30
0.0
40
0.300000
50
300.000000
51
0.000000
0
LINE
8
0
10
123.604455
20
6.427905
30
0.0
11
123.604455
21
11.772094
31
0.0
0
ARC
8
0
10
123.304455
20
11.772094
30
0.0
40
0.300000
50
0.000000
51
60.000000
0
LINE
8
0
10
123.454455
20
12.031902
30
0.0
11
121.674070
21
13.059807
31
0.0
0
LINE
8
0
10
72.653570
20
12.984687
30
0.0
11
82.553570
21
12.984687
31
0.0
0
ARC
8
0
10
82.553570
20
12.684687
30
0.0
40
0.300000
50
0.000000
51
90.000000
0
LINE
8
0
10
82.853570
20
12.684687
30
0.0
11
82.853570
21
8.884687
31
0.0
0
ARC
8
0
10
83.353570
20
8.884687
30
0.0
40
0.500000
50
180.000000
51
0.000000
0
LINE
8
0
10
83.853570
20
8.884687
30
0.0
11
83.853570
21
12.684687
31
0.0
0
ARC
8
0
10
84.153570
20
12.684687
30
0.0
40
0.300000
50
90.000000
51
180.000000
0
LINE
8
0
10
84.153570
20
12.984687
30
0.0
11
94.053570
21
12.984687
31
0.0
0
ARC
8
0
10
94.053570
20
12.684687
30
0.0
40
0.300000
50
0.000000
51
90.000000
0
LINE
8
0
10
94.353570
20
12.684687
30
0.0
11
94.353570
21
8.884687
31
0.0
0
ARC
8
0
10
94.853570
20
8.884687
30
0.0
40
0.500000
50
180.000000
51
0.000000
0
LINE
8
0
10
95.353570
20
8.884687
30
0.0
11
95.353570
21
12.684687
31
0.0
0
ARC
8
0
10
95.653570
20
12.684687
30
0.0
40
0.300000
50
90.000000
51
180.000000
0
LINE
8
0
10
95.653570
20
12.984687
30
0.0
11
97.958240
21
12.984687
31
0.0
0
ARC
8
0
10
97.958240
20
11.984687
30
0.0
40
1.000000
50
35.254172
51
90.000000
0
LINE
8
0
10
98.774839
20
12.561891
30
0.0
11
100.297660
21
10.407482
31
0.0
0
ARC
8
0
10
101.114260
20
10.984687
30
0.0
40
1.000000
50
215.254172
51
270.000000
0
LINE
8
0
10
101.114260
20
9.984687
30
0.0
11
102.215570
21
9.984687
31
0.0
0
ARC
8
0
10
102.215570
20
8.784687
30
0.0
40
1.200000
50
60.018361
51
90.000000
0
LINE
8
0
10
102.815237
20
9.824109
30
0.0
11
104.397181
21
8.911450
31
0.0
0
ARC
8
0
10
104.497125
20
9.084687
30
0.0
40
0.200000
50
240.018361
51
270.000000
0
LINE
8
0
10
104.497125
20
8.884687
30
0.0
11
104.703570
21
8.884687
31
0.0
0
ARC
8
0
10
104.703570
20
9.284687
30
0.0
40
0.400000
50
270.000000
51
0.000000
0
LINE
8
0
10
105.103570
20
9.284687
30
0.0
11
105.103570
21
12.684687
31
0.0
0
ARC
8
0
10
104.703570
20
12.684687
30
0.0
40
0.400000
50
0.000000
51
90.000000
0
LINE
8
0
10
104.703570
20
13.084687
30
0.0
11
104.497125
21
13.084687
31
0.0
0
ARC
8
0
10
104.497125
20
12.884687
30
0.0
40
0.200000
50
90.000000
51
119.981639
0
LINE
8
0
10
104.397181
20
13.057924
30
0.0
11
102.815237
21
12.145264
31
0.0
0
ARC
8
0
10
102.215570
20
13.184687
30
0.0
40
1.200000
50
270.000000
51
299.981639
0
LINE
8
0
10
102.215570
20
11.984687
30
0.0
11
101.787336
21
11.984687
31
0.0
0
ARC
8
0
10
101.787336
20
12.284687
30
0.0
40
0.300000
50
215.254172
51
270.000000
0
LINE
8
0
10
101.542356
20
12.111525
30
0.0
11
99.660917
21
14.773289
31
0.0
0
ARC
8
0
10
99.252617
20
14.484687
30
0.0
40
0.500000
50
35.254172
51
90.000000
0
LINE
8
0
10
99.252617
20
14.984687
30
0.0
11
55.954522
21
14.984687
31
0.0
0
ARC
8
0
10
55.954522
20
14.484687
30
0.0
40
0.500000
50
90.000000
51
144.745828
0
LINE
8
0
10
55.546223
20
14.773289
30
0.0
11
53.664783
21
12.111525
31
0.0
0
ARC
8
0
10
53.419803
20
12.284687
30
0.0
40
0.300000
50
270.000000
51
324.745828
0
LINE
8
0
10
53.419803
20
11.984687
30
0.0
11
52.991569
21
11.984687
31
0.0
0
ARC
8
0
10
52.991569
20
13.184687
30
0.0
40
1.200000
50
240.018361
51
270.000000
0
LINE
8
0
10
52.391903
20
12.145264
30
0.0
11
50.809959
21
13.057924
31
0.0
0
ARC
8
0
10
50.710014
20
12.884687
30
0.0
40
0.200000
50
60.018361
51
90.000000
0
LINE
8
0
10
50.710014
20
13.084687
30
0.0
11
50.503570
21
13.084687
31
0.0
0
ARC
8
0
10
50.503570
20
12.684687
30
0.0
40
0.400000
50
90.000000
51
180.000000
0
LINE
8
0
10
50.103570
20
12.684687
30
0.0
11
50.103570
21
9.284687
31
0.0
0
ARC
8
0
10
50.503570
20
9.284687
30
0.0
40
0.400000
50
180.000000
51
270.000000
0
LINE
8
0
10
50.503570
20
8.884687
30
0.0
11
50.710014
21
8.884687
31
0.0
0
ARC
8
0
10
50.710014
20
9.084687
30
0.0
40
0.200000
50
270.000000
51
299.981639
0
LINE
8
0
10
50.809959
20
8.911450
30
0.0
11
52.391903
21
9.824109
31
0.0
0
ARC
8
0
10
52.991569
20
8.784687
30
0.0
40
1.200000
50
90.000000
51
119.981639
0
LINE
8
0
10
52.991569
20
9.984687
30
0.0
11
54.092880
21
9.984687
31
0.0
0
ARC
8
0
10
54.092880
20
10.984687
30
0.0
40
1.000000
50
270.000000
51
324.745828
0
LINE
8
0
10
54.909479
20
10.407482
30
0.0
11
56.432301
21
12.561891
31
0.0
0
ARC
8
0
10
57.248900
20
11.984687
30
0.0
40
1.000000
50
90.000000
51
144.745828
0
LINE
8
0
10
57.248900
20
12.984687
30
0.0
11
59.553570
21
12.984687
31
0.0
0
ARC
8
0
10
59.553570
20
12.684687
30
0.0
40
0.300000
50
0.000000
51
90.000000
0
LINE
8
0
10
59.853570
20
12.684687
30
0.0
11
59.853570
21
8.884687
31
0.0
0
ARC
8
0
10
60.353570
20
8.884687
30
0.0
40
0.500000
50
180.000000
51
0.000000
0
LINE
8
0
10
60.853570
20
8.884687
30
0.0
11
60.853570
21
12.684687
31
0.0
0
ARC
8
0
10
61.153570
20
12.684687
30
0.0
40
0.300000
50
90.000000
51
180.000000
0
LINE
8
0
10
61.153570
20
12.984687
30
0.0
11
71.053570
21
12.984687
31
0.0
0
ARC
8
0
10
71.053570
20
12.684687
30
0.0
40
0.300000
50
0.000000
51
90.000000
0
LINE
8
0
10
71.353570
20
12.684687
30
0.0
11
71.353570
21
8.884687
31
0.0
0
ARC
8
0
10
71.853570
20
8.884687
30
0.0
40
0.500000
50
180.000000
51
0.000000
0
LINE
8
0
10
72.353570
20
8.884687
30
0.0
11
72.353570
21
12.684687
31
0.0
0
ARC
8
0
10
72.653570
20
12.684687
30
0.0
40
0.300000
50
90.000000
51
180.000000
0
LINE
8
0
10
72.653570
20
2.015313
30
0.0
11
82.553570
21
2.015313
31
0.0
0
ARC
8
0
10
82.553570
20
2.315313
30
0.0
40
0.300000
50
270.000000
51
0.000000
0
LINE
8
0
10
82.853570
20
2.315313
30
0.0
11
82.853570
21
6.115313
31
0.0
0
ARC
8
0
10
83.353570
20
6.115313
30
0.0
40
0.500000
50
0.000000
51
180.000000
0
LINE
8
0
10
83.853570
20
6.115313
30
0.0
11
83.853570
21
2.315313
31
0.0
0
ARC
8
0
10
84.153570
20
2.315313
30
0.0
40
0.300000
50
180.000000
51
270.000000
0
LINE
8
0
10
84.153570
20
2.015313
30
0.0
11
94.053570
21
2.015313
31
0.0
0
ARC
8
0
10
94.053570
20
2.315313
30
0.0
40
0.300000
50
270.000000
51
0.000000
0
LINE
8
0
10
94.353570
20
2.315313
30
0.0
11
94.353570
21
6.115313
31
0.0
0
ARC
8
0
10
94.853570
20
6.115313
30
0.0
40
0.500000
50
0.000000
51
180.000000
0
LINE
8
0
10
95.353570
20
6.115313
30
0.0
11
95.353570
21
2.315313
31
0.0
0
ARC
8
0
10
95.653570
20
2.315313
30
0.0
40
0.300000
50
180.000000
51
270.000000
0
LINE
8
0
10
95.653570
20
2.015313
30
0.0
11
97.958240
21
2.015313
31
0.0
0
ARC
8
0
10
97.958240
20
3.015313
30
0.0
40
1.000000
50
270.000000
51
324.745828
0
LINE
8
0
10
98.774839
20
2.438108
30
0.0
11
100.297660
21
4.592517
31
0.0
0
ARC
8
0
10
101.114260
20
4.015313
30
0.0
40
1.000000
50
90.000000
51
144.745828
0
LINE
8
0
10
101.114260
20
5.015313
30
0.0
11
102.215570
21
5.015313
31
0.0
0
ARC
8
0
10
102.215570
20
6.215313
30
0.0
40
1.200000
50
270.000000
51
299.981639
0
LINE
8
0
10
102.815237
20
5.175890
30
0.0
11
104.397181
21
6.088550
31
0.0
0
ARC
8
0
10
104.497125
20
5.915313
30
0.0
40
0.200000
50
90.000000
51
119.981639
0
LINE
8
0
10
104.497125
20
6.115313
30
0.0
11
104.703570
21
6.115313
31
0.0
0
ARC
8
0
10
104.703570
20
5.715313
30
0.0
40
0.400000
50
0.000000
51
90.000000
0
LINE
8
0
10
105.103570
20
5.715313
30
0.0
11
105.103570
21
2.315313
31
0.0
0
ARC
8
0
10
104.703570
20
2.315313
30
0.0
40
0.400000
50
270.000000
51
0.000000
0
LINE
8
0
10
104.703570
20
1.915313
30
0.0
11
104.497125
21
1.915313
31
0.0
0
ARC
8
0
10
104.497125
20
2.115313
30
0.0
40
0.200000
50
240.018361
51
270.000000
0
LINE
8
0
10
104.397181
20
1.942076
30
0.0
11
102.815237
21
2.854735
31
0.0
0
ARC
8
0
10
102.215570
20
1.815313
30
0.0
40
1.200000
50
60.018361
51
90.000000
0
LINE
8
0
10
102.215570
20
3.015313
30
0.0
11
101.787336
21
3.015313
31
0.0
0
ARC
8
0
10
101.787336
20
2.715313
30
0.0
40
0.300000
50
90.000000
51
144.745828
0
LINE
8
0
10
101.542356
20
2.888474
30
0.0
11
99.660917
21
0.226710
31
0.0
0
ARC
8
0
10
99.252617
20
0.515313
30
0.0
40
0.500000
50
270.000000
51
324.745828
0
LINE
8
0
10
99.252617
20
0.015313
30
0.0
11
55.954522
21
0.015313
31
0.0
0
ARC
8
0
10
55.954522
20
0.515313
30
0.0
40
0.500000
50
215.254172
51
270.000000
0
LINE
8
0
10
55.546223
20
0.226710
30
0.0
11
53.664783
21
2.888474
31
0.0
0
ARC
8
0
10
53.419803
20
2.715313
30
0.0
40
0.300000
50
35.254172
51
90.000000
0
LINE
8
0
10
53.419803
20
3.015313
30
0.0
11
52.991569
21
3.015313
31
0.0
0
ARC
8
0
10
52.991569
20
1.815313
30
0.0
40
1.200000
50
90.000000
51
119.981639
0
LINE
8
0
10
52.391903
20
2.854735
30
0.0
11
50.809959
21
1.942076
31
0.0
0
ARC
8
0
10
50.710014
20
2.115313
30
0.0
40
0.200000
50
270.000000
51
299.981639
0
LINE
8
0
10
50.710014
20
1.915313
30
0.0
11
50.503570
21
1.915313
31
0.0
0
ARC
8
0
10
50.503570
20
2.315313
30
0.0
40
0.400000
50
180.000000
51
270.000000
0
LINE
8
0
10
50.103570
20
2.315313
30
0.0
11
50.103570
21
5.715313
31
0.0
0
ARC
8
0
10
50.503570
20
5.715313
30
0.0
40
0.400000
50
90.000000
51
180.000000
0
LINE
8
0
10
50.503570
20
6.115313
30
0.0
11
50.710014
21
6.115313
31
0.0
0
ARC
8
0
10
50.710014
20
5.915313
30
0.0
40
0.200000
50
60.018361
51
90.000000
0
LINE
8
0
10
50.809959
20
6.088550
30
0.0
11
52.391903
21
5.175890
31
0.0
0
ARC
8
0
10
52.991569
20
6.215313
30
0.0
40
1.200000
50
240.018361
51
270.000000
0
LINE
8
0
10
52.991569
20
5.015313
30
0.0
11
54.092880
21
5.015313
31
0.0
0
ARC
8
0
10
54.092880
20
4.015313
30
0.0
40
1.000000
50
35.254172
51
90.000000
0
LINE
8
0
10
54.909479
20
4.592517
30
0.0
11
56.432301
21
2.438108
31
0.0
0
ARC
8
0
10
57.248900
20
3.015313
30
0.0
40
1.000000
50
215.254172
51
270.000000
0
LINE
8
0
10
57.248900
20
2.015313
30
0.0
11
59.553570
21
2.015313
31
0.0
0
ARC
8
0
10
59.553570
20
2.315313
30
0.0
40
0.300000
50
270.000000
51
0.000000
0
LINE
8
0
10
59.853570
20
2.315313
30
0.0
11
59.853570
21
6.115313
31
0.0
0
ARC
8
0
10
60.353570
20
6.115313
30
0.0
40
0.500000
50
0.000000
51
180.000000
0
LINE
8
0
10
60.853570
20
6.115313
30
0.0
11
60.853570
21
2.315313
31
0.0
0
ARC
8
0
10
61.153570
20
2.315313
30
0.0
40
0.300000
50
180.000000
51
270.000000
0
LINE
8
0
10
61.153570
20
2.015313
30
0.0
11
71.053570
21
2.015313
31
0.0
0
ARC
8
0
10
71.053570
20
2.315313
30
0.0
40
0.300000
50
270.000000
51
0.000000
0
LINE
8
0
10
71.353570
20
2.315313
30
0.0
11
71.353570
21
6.115313
31
0.0
0
ARC
8
0
10
71.853570
20
6.115313
30
0.0
40
0.500000
50
0.000000
51
180.000000
0
LINE
8
0
10
72.353570
20
6.115313
30
0.0
11
72.353570
21
2.315313
31
0.0
0
ARC
8
0
10
72.653570
20
2.315313
30
0.0
40
0.300000
50
180.000000
51
270.000000
0
LINE
8
0
10
213.305706
20
37.920801
30
0.0
11
213.305706
21
22.900009
31
0.0
0
ARC
8
0
10
213.005706
20
22.900009
30
0.0
40
0.300000
50
270.000000
51
0.000000
0
LINE
8
0
10
213.005706
20
22.600009
30
0.0
11
210.305706
21
22.600009
31
0.0
0
ARC
8
0
10
210.305706
20
22.300009
30
0.0
40
0.300000
50
90.000000
51
180.000000
0
LINE
8
0
10
210.005706
20
22.300009
30
0.0
11
210.005706
21
21.400009
31
0.0
0
ARC
8
0
10
210.305706
20
21.400009
30
0.0
40
0.300000
50
180.000000
51
270.000000
0
LINE
8
0
10
210.305706
20
21.100009
30
0.0
11
211.605706
21
21.100009
31
0.0
0
ARC
8
0
10
211.605706
20
20.800009
30
0.0
40
0.300000
50
0.000000
51
90.000000
0
LINE
8
0
10
211.905706
20
20.800009
30
0.0
11
211.905706
21
19.400009
31
0.0
0
ARC
8
0
10
212.205706
20
19.400009
30
0.0
40
0.300000
50
180.000000
51
270.000000
0
LINE
8
0
10
212.205706
20
19.100009
30
0.0
11
213.005706
21
19.100009
31
0.0
0
ARC
8
0
10
213.005706
20
18.800009
30
0.0
40
0.300000
50
0.000000
51
90.000000
0
LINE
8
0
10
213.305706
20
18.800009
30
0.0
11
213.305706
21
16.800009
31
0.0
0
ARC
8
0
10
213.605706
20
16.800009
30
0.0
40
0.300000
50
180.000000
51
270.000000
0
LINE
8
0
10
213.605706
20
16.500009
30
0.0
11
223.305706
21
16.500009
31
0.0
0
ARC
8
0
10
223.305706
20
16.200009
30
0.0
40
0.300000
50
0.000000
51
90.000000
0
LINE
8
0
10
223.605706
20
16.200009
30
0.0
11
223.605706
21
6.800009
31
0.0
0
ARC
8
0
10
223.305706
20
6.800009
30
0.0
40
0.300000
50
270.000000
51
0.000000
0
LINE
8
0
10
223.305706
20
6.500009
30
0.0
11
213.705706
21
6.500009
31
0.0
0
ARC
8
0
10
213.705706
20
6.800009
30
0.0
40
0.300000
50
180.000000
51
270.000000
0
LINE
8
0
10
213.405706
20
6.800009
30
0.0
11
213.405706
21
7.700009
31
0.0
0
ARC
8
0
10
213.105706
20
7.700009
30
0.0
40
0.300000
50
0.000000
51
90.000000
0
LINE
8
0
10
213.105706
20
8.000009
30
0.0
11
212.205706
21
8.000009
31
0.0
0
ARC
8
0
10
212.205706
20
7.700009
30
0.0
40
0.300000
50
90.000000
51
180.000000
0
LINE
8
0
10
211.905706
20
7.700009
30
0.0
11
211.905706
21
6.800009
31
0.0
0
ARC
8
0
10
211.605706
20
6.800009
30
0.0
40
0.300000
50
270.000000
51
0.000000
0
LINE
8
0
10
211.605706
20
6.500009
30
0.0
11
189.205706
21
6.500009
31
0.0
0
ARC
8
0
10
189.205706
20
6.800009
30
0.0
40
0.300000
50
180.000000
51
270.000000
0
LINE
8
0
10
188.905706
20
6.800009
30
0.0
11
188.905706
21
7.700009
31
0.0
0
ARC
8
0
10
188.605706
20
7.700009
30
0.0
40
0.300000
50
0.000000
51
90.000000
0
LINE
8
0
10
188.605706
20
8.000009
30
0.0
11
187.705706
21
8.000009
31
0.0
0
ARC
8
0
10
187.705706
20
7.700009
30
0.0
40
0.300000
50
90.000000
51
180.000000
0
LINE
8
0
10
187.405706
20
7.700009
30
0.0
11
187.405706
21
6.800009
31
0.0
0
ARC
8
0
10
187.105706
20
6.800009
30
0.0
40
0.300000
50
270.000000
51
0.000000
0
LINE
8
0
10
187.105706
20
6.500009
30
0.0
11
184.405730
21
6.500009
31
0.0
0
ARC
8
0
10
184.405730
20
6.800009
30
0.0
40
0.300000
50
180.000000
51
270.000000
0
LINE
8
0
10
184.105730
20
6.800009
30
0.0
11
184.105730
21
13.200009
31
0.0
0
ARC
8
0
10
184.405730
20
13.200009
30
0.0
40
0.300000
50
90.000000
51
180.000000
0
LINE
8
0
10
184.405730
20
13.500009
30
0.0
11
187.305730
21
13.500009
31
0.0
0
ARC
8
0
10
187.305730
20
13.800009
30
0.0
40
0.300000
50
270.000000
51
0.000000
0
LINE
8
0
10
187.605730
20
13.800009
30
0.0
11
187.605730
21
18.800009
31
0.0
0
ARC
8
0
10
187.905730
20
18.800009
30
0.0
40
0.300000
50
90.000000
51
180.000000
0
LINE
8
0
10
187.905730
20
19.100009
30
0.0
11
188.605730
21
19.100009
31
0.0
0
ARC
8
0
10
188.605730
20
19.400009
30
0.0
40
0.300000
50
270.000000
51
0.000000
0
LINE
8
0
10
188.905730
20
19.400009
30
0.0
11
188.905730
21
20.800009
31
0.0
0
ARC
8
0
10
189.205730
20
20.800009
30
0.0
40
0.300000
50
90.000000
51
180.000000
0
LINE
8
0
10
189.205730
20
21.100009
30
0.0
11
191.605730
21
21.100009
31
0.0
0
ARC
8
0
10
191.605730
20
21.400009
30
0.0
40
0.300000
50
270.000000
51
0.000000
0
LINE
8
0
10
191.905730
20
21.400009
30
0.0
11
191.905730
21
22.300009
31
0.0
0
ARC
8
0
10
191.605730
20
22.300009
30
0.0
40
0.300000
50
0.000000
51
90.000000
0
LINE
8
0
10
191.605730
20
22.600009
30
0.0
11
187.905730
21
22.600009
31
0.0
0
ARC
8
0
10
187.905730
20
22.900009
30
0.0
40
0.300000
50
180.000000
51
270.000000
0
LINE
8
0
10
187.605730
20
22.900009
30
0.0
11
187.605730
21
27.200009
31
0.0
0
ARC
8
0
10
187.905730
20
27.200009
30
0.0
40
0.300000
50
90.000000
51
180.000000
0
LINE
8
0
10
187.905730
20
27.500009
30
0.0
11
190.931441
21
27.500009
31
0.0
0
ARC
8
0
10
190.931441
20
27.200009
30
0.0
40
0.300000
50
45.000000
51
90.000000
0
LINE
8
0
10
191.143574
20
27.412141
30
0.0
11
191.467838
21
27.087877
31
0.0
0
ARC
8
0
10
191.679970
20
27.300009
30
0.0
40
0.300000
50
225.000000
51
270.000000
0
LINE
8
0
10
191.679970
20
27.000009
30
0.0
11
195.931441
21
27.000009
31
0.0
0
ARC
8
0
10
195.931441
20
27.300009
30
0.0
40
0.300000
50
270.000000
51
315.000000
0
LINE
8
0
10
196.143574
20
27.087877
30
0.0
11
196.467838
21
27.412141
31
0.0
0
ARC
8
0
10
196.679970
20
27.200009
30
0.0
40
0.300000
50
90.000000
51
135.000000
0
LINE
8
0
10
196.679970
20
27.500009
30
0.0
11
200.505706
21
27.500009
31
0.0
0
ARC
8
0
10
200.505706
20
28.500009
30
0.0
40
1.000000
50
270.000000
51
0.000000
0
LINE
8
0
10
201.505706
20
28.500009
30
0.0
11
201.505706
21
31.375637
31
0.0
0
ARC
8
0
10
201.805706
20
31.375637
30
0.0
40
0.300000
50
150.000000
51
180.000000
0
LINE
8
0
10
201.545898
20
31.525637
30
0.0
11
202.397127
21
33.000009
31
0.0
0
ARC
8
0
10
200.665076
20
34.000009
30
0.0
40
2.000000
50
330.000000
51
57.356923
0
ARC
8
0
10
201.905706
20
35.936717
30
0.0
40
0.300000
50
180.000000
51
237.356923
0
LINE
8
0
10
201.605706
20
35.936717
30
0.0
11
201.605706
21
37.700009
31
0.0
0
ARC
8
0
10
201.905706
20
37.700009
30
0.0
40
0.300000
50
90.000000
51
180.000000
0
LINE
8
0
10
201.905706
20
38.000009
30
0.0
11
204.105706
21
38.000009
31
0.0
0
ARC
8
0
10
204.105706
20
38.500009
30
0.0
40
0.500000
50
270.000000
51
0.000000
0
LINE
8
0
10
204.605706
20
38.500009
30
0.0
11
204.605706
21
41.600009
31
0.0
0
ARC
8
0
10
204.905706
20
41.600009
30
0.0
40
0.300000
50
90.000000
51
180.000000
0
LINE
8
0
10
204.905706
20
41.900009
30
0.0
11
214.505706
21
41.900009
31
0.0
0
ARC
8
0
10
214.505706
20
41.600009
30
0.0
40
0.300000
50
0.000000
51
90.000000
0
LINE
8
0
10
214.805706
20
41.600009
30
0.0
11
214.805706
21
38.783121
31
0.0
0
ARC
8
0
10
214.505706
20
38.783121
30
0.0
40
0.300000
50
285.000000
51
0.000000
0
LINE
8
0
10
214.583351
20
38.493344
30
0.0
11
213.528060
21
38.210579
31
0.0
0
ARC
8
0
10
213.605706
20
37.920801
30
0.0
40
0.300000
50
105.000000
51
180.000000
0
ARC
8
0
10
183.305706
20
40.175745
30
0.0
40
0.300000
50
135.000000
51
180.000000
0
LINE
8
0
10
183.005706
20
40.175745
30
0.0
11
183.005706
21
40.300009
31
0.0
0
LINE
8
0
10
183.005706
20
40.300009
30
0.0
11
183.093574
21
40.387877
31
0.0
0
LINE
8
0
10
183.093574
20
40.387877
30
0.0
11
183.317838
21
40.612141
31
0.0
0
ARC
8
0
10
183.529970
20
40.400009
30
0.0
40
0.300000
50
90.000000
51
135.000000
0
LINE
8
0
10
183.529970
20
40.700009
30
0.0
11
184.205706
21
40.700009
31
0.0
0
ARC
8
0
10
184.205706
20
40.400009
30
0.0
40
0.300000
50
0.000000
51
90.000000
0
LINE
8
0
10
184.505706
20
40.400009
30
0.0
11
184.505706
21
39.800009
31
0.0
0
ARC
8
0
10
184.805706
20
39.800009
30
0.0
40
0.300000
50
180.000000
51
270.000000
0
LINE
8
0
10
184.805706
20
39.500009
30
0.0
11
187.215999
21
39.500009
31
0.0
0
ARC
8
0
10
187.215999
20
39.200009
30
0.0
40
0.300000
50
2.000000
51
90.000000
0
LINE
8
0
10
187.515816
20
39.210479
30
0.0
11
187.662240
21
35.017459
31
0.0
0
ARC
8
0
10
187.162544
20
35.000009
30
0.0
40
0.500000
50
270.000000
51
2.000000
0
LINE
8
0
10
187.162544
20
34.500009
30
0.0
11
186.946335
21
34.500009
31
0.0
0
ARC
8
0
10
186.946335
20
34.000009
30
0.0
40
0.500000
50
90.000000
51
210.000000
0
LINE
8
0
10
186.513322
20
33.750009
30
0.0
11
187.538718
21
31.973971
31
0.0
0
ARC
8
0
10
187.105706
20
31.723971
30
0.0
40
0.500000
50
0.000000
51
30.000000
0
LINE
8
0
10
187.605706
20
31.723971
30
0.0
11
187.605706
21
29.300009
31
0.0
0
ARC
8
0
10
187.905706
20
29.300009
30
0.0
40
0.300000
50
180.000000
51
270.000000
0
LINE
8
0
10
187.905706
20
29.000009
30
0.0
11
193.505706
21
29.000009
31
0.0
0
LINE
8
0
10
193.505706
20
29.000009
30
0.0
11
193.805706
21
28.700009
31
0.0
0
LINE
8
0
10
193.805706
20
28.700009
30
0.0
11
194.105706
21
29.000009
31
0.0
0
LINE
8
0
10
194.105706
20
29.000009
30
0.0
11
199.705706
21
29.000009
31
0.0
0
ARC
8
0
10
199.705706
20
29.300009
30
0.0
40
0.300000
50
270.000000
51
0.000000
0
LINE
8
0
10
200.005706
20
29.300009
30
0.0
11
200.005706
21
31.723971
31
0.0
0
ARC
8
0
10
200.505706
20
31.723971
30
0.0
40
0.500000
50
150.000000
51
180.000000
0
LINE
8
0
10
200.072693
20
31.973971
30
0.0
11
201.098089
21
33.750009
31
0.0
0
ARC
8
0
10
200.665076
20
34.000009
30
0.0
40
0.500000
50
330.000000
51
90.000000
0
LINE
8
0
10
200.665076
20
34.500009
30
0.0
11
200.448867
21
34.500009
31
0.0
0
ARC
8
0
10
200.448867
20
35.000009
30
0.0
40
0.500000
50
178.000000
51
270.000000
0
LINE
8
0
10
199.949171
20
35.017459
30
0.0
11
200.095595
21
39.210479
31
0.0
0
ARC
8
0
10
200.395412
20
39.200009
30
0.0
40
0.300000
50
90.000000
51
178.000000
0
LINE
8
0
10
200.395412
20
39.500009
30
0.0
11
202.805706
21
39.500009
31
0.0
0
ARC
8
0
10
202.805706
20
39.800009
30
0.0
40
0.300000
50
270.000000
51
0.000000
0
LINE
8
0
10
203.105706
20
39.800009
30
0.0
11
203.105706
21
43.100009
31
0.0
0
ARC
8
0
10
203.405706
20
43.100009
30
0.0
40
0.300000
50
90.000000
51
180.000000
0
LINE
8
0
10
203.405706
20
43.400009
30
0.0
11
215.305706
21
43.400009
31
0.0
0
ARC
8
0
10
215.305706
20
42.400009
30
0.0
40
1.000000
50
0.000000
51
90.000000
0
LINE
8
0
10
216.305706
20
42.400009
30
0.0
11
216.305706
21
37.632131
31
0.0
0
ARC
8
0
10
216.005706
20
37.632131
30
0.0
40
0.300000
50
285.000000
51
0.000000
0
LINE
8
0
10
216.083351
20
37.342353
30
0.0
11
215.028060
21
37.059589
31
0.0
0
ARC
8
0
10
215.105706
20
36.769811
30
0.0
40
0.300000
50
105.000000
51
180.000000
0
LINE
8
0
10
214.805706
20
36.769811
30
0.0
11
214.805706
21
18.300009
31
0.0
0
ARC
8
0
10
215.105706
20
18.300009
30
0.0
40
0.300000
50
180.000000
51
270.000000
0
LINE
8
0
10
215.105706
20
18.000009
30
0.0
11
224.605706
21
18.000009
31
0.0
0
ARC
8
0
10
224.605706
20
17.500009
30
0.0
40
0.500000
50
0.000000
51
90.000000
0
LINE
8
0
10
225.105706
20
17.500009
30
0.0
11
225.105706
21
0.300009
31
0.0
0
ARC
8
0
10
224.805706
20
0.300009
30
0.0
40
0.300000
50
270.000000
51
0.000000
0
LINE
8
0
10
224.805706
20
0.000009
30
0.0
11
221.575563
21
0.000009
31
0.0
0
ARC
8
0
10
221.575563
20
0.300009
30
0.0
40
0.300000
50
210.963757
51
270.000000
0
LINE
8
0
10
221.318315
20
0.145660
30
0.0
11
220.848458
21
0.928755
31
0.0
0
ARC
8
0
10
221.105706
20
1.083104
30
0.0
40
0.300000
50
180.000000
51
210.963757
0
LINE
8
0
10
220.805706
20
1.083104
30
0.0
11
220.805706
21
1.200009
31
0.0
0
ARC
8
0
10
221.105706
20
1.200009
30
0.0
40
0.300000
50
90.000000
51
180.000000
0
LINE
8
0
10
221.105706
20
1.500009
30
0.0
11
223.005706
21
1.500009
31
0.0
0
ARC
8
0
10
223.005706
20
1.800009
30
0.0
40
0.300000
50
270.000000
51
0.000000
0
LINE
8
0
10
223.305706
20
1.800009
30
0.0
11
223.305706
21
4.700009
31
0.0
0
ARC
8
0
10
223.005706
20
4.700009
30
0.0
40
0.300000
50
0.000000
51
90.000000
0
LINE
8
0
10
223.005706
20
5.000009
30
0.0
11
209.105706
21
5.000009
31
0.0
0
ARC
8
0
10
209.105706
20
4.700009
30
0.0
40
0.300000
50
90.000000
51
180.000000
0
LINE
8
0
10
208.805706
20
4.700009
30
0.0
11
208.805706
21
1.800009
31
0.0
0
ARC
8
0
10
209.105706
20
1.800009
30
0.0
40
0.300000
50
180.000000
51
270.000000
0
LINE
8
0
10
209.105706
20
1.500009
30
0.0
11
210.505706
21
1.500009
31
0.0
0
ARC
8
0
10
210.505706
20
1.200009
30
0.0
40
0.300000
50
0.000000
51
90.000000
0
LINE
8
0
10
210.805706
20
1.200009
30
0.0
11
210.805706
21
1.083104
31
0.0
0
ARC
8
0
10
210.505706
20
1.083104
30
0.0
40
0.300000
50
329.036244
51
0.000000
0
LINE
8
0
10
210.762953
20
0.928755
30
0.0
11
210.293096
21
0.145660
31
0.0
0
ARC
8
0
10
210.035848
20
0.300009
30
0.0
40
0.300000
50
270.000000
51
329.036244
0
LINE
8
0
10
210.035848
20
0.000009
30
0.0
11
207.605706
21
0.000009
31
0.0
0
ARC
8
0
10
207.605706
20
0.300009
30
0.0
40
0.300000
50
180.000000
51
270.000000
0
LINE
8
0
10
207.305706
20
0.300009
30
0.0
11
207.305706
21
4.700009
31
0.0
0
ARC
8
0
10
207.005706
20
4.700009
30
0.0
40
0.300000
50
0.000000
51
90.000000
0
LINE
8
0
10
207.005706
20
5.000009
30
0.0
11
184.405706
21
5.000009
31
0.0
0
ARC
8
0
10
184.405706
20
4.700009
30
0.0
40
0.300000
50
90.000000
51
180.000000
0
LINE
8
0
10
184.105706
20
4.700009
30
0.0
11
184.105706
21
0.300009
31
0.0
0
ARC
8
0
10
183.805706
20
0.300009
30
0.0
40
0.300000
50
270.000000
51
0.000000
0
LINE
8
0
10
183.805706
20
0.000009
30
0.0
11
182.337790
21
0.000009
31
0.0
0
ARC
8
0
10
182.337790
20
0.300009
30
0.0
40
0.300000
50
250.221829
51
270.000000
0
LINE
8
0
10
182.236276
20
0.017706
30
0.0
11
180.934413
21
0.485845
31
0.0
0
ARC
8
0
10
180.854894
20
0.264708
30
0.0
40
0.235000
50
70.221829
51
156.000000
0
ARC
8
0
10
180.418960
20
0.441121
30
0.0
40
0.235000
50
270.000000
51
336.000000
0
LINE
8
0
10
180.420516
20
0.206127
30
0.0
11
178.841588
21
0.195669
31
0.0
0
ARC
8
0
10
178.839601
20
0.495663
30
0.0
40
0.300000
50
155.379459
51
270.000000
0
LINE
8
0
10
178.566875
20
0.620645
30
0.0
11
179.515525
21
2.726160
31
0.0
0
ARC
8
0
10
179.789044
20
2.602925
30
0.0
40
0.300000
50
115.379459
51
155.745828
0
LINE
8
0
10
179.660461
20
2.873971
30
0.0
11
180.167884
21
3.114690
31
0.0
0
ARC
8
0
10
180.253606
20
2.933993
30
0.0
40
0.200000
50
355.379459
51
115.379459
0
LINE
8
0
10
180.452956
20
2.917881
30
0.0
11
180.443654
21
2.802787
31
0.0
0
ARC
8
0
10
180.742679
20
2.778620
30
0.0
40
0.300000
50
175.379459
51
235.379459
0
LINE
8
0
10
180.572238
20
2.531740
30
0.0
11
182.200994
21
1.407274
31
0.0
0
LINE
8
0
10
182.200994
20
1.407274
30
0.0
11
182.383703
21
1.325927
31
0.0
0
ARC
8
0
10
182.505706
20
1.600009
30
0.0
40
0.300009
50
246.004713
51
48.187329
0
ARC
8
0
10
182.905730
20
2.047213
30
0.0
40
0.300000
50
180.000000
51
228.187329
0
LINE
8
0
10
182.605730
20
2.047213
30
0.0
11
182.605730
21
5.900000
31
0.0
0
ARC
8
0
10
182.305730
20
5.900000
30
0.0
40
0.300000
50
0.000000
51
90.000000
0
LINE
8
0
10
182.305730
20
6.200000
30
0.0
11
182.084537
21
6.200000
31
0.0
0
ARC
8
0
10
182.084537
20
5.900000
30
0.0
40
0.300000
50
90.000000
51
121.400000
0
LINE
8
0
10
181.928234
20
6.156065
30
0.0
11
180.409932
21
5.229289
31
0.0
0
ARC
8
0
10
180.305730
20
5.400000
30
0.0
40
0.200000
50
180.000000
51
301.400000
0
LINE
8
0
10
180.105730
20
5.400000
30
0.0
11
180.105730
21
9.600000
31
0.0
0
ARC
8
0
10
180.305730
20
9.600000
30
0.0
40
0.200000
50
58.600000
51
180.000000
0
LINE
8
0
10
180.409932
20
9.770710
30
0.0
11
181.928234
21
8.843934
31
0.0
0
ARC
8
0
10
182.084537
20
9.100000
30
0.0
40
0.300000
50
238.600000
51
270.000000
0
LINE
8
0
10
182.084537
20
8.800000
30
0.0
11
182.305730
21
8.800000
31
0.0
0
ARC
8
0
10
182.305730
20
9.100000
30
0.0
40
0.300000
50
270.000000
51
0.000000
0
LINE
8
0
10
182.605730
20
9.100000
30
0.0
11
182.605730
21
12.952786
31
0.0
0
ARC
8
0
10
182.905730
20
12.952786
30
0.0
40
0.300000
50
131.812671
51
180.000000
0
ARC
8
0
10
182.505706
20
13.399990
30
0.0
40
0.300009
50
311.812671
51
113.995287
0
LINE
8
0
10
182.383703
20
13.674072
30
0.0
11
182.200994
21
13.592725
31
0.0
0
LINE
8
0
10
182.200994
20
13.592725
30
0.0
11
180.572238
21
12.468259
31
0.0
0
ARC
8
0
10
180.742679
20
12.221379
30
0.0
40
0.300000
50
124.620541
51
184.620541
0
LINE
8
0
10
180.443654
20
12.197212
30
0.0
11
180.452956
21
12.082118
31
0.0
0
ARC
8
0
10
180.253606
20
12.066006
30
0.0
40
0.200000
50
244.620541
51
4.620541
0
LINE
8
0
10
180.167884
20
11.885309
30
0.0
11
179.660461
21
12.126028
31
0.0
0
ARC
8
0
10
179.789044
20
12.397074
30
0.0
40
0.300000
50
204.254172
51
244.620541
0
LINE
8
0
10
179.515525
20
12.273839
30
0.0
11
178.566875
21
14.379354
31
0.0
0
ARC
8
0
10
178.839601
20
14.504336
30
0.0
40
0.300000
50
90.000000
51
204.620541
0
LINE
8
0
10
178.841588
20
14.804330
30
0.0
11
180.420516
21
14.793872
31
0.0
0
ARC
8
0
10
180.418960
20
14.558878
30
0.0
40
0.235000
50
24.000000
51
90.000000
0
ARC
8
0
10
180.854894
20
14.735291
30
0.0
40
0.235000
50
204.000000
51
289.778171
0
LINE
8
0
10
180.934413
20
14.514154
30
0.0
11
182.236328
21
14.982312
31
0.0
0
ARC
8
0
10
182.337842
20
14.700009
30
0.0
40
0.300000
50
90.000000
51
109.778171
0
LINE
8
0
10
182.337842
20
15.000009
30
0.0
11
185.805730
21
15.000009
31
0.0
0
ARC
8
0
10
185.805730
20
15.300009
30
0.0
40
0.300000
50
270.000000
51
0.000000
0
LINE
8
0
10
186.105730
20
15.300009
30
0.0
11
186.105730
21
20.800009
31
0.0
0
ARC
8
0
10
185.805730
20
20.800009
30
0.0
40
0.300000
50
0.000000
51
90.000000
0
LINE
8
0
10
185.805730
20
21.100009
30
0.0
11
183.205730
21
21.100009
31
0.0
0
ARC
8
0
10
183.205730
20
21.400009
30
0.0
40
0.300000
50
180.000000
51
270.000000
0
LINE
8
0
10
182.905730
20
21.400009
30
0.0
11
182.905730
21
22.300009
31
0.0
0
ARC
8
0
10
183.205730
20
22.300009
30
0.0
40
0.300000
50
90.000000
51
180.000000
0
LINE
8
0
10
183.205730
20
22.600009
30
0.0
11
185.805730
21
22.600009
31
0.0
0
ARC
8
0
10
185.805730
20
22.900009
30
0.0
40
0.300000
50
270.000000
51
0.000000
0
LINE
8
0
10
186.105730
20
22.900009
30
0.0
11
186.105730
21
31.375594
31
0.0
0
ARC
8
0
10
185.805730
20
31.375594
30
0.0
40
0.300000
50
0.000000
51
30.000000
0
LINE
8
0
10
186.065538
20
31.525594
30
0.0
11
185.214284
21
33.000009
31
0.0
0
ARC
8
0
10
186.946335
20
34.000009
30
0.0
40
2.000000
50
122.643077
51
210.000000
0
ARC
8
0
10
185.705706
20
35.936717
30
0.0
40
0.300000
50
302.643077
51
0.000000
0
LINE
8
0
10
186.005706
20
35.936717
30
0.0
11
186.005706
21
37.700009
31
0.0
0
ARC
8
0
10
185.705706
20
37.700009
30
0.0
40
0.300000
50
0.000000
51
90.000000
0
LINE
8
0
10
185.705706
20
38.000009
30
0.0
11
183.305706
21
38.000009
31
0.0
0
ARC
8
0
10
183.305706
20
38.300009
30
0.0
40
0.300000
50
180.000000
51
270.000000
0
LINE
8
0
10
183.005706
20
38.300009
30
0.0
11
183.005706
21
40.175745
31
0.0
0
LINE
8
0
10
122.604870
20
27.200000
30
0.0
11
122.604870
21
15.300000
31
0.0
0
ARC
8
0
10
122.304870
20
15.300000
30
0.0
40
0.300000
50
270.000000
51
0.000000
0
LINE
8
0
10
122.304870
20
15.000000
30
0.0
11
110.504870
21
15.000000
31
0.0
0
ARC
8
0
10
110.504870
20
15.300000
30
0.0
40
0.300000
50
180.000000
51
270.000000
0
LINE
8
0
10
110.204870
20
15.300000
30
0.0
11
110.204870
21
27.200000
31
0.0
0
ARC
8
0
10
110.504870
20
27.200000
30
0.0
40
0.300000
50
90.000000
51
180.000000
0
LINE
8
0
10
110.504870
20
27.500000
30
0.0
11
122.304870
21
27.500000
31
0.0
0
ARC
8
0
10
122.304870
20
27.200000
30
0.0
40
0.300000
50
0.000000
51
90.000000
0
LINE
8
0
10
127.874167
20
0.000000
30
0.0
11
126.104455
21
0.000000
31
0.0
0
ARC
8
0
10
126.104455
20
0.300000
30
0.0
40
0.300000
50
180.000000
51
270.000000
0
LINE
8
0
10
125.804455
20
0.300000
30
0.0
11
125.804455
21
2.500000
31
0.0
0
ARC
8
0
10
125.304455
20
2.500000
30
0.0
40
0.500000
50
0.000000
51
90.000000
0
LINE
8
0
10
125.304455
20
3.000000
30
0.0
11
122.534080
21
3.000000
31
0.0
0
ARC
8
0
10
122.534080
20
2.500000
30
0.0
40
0.500000
50
90.000000
51
180.000000
0
LINE
8
0
10
122.034080
20
2.500000
30
0.0
11
122.034080
21
1.400000
31
0.0
0
ARC
8
0
10
121.534080
20
1.400000
30
0.0
40
0.500000
50
270.000000
51
0.000000
0
LINE
8
0
10
121.534080
20
0.900000
30
0.0
11
120.579078
21
0.900000
31
0.0
0
ARC
8
0
10
120.579078
20
1.400000
30
0.0
40
0.500000
50
225.000000
51
270.000000
0
LINE
8
0
10
120.225524
20
1.046446
30
0.0
11
118.418418
21
2.853553
31
0.0
0
ARC
8
0
10
118.064864
20
2.500000
30
0.0
40
0.500000
50
45.000000
51
90.000000
0
LINE
8
0
10
118.064864
20
3.000000
30
0.0
11
117.119268
21
3.000000
31
0.0
0
ARC
8
0
10
117.119268
20
3.300000
30
0.0
40
0.300000
50
240.000000
51
270.000000
0
LINE
8
0
10
116.969268
20
3.040192
30
0.0
11
116.669268
21
3.213397
31
0.0
0
ARC
8
0
10
116.519268
20
2.953589
30
0.0
40
0.300000
50
60.000000
51
120.000000
0
LINE
8
0
10
116.369268
20
3.213397
30
0.0
11
116.069268
21
3.040192
31
0.0
0
ARC
8
0
10
115.919268
20
3.300000
30
0.0
40
0.300000
50
270.000000
51
300.000000
0
LINE
8
0
10
115.919268
20
3.000000
30
0.0
11
114.973671
21
3.000000
31
0.0
0
ARC
8
0
10
114.973671
20
2.500000
30
0.0
40
0.500000
50
90.000000
51
135.000000
0
LINE
8
0
10
114.620118
20
2.853553
30
0.0
11
112.813011
21
1.046446
31
0.0
0
ARC
8
0
10
112.459457
20
1.400000
30
0.0
40
0.500000
50
270.000000
51
315.000000
0
LINE
8
0
10
112.459457
20
0.900000
30
0.0
11
111.304455
21
0.900000
31
0.0
0
ARC
8
0
10
111.304455
20
1.200000
30
0.0
40
0.300000
50
180.000000
51
270.000000
0
LINE
8
0
10
111.004455
20
1.200000
30
0.0
11
111.004455
21
2.900000
31
0.0
0
ARC
8
0
10
110.704455
20
2.900000
30
0.0
40
0.300000
50
0.000000
51
90.000000
0
LINE
8
0
10
110.704455
20
3.200000
30
0.0
11
108.604455
21
3.200000
31
0.0
0
ARC
8
0
10
108.604455
20
3.700000
30
0.0
40
0.500000
50
180.000000
51
270.000000
0
LINE
8
0
10
108.104455
20
3.700000
30
0.0
11
108.104455
21
4.200000
31
0.0
0
ARC
8
0
10
108.604455
20
4.200000
30
0.0
40
0.500000
50
90.000000
51
180.000000
0
LINE
8
0
10
108.604455
20
4.700000
30
0.0
11
123.870480
21
4.700000
31
0.0
0
ARC
8
0
10
123.870480
20
5.200000
30
0.0
40
0.500000
50
270.000000
51
300.000000
0
LINE
8
0
10
124.120480
20
4.766987
30
0.0
11
125.854455
21
5.768098
31
0.0
0
ARC
8
0
10
125.704455
20
6.027905
30
0.0
40
0.300000
50
300.000000
51
0.000000
0
LINE
8
0
10
126.004455
20
6.027905
30
0.0
11
126.004455
21
12.144313
31
0.0
0
ARC
8
0
10
125.704455
20
12.144313
30
0.0
40
0.300000
50
0.000000
51
60.000000
0
LINE
8
0
10
125.854455
20
12.404121
30
0.0
11
124.056855
21
13.433857
31
0.0
0
ARC
8
0
10
123.808325
20
13.000000
30
0.0
40
0.500000
50
60.194203
51
90.000000
0
LINE
8
0
10
123.808325
20
13.500000
30
0.0
11
109.204870
21
13.500000
31
0.0
0
ARC
8
0
10
109.204870
20
14.000000
30
0.0
40
0.500000
50
180.000000
51
270.000000
0
LINE
8
0
10
108.704870
20
14.000000
30
0.0
11
108.704870
21
20.800000
31
0.0
0
ARC
8
0
10
108.404870
20
20.800000
30
0.0
40
0.300000
50
0.000000
51
90.000000
0
LINE
8
0
10
108.404870
20
21.100000
30
0.0
11
105.804870
21
21.100000
31
0.0
0
ARC
8
0
10
105.804870
20
21.400000
30
0.0
40
0.300000
50
180.000000
51
270.000000
0
LINE
8
0
10
105.504870
20
21.400000
30
0.0
11
105.504870
21
22.300000
31
0.0
0
ARC
8
0
10
105.804870
20
22.300000
30
0.0
40
0.300000
50
90.000000
51
180.000000
0
LINE
8
0
10
105.804870
20
22.600000
30
0.0
11
108.404870
21
22.600000
31
0.0
0
ARC
8
0
10
108.404870
20
22.900000
30
0.0
40
0.300000
50
270.000000
51
0.000000
0
LINE
8
0
10
108.704870
20
22.900000
30
0.0
11
108.704895
21
31.375585
31
0.0
0
ARC
8
0
10
108.404895
20
31.375585
30
0.0
40
0.300000
50
0.000000
51
30.000000
0
LINE
8
0
10
108.664702
20
31.525585
30
0.0
11
107.813449
21
33.000000
31
0.0
0
ARC
8
0
10
109.545499
20
34.000000
30
0.0
40
2.000000
50
122.643077
51
210.000000
0
ARC
8
0
10
108.304870
20
35.936708
30
0.0
40
0.300000
50
302.643077
51
0.000000
0
LINE
8
0
10
108.604870
20
35.936708
30
0.0
11
108.604870
21
37.700000
31
0.0
0
ARC
8
0
10
108.304870
20
37.700000
30
0.0
40
0.300000
50
0.000000
51
90.000000
0
LINE
8
0
10
108.304870
20
38.000000
30
0.0
11
105.904870
21
38.000000
31
0.0
0
ARC
8
0
10
105.904870
20
38.300000
30
0.0
40
0.300000
50
180.000000
51
270.000000
0
LINE
8
0
10
105.604870
20
38.300000
30
0.0
11
105.604870
21
40.175735
31
0.0
0
ARC
8
0
10
105.904870
20
40.175735
30
0.0
40
0.300000
50
135.000000
51
180.000000
0
LINE
8
0
10
105.692738
20
40.387867
30
0.0
11
105.917002
21
40.612132
31
0.0
0
ARC
8
0
10
106.129134
20
40.400000
30
0.0
40
0.300000
50
90.000000
51
135.000000
0
LINE
8
0
10
106.129134
20
40.700000
30
0.0
11
106.804870
21
40.700000
31
0.0
0
ARC
8
0
10
106.804870
20
40.400000
30
0.0
40
0.300000
50
0.000000
51
90.000000
0
LINE
8
0
10
107.104870
20
40.400000
30
0.0
11
107.104870
21
39.800000
31
0.0
0
ARC
8
0
10
107.404870
20
39.800000
30
0.0
40
0.300000
50
180.000000
51
270.000000
0
LINE
8
0
10
107.404870
20
39.500000
30
0.0
11
109.815163
21
39.500000
31
0.0
0
ARC
8
0
10
109.815163
20
39.200000
30
0.0
40
0.300000
50
2.000000
51
90.000000
0
LINE
8
0
10
110.114981
20
39.210469
30
0.0
11
110.261404
21
35.017449
31
0.0
0
ARC
8
0
10
109.761709
20
35.000000
30
0.0
40
0.500000
50
270.000000
51
2.000000
0
LINE
8
0
10
109.761709
20
34.500000
30
0.0
11
109.545499
21
34.500000
31
0.0
0
ARC
8
0
10
109.545499
20
34.000000
30
0.0
40
0.500000
50
90.000000
51
210.000000
0
LINE
8
0
10
109.112487
20
33.750000
30
0.0
11
110.137883
21
31.973961
31
0.0
0
ARC
8
0
10
109.704870
20
31.723961
30
0.0
40
0.500000
50
0.000000
51
30.000000
0
LINE
8
0
10
110.204870
20
31.723961
30
0.0
11
110.204870
21
29.300000
31
0.0
0
ARC
8
0
10
110.504870
20
29.300000
30
0.0
40
0.300000
50
180.000000
51
270.000000
0
LINE
8
0
10
110.504870
20
29.000000
30
0.0
11
122.304870
21
29.000000
31
0.0
0
ARC
8
0
10
122.304870
20
29.300000
30
0.0
40
0.300000
50
270.000000
51
0.000000
0
LINE
8
0
10
122.604870
20
29.300000
30
0.0
11
122.604870
21
31.723961
31
0.0
0
ARC
8
0
10
123.104870
20
31.723961
30
0.0
40
0.500000
50
150.000000
51
180.000000
0
LINE
8
0
10
122.671857
20
31.973961
30
0.0
11
123.697254
21
33.750000
31
0.0
0
ARC
8
0
10
123.264241
20
34.000000
30
0.0
40
0.500000
50
330.000000
51
90.000000
0
LINE
8
0
10
123.264241
20
34.500000
30
0.0
11
123.048031
21
34.500000
31
0.0
0
ARC
8
0
10
123.048031
20
35.000000
30
0.0
40
0.500000
50
178.000000
51
270.000000
0
LINE
8
0
10
122.548336
20
35.017449
30
0.0
11
122.694759
21
39.210469
31
0.0
0
ARC
8
0
10
122.994577
20
39.200000
30
0.0
40
0.300000
50
90.000000
51
178.000000
0
LINE
8
0
10
122.994577
20
39.500000
30
0.0
11
125.404870
21
39.500000
31
0.0
0
ARC
8
0
10
125.404870
20
39.800000
30
0.0
40
0.300000
50
270.000000
51
0.000000
0
LINE
8
0
10
125.704870
20
39.800000
30
0.0
11
125.704870
21
40.400000
31
0.0
0
ARC
8
0
10
126.004870
20
40.400000
30
0.0
40
0.300000
50
90.000000
51
180.000000
0
LINE
8
0
10
126.004870
20
40.700000
30
0.0
11
126.680606
21
40.700000
31
0.0
0
ARC
8
0
10
126.680606
20
40.400000
30
0.0
40
0.300000
50
45.000000
51
90.000000
0
LINE
8
0
10
126.892738
20
40.612132
30
0.0
11
127.117002
21
40.387867
31
0.0
0
ARC
8
0
10
126.904870
20
40.175735
30
0.0
40
0.300000
50
0.000000
51
45.000000
0
LINE
8
0
10
127.204870
20
40.175735
30
0.0
11
127.204870
21
38.300000
31
0.0
0
ARC
8
0
10
126.904870
20
38.300000
30
0.0
40
0.300000
50
270.000000
51
0.000000
0
LINE
8
0
10
126.904870
20
38.000000
30
0.0
11
124.504870
21
38.000000
31
0.0
0
ARC
8
0
10
124.504870
20
37.700000
30
0.0
40
0.300000
50
90.000000
51
180.000000
0
LINE
8
0
10
124.204870
20
37.700000
30
0.0
11
124.204870
21
35.936708
31
0.0
0
ARC
8
0
10
124.504870
20
35.936708
30
0.0
40
0.300000
50
180.000000
51
237.356923
0
ARC
8
0
10
123.264241
20
34.000000
30
0.0
40
2.000000
50
330.000000
51
57.356923
0
LINE
8
0
10
124.996292
20
33.000000
30
0.0
11
124.145038
21
31.525585
31
0.0
0
ARC
8
0
10
124.404845
20
31.375585
30
0.0
40
0.300000
50
150.000000
51
180.000000
0
LINE
8
0
10
124.104845
20
31.375585
30
0.0
11
124.104870
21
22.900000
31
0.0
0
ARC
8
0
10
124.404870
20
22.900000
30
0.0
40
0.300000
50
180.000000
51
270.000000
0
LINE
8
0
10
124.404870
20
22.600000
30
0.0
11
127.004870
21
22.600000
31
0.0
0
ARC
8
0
10
127.004870
20
22.300000
30
0.0
40
0.300000
50
0.000000
51
90.000000
0
LINE
8
0
10
127.304870
20
22.300000
30
0.0
11
127.304870
21
21.400000
31
0.0
0
ARC
8
0
10
127.004870
20
21.400000
30
0.0
40
0.300000
50
270.000000
51
0.000000
0
LINE
8
0
10
127.004870
20
21.100000
30
0.0
11
124.404870
21
21.100000
31
0.0
0
ARC
8
0
10
124.404870
20
20.800000
30
0.0
40
0.300000
50
90.000000
51
180.000000
0
LINE
8
0
10
124.104870
20
20.800000
30
0.0
11
124.104870
21
15.300000
31
0.0
0
ARC
8
0
10
124.404870
20
15.300000
30
0.0
40
0.300000
50
180.000000
51
270.000000
0
LINE
8
0
10
124.404870
20
15.000000
30
0.0
11
127.873644
21
15.000000
31
0.0
0
ARC
8
0
10
127.873644
20
14.700000
30
0.0
40
0.300000
50
70.221829
51
90.000000
0
LINE
8
0
10
127.975158
20
14.982302
30
0.0
11
129.277047
21
14.514154
31
0.0
0
ARC
8
0
10
129.356566
20
14.735291
30
0.0
40
0.235000
50
250.221829
51
336.000000
0
ARC
8
0
10
129.792501
20
14.558878
30
0.0
40
0.235000
50
90.000000
51
156.000000
0
LINE
8
0
10
129.790945
20
14.793872
30
0.0
11
131.369873
21
14.804330
31
0.0
0
ARC
8
0
10
131.371860
20
14.504336
30
0.0
40
0.300000
50
335.379459
51
90.000000
0
LINE
8
0
10
131.644586
20
14.379354
30
0.0
11
130.695936
21
12.273839
31
0.0
0
ARC
8
0
10
130.422416
20
12.397074
30
0.0
40
0.300000
50
295.379459
51
335.745828
0
LINE
8
0
10
130.551000
20
12.126028
30
0.0
11
130.043577
21
11.885309
31
0.0
0
ARC
8
0
10
129.957854
20
12.066006
30
0.0
40
0.200000
50
175.379459
51
295.379459
0
LINE
8
0
10
129.758504
20
12.082118
30
0.0
11
129.767806
21
12.197212
31
0.0
0
ARC
8
0
10
129.468781
20
12.221379
30
0.0
40
0.300000
50
355.379459
51
55.379459
0
LINE
8
0
10
129.639223
20
12.468259
30
0.0
11
128.010466
21
13.592725
31
0.0
0
LINE
8
0
10
128.010466
20
13.592725
30
0.0
11
127.827757
21
13.674072
31
0.0
0
ARC
8
0
10
127.705755
20
13.399990
30
0.0
40
0.300009
50
66.004713
51
228.187329
0
ARC
8
0
10
127.305730
20
12.952786
30
0.0
40
0.300000
50
0.000000
51
48.187329
0
LINE
8
0
10
127.605730
20
12.952786
30
0.0
11
127.605730
21
9.100000
31
0.0
0
ARC
8
0
10
127.905730
20
9.100000
30
0.0
40
0.300000
50
180.000000
51
270.000000
0
LINE
8
0
10
127.905730
20
8.800000
30
0.0
11
128.126924
21
8.800000
31
0.0
0
ARC
8
0
10
128.126924
20
9.100000
30
0.0
40
0.300000
50
270.000000
51
301.400000
0
LINE
8
0
10
128.283226
20
8.843934
30
0.0
11
129.801528
21
9.770710
31
0.0
0
ARC
8
0
10
129.905730
20
9.600000
30
0.0
40
0.200000
50
0.000000
51
121.400000
0
LINE
8
0
10
130.105730
20
9.600000
30
0.0
11
130.105730
21
5.400000
31
0.0
0
ARC
8
0
10
129.905730
20
5.400000
30
0.0
40
0.200000
50
238.600000
51
0.000000
0
LINE
8
0
10
129.801528
20
5.229289
30
0.0
11
128.283226
21
6.156065
31
0.0
0
ARC
8
0
10
128.126924
20
5.900000
30
0.0
40
0.300000
50
58.600000
51
90.000000
0
LINE
8
0
10
128.126924
20
6.200000
30
0.0
11
127.905730
21
6.200000
31
0.0
0
ARC
8
0
10
127.905730
20
5.900000
30
0.0
40
0.300000
50
90.000000
51
180.000000
0
LINE
8
0
10
127.605730
20
5.900000
30
0.0
11
127.605730
21
2.047213
31
0.0
0
ARC
8
0
10
127.305730
20
2.047213
30
0.0
40
0.300000
50
311.812671
51
0.000000
0
ARC
8
0
10
127.705755
20
1.600009
30
0.0
40
0.300009
50
131.812671
51
293.995287
0
LINE
8
0
10
127.827757
20
1.325927
30
0.0
11
128.010466
21
1.407274
31
0.0
0
LINE
8
0
10
128.010466
20
1.407274
30
0.0
11
129.639223
21
2.531740
31
0.0
0
ARC
8
0
10
129.468781
20
2.778620
30
0.0
40
0.300000
50
304.620541
51
4.620541
0
LINE
8
0
10
129.767806
20
2.802787
30
0.0
11
129.758504
21
2.917881
31
0.0
0
ARC
8
0
10
129.957854
20
2.933993
30
0.0
40
0.200000
50
64.620541
51
184.620541
0
LINE
8
0
10
130.043577
20
3.114690
30
0.0
11
130.551000
21
2.873971
31
0.0
0
ARC
8
0
10
130.422416
20
2.602925
30
0.0
40
0.300000
50
24.254172
51
64.620541
0
LINE
8
0
10
130.695936
20
2.726160
30
0.0
11
131.644586
21
0.620645
31
0.0
0
ARC
8
0
10
131.371860
20
0.495663
30
0.0
40
0.300000
50
270.000000
51
24.620541
0
LINE
8
0
10
131.369873
20
0.195669
30
0.0
11
129.790945
21
0.206127
31
0.0
0
ARC
8
0
10
129.792501
20
0.441121
30
0.0
40
0.235000
50
204.000000
51
270.000000
0
ARC
8
0
10
129.356566
20
0.264708
30
0.0
40
0.235000
50
24.000000
51
109.778171
0
LINE
8
0
10
129.277047
20
0.485845
30
0.0
11
127.975158
21
0.017697
31
0.0
0
ARC
8
0
10
127.873644
20
0.300000
30
0.0
40
0.300000
50
270.000000
51
289.778171
0
LINE
8
0
10
150.155706
20
12.984687
30
0.0
11
160.055706
21
12.984687
31
0.0
0
ARC
8
0
10
160.055706
20
12.684687
30
0.0
40
0.300000
50
0.000000
51
90.000000
0
LINE
8
0
10
160.355706
20
12.684687
30
0.0
11
160.355706
21
8.884687
31
0.0
0
ARC
8
0
10
160.855706
20
8.884687
30
0.0
40
0.500000
50
180.000000
51
0.000000
0
LINE
8
0
10
161.355706
20
8.884687
30
0.0
11
161.355706
21
12.684687
31
0.0
0
ARC
8
0
10
161.655706
20
12.684687
30
0.0
40
0.300000
50
90.000000
51
180.000000
0
LINE
8
0
10
161.655706
20
12.984687
30
0.0
11
171.555706
21
12.984687
31
0.0
0
ARC
8
0
10
171.555706
20
12.684687
30
0.0
40
0.300000
50
0.000000
51
90.000000
0
LINE
8
0
10
171.855706
20
12.684687
30
0.0
11
171.855706
21
8.884687
31
0.0
0
ARC
8
0
10
172.355706
20
8.884687
30
0.0
40
0.500000
50
180.000000
51
0.000000
0
LINE
8
0
10
172.855706
20
8.884687
30
0.0
11
172.855706
21
12.684687
31
0.0
0
ARC
8
0
10
173.155706
20
12.684687
30
0.0
40
0.300000
50
90.000000
51
180.000000
0
LINE
8
0
10
173.155706
20
12.984687
30
0.0
11
175.460375
21
12.984687
31
0.0
0
ARC
8
0
10
175.460375
20
11.984687
30
0.0
40
1.000000
50
35.254172
51
90.000000
0
LINE
8
0
10
176.276975
20
12.561891
30
0.0
11
177.799796
21
10.407482
31
0.0
0
ARC
8
0
10
178.616395
20
10.984687
30
0.0
40
1.000000
50
215.254172
51
270.000000
0
LINE
8
0
10
178.616395
20
9.984687
30
0.0
11
179.717706
21
9.984687
31
0.0
0
ARC
8
0
10
179.717706
20
8.784687
30
0.0
40
1.200000
50
60.018361
51
90.000000
0
LINE
8
0
10
180.317373
20
9.824109
30
0.0
11
181.899317
21
8.911449
31
0.0
0
ARC
8
0
10
181.999261
20
9.084687
30
0.0
40
0.200000
50
240.018361
51
270.000000
0
LINE
8
0
10
181.999261
20
8.884687
30
0.0
11
182.205706
21
8.884687
31
0.0
0
ARC
8
0
10
182.205706
20
9.284687
30
0.0
40
0.400000
50
270.000000
51
0.000000
0
LINE
8
0
10
182.605706
20
9.284687
30
0.0
11
182.605706
21
12.684687
31
0.0
0
ARC
8
0
10
182.205706
20
12.684687
30
0.0
40
0.400000
50
0.000000
51
90.000000
0
LINE
8
0
10
182.205706
20
13.084687
30
0.0
11
181.999261
21
13.084687
31
0.0
0
ARC
8
0
10
181.999261
20
12.884687
30
0.0
40
0.200000
50
90.000000
51
119.981639
0
LINE
8
0
10
181.899317
20
13.057924
30
0.0
11
180.317373
21
12.145264
31
0.0
0
ARC
8
0
10
179.717706
20
13.184687
30
0.0
40
1.200000
50
270.000000
51
299.981639
0
LINE
8
0
10
179.717706
20
11.984687
30
0.0
11
179.289472
21
11.984687
31
0.0
0
ARC
8
0
10
179.289472
20
12.284687
30
0.0
40
0.300000
50
215.254172
51
270.000000
0
LINE
8
0
10
179.044492
20
12.111525
30
0.0
11
177.163053
21
14.773289
31
0.0
0
ARC
8
0
10
176.754753
20
14.484687
30
0.0
40
0.500000
50
35.254172
51
90.000000
0
LINE
8
0
10
176.754753
20
14.984687
30
0.0
11
133.456658
21
14.984687
31
0.0
0
ARC
8
0
10
133.456658
20
14.484687
30
0.0
40
0.500000
50
90.000000
51
144.745828
0
LINE
8
0
10
133.048358
20
14.773289
30
0.0
11
131.166919
21
12.111525
31
0.0
0
ARC
8
0
10
130.921939
20
12.284687
30
0.0
40
0.300000
50
270.000000
51
324.745828
0
LINE
8
0
10
130.921939
20
11.984687
30
0.0
11
130.493705
21
11.984687
31
0.0
0
ARC
8
0
10
130.493705
20
13.184687
30
0.0
40
1.200000
50
240.018361
51
270.000000
0
LINE
8
0
10
129.894038
20
12.145264
30
0.0
11
128.312095
21
13.057924
31
0.0
0
ARC
8
0
10
128.212150
20
12.884687
30
0.0
40
0.200000
50
60.018361
51
90.000000
0
LINE
8
0
10
128.212150
20
13.084687
30
0.0
11
128.005706
21
13.084687
31
0.0
0
ARC
8
0
10
128.005706
20
12.684687
30
0.0
40
0.400000
50
90.000000
51
180.000000
0
LINE
8
0
10
127.605706
20
12.684687
30
0.0
11
127.605706
21
9.284687
31
0.0
0
ARC
8
0
10
128.005706
20
9.284687
30
0.0
40
0.400000
50
180.000000
51
270.000000
0
LINE
8
0
10
128.005706
20
8.884687
30
0.0
11
128.212150
21
8.884687
31
0.0
0
ARC
8
0
10
128.212150
20
9.084687
30
0.0
40
0.200000
50
270.000000
51
299.981639
0
LINE
8
0
10
128.312095
20
8.911449
30
0.0
11
129.894038
21
9.824109
31
0.0
0
ARC
8
0
10
130.493705
20
8.784687
30
0.0
40
1.200000
50
90.000000
51
119.981639
0
LINE
8
0
10
130.493705
20
9.984687
30
0.0
11
131.595016
21
9.984687
31
0.0
0
ARC
8
0
10
131.595016
20
10.984687
30
0.0
40
1.000000
50
270.000000
51
324.745828
0
LINE
8
0
10
132.411615
20
10.407482
30
0.0
11
133.934436
21
12.561891
31
0.0
0
ARC
8
0
10
134.751036
20
11.984687
30
0.0
40
1.000000
50
90.000000
51
144.745828
0
LINE
8
0
10
134.751036
20
12.984687
30
0.0
11
137.055706
21
12.984687
31
0.0
0
ARC
8
0
10
137.055706
20
12.684687
30
0.0
40
0.300000
50
0.000000
51
90.000000
0
LINE
8
0
10
137.355706
20
12.684687
30
0.0
11
137.355706
21
8.884687
31
0.0
0
ARC
8
0
10
137.855706
20
8.884687
30
0.0
40
0.500000
50
180.000000
51
0.000000
0
LINE
8
0
10
138.355706
20
8.884687
30
0.0
11
138.355706
21
12.684687
31
0.0
0
ARC
8
0
10
138.655706
20
12.684687
30
0.0
40
0.300000
50
90.000000
51
180.000000
0
LINE
8
0
10
138.655706
20
12.984687
30
0.0
11
148.555706
21
12.984687
31
0.0
0
ARC
8
0
10
148.555706
20
12.684687
30
0.0
40
0.300000
50
0.000000
51
90.000000
0
LINE
8
0
10
148.855706
20
12.684687
30
0.0
11
148.855706
21
8.884687
31
0.0
0
ARC
8
0
10
149.355706
20
8.884687
30
0.0
40
0.500000
50
180.000000
51
0.000000
0
LINE
8
0
10
149.855706
20
8.884687
30
0.0
11
149.855706
21
12.684687
31
0.0
0
ARC
8
0
10
150.155706
20
12.684687
30
0.0
40
0.300000
50
90.000000
51
180.000000
0
LINE
8
0
10
150.155706
20
2.015312
30
0.0
11
160.055706
21
2.015312
31
0.0
0
ARC
8
0
10
160.055706
20
2.315312
30
0.0
40
0.300000
50
270.000000
51
0.000000
0
LINE
8
0
10
160.355706
20
2.315312
30
0.0
11
160.355706
21
6.115312
31
0.0
0
ARC
8
0
10
160.855706
20
6.115312
30
0.0
40
0.500000
50
0.000000
51
180.000000
0
LINE
8
0
10
161.355706
20
6.115312
30
0.0
11
161.355706
21
2.315312
31
0.0
0
ARC
8
0
10
161.655706
20
2.315312
30
0.0
40
0.300000
50
180.000000
51
270.000000
0
LINE
8
0
10
161.655706
20
2.015312
30
0.0
11
171.555706
21
2.015312
31
0.0
0
ARC
8
0
10
171.555706
20
2.315312
30
0.0
40
0.300000
50
270.000000
51
0.000000
0
LINE
8
0
10
171.855706
20
2.315312
30
0.0
11
171.855706
21
6.115312
31
0.0
0
ARC
8
0
10
172.355706
20
6.115312
30
0.0
40
0.500000
50
0.000000
51
180.000000
0
LINE
8
0
10
172.855706
20
6.115312
30
0.0
11
172.855706
21
2.315312
31
0.0
0
ARC
8
0
10
173.155706
20
2.315312
30
0.0
40
0.300000
50
180.000000
51
270.000000
0
LINE
8
0
10
173.155706
20
2.015312
30
0.0
11
175.460375
21
2.015312
31
0.0
0
ARC
8
0
10
175.460375
20
3.015312
30
0.0
40
1.000000
50
270.000000
51
324.745828
0
LINE
8
0
10
176.276975
20
2.438108
30
0.0
11
177.799796
21
4.592517
31
0.0
0
ARC
8
0
10
178.616395
20
4.015312
30
0.0
40
1.000000
50
90.000000
51
144.745828
0
LINE
8
0
10
178.616395
20
5.015312
30
0.0
11
179.717706
21
5.015312
31
0.0
0
ARC
8
0
10
179.717706
20
6.215312
30
0.0
40
1.200000
50
270.000000
51
299.981639
0
LINE
8
0
10
180.317373
20
5.175890
30
0.0
11
181.899317
21
6.088550
31
0.0
0
ARC
8
0
10
181.999261
20
5.915312
30
0.0
40
0.200000
50
90.000000
51
119.981639
0
LINE
8
0
10
181.999261
20
6.115312
30
0.0
11
182.205706
21
6.115312
31
0.0
0
ARC
8
0
10
182.205706
20
5.715312
30
0.0
40
0.400000
50
0.000000
51
90.000000
0
LINE
8
0
10
182.605706
20
5.715312
30
0.0
11
182.605706
21
2.315312
31
0.0
0
ARC
8
0
10
182.205706
20
2.315312
30
0.0
40
0.400000
50
270.000000
51
0.000000
0
LINE
8
0
10
182.205706
20
1.915312
30
0.0
11
181.999261
21
1.915312
31
0.0
0
ARC
8
0
10
181.999261
20
2.115312
30
0.0
40
0.200000
50
240.018361
51
270.000000
0
LINE
8
0
10
181.899317
20
1.942075
30
0.0
11
180.317373
21
2.854735
31
0.0
0
ARC
8
0
10
179.717706
20
1.815312
30
0.0
40
1.200000
50
60.018361
51
90.000000
0
LINE
8
0
10
179.717706
20
3.015312
30
0.0
11
179.289472
21
3.015312
31
0.0
0
ARC
8
0
10
179.289472
20
2.715312
30
0.0
40
0.300000
50
90.000000
51
144.745828
0
LINE
8
0
10
179.044492
20
2.888474
30
0.0
11
177.163053
21
0.226710
31
0.0
0
ARC
8
0
10
176.754753
20
0.515312
30
0.0
40
0.500000
50
270.000000
51
324.745828
0
LINE
8
0
10
176.754753
20
0.015312
30
0.0
11
133.456658
21
0.015312
31
0.0
0
ARC
8
0
10
133.456658
20
0.515312
30
0.0
40
0.500000
50
215.254172
51
270.000000
0
LINE
8
0
10
133.048358
20
0.226710
30
0.0
11
131.166919
21
2.888474
31
0.0
0
ARC
8
0
10
130.921939
20
2.715312
30
0.0
40
0.300000
50
35.254172
51
90.000000
0
LINE
8
0
10
130.921939
20
3.015312
30
0.0
11
130.493705
21
3.015312
31
0.0
0
ARC
8
0
10
130.493705
20
1.815312
30
0.0
40
1.200000
50
90.000000
51
119.981639
0
LINE
8
0
10
129.894038
20
2.854735
30
0.0
11
128.312095
21
1.942075
31
0.0
0
ARC
8
0
10
128.212150
20
2.115312
30
0.0
40
0.200000
50
270.000000
51
299.981639
0
LINE
8
0
10
128.212150
20
1.915312
30
0.0
11
128.005706
21
1.915312
31
0.0
0
ARC
8
0
10
128.005706
20
2.315312
30
0.0
40
0.400000
50
180.000000
51
270.000000
0
LINE
8
0
10
127.605706
20
2.315312
30
0.0
11
127.605706
21
5.715312
31
0.0
0
ARC
8
0
10
128.005706
20
5.715312
30
0.0
40
0.400000
50
90.000000
51
180.000000
0
LINE
8
0
10
128.005706
20
6.115312
30
0.0
11
128.212150
21
6.115312
31
0.0
0
ARC
8
0
10
128.212150
20
5.915312
30
0.0
40
0.200000
50
60.018361
51
90.000000
0
LINE
8
0
10
128.312095
20
6.088550
30
0.0
11
129.894038
21
5.175890
31
0.0
0
ARC
8
0
10
130.493705
20
6.215312
30
0.0
40
1.200000
50
240.018361
51
270.000000
0
LINE
8
0
10
130.493705
20
5.015312
30
0.0
11
131.595016
21
5.015312
31
0.0
0
ARC
8
0
10
131.595016
20
4.015312
30
0.0
40
1.000000
50
35.254172
51
90.000000
0
LINE
8
0
10
132.411615
20
4.592517
30
0.0
11
133.934436
21
2.438108
31
0.0
0
ARC
8
0
10
134.751036
20
3.015312
30
0.0
40
1.000000
50
215.254172
51
270.000000
0
LINE
8
0
10
134.751036
20
2.015312
30
0.0
11
137.055706
21
2.015312
31
0.0
0
ARC
8
0
10
137.055706
20
2.315312
30
0.0
40
0.300000
50
270.000000
51
0.000000
0
LINE
8
0
10
137.355706
20
2.315312
30
0.0
11
137.355706
21
6.115312
31
0.0
0
ARC
8
0
10
137.855706
20
6.115312
30
0.0
40
0.500000
50
0.000000
51
180.000000
0
LINE
8
0
10
138.355706
20
6.115312
30
0.0
11
138.355706
21
2.315312
31
0.0
0
ARC
8
0
10
138.655706
20
2.315312
30
0.0
40
0.300000
50
180.000000
51
270.000000
0
LINE
8
0
10
138.655706
20
2.015312
30
0.0
11
148.555706
21
2.015312
31
0.0
0
ARC
8
0
10
148.555706
20
2.315312
30
0.0
40
0.300000
50
270.000000
51
0.000000
0
LINE
8
0
10
148.855706
20
2.315312
30
0.0
11
148.855706
21
6.115312
31
0.0
0
ARC
8
0
10
149.355706
20
6.115312
30
0.0
40
0.500000
50
0.000000
51
180.000000
0
LINE
8
0
10
149.855706
20
6.115312
30
0.0
11
149.855706
21
2.315312
31
0.0
0
ARC
8
0
10
150.155706
20
2.315312
30
0.0
40
0.300000
50
180.000000
51
270.000000
0
LINE
8
0
10
3.700000
20
38.000009
30
0.0
11
3.700000
21
36.100009
31
0.0
0
ARC
8
0
10
3.200000
20
36.100009
30
0.0
40
0.500000
50
270.000000
51
0.000000
0
LINE
8
0
10
3.200000
20
35.600009
30
0.0
11
1.800000
21
35.600009
31
0.0
0
ARC
8
0
10
1.800000
20
35.300009
30
0.0
40
0.300000
50
90.000000
51
180.000000
0
LINE
8
0
10
1.500000
20
35.300009
30
0.0
11
1.500000
21
20.583872
31
0.0
0
ARC
8
0
10
2.000000
20
20.583872
30
0.0
40
0.500000
50
180.000000
51
264.000000
0
LINE
8
0
10
1.947736
20
20.086611
30
0.0
11
7.772212
21
19.474434
31
0.0
0
ARC
8
0
10
7.803570
20
19.772791
30
0.0
40
0.300000
50
264.000000
51
0.000000
0
LINE
8
0
10
8.103570
20
19.772791
30
0.0
11
8.103570
21
20.700009
31
0.0
0
ARC
8
0
10
8.403570
20
20.700009
30
0.0
40
0.300000
50
90.000000
51
180.000000
0
LINE
8
0
10
8.403570
20
21.000009
30
0.0
11
12.103570
21
21.000009
31
0.0
0
LINE
8
0
10
12.103570
20
21.000009
30
0.0
11
12.403570
21
20.700009
31
0.0
0
LINE
8
0
10
12.403570
20
20.700009
30
0.0
11
12.703570
21
21.000009
31
0.0
0
LINE
8
0
10
12.703570
20
21.000009
30
0.0
11
16.403570
21
21.000009
31
0.0
0
ARC
8
0
10
16.403570
20
20.700009
30
0.0
40
0.300000
50
0.000000
51
90.000000
0
LINE
8
0
10
16.703570
20
20.700009
30
0.0
11
16.703570
21
19.700009
31
0.0
0
ARC
8
0
10
17.003570
20
19.700009
30
0.0
40
0.300000
50
180.000000
51
270.000000
0
LINE
8
0
10
17.003570
20
19.400009
30
0.0
11
17.603570
21
19.400009
31
0.0
0
ARC
8
0
10
17.603570
20
19.100009
30
0.0
40
0.300000
50
0.000000
51
90.000000
0
LINE
8
0
10
17.903570
20
19.100009
30
0.0
11
17.903570
21
18.300009
31
0.0
0
ARC
8
0
10
17.603570
20
18.300009
30
0.0
40
0.300000
50
270.000000
51
0.000000
0
LINE
8
0
10
17.603570
20
18.000009
30
0.0
11
15.053570
21
18.000009
31
0.0
0
ARC
8
0
10
15.053570
20
18.300009
30
0.0
40
0.300000
50
180.000000
51
270.000000
0
LINE
8
0
10
14.753570
20
18.300009
30
0.0
11
14.753570
21
18.500009
31
0.0
0
ARC
8
0
10
13.753570
20
18.500009
30
0.0
40
1.000000
50
0.000000
51
90.000000
0
LINE
8
0
10
13.753570
20
19.500009
30
0.0
11
11.053570
21
19.500009
31
0.0
0
ARC
8
0
10
11.053570
20
18.500009
30
0.0
40
1.000000
50
90.000000
51
180.000000
0
LINE
8
0
10
10.053570
20
18.500009
30
0.0
11
10.053570
21
18.300009
31
0.0
0
ARC
8
0
10
9.753570
20
18.300009
30
0.0
40
0.300000
50
270.000000
51
0.000000
0
LINE
8
0
10
9.753570
20
18.000009
30
0.0
11
7.450273
21
18.000009
31
0.0
0
LINE
8
0
10
7.450273
20
18.000009
30
0.0
11
1.343207
21
18.641888
31
0.0
0
ARC
8
0
10
1.500000
20
20.133670
30
0.0
40
1.500000
50
180.000000
51
264.000000
0
LINE
8
0
10
0.000000
20
20.133670
30
0.0
11
0.000000
21
44.100009
31
0.0
0
ARC
8
0
10
1.500000
20
44.100009
30
0.0
40
1.500000
50
90.000000
51
180.000000
0
LINE
8
0
10
1.500000
20
45.600009
30
0.0
11
3.400000
21
45.600009
31
0.0
0
ARC
8
0
10
3.400000
20
45.300009
30
0.0
40
0.300000
50
0.000000
51
90.000000
0
LINE
8
0
10
3.700000
20
45.300009
30
0.0
11
3.700000
21
43.200009
31
0.0
0
ARC
8
0
10
3.400000
20
43.200009
30
0.0
40
0.300000
50
270.000000
51
0.000000
0
LINE
8
0
10
3.400000
20
42.900009
30
0.0
11
3.000000
21
42.900009
31
0.0
0
ARC
8
0
10
3.000000
20
43.200009
30
0.0
40
0.300000
50
180.000000
51
270.000000
0
LINE
8
0
10
2.700000
20
43.200009
30
0.0
11
2.700000
21
44.100009
31
0.0
0
ARC
8
0
10
2.400000
20
44.100009
30
0.0
40
0.300000
50
0.000000
51
90.000000
0
LINE
8
0
10
2.400000
20
44.400009
30
0.0
11
1.702022
21
44.400009
31
0.0
0
ARC
8
0
10
1.702022
20
44.100009
30
0.0
40
0.300000
50
90.000000
51
180.000000
0
LINE
8
0
10
1.402022
20
44.100009
30
0.0
11
1.402022
21
37.100009
31
0.0
0
ARC
8
0
10
1.702022
20
37.100009
30
0.0
40
0.300000
50
180.000000
51
270.000000
0
LINE
8
0
10
1.702022
20
36.800009
30
0.0
11
2.400000
21
36.800009
31
0.0
0
ARC
8
0
10
2.400000
20
37.100009
30
0.0
40
0.300000
50
270.000000
51
0.000000
0
LINE
8
0
10
2.700000
20
37.100009
30
0.0
11
2.700000
21
38.000009
31
0.0
0
ARC
8
0
10
3.000000
20
38.000009
30
0.0
40
0.300000
50
90.000000
51
180.000000
0
LINE
8
0
10
3.000000
20
38.300009
30
0.0
11
3.400000
21
38.300009
31
0.0
0
ARC
8
0
10
3.400000
20
38.000009
30
0.0
40
0.300000
50
0.000000
51
90.000000
0
ARC
8
0
10
59.203569
20
15.600009
30
0.0
40
0.300000
50
270.000000
51
0.000000
0
LINE
8
0
10
59.503569
20
15.600009
30
0.0
11
59.503569
21
18.600009
31
0.0
0
ARC
8
0
10
60.003569
20
18.600009
30
0.0
40
0.500000
50
90.000000
51
180.000000
0
LINE
8
0
10
60.003569
20
19.100009
30
0.0
11
68.803569
21
19.100009
31
0.0
0
ARC
8
0
10
68.803569
20
18.600009
30
0.0
40
0.500000
50
0.000000
51
90.000000
0
LINE
8
0
10
69.303569
20
18.600009
30
0.0
11
69.303569
21
15.600009
31
0.0
0
ARC
8
0
10
69.603569
20
15.600009
30
0.0
40
0.300000
50
180.000000
51
270.000000
0
LINE
8
0
10
69.603569
20
15.300009
30
0.0
11
70.603569
21
15.300009
31
0.0
0
ARC
8
0
10
70.603569
20
15.600009
30
0.0
40
0.300000
50
270.000000
51
0.000000
0
LINE
8
0
10
70.903569
20
15.600009
30
0.0
11
70.903569
21
18.600009
31
0.0
0
ARC
8
0
10
71.403569
20
18.600009
30
0.0
40
0.500000
50
90.000000
51
180.000000
0
LINE
8
0
10
71.403569
20
19.100009
30
0.0
11
83.803569
21
19.100009
31
0.0
0
ARC
8
0
10
83.803569
20
18.600009
30
0.0
40
0.500000
50
0.000000
51
90.000000
0
LINE
8
0
10
84.303569
20
18.600009
30
0.0
11
84.303569
21
15.600009
31
0.0
0
ARC
8
0
10
84.603569
20
15.600009
30
0.0
40
0.300000
50
180.000000
51
270.000000
0
LINE
8
0
10
84.603569
20
15.300009
30
0.0
11
85.603569
21
15.300009
31
0.0
0
ARC
8
0
10
85.603569
20
15.600009
30
0.0
40
0.300000
50
270.000000
51
0.000000
0
LINE
8
0
10
85.903569
20
15.600009
30
0.0
11
85.903569
21
18.600009
31
0.0
0
ARC
8
0
10
86.403569
20
18.600009
30
0.0
40
0.500000
50
90.000000
51
180.000000
0
LINE
8
0
10
86.403569
20
19.100009
30
0.0
11
95.203570
21
19.100009
31
0.0
0
ARC
8
0
10
95.203570
20
18.600009
30
0.0
40
0.500000
50
0.000000
51
90.000000
0
LINE
8
0
10
95.703570
20
18.600009
30
0.0
11
95.703570
21
15.600009
31
0.0
0
ARC
8
0
10
96.003569
20
15.600009
30
0.0
40
0.300000
50
180.000000
51
270.000000
0
LINE
8
0
10
96.003569
20
15.300009
30
0.0
11
97.003569
21
15.300009
31
0.0
0
ARC
8
0
10
97.003569
20
15.600009
30
0.0
40
0.300000
50
270.000000
51
0.000000
0
LINE
8
0
10
97.303569
20
15.600009
30
0.0
11
97.303569
21
19.600009
31
0.0
0
ARC
8
0
10
98.803569
20
19.600009
30
0.0
40
1.500000
50
90.000000
51
180.000000
0
LINE
8
0
10
98.803569
20
21.100009
30
0.0
11
104.303569
21
21.100009
31
0.0
0
ARC
8
0
10
104.303569
20
21.900009
30
0.0
40
0.800000
50
270.000000
51
0.000000
0
LINE
8
0
10
105.103569
20
21.900009
30
0.0
11
105.103569
21
22.486121
31
0.0
0
ARC
8
0
10
104.103569
20
22.486121
30
0.0
40
1.000000
50
0.000000
51
12.994617
0
LINE
8
0
10
105.077960
20
22.710980
30
0.0
11
103.659466
21
28.857786
31
0.0
0
ARC
8
0
10
104.633858
20
29.082646
30
0.0
40
1.000000
50
165.074419
51
192.994617
0
LINE
8
0
10
103.667596
20
29.340210
30
0.0
11
105.623401
21
36.677478
31
0.0
0
ARC
8
0
10
104.657139
20
36.935042
30
0.0
40
1.000000
50
345.074419
51
0.000000
0
LINE
8
0
10
105.657139
20
36.935042
30
0.0
11
105.657139
21
37.819519
31
0.0
0
ARC
8
0
10
105.357139
20
37.819519
30
0.0
40
0.300000
50
0.000000
51
68.962489
0
LINE
8
0
10
105.464833
20
38.099523
30
0.0
11
105.395875
21
38.126045
31
0.0
0
ARC
8
0
10
105.503569
20
38.406049
30
0.0
40
0.300000
50
180.000000
51
248.962489
0
LINE
8
0
10
105.203570
20
38.406049
30
0.0
11
105.203570
21
40.275745
31
0.0
0
ARC
8
0
10
105.503569
20
40.275745
30
0.0
40
0.300000
50
135.000000
51
180.000000
0
LINE
8
0
10
105.291437
20
40.487877
30
0.0
11
105.715701
21
40.912141
31
0.0
0
ARC
8
0
10
105.927833
20
40.700009
30
0.0
40
0.300000
50
90.000000
51
135.000000
0
LINE
8
0
10
105.927833
20
41.000009
30
0.0
11
106.703570
21
41.000009
31
0.0
0
ARC
8
0
10
106.703570
20
41.300009
30
0.0
40
0.300000
50
270.000000
51
0.000000
0
LINE
8
0
10
107.003569
20
41.300009
30
0.0
11
107.003569
21
43.100009
31
0.0
0
ARC
8
0
10
106.703570
20
43.100009
30
0.0
40
0.300000
50
0.000000
51
90.000000
0
LINE
8
0
10
106.703570
20
43.400009
30
0.0
11
94.803569
21
43.400009
31
0.0
0
ARC
8
0
10
94.803569
20
42.400009
30
0.0
40
1.000000
50
90.000000
51
180.000000
0
LINE
8
0
10
93.803569
20
42.400009
30
0.0
11
93.803569
21
38.014631
31
0.0
0
ARC
8
0
10
94.603569
20
38.014631
30
0.0
40
0.800000
50
180.000000
51
255.068583
0
LINE
8
0
10
94.397439
20
37.241644
30
0.0
11
95.080868
21
37.059396
31
0.0
0
ARC
8
0
10
95.003569
20
36.769525
30
0.0
40
0.300000
50
0.000000
51
75.068583
0
LINE
8
0
10
95.303569
20
36.769525
30
0.0
11
95.303569
21
21.600009
31
0.0
0
ARC
8
0
10
94.803569
20
21.600009
30
0.0
40
0.500000
50
270.000000
51
0.000000
0
LINE
8
0
10
94.803569
20
21.100009
30
0.0
11
60.403569
21
21.100009
31
0.0
0
ARC
8
0
10
60.403569
20
21.600009
30
0.0
40
0.500000
50
180.000000
51
270.000000
0
LINE
8
0
10
59.903569
20
21.600009
30
0.0
11
59.903569
21
36.769525
31
0.0
0
ARC
8
0
10
60.203569
20
36.769525
30
0.0
40
0.300000
50
104.931417
51
180.000000
0
LINE
8
0
10
60.126270
20
37.059396
30
0.0
11
60.809699
21
37.241644
31
0.0
0
ARC
8
0
10
60.603569
20
38.014631
30
0.0
40
0.800000
50
284.931417
51
0.000000
0
LINE
8
0
10
61.403569
20
38.014631
30
0.0
11
61.403569
21
42.400009
31
0.0
0
ARC
8
0
10
60.403569
20
42.400009
30
0.0
40
1.000000
50
0.000000
51
90.000000
0
LINE
8
0
10
60.403569
20
43.400009
30
0.0
11
48.503569
21
43.400009
31
0.0
0
ARC
8
0
10
48.503569
20
43.100009
30
0.0
40
0.300000
50
90.000000
51
180.000000
0
LINE
8
0
10
48.203569
20
43.100009
30
0.0
11
48.203569
21
41.300009
31
0.0
0
ARC
8
0
10
48.503569
20
41.300009
30
0.0
40
0.300000
50
180.000000
51
270.000000
0
LINE
8
0
10
48.503569
20
41.000009
30
0.0
11
49.279305
21
41.000009
31
0.0
0
ARC
8
0
10
49.279305
20
40.700009
30
0.0
40
0.300000
50
45.000000
51
90.000000
0
LINE
8
0
10
49.491437
20
40.912141
30
0.0
11
49.915701
21
40.487877
31
0.0
0
ARC
8
0
10
49.703569
20
40.275745
30
0.0
40
0.300000
50
0.000000
51
45.000000
0
LINE
8
0
10
50.003569
20
40.275745
30
0.0
11
50.003569
21
38.406049
31
0.0
0
ARC
8
0
10
49.703569
20
38.406049
30
0.0
40
0.300000
50
291.037511
51
0.000000
0
LINE
8
0
10
49.811263
20
38.126045
30
0.0
11
49.742305
21
38.099523
31
0.0
0
ARC
8
0
10
49.849998
20
37.819519
30
0.0
40
0.300000
50
111.037511
51
180.000000
0
LINE
8
0
10
49.549998
20
37.819519
30
0.0
11
49.549998
21
36.935042
31
0.0
0
ARC
8
0
10
50.549998
20
36.935042
30
0.0
40
1.000000
50
180.000000
51
194.925581
0
LINE
8
0
10
49.583737
20
36.677478
30
0.0
11
51.539541
21
29.340210
31
0.0
0
ARC
8
0
10
50.573280
20
29.082646
30
0.0
40
1.000000
50
347.005383
51
14.925581
0
LINE
8
0
10
51.547671
20
28.857786
30
0.0
11
50.129178
21
22.710980
31
0.0
0
ARC
8
0
10
51.103569
20
22.486121
30
0.0
40
1.000000
50
167.005383
51
180.000000
0
LINE
8
0
10
50.103569
20
22.486121
30
0.0
11
50.103569
21
21.900009
31
0.0
0
ARC
8
0
10
50.903569
20
21.900009
30
0.0
40
0.800000
50
180.000000
51
270.000000
0
LINE
8
0
10
50.903569
20
21.100009
30
0.0
11
56.403569
21
21.100009
31
0.0
0
ARC
8
0
10
56.403569
20
19.600009
30
0.0
40
1.500000
50
0.000000
51
90.000000
0
LINE
8
0
10
57.903569
20
19.600009
30
0.0
11
57.903569
21
15.600009
31
0.0
0
ARC
8
0
10
58.203569
20
15.600009
30
0.0
40
0.300000
50
180.000000
51
270.000000
0
LINE
8
0
10
58.203569
20
15.300009
30
0.0
11
59.203569
21
15.300009
31
0.0
0
LINE
8
0
10
51.476437
20
23.212439
30
0.0
11
52.784018
21
28.878622
31
0.0
0
ARC
8
0
10
51.809627
20
29.103481
30
0.0
40
1.000000
50
347.005383
51
14.925581
0
LINE
8
0
10
52.775888
20
29.361046
30
0.0
11
50.760685
21
36.921151
31
0.0
0
ARC
8
0
10
51.050563
20
36.998420
30
0.0
40
0.300000
50
115.705312
51
194.925581
0
ARC
8
0
10
50.703569
20
37.719249
30
0.0
40
0.500000
50
295.705312
51
0.000000
0
LINE
8
0
10
51.203569
20
37.719249
30
0.0
11
51.203569
21
40.651677
31
0.0
0
ARC
8
0
10
50.903569
20
40.651677
30
0.0
40
0.300000
50
0.000000
51
56.251011
0
ARC
8
0
10
51.403569
20
41.400009
30
0.0
40
0.600000
50
33.748989
51
236.251011
0
ARC
8
0
10
52.151900
20
41.900009
30
0.0
40
0.300000
50
213.748989
51
270.000000
0
LINE
8
0
10
52.151900
20
41.600009
30
0.0
11
59.103569
21
41.600009
31
0.0
0
ARC
8
0
10
59.103569
20
41.100009
30
0.0
40
0.500000
50
0.000000
51
90.000000
0
LINE
8
0
10
59.603569
20
41.100009
30
0.0
11
59.603569
21
39.167049
31
0.0
0
ARC
8
0
10
59.103569
20
39.167049
30
0.0
40
0.500000
50
284.931417
51
0.000000
0
LINE
8
0
10
59.232400
20
38.683931
30
0.0
11
58.674738
21
38.535221
31
0.0
0
ARC
8
0
10
58.803569
20
38.052104
30
0.0
40
0.500000
50
104.931417
51
180.000000
0
LINE
8
0
10
58.303569
20
38.052104
30
0.0
11
58.303569
21
23.100009
31
0.0
0
ARC
8
0
10
57.803569
20
23.100009
30
0.0
40
0.500000
50
270.000000
51
0.000000
0
LINE
8
0
10
57.803569
20
22.600009
30
0.0
11
51.963633
21
22.600009
31
0.0
0
ARC
8
0
10
51.963633
20
23.100009
30
0.0
40
0.500000
50
167.005383
51
270.000000
0
LINE
8
0
10
102.431250
20
29.361046
30
0.0
11
104.446453
21
36.921151
31
0.0
0
ARC
8
0
10
104.156575
20
36.998420
30
0.0
40
0.300000
50
345.074419
51
64.294688
0
ARC
8
0
10
104.503569
20
37.719249
30
0.0
40
0.500000
50
180.000000
51
244.294688
0
LINE
8
0
10
104.003569
20
37.719249
30
0.0
11
104.003569
21
40.651677
31
0.0
0
ARC
8
0
10
104.303569
20
40.651677
30
0.0
40
0.300000
50
123.748989
51
180.000000
0
ARC
8
0
10
103.803569
20
41.400009
30
0.0
40
0.600000
50
303.748989
51
146.251011
0
ARC
8
0
10
103.055237
20
41.900009
30
0.0
40
0.300000
50
270.000000
51
326.251011
0
LINE
8
0
10
103.055237
20
41.600009
30
0.0
11
96.103569
21
41.600009
31
0.0
0
ARC
8
0
10
96.103569
20
41.100009
30
0.0
40
0.500000
50
90.000000
51
180.000000
0
LINE
8
0
10
95.603569
20
41.100009
30
0.0
11
95.603569
21
39.167049
31
0.0
0
ARC
8
0
10
96.103569
20
39.167049
30
0.0
40
0.500000
50
180.000000
51
255.068583
0
LINE
8
0
10
95.974738
20
38.683931
30
0.0
11
96.532400
21
38.535221
31
0.0
0
ARC
8
0
10
96.403569
20
38.052104
30
0.0
40
0.500000
50
0.000000
51
75.068583
0
LINE
8
0
10
96.903569
20
38.052104
30
0.0
11
96.903569
21
23.100009
31
0.0
0
ARC
8
0
10
97.403569
20
23.100009
30
0.0
40
0.500000
50
180.000000
51
270.000000
0
LINE
8
0
10
97.403569
20
22.600009
30
0.0
11
103.243505
21
22.600009
31
0.0
0
ARC
8
0
10
103.243505
20
23.100009
30
0.0
40
0.500000
50
270.000000
51
12.994617
0
LINE
8
0
10
103.730701
20
23.212439
30
0.0
11
102.423120
21
28.878622
31
0.0
0
ARC
8
0
10
103.397511
20
29.103481
30
0.0
40
1.000000
50
165.074419
51
192.994617
0
ARC
8
0
10
136.705705
20
15.600009
30
0.0
40
0.300000
50
270.000000
51
0.000000
0
LINE
8
0
10
137.005706
20
15.600009
30
0.0
11
137.005706
21
18.600009
31
0.0
0
ARC
8
0
10
137.505706
20
18.600009
30
0.0
40
0.500000
50
90.000000
51
180.000000
0
LINE
8
0
10
137.505706
20
19.100009
30
0.0
11
146.305706
21
19.100009
31
0.0
0
ARC
8
0
10
146.305706
20
18.600009
30
0.0
40
0.500000
50
0.000000
51
90.000000
0
LINE
8
0
10
146.805706
20
18.600009
30
0.0
11
146.805706
21
15.600009
31
0.0
0
ARC
8
0
10
147.105706
20
15.600009
30
0.0
40
0.300000
50
180.000000
51
270.000000
0
LINE
8
0
10
147.105706
20
15.300009
30
0.0
11
148.105706
21
15.300009
31
0.0
0
ARC
8
0
10
148.105706
20
15.600009
30
0.0
40
0.300000
50
270.000000
51
0.000000
0
LINE
8
0
10
148.405705
20
15.600009
30
0.0
11
148.405705
21
18.600009
31
0.0
0
ARC
8
0
10
148.905705
20
18.600009
30
0.0
40
0.500000
50
90.000000
51
180.000000
0
LINE
8
0
10
148.905705
20
19.100009
30
0.0
11
161.305706
21
19.100009
31
0.0
0
ARC
8
0
10
161.305706
20
18.600009
30
0.0
40
0.500000
50
0.000000
51
90.000000
0
LINE
8
0
10
161.805706
20
18.600009
30
0.0
11
161.805706
21
15.600009
31
0.0
0
ARC
8
0
10
162.105706
20
15.600009
30
0.0
40
0.300000
50
180.000000
51
270.000000
0
LINE
8
0
10
162.105706
20
15.300009
30
0.0
11
163.105706
21
15.300009
31
0.0
0
ARC
8
0
10
163.105706
20
15.600009
30
0.0
40
0.300000
50
270.000000
51
0.000000
0
LINE
8
0
10
163.405705
20
15.600009
30
0.0
11
163.405705
21
18.600009
31
0.0
0
ARC
8
0
10
163.905705
20
18.600009
30
0.0
40
0.500000
50
90.000000
51
180.000000
0
LINE
8
0
10
163.905705
20
19.100009
30
0.0
11
172.705705
21
19.100009
31
0.0
0
ARC
8
0
10
172.705705
20
18.600009
30
0.0
40
0.500000
50
0.000000
51
90.000000
0
LINE
8
0
10
173.205705
20
18.600009
30
0.0
11
173.205705
21
15.600009
31
0.0
0
ARC
8
0
10
173.505706
20
15.600009
30
0.0
40
0.300000
50
180.000000
51
270.000000
0
LINE
8
0
10
173.505706
20
15.300009
30
0.0
11
174.505706
21
15.300009
31
0.0
0
ARC
8
0
10
174.505706
20
15.600009
30
0.0
40
0.300000
50
270.000000
51
0.000000
0
LINE
8
0
10
174.805706
20
15.600009
30
0.0
11
174.805706
21
19.600009
31
0.0
0
ARC
8
0
10
176.305706
20
19.600009
30
0.0
40
1.500000
50
90.000000
51
180.000000
0
LINE
8
0
10
176.305706
20
21.100009
30
0.0
11
181.805706
21
21.100009
31
0.0
0
ARC
8
0
10
181.805706
20
21.900009
30
0.0
40
0.800000
50
270.000000
51
0.000000
0
LINE
8
0
10
182.605706
20
21.900009
30
0.0
11
182.605706
21
22.486121
31
0.0
0
ARC
8
0
10
181.605706
20
22.486121
30
0.0
40
1.000000
50
0.000000
51
12.994617
0
LINE
8
0
10
182.580096
20
22.710980
30
0.0
11
181.161602
21
28.857786
31
0.0
0
ARC
8
0
10
182.135995
20
29.082646
30
0.0
40
1.000000
50
165.074419
51
192.994617
0
LINE
8
0
10
181.169733
20
29.340210
30
0.0
11
183.125538
21
36.677478
31
0.0
0
ARC
8
0
10
182.159276
20
36.935042
30
0.0
40
1.000000
50
345.074419
51
0.000000
0
LINE
8
0
10
183.159276
20
36.935042
30
0.0
11
183.159276
21
37.819519
31
0.0
0
ARC
8
0
10
182.859275
20
37.819519
30
0.0
40
0.300000
50
0.000000
51
68.962489
0
LINE
8
0
10
182.966970
20
38.099523
30
0.0
11
182.898012
21
38.126045
31
0.0
0
ARC
8
0
10
183.005706
20
38.406049
30
0.0
40
0.300000
50
180.000000
51
248.962489
0
LINE
8
0
10
182.705705
20
38.406049
30
0.0
11
182.705705
21
40.275745
31
0.0
0
ARC
8
0
10
183.005706
20
40.275745
30
0.0
40
0.300000
50
135.000000
51
180.000000
0
LINE
8
0
10
182.793574
20
40.487877
30
0.0
11
183.217838
21
40.912141
31
0.0
0
ARC
8
0
10
183.429969
20
40.700009
30
0.0
40
0.300000
50
90.000000
51
135.000000
0
LINE
8
0
10
183.429969
20
41.000009
30
0.0
11
184.205705
21
41.000009
31
0.0
0
ARC
8
0
10
184.205705
20
41.300009
30
0.0
40
0.300000
50
270.000000
51
0.000000
0
LINE
8
0
10
184.505706
20
41.300009
30
0.0
11
184.505706
21
43.100009
31
0.0
0
ARC
8
0
10
184.205705
20
43.100009
30
0.0
40
0.300000
50
0.000000
51
90.000000
0
LINE
8
0
10
184.205705
20
43.400009
30
0.0
11
172.305706
21
43.400009
31
0.0
0
ARC
8
0
10
172.305706
20
42.400009
30
0.0
40
1.000000
50
90.000000
51
180.000000
0
LINE
8
0
10
171.305706
20
42.400009
30
0.0
11
171.305706
21
38.014631
31
0.0
0
ARC
8
0
10
172.105706
20
38.014631
30
0.0
40
0.800000
50
180.000000
51
255.068583
0
LINE
8
0
10
171.899575
20
37.241644
30
0.0
11
172.583004
21
37.059396
31
0.0
0
ARC
8
0
10
172.505706
20
36.769525
30
0.0
40
0.300000
50
0.000000
51
75.068583
0
LINE
8
0
10
172.805706
20
36.769525
30
0.0
11
172.805706
21
21.600009
31
0.0
0
ARC
8
0
10
172.305706
20
21.600009
30
0.0
40
0.500000
50
270.000000
51
0.000000
0
LINE
8
0
10
172.305706
20
21.100009
30
0.0
11
137.905705
21
21.100009
31
0.0
0
ARC
8
0
10
137.905705
20
21.600009
30
0.0
40
0.500000
50
180.000000
51
270.000000
0
LINE
8
0
10
137.405705
20
21.600009
30
0.0
11
137.405705
21
36.769525
31
0.0
0
ARC
8
0
10
137.705705
20
36.769525
30
0.0
40
0.300000
50
104.931417
51
180.000000
0
LINE
8
0
10
137.628407
20
37.059396
30
0.0
11
138.311836
21
37.241644
31
0.0
0
ARC
8
0
10
138.105706
20
38.014631
30
0.0
40
0.800000
50
284.931417
51
0.000000
0
LINE
8
0
10
138.905705
20
38.014631
30
0.0
11
138.905705
21
42.400009
31
0.0
0
ARC
8
0
10
137.905705
20
42.400009
30
0.0
40
1.000000
50
0.000000
51
90.000000
0
LINE
8
0
10
137.905705
20
43.400009
30
0.0
11
126.005706
21
43.400009
31
0.0
0
ARC
8
0
10
126.005706
20
43.100009
30
0.0
40
0.300000
50
90.000000
51
180.000000
0
LINE
8
0
10
125.705705
20
43.100009
30
0.0
11
125.705705
21
41.300009
31
0.0
0
ARC
8
0
10
126.005706
20
41.300009
30
0.0
40
0.300000
50
180.000000
51
270.000000
0
LINE
8
0
10
126.005706
20
41.000009
30
0.0
11
126.781441
21
41.000009
31
0.0
0
ARC
8
0
10
126.781441
20
40.700009
30
0.0
40
0.300000
50
45.000000
51
90.000000
0
LINE
8
0
10
126.993573
20
40.912141
30
0.0
11
127.417837
21
40.487877
31
0.0
0
ARC
8
0
10
127.205705
20
40.275745
30
0.0
40
0.300000
50
0.000000
51
45.000000
0
LINE
8
0
10
127.505706
20
40.275745
30
0.0
11
127.505706
21
38.406049
31
0.0
0
ARC
8
0
10
127.205705
20
38.406049
30
0.0
40
0.300000
50
291.037511
51
0.000000
0
LINE
8
0
10
127.313400
20
38.126045
30
0.0
11
127.244442
21
38.099523
31
0.0
0
ARC
8
0
10
127.352135
20
37.819519
30
0.0
40
0.300000
50
111.037511
51
180.000000
0
LINE
8
0
10
127.052134
20
37.819519
30
0.0
11
127.052134
21
36.935042
31
0.0
0
ARC
8
0
10
128.052134
20
36.935042
30
0.0
40
1.000000
50
180.000000
51
194.925581
0
LINE
8
0
10
127.085874
20
36.677478
30
0.0
11
129.041678
21
29.340210
31
0.0
0
ARC
8
0
10
128.075416
20
29.082646
30
0.0
40
1.000000
50
347.005383
51
14.925581
0
LINE
8
0
10
129.049808
20
28.857786
30
0.0
11
127.631315
21
22.710980
31
0.0
0
ARC
8
0
10
128.605706
20
22.486121
30
0.0
40
1.000000
50
167.005383
51
180.000000
0
LINE
8
0
10
127.605706
20
22.486121
30
0.0
11
127.605706
21
21.900009
31
0.0
0
ARC
8
0
10
128.405705
20
21.900009
30
0.0
40
0.800000
50
180.000000
51
270.000000
0
LINE
8
0
10
128.405705
20
21.100009
30
0.0
11
133.905705
21
21.100009
31
0.0
0
ARC
8
0
10
133.905705
20
19.600009
30
0.0
40
1.500000
50
0.000000
51
90.000000
0
LINE
8
0
10
135.405705
20
19.600009
30
0.0
11
135.405705
21
15.600009
31
0.0
0
ARC
8
0
10
135.705705
20
15.600009
30
0.0
40
0.300000
50
180.000000
51
270.000000
0
LINE
8
0
10
135.705705
20
15.300009
30
0.0
11
136.705705
21
15.300009
31
0.0
0
LINE
8
0
10
128.978574
20
23.212439
30
0.0
11
130.286154
21
28.878622
31
0.0
0
ARC
8
0
10
129.311764
20
29.103481
30
0.0
40
1.000000
50
347.005383
51
14.925581
0
LINE
8
0
10
130.278024
20
29.361046
30
0.0
11
128.262822
21
36.921151
31
0.0
0
ARC
8
0
10
128.552699
20
36.998420
30
0.0
40
0.300000
50
115.705312
51
194.925581
0
ARC
8
0
10
128.205705
20
37.719249
30
0.0
40
0.500000
50
295.705312
51
0.000000
0
LINE
8
0
10
128.705705
20
37.719249
30
0.0
11
128.705705
21
40.651677
31
0.0
0
ARC
8
0
10
128.405705
20
40.651677
30
0.0
40
0.300000
50
0.000000
51
56.251011
0
ARC
8
0
10
128.905705
20
41.400009
30
0.0
40
0.600000
50
33.748989
51
236.251011
0
ARC
8
0
10
129.654036
20
41.900009
30
0.0
40
0.300000
50
213.748989
51
270.000000
0
LINE
8
0
10
129.654036
20
41.600009
30
0.0
11
136.605706
21
41.600009
31
0.0
0
ARC
8
0
10
136.605706
20
41.100009
30
0.0
40
0.500000
50
0.000000
51
90.000000
0
LINE
8
0
10
137.105706
20
41.100009
30
0.0
11
137.105706
21
39.167049
31
0.0
0
ARC
8
0
10
136.605706
20
39.167049
30
0.0
40
0.500000
50
284.931417
51
0.000000
0
LINE
8
0
10
136.734537
20
38.683931
30
0.0
11
136.176875
21
38.535221
31
0.0
0
ARC
8
0
10
136.305706
20
38.052104
30
0.0
40
0.500000
50
104.931417
51
180.000000
0
LINE
8
0
10
135.805706
20
38.052104
30
0.0
11
135.805706
21
23.100009
31
0.0
0
ARC
8
0
10
135.305706
20
23.100009
30
0.0
40
0.500000
50
270.000000
51
0.000000
0
LINE
8
0
10
135.305706
20
22.600009
30
0.0
11
129.465769
21
22.600009
31
0.0
0
ARC
8
0
10
129.465769
20
23.100009
30
0.0
40
0.500000
50
167.005383
51
270.000000
0
LINE
8
0
10
179.933387
20
29.361046
30
0.0
11
181.948589
21
36.921151
31
0.0
0
ARC
8
0
10
181.658712
20
36.998420
30
0.0
40
0.300000
50
345.074419
51
64.294688
0
ARC
8
0
10
182.005706
20
37.719249
30
0.0
40
0.500000
50
180.000000
51
244.294688
0
LINE
8
0
10
181.505706
20
37.719249
30
0.0
11
181.505706
21
40.651677
31
0.0
0
ARC
8
0
10
181.805706
20
40.651677
30
0.0
40
0.300000
50
123.748989
51
180.000000
0
ARC
8
0
10
181.305706
20
41.400009
30
0.0
40
0.600000
50
303.748989
51
146.251011
0
ARC
8
0
10
180.557374
20
41.900009
30
0.0
40
0.300000
50
270.000000
51
326.251011
0
LINE
8
0
10
180.557374
20
41.600009
30
0.0
11
173.605706
21
41.600009
31
0.0
0
ARC
8
0
10
173.605706
20
41.100009
30
0.0
40
0.500000
50
90.000000
51
180.000000
0
LINE
8
0
10
173.105706
20
41.100009
30
0.0
11
173.105706
21
39.167049
31
0.0
0
ARC
8
0
10
173.605706
20
39.167049
30
0.0
40
0.500000
50
180.000000
51
255.068583
0
LINE
8
0
10
173.476875
20
38.683931
30
0.0
11
174.034537
21
38.535221
31
0.0
0
ARC
8
0
10
173.905705
20
38.052104
30
0.0
40
0.500000
50
0.000000
51
75.068583
0
LINE
8
0
10
174.405705
20
38.052104
30
0.0
11
174.405705
21
23.100009
31
0.0
0
ARC
8
0
10
174.905705
20
23.100009
30
0.0
40
0.500000
50
180.000000
51
270.000000
0
LINE
8
0
10
174.905705
20
22.600009
30
0.0
11
180.745642
21
22.600009
31
0.0
0
ARC
8
0
10
180.745642
20
23.100009
30
0.0
40
0.500000
50
270.000000
51
12.994617
0
LINE
8
0
10
181.232837
20
23.212439
30
0.0
11
179.925257
21
28.878622
31
0.0
0
ARC
8
0
10
180.899647
20
29.103481
30
0.0
40
1.000000
50
165.074419
51
192.994617
0
ATTDEF
8
0
10
0.000000
20
0.000000
30
0.0
40
3.5
1

3

2
GLASS_MIN:0.000000
70
0
0
ATTDEF
8
0
10
0.000000
20
0.000000
30
0.0
40
3.5
1

3

2
GLASS_MAX:0.000000
70
0
0
ATTDEF
8
0
10
0.000000
20
0.000000
30
0.0
40
3.5
1

3

2
BL01:6500.000000,,1
70
0
0
ATTDEF
8
0
10
0.000000
20
0.000000
30
0.0
40
3.5
1

3

2
HW_START
70
0
0
ATTDEF
8
0
10
225.105706
20
45.600009
30
0.0
40
3.5
1

3

2
HW_END
70
0
0
ATTDEF
8
0
10
23.353570
20
43.400009
30
0.0
40
3.5
1

3

2
VC_START
70
0
0
ATTDEF
8
0
10
9.518642
20
0.000009
30
0.0
40
3.5
1

3

2
VC_END
70
0
0
ATTDEF
8
0
10
0.000000
20
0.000000
30
0.0
40
3.5
1

3

2
FP_LCS_ORIG
70
0
0
ATTDEF
8
0
10
10.000000
20
0.000000
30
0.0
40
3.5
1

3

2
FP_LCS_HOT
70
0
0
ATTDEF
8
0
10
0.000000
20
10.000000
30
0.0
40
3.5
1

3

2
FP_LCS_INTERN
70
0
0
ATTDEF
8
0
10
0.000000
20
0.000000
30
0.0
40
3.5
1

3

2
TDEV3:0
70
0
0
ATTDEF
8
0
10
0.000000
20
0.000000
30
0.0
40
3.5
1

3

2
TDEV4:0
70
0
0
ATTDEF
8
0
10
0.000000
20
0.000000
30
0.0
40
3.5
1

3

2
TDEV5:0
70
0
0
ATTDEF
8
0
10
0.000000
20
0.000000
30
0.0
40
3.5
1

3

2
PANE_WIDTH:0
70
0
0
ATTDEF
8
0
10
0.000000
20
0.000000
30
0.0
40
3.5
1

3

2
MIN_VETRO:0
70
0
0
ATTDEF
8
0
10
0.000000
20
0.000000
30
0.0
40
3.5
1

3

2
MAX_VETRO:0
70
0
0
ATTDEF
8
0
10
0.000000
20
0.000000
30
0.0
40
3.5
1

3

2
JX:0
70
0
0
ATTDEF
8
0
10
0.000000
20
0.000000
30
0.0
40
3.5
1

3

2
WX:0
70
0
0
ATTDEF
8
0
10
0.000000
20
0.000000
30
0.0
40
3.5
1

3

2
JY:0
70
0
0
ATTDEF
8
0
10
0.000000
20
0.000000
30
0.0
40
3.5
1

3

2
WY:0
70
0
0
ATTDEF
8
0
10
0.000000
20
0.000000
30
0.0
40
3.5
1

3

2
DESC:U10060 - U10061 - N10902 - V31208 - V31208
70
0
0
ATTDEF
8
0
10
0.000000
20
0.000000
30
0.0
40
3.5
1

3

2
DENS:0
70
0
0
ATTDEF
8
0
10
0.000000
20
0.000000
30
0.0
40
3.5
1

3

2
TDEV:0
70
0
0
ATTDEF
8
0
10
0.000000
20
0.000000
30
0.0
40
3.5
1

3

2
TDEV2:0
70
0
0
ATTDEF
8
0
10
0.000000
20
0.000000
30
0.0
40
3.5
1

3

2
TDEV3:0
70
0
0
ATTDEF
8
0
10
0.000000
20
0.000000
30
0.0
40
3.5
1

3

2
TDEV4:0
70
0
0
ATTDEF
8
0
10
0.000000
20
0.000000
30
0.0
40
3.5
1

3

2
TDEV5:0
70
0
0
ATTDEF
8
0
10
0.000000
20
0.000000
30
0.0
40
3.5
1

3

2
PANE_WIDTH:0
70
0
0
ATTDEF
8
0
10
0.000000
20
0.000000
30
0.0
40
3.5
1

3

2
MIN_VETRO:0
70
0
0
ATTDEF
8
0
10
0.000000
20
0.000000
30
0.0
40
3.5
1

3

2
MAX_VETRO:0
70
0
0
ATTDEF
8
0
10
0.000000
20
0.000000
30
0.0
40
3.5
1

3

2
JX:0
70
0
0
ATTDEF
8
0
10
0.000000
20
0.000000
30
0.0
40
3.5
1

3

2
WX:0
70
0
0
ATTDEF
8
0
10
0.000000
20
0.000000
30
0.0
40
3.5
1

3

2
JY:0
70
0
0
ATTDEF
8
0
10
0.000000
20
0.000000
30
0.0
40
3.5
1

3

2
WY:0
70
0
0
ENDSEC
0
EOF
