0
SECTION
2
ENTITIES
0
LINE
8
0
10
135.803570
20
37.920792
30
0.0
11
135.803570
21
22.900000
31
0.0
0
ARC
8
0
10
135.503570
20
22.900000
30
0.0
40
0.300000
50
270.000000
51
0.000000
0
LINE
8
0
10
135.503570
20
22.600000
30
0.0
11
132.803570
21
22.600000
31
0.0
0
ARC
8
0
10
132.803570
20
22.300000
30
0.0
40
0.300000
50
90.000000
51
180.000000
0
LINE
8
0
10
132.503570
20
22.300000
30
0.0
11
132.503570
21
21.400000
31
0.0
0
ARC
8
0
10
132.803570
20
21.400000
30
0.0
40
0.300000
50
180.000000
51
270.000000
0
LINE
8
0
10
132.803570
20
21.100000
30
0.0
11
134.103570
21
21.100000
31
0.0
0
ARC
8
0
10
134.103570
20
20.800000
30
0.0
40
0.300000
50
0.000000
51
90.000000
0
LINE
8
0
10
134.403570
20
20.800000
30
0.0
11
134.403570
21
19.400000
31
0.0
0
ARC
8
0
10
134.703570
20
19.400000
30
0.0
40
0.300000
50
180.000000
51
270.000000
0
LINE
8
0
10
134.703570
20
19.100000
30
0.0
11
135.503570
21
19.100000
31
0.0
0
ARC
8
0
10
135.503570
20
18.800000
30
0.0
40
0.300000
50
0.000000
51
90.000000
0
LINE
8
0
10
135.803570
20
18.800000
30
0.0
11
135.803570
21
16.800000
31
0.0
0
ARC
8
0
10
136.103570
20
16.800000
30
0.0
40
0.300000
50
180.000000
51
270.000000
0
LINE
8
0
10
136.103570
20
16.500000
30
0.0
11
145.803570
21
16.500000
31
0.0
0
ARC
8
0
10
145.803570
20
16.200000
30
0.0
40
0.300000
50
0.000000
51
90.000000
0
LINE
8
0
10
146.103570
20
16.200000
30
0.0
11
146.103570
21
6.800000
31
0.0
0
ARC
8
0
10
145.803570
20
6.800000
30
0.0
40
0.300000
50
270.000000
51
0.000000
0
LINE
8
0
10
145.803570
20
6.500000
30
0.0
11
136.203570
21
6.500000
31
0.0
0
ARC
8
0
10
136.203570
20
6.800000
30
0.0
40
0.300000
50
180.000000
51
270.000000
0
LINE
8
0
10
135.903570
20
6.800000
30
0.0
11
135.903570
21
7.700000
31
0.0
0
ARC
8
0
10
135.603570
20
7.700000
30
0.0
40
0.300000
50
0.000000
51
90.000000
0
LINE
8
0
10
135.603570
20
8.000000
30
0.0
11
134.703570
21
8.000000
31
0.0
0
ARC
8
0
10
134.703570
20
7.700000
30
0.0
40
0.300000
50
90.000000
51
180.000000
0
LINE
8
0
10
134.403570
20
7.700000
30
0.0
11
134.403570
21
6.800000
31
0.0
0
ARC
8
0
10
134.103570
20
6.800000
30
0.0
40
0.300000
50
270.000000
51
0.000000
0
LINE
8
0
10
134.103570
20
6.500000
30
0.0
11
111.703570
21
6.500000
31
0.0
0
ARC
8
0
10
111.703570
20
6.800000
30
0.0
40
0.300000
50
180.000000
51
270.000000
0
LINE
8
0
10
111.403570
20
6.800000
30
0.0
11
111.403570
21
7.700000
31
0.0
0
ARC
8
0
10
111.103570
20
7.700000
30
0.0
40
0.300000
50
0.000000
51
90.000000
0
LINE
8
0
10
111.103570
20
8.000000
30
0.0
11
110.203570
21
8.000000
31
0.0
0
ARC
8
0
10
110.203570
20
7.700000
30
0.0
40
0.300000
50
90.000000
51
180.000000
0
LINE
8
0
10
109.903570
20
7.700000
30
0.0
11
109.903570
21
6.800000
31
0.0
0
ARC
8
0
10
109.603570
20
6.800000
30
0.0
40
0.300000
50
270.000000
51
0.000000
0
LINE
8
0
10
109.603570
20
6.500000
30
0.0
11
106.903595
21
6.500000
31
0.0
0
ARC
8
0
10
106.903595
20
6.800000
30
0.0
40
0.300000
50
180.000000
51
270.000000
0
LINE
8
0
10
106.603595
20
6.800000
30
0.0
11
106.603595
21
13.200000
31
0.0
0
ARC
8
0
10
106.903595
20
13.200000
30
0.0
40
0.300000
50
90.000000
51
180.000000
0
LINE
8
0
10
106.903595
20
13.500000
30
0.0
11
109.803595
21
13.500000
31
0.0
0
ARC
8
0
10
109.803595
20
13.800000
30
0.0
40
0.300000
50
270.000000
51
0.000000
0
LINE
8
0
10
110.103595
20
13.800000
30
0.0
11
110.103595
21
18.800000
31
0.0
0
ARC
8
0
10
110.403595
20
18.800000
30
0.0
40
0.300000
50
90.000000
51
180.000000
0
LINE
8
0
10
110.403595
20
19.100000
30
0.0
11
111.103595
21
19.100000
31
0.0
0
ARC
8
0
10
111.103595
20
19.400000
30
0.0
40
0.300000
50
270.000000
51
0.000000
0
LINE
8
0
10
111.403595
20
19.400000
30
0.0
11
111.403595
21
20.800000
31
0.0
0
ARC
8
0
10
111.703595
20
20.800000
30
0.0
40
0.300000
50
90.000000
51
180.000000
0
LINE
8
0
10
111.703595
20
21.100000
30
0.0
11
114.103595
21
21.100000
31
0.0
0
ARC
8
0
10
114.103595
20
21.400000
30
0.0
40
0.300000
50
270.000000
51
0.000000
0
LINE
8
0
10
114.403595
20
21.400000
30
0.0
11
114.403595
21
22.300000
31
0.0
0
ARC
8
0
10
114.103595
20
22.300000
30
0.0
40
0.300000
50
0.000000
51
90.000000
0
LINE
8
0
10
114.103595
20
22.600000
30
0.0
11
110.403595
21
22.600000
31
0.0
0
ARC
8
0
10
110.403595
20
22.900000
30
0.0
40
0.300000
50
180.000000
51
270.000000
0
LINE
8
0
10
110.103595
20
22.900000
30
0.0
11
110.103595
21
27.200000
31
0.0
0
ARC
8
0
10
110.403595
20
27.200000
30
0.0
40
0.300000
50
90.000000
51
180.000000
0
LINE
8
0
10
110.403595
20
27.500000
30
0.0
11
113.429306
21
27.500000
31
0.0
0
ARC
8
0
10
113.429306
20
27.200000
30
0.0
40
0.300000
50
45.000000
51
90.000000
0
LINE
8
0
10
113.641438
20
27.412132
30
0.0
11
113.965702
21
27.087868
31
0.0
0
ARC
8
0
10
114.177834
20
27.300000
30
0.0
40
0.300000
50
225.000000
51
270.000000
0
LINE
8
0
10
114.177834
20
27.000000
30
0.0
11
118.429306
21
27.000000
31
0.0
0
ARC
8
0
10
118.429306
20
27.300000
30
0.0
40
0.300000
50
270.000000
51
315.000000
0
LINE
8
0
10
118.641438
20
27.087868
30
0.0
11
118.965702
21
27.412132
31
0.0
0
ARC
8
0
10
119.177834
20
27.200000
30
0.0
40
0.300000
50
90.000000
51
135.000000
0
LINE
8
0
10
119.177834
20
27.500000
30
0.0
11
123.003570
21
27.500000
31
0.0
0
ARC
8
0
10
123.003570
20
28.500000
30
0.0
40
1.000000
50
270.000000
51
0.000000
0
LINE
8
0
10
124.003570
20
28.500000
30
0.0
11
124.003570
21
31.375628
31
0.0
0
ARC
8
0
10
124.303570
20
31.375628
30
0.0
40
0.300000
50
150.000000
51
180.000000
0
LINE
8
0
10
124.043762
20
31.525628
30
0.0
11
124.894992
21
33.000000
31
0.0
0
ARC
8
0
10
123.162941
20
34.000000
30
0.0
40
2.000000
50
330.000000
51
57.356923
0
ARC
8
0
10
124.403570
20
35.936708
30
0.0
40
0.300000
50
180.000000
51
237.356923
0
LINE
8
0
10
124.103570
20
35.936708
30
0.0
11
124.103570
21
37.700000
31
0.0
0
ARC
8
0
10
124.403570
20
37.700000
30
0.0
40
0.300000
50
90.000000
51
180.000000
0
LINE
8
0
10
124.403570
20
38.000000
30
0.0
11
126.603570
21
38.000000
31
0.0
0
ARC
8
0
10
126.603570
20
38.500000
30
0.0
40
0.500000
50
270.000000
51
0.000000
0
LINE
8
0
10
127.103570
20
38.500000
30
0.0
11
127.103570
21
41.600000
31
0.0
0
ARC
8
0
10
127.403570
20
41.600000
30
0.0
40
0.300000
50
90.000000
51
180.000000
0
LINE
8
0
10
127.403570
20
41.900000
30
0.0
11
137.003570
21
41.900000
31
0.0
0
ARC
8
0
10
137.003570
20
41.600000
30
0.0
40
0.300000
50
0.000000
51
90.000000
0
LINE
8
0
10
137.303570
20
41.600000
30
0.0
11
137.303570
21
38.783112
31
0.0
0
ARC
8
0
10
137.003570
20
38.783112
30
0.0
40
0.300000
50
285.000000
51
0.000000
0
LINE
8
0
10
137.081216
20
38.493334
30
0.0
11
136.025924
21
38.210570
31
0.0
0
ARC
8
0
10
136.103570
20
37.920792
30
0.0
40
0.300000
50
105.000000
51
180.000000
0
ARC
8
0
10
105.803570
20
40.175736
30
0.0
40
0.300000
50
135.000000
51
180.000000
0
LINE
8
0
10
105.503570
20
40.175736
30
0.0
11
105.503570
21
40.300000
31
0.0
0
LINE
8
0
10
105.503570
20
40.300000
30
0.0
11
105.591438
21
40.387868
31
0.0
0
LINE
8
0
10
105.591438
20
40.387868
30
0.0
11
105.815702
21
40.612132
31
0.0
0
ARC
8
0
10
106.027834
20
40.400000
30
0.0
40
0.300000
50
90.000000
51
135.000000
0
LINE
8
0
10
106.027834
20
40.700000
30
0.0
11
106.703570
21
40.700000
31
0.0
0
ARC
8
0
10
106.703570
20
40.400000
30
0.0
40
0.300000
50
0.000000
51
90.000000
0
LINE
8
0
10
107.003570
20
40.400000
30
0.0
11
107.003570
21
39.800000
31
0.0
0
ARC
8
0
10
107.303570
20
39.800000
30
0.0
40
0.300000
50
180.000000
51
270.000000
0
LINE
8
0
10
107.303570
20
39.500000
30
0.0
11
109.713863
21
39.500000
31
0.0
0
ARC
8
0
10
109.713863
20
39.200000
30
0.0
40
0.300000
50
2.000000
51
90.000000
0
LINE
8
0
10
110.013681
20
39.210470
30
0.0
11
110.160104
21
35.017449
31
0.0
0
ARC
8
0
10
109.660409
20
35.000000
30
0.0
40
0.500000
50
270.000000
51
2.000000
0
LINE
8
0
10
109.660409
20
34.500000
30
0.0
11
109.444199
21
34.500000
31
0.0
0
ARC
8
0
10
109.444199
20
34.000000
30
0.0
40
0.500000
50
90.000000
51
210.000000
0
LINE
8
0
10
109.011187
20
33.750000
30
0.0
11
110.036583
21
31.973961
31
0.0
0
ARC
8
0
10
109.603570
20
31.723961
30
0.0
40
0.500000
50
0.000000
51
30.000000
0
LINE
8
0
10
110.103570
20
31.723961
30
0.0
11
110.103570
21
29.300000
31
0.0
0
ARC
8
0
10
110.403570
20
29.300000
30
0.0
40
0.300000
50
180.000000
51
270.000000
0
LINE
8
0
10
110.403570
20
29.000000
30
0.0
11
116.003570
21
29.000000
31
0.0
0
LINE
8
0
10
116.003570
20
29.000000
30
0.0
11
116.303570
21
28.700000
31
0.0
0
LINE
8
0
10
116.303570
20
28.700000
30
0.0
11
116.603570
21
29.000000
31
0.0
0
LINE
8
0
10
116.603570
20
29.000000
30
0.0
11
122.203570
21
29.000000
31
0.0
0
ARC
8
0
10
122.203570
20
29.300000
30
0.0
40
0.300000
50
270.000000
51
0.000000
0
LINE
8
0
10
122.503570
20
29.300000
30
0.0
11
122.503570
21
31.723961
31
0.0
0
ARC
8
0
10
123.003570
20
31.723961
30
0.0
40
0.500000
50
150.000000
51
180.000000
0
LINE
8
0
10
122.570557
20
31.973961
30
0.0
11
123.595953
21
33.750000
31
0.0
0
ARC
8
0
10
123.162941
20
34.000000
30
0.0
40
0.500000
50
330.000000
51
90.000000
0
LINE
8
0
10
123.162941
20
34.500000
30
0.0
11
122.946731
21
34.500000
31
0.0
0
ARC
8
0
10
122.946731
20
35.000000
30
0.0
40
0.500000
50
178.000000
51
270.000000
0
LINE
8
0
10
122.447036
20
35.017449
30
0.0
11
122.593459
21
39.210470
31
0.0
0
ARC
8
0
10
122.893277
20
39.200000
30
0.0
40
0.300000
50
90.000000
51
178.000000
0
LINE
8
0
10
122.893277
20
39.500000
30
0.0
11
125.303570
21
39.500000
31
0.0
0
ARC
8
0
10
125.303570
20
39.800000
30
0.0
40
0.300000
50
270.000000
51
0.000000
0
LINE
8
0
10
125.603570
20
39.800000
30
0.0
11
125.603570
21
43.100000
31
0.0
0
ARC
8
0
10
125.903570
20
43.100000
30
0.0
40
0.300000
50
90.000000
51
180.000000
0
LINE
8
0
10
125.903570
20
43.400000
30
0.0
11
137.803570
21
43.400000
31
0.0
0
ARC
8
0
10
137.803570
20
42.400000
30
0.0
40
1.000000
50
0.000000
51
90.000000
0
LINE
8
0
10
138.803570
20
42.400000
30
0.0
11
138.803570
21
37.632122
31
0.0
0
ARC
8
0
10
138.503570
20
37.632122
30
0.0
40
0.300000
50
285.000000
51
0.000000
0
LINE
8
0
10
138.581216
20
37.342344
30
0.0
11
137.525924
21
37.059579
31
0.0
0
ARC
8
0
10
137.603570
20
36.769802
30
0.0
40
0.300000
50
105.000000
51
180.000000
0
LINE
8
0
10
137.303570
20
36.769802
30
0.0
11
137.303570
21
18.300000
31
0.0
0
ARC
8
0
10
137.603570
20
18.300000
30
0.0
40
0.300000
50
180.000000
51
270.000000
0
LINE
8
0
10
137.603570
20
18.000000
30
0.0
11
147.103570
21
18.000000
31
0.0
0
ARC
8
0
10
147.103570
20
17.500000
30
0.0
40
0.500000
50
0.000000
51
90.000000
0
LINE
8
0
10
147.603570
20
17.500000
30
0.0
11
147.603570
21
0.300000
31
0.0
0
ARC
8
0
10
147.303570
20
0.300000
30
0.0
40
0.300000
50
270.000000
51
0.000000
0
LINE
8
0
10
147.303570
20
0.000000
30
0.0
11
144.073427
21
0.000000
31
0.0
0
ARC
8
0
10
144.073427
20
0.300000
30
0.0
40
0.300000
50
210.963757
51
270.000000
0
LINE
8
0
10
143.816179
20
0.145651
30
0.0
11
143.346322
21
0.928746
31
0.0
0
ARC
8
0
10
143.603570
20
1.083095
30
0.0
40
0.300000
50
180.000000
51
210.963757
0
LINE
8
0
10
143.303570
20
1.083095
30
0.0
11
143.303570
21
1.200000
31
0.0
0
ARC
8
0
10
143.603570
20
1.200000
30
0.0
40
0.300000
50
90.000000
51
180.000000
0
LINE
8
0
10
143.603570
20
1.500000
30
0.0
11
145.503570
21
1.500000
31
0.0
0
ARC
8
0
10
145.503570
20
1.800000
30
0.0
40
0.300000
50
270.000000
51
0.000000
0
LINE
8
0
10
145.803570
20
1.800000
30
0.0
11
145.803570
21
4.700000
31
0.0
0
ARC
8
0
10
145.503570
20
4.700000
30
0.0
40
0.300000
50
0.000000
51
90.000000
0
LINE
8
0
10
145.503570
20
5.000000
30
0.0
11
131.603570
21
5.000000
31
0.0
0
ARC
8
0
10
131.603570
20
4.700000
30
0.0
40
0.300000
50
90.000000
51
180.000000
0
LINE
8
0
10
131.303570
20
4.700000
30
0.0
11
131.303570
21
1.800000
31
0.0
0
ARC
8
0
10
131.603570
20
1.800000
30
0.0
40
0.300000
50
180.000000
51
270.000000
0
LINE
8
0
10
131.603570
20
1.500000
30
0.0
11
133.003570
21
1.500000
31
0.0
0
ARC
8
0
10
133.003570
20
1.200000
30
0.0
40
0.300000
50
0.000000
51
90.000000
0
LINE
8
0
10
133.303570
20
1.200000
30
0.0
11
133.303570
21
1.083095
31
0.0
0
ARC
8
0
10
133.003570
20
1.083095
30
0.0
40
0.300000
50
329.036243
51
0.000000
0
LINE
8
0
10
133.260818
20
0.928746
30
0.0
11
132.790961
21
0.145651
31
0.0
0
ARC
8
0
10
132.533713
20
0.300000
30
0.0
40
0.300000
50
270.000000
51
329.036243
0
LINE
8
0
10
132.533713
20
0.000000
30
0.0
11
130.103570
21
0.000000
31
0.0
0
ARC
8
0
10
130.103570
20
0.300000
30
0.0
40
0.300000
50
180.000000
51
270.000000
0
LINE
8
0
10
129.803570
20
0.300000
30
0.0
11
129.803570
21
4.700000
31
0.0
0
ARC
8
0
10
129.503570
20
4.700000
30
0.0
40
0.300000
50
0.000000
51
90.000000
0
LINE
8
0
10
129.503570
20
5.000000
30
0.0
11
106.903570
21
5.000000
31
0.0
0
ARC
8
0
10
106.903570
20
4.700000
30
0.0
40
0.300000
50
90.000000
51
180.000000
0
LINE
8
0
10
106.603570
20
4.700000
30
0.0
11
106.603570
21
0.300000
31
0.0
0
ARC
8
0
10
106.303570
20
0.300000
30
0.0
40
0.300000
50
270.000000
51
0.000000
0
LINE
8
0
10
106.303570
20
0.000000
30
0.0
11
104.835654
21
0.000000
31
0.0
0
ARC
8
0
10
104.835654
20
0.300000
30
0.0
40
0.300000
50
250.221829
51
270.000000
0
LINE
8
0
10
104.734140
20
0.017697
30
0.0
11
103.432278
21
0.485836
31
0.0
0
ARC
8
0
10
103.352759
20
0.264699
30
0.0
40
0.235000
50
70.221829
51
156.000000
0
ARC
8
0
10
102.916824
20
0.441112
30
0.0
40
0.235000
50
270.000000
51
336.000000
0
LINE
8
0
10
102.918380
20
0.206117
30
0.0
11
101.339452
21
0.195660
31
0.0
0
ARC
8
0
10
101.337465
20
0.495654
30
0.0
40
0.300000
50
155.379459
51
270.000000
0
LINE
8
0
10
101.064739
20
0.620636
30
0.0
11
102.013389
21
2.726151
31
0.0
0
ARC
8
0
10
102.286909
20
2.602915
30
0.0
40
0.300000
50
115.379459
51
155.745828
0
LINE
8
0
10
102.158325
20
2.873962
30
0.0
11
102.665748
21
3.114681
31
0.0
0
ARC
8
0
10
102.751470
20
2.933983
30
0.0
40
0.200000
50
355.379459
51
115.379459
0
LINE
8
0
10
102.950820
20
2.917872
30
0.0
11
102.941519
21
2.802777
31
0.0
0
ARC
8
0
10
103.240544
20
2.778610
30
0.0
40
0.300000
50
175.379459
51
235.379459
0
LINE
8
0
10
103.070102
20
2.531731
30
0.0
11
104.698859
21
1.407265
31
0.0
0
LINE
8
0
10
104.698859
20
1.407265
30
0.0
11
104.881568
21
1.325917
31
0.0
0
ARC
8
0
10
105.003570
20
1.600000
30
0.0
40
0.300009
50
246.004713
51
48.187329
0
ARC
8
0
10
105.403595
20
2.047204
30
0.0
40
0.300000
50
180.000000
51
228.187329
0
LINE
8
0
10
105.103595
20
2.047204
30
0.0
11
105.103595
21
5.899990
31
0.0
0
ARC
8
0
10
104.803595
20
5.899990
30
0.0
40
0.300000
50
0.000000
51
90.000000
0
LINE
8
0
10
104.803595
20
6.199990
30
0.0
11
104.582401
21
6.199990
31
0.0
0
ARC
8
0
10
104.582401
20
5.899990
30
0.0
40
0.300000
50
90.000000
51
121.400000
0
LINE
8
0
10
104.426098
20
6.156056
30
0.0
11
102.907797
21
5.229280
31
0.0
0
ARC
8
0
10
102.803595
20
5.399990
30
0.0
40
0.200000
50
180.000000
51
301.400000
0
LINE
8
0
10
102.603595
20
5.399990
30
0.0
11
102.603595
21
9.599990
31
0.0
0
ARC
8
0
10
102.803595
20
9.599990
30
0.0
40
0.200000
50
58.600000
51
180.000000
0
LINE
8
0
10
102.907797
20
9.770700
30
0.0
11
104.426098
21
8.843925
31
0.0
0
ARC
8
0
10
104.582401
20
9.099990
30
0.0
40
0.300000
50
238.600000
51
270.000000
0
LINE
8
0
10
104.582401
20
8.799990
30
0.0
11
104.803595
21
8.799990
31
0.0
0
ARC
8
0
10
104.803595
20
9.099990
30
0.0
40
0.300000
50
270.000000
51
0.000000
0
LINE
8
0
10
105.103595
20
9.099990
30
0.0
11
105.103595
21
12.952777
31
0.0
0
ARC
8
0
10
105.403595
20
12.952777
30
0.0
40
0.300000
50
131.812671
51
180.000000
0
ARC
8
0
10
105.003570
20
13.399981
30
0.0
40
0.300009
50
311.812671
51
113.995287
0
LINE
8
0
10
104.881568
20
13.674063
30
0.0
11
104.698859
21
13.592716
31
0.0
0
LINE
8
0
10
104.698859
20
13.592716
30
0.0
11
103.070102
21
12.468250
31
0.0
0
ARC
8
0
10
103.240544
20
12.221370
30
0.0
40
0.300000
50
124.620541
51
184.620541
0
LINE
8
0
10
102.941519
20
12.197203
30
0.0
11
102.950820
21
12.082108
31
0.0
0
ARC
8
0
10
102.751470
20
12.065997
30
0.0
40
0.200000
50
244.620541
51
4.620541
0
LINE
8
0
10
102.665748
20
11.885299
30
0.0
11
102.158325
21
12.126019
31
0.0
0
ARC
8
0
10
102.286909
20
12.397065
30
0.0
40
0.300000
50
204.254172
51
244.620541
0
LINE
8
0
10
102.013389
20
12.273830
30
0.0
11
101.064739
21
14.379345
31
0.0
0
ARC
8
0
10
101.337465
20
14.504327
30
0.0
40
0.300000
50
90.000000
51
204.620541
0
LINE
8
0
10
101.339452
20
14.804320
30
0.0
11
102.918380
21
14.793863
31
0.0
0
ARC
8
0
10
102.916824
20
14.558868
30
0.0
40
0.235000
50
24.000000
51
90.000000
0
ARC
8
0
10
103.352759
20
14.735282
30
0.0
40
0.235000
50
204.000000
51
289.778171
0
LINE
8
0
10
103.432278
20
14.514145
30
0.0
11
104.734193
21
14.982303
31
0.0
0
ARC
8
0
10
104.835707
20
14.700000
30
0.0
40
0.300000
50
90.000000
51
109.778171
0
LINE
8
0
10
104.835707
20
15.000000
30
0.0
11
108.303595
21
15.000000
31
0.0
0
ARC
8
0
10
108.303595
20
15.300000
30
0.0
40
0.300000
50
270.000000
51
0.000000
0
LINE
8
0
10
108.603595
20
15.300000
30
0.0
11
108.603595
21
20.800000
31
0.0
0
ARC
8
0
10
108.303595
20
20.800000
30
0.0
40
0.300000
50
0.000000
51
90.000000
0
LINE
8
0
10
108.303595
20
21.100000
30
0.0
11
105.703595
21
21.100000
31
0.0
0
ARC
8
0
10
105.703595
20
21.400000
30
0.0
40
0.300000
50
180.000000
51
270.000000
0
LINE
8
0
10
105.403595
20
21.400000
30
0.0
11
105.403595
21
22.300000
31
0.0
0
ARC
8
0
10
105.703595
20
22.300000
30
0.0
40
0.300000
50
90.000000
51
180.000000
0
LINE
8
0
10
105.703595
20
22.600000
30
0.0
11
108.303595
21
22.600000
31
0.0
0
ARC
8
0
10
108.303595
20
22.900000
30
0.0
40
0.300000
50
270.000000
51
0.000000
0
LINE
8
0
10
108.603595
20
22.900000
30
0.0
11
108.603595
21
31.375585
31
0.0
0
ARC
8
0
10
108.303595
20
31.375585
30
0.0
40
0.300000
50
0.000000
51
30.000000
0
LINE
8
0
10
108.563402
20
31.525585
30
0.0
11
107.712148
21
33.000000
31
0.0
0
ARC
8
0
10
109.444199
20
34.000000
30
0.0
40
2.000000
50
122.643077
51
210.000000
0
ARC
8
0
10
108.203570
20
35.936708
30
0.0
40
0.300000
50
302.643077
51
0.000000
0
LINE
8
0
10
108.503570
20
35.936708
30
0.0
11
108.503570
21
37.700000
31
0.0
0
ARC
8
0
10
108.203570
20
37.700000
30
0.0
40
0.300000
50
0.000000
51
90.000000
0
LINE
8
0
10
108.203570
20
38.000000
30
0.0
11
105.803570
21
38.000000
31
0.0
0
ARC
8
0
10
105.803570
20
38.300000
30
0.0
40
0.300000
50
180.000000
51
270.000000
0
LINE
8
0
10
105.503570
20
38.300000
30
0.0
11
105.503570
21
40.175736
31
0.0
0
LINE
8
0
10
19.403570
20
37.920792
30
0.0
11
19.403570
21
22.900000
31
0.0
0
ARC
8
0
10
19.703570
20
22.900000
30
0.0
40
0.300000
50
180.000000
51
270.000000
0
LINE
8
0
10
19.703570
20
22.600000
30
0.0
11
22.403570
21
22.600000
31
0.0
0
ARC
8
0
10
22.403570
20
22.300000
30
0.0
40
0.300000
50
0.000000
51
90.000000
0
LINE
8
0
10
22.703570
20
22.300000
30
0.0
11
22.703570
21
21.400000
31
0.0
0
ARC
8
0
10
22.403570
20
21.400000
30
0.0
40
0.300000
50
270.000000
51
0.000000
0
LINE
8
0
10
22.403570
20
21.100000
30
0.0
11
21.103570
21
21.100000
31
0.0
0
ARC
8
0
10
21.103570
20
20.800000
30
0.0
40
0.300000
50
90.000000
51
180.000000
0
LINE
8
0
10
20.803570
20
20.800000
30
0.0
11
20.803570
21
19.400000
31
0.0
0
ARC
8
0
10
20.503570
20
19.400000
30
0.0
40
0.300000
50
270.000000
51
0.000000
0
LINE
8
0
10
20.503570
20
19.100000
30
0.0
11
19.703570
21
19.100000
31
0.0
0
ARC
8
0
10
19.703570
20
18.800000
30
0.0
40
0.300000
50
90.000000
51
180.000000
0
LINE
8
0
10
19.403570
20
18.800000
30
0.0
11
19.403570
21
16.800000
31
0.0
0
ARC
8
0
10
19.103570
20
16.800000
30
0.0
40
0.300000
50
270.000000
51
0.000000
0
LINE
8
0
10
19.103570
20
16.500000
30
0.0
11
9.403570
21
16.500000
31
0.0
0
ARC
8
0
10
9.403570
20
16.200000
30
0.0
40
0.300000
50
90.000000
51
180.000000
0
LINE
8
0
10
9.103570
20
16.200000
30
0.0
11
9.103570
21
6.800000
31
0.0
0
ARC
8
0
10
9.403570
20
6.800000
30
0.0
40
0.300000
50
180.000000
51
270.000000
0
LINE
8
0
10
9.403570
20
6.500000
30
0.0
11
19.003570
21
6.500000
31
0.0
0
ARC
8
0
10
19.003570
20
6.800000
30
0.0
40
0.300000
50
270.000000
51
0.000000
0
LINE
8
0
10
19.303570
20
6.800000
30
0.0
11
19.303570
21
7.700000
31
0.0
0
ARC
8
0
10
19.603570
20
7.700000
30
0.0
40
0.300000
50
90.000000
51
180.000000
0
LINE
8
0
10
19.603570
20
8.000000
30
0.0
11
20.503570
21
8.000000
31
0.0
0
ARC
8
0
10
20.503570
20
7.700000
30
0.0
40
0.300000
50
0.000000
51
90.000000
0
LINE
8
0
10
20.803570
20
7.700000
30
0.0
11
20.803570
21
6.800000
31
0.0
0
ARC
8
0
10
21.103570
20
6.800000
30
0.0
40
0.300000
50
180.000000
51
270.000000
0
LINE
8
0
10
21.103570
20
6.500000
30
0.0
11
43.503570
21
6.500000
31
0.0
0
ARC
8
0
10
43.503570
20
6.800000
30
0.0
40
0.300000
50
270.000000
51
0.000000
0
LINE
8
0
10
43.803570
20
6.800000
30
0.0
11
43.803570
21
7.700000
31
0.0
0
ARC
8
0
10
44.103570
20
7.700000
30
0.0
40
0.300000
50
90.000000
51
180.000000
0
LINE
8
0
10
44.103570
20
8.000000
30
0.0
11
45.003570
21
8.000000
31
0.0
0
ARC
8
0
10
45.003570
20
7.700000
30
0.0
40
0.300000
50
0.000000
51
90.000000
0
LINE
8
0
10
45.303570
20
7.700000
30
0.0
11
45.303570
21
6.800000
31
0.0
0
ARC
8
0
10
45.603570
20
6.800000
30
0.0
40
0.300000
50
180.000000
51
270.000000
0
LINE
8
0
10
45.603570
20
6.500000
30
0.0
11
48.303545
21
6.500000
31
0.0
0
ARC
8
0
10
48.303545
20
6.800000
30
0.0
40
0.300000
50
270.000000
51
0.000000
0
LINE
8
0
10
48.603545
20
6.800000
30
0.0
11
48.603545
21
13.200000
31
0.0
0
ARC
8
0
10
48.303545
20
13.200000
30
0.0
40
0.300000
50
0.000000
51
90.000000
0
LINE
8
0
10
48.303545
20
13.500000
30
0.0
11
45.403545
21
13.500000
31
0.0
0
ARC
8
0
10
45.403545
20
13.800000
30
0.0
40
0.300000
50
180.000000
51
270.000000
0
LINE
8
0
10
45.103545
20
13.800000
30
0.0
11
45.103545
21
18.800000
31
0.0
0
ARC
8
0
10
44.803545
20
18.800000
30
0.0
40
0.300000
50
0.000000
51
90.000000
0
LINE
8
0
10
44.803545
20
19.100000
30
0.0
11
44.103545
21
19.100000
31
0.0
0
ARC
8
0
10
44.103545
20
19.400000
30
0.0
40
0.300000
50
180.000000
51
270.000000
0
LINE
8
0
10
43.803545
20
19.400000
30
0.0
11
43.803545
21
20.800000
31
0.0
0
ARC
8
0
10
43.503545
20
20.800000
30
0.0
40
0.300000
50
0.000000
51
90.000000
0
LINE
8
0
10
43.503545
20
21.100000
30
0.0
11
41.103545
21
21.100000
31
0.0
0
ARC
8
0
10
41.103545
20
21.400000
30
0.0
40
0.300000
50
180.000000
51
270.000000
0
LINE
8
0
10
40.803545
20
21.400000
30
0.0
11
40.803545
21
22.300000
31
0.0
0
ARC
8
0
10
41.103545
20
22.300000
30
0.0
40
0.300000
50
90.000000
51
180.000000
0
LINE
8
0
10
41.103545
20
22.600000
30
0.0
11
44.803545
21
22.600000
31
0.0
0
ARC
8
0
10
44.803545
20
22.900000
30
0.0
40
0.300000
50
270.000000
51
0.000000
0
LINE
8
0
10
45.103545
20
22.900000
30
0.0
11
45.103545
21
27.200000
31
0.0
0
ARC
8
0
10
44.803545
20
27.200000
30
0.0
40
0.300000
50
0.000000
51
90.000000
0
LINE
8
0
10
44.803545
20
27.500000
30
0.0
11
41.777834
21
27.500000
31
0.0
0
ARC
8
0
10
41.777834
20
27.200000
30
0.0
40
0.300000
50
90.000000
51
135.000000
0
LINE
8
0
10
41.565702
20
27.412132
30
0.0
11
41.241438
21
27.087868
31
0.0
0
ARC
8
0
10
41.029306
20
27.300000
30
0.0
40
0.300000
50
270.000000
51
315.000000
0
LINE
8
0
10
41.029306
20
27.000000
30
0.0
11
36.777834
21
27.000000
31
0.0
0
ARC
8
0
10
36.777834
20
27.300000
30
0.0
40
0.300000
50
225.000000
51
270.000000
0
LINE
8
0
10
36.565702
20
27.087868
30
0.0
11
36.241438
21
27.412132
31
0.0
0
ARC
8
0
10
36.029306
20
27.200000
30
0.0
40
0.300000
50
45.000000
51
90.000000
0
LINE
8
0
10
36.029306
20
27.500000
30
0.0
11
32.203570
21
27.500000
31
0.0
0
ARC
8
0
10
32.203570
20
28.500000
30
0.0
40
1.000000
50
180.000000
51
270.000000
0
LINE
8
0
10
31.203570
20
28.500000
30
0.0
11
31.203570
21
31.375628
31
0.0
0
ARC
8
0
10
30.903570
20
31.375628
30
0.0
40
0.300000
50
0.000000
51
30.000000
0
LINE
8
0
10
31.163378
20
31.525628
30
0.0
11
30.312148
21
33.000000
31
0.0
0
ARC
8
0
10
32.044199
20
34.000000
30
0.0
40
2.000000
50
122.643077
51
210.000000
0
ARC
8
0
10
30.803570
20
35.936708
30
0.0
40
0.300000
50
302.643077
51
0.000000
0
LINE
8
0
10
31.103570
20
35.936708
30
0.0
11
31.103570
21
37.700000
31
0.0
0
ARC
8
0
10
30.803570
20
37.700000
30
0.0
40
0.300000
50
0.000000
51
90.000000
0
LINE
8
0
10
30.803570
20
38.000000
30
0.0
11
28.603570
21
38.000000
31
0.0
0
ARC
8
0
10
28.603570
20
38.500000
30
0.0
40
0.500000
50
180.000000
51
270.000000
0
LINE
8
0
10
28.103570
20
38.500000
30
0.0
11
28.103570
21
41.600000
31
0.0
0
ARC
8
0
10
27.803570
20
41.600000
30
0.0
40
0.300000
50
0.000000
51
90.000000
0
LINE
8
0
10
27.803570
20
41.900000
30
0.0
11
18.203570
21
41.900000
31
0.0
0
ARC
8
0
10
18.203570
20
41.600000
30
0.0
40
0.300000
50
90.000000
51
180.000000
0
LINE
8
0
10
17.903570
20
41.600000
30
0.0
11
17.903570
21
38.783112
31
0.0
0
ARC
8
0
10
18.203570
20
38.783112
30
0.0
40
0.300000
50
180.000000
51
255.000000
0
LINE
8
0
10
18.125924
20
38.493334
30
0.0
11
19.181216
21
38.210570
31
0.0
0
ARC
8
0
10
19.103570
20
37.920792
30
0.0
40
0.300000
50
0.000000
51
75.000000
0
ARC
8
0
10
49.403570
20
40.175736
30
0.0
40
0.300000
50
0.000000
51
45.000000
0
LINE
8
0
10
49.703570
20
40.175736
30
0.0
11
49.703570
21
40.300000
31
0.0
0
LINE
8
0
10
49.703570
20
40.300000
30
0.0
11
49.615702
21
40.387868
31
0.0
0
LINE
8
0
10
49.615702
20
40.387868
30
0.0
11
49.391438
21
40.612132
31
0.0
0
ARC
8
0
10
49.179306
20
40.400000
30
0.0
40
0.300000
50
45.000000
51
90.000000
0
LINE
8
0
10
49.179306
20
40.700000
30
0.0
11
48.503570
21
40.700000
31
0.0
0
ARC
8
0
10
48.503570
20
40.400000
30
0.0
40
0.300000
50
90.000000
51
180.000000
0
LINE
8
0
10
48.203570
20
40.400000
30
0.0
11
48.203570
21
39.800000
31
0.0
0
ARC
8
0
10
47.903570
20
39.800000
30
0.0
40
0.300000
50
270.000000
51
0.000000
0
LINE
8
0
10
47.903570
20
39.500000
30
0.0
11
45.493277
21
39.500000
31
0.0
0
ARC
8
0
10
45.493277
20
39.200000
30
0.0
40
0.300000
50
90.000000
51
178.000000
0
LINE
8
0
10
45.193459
20
39.210470
30
0.0
11
45.047036
21
35.017449
31
0.0
0
ARC
8
0
10
45.546731
20
35.000000
30
0.0
40
0.500000
50
178.000000
51
270.000000
0
LINE
8
0
10
45.546731
20
34.500000
30
0.0
11
45.762941
21
34.500000
31
0.0
0
ARC
8
0
10
45.762941
20
34.000000
30
0.0
40
0.500000
50
330.000000
51
90.000000
0
LINE
8
0
10
46.195953
20
33.750000
30
0.0
11
45.170557
21
31.973961
31
0.0
0
ARC
8
0
10
45.603570
20
31.723961
30
0.0
40
0.500000
50
150.000000
51
180.000000
0
LINE
8
0
10
45.103570
20
31.723961
30
0.0
11
45.103570
21
29.300000
31
0.0
0
ARC
8
0
10
44.803570
20
29.300000
30
0.0
40
0.300000
50
270.000000
51
0.000000
0
LINE
8
0
10
44.803570
20
29.000000
30
0.0
11
39.203570
21
29.000000
31
0.0
0
LINE
8
0
10
39.203570
20
29.000000
30
0.0
11
38.903570
21
28.700000
31
0.0
0
LINE
8
0
10
38.903570
20
28.700000
30
0.0
11
38.603570
21
29.000000
31
0.0
0
LINE
8
0
10
38.603570
20
29.000000
30
0.0
11
33.003570
21
29.000000
31
0.0
0
ARC
8
0
10
33.003570
20
29.300000
30
0.0
40
0.300000
50
180.000000
51
270.000000
0
LINE
8
0
10
32.703570
20
29.300000
30
0.0
11
32.703570
21
31.723961
31
0.0
0
ARC
8
0
10
32.203570
20
31.723961
30
0.0
40
0.500000
50
0.000000
51
30.000000
0
LINE
8
0
10
32.636583
20
31.973961
30
0.0
11
31.611187
21
33.750000
31
0.0
0
ARC
8
0
10
32.044199
20
34.000000
30
0.0
40
0.500000
50
90.000000
51
210.000000
0
LINE
8
0
10
32.044199
20
34.500000
30
0.0
11
32.260409
21
34.500000
31
0.0
0
ARC
8
0
10
32.260409
20
35.000000
30
0.0
40
0.500000
50
270.000000
51
2.000000
0
LINE
8
0
10
32.760104
20
35.017449
30
0.0
11
32.613681
21
39.210470
31
0.0
0
ARC
8
0
10
32.313863
20
39.200000
30
0.0
40
0.300000
50
2.000000
51
90.000000
0
LINE
8
0
10
32.313863
20
39.500000
30
0.0
11
29.903570
21
39.500000
31
0.0
0
ARC
8
0
10
29.903570
20
39.800000
30
0.0
40
0.300000
50
180.000000
51
270.000000
0
LINE
8
0
10
29.603570
20
39.800000
30
0.0
11
29.603570
21
43.100000
31
0.0
0
ARC
8
0
10
29.303570
20
43.100000
30
0.0
40
0.300000
50
0.000000
51
90.000000
0
LINE
8
0
10
29.303570
20
43.400000
30
0.0
11
17.403570
21
43.400000
31
0.0
0
ARC
8
0
10
17.403570
20
42.400000
30
0.0
40
1.000000
50
90.000000
51
180.000000
0
LINE
8
0
10
16.403570
20
42.400000
30
0.0
11
16.403570
21
37.632122
31
0.0
0
ARC
8
0
10
16.703570
20
37.632122
30
0.0
40
0.300000
50
180.000000
51
255.000000
0
LINE
8
0
10
16.625924
20
37.342344
30
0.0
11
17.681216
21
37.059579
31
0.0
0
ARC
8
0
10
17.603570
20
36.769802
30
0.0
40
0.300000
50
0.000000
51
75.000000
0
LINE
8
0
10
17.903570
20
36.769802
30
0.0
11
17.903570
21
18.300000
31
0.0
0
ARC
8
0
10
17.603570
20
18.300000
30
0.0
40
0.300000
50
270.000000
51
0.000000
0
LINE
8
0
10
17.603570
20
18.000000
30
0.0
11
8.103570
21
18.000000
31
0.0
0
ARC
8
0
10
8.103570
20
17.500000
30
0.0
40
0.500000
50
90.000000
51
180.000000
0
LINE
8
0
10
7.603570
20
17.500000
30
0.0
11
7.603570
21
0.300000
31
0.0
0
ARC
8
0
10
7.903570
20
0.300000
30
0.0
40
0.300000
50
180.000000
51
270.000000
0
LINE
8
0
10
7.903570
20
0.000000
30
0.0
11
11.133713
21
0.000000
31
0.0
0
ARC
8
0
10
11.133713
20
0.300000
30
0.0
40
0.300000
50
270.000000
51
329.036243
0
LINE
8
0
10
11.390961
20
0.145651
30
0.0
11
11.860818
21
0.928746
31
0.0
0
ARC
8
0
10
11.603570
20
1.083095
30
0.0
40
0.300000
50
329.036243
51
0.000000
0
LINE
8
0
10
11.903570
20
1.083095
30
0.0
11
11.903570
21
1.200000
31
0.0
0
ARC
8
0
10
11.603570
20
1.200000
30
0.0
40
0.300000
50
0.000000
51
90.000000
0
LINE
8
0
10
11.603570
20
1.500000
30
0.0
11
9.703570
21
1.500000
31
0.0
0
ARC
8
0
10
9.703570
20
1.800000
30
0.0
40
0.300000
50
180.000000
51
270.000000
0
LINE
8
0
10
9.403570
20
1.800000
30
0.0
11
9.403570
21
4.700000
31
0.0
0
ARC
8
0
10
9.703570
20
4.700000
30
0.0
40
0.300000
50
90.000000
51
180.000000
0
LINE
8
0
10
9.703570
20
5.000000
30
0.0
11
23.603570
21
5.000000
31
0.0
0
ARC
8
0
10
23.603570
20
4.700000
30
0.0
40
0.300000
50
0.000000
51
90.000000
0
LINE
8
0
10
23.903570
20
4.700000
30
0.0
11
23.903570
21
1.800000
31
0.0
0
ARC
8
0
10
23.603570
20
1.800000
30
0.0
40
0.300000
50
270.000000
51
0.000000
0
LINE
8
0
10
23.603570
20
1.500000
30
0.0
11
22.203570
21
1.500000
31
0.0
0
ARC
8
0
10
22.203570
20
1.200000
30
0.0
40
0.300000
50
90.000000
51
180.000000
0
LINE
8
0
10
21.903570
20
1.200000
30
0.0
11
21.903570
21
1.083095
31
0.0
0
ARC
8
0
10
22.203570
20
1.083095
30
0.0
40
0.300000
50
180.000000
51
210.963757
0
LINE
8
0
10
21.946322
20
0.928746
30
0.0
11
22.416179
21
0.145651
31
0.0
0
ARC
8
0
10
22.673427
20
0.300000
30
0.0
40
0.300000
50
210.963757
51
270.000000
0
LINE
8
0
10
22.673427
20
0.000000
30
0.0
11
25.103570
21
0.000000
31
0.0
0
ARC
8
0
10
25.103570
20
0.300000
30
0.0
40
0.300000
50
270.000000
51
0.000000
0
LINE
8
0
10
25.403570
20
0.300000
30
0.0
11
25.403570
21
4.700000
31
0.0
0
ARC
8
0
10
25.703570
20
4.700000
30
0.0
40
0.300000
50
90.000000
51
180.000000
0
LINE
8
0
10
25.703570
20
5.000000
30
0.0
11
48.303570
21
5.000000
31
0.0
0
ARC
8
0
10
48.303570
20
4.700000
30
0.0
40
0.300000
50
0.000000
51
90.000000
0
LINE
8
0
10
48.603570
20
4.700000
30
0.0
11
48.603570
21
0.300000
31
0.0
0
ARC
8
0
10
48.903570
20
0.300000
30
0.0
40
0.300000
50
180.000000
51
270.000000
0
LINE
8
0
10
48.903570
20
0.000000
30
0.0
11
50.371486
21
0.000000
31
0.0
0
ARC
8
0
10
50.371486
20
0.300000
30
0.0
40
0.300000
50
270.000000
51
289.778171
0
LINE
8
0
10
50.473000
20
0.017697
30
0.0
11
51.774862
21
0.485836
31
0.0
0
ARC
8
0
10
51.854381
20
0.264699
30
0.0
40
0.235000
50
24.000000
51
109.778171
0
ARC
8
0
10
52.290316
20
0.441112
30
0.0
40
0.235000
50
204.000000
51
270.000000
0
LINE
8
0
10
52.288760
20
0.206117
30
0.0
11
53.867688
21
0.195660
31
0.0
0
ARC
8
0
10
53.869675
20
0.495654
30
0.0
40
0.300000
50
270.000000
51
24.620541
0
LINE
8
0
10
54.142401
20
0.620636
30
0.0
11
53.193751
21
2.726151
31
0.0
0
ARC
8
0
10
52.920231
20
2.602915
30
0.0
40
0.300000
50
24.254172
51
64.620541
0
LINE
8
0
10
53.048815
20
2.873962
30
0.0
11
52.541392
21
3.114681
31
0.0
0
ARC
8
0
10
52.455669
20
2.933983
30
0.0
40
0.200000
50
64.620541
51
184.620541
0
LINE
8
0
10
52.256319
20
2.917872
30
0.0
11
52.265621
21
2.802777
31
0.0
0
ARC
8
0
10
51.966596
20
2.778610
30
0.0
40
0.300000
50
304.620541
51
4.620541
0
LINE
8
0
10
52.137038
20
2.531731
30
0.0
11
50.508281
21
1.407265
31
0.0
0
LINE
8
0
10
50.508281
20
1.407265
30
0.0
11
50.325572
21
1.325917
31
0.0
0
ARC
8
0
10
50.203570
20
1.600000
30
0.0
40
0.300009
50
131.812671
51
293.995287
0
ARC
8
0
10
49.803545
20
2.047204
30
0.0
40
0.300000
50
311.812671
51
0.000000
0
LINE
8
0
10
50.103545
20
2.047204
30
0.0
11
50.103545
21
5.899990
31
0.0
0
ARC
8
0
10
50.403545
20
5.899990
30
0.0
40
0.300000
50
90.000000
51
180.000000
0
LINE
8
0
10
50.403545
20
6.199990
30
0.0
11
50.624739
21
6.199990
31
0.0
0
ARC
8
0
10
50.624739
20
5.899990
30
0.0
40
0.300000
50
58.600000
51
90.000000
0
LINE
8
0
10
50.781042
20
6.156056
30
0.0
11
52.299343
21
5.229280
31
0.0
0
ARC
8
0
10
52.403545
20
5.399990
30
0.0
40
0.200000
50
238.600000
51
0.000000
0
LINE
8
0
10
52.603545
20
5.399990
30
0.0
11
52.603545
21
9.599990
31
0.0
0
ARC
8
0
10
52.403545
20
9.599990
30
0.0
40
0.200000
50
0.000000
51
121.400000
0
LINE
8
0
10
52.299343
20
9.770700
30
0.0
11
50.781042
21
8.843925
31
0.0
0
ARC
8
0
10
50.624739
20
9.099990
30
0.0
40
0.300000
50
270.000000
51
301.400000
0
LINE
8
0
10
50.624739
20
8.799990
30
0.0
11
50.403545
21
8.799990
31
0.0
0
ARC
8
0
10
50.403545
20
9.099990
30
0.0
40
0.300000
50
180.000000
51
270.000000
0
LINE
8
0
10
50.103545
20
9.099990
30
0.0
11
50.103545
21
12.952777
31
0.0
0
ARC
8
0
10
49.803545
20
12.952777
30
0.0
40
0.300000
50
0.000000
51
48.187329
0
ARC
8
0
10
50.203570
20
13.399981
30
0.0
40
0.300009
50
66.004713
51
228.187329
0
LINE
8
0
10
50.325572
20
13.674063
30
0.0
11
50.508281
21
13.592716
31
0.0
0
LINE
8
0
10
50.508281
20
13.592716
30
0.0
11
52.137038
21
12.468250
31
0.0
0
ARC
8
0
10
51.966596
20
12.221370
30
0.0
40
0.300000
50
355.379459
51
55.379459
0
LINE
8
0
10
52.265621
20
12.197203
30
0.0
11
52.256319
21
12.082108
31
0.0
0
ARC
8
0
10
52.455669
20
12.065997
30
0.0
40
0.200000
50
175.379459
51
295.379459
0
LINE
8
0
10
52.541392
20
11.885299
30
0.0
11
53.048815
21
12.126019
31
0.0
0
ARC
8
0
10
52.920231
20
12.397065
30
0.0
40
0.300000
50
295.379459
51
335.745828
0
LINE
8
0
10
53.193751
20
12.273830
30
0.0
11
54.142401
21
14.379345
31
0.0
0
ARC
8
0
10
53.869675
20
14.504327
30
0.0
40
0.300000
50
335.379459
51
90.000000
0
LINE
8
0
10
53.867688
20
14.804320
30
0.0
11
52.288760
21
14.793863
31
0.0
0
ARC
8
0
10
52.290316
20
14.558868
30
0.0
40
0.235000
50
90.000000
51
156.000000
0
ARC
8
0
10
51.854381
20
14.735282
30
0.0
40
0.235000
50
250.221829
51
336.000000
0
LINE
8
0
10
51.774862
20
14.514145
30
0.0
11
50.472947
21
14.982303
31
0.0
0
ARC
8
0
10
50.371433
20
14.700000
30
0.0
40
0.300000
50
70.221829
51
90.000000
0
LINE
8
0
10
50.371433
20
15.000000
30
0.0
11
46.903545
21
15.000000
31
0.0
0
ARC
8
0
10
46.903545
20
15.300000
30
0.0
40
0.300000
50
180.000000
51
270.000000
0
LINE
8
0
10
46.603545
20
15.300000
30
0.0
11
46.603545
21
20.800000
31
0.0
0
ARC
8
0
10
46.903545
20
20.800000
30
0.0
40
0.300000
50
90.000000
51
180.000000
0
LINE
8
0
10
46.903545
20
21.100000
30
0.0
11
49.503545
21
21.100000
31
0.0
0
ARC
8
0
10
49.503545
20
21.400000
30
0.0
40
0.300000
50
270.000000
51
0.000000
0
LINE
8
0
10
49.803545
20
21.400000
30
0.0
11
49.803545
21
22.300000
31
0.0
0
ARC
8
0
10
49.503545
20
22.300000
30
0.0
40
0.300000
50
0.000000
51
90.000000
0
LINE
8
0
10
49.503545
20
22.600000
30
0.0
11
46.903545
21
22.600000
31
0.0
0
ARC
8
0
10
46.903545
20
22.900000
30
0.0
40
0.300000
50
180.000000
51
270.000000
0
LINE
8
0
10
46.603545
20
22.900000
30
0.0
11
46.603545
21
31.375585
31
0.0
0
ARC
8
0
10
46.903545
20
31.375585
30
0.0
40
0.300000
50
150.000000
51
180.000000
0
LINE
8
0
10
46.643738
20
31.525585
30
0.0
11
47.494992
21
33.000000
31
0.0
0
ARC
8
0
10
45.762941
20
34.000000
30
0.0
40
2.000000
50
330.000000
51
57.356923
0
ARC
8
0
10
47.003570
20
35.936708
30
0.0
40
0.300000
50
180.000000
51
237.356923
0
LINE
8
0
10
46.703570
20
35.936708
30
0.0
11
46.703570
21
37.700000
31
0.0
0
ARC
8
0
10
47.003570
20
37.700000
30
0.0
40
0.300000
50
90.000000
51
180.000000
0
LINE
8
0
10
47.003570
20
38.000000
30
0.0
11
49.403570
21
38.000000
31
0.0
0
ARC
8
0
10
49.403570
20
38.300000
30
0.0
40
0.300000
50
270.000000
51
0.000000
0
LINE
8
0
10
49.703570
20
38.300000
30
0.0
11
49.703570
21
40.175736
31
0.0
0
LINE
8
0
10
82.553570
20
12.994677
30
0.0
11
72.653570
21
12.994677
31
0.0
0
ARC
8
0
10
72.653570
20
12.694677
30
0.0
40
0.300000
50
90.000000
51
180.000000
0
LINE
8
0
10
72.353570
20
12.694677
30
0.0
11
72.353570
21
8.894677
31
0.0
0
ARC
8
0
10
71.853570
20
8.894677
30
0.0
40
0.500000
50
180.000000
51
0.000000
0
LINE
8
0
10
71.353570
20
8.894677
30
0.0
11
71.353570
21
12.694677
31
0.0
0
ARC
8
0
10
71.053570
20
12.694677
30
0.0
40
0.300000
50
0.000000
51
90.000000
0
LINE
8
0
10
71.053570
20
12.994677
30
0.0
11
61.153570
21
12.994677
31
0.0
0
ARC
8
0
10
61.153570
20
12.694677
30
0.0
40
0.300000
50
90.000000
51
180.000000
0
LINE
8
0
10
60.853570
20
12.694677
30
0.0
11
60.853570
21
8.894677
31
0.0
0
ARC
8
0
10
60.353570
20
8.894677
30
0.0
40
0.500000
50
180.000000
51
0.000000
0
LINE
8
0
10
59.853570
20
8.894677
30
0.0
11
59.853570
21
12.694677
31
0.0
0
ARC
8
0
10
59.553570
20
12.694677
30
0.0
40
0.300000
50
0.000000
51
90.000000
0
LINE
8
0
10
59.553570
20
12.994677
30
0.0
11
57.248900
21
12.994677
31
0.0
0
ARC
8
0
10
57.248900
20
11.994677
30
0.0
40
1.000000
50
90.000000
51
144.745828
0
LINE
8
0
10
56.432301
20
12.571882
30
0.0
11
54.909480
21
10.417473
31
0.0
0
ARC
8
0
10
54.092880
20
10.994677
30
0.0
40
1.000000
50
270.000000
51
324.745828
0
LINE
8
0
10
54.092880
20
9.994677
30
0.0
11
52.991570
21
9.994677
31
0.0
0
ARC
8
0
10
52.991570
20
8.794677
30
0.0
40
1.200000
50
90.000000
51
119.981639
0
LINE
8
0
10
52.391903
20
9.834100
30
0.0
11
50.809959
21
8.921440
31
0.0
0
ARC
8
0
10
50.710014
20
9.094677
30
0.0
40
0.200000
50
270.000000
51
299.981639
0
LINE
8
0
10
50.710014
20
8.894677
30
0.0
11
50.503570
21
8.894677
31
0.0
0
ARC
8
0
10
50.503570
20
9.294677
30
0.0
40
0.400000
50
180.000000
51
270.000000
0
LINE
8
0
10
50.103570
20
9.294677
30
0.0
11
50.103570
21
12.694677
31
0.0
0
ARC
8
0
10
50.503570
20
12.694677
30
0.0
40
0.400000
50
90.000000
51
180.000000
0
LINE
8
0
10
50.503570
20
13.094677
30
0.0
11
50.710014
21
13.094677
31
0.0
0
ARC
8
0
10
50.710014
20
12.894677
30
0.0
40
0.200000
50
60.018361
51
90.000000
0
LINE
8
0
10
50.809959
20
13.067914
30
0.0
11
52.391903
21
12.155255
31
0.0
0
ARC
8
0
10
52.991570
20
13.194677
30
0.0
40
1.200000
50
240.018361
51
270.000000
0
LINE
8
0
10
52.991570
20
11.994677
30
0.0
11
53.419804
21
11.994677
31
0.0
0
ARC
8
0
10
53.419804
20
12.294677
30
0.0
40
0.300000
50
270.000000
51
324.745828
0
LINE
8
0
10
53.664783
20
12.121516
30
0.0
11
55.546223
21
14.783280
31
0.0
0
ARC
8
0
10
55.954522
20
14.494677
30
0.0
40
0.500000
50
90.000000
51
144.745828
0
LINE
8
0
10
55.954522
20
14.994677
30
0.0
11
99.252618
21
14.994677
31
0.0
0
ARC
8
0
10
99.252618
20
14.494677
30
0.0
40
0.500000
50
35.254172
51
90.000000
0
LINE
8
0
10
99.660917
20
14.783280
30
0.0
11
101.542357
21
12.121516
31
0.0
0
ARC
8
0
10
101.787336
20
12.294677
30
0.0
40
0.300000
50
215.254172
51
270.000000
0
LINE
8
0
10
101.787336
20
11.994677
30
0.0
11
102.215570
21
11.994677
31
0.0
0
ARC
8
0
10
102.215570
20
13.194677
30
0.0
40
1.200000
50
270.000000
51
299.981639
0
LINE
8
0
10
102.815237
20
12.155255
30
0.0
11
104.397181
21
13.067914
31
0.0
0
ARC
8
0
10
104.497125
20
12.894677
30
0.0
40
0.200000
50
90.000000
51
119.981639
0
LINE
8
0
10
104.497125
20
13.094677
30
0.0
11
104.703570
21
13.094677
31
0.0
0
ARC
8
0
10
104.703570
20
12.694677
30
0.0
40
0.400000
50
0.000000
51
90.000000
0
LINE
8
0
10
105.103570
20
12.694677
30
0.0
11
105.103570
21
9.294677
31
0.0
0
ARC
8
0
10
104.703570
20
9.294677
30
0.0
40
0.400000
50
270.000000
51
0.000000
0
LINE
8
0
10
104.703570
20
8.894677
30
0.0
11
104.497125
21
8.894677
31
0.0
0
ARC
8
0
10
104.497125
20
9.094677
30
0.0
40
0.200000
50
240.018361
51
270.000000
0
LINE
8
0
10
104.397181
20
8.921440
30
0.0
11
102.815237
21
9.834100
31
0.0
0
ARC
8
0
10
102.215570
20
8.794677
30
0.0
40
1.200000
50
60.018361
51
90.000000
0
LINE
8
0
10
102.215570
20
9.994677
30
0.0
11
101.114260
21
9.994677
31
0.0
0
ARC
8
0
10
101.114260
20
10.994677
30
0.0
40
1.000000
50
215.254172
51
270.000000
0
LINE
8
0
10
100.297660
20
10.417473
30
0.0
11
98.774839
21
12.571882
31
0.0
0
ARC
8
0
10
97.958240
20
11.994677
30
0.0
40
1.000000
50
35.254172
51
90.000000
0
LINE
8
0
10
97.958240
20
12.994677
30
0.0
11
95.653570
21
12.994677
31
0.0
0
ARC
8
0
10
95.653570
20
12.694677
30
0.0
40
0.300000
50
90.000000
51
180.000000
0
LINE
8
0
10
95.353570
20
12.694677
30
0.0
11
95.353570
21
8.894677
31
0.0
0
ARC
8
0
10
94.853570
20
8.894677
30
0.0
40
0.500000
50
180.000000
51
0.000000
0
LINE
8
0
10
94.353570
20
8.894677
30
0.0
11
94.353570
21
12.694677
31
0.0
0
ARC
8
0
10
94.053570
20
12.694677
30
0.0
40
0.300000
50
0.000000
51
90.000000
0
LINE
8
0
10
94.053570
20
12.994677
30
0.0
11
84.153570
21
12.994677
31
0.0
0
ARC
8
0
10
84.153570
20
12.694677
30
0.0
40
0.300000
50
90.000000
51
180.000000
0
LINE
8
0
10
83.853570
20
12.694677
30
0.0
11
83.853570
21
8.894677
31
0.0
0
ARC
8
0
10
83.353570
20
8.894677
30
0.0
40
0.500000
50
180.000000
51
0.000000
0
LINE
8
0
10
82.853570
20
8.894677
30
0.0
11
82.853570
21
12.694677
31
0.0
0
ARC
8
0
10
82.553570
20
12.694677
30
0.0
40
0.300000
50
0.000000
51
90.000000
0
LINE
8
0
10
82.553570
20
2.015303
30
0.0
11
72.653570
21
2.015303
31
0.0
0
ARC
8
0
10
72.653570
20
2.315303
30
0.0
40
0.300000
50
180.000000
51
270.000000
0
LINE
8
0
10
72.353570
20
2.315303
30
0.0
11
72.353570
21
6.115303
31
0.0
0
ARC
8
0
10
71.853570
20
6.115303
30
0.0
40
0.500000
50
0.000000
51
180.000000
0
LINE
8
0
10
71.353570
20
6.115303
30
0.0
11
71.353570
21
2.315303
31
0.0
0
ARC
8
0
10
71.053570
20
2.315303
30
0.0
40
0.300000
50
270.000000
51
0.000000
0
LINE
8
0
10
71.053570
20
2.015303
30
0.0
11
61.153570
21
2.015303
31
0.0
0
ARC
8
0
10
61.153570
20
2.315303
30
0.0
40
0.300000
50
180.000000
51
270.000000
0
LINE
8
0
10
60.853570
20
2.315303
30
0.0
11
60.853570
21
6.115303
31
0.0
0
ARC
8
0
10
60.353570
20
6.115303
30
0.0
40
0.500000
50
0.000000
51
180.000000
0
LINE
8
0
10
59.853570
20
6.115303
30
0.0
11
59.853570
21
2.315303
31
0.0
0
ARC
8
0
10
59.553570
20
2.315303
30
0.0
40
0.300000
50
270.000000
51
0.000000
0
LINE
8
0
10
59.553570
20
2.015303
30
0.0
11
57.248900
21
2.015303
31
0.0
0
ARC
8
0
10
57.248900
20
3.015303
30
0.0
40
1.000000
50
215.254172
51
270.000000
0
LINE
8
0
10
56.432301
20
2.438099
30
0.0
11
54.909480
21
4.592508
31
0.0
0
ARC
8
0
10
54.092880
20
4.015303
30
0.0
40
1.000000
50
35.254172
51
90.000000
0
LINE
8
0
10
54.092880
20
5.015303
30
0.0
11
52.991570
21
5.015303
31
0.0
0
ARC
8
0
10
52.991570
20
6.215303
30
0.0
40
1.200000
50
240.018361
51
270.000000
0
LINE
8
0
10
52.391903
20
5.175881
30
0.0
11
50.809959
21
6.088540
31
0.0
0
ARC
8
0
10
50.710014
20
5.915303
30
0.0
40
0.200000
50
60.018361
51
90.000000
0
LINE
8
0
10
50.710014
20
6.115303
30
0.0
11
50.503570
21
6.115303
31
0.0
0
ARC
8
0
10
50.503570
20
5.715303
30
0.0
40
0.400000
50
90.000000
51
180.000000
0
LINE
8
0
10
50.103570
20
5.715303
30
0.0
11
50.103570
21
2.315303
31
0.0
0
ARC
8
0
10
50.503570
20
2.315303
30
0.0
40
0.400000
50
180.000000
51
270.000000
0
LINE
8
0
10
50.503570
20
1.915303
30
0.0
11
50.710014
21
1.915303
31
0.0
0
ARC
8
0
10
50.710014
20
2.115303
30
0.0
40
0.200000
50
270.000000
51
299.981639
0
LINE
8
0
10
50.809959
20
1.942066
30
0.0
11
52.391903
21
2.854726
31
0.0
0
ARC
8
0
10
52.991570
20
1.815303
30
0.0
40
1.200000
50
90.000000
51
119.981639
0
LINE
8
0
10
52.991570
20
3.015303
30
0.0
11
53.419804
21
3.015303
31
0.0
0
ARC
8
0
10
53.419804
20
2.715303
30
0.0
40
0.300000
50
35.254172
51
90.000000
0
LINE
8
0
10
53.664783
20
2.888465
30
0.0
11
55.546223
21
0.226701
31
0.0
0
ARC
8
0
10
55.954522
20
0.515303
30
0.0
40
0.500000
50
215.254172
51
270.000000
0
LINE
8
0
10
55.954522
20
0.015303
30
0.0
11
99.252618
21
0.015303
31
0.0
0
ARC
8
0
10
99.252618
20
0.515303
30
0.0
40
0.500000
50
270.000000
51
324.745828
0
LINE
8
0
10
99.660917
20
0.226701
30
0.0
11
101.542357
21
2.888465
31
0.0
0
ARC
8
0
10
101.787336
20
2.715303
30
0.0
40
0.300000
50
90.000000
51
144.745828
0
LINE
8
0
10
101.787336
20
3.015303
30
0.0
11
102.215570
21
3.015303
31
0.0
0
ARC
8
0
10
102.215570
20
1.815303
30
0.0
40
1.200000
50
60.018361
51
90.000000
0
LINE
8
0
10
102.815237
20
2.854726
30
0.0
11
104.397181
21
1.942066
31
0.0
0
ARC
8
0
10
104.497125
20
2.115303
30
0.0
40
0.200000
50
240.018361
51
270.000000
0
LINE
8
0
10
104.497125
20
1.915303
30
0.0
11
104.703570
21
1.915303
31
0.0
0
ARC
8
0
10
104.703570
20
2.315303
30
0.0
40
0.400000
50
270.000000
51
0.000000
0
LINE
8
0
10
105.103570
20
2.315303
30
0.0
11
105.103570
21
5.715303
31
0.0
0
ARC
8
0
10
104.703570
20
5.715303
30
0.0
40
0.400000
50
0.000000
51
90.000000
0
LINE
8
0
10
104.703570
20
6.115303
30
0.0
11
104.497125
21
6.115303
31
0.0
0
ARC
8
0
10
104.497125
20
5.915303
30
0.0
40
0.200000
50
90.000000
51
119.981639
0
LINE
8
0
10
104.397181
20
6.088540
30
0.0
11
102.815237
21
5.175881
31
0.0
0
ARC
8
0
10
102.215570
20
6.215303
30
0.0
40
1.200000
50
270.000000
51
299.981639
0
LINE
8
0
10
102.215570
20
5.015303
30
0.0
11
101.114260
21
5.015303
31
0.0
0
ARC
8
0
10
101.114260
20
4.015303
30
0.0
40
1.000000
50
90.000000
51
144.745828
0
LINE
8
0
10
100.297660
20
4.592508
30
0.0
11
98.774839
21
2.438099
31
0.0
0
ARC
8
0
10
97.958240
20
3.015303
30
0.0
40
1.000000
50
270.000000
51
324.745828
0
LINE
8
0
10
97.958240
20
2.015303
30
0.0
11
95.653570
21
2.015303
31
0.0
0
ARC
8
0
10
95.653570
20
2.315303
30
0.0
40
0.300000
50
180.000000
51
270.000000
0
LINE
8
0
10
95.353570
20
2.315303
30
0.0
11
95.353570
21
6.115303
31
0.0
0
ARC
8
0
10
94.853570
20
6.115303
30
0.0
40
0.500000
50
0.000000
51
180.000000
0
LINE
8
0
10
94.353570
20
6.115303
30
0.0
11
94.353570
21
2.315303
31
0.0
0
ARC
8
0
10
94.053570
20
2.315303
30
0.0
40
0.300000
50
270.000000
51
0.000000
0
LINE
8
0
10
94.053570
20
2.015303
30
0.0
11
84.153570
21
2.015303
31
0.0
0
ARC
8
0
10
84.153570
20
2.315303
30
0.0
40
0.300000
50
180.000000
51
270.000000
0
LINE
8
0
10
83.853570
20
2.315303
30
0.0
11
83.853570
21
6.115303
31
0.0
0
ARC
8
0
10
83.353570
20
6.115303
30
0.0
40
0.500000
50
0.000000
51
180.000000
0
LINE
8
0
10
82.853570
20
6.115303
30
0.0
11
82.853570
21
2.315303
31
0.0
0
ARC
8
0
10
82.553570
20
2.315303
30
0.0
40
0.300000
50
270.000000
51
0.000000
0
ATTDEF
8
0
10
17.403570
20
43.400000
30
0.0
40
3.5
1

3

2
VC_START
70
0
0
ATTDEF
8
0
10
7.903570
20
0.000000
30
0.0
40
3.5
1

3

2
VC_END
70
0
0
ARC
8
0
10
59.203570
20
15.600000
30
0.0
40
0.300000
50
270.000000
51
0.000000
0
LINE
8
0
10
59.503570
20
15.600000
30
0.0
11
59.503570
21
18.600000
31
0.0
0
ARC
8
0
10
60.003570
20
18.600000
30
0.0
40
0.500000
50
90.000000
51
180.000000
0
LINE
8
0
10
60.003570
20
19.100000
30
0.0
11
68.803570
21
19.100000
31
0.0
0
ARC
8
0
10
68.803570
20
18.600000
30
0.0
40
0.500000
50
0.000000
51
90.000000
0
LINE
8
0
10
69.303570
20
18.600000
30
0.0
11
69.303570
21
15.600000
31
0.0
0
ARC
8
0
10
69.603570
20
15.600000
30
0.0
40
0.300000
50
180.000000
51
270.000000
0
LINE
8
0
10
69.603570
20
15.300000
30
0.0
11
70.603570
21
15.300000
31
0.0
0
ARC
8
0
10
70.603570
20
15.600000
30
0.0
40
0.300000
50
270.000000
51
0.000000
0
LINE
8
0
10
70.903570
20
15.600000
30
0.0
11
70.903570
21
18.600000
31
0.0
0
ARC
8
0
10
71.403570
20
18.600000
30
0.0
40
0.500000
50
90.000000
51
180.000000
0
LINE
8
0
10
71.403570
20
19.100000
30
0.0
11
83.803570
21
19.100000
31
0.0
0
ARC
8
0
10
83.803570
20
18.600000
30
0.0
40
0.500000
50
0.000000
51
90.000000
0
LINE
8
0
10
84.303570
20
18.600000
30
0.0
11
84.303570
21
15.600000
31
0.0
0
ARC
8
0
10
84.603570
20
15.600000
30
0.0
40
0.300000
50
180.000000
51
270.000000
0
LINE
8
0
10
84.603570
20
15.300000
30
0.0
11
85.603570
21
15.300000
31
0.0
0
ARC
8
0
10
85.603570
20
15.600000
30
0.0
40
0.300000
50
270.000000
51
0.000000
0
LINE
8
0
10
85.903570
20
15.600000
30
0.0
11
85.903570
21
18.600000
31
0.0
0
ARC
8
0
10
86.403570
20
18.600000
30
0.0
40
0.500000
50
90.000000
51
180.000000
0
LINE
8
0
10
86.403570
20
19.100000
30
0.0
11
95.203570
21
19.100000
31
0.0
0
ARC
8
0
10
95.203570
20
18.600000
30
0.0
40
0.500000
50
0.000000
51
90.000000
0
LINE
8
0
10
95.703570
20
18.600000
30
0.0
11
95.703570
21
15.600000
31
0.0
0
ARC
8
0
10
96.003570
20
15.600000
30
0.0
40
0.300000
50
180.000000
51
270.000000
0
LINE
8
0
10
96.003570
20
15.300000
30
0.0
11
97.003570
21
15.300000
31
0.0
0
ARC
8
0
10
97.003570
20
15.600000
30
0.0
40
0.300000
50
270.000000
51
0.000000
0
LINE
8
0
10
97.303570
20
15.600000
30
0.0
11
97.303570
21
19.600000
31
0.0
0
ARC
8
0
10
98.803570
20
19.600000
30
0.0
40
1.500000
50
90.000000
51
180.000000
0
LINE
8
0
10
98.803570
20
21.100000
30
0.0
11
104.303570
21
21.100000
31
0.0
0
ARC
8
0
10
104.303570
20
21.900000
30
0.0
40
0.800000
50
270.000000
51
0.000000
0
LINE
8
0
10
105.103570
20
21.900000
30
0.0
11
105.103570
21
22.486112
31
0.0
0
ARC
8
0
10
104.103570
20
22.486112
30
0.0
40
1.000000
50
0.000000
51
12.994617
0
LINE
8
0
10
105.077961
20
22.710971
30
0.0
11
103.659467
21
28.857777
31
0.0
0
ARC
8
0
10
104.633859
20
29.082637
30
0.0
40
1.000000
50
165.074419
51
192.994617
0
LINE
8
0
10
103.667597
20
29.340201
30
0.0
11
105.623402
21
36.677469
31
0.0
0
ARC
8
0
10
104.657140
20
36.935033
30
0.0
40
1.000000
50
345.074419
51
0.000000
0
LINE
8
0
10
105.657140
20
36.935033
30
0.0
11
105.657140
21
37.819510
31
0.0
0
ARC
8
0
10
105.357140
20
37.819510
30
0.0
40
0.300000
50
0.000000
51
68.962489
0
LINE
8
0
10
105.464834
20
38.099514
30
0.0
11
105.395876
21
38.126036
31
0.0
0
ARC
8
0
10
105.503570
20
38.406040
30
0.0
40
0.300000
50
180.000000
51
248.962489
0
LINE
8
0
10
105.203570
20
38.406040
30
0.0
11
105.203570
21
40.275736
31
0.0
0
ARC
8
0
10
105.503570
20
40.275736
30
0.0
40
0.300000
50
135.000000
51
180.000000
0
LINE
8
0
10
105.291438
20
40.487868
30
0.0
11
105.715702
21
40.912132
31
0.0
0
ARC
8
0
10
105.927834
20
40.700000
30
0.0
40
0.300000
50
90.000000
51
135.000000
0
LINE
8
0
10
105.927834
20
41.000000
30
0.0
11
106.703570
21
41.000000
31
0.0
0
ARC
8
0
10
106.703570
20
41.300000
30
0.0
40
0.300000
50
270.000000
51
0.000000
0
LINE
8
0
10
107.003570
20
41.300000
30
0.0
11
107.003570
21
43.100000
31
0.0
0
ARC
8
0
10
106.703570
20
43.100000
30
0.0
40
0.300000
50
0.000000
51
90.000000
0
LINE
8
0
10
106.703570
20
43.400000
30
0.0
11
94.803570
21
43.400000
31
0.0
0
ARC
8
0
10
94.803570
20
42.400000
30
0.0
40
1.000000
50
90.000000
51
180.000000
0
LINE
8
0
10
93.803570
20
42.400000
30
0.0
11
93.803570
21
38.014622
31
0.0
0
ARC
8
0
10
94.603570
20
38.014622
30
0.0
40
0.800000
50
180.000000
51
255.068583
0
LINE
8
0
10
94.397440
20
37.241635
30
0.0
11
95.080869
21
37.059387
31
0.0
0
ARC
8
0
10
95.003570
20
36.769516
30
0.0
40
0.300000
50
0.000000
51
75.068583
0
LINE
8
0
10
95.303570
20
36.769516
30
0.0
11
95.303570
21
21.600000
31
0.0
0
ARC
8
0
10
94.803570
20
21.600000
30
0.0
40
0.500000
50
270.000000
51
0.000000
0
LINE
8
0
10
94.803570
20
21.100000
30
0.0
11
60.403570
21
21.100000
31
0.0
0
ARC
8
0
10
60.403570
20
21.600000
30
0.0
40
0.500000
50
180.000000
51
270.000000
0
LINE
8
0
10
59.903570
20
21.600000
30
0.0
11
59.903570
21
36.769516
31
0.0
0
ARC
8
0
10
60.203570
20
36.769516
30
0.0
40
0.300000
50
104.931417
51
180.000000
0
LINE
8
0
10
60.126271
20
37.059387
30
0.0
11
60.809700
21
37.241635
31
0.0
0
ARC
8
0
10
60.603570
20
38.014622
30
0.0
40
0.800000
50
284.931417
51
0.000000
0
LINE
8
0
10
61.403570
20
38.014622
30
0.0
11
61.403570
21
42.400000
31
0.0
0
ARC
8
0
10
60.403570
20
42.400000
30
0.0
40
1.000000
50
0.000000
51
90.000000
0
LINE
8
0
10
60.403570
20
43.400000
30
0.0
11
48.503570
21
43.400000
31
0.0
0
ARC
8
0
10
48.503570
20
43.100000
30
0.0
40
0.300000
50
90.000000
51
180.000000
0
LINE
8
0
10
48.203570
20
43.100000
30
0.0
11
48.203570
21
41.300000
31
0.0
0
ARC
8
0
10
48.503570
20
41.300000
30
0.0
40
0.300000
50
180.000000
51
270.000000
0
LINE
8
0
10
48.503570
20
41.000000
30
0.0
11
49.279306
21
41.000000
31
0.0
0
ARC
8
0
10
49.279306
20
40.700000
30
0.0
40
0.300000
50
45.000000
51
90.000000
0
LINE
8
0
10
49.491438
20
40.912132
30
0.0
11
49.915702
21
40.487868
31
0.0
0
ARC
8
0
10
49.703570
20
40.275736
30
0.0
40
0.300000
50
0.000000
51
45.000000
0
LINE
8
0
10
50.003570
20
40.275736
30
0.0
11
50.003570
21
38.406040
31
0.0
0
ARC
8
0
10
49.703570
20
38.406040
30
0.0
40
0.300000
50
291.037511
51
0.000000
0
LINE
8
0
10
49.811264
20
38.126036
30
0.0
11
49.742306
21
38.099514
31
0.0
0
ARC
8
0
10
49.849999
20
37.819510
30
0.0
40
0.300000
50
111.037511
51
180.000000
0
LINE
8
0
10
49.549999
20
37.819510
30
0.0
11
49.549999
21
36.935033
31
0.0
0
ARC
8
0
10
50.549999
20
36.935033
30
0.0
40
1.000000
50
180.000000
51
194.925581
0
LINE
8
0
10
49.583738
20
36.677469
30
0.0
11
51.539542
21
29.340201
31
0.0
0
ARC
8
0
10
50.573281
20
29.082637
30
0.0
40
1.000000
50
347.005383
51
14.925581
0
LINE
8
0
10
51.547672
20
28.857777
30
0.0
11
50.129179
21
22.710971
31
0.0
0
ARC
8
0
10
51.103570
20
22.486112
30
0.0
40
1.000000
50
167.005383
51
180.000000
0
LINE
8
0
10
50.103570
20
22.486112
30
0.0
11
50.103570
21
21.900000
31
0.0
0
ARC
8
0
10
50.903570
20
21.900000
30
0.0
40
0.800000
50
180.000000
51
270.000000
0
LINE
8
0
10
50.903570
20
21.100000
30
0.0
11
56.403570
21
21.100000
31
0.0
0
ARC
8
0
10
56.403570
20
19.600000
30
0.0
40
1.500000
50
0.000000
51
90.000000
0
LINE
8
0
10
57.903570
20
19.600000
30
0.0
11
57.903570
21
15.600000
31
0.0
0
ARC
8
0
10
58.203570
20
15.600000
30
0.0
40
0.300000
50
180.000000
51
270.000000
0
LINE
8
0
10
58.203570
20
15.300000
30
0.0
11
59.203570
21
15.300000
31
0.0
0
LINE
8
0
10
51.476438
20
23.212430
30
0.0
11
52.784019
21
28.878613
31
0.0
0
ARC
8
0
10
51.809628
20
29.103472
30
0.0
40
1.000000
50
347.005383
51
14.925581
0
LINE
8
0
10
52.775889
20
29.361037
30
0.0
11
50.760686
21
36.921142
31
0.0
0
ARC
8
0
10
51.050564
20
36.998411
30
0.0
40
0.300000
50
115.705312
51
194.925581
0
ARC
8
0
10
50.703570
20
37.719240
30
0.0
40
0.500000
50
295.705312
51
0.000000
0
LINE
8
0
10
51.203570
20
37.719240
30
0.0
11
51.203570
21
40.651668
31
0.0
0
ARC
8
0
10
50.903570
20
40.651668
30
0.0
40
0.300000
50
0.000000
51
56.251011
0
ARC
8
0
10
51.403570
20
41.400000
30
0.0
40
0.600000
50
33.748989
51
236.251011
0
ARC
8
0
10
52.151901
20
41.900000
30
0.0
40
0.300000
50
213.748989
51
270.000000
0
LINE
8
0
10
52.151901
20
41.600000
30
0.0
11
59.103570
21
41.600000
31
0.0
0
ARC
8
0
10
59.103570
20
41.100000
30
0.0
40
0.500000
50
0.000000
51
90.000000
0
LINE
8
0
10
59.603570
20
41.100000
30
0.0
11
59.603570
21
39.167040
31
0.0
0
ARC
8
0
10
59.103570
20
39.167040
30
0.0
40
0.500000
50
284.931417
51
0.000000
0
LINE
8
0
10
59.232401
20
38.683922
30
0.0
11
58.674739
21
38.535212
31
0.0
0
ARC
8
0
10
58.803570
20
38.052095
30
0.0
40
0.500000
50
104.931417
51
180.000000
0
LINE
8
0
10
58.303570
20
38.052095
30
0.0
11
58.303570
21
23.100000
31
0.0
0
ARC
8
0
10
57.803570
20
23.100000
30
0.0
40
0.500000
50
270.000000
51
0.000000
0
LINE
8
0
10
57.803570
20
22.600000
30
0.0
11
51.963634
21
22.600000
31
0.0
0
ARC
8
0
10
51.963634
20
23.100000
30
0.0
40
0.500000
50
167.005383
51
270.000000
0
LINE
8
0
10
102.431251
20
29.361037
30
0.0
11
104.446454
21
36.921142
31
0.0
0
ARC
8
0
10
104.156576
20
36.998411
30
0.0
40
0.300000
50
345.074419
51
64.294688
0
ARC
8
0
10
104.503570
20
37.719240
30
0.0
40
0.500000
50
180.000000
51
244.294688
0
LINE
8
0
10
104.003570
20
37.719240
30
0.0
11
104.003570
21
40.651668
31
0.0
0
ARC
8
0
10
104.303570
20
40.651668
30
0.0
40
0.300000
50
123.748989
51
180.000000
0
ARC
8
0
10
103.803570
20
41.400000
30
0.0
40
0.600000
50
303.748989
51
146.251011
0
ARC
8
0
10
103.055238
20
41.900000
30
0.0
40
0.300000
50
270.000000
51
326.251011
0
LINE
8
0
10
103.055238
20
41.600000
30
0.0
11
96.103570
21
41.600000
31
0.0
0
ARC
8
0
10
96.103570
20
41.100000
30
0.0
40
0.500000
50
90.000000
51
180.000000
0
LINE
8
0
10
95.603570
20
41.100000
30
0.0
11
95.603570
21
39.167040
31
0.0
0
ARC
8
0
10
96.103570
20
39.167040
30
0.0
40
0.500000
50
180.000000
51
255.068583
0
LINE
8
0
10
95.974739
20
38.683922
30
0.0
11
96.532401
21
38.535212
31
0.0
0
ARC
8
0
10
96.403570
20
38.052095
30
0.0
40
0.500000
50
0.000000
51
75.068583
0
LINE
8
0
10
96.903570
20
38.052095
30
0.0
11
96.903570
21
23.100000
31
0.0
0
ARC
8
0
10
97.403570
20
23.100000
30
0.0
40
0.500000
50
180.000000
51
270.000000
0
LINE
8
0
10
97.403570
20
22.600000
30
0.0
11
103.243506
21
22.600000
31
0.0
0
ARC
8
0
10
103.243506
20
23.100000
30
0.0
40
0.500000
50
270.000000
51
12.994617
0
LINE
8
0
10
103.730702
20
23.212430
30
0.0
11
102.423121
21
28.878613
31
0.0
0
ARC
8
0
10
103.397512
20
29.103472
30
0.0
40
1.000000
50
165.074419
51
192.994617
0
LINE
8
0
10
3.700000
20
38.000000
30
0.0
11
3.700000
21
36.100000
31
0.0
0
ARC
8
0
10
3.200000
20
36.100000
30
0.0
40
0.500000
50
270.000000
51
0.000000
0
LINE
8
0
10
3.200000
20
35.600000
30
0.0
11
1.800000
21
35.600000
31
0.0
0
ARC
8
0
10
1.800000
20
35.300000
30
0.0
40
0.300000
50
90.000000
51
180.000000
0
LINE
8
0
10
1.500000
20
35.300000
30
0.0
11
1.500000
21
20.583863
31
0.0
0
ARC
8
0
10
2.000000
20
20.583863
30
0.0
40
0.500000
50
180.000000
51
264.000000
0
LINE
8
0
10
1.947736
20
20.086602
30
0.0
11
7.772212
21
19.474425
31
0.0
0
ARC
8
0
10
7.803570
20
19.772782
30
0.0
40
0.300000
50
264.000000
51
0.000000
0
LINE
8
0
10
8.103570
20
19.772782
30
0.0
11
8.103570
21
20.700000
31
0.0
0
ARC
8
0
10
8.403570
20
20.700000
30
0.0
40
0.300000
50
90.000000
51
180.000000
0
LINE
8
0
10
8.403570
20
21.000000
30
0.0
11
12.103570
21
21.000000
31
0.0
0
LINE
8
0
10
12.103570
20
21.000000
30
0.0
11
12.403570
21
20.700000
31
0.0
0
LINE
8
0
10
12.403570
20
20.700000
30
0.0
11
12.703570
21
21.000000
31
0.0
0
LINE
8
0
10
12.703570
20
21.000000
30
0.0
11
16.403570
21
21.000000
31
0.0
0
ARC
8
0
10
16.403570
20
20.700000
30
0.0
40
0.300000
50
0.000000
51
90.000000
0
LINE
8
0
10
16.703570
20
20.700000
30
0.0
11
16.703570
21
19.700000
31
0.0
0
ARC
8
0
10
17.003570
20
19.700000
30
0.0
40
0.300000
50
180.000000
51
270.000000
0
LINE
8
0
10
17.003570
20
19.400000
30
0.0
11
17.603570
21
19.400000
31
0.0
0
ARC
8
0
10
17.603570
20
19.100000
30
0.0
40
0.300000
50
0.000000
51
90.000000
0
LINE
8
0
10
17.903570
20
19.100000
30
0.0
11
17.903570
21
18.300000
31
0.0
0
ARC
8
0
10
17.603570
20
18.300000
30
0.0
40
0.300000
50
270.000000
51
0.000000
0
LINE
8
0
10
17.603570
20
18.000000
30
0.0
11
15.053570
21
18.000000
31
0.0
0
ARC
8
0
10
15.053570
20
18.300000
30
0.0
40
0.300000
50
180.000000
51
270.000000
0
LINE
8
0
10
14.753570
20
18.300000
30
0.0
11
14.753570
21
18.500000
31
0.0
0
ARC
8
0
10
13.753570
20
18.500000
30
0.0
40
1.000000
50
0.000000
51
90.000000
0
LINE
8
0
10
13.753570
20
19.500000
30
0.0
11
11.053570
21
19.500000
31
0.0
0
ARC
8
0
10
11.053570
20
18.500000
30
0.0
40
1.000000
50
90.000000
51
180.000000
0
LINE
8
0
10
10.053570
20
18.500000
30
0.0
11
10.053570
21
18.300000
31
0.0
0
ARC
8
0
10
9.753570
20
18.300000
30
0.0
40
0.300000
50
270.000000
51
0.000000
0
LINE
8
0
10
9.753570
20
18.000000
30
0.0
11
7.450273
21
18.000000
31
0.0
0
LINE
8
0
10
7.450273
20
18.000000
30
0.0
11
1.343207
21
18.641879
31
0.0
0
ARC
8
0
10
1.500000
20
20.133661
30
0.0
40
1.500000
50
180.000000
51
264.000000
0
LINE
8
0
10
0.000000
20
20.133661
30
0.0
11
0.000000
21
44.100000
31
0.0
0
ARC
8
0
10
1.500000
20
44.100000
30
0.0
40
1.500000
50
90.000000
51
180.000000
0
LINE
8
0
10
1.500000
20
45.600000
30
0.0
11
3.400000
21
45.600000
31
0.0
0
ARC
8
0
10
3.400000
20
45.300000
30
0.0
40
0.300000
50
0.000000
51
90.000000
0
LINE
8
0
10
3.700000
20
45.300000
30
0.0
11
3.700000
21
43.200000
31
0.0
0
ARC
8
0
10
3.400000
20
43.200000
30
0.0
40
0.300000
50
270.000000
51
0.000000
0
LINE
8
0
10
3.400000
20
42.900000
30
0.0
11
3.000000
21
42.900000
31
0.0
0
ARC
8
0
10
3.000000
20
43.200000
30
0.0
40
0.300000
50
180.000000
51
270.000000
0
LINE
8
0
10
2.700000
20
43.200000
30
0.0
11
2.700000
21
44.100000
31
0.0
0
ARC
8
0
10
2.400000
20
44.100000
30
0.0
40
0.300000
50
0.000000
51
90.000000
0
LINE
8
0
10
2.400000
20
44.400000
30
0.0
11
1.702022
21
44.400000
31
0.0
0
ARC
8
0
10
1.702022
20
44.100000
30
0.0
40
0.300000
50
90.000000
51
180.000000
0
LINE
8
0
10
1.402022
20
44.100000
30
0.0
11
1.402022
21
37.100000
31
0.0
0
ARC
8
0
10
1.702022
20
37.100000
30
0.0
40
0.300000
50
180.000000
51
270.000000
0
LINE
8
0
10
1.702022
20
36.800000
30
0.0
11
2.400000
21
36.800000
31
0.0
0
ARC
8
0
10
2.400000
20
37.100000
30
0.0
40
0.300000
50
270.000000
51
0.000000
0
LINE
8
0
10
2.700000
20
37.100000
30
0.0
11
2.700000
21
38.000000
31
0.0
0
ARC
8
0
10
3.000000
20
38.000000
30
0.0
40
0.300000
50
90.000000
51
180.000000
0
LINE
8
0
10
3.000000
20
38.300000
30
0.0
11
3.400000
21
38.300000
31
0.0
0
ARC
8
0
10
3.400000
20
38.000000
30
0.0
40
0.300000
50
0.000000
51
90.000000
0
ATTDEF
8
0
10
0.000000
20
0.000000
30
0.0
40
3.5
1

3

2
GLASS_MIN:0.000000
70
0
0
ATTDEF
8
0
10
0.000000
20
0.000000
30
0.0
40
3.5
1

3

2
GLASS_MAX:0.000000
70
0
0
ATTDEF
8
0
10
0.000000
20
0.000000
30
0.0
40
3.5
1

3

2
BL01:6500.000000,,1
70
0
0
ATTDEF
8
0
10
0.000000
20
0.000000
30
0.0
40
3.5
1

3

2
HW_START
70
0
0
ATTDEF
8
0
10
147.603570
20
45.600000
30
0.0
40
3.5
1

3

2
HW_END
70
0
0
ATTDEF
8
0
10
0.000000
20
0.000000
30
0.0
40
3.5
1

3

2
FP_LCS_ORIG
70
0
0
ATTDEF
8
0
10
10.000000
20
0.000000
30
0.0
40
3.5
1

3

2
FP_LCS_HOT
70
0
0
ATTDEF
8
0
10
0.000000
20
10.000000
30
0.0
40
3.5
1

3

2
FP_LCS_INTERN
70
0
0
ATTDEF
8
0
10
0.000000
20
0.000000
30
0.0
40
3.5
1

3

2
TDEV3:0
70
0
0
ATTDEF
8
0
10
0.000000
20
0.000000
30
0.0
40
3.5
1

3

2
TDEV4:0
70
0
0
ATTDEF
8
0
10
0.000000
20
0.000000
30
0.0
40
3.5
1

3

2
TDEV5:0
70
0
0
ATTDEF
8
0
10
0.000000
20
0.000000
30
0.0
40
3.5
1

3

2
PANE_WIDTH:0
70
0
0
ATTDEF
8
0
10
0.000000
20
0.000000
30
0.0
40
3.5
1

3

2
MIN_VETRO:0
70
0
0
ATTDEF
8
0
10
0.000000
20
0.000000
30
0.0
40
3.5
1

3

2
MAX_VETRO:0
70
0
0
ATTDEF
8
0
10
0.000000
20
0.000000
30
0.0
40
3.5
1

3

2
JX:0
70
0
0
ATTDEF
8
0
10
0.000000
20
0.000000
30
0.0
40
3.5
1

3

2
WX:0
70
0
0
ATTDEF
8
0
10
0.000000
20
0.000000
30
0.0
40
3.5
1

3

2
JY:0
70
0
0
ATTDEF
8
0
10
0.000000
20
0.000000
30
0.0
40
3.5
1

3

2
WY:0
70
0
0
ATTDEF
8
0
10
0.000000
20
0.000000
30
0.0
40
3.5
1

3

2
DESC:U10020 - V31208 - N10902
70
0
0
ATTDEF
8
0
10
0.000000
20
0.000000
30
0.0
40
3.5
1

3

2
DENS:0
70
0
0
ATTDEF
8
0
10
0.000000
20
0.000000
30
0.0
40
3.5
1

3

2
TDEV:0
70
0
0
ATTDEF
8
0
10
0.000000
20
0.000000
30
0.0
40
3.5
1

3

2
TDEV2:0
70
0
0
ATTDEF
8
0
10
0.000000
20
0.000000
30
0.0
40
3.5
1

3

2
TDEV3:0
70
0
0
ATTDEF
8
0
10
0.000000
20
0.000000
30
0.0
40
3.5
1

3

2
TDEV4:0
70
0
0
ATTDEF
8
0
10
0.000000
20
0.000000
30
0.0
40
3.5
1

3

2
TDEV5:0
70
0
0
ATTDEF
8
0
10
0.000000
20
0.000000
30
0.0
40
3.5
1

3

2
PANE_WIDTH:0
70
0
0
ATTDEF
8
0
10
0.000000
20
0.000000
30
0.0
40
3.5
1

3

2
MIN_VETRO:0
70
0
0
ATTDEF
8
0
10
0.000000
20
0.000000
30
0.0
40
3.5
1

3

2
MAX_VETRO:0
70
0
0
ATTDEF
8
0
10
0.000000
20
0.000000
30
0.0
40
3.5
1

3

2
JX:0
70
0
0
ATTDEF
8
0
10
0.000000
20
0.000000
30
0.0
40
3.5
1

3

2
WX:0
70
0
0
ATTDEF
8
0
10
0.000000
20
0.000000
30
0.0
40
3.5
1

3

2
JY:0
70
0
0
ATTDEF
8
0
10
0.000000
20
0.000000
30
0.0
40
3.5
1

3

2
WY:0
70
0
0
ENDSEC
0
EOF
