0
SECTION
2
ENTITIES
0
LINE
8
0
10
22.122757
20
177.011492
30
0.0
11
22.122757
21
161.990700
31
0.0
0
ARC
8
0
10
21.822757
20
161.990700
30
0.0
40
0.300000
50
270.000000
51
0.000000
0
LINE
8
0
10
21.822757
20
161.690700
30
0.0
11
19.122757
21
161.690700
31
0.0
0
ARC
8
0
10
19.122757
20
161.390700
30
0.0
40
0.300000
50
90.000000
51
180.000000
0
LINE
8
0
10
18.822757
20
161.390700
30
0.0
11
18.822757
21
160.490700
31
0.0
0
ARC
8
0
10
19.122757
20
160.490700
30
0.0
40
0.300000
50
180.000000
51
270.000000
0
LINE
8
0
10
19.122757
20
160.190700
30
0.0
11
20.422757
21
160.190700
31
0.0
0
ARC
8
0
10
20.422757
20
159.890700
30
0.0
40
0.300000
50
0.000000
51
90.000000
0
LINE
8
0
10
20.722757
20
159.890700
30
0.0
11
20.722757
21
158.490700
31
0.0
0
ARC
8
0
10
21.022757
20
158.490700
30
0.0
40
0.300000
50
180.000000
51
270.000000
0
LINE
8
0
10
21.022757
20
158.190700
30
0.0
11
21.822757
21
158.190700
31
0.0
0
ARC
8
0
10
21.822757
20
157.890700
30
0.0
40
0.300000
50
0.000000
51
90.000000
0
LINE
8
0
10
22.122757
20
157.890700
30
0.0
11
22.122757
21
155.890700
31
0.0
0
ARC
8
0
10
22.422757
20
155.890700
30
0.0
40
0.300000
50
180.000000
51
270.000000
0
LINE
8
0
10
22.422757
20
155.590700
30
0.0
11
32.122757
21
155.590700
31
0.0
0
ARC
8
0
10
32.122757
20
155.290700
30
0.0
40
0.300000
50
0.000000
51
90.000000
0
LINE
8
0
10
32.422757
20
155.290700
30
0.0
11
32.422757
21
145.890700
31
0.0
0
ARC
8
0
10
32.122757
20
145.890700
30
0.0
40
0.300000
50
270.000000
51
0.000000
0
LINE
8
0
10
32.122757
20
145.590700
30
0.0
11
22.522757
21
145.590700
31
0.0
0
ARC
8
0
10
22.522757
20
145.890700
30
0.0
40
0.300000
50
180.000000
51
270.000000
0
LINE
8
0
10
22.222757
20
145.890700
30
0.0
11
22.222757
21
146.790700
31
0.0
0
ARC
8
0
10
21.922757
20
146.790700
30
0.0
40
0.300000
50
0.000000
51
90.000000
0
LINE
8
0
10
21.922757
20
147.090700
30
0.0
11
21.022757
21
147.090700
31
0.0
0
ARC
8
0
10
21.022757
20
146.790700
30
0.0
40
0.300000
50
90.000000
51
180.000000
0
LINE
8
0
10
20.722757
20
146.790700
30
0.0
11
20.722757
21
145.890700
31
0.0
0
ARC
8
0
10
20.422757
20
145.890700
30
0.0
40
0.300000
50
270.000000
51
0.000000
0
LINE
8
0
10
20.422757
20
145.590700
30
0.0
11
-1.977243
21
145.590700
31
0.0
0
ARC
8
0
10
-1.977243
20
145.890700
30
0.0
40
0.300000
50
180.000000
51
270.000000
0
LINE
8
0
10
-2.277243
20
145.890700
30
0.0
11
-2.277243
21
146.790700
31
0.0
0
ARC
8
0
10
-2.577243
20
146.790700
30
0.0
40
0.300000
50
0.000000
51
90.000000
0
LINE
8
0
10
-2.577243
20
147.090700
30
0.0
11
-3.477243
21
147.090700
31
0.0
0
ARC
8
0
10
-3.477243
20
146.790700
30
0.0
40
0.300000
50
90.000000
51
180.000000
0
LINE
8
0
10
-3.777243
20
146.790700
30
0.0
11
-3.777243
21
145.890700
31
0.0
0
ARC
8
0
10
-4.077243
20
145.890700
30
0.0
40
0.300000
50
270.000000
51
0.000000
0
LINE
8
0
10
-4.077243
20
145.590700
30
0.0
11
-6.777218
21
145.590700
31
0.0
0
ARC
8
0
10
-6.777218
20
145.890700
30
0.0
40
0.300000
50
180.000000
51
270.000000
0
LINE
8
0
10
-7.077218
20
145.890700
30
0.0
11
-7.077218
21
152.290700
31
0.0
0
ARC
8
0
10
-6.777218
20
152.290700
30
0.0
40
0.300000
50
90.000000
51
180.000000
0
LINE
8
0
10
-6.777218
20
152.590700
30
0.0
11
-3.877218
21
152.590700
31
0.0
0
ARC
8
0
10
-3.877218
20
152.890700
30
0.0
40
0.300000
50
270.000000
51
0.000000
0
LINE
8
0
10
-3.577218
20
152.890700
30
0.0
11
-3.577218
21
157.890700
31
0.0
0
ARC
8
0
10
-3.277218
20
157.890700
30
0.0
40
0.300000
50
90.000000
51
180.000000
0
LINE
8
0
10
-3.277218
20
158.190700
30
0.0
11
-2.577218
21
158.190700
31
0.0
0
ARC
8
0
10
-2.577218
20
158.490700
30
0.0
40
0.300000
50
270.000000
51
0.000000
0
LINE
8
0
10
-2.277218
20
158.490700
30
0.0
11
-2.277218
21
159.890700
31
0.0
0
ARC
8
0
10
-1.977218
20
159.890700
30
0.0
40
0.300000
50
90.000000
51
180.000000
0
LINE
8
0
10
-1.977218
20
160.190700
30
0.0
11
0.422782
21
160.190700
31
0.0
0
ARC
8
0
10
0.422782
20
160.490700
30
0.0
40
0.300000
50
270.000000
51
0.000000
0
LINE
8
0
10
0.722782
20
160.490700
30
0.0
11
0.722782
21
161.390700
31
0.0
0
ARC
8
0
10
0.422782
20
161.390700
30
0.0
40
0.300000
50
0.000000
51
90.000000
0
LINE
8
0
10
0.422782
20
161.690700
30
0.0
11
-3.277218
21
161.690700
31
0.0
0
ARC
8
0
10
-3.277218
20
161.990700
30
0.0
40
0.300000
50
180.000000
51
270.000000
0
LINE
8
0
10
-3.577218
20
161.990700
30
0.0
11
-3.577218
21
166.290700
31
0.0
0
ARC
8
0
10
-3.277218
20
166.290700
30
0.0
40
0.300000
50
90.000000
51
180.000000
0
LINE
8
0
10
-3.277218
20
166.590700
30
0.0
11
-0.251507
21
166.590700
31
0.0
0
ARC
8
0
10
-0.251507
20
166.290700
30
0.0
40
0.300000
50
45.000000
51
90.000000
0
LINE
8
0
10
-0.039375
20
166.502832
30
0.0
11
0.284889
21
166.178568
31
0.0
0
ARC
8
0
10
0.497021
20
166.390700
30
0.0
40
0.300000
50
225.000000
51
270.000000
0
LINE
8
0
10
0.497021
20
166.090700
30
0.0
11
4.748493
21
166.090700
31
0.0
0
ARC
8
0
10
4.748493
20
166.390700
30
0.0
40
0.300000
50
270.000000
51
315.000000
0
LINE
8
0
10
4.960625
20
166.178568
30
0.0
11
5.284889
21
166.502832
31
0.0
0
ARC
8
0
10
5.497021
20
166.290700
30
0.0
40
0.300000
50
90.000000
51
135.000000
0
LINE
8
0
10
5.497021
20
166.590700
30
0.0
11
9.322757
21
166.590700
31
0.0
0
ARC
8
0
10
9.322757
20
167.590700
30
0.0
40
1.000000
50
270.000000
51
0.000000
0
LINE
8
0
10
10.322757
20
167.590700
30
0.0
11
10.322757
21
170.466328
31
0.0
0
ARC
8
0
10
10.622757
20
170.466328
30
0.0
40
0.300000
50
150.000000
51
180.000000
0
LINE
8
0
10
10.362949
20
170.616328
30
0.0
11
11.214179
21
172.090700
31
0.0
0
ARC
8
0
10
9.482128
20
173.090700
30
0.0
40
2.000000
50
330.000000
51
57.356923
0
ARC
8
0
10
10.722757
20
175.027408
30
0.0
40
0.300000
50
180.000000
51
237.356923
0
LINE
8
0
10
10.422757
20
175.027408
30
0.0
11
10.422757
21
176.790700
31
0.0
0
ARC
8
0
10
10.722757
20
176.790700
30
0.0
40
0.300000
50
90.000000
51
180.000000
0
LINE
8
0
10
10.722757
20
177.090700
30
0.0
11
12.922757
21
177.090700
31
0.0
0
ARC
8
0
10
12.922757
20
177.590700
30
0.0
40
0.500000
50
270.000000
51
0.000000
0
LINE
8
0
10
13.422757
20
177.590700
30
0.0
11
13.422757
21
180.690700
31
0.0
0
ARC
8
0
10
13.722757
20
180.690700
30
0.0
40
0.300000
50
90.000000
51
180.000000
0
LINE
8
0
10
13.722757
20
180.990700
30
0.0
11
23.322757
21
180.990700
31
0.0
0
ARC
8
0
10
23.322757
20
180.690700
30
0.0
40
0.300000
50
0.000000
51
90.000000
0
LINE
8
0
10
23.622757
20
180.690700
30
0.0
11
23.622757
21
177.873812
31
0.0
0
ARC
8
0
10
23.322757
20
177.873812
30
0.0
40
0.300000
50
285.000000
51
0.000000
0
LINE
8
0
10
23.400403
20
177.584034
30
0.0
11
22.345111
21
177.301270
31
0.0
0
ARC
8
0
10
22.422757
20
177.011492
30
0.0
40
0.300000
50
105.000000
51
180.000000
0
ARC
8
0
10
-7.877243
20
179.266436
30
0.0
40
0.300000
50
135.000000
51
180.000000
0
LINE
8
0
10
-8.177243
20
179.266436
30
0.0
11
-8.177243
21
179.390700
31
0.0
0
LINE
8
0
10
-8.177243
20
179.390700
30
0.0
11
-8.089375
21
179.478568
31
0.0
0
LINE
8
0
10
-8.089375
20
179.478568
30
0.0
11
-7.865111
21
179.702832
31
0.0
0
ARC
8
0
10
-7.652979
20
179.490700
30
0.0
40
0.300000
50
90.000000
51
135.000000
0
LINE
8
0
10
-7.652979
20
179.790700
30
0.0
11
-6.977243
21
179.790700
31
0.0
0
ARC
8
0
10
-6.977243
20
179.490700
30
0.0
40
0.300000
50
0.000000
51
90.000000
0
LINE
8
0
10
-6.677243
20
179.490700
30
0.0
11
-6.677243
21
178.890700
31
0.0
0
ARC
8
0
10
-6.377243
20
178.890700
30
0.0
40
0.300000
50
180.000000
51
270.000000
0
LINE
8
0
10
-6.377243
20
178.590700
30
0.0
11
-3.966950
21
178.590700
31
0.0
0
ARC
8
0
10
-3.966950
20
178.290700
30
0.0
40
0.300000
50
2.000000
51
90.000000
0
LINE
8
0
10
-3.667132
20
178.301170
30
0.0
11
-3.520709
21
174.108149
31
0.0
0
ARC
8
0
10
-4.020404
20
174.090700
30
0.0
40
0.500000
50
270.000000
51
2.000000
0
LINE
8
0
10
-4.020404
20
173.590700
30
0.0
11
-4.236614
21
173.590700
31
0.0
0
ARC
8
0
10
-4.236614
20
173.090700
30
0.0
40
0.500000
50
90.000000
51
210.000000
0
LINE
8
0
10
-4.669626
20
172.840700
30
0.0
11
-3.644230
21
171.064661
31
0.0
0
ARC
8
0
10
-4.077243
20
170.814661
30
0.0
40
0.500000
50
0.000000
51
30.000000
0
LINE
8
0
10
-3.577243
20
170.814661
30
0.0
11
-3.577243
21
168.390700
31
0.0
0
ARC
8
0
10
-3.277243
20
168.390700
30
0.0
40
0.300000
50
180.000000
51
270.000000
0
LINE
8
0
10
-3.277243
20
168.090700
30
0.0
11
2.322757
21
168.090700
31
0.0
0
LINE
8
0
10
2.322757
20
168.090700
30
0.0
11
2.622757
21
167.790700
31
0.0
0
LINE
8
0
10
2.622757
20
167.790700
30
0.0
11
2.922757
21
168.090700
31
0.0
0
LINE
8
0
10
2.922757
20
168.090700
30
0.0
11
8.522757
21
168.090700
31
0.0
0
ARC
8
0
10
8.522757
20
168.390700
30
0.0
40
0.300000
50
270.000000
51
0.000000
0
LINE
8
0
10
8.822757
20
168.390700
30
0.0
11
8.822757
21
170.814661
31
0.0
0
ARC
8
0
10
9.322757
20
170.814661
30
0.0
40
0.500000
50
150.000000
51
180.000000
0
LINE
8
0
10
8.889744
20
171.064661
30
0.0
11
9.915140
21
172.840700
31
0.0
0
ARC
8
0
10
9.482128
20
173.090700
30
0.0
40
0.500000
50
330.000000
51
90.000000
0
LINE
8
0
10
9.482128
20
173.590700
30
0.0
11
9.265918
21
173.590700
31
0.0
0
ARC
8
0
10
9.265918
20
174.090700
30
0.0
40
0.500000
50
178.000000
51
270.000000
0
LINE
8
0
10
8.766223
20
174.108149
30
0.0
11
8.912646
21
178.301170
31
0.0
0
ARC
8
0
10
9.212464
20
178.290700
30
0.0
40
0.300000
50
90.000000
51
178.000000
0
LINE
8
0
10
9.212464
20
178.590700
30
0.0
11
11.622757
21
178.590700
31
0.0
0
ARC
8
0
10
11.622757
20
178.890700
30
0.0
40
0.300000
50
270.000000
51
0.000000
0
LINE
8
0
10
11.922757
20
178.890700
30
0.0
11
11.922757
21
182.190700
31
0.0
0
ARC
8
0
10
12.222757
20
182.190700
30
0.0
40
0.300000
50
90.000000
51
180.000000
0
LINE
8
0
10
12.222757
20
182.490700
30
0.0
11
24.122757
21
182.490700
31
0.0
0
ARC
8
0
10
24.122757
20
181.490700
30
0.0
40
1.000000
50
0.000000
51
90.000000
0
LINE
8
0
10
25.122757
20
181.490700
30
0.0
11
25.122757
21
176.722822
31
0.0
0
ARC
8
0
10
24.822757
20
176.722822
30
0.0
40
0.300000
50
285.000000
51
0.000000
0
LINE
8
0
10
24.900403
20
176.433044
30
0.0
11
23.845111
21
176.150279
31
0.0
0
ARC
8
0
10
23.922757
20
175.860502
30
0.0
40
0.300000
50
105.000000
51
180.000000
0
LINE
8
0
10
23.622757
20
175.860502
30
0.0
11
23.622757
21
157.390700
31
0.0
0
ARC
8
0
10
23.922757
20
157.390700
30
0.0
40
0.300000
50
180.000000
51
270.000000
0
LINE
8
0
10
23.922757
20
157.090700
30
0.0
11
33.422757
21
157.090700
31
0.0
0
ARC
8
0
10
33.422757
20
156.590700
30
0.0
40
0.500000
50
0.000000
51
90.000000
0
LINE
8
0
10
33.922757
20
156.590700
30
0.0
11
33.922757
21
139.390700
31
0.0
0
ARC
8
0
10
33.622757
20
139.390700
30
0.0
40
0.300000
50
270.000000
51
0.000000
0
LINE
8
0
10
33.622757
20
139.090700
30
0.0
11
30.392614
21
139.090700
31
0.0
0
ARC
8
0
10
30.392614
20
139.390700
30
0.0
40
0.300000
50
210.963757
51
270.000000
0
LINE
8
0
10
30.135366
20
139.236351
30
0.0
11
29.665509
21
140.019446
31
0.0
0
ARC
8
0
10
29.922757
20
140.173795
30
0.0
40
0.300000
50
180.000000
51
210.963757
0
LINE
8
0
10
29.622757
20
140.173795
30
0.0
11
29.622757
21
140.290700
31
0.0
0
ARC
8
0
10
29.922757
20
140.290700
30
0.0
40
0.300000
50
90.000000
51
180.000000
0
LINE
8
0
10
29.922757
20
140.590700
30
0.0
11
31.822757
21
140.590700
31
0.0
0
ARC
8
0
10
31.822757
20
140.890700
30
0.0
40
0.300000
50
270.000000
51
0.000000
0
LINE
8
0
10
32.122757
20
140.890700
30
0.0
11
32.122757
21
143.790700
31
0.0
0
ARC
8
0
10
31.822757
20
143.790700
30
0.0
40
0.300000
50
0.000000
51
90.000000
0
LINE
8
0
10
31.822757
20
144.090700
30
0.0
11
17.922757
21
144.090700
31
0.0
0
ARC
8
0
10
17.922757
20
143.790700
30
0.0
40
0.300000
50
90.000000
51
180.000000
0
LINE
8
0
10
17.622757
20
143.790700
30
0.0
11
17.622757
21
140.890700
31
0.0
0
ARC
8
0
10
17.922757
20
140.890700
30
0.0
40
0.300000
50
180.000000
51
270.000000
0
LINE
8
0
10
17.922757
20
140.590700
30
0.0
11
19.322757
21
140.590700
31
0.0
0
ARC
8
0
10
19.322757
20
140.290700
30
0.0
40
0.300000
50
0.000000
51
90.000000
0
LINE
8
0
10
19.622757
20
140.290700
30
0.0
11
19.622757
21
140.173795
31
0.0
0
ARC
8
0
10
19.322757
20
140.173795
30
0.0
40
0.300000
50
329.036243
51
0.000000
0
LINE
8
0
10
19.580005
20
140.019446
30
0.0
11
19.110148
21
139.236351
31
0.0
0
ARC
8
0
10
18.852900
20
139.390700
30
0.0
40
0.300000
50
270.000000
51
329.036243
0
LINE
8
0
10
18.852900
20
139.090700
30
0.0
11
16.422757
21
139.090700
31
0.0
0
ARC
8
0
10
16.422757
20
139.390700
30
0.0
40
0.300000
50
180.000000
51
270.000000
0
LINE
8
0
10
16.122757
20
139.390700
30
0.0
11
16.122757
21
143.790700
31
0.0
0
ARC
8
0
10
15.822757
20
143.790700
30
0.0
40
0.300000
50
0.000000
51
90.000000
0
LINE
8
0
10
15.822757
20
144.090700
30
0.0
11
-6.777243
21
144.090700
31
0.0
0
ARC
8
0
10
-6.777243
20
143.790700
30
0.0
40
0.300000
50
90.000000
51
180.000000
0
LINE
8
0
10
-7.077243
20
143.790700
30
0.0
11
-7.077243
21
139.390700
31
0.0
0
ARC
8
0
10
-7.377243
20
139.390700
30
0.0
40
0.300000
50
270.000000
51
0.000000
0
LINE
8
0
10
-7.377243
20
139.090700
30
0.0
11
-8.845159
21
139.090700
31
0.0
0
ARC
8
0
10
-8.845159
20
139.390700
30
0.0
40
0.300000
50
250.221829
51
270.000000
0
LINE
8
0
10
-8.946673
20
139.108397
30
0.0
11
-10.248535
21
139.576536
31
0.0
0
ARC
8
0
10
-10.328054
20
139.355399
30
0.0
40
0.235000
50
70.221829
51
156.000000
0
ARC
8
0
10
-10.763989
20
139.531812
30
0.0
40
0.235000
50
270.000000
51
336.000000
0
LINE
8
0
10
-10.762433
20
139.296817
30
0.0
11
-12.341361
21
139.286360
31
0.0
0
ARC
8
0
10
-12.343348
20
139.586354
30
0.0
40
0.300000
50
155.379459
51
270.000000
0
LINE
8
0
10
-12.616074
20
139.711336
30
0.0
11
-11.667424
21
141.816851
31
0.0
0
ARC
8
0
10
-11.393904
20
141.693615
30
0.0
40
0.300000
50
115.379459
51
155.745828
0
LINE
8
0
10
-11.522488
20
141.964662
30
0.0
11
-11.015065
21
142.205381
31
0.0
0
ARC
8
0
10
-10.929343
20
142.024683
30
0.0
40
0.200000
50
355.379459
51
115.379459
0
LINE
8
0
10
-10.729993
20
142.008572
30
0.0
11
-10.739294
21
141.893477
31
0.0
0
ARC
8
0
10
-10.440269
20
141.869310
30
0.0
40
0.300000
50
175.379459
51
235.379459
0
LINE
8
0
10
-10.610711
20
141.622431
30
0.0
11
-8.981954
21
140.497965
31
0.0
0
LINE
8
0
10
-8.981954
20
140.497965
30
0.0
11
-8.799245
21
140.416617
31
0.0
0
ARC
8
0
10
-8.677243
20
140.690700
30
0.0
40
0.300009
50
246.004713
51
48.187329
0
ARC
8
0
10
-8.277218
20
141.137904
30
0.0
40
0.300000
50
180.000000
51
228.187329
0
LINE
8
0
10
-8.577218
20
141.137904
30
0.0
11
-8.577218
21
144.990690
31
0.0
0
ARC
8
0
10
-8.877218
20
144.990690
30
0.0
40
0.300000
50
0.000000
51
90.000000
0
LINE
8
0
10
-8.877218
20
145.290690
30
0.0
11
-9.098412
21
145.290690
31
0.0
0
ARC
8
0
10
-9.098412
20
144.990690
30
0.0
40
0.300000
50
90.000000
51
121.400000
0
LINE
8
0
10
-9.254715
20
145.246756
30
0.0
11
-10.773016
21
144.319980
31
0.0
0
ARC
8
0
10
-10.877218
20
144.490690
30
0.0
40
0.200000
50
180.000000
51
301.400000
0
LINE
8
0
10
-11.077218
20
144.490690
30
0.0
11
-11.077218
21
148.690690
31
0.0
0
ARC
8
0
10
-10.877218
20
148.690690
30
0.0
40
0.200000
50
58.600000
51
180.000000
0
LINE
8
0
10
-10.773016
20
148.861400
30
0.0
11
-9.254715
21
147.934625
31
0.0
0
ARC
8
0
10
-9.098412
20
148.190690
30
0.0
40
0.300000
50
238.600000
51
270.000000
0
LINE
8
0
10
-9.098412
20
147.890690
30
0.0
11
-8.877218
21
147.890690
31
0.0
0
ARC
8
0
10
-8.877218
20
148.190690
30
0.0
40
0.300000
50
270.000000
51
0.000000
0
LINE
8
0
10
-8.577218
20
148.190690
30
0.0
11
-8.577218
21
152.043477
31
0.0
0
ARC
8
0
10
-8.277218
20
152.043477
30
0.0
40
0.300000
50
131.812671
51
180.000000
0
ARC
8
0
10
-8.677243
20
152.490681
30
0.0
40
0.300009
50
311.812671
51
113.995287
0
LINE
8
0
10
-8.799245
20
152.764763
30
0.0
11
-8.981954
21
152.683416
31
0.0
0
LINE
8
0
10
-8.981954
20
152.683416
30
0.0
11
-10.610711
21
151.558950
31
0.0
0
ARC
8
0
10
-10.440269
20
151.312070
30
0.0
40
0.300000
50
124.620541
51
184.620541
0
LINE
8
0
10
-10.739294
20
151.287903
30
0.0
11
-10.729993
21
151.172808
31
0.0
0
ARC
8
0
10
-10.929343
20
151.156697
30
0.0
40
0.200000
50
244.620541
51
4.620541
0
LINE
8
0
10
-11.015065
20
150.975999
30
0.0
11
-11.522488
21
151.216719
31
0.0
0
ARC
8
0
10
-11.393904
20
151.487765
30
0.0
40
0.300000
50
204.254172
51
244.620541
0
LINE
8
0
10
-11.667424
20
151.364530
30
0.0
11
-12.616074
21
153.470045
31
0.0
0
ARC
8
0
10
-12.343348
20
153.595027
30
0.0
40
0.300000
50
90.000000
51
204.620541
0
LINE
8
0
10
-12.341361
20
153.895020
30
0.0
11
-10.762433
21
153.884563
31
0.0
0
ARC
8
0
10
-10.763989
20
153.649568
30
0.0
40
0.235000
50
24.000000
51
90.000000
0
ARC
8
0
10
-10.328054
20
153.825982
30
0.0
40
0.235000
50
204.000000
51
289.778171
0
LINE
8
0
10
-10.248535
20
153.604845
30
0.0
11
-8.946620
21
154.073003
31
0.0
0
ARC
8
0
10
-8.845106
20
153.790700
30
0.0
40
0.300000
50
90.000000
51
109.778171
0
LINE
8
0
10
-8.845106
20
154.090700
30
0.0
11
-5.377218
21
154.090700
31
0.0
0
ARC
8
0
10
-5.377218
20
154.390700
30
0.0
40
0.300000
50
270.000000
51
0.000000
0
LINE
8
0
10
-5.077218
20
154.390700
30
0.0
11
-5.077218
21
159.890700
31
0.0
0
ARC
8
0
10
-5.377218
20
159.890700
30
0.0
40
0.300000
50
0.000000
51
90.000000
0
LINE
8
0
10
-5.377218
20
160.190700
30
0.0
11
-7.977218
21
160.190700
31
0.0
0
ARC
8
0
10
-7.977218
20
160.490700
30
0.0
40
0.300000
50
180.000000
51
270.000000
0
LINE
8
0
10
-8.277218
20
160.490700
30
0.0
11
-8.277218
21
161.390700
31
0.0
0
ARC
8
0
10
-7.977218
20
161.390700
30
0.0
40
0.300000
50
90.000000
51
180.000000
0
LINE
8
0
10
-7.977218
20
161.690700
30
0.0
11
-5.377218
21
161.690700
31
0.0
0
ARC
8
0
10
-5.377218
20
161.990700
30
0.0
40
0.300000
50
270.000000
51
0.000000
0
LINE
8
0
10
-5.077218
20
161.990700
30
0.0
11
-5.077218
21
170.466285
31
0.0
0
ARC
8
0
10
-5.377218
20
170.466285
30
0.0
40
0.300000
50
0.000000
51
30.000000
0
LINE
8
0
10
-5.117411
20
170.616285
30
0.0
11
-5.968665
21
172.090700
31
0.0
0
ARC
8
0
10
-4.236614
20
173.090700
30
0.0
40
2.000000
50
122.643077
51
210.000000
0
ARC
8
0
10
-5.477243
20
175.027408
30
0.0
40
0.300000
50
302.643077
51
0.000000
0
LINE
8
0
10
-5.177243
20
175.027408
30
0.0
11
-5.177243
21
176.790700
31
0.0
0
ARC
8
0
10
-5.477243
20
176.790700
30
0.0
40
0.300000
50
0.000000
51
90.000000
0
LINE
8
0
10
-5.477243
20
177.090700
30
0.0
11
-7.877243
21
177.090700
31
0.0
0
ARC
8
0
10
-7.877243
20
177.390700
30
0.0
40
0.300000
50
180.000000
51
270.000000
0
LINE
8
0
10
-8.177243
20
177.390700
30
0.0
11
-8.177243
21
179.266436
31
0.0
0
LINE
8
0
10
-94.277243
20
177.011492
30
0.0
11
-94.277243
21
161.990700
31
0.0
0
ARC
8
0
10
-93.977243
20
161.990700
30
0.0
40
0.300000
50
180.000000
51
270.000000
0
LINE
8
0
10
-93.977243
20
161.690700
30
0.0
11
-91.277243
21
161.690700
31
0.0
0
ARC
8
0
10
-91.277243
20
161.390700
30
0.0
40
0.300000
50
0.000000
51
90.000000
0
LINE
8
0
10
-90.977243
20
161.390700
30
0.0
11
-90.977243
21
160.490700
31
0.0
0
ARC
8
0
10
-91.277243
20
160.490700
30
0.0
40
0.300000
50
270.000000
51
0.000000
0
LINE
8
0
10
-91.277243
20
160.190700
30
0.0
11
-92.577243
21
160.190700
31
0.0
0
ARC
8
0
10
-92.577243
20
159.890700
30
0.0
40
0.300000
50
90.000000
51
180.000000
0
LINE
8
0
10
-92.877243
20
159.890700
30
0.0
11
-92.877243
21
158.490700
31
0.0
0
ARC
8
0
10
-93.177243
20
158.490700
30
0.0
40
0.300000
50
270.000000
51
0.000000
0
LINE
8
0
10
-93.177243
20
158.190700
30
0.0
11
-93.977243
21
158.190700
31
0.0
0
ARC
8
0
10
-93.977243
20
157.890700
30
0.0
40
0.300000
50
90.000000
51
180.000000
0
LINE
8
0
10
-94.277243
20
157.890700
30
0.0
11
-94.277243
21
155.890700
31
0.0
0
ARC
8
0
10
-94.577243
20
155.890700
30
0.0
40
0.300000
50
270.000000
51
0.000000
0
LINE
8
0
10
-94.577243
20
155.590700
30
0.0
11
-104.277243
21
155.590700
31
0.0
0
ARC
8
0
10
-104.277243
20
155.290700
30
0.0
40
0.300000
50
90.000000
51
180.000000
0
LINE
8
0
10
-104.577243
20
155.290700
30
0.0
11
-104.577243
21
145.890700
31
0.0
0
ARC
8
0
10
-104.277243
20
145.890700
30
0.0
40
0.300000
50
180.000000
51
270.000000
0
LINE
8
0
10
-104.277243
20
145.590700
30
0.0
11
-94.677243
21
145.590700
31
0.0
0
ARC
8
0
10
-94.677243
20
145.890700
30
0.0
40
0.300000
50
270.000000
51
0.000000
0
LINE
8
0
10
-94.377243
20
145.890700
30
0.0
11
-94.377243
21
146.790700
31
0.0
0
ARC
8
0
10
-94.077243
20
146.790700
30
0.0
40
0.300000
50
90.000000
51
180.000000
0
LINE
8
0
10
-94.077243
20
147.090700
30
0.0
11
-93.177243
21
147.090700
31
0.0
0
ARC
8
0
10
-93.177243
20
146.790700
30
0.0
40
0.300000
50
0.000000
51
90.000000
0
LINE
8
0
10
-92.877243
20
146.790700
30
0.0
11
-92.877243
21
145.890700
31
0.0
0
ARC
8
0
10
-92.577243
20
145.890700
30
0.0
40
0.300000
50
180.000000
51
270.000000
0
LINE
8
0
10
-92.577243
20
145.590700
30
0.0
11
-70.177243
21
145.590700
31
0.0
0
ARC
8
0
10
-70.177243
20
145.890700
30
0.0
40
0.300000
50
270.000000
51
0.000000
0
LINE
8
0
10
-69.877243
20
145.890700
30
0.0
11
-69.877243
21
146.790700
31
0.0
0
ARC
8
0
10
-69.577243
20
146.790700
30
0.0
40
0.300000
50
90.000000
51
180.000000
0
LINE
8
0
10
-69.577243
20
147.090700
30
0.0
11
-68.677243
21
147.090700
31
0.0
0
ARC
8
0
10
-68.677243
20
146.790700
30
0.0
40
0.300000
50
0.000000
51
90.000000
0
LINE
8
0
10
-68.377243
20
146.790700
30
0.0
11
-68.377243
21
145.890700
31
0.0
0
ARC
8
0
10
-68.077243
20
145.890700
30
0.0
40
0.300000
50
180.000000
51
270.000000
0
LINE
8
0
10
-68.077243
20
145.590700
30
0.0
11
-65.377268
21
145.590700
31
0.0
0
ARC
8
0
10
-65.377268
20
145.890700
30
0.0
40
0.300000
50
270.000000
51
0.000000
0
LINE
8
0
10
-65.077268
20
145.890700
30
0.0
11
-65.077268
21
152.290700
31
0.0
0
ARC
8
0
10
-65.377268
20
152.290700
30
0.0
40
0.300000
50
0.000000
51
90.000000
0
LINE
8
0
10
-65.377268
20
152.590700
30
0.0
11
-68.277268
21
152.590700
31
0.0
0
ARC
8
0
10
-68.277268
20
152.890700
30
0.0
40
0.300000
50
180.000000
51
270.000000
0
LINE
8
0
10
-68.577268
20
152.890700
30
0.0
11
-68.577268
21
157.890700
31
0.0
0
ARC
8
0
10
-68.877268
20
157.890700
30
0.0
40
0.300000
50
0.000000
51
90.000000
0
LINE
8
0
10
-68.877268
20
158.190700
30
0.0
11
-69.577268
21
158.190700
31
0.0
0
ARC
8
0
10
-69.577268
20
158.490700
30
0.0
40
0.300000
50
180.000000
51
270.000000
0
LINE
8
0
10
-69.877268
20
158.490700
30
0.0
11
-69.877268
21
159.890700
31
0.0
0
ARC
8
0
10
-70.177268
20
159.890700
30
0.0
40
0.300000
50
0.000000
51
90.000000
0
LINE
8
0
10
-70.177268
20
160.190700
30
0.0
11
-72.577268
21
160.190700
31
0.0
0
ARC
8
0
10
-72.577268
20
160.490700
30
0.0
40
0.300000
50
180.000000
51
270.000000
0
LINE
8
0
10
-72.877268
20
160.490700
30
0.0
11
-72.877268
21
161.390700
31
0.0
0
ARC
8
0
10
-72.577268
20
161.390700
30
0.0
40
0.300000
50
90.000000
51
180.000000
0
LINE
8
0
10
-72.577268
20
161.690700
30
0.0
11
-68.877268
21
161.690700
31
0.0
0
ARC
8
0
10
-68.877268
20
161.990700
30
0.0
40
0.300000
50
270.000000
51
0.000000
0
LINE
8
0
10
-68.577268
20
161.990700
30
0.0
11
-68.577268
21
166.290700
31
0.0
0
ARC
8
0
10
-68.877268
20
166.290700
30
0.0
40
0.300000
50
0.000000
51
90.000000
0
LINE
8
0
10
-68.877268
20
166.590700
30
0.0
11
-71.902979
21
166.590700
31
0.0
0
ARC
8
0
10
-71.902979
20
166.290700
30
0.0
40
0.300000
50
90.000000
51
135.000000
0
LINE
8
0
10
-72.115111
20
166.502832
30
0.0
11
-72.439375
21
166.178568
31
0.0
0
ARC
8
0
10
-72.651507
20
166.390700
30
0.0
40
0.300000
50
270.000000
51
315.000000
0
LINE
8
0
10
-72.651507
20
166.090700
30
0.0
11
-76.902979
21
166.090700
31
0.0
0
ARC
8
0
10
-76.902979
20
166.390700
30
0.0
40
0.300000
50
225.000000
51
270.000000
0
LINE
8
0
10
-77.115111
20
166.178568
30
0.0
11
-77.439375
21
166.502832
31
0.0
0
ARC
8
0
10
-77.651507
20
166.290700
30
0.0
40
0.300000
50
45.000000
51
90.000000
0
LINE
8
0
10
-77.651507
20
166.590700
30
0.0
11
-81.477243
21
166.590700
31
0.0
0
ARC
8
0
10
-81.477243
20
167.590700
30
0.0
40
1.000000
50
180.000000
51
270.000000
0
LINE
8
0
10
-82.477243
20
167.590700
30
0.0
11
-82.477243
21
170.466328
31
0.0
0
ARC
8
0
10
-82.777243
20
170.466328
30
0.0
40
0.300000
50
0.000000
51
30.000000
0
LINE
8
0
10
-82.517435
20
170.616328
30
0.0
11
-83.368665
21
172.090700
31
0.0
0
ARC
8
0
10
-81.636614
20
173.090700
30
0.0
40
2.000000
50
122.643077
51
210.000000
0
ARC
8
0
10
-82.877243
20
175.027408
30
0.0
40
0.300000
50
302.643077
51
0.000000
0
LINE
8
0
10
-82.577243
20
175.027408
30
0.0
11
-82.577243
21
176.790700
31
0.0
0
ARC
8
0
10
-82.877243
20
176.790700
30
0.0
40
0.300000
50
0.000000
51
90.000000
0
LINE
8
0
10
-82.877243
20
177.090700
30
0.0
11
-85.077243
21
177.090700
31
0.0
0
ARC
8
0
10
-85.077243
20
177.590700
30
0.0
40
0.500000
50
180.000000
51
270.000000
0
LINE
8
0
10
-85.577243
20
177.590700
30
0.0
11
-85.577243
21
180.690700
31
0.0
0
ARC
8
0
10
-85.877243
20
180.690700
30
0.0
40
0.300000
50
0.000000
51
90.000000
0
LINE
8
0
10
-85.877243
20
180.990700
30
0.0
11
-95.477243
21
180.990700
31
0.0
0
ARC
8
0
10
-95.477243
20
180.690700
30
0.0
40
0.300000
50
90.000000
51
180.000000
0
LINE
8
0
10
-95.777243
20
180.690700
30
0.0
11
-95.777243
21
177.873812
31
0.0
0
ARC
8
0
10
-95.477243
20
177.873812
30
0.0
40
0.300000
50
180.000000
51
255.000000
0
LINE
8
0
10
-95.554889
20
177.584034
30
0.0
11
-94.499597
21
177.301270
31
0.0
0
ARC
8
0
10
-94.577243
20
177.011492
30
0.0
40
0.300000
50
0.000000
51
75.000000
0
ARC
8
0
10
-64.277243
20
179.266436
30
0.0
40
0.300000
50
0.000000
51
45.000000
0
LINE
8
0
10
-63.977243
20
179.266436
30
0.0
11
-63.977243
21
179.390700
31
0.0
0
LINE
8
0
10
-63.977243
20
179.390700
30
0.0
11
-64.065111
21
179.478568
31
0.0
0
LINE
8
0
10
-64.065111
20
179.478568
30
0.0
11
-64.289375
21
179.702832
31
0.0
0
ARC
8
0
10
-64.501507
20
179.490700
30
0.0
40
0.300000
50
45.000000
51
90.000000
0
LINE
8
0
10
-64.501507
20
179.790700
30
0.0
11
-65.177243
21
179.790700
31
0.0
0
ARC
8
0
10
-65.177243
20
179.490700
30
0.0
40
0.300000
50
90.000000
51
180.000000
0
LINE
8
0
10
-65.477243
20
179.490700
30
0.0
11
-65.477243
21
178.890700
31
0.0
0
ARC
8
0
10
-65.777243
20
178.890700
30
0.0
40
0.300000
50
270.000000
51
0.000000
0
LINE
8
0
10
-65.777243
20
178.590700
30
0.0
11
-68.187536
21
178.590700
31
0.0
0
ARC
8
0
10
-68.187536
20
178.290700
30
0.0
40
0.300000
50
90.000000
51
178.000000
0
LINE
8
0
10
-68.487354
20
178.301170
30
0.0
11
-68.633777
21
174.108149
31
0.0
0
ARC
8
0
10
-68.134082
20
174.090700
30
0.0
40
0.500000
50
178.000000
51
270.000000
0
LINE
8
0
10
-68.134082
20
173.590700
30
0.0
11
-67.917872
21
173.590700
31
0.0
0
ARC
8
0
10
-67.917872
20
173.090700
30
0.0
40
0.500000
50
330.000000
51
90.000000
0
LINE
8
0
10
-67.484860
20
172.840700
30
0.0
11
-68.510256
21
171.064661
31
0.0
0
ARC
8
0
10
-68.077243
20
170.814661
30
0.0
40
0.500000
50
150.000000
51
180.000000
0
LINE
8
0
10
-68.577243
20
170.814661
30
0.0
11
-68.577243
21
168.390700
31
0.0
0
ARC
8
0
10
-68.877243
20
168.390700
30
0.0
40
0.300000
50
270.000000
51
0.000000
0
LINE
8
0
10
-68.877243
20
168.090700
30
0.0
11
-74.477243
21
168.090700
31
0.0
0
LINE
8
0
10
-74.477243
20
168.090700
30
0.0
11
-74.777243
21
167.790700
31
0.0
0
LINE
8
0
10
-74.777243
20
167.790700
30
0.0
11
-75.077243
21
168.090700
31
0.0
0
LINE
8
0
10
-75.077243
20
168.090700
30
0.0
11
-80.677243
21
168.090700
31
0.0
0
ARC
8
0
10
-80.677243
20
168.390700
30
0.0
40
0.300000
50
180.000000
51
270.000000
0
LINE
8
0
10
-80.977243
20
168.390700
30
0.0
11
-80.977243
21
170.814661
31
0.0
0
ARC
8
0
10
-81.477243
20
170.814661
30
0.0
40
0.500000
50
0.000000
51
30.000000
0
LINE
8
0
10
-81.044230
20
171.064661
30
0.0
11
-82.069626
21
172.840700
31
0.0
0
ARC
8
0
10
-81.636614
20
173.090700
30
0.0
40
0.500000
50
90.000000
51
210.000000
0
LINE
8
0
10
-81.636614
20
173.590700
30
0.0
11
-81.420404
21
173.590700
31
0.0
0
ARC
8
0
10
-81.420404
20
174.090700
30
0.0
40
0.500000
50
270.000000
51
2.000000
0
LINE
8
0
10
-80.920709
20
174.108149
30
0.0
11
-81.067132
21
178.301170
31
0.0
0
ARC
8
0
10
-81.366950
20
178.290700
30
0.0
40
0.300000
50
2.000000
51
90.000000
0
LINE
8
0
10
-81.366950
20
178.590700
30
0.0
11
-83.777243
21
178.590700
31
0.0
0
ARC
8
0
10
-83.777243
20
178.890700
30
0.0
40
0.300000
50
180.000000
51
270.000000
0
LINE
8
0
10
-84.077243
20
178.890700
30
0.0
11
-84.077243
21
182.190700
31
0.0
0
ARC
8
0
10
-84.377243
20
182.190700
30
0.0
40
0.300000
50
0.000000
51
90.000000
0
LINE
8
0
10
-84.377243
20
182.490700
30
0.0
11
-96.277243
21
182.490700
31
0.0
0
ARC
8
0
10
-96.277243
20
181.490700
30
0.0
40
1.000000
50
90.000000
51
180.000000
0
LINE
8
0
10
-97.277243
20
181.490700
30
0.0
11
-97.277243
21
176.722822
31
0.0
0
ARC
8
0
10
-96.977243
20
176.722822
30
0.0
40
0.300000
50
180.000000
51
255.000000
0
LINE
8
0
10
-97.054889
20
176.433044
30
0.0
11
-95.999597
21
176.150279
31
0.0
0
ARC
8
0
10
-96.077243
20
175.860502
30
0.0
40
0.300000
50
0.000000
51
75.000000
0
LINE
8
0
10
-95.777243
20
175.860502
30
0.0
11
-95.777243
21
157.390700
31
0.0
0
ARC
8
0
10
-96.077243
20
157.390700
30
0.0
40
0.300000
50
270.000000
51
0.000000
0
LINE
8
0
10
-96.077243
20
157.090700
30
0.0
11
-105.577243
21
157.090700
31
0.0
0
ARC
8
0
10
-105.577243
20
156.590700
30
0.0
40
0.500000
50
90.000000
51
180.000000
0
LINE
8
0
10
-106.077243
20
156.590700
30
0.0
11
-106.077243
21
139.390700
31
0.0
0
ARC
8
0
10
-105.777243
20
139.390700
30
0.0
40
0.300000
50
180.000000
51
270.000000
0
LINE
8
0
10
-105.777243
20
139.090700
30
0.0
11
-102.547100
21
139.090700
31
0.0
0
ARC
8
0
10
-102.547100
20
139.390700
30
0.0
40
0.300000
50
270.000000
51
329.036243
0
LINE
8
0
10
-102.289852
20
139.236351
30
0.0
11
-101.819995
21
140.019446
31
0.0
0
ARC
8
0
10
-102.077243
20
140.173795
30
0.0
40
0.300000
50
329.036243
51
0.000000
0
LINE
8
0
10
-101.777243
20
140.173795
30
0.0
11
-101.777243
21
140.290700
31
0.0
0
ARC
8
0
10
-102.077243
20
140.290700
30
0.0
40
0.300000
50
0.000000
51
90.000000
0
LINE
8
0
10
-102.077243
20
140.590700
30
0.0
11
-103.977243
21
140.590700
31
0.0
0
ARC
8
0
10
-103.977243
20
140.890700
30
0.0
40
0.300000
50
180.000000
51
270.000000
0
LINE
8
0
10
-104.277243
20
140.890700
30
0.0
11
-104.277243
21
143.790700
31
0.0
0
ARC
8
0
10
-103.977243
20
143.790700
30
0.0
40
0.300000
50
90.000000
51
180.000000
0
LINE
8
0
10
-103.977243
20
144.090700
30
0.0
11
-90.077243
21
144.090700
31
0.0
0
ARC
8
0
10
-90.077243
20
143.790700
30
0.0
40
0.300000
50
0.000000
51
90.000000
0
LINE
8
0
10
-89.777243
20
143.790700
30
0.0
11
-89.777243
21
140.890700
31
0.0
0
ARC
8
0
10
-90.077243
20
140.890700
30
0.0
40
0.300000
50
270.000000
51
0.000000
0
LINE
8
0
10
-90.077243
20
140.590700
30
0.0
11
-91.477243
21
140.590700
31
0.0
0
ARC
8
0
10
-91.477243
20
140.290700
30
0.0
40
0.300000
50
90.000000
51
180.000000
0
LINE
8
0
10
-91.777243
20
140.290700
30
0.0
11
-91.777243
21
140.173795
31
0.0
0
ARC
8
0
10
-91.477243
20
140.173795
30
0.0
40
0.300000
50
180.000000
51
210.963757
0
LINE
8
0
10
-91.734491
20
140.019446
30
0.0
11
-91.264634
21
139.236351
31
0.0
0
ARC
8
0
10
-91.007386
20
139.390700
30
0.0
40
0.300000
50
210.963757
51
270.000000
0
LINE
8
0
10
-91.007386
20
139.090700
30
0.0
11
-88.577243
21
139.090700
31
0.0
0
ARC
8
0
10
-88.577243
20
139.390700
30
0.0
40
0.300000
50
270.000000
51
0.000000
0
LINE
8
0
10
-88.277243
20
139.390700
30
0.0
11
-88.277243
21
143.790700
31
0.0
0
ARC
8
0
10
-87.977243
20
143.790700
30
0.0
40
0.300000
50
90.000000
51
180.000000
0
LINE
8
0
10
-87.977243
20
144.090700
30
0.0
11
-65.377243
21
144.090700
31
0.0
0
ARC
8
0
10
-65.377243
20
143.790700
30
0.0
40
0.300000
50
0.000000
51
90.000000
0
LINE
8
0
10
-65.077243
20
143.790700
30
0.0
11
-65.077243
21
139.390700
31
0.0
0
ARC
8
0
10
-64.777243
20
139.390700
30
0.0
40
0.300000
50
180.000000
51
270.000000
0
LINE
8
0
10
-64.777243
20
139.090700
30
0.0
11
-63.309327
21
139.090700
31
0.0
0
ARC
8
0
10
-63.309327
20
139.390700
30
0.0
40
0.300000
50
270.000000
51
289.778171
0
LINE
8
0
10
-63.207813
20
139.108397
30
0.0
11
-61.905951
21
139.576536
31
0.0
0
ARC
8
0
10
-61.826432
20
139.355399
30
0.0
40
0.235000
50
24.000000
51
109.778171
0
ARC
8
0
10
-61.390497
20
139.531812
30
0.0
40
0.235000
50
204.000000
51
270.000000
0
LINE
8
0
10
-61.392053
20
139.296817
30
0.0
11
-59.813125
21
139.286360
31
0.0
0
ARC
8
0
10
-59.811138
20
139.586354
30
0.0
40
0.300000
50
270.000000
51
24.620541
0
LINE
8
0
10
-59.538412
20
139.711336
30
0.0
11
-60.487062
21
141.816851
31
0.0
0
ARC
8
0
10
-60.760582
20
141.693615
30
0.0
40
0.300000
50
24.254172
51
64.620541
0
LINE
8
0
10
-60.631998
20
141.964662
30
0.0
11
-61.139421
21
142.205381
31
0.0
0
ARC
8
0
10
-61.225144
20
142.024683
30
0.0
40
0.200000
50
64.620541
51
184.620541
0
LINE
8
0
10
-61.424494
20
142.008572
30
0.0
11
-61.415192
21
141.893477
31
0.0
0
ARC
8
0
10
-61.714217
20
141.869310
30
0.0
40
0.300000
50
304.620541
51
4.620541
0
LINE
8
0
10
-61.543775
20
141.622431
30
0.0
11
-63.172532
21
140.497965
31
0.0
0
LINE
8
0
10
-63.172532
20
140.497965
30
0.0
11
-63.355241
21
140.416617
31
0.0
0
ARC
8
0
10
-63.477243
20
140.690700
30
0.0
40
0.300009
50
131.812671
51
293.995287
0
ARC
8
0
10
-63.877268
20
141.137904
30
0.0
40
0.300000
50
311.812671
51
0.000000
0
LINE
8
0
10
-63.577268
20
141.137904
30
0.0
11
-63.577268
21
144.990690
31
0.0
0
ARC
8
0
10
-63.277268
20
144.990690
30
0.0
40
0.300000
50
90.000000
51
180.000000
0
LINE
8
0
10
-63.277268
20
145.290690
30
0.0
11
-63.056074
21
145.290690
31
0.0
0
ARC
8
0
10
-63.056074
20
144.990690
30
0.0
40
0.300000
50
58.600000
51
90.000000
0
LINE
8
0
10
-62.899771
20
145.246756
30
0.0
11
-61.381470
21
144.319980
31
0.0
0
ARC
8
0
10
-61.277268
20
144.490690
30
0.0
40
0.200000
50
238.600000
51
0.000000
0
LINE
8
0
10
-61.077268
20
144.490690
30
0.0
11
-61.077268
21
148.690690
31
0.0
0
ARC
8
0
10
-61.277268
20
148.690690
30
0.0
40
0.200000
50
0.000000
51
121.400000
0
LINE
8
0
10
-61.381470
20
148.861400
30
0.0
11
-62.899771
21
147.934625
31
0.0
0
ARC
8
0
10
-63.056074
20
148.190690
30
0.0
40
0.300000
50
270.000000
51
301.400000
0
LINE
8
0
10
-63.056074
20
147.890690
30
0.0
11
-63.277268
21
147.890690
31
0.0
0
ARC
8
0
10
-63.277268
20
148.190690
30
0.0
40
0.300000
50
180.000000
51
270.000000
0
LINE
8
0
10
-63.577268
20
148.190690
30
0.0
11
-63.577268
21
152.043477
31
0.0
0
ARC
8
0
10
-63.877268
20
152.043477
30
0.0
40
0.300000
50
0.000000
51
48.187329
0
ARC
8
0
10
-63.477243
20
152.490681
30
0.0
40
0.300009
50
66.004713
51
228.187329
0
LINE
8
0
10
-63.355241
20
152.764763
30
0.0
11
-63.172532
21
152.683416
31
0.0
0
LINE
8
0
10
-63.172532
20
152.683416
30
0.0
11
-61.543775
21
151.558950
31
0.0
0
ARC
8
0
10
-61.714217
20
151.312070
30
0.0
40
0.300000
50
355.379459
51
55.379459
0
LINE
8
0
10
-61.415192
20
151.287903
30
0.0
11
-61.424494
21
151.172808
31
0.0
0
ARC
8
0
10
-61.225144
20
151.156697
30
0.0
40
0.200000
50
175.379459
51
295.379459
0
LINE
8
0
10
-61.139421
20
150.975999
30
0.0
11
-60.631998
21
151.216719
31
0.0
0
ARC
8
0
10
-60.760582
20
151.487765
30
0.0
40
0.300000
50
295.379459
51
335.745828
0
LINE
8
0
10
-60.487062
20
151.364530
30
0.0
11
-59.538412
21
153.470045
31
0.0
0
ARC
8
0
10
-59.811138
20
153.595027
30
0.0
40
0.300000
50
335.379459
51
90.000000
0
LINE
8
0
10
-59.813125
20
153.895020
30
0.0
11
-61.392053
21
153.884563
31
0.0
0
ARC
8
0
10
-61.390497
20
153.649568
30
0.0
40
0.235000
50
90.000000
51
156.000000
0
ARC
8
0
10
-61.826432
20
153.825982
30
0.0
40
0.235000
50
250.221829
51
336.000000
0
LINE
8
0
10
-61.905951
20
153.604845
30
0.0
11
-63.207866
21
154.073003
31
0.0
0
ARC
8
0
10
-63.309380
20
153.790700
30
0.0
40
0.300000
50
70.221829
51
90.000000
0
LINE
8
0
10
-63.309380
20
154.090700
30
0.0
11
-66.777268
21
154.090700
31
0.0
0
ARC
8
0
10
-66.777268
20
154.390700
30
0.0
40
0.300000
50
180.000000
51
270.000000
0
LINE
8
0
10
-67.077268
20
154.390700
30
0.0
11
-67.077268
21
159.890700
31
0.0
0
ARC
8
0
10
-66.777268
20
159.890700
30
0.0
40
0.300000
50
90.000000
51
180.000000
0
LINE
8
0
10
-66.777268
20
160.190700
30
0.0
11
-64.177268
21
160.190700
31
0.0
0
ARC
8
0
10
-64.177268
20
160.490700
30
0.0
40
0.300000
50
270.000000
51
0.000000
0
LINE
8
0
10
-63.877268
20
160.490700
30
0.0
11
-63.877268
21
161.390700
31
0.0
0
ARC
8
0
10
-64.177268
20
161.390700
30
0.0
40
0.300000
50
0.000000
51
90.000000
0
LINE
8
0
10
-64.177268
20
161.690700
30
0.0
11
-66.777268
21
161.690700
31
0.0
0
ARC
8
0
10
-66.777268
20
161.990700
30
0.0
40
0.300000
50
180.000000
51
270.000000
0
LINE
8
0
10
-67.077268
20
161.990700
30
0.0
11
-67.077268
21
170.466285
31
0.0
0
ARC
8
0
10
-66.777268
20
170.466285
30
0.0
40
0.300000
50
150.000000
51
180.000000
0
LINE
8
0
10
-67.037075
20
170.616285
30
0.0
11
-66.185821
21
172.090700
31
0.0
0
ARC
8
0
10
-67.917872
20
173.090700
30
0.0
40
2.000000
50
330.000000
51
57.356923
0
ARC
8
0
10
-66.677243
20
175.027408
30
0.0
40
0.300000
50
180.000000
51
237.356923
0
LINE
8
0
10
-66.977243
20
175.027408
30
0.0
11
-66.977243
21
176.790700
31
0.0
0
ARC
8
0
10
-66.677243
20
176.790700
30
0.0
40
0.300000
50
90.000000
51
180.000000
0
LINE
8
0
10
-66.677243
20
177.090700
30
0.0
11
-64.277243
21
177.090700
31
0.0
0
ARC
8
0
10
-64.277243
20
177.390700
30
0.0
40
0.300000
50
270.000000
51
0.000000
0
LINE
8
0
10
-63.977243
20
177.390700
30
0.0
11
-63.977243
21
179.266436
31
0.0
0
LINE
8
0
10
-31.127243
20
152.085377
30
0.0
11
-41.027243
21
152.085377
31
0.0
0
ARC
8
0
10
-41.027243
20
151.785377
30
0.0
40
0.300000
50
90.000000
51
180.000000
0
LINE
8
0
10
-41.327243
20
151.785377
30
0.0
11
-41.327243
21
147.985377
31
0.0
0
ARC
8
0
10
-41.827243
20
147.985377
30
0.0
40
0.500000
50
180.000000
51
0.000000
0
LINE
8
0
10
-42.327243
20
147.985377
30
0.0
11
-42.327243
21
151.785377
31
0.0
0
ARC
8
0
10
-42.627243
20
151.785377
30
0.0
40
0.300000
50
0.000000
51
90.000000
0
LINE
8
0
10
-42.627243
20
152.085377
30
0.0
11
-52.527243
21
152.085377
31
0.0
0
ARC
8
0
10
-52.527243
20
151.785377
30
0.0
40
0.300000
50
90.000000
51
180.000000
0
LINE
8
0
10
-52.827243
20
151.785377
30
0.0
11
-52.827243
21
147.985377
31
0.0
0
ARC
8
0
10
-53.327243
20
147.985377
30
0.0
40
0.500000
50
180.000000
51
0.000000
0
LINE
8
0
10
-53.827243
20
147.985377
30
0.0
11
-53.827243
21
151.785377
31
0.0
0
ARC
8
0
10
-54.127243
20
151.785377
30
0.0
40
0.300000
50
0.000000
51
90.000000
0
LINE
8
0
10
-54.127243
20
152.085377
30
0.0
11
-56.431913
21
152.085377
31
0.0
0
ARC
8
0
10
-56.431913
20
151.085377
30
0.0
40
1.000000
50
90.000000
51
144.745828
0
LINE
8
0
10
-57.248512
20
151.662582
30
0.0
11
-58.771333
21
149.508173
31
0.0
0
ARC
8
0
10
-59.587933
20
150.085377
30
0.0
40
1.000000
50
270.000000
51
324.745828
0
LINE
8
0
10
-59.587933
20
149.085377
30
0.0
11
-60.689243
21
149.085377
31
0.0
0
ARC
8
0
10
-60.689243
20
147.885377
30
0.0
40
1.200000
50
90.000000
51
119.981639
0
LINE
8
0
10
-61.288910
20
148.924800
30
0.0
11
-62.870854
21
148.012140
31
0.0
0
ARC
8
0
10
-62.970799
20
148.185377
30
0.0
40
0.200000
50
270.000000
51
299.981639
0
LINE
8
0
10
-62.970799
20
147.985377
30
0.0
11
-63.177243
21
147.985377
31
0.0
0
ARC
8
0
10
-63.177243
20
148.385377
30
0.0
40
0.400000
50
180.000000
51
270.000000
0
LINE
8
0
10
-63.577243
20
148.385377
30
0.0
11
-63.577243
21
151.785377
31
0.0
0
ARC
8
0
10
-63.177243
20
151.785377
30
0.0
40
0.400000
50
90.000000
51
180.000000
0
LINE
8
0
10
-63.177243
20
152.185377
30
0.0
11
-62.970799
21
152.185377
31
0.0
0
ARC
8
0
10
-62.970799
20
151.985377
30
0.0
40
0.200000
50
60.018361
51
90.000000
0
LINE
8
0
10
-62.870854
20
152.158614
30
0.0
11
-61.288910
21
151.245955
31
0.0
0
ARC
8
0
10
-60.689243
20
152.285377
30
0.0
40
1.200000
50
240.018361
51
270.000000
0
LINE
8
0
10
-60.689243
20
151.085377
30
0.0
11
-60.261009
21
151.085377
31
0.0
0
ARC
8
0
10
-60.261009
20
151.385377
30
0.0
40
0.300000
50
270.000000
51
324.745828
0
LINE
8
0
10
-60.016030
20
151.212216
30
0.0
11
-58.134590
21
153.873980
31
0.0
0
ARC
8
0
10
-57.726291
20
153.585377
30
0.0
40
0.500000
50
90.000000
51
144.745828
0
LINE
8
0
10
-57.726291
20
154.085377
30
0.0
11
-14.428195
21
154.085377
31
0.0
0
ARC
8
0
10
-14.428195
20
153.585377
30
0.0
40
0.500000
50
35.254172
51
90.000000
0
LINE
8
0
10
-14.019896
20
153.873980
30
0.0
11
-12.138456
21
151.212216
31
0.0
0
ARC
8
0
10
-11.893477
20
151.385377
30
0.0
40
0.300000
50
215.254172
51
270.000000
0
LINE
8
0
10
-11.893477
20
151.085377
30
0.0
11
-11.465243
21
151.085377
31
0.0
0
ARC
8
0
10
-11.465243
20
152.285377
30
0.0
40
1.200000
50
270.000000
51
299.981639
0
LINE
8
0
10
-10.865576
20
151.245955
30
0.0
11
-9.283632
21
152.158614
31
0.0
0
ARC
8
0
10
-9.183688
20
151.985377
30
0.0
40
0.200000
50
90.000000
51
119.981639
0
LINE
8
0
10
-9.183688
20
152.185377
30
0.0
11
-8.977243
21
152.185377
31
0.0
0
ARC
8
0
10
-8.977243
20
151.785377
30
0.0
40
0.400000
50
0.000000
51
90.000000
0
LINE
8
0
10
-8.577243
20
151.785377
30
0.0
11
-8.577243
21
148.385377
31
0.0
0
ARC
8
0
10
-8.977243
20
148.385377
30
0.0
40
0.400000
50
270.000000
51
0.000000
0
LINE
8
0
10
-8.977243
20
147.985377
30
0.0
11
-9.183688
21
147.985377
31
0.0
0
ARC
8
0
10
-9.183688
20
148.185377
30
0.0
40
0.200000
50
240.018361
51
270.000000
0
LINE
8
0
10
-9.283632
20
148.012140
30
0.0
11
-10.865576
21
148.924800
31
0.0
0
ARC
8
0
10
-11.465243
20
147.885377
30
0.0
40
1.200000
50
60.018361
51
90.000000
0
LINE
8
0
10
-11.465243
20
149.085377
30
0.0
11
-12.566553
21
149.085377
31
0.0
0
ARC
8
0
10
-12.566553
20
150.085377
30
0.0
40
1.000000
50
215.254172
51
270.000000
0
LINE
8
0
10
-13.383153
20
149.508173
30
0.0
11
-14.905974
21
151.662582
31
0.0
0
ARC
8
0
10
-15.722573
20
151.085377
30
0.0
40
1.000000
50
35.254172
51
90.000000
0
LINE
8
0
10
-15.722573
20
152.085377
30
0.0
11
-18.027243
21
152.085377
31
0.0
0
ARC
8
0
10
-18.027243
20
151.785377
30
0.0
40
0.300000
50
90.000000
51
180.000000
0
LINE
8
0
10
-18.327243
20
151.785377
30
0.0
11
-18.327243
21
147.985377
31
0.0
0
ARC
8
0
10
-18.827243
20
147.985377
30
0.0
40
0.500000
50
180.000000
51
0.000000
0
LINE
8
0
10
-19.327243
20
147.985377
30
0.0
11
-19.327243
21
151.785377
31
0.0
0
ARC
8
0
10
-19.627243
20
151.785377
30
0.0
40
0.300000
50
0.000000
51
90.000000
0
LINE
8
0
10
-19.627243
20
152.085377
30
0.0
11
-29.527243
21
152.085377
31
0.0
0
ARC
8
0
10
-29.527243
20
151.785377
30
0.0
40
0.300000
50
90.000000
51
180.000000
0
LINE
8
0
10
-29.827243
20
151.785377
30
0.0
11
-29.827243
21
147.985377
31
0.0
0
ARC
8
0
10
-30.327243
20
147.985377
30
0.0
40
0.500000
50
180.000000
51
0.000000
0
LINE
8
0
10
-30.827243
20
147.985377
30
0.0
11
-30.827243
21
151.785377
31
0.0
0
ARC
8
0
10
-31.127243
20
151.785377
30
0.0
40
0.300000
50
0.000000
51
90.000000
0
LINE
8
0
10
-31.127243
20
141.106003
30
0.0
11
-41.027243
21
141.106003
31
0.0
0
ARC
8
0
10
-41.027243
20
141.406003
30
0.0
40
0.300000
50
180.000000
51
270.000000
0
LINE
8
0
10
-41.327243
20
141.406003
30
0.0
11
-41.327243
21
145.206003
31
0.0
0
ARC
8
0
10
-41.827243
20
145.206003
30
0.0
40
0.500000
50
0.000000
51
180.000000
0
LINE
8
0
10
-42.327243
20
145.206003
30
0.0
11
-42.327243
21
141.406003
31
0.0
0
ARC
8
0
10
-42.627243
20
141.406003
30
0.0
40
0.300000
50
270.000000
51
0.000000
0
LINE
8
0
10
-42.627243
20
141.106003
30
0.0
11
-52.527243
21
141.106003
31
0.0
0
ARC
8
0
10
-52.527243
20
141.406003
30
0.0
40
0.300000
50
180.000000
51
270.000000
0
LINE
8
0
10
-52.827243
20
141.406003
30
0.0
11
-52.827243
21
145.206003
31
0.0
0
ARC
8
0
10
-53.327243
20
145.206003
30
0.0
40
0.500000
50
0.000000
51
180.000000
0
LINE
8
0
10
-53.827243
20
145.206003
30
0.0
11
-53.827243
21
141.406003
31
0.0
0
ARC
8
0
10
-54.127243
20
141.406003
30
0.0
40
0.300000
50
270.000000
51
0.000000
0
LINE
8
0
10
-54.127243
20
141.106003
30
0.0
11
-56.431913
21
141.106003
31
0.0
0
ARC
8
0
10
-56.431913
20
142.106003
30
0.0
40
1.000000
50
215.254172
51
270.000000
0
LINE
8
0
10
-57.248512
20
141.528799
30
0.0
11
-58.771333
21
143.683208
31
0.0
0
ARC
8
0
10
-59.587933
20
143.106003
30
0.0
40
1.000000
50
35.254172
51
90.000000
0
LINE
8
0
10
-59.587933
20
144.106003
30
0.0
11
-60.689243
21
144.106003
31
0.0
0
ARC
8
0
10
-60.689243
20
145.306003
30
0.0
40
1.200000
50
240.018361
51
270.000000
0
LINE
8
0
10
-61.288910
20
144.266581
30
0.0
11
-62.870854
21
145.179240
31
0.0
0
ARC
8
0
10
-62.970799
20
145.006003
30
0.0
40
0.200000
50
60.018361
51
90.000000
0
LINE
8
0
10
-62.970799
20
145.206003
30
0.0
11
-63.177243
21
145.206003
31
0.0
0
ARC
8
0
10
-63.177243
20
144.806003
30
0.0
40
0.400000
50
90.000000
51
180.000000
0
LINE
8
0
10
-63.577243
20
144.806003
30
0.0
11
-63.577243
21
141.406003
31
0.0
0
ARC
8
0
10
-63.177243
20
141.406003
30
0.0
40
0.400000
50
180.000000
51
270.000000
0
LINE
8
0
10
-63.177243
20
141.006003
30
0.0
11
-62.970799
21
141.006003
31
0.0
0
ARC
8
0
10
-62.970799
20
141.206003
30
0.0
40
0.200000
50
270.000000
51
299.981639
0
LINE
8
0
10
-62.870854
20
141.032766
30
0.0
11
-61.288910
21
141.945426
31
0.0
0
ARC
8
0
10
-60.689243
20
140.906003
30
0.0
40
1.200000
50
90.000000
51
119.981639
0
LINE
8
0
10
-60.689243
20
142.106003
30
0.0
11
-60.261009
21
142.106003
31
0.0
0
ARC
8
0
10
-60.261009
20
141.806003
30
0.0
40
0.300000
50
35.254172
51
90.000000
0
LINE
8
0
10
-60.016030
20
141.979165
30
0.0
11
-58.134590
21
139.317401
31
0.0
0
ARC
8
0
10
-57.726291
20
139.606003
30
0.0
40
0.500000
50
215.254172
51
270.000000
0
LINE
8
0
10
-57.726291
20
139.106003
30
0.0
11
-14.428195
21
139.106003
31
0.0
0
ARC
8
0
10
-14.428195
20
139.606003
30
0.0
40
0.500000
50
270.000000
51
324.745828
0
LINE
8
0
10
-14.019896
20
139.317401
30
0.0
11
-12.138456
21
141.979165
31
0.0
0
ARC
8
0
10
-11.893477
20
141.806003
30
0.0
40
0.300000
50
90.000000
51
144.745828
0
LINE
8
0
10
-11.893477
20
142.106003
30
0.0
11
-11.465243
21
142.106003
31
0.0
0
ARC
8
0
10
-11.465243
20
140.906003
30
0.0
40
1.200000
50
60.018361
51
90.000000
0
LINE
8
0
10
-10.865576
20
141.945426
30
0.0
11
-9.283632
21
141.032766
31
0.0
0
ARC
8
0
10
-9.183688
20
141.206003
30
0.0
40
0.200000
50
240.018361
51
270.000000
0
LINE
8
0
10
-9.183688
20
141.006003
30
0.0
11
-8.977243
21
141.006003
31
0.0
0
ARC
8
0
10
-8.977243
20
141.406003
30
0.0
40
0.400000
50
270.000000
51
0.000000
0
LINE
8
0
10
-8.577243
20
141.406003
30
0.0
11
-8.577243
21
144.806003
31
0.0
0
ARC
8
0
10
-8.977243
20
144.806003
30
0.0
40
0.400000
50
0.000000
51
90.000000
0
LINE
8
0
10
-8.977243
20
145.206003
30
0.0
11
-9.183688
21
145.206003
31
0.0
0
ARC
8
0
10
-9.183688
20
145.006003
30
0.0
40
0.200000
50
90.000000
51
119.981639
0
LINE
8
0
10
-9.283632
20
145.179240
30
0.0
11
-10.865576
21
144.266581
31
0.0
0
ARC
8
0
10
-11.465243
20
145.306003
30
0.0
40
1.200000
50
270.000000
51
299.981639
0
LINE
8
0
10
-11.465243
20
144.106003
30
0.0
11
-12.566553
21
144.106003
31
0.0
0
ARC
8
0
10
-12.566553
20
143.106003
30
0.0
40
1.000000
50
90.000000
51
144.745828
0
LINE
8
0
10
-13.383153
20
143.683208
30
0.0
11
-14.905974
21
141.528799
31
0.0
0
ARC
8
0
10
-15.722573
20
142.106003
30
0.0
40
1.000000
50
270.000000
51
324.745828
0
LINE
8
0
10
-15.722573
20
141.106003
30
0.0
11
-18.027243
21
141.106003
31
0.0
0
ARC
8
0
10
-18.027243
20
141.406003
30
0.0
40
0.300000
50
180.000000
51
270.000000
0
LINE
8
0
10
-18.327243
20
141.406003
30
0.0
11
-18.327243
21
145.206003
31
0.0
0
ARC
8
0
10
-18.827243
20
145.206003
30
0.0
40
0.500000
50
0.000000
51
180.000000
0
LINE
8
0
10
-19.327243
20
145.206003
30
0.0
11
-19.327243
21
141.406003
31
0.0
0
ARC
8
0
10
-19.627243
20
141.406003
30
0.0
40
0.300000
50
270.000000
51
0.000000
0
LINE
8
0
10
-19.627243
20
141.106003
30
0.0
11
-29.527243
21
141.106003
31
0.0
0
ARC
8
0
10
-29.527243
20
141.406003
30
0.0
40
0.300000
50
180.000000
51
270.000000
0
LINE
8
0
10
-29.827243
20
141.406003
30
0.0
11
-29.827243
21
145.206003
31
0.0
0
ARC
8
0
10
-30.327243
20
145.206003
30
0.0
40
0.500000
50
0.000000
51
180.000000
0
LINE
8
0
10
-30.827243
20
145.206003
30
0.0
11
-30.827243
21
141.406003
31
0.0
0
ARC
8
0
10
-31.127243
20
141.406003
30
0.0
40
0.300000
50
270.000000
51
0.000000
0
ATTDEF
8
0
10
-96.277243
20
182.490700
30
0.0
40
3.5
1

3

2
VC_START
70
0
0
ATTDEF
8
0
10
-105.777243
20
139.090700
30
0.0
40
3.5
1

3

2
VC_END
70
0
0
ATTDEF
8
0
10
-106.077243
20
139.090700
30
0.0
40
3.5
1

3

2
FRONT_VIEW
70
0
0
ATTDEF
8
0
10
-106.077243
20
139.090700
30
0.0
40
3.5
1

3

2
BL01:6800.000000,,1
70
0
0
ATTDEF
8
0
10
-106.077243
20
139.090700
30
0.0
40
3.5
1

3

2
OPTI:500.000000,1,0,3000.000000,6500.000000,500.000000,0,0.000000,0
70
0
0
ATTDEF
8
0
10
-106.077243
20
139.090700
30
0.0
40
3.5
1

3

2
GLASS_MIN:0.000000
70
0
0
ATTDEF
8
0
10
-106.077243
20
139.090700
30
0.0
40
3.5
1

3

2
GLASS_MAX:0.000000
70
0
0
ATTDEF
8
0
10
-106.077243
20
139.090700
30
0.0
40
3.5
1

3

2
FP_LCS_ORIG
70
0
0
ATTDEF
8
0
10
-96.077243
20
139.090700
30
0.0
40
3.5
1

3

2
FP_LCS_HOT
70
0
0
ATTDEF
8
0
10
-106.077243
20
149.090700
30
0.0
40
3.5
1

3

2
FP_LCS_INTERN
70
0
0
ATTDEF
8
0
10
0.000000
20
0.000000
30
0.0
40
3.5
1

3

2
TDEV2:0
70
0
0
ATTDEF
8
0
10
0.000000
20
0.000000
30
0.0
40
3.5
1

3

2
TDEV3:0
70
0
0
ATTDEF
8
0
10
0.000000
20
0.000000
30
0.0
40
3.5
1

3

2
TDEV4:0
70
0
0
ATTDEF
8
0
10
0.000000
20
0.000000
30
0.0
40
3.5
1

3

2
TDEV5:0
70
0
0
ATTDEF
8
0
10
0.000000
20
0.000000
30
0.0
40
3.5
1

3

2
PANE_WIDTH:0
70
0
0
ATTDEF
8
0
10
0.000000
20
0.000000
30
0.0
40
3.5
1

3

2
MIN_VETRO:0
70
0
0
ATTDEF
8
0
10
0.000000
20
0.000000
30
0.0
40
3.5
1

3

2
MAX_VETRO:0
70
0
0
ATTDEF
8
0
10
0.000000
20
0.000000
30
0.0
40
3.5
1

3

2
JX:0
70
0
0
ATTDEF
8
0
10
0.000000
20
0.000000
30
0.0
40
3.5
1

3

2
WX:0
70
0
0
ATTDEF
8
0
10
0.000000
20
0.000000
30
0.0
40
3.5
1

3

2
JY:0
70
0
0
ATTDEF
8
0
10
0.000000
20
0.000000
30
0.0
40
3.5
1

3

2
WY:0
70
0
0
ATTDEF
8
0
10
0.000000
20
0.000000
30
0.0
40
3.5
1

3

2
DESC:Telaio Apertura XX
70
0
0
ATTDEF
8
0
10
0.000000
20
0.000000
30
0.0
40
3.5
1

3

2
DENS:2.26
70
0
0
ATTDEF
8
0
10
0.000000
20
0.000000
30
0.0
40
3.5
1

3

2
TDEV:0
70
0
0
ATTDEF
8
0
10
0.000000
20
0.000000
30
0.0
40
3.5
1

3

2
TDEV2:0
70
0
0
ATTDEF
8
0
10
0.000000
20
0.000000
30
0.0
40
3.5
1

3

2
TDEV3:0
70
0
0
ATTDEF
8
0
10
0.000000
20
0.000000
30
0.0
40
3.5
1

3

2
TDEV4:0
70
0
0
ATTDEF
8
0
10
0.000000
20
0.000000
30
0.0
40
3.5
1

3

2
TDEV5:0
70
0
0
ATTDEF
8
0
10
0.000000
20
0.000000
30
0.0
40
3.5
1

3

2
PANE_WIDTH:0
70
0
0
ATTDEF
8
0
10
0.000000
20
0.000000
30
0.0
40
3.5
1

3

2
MIN_VETRO:0
70
0
0
ATTDEF
8
0
10
0.000000
20
0.000000
30
0.0
40
3.5
1

3

2
MAX_VETRO:0
70
0
0
ATTDEF
8
0
10
0.000000
20
0.000000
30
0.0
40
3.5
1

3

2
JX:0
70
0
0
ATTDEF
8
0
10
0.000000
20
0.000000
30
0.0
40
3.5
1

3

2
WX:0
70
0
0
ATTDEF
8
0
10
0.000000
20
0.000000
30
0.0
40
3.5
1

3

2
JY:0
70
0
0
ATTDEF
8
0
10
0.000000
20
0.000000
30
0.0
40
3.5
1

3

2
WY:0
70
0
0
ENDSEC
0
EOF
