0
SECTION
2
ENTITIES
0
LINE
8
0
10
205.702136
20
37.920801
30
0.0
11
205.702136
21
22.900009
31
0.0
0
ARC
8
0
10
205.402136
20
22.900009
30
0.0
40
0.300000
50
270.000000
51
0.000000
0
LINE
8
0
10
205.402136
20
22.600009
30
0.0
11
202.702136
21
22.600009
31
0.0
0
ARC
8
0
10
202.702136
20
22.300009
30
0.0
40
0.300000
50
90.000000
51
180.000000
0
LINE
8
0
10
202.402136
20
22.300009
30
0.0
11
202.402136
21
21.400009
31
0.0
0
ARC
8
0
10
202.702136
20
21.400009
30
0.0
40
0.300000
50
180.000000
51
270.000000
0
LINE
8
0
10
202.702136
20
21.100009
30
0.0
11
204.002136
21
21.100009
31
0.0
0
ARC
8
0
10
204.002136
20
20.800009
30
0.0
40
0.300000
50
0.000000
51
90.000000
0
LINE
8
0
10
204.302136
20
20.800009
30
0.0
11
204.302136
21
19.400009
31
0.0
0
ARC
8
0
10
204.602136
20
19.400009
30
0.0
40
0.300000
50
180.000000
51
270.000000
0
LINE
8
0
10
204.602136
20
19.100009
30
0.0
11
205.402136
21
19.100009
31
0.0
0
ARC
8
0
10
205.402136
20
18.800009
30
0.0
40
0.300000
50
0.000000
51
90.000000
0
LINE
8
0
10
205.702136
20
18.800009
30
0.0
11
205.702136
21
16.800009
31
0.0
0
ARC
8
0
10
206.002136
20
16.800009
30
0.0
40
0.300000
50
180.000000
51
270.000000
0
LINE
8
0
10
206.002136
20
16.500009
30
0.0
11
215.702136
21
16.500009
31
0.0
0
ARC
8
0
10
215.702136
20
16.200009
30
0.0
40
0.300000
50
0.000000
51
90.000000
0
LINE
8
0
10
216.002136
20
16.200009
30
0.0
11
216.002136
21
6.800009
31
0.0
0
ARC
8
0
10
215.702136
20
6.800009
30
0.0
40
0.300000
50
270.000000
51
0.000000
0
LINE
8
0
10
215.702136
20
6.500009
30
0.0
11
206.102136
21
6.500009
31
0.0
0
ARC
8
0
10
206.102136
20
6.800009
30
0.0
40
0.300000
50
180.000000
51
270.000000
0
LINE
8
0
10
205.802136
20
6.800009
30
0.0
11
205.802136
21
7.700009
31
0.0
0
ARC
8
0
10
205.502136
20
7.700009
30
0.0
40
0.300000
50
0.000000
51
90.000000
0
LINE
8
0
10
205.502136
20
8.000009
30
0.0
11
204.602136
21
8.000009
31
0.0
0
ARC
8
0
10
204.602136
20
7.700009
30
0.0
40
0.300000
50
90.000000
51
180.000000
0
LINE
8
0
10
204.302136
20
7.700009
30
0.0
11
204.302136
21
6.800009
31
0.0
0
ARC
8
0
10
204.002136
20
6.800009
30
0.0
40
0.300000
50
270.000000
51
0.000000
0
LINE
8
0
10
204.002136
20
6.500009
30
0.0
11
181.602136
21
6.500009
31
0.0
0
ARC
8
0
10
181.602136
20
6.800009
30
0.0
40
0.300000
50
180.000000
51
270.000000
0
LINE
8
0
10
181.302136
20
6.800009
30
0.0
11
181.302136
21
7.700009
31
0.0
0
ARC
8
0
10
181.002136
20
7.700009
30
0.0
40
0.300000
50
0.000000
51
90.000000
0
LINE
8
0
10
181.002136
20
8.000009
30
0.0
11
180.102136
21
8.000009
31
0.0
0
ARC
8
0
10
180.102136
20
7.700009
30
0.0
40
0.300000
50
90.000000
51
180.000000
0
LINE
8
0
10
179.802136
20
7.700009
30
0.0
11
179.802136
21
6.800009
31
0.0
0
ARC
8
0
10
179.502136
20
6.800009
30
0.0
40
0.300000
50
270.000000
51
0.000000
0
LINE
8
0
10
179.502136
20
6.500009
30
0.0
11
176.802160
21
6.500009
31
0.0
0
ARC
8
0
10
176.802160
20
6.800009
30
0.0
40
0.300000
50
180.000000
51
270.000000
0
LINE
8
0
10
176.502160
20
6.800009
30
0.0
11
176.502160
21
13.200009
31
0.0
0
ARC
8
0
10
176.802160
20
13.200009
30
0.0
40
0.300000
50
90.000000
51
180.000000
0
LINE
8
0
10
176.802160
20
13.500009
30
0.0
11
179.702160
21
13.500009
31
0.0
0
ARC
8
0
10
179.702160
20
13.800009
30
0.0
40
0.300000
50
270.000000
51
0.000000
0
LINE
8
0
10
180.002160
20
13.800009
30
0.0
11
180.002160
21
18.800009
31
0.0
0
ARC
8
0
10
180.302160
20
18.800009
30
0.0
40
0.300000
50
90.000000
51
180.000000
0
LINE
8
0
10
180.302160
20
19.100009
30
0.0
11
181.002160
21
19.100009
31
0.0
0
ARC
8
0
10
181.002160
20
19.400009
30
0.0
40
0.300000
50
270.000000
51
0.000000
0
LINE
8
0
10
181.302160
20
19.400009
30
0.0
11
181.302160
21
20.800009
31
0.0
0
ARC
8
0
10
181.602160
20
20.800009
30
0.0
40
0.300000
50
90.000000
51
180.000000
0
LINE
8
0
10
181.602160
20
21.100009
30
0.0
11
184.002160
21
21.100009
31
0.0
0
ARC
8
0
10
184.002160
20
21.400009
30
0.0
40
0.300000
50
270.000000
51
0.000000
0
LINE
8
0
10
184.302160
20
21.400009
30
0.0
11
184.302160
21
22.300009
31
0.0
0
ARC
8
0
10
184.002160
20
22.300009
30
0.0
40
0.300000
50
0.000000
51
90.000000
0
LINE
8
0
10
184.002160
20
22.600009
30
0.0
11
180.302160
21
22.600009
31
0.0
0
ARC
8
0
10
180.302160
20
22.900009
30
0.0
40
0.300000
50
180.000000
51
270.000000
0
LINE
8
0
10
180.002160
20
22.900009
30
0.0
11
180.002160
21
27.200009
31
0.0
0
ARC
8
0
10
180.302160
20
27.200009
30
0.0
40
0.300000
50
90.000000
51
180.000000
0
LINE
8
0
10
180.302160
20
27.500009
30
0.0
11
183.327871
21
27.500009
31
0.0
0
ARC
8
0
10
183.327871
20
27.200009
30
0.0
40
0.300000
50
45.000000
51
90.000000
0
LINE
8
0
10
183.540004
20
27.412141
30
0.0
11
183.864268
21
27.087877
31
0.0
0
ARC
8
0
10
184.076400
20
27.300009
30
0.0
40
0.300000
50
225.000000
51
270.000000
0
LINE
8
0
10
184.076400
20
27.000009
30
0.0
11
188.327871
21
27.000009
31
0.0
0
ARC
8
0
10
188.327871
20
27.300009
30
0.0
40
0.300000
50
270.000000
51
315.000000
0
LINE
8
0
10
188.540004
20
27.087877
30
0.0
11
188.864268
21
27.412141
31
0.0
0
ARC
8
0
10
189.076400
20
27.200009
30
0.0
40
0.300000
50
90.000000
51
135.000000
0
LINE
8
0
10
189.076400
20
27.500009
30
0.0
11
192.902136
21
27.500009
31
0.0
0
ARC
8
0
10
192.902136
20
28.500009
30
0.0
40
1.000000
50
270.000000
51
0.000000
0
LINE
8
0
10
193.902136
20
28.500009
30
0.0
11
193.902136
21
31.375637
31
0.0
0
ARC
8
0
10
194.202136
20
31.375637
30
0.0
40
0.300000
50
150.000000
51
180.000000
0
LINE
8
0
10
193.942328
20
31.525637
30
0.0
11
194.793557
21
33.000009
31
0.0
0
ARC
8
0
10
193.061506
20
34.000009
30
0.0
40
2.000000
50
330.000000
51
57.356923
0
ARC
8
0
10
194.302136
20
35.936717
30
0.0
40
0.300000
50
180.000000
51
237.356923
0
LINE
8
0
10
194.002136
20
35.936717
30
0.0
11
194.002136
21
37.700009
31
0.0
0
ARC
8
0
10
194.302136
20
37.700009
30
0.0
40
0.300000
50
90.000000
51
180.000000
0
LINE
8
0
10
194.302136
20
38.000009
30
0.0
11
196.502136
21
38.000009
31
0.0
0
ARC
8
0
10
196.502136
20
38.500009
30
0.0
40
0.500000
50
270.000000
51
0.000000
0
LINE
8
0
10
197.002136
20
38.500009
30
0.0
11
197.002136
21
41.600009
31
0.0
0
ARC
8
0
10
197.302136
20
41.600009
30
0.0
40
0.300000
50
90.000000
51
180.000000
0
LINE
8
0
10
197.302136
20
41.900009
30
0.0
11
206.902136
21
41.900009
31
0.0
0
ARC
8
0
10
206.902136
20
41.600009
30
0.0
40
0.300000
50
0.000000
51
90.000000
0
LINE
8
0
10
207.202136
20
41.600009
30
0.0
11
207.202136
21
38.783121
31
0.0
0
ARC
8
0
10
206.902136
20
38.783121
30
0.0
40
0.300000
50
285.000000
51
0.000000
0
LINE
8
0
10
206.979781
20
38.493344
30
0.0
11
205.924490
21
38.210579
31
0.0
0
ARC
8
0
10
206.002136
20
37.920801
30
0.0
40
0.300000
50
105.000000
51
180.000000
0
ARC
8
0
10
175.702136
20
40.175745
30
0.0
40
0.300000
50
135.000000
51
180.000000
0
LINE
8
0
10
175.402136
20
40.175745
30
0.0
11
175.402136
21
40.300009
31
0.0
0
LINE
8
0
10
175.402136
20
40.300009
30
0.0
11
175.490004
21
40.387877
31
0.0
0
LINE
8
0
10
175.490004
20
40.387877
30
0.0
11
175.714268
21
40.612141
31
0.0
0
ARC
8
0
10
175.926400
20
40.400009
30
0.0
40
0.300000
50
90.000000
51
135.000000
0
LINE
8
0
10
175.926400
20
40.700009
30
0.0
11
176.602136
21
40.700009
31
0.0
0
ARC
8
0
10
176.602136
20
40.400009
30
0.0
40
0.300000
50
0.000000
51
90.000000
0
LINE
8
0
10
176.902136
20
40.400009
30
0.0
11
176.902136
21
39.800009
31
0.0
0
ARC
8
0
10
177.202136
20
39.800009
30
0.0
40
0.300000
50
180.000000
51
270.000000
0
LINE
8
0
10
177.202136
20
39.500009
30
0.0
11
179.612429
21
39.500009
31
0.0
0
ARC
8
0
10
179.612429
20
39.200009
30
0.0
40
0.300000
50
2.000000
51
90.000000
0
LINE
8
0
10
179.912246
20
39.210479
30
0.0
11
180.058670
21
35.017459
31
0.0
0
ARC
8
0
10
179.558974
20
35.000009
30
0.0
40
0.500000
50
270.000000
51
2.000000
0
LINE
8
0
10
179.558974
20
34.500009
30
0.0
11
179.342765
21
34.500009
31
0.0
0
ARC
8
0
10
179.342765
20
34.000009
30
0.0
40
0.500000
50
90.000000
51
210.000000
0
LINE
8
0
10
178.909752
20
33.750009
30
0.0
11
179.935148
21
31.973971
31
0.0
0
ARC
8
0
10
179.502136
20
31.723971
30
0.0
40
0.500000
50
0.000000
51
30.000000
0
LINE
8
0
10
180.002136
20
31.723971
30
0.0
11
180.002136
21
29.300009
31
0.0
0
ARC
8
0
10
180.302136
20
29.300009
30
0.0
40
0.300000
50
180.000000
51
270.000000
0
LINE
8
0
10
180.302136
20
29.000009
30
0.0
11
185.902136
21
29.000009
31
0.0
0
LINE
8
0
10
185.902136
20
29.000009
30
0.0
11
186.202136
21
28.700009
31
0.0
0
LINE
8
0
10
186.202136
20
28.700009
30
0.0
11
186.502136
21
29.000009
31
0.0
0
LINE
8
0
10
186.502136
20
29.000009
30
0.0
11
192.102136
21
29.000009
31
0.0
0
ARC
8
0
10
192.102136
20
29.300009
30
0.0
40
0.300000
50
270.000000
51
0.000000
0
LINE
8
0
10
192.402136
20
29.300009
30
0.0
11
192.402136
21
31.723971
31
0.0
0
ARC
8
0
10
192.902136
20
31.723971
30
0.0
40
0.500000
50
150.000000
51
180.000000
0
LINE
8
0
10
192.469123
20
31.973971
30
0.0
11
193.494519
21
33.750009
31
0.0
0
ARC
8
0
10
193.061506
20
34.000009
30
0.0
40
0.500000
50
330.000000
51
90.000000
0
LINE
8
0
10
193.061506
20
34.500009
30
0.0
11
192.845297
21
34.500009
31
0.0
0
ARC
8
0
10
192.845297
20
35.000009
30
0.0
40
0.500000
50
178.000000
51
270.000000
0
LINE
8
0
10
192.345601
20
35.017459
30
0.0
11
192.492025
21
39.210479
31
0.0
0
ARC
8
0
10
192.791842
20
39.200009
30
0.0
40
0.300000
50
90.000000
51
178.000000
0
LINE
8
0
10
192.791842
20
39.500009
30
0.0
11
195.202136
21
39.500009
31
0.0
0
ARC
8
0
10
195.202136
20
39.800009
30
0.0
40
0.300000
50
270.000000
51
0.000000
0
LINE
8
0
10
195.502136
20
39.800009
30
0.0
11
195.502136
21
43.100009
31
0.0
0
ARC
8
0
10
195.802136
20
43.100009
30
0.0
40
0.300000
50
90.000000
51
180.000000
0
LINE
8
0
10
195.802136
20
43.400009
30
0.0
11
207.702136
21
43.400009
31
0.0
0
ARC
8
0
10
207.702136
20
42.400009
30
0.0
40
1.000000
50
0.000000
51
90.000000
0
LINE
8
0
10
208.702136
20
42.400009
30
0.0
11
208.702136
21
37.632131
31
0.0
0
ARC
8
0
10
208.402136
20
37.632131
30
0.0
40
0.300000
50
285.000000
51
0.000000
0
LINE
8
0
10
208.479781
20
37.342353
30
0.0
11
207.424490
21
37.059589
31
0.0
0
ARC
8
0
10
207.502136
20
36.769811
30
0.0
40
0.300000
50
105.000000
51
180.000000
0
LINE
8
0
10
207.202136
20
36.769811
30
0.0
11
207.202136
21
18.300009
31
0.0
0
ARC
8
0
10
207.502136
20
18.300009
30
0.0
40
0.300000
50
180.000000
51
270.000000
0
LINE
8
0
10
207.502136
20
18.000009
30
0.0
11
217.002136
21
18.000009
31
0.0
0
ARC
8
0
10
217.002136
20
17.500009
30
0.0
40
0.500000
50
0.000000
51
90.000000
0
LINE
8
0
10
217.502136
20
17.500009
30
0.0
11
217.502136
21
0.300009
31
0.0
0
ARC
8
0
10
217.202136
20
0.300009
30
0.0
40
0.300000
50
270.000000
51
0.000000
0
LINE
8
0
10
217.202136
20
0.000009
30
0.0
11
213.971993
21
0.000009
31
0.0
0
ARC
8
0
10
213.971993
20
0.300009
30
0.0
40
0.300000
50
210.963757
51
270.000000
0
LINE
8
0
10
213.714745
20
0.145660
30
0.0
11
213.244888
21
0.928755
31
0.0
0
ARC
8
0
10
213.502136
20
1.083104
30
0.0
40
0.300000
50
180.000000
51
210.963757
0
LINE
8
0
10
213.202136
20
1.083104
30
0.0
11
213.202136
21
1.200009
31
0.0
0
ARC
8
0
10
213.502136
20
1.200009
30
0.0
40
0.300000
50
90.000000
51
180.000000
0
LINE
8
0
10
213.502136
20
1.500009
30
0.0
11
215.402136
21
1.500009
31
0.0
0
ARC
8
0
10
215.402136
20
1.800009
30
0.0
40
0.300000
50
270.000000
51
0.000000
0
LINE
8
0
10
215.702136
20
1.800009
30
0.0
11
215.702136
21
4.700009
31
0.0
0
ARC
8
0
10
215.402136
20
4.700009
30
0.0
40
0.300000
50
0.000000
51
90.000000
0
LINE
8
0
10
215.402136
20
5.000009
30
0.0
11
201.502136
21
5.000009
31
0.0
0
ARC
8
0
10
201.502136
20
4.700009
30
0.0
40
0.300000
50
90.000000
51
180.000000
0
LINE
8
0
10
201.202136
20
4.700009
30
0.0
11
201.202136
21
1.800009
31
0.0
0
ARC
8
0
10
201.502136
20
1.800009
30
0.0
40
0.300000
50
180.000000
51
270.000000
0
LINE
8
0
10
201.502136
20
1.500009
30
0.0
11
202.902136
21
1.500009
31
0.0
0
ARC
8
0
10
202.902136
20
1.200009
30
0.0
40
0.300000
50
0.000000
51
90.000000
0
LINE
8
0
10
203.202136
20
1.200009
30
0.0
11
203.202136
21
1.083104
31
0.0
0
ARC
8
0
10
202.902136
20
1.083104
30
0.0
40
0.300000
50
329.036244
51
0.000000
0
LINE
8
0
10
203.159383
20
0.928755
30
0.0
11
202.689526
21
0.145660
31
0.0
0
ARC
8
0
10
202.432278
20
0.300009
30
0.0
40
0.300000
50
270.000000
51
329.036244
0
LINE
8
0
10
202.432278
20
0.000009
30
0.0
11
200.002136
21
0.000009
31
0.0
0
ARC
8
0
10
200.002136
20
0.300009
30
0.0
40
0.300000
50
180.000000
51
270.000000
0
LINE
8
0
10
199.702136
20
0.300009
30
0.0
11
199.702136
21
4.700009
31
0.0
0
ARC
8
0
10
199.402136
20
4.700009
30
0.0
40
0.300000
50
0.000000
51
90.000000
0
LINE
8
0
10
199.402136
20
5.000009
30
0.0
11
176.802136
21
5.000009
31
0.0
0
ARC
8
0
10
176.802136
20
4.700009
30
0.0
40
0.300000
50
90.000000
51
180.000000
0
LINE
8
0
10
176.502136
20
4.700009
30
0.0
11
176.502136
21
0.300009
31
0.0
0
ARC
8
0
10
176.202136
20
0.300009
30
0.0
40
0.300000
50
270.000000
51
0.000000
0
LINE
8
0
10
176.202136
20
0.000009
30
0.0
11
174.734220
21
0.000009
31
0.0
0
ARC
8
0
10
174.734220
20
0.300009
30
0.0
40
0.300000
50
250.221829
51
270.000000
0
LINE
8
0
10
174.632706
20
0.017706
30
0.0
11
173.330843
21
0.485845
31
0.0
0
ARC
8
0
10
173.251324
20
0.264708
30
0.0
40
0.235000
50
70.221829
51
156.000000
0
ARC
8
0
10
172.815390
20
0.441121
30
0.0
40
0.235000
50
270.000000
51
336.000000
0
LINE
8
0
10
172.816946
20
0.206127
30
0.0
11
171.238018
21
0.195669
31
0.0
0
ARC
8
0
10
171.236031
20
0.495663
30
0.0
40
0.300000
50
155.379459
51
270.000000
0
LINE
8
0
10
170.963305
20
0.620645
30
0.0
11
171.911955
21
2.726160
31
0.0
0
ARC
8
0
10
172.185474
20
2.602925
30
0.0
40
0.300000
50
115.379459
51
155.745828
0
LINE
8
0
10
172.056891
20
2.873971
30
0.0
11
172.564314
21
3.114690
31
0.0
0
ARC
8
0
10
172.650036
20
2.933993
30
0.0
40
0.200000
50
355.379459
51
115.379459
0
LINE
8
0
10
172.849386
20
2.917881
30
0.0
11
172.840084
21
2.802787
31
0.0
0
ARC
8
0
10
173.139109
20
2.778620
30
0.0
40
0.300000
50
175.379459
51
235.379459
0
LINE
8
0
10
172.968668
20
2.531740
30
0.0
11
174.597424
21
1.407274
31
0.0
0
LINE
8
0
10
174.597424
20
1.407274
30
0.0
11
174.780133
21
1.325927
31
0.0
0
ARC
8
0
10
174.902136
20
1.600009
30
0.0
40
0.300009
50
246.004713
51
48.187329
0
ARC
8
0
10
175.302160
20
2.047213
30
0.0
40
0.300000
50
180.000000
51
228.187329
0
LINE
8
0
10
175.002160
20
2.047213
30
0.0
11
175.002160
21
5.900000
31
0.0
0
ARC
8
0
10
174.702160
20
5.900000
30
0.0
40
0.300000
50
0.000000
51
90.000000
0
LINE
8
0
10
174.702160
20
6.200000
30
0.0
11
174.480967
21
6.200000
31
0.0
0
ARC
8
0
10
174.480967
20
5.900000
30
0.0
40
0.300000
50
90.000000
51
121.400000
0
LINE
8
0
10
174.324664
20
6.156065
30
0.0
11
172.806362
21
5.229289
31
0.0
0
ARC
8
0
10
172.702160
20
5.400000
30
0.0
40
0.200000
50
180.000000
51
301.400000
0
LINE
8
0
10
172.502160
20
5.400000
30
0.0
11
172.502160
21
9.600000
31
0.0
0
ARC
8
0
10
172.702160
20
9.600000
30
0.0
40
0.200000
50
58.600000
51
180.000000
0
LINE
8
0
10
172.806362
20
9.770710
30
0.0
11
174.324664
21
8.843934
31
0.0
0
ARC
8
0
10
174.480967
20
9.100000
30
0.0
40
0.300000
50
238.600000
51
270.000000
0
LINE
8
0
10
174.480967
20
8.800000
30
0.0
11
174.702160
21
8.800000
31
0.0
0
ARC
8
0
10
174.702160
20
9.100000
30
0.0
40
0.300000
50
270.000000
51
0.000000
0
LINE
8
0
10
175.002160
20
9.100000
30
0.0
11
175.002160
21
12.952786
31
0.0
0
ARC
8
0
10
175.302160
20
12.952786
30
0.0
40
0.300000
50
131.812671
51
180.000000
0
ARC
8
0
10
174.902136
20
13.399990
30
0.0
40
0.300009
50
311.812671
51
113.995287
0
LINE
8
0
10
174.780133
20
13.674072
30
0.0
11
174.597424
21
13.592725
31
0.0
0
LINE
8
0
10
174.597424
20
13.592725
30
0.0
11
172.968668
21
12.468259
31
0.0
0
ARC
8
0
10
173.139109
20
12.221379
30
0.0
40
0.300000
50
124.620541
51
184.620541
0
LINE
8
0
10
172.840084
20
12.197212
30
0.0
11
172.849386
21
12.082118
31
0.0
0
ARC
8
0
10
172.650036
20
12.066006
30
0.0
40
0.200000
50
244.620541
51
4.620541
0
LINE
8
0
10
172.564314
20
11.885309
30
0.0
11
172.056891
21
12.126028
31
0.0
0
ARC
8
0
10
172.185474
20
12.397074
30
0.0
40
0.300000
50
204.254172
51
244.620541
0
LINE
8
0
10
171.911955
20
12.273839
30
0.0
11
170.963305
21
14.379354
31
0.0
0
ARC
8
0
10
171.236031
20
14.504336
30
0.0
40
0.300000
50
90.000000
51
204.620541
0
LINE
8
0
10
171.238018
20
14.804330
30
0.0
11
172.816946
21
14.793872
31
0.0
0
ARC
8
0
10
172.815390
20
14.558878
30
0.0
40
0.235000
50
24.000000
51
90.000000
0
ARC
8
0
10
173.251324
20
14.735291
30
0.0
40
0.235000
50
204.000000
51
289.778171
0
LINE
8
0
10
173.330843
20
14.514154
30
0.0
11
174.632758
21
14.982312
31
0.0
0
ARC
8
0
10
174.734272
20
14.700009
30
0.0
40
0.300000
50
90.000000
51
109.778171
0
LINE
8
0
10
174.734272
20
15.000009
30
0.0
11
178.202160
21
15.000009
31
0.0
0
ARC
8
0
10
178.202160
20
15.300009
30
0.0
40
0.300000
50
270.000000
51
0.000000
0
LINE
8
0
10
178.502160
20
15.300009
30
0.0
11
178.502160
21
20.800009
31
0.0
0
ARC
8
0
10
178.202160
20
20.800009
30
0.0
40
0.300000
50
0.000000
51
90.000000
0
LINE
8
0
10
178.202160
20
21.100009
30
0.0
11
175.602160
21
21.100009
31
0.0
0
ARC
8
0
10
175.602160
20
21.400009
30
0.0
40
0.300000
50
180.000000
51
270.000000
0
LINE
8
0
10
175.302160
20
21.400009
30
0.0
11
175.302160
21
22.300009
31
0.0
0
ARC
8
0
10
175.602160
20
22.300009
30
0.0
40
0.300000
50
90.000000
51
180.000000
0
LINE
8
0
10
175.602160
20
22.600009
30
0.0
11
178.202160
21
22.600009
31
0.0
0
ARC
8
0
10
178.202160
20
22.900009
30
0.0
40
0.300000
50
270.000000
51
0.000000
0
LINE
8
0
10
178.502160
20
22.900009
30
0.0
11
178.502160
21
31.375594
31
0.0
0
ARC
8
0
10
178.202160
20
31.375594
30
0.0
40
0.300000
50
0.000000
51
30.000000
0
LINE
8
0
10
178.461968
20
31.525594
30
0.0
11
177.610714
21
33.000009
31
0.0
0
ARC
8
0
10
179.342765
20
34.000009
30
0.0
40
2.000000
50
122.643077
51
210.000000
0
ARC
8
0
10
178.102136
20
35.936717
30
0.0
40
0.300000
50
302.643077
51
0.000000
0
LINE
8
0
10
178.402136
20
35.936717
30
0.0
11
178.402136
21
37.700009
31
0.0
0
ARC
8
0
10
178.102136
20
37.700009
30
0.0
40
0.300000
50
0.000000
51
90.000000
0
LINE
8
0
10
178.102136
20
38.000009
30
0.0
11
175.702136
21
38.000009
31
0.0
0
ARC
8
0
10
175.702136
20
38.300009
30
0.0
40
0.300000
50
180.000000
51
270.000000
0
LINE
8
0
10
175.402136
20
38.300009
30
0.0
11
175.402136
21
40.175745
31
0.0
0
LINE
8
0
10
115.001300
20
27.200000
30
0.0
11
115.001300
21
15.300000
31
0.0
0
ARC
8
0
10
114.701300
20
15.300000
30
0.0
40
0.300000
50
270.000000
51
0.000000
0
LINE
8
0
10
114.701300
20
15.000000
30
0.0
11
102.901300
21
15.000000
31
0.0
0
ARC
8
0
10
102.901300
20
15.300000
30
0.0
40
0.300000
50
180.000000
51
270.000000
0
LINE
8
0
10
102.601300
20
15.300000
30
0.0
11
102.601300
21
27.200000
31
0.0
0
ARC
8
0
10
102.901300
20
27.200000
30
0.0
40
0.300000
50
90.000000
51
180.000000
0
LINE
8
0
10
102.901300
20
27.500000
30
0.0
11
114.701300
21
27.500000
31
0.0
0
ARC
8
0
10
114.701300
20
27.200000
30
0.0
40
0.300000
50
0.000000
51
90.000000
0
LINE
8
0
10
120.270597
20
0.000000
30
0.0
11
118.500885
21
0.000000
31
0.0
0
ARC
8
0
10
118.500885
20
0.300000
30
0.0
40
0.300000
50
180.000000
51
270.000000
0
LINE
8
0
10
118.200885
20
0.300000
30
0.0
11
118.200885
21
2.500000
31
0.0
0
ARC
8
0
10
117.700885
20
2.500000
30
0.0
40
0.500000
50
0.000000
51
90.000000
0
LINE
8
0
10
117.700885
20
3.000000
30
0.0
11
114.930510
21
3.000000
31
0.0
0
ARC
8
0
10
114.930510
20
2.500000
30
0.0
40
0.500000
50
90.000000
51
180.000000
0
LINE
8
0
10
114.430510
20
2.500000
30
0.0
11
114.430510
21
1.400000
31
0.0
0
ARC
8
0
10
113.930510
20
1.400000
30
0.0
40
0.500000
50
270.000000
51
0.000000
0
LINE
8
0
10
113.930510
20
0.900000
30
0.0
11
112.975508
21
0.900000
31
0.0
0
ARC
8
0
10
112.975508
20
1.400000
30
0.0
40
0.500000
50
225.000000
51
270.000000
0
LINE
8
0
10
112.621954
20
1.046446
30
0.0
11
110.814848
21
2.853553
31
0.0
0
ARC
8
0
10
110.461294
20
2.500000
30
0.0
40
0.500000
50
45.000000
51
90.000000
0
LINE
8
0
10
110.461294
20
3.000000
30
0.0
11
109.515698
21
3.000000
31
0.0
0
ARC
8
0
10
109.515698
20
3.300000
30
0.0
40
0.300000
50
240.000000
51
270.000000
0
LINE
8
0
10
109.365698
20
3.040192
30
0.0
11
109.065698
21
3.213397
31
0.0
0
ARC
8
0
10
108.915698
20
2.953589
30
0.0
40
0.300000
50
60.000000
51
120.000000
0
LINE
8
0
10
108.765698
20
3.213397
30
0.0
11
108.465698
21
3.040192
31
0.0
0
ARC
8
0
10
108.315698
20
3.300000
30
0.0
40
0.300000
50
270.000000
51
300.000000
0
LINE
8
0
10
108.315698
20
3.000000
30
0.0
11
107.370101
21
3.000000
31
0.0
0
ARC
8
0
10
107.370101
20
2.500000
30
0.0
40
0.500000
50
90.000000
51
135.000000
0
LINE
8
0
10
107.016548
20
2.853553
30
0.0
11
105.209441
21
1.046446
31
0.0
0
ARC
8
0
10
104.855887
20
1.400000
30
0.0
40
0.500000
50
270.000000
51
315.000000
0
LINE
8
0
10
104.855887
20
0.900000
30
0.0
11
103.700885
21
0.900000
31
0.0
0
ARC
8
0
10
103.700885
20
1.200000
30
0.0
40
0.300000
50
180.000000
51
270.000000
0
LINE
8
0
10
103.400885
20
1.200000
30
0.0
11
103.400885
21
2.900000
31
0.0
0
ARC
8
0
10
103.100885
20
2.900000
30
0.0
40
0.300000
50
0.000000
51
90.000000
0
LINE
8
0
10
103.100885
20
3.200000
30
0.0
11
101.000885
21
3.200000
31
0.0
0
ARC
8
0
10
101.000885
20
3.700000
30
0.0
40
0.500000
50
180.000000
51
270.000000
0
LINE
8
0
10
100.500885
20
3.700000
30
0.0
11
100.500885
21
4.200000
31
0.0
0
ARC
8
0
10
101.000885
20
4.200000
30
0.0
40
0.500000
50
90.000000
51
180.000000
0
LINE
8
0
10
101.000885
20
4.700000
30
0.0
11
116.266910
21
4.700000
31
0.0
0
ARC
8
0
10
116.266910
20
5.200000
30
0.0
40
0.500000
50
270.000000
51
300.000000
0
LINE
8
0
10
116.516910
20
4.766987
30
0.0
11
118.250885
21
5.768098
31
0.0
0
ARC
8
0
10
118.100885
20
6.027905
30
0.0
40
0.300000
50
300.000000
51
0.000000
0
LINE
8
0
10
118.400885
20
6.027905
30
0.0
11
118.400885
21
12.144313
31
0.0
0
ARC
8
0
10
118.100885
20
12.144313
30
0.0
40
0.300000
50
0.000000
51
60.000000
0
LINE
8
0
10
118.250885
20
12.404121
30
0.0
11
116.453285
21
13.433857
31
0.0
0
ARC
8
0
10
116.204755
20
13.000000
30
0.0
40
0.500000
50
60.194203
51
90.000000
0
LINE
8
0
10
116.204755
20
13.500000
30
0.0
11
101.601300
21
13.500000
31
0.0
0
ARC
8
0
10
101.601300
20
14.000000
30
0.0
40
0.500000
50
180.000000
51
270.000000
0
LINE
8
0
10
101.101300
20
14.000000
30
0.0
11
101.101300
21
20.800000
31
0.0
0
ARC
8
0
10
100.801300
20
20.800000
30
0.0
40
0.300000
50
0.000000
51
90.000000
0
LINE
8
0
10
100.801300
20
21.100000
30
0.0
11
98.201300
21
21.100000
31
0.0
0
ARC
8
0
10
98.201300
20
21.400000
30
0.0
40
0.300000
50
180.000000
51
270.000000
0
LINE
8
0
10
97.901300
20
21.400000
30
0.0
11
97.901300
21
22.300000
31
0.0
0
ARC
8
0
10
98.201300
20
22.300000
30
0.0
40
0.300000
50
90.000000
51
180.000000
0
LINE
8
0
10
98.201300
20
22.600000
30
0.0
11
100.801300
21
22.600000
31
0.0
0
ARC
8
0
10
100.801300
20
22.900000
30
0.0
40
0.300000
50
270.000000
51
0.000000
0
LINE
8
0
10
101.101300
20
22.900000
30
0.0
11
101.101325
21
31.375585
31
0.0
0
ARC
8
0
10
100.801325
20
31.375585
30
0.0
40
0.300000
50
0.000000
51
30.000000
0
LINE
8
0
10
101.061132
20
31.525585
30
0.0
11
100.209879
21
33.000000
31
0.0
0
ARC
8
0
10
101.941929
20
34.000000
30
0.0
40
2.000000
50
122.643077
51
210.000000
0
ARC
8
0
10
100.701300
20
35.936708
30
0.0
40
0.300000
50
302.643077
51
0.000000
0
LINE
8
0
10
101.001300
20
35.936708
30
0.0
11
101.001300
21
37.700000
31
0.0
0
ARC
8
0
10
100.701300
20
37.700000
30
0.0
40
0.300000
50
0.000000
51
90.000000
0
LINE
8
0
10
100.701300
20
38.000000
30
0.0
11
98.301300
21
38.000000
31
0.0
0
ARC
8
0
10
98.301300
20
38.300000
30
0.0
40
0.300000
50
180.000000
51
270.000000
0
LINE
8
0
10
98.001300
20
38.300000
30
0.0
11
98.001300
21
40.175735
31
0.0
0
ARC
8
0
10
98.301300
20
40.175735
30
0.0
40
0.300000
50
135.000000
51
180.000000
0
LINE
8
0
10
98.089168
20
40.387867
30
0.0
11
98.313432
21
40.612132
31
0.0
0
ARC
8
0
10
98.525564
20
40.400000
30
0.0
40
0.300000
50
90.000000
51
135.000000
0
LINE
8
0
10
98.525564
20
40.700000
30
0.0
11
99.201300
21
40.700000
31
0.0
0
ARC
8
0
10
99.201300
20
40.400000
30
0.0
40
0.300000
50
0.000000
51
90.000000
0
LINE
8
0
10
99.501300
20
40.400000
30
0.0
11
99.501300
21
39.800000
31
0.0
0
ARC
8
0
10
99.801300
20
39.800000
30
0.0
40
0.300000
50
180.000000
51
270.000000
0
LINE
8
0
10
99.801300
20
39.500000
30
0.0
11
102.211593
21
39.500000
31
0.0
0
ARC
8
0
10
102.211593
20
39.200000
30
0.0
40
0.300000
50
2.000000
51
90.000000
0
LINE
8
0
10
102.511411
20
39.210469
30
0.0
11
102.657834
21
35.017449
31
0.0
0
ARC
8
0
10
102.158139
20
35.000000
30
0.0
40
0.500000
50
270.000000
51
2.000000
0
LINE
8
0
10
102.158139
20
34.500000
30
0.0
11
101.941929
21
34.500000
31
0.0
0
ARC
8
0
10
101.941929
20
34.000000
30
0.0
40
0.500000
50
90.000000
51
210.000000
0
LINE
8
0
10
101.508917
20
33.750000
30
0.0
11
102.534313
21
31.973961
31
0.0
0
ARC
8
0
10
102.101300
20
31.723961
30
0.0
40
0.500000
50
0.000000
51
30.000000
0
LINE
8
0
10
102.601300
20
31.723961
30
0.0
11
102.601300
21
29.300000
31
0.0
0
ARC
8
0
10
102.901300
20
29.300000
30
0.0
40
0.300000
50
180.000000
51
270.000000
0
LINE
8
0
10
102.901300
20
29.000000
30
0.0
11
114.701300
21
29.000000
31
0.0
0
ARC
8
0
10
114.701300
20
29.300000
30
0.0
40
0.300000
50
270.000000
51
0.000000
0
LINE
8
0
10
115.001300
20
29.300000
30
0.0
11
115.001300
21
31.723961
31
0.0
0
ARC
8
0
10
115.501300
20
31.723961
30
0.0
40
0.500000
50
150.000000
51
180.000000
0
LINE
8
0
10
115.068287
20
31.973961
30
0.0
11
116.093684
21
33.750000
31
0.0
0
ARC
8
0
10
115.660671
20
34.000000
30
0.0
40
0.500000
50
330.000000
51
90.000000
0
LINE
8
0
10
115.660671
20
34.500000
30
0.0
11
115.444461
21
34.500000
31
0.0
0
ARC
8
0
10
115.444461
20
35.000000
30
0.0
40
0.500000
50
178.000000
51
270.000000
0
LINE
8
0
10
114.944766
20
35.017449
30
0.0
11
115.091189
21
39.210469
31
0.0
0
ARC
8
0
10
115.391007
20
39.200000
30
0.0
40
0.300000
50
90.000000
51
178.000000
0
LINE
8
0
10
115.391007
20
39.500000
30
0.0
11
117.801300
21
39.500000
31
0.0
0
ARC
8
0
10
117.801300
20
39.800000
30
0.0
40
0.300000
50
270.000000
51
0.000000
0
LINE
8
0
10
118.101300
20
39.800000
30
0.0
11
118.101300
21
40.400000
31
0.0
0
ARC
8
0
10
118.401300
20
40.400000
30
0.0
40
0.300000
50
90.000000
51
180.000000
0
LINE
8
0
10
118.401300
20
40.700000
30
0.0
11
119.077036
21
40.700000
31
0.0
0
ARC
8
0
10
119.077036
20
40.400000
30
0.0
40
0.300000
50
45.000000
51
90.000000
0
LINE
8
0
10
119.289168
20
40.612132
30
0.0
11
119.513432
21
40.387867
31
0.0
0
ARC
8
0
10
119.301300
20
40.175735
30
0.0
40
0.300000
50
0.000000
51
45.000000
0
LINE
8
0
10
119.601300
20
40.175735
30
0.0
11
119.601300
21
38.300000
31
0.0
0
ARC
8
0
10
119.301300
20
38.300000
30
0.0
40
0.300000
50
270.000000
51
0.000000
0
LINE
8
0
10
119.301300
20
38.000000
30
0.0
11
116.901300
21
38.000000
31
0.0
0
ARC
8
0
10
116.901300
20
37.700000
30
0.0
40
0.300000
50
90.000000
51
180.000000
0
LINE
8
0
10
116.601300
20
37.700000
30
0.0
11
116.601300
21
35.936708
31
0.0
0
ARC
8
0
10
116.901300
20
35.936708
30
0.0
40
0.300000
50
180.000000
51
237.356923
0
ARC
8
0
10
115.660671
20
34.000000
30
0.0
40
2.000000
50
330.000000
51
57.356923
0
LINE
8
0
10
117.392722
20
33.000000
30
0.0
11
116.541468
21
31.525585
31
0.0
0
ARC
8
0
10
116.801275
20
31.375585
30
0.0
40
0.300000
50
150.000000
51
180.000000
0
LINE
8
0
10
116.501275
20
31.375585
30
0.0
11
116.501300
21
22.900000
31
0.0
0
ARC
8
0
10
116.801300
20
22.900000
30
0.0
40
0.300000
50
180.000000
51
270.000000
0
LINE
8
0
10
116.801300
20
22.600000
30
0.0
11
119.401300
21
22.600000
31
0.0
0
ARC
8
0
10
119.401300
20
22.300000
30
0.0
40
0.300000
50
0.000000
51
90.000000
0
LINE
8
0
10
119.701300
20
22.300000
30
0.0
11
119.701300
21
21.400000
31
0.0
0
ARC
8
0
10
119.401300
20
21.400000
30
0.0
40
0.300000
50
270.000000
51
0.000000
0
LINE
8
0
10
119.401300
20
21.100000
30
0.0
11
116.801300
21
21.100000
31
0.0
0
ARC
8
0
10
116.801300
20
20.800000
30
0.0
40
0.300000
50
90.000000
51
180.000000
0
LINE
8
0
10
116.501300
20
20.800000
30
0.0
11
116.501300
21
15.300000
31
0.0
0
ARC
8
0
10
116.801300
20
15.300000
30
0.0
40
0.300000
50
180.000000
51
270.000000
0
LINE
8
0
10
116.801300
20
15.000000
30
0.0
11
120.270074
21
15.000000
31
0.0
0
ARC
8
0
10
120.270074
20
14.700000
30
0.0
40
0.300000
50
70.221829
51
90.000000
0
LINE
8
0
10
120.371588
20
14.982302
30
0.0
11
121.673477
21
14.514154
31
0.0
0
ARC
8
0
10
121.752996
20
14.735291
30
0.0
40
0.235000
50
250.221829
51
336.000000
0
ARC
8
0
10
122.188931
20
14.558878
30
0.0
40
0.235000
50
90.000000
51
156.000000
0
LINE
8
0
10
122.187375
20
14.793872
30
0.0
11
123.766303
21
14.804330
31
0.0
0
ARC
8
0
10
123.768290
20
14.504336
30
0.0
40
0.300000
50
335.379459
51
90.000000
0
LINE
8
0
10
124.041016
20
14.379354
30
0.0
11
123.092366
21
12.273839
31
0.0
0
ARC
8
0
10
122.818846
20
12.397074
30
0.0
40
0.300000
50
295.379459
51
335.745828
0
LINE
8
0
10
122.947430
20
12.126028
30
0.0
11
122.440007
21
11.885309
31
0.0
0
ARC
8
0
10
122.354284
20
12.066006
30
0.0
40
0.200000
50
175.379459
51
295.379459
0
LINE
8
0
10
122.154934
20
12.082118
30
0.0
11
122.164236
21
12.197212
31
0.0
0
ARC
8
0
10
121.865211
20
12.221379
30
0.0
40
0.300000
50
355.379459
51
55.379459
0
LINE
8
0
10
122.035653
20
12.468259
30
0.0
11
120.406896
21
13.592725
31
0.0
0
LINE
8
0
10
120.406896
20
13.592725
30
0.0
11
120.224187
21
13.674072
31
0.0
0
ARC
8
0
10
120.102185
20
13.399990
30
0.0
40
0.300009
50
66.004713
51
228.187329
0
ARC
8
0
10
119.702160
20
12.952786
30
0.0
40
0.300000
50
0.000000
51
48.187329
0
LINE
8
0
10
120.002160
20
12.952786
30
0.0
11
120.002160
21
9.100000
31
0.0
0
ARC
8
0
10
120.302160
20
9.100000
30
0.0
40
0.300000
50
180.000000
51
270.000000
0
LINE
8
0
10
120.302160
20
8.800000
30
0.0
11
120.523354
21
8.800000
31
0.0
0
ARC
8
0
10
120.523354
20
9.100000
30
0.0
40
0.300000
50
270.000000
51
301.400000
0
LINE
8
0
10
120.679656
20
8.843934
30
0.0
11
122.197958
21
9.770710
31
0.0
0
ARC
8
0
10
122.302160
20
9.600000
30
0.0
40
0.200000
50
0.000000
51
121.400000
0
LINE
8
0
10
122.502160
20
9.600000
30
0.0
11
122.502160
21
5.400000
31
0.0
0
ARC
8
0
10
122.302160
20
5.400000
30
0.0
40
0.200000
50
238.600000
51
0.000000
0
LINE
8
0
10
122.197958
20
5.229289
30
0.0
11
120.679656
21
6.156065
31
0.0
0
ARC
8
0
10
120.523354
20
5.900000
30
0.0
40
0.300000
50
58.600000
51
90.000000
0
LINE
8
0
10
120.523354
20
6.200000
30
0.0
11
120.302160
21
6.200000
31
0.0
0
ARC
8
0
10
120.302160
20
5.900000
30
0.0
40
0.300000
50
90.000000
51
180.000000
0
LINE
8
0
10
120.002160
20
5.900000
30
0.0
11
120.002160
21
2.047213
31
0.0
0
ARC
8
0
10
119.702160
20
2.047213
30
0.0
40
0.300000
50
311.812671
51
0.000000
0
ARC
8
0
10
120.102185
20
1.600009
30
0.0
40
0.300009
50
131.812671
51
293.995287
0
LINE
8
0
10
120.224187
20
1.325927
30
0.0
11
120.406896
21
1.407274
31
0.0
0
LINE
8
0
10
120.406896
20
1.407274
30
0.0
11
122.035653
21
2.531740
31
0.0
0
ARC
8
0
10
121.865211
20
2.778620
30
0.0
40
0.300000
50
304.620541
51
4.620541
0
LINE
8
0
10
122.164236
20
2.802787
30
0.0
11
122.154934
21
2.917881
31
0.0
0
ARC
8
0
10
122.354284
20
2.933993
30
0.0
40
0.200000
50
64.620541
51
184.620541
0
LINE
8
0
10
122.440007
20
3.114690
30
0.0
11
122.947430
21
2.873971
31
0.0
0
ARC
8
0
10
122.818846
20
2.602925
30
0.0
40
0.300000
50
24.254172
51
64.620541
0
LINE
8
0
10
123.092366
20
2.726160
30
0.0
11
124.041016
21
0.620645
31
0.0
0
ARC
8
0
10
123.768290
20
0.495663
30
0.0
40
0.300000
50
270.000000
51
24.620541
0
LINE
8
0
10
123.766303
20
0.195669
30
0.0
11
122.187375
21
0.206127
31
0.0
0
ARC
8
0
10
122.188931
20
0.441121
30
0.0
40
0.235000
50
204.000000
51
270.000000
0
ARC
8
0
10
121.752996
20
0.264708
30
0.0
40
0.235000
50
24.000000
51
109.778171
0
LINE
8
0
10
121.673477
20
0.485845
30
0.0
11
120.371588
21
0.017697
31
0.0
0
ARC
8
0
10
120.270074
20
0.300000
30
0.0
40
0.300000
50
270.000000
51
289.778171
0
LINE
8
0
10
142.552136
20
12.984687
30
0.0
11
152.452136
21
12.984687
31
0.0
0
ARC
8
0
10
152.452136
20
12.684687
30
0.0
40
0.300000
50
0.000000
51
90.000000
0
LINE
8
0
10
152.752136
20
12.684687
30
0.0
11
152.752136
21
8.884687
31
0.0
0
ARC
8
0
10
153.252136
20
8.884687
30
0.0
40
0.500000
50
180.000000
51
0.000000
0
LINE
8
0
10
153.752136
20
8.884687
30
0.0
11
153.752136
21
12.684687
31
0.0
0
ARC
8
0
10
154.052136
20
12.684687
30
0.0
40
0.300000
50
90.000000
51
180.000000
0
LINE
8
0
10
154.052136
20
12.984687
30
0.0
11
163.952136
21
12.984687
31
0.0
0
ARC
8
0
10
163.952136
20
12.684687
30
0.0
40
0.300000
50
0.000000
51
90.000000
0
LINE
8
0
10
164.252136
20
12.684687
30
0.0
11
164.252136
21
8.884687
31
0.0
0
ARC
8
0
10
164.752136
20
8.884687
30
0.0
40
0.500000
50
180.000000
51
0.000000
0
LINE
8
0
10
165.252136
20
8.884687
30
0.0
11
165.252136
21
12.684687
31
0.0
0
ARC
8
0
10
165.552136
20
12.684687
30
0.0
40
0.300000
50
90.000000
51
180.000000
0
LINE
8
0
10
165.552136
20
12.984687
30
0.0
11
167.856805
21
12.984687
31
0.0
0
ARC
8
0
10
167.856805
20
11.984687
30
0.0
40
1.000000
50
35.254172
51
90.000000
0
LINE
8
0
10
168.673405
20
12.561891
30
0.0
11
170.196226
21
10.407482
31
0.0
0
ARC
8
0
10
171.012825
20
10.984687
30
0.0
40
1.000000
50
215.254172
51
270.000000
0
LINE
8
0
10
171.012825
20
9.984687
30
0.0
11
172.114136
21
9.984687
31
0.0
0
ARC
8
0
10
172.114136
20
8.784687
30
0.0
40
1.200000
50
60.018361
51
90.000000
0
LINE
8
0
10
172.713803
20
9.824109
30
0.0
11
174.295747
21
8.911449
31
0.0
0
ARC
8
0
10
174.395691
20
9.084687
30
0.0
40
0.200000
50
240.018361
51
270.000000
0
LINE
8
0
10
174.395691
20
8.884687
30
0.0
11
174.602136
21
8.884687
31
0.0
0
ARC
8
0
10
174.602136
20
9.284687
30
0.0
40
0.400000
50
270.000000
51
0.000000
0
LINE
8
0
10
175.002136
20
9.284687
30
0.0
11
175.002136
21
12.684687
31
0.0
0
ARC
8
0
10
174.602136
20
12.684687
30
0.0
40
0.400000
50
0.000000
51
90.000000
0
LINE
8
0
10
174.602136
20
13.084687
30
0.0
11
174.395691
21
13.084687
31
0.0
0
ARC
8
0
10
174.395691
20
12.884687
30
0.0
40
0.200000
50
90.000000
51
119.981639
0
LINE
8
0
10
174.295747
20
13.057924
30
0.0
11
172.713803
21
12.145264
31
0.0
0
ARC
8
0
10
172.114136
20
13.184687
30
0.0
40
1.200000
50
270.000000
51
299.981639
0
LINE
8
0
10
172.114136
20
11.984687
30
0.0
11
171.685902
21
11.984687
31
0.0
0
ARC
8
0
10
171.685902
20
12.284687
30
0.0
40
0.300000
50
215.254172
51
270.000000
0
LINE
8
0
10
171.440922
20
12.111525
30
0.0
11
169.559483
21
14.773289
31
0.0
0
ARC
8
0
10
169.151183
20
14.484687
30
0.0
40
0.500000
50
35.254172
51
90.000000
0
LINE
8
0
10
169.151183
20
14.984687
30
0.0
11
125.853088
21
14.984687
31
0.0
0
ARC
8
0
10
125.853088
20
14.484687
30
0.0
40
0.500000
50
90.000000
51
144.745828
0
LINE
8
0
10
125.444788
20
14.773289
30
0.0
11
123.563349
21
12.111525
31
0.0
0
ARC
8
0
10
123.318369
20
12.284687
30
0.0
40
0.300000
50
270.000000
51
324.745828
0
LINE
8
0
10
123.318369
20
11.984687
30
0.0
11
122.890135
21
11.984687
31
0.0
0
ARC
8
0
10
122.890135
20
13.184687
30
0.0
40
1.200000
50
240.018361
51
270.000000
0
LINE
8
0
10
122.290468
20
12.145264
30
0.0
11
120.708525
21
13.057924
31
0.0
0
ARC
8
0
10
120.608580
20
12.884687
30
0.0
40
0.200000
50
60.018361
51
90.000000
0
LINE
8
0
10
120.608580
20
13.084687
30
0.0
11
120.402136
21
13.084687
31
0.0
0
ARC
8
0
10
120.402136
20
12.684687
30
0.0
40
0.400000
50
90.000000
51
180.000000
0
LINE
8
0
10
120.002136
20
12.684687
30
0.0
11
120.002136
21
9.284687
31
0.0
0
ARC
8
0
10
120.402136
20
9.284687
30
0.0
40
0.400000
50
180.000000
51
270.000000
0
LINE
8
0
10
120.402136
20
8.884687
30
0.0
11
120.608580
21
8.884687
31
0.0
0
ARC
8
0
10
120.608580
20
9.084687
30
0.0
40
0.200000
50
270.000000
51
299.981639
0
LINE
8
0
10
120.708525
20
8.911449
30
0.0
11
122.290468
21
9.824109
31
0.0
0
ARC
8
0
10
122.890135
20
8.784687
30
0.0
40
1.200000
50
90.000000
51
119.981639
0
LINE
8
0
10
122.890135
20
9.984687
30
0.0
11
123.991446
21
9.984687
31
0.0
0
ARC
8
0
10
123.991446
20
10.984687
30
0.0
40
1.000000
50
270.000000
51
324.745828
0
LINE
8
0
10
124.808045
20
10.407482
30
0.0
11
126.330866
21
12.561891
31
0.0
0
ARC
8
0
10
127.147466
20
11.984687
30
0.0
40
1.000000
50
90.000000
51
144.745828
0
LINE
8
0
10
127.147466
20
12.984687
30
0.0
11
129.452136
21
12.984687
31
0.0
0
ARC
8
0
10
129.452136
20
12.684687
30
0.0
40
0.300000
50
0.000000
51
90.000000
0
LINE
8
0
10
129.752136
20
12.684687
30
0.0
11
129.752136
21
8.884687
31
0.0
0
ARC
8
0
10
130.252136
20
8.884687
30
0.0
40
0.500000
50
180.000000
51
0.000000
0
LINE
8
0
10
130.752136
20
8.884687
30
0.0
11
130.752136
21
12.684687
31
0.0
0
ARC
8
0
10
131.052136
20
12.684687
30
0.0
40
0.300000
50
90.000000
51
180.000000
0
LINE
8
0
10
131.052136
20
12.984687
30
0.0
11
140.952136
21
12.984687
31
0.0
0
ARC
8
0
10
140.952136
20
12.684687
30
0.0
40
0.300000
50
0.000000
51
90.000000
0
LINE
8
0
10
141.252136
20
12.684687
30
0.0
11
141.252136
21
8.884687
31
0.0
0
ARC
8
0
10
141.752136
20
8.884687
30
0.0
40
0.500000
50
180.000000
51
0.000000
0
LINE
8
0
10
142.252136
20
8.884687
30
0.0
11
142.252136
21
12.684687
31
0.0
0
ARC
8
0
10
142.552136
20
12.684687
30
0.0
40
0.300000
50
90.000000
51
180.000000
0
LINE
8
0
10
142.552136
20
2.015312
30
0.0
11
152.452136
21
2.015312
31
0.0
0
ARC
8
0
10
152.452136
20
2.315312
30
0.0
40
0.300000
50
270.000000
51
0.000000
0
LINE
8
0
10
152.752136
20
2.315312
30
0.0
11
152.752136
21
6.115312
31
0.0
0
ARC
8
0
10
153.252136
20
6.115312
30
0.0
40
0.500000
50
0.000000
51
180.000000
0
LINE
8
0
10
153.752136
20
6.115312
30
0.0
11
153.752136
21
2.315312
31
0.0
0
ARC
8
0
10
154.052136
20
2.315312
30
0.0
40
0.300000
50
180.000000
51
270.000000
0
LINE
8
0
10
154.052136
20
2.015312
30
0.0
11
163.952136
21
2.015312
31
0.0
0
ARC
8
0
10
163.952136
20
2.315312
30
0.0
40
0.300000
50
270.000000
51
0.000000
0
LINE
8
0
10
164.252136
20
2.315312
30
0.0
11
164.252136
21
6.115312
31
0.0
0
ARC
8
0
10
164.752136
20
6.115312
30
0.0
40
0.500000
50
0.000000
51
180.000000
0
LINE
8
0
10
165.252136
20
6.115312
30
0.0
11
165.252136
21
2.315312
31
0.0
0
ARC
8
0
10
165.552136
20
2.315312
30
0.0
40
0.300000
50
180.000000
51
270.000000
0
LINE
8
0
10
165.552136
20
2.015312
30
0.0
11
167.856805
21
2.015312
31
0.0
0
ARC
8
0
10
167.856805
20
3.015312
30
0.0
40
1.000000
50
270.000000
51
324.745828
0
LINE
8
0
10
168.673405
20
2.438108
30
0.0
11
170.196226
21
4.592517
31
0.0
0
ARC
8
0
10
171.012825
20
4.015312
30
0.0
40
1.000000
50
90.000000
51
144.745828
0
LINE
8
0
10
171.012825
20
5.015312
30
0.0
11
172.114136
21
5.015312
31
0.0
0
ARC
8
0
10
172.114136
20
6.215312
30
0.0
40
1.200000
50
270.000000
51
299.981639
0
LINE
8
0
10
172.713803
20
5.175890
30
0.0
11
174.295747
21
6.088550
31
0.0
0
ARC
8
0
10
174.395691
20
5.915312
30
0.0
40
0.200000
50
90.000000
51
119.981639
0
LINE
8
0
10
174.395691
20
6.115312
30
0.0
11
174.602136
21
6.115312
31
0.0
0
ARC
8
0
10
174.602136
20
5.715312
30
0.0
40
0.400000
50
0.000000
51
90.000000
0
LINE
8
0
10
175.002136
20
5.715312
30
0.0
11
175.002136
21
2.315312
31
0.0
0
ARC
8
0
10
174.602136
20
2.315312
30
0.0
40
0.400000
50
270.000000
51
0.000000
0
LINE
8
0
10
174.602136
20
1.915312
30
0.0
11
174.395691
21
1.915312
31
0.0
0
ARC
8
0
10
174.395691
20
2.115312
30
0.0
40
0.200000
50
240.018361
51
270.000000
0
LINE
8
0
10
174.295747
20
1.942075
30
0.0
11
172.713803
21
2.854735
31
0.0
0
ARC
8
0
10
172.114136
20
1.815312
30
0.0
40
1.200000
50
60.018361
51
90.000000
0
LINE
8
0
10
172.114136
20
3.015312
30
0.0
11
171.685902
21
3.015312
31
0.0
0
ARC
8
0
10
171.685902
20
2.715312
30
0.0
40
0.300000
50
90.000000
51
144.745828
0
LINE
8
0
10
171.440922
20
2.888474
30
0.0
11
169.559483
21
0.226710
31
0.0
0
ARC
8
0
10
169.151183
20
0.515312
30
0.0
40
0.500000
50
270.000000
51
324.745828
0
LINE
8
0
10
169.151183
20
0.015312
30
0.0
11
125.853088
21
0.015312
31
0.0
0
ARC
8
0
10
125.853088
20
0.515312
30
0.0
40
0.500000
50
215.254172
51
270.000000
0
LINE
8
0
10
125.444788
20
0.226710
30
0.0
11
123.563349
21
2.888474
31
0.0
0
ARC
8
0
10
123.318369
20
2.715312
30
0.0
40
0.300000
50
35.254172
51
90.000000
0
LINE
8
0
10
123.318369
20
3.015312
30
0.0
11
122.890135
21
3.015312
31
0.0
0
ARC
8
0
10
122.890135
20
1.815312
30
0.0
40
1.200000
50
90.000000
51
119.981639
0
LINE
8
0
10
122.290468
20
2.854735
30
0.0
11
120.708525
21
1.942075
31
0.0
0
ARC
8
0
10
120.608580
20
2.115312
30
0.0
40
0.200000
50
270.000000
51
299.981639
0
LINE
8
0
10
120.608580
20
1.915312
30
0.0
11
120.402136
21
1.915312
31
0.0
0
ARC
8
0
10
120.402136
20
2.315312
30
0.0
40
0.400000
50
180.000000
51
270.000000
0
LINE
8
0
10
120.002136
20
2.315312
30
0.0
11
120.002136
21
5.715312
31
0.0
0
ARC
8
0
10
120.402136
20
5.715312
30
0.0
40
0.400000
50
90.000000
51
180.000000
0
LINE
8
0
10
120.402136
20
6.115312
30
0.0
11
120.608580
21
6.115312
31
0.0
0
ARC
8
0
10
120.608580
20
5.915312
30
0.0
40
0.200000
50
60.018361
51
90.000000
0
LINE
8
0
10
120.708525
20
6.088550
30
0.0
11
122.290468
21
5.175890
31
0.0
0
ARC
8
0
10
122.890135
20
6.215312
30
0.0
40
1.200000
50
240.018361
51
270.000000
0
LINE
8
0
10
122.890135
20
5.015312
30
0.0
11
123.991446
21
5.015312
31
0.0
0
ARC
8
0
10
123.991446
20
4.015312
30
0.0
40
1.000000
50
35.254172
51
90.000000
0
LINE
8
0
10
124.808045
20
4.592517
30
0.0
11
126.330866
21
2.438108
31
0.0
0
ARC
8
0
10
127.147466
20
3.015312
30
0.0
40
1.000000
50
215.254172
51
270.000000
0
LINE
8
0
10
127.147466
20
2.015312
30
0.0
11
129.452136
21
2.015312
31
0.0
0
ARC
8
0
10
129.452136
20
2.315312
30
0.0
40
0.300000
50
270.000000
51
0.000000
0
LINE
8
0
10
129.752136
20
2.315312
30
0.0
11
129.752136
21
6.115312
31
0.0
0
ARC
8
0
10
130.252136
20
6.115312
30
0.0
40
0.500000
50
0.000000
51
180.000000
0
LINE
8
0
10
130.752136
20
6.115312
30
0.0
11
130.752136
21
2.315312
31
0.0
0
ARC
8
0
10
131.052136
20
2.315312
30
0.0
40
0.300000
50
180.000000
51
270.000000
0
LINE
8
0
10
131.052136
20
2.015312
30
0.0
11
140.952136
21
2.015312
31
0.0
0
ARC
8
0
10
140.952136
20
2.315312
30
0.0
40
0.300000
50
270.000000
51
0.000000
0
LINE
8
0
10
141.252136
20
2.315312
30
0.0
11
141.252136
21
6.115312
31
0.0
0
ARC
8
0
10
141.752136
20
6.115312
30
0.0
40
0.500000
50
0.000000
51
180.000000
0
LINE
8
0
10
142.252136
20
6.115312
30
0.0
11
142.252136
21
2.315312
31
0.0
0
ARC
8
0
10
142.552136
20
2.315312
30
0.0
40
0.300000
50
180.000000
51
270.000000
0
ARC
8
0
10
129.102135
20
15.600009
30
0.0
40
0.300000
50
270.000000
51
0.000000
0
LINE
8
0
10
129.402135
20
15.600009
30
0.0
11
129.402135
21
18.600009
31
0.0
0
ARC
8
0
10
129.902135
20
18.600009
30
0.0
40
0.500000
50
90.000000
51
180.000000
0
LINE
8
0
10
129.902135
20
19.100009
30
0.0
11
138.702135
21
19.100009
31
0.0
0
ARC
8
0
10
138.702135
20
18.600009
30
0.0
40
0.500000
50
0.000000
51
90.000000
0
LINE
8
0
10
139.202135
20
18.600009
30
0.0
11
139.202135
21
15.600009
31
0.0
0
ARC
8
0
10
139.502135
20
15.600009
30
0.0
40
0.300000
50
180.000000
51
270.000000
0
LINE
8
0
10
139.502135
20
15.300009
30
0.0
11
140.502135
21
15.300009
31
0.0
0
ARC
8
0
10
140.502135
20
15.600009
30
0.0
40
0.300000
50
270.000000
51
0.000000
0
LINE
8
0
10
140.802135
20
15.600009
30
0.0
11
140.802135
21
18.600009
31
0.0
0
ARC
8
0
10
141.302135
20
18.600009
30
0.0
40
0.500000
50
90.000000
51
180.000000
0
LINE
8
0
10
141.302135
20
19.100009
30
0.0
11
153.702135
21
19.100009
31
0.0
0
ARC
8
0
10
153.702135
20
18.600009
30
0.0
40
0.500000
50
0.000000
51
90.000000
0
LINE
8
0
10
154.202135
20
18.600009
30
0.0
11
154.202135
21
15.600009
31
0.0
0
ARC
8
0
10
154.502135
20
15.600009
30
0.0
40
0.300000
50
180.000000
51
270.000000
0
LINE
8
0
10
154.502135
20
15.300009
30
0.0
11
155.502135
21
15.300009
31
0.0
0
ARC
8
0
10
155.502135
20
15.600009
30
0.0
40
0.300000
50
270.000000
51
0.000000
0
LINE
8
0
10
155.802135
20
15.600009
30
0.0
11
155.802135
21
18.600009
31
0.0
0
ARC
8
0
10
156.302135
20
18.600009
30
0.0
40
0.500000
50
90.000000
51
180.000000
0
LINE
8
0
10
156.302135
20
19.100009
30
0.0
11
165.102135
21
19.100009
31
0.0
0
ARC
8
0
10
165.102135
20
18.600009
30
0.0
40
0.500000
50
0.000000
51
90.000000
0
LINE
8
0
10
165.602135
20
18.600009
30
0.0
11
165.602135
21
15.600009
31
0.0
0
ARC
8
0
10
165.902135
20
15.600009
30
0.0
40
0.300000
50
180.000000
51
270.000000
0
LINE
8
0
10
165.902135
20
15.300009
30
0.0
11
166.902135
21
15.300009
31
0.0
0
ARC
8
0
10
166.902135
20
15.600009
30
0.0
40
0.300000
50
270.000000
51
0.000000
0
LINE
8
0
10
167.202135
20
15.600009
30
0.0
11
167.202135
21
19.600009
31
0.0
0
ARC
8
0
10
168.702135
20
19.600009
30
0.0
40
1.500000
50
90.000000
51
180.000000
0
LINE
8
0
10
168.702135
20
21.100009
30
0.0
11
174.202135
21
21.100009
31
0.0
0
ARC
8
0
10
174.202135
20
21.900009
30
0.0
40
0.800000
50
270.000000
51
0.000000
0
LINE
8
0
10
175.002135
20
21.900009
30
0.0
11
175.002135
21
22.486121
31
0.0
0
ARC
8
0
10
174.002135
20
22.486121
30
0.0
40
1.000000
50
0.000000
51
12.994617
0
LINE
8
0
10
174.976526
20
22.710980
30
0.0
11
173.558032
21
28.857786
31
0.0
0
ARC
8
0
10
174.532424
20
29.082646
30
0.0
40
1.000000
50
165.074419
51
192.994617
0
LINE
8
0
10
173.566162
20
29.340210
30
0.0
11
175.521967
21
36.677478
31
0.0
0
ARC
8
0
10
174.555705
20
36.935042
30
0.0
40
1.000000
50
345.074419
51
0.000000
0
LINE
8
0
10
175.555705
20
36.935042
30
0.0
11
175.555705
21
37.819519
31
0.0
0
ARC
8
0
10
175.255705
20
37.819519
30
0.0
40
0.300000
50
0.000000
51
68.962489
0
LINE
8
0
10
175.363399
20
38.099523
30
0.0
11
175.294441
21
38.126045
31
0.0
0
ARC
8
0
10
175.402135
20
38.406049
30
0.0
40
0.300000
50
180.000000
51
248.962489
0
LINE
8
0
10
175.102135
20
38.406049
30
0.0
11
175.102135
21
40.275745
31
0.0
0
ARC
8
0
10
175.402135
20
40.275745
30
0.0
40
0.300000
50
135.000000
51
180.000000
0
LINE
8
0
10
175.190003
20
40.487877
30
0.0
11
175.614267
21
40.912141
31
0.0
0
ARC
8
0
10
175.826399
20
40.700009
30
0.0
40
0.300000
50
90.000000
51
135.000000
0
LINE
8
0
10
175.826399
20
41.000009
30
0.0
11
176.602135
21
41.000009
31
0.0
0
ARC
8
0
10
176.602135
20
41.300009
30
0.0
40
0.300000
50
270.000000
51
0.000000
0
LINE
8
0
10
176.902135
20
41.300009
30
0.0
11
176.902135
21
43.100009
31
0.0
0
ARC
8
0
10
176.602135
20
43.100009
30
0.0
40
0.300000
50
0.000000
51
90.000000
0
LINE
8
0
10
176.602135
20
43.400009
30
0.0
11
164.702135
21
43.400009
31
0.0
0
ARC
8
0
10
164.702135
20
42.400009
30
0.0
40
1.000000
50
90.000000
51
180.000000
0
LINE
8
0
10
163.702135
20
42.400009
30
0.0
11
163.702135
21
38.014631
31
0.0
0
ARC
8
0
10
164.502135
20
38.014631
30
0.0
40
0.800000
50
180.000000
51
255.068583
0
LINE
8
0
10
164.296005
20
37.241644
30
0.0
11
164.979434
21
37.059396
31
0.0
0
ARC
8
0
10
164.902135
20
36.769525
30
0.0
40
0.300000
50
0.000000
51
75.068583
0
LINE
8
0
10
165.202135
20
36.769525
30
0.0
11
165.202135
21
21.600009
31
0.0
0
ARC
8
0
10
164.702135
20
21.600009
30
0.0
40
0.500000
50
270.000000
51
0.000000
0
LINE
8
0
10
164.702135
20
21.100009
30
0.0
11
130.302135
21
21.100009
31
0.0
0
ARC
8
0
10
130.302135
20
21.600009
30
0.0
40
0.500000
50
180.000000
51
270.000000
0
LINE
8
0
10
129.802135
20
21.600009
30
0.0
11
129.802135
21
36.769525
31
0.0
0
ARC
8
0
10
130.102135
20
36.769525
30
0.0
40
0.300000
50
104.931417
51
180.000000
0
LINE
8
0
10
130.024836
20
37.059396
30
0.0
11
130.708265
21
37.241644
31
0.0
0
ARC
8
0
10
130.502135
20
38.014631
30
0.0
40
0.800000
50
284.931417
51
0.000000
0
LINE
8
0
10
131.302135
20
38.014631
30
0.0
11
131.302135
21
42.400009
31
0.0
0
ARC
8
0
10
130.302135
20
42.400009
30
0.0
40
1.000000
50
0.000000
51
90.000000
0
LINE
8
0
10
130.302135
20
43.400009
30
0.0
11
118.402135
21
43.400009
31
0.0
0
ARC
8
0
10
118.402135
20
43.100009
30
0.0
40
0.300000
50
90.000000
51
180.000000
0
LINE
8
0
10
118.102135
20
43.100009
30
0.0
11
118.102135
21
41.300009
31
0.0
0
ARC
8
0
10
118.402135
20
41.300009
30
0.0
40
0.300000
50
180.000000
51
270.000000
0
LINE
8
0
10
118.402135
20
41.000009
30
0.0
11
119.177871
21
41.000009
31
0.0
0
ARC
8
0
10
119.177871
20
40.700009
30
0.0
40
0.300000
50
45.000000
51
90.000000
0
LINE
8
0
10
119.390003
20
40.912141
30
0.0
11
119.814267
21
40.487877
31
0.0
0
ARC
8
0
10
119.602135
20
40.275745
30
0.0
40
0.300000
50
0.000000
51
45.000000
0
LINE
8
0
10
119.902135
20
40.275745
30
0.0
11
119.902135
21
38.406049
31
0.0
0
ARC
8
0
10
119.602135
20
38.406049
30
0.0
40
0.300000
50
291.037511
51
0.000000
0
LINE
8
0
10
119.709829
20
38.126045
30
0.0
11
119.640871
21
38.099523
31
0.0
0
ARC
8
0
10
119.748564
20
37.819519
30
0.0
40
0.300000
50
111.037511
51
180.000000
0
LINE
8
0
10
119.448564
20
37.819519
30
0.0
11
119.448564
21
36.935042
31
0.0
0
ARC
8
0
10
120.448564
20
36.935042
30
0.0
40
1.000000
50
180.000000
51
194.925581
0
LINE
8
0
10
119.482303
20
36.677478
30
0.0
11
121.438107
21
29.340210
31
0.0
0
ARC
8
0
10
120.471846
20
29.082646
30
0.0
40
1.000000
50
347.005383
51
14.925581
0
LINE
8
0
10
121.446237
20
28.857786
30
0.0
11
120.027744
21
22.710980
31
0.0
0
ARC
8
0
10
121.002135
20
22.486121
30
0.0
40
1.000000
50
167.005383
51
180.000000
0
LINE
8
0
10
120.002135
20
22.486121
30
0.0
11
120.002135
21
21.900009
31
0.0
0
ARC
8
0
10
120.802135
20
21.900009
30
0.0
40
0.800000
50
180.000000
51
270.000000
0
LINE
8
0
10
120.802135
20
21.100009
30
0.0
11
126.302135
21
21.100009
31
0.0
0
ARC
8
0
10
126.302135
20
19.600009
30
0.0
40
1.500000
50
0.000000
51
90.000000
0
LINE
8
0
10
127.802135
20
19.600009
30
0.0
11
127.802135
21
15.600009
31
0.0
0
ARC
8
0
10
128.102135
20
15.600009
30
0.0
40
0.300000
50
180.000000
51
270.000000
0
LINE
8
0
10
128.102135
20
15.300009
30
0.0
11
129.102135
21
15.300009
31
0.0
0
LINE
8
0
10
121.375003
20
23.212439
30
0.0
11
122.682584
21
28.878622
31
0.0
0
ARC
8
0
10
121.708193
20
29.103481
30
0.0
40
1.000000
50
347.005383
51
14.925581
0
LINE
8
0
10
122.674454
20
29.361046
30
0.0
11
120.659251
21
36.921151
31
0.0
0
ARC
8
0
10
120.949129
20
36.998420
30
0.0
40
0.300000
50
115.705312
51
194.925581
0
ARC
8
0
10
120.602135
20
37.719249
30
0.0
40
0.500000
50
295.705312
51
0.000000
0
LINE
8
0
10
121.102135
20
37.719249
30
0.0
11
121.102135
21
40.651677
31
0.0
0
ARC
8
0
10
120.802135
20
40.651677
30
0.0
40
0.300000
50
0.000000
51
56.251011
0
ARC
8
0
10
121.302135
20
41.400009
30
0.0
40
0.600000
50
33.748989
51
236.251011
0
ARC
8
0
10
122.050466
20
41.900009
30
0.0
40
0.300000
50
213.748989
51
270.000000
0
LINE
8
0
10
122.050466
20
41.600009
30
0.0
11
129.002135
21
41.600009
31
0.0
0
ARC
8
0
10
129.002135
20
41.100009
30
0.0
40
0.500000
50
0.000000
51
90.000000
0
LINE
8
0
10
129.502135
20
41.100009
30
0.0
11
129.502135
21
39.167049
31
0.0
0
ARC
8
0
10
129.002135
20
39.167049
30
0.0
40
0.500000
50
284.931417
51
0.000000
0
LINE
8
0
10
129.130966
20
38.683931
30
0.0
11
128.573304
21
38.535221
31
0.0
0
ARC
8
0
10
128.702135
20
38.052104
30
0.0
40
0.500000
50
104.931417
51
180.000000
0
LINE
8
0
10
128.202135
20
38.052104
30
0.0
11
128.202135
21
23.100009
31
0.0
0
ARC
8
0
10
127.702135
20
23.100009
30
0.0
40
0.500000
50
270.000000
51
0.000000
0
LINE
8
0
10
127.702135
20
22.600009
30
0.0
11
121.862199
21
22.600009
31
0.0
0
ARC
8
0
10
121.862199
20
23.100009
30
0.0
40
0.500000
50
167.005383
51
270.000000
0
LINE
8
0
10
172.329816
20
29.361046
30
0.0
11
174.345019
21
36.921151
31
0.0
0
ARC
8
0
10
174.055141
20
36.998420
30
0.0
40
0.300000
50
345.074419
51
64.294688
0
ARC
8
0
10
174.402135
20
37.719249
30
0.0
40
0.500000
50
180.000000
51
244.294688
0
LINE
8
0
10
173.902135
20
37.719249
30
0.0
11
173.902135
21
40.651677
31
0.0
0
ARC
8
0
10
174.202135
20
40.651677
30
0.0
40
0.300000
50
123.748989
51
180.000000
0
ARC
8
0
10
173.702135
20
41.400009
30
0.0
40
0.600000
50
303.748989
51
146.251011
0
ARC
8
0
10
172.953803
20
41.900009
30
0.0
40
0.300000
50
270.000000
51
326.251011
0
LINE
8
0
10
172.953803
20
41.600009
30
0.0
11
166.002135
21
41.600009
31
0.0
0
ARC
8
0
10
166.002135
20
41.100009
30
0.0
40
0.500000
50
90.000000
51
180.000000
0
LINE
8
0
10
165.502135
20
41.100009
30
0.0
11
165.502135
21
39.167049
31
0.0
0
ARC
8
0
10
166.002135
20
39.167049
30
0.0
40
0.500000
50
180.000000
51
255.068583
0
LINE
8
0
10
165.873304
20
38.683931
30
0.0
11
166.430966
21
38.535221
31
0.0
0
ARC
8
0
10
166.302135
20
38.052104
30
0.0
40
0.500000
50
0.000000
51
75.068583
0
LINE
8
0
10
166.802135
20
38.052104
30
0.0
11
166.802135
21
23.100009
31
0.0
0
ARC
8
0
10
167.302135
20
23.100009
30
0.0
40
0.500000
50
180.000000
51
270.000000
0
LINE
8
0
10
167.302135
20
22.600009
30
0.0
11
173.142071
21
22.600009
31
0.0
0
ARC
8
0
10
173.142071
20
23.100009
30
0.0
40
0.500000
50
270.000000
51
12.994617
0
LINE
8
0
10
173.629267
20
23.212439
30
0.0
11
172.321686
21
28.878622
31
0.0
0
ARC
8
0
10
173.296077
20
29.103481
30
0.0
40
1.000000
50
165.074419
51
192.994617
0
LINE
8
0
10
102.601300
20
41.300009
30
0.0
11
103.301300
21
41.300009
31
0.0
0
ARC
8
0
10
103.301300
20
41.000009
30
0.0
40
0.300000
50
0.000000
51
90.000000
0
LINE
8
0
10
103.601300
20
41.000009
30
0.0
11
103.601300
21
35.824273
31
0.0
0
ARC
8
0
10
103.301300
20
35.824273
30
0.0
40
0.300000
50
315.000000
51
0.000000
0
LINE
8
0
10
103.513433
20
35.612141
30
0.0
11
102.316249
21
34.414958
31
0.0
0
ARC
8
0
10
102.669803
20
34.061405
30
0.0
40
0.500000
50
135.000000
51
210.000000
0
LINE
8
0
10
102.236790
20
33.811405
30
0.0
11
102.820901
21
32.799695
31
0.0
0
ARC
8
0
10
103.167311
20
32.999695
30
0.0
40
0.400000
50
210.000000
51
30.000000
0
LINE
8
0
10
103.513721
20
33.199695
30
0.0
11
103.159808
21
33.812690
31
0.0
0
ARC
8
0
10
103.419616
20
33.962690
30
0.0
40
0.300000
50
135.000000
51
210.000000
0
LINE
8
0
10
103.207484
20
34.174822
30
0.0
11
104.313433
21
35.280770
31
0.0
0
ARC
8
0
10
104.101300
20
35.492902
30
0.0
40
0.300000
50
315.000000
51
0.000000
0
LINE
8
0
10
104.401300
20
35.492902
30
0.0
11
104.401300
21
41.000009
31
0.0
0
ARC
8
0
10
104.701300
20
41.000009
30
0.0
40
0.300000
50
90.000000
51
180.000000
0
LINE
8
0
10
104.701300
20
41.300009
30
0.0
11
112.901300
21
41.300009
31
0.0
0
ARC
8
0
10
112.901300
20
41.000009
30
0.0
40
0.300000
50
0.000000
51
90.000000
0
LINE
8
0
10
113.201300
20
41.000009
30
0.0
11
113.201300
21
35.492902
31
0.0
0
ARC
8
0
10
113.501300
20
35.492902
30
0.0
40
0.300000
50
180.000000
51
225.000000
0
LINE
8
0
10
113.289168
20
35.280770
30
0.0
11
114.395117
21
34.174822
31
0.0
0
ARC
8
0
10
114.182985
20
33.962690
30
0.0
40
0.300000
50
330.000000
51
45.000000
0
LINE
8
0
10
114.442793
20
33.812690
30
0.0
11
114.088880
21
33.199695
31
0.0
0
ARC
8
0
10
114.435290
20
32.999695
30
0.0
40
0.400000
50
150.000000
51
330.000000
0
LINE
8
0
10
114.781700
20
32.799695
30
0.0
11
115.365811
21
33.811405
31
0.0
0
ARC
8
0
10
114.932798
20
34.061405
30
0.0
40
0.500000
50
330.000000
51
45.000000
0
LINE
8
0
10
115.286352
20
34.414958
30
0.0
11
114.089168
21
35.612141
31
0.0
0
ARC
8
0
10
114.301300
20
35.824273
30
0.0
40
0.300000
50
180.000000
51
225.000000
0
LINE
8
0
10
114.001300
20
35.824273
30
0.0
11
114.001300
21
41.000009
31
0.0
0
ARC
8
0
10
114.301300
20
41.000009
30
0.0
40
0.300000
50
90.000000
51
180.000000
0
LINE
8
0
10
114.301300
20
41.300009
30
0.0
11
115.001300
21
41.300009
31
0.0
0
ARC
8
0
10
115.001300
20
40.300009
30
0.0
40
1.000000
50
337.380135
51
90.000000
0
ARC
8
0
10
116.201300
20
39.800009
30
0.0
40
0.300000
50
157.380135
51
270.000000
0
LINE
8
0
10
116.201300
20
39.500009
30
0.0
11
117.501300
21
39.500009
31
0.0
0
ARC
8
0
10
117.501300
20
39.800009
30
0.0
40
0.300000
50
270.000000
51
0.000000
0
LINE
8
0
10
117.801300
20
39.800009
30
0.0
11
117.801300
21
43.100009
31
0.0
0
ARC
8
0
10
117.501300
20
43.100009
30
0.0
40
0.300000
50
0.000000
51
90.000000
0
LINE
8
0
10
117.501300
20
43.400009
30
0.0
11
111.801300
21
43.400009
31
0.0
0
ARC
8
0
10
111.801300
20
43.900009
30
0.0
40
0.500000
50
180.000000
51
270.000000
0
LINE
8
0
10
111.301300
20
43.900009
30
0.0
11
111.301300
21
44.200009
31
0.0
0
ARC
8
0
10
108.801300
20
44.200009
30
0.0
40
2.500000
50
0.000000
51
180.000000
0
LINE
8
0
10
106.301300
20
44.200009
30
0.0
11
106.301300
21
43.900009
31
0.0
0
ARC
8
0
10
105.801300
20
43.900009
30
0.0
40
0.500000
50
270.000000
51
0.000000
0
LINE
8
0
10
105.801300
20
43.400009
30
0.0
11
100.101300
21
43.400009
31
0.0
0
ARC
8
0
10
100.101300
20
43.100009
30
0.0
40
0.300000
50
90.000000
51
180.000000
0
LINE
8
0
10
99.801300
20
43.100009
30
0.0
11
99.801300
21
39.800009
31
0.0
0
ARC
8
0
10
100.101300
20
39.800009
30
0.0
40
0.300000
50
180.000000
51
270.000000
0
LINE
8
0
10
100.101300
20
39.500009
30
0.0
11
101.401300
21
39.500009
31
0.0
0
ARC
8
0
10
101.401300
20
39.800009
30
0.0
40
0.300000
50
270.000000
51
22.619865
0
ARC
8
0
10
102.601300
20
40.300009
30
0.0
40
1.000000
50
90.000000
51
202.619865
0
LINE
8
0
10
180.002136
20
41.300009
30
0.0
11
180.702136
21
41.300009
31
0.0
0
ARC
8
0
10
180.702136
20
41.000009
30
0.0
40
0.300000
50
0.000000
51
90.000000
0
LINE
8
0
10
181.002136
20
41.000009
30
0.0
11
181.002136
21
35.824273
31
0.0
0
ARC
8
0
10
180.702136
20
35.824273
30
0.0
40
0.300000
50
315.000000
51
0.000000
0
LINE
8
0
10
180.914269
20
35.612141
30
0.0
11
179.717085
21
34.414958
31
0.0
0
ARC
8
0
10
180.070639
20
34.061405
30
0.0
40
0.500000
50
135.000000
51
210.000000
0
LINE
8
0
10
179.637626
20
33.811405
30
0.0
11
180.221737
21
32.799695
31
0.0
0
ARC
8
0
10
180.568147
20
32.999695
30
0.0
40
0.400000
50
210.000000
51
30.000000
0
LINE
8
0
10
180.914557
20
33.199695
30
0.0
11
180.560644
21
33.812690
31
0.0
0
ARC
8
0
10
180.820452
20
33.962690
30
0.0
40
0.300000
50
135.000000
51
210.000000
0
LINE
8
0
10
180.608320
20
34.174822
30
0.0
11
181.714269
21
35.280770
31
0.0
0
ARC
8
0
10
181.502136
20
35.492902
30
0.0
40
0.300000
50
315.000000
51
0.000000
0
LINE
8
0
10
181.802136
20
35.492902
30
0.0
11
181.802136
21
41.000009
31
0.0
0
ARC
8
0
10
182.102136
20
41.000009
30
0.0
40
0.300000
50
90.000000
51
180.000000
0
LINE
8
0
10
182.102136
20
41.300009
30
0.0
11
190.302136
21
41.300009
31
0.0
0
ARC
8
0
10
190.302136
20
41.000009
30
0.0
40
0.300000
50
0.000000
51
90.000000
0
LINE
8
0
10
190.602136
20
41.000009
30
0.0
11
190.602136
21
35.492902
31
0.0
0
ARC
8
0
10
190.902136
20
35.492902
30
0.0
40
0.300000
50
180.000000
51
225.000000
0
LINE
8
0
10
190.690004
20
35.280770
30
0.0
11
191.795953
21
34.174822
31
0.0
0
ARC
8
0
10
191.583821
20
33.962690
30
0.0
40
0.300000
50
330.000000
51
45.000000
0
LINE
8
0
10
191.843629
20
33.812690
30
0.0
11
191.489716
21
33.199695
31
0.0
0
ARC
8
0
10
191.836126
20
32.999695
30
0.0
40
0.400000
50
150.000000
51
330.000000
0
LINE
8
0
10
192.182536
20
32.799695
30
0.0
11
192.766647
21
33.811405
31
0.0
0
ARC
8
0
10
192.333634
20
34.061405
30
0.0
40
0.500000
50
330.000000
51
45.000000
0
LINE
8
0
10
192.687188
20
34.414958
30
0.0
11
191.490004
21
35.612141
31
0.0
0
ARC
8
0
10
191.702136
20
35.824273
30
0.0
40
0.300000
50
180.000000
51
225.000000
0
LINE
8
0
10
191.402136
20
35.824273
30
0.0
11
191.402136
21
41.000009
31
0.0
0
ARC
8
0
10
191.702136
20
41.000009
30
0.0
40
0.300000
50
90.000000
51
180.000000
0
LINE
8
0
10
191.702136
20
41.300009
30
0.0
11
192.402136
21
41.300009
31
0.0
0
ARC
8
0
10
192.402136
20
40.300009
30
0.0
40
1.000000
50
337.380135
51
90.000000
0
ARC
8
0
10
193.602136
20
39.800009
30
0.0
40
0.300000
50
157.380135
51
270.000000
0
LINE
8
0
10
193.602136
20
39.500009
30
0.0
11
194.902136
21
39.500009
31
0.0
0
ARC
8
0
10
194.902136
20
39.800009
30
0.0
40
0.300000
50
270.000000
51
0.000000
0
LINE
8
0
10
195.202136
20
39.800009
30
0.0
11
195.202136
21
43.100009
31
0.0
0
ARC
8
0
10
194.902136
20
43.100009
30
0.0
40
0.300000
50
0.000000
51
90.000000
0
LINE
8
0
10
194.902136
20
43.400009
30
0.0
11
189.202136
21
43.400009
31
0.0
0
ARC
8
0
10
189.202136
20
43.900009
30
0.0
40
0.500000
50
180.000000
51
270.000000
0
LINE
8
0
10
188.702136
20
43.900009
30
0.0
11
188.702136
21
44.200009
31
0.0
0
ARC
8
0
10
186.202136
20
44.200009
30
0.0
40
2.500000
50
0.000000
51
180.000000
0
LINE
8
0
10
183.702136
20
44.200009
30
0.0
11
183.702136
21
43.900009
31
0.0
0
ARC
8
0
10
183.202136
20
43.900009
30
0.0
40
0.500000
50
270.000000
51
0.000000
0
LINE
8
0
10
183.202136
20
43.400009
30
0.0
11
177.502136
21
43.400009
31
0.0
0
ARC
8
0
10
177.502136
20
43.100009
30
0.0
40
0.300000
50
90.000000
51
180.000000
0
LINE
8
0
10
177.202136
20
43.100009
30
0.0
11
177.202136
21
39.800009
31
0.0
0
ARC
8
0
10
177.502136
20
39.800009
30
0.0
40
0.300000
50
180.000000
51
270.000000
0
LINE
8
0
10
177.502136
20
39.500009
30
0.0
11
178.802136
21
39.500009
31
0.0
0
ARC
8
0
10
178.802136
20
39.800009
30
0.0
40
0.300000
50
270.000000
51
22.619865
0
ARC
8
0
10
180.002136
20
40.300009
30
0.0
40
1.000000
50
90.000000
51
202.619865
0
ARC
8
0
10
99.300000
20
6.900000
30
0.0
40
0.300000
50
180.000000
51
270.000000
0
LINE
8
0
10
99.300000
20
6.600000
30
0.0
11
107.055300
21
6.600000
31
0.0
0
ARC
8
0
10
107.055300
20
6.900000
30
0.0
40
0.300000
50
270.000000
51
315.000000
0
LINE
8
0
10
107.267432
20
6.687868
30
0.0
11
108.588753
21
8.009188
31
0.0
0
ARC
8
0
10
108.800885
20
7.797056
30
0.0
40
0.300000
50
45.000000
51
135.000000
0
LINE
8
0
10
109.013017
20
8.009188
30
0.0
11
110.334337
21
6.687868
31
0.0
0
ARC
8
0
10
110.546469
20
6.900000
30
0.0
40
0.300000
50
225.000000
51
270.000000
0
LINE
8
0
10
110.546469
20
6.600000
30
0.0
11
113.518576
21
6.600000
31
0.0
0
ARC
8
0
10
113.518576
20
6.900000
30
0.0
40
0.300000
50
270.000000
51
300.000000
0
LINE
8
0
10
113.668576
20
6.640192
30
0.0
11
114.350885
21
7.034123
31
0.0
0
ARC
8
0
10
114.200885
20
7.293931
30
0.0
40
0.300000
50
300.000000
51
0.000000
0
LINE
8
0
10
114.500885
20
7.293931
30
0.0
11
114.500885
21
10.906069
31
0.0
0
ARC
8
0
10
114.200885
20
10.906069
30
0.0
40
0.300000
50
0.000000
51
60.000000
0
LINE
8
0
10
114.350885
20
11.165876
30
0.0
11
113.668576
21
11.559807
31
0.0
0
ARC
8
0
10
113.518576
20
11.300000
30
0.0
40
0.300000
50
60.000000
51
90.000000
0
LINE
8
0
10
113.518576
20
11.600000
30
0.0
11
99.300000
21
11.600000
31
0.0
0
ARC
8
0
10
99.300000
20
11.300000
30
0.0
40
0.300000
50
90.000000
51
180.000000
0
LINE
8
0
10
99.000000
20
11.300000
30
0.0
11
99.000000
21
6.900000
31
0.0
0
LINE
8
0
10
11.800000
20
37.920802
30
0.0
11
11.800000
21
22.900009
31
0.0
0
ARC
8
0
10
12.100000
20
22.900009
30
0.0
40
0.300000
50
180.000000
51
270.000000
0
LINE
8
0
10
12.100000
20
22.600009
30
0.0
11
14.800000
21
22.600009
31
0.0
0
ARC
8
0
10
14.800000
20
22.300009
30
0.0
40
0.300000
50
0.000000
51
90.000000
0
LINE
8
0
10
15.100000
20
22.300009
30
0.0
11
15.100000
21
21.400009
31
0.0
0
ARC
8
0
10
14.800000
20
21.400009
30
0.0
40
0.300000
50
270.000000
51
0.000000
0
LINE
8
0
10
14.800000
20
21.100009
30
0.0
11
13.500000
21
21.100009
31
0.0
0
ARC
8
0
10
13.500000
20
20.800009
30
0.0
40
0.300000
50
90.000000
51
180.000000
0
LINE
8
0
10
13.200000
20
20.800009
30
0.0
11
13.200000
21
19.400009
31
0.0
0
ARC
8
0
10
12.900000
20
19.400009
30
0.0
40
0.300000
50
270.000000
51
0.000000
0
LINE
8
0
10
12.900000
20
19.100009
30
0.0
11
12.100000
21
19.100009
31
0.0
0
ARC
8
0
10
12.100000
20
18.800009
30
0.0
40
0.300000
50
90.000000
51
180.000000
0
LINE
8
0
10
11.800000
20
18.800009
30
0.0
11
11.800000
21
16.800009
31
0.0
0
ARC
8
0
10
11.500000
20
16.800009
30
0.0
40
0.300000
50
270.000000
51
0.000000
0
LINE
8
0
10
11.500000
20
16.500009
30
0.0
11
1.800000
21
16.500009
31
0.0
0
ARC
8
0
10
1.800000
20
16.200009
30
0.0
40
0.300000
50
90.000000
51
180.000000
0
LINE
8
0
10
1.500000
20
16.200009
30
0.0
11
1.500000
21
6.800009
31
0.0
0
ARC
8
0
10
1.800000
20
6.800009
30
0.0
40
0.300000
50
180.000000
51
270.000000
0
LINE
8
0
10
1.800000
20
6.500009
30
0.0
11
11.400000
21
6.500009
31
0.0
0
ARC
8
0
10
11.400000
20
6.800009
30
0.0
40
0.300000
50
270.000000
51
0.000000
0
LINE
8
0
10
11.700000
20
6.800009
30
0.0
11
11.700000
21
7.700009
31
0.0
0
ARC
8
0
10
12.000000
20
7.700009
30
0.0
40
0.300000
50
90.000000
51
180.000000
0
LINE
8
0
10
12.000000
20
8.000009
30
0.0
11
12.900000
21
8.000009
31
0.0
0
ARC
8
0
10
12.900000
20
7.700009
30
0.0
40
0.300000
50
0.000000
51
90.000000
0
LINE
8
0
10
13.200000
20
7.700009
30
0.0
11
13.200000
21
6.800009
31
0.0
0
ARC
8
0
10
13.500000
20
6.800009
30
0.0
40
0.300000
50
180.000000
51
270.000000
0
LINE
8
0
10
13.500000
20
6.500009
30
0.0
11
35.900000
21
6.500009
31
0.0
0
ARC
8
0
10
35.900000
20
6.800009
30
0.0
40
0.300000
50
270.000000
51
0.000000
0
LINE
8
0
10
36.200000
20
6.800009
30
0.0
11
36.200000
21
7.700009
31
0.0
0
ARC
8
0
10
36.500000
20
7.700009
30
0.0
40
0.300000
50
90.000000
51
180.000000
0
LINE
8
0
10
36.500000
20
8.000009
30
0.0
11
37.400000
21
8.000009
31
0.0
0
ARC
8
0
10
37.400000
20
7.700009
30
0.0
40
0.300000
50
0.000000
51
90.000000
0
LINE
8
0
10
37.700000
20
7.700009
30
0.0
11
37.700000
21
6.800009
31
0.0
0
ARC
8
0
10
38.000000
20
6.800009
30
0.0
40
0.300000
50
180.000000
51
270.000000
0
LINE
8
0
10
38.000000
20
6.500009
30
0.0
11
40.699975
21
6.500009
31
0.0
0
ARC
8
0
10
40.699975
20
6.800009
30
0.0
40
0.300000
50
270.000000
51
0.000000
0
LINE
8
0
10
40.999975
20
6.800009
30
0.0
11
40.999975
21
13.200009
31
0.0
0
ARC
8
0
10
40.699975
20
13.200009
30
0.0
40
0.300000
50
0.000000
51
90.000000
0
LINE
8
0
10
40.699975
20
13.500009
30
0.0
11
37.799975
21
13.500009
31
0.0
0
ARC
8
0
10
37.799975
20
13.800009
30
0.0
40
0.300000
50
180.000000
51
270.000000
0
LINE
8
0
10
37.499975
20
13.800009
30
0.0
11
37.499975
21
18.800009
31
0.0
0
ARC
8
0
10
37.199975
20
18.800009
30
0.0
40
0.300000
50
0.000000
51
90.000000
0
LINE
8
0
10
37.199975
20
19.100009
30
0.0
11
36.499975
21
19.100009
31
0.0
0
ARC
8
0
10
36.499975
20
19.400009
30
0.0
40
0.300000
50
180.000000
51
270.000000
0
LINE
8
0
10
36.199975
20
19.400009
30
0.0
11
36.199975
21
20.800009
31
0.0
0
ARC
8
0
10
35.899975
20
20.800009
30
0.0
40
0.300000
50
0.000000
51
90.000000
0
LINE
8
0
10
35.899975
20
21.100009
30
0.0
11
33.499975
21
21.100009
31
0.0
0
ARC
8
0
10
33.499975
20
21.400009
30
0.0
40
0.300000
50
180.000000
51
270.000000
0
LINE
8
0
10
33.199975
20
21.400009
30
0.0
11
33.199975
21
22.300009
31
0.0
0
ARC
8
0
10
33.499975
20
22.300009
30
0.0
40
0.300000
50
90.000000
51
180.000000
0
LINE
8
0
10
33.499975
20
22.600009
30
0.0
11
37.199975
21
22.600009
31
0.0
0
ARC
8
0
10
37.199975
20
22.900009
30
0.0
40
0.300000
50
270.000000
51
0.000000
0
LINE
8
0
10
37.499975
20
22.900009
30
0.0
11
37.499975
21
27.200009
31
0.0
0
ARC
8
0
10
37.199975
20
27.200009
30
0.0
40
0.300000
50
0.000000
51
90.000000
0
LINE
8
0
10
37.199975
20
27.500009
30
0.0
11
34.174264
21
27.500009
31
0.0
0
ARC
8
0
10
34.174264
20
27.200009
30
0.0
40
0.300000
50
90.000000
51
135.000000
0
LINE
8
0
10
33.962132
20
27.412141
30
0.0
11
33.637868
21
27.087877
31
0.0
0
ARC
8
0
10
33.425736
20
27.300009
30
0.0
40
0.300000
50
270.000000
51
315.000000
0
LINE
8
0
10
33.425736
20
27.000009
30
0.0
11
29.174264
21
27.000009
31
0.0
0
ARC
8
0
10
29.174264
20
27.300009
30
0.0
40
0.300000
50
225.000000
51
270.000000
0
LINE
8
0
10
28.962132
20
27.087877
30
0.0
11
28.637868
21
27.412141
31
0.0
0
ARC
8
0
10
28.425736
20
27.200009
30
0.0
40
0.300000
50
45.000000
51
90.000000
0
LINE
8
0
10
28.425736
20
27.500009
30
0.0
11
24.600000
21
27.500009
31
0.0
0
ARC
8
0
10
24.600000
20
28.500009
30
0.0
40
1.000000
50
180.000000
51
270.000000
0
LINE
8
0
10
23.600000
20
28.500009
30
0.0
11
23.600000
21
31.375637
31
0.0
0
ARC
8
0
10
23.300000
20
31.375637
30
0.0
40
0.300000
50
0.000000
51
30.000000
0
LINE
8
0
10
23.559807
20
31.525637
30
0.0
11
22.708578
21
33.000009
31
0.0
0
ARC
8
0
10
24.440629
20
34.000009
30
0.0
40
2.000000
50
122.643077
51
210.000000
0
ARC
8
0
10
23.200000
20
35.936717
30
0.0
40
0.300000
50
302.643077
51
0.000000
0
LINE
8
0
10
23.500000
20
35.936717
30
0.0
11
23.500000
21
37.700009
31
0.0
0
ARC
8
0
10
23.200000
20
37.700009
30
0.0
40
0.300000
50
0.000000
51
90.000000
0
LINE
8
0
10
23.200000
20
38.000009
30
0.0
11
21.000000
21
38.000009
31
0.0
0
ARC
8
0
10
21.000000
20
38.500009
30
0.0
40
0.500000
50
180.000000
51
270.000000
0
LINE
8
0
10
20.500000
20
38.500009
30
0.0
11
20.500000
21
41.600009
31
0.0
0
ARC
8
0
10
20.200000
20
41.600009
30
0.0
40
0.300000
50
0.000000
51
90.000000
0
LINE
8
0
10
20.200000
20
41.900009
30
0.0
11
10.600000
21
41.900009
31
0.0
0
ARC
8
0
10
10.600000
20
41.600009
30
0.0
40
0.300000
50
90.000000
51
180.000000
0
LINE
8
0
10
10.300000
20
41.600009
30
0.0
11
10.300000
21
38.783122
31
0.0
0
ARC
8
0
10
10.600000
20
38.783122
30
0.0
40
0.300000
50
180.000000
51
255.000000
0
LINE
8
0
10
10.522354
20
38.493344
30
0.0
11
11.577646
21
38.210579
31
0.0
0
ARC
8
0
10
11.500000
20
37.920802
30
0.0
40
0.300000
50
0.000000
51
75.000000
0
ARC
8
0
10
41.800000
20
40.175745
30
0.0
40
0.300000
50
0.000000
51
45.000000
0
LINE
8
0
10
42.100000
20
40.175745
30
0.0
11
42.100000
21
40.300009
31
0.0
0
LINE
8
0
10
42.100000
20
40.300009
30
0.0
11
42.012132
21
40.387877
31
0.0
0
LINE
8
0
10
42.012132
20
40.387877
30
0.0
11
41.787868
21
40.612141
31
0.0
0
ARC
8
0
10
41.575736
20
40.400009
30
0.0
40
0.300000
50
45.000000
51
90.000000
0
LINE
8
0
10
41.575736
20
40.700009
30
0.0
11
40.900000
21
40.700009
31
0.0
0
ARC
8
0
10
40.900000
20
40.400009
30
0.0
40
0.300000
50
90.000000
51
180.000000
0
LINE
8
0
10
40.600000
20
40.400009
30
0.0
11
40.600000
21
39.800009
31
0.0
0
ARC
8
0
10
40.300000
20
39.800009
30
0.0
40
0.300000
50
270.000000
51
0.000000
0
LINE
8
0
10
40.300000
20
39.500009
30
0.0
11
37.889706
21
39.500009
31
0.0
0
ARC
8
0
10
37.889706
20
39.200009
30
0.0
40
0.300000
50
90.000000
51
178.000000
0
LINE
8
0
10
37.589889
20
39.210479
30
0.0
11
37.443466
21
35.017459
31
0.0
0
ARC
8
0
10
37.943161
20
35.000009
30
0.0
40
0.500000
50
178.000000
51
270.000000
0
LINE
8
0
10
37.943161
20
34.500009
30
0.0
11
38.159371
21
34.500009
31
0.0
0
ARC
8
0
10
38.159371
20
34.000009
30
0.0
40
0.500000
50
330.000000
51
90.000000
0
LINE
8
0
10
38.592383
20
33.750009
30
0.0
11
37.566987
21
31.973971
31
0.0
0
ARC
8
0
10
38.000000
20
31.723971
30
0.0
40
0.500000
50
150.000000
51
180.000000
0
LINE
8
0
10
37.500000
20
31.723971
30
0.0
11
37.500000
21
29.300009
31
0.0
0
ARC
8
0
10
37.200000
20
29.300009
30
0.0
40
0.300000
50
270.000000
51
0.000000
0
LINE
8
0
10
37.200000
20
29.000009
30
0.0
11
31.600000
21
29.000009
31
0.0
0
LINE
8
0
10
31.600000
20
29.000009
30
0.0
11
31.300000
21
28.700009
31
0.0
0
LINE
8
0
10
31.300000
20
28.700009
30
0.0
11
31.000000
21
29.000009
31
0.0
0
LINE
8
0
10
31.000000
20
29.000009
30
0.0
11
25.400000
21
29.000009
31
0.0
0
ARC
8
0
10
25.400000
20
29.300009
30
0.0
40
0.300000
50
180.000000
51
270.000000
0
LINE
8
0
10
25.100000
20
29.300009
30
0.0
11
25.100000
21
31.723971
31
0.0
0
ARC
8
0
10
24.600000
20
31.723971
30
0.0
40
0.500000
50
0.000000
51
30.000000
0
LINE
8
0
10
25.033013
20
31.973971
30
0.0
11
24.007616
21
33.750009
31
0.0
0
ARC
8
0
10
24.440629
20
34.000009
30
0.0
40
0.500000
50
90.000000
51
210.000000
0
LINE
8
0
10
24.440629
20
34.500009
30
0.0
11
24.656839
21
34.500009
31
0.0
0
ARC
8
0
10
24.656839
20
35.000009
30
0.0
40
0.500000
50
270.000000
51
2.000000
0
LINE
8
0
10
25.156534
20
35.017459
30
0.0
11
25.010110
21
39.210479
31
0.0
0
ARC
8
0
10
24.710293
20
39.200009
30
0.0
40
0.300000
50
2.000000
51
90.000000
0
LINE
8
0
10
24.710293
20
39.500009
30
0.0
11
22.300000
21
39.500009
31
0.0
0
ARC
8
0
10
22.300000
20
39.800009
30
0.0
40
0.300000
50
180.000000
51
270.000000
0
LINE
8
0
10
22.000000
20
39.800009
30
0.0
11
22.000000
21
43.100009
31
0.0
0
ARC
8
0
10
21.700000
20
43.100009
30
0.0
40
0.300000
50
0.000000
51
90.000000
0
LINE
8
0
10
21.700000
20
43.400009
30
0.0
11
9.800000
21
43.400009
31
0.0
0
ARC
8
0
10
9.800000
20
42.400009
30
0.0
40
1.000000
50
90.000000
51
180.000000
0
LINE
8
0
10
8.800000
20
42.400009
30
0.0
11
8.800000
21
37.632131
31
0.0
0
ARC
8
0
10
9.100000
20
37.632131
30
0.0
40
0.300000
50
180.000000
51
255.000000
0
LINE
8
0
10
9.022354
20
37.342353
30
0.0
11
10.077646
21
37.059589
31
0.0
0
ARC
8
0
10
10.000000
20
36.769811
30
0.0
40
0.300000
50
0.000000
51
75.000000
0
LINE
8
0
10
10.300000
20
36.769811
30
0.0
11
10.300000
21
18.300009
31
0.0
0
ARC
8
0
10
10.000000
20
18.300009
30
0.0
40
0.300000
50
270.000000
51
0.000000
0
LINE
8
0
10
10.000000
20
18.000009
30
0.0
11
0.500000
21
18.000009
31
0.0
0
ARC
8
0
10
0.500000
20
17.500009
30
0.0
40
0.500000
50
90.000000
51
180.000000
0
LINE
8
0
10
0.000000
20
17.500009
30
0.0
11
0.000000
21
0.300009
31
0.0
0
ARC
8
0
10
0.300000
20
0.300009
30
0.0
40
0.300000
50
180.000000
51
270.000000
0
LINE
8
0
10
0.300000
20
0.000009
30
0.0
11
3.530143
21
0.000009
31
0.0
0
ARC
8
0
10
3.530143
20
0.300009
30
0.0
40
0.300000
50
270.000000
51
329.036243
0
LINE
8
0
10
3.787391
20
0.145660
30
0.0
11
4.257248
21
0.928756
31
0.0
0
ARC
8
0
10
4.000000
20
1.083104
30
0.0
40
0.300000
50
329.036243
51
0.000000
0
LINE
8
0
10
4.300000
20
1.083104
30
0.0
11
4.300000
21
1.200009
31
0.0
0
ARC
8
0
10
4.000000
20
1.200009
30
0.0
40
0.300000
50
0.000000
51
90.000000
0
LINE
8
0
10
4.000000
20
1.500009
30
0.0
11
2.100000
21
1.500009
31
0.0
0
ARC
8
0
10
2.100000
20
1.800009
30
0.0
40
0.300000
50
180.000000
51
270.000000
0
LINE
8
0
10
1.800000
20
1.800009
30
0.0
11
1.800000
21
4.700009
31
0.0
0
ARC
8
0
10
2.100000
20
4.700009
30
0.0
40
0.300000
50
90.000000
51
180.000000
0
LINE
8
0
10
2.100000
20
5.000009
30
0.0
11
16.000000
21
5.000009
31
0.0
0
ARC
8
0
10
16.000000
20
4.700009
30
0.0
40
0.300000
50
0.000000
51
90.000000
0
LINE
8
0
10
16.300000
20
4.700009
30
0.0
11
16.300000
21
1.800009
31
0.0
0
ARC
8
0
10
16.000000
20
1.800009
30
0.0
40
0.300000
50
270.000000
51
0.000000
0
LINE
8
0
10
16.000000
20
1.500009
30
0.0
11
14.600000
21
1.500009
31
0.0
0
ARC
8
0
10
14.600000
20
1.200009
30
0.0
40
0.300000
50
90.000000
51
180.000000
0
LINE
8
0
10
14.300000
20
1.200009
30
0.0
11
14.300000
21
1.083104
31
0.0
0
ARC
8
0
10
14.600000
20
1.083104
30
0.0
40
0.300000
50
180.000000
51
210.963756
0
LINE
8
0
10
14.342752
20
0.928756
30
0.0
11
14.812609
21
0.145660
31
0.0
0
ARC
8
0
10
15.069857
20
0.300009
30
0.0
40
0.300000
50
210.963756
51
270.000000
0
LINE
8
0
10
15.069857
20
0.000009
30
0.0
11
17.500000
21
0.000009
31
0.0
0
ARC
8
0
10
17.500000
20
0.300009
30
0.0
40
0.300000
50
270.000000
51
0.000000
0
LINE
8
0
10
17.800000
20
0.300009
30
0.0
11
17.800000
21
4.700009
31
0.0
0
ARC
8
0
10
18.100000
20
4.700009
30
0.0
40
0.300000
50
90.000000
51
180.000000
0
LINE
8
0
10
18.100000
20
5.000009
30
0.0
11
40.700000
21
5.000009
31
0.0
0
ARC
8
0
10
40.700000
20
4.700009
30
0.0
40
0.300000
50
0.000000
51
90.000000
0
LINE
8
0
10
41.000000
20
4.700009
30
0.0
11
41.000000
21
0.300009
31
0.0
0
ARC
8
0
10
41.300000
20
0.300009
30
0.0
40
0.300000
50
180.000000
51
270.000000
0
LINE
8
0
10
41.300000
20
0.000009
30
0.0
11
42.767916
21
0.000009
31
0.0
0
ARC
8
0
10
42.767916
20
0.300009
30
0.0
40
0.300000
50
270.000000
51
289.778171
0
LINE
8
0
10
42.869429
20
0.017706
30
0.0
11
44.171292
21
0.485845
31
0.0
0
ARC
8
0
10
44.250811
20
0.264708
30
0.0
40
0.235000
50
24.000000
51
109.778171
0
ARC
8
0
10
44.686746
20
0.441122
30
0.0
40
0.235000
50
204.000000
51
270.000000
0
LINE
8
0
10
44.685190
20
0.206127
30
0.0
11
46.264118
21
0.195670
31
0.0
0
ARC
8
0
10
46.266105
20
0.495663
30
0.0
40
0.300000
50
270.000000
51
24.620541
0
LINE
8
0
10
46.538831
20
0.620645
30
0.0
11
45.590181
21
2.726160
31
0.0
0
ARC
8
0
10
45.316661
20
2.602925
30
0.0
40
0.300000
50
24.254172
51
64.620541
0
LINE
8
0
10
45.445244
20
2.873971
30
0.0
11
44.937822
21
3.114691
31
0.0
0
ARC
8
0
10
44.852099
20
2.933993
30
0.0
40
0.200000
50
64.620541
51
184.620541
0
LINE
8
0
10
44.652749
20
2.917882
30
0.0
11
44.662051
21
2.802787
31
0.0
0
ARC
8
0
10
44.363026
20
2.778620
30
0.0
40
0.300000
50
304.620541
51
4.620541
0
LINE
8
0
10
44.533468
20
2.531740
30
0.0
11
42.904711
21
1.407274
31
0.0
0
LINE
8
0
10
42.904711
20
1.407274
30
0.0
11
42.722002
21
1.325927
31
0.0
0
ARC
8
0
10
42.600000
20
1.600009
30
0.0
40
0.300009
50
131.812671
51
293.995287
0
ARC
8
0
10
42.199975
20
2.047213
30
0.0
40
0.300000
50
311.812671
51
0.000000
0
LINE
8
0
10
42.499975
20
2.047213
30
0.0
11
42.499975
21
5.900000
31
0.0
0
ARC
8
0
10
42.799975
20
5.900000
30
0.0
40
0.300000
50
90.000000
51
180.000000
0
LINE
8
0
10
42.799975
20
6.200000
30
0.0
11
43.021169
21
6.200000
31
0.0
0
ARC
8
0
10
43.021169
20
5.900000
30
0.0
40
0.300000
50
58.600000
51
90.000000
0
LINE
8
0
10
43.177471
20
6.156065
30
0.0
11
44.695773
21
5.229290
31
0.0
0
ARC
8
0
10
44.799975
20
5.400000
30
0.0
40
0.200000
50
238.600000
51
0.000000
0
LINE
8
0
10
44.999975
20
5.400000
30
0.0
11
44.999975
21
9.600000
31
0.0
0
ARC
8
0
10
44.799975
20
9.600000
30
0.0
40
0.200000
50
0.000000
51
121.400000
0
LINE
8
0
10
44.695773
20
9.770710
30
0.0
11
43.177471
21
8.843934
31
0.0
0
ARC
8
0
10
43.021169
20
9.100000
30
0.0
40
0.300000
50
270.000000
51
301.400000
0
LINE
8
0
10
43.021169
20
8.800000
30
0.0
11
42.799975
21
8.800000
31
0.0
0
ARC
8
0
10
42.799975
20
9.100000
30
0.0
40
0.300000
50
180.000000
51
270.000000
0
LINE
8
0
10
42.499975
20
9.100000
30
0.0
11
42.499975
21
12.952786
31
0.0
0
ARC
8
0
10
42.199975
20
12.952786
30
0.0
40
0.300000
50
0.000000
51
48.187329
0
ARC
8
0
10
42.600000
20
13.399990
30
0.0
40
0.300009
50
66.004713
51
228.187329
0
LINE
8
0
10
42.722002
20
13.674073
30
0.0
11
42.904711
21
13.592725
31
0.0
0
LINE
8
0
10
42.904711
20
13.592725
30
0.0
11
44.533468
21
12.468259
31
0.0
0
ARC
8
0
10
44.363026
20
12.221380
30
0.0
40
0.300000
50
355.379459
51
55.379459
0
LINE
8
0
10
44.662051
20
12.197213
30
0.0
11
44.652749
21
12.082118
31
0.0
0
ARC
8
0
10
44.852099
20
12.066007
30
0.0
40
0.200000
50
175.379459
51
295.379459
0
LINE
8
0
10
44.937822
20
11.885309
30
0.0
11
45.445244
21
12.126028
31
0.0
0
ARC
8
0
10
45.316661
20
12.397075
30
0.0
40
0.300000
50
295.379459
51
335.745828
0
LINE
8
0
10
45.590181
20
12.273839
30
0.0
11
46.538831
21
14.379354
31
0.0
0
ARC
8
0
10
46.266105
20
14.504336
30
0.0
40
0.300000
50
335.379459
51
90.000000
0
LINE
8
0
10
46.264118
20
14.804330
30
0.0
11
44.685190
21
14.793873
31
0.0
0
ARC
8
0
10
44.686746
20
14.558878
30
0.0
40
0.235000
50
90.000000
51
156.000000
0
ARC
8
0
10
44.250811
20
14.735291
30
0.0
40
0.235000
50
250.221829
51
336.000000
0
LINE
8
0
10
44.171292
20
14.514154
30
0.0
11
42.869377
21
14.982312
31
0.0
0
ARC
8
0
10
42.767863
20
14.700009
30
0.0
40
0.300000
50
70.221829
51
90.000000
0
LINE
8
0
10
42.767863
20
15.000009
30
0.0
11
39.299975
21
15.000009
31
0.0
0
ARC
8
0
10
39.299975
20
15.300009
30
0.0
40
0.300000
50
180.000000
51
270.000000
0
LINE
8
0
10
38.999975
20
15.300009
30
0.0
11
38.999975
21
20.800009
31
0.0
0
ARC
8
0
10
39.299975
20
20.800009
30
0.0
40
0.300000
50
90.000000
51
180.000000
0
LINE
8
0
10
39.299975
20
21.100009
30
0.0
11
41.899975
21
21.100009
31
0.0
0
ARC
8
0
10
41.899975
20
21.400009
30
0.0
40
0.300000
50
270.000000
51
0.000000
0
LINE
8
0
10
42.199975
20
21.400009
30
0.0
11
42.199975
21
22.300009
31
0.0
0
ARC
8
0
10
41.899975
20
22.300009
30
0.0
40
0.300000
50
0.000000
51
90.000000
0
LINE
8
0
10
41.899975
20
22.600009
30
0.0
11
39.299975
21
22.600009
31
0.0
0
ARC
8
0
10
39.299975
20
22.900009
30
0.0
40
0.300000
50
180.000000
51
270.000000
0
LINE
8
0
10
38.999975
20
22.900009
30
0.0
11
38.999975
21
31.375594
31
0.0
0
ARC
8
0
10
39.299975
20
31.375594
30
0.0
40
0.300000
50
150.000000
51
180.000000
0
LINE
8
0
10
39.040168
20
31.525594
30
0.0
11
39.891421
21
33.000009
31
0.0
0
ARC
8
0
10
38.159371
20
34.000009
30
0.0
40
2.000000
50
330.000000
51
57.356923
0
ARC
8
0
10
39.400000
20
35.936717
30
0.0
40
0.300000
50
180.000000
51
237.356923
0
LINE
8
0
10
39.100000
20
35.936717
30
0.0
11
39.100000
21
37.700009
31
0.0
0
ARC
8
0
10
39.400000
20
37.700009
30
0.0
40
0.300000
50
90.000000
51
180.000000
0
LINE
8
0
10
39.400000
20
38.000009
30
0.0
11
41.800000
21
38.000009
31
0.0
0
ARC
8
0
10
41.800000
20
38.300009
30
0.0
40
0.300000
50
270.000000
51
0.000000
0
LINE
8
0
10
42.100000
20
38.300009
30
0.0
11
42.100000
21
40.175745
31
0.0
0
ARC
8
0
10
113.920500
20
12.800000
30
0.0
40
0.300000
50
60.000000
51
90.000000
0
LINE
8
0
10
113.920500
20
13.100000
30
0.0
11
101.000885
21
13.100000
31
0.0
0
ARC
8
0
10
101.000885
20
13.600000
30
0.0
40
0.500000
50
180.000000
51
270.000000
0
LINE
8
0
10
100.500885
20
13.600000
30
0.0
11
100.500885
21
14.500000
31
0.0
0
ARC
8
0
10
100.000885
20
14.500000
30
0.0
40
0.500000
50
0.000000
51
90.000000
0
LINE
8
0
10
100.000885
20
15.000000
30
0.0
11
97.232061
21
15.000000
31
0.0
0
ARC
8
0
10
97.232061
20
14.700000
30
0.0
40
0.300000
50
90.000000
51
109.778171
0
LINE
8
0
10
97.130547
20
14.982303
30
0.0
11
95.828658
21
14.514154
31
0.0
0
ARC
8
0
10
95.749139
20
14.735291
30
0.0
40
0.235000
50
204.000000
51
289.778171
0
ARC
8
0
10
95.313204
20
14.558878
30
0.0
40
0.235000
50
24.000000
51
90.000000
0
LINE
8
0
10
95.314761
20
14.793873
30
0.0
11
93.735833
21
14.804330
31
0.0
0
ARC
8
0
10
93.733846
20
14.504336
30
0.0
40
0.300000
50
90.000000
51
204.620541
0
LINE
8
0
10
93.461120
20
14.379354
30
0.0
11
94.409770
21
12.273839
31
0.0
0
ARC
8
0
10
94.683289
20
12.397075
30
0.0
40
0.300000
50
204.254172
51
244.620541
0
LINE
8
0
10
94.554706
20
12.126028
30
0.0
11
95.062129
21
11.885309
31
0.0
0
ARC
8
0
10
95.147851
20
12.066007
30
0.0
40
0.200000
50
244.620541
51
4.620541
0
LINE
8
0
10
95.347201
20
12.082118
30
0.0
11
95.337899
21
12.197213
31
0.0
0
ARC
8
0
10
95.636924
20
12.221380
30
0.0
40
0.300000
50
124.620541
51
184.620541
0
LINE
8
0
10
95.466483
20
12.468259
30
0.0
11
97.095239
21
13.592725
31
0.0
0
LINE
8
0
10
97.095239
20
13.592725
30
0.0
11
97.277948
21
13.674073
31
0.0
0
ARC
8
0
10
97.399950
20
13.399990
30
0.0
40
0.300009
50
311.812671
51
113.995287
0
ARC
8
0
10
97.799975
20
12.952786
30
0.0
40
0.300000
50
131.812671
51
180.000000
0
LINE
8
0
10
97.499975
20
12.952786
30
0.0
11
97.499975
21
9.100000
31
0.0
0
ARC
8
0
10
97.199975
20
9.100000
30
0.0
40
0.300000
50
270.000000
51
0.000000
0
LINE
8
0
10
97.199975
20
8.800000
30
0.0
11
96.978782
21
8.800000
31
0.0
0
ARC
8
0
10
96.978782
20
9.100000
30
0.0
40
0.300000
50
238.600000
51
270.000000
0
LINE
8
0
10
96.822479
20
8.843934
30
0.0
11
95.304177
21
9.770710
31
0.0
0
ARC
8
0
10
95.199975
20
9.600000
30
0.0
40
0.200000
50
58.600000
51
180.000000
0
LINE
8
0
10
94.999975
20
9.600000
30
0.0
11
94.999975
21
5.400000
31
0.0
0
ARC
8
0
10
95.199975
20
5.400000
30
0.0
40
0.200000
50
180.000000
51
301.400000
0
LINE
8
0
10
95.304177
20
5.229290
30
0.0
11
96.822479
21
6.156065
31
0.0
0
ARC
8
0
10
96.978782
20
5.900000
30
0.0
40
0.300000
50
90.000000
51
121.400000
0
LINE
8
0
10
96.978782
20
6.200000
30
0.0
11
97.199975
21
6.200000
31
0.0
0
ARC
8
0
10
97.199975
20
5.900000
30
0.0
40
0.300000
50
0.000000
51
90.000000
0
LINE
8
0
10
97.499975
20
5.900000
30
0.0
11
97.499975
21
2.047213
31
0.0
0
ARC
8
0
10
97.799975
20
2.047213
30
0.0
40
0.300000
50
180.000000
51
228.187329
0
ARC
8
0
10
97.399950
20
1.600009
30
0.0
40
0.300009
50
246.004713
51
48.187329
0
LINE
8
0
10
97.277948
20
1.325927
30
0.0
11
97.095239
21
1.407274
31
0.0
0
LINE
8
0
10
97.095239
20
1.407274
30
0.0
11
95.466483
21
2.531740
31
0.0
0
ARC
8
0
10
95.636924
20
2.778620
30
0.0
40
0.300000
50
175.379459
51
235.379459
0
LINE
8
0
10
95.337899
20
2.802787
30
0.0
11
95.347201
21
2.917882
31
0.0
0
ARC
8
0
10
95.147851
20
2.933993
30
0.0
40
0.200000
50
355.379459
51
115.379459
0
LINE
8
0
10
95.062129
20
3.114691
30
0.0
11
94.554706
21
2.873971
31
0.0
0
ARC
8
0
10
94.683289
20
2.602925
30
0.0
40
0.300000
50
115.379459
51
155.745828
0
LINE
8
0
10
94.409770
20
2.726160
30
0.0
11
93.461120
21
0.620645
31
0.0
0
ARC
8
0
10
93.733846
20
0.495663
30
0.0
40
0.300000
50
155.379459
51
270.000000
0
LINE
8
0
10
93.735833
20
0.195670
30
0.0
11
95.314761
21
0.206127
31
0.0
0
ARC
8
0
10
95.313204
20
0.441122
30
0.0
40
0.235000
50
270.000000
51
336.000000
0
ARC
8
0
10
95.749139
20
0.264708
30
0.0
40
0.235000
50
70.221829
51
156.000000
0
LINE
8
0
10
95.828658
20
0.485845
30
0.0
11
97.130547
21
0.017697
31
0.0
0
ARC
8
0
10
97.232061
20
0.300000
30
0.0
40
0.300000
50
250.221829
51
270.000000
0
LINE
8
0
10
97.232061
20
0.000000
30
0.0
11
98.800000
21
0.000000
31
0.0
0
ARC
8
0
10
98.800000
20
0.500000
30
0.0
40
0.500000
50
270.000000
51
0.000000
0
LINE
8
0
10
99.300000
20
0.500000
30
0.0
11
99.300000
21
0.900000
31
0.0
0
ARC
8
0
10
99.800000
20
0.900000
30
0.0
40
0.500000
50
90.000000
51
180.000000
0
LINE
8
0
10
99.800000
20
1.400000
30
0.0
11
102.300469
21
1.400000
31
0.0
0
ARC
8
0
10
102.300469
20
1.900000
30
0.0
40
0.500000
50
270.000000
51
0.000000
0
LINE
8
0
10
102.800469
20
1.900000
30
0.0
11
102.800469
21
2.300000
31
0.0
0
ARC
8
0
10
102.300469
20
2.300000
30
0.0
40
0.500000
50
0.000000
51
90.000000
0
LINE
8
0
10
102.300469
20
2.800000
30
0.0
11
100.600469
21
2.800000
31
0.0
0
ARC
8
0
10
100.600469
20
3.300000
30
0.0
40
0.500000
50
180.000000
51
270.000000
0
LINE
8
0
10
100.100469
20
3.300000
30
0.0
11
100.100469
21
4.600000
31
0.0
0
ARC
8
0
10
100.600469
20
4.600000
30
0.0
40
0.500000
50
90.000000
51
180.000000
0
LINE
8
0
10
100.600469
20
5.100000
30
0.0
11
107.676621
21
5.100000
31
0.0
0
ARC
8
0
10
107.676621
20
5.400000
30
0.0
40
0.300000
50
270.000000
51
315.000000
0
LINE
8
0
10
107.888753
20
5.187868
30
0.0
11
108.588753
21
5.887868
31
0.0
0
ARC
8
0
10
108.800885
20
5.675736
30
0.0
40
0.300000
50
45.000000
51
135.000000
0
LINE
8
0
10
109.013017
20
5.887868
30
0.0
11
109.713017
21
5.187868
31
0.0
0
ARC
8
0
10
109.925149
20
5.400000
30
0.0
40
0.300000
50
225.000000
51
270.000000
0
LINE
8
0
10
109.925149
20
5.100000
30
0.0
11
113.920500
21
5.100000
31
0.0
0
ARC
8
0
10
113.920500
20
5.400000
30
0.0
40
0.300000
50
270.000000
51
300.000000
0
LINE
8
0
10
114.070500
20
5.140192
30
0.0
11
115.850885
21
6.168098
31
0.0
0
ARC
8
0
10
115.700885
20
6.427905
30
0.0
40
0.300000
50
300.000000
51
0.000000
0
LINE
8
0
10
116.000885
20
6.427905
30
0.0
11
116.000885
21
11.772094
31
0.0
0
ARC
8
0
10
115.700885
20
11.772094
30
0.0
40
0.300000
50
0.000000
51
60.000000
0
LINE
8
0
10
115.850885
20
12.031902
30
0.0
11
114.070500
21
13.059807
31
0.0
0
LINE
8
0
10
65.050000
20
12.984687
30
0.0
11
74.950000
21
12.984687
31
0.0
0
ARC
8
0
10
74.950000
20
12.684687
30
0.0
40
0.300000
50
0.000000
51
90.000000
0
LINE
8
0
10
75.250000
20
12.684687
30
0.0
11
75.250000
21
8.884687
31
0.0
0
ARC
8
0
10
75.750000
20
8.884687
30
0.0
40
0.500000
50
180.000000
51
0.000000
0
LINE
8
0
10
76.250000
20
8.884687
30
0.0
11
76.250000
21
12.684687
31
0.0
0
ARC
8
0
10
76.550000
20
12.684687
30
0.0
40
0.300000
50
90.000000
51
180.000000
0
LINE
8
0
10
76.550000
20
12.984687
30
0.0
11
86.450000
21
12.984687
31
0.0
0
ARC
8
0
10
86.450000
20
12.684687
30
0.0
40
0.300000
50
0.000000
51
90.000000
0
LINE
8
0
10
86.750000
20
12.684687
30
0.0
11
86.750000
21
8.884687
31
0.0
0
ARC
8
0
10
87.250000
20
8.884687
30
0.0
40
0.500000
50
180.000000
51
0.000000
0
LINE
8
0
10
87.750000
20
8.884687
30
0.0
11
87.750000
21
12.684687
31
0.0
0
ARC
8
0
10
88.050000
20
12.684687
30
0.0
40
0.300000
50
90.000000
51
180.000000
0
LINE
8
0
10
88.050000
20
12.984687
30
0.0
11
90.354670
21
12.984687
31
0.0
0
ARC
8
0
10
90.354670
20
11.984687
30
0.0
40
1.000000
50
35.254172
51
90.000000
0
LINE
8
0
10
91.171269
20
12.561891
30
0.0
11
92.694090
21
10.407482
31
0.0
0
ARC
8
0
10
93.510690
20
10.984687
30
0.0
40
1.000000
50
215.254172
51
270.000000
0
LINE
8
0
10
93.510690
20
9.984687
30
0.0
11
94.612000
21
9.984687
31
0.0
0
ARC
8
0
10
94.612000
20
8.784687
30
0.0
40
1.200000
50
60.018361
51
90.000000
0
LINE
8
0
10
95.211667
20
9.824109
30
0.0
11
96.793611
21
8.911450
31
0.0
0
ARC
8
0
10
96.893555
20
9.084687
30
0.0
40
0.200000
50
240.018361
51
270.000000
0
LINE
8
0
10
96.893555
20
8.884687
30
0.0
11
97.100000
21
8.884687
31
0.0
0
ARC
8
0
10
97.100000
20
9.284687
30
0.0
40
0.400000
50
270.000000
51
0.000000
0
LINE
8
0
10
97.500000
20
9.284687
30
0.0
11
97.500000
21
12.684687
31
0.0
0
ARC
8
0
10
97.100000
20
12.684687
30
0.0
40
0.400000
50
0.000000
51
90.000000
0
LINE
8
0
10
97.100000
20
13.084687
30
0.0
11
96.893555
21
13.084687
31
0.0
0
ARC
8
0
10
96.893555
20
12.884687
30
0.0
40
0.200000
50
90.000000
51
119.981639
0
LINE
8
0
10
96.793611
20
13.057924
30
0.0
11
95.211667
21
12.145264
31
0.0
0
ARC
8
0
10
94.612000
20
13.184687
30
0.0
40
1.200000
50
270.000000
51
299.981639
0
LINE
8
0
10
94.612000
20
11.984687
30
0.0
11
94.183766
21
11.984687
31
0.0
0
ARC
8
0
10
94.183766
20
12.284687
30
0.0
40
0.300000
50
215.254172
51
270.000000
0
LINE
8
0
10
93.938786
20
12.111525
30
0.0
11
92.057347
21
14.773289
31
0.0
0
ARC
8
0
10
91.649047
20
14.484687
30
0.0
40
0.500000
50
35.254172
51
90.000000
0
LINE
8
0
10
91.649047
20
14.984687
30
0.0
11
48.350952
21
14.984687
31
0.0
0
ARC
8
0
10
48.350952
20
14.484687
30
0.0
40
0.500000
50
90.000000
51
144.745828
0
LINE
8
0
10
47.942653
20
14.773289
30
0.0
11
46.061213
21
12.111525
31
0.0
0
ARC
8
0
10
45.816233
20
12.284687
30
0.0
40
0.300000
50
270.000000
51
324.745828
0
LINE
8
0
10
45.816233
20
11.984687
30
0.0
11
45.387999
21
11.984687
31
0.0
0
ARC
8
0
10
45.387999
20
13.184687
30
0.0
40
1.200000
50
240.018361
51
270.000000
0
LINE
8
0
10
44.788333
20
12.145264
30
0.0
11
43.206389
21
13.057924
31
0.0
0
ARC
8
0
10
43.106444
20
12.884687
30
0.0
40
0.200000
50
60.018361
51
90.000000
0
LINE
8
0
10
43.106444
20
13.084687
30
0.0
11
42.900000
21
13.084687
31
0.0
0
ARC
8
0
10
42.900000
20
12.684687
30
0.0
40
0.400000
50
90.000000
51
180.000000
0
LINE
8
0
10
42.500000
20
12.684687
30
0.0
11
42.500000
21
9.284687
31
0.0
0
ARC
8
0
10
42.900000
20
9.284687
30
0.0
40
0.400000
50
180.000000
51
270.000000
0
LINE
8
0
10
42.900000
20
8.884687
30
0.0
11
43.106444
21
8.884687
31
0.0
0
ARC
8
0
10
43.106444
20
9.084687
30
0.0
40
0.200000
50
270.000000
51
299.981639
0
LINE
8
0
10
43.206389
20
8.911450
30
0.0
11
44.788333
21
9.824109
31
0.0
0
ARC
8
0
10
45.387999
20
8.784687
30
0.0
40
1.200000
50
90.000000
51
119.981639
0
LINE
8
0
10
45.387999
20
9.984687
30
0.0
11
46.489310
21
9.984687
31
0.0
0
ARC
8
0
10
46.489310
20
10.984687
30
0.0
40
1.000000
50
270.000000
51
324.745828
0
LINE
8
0
10
47.305909
20
10.407482
30
0.0
11
48.828731
21
12.561891
31
0.0
0
ARC
8
0
10
49.645330
20
11.984687
30
0.0
40
1.000000
50
90.000000
51
144.745828
0
LINE
8
0
10
49.645330
20
12.984687
30
0.0
11
51.950000
21
12.984687
31
0.0
0
ARC
8
0
10
51.950000
20
12.684687
30
0.0
40
0.300000
50
0.000000
51
90.000000
0
LINE
8
0
10
52.250000
20
12.684687
30
0.0
11
52.250000
21
8.884687
31
0.0
0
ARC
8
0
10
52.750000
20
8.884687
30
0.0
40
0.500000
50
180.000000
51
0.000000
0
LINE
8
0
10
53.250000
20
8.884687
30
0.0
11
53.250000
21
12.684687
31
0.0
0
ARC
8
0
10
53.550000
20
12.684687
30
0.0
40
0.300000
50
90.000000
51
180.000000
0
LINE
8
0
10
53.550000
20
12.984687
30
0.0
11
63.450000
21
12.984687
31
0.0
0
ARC
8
0
10
63.450000
20
12.684687
30
0.0
40
0.300000
50
0.000000
51
90.000000
0
LINE
8
0
10
63.750000
20
12.684687
30
0.0
11
63.750000
21
8.884687
31
0.0
0
ARC
8
0
10
64.250000
20
8.884687
30
0.0
40
0.500000
50
180.000000
51
0.000000
0
LINE
8
0
10
64.750000
20
8.884687
30
0.0
11
64.750000
21
12.684687
31
0.0
0
ARC
8
0
10
65.050000
20
12.684687
30
0.0
40
0.300000
50
90.000000
51
180.000000
0
LINE
8
0
10
65.050000
20
2.015313
30
0.0
11
74.950000
21
2.015313
31
0.0
0
ARC
8
0
10
74.950000
20
2.315313
30
0.0
40
0.300000
50
270.000000
51
0.000000
0
LINE
8
0
10
75.250000
20
2.315313
30
0.0
11
75.250000
21
6.115313
31
0.0
0
ARC
8
0
10
75.750000
20
6.115313
30
0.0
40
0.500000
50
0.000000
51
180.000000
0
LINE
8
0
10
76.250000
20
6.115313
30
0.0
11
76.250000
21
2.315313
31
0.0
0
ARC
8
0
10
76.550000
20
2.315313
30
0.0
40
0.300000
50
180.000000
51
270.000000
0
LINE
8
0
10
76.550000
20
2.015313
30
0.0
11
86.450000
21
2.015313
31
0.0
0
ARC
8
0
10
86.450000
20
2.315313
30
0.0
40
0.300000
50
270.000000
51
0.000000
0
LINE
8
0
10
86.750000
20
2.315313
30
0.0
11
86.750000
21
6.115313
31
0.0
0
ARC
8
0
10
87.250000
20
6.115313
30
0.0
40
0.500000
50
0.000000
51
180.000000
0
LINE
8
0
10
87.750000
20
6.115313
30
0.0
11
87.750000
21
2.315313
31
0.0
0
ARC
8
0
10
88.050000
20
2.315313
30
0.0
40
0.300000
50
180.000000
51
270.000000
0
LINE
8
0
10
88.050000
20
2.015313
30
0.0
11
90.354670
21
2.015313
31
0.0
0
ARC
8
0
10
90.354670
20
3.015313
30
0.0
40
1.000000
50
270.000000
51
324.745828
0
LINE
8
0
10
91.171269
20
2.438108
30
0.0
11
92.694090
21
4.592517
31
0.0
0
ARC
8
0
10
93.510690
20
4.015313
30
0.0
40
1.000000
50
90.000000
51
144.745828
0
LINE
8
0
10
93.510690
20
5.015313
30
0.0
11
94.612000
21
5.015313
31
0.0
0
ARC
8
0
10
94.612000
20
6.215313
30
0.0
40
1.200000
50
270.000000
51
299.981639
0
LINE
8
0
10
95.211667
20
5.175890
30
0.0
11
96.793611
21
6.088550
31
0.0
0
ARC
8
0
10
96.893555
20
5.915313
30
0.0
40
0.200000
50
90.000000
51
119.981639
0
LINE
8
0
10
96.893555
20
6.115313
30
0.0
11
97.100000
21
6.115313
31
0.0
0
ARC
8
0
10
97.100000
20
5.715313
30
0.0
40
0.400000
50
0.000000
51
90.000000
0
LINE
8
0
10
97.500000
20
5.715313
30
0.0
11
97.500000
21
2.315313
31
0.0
0
ARC
8
0
10
97.100000
20
2.315313
30
0.0
40
0.400000
50
270.000000
51
0.000000
0
LINE
8
0
10
97.100000
20
1.915313
30
0.0
11
96.893555
21
1.915313
31
0.0
0
ARC
8
0
10
96.893555
20
2.115313
30
0.0
40
0.200000
50
240.018361
51
270.000000
0
LINE
8
0
10
96.793611
20
1.942076
30
0.0
11
95.211667
21
2.854735
31
0.0
0
ARC
8
0
10
94.612000
20
1.815313
30
0.0
40
1.200000
50
60.018361
51
90.000000
0
LINE
8
0
10
94.612000
20
3.015313
30
0.0
11
94.183766
21
3.015313
31
0.0
0
ARC
8
0
10
94.183766
20
2.715313
30
0.0
40
0.300000
50
90.000000
51
144.745828
0
LINE
8
0
10
93.938786
20
2.888474
30
0.0
11
92.057347
21
0.226710
31
0.0
0
ARC
8
0
10
91.649047
20
0.515313
30
0.0
40
0.500000
50
270.000000
51
324.745828
0
LINE
8
0
10
91.649047
20
0.015313
30
0.0
11
48.350952
21
0.015313
31
0.0
0
ARC
8
0
10
48.350952
20
0.515313
30
0.0
40
0.500000
50
215.254172
51
270.000000
0
LINE
8
0
10
47.942653
20
0.226710
30
0.0
11
46.061213
21
2.888474
31
0.0
0
ARC
8
0
10
45.816233
20
2.715313
30
0.0
40
0.300000
50
35.254172
51
90.000000
0
LINE
8
0
10
45.816233
20
3.015313
30
0.0
11
45.387999
21
3.015313
31
0.0
0
ARC
8
0
10
45.387999
20
1.815313
30
0.0
40
1.200000
50
90.000000
51
119.981639
0
LINE
8
0
10
44.788333
20
2.854735
30
0.0
11
43.206389
21
1.942076
31
0.0
0
ARC
8
0
10
43.106444
20
2.115313
30
0.0
40
0.200000
50
270.000000
51
299.981639
0
LINE
8
0
10
43.106444
20
1.915313
30
0.0
11
42.900000
21
1.915313
31
0.0
0
ARC
8
0
10
42.900000
20
2.315313
30
0.0
40
0.400000
50
180.000000
51
270.000000
0
LINE
8
0
10
42.500000
20
2.315313
30
0.0
11
42.500000
21
5.715313
31
0.0
0
ARC
8
0
10
42.900000
20
5.715313
30
0.0
40
0.400000
50
90.000000
51
180.000000
0
LINE
8
0
10
42.900000
20
6.115313
30
0.0
11
43.106444
21
6.115313
31
0.0
0
ARC
8
0
10
43.106444
20
5.915313
30
0.0
40
0.200000
50
60.018361
51
90.000000
0
LINE
8
0
10
43.206389
20
6.088550
30
0.0
11
44.788333
21
5.175890
31
0.0
0
ARC
8
0
10
45.387999
20
6.215313
30
0.0
40
1.200000
50
240.018361
51
270.000000
0
LINE
8
0
10
45.387999
20
5.015313
30
0.0
11
46.489310
21
5.015313
31
0.0
0
ARC
8
0
10
46.489310
20
4.015313
30
0.0
40
1.000000
50
35.254172
51
90.000000
0
LINE
8
0
10
47.305909
20
4.592517
30
0.0
11
48.828731
21
2.438108
31
0.0
0
ARC
8
0
10
49.645330
20
3.015313
30
0.0
40
1.000000
50
215.254172
51
270.000000
0
LINE
8
0
10
49.645330
20
2.015313
30
0.0
11
51.950000
21
2.015313
31
0.0
0
ARC
8
0
10
51.950000
20
2.315313
30
0.0
40
0.300000
50
270.000000
51
0.000000
0
LINE
8
0
10
52.250000
20
2.315313
30
0.0
11
52.250000
21
6.115313
31
0.0
0
ARC
8
0
10
52.750000
20
6.115313
30
0.0
40
0.500000
50
0.000000
51
180.000000
0
LINE
8
0
10
53.250000
20
6.115313
30
0.0
11
53.250000
21
2.315313
31
0.0
0
ARC
8
0
10
53.550000
20
2.315313
30
0.0
40
0.300000
50
180.000000
51
270.000000
0
LINE
8
0
10
53.550000
20
2.015313
30
0.0
11
63.450000
21
2.015313
31
0.0
0
ARC
8
0
10
63.450000
20
2.315313
30
0.0
40
0.300000
50
270.000000
51
0.000000
0
LINE
8
0
10
63.750000
20
2.315313
30
0.0
11
63.750000
21
6.115313
31
0.0
0
ARC
8
0
10
64.250000
20
6.115313
30
0.0
40
0.500000
50
0.000000
51
180.000000
0
LINE
8
0
10
64.750000
20
6.115313
30
0.0
11
64.750000
21
2.315313
31
0.0
0
ARC
8
0
10
65.050000
20
2.315313
30
0.0
40
0.300000
50
180.000000
51
270.000000
0
ARC
8
0
10
52.001300
20
15.600009
30
0.0
40
0.300000
50
270.000000
51
0.000000
0
LINE
8
0
10
52.301300
20
15.600009
30
0.0
11
52.301300
21
18.600009
31
0.0
0
ARC
8
0
10
52.801300
20
18.600009
30
0.0
40
0.500000
50
90.000000
51
180.000000
0
LINE
8
0
10
52.801300
20
19.100009
30
0.0
11
61.601300
21
19.100009
31
0.0
0
ARC
8
0
10
61.601300
20
18.600009
30
0.0
40
0.500000
50
0.000000
51
90.000000
0
LINE
8
0
10
62.101300
20
18.600009
30
0.0
11
62.101300
21
15.600009
31
0.0
0
ARC
8
0
10
62.401300
20
15.600009
30
0.0
40
0.300000
50
180.000000
51
270.000000
0
LINE
8
0
10
62.401300
20
15.300009
30
0.0
11
63.401300
21
15.300009
31
0.0
0
ARC
8
0
10
63.401300
20
15.600009
30
0.0
40
0.300000
50
270.000000
51
0.000000
0
LINE
8
0
10
63.701300
20
15.600009
30
0.0
11
63.701300
21
18.600009
31
0.0
0
ARC
8
0
10
64.201300
20
18.600009
30
0.0
40
0.500000
50
90.000000
51
180.000000
0
LINE
8
0
10
64.201300
20
19.100009
30
0.0
11
76.601300
21
19.100009
31
0.0
0
ARC
8
0
10
76.601300
20
18.600009
30
0.0
40
0.500000
50
0.000000
51
90.000000
0
LINE
8
0
10
77.101300
20
18.600009
30
0.0
11
77.101300
21
15.600009
31
0.0
0
ARC
8
0
10
77.401300
20
15.600009
30
0.0
40
0.300000
50
180.000000
51
270.000000
0
LINE
8
0
10
77.401300
20
15.300009
30
0.0
11
78.401300
21
15.300009
31
0.0
0
ARC
8
0
10
78.401300
20
15.600009
30
0.0
40
0.300000
50
270.000000
51
0.000000
0
LINE
8
0
10
78.701300
20
15.600009
30
0.0
11
78.701300
21
18.600009
31
0.0
0
ARC
8
0
10
79.201300
20
18.600009
30
0.0
40
0.500000
50
90.000000
51
180.000000
0
LINE
8
0
10
79.201300
20
19.100009
30
0.0
11
88.001300
21
19.100009
31
0.0
0
ARC
8
0
10
88.001300
20
18.600009
30
0.0
40
0.500000
50
0.000000
51
90.000000
0
LINE
8
0
10
88.501300
20
18.600009
30
0.0
11
88.501300
21
15.600009
31
0.0
0
ARC
8
0
10
88.801300
20
15.600009
30
0.0
40
0.300000
50
180.000000
51
270.000000
0
LINE
8
0
10
88.801300
20
15.300009
30
0.0
11
89.801300
21
15.300009
31
0.0
0
ARC
8
0
10
89.801300
20
15.600009
30
0.0
40
0.300000
50
270.000000
51
0.000000
0
LINE
8
0
10
90.101300
20
15.600009
30
0.0
11
90.101300
21
19.600009
31
0.0
0
ARC
8
0
10
91.601300
20
19.600009
30
0.0
40
1.500000
50
90.000000
51
180.000000
0
LINE
8
0
10
91.601300
20
21.100009
30
0.0
11
97.101300
21
21.100009
31
0.0
0
ARC
8
0
10
97.101300
20
21.900009
30
0.0
40
0.800000
50
270.000000
51
0.000000
0
LINE
8
0
10
97.901300
20
21.900009
30
0.0
11
97.901300
21
22.486121
31
0.0
0
ARC
8
0
10
96.901300
20
22.486121
30
0.0
40
1.000000
50
0.000000
51
12.994617
0
LINE
8
0
10
97.875691
20
22.710980
30
0.0
11
96.457197
21
28.857786
31
0.0
0
ARC
8
0
10
97.431589
20
29.082646
30
0.0
40
1.000000
50
165.074419
51
192.994617
0
LINE
8
0
10
96.465327
20
29.340210
30
0.0
11
98.421132
21
36.677478
31
0.0
0
ARC
8
0
10
97.454870
20
36.935042
30
0.0
40
1.000000
50
345.074419
51
0.000000
0
LINE
8
0
10
98.454870
20
36.935042
30
0.0
11
98.454870
21
37.819519
31
0.0
0
ARC
8
0
10
98.154870
20
37.819519
30
0.0
40
0.300000
50
0.000000
51
68.962489
0
LINE
8
0
10
98.262564
20
38.099523
30
0.0
11
98.193606
21
38.126045
31
0.0
0
ARC
8
0
10
98.301300
20
38.406049
30
0.0
40
0.300000
50
180.000000
51
248.962489
0
LINE
8
0
10
98.001300
20
38.406049
30
0.0
11
98.001300
21
40.275745
31
0.0
0
ARC
8
0
10
98.301300
20
40.275745
30
0.0
40
0.300000
50
135.000000
51
180.000000
0
LINE
8
0
10
98.089168
20
40.487877
30
0.0
11
98.513432
21
40.912141
31
0.0
0
ARC
8
0
10
98.725564
20
40.700009
30
0.0
40
0.300000
50
90.000000
51
135.000000
0
LINE
8
0
10
98.725564
20
41.000009
30
0.0
11
99.501300
21
41.000009
31
0.0
0
ARC
8
0
10
99.501300
20
41.300009
30
0.0
40
0.300000
50
270.000000
51
0.000000
0
LINE
8
0
10
99.801300
20
41.300009
30
0.0
11
99.801300
21
43.100009
31
0.0
0
ARC
8
0
10
99.501300
20
43.100009
30
0.0
40
0.300000
50
0.000000
51
90.000000
0
LINE
8
0
10
99.501300
20
43.400009
30
0.0
11
87.601300
21
43.400009
31
0.0
0
ARC
8
0
10
87.601300
20
42.400009
30
0.0
40
1.000000
50
90.000000
51
180.000000
0
LINE
8
0
10
86.601300
20
42.400009
30
0.0
11
86.601300
21
38.014631
31
0.0
0
ARC
8
0
10
87.401300
20
38.014631
30
0.0
40
0.800000
50
180.000000
51
255.068583
0
LINE
8
0
10
87.195170
20
37.241644
30
0.0
11
87.878599
21
37.059396
31
0.0
0
ARC
8
0
10
87.801300
20
36.769525
30
0.0
40
0.300000
50
0.000000
51
75.068583
0
LINE
8
0
10
88.101300
20
36.769525
30
0.0
11
88.101300
21
21.600009
31
0.0
0
ARC
8
0
10
87.601300
20
21.600009
30
0.0
40
0.500000
50
270.000000
51
0.000000
0
LINE
8
0
10
87.601300
20
21.100009
30
0.0
11
53.201300
21
21.100009
31
0.0
0
ARC
8
0
10
53.201300
20
21.600009
30
0.0
40
0.500000
50
180.000000
51
270.000000
0
LINE
8
0
10
52.701300
20
21.600009
30
0.0
11
52.701300
21
36.769525
31
0.0
0
ARC
8
0
10
53.001300
20
36.769525
30
0.0
40
0.300000
50
104.931417
51
180.000000
0
LINE
8
0
10
52.924001
20
37.059396
30
0.0
11
53.607430
21
37.241644
31
0.0
0
ARC
8
0
10
53.401300
20
38.014631
30
0.0
40
0.800000
50
284.931417
51
0.000000
0
LINE
8
0
10
54.201300
20
38.014631
30
0.0
11
54.201300
21
42.400009
31
0.0
0
ARC
8
0
10
53.201300
20
42.400009
30
0.0
40
1.000000
50
0.000000
51
90.000000
0
LINE
8
0
10
53.201300
20
43.400009
30
0.0
11
41.301300
21
43.400009
31
0.0
0
ARC
8
0
10
41.301300
20
43.100009
30
0.0
40
0.300000
50
90.000000
51
180.000000
0
LINE
8
0
10
41.001300
20
43.100009
30
0.0
11
41.001300
21
41.300009
31
0.0
0
ARC
8
0
10
41.301300
20
41.300009
30
0.0
40
0.300000
50
180.000000
51
270.000000
0
LINE
8
0
10
41.301300
20
41.000009
30
0.0
11
42.077036
21
41.000009
31
0.0
0
ARC
8
0
10
42.077036
20
40.700009
30
0.0
40
0.300000
50
45.000000
51
90.000000
0
LINE
8
0
10
42.289168
20
40.912141
30
0.0
11
42.713432
21
40.487877
31
0.0
0
ARC
8
0
10
42.501300
20
40.275745
30
0.0
40
0.300000
50
0.000000
51
45.000000
0
LINE
8
0
10
42.801300
20
40.275745
30
0.0
11
42.801300
21
38.406049
31
0.0
0
ARC
8
0
10
42.501300
20
38.406049
30
0.0
40
0.300000
50
291.037511
51
0.000000
0
LINE
8
0
10
42.608994
20
38.126045
30
0.0
11
42.540036
21
38.099523
31
0.0
0
ARC
8
0
10
42.647729
20
37.819519
30
0.0
40
0.300000
50
111.037511
51
180.000000
0
LINE
8
0
10
42.347729
20
37.819519
30
0.0
11
42.347729
21
36.935042
31
0.0
0
ARC
8
0
10
43.347729
20
36.935042
30
0.0
40
1.000000
50
180.000000
51
194.925581
0
LINE
8
0
10
42.381468
20
36.677478
30
0.0
11
44.337272
21
29.340210
31
0.0
0
ARC
8
0
10
43.371011
20
29.082646
30
0.0
40
1.000000
50
347.005383
51
14.925581
0
LINE
8
0
10
44.345402
20
28.857786
30
0.0
11
42.926909
21
22.710980
31
0.0
0
ARC
8
0
10
43.901300
20
22.486121
30
0.0
40
1.000000
50
167.005383
51
180.000000
0
LINE
8
0
10
42.901300
20
22.486121
30
0.0
11
42.901300
21
21.900009
31
0.0
0
ARC
8
0
10
43.701300
20
21.900009
30
0.0
40
0.800000
50
180.000000
51
270.000000
0
LINE
8
0
10
43.701300
20
21.100009
30
0.0
11
49.201300
21
21.100009
31
0.0
0
ARC
8
0
10
49.201300
20
19.600009
30
0.0
40
1.500000
50
0.000000
51
90.000000
0
LINE
8
0
10
50.701300
20
19.600009
30
0.0
11
50.701300
21
15.600009
31
0.0
0
ARC
8
0
10
51.001300
20
15.600009
30
0.0
40
0.300000
50
180.000000
51
270.000000
0
LINE
8
0
10
51.001300
20
15.300009
30
0.0
11
52.001300
21
15.300009
31
0.0
0
LINE
8
0
10
44.274168
20
23.212439
30
0.0
11
45.581749
21
28.878622
31
0.0
0
ARC
8
0
10
44.607358
20
29.103481
30
0.0
40
1.000000
50
347.005383
51
14.925581
0
LINE
8
0
10
45.573619
20
29.361046
30
0.0
11
43.558416
21
36.921151
31
0.0
0
ARC
8
0
10
43.848294
20
36.998420
30
0.0
40
0.300000
50
115.705312
51
194.925581
0
ARC
8
0
10
43.501300
20
37.719249
30
0.0
40
0.500000
50
295.705312
51
0.000000
0
LINE
8
0
10
44.001300
20
37.719249
30
0.0
11
44.001300
21
40.651677
31
0.0
0
ARC
8
0
10
43.701300
20
40.651677
30
0.0
40
0.300000
50
0.000000
51
56.251011
0
ARC
8
0
10
44.201300
20
41.400009
30
0.0
40
0.600000
50
33.748989
51
236.251011
0
ARC
8
0
10
44.949631
20
41.900009
30
0.0
40
0.300000
50
213.748989
51
270.000000
0
LINE
8
0
10
44.949631
20
41.600009
30
0.0
11
51.901300
21
41.600009
31
0.0
0
ARC
8
0
10
51.901300
20
41.100009
30
0.0
40
0.500000
50
0.000000
51
90.000000
0
LINE
8
0
10
52.401300
20
41.100009
30
0.0
11
52.401300
21
39.167049
31
0.0
0
ARC
8
0
10
51.901300
20
39.167049
30
0.0
40
0.500000
50
284.931417
51
0.000000
0
LINE
8
0
10
52.030131
20
38.683931
30
0.0
11
51.472469
21
38.535221
31
0.0
0
ARC
8
0
10
51.601300
20
38.052104
30
0.0
40
0.500000
50
104.931417
51
180.000000
0
LINE
8
0
10
51.101300
20
38.052104
30
0.0
11
51.101300
21
23.100009
31
0.0
0
ARC
8
0
10
50.601300
20
23.100009
30
0.0
40
0.500000
50
270.000000
51
0.000000
0
LINE
8
0
10
50.601300
20
22.600009
30
0.0
11
44.761364
21
22.600009
31
0.0
0
ARC
8
0
10
44.761364
20
23.100009
30
0.0
40
0.500000
50
167.005383
51
270.000000
0
LINE
8
0
10
95.228981
20
29.361046
30
0.0
11
97.244184
21
36.921151
31
0.0
0
ARC
8
0
10
96.954306
20
36.998420
30
0.0
40
0.300000
50
345.074419
51
64.294688
0
ARC
8
0
10
97.301300
20
37.719249
30
0.0
40
0.500000
50
180.000000
51
244.294688
0
LINE
8
0
10
96.801300
20
37.719249
30
0.0
11
96.801300
21
40.651677
31
0.0
0
ARC
8
0
10
97.101300
20
40.651677
30
0.0
40
0.300000
50
123.748989
51
180.000000
0
ARC
8
0
10
96.601300
20
41.400009
30
0.0
40
0.600000
50
303.748989
51
146.251011
0
ARC
8
0
10
95.852968
20
41.900009
30
0.0
40
0.300000
50
270.000000
51
326.251011
0
LINE
8
0
10
95.852968
20
41.600009
30
0.0
11
88.901300
21
41.600009
31
0.0
0
ARC
8
0
10
88.901300
20
41.100009
30
0.0
40
0.500000
50
90.000000
51
180.000000
0
LINE
8
0
10
88.401300
20
41.100009
30
0.0
11
88.401300
21
39.167049
31
0.0
0
ARC
8
0
10
88.901300
20
39.167049
30
0.0
40
0.500000
50
180.000000
51
255.068583
0
LINE
8
0
10
88.772469
20
38.683931
30
0.0
11
89.330131
21
38.535221
31
0.0
0
ARC
8
0
10
89.201300
20
38.052104
30
0.0
40
0.500000
50
0.000000
51
75.068583
0
LINE
8
0
10
89.701300
20
38.052104
30
0.0
11
89.701300
21
23.100009
31
0.0
0
ARC
8
0
10
90.201300
20
23.100009
30
0.0
40
0.500000
50
180.000000
51
270.000000
0
LINE
8
0
10
90.201300
20
22.600009
30
0.0
11
96.041236
21
22.600009
31
0.0
0
ARC
8
0
10
96.041236
20
23.100009
30
0.0
40
0.500000
50
270.000000
51
12.994617
0
LINE
8
0
10
96.528432
20
23.212439
30
0.0
11
95.220851
21
28.878622
31
0.0
0
ARC
8
0
10
96.195242
20
29.103481
30
0.0
40
1.000000
50
165.074419
51
192.994617
0
LINE
8
0
10
25.100000
20
41.300009
30
0.0
11
25.800000
21
41.300009
31
0.0
0
ARC
8
0
10
25.800000
20
41.000009
30
0.0
40
0.300000
50
0.000000
51
90.000000
0
LINE
8
0
10
26.100000
20
41.000009
30
0.0
11
26.100000
21
35.824273
31
0.0
0
ARC
8
0
10
25.800000
20
35.824273
30
0.0
40
0.300000
50
315.000000
51
0.000000
0
LINE
8
0
10
26.012133
20
35.612141
30
0.0
11
24.814949
21
34.414958
31
0.0
0
ARC
8
0
10
25.168503
20
34.061405
30
0.0
40
0.500000
50
135.000000
51
210.000000
0
LINE
8
0
10
24.735490
20
33.811405
30
0.0
11
25.319601
21
32.799695
31
0.0
0
ARC
8
0
10
25.666011
20
32.999695
30
0.0
40
0.400000
50
210.000000
51
30.000000
0
LINE
8
0
10
26.012421
20
33.199695
30
0.0
11
25.658508
21
33.812690
31
0.0
0
ARC
8
0
10
25.918316
20
33.962690
30
0.0
40
0.300000
50
135.000000
51
210.000000
0
LINE
8
0
10
25.706184
20
34.174822
30
0.0
11
26.812133
21
35.280770
31
0.0
0
ARC
8
0
10
26.600000
20
35.492902
30
0.0
40
0.300000
50
315.000000
51
0.000000
0
LINE
8
0
10
26.900000
20
35.492902
30
0.0
11
26.900000
21
41.000009
31
0.0
0
ARC
8
0
10
27.200000
20
41.000009
30
0.0
40
0.300000
50
90.000000
51
180.000000
0
LINE
8
0
10
27.200000
20
41.300009
30
0.0
11
35.400000
21
41.300009
31
0.0
0
ARC
8
0
10
35.400000
20
41.000009
30
0.0
40
0.300000
50
0.000000
51
90.000000
0
LINE
8
0
10
35.700000
20
41.000009
30
0.0
11
35.700000
21
35.492902
31
0.0
0
ARC
8
0
10
36.000000
20
35.492902
30
0.0
40
0.300000
50
180.000000
51
225.000000
0
LINE
8
0
10
35.787868
20
35.280770
30
0.0
11
36.893817
21
34.174822
31
0.0
0
ARC
8
0
10
36.681685
20
33.962690
30
0.0
40
0.300000
50
330.000000
51
45.000000
0
LINE
8
0
10
36.941493
20
33.812690
30
0.0
11
36.587580
21
33.199695
31
0.0
0
ARC
8
0
10
36.933990
20
32.999695
30
0.0
40
0.400000
50
150.000000
51
330.000000
0
LINE
8
0
10
37.280400
20
32.799695
30
0.0
11
37.864511
21
33.811405
31
0.0
0
ARC
8
0
10
37.431498
20
34.061405
30
0.0
40
0.500000
50
330.000000
51
45.000000
0
LINE
8
0
10
37.785052
20
34.414958
30
0.0
11
36.587868
21
35.612141
31
0.0
0
ARC
8
0
10
36.800000
20
35.824273
30
0.0
40
0.300000
50
180.000000
51
225.000000
0
LINE
8
0
10
36.500000
20
35.824273
30
0.0
11
36.500000
21
41.000009
31
0.0
0
ARC
8
0
10
36.800000
20
41.000009
30
0.0
40
0.300000
50
90.000000
51
180.000000
0
LINE
8
0
10
36.800000
20
41.300009
30
0.0
11
37.500000
21
41.300009
31
0.0
0
ARC
8
0
10
37.500000
20
40.300009
30
0.0
40
1.000000
50
337.380135
51
90.000000
0
ARC
8
0
10
38.700000
20
39.800009
30
0.0
40
0.300000
50
157.380135
51
270.000000
0
LINE
8
0
10
38.700000
20
39.500009
30
0.0
11
40.000000
21
39.500009
31
0.0
0
ARC
8
0
10
40.000000
20
39.800009
30
0.0
40
0.300000
50
270.000000
51
0.000000
0
LINE
8
0
10
40.300000
20
39.800009
30
0.0
11
40.300000
21
43.100009
31
0.0
0
ARC
8
0
10
40.000000
20
43.100009
30
0.0
40
0.300000
50
0.000000
51
90.000000
0
LINE
8
0
10
40.000000
20
43.400009
30
0.0
11
34.300000
21
43.400009
31
0.0
0
ARC
8
0
10
34.300000
20
43.900009
30
0.0
40
0.500000
50
180.000000
51
270.000000
0
LINE
8
0
10
33.800000
20
43.900009
30
0.0
11
33.800000
21
44.200009
31
0.0
0
ARC
8
0
10
31.300000
20
44.200009
30
0.0
40
2.500000
50
0.000000
51
180.000000
0
LINE
8
0
10
28.800000
20
44.200009
30
0.0
11
28.800000
21
43.900009
31
0.0
0
ARC
8
0
10
28.300000
20
43.900009
30
0.0
40
0.500000
50
270.000000
51
0.000000
0
LINE
8
0
10
28.300000
20
43.400009
30
0.0
11
22.600000
21
43.400009
31
0.0
0
ARC
8
0
10
22.600000
20
43.100009
30
0.0
40
0.300000
50
90.000000
51
180.000000
0
LINE
8
0
10
22.300000
20
43.100009
30
0.0
11
22.300000
21
39.800009
31
0.0
0
ARC
8
0
10
22.600000
20
39.800009
30
0.0
40
0.300000
50
180.000000
51
270.000000
0
LINE
8
0
10
22.600000
20
39.500009
30
0.0
11
23.900000
21
39.500009
31
0.0
0
ARC
8
0
10
23.900000
20
39.800009
30
0.0
40
0.300000
50
270.000000
51
22.619865
0
ARC
8
0
10
25.100000
20
40.300009
30
0.0
40
1.000000
50
90.000000
51
202.619865
0
ATTDEF
8
0
10
0.000000
20
0.000000
30
0.0
40
3.5
1

3

2
GLASS_MIN:0.000000
70
0
0
ATTDEF
8
0
10
0.000000
20
0.000000
30
0.0
40
3.5
1

3

2
GLASS_MAX:0.000000
70
0
0
ATTDEF
8
0
10
0.000000
20
0.000000
30
0.0
40
3.5
1

3

2
BL01:6500.000000,,1
70
0
0
ATTDEF
8
0
10
0.000000
20
0.000000
30
0.0
40
3.5
1

3

2
HW_START
70
0
0
ATTDEF
8
0
10
217.502136
20
46.700009
30
0.0
40
3.5
1

3

2
HW_END
70
0
0
ATTDEF
8
0
10
15.750000
20
43.400009
30
0.0
40
3.5
1

3

2
VC_START
70
0
0
ATTDEF
8
0
10
1.915072
20
0.000009
30
0.0
40
3.5
1

3

2
VC_END
70
0
0
ATTDEF
8
0
10
0.000000
20
0.000000
30
0.0
40
3.5
1

3

2
FP_LCS_ORIG
70
0
0
ATTDEF
8
0
10
10.000000
20
0.000000
30
0.0
40
3.5
1

3

2
FP_LCS_HOT
70
0
0
ATTDEF
8
0
10
0.000000
20
10.000000
30
0.0
40
3.5
1

3

2
FP_LCS_INTERN
70
0
0
ATTDEF
8
0
10
0.000000
20
0.000000
30
0.0
40
3.5
1

3

2
TDEV3:0
70
0
0
ATTDEF
8
0
10
0.000000
20
0.000000
30
0.0
40
3.5
1

3

2
TDEV4:0
70
0
0
ATTDEF
8
0
10
0.000000
20
0.000000
30
0.0
40
3.5
1

3

2
TDEV5:0
70
0
0
ATTDEF
8
0
10
0.000000
20
0.000000
30
0.0
40
3.5
1

3

2
PANE_WIDTH:0
70
0
0
ATTDEF
8
0
10
0.000000
20
0.000000
30
0.0
40
3.5
1

3

2
MIN_VETRO:0
70
0
0
ATTDEF
8
0
10
0.000000
20
0.000000
30
0.0
40
3.5
1

3

2
MAX_VETRO:0
70
0
0
ATTDEF
8
0
10
0.000000
20
0.000000
30
0.0
40
3.5
1

3

2
JX:0
70
0
0
ATTDEF
8
0
10
0.000000
20
0.000000
30
0.0
40
3.5
1

3

2
WX:0
70
0
0
ATTDEF
8
0
10
0.000000
20
0.000000
30
0.0
40
3.5
1

3

2
JY:0
70
0
0
ATTDEF
8
0
10
0.000000
20
0.000000
30
0.0
40
3.5
1

3

2
WY:0
70
0
0
ATTDEF
8
0
10
0.000000
20
0.000000
30
0.0
40
3.5
1

3

2
DESC:U10061 - V31208 - N10630 - N10630 - U10060 - V31208 - N10630
70
0
0
ATTDEF
8
0
10
0.000000
20
0.000000
30
0.0
40
3.5
1

3

2
DENS:0
70
0
0
ATTDEF
8
0
10
0.000000
20
0.000000
30
0.0
40
3.5
1

3

2
TDEV:0
70
0
0
ATTDEF
8
0
10
0.000000
20
0.000000
30
0.0
40
3.5
1

3

2
TDEV2:0
70
0
0
ATTDEF
8
0
10
0.000000
20
0.000000
30
0.0
40
3.5
1

3

2
TDEV3:0
70
0
0
ATTDEF
8
0
10
0.000000
20
0.000000
30
0.0
40
3.5
1

3

2
TDEV4:0
70
0
0
ATTDEF
8
0
10
0.000000
20
0.000000
30
0.0
40
3.5
1

3

2
TDEV5:0
70
0
0
ATTDEF
8
0
10
0.000000
20
0.000000
30
0.0
40
3.5
1

3

2
PANE_WIDTH:0
70
0
0
ATTDEF
8
0
10
0.000000
20
0.000000
30
0.0
40
3.5
1

3

2
MIN_VETRO:0
70
0
0
ATTDEF
8
0
10
0.000000
20
0.000000
30
0.0
40
3.5
1

3

2
MAX_VETRO:0
70
0
0
ATTDEF
8
0
10
0.000000
20
0.000000
30
0.0
40
3.5
1

3

2
JX:0
70
0
0
ATTDEF
8
0
10
0.000000
20
0.000000
30
0.0
40
3.5
1

3

2
WX:0
70
0
0
ATTDEF
8
0
10
0.000000
20
0.000000
30
0.0
40
3.5
1

3

2
JY:0
70
0
0
ATTDEF
8
0
10
0.000000
20
0.000000
30
0.0
40
3.5
1

3

2
WY:0
70
0
0
ENDSEC
0
EOF
