0
SECTION
2
ENTITIES
0
LINE
8
0
10
77.435425
20
108.205244
30
0.0
11
77.435425
21
93.184452
31
0.0
0
ARC
8
0
10
77.135425
20
93.184452
30
0.0
40
0.300000
50
270.000000
51
0.000000
0
LINE
8
0
10
77.135425
20
92.884452
30
0.0
11
74.435425
21
92.884452
31
0.0
0
ARC
8
0
10
74.435425
20
92.584452
30
0.0
40
0.300000
50
90.000000
51
180.000000
0
LINE
8
0
10
74.135425
20
92.584452
30
0.0
11
74.135425
21
91.684452
31
0.0
0
ARC
8
0
10
74.435425
20
91.684452
30
0.0
40
0.300000
50
180.000000
51
270.000000
0
LINE
8
0
10
74.435425
20
91.384452
30
0.0
11
75.735425
21
91.384452
31
0.0
0
ARC
8
0
10
75.735425
20
91.084452
30
0.0
40
0.300000
50
0.000000
51
90.000000
0
LINE
8
0
10
76.035425
20
91.084452
30
0.0
11
76.035425
21
89.684452
31
0.0
0
ARC
8
0
10
76.335425
20
89.684452
30
0.0
40
0.300000
50
180.000000
51
270.000000
0
LINE
8
0
10
76.335425
20
89.384452
30
0.0
11
77.135425
21
89.384452
31
0.0
0
ARC
8
0
10
77.135425
20
89.084452
30
0.0
40
0.300000
50
0.000000
51
90.000000
0
LINE
8
0
10
77.435425
20
89.084452
30
0.0
11
77.435425
21
87.084452
31
0.0
0
ARC
8
0
10
77.735425
20
87.084452
30
0.0
40
0.300000
50
180.000000
51
270.000000
0
LINE
8
0
10
77.735425
20
86.784452
30
0.0
11
87.435425
21
86.784452
31
0.0
0
ARC
8
0
10
87.435425
20
86.484452
30
0.0
40
0.300000
50
0.000000
51
90.000000
0
LINE
8
0
10
87.735425
20
86.484452
30
0.0
11
87.735425
21
77.084452
31
0.0
0
ARC
8
0
10
87.435425
20
77.084452
30
0.0
40
0.300000
50
270.000000
51
0.000000
0
LINE
8
0
10
87.435425
20
76.784452
30
0.0
11
77.835425
21
76.784452
31
0.0
0
ARC
8
0
10
77.835425
20
77.084452
30
0.0
40
0.300000
50
180.000000
51
270.000000
0
LINE
8
0
10
77.535425
20
77.084452
30
0.0
11
77.535425
21
77.984452
31
0.0
0
ARC
8
0
10
77.235425
20
77.984452
30
0.0
40
0.300000
50
0.000000
51
90.000000
0
LINE
8
0
10
77.235425
20
78.284452
30
0.0
11
76.335425
21
78.284452
31
0.0
0
ARC
8
0
10
76.335425
20
77.984452
30
0.0
40
0.300000
50
90.000000
51
180.000000
0
LINE
8
0
10
76.035425
20
77.984452
30
0.0
11
76.035425
21
77.084452
31
0.0
0
ARC
8
0
10
75.735425
20
77.084452
30
0.0
40
0.300000
50
270.000000
51
0.000000
0
LINE
8
0
10
75.735425
20
76.784452
30
0.0
11
53.335425
21
76.784452
31
0.0
0
ARC
8
0
10
53.335425
20
77.084452
30
0.0
40
0.300000
50
180.000000
51
270.000000
0
LINE
8
0
10
53.035425
20
77.084452
30
0.0
11
53.035425
21
77.984452
31
0.0
0
ARC
8
0
10
52.735425
20
77.984452
30
0.0
40
0.300000
50
0.000000
51
90.000000
0
LINE
8
0
10
52.735425
20
78.284452
30
0.0
11
51.835425
21
78.284452
31
0.0
0
ARC
8
0
10
51.835425
20
77.984452
30
0.0
40
0.300000
50
90.000000
51
180.000000
0
LINE
8
0
10
51.535425
20
77.984452
30
0.0
11
51.535425
21
77.084452
31
0.0
0
ARC
8
0
10
51.235425
20
77.084452
30
0.0
40
0.300000
50
270.000000
51
0.000000
0
LINE
8
0
10
51.235425
20
76.784452
30
0.0
11
48.535449
21
76.784452
31
0.0
0
ARC
8
0
10
48.535449
20
77.084452
30
0.0
40
0.300000
50
180.000000
51
270.000000
0
LINE
8
0
10
48.235449
20
77.084452
30
0.0
11
48.235449
21
83.484452
31
0.0
0
ARC
8
0
10
48.535449
20
83.484452
30
0.0
40
0.300000
50
90.000000
51
180.000000
0
LINE
8
0
10
48.535449
20
83.784452
30
0.0
11
51.435449
21
83.784452
31
0.0
0
ARC
8
0
10
51.435449
20
84.084452
30
0.0
40
0.300000
50
270.000000
51
0.000000
0
LINE
8
0
10
51.735449
20
84.084452
30
0.0
11
51.735449
21
89.084452
31
0.0
0
ARC
8
0
10
52.035449
20
89.084452
30
0.0
40
0.300000
50
90.000000
51
180.000000
0
LINE
8
0
10
52.035449
20
89.384452
30
0.0
11
52.735449
21
89.384452
31
0.0
0
ARC
8
0
10
52.735449
20
89.684452
30
0.0
40
0.300000
50
270.000000
51
0.000000
0
LINE
8
0
10
53.035449
20
89.684452
30
0.0
11
53.035449
21
91.084452
31
0.0
0
ARC
8
0
10
53.335449
20
91.084452
30
0.0
40
0.300000
50
90.000000
51
180.000000
0
LINE
8
0
10
53.335449
20
91.384452
30
0.0
11
55.735449
21
91.384452
31
0.0
0
ARC
8
0
10
55.735449
20
91.684452
30
0.0
40
0.300000
50
270.000000
51
0.000000
0
LINE
8
0
10
56.035449
20
91.684452
30
0.0
11
56.035449
21
92.584452
31
0.0
0
ARC
8
0
10
55.735449
20
92.584452
30
0.0
40
0.300000
50
0.000000
51
90.000000
0
LINE
8
0
10
55.735449
20
92.884452
30
0.0
11
52.035449
21
92.884452
31
0.0
0
ARC
8
0
10
52.035449
20
93.184452
30
0.0
40
0.300000
50
180.000000
51
270.000000
0
LINE
8
0
10
51.735449
20
93.184452
30
0.0
11
51.735449
21
97.484452
31
0.0
0
ARC
8
0
10
52.035449
20
97.484452
30
0.0
40
0.300000
50
90.000000
51
180.000000
0
LINE
8
0
10
52.035449
20
97.784452
30
0.0
11
55.061160
21
97.784452
31
0.0
0
ARC
8
0
10
55.061160
20
97.484452
30
0.0
40
0.300000
50
45.000000
51
90.000000
0
LINE
8
0
10
55.273293
20
97.696584
30
0.0
11
55.597557
21
97.372320
31
0.0
0
ARC
8
0
10
55.809689
20
97.584452
30
0.0
40
0.300000
50
225.000000
51
270.000000
0
LINE
8
0
10
55.809689
20
97.284452
30
0.0
11
60.061160
21
97.284452
31
0.0
0
ARC
8
0
10
60.061160
20
97.584452
30
0.0
40
0.300000
50
270.000000
51
315.000000
0
LINE
8
0
10
60.273293
20
97.372320
30
0.0
11
60.597557
21
97.696584
31
0.0
0
ARC
8
0
10
60.809689
20
97.484452
30
0.0
40
0.300000
50
90.000000
51
135.000000
0
LINE
8
0
10
60.809689
20
97.784452
30
0.0
11
64.635425
21
97.784452
31
0.0
0
ARC
8
0
10
64.635425
20
98.784452
30
0.0
40
1.000000
50
270.000000
51
0.000000
0
LINE
8
0
10
65.635425
20
98.784452
30
0.0
11
65.635425
21
101.660080
31
0.0
0
ARC
8
0
10
65.935425
20
101.660080
30
0.0
40
0.300000
50
150.000000
51
180.000000
0
LINE
8
0
10
65.675617
20
101.810080
30
0.0
11
66.526846
21
103.284452
31
0.0
0
ARC
8
0
10
64.794795
20
104.284452
30
0.0
40
2.000000
50
330.000000
51
57.356923
0
ARC
8
0
10
66.035425
20
106.221160
30
0.0
40
0.300000
50
180.000000
51
237.356923
0
LINE
8
0
10
65.735425
20
106.221160
30
0.0
11
65.735425
21
107.984452
31
0.0
0
ARC
8
0
10
66.035425
20
107.984452
30
0.0
40
0.300000
50
90.000000
51
180.000000
0
LINE
8
0
10
66.035425
20
108.284452
30
0.0
11
68.235425
21
108.284452
31
0.0
0
ARC
8
0
10
68.235425
20
108.784452
30
0.0
40
0.500000
50
270.000000
51
0.000000
0
LINE
8
0
10
68.735425
20
108.784452
30
0.0
11
68.735425
21
111.884452
31
0.0
0
ARC
8
0
10
69.035425
20
111.884452
30
0.0
40
0.300000
50
90.000000
51
180.000000
0
LINE
8
0
10
69.035425
20
112.184452
30
0.0
11
78.635425
21
112.184452
31
0.0
0
ARC
8
0
10
78.635425
20
111.884452
30
0.0
40
0.300000
50
0.000000
51
90.000000
0
LINE
8
0
10
78.935425
20
111.884452
30
0.0
11
78.935425
21
109.067564
31
0.0
0
ARC
8
0
10
78.635425
20
109.067564
30
0.0
40
0.300000
50
285.000000
51
0.000000
0
LINE
8
0
10
78.713070
20
108.777787
30
0.0
11
77.657779
21
108.495022
31
0.0
0
ARC
8
0
10
77.735425
20
108.205244
30
0.0
40
0.300000
50
105.000000
51
180.000000
0
ARC
8
0
10
47.435425
20
110.460188
30
0.0
40
0.300000
50
135.000000
51
180.000000
0
LINE
8
0
10
47.135425
20
110.460188
30
0.0
11
47.135425
21
110.584452
31
0.0
0
LINE
8
0
10
47.135425
20
110.584452
30
0.0
11
47.223293
21
110.672320
31
0.0
0
LINE
8
0
10
47.223293
20
110.672320
30
0.0
11
47.447557
21
110.896584
31
0.0
0
ARC
8
0
10
47.659689
20
110.684452
30
0.0
40
0.300000
50
90.000000
51
135.000000
0
LINE
8
0
10
47.659689
20
110.984452
30
0.0
11
48.335425
21
110.984452
31
0.0
0
ARC
8
0
10
48.335425
20
110.684452
30
0.0
40
0.300000
50
0.000000
51
90.000000
0
LINE
8
0
10
48.635425
20
110.684452
30
0.0
11
48.635425
21
110.084452
31
0.0
0
ARC
8
0
10
48.935425
20
110.084452
30
0.0
40
0.300000
50
180.000000
51
270.000000
0
LINE
8
0
10
48.935425
20
109.784452
30
0.0
11
51.345718
21
109.784452
31
0.0
0
ARC
8
0
10
51.345718
20
109.484452
30
0.0
40
0.300000
50
2.000000
51
90.000000
0
LINE
8
0
10
51.645535
20
109.494922
30
0.0
11
51.791959
21
105.301902
31
0.0
0
ARC
8
0
10
51.292263
20
105.284452
30
0.0
40
0.500000
50
270.000000
51
2.000000
0
LINE
8
0
10
51.292263
20
104.784452
30
0.0
11
51.076054
21
104.784452
31
0.0
0
ARC
8
0
10
51.076054
20
104.284452
30
0.0
40
0.500000
50
90.000000
51
210.000000
0
LINE
8
0
10
50.643041
20
104.034452
30
0.0
11
51.668437
21
102.258414
31
0.0
0
ARC
8
0
10
51.235425
20
102.008414
30
0.0
40
0.500000
50
0.000000
51
30.000000
0
LINE
8
0
10
51.735425
20
102.008414
30
0.0
11
51.735425
21
99.584452
31
0.0
0
ARC
8
0
10
52.035425
20
99.584452
30
0.0
40
0.300000
50
180.000000
51
270.000000
0
LINE
8
0
10
52.035425
20
99.284452
30
0.0
11
57.635425
21
99.284452
31
0.0
0
LINE
8
0
10
57.635425
20
99.284452
30
0.0
11
57.935425
21
98.984452
31
0.0
0
LINE
8
0
10
57.935425
20
98.984452
30
0.0
11
58.235425
21
99.284452
31
0.0
0
LINE
8
0
10
58.235425
20
99.284452
30
0.0
11
63.835425
21
99.284452
31
0.0
0
ARC
8
0
10
63.835425
20
99.584452
30
0.0
40
0.300000
50
270.000000
51
0.000000
0
LINE
8
0
10
64.135425
20
99.584452
30
0.0
11
64.135425
21
102.008414
31
0.0
0
ARC
8
0
10
64.635425
20
102.008414
30
0.0
40
0.500000
50
150.000000
51
180.000000
0
LINE
8
0
10
64.202412
20
102.258414
30
0.0
11
65.227808
21
104.034452
31
0.0
0
ARC
8
0
10
64.794795
20
104.284452
30
0.0
40
0.500000
50
330.000000
51
90.000000
0
LINE
8
0
10
64.794795
20
104.784452
30
0.0
11
64.578586
21
104.784452
31
0.0
0
ARC
8
0
10
64.578586
20
105.284452
30
0.0
40
0.500000
50
178.000000
51
270.000000
0
LINE
8
0
10
64.078890
20
105.301902
30
0.0
11
64.225314
21
109.494922
31
0.0
0
ARC
8
0
10
64.525131
20
109.484452
30
0.0
40
0.300000
50
90.000000
51
178.000000
0
LINE
8
0
10
64.525131
20
109.784452
30
0.0
11
66.935425
21
109.784452
31
0.0
0
ARC
8
0
10
66.935425
20
110.084452
30
0.0
40
0.300000
50
270.000000
51
0.000000
0
LINE
8
0
10
67.235425
20
110.084452
30
0.0
11
67.235425
21
113.384452
31
0.0
0
ARC
8
0
10
67.535425
20
113.384452
30
0.0
40
0.300000
50
90.000000
51
180.000000
0
LINE
8
0
10
67.535425
20
113.684452
30
0.0
11
79.435425
21
113.684452
31
0.0
0
ARC
8
0
10
79.435425
20
112.684452
30
0.0
40
1.000000
50
0.000000
51
90.000000
0
LINE
8
0
10
80.435425
20
112.684452
30
0.0
11
80.435425
21
107.916574
31
0.0
0
ARC
8
0
10
80.135425
20
107.916574
30
0.0
40
0.300000
50
285.000000
51
0.000000
0
LINE
8
0
10
80.213070
20
107.626796
30
0.0
11
79.157779
21
107.344032
31
0.0
0
ARC
8
0
10
79.235425
20
107.054254
30
0.0
40
0.300000
50
105.000000
51
180.000000
0
LINE
8
0
10
78.935425
20
107.054254
30
0.0
11
78.935425
21
88.584452
31
0.0
0
ARC
8
0
10
79.235425
20
88.584452
30
0.0
40
0.300000
50
180.000000
51
270.000000
0
LINE
8
0
10
79.235425
20
88.284452
30
0.0
11
88.735425
21
88.284452
31
0.0
0
ARC
8
0
10
88.735425
20
87.784452
30
0.0
40
0.500000
50
0.000000
51
90.000000
0
LINE
8
0
10
89.235425
20
87.784452
30
0.0
11
89.235425
21
70.584452
31
0.0
0
ARC
8
0
10
88.935425
20
70.584452
30
0.0
40
0.300000
50
270.000000
51
0.000000
0
LINE
8
0
10
88.935425
20
70.284452
30
0.0
11
85.705282
21
70.284452
31
0.0
0
ARC
8
0
10
85.705282
20
70.584452
30
0.0
40
0.300000
50
210.963757
51
270.000000
0
LINE
8
0
10
85.448034
20
70.430103
30
0.0
11
84.978177
21
71.213198
31
0.0
0
ARC
8
0
10
85.235425
20
71.367547
30
0.0
40
0.300000
50
180.000000
51
210.963757
0
LINE
8
0
10
84.935425
20
71.367547
30
0.0
11
84.935425
21
71.484452
31
0.0
0
ARC
8
0
10
85.235425
20
71.484452
30
0.0
40
0.300000
50
90.000000
51
180.000000
0
LINE
8
0
10
85.235425
20
71.784452
30
0.0
11
87.135425
21
71.784452
31
0.0
0
ARC
8
0
10
87.135425
20
72.084452
30
0.0
40
0.300000
50
270.000000
51
0.000000
0
LINE
8
0
10
87.435425
20
72.084452
30
0.0
11
87.435425
21
74.984452
31
0.0
0
ARC
8
0
10
87.135425
20
74.984452
30
0.0
40
0.300000
50
0.000000
51
90.000000
0
LINE
8
0
10
87.135425
20
75.284452
30
0.0
11
73.235425
21
75.284452
31
0.0
0
ARC
8
0
10
73.235425
20
74.984452
30
0.0
40
0.300000
50
90.000000
51
180.000000
0
LINE
8
0
10
72.935425
20
74.984452
30
0.0
11
72.935425
21
72.084452
31
0.0
0
ARC
8
0
10
73.235425
20
72.084452
30
0.0
40
0.300000
50
180.000000
51
270.000000
0
LINE
8
0
10
73.235425
20
71.784452
30
0.0
11
74.635425
21
71.784452
31
0.0
0
ARC
8
0
10
74.635425
20
71.484452
30
0.0
40
0.300000
50
0.000000
51
90.000000
0
LINE
8
0
10
74.935425
20
71.484452
30
0.0
11
74.935425
21
71.367547
31
0.0
0
ARC
8
0
10
74.635425
20
71.367547
30
0.0
40
0.300000
50
329.036244
51
0.000000
0
LINE
8
0
10
74.892672
20
71.213198
30
0.0
11
74.422815
21
70.430103
31
0.0
0
ARC
8
0
10
74.165567
20
70.584452
30
0.0
40
0.300000
50
270.000000
51
329.036244
0
LINE
8
0
10
74.165567
20
70.284452
30
0.0
11
71.735425
21
70.284452
31
0.0
0
ARC
8
0
10
71.735425
20
70.584452
30
0.0
40
0.300000
50
180.000000
51
270.000000
0
LINE
8
0
10
71.435425
20
70.584452
30
0.0
11
71.435425
21
74.984452
31
0.0
0
ARC
8
0
10
71.135425
20
74.984452
30
0.0
40
0.300000
50
0.000000
51
90.000000
0
LINE
8
0
10
71.135425
20
75.284452
30
0.0
11
48.535425
21
75.284452
31
0.0
0
ARC
8
0
10
48.535425
20
74.984452
30
0.0
40
0.300000
50
90.000000
51
180.000000
0
LINE
8
0
10
48.235425
20
74.984452
30
0.0
11
48.235425
21
70.584452
31
0.0
0
ARC
8
0
10
47.935425
20
70.584452
30
0.0
40
0.300000
50
270.000000
51
0.000000
0
LINE
8
0
10
47.935425
20
70.284452
30
0.0
11
46.467509
21
70.284452
31
0.0
0
ARC
8
0
10
46.467509
20
70.584452
30
0.0
40
0.300000
50
250.221829
51
270.000000
0
LINE
8
0
10
46.365995
20
70.302149
30
0.0
11
45.064132
21
70.770288
31
0.0
0
ARC
8
0
10
44.984613
20
70.549151
30
0.0
40
0.235000
50
70.221829
51
156.000000
0
ARC
8
0
10
44.548679
20
70.725564
30
0.0
40
0.235000
50
270.000000
51
336.000000
0
LINE
8
0
10
44.550235
20
70.490570
30
0.0
11
42.971307
21
70.480112
31
0.0
0
ARC
8
0
10
42.969320
20
70.780106
30
0.0
40
0.300000
50
155.379459
51
270.000000
0
LINE
8
0
10
42.696594
20
70.905088
30
0.0
11
43.645244
21
73.010603
31
0.0
0
ARC
8
0
10
43.918763
20
72.887368
30
0.0
40
0.300000
50
115.379459
51
155.745828
0
LINE
8
0
10
43.790180
20
73.158414
30
0.0
11
44.297603
21
73.399133
31
0.0
0
ARC
8
0
10
44.383325
20
73.218436
30
0.0
40
0.200000
50
355.379459
51
115.379459
0
LINE
8
0
10
44.582675
20
73.202324
30
0.0
11
44.573373
21
73.087230
31
0.0
0
ARC
8
0
10
44.872398
20
73.063063
30
0.0
40
0.300000
50
175.379459
51
235.379459
0
LINE
8
0
10
44.701957
20
72.816183
30
0.0
11
46.330713
21
71.691717
31
0.0
0
LINE
8
0
10
46.330713
20
71.691717
30
0.0
11
46.513422
21
71.610370
31
0.0
0
ARC
8
0
10
46.635425
20
71.884452
30
0.0
40
0.300009
50
246.004713
51
48.187329
0
ARC
8
0
10
47.035449
20
72.331656
30
0.0
40
0.300000
50
180.000000
51
228.187329
0
LINE
8
0
10
46.735449
20
72.331656
30
0.0
11
46.735449
21
76.184443
31
0.0
0
ARC
8
0
10
46.435449
20
76.184443
30
0.0
40
0.300000
50
0.000000
51
90.000000
0
LINE
8
0
10
46.435449
20
76.484443
30
0.0
11
46.214256
21
76.484443
31
0.0
0
ARC
8
0
10
46.214256
20
76.184443
30
0.0
40
0.300000
50
90.000000
51
121.400000
0
LINE
8
0
10
46.057953
20
76.440508
30
0.0
11
44.539651
21
75.513732
31
0.0
0
ARC
8
0
10
44.435449
20
75.684443
30
0.0
40
0.200000
50
180.000000
51
301.400000
0
LINE
8
0
10
44.235449
20
75.684443
30
0.0
11
44.235449
21
79.884443
31
0.0
0
ARC
8
0
10
44.435449
20
79.884443
30
0.0
40
0.200000
50
58.600000
51
180.000000
0
LINE
8
0
10
44.539651
20
80.055153
30
0.0
11
46.057953
21
79.128377
31
0.0
0
ARC
8
0
10
46.214256
20
79.384443
30
0.0
40
0.300000
50
238.600000
51
270.000000
0
LINE
8
0
10
46.214256
20
79.084443
30
0.0
11
46.435449
21
79.084443
31
0.0
0
ARC
8
0
10
46.435449
20
79.384443
30
0.0
40
0.300000
50
270.000000
51
0.000000
0
LINE
8
0
10
46.735449
20
79.384443
30
0.0
11
46.735449
21
83.237229
31
0.0
0
ARC
8
0
10
47.035449
20
83.237229
30
0.0
40
0.300000
50
131.812671
51
180.000000
0
ARC
8
0
10
46.635425
20
83.684433
30
0.0
40
0.300009
50
311.812671
51
113.995287
0
LINE
8
0
10
46.513422
20
83.958515
30
0.0
11
46.330713
21
83.877168
31
0.0
0
LINE
8
0
10
46.330713
20
83.877168
30
0.0
11
44.701957
21
82.752702
31
0.0
0
ARC
8
0
10
44.872398
20
82.505822
30
0.0
40
0.300000
50
124.620541
51
184.620541
0
LINE
8
0
10
44.573373
20
82.481655
30
0.0
11
44.582675
21
82.366561
31
0.0
0
ARC
8
0
10
44.383325
20
82.350449
30
0.0
40
0.200000
50
244.620541
51
4.620541
0
LINE
8
0
10
44.297603
20
82.169752
30
0.0
11
43.790180
21
82.410471
31
0.0
0
ARC
8
0
10
43.918763
20
82.681517
30
0.0
40
0.300000
50
204.254172
51
244.620541
0
LINE
8
0
10
43.645244
20
82.558282
30
0.0
11
42.696594
21
84.663797
31
0.0
0
ARC
8
0
10
42.969320
20
84.788779
30
0.0
40
0.300000
50
90.000000
51
204.620541
0
LINE
8
0
10
42.971307
20
85.088773
30
0.0
11
44.550235
21
85.078315
31
0.0
0
ARC
8
0
10
44.548679
20
84.843321
30
0.0
40
0.235000
50
24.000000
51
90.000000
0
ARC
8
0
10
44.984613
20
85.019734
30
0.0
40
0.235000
50
204.000000
51
289.778171
0
LINE
8
0
10
45.064132
20
84.798597
30
0.0
11
46.366047
21
85.266755
31
0.0
0
ARC
8
0
10
46.467561
20
84.984452
30
0.0
40
0.300000
50
90.000000
51
109.778171
0
LINE
8
0
10
46.467561
20
85.284452
30
0.0
11
49.935449
21
85.284452
31
0.0
0
ARC
8
0
10
49.935449
20
85.584452
30
0.0
40
0.300000
50
270.000000
51
0.000000
0
LINE
8
0
10
50.235449
20
85.584452
30
0.0
11
50.235449
21
91.084452
31
0.0
0
ARC
8
0
10
49.935449
20
91.084452
30
0.0
40
0.300000
50
0.000000
51
90.000000
0
LINE
8
0
10
49.935449
20
91.384452
30
0.0
11
47.335449
21
91.384452
31
0.0
0
ARC
8
0
10
47.335449
20
91.684452
30
0.0
40
0.300000
50
180.000000
51
270.000000
0
LINE
8
0
10
47.035449
20
91.684452
30
0.0
11
47.035449
21
92.584452
31
0.0
0
ARC
8
0
10
47.335449
20
92.584452
30
0.0
40
0.300000
50
90.000000
51
180.000000
0
LINE
8
0
10
47.335449
20
92.884452
30
0.0
11
49.935449
21
92.884452
31
0.0
0
ARC
8
0
10
49.935449
20
93.184452
30
0.0
40
0.300000
50
270.000000
51
0.000000
0
LINE
8
0
10
50.235449
20
93.184452
30
0.0
11
50.235449
21
101.660037
31
0.0
0
ARC
8
0
10
49.935449
20
101.660037
30
0.0
40
0.300000
50
0.000000
51
30.000000
0
LINE
8
0
10
50.195257
20
101.810037
30
0.0
11
49.344003
21
103.284452
31
0.0
0
ARC
8
0
10
51.076054
20
104.284452
30
0.0
40
2.000000
50
122.643077
51
210.000000
0
ARC
8
0
10
49.835425
20
106.221160
30
0.0
40
0.300000
50
302.643077
51
0.000000
0
LINE
8
0
10
50.135425
20
106.221160
30
0.0
11
50.135425
21
107.984452
31
0.0
0
ARC
8
0
10
49.835425
20
107.984452
30
0.0
40
0.300000
50
0.000000
51
90.000000
0
LINE
8
0
10
49.835425
20
108.284452
30
0.0
11
47.435425
21
108.284452
31
0.0
0
ARC
8
0
10
47.435425
20
108.584452
30
0.0
40
0.300000
50
180.000000
51
270.000000
0
LINE
8
0
10
47.135425
20
108.584452
30
0.0
11
47.135425
21
110.460188
31
0.0
0
LINE
8
0
10
-13.265411
20
97.484443
30
0.0
11
-13.265411
21
85.584443
31
0.0
0
ARC
8
0
10
-13.565411
20
85.584443
30
0.0
40
0.300000
50
270.000000
51
0.000000
0
LINE
8
0
10
-13.565411
20
85.284443
30
0.0
11
-25.365411
21
85.284443
31
0.0
0
ARC
8
0
10
-25.365411
20
85.584443
30
0.0
40
0.300000
50
180.000000
51
270.000000
0
LINE
8
0
10
-25.665411
20
85.584443
30
0.0
11
-25.665411
21
97.484443
31
0.0
0
ARC
8
0
10
-25.365411
20
97.484443
30
0.0
40
0.300000
50
90.000000
51
180.000000
0
LINE
8
0
10
-25.365411
20
97.784443
30
0.0
11
-13.565411
21
97.784443
31
0.0
0
ARC
8
0
10
-13.565411
20
97.484443
30
0.0
40
0.300000
50
0.000000
51
90.000000
0
LINE
8
0
10
-7.996114
20
70.284443
30
0.0
11
-9.765826
21
70.284443
31
0.0
0
ARC
8
0
10
-9.765826
20
70.584443
30
0.0
40
0.300000
50
180.000000
51
270.000000
0
LINE
8
0
10
-10.065826
20
70.584443
30
0.0
11
-10.065826
21
72.784443
31
0.0
0
ARC
8
0
10
-10.565826
20
72.784443
30
0.0
40
0.500000
50
0.000000
51
90.000000
0
LINE
8
0
10
-10.565826
20
73.284443
30
0.0
11
-13.336201
21
73.284443
31
0.0
0
ARC
8
0
10
-13.336201
20
72.784443
30
0.0
40
0.500000
50
90.000000
51
180.000000
0
LINE
8
0
10
-13.836201
20
72.784443
30
0.0
11
-13.836201
21
71.684443
31
0.0
0
ARC
8
0
10
-14.336201
20
71.684443
30
0.0
40
0.500000
50
270.000000
51
0.000000
0
LINE
8
0
10
-14.336201
20
71.184443
30
0.0
11
-15.291203
21
71.184443
31
0.0
0
ARC
8
0
10
-15.291203
20
71.684443
30
0.0
40
0.500000
50
225.000000
51
270.000000
0
LINE
8
0
10
-15.644757
20
71.330889
30
0.0
11
-17.451863
21
73.137996
31
0.0
0
ARC
8
0
10
-17.805417
20
72.784443
30
0.0
40
0.500000
50
45.000000
51
90.000000
0
LINE
8
0
10
-17.805417
20
73.284443
30
0.0
11
-18.751013
21
73.284443
31
0.0
0
ARC
8
0
10
-18.751013
20
73.584443
30
0.0
40
0.300000
50
240.000000
51
270.000000
0
LINE
8
0
10
-18.901013
20
73.324635
30
0.0
11
-19.201013
21
73.497840
31
0.0
0
ARC
8
0
10
-19.351013
20
73.238032
30
0.0
40
0.300000
50
60.000000
51
120.000000
0
LINE
8
0
10
-19.501013
20
73.497840
30
0.0
11
-19.801013
21
73.324635
31
0.0
0
ARC
8
0
10
-19.951013
20
73.584443
30
0.0
40
0.300000
50
270.000000
51
300.000000
0
LINE
8
0
10
-19.951013
20
73.284443
30
0.0
11
-20.896610
21
73.284443
31
0.0
0
ARC
8
0
10
-20.896610
20
72.784443
30
0.0
40
0.500000
50
90.000000
51
135.000000
0
LINE
8
0
10
-21.250163
20
73.137996
30
0.0
11
-23.057270
21
71.330889
31
0.0
0
ARC
8
0
10
-23.410824
20
71.684443
30
0.0
40
0.500000
50
270.000000
51
315.000000
0
LINE
8
0
10
-23.410824
20
71.184443
30
0.0
11
-24.565826
21
71.184443
31
0.0
0
ARC
8
0
10
-24.565826
20
71.484443
30
0.0
40
0.300000
50
180.000000
51
270.000000
0
LINE
8
0
10
-24.865826
20
71.484443
30
0.0
11
-24.865826
21
73.184443
31
0.0
0
ARC
8
0
10
-25.165826
20
73.184443
30
0.0
40
0.300000
50
0.000000
51
90.000000
0
LINE
8
0
10
-25.165826
20
73.484443
30
0.0
11
-27.265826
21
73.484443
31
0.0
0
ARC
8
0
10
-27.265826
20
73.984443
30
0.0
40
0.500000
50
180.000000
51
270.000000
0
LINE
8
0
10
-27.765826
20
73.984443
30
0.0
11
-27.765826
21
74.484443
31
0.0
0
ARC
8
0
10
-27.265826
20
74.484443
30
0.0
40
0.500000
50
90.000000
51
180.000000
0
LINE
8
0
10
-27.265826
20
74.984443
30
0.0
11
-11.999801
21
74.984443
31
0.0
0
ARC
8
0
10
-11.999801
20
75.484443
30
0.0
40
0.500000
50
270.000000
51
300.000000
0
LINE
8
0
10
-11.749801
20
75.051430
30
0.0
11
-10.015826
21
76.052541
31
0.0
0
ARC
8
0
10
-10.165826
20
76.312348
30
0.0
40
0.300000
50
300.000000
51
0.000000
0
LINE
8
0
10
-9.865826
20
76.312348
30
0.0
11
-9.865826
21
82.428756
31
0.0
0
ARC
8
0
10
-10.165826
20
82.428756
30
0.0
40
0.300000
50
0.000000
51
60.000000
0
LINE
8
0
10
-10.015826
20
82.688564
30
0.0
11
-11.813426
21
83.718300
31
0.0
0
ARC
8
0
10
-12.061956
20
83.284443
30
0.0
40
0.500000
50
60.194203
51
90.000000
0
LINE
8
0
10
-12.061956
20
83.784443
30
0.0
11
-26.665411
21
83.784443
31
0.0
0
ARC
8
0
10
-26.665411
20
84.284443
30
0.0
40
0.500000
50
180.000000
51
270.000000
0
LINE
8
0
10
-27.165411
20
84.284443
30
0.0
11
-27.165411
21
91.084443
31
0.0
0
ARC
8
0
10
-27.465411
20
91.084443
30
0.0
40
0.300000
50
0.000000
51
90.000000
0
LINE
8
0
10
-27.465411
20
91.384443
30
0.0
11
-30.065411
21
91.384443
31
0.0
0
ARC
8
0
10
-30.065411
20
91.684443
30
0.0
40
0.300000
50
180.000000
51
270.000000
0
LINE
8
0
10
-30.365411
20
91.684443
30
0.0
11
-30.365411
21
92.584443
31
0.0
0
ARC
8
0
10
-30.065411
20
92.584443
30
0.0
40
0.300000
50
90.000000
51
180.000000
0
LINE
8
0
10
-30.065411
20
92.884443
30
0.0
11
-27.465411
21
92.884443
31
0.0
0
ARC
8
0
10
-27.465411
20
93.184443
30
0.0
40
0.300000
50
270.000000
51
0.000000
0
LINE
8
0
10
-27.165411
20
93.184443
30
0.0
11
-27.165386
21
101.660028
31
0.0
0
ARC
8
0
10
-27.465386
20
101.660028
30
0.0
40
0.300000
50
0.000000
51
30.000000
0
LINE
8
0
10
-27.205579
20
101.810028
30
0.0
11
-28.056832
21
103.284443
31
0.0
0
ARC
8
0
10
-26.324782
20
104.284443
30
0.0
40
2.000000
50
122.643077
51
210.000000
0
ARC
8
0
10
-27.565411
20
106.221151
30
0.0
40
0.300000
50
302.643077
51
0.000000
0
LINE
8
0
10
-27.265411
20
106.221151
30
0.0
11
-27.265411
21
107.984443
31
0.0
0
ARC
8
0
10
-27.565411
20
107.984443
30
0.0
40
0.300000
50
0.000000
51
90.000000
0
LINE
8
0
10
-27.565411
20
108.284443
30
0.0
11
-29.965411
21
108.284443
31
0.0
0
ARC
8
0
10
-29.965411
20
108.584443
30
0.0
40
0.300000
50
180.000000
51
270.000000
0
LINE
8
0
10
-30.265411
20
108.584443
30
0.0
11
-30.265411
21
110.460178
31
0.0
0
ARC
8
0
10
-29.965411
20
110.460178
30
0.0
40
0.300000
50
135.000000
51
180.000000
0
LINE
8
0
10
-30.177543
20
110.672310
30
0.0
11
-29.953279
21
110.896575
31
0.0
0
ARC
8
0
10
-29.741147
20
110.684443
30
0.0
40
0.300000
50
90.000000
51
135.000000
0
LINE
8
0
10
-29.741147
20
110.984443
30
0.0
11
-29.065411
21
110.984443
31
0.0
0
ARC
8
0
10
-29.065411
20
110.684443
30
0.0
40
0.300000
50
0.000000
51
90.000000
0
LINE
8
0
10
-28.765411
20
110.684443
30
0.0
11
-28.765411
21
110.084443
31
0.0
0
ARC
8
0
10
-28.465411
20
110.084443
30
0.0
40
0.300000
50
180.000000
51
270.000000
0
LINE
8
0
10
-28.465411
20
109.784443
30
0.0
11
-26.055118
21
109.784443
31
0.0
0
ARC
8
0
10
-26.055118
20
109.484443
30
0.0
40
0.300000
50
2.000000
51
90.000000
0
LINE
8
0
10
-25.755300
20
109.494912
30
0.0
11
-25.608877
21
105.301892
31
0.0
0
ARC
8
0
10
-26.108572
20
105.284443
30
0.0
40
0.500000
50
270.000000
51
2.000000
0
LINE
8
0
10
-26.108572
20
104.784443
30
0.0
11
-26.324782
21
104.784443
31
0.0
0
ARC
8
0
10
-26.324782
20
104.284443
30
0.0
40
0.500000
50
90.000000
51
210.000000
0
LINE
8
0
10
-26.757794
20
104.034443
30
0.0
11
-25.732398
21
102.258404
31
0.0
0
ARC
8
0
10
-26.165411
20
102.008404
30
0.0
40
0.500000
50
0.000000
51
30.000000
0
LINE
8
0
10
-25.665411
20
102.008404
30
0.0
11
-25.665411
21
99.584443
31
0.0
0
ARC
8
0
10
-25.365411
20
99.584443
30
0.0
40
0.300000
50
180.000000
51
270.000000
0
LINE
8
0
10
-25.365411
20
99.284443
30
0.0
11
-13.565411
21
99.284443
31
0.0
0
ARC
8
0
10
-13.565411
20
99.584443
30
0.0
40
0.300000
50
270.000000
51
0.000000
0
LINE
8
0
10
-13.265411
20
99.584443
30
0.0
11
-13.265411
21
102.008404
31
0.0
0
ARC
8
0
10
-12.765411
20
102.008404
30
0.0
40
0.500000
50
150.000000
51
180.000000
0
LINE
8
0
10
-13.198424
20
102.258404
30
0.0
11
-12.173027
21
104.034443
31
0.0
0
ARC
8
0
10
-12.606040
20
104.284443
30
0.0
40
0.500000
50
330.000000
51
90.000000
0
LINE
8
0
10
-12.606040
20
104.784443
30
0.0
11
-12.822250
21
104.784443
31
0.0
0
ARC
8
0
10
-12.822250
20
105.284443
30
0.0
40
0.500000
50
178.000000
51
270.000000
0
LINE
8
0
10
-13.321945
20
105.301892
30
0.0
11
-13.175522
21
109.494912
31
0.0
0
ARC
8
0
10
-12.875704
20
109.484443
30
0.0
40
0.300000
50
90.000000
51
178.000000
0
LINE
8
0
10
-12.875704
20
109.784443
30
0.0
11
-10.465411
21
109.784443
31
0.0
0
ARC
8
0
10
-10.465411
20
110.084443
30
0.0
40
0.300000
50
270.000000
51
0.000000
0
LINE
8
0
10
-10.165411
20
110.084443
30
0.0
11
-10.165411
21
110.684443
31
0.0
0
ARC
8
0
10
-9.865411
20
110.684443
30
0.0
40
0.300000
50
90.000000
51
180.000000
0
LINE
8
0
10
-9.865411
20
110.984443
30
0.0
11
-9.189675
21
110.984443
31
0.0
0
ARC
8
0
10
-9.189675
20
110.684443
30
0.0
40
0.300000
50
45.000000
51
90.000000
0
LINE
8
0
10
-8.977543
20
110.896575
30
0.0
11
-8.753279
21
110.672310
31
0.0
0
ARC
8
0
10
-8.965411
20
110.460178
30
0.0
40
0.300000
50
0.000000
51
45.000000
0
LINE
8
0
10
-8.665411
20
110.460178
30
0.0
11
-8.665411
21
108.584443
31
0.0
0
ARC
8
0
10
-8.965411
20
108.584443
30
0.0
40
0.300000
50
270.000000
51
0.000000
0
LINE
8
0
10
-8.965411
20
108.284443
30
0.0
11
-11.365411
21
108.284443
31
0.0
0
ARC
8
0
10
-11.365411
20
107.984443
30
0.0
40
0.300000
50
90.000000
51
180.000000
0
LINE
8
0
10
-11.665411
20
107.984443
30
0.0
11
-11.665411
21
106.221151
31
0.0
0
ARC
8
0
10
-11.365411
20
106.221151
30
0.0
40
0.300000
50
180.000000
51
237.356923
0
ARC
8
0
10
-12.606040
20
104.284443
30
0.0
40
2.000000
50
330.000000
51
57.356923
0
LINE
8
0
10
-10.873989
20
103.284443
30
0.0
11
-11.725243
21
101.810028
31
0.0
0
ARC
8
0
10
-11.465436
20
101.660028
30
0.0
40
0.300000
50
150.000000
51
180.000000
0
LINE
8
0
10
-11.765436
20
101.660028
30
0.0
11
-11.765411
21
93.184443
31
0.0
0
ARC
8
0
10
-11.465411
20
93.184443
30
0.0
40
0.300000
50
180.000000
51
270.000000
0
LINE
8
0
10
-11.465411
20
92.884443
30
0.0
11
-8.865411
21
92.884443
31
0.0
0
ARC
8
0
10
-8.865411
20
92.584443
30
0.0
40
0.300000
50
0.000000
51
90.000000
0
LINE
8
0
10
-8.565411
20
92.584443
30
0.0
11
-8.565411
21
91.684443
31
0.0
0
ARC
8
0
10
-8.865411
20
91.684443
30
0.0
40
0.300000
50
270.000000
51
0.000000
0
LINE
8
0
10
-8.865411
20
91.384443
30
0.0
11
-11.465411
21
91.384443
31
0.0
0
ARC
8
0
10
-11.465411
20
91.084443
30
0.0
40
0.300000
50
90.000000
51
180.000000
0
LINE
8
0
10
-11.765411
20
91.084443
30
0.0
11
-11.765411
21
85.584443
31
0.0
0
ARC
8
0
10
-11.465411
20
85.584443
30
0.0
40
0.300000
50
180.000000
51
270.000000
0
LINE
8
0
10
-11.465411
20
85.284443
30
0.0
11
-7.996637
21
85.284443
31
0.0
0
ARC
8
0
10
-7.996637
20
84.984443
30
0.0
40
0.300000
50
70.221829
51
90.000000
0
LINE
8
0
10
-7.895123
20
85.266745
30
0.0
11
-6.593234
21
84.798597
31
0.0
0
ARC
8
0
10
-6.513715
20
85.019734
30
0.0
40
0.235000
50
250.221829
51
336.000000
0
ARC
8
0
10
-6.077780
20
84.843321
30
0.0
40
0.235000
50
90.000000
51
156.000000
0
LINE
8
0
10
-6.079336
20
85.078315
30
0.0
11
-4.500408
21
85.088773
31
0.0
0
ARC
8
0
10
-4.498421
20
84.788779
30
0.0
40
0.300000
50
335.379459
51
90.000000
0
LINE
8
0
10
-4.225695
20
84.663797
30
0.0
11
-5.174345
21
82.558282
31
0.0
0
ARC
8
0
10
-5.447865
20
82.681517
30
0.0
40
0.300000
50
295.379459
51
335.745828
0
LINE
8
0
10
-5.319281
20
82.410471
30
0.0
11
-5.826704
21
82.169752
31
0.0
0
ARC
8
0
10
-5.912427
20
82.350449
30
0.0
40
0.200000
50
175.379459
51
295.379459
0
LINE
8
0
10
-6.111777
20
82.366561
30
0.0
11
-6.102475
21
82.481655
31
0.0
0
ARC
8
0
10
-6.401500
20
82.505822
30
0.0
40
0.300000
50
355.379459
51
55.379459
0
LINE
8
0
10
-6.231058
20
82.752702
30
0.0
11
-7.859815
21
83.877168
31
0.0
0
LINE
8
0
10
-7.859815
20
83.877168
30
0.0
11
-8.042524
21
83.958515
31
0.0
0
ARC
8
0
10
-8.164526
20
83.684433
30
0.0
40
0.300009
50
66.004713
51
228.187329
0
ARC
8
0
10
-8.564551
20
83.237229
30
0.0
40
0.300000
50
0.000000
51
48.187329
0
LINE
8
0
10
-8.264551
20
83.237229
30
0.0
11
-8.264551
21
79.384443
31
0.0
0
ARC
8
0
10
-7.964551
20
79.384443
30
0.0
40
0.300000
50
180.000000
51
270.000000
0
LINE
8
0
10
-7.964551
20
79.084443
30
0.0
11
-7.743357
21
79.084443
31
0.0
0
ARC
8
0
10
-7.743357
20
79.384443
30
0.0
40
0.300000
50
270.000000
51
301.400000
0
LINE
8
0
10
-7.587055
20
79.128377
30
0.0
11
-6.068753
21
80.055153
31
0.0
0
ARC
8
0
10
-5.964551
20
79.884443
30
0.0
40
0.200000
50
0.000000
51
121.400000
0
LINE
8
0
10
-5.764551
20
79.884443
30
0.0
11
-5.764551
21
75.684443
31
0.0
0
ARC
8
0
10
-5.964551
20
75.684443
30
0.0
40
0.200000
50
238.600000
51
0.000000
0
LINE
8
0
10
-6.068753
20
75.513732
30
0.0
11
-7.587055
21
76.440508
31
0.0
0
ARC
8
0
10
-7.743357
20
76.184443
30
0.0
40
0.300000
50
58.600000
51
90.000000
0
LINE
8
0
10
-7.743357
20
76.484443
30
0.0
11
-7.964551
21
76.484443
31
0.0
0
ARC
8
0
10
-7.964551
20
76.184443
30
0.0
40
0.300000
50
90.000000
51
180.000000
0
LINE
8
0
10
-8.264551
20
76.184443
30
0.0
11
-8.264551
21
72.331656
31
0.0
0
ARC
8
0
10
-8.564551
20
72.331656
30
0.0
40
0.300000
50
311.812671
51
0.000000
0
ARC
8
0
10
-8.164526
20
71.884452
30
0.0
40
0.300009
50
131.812671
51
293.995287
0
LINE
8
0
10
-8.042524
20
71.610370
30
0.0
11
-7.859815
21
71.691717
31
0.0
0
LINE
8
0
10
-7.859815
20
71.691717
30
0.0
11
-6.231058
21
72.816183
31
0.0
0
ARC
8
0
10
-6.401500
20
73.063063
30
0.0
40
0.300000
50
304.620541
51
4.620541
0
LINE
8
0
10
-6.102475
20
73.087230
30
0.0
11
-6.111777
21
73.202324
31
0.0
0
ARC
8
0
10
-5.912427
20
73.218436
30
0.0
40
0.200000
50
64.620541
51
184.620541
0
LINE
8
0
10
-5.826704
20
73.399133
30
0.0
11
-5.319281
21
73.158414
31
0.0
0
ARC
8
0
10
-5.447865
20
72.887368
30
0.0
40
0.300000
50
24.254172
51
64.620541
0
LINE
8
0
10
-5.174345
20
73.010603
30
0.0
11
-4.225695
21
70.905088
31
0.0
0
ARC
8
0
10
-4.498421
20
70.780106
30
0.0
40
0.300000
50
270.000000
51
24.620541
0
LINE
8
0
10
-4.500408
20
70.480112
30
0.0
11
-6.079336
21
70.490570
31
0.0
0
ARC
8
0
10
-6.077780
20
70.725564
30
0.0
40
0.235000
50
204.000000
51
270.000000
0
ARC
8
0
10
-6.513715
20
70.549151
30
0.0
40
0.235000
50
24.000000
51
109.778171
0
LINE
8
0
10
-6.593234
20
70.770288
30
0.0
11
-7.895123
21
70.302140
31
0.0
0
ARC
8
0
10
-7.996637
20
70.584443
30
0.0
40
0.300000
50
270.000000
51
289.778171
0
LINE
8
0
10
14.285425
20
83.269130
30
0.0
11
24.185425
21
83.269130
31
0.0
0
ARC
8
0
10
24.185425
20
82.969130
30
0.0
40
0.300000
50
0.000000
51
90.000000
0
LINE
8
0
10
24.485425
20
82.969130
30
0.0
11
24.485425
21
79.169130
31
0.0
0
ARC
8
0
10
24.985425
20
79.169130
30
0.0
40
0.500000
50
180.000000
51
0.000000
0
LINE
8
0
10
25.485425
20
79.169130
30
0.0
11
25.485425
21
82.969130
31
0.0
0
ARC
8
0
10
25.785425
20
82.969130
30
0.0
40
0.300000
50
90.000000
51
180.000000
0
LINE
8
0
10
25.785425
20
83.269130
30
0.0
11
35.685425
21
83.269130
31
0.0
0
ARC
8
0
10
35.685425
20
82.969130
30
0.0
40
0.300000
50
0.000000
51
90.000000
0
LINE
8
0
10
35.985425
20
82.969130
30
0.0
11
35.985425
21
79.169130
31
0.0
0
ARC
8
0
10
36.485425
20
79.169130
30
0.0
40
0.500000
50
180.000000
51
0.000000
0
LINE
8
0
10
36.985425
20
79.169130
30
0.0
11
36.985425
21
82.969130
31
0.0
0
ARC
8
0
10
37.285425
20
82.969130
30
0.0
40
0.300000
50
90.000000
51
180.000000
0
LINE
8
0
10
37.285425
20
83.269130
30
0.0
11
39.590094
21
83.269130
31
0.0
0
ARC
8
0
10
39.590094
20
82.269130
30
0.0
40
1.000000
50
35.254172
51
90.000000
0
LINE
8
0
10
40.406694
20
82.846334
30
0.0
11
41.929515
21
80.691925
31
0.0
0
ARC
8
0
10
42.746114
20
81.269130
30
0.0
40
1.000000
50
215.254172
51
270.000000
0
LINE
8
0
10
42.746114
20
80.269130
30
0.0
11
43.847425
21
80.269130
31
0.0
0
ARC
8
0
10
43.847425
20
79.069130
30
0.0
40
1.200000
50
60.018361
51
90.000000
0
LINE
8
0
10
44.447092
20
80.108552
30
0.0
11
46.029036
21
79.195892
31
0.0
0
ARC
8
0
10
46.128980
20
79.369130
30
0.0
40
0.200000
50
240.018361
51
270.000000
0
LINE
8
0
10
46.128980
20
79.169130
30
0.0
11
46.335425
21
79.169130
31
0.0
0
ARC
8
0
10
46.335425
20
79.569130
30
0.0
40
0.400000
50
270.000000
51
0.000000
0
LINE
8
0
10
46.735425
20
79.569130
30
0.0
11
46.735425
21
82.969130
31
0.0
0
ARC
8
0
10
46.335425
20
82.969130
30
0.0
40
0.400000
50
0.000000
51
90.000000
0
LINE
8
0
10
46.335425
20
83.369130
30
0.0
11
46.128980
21
83.369130
31
0.0
0
ARC
8
0
10
46.128980
20
83.169130
30
0.0
40
0.200000
50
90.000000
51
119.981639
0
LINE
8
0
10
46.029036
20
83.342367
30
0.0
11
44.447092
21
82.429707
31
0.0
0
ARC
8
0
10
43.847425
20
83.469130
30
0.0
40
1.200000
50
270.000000
51
299.981639
0
LINE
8
0
10
43.847425
20
82.269130
30
0.0
11
43.419191
21
82.269130
31
0.0
0
ARC
8
0
10
43.419191
20
82.569130
30
0.0
40
0.300000
50
215.254172
51
270.000000
0
LINE
8
0
10
43.174211
20
82.395968
30
0.0
11
41.292772
21
85.057732
31
0.0
0
ARC
8
0
10
40.884472
20
84.769130
30
0.0
40
0.500000
50
35.254172
51
90.000000
0
LINE
8
0
10
40.884472
20
85.269130
30
0.0
11
-2.413623
21
85.269130
31
0.0
0
ARC
8
0
10
-2.413623
20
84.769130
30
0.0
40
0.500000
50
90.000000
51
144.745828
0
LINE
8
0
10
-2.821923
20
85.057732
30
0.0
11
-4.703362
21
82.395968
31
0.0
0
ARC
8
0
10
-4.948342
20
82.569130
30
0.0
40
0.300000
50
270.000000
51
324.745828
0
LINE
8
0
10
-4.948342
20
82.269130
30
0.0
11
-5.376576
21
82.269130
31
0.0
0
ARC
8
0
10
-5.376576
20
83.469130
30
0.0
40
1.200000
50
240.018361
51
270.000000
0
LINE
8
0
10
-5.976243
20
82.429707
30
0.0
11
-7.558186
21
83.342367
31
0.0
0
ARC
8
0
10
-7.658131
20
83.169130
30
0.0
40
0.200000
50
60.018361
51
90.000000
0
LINE
8
0
10
-7.658131
20
83.369130
30
0.0
11
-7.864575
21
83.369130
31
0.0
0
ARC
8
0
10
-7.864575
20
82.969130
30
0.0
40
0.400000
50
90.000000
51
180.000000
0
LINE
8
0
10
-8.264575
20
82.969130
30
0.0
11
-8.264575
21
79.569130
31
0.0
0
ARC
8
0
10
-7.864575
20
79.569130
30
0.0
40
0.400000
50
180.000000
51
270.000000
0
LINE
8
0
10
-7.864575
20
79.169130
30
0.0
11
-7.658131
21
79.169130
31
0.0
0
ARC
8
0
10
-7.658131
20
79.369130
30
0.0
40
0.200000
50
270.000000
51
299.981639
0
LINE
8
0
10
-7.558186
20
79.195892
30
0.0
11
-5.976243
21
80.108552
31
0.0
0
ARC
8
0
10
-5.376576
20
79.069130
30
0.0
40
1.200000
50
90.000000
51
119.981639
0
LINE
8
0
10
-5.376576
20
80.269130
30
0.0
11
-4.275265
21
80.269130
31
0.0
0
ARC
8
0
10
-4.275265
20
81.269130
30
0.0
40
1.000000
50
270.000000
51
324.745828
0
LINE
8
0
10
-3.458666
20
80.691925
30
0.0
11
-1.935845
21
82.846334
31
0.0
0
ARC
8
0
10
-1.119245
20
82.269130
30
0.0
40
1.000000
50
90.000000
51
144.745828
0
LINE
8
0
10
-1.119245
20
83.269130
30
0.0
11
1.185425
21
83.269130
31
0.0
0
ARC
8
0
10
1.185425
20
82.969130
30
0.0
40
0.300000
50
0.000000
51
90.000000
0
LINE
8
0
10
1.485425
20
82.969130
30
0.0
11
1.485425
21
79.169130
31
0.0
0
ARC
8
0
10
1.985425
20
79.169130
30
0.0
40
0.500000
50
180.000000
51
0.000000
0
LINE
8
0
10
2.485425
20
79.169130
30
0.0
11
2.485425
21
82.969130
31
0.0
0
ARC
8
0
10
2.785425
20
82.969130
30
0.0
40
0.300000
50
90.000000
51
180.000000
0
LINE
8
0
10
2.785425
20
83.269130
30
0.0
11
12.685425
21
83.269130
31
0.0
0
ARC
8
0
10
12.685425
20
82.969130
30
0.0
40
0.300000
50
0.000000
51
90.000000
0
LINE
8
0
10
12.985425
20
82.969130
30
0.0
11
12.985425
21
79.169130
31
0.0
0
ARC
8
0
10
13.485425
20
79.169130
30
0.0
40
0.500000
50
180.000000
51
0.000000
0
LINE
8
0
10
13.985425
20
79.169130
30
0.0
11
13.985425
21
82.969130
31
0.0
0
ARC
8
0
10
14.285425
20
82.969130
30
0.0
40
0.300000
50
90.000000
51
180.000000
0
LINE
8
0
10
14.285425
20
72.299755
30
0.0
11
24.185425
21
72.299755
31
0.0
0
ARC
8
0
10
24.185425
20
72.599755
30
0.0
40
0.300000
50
270.000000
51
0.000000
0
LINE
8
0
10
24.485425
20
72.599755
30
0.0
11
24.485425
21
76.399755
31
0.0
0
ARC
8
0
10
24.985425
20
76.399755
30
0.0
40
0.500000
50
0.000000
51
180.000000
0
LINE
8
0
10
25.485425
20
76.399755
30
0.0
11
25.485425
21
72.599755
31
0.0
0
ARC
8
0
10
25.785425
20
72.599755
30
0.0
40
0.300000
50
180.000000
51
270.000000
0
LINE
8
0
10
25.785425
20
72.299755
30
0.0
11
35.685425
21
72.299755
31
0.0
0
ARC
8
0
10
35.685425
20
72.599755
30
0.0
40
0.300000
50
270.000000
51
0.000000
0
LINE
8
0
10
35.985425
20
72.599755
30
0.0
11
35.985425
21
76.399755
31
0.0
0
ARC
8
0
10
36.485425
20
76.399755
30
0.0
40
0.500000
50
0.000000
51
180.000000
0
LINE
8
0
10
36.985425
20
76.399755
30
0.0
11
36.985425
21
72.599755
31
0.0
0
ARC
8
0
10
37.285425
20
72.599755
30
0.0
40
0.300000
50
180.000000
51
270.000000
0
LINE
8
0
10
37.285425
20
72.299755
30
0.0
11
39.590094
21
72.299755
31
0.0
0
ARC
8
0
10
39.590094
20
73.299755
30
0.0
40
1.000000
50
270.000000
51
324.745828
0
LINE
8
0
10
40.406694
20
72.722551
30
0.0
11
41.929515
21
74.876960
31
0.0
0
ARC
8
0
10
42.746114
20
74.299755
30
0.0
40
1.000000
50
90.000000
51
144.745828
0
LINE
8
0
10
42.746114
20
75.299755
30
0.0
11
43.847425
21
75.299755
31
0.0
0
ARC
8
0
10
43.847425
20
76.499755
30
0.0
40
1.200000
50
270.000000
51
299.981639
0
LINE
8
0
10
44.447092
20
75.460333
30
0.0
11
46.029036
21
76.372993
31
0.0
0
ARC
8
0
10
46.128980
20
76.199755
30
0.0
40
0.200000
50
90.000000
51
119.981639
0
LINE
8
0
10
46.128980
20
76.399755
30
0.0
11
46.335425
21
76.399755
31
0.0
0
ARC
8
0
10
46.335425
20
75.999755
30
0.0
40
0.400000
50
0.000000
51
90.000000
0
LINE
8
0
10
46.735425
20
75.999755
30
0.0
11
46.735425
21
72.599755
31
0.0
0
ARC
8
0
10
46.335425
20
72.599755
30
0.0
40
0.400000
50
270.000000
51
0.000000
0
LINE
8
0
10
46.335425
20
72.199755
30
0.0
11
46.128980
21
72.199755
31
0.0
0
ARC
8
0
10
46.128980
20
72.399755
30
0.0
40
0.200000
50
240.018361
51
270.000000
0
LINE
8
0
10
46.029036
20
72.226518
30
0.0
11
44.447092
21
73.139178
31
0.0
0
ARC
8
0
10
43.847425
20
72.099755
30
0.0
40
1.200000
50
60.018361
51
90.000000
0
LINE
8
0
10
43.847425
20
73.299755
30
0.0
11
43.419191
21
73.299755
31
0.0
0
ARC
8
0
10
43.419191
20
72.999755
30
0.0
40
0.300000
50
90.000000
51
144.745828
0
LINE
8
0
10
43.174211
20
73.172917
30
0.0
11
41.292772
21
70.511153
31
0.0
0
ARC
8
0
10
40.884472
20
70.799755
30
0.0
40
0.500000
50
270.000000
51
324.745828
0
LINE
8
0
10
40.884472
20
70.299755
30
0.0
11
-2.413623
21
70.299755
31
0.0
0
ARC
8
0
10
-2.413623
20
70.799755
30
0.0
40
0.500000
50
215.254172
51
270.000000
0
LINE
8
0
10
-2.821923
20
70.511153
30
0.0
11
-4.703362
21
73.172917
31
0.0
0
ARC
8
0
10
-4.948342
20
72.999755
30
0.0
40
0.300000
50
35.254172
51
90.000000
0
LINE
8
0
10
-4.948342
20
73.299755
30
0.0
11
-5.376576
21
73.299755
31
0.0
0
ARC
8
0
10
-5.376576
20
72.099755
30
0.0
40
1.200000
50
90.000000
51
119.981639
0
LINE
8
0
10
-5.976243
20
73.139178
30
0.0
11
-7.558186
21
72.226518
31
0.0
0
ARC
8
0
10
-7.658131
20
72.399755
30
0.0
40
0.200000
50
270.000000
51
299.981639
0
LINE
8
0
10
-7.658131
20
72.199755
30
0.0
11
-7.864575
21
72.199755
31
0.0
0
ARC
8
0
10
-7.864575
20
72.599755
30
0.0
40
0.400000
50
180.000000
51
270.000000
0
LINE
8
0
10
-8.264575
20
72.599755
30
0.0
11
-8.264575
21
75.999755
31
0.0
0
ARC
8
0
10
-7.864575
20
75.999755
30
0.0
40
0.400000
50
90.000000
51
180.000000
0
LINE
8
0
10
-7.864575
20
76.399755
30
0.0
11
-7.658131
21
76.399755
31
0.0
0
ARC
8
0
10
-7.658131
20
76.199755
30
0.0
40
0.200000
50
60.018361
51
90.000000
0
LINE
8
0
10
-7.558186
20
76.372993
30
0.0
11
-5.976243
21
75.460333
31
0.0
0
ARC
8
0
10
-5.376576
20
76.499755
30
0.0
40
1.200000
50
240.018361
51
270.000000
0
LINE
8
0
10
-5.376576
20
75.299755
30
0.0
11
-4.275265
21
75.299755
31
0.0
0
ARC
8
0
10
-4.275265
20
74.299755
30
0.0
40
1.000000
50
35.254172
51
90.000000
0
LINE
8
0
10
-3.458666
20
74.876960
30
0.0
11
-1.935845
21
72.722551
31
0.0
0
ARC
8
0
10
-1.119245
20
73.299755
30
0.0
40
1.000000
50
215.254172
51
270.000000
0
LINE
8
0
10
-1.119245
20
72.299755
30
0.0
11
1.185425
21
72.299755
31
0.0
0
ARC
8
0
10
1.185425
20
72.599755
30
0.0
40
0.300000
50
270.000000
51
0.000000
0
LINE
8
0
10
1.485425
20
72.599755
30
0.0
11
1.485425
21
76.399755
31
0.0
0
ARC
8
0
10
1.985425
20
76.399755
30
0.0
40
0.500000
50
0.000000
51
180.000000
0
LINE
8
0
10
2.485425
20
76.399755
30
0.0
11
2.485425
21
72.599755
31
0.0
0
ARC
8
0
10
2.785425
20
72.599755
30
0.0
40
0.300000
50
180.000000
51
270.000000
0
LINE
8
0
10
2.785425
20
72.299755
30
0.0
11
12.685425
21
72.299755
31
0.0
0
ARC
8
0
10
12.685425
20
72.599755
30
0.0
40
0.300000
50
270.000000
51
0.000000
0
LINE
8
0
10
12.985425
20
72.599755
30
0.0
11
12.985425
21
76.399755
31
0.0
0
ARC
8
0
10
13.485425
20
76.399755
30
0.0
40
0.500000
50
0.000000
51
180.000000
0
LINE
8
0
10
13.985425
20
76.399755
30
0.0
11
13.985425
21
72.599755
31
0.0
0
ARC
8
0
10
14.285425
20
72.599755
30
0.0
40
0.300000
50
180.000000
51
270.000000
0
ATTDEF
8
0
10
73.485425
20
113.684452
30
0.0
40
3.5
1

3

2
VC_START
70
0
0
ATTDEF
8
0
10
72.950496
20
70.284452
30
0.0
40
3.5
1

3

2
VC_END
70
0
0
ATTDEF
8
0
10
-30.365411
20
70.284443
30
0.0
40
3.5
1

3

2
FRONT_VIEW
70
0
0
ATTDEF
8
0
10
-30.365411
20
70.284443
30
0.0
40
3.5
1

3

2
BL01:6800.000000,,1
70
0
0
ATTDEF
8
0
10
-30.365411
20
70.284443
30
0.0
40
3.5
1

3

2
OPTI:500.000000,1,0,3000.000000,6500.000000,500.000000,0,0.000000,0
70
0
0
ATTDEF
8
0
10
-30.365411
20
70.284443
30
0.0
40
3.5
1

3

2
GLASS_MIN:0.000000
70
0
0
ATTDEF
8
0
10
-30.365411
20
70.284443
30
0.0
40
3.5
1

3

2
GLASS_MAX:0.000000
70
0
0
ATTDEF
8
0
10
-30.365411
20
70.284443
30
0.0
40
3.5
1

3

2
FP_LCS_ORIG
70
0
0
ATTDEF
8
0
10
-20.365411
20
70.284443
30
0.0
40
3.5
1

3

2
FP_LCS_HOT
70
0
0
ATTDEF
8
0
10
-30.365411
20
80.284443
30
0.0
40
3.5
1

3

2
FP_LCS_INTERN
70
0
0
ATTDEF
8
0
10
0.000000
20
0.000000
30
0.0
40
3.5
1

3

2
TDEV2:0
70
0
0
ATTDEF
8
0
10
0.000000
20
0.000000
30
0.0
40
3.5
1

3

2
TDEV3:0
70
0
0
ATTDEF
8
0
10
0.000000
20
0.000000
30
0.0
40
3.5
1

3

2
TDEV4:0
70
0
0
ATTDEF
8
0
10
0.000000
20
0.000000
30
0.0
40
3.5
1

3

2
TDEV5:0
70
0
0
ATTDEF
8
0
10
0.000000
20
0.000000
30
0.0
40
3.5
1

3

2
PANE_WIDTH:0
70
0
0
ATTDEF
8
0
10
0.000000
20
0.000000
30
0.0
40
3.5
1

3

2
MIN_VETRO:0
70
0
0
ATTDEF
8
0
10
0.000000
20
0.000000
30
0.0
40
3.5
1

3

2
MAX_VETRO:0
70
0
0
ATTDEF
8
0
10
0.000000
20
0.000000
30
0.0
40
3.5
1

3

2
JX:0
70
0
0
ATTDEF
8
0
10
0.000000
20
0.000000
30
0.0
40
3.5
1

3

2
WX:0
70
0
0
ATTDEF
8
0
10
0.000000
20
0.000000
30
0.0
40
3.5
1

3

2
JY:0
70
0
0
ATTDEF
8
0
10
0.000000
20
0.000000
30
0.0
40
3.5
1

3

2
WY:0
70
0
0
ATTDEF
8
0
10
0.000000
20
0.000000
30
0.0
40
3.5
1

3

2
DESC:Telaio composito 3 ante 3 vie
70
0
0
ATTDEF
8
0
10
0.000000
20
0.000000
30
0.0
40
3.5
1

3

2
DENS:1.95
70
0
0
ATTDEF
8
0
10
0.000000
20
0.000000
30
0.0
40
3.5
1

3

2
TDEV:0
70
0
0
ATTDEF
8
0
10
0.000000
20
0.000000
30
0.0
40
3.5
1

3

2
TDEV2:0
70
0
0
ATTDEF
8
0
10
0.000000
20
0.000000
30
0.0
40
3.5
1

3

2
TDEV3:0
70
0
0
ATTDEF
8
0
10
0.000000
20
0.000000
30
0.0
40
3.5
1

3

2
TDEV4:0
70
0
0
ATTDEF
8
0
10
0.000000
20
0.000000
30
0.0
40
3.5
1

3

2
TDEV5:0
70
0
0
ATTDEF
8
0
10
0.000000
20
0.000000
30
0.0
40
3.5
1

3

2
PANE_WIDTH:0
70
0
0
ATTDEF
8
0
10
0.000000
20
0.000000
30
0.0
40
3.5
1

3

2
MIN_VETRO:0
70
0
0
ATTDEF
8
0
10
0.000000
20
0.000000
30
0.0
40
3.5
1

3

2
MAX_VETRO:0
70
0
0
ATTDEF
8
0
10
0.000000
20
0.000000
30
0.0
40
3.5
1

3

2
JX:0
70
0
0
ATTDEF
8
0
10
0.000000
20
0.000000
30
0.0
40
3.5
1

3

2
WX:0
70
0
0
ATTDEF
8
0
10
0.000000
20
0.000000
30
0.0
40
3.5
1

3

2
JY:0
70
0
0
ATTDEF
8
0
10
0.000000
20
0.000000
30
0.0
40
3.5
1

3

2
WY:0
70
0
0
ENDSEC
0
EOF
