0
SECTION
2
ENTITIES
0
ARC
8
0
10
-48.097713
20
98.932443
30
0.0
40
0.300000
50
270.000000
51
0.000000
0
LINE
8
0
10
-48.097713
20
98.632443
30
0.0
11
-55.853013
21
98.632443
31
0.0
0
ARC
8
0
10
-55.853013
20
98.932443
30
0.0
40
0.300000
50
225.000000
51
270.000000
0
LINE
8
0
10
-56.065145
20
98.720311
30
0.0
11
-57.386466
21
100.041631
31
0.0
0
ARC
8
0
10
-57.598598
20
99.829499
30
0.0
40
0.300000
50
45.000000
51
135.000000
0
LINE
8
0
10
-57.810730
20
100.041631
30
0.0
11
-59.132050
21
98.720311
31
0.0
0
ARC
8
0
10
-59.344182
20
98.932443
30
0.0
40
0.300000
50
270.000000
51
315.000000
0
LINE
8
0
10
-59.344182
20
98.632443
30
0.0
11
-62.316289
21
98.632443
31
0.0
0
ARC
8
0
10
-62.316289
20
98.932443
30
0.0
40
0.300000
50
240.000000
51
270.000000
0
LINE
8
0
10
-62.466289
20
98.672635
30
0.0
11
-63.148598
21
99.066566
31
0.0
0
ARC
8
0
10
-62.998598
20
99.326374
30
0.0
40
0.300000
50
180.000000
51
240.000000
0
LINE
8
0
10
-63.298598
20
99.326374
30
0.0
11
-63.298598
21
102.938512
31
0.0
0
ARC
8
0
10
-62.998598
20
102.938512
30
0.0
40
0.300000
50
120.000000
51
180.000000
0
LINE
8
0
10
-63.148598
20
103.198319
30
0.0
11
-62.466289
21
103.592250
31
0.0
0
ARC
8
0
10
-62.316289
20
103.332443
30
0.0
40
0.300000
50
90.000000
51
120.000000
0
LINE
8
0
10
-62.316289
20
103.632443
30
0.0
11
-48.097713
21
103.632443
31
0.0
0
ARC
8
0
10
-48.097713
20
103.332443
30
0.0
40
0.300000
50
0.000000
51
90.000000
0
LINE
8
0
10
-47.797713
20
103.332443
30
0.0
11
-47.797713
21
98.932443
31
0.0
0
LINE
8
0
10
39.402287
20
129.953245
30
0.0
11
39.402287
21
114.932452
31
0.0
0
ARC
8
0
10
39.102287
20
114.932452
30
0.0
40
0.300000
50
270.000000
51
0.000000
0
LINE
8
0
10
39.102287
20
114.632452
30
0.0
11
36.402287
21
114.632452
31
0.0
0
ARC
8
0
10
36.402287
20
114.332452
30
0.0
40
0.300000
50
90.000000
51
180.000000
0
LINE
8
0
10
36.102287
20
114.332452
30
0.0
11
36.102287
21
113.432452
31
0.0
0
ARC
8
0
10
36.402287
20
113.432452
30
0.0
40
0.300000
50
180.000000
51
270.000000
0
LINE
8
0
10
36.402287
20
113.132452
30
0.0
11
37.702287
21
113.132452
31
0.0
0
ARC
8
0
10
37.702287
20
112.832452
30
0.0
40
0.300000
50
0.000000
51
90.000000
0
LINE
8
0
10
38.002287
20
112.832452
30
0.0
11
38.002287
21
111.432452
31
0.0
0
ARC
8
0
10
38.302287
20
111.432452
30
0.0
40
0.300000
50
180.000000
51
270.000000
0
LINE
8
0
10
38.302287
20
111.132452
30
0.0
11
39.102287
21
111.132452
31
0.0
0
ARC
8
0
10
39.102287
20
110.832452
30
0.0
40
0.300000
50
0.000000
51
90.000000
0
LINE
8
0
10
39.402287
20
110.832452
30
0.0
11
39.402287
21
108.832452
31
0.0
0
ARC
8
0
10
39.702287
20
108.832452
30
0.0
40
0.300000
50
180.000000
51
270.000000
0
LINE
8
0
10
39.702287
20
108.532452
30
0.0
11
49.402287
21
108.532452
31
0.0
0
ARC
8
0
10
49.402287
20
108.232452
30
0.0
40
0.300000
50
0.000000
51
90.000000
0
LINE
8
0
10
49.702287
20
108.232452
30
0.0
11
49.702287
21
98.832452
31
0.0
0
ARC
8
0
10
49.402287
20
98.832452
30
0.0
40
0.300000
50
270.000000
51
0.000000
0
LINE
8
0
10
49.402287
20
98.532452
30
0.0
11
39.802287
21
98.532452
31
0.0
0
ARC
8
0
10
39.802287
20
98.832452
30
0.0
40
0.300000
50
180.000000
51
270.000000
0
LINE
8
0
10
39.502287
20
98.832452
30
0.0
11
39.502287
21
99.732452
31
0.0
0
ARC
8
0
10
39.202287
20
99.732452
30
0.0
40
0.300000
50
0.000000
51
90.000000
0
LINE
8
0
10
39.202287
20
100.032452
30
0.0
11
38.302287
21
100.032452
31
0.0
0
ARC
8
0
10
38.302287
20
99.732452
30
0.0
40
0.300000
50
90.000000
51
180.000000
0
LINE
8
0
10
38.002287
20
99.732452
30
0.0
11
38.002287
21
98.832452
31
0.0
0
ARC
8
0
10
37.702287
20
98.832452
30
0.0
40
0.300000
50
270.000000
51
0.000000
0
LINE
8
0
10
37.702287
20
98.532452
30
0.0
11
15.302287
21
98.532452
31
0.0
0
ARC
8
0
10
15.302287
20
98.832452
30
0.0
40
0.300000
50
180.000000
51
270.000000
0
LINE
8
0
10
15.002287
20
98.832452
30
0.0
11
15.002287
21
99.732452
31
0.0
0
ARC
8
0
10
14.702287
20
99.732452
30
0.0
40
0.300000
50
0.000000
51
90.000000
0
LINE
8
0
10
14.702287
20
100.032452
30
0.0
11
13.802287
21
100.032452
31
0.0
0
ARC
8
0
10
13.802287
20
99.732452
30
0.0
40
0.300000
50
90.000000
51
180.000000
0
LINE
8
0
10
13.502287
20
99.732452
30
0.0
11
13.502287
21
98.832452
31
0.0
0
ARC
8
0
10
13.202287
20
98.832452
30
0.0
40
0.300000
50
270.000000
51
0.000000
0
LINE
8
0
10
13.202287
20
98.532452
30
0.0
11
10.502312
21
98.532452
31
0.0
0
ARC
8
0
10
10.502312
20
98.832452
30
0.0
40
0.300000
50
180.000000
51
270.000000
0
LINE
8
0
10
10.202312
20
98.832452
30
0.0
11
10.202312
21
105.232452
31
0.0
0
ARC
8
0
10
10.502312
20
105.232452
30
0.0
40
0.300000
50
90.000000
51
180.000000
0
LINE
8
0
10
10.502312
20
105.532452
30
0.0
11
13.402312
21
105.532452
31
0.0
0
ARC
8
0
10
13.402312
20
105.832452
30
0.0
40
0.300000
50
270.000000
51
0.000000
0
LINE
8
0
10
13.702312
20
105.832452
30
0.0
11
13.702312
21
110.832452
31
0.0
0
ARC
8
0
10
14.002312
20
110.832452
30
0.0
40
0.300000
50
90.000000
51
180.000000
0
LINE
8
0
10
14.002312
20
111.132452
30
0.0
11
14.702312
21
111.132452
31
0.0
0
ARC
8
0
10
14.702312
20
111.432452
30
0.0
40
0.300000
50
270.000000
51
0.000000
0
LINE
8
0
10
15.002312
20
111.432452
30
0.0
11
15.002312
21
112.832452
31
0.0
0
ARC
8
0
10
15.302312
20
112.832452
30
0.0
40
0.300000
50
90.000000
51
180.000000
0
LINE
8
0
10
15.302312
20
113.132452
30
0.0
11
17.702312
21
113.132452
31
0.0
0
ARC
8
0
10
17.702312
20
113.432452
30
0.0
40
0.300000
50
270.000000
51
0.000000
0
LINE
8
0
10
18.002312
20
113.432452
30
0.0
11
18.002312
21
114.332452
31
0.0
0
ARC
8
0
10
17.702312
20
114.332452
30
0.0
40
0.300000
50
0.000000
51
90.000000
0
LINE
8
0
10
17.702312
20
114.632452
30
0.0
11
14.002312
21
114.632452
31
0.0
0
ARC
8
0
10
14.002312
20
114.932452
30
0.0
40
0.300000
50
180.000000
51
270.000000
0
LINE
8
0
10
13.702312
20
114.932452
30
0.0
11
13.702312
21
119.232452
31
0.0
0
ARC
8
0
10
14.002312
20
119.232452
30
0.0
40
0.300000
50
90.000000
51
180.000000
0
LINE
8
0
10
14.002312
20
119.532452
30
0.0
11
17.028023
21
119.532452
31
0.0
0
ARC
8
0
10
17.028023
20
119.232452
30
0.0
40
0.300000
50
45.000000
51
90.000000
0
LINE
8
0
10
17.240155
20
119.444584
30
0.0
11
17.564419
21
119.120320
31
0.0
0
ARC
8
0
10
17.776551
20
119.332452
30
0.0
40
0.300000
50
225.000000
51
270.000000
0
LINE
8
0
10
17.776551
20
119.032452
30
0.0
11
22.028023
21
119.032452
31
0.0
0
ARC
8
0
10
22.028023
20
119.332452
30
0.0
40
0.300000
50
270.000000
51
315.000000
0
LINE
8
0
10
22.240155
20
119.120320
30
0.0
11
22.564419
21
119.444584
31
0.0
0
ARC
8
0
10
22.776551
20
119.232452
30
0.0
40
0.300000
50
90.000000
51
135.000000
0
LINE
8
0
10
22.776551
20
119.532452
30
0.0
11
26.602287
21
119.532452
31
0.0
0
ARC
8
0
10
26.602287
20
120.532452
30
0.0
40
1.000000
50
270.000000
51
0.000000
0
LINE
8
0
10
27.602287
20
120.532452
30
0.0
11
27.602287
21
123.408080
31
0.0
0
ARC
8
0
10
27.902287
20
123.408080
30
0.0
40
0.300000
50
150.000000
51
180.000000
0
LINE
8
0
10
27.642480
20
123.558080
30
0.0
11
28.493709
21
125.032452
31
0.0
0
ARC
8
0
10
26.761658
20
126.032452
30
0.0
40
2.000000
50
330.000000
51
57.356923
0
ARC
8
0
10
28.002287
20
127.969160
30
0.0
40
0.300000
50
180.000000
51
237.356923
0
LINE
8
0
10
27.702287
20
127.969160
30
0.0
11
27.702287
21
129.732452
31
0.0
0
ARC
8
0
10
28.002287
20
129.732452
30
0.0
40
0.300000
50
90.000000
51
180.000000
0
LINE
8
0
10
28.002287
20
130.032452
30
0.0
11
30.202287
21
130.032452
31
0.0
0
ARC
8
0
10
30.202287
20
130.532452
30
0.0
40
0.500000
50
270.000000
51
0.000000
0
LINE
8
0
10
30.702287
20
130.532452
30
0.0
11
30.702287
21
133.632452
31
0.0
0
ARC
8
0
10
31.002287
20
133.632452
30
0.0
40
0.300000
50
90.000000
51
180.000000
0
LINE
8
0
10
31.002287
20
133.932452
30
0.0
11
40.602287
21
133.932452
31
0.0
0
ARC
8
0
10
40.602287
20
133.632452
30
0.0
40
0.300000
50
0.000000
51
90.000000
0
LINE
8
0
10
40.902287
20
133.632452
30
0.0
11
40.902287
21
130.815565
31
0.0
0
ARC
8
0
10
40.602287
20
130.815565
30
0.0
40
0.300000
50
285.000000
51
0.000000
0
LINE
8
0
10
40.679933
20
130.525787
30
0.0
11
39.624641
21
130.243022
31
0.0
0
ARC
8
0
10
39.702287
20
129.953245
30
0.0
40
0.300000
50
105.000000
51
180.000000
0
ARC
8
0
10
9.402287
20
132.208188
30
0.0
40
0.300000
50
135.000000
51
180.000000
0
LINE
8
0
10
9.102287
20
132.208188
30
0.0
11
9.102287
21
132.332452
31
0.0
0
LINE
8
0
10
9.102287
20
132.332452
30
0.0
11
9.190155
21
132.420320
31
0.0
0
LINE
8
0
10
9.190155
20
132.420320
30
0.0
11
9.414419
21
132.644584
31
0.0
0
ARC
8
0
10
9.626551
20
132.432452
30
0.0
40
0.300000
50
90.000000
51
135.000000
0
LINE
8
0
10
9.626551
20
132.732452
30
0.0
11
10.302287
21
132.732452
31
0.0
0
ARC
8
0
10
10.302287
20
132.432452
30
0.0
40
0.300000
50
0.000000
51
90.000000
0
LINE
8
0
10
10.602287
20
132.432452
30
0.0
11
10.602287
21
131.832452
31
0.0
0
ARC
8
0
10
10.902287
20
131.832452
30
0.0
40
0.300000
50
180.000000
51
270.000000
0
LINE
8
0
10
10.902287
20
131.532452
30
0.0
11
13.312581
21
131.532452
31
0.0
0
ARC
8
0
10
13.312581
20
131.232452
30
0.0
40
0.300000
50
2.000000
51
90.000000
0
LINE
8
0
10
13.612398
20
131.242922
30
0.0
11
13.758821
21
127.049902
31
0.0
0
ARC
8
0
10
13.259126
20
127.032452
30
0.0
40
0.500000
50
270.000000
51
2.000000
0
LINE
8
0
10
13.259126
20
126.532452
30
0.0
11
13.042916
21
126.532452
31
0.0
0
ARC
8
0
10
13.042916
20
126.032452
30
0.0
40
0.500000
50
90.000000
51
210.000000
0
LINE
8
0
10
12.609904
20
125.782452
30
0.0
11
13.635300
21
124.006414
31
0.0
0
ARC
8
0
10
13.202287
20
123.756414
30
0.0
40
0.500000
50
0.000000
51
30.000000
0
LINE
8
0
10
13.702287
20
123.756414
30
0.0
11
13.702287
21
121.332452
31
0.0
0
ARC
8
0
10
14.002287
20
121.332452
30
0.0
40
0.300000
50
180.000000
51
270.000000
0
LINE
8
0
10
14.002287
20
121.032452
30
0.0
11
19.602287
21
121.032452
31
0.0
0
LINE
8
0
10
19.602287
20
121.032452
30
0.0
11
19.902287
21
120.732452
31
0.0
0
LINE
8
0
10
19.902287
20
120.732452
30
0.0
11
20.202287
21
121.032452
31
0.0
0
LINE
8
0
10
20.202287
20
121.032452
30
0.0
11
25.802287
21
121.032452
31
0.0
0
ARC
8
0
10
25.802287
20
121.332452
30
0.0
40
0.300000
50
270.000000
51
0.000000
0
LINE
8
0
10
26.102287
20
121.332452
30
0.0
11
26.102287
21
123.756414
31
0.0
0
ARC
8
0
10
26.602287
20
123.756414
30
0.0
40
0.500000
50
150.000000
51
180.000000
0
LINE
8
0
10
26.169274
20
124.006414
30
0.0
11
27.194671
21
125.782452
31
0.0
0
ARC
8
0
10
26.761658
20
126.032452
30
0.0
40
0.500000
50
330.000000
51
90.000000
0
LINE
8
0
10
26.761658
20
126.532452
30
0.0
11
26.545448
21
126.532452
31
0.0
0
ARC
8
0
10
26.545448
20
127.032452
30
0.0
40
0.500000
50
178.000000
51
270.000000
0
LINE
8
0
10
26.045753
20
127.049902
30
0.0
11
26.192177
21
131.242922
31
0.0
0
ARC
8
0
10
26.491994
20
131.232452
30
0.0
40
0.300000
50
90.000000
51
178.000000
0
LINE
8
0
10
26.491994
20
131.532452
30
0.0
11
28.902287
21
131.532452
31
0.0
0
ARC
8
0
10
28.902287
20
131.832452
30
0.0
40
0.300000
50
270.000000
51
0.000000
0
LINE
8
0
10
29.202287
20
131.832452
30
0.0
11
29.202287
21
135.132452
31
0.0
0
ARC
8
0
10
29.502287
20
135.132452
30
0.0
40
0.300000
50
90.000000
51
180.000000
0
LINE
8
0
10
29.502287
20
135.432452
30
0.0
11
41.402287
21
135.432452
31
0.0
0
ARC
8
0
10
41.402287
20
134.432452
30
0.0
40
1.000000
50
0.000000
51
90.000000
0
LINE
8
0
10
42.402287
20
134.432452
30
0.0
11
42.402287
21
129.664574
31
0.0
0
ARC
8
0
10
42.102287
20
129.664574
30
0.0
40
0.300000
50
285.000000
51
0.000000
0
LINE
8
0
10
42.179933
20
129.374796
30
0.0
11
41.124641
21
129.092032
31
0.0
0
ARC
8
0
10
41.202287
20
128.802254
30
0.0
40
0.300000
50
105.000000
51
180.000000
0
LINE
8
0
10
40.902287
20
128.802254
30
0.0
11
40.902287
21
110.332452
31
0.0
0
ARC
8
0
10
41.202287
20
110.332452
30
0.0
40
0.300000
50
180.000000
51
270.000000
0
LINE
8
0
10
41.202287
20
110.032452
30
0.0
11
50.702287
21
110.032452
31
0.0
0
ARC
8
0
10
50.702287
20
109.532452
30
0.0
40
0.500000
50
0.000000
51
90.000000
0
LINE
8
0
10
51.202287
20
109.532452
30
0.0
11
51.202287
21
92.332452
31
0.0
0
ARC
8
0
10
50.902287
20
92.332452
30
0.0
40
0.300000
50
270.000000
51
0.000000
0
LINE
8
0
10
50.902287
20
92.032452
30
0.0
11
47.672144
21
92.032452
31
0.0
0
ARC
8
0
10
47.672144
20
92.332452
30
0.0
40
0.300000
50
210.963757
51
270.000000
0
LINE
8
0
10
47.414896
20
92.178103
30
0.0
11
46.945039
21
92.961199
31
0.0
0
ARC
8
0
10
47.202287
20
93.115547
30
0.0
40
0.300000
50
180.000000
51
210.963757
0
LINE
8
0
10
46.902287
20
93.115547
30
0.0
11
46.902287
21
93.232452
31
0.0
0
ARC
8
0
10
47.202287
20
93.232452
30
0.0
40
0.300000
50
90.000000
51
180.000000
0
LINE
8
0
10
47.202287
20
93.532452
30
0.0
11
49.102287
21
93.532452
31
0.0
0
ARC
8
0
10
49.102287
20
93.832452
30
0.0
40
0.300000
50
270.000000
51
0.000000
0
LINE
8
0
10
49.402287
20
93.832452
30
0.0
11
49.402287
21
96.732452
31
0.0
0
ARC
8
0
10
49.102287
20
96.732452
30
0.0
40
0.300000
50
0.000000
51
90.000000
0
LINE
8
0
10
49.102287
20
97.032452
30
0.0
11
35.202287
21
97.032452
31
0.0
0
ARC
8
0
10
35.202287
20
96.732452
30
0.0
40
0.300000
50
90.000000
51
180.000000
0
LINE
8
0
10
34.902287
20
96.732452
30
0.0
11
34.902287
21
93.832452
31
0.0
0
ARC
8
0
10
35.202287
20
93.832452
30
0.0
40
0.300000
50
180.000000
51
270.000000
0
LINE
8
0
10
35.202287
20
93.532452
30
0.0
11
36.602287
21
93.532452
31
0.0
0
ARC
8
0
10
36.602287
20
93.232452
30
0.0
40
0.300000
50
0.000000
51
90.000000
0
LINE
8
0
10
36.902287
20
93.232452
30
0.0
11
36.902287
21
93.115547
31
0.0
0
ARC
8
0
10
36.602287
20
93.115547
30
0.0
40
0.300000
50
329.036244
51
0.000000
0
LINE
8
0
10
36.859535
20
92.961199
30
0.0
11
36.389678
21
92.178103
31
0.0
0
ARC
8
0
10
36.132430
20
92.332452
30
0.0
40
0.300000
50
270.000000
51
329.036244
0
LINE
8
0
10
36.132430
20
92.032452
30
0.0
11
33.702287
21
92.032452
31
0.0
0
ARC
8
0
10
33.702287
20
92.332452
30
0.0
40
0.300000
50
180.000000
51
270.000000
0
LINE
8
0
10
33.402287
20
92.332452
30
0.0
11
33.402287
21
96.732452
31
0.0
0
ARC
8
0
10
33.102287
20
96.732452
30
0.0
40
0.300000
50
0.000000
51
90.000000
0
LINE
8
0
10
33.102287
20
97.032452
30
0.0
11
10.502287
21
97.032452
31
0.0
0
ARC
8
0
10
10.502287
20
96.732452
30
0.0
40
0.300000
50
90.000000
51
180.000000
0
LINE
8
0
10
10.202287
20
96.732452
30
0.0
11
10.202287
21
92.332452
31
0.0
0
ARC
8
0
10
9.902287
20
92.332452
30
0.0
40
0.300000
50
270.000000
51
0.000000
0
LINE
8
0
10
9.902287
20
92.032452
30
0.0
11
8.434371
21
92.032452
31
0.0
0
ARC
8
0
10
8.434371
20
92.332452
30
0.0
40
0.300000
50
250.221829
51
270.000000
0
LINE
8
0
10
8.332858
20
92.050149
30
0.0
11
7.030995
21
92.518288
31
0.0
0
ARC
8
0
10
6.951476
20
92.297151
30
0.0
40
0.235000
50
70.221829
51
156.000000
0
ARC
8
0
10
6.515541
20
92.473565
30
0.0
40
0.235000
50
270.000000
51
336.000000
0
LINE
8
0
10
6.517097
20
92.238570
30
0.0
11
4.938169
21
92.228113
31
0.0
0
ARC
8
0
10
4.936182
20
92.528106
30
0.0
40
0.300000
50
155.379459
51
270.000000
0
LINE
8
0
10
4.663456
20
92.653088
30
0.0
11
5.612106
21
94.758603
31
0.0
0
ARC
8
0
10
5.885626
20
94.635368
30
0.0
40
0.300000
50
115.379459
51
155.745828
0
LINE
8
0
10
5.757043
20
94.906414
30
0.0
11
6.264465
21
95.147134
31
0.0
0
ARC
8
0
10
6.350188
20
94.966436
30
0.0
40
0.200000
50
355.379459
51
115.379459
0
LINE
8
0
10
6.549538
20
94.950325
30
0.0
11
6.540236
21
94.835230
31
0.0
0
ARC
8
0
10
6.839261
20
94.811063
30
0.0
40
0.300000
50
175.379459
51
235.379459
0
LINE
8
0
10
6.668819
20
94.564183
30
0.0
11
8.297576
21
93.439717
31
0.0
0
LINE
8
0
10
8.297576
20
93.439717
30
0.0
11
8.480285
21
93.358370
31
0.0
0
ARC
8
0
10
8.602287
20
93.632452
30
0.0
40
0.300009
50
246.004713
51
48.187329
0
ARC
8
0
10
9.002312
20
94.079656
30
0.0
40
0.300000
50
180.000000
51
228.187329
0
LINE
8
0
10
8.702312
20
94.079656
30
0.0
11
8.702312
21
97.932443
31
0.0
0
ARC
8
0
10
8.402312
20
97.932443
30
0.0
40
0.300000
50
0.000000
51
90.000000
0
LINE
8
0
10
8.402312
20
98.232443
30
0.0
11
8.181118
21
98.232443
31
0.0
0
ARC
8
0
10
8.181118
20
97.932443
30
0.0
40
0.300000
50
90.000000
51
121.400000
0
LINE
8
0
10
8.024816
20
98.188508
30
0.0
11
6.506514
21
97.261733
31
0.0
0
ARC
8
0
10
6.402312
20
97.432443
30
0.0
40
0.200000
50
180.000000
51
301.400000
0
LINE
8
0
10
6.202312
20
97.432443
30
0.0
11
6.202312
21
101.632443
31
0.0
0
ARC
8
0
10
6.402312
20
101.632443
30
0.0
40
0.200000
50
58.600000
51
180.000000
0
LINE
8
0
10
6.506514
20
101.803153
30
0.0
11
8.024816
21
100.876377
31
0.0
0
ARC
8
0
10
8.181118
20
101.132443
30
0.0
40
0.300000
50
238.600000
51
270.000000
0
LINE
8
0
10
8.181118
20
100.832443
30
0.0
11
8.402312
21
100.832443
31
0.0
0
ARC
8
0
10
8.402312
20
101.132443
30
0.0
40
0.300000
50
270.000000
51
0.000000
0
LINE
8
0
10
8.702312
20
101.132443
30
0.0
11
8.702312
21
104.985229
31
0.0
0
ARC
8
0
10
9.002312
20
104.985229
30
0.0
40
0.300000
50
131.812671
51
180.000000
0
ARC
8
0
10
8.602287
20
105.432433
30
0.0
40
0.300009
50
311.812671
51
113.995287
0
LINE
8
0
10
8.480285
20
105.706516
30
0.0
11
8.297576
21
105.625168
31
0.0
0
LINE
8
0
10
8.297576
20
105.625168
30
0.0
11
6.668819
21
104.500702
31
0.0
0
ARC
8
0
10
6.839261
20
104.253823
30
0.0
40
0.300000
50
124.620541
51
184.620541
0
LINE
8
0
10
6.540236
20
104.229656
30
0.0
11
6.549538
21
104.114561
31
0.0
0
ARC
8
0
10
6.350188
20
104.098450
30
0.0
40
0.200000
50
244.620541
51
4.620541
0
LINE
8
0
10
6.264465
20
103.917752
30
0.0
11
5.757043
21
104.158471
31
0.0
0
ARC
8
0
10
5.885626
20
104.429518
30
0.0
40
0.300000
50
204.254172
51
244.620541
0
LINE
8
0
10
5.612106
20
104.306282
30
0.0
11
4.663456
21
106.411797
31
0.0
0
ARC
8
0
10
4.936182
20
106.536779
30
0.0
40
0.300000
50
90.000000
51
204.620541
0
LINE
8
0
10
4.938169
20
106.836773
30
0.0
11
6.517097
21
106.826316
31
0.0
0
ARC
8
0
10
6.515541
20
106.591321
30
0.0
40
0.235000
50
24.000000
51
90.000000
0
ARC
8
0
10
6.951476
20
106.767734
30
0.0
40
0.235000
50
204.000000
51
289.778171
0
LINE
8
0
10
7.030995
20
106.546597
30
0.0
11
8.332910
21
107.014755
31
0.0
0
ARC
8
0
10
8.434424
20
106.732452
30
0.0
40
0.300000
50
90.000000
51
109.778171
0
LINE
8
0
10
8.434424
20
107.032452
30
0.0
11
11.902312
21
107.032452
31
0.0
0
ARC
8
0
10
11.902312
20
107.332452
30
0.0
40
0.300000
50
270.000000
51
0.000000
0
LINE
8
0
10
12.202312
20
107.332452
30
0.0
11
12.202312
21
112.832452
31
0.0
0
ARC
8
0
10
11.902312
20
112.832452
30
0.0
40
0.300000
50
0.000000
51
90.000000
0
LINE
8
0
10
11.902312
20
113.132452
30
0.0
11
9.302312
21
113.132452
31
0.0
0
ARC
8
0
10
9.302312
20
113.432452
30
0.0
40
0.300000
50
180.000000
51
270.000000
0
LINE
8
0
10
9.002312
20
113.432452
30
0.0
11
9.002312
21
114.332452
31
0.0
0
ARC
8
0
10
9.302312
20
114.332452
30
0.0
40
0.300000
50
90.000000
51
180.000000
0
LINE
8
0
10
9.302312
20
114.632452
30
0.0
11
11.902312
21
114.632452
31
0.0
0
ARC
8
0
10
11.902312
20
114.932452
30
0.0
40
0.300000
50
270.000000
51
0.000000
0
LINE
8
0
10
12.202312
20
114.932452
30
0.0
11
12.202312
21
123.408037
31
0.0
0
ARC
8
0
10
11.902312
20
123.408037
30
0.0
40
0.300000
50
0.000000
51
30.000000
0
LINE
8
0
10
12.162119
20
123.558037
30
0.0
11
11.310866
21
125.032452
31
0.0
0
ARC
8
0
10
13.042916
20
126.032452
30
0.0
40
2.000000
50
122.643077
51
210.000000
0
ARC
8
0
10
11.802287
20
127.969160
30
0.0
40
0.300000
50
302.643077
51
0.000000
0
LINE
8
0
10
12.102287
20
127.969160
30
0.0
11
12.102287
21
129.732452
31
0.0
0
ARC
8
0
10
11.802287
20
129.732452
30
0.0
40
0.300000
50
0.000000
51
90.000000
0
LINE
8
0
10
11.802287
20
130.032452
30
0.0
11
9.402287
21
130.032452
31
0.0
0
ARC
8
0
10
9.402287
20
130.332452
30
0.0
40
0.300000
50
180.000000
51
270.000000
0
LINE
8
0
10
9.102287
20
130.332452
30
0.0
11
9.102287
21
132.208188
31
0.0
0
ARC
8
0
10
-62.718213
20
104.832443
30
0.0
40
0.300000
50
90.000000
51
120.000000
0
LINE
8
0
10
-62.718213
20
105.132443
30
0.0
11
-49.798598
21
105.132443
31
0.0
0
ARC
8
0
10
-49.798598
20
105.632443
30
0.0
40
0.500000
50
270.000000
51
0.000000
0
LINE
8
0
10
-49.298598
20
105.632443
30
0.0
11
-49.298598
21
106.532443
31
0.0
0
ARC
8
0
10
-48.798598
20
106.532443
30
0.0
40
0.500000
50
90.000000
51
180.000000
0
LINE
8
0
10
-48.798598
20
107.032443
30
0.0
11
-46.029774
21
107.032443
31
0.0
0
ARC
8
0
10
-46.029774
20
106.732443
30
0.0
40
0.300000
50
70.221829
51
90.000000
0
LINE
8
0
10
-45.928260
20
107.014746
30
0.0
11
-44.626371
21
106.546597
31
0.0
0
ARC
8
0
10
-44.546852
20
106.767734
30
0.0
40
0.235000
50
250.221829
51
336.000000
0
ARC
8
0
10
-44.110917
20
106.591321
30
0.0
40
0.235000
50
90.000000
51
156.000000
0
LINE
8
0
10
-44.112474
20
106.826316
30
0.0
11
-42.533546
21
106.836773
31
0.0
0
ARC
8
0
10
-42.531559
20
106.536779
30
0.0
40
0.300000
50
335.379459
51
90.000000
0
LINE
8
0
10
-42.258833
20
106.411797
30
0.0
11
-43.207483
21
104.306282
31
0.0
0
ARC
8
0
10
-43.481002
20
104.429518
30
0.0
40
0.300000
50
295.379459
51
335.745828
0
LINE
8
0
10
-43.352419
20
104.158471
30
0.0
11
-43.859842
21
103.917752
31
0.0
0
ARC
8
0
10
-43.945564
20
104.098450
30
0.0
40
0.200000
50
175.379459
51
295.379459
0
LINE
8
0
10
-44.144914
20
104.114561
30
0.0
11
-44.135612
21
104.229656
31
0.0
0
ARC
8
0
10
-44.434637
20
104.253823
30
0.0
40
0.300000
50
355.379459
51
55.379459
0
LINE
8
0
10
-44.264196
20
104.500702
30
0.0
11
-45.892952
21
105.625168
31
0.0
0
LINE
8
0
10
-45.892952
20
105.625168
30
0.0
11
-46.075661
21
105.706516
31
0.0
0
ARC
8
0
10
-46.197663
20
105.432433
30
0.0
40
0.300009
50
66.004713
51
228.187329
0
ARC
8
0
10
-46.597688
20
104.985229
30
0.0
40
0.300000
50
0.000000
51
48.187329
0
LINE
8
0
10
-46.297688
20
104.985229
30
0.0
11
-46.297688
21
101.132443
31
0.0
0
ARC
8
0
10
-45.997688
20
101.132443
30
0.0
40
0.300000
50
180.000000
51
270.000000
0
LINE
8
0
10
-45.997688
20
100.832443
30
0.0
11
-45.776495
21
100.832443
31
0.0
0
ARC
8
0
10
-45.776495
20
101.132443
30
0.0
40
0.300000
50
270.000000
51
301.400000
0
LINE
8
0
10
-45.620192
20
100.876377
30
0.0
11
-44.101890
21
101.803153
31
0.0
0
ARC
8
0
10
-43.997688
20
101.632443
30
0.0
40
0.200000
50
0.000000
51
121.400000
0
LINE
8
0
10
-43.797688
20
101.632443
30
0.0
11
-43.797688
21
97.432443
31
0.0
0
ARC
8
0
10
-43.997688
20
97.432443
30
0.0
40
0.200000
50
238.600000
51
0.000000
0
LINE
8
0
10
-44.101890
20
97.261733
30
0.0
11
-45.620192
21
98.188508
31
0.0
0
ARC
8
0
10
-45.776495
20
97.932443
30
0.0
40
0.300000
50
58.600000
51
90.000000
0
LINE
8
0
10
-45.776495
20
98.232443
30
0.0
11
-45.997688
21
98.232443
31
0.0
0
ARC
8
0
10
-45.997688
20
97.932443
30
0.0
40
0.300000
50
90.000000
51
180.000000
0
LINE
8
0
10
-46.297688
20
97.932443
30
0.0
11
-46.297688
21
94.079656
31
0.0
0
ARC
8
0
10
-46.597688
20
94.079656
30
0.0
40
0.300000
50
311.812671
51
0.000000
0
ARC
8
0
10
-46.197663
20
93.632452
30
0.0
40
0.300009
50
131.812671
51
293.995287
0
LINE
8
0
10
-46.075661
20
93.358370
30
0.0
11
-45.892952
21
93.439717
31
0.0
0
LINE
8
0
10
-45.892952
20
93.439717
30
0.0
11
-44.264196
21
94.564183
31
0.0
0
ARC
8
0
10
-44.434637
20
94.811063
30
0.0
40
0.300000
50
304.620541
51
4.620541
0
LINE
8
0
10
-44.135612
20
94.835230
30
0.0
11
-44.144914
21
94.950325
31
0.0
0
ARC
8
0
10
-43.945564
20
94.966436
30
0.0
40
0.200000
50
64.620541
51
184.620541
0
LINE
8
0
10
-43.859842
20
95.147134
30
0.0
11
-43.352419
21
94.906414
31
0.0
0
ARC
8
0
10
-43.481002
20
94.635368
30
0.0
40
0.300000
50
24.254172
51
64.620541
0
LINE
8
0
10
-43.207483
20
94.758603
30
0.0
11
-42.258833
21
92.653088
31
0.0
0
ARC
8
0
10
-42.531559
20
92.528106
30
0.0
40
0.300000
50
270.000000
51
24.620541
0
LINE
8
0
10
-42.533546
20
92.228113
30
0.0
11
-44.112474
21
92.238570
31
0.0
0
ARC
8
0
10
-44.110917
20
92.473565
30
0.0
40
0.235000
50
204.000000
51
270.000000
0
ARC
8
0
10
-44.546852
20
92.297151
30
0.0
40
0.235000
50
24.000000
51
109.778171
0
LINE
8
0
10
-44.626371
20
92.518288
30
0.0
11
-45.928260
21
92.050140
31
0.0
0
ARC
8
0
10
-46.029774
20
92.332443
30
0.0
40
0.300000
50
270.000000
51
289.778171
0
LINE
8
0
10
-46.029774
20
92.032443
30
0.0
11
-47.597713
21
92.032443
31
0.0
0
ARC
8
0
10
-47.597713
20
92.532443
30
0.0
40
0.500000
50
180.000000
51
270.000000
0
LINE
8
0
10
-48.097713
20
92.532443
30
0.0
11
-48.097713
21
92.932443
31
0.0
0
ARC
8
0
10
-48.597713
20
92.932443
30
0.0
40
0.500000
50
0.000000
51
90.000000
0
LINE
8
0
10
-48.597713
20
93.432443
30
0.0
11
-51.098182
21
93.432443
31
0.0
0
ARC
8
0
10
-51.098182
20
93.932443
30
0.0
40
0.500000
50
180.000000
51
270.000000
0
LINE
8
0
10
-51.598182
20
93.932443
30
0.0
11
-51.598182
21
94.332443
31
0.0
0
ARC
8
0
10
-51.098182
20
94.332443
30
0.0
40
0.500000
50
90.000000
51
180.000000
0
LINE
8
0
10
-51.098182
20
94.832443
30
0.0
11
-49.398182
21
94.832443
31
0.0
0
ARC
8
0
10
-49.398182
20
95.332443
30
0.0
40
0.500000
50
270.000000
51
0.000000
0
LINE
8
0
10
-48.898182
20
95.332443
30
0.0
11
-48.898182
21
96.632443
31
0.0
0
ARC
8
0
10
-49.398182
20
96.632443
30
0.0
40
0.500000
50
0.000000
51
90.000000
0
LINE
8
0
10
-49.398182
20
97.132443
30
0.0
11
-56.474334
21
97.132443
31
0.0
0
ARC
8
0
10
-56.474334
20
97.432443
30
0.0
40
0.300000
50
225.000000
51
270.000000
0
LINE
8
0
10
-56.686466
20
97.220311
30
0.0
11
-57.386466
21
97.920311
31
0.0
0
ARC
8
0
10
-57.598598
20
97.708179
30
0.0
40
0.300000
50
45.000000
51
135.000000
0
LINE
8
0
10
-57.810730
20
97.920311
30
0.0
11
-58.510730
21
97.220311
31
0.0
0
ARC
8
0
10
-58.722862
20
97.432443
30
0.0
40
0.300000
50
270.000000
51
315.000000
0
LINE
8
0
10
-58.722862
20
97.132443
30
0.0
11
-62.718213
21
97.132443
31
0.0
0
ARC
8
0
10
-62.718213
20
97.432443
30
0.0
40
0.300000
50
240.000000
51
270.000000
0
LINE
8
0
10
-62.868213
20
97.172635
30
0.0
11
-64.648598
21
98.200541
31
0.0
0
ARC
8
0
10
-64.498598
20
98.460348
30
0.0
40
0.300000
50
180.000000
51
240.000000
0
LINE
8
0
10
-64.798598
20
98.460348
30
0.0
11
-64.798598
21
103.804537
31
0.0
0
ARC
8
0
10
-64.498598
20
103.804537
30
0.0
40
0.300000
50
120.000000
51
180.000000
0
LINE
8
0
10
-64.648598
20
104.064345
30
0.0
11
-62.868213
21
105.092250
31
0.0
0
LINE
8
0
10
-13.847713
20
105.017130
30
0.0
11
-23.747713
21
105.017130
31
0.0
0
ARC
8
0
10
-23.747713
20
104.717130
30
0.0
40
0.300000
50
90.000000
51
180.000000
0
LINE
8
0
10
-24.047713
20
104.717130
30
0.0
11
-24.047713
21
100.917130
31
0.0
0
ARC
8
0
10
-24.547713
20
100.917130
30
0.0
40
0.500000
50
180.000000
51
0.000000
0
LINE
8
0
10
-25.047713
20
100.917130
30
0.0
11
-25.047713
21
104.717130
31
0.0
0
ARC
8
0
10
-25.347713
20
104.717130
30
0.0
40
0.300000
50
0.000000
51
90.000000
0
LINE
8
0
10
-25.347713
20
105.017130
30
0.0
11
-35.247713
21
105.017130
31
0.0
0
ARC
8
0
10
-35.247713
20
104.717130
30
0.0
40
0.300000
50
90.000000
51
180.000000
0
LINE
8
0
10
-35.547713
20
104.717130
30
0.0
11
-35.547713
21
100.917130
31
0.0
0
ARC
8
0
10
-36.047713
20
100.917130
30
0.0
40
0.500000
50
180.000000
51
0.000000
0
LINE
8
0
10
-36.547713
20
100.917130
30
0.0
11
-36.547713
21
104.717130
31
0.0
0
ARC
8
0
10
-36.847713
20
104.717130
30
0.0
40
0.300000
50
0.000000
51
90.000000
0
LINE
8
0
10
-36.847713
20
105.017130
30
0.0
11
-39.152383
21
105.017130
31
0.0
0
ARC
8
0
10
-39.152383
20
104.017130
30
0.0
40
1.000000
50
90.000000
51
144.745828
0
LINE
8
0
10
-39.968982
20
104.594334
30
0.0
11
-41.491803
21
102.439925
31
0.0
0
ARC
8
0
10
-42.308403
20
103.017130
30
0.0
40
1.000000
50
270.000000
51
324.745828
0
LINE
8
0
10
-42.308403
20
102.017130
30
0.0
11
-43.409713
21
102.017130
31
0.0
0
ARC
8
0
10
-43.409713
20
100.817130
30
0.0
40
1.200000
50
90.000000
51
119.981639
0
LINE
8
0
10
-44.009380
20
101.856552
30
0.0
11
-45.591324
21
100.943893
31
0.0
0
ARC
8
0
10
-45.691268
20
101.117130
30
0.0
40
0.200000
50
270.000000
51
299.981639
0
LINE
8
0
10
-45.691268
20
100.917130
30
0.0
11
-45.897713
21
100.917130
31
0.0
0
ARC
8
0
10
-45.897713
20
101.317130
30
0.0
40
0.400000
50
180.000000
51
270.000000
0
LINE
8
0
10
-46.297713
20
101.317130
30
0.0
11
-46.297713
21
104.717130
31
0.0
0
ARC
8
0
10
-45.897713
20
104.717130
30
0.0
40
0.400000
50
90.000000
51
180.000000
0
LINE
8
0
10
-45.897713
20
105.117130
30
0.0
11
-45.691268
21
105.117130
31
0.0
0
ARC
8
0
10
-45.691268
20
104.917130
30
0.0
40
0.200000
50
60.018361
51
90.000000
0
LINE
8
0
10
-45.591324
20
105.090367
30
0.0
11
-44.009380
21
104.177707
31
0.0
0
ARC
8
0
10
-43.409713
20
105.217130
30
0.0
40
1.200000
50
240.018361
51
270.000000
0
LINE
8
0
10
-43.409713
20
104.017130
30
0.0
11
-42.981479
21
104.017130
31
0.0
0
ARC
8
0
10
-42.981479
20
104.317130
30
0.0
40
0.300000
50
270.000000
51
324.745828
0
LINE
8
0
10
-42.736499
20
104.143968
30
0.0
11
-40.855060
21
106.805732
31
0.0
0
ARC
8
0
10
-40.446760
20
106.517130
30
0.0
40
0.500000
50
90.000000
51
144.745828
0
LINE
8
0
10
-40.446760
20
107.017130
30
0.0
11
2.851335
21
107.017130
31
0.0
0
ARC
8
0
10
2.851335
20
106.517130
30
0.0
40
0.500000
50
35.254172
51
90.000000
0
LINE
8
0
10
3.259634
20
106.805732
30
0.0
11
5.141074
21
104.143968
31
0.0
0
ARC
8
0
10
5.386054
20
104.317130
30
0.0
40
0.300000
50
215.254172
51
270.000000
0
LINE
8
0
10
5.386054
20
104.017130
30
0.0
11
5.814288
21
104.017130
31
0.0
0
ARC
8
0
10
5.814288
20
105.217130
30
0.0
40
1.200000
50
270.000000
51
299.981639
0
LINE
8
0
10
6.413954
20
104.177707
30
0.0
11
7.995898
21
105.090367
31
0.0
0
ARC
8
0
10
8.095843
20
104.917130
30
0.0
40
0.200000
50
90.000000
51
119.981639
0
LINE
8
0
10
8.095843
20
105.117130
30
0.0
11
8.302287
21
105.117130
31
0.0
0
ARC
8
0
10
8.302287
20
104.717130
30
0.0
40
0.400000
50
0.000000
51
90.000000
0
LINE
8
0
10
8.702287
20
104.717130
30
0.0
11
8.702287
21
101.317130
31
0.0
0
ARC
8
0
10
8.302287
20
101.317130
30
0.0
40
0.400000
50
270.000000
51
0.000000
0
LINE
8
0
10
8.302287
20
100.917130
30
0.0
11
8.095843
21
100.917130
31
0.0
0
ARC
8
0
10
8.095843
20
101.117130
30
0.0
40
0.200000
50
240.018361
51
270.000000
0
LINE
8
0
10
7.995898
20
100.943893
30
0.0
11
6.413954
21
101.856552
31
0.0
0
ARC
8
0
10
5.814288
20
100.817130
30
0.0
40
1.200000
50
60.018361
51
90.000000
0
LINE
8
0
10
5.814288
20
102.017130
30
0.0
11
4.712977
21
102.017130
31
0.0
0
ARC
8
0
10
4.712977
20
103.017130
30
0.0
40
1.000000
50
215.254172
51
270.000000
0
LINE
8
0
10
3.896378
20
102.439925
30
0.0
11
2.373556
21
104.594334
31
0.0
0
ARC
8
0
10
1.556957
20
104.017130
30
0.0
40
1.000000
50
35.254172
51
90.000000
0
LINE
8
0
10
1.556957
20
105.017130
30
0.0
11
-0.747713
21
105.017130
31
0.0
0
ARC
8
0
10
-0.747713
20
104.717130
30
0.0
40
0.300000
50
90.000000
51
180.000000
0
LINE
8
0
10
-1.047713
20
104.717130
30
0.0
11
-1.047713
21
100.917130
31
0.0
0
ARC
8
0
10
-1.547713
20
100.917130
30
0.0
40
0.500000
50
180.000000
51
0.000000
0
LINE
8
0
10
-2.047713
20
100.917130
30
0.0
11
-2.047713
21
104.717130
31
0.0
0
ARC
8
0
10
-2.347713
20
104.717130
30
0.0
40
0.300000
50
0.000000
51
90.000000
0
LINE
8
0
10
-2.347713
20
105.017130
30
0.0
11
-12.247713
21
105.017130
31
0.0
0
ARC
8
0
10
-12.247713
20
104.717130
30
0.0
40
0.300000
50
90.000000
51
180.000000
0
LINE
8
0
10
-12.547713
20
104.717130
30
0.0
11
-12.547713
21
100.917130
31
0.0
0
ARC
8
0
10
-13.047713
20
100.917130
30
0.0
40
0.500000
50
180.000000
51
0.000000
0
LINE
8
0
10
-13.547713
20
100.917130
30
0.0
11
-13.547713
21
104.717130
31
0.0
0
ARC
8
0
10
-13.847713
20
104.717130
30
0.0
40
0.300000
50
0.000000
51
90.000000
0
LINE
8
0
10
-13.847713
20
94.047756
30
0.0
11
-23.747713
21
94.047756
31
0.0
0
ARC
8
0
10
-23.747713
20
94.347756
30
0.0
40
0.300000
50
180.000000
51
270.000000
0
LINE
8
0
10
-24.047713
20
94.347756
30
0.0
11
-24.047713
21
98.147756
31
0.0
0
ARC
8
0
10
-24.547713
20
98.147756
30
0.0
40
0.500000
50
0.000000
51
180.000000
0
LINE
8
0
10
-25.047713
20
98.147756
30
0.0
11
-25.047713
21
94.347756
31
0.0
0
ARC
8
0
10
-25.347713
20
94.347756
30
0.0
40
0.300000
50
270.000000
51
0.000000
0
LINE
8
0
10
-25.347713
20
94.047756
30
0.0
11
-35.247713
21
94.047756
31
0.0
0
ARC
8
0
10
-35.247713
20
94.347756
30
0.0
40
0.300000
50
180.000000
51
270.000000
0
LINE
8
0
10
-35.547713
20
94.347756
30
0.0
11
-35.547713
21
98.147756
31
0.0
0
ARC
8
0
10
-36.047713
20
98.147756
30
0.0
40
0.500000
50
0.000000
51
180.000000
0
LINE
8
0
10
-36.547713
20
98.147756
30
0.0
11
-36.547713
21
94.347756
31
0.0
0
ARC
8
0
10
-36.847713
20
94.347756
30
0.0
40
0.300000
50
270.000000
51
0.000000
0
LINE
8
0
10
-36.847713
20
94.047756
30
0.0
11
-39.152383
21
94.047756
31
0.0
0
ARC
8
0
10
-39.152383
20
95.047756
30
0.0
40
1.000000
50
215.254172
51
270.000000
0
LINE
8
0
10
-39.968982
20
94.470551
30
0.0
11
-41.491803
21
96.624960
31
0.0
0
ARC
8
0
10
-42.308403
20
96.047756
30
0.0
40
1.000000
50
35.254172
51
90.000000
0
LINE
8
0
10
-42.308403
20
97.047756
30
0.0
11
-43.409713
21
97.047756
31
0.0
0
ARC
8
0
10
-43.409713
20
98.247756
30
0.0
40
1.200000
50
240.018361
51
270.000000
0
LINE
8
0
10
-44.009380
20
97.208333
30
0.0
11
-45.591324
21
98.120993
31
0.0
0
ARC
8
0
10
-45.691268
20
97.947756
30
0.0
40
0.200000
50
60.018361
51
90.000000
0
LINE
8
0
10
-45.691268
20
98.147756
30
0.0
11
-45.897713
21
98.147756
31
0.0
0
ARC
8
0
10
-45.897713
20
97.747756
30
0.0
40
0.400000
50
90.000000
51
180.000000
0
LINE
8
0
10
-46.297713
20
97.747756
30
0.0
11
-46.297713
21
94.347756
31
0.0
0
ARC
8
0
10
-45.897713
20
94.347756
30
0.0
40
0.400000
50
180.000000
51
270.000000
0
LINE
8
0
10
-45.897713
20
93.947756
30
0.0
11
-45.691268
21
93.947756
31
0.0
0
ARC
8
0
10
-45.691268
20
94.147756
30
0.0
40
0.200000
50
270.000000
51
299.981639
0
LINE
8
0
10
-45.591324
20
93.974519
30
0.0
11
-44.009380
21
94.887178
31
0.0
0
ARC
8
0
10
-43.409713
20
93.847756
30
0.0
40
1.200000
50
90.000000
51
119.981639
0
LINE
8
0
10
-43.409713
20
95.047756
30
0.0
11
-42.981479
21
95.047756
31
0.0
0
ARC
8
0
10
-42.981479
20
94.747756
30
0.0
40
0.300000
50
35.254172
51
90.000000
0
LINE
8
0
10
-42.736499
20
94.920917
30
0.0
11
-40.855060
21
92.259153
31
0.0
0
ARC
8
0
10
-40.446760
20
92.547756
30
0.0
40
0.500000
50
215.254172
51
270.000000
0
LINE
8
0
10
-40.446760
20
92.047756
30
0.0
11
2.851335
21
92.047756
31
0.0
0
ARC
8
0
10
2.851335
20
92.547756
30
0.0
40
0.500000
50
270.000000
51
324.745828
0
LINE
8
0
10
3.259634
20
92.259153
30
0.0
11
5.141074
21
94.920917
31
0.0
0
ARC
8
0
10
5.386054
20
94.747756
30
0.0
40
0.300000
50
90.000000
51
144.745828
0
LINE
8
0
10
5.386054
20
95.047756
30
0.0
11
5.814288
21
95.047756
31
0.0
0
ARC
8
0
10
5.814288
20
93.847756
30
0.0
40
1.200000
50
60.018361
51
90.000000
0
LINE
8
0
10
6.413954
20
94.887178
30
0.0
11
7.995898
21
93.974519
31
0.0
0
ARC
8
0
10
8.095843
20
94.147756
30
0.0
40
0.200000
50
240.018361
51
270.000000
0
LINE
8
0
10
8.095843
20
93.947756
30
0.0
11
8.302287
21
93.947756
31
0.0
0
ARC
8
0
10
8.302287
20
94.347756
30
0.0
40
0.400000
50
270.000000
51
0.000000
0
LINE
8
0
10
8.702287
20
94.347756
30
0.0
11
8.702287
21
97.747756
31
0.0
0
ARC
8
0
10
8.302287
20
97.747756
30
0.0
40
0.400000
50
0.000000
51
90.000000
0
LINE
8
0
10
8.302287
20
98.147756
30
0.0
11
8.095843
21
98.147756
31
0.0
0
ARC
8
0
10
8.095843
20
97.947756
30
0.0
40
0.200000
50
90.000000
51
119.981639
0
LINE
8
0
10
7.995898
20
98.120993
30
0.0
11
6.413954
21
97.208333
31
0.0
0
ARC
8
0
10
5.814288
20
98.247756
30
0.0
40
1.200000
50
270.000000
51
299.981639
0
LINE
8
0
10
5.814288
20
97.047756
30
0.0
11
4.712977
21
97.047756
31
0.0
0
ARC
8
0
10
4.712977
20
96.047756
30
0.0
40
1.000000
50
90.000000
51
144.745828
0
LINE
8
0
10
3.896378
20
96.624960
30
0.0
11
2.373556
21
94.470551
31
0.0
0
ARC
8
0
10
1.556957
20
95.047756
30
0.0
40
1.000000
50
270.000000
51
324.745828
0
LINE
8
0
10
1.556957
20
94.047756
30
0.0
11
-0.747713
21
94.047756
31
0.0
0
ARC
8
0
10
-0.747713
20
94.347756
30
0.0
40
0.300000
50
180.000000
51
270.000000
0
LINE
8
0
10
-1.047713
20
94.347756
30
0.0
11
-1.047713
21
98.147756
31
0.0
0
ARC
8
0
10
-1.547713
20
98.147756
30
0.0
40
0.500000
50
0.000000
51
180.000000
0
LINE
8
0
10
-2.047713
20
98.147756
30
0.0
11
-2.047713
21
94.347756
31
0.0
0
ARC
8
0
10
-2.347713
20
94.347756
30
0.0
40
0.300000
50
270.000000
51
0.000000
0
LINE
8
0
10
-2.347713
20
94.047756
30
0.0
11
-12.247713
21
94.047756
31
0.0
0
ARC
8
0
10
-12.247713
20
94.347756
30
0.0
40
0.300000
50
180.000000
51
270.000000
0
LINE
8
0
10
-12.547713
20
94.347756
30
0.0
11
-12.547713
21
98.147756
31
0.0
0
ARC
8
0
10
-13.047713
20
98.147756
30
0.0
40
0.500000
50
0.000000
51
180.000000
0
LINE
8
0
10
-13.547713
20
98.147756
30
0.0
11
-13.547713
21
94.347756
31
0.0
0
ARC
8
0
10
-13.847713
20
94.347756
30
0.0
40
0.300000
50
270.000000
51
0.000000
0
ATTDEF
8
0
10
35.452287
20
135.432452
30
0.0
40
3.5
1

3

2
VC_START
70
0
0
ATTDEF
8
0
10
34.917359
20
92.032452
30
0.0
40
3.5
1

3

2
VC_END
70
0
0
ATTDEF
8
0
10
-64.798598
20
92.032443
30
0.0
40
3.5
1

3

2
FRONT_VIEW
70
0
0
ATTDEF
8
0
10
-64.798598
20
92.032443
30
0.0
40
3.5
1

3

2
BL01:6800.000000,,1
70
0
0
ATTDEF
8
0
10
-64.798598
20
92.032443
30
0.0
40
3.5
1

3

2
OPTI:500.000000,1,0,3000.000000,6500.000000,500.000000,0,0.000000,0
70
0
0
ATTDEF
8
0
10
-64.798598
20
92.032443
30
0.0
40
3.5
1

3

2
GLASS_MIN:0.000000
70
0
0
ATTDEF
8
0
10
-64.798598
20
92.032443
30
0.0
40
3.5
1

3

2
GLASS_MAX:0.000000
70
0
0
ATTDEF
8
0
10
-64.798598
20
92.032443
30
0.0
40
3.5
1

3

2
FP_LCS_ORIG
70
0
0
ATTDEF
8
0
10
-54.798598
20
92.032443
30
0.0
40
3.5
1

3

2
FP_LCS_HOT
70
0
0
ATTDEF
8
0
10
-64.798598
20
102.032443
30
0.0
40
3.5
1

3

2
FP_LCS_INTERN
70
0
0
ATTDEF
8
0
10
0.000000
20
0.000000
30
0.0
40
3.5
1

3

2
TDEV2:0
70
0
0
ATTDEF
8
0
10
0.000000
20
0.000000
30
0.0
40
3.5
1

3

2
TDEV3:0
70
0
0
ATTDEF
8
0
10
0.000000
20
0.000000
30
0.0
40
3.5
1

3

2
TDEV4:0
70
0
0
ATTDEF
8
0
10
0.000000
20
0.000000
30
0.0
40
3.5
1

3

2
TDEV5:0
70
0
0
ATTDEF
8
0
10
0.000000
20
0.000000
30
0.0
40
3.5
1

3

2
PANE_WIDTH:0
70
0
0
ATTDEF
8
0
10
0.000000
20
0.000000
30
0.0
40
3.5
1

3

2
MIN_VETRO:0
70
0
0
ATTDEF
8
0
10
0.000000
20
0.000000
30
0.0
40
3.5
1

3

2
MAX_VETRO:0
70
0
0
ATTDEF
8
0
10
0.000000
20
0.000000
30
0.0
40
3.5
1

3

2
JX:0
70
0
0
ATTDEF
8
0
10
0.000000
20
0.000000
30
0.0
40
3.5
1

3

2
WX:0
70
0
0
ATTDEF
8
0
10
0.000000
20
0.000000
30
0.0
40
3.5
1

3

2
JY:0
70
0
0
ATTDEF
8
0
10
0.000000
20
0.000000
30
0.0
40
3.5
1

3

2
WY:0
70
0
0
ATTDEF
8
0
10
0.000000
20
0.000000
30
0.0
40
3.5
1

3

2
DESC:Telaio componibile 3ante 3 vie
70
0
0
ATTDEF
8
0
10
0.000000
20
0.000000
30
0.0
40
3.5
1

3

2
DENS:1.61
70
0
0
ATTDEF
8
0
10
0.000000
20
0.000000
30
0.0
40
3.5
1

3

2
TDEV:0
70
0
0
ATTDEF
8
0
10
0.000000
20
0.000000
30
0.0
40
3.5
1

3

2
TDEV2:0
70
0
0
ATTDEF
8
0
10
0.000000
20
0.000000
30
0.0
40
3.5
1

3

2
TDEV3:0
70
0
0
ATTDEF
8
0
10
0.000000
20
0.000000
30
0.0
40
3.5
1

3

2
TDEV4:0
70
0
0
ATTDEF
8
0
10
0.000000
20
0.000000
30
0.0
40
3.5
1

3

2
TDEV5:0
70
0
0
ATTDEF
8
0
10
0.000000
20
0.000000
30
0.0
40
3.5
1

3

2
PANE_WIDTH:0
70
0
0
ATTDEF
8
0
10
0.000000
20
0.000000
30
0.0
40
3.5
1

3

2
MIN_VETRO:0
70
0
0
ATTDEF
8
0
10
0.000000
20
0.000000
30
0.0
40
3.5
1

3

2
MAX_VETRO:0
70
0
0
ATTDEF
8
0
10
0.000000
20
0.000000
30
0.0
40
3.5
1

3

2
JX:0
70
0
0
ATTDEF
8
0
10
0.000000
20
0.000000
30
0.0
40
3.5
1

3

2
WX:0
70
0
0
ATTDEF
8
0
10
0.000000
20
0.000000
30
0.0
40
3.5
1

3

2
JY:0
70
0
0
ATTDEF
8
0
10
0.000000
20
0.000000
30
0.0
40
3.5
1

3

2
WY:0
70
0
0
ENDSEC
0
EOF
