0
SECTION
2
ENTITIES
0
LINE
8
0
10
128.200000
20
37.920792
30
0.0
11
128.200000
21
22.900000
31
0.0
0
ARC
8
0
10
127.900000
20
22.900000
30
0.0
40
0.300000
50
270.000000
51
0.000000
0
LINE
8
0
10
127.900000
20
22.600000
30
0.0
11
125.200000
21
22.600000
31
0.0
0
ARC
8
0
10
125.200000
20
22.300000
30
0.0
40
0.300000
50
90.000000
51
180.000000
0
LINE
8
0
10
124.900000
20
22.300000
30
0.0
11
124.900000
21
21.400000
31
0.0
0
ARC
8
0
10
125.200000
20
21.400000
30
0.0
40
0.300000
50
180.000000
51
270.000000
0
LINE
8
0
10
125.200000
20
21.100000
30
0.0
11
126.500000
21
21.100000
31
0.0
0
ARC
8
0
10
126.500000
20
20.800000
30
0.0
40
0.300000
50
0.000000
51
90.000000
0
LINE
8
0
10
126.800000
20
20.800000
30
0.0
11
126.800000
21
19.400000
31
0.0
0
ARC
8
0
10
127.100000
20
19.400000
30
0.0
40
0.300000
50
180.000000
51
270.000000
0
LINE
8
0
10
127.100000
20
19.100000
30
0.0
11
127.900000
21
19.100000
31
0.0
0
ARC
8
0
10
127.900000
20
18.800000
30
0.0
40
0.300000
50
0.000000
51
90.000000
0
LINE
8
0
10
128.200000
20
18.800000
30
0.0
11
128.200000
21
16.800000
31
0.0
0
ARC
8
0
10
128.500000
20
16.800000
30
0.0
40
0.300000
50
180.000000
51
270.000000
0
LINE
8
0
10
128.500000
20
16.500000
30
0.0
11
138.200000
21
16.500000
31
0.0
0
ARC
8
0
10
138.200000
20
16.200000
30
0.0
40
0.300000
50
0.000000
51
90.000000
0
LINE
8
0
10
138.500000
20
16.200000
30
0.0
11
138.500000
21
6.800000
31
0.0
0
ARC
8
0
10
138.200000
20
6.800000
30
0.0
40
0.300000
50
270.000000
51
0.000000
0
LINE
8
0
10
138.200000
20
6.500000
30
0.0
11
128.600000
21
6.500000
31
0.0
0
ARC
8
0
10
128.600000
20
6.800000
30
0.0
40
0.300000
50
180.000000
51
270.000000
0
LINE
8
0
10
128.300000
20
6.800000
30
0.0
11
128.300000
21
7.700000
31
0.0
0
ARC
8
0
10
128.000000
20
7.700000
30
0.0
40
0.300000
50
0.000000
51
90.000000
0
LINE
8
0
10
128.000000
20
8.000000
30
0.0
11
127.100000
21
8.000000
31
0.0
0
ARC
8
0
10
127.100000
20
7.700000
30
0.0
40
0.300000
50
90.000000
51
180.000000
0
LINE
8
0
10
126.800000
20
7.700000
30
0.0
11
126.800000
21
6.800000
31
0.0
0
ARC
8
0
10
126.500000
20
6.800000
30
0.0
40
0.300000
50
270.000000
51
0.000000
0
LINE
8
0
10
126.500000
20
6.500000
30
0.0
11
104.100000
21
6.500000
31
0.0
0
ARC
8
0
10
104.100000
20
6.800000
30
0.0
40
0.300000
50
180.000000
51
270.000000
0
LINE
8
0
10
103.800000
20
6.800000
30
0.0
11
103.800000
21
7.700000
31
0.0
0
ARC
8
0
10
103.500000
20
7.700000
30
0.0
40
0.300000
50
0.000000
51
90.000000
0
LINE
8
0
10
103.500000
20
8.000000
30
0.0
11
102.600000
21
8.000000
31
0.0
0
ARC
8
0
10
102.600000
20
7.700000
30
0.0
40
0.300000
50
90.000000
51
180.000000
0
LINE
8
0
10
102.300000
20
7.700000
30
0.0
11
102.300000
21
6.800000
31
0.0
0
ARC
8
0
10
102.000000
20
6.800000
30
0.0
40
0.300000
50
270.000000
51
0.000000
0
LINE
8
0
10
102.000000
20
6.500000
30
0.0
11
99.300025
21
6.500000
31
0.0
0
ARC
8
0
10
99.300025
20
6.800000
30
0.0
40
0.300000
50
180.000000
51
270.000000
0
LINE
8
0
10
99.000025
20
6.800000
30
0.0
11
99.000025
21
13.200000
31
0.0
0
ARC
8
0
10
99.300025
20
13.200000
30
0.0
40
0.300000
50
90.000000
51
180.000000
0
LINE
8
0
10
99.300025
20
13.500000
30
0.0
11
102.200025
21
13.500000
31
0.0
0
ARC
8
0
10
102.200025
20
13.800000
30
0.0
40
0.300000
50
270.000000
51
0.000000
0
LINE
8
0
10
102.500025
20
13.800000
30
0.0
11
102.500025
21
18.800000
31
0.0
0
ARC
8
0
10
102.800025
20
18.800000
30
0.0
40
0.300000
50
90.000000
51
180.000000
0
LINE
8
0
10
102.800025
20
19.100000
30
0.0
11
103.500025
21
19.100000
31
0.0
0
ARC
8
0
10
103.500025
20
19.400000
30
0.0
40
0.300000
50
270.000000
51
0.000000
0
LINE
8
0
10
103.800025
20
19.400000
30
0.0
11
103.800025
21
20.800000
31
0.0
0
ARC
8
0
10
104.100025
20
20.800000
30
0.0
40
0.300000
50
90.000000
51
180.000000
0
LINE
8
0
10
104.100025
20
21.100000
30
0.0
11
106.500025
21
21.100000
31
0.0
0
ARC
8
0
10
106.500025
20
21.400000
30
0.0
40
0.300000
50
270.000000
51
0.000000
0
LINE
8
0
10
106.800025
20
21.400000
30
0.0
11
106.800025
21
22.300000
31
0.0
0
ARC
8
0
10
106.500025
20
22.300000
30
0.0
40
0.300000
50
0.000000
51
90.000000
0
LINE
8
0
10
106.500025
20
22.600000
30
0.0
11
102.800025
21
22.600000
31
0.0
0
ARC
8
0
10
102.800025
20
22.900000
30
0.0
40
0.300000
50
180.000000
51
270.000000
0
LINE
8
0
10
102.500025
20
22.900000
30
0.0
11
102.500025
21
27.200000
31
0.0
0
ARC
8
0
10
102.800025
20
27.200000
30
0.0
40
0.300000
50
90.000000
51
180.000000
0
LINE
8
0
10
102.800025
20
27.500000
30
0.0
11
105.825736
21
27.500000
31
0.0
0
ARC
8
0
10
105.825736
20
27.200000
30
0.0
40
0.300000
50
45.000000
51
90.000000
0
LINE
8
0
10
106.037868
20
27.412132
30
0.0
11
106.362132
21
27.087868
31
0.0
0
ARC
8
0
10
106.574264
20
27.300000
30
0.0
40
0.300000
50
225.000000
51
270.000000
0
LINE
8
0
10
106.574264
20
27.000000
30
0.0
11
110.825736
21
27.000000
31
0.0
0
ARC
8
0
10
110.825736
20
27.300000
30
0.0
40
0.300000
50
270.000000
51
315.000000
0
LINE
8
0
10
111.037868
20
27.087868
30
0.0
11
111.362132
21
27.412132
31
0.0
0
ARC
8
0
10
111.574264
20
27.200000
30
0.0
40
0.300000
50
90.000000
51
135.000000
0
LINE
8
0
10
111.574264
20
27.500000
30
0.0
11
115.400000
21
27.500000
31
0.0
0
ARC
8
0
10
115.400000
20
28.500000
30
0.0
40
1.000000
50
270.000000
51
0.000000
0
LINE
8
0
10
116.400000
20
28.500000
30
0.0
11
116.400000
21
31.375628
31
0.0
0
ARC
8
0
10
116.700000
20
31.375628
30
0.0
40
0.300000
50
150.000000
51
180.000000
0
LINE
8
0
10
116.440192
20
31.525628
30
0.0
11
117.291422
21
33.000000
31
0.0
0
ARC
8
0
10
115.559371
20
34.000000
30
0.0
40
2.000000
50
330.000000
51
57.356923
0
ARC
8
0
10
116.800000
20
35.936708
30
0.0
40
0.300000
50
180.000000
51
237.356923
0
LINE
8
0
10
116.500000
20
35.936708
30
0.0
11
116.500000
21
37.700000
31
0.0
0
ARC
8
0
10
116.800000
20
37.700000
30
0.0
40
0.300000
50
90.000000
51
180.000000
0
LINE
8
0
10
116.800000
20
38.000000
30
0.0
11
119.000000
21
38.000000
31
0.0
0
ARC
8
0
10
119.000000
20
38.500000
30
0.0
40
0.500000
50
270.000000
51
0.000000
0
LINE
8
0
10
119.500000
20
38.500000
30
0.0
11
119.500000
21
41.600000
31
0.0
0
ARC
8
0
10
119.800000
20
41.600000
30
0.0
40
0.300000
50
90.000000
51
180.000000
0
LINE
8
0
10
119.800000
20
41.900000
30
0.0
11
129.400000
21
41.900000
31
0.0
0
ARC
8
0
10
129.400000
20
41.600000
30
0.0
40
0.300000
50
0.000000
51
90.000000
0
LINE
8
0
10
129.700000
20
41.600000
30
0.0
11
129.700000
21
38.783112
31
0.0
0
ARC
8
0
10
129.400000
20
38.783112
30
0.0
40
0.300000
50
285.000000
51
0.000000
0
LINE
8
0
10
129.477646
20
38.493334
30
0.0
11
128.422354
21
38.210570
31
0.0
0
ARC
8
0
10
128.500000
20
37.920792
30
0.0
40
0.300000
50
105.000000
51
180.000000
0
ARC
8
0
10
98.200000
20
40.175736
30
0.0
40
0.300000
50
135.000000
51
180.000000
0
LINE
8
0
10
97.900000
20
40.175736
30
0.0
11
97.900000
21
40.300000
31
0.0
0
LINE
8
0
10
97.900000
20
40.300000
30
0.0
11
97.987868
21
40.387868
31
0.0
0
LINE
8
0
10
97.987868
20
40.387868
30
0.0
11
98.212132
21
40.612132
31
0.0
0
ARC
8
0
10
98.424264
20
40.400000
30
0.0
40
0.300000
50
90.000000
51
135.000000
0
LINE
8
0
10
98.424264
20
40.700000
30
0.0
11
99.100000
21
40.700000
31
0.0
0
ARC
8
0
10
99.100000
20
40.400000
30
0.0
40
0.300000
50
0.000000
51
90.000000
0
LINE
8
0
10
99.400000
20
40.400000
30
0.0
11
99.400000
21
39.800000
31
0.0
0
ARC
8
0
10
99.700000
20
39.800000
30
0.0
40
0.300000
50
180.000000
51
270.000000
0
LINE
8
0
10
99.700000
20
39.500000
30
0.0
11
102.110293
21
39.500000
31
0.0
0
ARC
8
0
10
102.110293
20
39.200000
30
0.0
40
0.300000
50
2.000000
51
90.000000
0
LINE
8
0
10
102.410111
20
39.210470
30
0.0
11
102.556534
21
35.017449
31
0.0
0
ARC
8
0
10
102.056839
20
35.000000
30
0.0
40
0.500000
50
270.000000
51
2.000000
0
LINE
8
0
10
102.056839
20
34.500000
30
0.0
11
101.840629
21
34.500000
31
0.0
0
ARC
8
0
10
101.840629
20
34.000000
30
0.0
40
0.500000
50
90.000000
51
210.000000
0
LINE
8
0
10
101.407617
20
33.750000
30
0.0
11
102.433013
21
31.973961
31
0.0
0
ARC
8
0
10
102.000000
20
31.723961
30
0.0
40
0.500000
50
0.000000
51
30.000000
0
LINE
8
0
10
102.500000
20
31.723961
30
0.0
11
102.500000
21
29.300000
31
0.0
0
ARC
8
0
10
102.800000
20
29.300000
30
0.0
40
0.300000
50
180.000000
51
270.000000
0
LINE
8
0
10
102.800000
20
29.000000
30
0.0
11
108.400000
21
29.000000
31
0.0
0
LINE
8
0
10
108.400000
20
29.000000
30
0.0
11
108.700000
21
28.700000
31
0.0
0
LINE
8
0
10
108.700000
20
28.700000
30
0.0
11
109.000000
21
29.000000
31
0.0
0
LINE
8
0
10
109.000000
20
29.000000
30
0.0
11
114.600000
21
29.000000
31
0.0
0
ARC
8
0
10
114.600000
20
29.300000
30
0.0
40
0.300000
50
270.000000
51
0.000000
0
LINE
8
0
10
114.900000
20
29.300000
30
0.0
11
114.900000
21
31.723961
31
0.0
0
ARC
8
0
10
115.400000
20
31.723961
30
0.0
40
0.500000
50
150.000000
51
180.000000
0
LINE
8
0
10
114.966987
20
31.973961
30
0.0
11
115.992383
21
33.750000
31
0.0
0
ARC
8
0
10
115.559371
20
34.000000
30
0.0
40
0.500000
50
330.000000
51
90.000000
0
LINE
8
0
10
115.559371
20
34.500000
30
0.0
11
115.343161
21
34.500000
31
0.0
0
ARC
8
0
10
115.343161
20
35.000000
30
0.0
40
0.500000
50
178.000000
51
270.000000
0
LINE
8
0
10
114.843466
20
35.017449
30
0.0
11
114.989889
21
39.210470
31
0.0
0
ARC
8
0
10
115.289707
20
39.200000
30
0.0
40
0.300000
50
90.000000
51
178.000000
0
LINE
8
0
10
115.289707
20
39.500000
30
0.0
11
117.700000
21
39.500000
31
0.0
0
ARC
8
0
10
117.700000
20
39.800000
30
0.0
40
0.300000
50
270.000000
51
0.000000
0
LINE
8
0
10
118.000000
20
39.800000
30
0.0
11
118.000000
21
43.100000
31
0.0
0
ARC
8
0
10
118.300000
20
43.100000
30
0.0
40
0.300000
50
90.000000
51
180.000000
0
LINE
8
0
10
118.300000
20
43.400000
30
0.0
11
130.200000
21
43.400000
31
0.0
0
ARC
8
0
10
130.200000
20
42.400000
30
0.0
40
1.000000
50
0.000000
51
90.000000
0
LINE
8
0
10
131.200000
20
42.400000
30
0.0
11
131.200000
21
37.632122
31
0.0
0
ARC
8
0
10
130.900000
20
37.632122
30
0.0
40
0.300000
50
285.000000
51
0.000000
0
LINE
8
0
10
130.977646
20
37.342344
30
0.0
11
129.922354
21
37.059579
31
0.0
0
ARC
8
0
10
130.000000
20
36.769802
30
0.0
40
0.300000
50
105.000000
51
180.000000
0
LINE
8
0
10
129.700000
20
36.769802
30
0.0
11
129.700000
21
18.300000
31
0.0
0
ARC
8
0
10
130.000000
20
18.300000
30
0.0
40
0.300000
50
180.000000
51
270.000000
0
LINE
8
0
10
130.000000
20
18.000000
30
0.0
11
139.500000
21
18.000000
31
0.0
0
ARC
8
0
10
139.500000
20
17.500000
30
0.0
40
0.500000
50
0.000000
51
90.000000
0
LINE
8
0
10
140.000000
20
17.500000
30
0.0
11
140.000000
21
0.300000
31
0.0
0
ARC
8
0
10
139.700000
20
0.300000
30
0.0
40
0.300000
50
270.000000
51
0.000000
0
LINE
8
0
10
139.700000
20
0.000000
30
0.0
11
136.469857
21
0.000000
31
0.0
0
ARC
8
0
10
136.469857
20
0.300000
30
0.0
40
0.300000
50
210.963757
51
270.000000
0
LINE
8
0
10
136.212609
20
0.145651
30
0.0
11
135.742752
21
0.928746
31
0.0
0
ARC
8
0
10
136.000000
20
1.083095
30
0.0
40
0.300000
50
180.000000
51
210.963757
0
LINE
8
0
10
135.700000
20
1.083095
30
0.0
11
135.700000
21
1.200000
31
0.0
0
ARC
8
0
10
136.000000
20
1.200000
30
0.0
40
0.300000
50
90.000000
51
180.000000
0
LINE
8
0
10
136.000000
20
1.500000
30
0.0
11
137.900000
21
1.500000
31
0.0
0
ARC
8
0
10
137.900000
20
1.800000
30
0.0
40
0.300000
50
270.000000
51
0.000000
0
LINE
8
0
10
138.200000
20
1.800000
30
0.0
11
138.200000
21
4.700000
31
0.0
0
ARC
8
0
10
137.900000
20
4.700000
30
0.0
40
0.300000
50
0.000000
51
90.000000
0
LINE
8
0
10
137.900000
20
5.000000
30
0.0
11
124.000000
21
5.000000
31
0.0
0
ARC
8
0
10
124.000000
20
4.700000
30
0.0
40
0.300000
50
90.000000
51
180.000000
0
LINE
8
0
10
123.700000
20
4.700000
30
0.0
11
123.700000
21
1.800000
31
0.0
0
ARC
8
0
10
124.000000
20
1.800000
30
0.0
40
0.300000
50
180.000000
51
270.000000
0
LINE
8
0
10
124.000000
20
1.500000
30
0.0
11
125.400000
21
1.500000
31
0.0
0
ARC
8
0
10
125.400000
20
1.200000
30
0.0
40
0.300000
50
0.000000
51
90.000000
0
LINE
8
0
10
125.700000
20
1.200000
30
0.0
11
125.700000
21
1.083095
31
0.0
0
ARC
8
0
10
125.400000
20
1.083095
30
0.0
40
0.300000
50
329.036243
51
0.000000
0
LINE
8
0
10
125.657248
20
0.928746
30
0.0
11
125.187391
21
0.145651
31
0.0
0
ARC
8
0
10
124.930143
20
0.300000
30
0.0
40
0.300000
50
270.000000
51
329.036243
0
LINE
8
0
10
124.930143
20
0.000000
30
0.0
11
122.500000
21
0.000000
31
0.0
0
ARC
8
0
10
122.500000
20
0.300000
30
0.0
40
0.300000
50
180.000000
51
270.000000
0
LINE
8
0
10
122.200000
20
0.300000
30
0.0
11
122.200000
21
4.700000
31
0.0
0
ARC
8
0
10
121.900000
20
4.700000
30
0.0
40
0.300000
50
0.000000
51
90.000000
0
LINE
8
0
10
121.900000
20
5.000000
30
0.0
11
99.300000
21
5.000000
31
0.0
0
ARC
8
0
10
99.300000
20
4.700000
30
0.0
40
0.300000
50
90.000000
51
180.000000
0
LINE
8
0
10
99.000000
20
4.700000
30
0.0
11
99.000000
21
0.300000
31
0.0
0
ARC
8
0
10
98.700000
20
0.300000
30
0.0
40
0.300000
50
270.000000
51
0.000000
0
LINE
8
0
10
98.700000
20
0.000000
30
0.0
11
97.232084
21
0.000000
31
0.0
0
ARC
8
0
10
97.232084
20
0.300000
30
0.0
40
0.300000
50
250.221829
51
270.000000
0
LINE
8
0
10
97.130570
20
0.017697
30
0.0
11
95.828708
21
0.485836
31
0.0
0
ARC
8
0
10
95.749189
20
0.264699
30
0.0
40
0.235000
50
70.221829
51
156.000000
0
ARC
8
0
10
95.313254
20
0.441112
30
0.0
40
0.235000
50
270.000000
51
336.000000
0
LINE
8
0
10
95.314810
20
0.206117
30
0.0
11
93.735882
21
0.195660
31
0.0
0
ARC
8
0
10
93.733895
20
0.495654
30
0.0
40
0.300000
50
155.379459
51
270.000000
0
LINE
8
0
10
93.461169
20
0.620636
30
0.0
11
94.409819
21
2.726151
31
0.0
0
ARC
8
0
10
94.683339
20
2.602915
30
0.0
40
0.300000
50
115.379459
51
155.745828
0
LINE
8
0
10
94.554755
20
2.873962
30
0.0
11
95.062178
21
3.114681
31
0.0
0
ARC
8
0
10
95.147900
20
2.933983
30
0.0
40
0.200000
50
355.379459
51
115.379459
0
LINE
8
0
10
95.347250
20
2.917872
30
0.0
11
95.337949
21
2.802777
31
0.0
0
ARC
8
0
10
95.636974
20
2.778610
30
0.0
40
0.300000
50
175.379459
51
235.379459
0
LINE
8
0
10
95.466532
20
2.531731
30
0.0
11
97.095289
21
1.407265
31
0.0
0
LINE
8
0
10
97.095289
20
1.407265
30
0.0
11
97.277998
21
1.325917
31
0.0
0
ARC
8
0
10
97.400000
20
1.600000
30
0.0
40
0.300009
50
246.004713
51
48.187329
0
ARC
8
0
10
97.800025
20
2.047204
30
0.0
40
0.300000
50
180.000000
51
228.187329
0
LINE
8
0
10
97.500025
20
2.047204
30
0.0
11
97.500025
21
5.899990
31
0.0
0
ARC
8
0
10
97.200025
20
5.899990
30
0.0
40
0.300000
50
0.000000
51
90.000000
0
LINE
8
0
10
97.200025
20
6.199990
30
0.0
11
96.978831
21
6.199990
31
0.0
0
ARC
8
0
10
96.978831
20
5.899990
30
0.0
40
0.300000
50
90.000000
51
121.400000
0
LINE
8
0
10
96.822528
20
6.156056
30
0.0
11
95.304227
21
5.229280
31
0.0
0
ARC
8
0
10
95.200025
20
5.399990
30
0.0
40
0.200000
50
180.000000
51
301.400000
0
LINE
8
0
10
95.000025
20
5.399990
30
0.0
11
95.000025
21
9.599990
31
0.0
0
ARC
8
0
10
95.200025
20
9.599990
30
0.0
40
0.200000
50
58.600000
51
180.000000
0
LINE
8
0
10
95.304227
20
9.770700
30
0.0
11
96.822528
21
8.843925
31
0.0
0
ARC
8
0
10
96.978831
20
9.099990
30
0.0
40
0.300000
50
238.600000
51
270.000000
0
LINE
8
0
10
96.978831
20
8.799990
30
0.0
11
97.200025
21
8.799990
31
0.0
0
ARC
8
0
10
97.200025
20
9.099990
30
0.0
40
0.300000
50
270.000000
51
0.000000
0
LINE
8
0
10
97.500025
20
9.099990
30
0.0
11
97.500025
21
12.952777
31
0.0
0
ARC
8
0
10
97.800025
20
12.952777
30
0.0
40
0.300000
50
131.812671
51
180.000000
0
ARC
8
0
10
97.400000
20
13.399981
30
0.0
40
0.300009
50
311.812671
51
113.995287
0
LINE
8
0
10
97.277998
20
13.674063
30
0.0
11
97.095289
21
13.592716
31
0.0
0
LINE
8
0
10
97.095289
20
13.592716
30
0.0
11
95.466532
21
12.468250
31
0.0
0
ARC
8
0
10
95.636974
20
12.221370
30
0.0
40
0.300000
50
124.620541
51
184.620541
0
LINE
8
0
10
95.337949
20
12.197203
30
0.0
11
95.347250
21
12.082108
31
0.0
0
ARC
8
0
10
95.147900
20
12.065997
30
0.0
40
0.200000
50
244.620541
51
4.620541
0
LINE
8
0
10
95.062178
20
11.885299
30
0.0
11
94.554755
21
12.126019
31
0.0
0
ARC
8
0
10
94.683339
20
12.397065
30
0.0
40
0.300000
50
204.254172
51
244.620541
0
LINE
8
0
10
94.409819
20
12.273830
30
0.0
11
93.461169
21
14.379345
31
0.0
0
ARC
8
0
10
93.733895
20
14.504327
30
0.0
40
0.300000
50
90.000000
51
204.620541
0
LINE
8
0
10
93.735882
20
14.804320
30
0.0
11
95.314810
21
14.793863
31
0.0
0
ARC
8
0
10
95.313254
20
14.558868
30
0.0
40
0.235000
50
24.000000
51
90.000000
0
ARC
8
0
10
95.749189
20
14.735282
30
0.0
40
0.235000
50
204.000000
51
289.778171
0
LINE
8
0
10
95.828708
20
14.514145
30
0.0
11
97.130623
21
14.982303
31
0.0
0
ARC
8
0
10
97.232137
20
14.700000
30
0.0
40
0.300000
50
90.000000
51
109.778171
0
LINE
8
0
10
97.232137
20
15.000000
30
0.0
11
100.700025
21
15.000000
31
0.0
0
ARC
8
0
10
100.700025
20
15.300000
30
0.0
40
0.300000
50
270.000000
51
0.000000
0
LINE
8
0
10
101.000025
20
15.300000
30
0.0
11
101.000025
21
20.800000
31
0.0
0
ARC
8
0
10
100.700025
20
20.800000
30
0.0
40
0.300000
50
0.000000
51
90.000000
0
LINE
8
0
10
100.700025
20
21.100000
30
0.0
11
98.100025
21
21.100000
31
0.0
0
ARC
8
0
10
98.100025
20
21.400000
30
0.0
40
0.300000
50
180.000000
51
270.000000
0
LINE
8
0
10
97.800025
20
21.400000
30
0.0
11
97.800025
21
22.300000
31
0.0
0
ARC
8
0
10
98.100025
20
22.300000
30
0.0
40
0.300000
50
90.000000
51
180.000000
0
LINE
8
0
10
98.100025
20
22.600000
30
0.0
11
100.700025
21
22.600000
31
0.0
0
ARC
8
0
10
100.700025
20
22.900000
30
0.0
40
0.300000
50
270.000000
51
0.000000
0
LINE
8
0
10
101.000025
20
22.900000
30
0.0
11
101.000025
21
31.375585
31
0.0
0
ARC
8
0
10
100.700025
20
31.375585
30
0.0
40
0.300000
50
0.000000
51
30.000000
0
LINE
8
0
10
100.959832
20
31.525585
30
0.0
11
100.108578
21
33.000000
31
0.0
0
ARC
8
0
10
101.840629
20
34.000000
30
0.0
40
2.000000
50
122.643077
51
210.000000
0
ARC
8
0
10
100.600000
20
35.936708
30
0.0
40
0.300000
50
302.643077
51
0.000000
0
LINE
8
0
10
100.900000
20
35.936708
30
0.0
11
100.900000
21
37.700000
31
0.0
0
ARC
8
0
10
100.600000
20
37.700000
30
0.0
40
0.300000
50
0.000000
51
90.000000
0
LINE
8
0
10
100.600000
20
38.000000
30
0.0
11
98.200000
21
38.000000
31
0.0
0
ARC
8
0
10
98.200000
20
38.300000
30
0.0
40
0.300000
50
180.000000
51
270.000000
0
LINE
8
0
10
97.900000
20
38.300000
30
0.0
11
97.900000
21
40.175736
31
0.0
0
LINE
8
0
10
11.800000
20
37.920792
30
0.0
11
11.800000
21
22.900000
31
0.0
0
ARC
8
0
10
12.100000
20
22.900000
30
0.0
40
0.300000
50
180.000000
51
270.000000
0
LINE
8
0
10
12.100000
20
22.600000
30
0.0
11
14.800000
21
22.600000
31
0.0
0
ARC
8
0
10
14.800000
20
22.300000
30
0.0
40
0.300000
50
0.000000
51
90.000000
0
LINE
8
0
10
15.100000
20
22.300000
30
0.0
11
15.100000
21
21.400000
31
0.0
0
ARC
8
0
10
14.800000
20
21.400000
30
0.0
40
0.300000
50
270.000000
51
0.000000
0
LINE
8
0
10
14.800000
20
21.100000
30
0.0
11
13.500000
21
21.100000
31
0.0
0
ARC
8
0
10
13.500000
20
20.800000
30
0.0
40
0.300000
50
90.000000
51
180.000000
0
LINE
8
0
10
13.200000
20
20.800000
30
0.0
11
13.200000
21
19.400000
31
0.0
0
ARC
8
0
10
12.900000
20
19.400000
30
0.0
40
0.300000
50
270.000000
51
0.000000
0
LINE
8
0
10
12.900000
20
19.100000
30
0.0
11
12.100000
21
19.100000
31
0.0
0
ARC
8
0
10
12.100000
20
18.800000
30
0.0
40
0.300000
50
90.000000
51
180.000000
0
LINE
8
0
10
11.800000
20
18.800000
30
0.0
11
11.800000
21
16.800000
31
0.0
0
ARC
8
0
10
11.500000
20
16.800000
30
0.0
40
0.300000
50
270.000000
51
0.000000
0
LINE
8
0
10
11.500000
20
16.500000
30
0.0
11
1.800000
21
16.500000
31
0.0
0
ARC
8
0
10
1.800000
20
16.200000
30
0.0
40
0.300000
50
90.000000
51
180.000000
0
LINE
8
0
10
1.500000
20
16.200000
30
0.0
11
1.500000
21
6.800000
31
0.0
0
ARC
8
0
10
1.800000
20
6.800000
30
0.0
40
0.300000
50
180.000000
51
270.000000
0
LINE
8
0
10
1.800000
20
6.500000
30
0.0
11
11.400000
21
6.500000
31
0.0
0
ARC
8
0
10
11.400000
20
6.800000
30
0.0
40
0.300000
50
270.000000
51
0.000000
0
LINE
8
0
10
11.700000
20
6.800000
30
0.0
11
11.700000
21
7.700000
31
0.0
0
ARC
8
0
10
12.000000
20
7.700000
30
0.0
40
0.300000
50
90.000000
51
180.000000
0
LINE
8
0
10
12.000000
20
8.000000
30
0.0
11
12.900000
21
8.000000
31
0.0
0
ARC
8
0
10
12.900000
20
7.700000
30
0.0
40
0.300000
50
0.000000
51
90.000000
0
LINE
8
0
10
13.200000
20
7.700000
30
0.0
11
13.200000
21
6.800000
31
0.0
0
ARC
8
0
10
13.500000
20
6.800000
30
0.0
40
0.300000
50
180.000000
51
270.000000
0
LINE
8
0
10
13.500000
20
6.500000
30
0.0
11
35.900000
21
6.500000
31
0.0
0
ARC
8
0
10
35.900000
20
6.800000
30
0.0
40
0.300000
50
270.000000
51
0.000000
0
LINE
8
0
10
36.200000
20
6.800000
30
0.0
11
36.200000
21
7.700000
31
0.0
0
ARC
8
0
10
36.500000
20
7.700000
30
0.0
40
0.300000
50
90.000000
51
180.000000
0
LINE
8
0
10
36.500000
20
8.000000
30
0.0
11
37.400000
21
8.000000
31
0.0
0
ARC
8
0
10
37.400000
20
7.700000
30
0.0
40
0.300000
50
0.000000
51
90.000000
0
LINE
8
0
10
37.700000
20
7.700000
30
0.0
11
37.700000
21
6.800000
31
0.0
0
ARC
8
0
10
38.000000
20
6.800000
30
0.0
40
0.300000
50
180.000000
51
270.000000
0
LINE
8
0
10
38.000000
20
6.500000
30
0.0
11
40.699975
21
6.500000
31
0.0
0
ARC
8
0
10
40.699975
20
6.800000
30
0.0
40
0.300000
50
270.000000
51
0.000000
0
LINE
8
0
10
40.999975
20
6.800000
30
0.0
11
40.999975
21
13.200000
31
0.0
0
ARC
8
0
10
40.699975
20
13.200000
30
0.0
40
0.300000
50
0.000000
51
90.000000
0
LINE
8
0
10
40.699975
20
13.500000
30
0.0
11
37.799975
21
13.500000
31
0.0
0
ARC
8
0
10
37.799975
20
13.800000
30
0.0
40
0.300000
50
180.000000
51
270.000000
0
LINE
8
0
10
37.499975
20
13.800000
30
0.0
11
37.499975
21
18.800000
31
0.0
0
ARC
8
0
10
37.199975
20
18.800000
30
0.0
40
0.300000
50
0.000000
51
90.000000
0
LINE
8
0
10
37.199975
20
19.100000
30
0.0
11
36.499975
21
19.100000
31
0.0
0
ARC
8
0
10
36.499975
20
19.400000
30
0.0
40
0.300000
50
180.000000
51
270.000000
0
LINE
8
0
10
36.199975
20
19.400000
30
0.0
11
36.199975
21
20.800000
31
0.0
0
ARC
8
0
10
35.899975
20
20.800000
30
0.0
40
0.300000
50
0.000000
51
90.000000
0
LINE
8
0
10
35.899975
20
21.100000
30
0.0
11
33.499975
21
21.100000
31
0.0
0
ARC
8
0
10
33.499975
20
21.400000
30
0.0
40
0.300000
50
180.000000
51
270.000000
0
LINE
8
0
10
33.199975
20
21.400000
30
0.0
11
33.199975
21
22.300000
31
0.0
0
ARC
8
0
10
33.499975
20
22.300000
30
0.0
40
0.300000
50
90.000000
51
180.000000
0
LINE
8
0
10
33.499975
20
22.600000
30
0.0
11
37.199975
21
22.600000
31
0.0
0
ARC
8
0
10
37.199975
20
22.900000
30
0.0
40
0.300000
50
270.000000
51
0.000000
0
LINE
8
0
10
37.499975
20
22.900000
30
0.0
11
37.499975
21
27.200000
31
0.0
0
ARC
8
0
10
37.199975
20
27.200000
30
0.0
40
0.300000
50
0.000000
51
90.000000
0
LINE
8
0
10
37.199975
20
27.500000
30
0.0
11
34.174264
21
27.500000
31
0.0
0
ARC
8
0
10
34.174264
20
27.200000
30
0.0
40
0.300000
50
90.000000
51
135.000000
0
LINE
8
0
10
33.962132
20
27.412132
30
0.0
11
33.637868
21
27.087868
31
0.0
0
ARC
8
0
10
33.425736
20
27.300000
30
0.0
40
0.300000
50
270.000000
51
315.000000
0
LINE
8
0
10
33.425736
20
27.000000
30
0.0
11
29.174264
21
27.000000
31
0.0
0
ARC
8
0
10
29.174264
20
27.300000
30
0.0
40
0.300000
50
225.000000
51
270.000000
0
LINE
8
0
10
28.962132
20
27.087868
30
0.0
11
28.637868
21
27.412132
31
0.0
0
ARC
8
0
10
28.425736
20
27.200000
30
0.0
40
0.300000
50
45.000000
51
90.000000
0
LINE
8
0
10
28.425736
20
27.500000
30
0.0
11
24.600000
21
27.500000
31
0.0
0
ARC
8
0
10
24.600000
20
28.500000
30
0.0
40
1.000000
50
180.000000
51
270.000000
0
LINE
8
0
10
23.600000
20
28.500000
30
0.0
11
23.600000
21
31.375628
31
0.0
0
ARC
8
0
10
23.300000
20
31.375628
30
0.0
40
0.300000
50
0.000000
51
30.000000
0
LINE
8
0
10
23.559808
20
31.525628
30
0.0
11
22.708578
21
33.000000
31
0.0
0
ARC
8
0
10
24.440629
20
34.000000
30
0.0
40
2.000000
50
122.643077
51
210.000000
0
ARC
8
0
10
23.200000
20
35.936708
30
0.0
40
0.300000
50
302.643077
51
0.000000
0
LINE
8
0
10
23.500000
20
35.936708
30
0.0
11
23.500000
21
37.700000
31
0.0
0
ARC
8
0
10
23.200000
20
37.700000
30
0.0
40
0.300000
50
0.000000
51
90.000000
0
LINE
8
0
10
23.200000
20
38.000000
30
0.0
11
21.000000
21
38.000000
31
0.0
0
ARC
8
0
10
21.000000
20
38.500000
30
0.0
40
0.500000
50
180.000000
51
270.000000
0
LINE
8
0
10
20.500000
20
38.500000
30
0.0
11
20.500000
21
41.600000
31
0.0
0
ARC
8
0
10
20.200000
20
41.600000
30
0.0
40
0.300000
50
0.000000
51
90.000000
0
LINE
8
0
10
20.200000
20
41.900000
30
0.0
11
10.600000
21
41.900000
31
0.0
0
ARC
8
0
10
10.600000
20
41.600000
30
0.0
40
0.300000
50
90.000000
51
180.000000
0
LINE
8
0
10
10.300000
20
41.600000
30
0.0
11
10.300000
21
38.783112
31
0.0
0
ARC
8
0
10
10.600000
20
38.783112
30
0.0
40
0.300000
50
180.000000
51
255.000000
0
LINE
8
0
10
10.522354
20
38.493334
30
0.0
11
11.577646
21
38.210570
31
0.0
0
ARC
8
0
10
11.500000
20
37.920792
30
0.0
40
0.300000
50
0.000000
51
75.000000
0
ARC
8
0
10
41.800000
20
40.175736
30
0.0
40
0.300000
50
0.000000
51
45.000000
0
LINE
8
0
10
42.100000
20
40.175736
30
0.0
11
42.100000
21
40.300000
31
0.0
0
LINE
8
0
10
42.100000
20
40.300000
30
0.0
11
42.012132
21
40.387868
31
0.0
0
LINE
8
0
10
42.012132
20
40.387868
30
0.0
11
41.787868
21
40.612132
31
0.0
0
ARC
8
0
10
41.575736
20
40.400000
30
0.0
40
0.300000
50
45.000000
51
90.000000
0
LINE
8
0
10
41.575736
20
40.700000
30
0.0
11
40.900000
21
40.700000
31
0.0
0
ARC
8
0
10
40.900000
20
40.400000
30
0.0
40
0.300000
50
90.000000
51
180.000000
0
LINE
8
0
10
40.600000
20
40.400000
30
0.0
11
40.600000
21
39.800000
31
0.0
0
ARC
8
0
10
40.300000
20
39.800000
30
0.0
40
0.300000
50
270.000000
51
0.000000
0
LINE
8
0
10
40.300000
20
39.500000
30
0.0
11
37.889707
21
39.500000
31
0.0
0
ARC
8
0
10
37.889707
20
39.200000
30
0.0
40
0.300000
50
90.000000
51
178.000000
0
LINE
8
0
10
37.589889
20
39.210470
30
0.0
11
37.443466
21
35.017449
31
0.0
0
ARC
8
0
10
37.943161
20
35.000000
30
0.0
40
0.500000
50
178.000000
51
270.000000
0
LINE
8
0
10
37.943161
20
34.500000
30
0.0
11
38.159371
21
34.500000
31
0.0
0
ARC
8
0
10
38.159371
20
34.000000
30
0.0
40
0.500000
50
330.000000
51
90.000000
0
LINE
8
0
10
38.592383
20
33.750000
30
0.0
11
37.566987
21
31.973961
31
0.0
0
ARC
8
0
10
38.000000
20
31.723961
30
0.0
40
0.500000
50
150.000000
51
180.000000
0
LINE
8
0
10
37.500000
20
31.723961
30
0.0
11
37.500000
21
29.300000
31
0.0
0
ARC
8
0
10
37.200000
20
29.300000
30
0.0
40
0.300000
50
270.000000
51
0.000000
0
LINE
8
0
10
37.200000
20
29.000000
30
0.0
11
31.600000
21
29.000000
31
0.0
0
LINE
8
0
10
31.600000
20
29.000000
30
0.0
11
31.300000
21
28.700000
31
0.0
0
LINE
8
0
10
31.300000
20
28.700000
30
0.0
11
31.000000
21
29.000000
31
0.0
0
LINE
8
0
10
31.000000
20
29.000000
30
0.0
11
25.400000
21
29.000000
31
0.0
0
ARC
8
0
10
25.400000
20
29.300000
30
0.0
40
0.300000
50
180.000000
51
270.000000
0
LINE
8
0
10
25.100000
20
29.300000
30
0.0
11
25.100000
21
31.723961
31
0.0
0
ARC
8
0
10
24.600000
20
31.723961
30
0.0
40
0.500000
50
0.000000
51
30.000000
0
LINE
8
0
10
25.033013
20
31.973961
30
0.0
11
24.007617
21
33.750000
31
0.0
0
ARC
8
0
10
24.440629
20
34.000000
30
0.0
40
0.500000
50
90.000000
51
210.000000
0
LINE
8
0
10
24.440629
20
34.500000
30
0.0
11
24.656839
21
34.500000
31
0.0
0
ARC
8
0
10
24.656839
20
35.000000
30
0.0
40
0.500000
50
270.000000
51
2.000000
0
LINE
8
0
10
25.156534
20
35.017449
30
0.0
11
25.010111
21
39.210470
31
0.0
0
ARC
8
0
10
24.710293
20
39.200000
30
0.0
40
0.300000
50
2.000000
51
90.000000
0
LINE
8
0
10
24.710293
20
39.500000
30
0.0
11
22.300000
21
39.500000
31
0.0
0
ARC
8
0
10
22.300000
20
39.800000
30
0.0
40
0.300000
50
180.000000
51
270.000000
0
LINE
8
0
10
22.000000
20
39.800000
30
0.0
11
22.000000
21
43.100000
31
0.0
0
ARC
8
0
10
21.700000
20
43.100000
30
0.0
40
0.300000
50
0.000000
51
90.000000
0
LINE
8
0
10
21.700000
20
43.400000
30
0.0
11
9.800000
21
43.400000
31
0.0
0
ARC
8
0
10
9.800000
20
42.400000
30
0.0
40
1.000000
50
90.000000
51
180.000000
0
LINE
8
0
10
8.800000
20
42.400000
30
0.0
11
8.800000
21
37.632122
31
0.0
0
ARC
8
0
10
9.100000
20
37.632122
30
0.0
40
0.300000
50
180.000000
51
255.000000
0
LINE
8
0
10
9.022354
20
37.342344
30
0.0
11
10.077646
21
37.059579
31
0.0
0
ARC
8
0
10
10.000000
20
36.769802
30
0.0
40
0.300000
50
0.000000
51
75.000000
0
LINE
8
0
10
10.300000
20
36.769802
30
0.0
11
10.300000
21
18.300000
31
0.0
0
ARC
8
0
10
10.000000
20
18.300000
30
0.0
40
0.300000
50
270.000000
51
0.000000
0
LINE
8
0
10
10.000000
20
18.000000
30
0.0
11
0.500000
21
18.000000
31
0.0
0
ARC
8
0
10
0.500000
20
17.500000
30
0.0
40
0.500000
50
90.000000
51
180.000000
0
LINE
8
0
10
0.000000
20
17.500000
30
0.0
11
0.000000
21
0.300000
31
0.0
0
ARC
8
0
10
0.300000
20
0.300000
30
0.0
40
0.300000
50
180.000000
51
270.000000
0
LINE
8
0
10
0.300000
20
0.000000
30
0.0
11
3.530143
21
0.000000
31
0.0
0
ARC
8
0
10
3.530143
20
0.300000
30
0.0
40
0.300000
50
270.000000
51
329.036243
0
LINE
8
0
10
3.787391
20
0.145651
30
0.0
11
4.257248
21
0.928746
31
0.0
0
ARC
8
0
10
4.000000
20
1.083095
30
0.0
40
0.300000
50
329.036243
51
0.000000
0
LINE
8
0
10
4.300000
20
1.083095
30
0.0
11
4.300000
21
1.200000
31
0.0
0
ARC
8
0
10
4.000000
20
1.200000
30
0.0
40
0.300000
50
0.000000
51
90.000000
0
LINE
8
0
10
4.000000
20
1.500000
30
0.0
11
2.100000
21
1.500000
31
0.0
0
ARC
8
0
10
2.100000
20
1.800000
30
0.0
40
0.300000
50
180.000000
51
270.000000
0
LINE
8
0
10
1.800000
20
1.800000
30
0.0
11
1.800000
21
4.700000
31
0.0
0
ARC
8
0
10
2.100000
20
4.700000
30
0.0
40
0.300000
50
90.000000
51
180.000000
0
LINE
8
0
10
2.100000
20
5.000000
30
0.0
11
16.000000
21
5.000000
31
0.0
0
ARC
8
0
10
16.000000
20
4.700000
30
0.0
40
0.300000
50
0.000000
51
90.000000
0
LINE
8
0
10
16.300000
20
4.700000
30
0.0
11
16.300000
21
1.800000
31
0.0
0
ARC
8
0
10
16.000000
20
1.800000
30
0.0
40
0.300000
50
270.000000
51
0.000000
0
LINE
8
0
10
16.000000
20
1.500000
30
0.0
11
14.600000
21
1.500000
31
0.0
0
ARC
8
0
10
14.600000
20
1.200000
30
0.0
40
0.300000
50
90.000000
51
180.000000
0
LINE
8
0
10
14.300000
20
1.200000
30
0.0
11
14.300000
21
1.083095
31
0.0
0
ARC
8
0
10
14.600000
20
1.083095
30
0.0
40
0.300000
50
180.000000
51
210.963757
0
LINE
8
0
10
14.342752
20
0.928746
30
0.0
11
14.812609
21
0.145651
31
0.0
0
ARC
8
0
10
15.069857
20
0.300000
30
0.0
40
0.300000
50
210.963757
51
270.000000
0
LINE
8
0
10
15.069857
20
0.000000
30
0.0
11
17.500000
21
0.000000
31
0.0
0
ARC
8
0
10
17.500000
20
0.300000
30
0.0
40
0.300000
50
270.000000
51
0.000000
0
LINE
8
0
10
17.800000
20
0.300000
30
0.0
11
17.800000
21
4.700000
31
0.0
0
ARC
8
0
10
18.100000
20
4.700000
30
0.0
40
0.300000
50
90.000000
51
180.000000
0
LINE
8
0
10
18.100000
20
5.000000
30
0.0
11
40.700000
21
5.000000
31
0.0
0
ARC
8
0
10
40.700000
20
4.700000
30
0.0
40
0.300000
50
0.000000
51
90.000000
0
LINE
8
0
10
41.000000
20
4.700000
30
0.0
11
41.000000
21
0.300000
31
0.0
0
ARC
8
0
10
41.300000
20
0.300000
30
0.0
40
0.300000
50
180.000000
51
270.000000
0
LINE
8
0
10
41.300000
20
0.000000
30
0.0
11
42.767916
21
0.000000
31
0.0
0
ARC
8
0
10
42.767916
20
0.300000
30
0.0
40
0.300000
50
270.000000
51
289.778171
0
LINE
8
0
10
42.869430
20
0.017697
30
0.0
11
44.171292
21
0.485836
31
0.0
0
ARC
8
0
10
44.250811
20
0.264699
30
0.0
40
0.235000
50
24.000000
51
109.778171
0
ARC
8
0
10
44.686746
20
0.441112
30
0.0
40
0.235000
50
204.000000
51
270.000000
0
LINE
8
0
10
44.685190
20
0.206117
30
0.0
11
46.264118
21
0.195660
31
0.0
0
ARC
8
0
10
46.266105
20
0.495654
30
0.0
40
0.300000
50
270.000000
51
24.620541
0
LINE
8
0
10
46.538831
20
0.620636
30
0.0
11
45.590181
21
2.726151
31
0.0
0
ARC
8
0
10
45.316661
20
2.602915
30
0.0
40
0.300000
50
24.254172
51
64.620541
0
LINE
8
0
10
45.445245
20
2.873962
30
0.0
11
44.937822
21
3.114681
31
0.0
0
ARC
8
0
10
44.852099
20
2.933983
30
0.0
40
0.200000
50
64.620541
51
184.620541
0
LINE
8
0
10
44.652749
20
2.917872
30
0.0
11
44.662051
21
2.802777
31
0.0
0
ARC
8
0
10
44.363026
20
2.778610
30
0.0
40
0.300000
50
304.620541
51
4.620541
0
LINE
8
0
10
44.533468
20
2.531731
30
0.0
11
42.904711
21
1.407265
31
0.0
0
LINE
8
0
10
42.904711
20
1.407265
30
0.0
11
42.722002
21
1.325917
31
0.0
0
ARC
8
0
10
42.600000
20
1.600000
30
0.0
40
0.300009
50
131.812671
51
293.995287
0
ARC
8
0
10
42.199975
20
2.047204
30
0.0
40
0.300000
50
311.812671
51
0.000000
0
LINE
8
0
10
42.499975
20
2.047204
30
0.0
11
42.499975
21
5.899990
31
0.0
0
ARC
8
0
10
42.799975
20
5.899990
30
0.0
40
0.300000
50
90.000000
51
180.000000
0
LINE
8
0
10
42.799975
20
6.199990
30
0.0
11
43.021169
21
6.199990
31
0.0
0
ARC
8
0
10
43.021169
20
5.899990
30
0.0
40
0.300000
50
58.600000
51
90.000000
0
LINE
8
0
10
43.177472
20
6.156056
30
0.0
11
44.695773
21
5.229280
31
0.0
0
ARC
8
0
10
44.799975
20
5.399990
30
0.0
40
0.200000
50
238.600000
51
0.000000
0
LINE
8
0
10
44.999975
20
5.399990
30
0.0
11
44.999975
21
9.599990
31
0.0
0
ARC
8
0
10
44.799975
20
9.599990
30
0.0
40
0.200000
50
0.000000
51
121.400000
0
LINE
8
0
10
44.695773
20
9.770700
30
0.0
11
43.177472
21
8.843925
31
0.0
0
ARC
8
0
10
43.021169
20
9.099990
30
0.0
40
0.300000
50
270.000000
51
301.400000
0
LINE
8
0
10
43.021169
20
8.799990
30
0.0
11
42.799975
21
8.799990
31
0.0
0
ARC
8
0
10
42.799975
20
9.099990
30
0.0
40
0.300000
50
180.000000
51
270.000000
0
LINE
8
0
10
42.499975
20
9.099990
30
0.0
11
42.499975
21
12.952777
31
0.0
0
ARC
8
0
10
42.199975
20
12.952777
30
0.0
40
0.300000
50
0.000000
51
48.187329
0
ARC
8
0
10
42.600000
20
13.399981
30
0.0
40
0.300009
50
66.004713
51
228.187329
0
LINE
8
0
10
42.722002
20
13.674063
30
0.0
11
42.904711
21
13.592716
31
0.0
0
LINE
8
0
10
42.904711
20
13.592716
30
0.0
11
44.533468
21
12.468250
31
0.0
0
ARC
8
0
10
44.363026
20
12.221370
30
0.0
40
0.300000
50
355.379459
51
55.379459
0
LINE
8
0
10
44.662051
20
12.197203
30
0.0
11
44.652749
21
12.082108
31
0.0
0
ARC
8
0
10
44.852099
20
12.065997
30
0.0
40
0.200000
50
175.379459
51
295.379459
0
LINE
8
0
10
44.937822
20
11.885299
30
0.0
11
45.445245
21
12.126019
31
0.0
0
ARC
8
0
10
45.316661
20
12.397065
30
0.0
40
0.300000
50
295.379459
51
335.745828
0
LINE
8
0
10
45.590181
20
12.273830
30
0.0
11
46.538831
21
14.379345
31
0.0
0
ARC
8
0
10
46.266105
20
14.504327
30
0.0
40
0.300000
50
335.379459
51
90.000000
0
LINE
8
0
10
46.264118
20
14.804320
30
0.0
11
44.685190
21
14.793863
31
0.0
0
ARC
8
0
10
44.686746
20
14.558868
30
0.0
40
0.235000
50
90.000000
51
156.000000
0
ARC
8
0
10
44.250811
20
14.735282
30
0.0
40
0.235000
50
250.221829
51
336.000000
0
LINE
8
0
10
44.171292
20
14.514145
30
0.0
11
42.869377
21
14.982303
31
0.0
0
ARC
8
0
10
42.767863
20
14.700000
30
0.0
40
0.300000
50
70.221829
51
90.000000
0
LINE
8
0
10
42.767863
20
15.000000
30
0.0
11
39.299975
21
15.000000
31
0.0
0
ARC
8
0
10
39.299975
20
15.300000
30
0.0
40
0.300000
50
180.000000
51
270.000000
0
LINE
8
0
10
38.999975
20
15.300000
30
0.0
11
38.999975
21
20.800000
31
0.0
0
ARC
8
0
10
39.299975
20
20.800000
30
0.0
40
0.300000
50
90.000000
51
180.000000
0
LINE
8
0
10
39.299975
20
21.100000
30
0.0
11
41.899975
21
21.100000
31
0.0
0
ARC
8
0
10
41.899975
20
21.400000
30
0.0
40
0.300000
50
270.000000
51
0.000000
0
LINE
8
0
10
42.199975
20
21.400000
30
0.0
11
42.199975
21
22.300000
31
0.0
0
ARC
8
0
10
41.899975
20
22.300000
30
0.0
40
0.300000
50
0.000000
51
90.000000
0
LINE
8
0
10
41.899975
20
22.600000
30
0.0
11
39.299975
21
22.600000
31
0.0
0
ARC
8
0
10
39.299975
20
22.900000
30
0.0
40
0.300000
50
180.000000
51
270.000000
0
LINE
8
0
10
38.999975
20
22.900000
30
0.0
11
38.999975
21
31.375585
31
0.0
0
ARC
8
0
10
39.299975
20
31.375585
30
0.0
40
0.300000
50
150.000000
51
180.000000
0
LINE
8
0
10
39.040168
20
31.525585
30
0.0
11
39.891422
21
33.000000
31
0.0
0
ARC
8
0
10
38.159371
20
34.000000
30
0.0
40
2.000000
50
330.000000
51
57.356923
0
ARC
8
0
10
39.400000
20
35.936708
30
0.0
40
0.300000
50
180.000000
51
237.356923
0
LINE
8
0
10
39.100000
20
35.936708
30
0.0
11
39.100000
21
37.700000
31
0.0
0
ARC
8
0
10
39.400000
20
37.700000
30
0.0
40
0.300000
50
90.000000
51
180.000000
0
LINE
8
0
10
39.400000
20
38.000000
30
0.0
11
41.800000
21
38.000000
31
0.0
0
ARC
8
0
10
41.800000
20
38.300000
30
0.0
40
0.300000
50
270.000000
51
0.000000
0
LINE
8
0
10
42.100000
20
38.300000
30
0.0
11
42.100000
21
40.175736
31
0.0
0
LINE
8
0
10
74.950000
20
12.994677
30
0.0
11
65.050000
21
12.994677
31
0.0
0
ARC
8
0
10
65.050000
20
12.694677
30
0.0
40
0.300000
50
90.000000
51
180.000000
0
LINE
8
0
10
64.750000
20
12.694677
30
0.0
11
64.750000
21
8.894677
31
0.0
0
ARC
8
0
10
64.250000
20
8.894677
30
0.0
40
0.500000
50
180.000000
51
0.000000
0
LINE
8
0
10
63.750000
20
8.894677
30
0.0
11
63.750000
21
12.694677
31
0.0
0
ARC
8
0
10
63.450000
20
12.694677
30
0.0
40
0.300000
50
0.000000
51
90.000000
0
LINE
8
0
10
63.450000
20
12.994677
30
0.0
11
53.550000
21
12.994677
31
0.0
0
ARC
8
0
10
53.550000
20
12.694677
30
0.0
40
0.300000
50
90.000000
51
180.000000
0
LINE
8
0
10
53.250000
20
12.694677
30
0.0
11
53.250000
21
8.894677
31
0.0
0
ARC
8
0
10
52.750000
20
8.894677
30
0.0
40
0.500000
50
180.000000
51
0.000000
0
LINE
8
0
10
52.250000
20
8.894677
30
0.0
11
52.250000
21
12.694677
31
0.0
0
ARC
8
0
10
51.950000
20
12.694677
30
0.0
40
0.300000
50
0.000000
51
90.000000
0
LINE
8
0
10
51.950000
20
12.994677
30
0.0
11
49.645330
21
12.994677
31
0.0
0
ARC
8
0
10
49.645330
20
11.994677
30
0.0
40
1.000000
50
90.000000
51
144.745828
0
LINE
8
0
10
48.828731
20
12.571882
30
0.0
11
47.305910
21
10.417473
31
0.0
0
ARC
8
0
10
46.489310
20
10.994677
30
0.0
40
1.000000
50
270.000000
51
324.745828
0
LINE
8
0
10
46.489310
20
9.994677
30
0.0
11
45.388000
21
9.994677
31
0.0
0
ARC
8
0
10
45.388000
20
8.794677
30
0.0
40
1.200000
50
90.000000
51
119.981639
0
LINE
8
0
10
44.788333
20
9.834100
30
0.0
11
43.206389
21
8.921440
31
0.0
0
ARC
8
0
10
43.106444
20
9.094677
30
0.0
40
0.200000
50
270.000000
51
299.981639
0
LINE
8
0
10
43.106444
20
8.894677
30
0.0
11
42.900000
21
8.894677
31
0.0
0
ARC
8
0
10
42.900000
20
9.294677
30
0.0
40
0.400000
50
180.000000
51
270.000000
0
LINE
8
0
10
42.500000
20
9.294677
30
0.0
11
42.500000
21
12.694677
31
0.0
0
ARC
8
0
10
42.900000
20
12.694677
30
0.0
40
0.400000
50
90.000000
51
180.000000
0
LINE
8
0
10
42.900000
20
13.094677
30
0.0
11
43.106444
21
13.094677
31
0.0
0
ARC
8
0
10
43.106444
20
12.894677
30
0.0
40
0.200000
50
60.018361
51
90.000000
0
LINE
8
0
10
43.206389
20
13.067914
30
0.0
11
44.788333
21
12.155255
31
0.0
0
ARC
8
0
10
45.388000
20
13.194677
30
0.0
40
1.200000
50
240.018361
51
270.000000
0
LINE
8
0
10
45.388000
20
11.994677
30
0.0
11
45.816234
21
11.994677
31
0.0
0
ARC
8
0
10
45.816234
20
12.294677
30
0.0
40
0.300000
50
270.000000
51
324.745828
0
LINE
8
0
10
46.061213
20
12.121516
30
0.0
11
47.942653
21
14.783280
31
0.0
0
ARC
8
0
10
48.350952
20
14.494677
30
0.0
40
0.500000
50
90.000000
51
144.745828
0
LINE
8
0
10
48.350952
20
14.994677
30
0.0
11
91.649048
21
14.994677
31
0.0
0
ARC
8
0
10
91.649048
20
14.494677
30
0.0
40
0.500000
50
35.254172
51
90.000000
0
LINE
8
0
10
92.057347
20
14.783280
30
0.0
11
93.938787
21
12.121516
31
0.0
0
ARC
8
0
10
94.183766
20
12.294677
30
0.0
40
0.300000
50
215.254172
51
270.000000
0
LINE
8
0
10
94.183766
20
11.994677
30
0.0
11
94.612000
21
11.994677
31
0.0
0
ARC
8
0
10
94.612000
20
13.194677
30
0.0
40
1.200000
50
270.000000
51
299.981639
0
LINE
8
0
10
95.211667
20
12.155255
30
0.0
11
96.793611
21
13.067914
31
0.0
0
ARC
8
0
10
96.893555
20
12.894677
30
0.0
40
0.200000
50
90.000000
51
119.981639
0
LINE
8
0
10
96.893555
20
13.094677
30
0.0
11
97.100000
21
13.094677
31
0.0
0
ARC
8
0
10
97.100000
20
12.694677
30
0.0
40
0.400000
50
0.000000
51
90.000000
0
LINE
8
0
10
97.500000
20
12.694677
30
0.0
11
97.500000
21
9.294677
31
0.0
0
ARC
8
0
10
97.100000
20
9.294677
30
0.0
40
0.400000
50
270.000000
51
0.000000
0
LINE
8
0
10
97.100000
20
8.894677
30
0.0
11
96.893555
21
8.894677
31
0.0
0
ARC
8
0
10
96.893555
20
9.094677
30
0.0
40
0.200000
50
240.018361
51
270.000000
0
LINE
8
0
10
96.793611
20
8.921440
30
0.0
11
95.211667
21
9.834100
31
0.0
0
ARC
8
0
10
94.612000
20
8.794677
30
0.0
40
1.200000
50
60.018361
51
90.000000
0
LINE
8
0
10
94.612000
20
9.994677
30
0.0
11
93.510690
21
9.994677
31
0.0
0
ARC
8
0
10
93.510690
20
10.994677
30
0.0
40
1.000000
50
215.254172
51
270.000000
0
LINE
8
0
10
92.694090
20
10.417473
30
0.0
11
91.171269
21
12.571882
31
0.0
0
ARC
8
0
10
90.354670
20
11.994677
30
0.0
40
1.000000
50
35.254172
51
90.000000
0
LINE
8
0
10
90.354670
20
12.994677
30
0.0
11
88.050000
21
12.994677
31
0.0
0
ARC
8
0
10
88.050000
20
12.694677
30
0.0
40
0.300000
50
90.000000
51
180.000000
0
LINE
8
0
10
87.750000
20
12.694677
30
0.0
11
87.750000
21
8.894677
31
0.0
0
ARC
8
0
10
87.250000
20
8.894677
30
0.0
40
0.500000
50
180.000000
51
0.000000
0
LINE
8
0
10
86.750000
20
8.894677
30
0.0
11
86.750000
21
12.694677
31
0.0
0
ARC
8
0
10
86.450000
20
12.694677
30
0.0
40
0.300000
50
0.000000
51
90.000000
0
LINE
8
0
10
86.450000
20
12.994677
30
0.0
11
76.550000
21
12.994677
31
0.0
0
ARC
8
0
10
76.550000
20
12.694677
30
0.0
40
0.300000
50
90.000000
51
180.000000
0
LINE
8
0
10
76.250000
20
12.694677
30
0.0
11
76.250000
21
8.894677
31
0.0
0
ARC
8
0
10
75.750000
20
8.894677
30
0.0
40
0.500000
50
180.000000
51
0.000000
0
LINE
8
0
10
75.250000
20
8.894677
30
0.0
11
75.250000
21
12.694677
31
0.0
0
ARC
8
0
10
74.950000
20
12.694677
30
0.0
40
0.300000
50
0.000000
51
90.000000
0
LINE
8
0
10
74.950000
20
2.015303
30
0.0
11
65.050000
21
2.015303
31
0.0
0
ARC
8
0
10
65.050000
20
2.315303
30
0.0
40
0.300000
50
180.000000
51
270.000000
0
LINE
8
0
10
64.750000
20
2.315303
30
0.0
11
64.750000
21
6.115303
31
0.0
0
ARC
8
0
10
64.250000
20
6.115303
30
0.0
40
0.500000
50
0.000000
51
180.000000
0
LINE
8
0
10
63.750000
20
6.115303
30
0.0
11
63.750000
21
2.315303
31
0.0
0
ARC
8
0
10
63.450000
20
2.315303
30
0.0
40
0.300000
50
270.000000
51
0.000000
0
LINE
8
0
10
63.450000
20
2.015303
30
0.0
11
53.550000
21
2.015303
31
0.0
0
ARC
8
0
10
53.550000
20
2.315303
30
0.0
40
0.300000
50
180.000000
51
270.000000
0
LINE
8
0
10
53.250000
20
2.315303
30
0.0
11
53.250000
21
6.115303
31
0.0
0
ARC
8
0
10
52.750000
20
6.115303
30
0.0
40
0.500000
50
0.000000
51
180.000000
0
LINE
8
0
10
52.250000
20
6.115303
30
0.0
11
52.250000
21
2.315303
31
0.0
0
ARC
8
0
10
51.950000
20
2.315303
30
0.0
40
0.300000
50
270.000000
51
0.000000
0
LINE
8
0
10
51.950000
20
2.015303
30
0.0
11
49.645330
21
2.015303
31
0.0
0
ARC
8
0
10
49.645330
20
3.015303
30
0.0
40
1.000000
50
215.254172
51
270.000000
0
LINE
8
0
10
48.828731
20
2.438099
30
0.0
11
47.305910
21
4.592508
31
0.0
0
ARC
8
0
10
46.489310
20
4.015303
30
0.0
40
1.000000
50
35.254172
51
90.000000
0
LINE
8
0
10
46.489310
20
5.015303
30
0.0
11
45.388000
21
5.015303
31
0.0
0
ARC
8
0
10
45.388000
20
6.215303
30
0.0
40
1.200000
50
240.018361
51
270.000000
0
LINE
8
0
10
44.788333
20
5.175881
30
0.0
11
43.206389
21
6.088540
31
0.0
0
ARC
8
0
10
43.106444
20
5.915303
30
0.0
40
0.200000
50
60.018361
51
90.000000
0
LINE
8
0
10
43.106444
20
6.115303
30
0.0
11
42.900000
21
6.115303
31
0.0
0
ARC
8
0
10
42.900000
20
5.715303
30
0.0
40
0.400000
50
90.000000
51
180.000000
0
LINE
8
0
10
42.500000
20
5.715303
30
0.0
11
42.500000
21
2.315303
31
0.0
0
ARC
8
0
10
42.900000
20
2.315303
30
0.0
40
0.400000
50
180.000000
51
270.000000
0
LINE
8
0
10
42.900000
20
1.915303
30
0.0
11
43.106444
21
1.915303
31
0.0
0
ARC
8
0
10
43.106444
20
2.115303
30
0.0
40
0.200000
50
270.000000
51
299.981639
0
LINE
8
0
10
43.206389
20
1.942066
30
0.0
11
44.788333
21
2.854726
31
0.0
0
ARC
8
0
10
45.388000
20
1.815303
30
0.0
40
1.200000
50
90.000000
51
119.981639
0
LINE
8
0
10
45.388000
20
3.015303
30
0.0
11
45.816234
21
3.015303
31
0.0
0
ARC
8
0
10
45.816234
20
2.715303
30
0.0
40
0.300000
50
35.254172
51
90.000000
0
LINE
8
0
10
46.061213
20
2.888465
30
0.0
11
47.942653
21
0.226701
31
0.0
0
ARC
8
0
10
48.350952
20
0.515303
30
0.0
40
0.500000
50
215.254172
51
270.000000
0
LINE
8
0
10
48.350952
20
0.015303
30
0.0
11
91.649048
21
0.015303
31
0.0
0
ARC
8
0
10
91.649048
20
0.515303
30
0.0
40
0.500000
50
270.000000
51
324.745828
0
LINE
8
0
10
92.057347
20
0.226701
30
0.0
11
93.938787
21
2.888465
31
0.0
0
ARC
8
0
10
94.183766
20
2.715303
30
0.0
40
0.300000
50
90.000000
51
144.745828
0
LINE
8
0
10
94.183766
20
3.015303
30
0.0
11
94.612000
21
3.015303
31
0.0
0
ARC
8
0
10
94.612000
20
1.815303
30
0.0
40
1.200000
50
60.018361
51
90.000000
0
LINE
8
0
10
95.211667
20
2.854726
30
0.0
11
96.793611
21
1.942066
31
0.0
0
ARC
8
0
10
96.893555
20
2.115303
30
0.0
40
0.200000
50
240.018361
51
270.000000
0
LINE
8
0
10
96.893555
20
1.915303
30
0.0
11
97.100000
21
1.915303
31
0.0
0
ARC
8
0
10
97.100000
20
2.315303
30
0.0
40
0.400000
50
270.000000
51
0.000000
0
LINE
8
0
10
97.500000
20
2.315303
30
0.0
11
97.500000
21
5.715303
31
0.0
0
ARC
8
0
10
97.100000
20
5.715303
30
0.0
40
0.400000
50
0.000000
51
90.000000
0
LINE
8
0
10
97.100000
20
6.115303
30
0.0
11
96.893555
21
6.115303
31
0.0
0
ARC
8
0
10
96.893555
20
5.915303
30
0.0
40
0.200000
50
90.000000
51
119.981639
0
LINE
8
0
10
96.793611
20
6.088540
30
0.0
11
95.211667
21
5.175881
31
0.0
0
ARC
8
0
10
94.612000
20
6.215303
30
0.0
40
1.200000
50
270.000000
51
299.981639
0
LINE
8
0
10
94.612000
20
5.015303
30
0.0
11
93.510690
21
5.015303
31
0.0
0
ARC
8
0
10
93.510690
20
4.015303
30
0.0
40
1.000000
50
90.000000
51
144.745828
0
LINE
8
0
10
92.694090
20
4.592508
30
0.0
11
91.171269
21
2.438099
31
0.0
0
ARC
8
0
10
90.354670
20
3.015303
30
0.0
40
1.000000
50
270.000000
51
324.745828
0
LINE
8
0
10
90.354670
20
2.015303
30
0.0
11
88.050000
21
2.015303
31
0.0
0
ARC
8
0
10
88.050000
20
2.315303
30
0.0
40
0.300000
50
180.000000
51
270.000000
0
LINE
8
0
10
87.750000
20
2.315303
30
0.0
11
87.750000
21
6.115303
31
0.0
0
ARC
8
0
10
87.250000
20
6.115303
30
0.0
40
0.500000
50
0.000000
51
180.000000
0
LINE
8
0
10
86.750000
20
6.115303
30
0.0
11
86.750000
21
2.315303
31
0.0
0
ARC
8
0
10
86.450000
20
2.315303
30
0.0
40
0.300000
50
270.000000
51
0.000000
0
LINE
8
0
10
86.450000
20
2.015303
30
0.0
11
76.550000
21
2.015303
31
0.0
0
ARC
8
0
10
76.550000
20
2.315303
30
0.0
40
0.300000
50
180.000000
51
270.000000
0
LINE
8
0
10
76.250000
20
2.315303
30
0.0
11
76.250000
21
6.115303
31
0.0
0
ARC
8
0
10
75.750000
20
6.115303
30
0.0
40
0.500000
50
0.000000
51
180.000000
0
LINE
8
0
10
75.250000
20
6.115303
30
0.0
11
75.250000
21
2.315303
31
0.0
0
ARC
8
0
10
74.950000
20
2.315303
30
0.0
40
0.300000
50
270.000000
51
0.000000
0
LINE
8
0
10
102.500000
20
41.300000
30
0.0
11
103.200000
21
41.300000
31
0.0
0
ARC
8
0
10
103.200000
20
41.000000
30
0.0
40
0.300000
50
0.000000
51
90.000000
0
LINE
8
0
10
103.500000
20
41.000000
30
0.0
11
103.500000
21
35.824264
31
0.0
0
ARC
8
0
10
103.200000
20
35.824264
30
0.0
40
0.300000
50
315.000000
51
0.000000
0
LINE
8
0
10
103.412133
20
35.612132
30
0.0
11
102.214949
21
34.414949
31
0.0
0
ARC
8
0
10
102.568503
20
34.061396
30
0.0
40
0.500000
50
135.000000
51
210.000000
0
LINE
8
0
10
102.135490
20
33.811396
30
0.0
11
102.719601
21
32.799686
31
0.0
0
ARC
8
0
10
103.066011
20
32.999686
30
0.0
40
0.400000
50
210.000000
51
30.000000
0
LINE
8
0
10
103.412421
20
33.199686
30
0.0
11
103.058508
21
33.812681
31
0.0
0
ARC
8
0
10
103.318316
20
33.962681
30
0.0
40
0.300000
50
135.000000
51
210.000000
0
LINE
8
0
10
103.106184
20
34.174813
30
0.0
11
104.212133
21
35.280761
31
0.0
0
ARC
8
0
10
104.000000
20
35.492893
30
0.0
40
0.300000
50
315.000000
51
0.000000
0
LINE
8
0
10
104.300000
20
35.492893
30
0.0
11
104.300000
21
41.000000
31
0.0
0
ARC
8
0
10
104.600000
20
41.000000
30
0.0
40
0.300000
50
90.000000
51
180.000000
0
LINE
8
0
10
104.600000
20
41.300000
30
0.0
11
112.800000
21
41.300000
31
0.0
0
ARC
8
0
10
112.800000
20
41.000000
30
0.0
40
0.300000
50
0.000000
51
90.000000
0
LINE
8
0
10
113.100000
20
41.000000
30
0.0
11
113.100000
21
35.492893
31
0.0
0
ARC
8
0
10
113.400000
20
35.492893
30
0.0
40
0.300000
50
180.000000
51
225.000000
0
LINE
8
0
10
113.187868
20
35.280761
30
0.0
11
114.293817
21
34.174813
31
0.0
0
ARC
8
0
10
114.081685
20
33.962681
30
0.0
40
0.300000
50
330.000000
51
45.000000
0
LINE
8
0
10
114.341493
20
33.812681
30
0.0
11
113.987580
21
33.199686
31
0.0
0
ARC
8
0
10
114.333990
20
32.999686
30
0.0
40
0.400000
50
150.000000
51
330.000000
0
LINE
8
0
10
114.680400
20
32.799686
30
0.0
11
115.264511
21
33.811396
31
0.0
0
ARC
8
0
10
114.831498
20
34.061396
30
0.0
40
0.500000
50
330.000000
51
45.000000
0
LINE
8
0
10
115.185052
20
34.414949
30
0.0
11
113.987868
21
35.612132
31
0.0
0
ARC
8
0
10
114.200000
20
35.824264
30
0.0
40
0.300000
50
180.000000
51
225.000000
0
LINE
8
0
10
113.900000
20
35.824264
30
0.0
11
113.900000
21
41.000000
31
0.0
0
ARC
8
0
10
114.200000
20
41.000000
30
0.0
40
0.300000
50
90.000000
51
180.000000
0
LINE
8
0
10
114.200000
20
41.300000
30
0.0
11
114.900000
21
41.300000
31
0.0
0
ARC
8
0
10
114.900000
20
40.300000
30
0.0
40
1.000000
50
337.380135
51
90.000000
0
ARC
8
0
10
116.100000
20
39.800000
30
0.0
40
0.300000
50
157.380135
51
270.000000
0
LINE
8
0
10
116.100000
20
39.500000
30
0.0
11
117.400000
21
39.500000
31
0.0
0
ARC
8
0
10
117.400000
20
39.800000
30
0.0
40
0.300000
50
270.000000
51
0.000000
0
LINE
8
0
10
117.700000
20
39.800000
30
0.0
11
117.700000
21
43.100000
31
0.0
0
ARC
8
0
10
117.400000
20
43.100000
30
0.0
40
0.300000
50
0.000000
51
90.000000
0
LINE
8
0
10
117.400000
20
43.400000
30
0.0
11
111.700000
21
43.400000
31
0.0
0
ARC
8
0
10
111.700000
20
43.900000
30
0.0
40
0.500000
50
180.000000
51
270.000000
0
LINE
8
0
10
111.200000
20
43.900000
30
0.0
11
111.200000
21
44.200000
31
0.0
0
ARC
8
0
10
108.700000
20
44.200000
30
0.0
40
2.500000
50
0.000000
51
180.000000
0
LINE
8
0
10
106.200000
20
44.200000
30
0.0
11
106.200000
21
43.900000
31
0.0
0
ARC
8
0
10
105.700000
20
43.900000
30
0.0
40
0.500000
50
270.000000
51
0.000000
0
LINE
8
0
10
105.700000
20
43.400000
30
0.0
11
100.000000
21
43.400000
31
0.0
0
ARC
8
0
10
100.000000
20
43.100000
30
0.0
40
0.300000
50
90.000000
51
180.000000
0
LINE
8
0
10
99.700000
20
43.100000
30
0.0
11
99.700000
21
39.800000
31
0.0
0
ARC
8
0
10
100.000000
20
39.800000
30
0.0
40
0.300000
50
180.000000
51
270.000000
0
LINE
8
0
10
100.000000
20
39.500000
30
0.0
11
101.300000
21
39.500000
31
0.0
0
ARC
8
0
10
101.300000
20
39.800000
30
0.0
40
0.300000
50
270.000000
51
22.619865
0
ARC
8
0
10
102.500000
20
40.300000
30
0.0
40
1.000000
50
90.000000
51
202.619865
0
LINE
8
0
10
25.100000
20
41.300000
30
0.0
11
25.800000
21
41.300000
31
0.0
0
ARC
8
0
10
25.800000
20
41.000000
30
0.0
40
0.300000
50
0.000000
51
90.000000
0
LINE
8
0
10
26.100000
20
41.000000
30
0.0
11
26.100000
21
35.824264
31
0.0
0
ARC
8
0
10
25.800000
20
35.824264
30
0.0
40
0.300000
50
315.000000
51
0.000000
0
LINE
8
0
10
26.012133
20
35.612132
30
0.0
11
24.814949
21
34.414949
31
0.0
0
ARC
8
0
10
25.168503
20
34.061396
30
0.0
40
0.500000
50
135.000000
51
210.000000
0
LINE
8
0
10
24.735490
20
33.811396
30
0.0
11
25.319601
21
32.799686
31
0.0
0
ARC
8
0
10
25.666011
20
32.999686
30
0.0
40
0.400000
50
210.000000
51
30.000000
0
LINE
8
0
10
26.012421
20
33.199686
30
0.0
11
25.658508
21
33.812681
31
0.0
0
ARC
8
0
10
25.918316
20
33.962681
30
0.0
40
0.300000
50
135.000000
51
210.000000
0
LINE
8
0
10
25.706184
20
34.174813
30
0.0
11
26.812133
21
35.280761
31
0.0
0
ARC
8
0
10
26.600000
20
35.492893
30
0.0
40
0.300000
50
315.000000
51
0.000000
0
LINE
8
0
10
26.900000
20
35.492893
30
0.0
11
26.900000
21
41.000000
31
0.0
0
ARC
8
0
10
27.200000
20
41.000000
30
0.0
40
0.300000
50
90.000000
51
180.000000
0
LINE
8
0
10
27.200000
20
41.300000
30
0.0
11
35.400000
21
41.300000
31
0.0
0
ARC
8
0
10
35.400000
20
41.000000
30
0.0
40
0.300000
50
0.000000
51
90.000000
0
LINE
8
0
10
35.700000
20
41.000000
30
0.0
11
35.700000
21
35.492893
31
0.0
0
ARC
8
0
10
36.000000
20
35.492893
30
0.0
40
0.300000
50
180.000000
51
225.000000
0
LINE
8
0
10
35.787868
20
35.280761
30
0.0
11
36.893817
21
34.174813
31
0.0
0
ARC
8
0
10
36.681685
20
33.962681
30
0.0
40
0.300000
50
330.000000
51
45.000000
0
LINE
8
0
10
36.941493
20
33.812681
30
0.0
11
36.587580
21
33.199686
31
0.0
0
ARC
8
0
10
36.933990
20
32.999686
30
0.0
40
0.400000
50
150.000000
51
330.000000
0
LINE
8
0
10
37.280400
20
32.799686
30
0.0
11
37.864511
21
33.811396
31
0.0
0
ARC
8
0
10
37.431498
20
34.061396
30
0.0
40
0.500000
50
330.000000
51
45.000000
0
LINE
8
0
10
37.785052
20
34.414949
30
0.0
11
36.587868
21
35.612132
31
0.0
0
ARC
8
0
10
36.800000
20
35.824264
30
0.0
40
0.300000
50
180.000000
51
225.000000
0
LINE
8
0
10
36.500000
20
35.824264
30
0.0
11
36.500000
21
41.000000
31
0.0
0
ARC
8
0
10
36.800000
20
41.000000
30
0.0
40
0.300000
50
90.000000
51
180.000000
0
LINE
8
0
10
36.800000
20
41.300000
30
0.0
11
37.500000
21
41.300000
31
0.0
0
ARC
8
0
10
37.500000
20
40.300000
30
0.0
40
1.000000
50
337.380135
51
90.000000
0
ARC
8
0
10
38.700000
20
39.800000
30
0.0
40
0.300000
50
157.380135
51
270.000000
0
LINE
8
0
10
38.700000
20
39.500000
30
0.0
11
40.000000
21
39.500000
31
0.0
0
ARC
8
0
10
40.000000
20
39.800000
30
0.0
40
0.300000
50
270.000000
51
0.000000
0
LINE
8
0
10
40.300000
20
39.800000
30
0.0
11
40.300000
21
43.100000
31
0.0
0
ARC
8
0
10
40.000000
20
43.100000
30
0.0
40
0.300000
50
0.000000
51
90.000000
0
LINE
8
0
10
40.000000
20
43.400000
30
0.0
11
34.300000
21
43.400000
31
0.0
0
ARC
8
0
10
34.300000
20
43.900000
30
0.0
40
0.500000
50
180.000000
51
270.000000
0
LINE
8
0
10
33.800000
20
43.900000
30
0.0
11
33.800000
21
44.200000
31
0.0
0
ARC
8
0
10
31.300000
20
44.200000
30
0.0
40
2.500000
50
0.000000
51
180.000000
0
LINE
8
0
10
28.800000
20
44.200000
30
0.0
11
28.800000
21
43.900000
31
0.0
0
ARC
8
0
10
28.300000
20
43.900000
30
0.0
40
0.500000
50
270.000000
51
0.000000
0
LINE
8
0
10
28.300000
20
43.400000
30
0.0
11
22.600000
21
43.400000
31
0.0
0
ARC
8
0
10
22.600000
20
43.100000
30
0.0
40
0.300000
50
90.000000
51
180.000000
0
LINE
8
0
10
22.300000
20
43.100000
30
0.0
11
22.300000
21
39.800000
31
0.0
0
ARC
8
0
10
22.600000
20
39.800000
30
0.0
40
0.300000
50
180.000000
51
270.000000
0
LINE
8
0
10
22.600000
20
39.500000
30
0.0
11
23.900000
21
39.500000
31
0.0
0
ARC
8
0
10
23.900000
20
39.800000
30
0.0
40
0.300000
50
270.000000
51
22.619865
0
ARC
8
0
10
25.100000
20
40.300000
30
0.0
40
1.000000
50
90.000000
51
202.619865
0
ARC
8
0
10
51.704468
20
15.600000
30
0.0
40
0.300000
50
270.000000
51
0.000000
0
LINE
8
0
10
52.004468
20
15.600000
30
0.0
11
52.004468
21
18.600000
31
0.0
0
ARC
8
0
10
52.504468
20
18.600000
30
0.0
40
0.500000
50
90.000000
51
180.000000
0
LINE
8
0
10
52.504468
20
19.100000
30
0.0
11
61.304468
21
19.100000
31
0.0
0
ARC
8
0
10
61.304468
20
18.600000
30
0.0
40
0.500000
50
0.000000
51
90.000000
0
LINE
8
0
10
61.804468
20
18.600000
30
0.0
11
61.804468
21
15.600000
31
0.0
0
ARC
8
0
10
62.104468
20
15.600000
30
0.0
40
0.300000
50
180.000000
51
270.000000
0
LINE
8
0
10
62.104468
20
15.300000
30
0.0
11
63.104468
21
15.300000
31
0.0
0
ARC
8
0
10
63.104468
20
15.600000
30
0.0
40
0.300000
50
270.000000
51
0.000000
0
LINE
8
0
10
63.404468
20
15.600000
30
0.0
11
63.404468
21
18.600000
31
0.0
0
ARC
8
0
10
63.904468
20
18.600000
30
0.0
40
0.500000
50
90.000000
51
180.000000
0
LINE
8
0
10
63.904468
20
19.100000
30
0.0
11
76.304468
21
19.100000
31
0.0
0
ARC
8
0
10
76.304468
20
18.600000
30
0.0
40
0.500000
50
0.000000
51
90.000000
0
LINE
8
0
10
76.804468
20
18.600000
30
0.0
11
76.804468
21
15.600000
31
0.0
0
ARC
8
0
10
77.104468
20
15.600000
30
0.0
40
0.300000
50
180.000000
51
270.000000
0
LINE
8
0
10
77.104468
20
15.300000
30
0.0
11
78.104468
21
15.300000
31
0.0
0
ARC
8
0
10
78.104468
20
15.600000
30
0.0
40
0.300000
50
270.000000
51
0.000000
0
LINE
8
0
10
78.404468
20
15.600000
30
0.0
11
78.404468
21
18.600000
31
0.0
0
ARC
8
0
10
78.904468
20
18.600000
30
0.0
40
0.500000
50
90.000000
51
180.000000
0
LINE
8
0
10
78.904468
20
19.100000
30
0.0
11
87.704468
21
19.100000
31
0.0
0
ARC
8
0
10
87.704468
20
18.600000
30
0.0
40
0.500000
50
0.000000
51
90.000000
0
LINE
8
0
10
88.204468
20
18.600000
30
0.0
11
88.204468
21
15.600000
31
0.0
0
ARC
8
0
10
88.504468
20
15.600000
30
0.0
40
0.300000
50
180.000000
51
270.000000
0
LINE
8
0
10
88.504468
20
15.300000
30
0.0
11
89.504468
21
15.300000
31
0.0
0
ARC
8
0
10
89.504468
20
15.600000
30
0.0
40
0.300000
50
270.000000
51
0.000000
0
LINE
8
0
10
89.804468
20
15.600000
30
0.0
11
89.804468
21
19.600000
31
0.0
0
ARC
8
0
10
91.304468
20
19.600000
30
0.0
40
1.500000
50
90.000000
51
180.000000
0
LINE
8
0
10
91.304468
20
21.100000
30
0.0
11
96.804468
21
21.100000
31
0.0
0
ARC
8
0
10
96.804468
20
21.900000
30
0.0
40
0.800000
50
270.000000
51
0.000000
0
LINE
8
0
10
97.604468
20
21.900000
30
0.0
11
97.604468
21
22.486112
31
0.0
0
ARC
8
0
10
96.604468
20
22.486112
30
0.0
40
1.000000
50
0.000000
51
12.994617
0
LINE
8
0
10
97.578859
20
22.710971
30
0.0
11
96.160365
21
28.857777
31
0.0
0
ARC
8
0
10
97.134757
20
29.082637
30
0.0
40
1.000000
50
165.074419
51
192.994617
0
LINE
8
0
10
96.168495
20
29.340201
30
0.0
11
98.124300
21
36.677469
31
0.0
0
ARC
8
0
10
97.158038
20
36.935033
30
0.0
40
1.000000
50
345.074419
51
0.000000
0
LINE
8
0
10
98.158038
20
36.935033
30
0.0
11
98.158038
21
37.819510
31
0.0
0
ARC
8
0
10
97.858038
20
37.819510
30
0.0
40
0.300000
50
0.000000
51
68.962489
0
LINE
8
0
10
97.965732
20
38.099514
30
0.0
11
97.896774
21
38.126036
31
0.0
0
ARC
8
0
10
98.004468
20
38.406040
30
0.0
40
0.300000
50
180.000000
51
248.962489
0
LINE
8
0
10
97.704468
20
38.406040
30
0.0
11
97.704468
21
40.275736
31
0.0
0
ARC
8
0
10
98.004468
20
40.275736
30
0.0
40
0.300000
50
135.000000
51
180.000000
0
LINE
8
0
10
97.792336
20
40.487868
30
0.0
11
98.216600
21
40.912132
31
0.0
0
ARC
8
0
10
98.428732
20
40.700000
30
0.0
40
0.300000
50
90.000000
51
135.000000
0
LINE
8
0
10
98.428732
20
41.000000
30
0.0
11
99.204468
21
41.000000
31
0.0
0
ARC
8
0
10
99.204468
20
41.300000
30
0.0
40
0.300000
50
270.000000
51
0.000000
0
LINE
8
0
10
99.504468
20
41.300000
30
0.0
11
99.504468
21
43.100000
31
0.0
0
ARC
8
0
10
99.204468
20
43.100000
30
0.0
40
0.300000
50
0.000000
51
90.000000
0
LINE
8
0
10
99.204468
20
43.400000
30
0.0
11
87.304468
21
43.400000
31
0.0
0
ARC
8
0
10
87.304468
20
42.400000
30
0.0
40
1.000000
50
90.000000
51
180.000000
0
LINE
8
0
10
86.304468
20
42.400000
30
0.0
11
86.304468
21
38.014622
31
0.0
0
ARC
8
0
10
87.104468
20
38.014622
30
0.0
40
0.800000
50
180.000000
51
255.068583
0
LINE
8
0
10
86.898338
20
37.241635
30
0.0
11
87.581767
21
37.059387
31
0.0
0
ARC
8
0
10
87.504468
20
36.769516
30
0.0
40
0.300000
50
0.000000
51
75.068583
0
LINE
8
0
10
87.804468
20
36.769516
30
0.0
11
87.804468
21
21.600000
31
0.0
0
ARC
8
0
10
87.304468
20
21.600000
30
0.0
40
0.500000
50
270.000000
51
0.000000
0
LINE
8
0
10
87.304468
20
21.100000
30
0.0
11
52.904468
21
21.100000
31
0.0
0
ARC
8
0
10
52.904468
20
21.600000
30
0.0
40
0.500000
50
180.000000
51
270.000000
0
LINE
8
0
10
52.404468
20
21.600000
30
0.0
11
52.404468
21
36.769516
31
0.0
0
ARC
8
0
10
52.704468
20
36.769516
30
0.0
40
0.300000
50
104.931417
51
180.000000
0
LINE
8
0
10
52.627169
20
37.059387
30
0.0
11
53.310598
21
37.241635
31
0.0
0
ARC
8
0
10
53.104468
20
38.014622
30
0.0
40
0.800000
50
284.931417
51
0.000000
0
LINE
8
0
10
53.904468
20
38.014622
30
0.0
11
53.904468
21
42.400000
31
0.0
0
ARC
8
0
10
52.904468
20
42.400000
30
0.0
40
1.000000
50
0.000000
51
90.000000
0
LINE
8
0
10
52.904468
20
43.400000
30
0.0
11
41.004468
21
43.400000
31
0.0
0
ARC
8
0
10
41.004468
20
43.100000
30
0.0
40
0.300000
50
90.000000
51
180.000000
0
LINE
8
0
10
40.704468
20
43.100000
30
0.0
11
40.704468
21
41.300000
31
0.0
0
ARC
8
0
10
41.004468
20
41.300000
30
0.0
40
0.300000
50
180.000000
51
270.000000
0
LINE
8
0
10
41.004468
20
41.000000
30
0.0
11
41.780204
21
41.000000
31
0.0
0
ARC
8
0
10
41.780204
20
40.700000
30
0.0
40
0.300000
50
45.000000
51
90.000000
0
LINE
8
0
10
41.992336
20
40.912132
30
0.0
11
42.416600
21
40.487868
31
0.0
0
ARC
8
0
10
42.204468
20
40.275736
30
0.0
40
0.300000
50
0.000000
51
45.000000
0
LINE
8
0
10
42.504468
20
40.275736
30
0.0
11
42.504468
21
38.406040
31
0.0
0
ARC
8
0
10
42.204468
20
38.406040
30
0.0
40
0.300000
50
291.037511
51
0.000000
0
LINE
8
0
10
42.312162
20
38.126036
30
0.0
11
42.243204
21
38.099514
31
0.0
0
ARC
8
0
10
42.350897
20
37.819510
30
0.0
40
0.300000
50
111.037511
51
180.000000
0
LINE
8
0
10
42.050897
20
37.819510
30
0.0
11
42.050897
21
36.935033
31
0.0
0
ARC
8
0
10
43.050897
20
36.935033
30
0.0
40
1.000000
50
180.000000
51
194.925581
0
LINE
8
0
10
42.084636
20
36.677469
30
0.0
11
44.040440
21
29.340201
31
0.0
0
ARC
8
0
10
43.074179
20
29.082637
30
0.0
40
1.000000
50
347.005383
51
14.925581
0
LINE
8
0
10
44.048570
20
28.857777
30
0.0
11
42.630077
21
22.710971
31
0.0
0
ARC
8
0
10
43.604468
20
22.486112
30
0.0
40
1.000000
50
167.005383
51
180.000000
0
LINE
8
0
10
42.604468
20
22.486112
30
0.0
11
42.604468
21
21.900000
31
0.0
0
ARC
8
0
10
43.404468
20
21.900000
30
0.0
40
0.800000
50
180.000000
51
270.000000
0
LINE
8
0
10
43.404468
20
21.100000
30
0.0
11
48.904468
21
21.100000
31
0.0
0
ARC
8
0
10
48.904468
20
19.600000
30
0.0
40
1.500000
50
0.000000
51
90.000000
0
LINE
8
0
10
50.404468
20
19.600000
30
0.0
11
50.404468
21
15.600000
31
0.0
0
ARC
8
0
10
50.704468
20
15.600000
30
0.0
40
0.300000
50
180.000000
51
270.000000
0
LINE
8
0
10
50.704468
20
15.300000
30
0.0
11
51.704468
21
15.300000
31
0.0
0
LINE
8
0
10
43.977336
20
23.212430
30
0.0
11
45.284917
21
28.878613
31
0.0
0
ARC
8
0
10
44.310526
20
29.103472
30
0.0
40
1.000000
50
347.005383
51
14.925581
0
LINE
8
0
10
45.276787
20
29.361037
30
0.0
11
43.261584
21
36.921142
31
0.0
0
ARC
8
0
10
43.551462
20
36.998411
30
0.0
40
0.300000
50
115.705312
51
194.925581
0
ARC
8
0
10
43.204468
20
37.719240
30
0.0
40
0.500000
50
295.705312
51
0.000000
0
LINE
8
0
10
43.704468
20
37.719240
30
0.0
11
43.704468
21
40.651668
31
0.0
0
ARC
8
0
10
43.404468
20
40.651668
30
0.0
40
0.300000
50
0.000000
51
56.251011
0
ARC
8
0
10
43.904468
20
41.400000
30
0.0
40
0.600000
50
33.748989
51
236.251011
0
ARC
8
0
10
44.652799
20
41.900000
30
0.0
40
0.300000
50
213.748989
51
270.000000
0
LINE
8
0
10
44.652799
20
41.600000
30
0.0
11
51.604468
21
41.600000
31
0.0
0
ARC
8
0
10
51.604468
20
41.100000
30
0.0
40
0.500000
50
0.000000
51
90.000000
0
LINE
8
0
10
52.104468
20
41.100000
30
0.0
11
52.104468
21
39.167040
31
0.0
0
ARC
8
0
10
51.604468
20
39.167040
30
0.0
40
0.500000
50
284.931417
51
0.000000
0
LINE
8
0
10
51.733299
20
38.683922
30
0.0
11
51.175637
21
38.535212
31
0.0
0
ARC
8
0
10
51.304468
20
38.052095
30
0.0
40
0.500000
50
104.931417
51
180.000000
0
LINE
8
0
10
50.804468
20
38.052095
30
0.0
11
50.804468
21
23.100000
31
0.0
0
ARC
8
0
10
50.304468
20
23.100000
30
0.0
40
0.500000
50
270.000000
51
0.000000
0
LINE
8
0
10
50.304468
20
22.600000
30
0.0
11
44.464532
21
22.600000
31
0.0
0
ARC
8
0
10
44.464532
20
23.100000
30
0.0
40
0.500000
50
167.005383
51
270.000000
0
LINE
8
0
10
94.932149
20
29.361037
30
0.0
11
96.947352
21
36.921142
31
0.0
0
ARC
8
0
10
96.657474
20
36.998411
30
0.0
40
0.300000
50
345.074419
51
64.294688
0
ARC
8
0
10
97.004468
20
37.719240
30
0.0
40
0.500000
50
180.000000
51
244.294688
0
LINE
8
0
10
96.504468
20
37.719240
30
0.0
11
96.504468
21
40.651668
31
0.0
0
ARC
8
0
10
96.804468
20
40.651668
30
0.0
40
0.300000
50
123.748989
51
180.000000
0
ARC
8
0
10
96.304468
20
41.400000
30
0.0
40
0.600000
50
303.748989
51
146.251011
0
ARC
8
0
10
95.556136
20
41.900000
30
0.0
40
0.300000
50
270.000000
51
326.251011
0
LINE
8
0
10
95.556136
20
41.600000
30
0.0
11
88.604468
21
41.600000
31
0.0
0
ARC
8
0
10
88.604468
20
41.100000
30
0.0
40
0.500000
50
90.000000
51
180.000000
0
LINE
8
0
10
88.104468
20
41.100000
30
0.0
11
88.104468
21
39.167040
31
0.0
0
ARC
8
0
10
88.604468
20
39.167040
30
0.0
40
0.500000
50
180.000000
51
255.068583
0
LINE
8
0
10
88.475637
20
38.683922
30
0.0
11
89.033299
21
38.535212
31
0.0
0
ARC
8
0
10
88.904468
20
38.052095
30
0.0
40
0.500000
50
0.000000
51
75.068583
0
LINE
8
0
10
89.404468
20
38.052095
30
0.0
11
89.404468
21
23.100000
31
0.0
0
ARC
8
0
10
89.904468
20
23.100000
30
0.0
40
0.500000
50
180.000000
51
270.000000
0
LINE
8
0
10
89.904468
20
22.600000
30
0.0
11
95.744404
21
22.600000
31
0.0
0
ARC
8
0
10
95.744404
20
23.100000
30
0.0
40
0.500000
50
270.000000
51
12.994617
0
LINE
8
0
10
96.231600
20
23.212430
30
0.0
11
94.924019
21
28.878613
31
0.0
0
ARC
8
0
10
95.898410
20
29.103472
30
0.0
40
1.000000
50
165.074419
51
192.994617
0
ATTDEF
8
0
10
0.000000
20
0.000000
30
0.0
40
3.5
1

3

2
GLASS_MIN:0.000000
70
0
0
ATTDEF
8
0
10
0.000000
20
0.000000
30
0.0
40
3.5
1

3

2
GLASS_MAX:0.000000
70
0
0
ATTDEF
8
0
10
0.000000
20
0.000000
30
0.0
40
3.5
1

3

2
BL01:6500.000000,,1
70
0
0
ATTDEF
8
0
10
0.000000
20
0.000000
30
0.0
40
3.5
1

3

2
HW_START
70
0
0
ATTDEF
8
0
10
140.000000
20
46.700000
30
0.0
40
3.5
1

3

2
HW_END
70
0
0
ATTDEF
8
0
10
21.700000
20
43.400000
30
0.0
40
3.5
1

3

2
VC_START
70
0
0
ATTDEF
8
0
10
1.915072
20
0.000000
30
0.0
40
3.5
1

3

2
VC_END
70
0
0
ATTDEF
8
0
10
0.000000
20
0.000000
30
0.0
40
3.5
1

3

2
FP_LCS_ORIG
70
0
0
ATTDEF
8
0
10
10.000000
20
0.000000
30
0.0
40
3.5
1

3

2
FP_LCS_HOT
70
0
0
ATTDEF
8
0
10
0.000000
20
10.000000
30
0.0
40
3.5
1

3

2
FP_LCS_INTERN
70
0
0
ATTDEF
8
0
10
0.000000
20
0.000000
30
0.0
40
3.5
1

3

2
TDEV2:0
70
0
0
ATTDEF
8
0
10
0.000000
20
0.000000
30
0.0
40
3.5
1

3

2
TDEV3:0
70
0
0
ATTDEF
8
0
10
0.000000
20
0.000000
30
0.0
40
3.5
1

3

2
TDEV4:0
70
0
0
ATTDEF
8
0
10
0.000000
20
0.000000
30
0.0
40
3.5
1

3

2
TDEV5:0
70
0
0
ATTDEF
8
0
10
0.000000
20
0.000000
30
0.0
40
3.5
1

3

2
PANE_WIDTH:0
70
0
0
ATTDEF
8
0
10
0.000000
20
0.000000
30
0.0
40
3.5
1

3

2
MIN_VETRO:0
70
0
0
ATTDEF
8
0
10
0.000000
20
0.000000
30
0.0
40
3.5
1

3

2
MAX_VETRO:0
70
0
0
ATTDEF
8
0
10
0.000000
20
0.000000
30
0.0
40
3.5
1

3

2
JX:0
70
0
0
ATTDEF
8
0
10
0.000000
20
0.000000
30
0.0
40
3.5
1

3

2
WX:0
70
0
0
ATTDEF
8
0
10
0.000000
20
0.000000
30
0.0
40
3.5
1

3

2
JY:0
70
0
0
ATTDEF
8
0
10
0.000000
20
0.000000
30
0.0
40
3.5
1

3

2
WY:0
70
0
0
ATTDEF
8
0
10
0.000000
20
0.000000
30
0.0
40
3.5
1

3

2
DESC:U10020 - N10630 - N10630 - V31208
70
0
0
ATTDEF
8
0
10
0.000000
20
0.000000
30
0.0
40
3.5
1

3

2
DENS:0
70
0
0
ATTDEF
8
0
10
0.000000
20
0.000000
30
0.0
40
3.5
1

3

2
TDEV:0
70
0
0
ATTDEF
8
0
10
0.000000
20
0.000000
30
0.0
40
3.5
1

3

2
TDEV2:0
70
0
0
ATTDEF
8
0
10
0.000000
20
0.000000
30
0.0
40
3.5
1

3

2
TDEV3:0
70
0
0
ATTDEF
8
0
10
0.000000
20
0.000000
30
0.0
40
3.5
1

3

2
TDEV4:0
70
0
0
ATTDEF
8
0
10
0.000000
20
0.000000
30
0.0
40
3.5
1

3

2
TDEV5:0
70
0
0
ATTDEF
8
0
10
0.000000
20
0.000000
30
0.0
40
3.5
1

3

2
PANE_WIDTH:0
70
0
0
ATTDEF
8
0
10
0.000000
20
0.000000
30
0.0
40
3.5
1

3

2
MIN_VETRO:0
70
0
0
ATTDEF
8
0
10
0.000000
20
0.000000
30
0.0
40
3.5
1

3

2
MAX_VETRO:0
70
0
0
ATTDEF
8
0
10
0.000000
20
0.000000
30
0.0
40
3.5
1

3

2
JX:0
70
0
0
ATTDEF
8
0
10
0.000000
20
0.000000
30
0.0
40
3.5
1

3

2
WX:0
70
0
0
ATTDEF
8
0
10
0.000000
20
0.000000
30
0.0
40
3.5
1

3

2
JY:0
70
0
0
ATTDEF
8
0
10
0.000000
20
0.000000
30
0.0
40
3.5
1

3

2
WY:0
70
0
0
ENDSEC
0
EOF
