0
SECTION
2
ENTITIES
0
LINE
8
0
10
11.800000
20
37.920801
30
0.0
11
11.800000
21
22.900009
31
0.0
0
ARC
8
0
10
12.100000
20
22.900009
30
0.0
40
0.300000
50
180.000000
51
270.000000
0
LINE
8
0
10
12.100000
20
22.600009
30
0.0
11
14.800000
21
22.600009
31
0.0
0
ARC
8
0
10
14.800000
20
22.300009
30
0.0
40
0.300000
50
0.000000
51
90.000000
0
LINE
8
0
10
15.100000
20
22.300009
30
0.0
11
15.100000
21
21.400009
31
0.0
0
ARC
8
0
10
14.800000
20
21.400009
30
0.0
40
0.300000
50
270.000000
51
0.000000
0
LINE
8
0
10
14.800000
20
21.100009
30
0.0
11
13.500000
21
21.100009
31
0.0
0
ARC
8
0
10
13.500000
20
20.800009
30
0.0
40
0.300000
50
90.000000
51
180.000000
0
LINE
8
0
10
13.200000
20
20.800009
30
0.0
11
13.200000
21
19.400009
31
0.0
0
ARC
8
0
10
12.900000
20
19.400009
30
0.0
40
0.300000
50
270.000000
51
0.000000
0
LINE
8
0
10
12.900000
20
19.100009
30
0.0
11
12.100000
21
19.100009
31
0.0
0
ARC
8
0
10
12.100000
20
18.800009
30
0.0
40
0.300000
50
90.000000
51
180.000000
0
LINE
8
0
10
11.800000
20
18.800009
30
0.0
11
11.800000
21
16.800009
31
0.0
0
ARC
8
0
10
11.500000
20
16.800009
30
0.0
40
0.300000
50
270.000000
51
0.000000
0
LINE
8
0
10
11.500000
20
16.500009
30
0.0
11
1.800000
21
16.500009
31
0.0
0
ARC
8
0
10
1.800000
20
16.200009
30
0.0
40
0.300000
50
90.000000
51
180.000000
0
LINE
8
0
10
1.500000
20
16.200009
30
0.0
11
1.500000
21
6.800009
31
0.0
0
ARC
8
0
10
1.800000
20
6.800009
30
0.0
40
0.300000
50
180.000000
51
270.000000
0
LINE
8
0
10
1.800000
20
6.500009
30
0.0
11
11.400000
21
6.500009
31
0.0
0
ARC
8
0
10
11.400000
20
6.800009
30
0.0
40
0.300000
50
270.000000
51
0.000000
0
LINE
8
0
10
11.700000
20
6.800009
30
0.0
11
11.700000
21
7.700009
31
0.0
0
ARC
8
0
10
12.000000
20
7.700009
30
0.0
40
0.300000
50
90.000000
51
180.000000
0
LINE
8
0
10
12.000000
20
8.000009
30
0.0
11
12.900000
21
8.000009
31
0.0
0
ARC
8
0
10
12.900000
20
7.700009
30
0.0
40
0.300000
50
0.000000
51
90.000000
0
LINE
8
0
10
13.200000
20
7.700009
30
0.0
11
13.200000
21
6.800009
31
0.0
0
ARC
8
0
10
13.500000
20
6.800009
30
0.0
40
0.300000
50
180.000000
51
270.000000
0
LINE
8
0
10
13.500000
20
6.500009
30
0.0
11
35.900000
21
6.500009
31
0.0
0
ARC
8
0
10
35.900000
20
6.800009
30
0.0
40
0.300000
50
270.000000
51
0.000000
0
LINE
8
0
10
36.200000
20
6.800009
30
0.0
11
36.200000
21
7.700009
31
0.0
0
ARC
8
0
10
36.500000
20
7.700009
30
0.0
40
0.300000
50
90.000000
51
180.000000
0
LINE
8
0
10
36.500000
20
8.000009
30
0.0
11
37.400000
21
8.000009
31
0.0
0
ARC
8
0
10
37.400000
20
7.700009
30
0.0
40
0.300000
50
0.000000
51
90.000000
0
LINE
8
0
10
37.700000
20
7.700009
30
0.0
11
37.700000
21
6.800009
31
0.0
0
ARC
8
0
10
38.000000
20
6.800009
30
0.0
40
0.300000
50
180.000000
51
270.000000
0
LINE
8
0
10
38.000000
20
6.500009
30
0.0
11
40.699976
21
6.500009
31
0.0
0
ARC
8
0
10
40.699976
20
6.800009
30
0.0
40
0.300000
50
270.000000
51
0.000000
0
LINE
8
0
10
40.999976
20
6.800009
30
0.0
11
40.999976
21
13.200009
31
0.0
0
ARC
8
0
10
40.699976
20
13.200009
30
0.0
40
0.300000
50
0.000000
51
90.000000
0
LINE
8
0
10
40.699976
20
13.500009
30
0.0
11
37.799976
21
13.500009
31
0.0
0
ARC
8
0
10
37.799976
20
13.800009
30
0.0
40
0.300000
50
180.000000
51
270.000000
0
LINE
8
0
10
37.499976
20
13.800009
30
0.0
11
37.499976
21
18.800009
31
0.0
0
ARC
8
0
10
37.199976
20
18.800009
30
0.0
40
0.300000
50
0.000000
51
90.000000
0
LINE
8
0
10
37.199976
20
19.100009
30
0.0
11
36.499976
21
19.100009
31
0.0
0
ARC
8
0
10
36.499976
20
19.400009
30
0.0
40
0.300000
50
180.000000
51
270.000000
0
LINE
8
0
10
36.199976
20
19.400009
30
0.0
11
36.199976
21
20.800009
31
0.0
0
ARC
8
0
10
35.899976
20
20.800009
30
0.0
40
0.300000
50
0.000000
51
90.000000
0
LINE
8
0
10
35.899976
20
21.100009
30
0.0
11
33.499976
21
21.100009
31
0.0
0
ARC
8
0
10
33.499976
20
21.400009
30
0.0
40
0.300000
50
180.000000
51
270.000000
0
LINE
8
0
10
33.199976
20
21.400009
30
0.0
11
33.199976
21
22.300009
31
0.0
0
ARC
8
0
10
33.499976
20
22.300009
30
0.0
40
0.300000
50
90.000000
51
180.000000
0
LINE
8
0
10
33.499976
20
22.600009
30
0.0
11
37.199976
21
22.600009
31
0.0
0
ARC
8
0
10
37.199976
20
22.900009
30
0.0
40
0.300000
50
270.000000
51
0.000000
0
LINE
8
0
10
37.499976
20
22.900009
30
0.0
11
37.499976
21
27.200009
31
0.0
0
ARC
8
0
10
37.199976
20
27.200009
30
0.0
40
0.300000
50
0.000000
51
90.000000
0
LINE
8
0
10
37.199976
20
27.500009
30
0.0
11
34.174265
21
27.500009
31
0.0
0
ARC
8
0
10
34.174265
20
27.200009
30
0.0
40
0.300000
50
90.000000
51
135.000000
0
LINE
8
0
10
33.962132
20
27.412141
30
0.0
11
33.637868
21
27.087877
31
0.0
0
ARC
8
0
10
33.425736
20
27.300009
30
0.0
40
0.300000
50
270.000000
51
315.000000
0
LINE
8
0
10
33.425736
20
27.000009
30
0.0
11
29.174265
21
27.000009
31
0.0
0
ARC
8
0
10
29.174265
20
27.300009
30
0.0
40
0.300000
50
225.000000
51
270.000000
0
LINE
8
0
10
28.962132
20
27.087877
30
0.0
11
28.637868
21
27.412141
31
0.0
0
ARC
8
0
10
28.425736
20
27.200009
30
0.0
40
0.300000
50
45.000000
51
90.000000
0
LINE
8
0
10
28.425736
20
27.500009
30
0.0
11
24.600000
21
27.500009
31
0.0
0
ARC
8
0
10
24.600000
20
28.500009
30
0.0
40
1.000000
50
180.000000
51
270.000000
0
LINE
8
0
10
23.600000
20
28.500009
30
0.0
11
23.600000
21
31.375637
31
0.0
0
ARC
8
0
10
23.300000
20
31.375637
30
0.0
40
0.300000
50
0.000000
51
30.000000
0
LINE
8
0
10
23.559808
20
31.525637
30
0.0
11
22.708579
21
33.000009
31
0.0
0
ARC
8
0
10
24.440630
20
34.000009
30
0.0
40
2.000000
50
122.643077
51
210.000000
0
ARC
8
0
10
23.200000
20
35.936717
30
0.0
40
0.300000
50
302.643077
51
0.000000
0
LINE
8
0
10
23.500000
20
35.936717
30
0.0
11
23.500000
21
37.700009
31
0.0
0
ARC
8
0
10
23.200000
20
37.700009
30
0.0
40
0.300000
50
0.000000
51
90.000000
0
LINE
8
0
10
23.200000
20
38.000009
30
0.0
11
21.000000
21
38.000009
31
0.0
0
ARC
8
0
10
21.000000
20
38.500009
30
0.0
40
0.500000
50
180.000000
51
270.000000
0
LINE
8
0
10
20.500000
20
38.500009
30
0.0
11
20.500000
21
41.600009
31
0.0
0
ARC
8
0
10
20.200000
20
41.600009
30
0.0
40
0.300000
50
0.000000
51
90.000000
0
LINE
8
0
10
20.200000
20
41.900009
30
0.0
11
10.600000
21
41.900009
31
0.0
0
ARC
8
0
10
10.600000
20
41.600009
30
0.0
40
0.300000
50
90.000000
51
180.000000
0
LINE
8
0
10
10.300000
20
41.600009
30
0.0
11
10.300000
21
38.783121
31
0.0
0
ARC
8
0
10
10.600000
20
38.783121
30
0.0
40
0.300000
50
180.000000
51
255.000000
0
LINE
8
0
10
10.522355
20
38.493344
30
0.0
11
11.577646
21
38.210579
31
0.0
0
ARC
8
0
10
11.500000
20
37.920801
30
0.0
40
0.300000
50
0.000000
51
75.000000
0
ARC
8
0
10
41.800000
20
40.175745
30
0.0
40
0.300000
50
0.000000
51
45.000000
0
LINE
8
0
10
42.100000
20
40.175745
30
0.0
11
42.100000
21
40.300009
31
0.0
0
LINE
8
0
10
42.100000
20
40.300009
30
0.0
11
42.012132
21
40.387877
31
0.0
0
LINE
8
0
10
42.012132
20
40.387877
30
0.0
11
41.787868
21
40.612141
31
0.0
0
ARC
8
0
10
41.575736
20
40.400009
30
0.0
40
0.300000
50
45.000000
51
90.000000
0
LINE
8
0
10
41.575736
20
40.700009
30
0.0
11
40.900000
21
40.700009
31
0.0
0
ARC
8
0
10
40.900000
20
40.400009
30
0.0
40
0.300000
50
90.000000
51
180.000000
0
LINE
8
0
10
40.600000
20
40.400009
30
0.0
11
40.600000
21
39.800009
31
0.0
0
ARC
8
0
10
40.300000
20
39.800009
30
0.0
40
0.300000
50
270.000000
51
0.000000
0
LINE
8
0
10
40.300000
20
39.500009
30
0.0
11
37.889707
21
39.500009
31
0.0
0
ARC
8
0
10
37.889707
20
39.200009
30
0.0
40
0.300000
50
90.000000
51
178.000000
0
LINE
8
0
10
37.589890
20
39.210479
30
0.0
11
37.443466
21
35.017459
31
0.0
0
ARC
8
0
10
37.943162
20
35.000009
30
0.0
40
0.500000
50
178.000000
51
270.000000
0
LINE
8
0
10
37.943162
20
34.500009
30
0.0
11
38.159371
21
34.500009
31
0.0
0
ARC
8
0
10
38.159371
20
34.000009
30
0.0
40
0.500000
50
330.000000
51
90.000000
0
LINE
8
0
10
38.592384
20
33.750009
30
0.0
11
37.566988
21
31.973971
31
0.0
0
ARC
8
0
10
38.000000
20
31.723971
30
0.0
40
0.500000
50
150.000000
51
180.000000
0
LINE
8
0
10
37.500000
20
31.723971
30
0.0
11
37.500000
21
29.300009
31
0.0
0
ARC
8
0
10
37.200000
20
29.300009
30
0.0
40
0.300000
50
270.000000
51
0.000000
0
LINE
8
0
10
37.200000
20
29.000009
30
0.0
11
31.600000
21
29.000009
31
0.0
0
LINE
8
0
10
31.600000
20
29.000009
30
0.0
11
31.300000
21
28.700009
31
0.0
0
LINE
8
0
10
31.300000
20
28.700009
30
0.0
11
31.000000
21
29.000009
31
0.0
0
LINE
8
0
10
31.000000
20
29.000009
30
0.0
11
25.400000
21
29.000009
31
0.0
0
ARC
8
0
10
25.400000
20
29.300009
30
0.0
40
0.300000
50
180.000000
51
270.000000
0
LINE
8
0
10
25.100000
20
29.300009
30
0.0
11
25.100000
21
31.723971
31
0.0
0
ARC
8
0
10
24.600000
20
31.723971
30
0.0
40
0.500000
50
0.000000
51
30.000000
0
LINE
8
0
10
25.033013
20
31.973971
30
0.0
11
24.007617
21
33.750009
31
0.0
0
ARC
8
0
10
24.440630
20
34.000009
30
0.0
40
0.500000
50
90.000000
51
210.000000
0
LINE
8
0
10
24.440630
20
34.500009
30
0.0
11
24.656839
21
34.500009
31
0.0
0
ARC
8
0
10
24.656839
20
35.000009
30
0.0
40
0.500000
50
270.000000
51
2.000000
0
LINE
8
0
10
25.156535
20
35.017459
30
0.0
11
25.010111
21
39.210479
31
0.0
0
ARC
8
0
10
24.710294
20
39.200009
30
0.0
40
0.300000
50
2.000000
51
90.000000
0
LINE
8
0
10
24.710294
20
39.500009
30
0.0
11
22.300000
21
39.500009
31
0.0
0
ARC
8
0
10
22.300000
20
39.800009
30
0.0
40
0.300000
50
180.000000
51
270.000000
0
LINE
8
0
10
22.000000
20
39.800009
30
0.0
11
22.000000
21
43.100009
31
0.0
0
ARC
8
0
10
21.700000
20
43.100009
30
0.0
40
0.300000
50
0.000000
51
90.000000
0
LINE
8
0
10
21.700000
20
43.400009
30
0.0
11
9.800000
21
43.400009
31
0.0
0
ARC
8
0
10
9.800000
20
42.400009
30
0.0
40
1.000000
50
90.000000
51
180.000000
0
LINE
8
0
10
8.800000
20
42.400009
30
0.0
11
8.800000
21
37.632131
31
0.0
0
ARC
8
0
10
9.100000
20
37.632131
30
0.0
40
0.300000
50
180.000000
51
255.000000
0
LINE
8
0
10
9.022355
20
37.342353
30
0.0
11
10.077646
21
37.059589
31
0.0
0
ARC
8
0
10
10.000000
20
36.769811
30
0.0
40
0.300000
50
0.000000
51
75.000000
0
LINE
8
0
10
10.300000
20
36.769811
30
0.0
11
10.300000
21
18.300009
31
0.0
0
ARC
8
0
10
10.000000
20
18.300009
30
0.0
40
0.300000
50
270.000000
51
0.000000
0
LINE
8
0
10
10.000000
20
18.000009
30
0.0
11
0.500000
21
18.000009
31
0.0
0
ARC
8
0
10
0.500000
20
17.500009
30
0.0
40
0.500000
50
90.000000
51
180.000000
0
LINE
8
0
10
0.000000
20
17.500009
30
0.0
11
0.000000
21
0.300009
31
0.0
0
ARC
8
0
10
0.300000
20
0.300009
30
0.0
40
0.300000
50
180.000000
51
270.000000
0
LINE
8
0
10
0.300000
20
0.000009
30
0.0
11
3.530143
21
0.000009
31
0.0
0
ARC
8
0
10
3.530143
20
0.300009
30
0.0
40
0.300000
50
270.000000
51
329.036243
0
LINE
8
0
10
3.787391
20
0.145660
30
0.0
11
4.257248
21
0.928755
31
0.0
0
ARC
8
0
10
4.000000
20
1.083104
30
0.0
40
0.300000
50
329.036243
51
0.000000
0
LINE
8
0
10
4.300000
20
1.083104
30
0.0
11
4.300000
21
1.200009
31
0.0
0
ARC
8
0
10
4.000000
20
1.200009
30
0.0
40
0.300000
50
0.000000
51
90.000000
0
LINE
8
0
10
4.000000
20
1.500009
30
0.0
11
2.100000
21
1.500009
31
0.0
0
ARC
8
0
10
2.100000
20
1.800009
30
0.0
40
0.300000
50
180.000000
51
270.000000
0
LINE
8
0
10
1.800000
20
1.800009
30
0.0
11
1.800000
21
4.700009
31
0.0
0
ARC
8
0
10
2.100000
20
4.700009
30
0.0
40
0.300000
50
90.000000
51
180.000000
0
LINE
8
0
10
2.100000
20
5.000009
30
0.0
11
16.000000
21
5.000009
31
0.0
0
ARC
8
0
10
16.000000
20
4.700009
30
0.0
40
0.300000
50
0.000000
51
90.000000
0
LINE
8
0
10
16.300000
20
4.700009
30
0.0
11
16.300000
21
1.800009
31
0.0
0
ARC
8
0
10
16.000000
20
1.800009
30
0.0
40
0.300000
50
270.000000
51
0.000000
0
LINE
8
0
10
16.000000
20
1.500009
30
0.0
11
14.600000
21
1.500009
31
0.0
0
ARC
8
0
10
14.600000
20
1.200009
30
0.0
40
0.300000
50
90.000000
51
180.000000
0
LINE
8
0
10
14.300000
20
1.200009
30
0.0
11
14.300000
21
1.083104
31
0.0
0
ARC
8
0
10
14.600000
20
1.083104
30
0.0
40
0.300000
50
180.000000
51
210.963756
0
LINE
8
0
10
14.342753
20
0.928755
30
0.0
11
14.812610
21
0.145660
31
0.0
0
ARC
8
0
10
15.069858
20
0.300009
30
0.0
40
0.300000
50
210.963756
51
270.000000
0
LINE
8
0
10
15.069858
20
0.000009
30
0.0
11
17.500000
21
0.000009
31
0.0
0
ARC
8
0
10
17.500000
20
0.300009
30
0.0
40
0.300000
50
270.000000
51
0.000000
0
LINE
8
0
10
17.800000
20
0.300009
30
0.0
11
17.800000
21
4.700009
31
0.0
0
ARC
8
0
10
18.100000
20
4.700009
30
0.0
40
0.300000
50
90.000000
51
180.000000
0
LINE
8
0
10
18.100000
20
5.000009
30
0.0
11
40.700000
21
5.000009
31
0.0
0
ARC
8
0
10
40.700000
20
4.700009
30
0.0
40
0.300000
50
0.000000
51
90.000000
0
LINE
8
0
10
41.000000
20
4.700009
30
0.0
11
41.000000
21
0.300009
31
0.0
0
ARC
8
0
10
41.300000
20
0.300009
30
0.0
40
0.300000
50
180.000000
51
270.000000
0
LINE
8
0
10
41.300000
20
0.000009
30
0.0
11
42.767916
21
0.000009
31
0.0
0
ARC
8
0
10
42.767916
20
0.300009
30
0.0
40
0.300000
50
270.000000
51
289.778171
0
LINE
8
0
10
42.869430
20
0.017706
30
0.0
11
44.171293
21
0.485845
31
0.0
0
ARC
8
0
10
44.250812
20
0.264708
30
0.0
40
0.235000
50
24.000000
51
109.778171
0
ARC
8
0
10
44.686746
20
0.441121
30
0.0
40
0.235000
50
204.000000
51
270.000000
0
LINE
8
0
10
44.685190
20
0.206127
30
0.0
11
46.264118
21
0.195669
31
0.0
0
ARC
8
0
10
46.266105
20
0.495663
30
0.0
40
0.300000
50
270.000000
51
24.620541
0
LINE
8
0
10
46.538831
20
0.620645
30
0.0
11
45.590181
21
2.726160
31
0.0
0
ARC
8
0
10
45.316662
20
2.602925
30
0.0
40
0.300000
50
24.254172
51
64.620541
0
LINE
8
0
10
45.445245
20
2.873971
30
0.0
11
44.937822
21
3.114690
31
0.0
0
ARC
8
0
10
44.852100
20
2.933993
30
0.0
40
0.200000
50
64.620541
51
184.620541
0
LINE
8
0
10
44.652750
20
2.917881
30
0.0
11
44.662052
21
2.802787
31
0.0
0
ARC
8
0
10
44.363027
20
2.778620
30
0.0
40
0.300000
50
304.620541
51
4.620541
0
LINE
8
0
10
44.533468
20
2.531740
30
0.0
11
42.904712
21
1.407274
31
0.0
0
LINE
8
0
10
42.904712
20
1.407274
30
0.0
11
42.722003
21
1.325927
31
0.0
0
ARC
8
0
10
42.600000
20
1.600009
30
0.0
40
0.300009
50
131.812671
51
293.995287
0
ARC
8
0
10
42.199976
20
2.047213
30
0.0
40
0.300000
50
311.812671
51
0.000000
0
LINE
8
0
10
42.499976
20
2.047213
30
0.0
11
42.499976
21
5.900000
31
0.0
0
ARC
8
0
10
42.799976
20
5.900000
30
0.0
40
0.300000
50
90.000000
51
180.000000
0
LINE
8
0
10
42.799976
20
6.200000
30
0.0
11
43.021169
21
6.200000
31
0.0
0
ARC
8
0
10
43.021169
20
5.900000
30
0.0
40
0.300000
50
58.600000
51
90.000000
0
LINE
8
0
10
43.177472
20
6.156065
30
0.0
11
44.695774
21
5.229289
31
0.0
0
ARC
8
0
10
44.799976
20
5.400000
30
0.0
40
0.200000
50
238.600000
51
0.000000
0
LINE
8
0
10
44.999976
20
5.400000
30
0.0
11
44.999976
21
9.600000
31
0.0
0
ARC
8
0
10
44.799976
20
9.600000
30
0.0
40
0.200000
50
0.000000
51
121.400000
0
LINE
8
0
10
44.695774
20
9.770710
30
0.0
11
43.177472
21
8.843934
31
0.0
0
ARC
8
0
10
43.021169
20
9.100000
30
0.0
40
0.300000
50
270.000000
51
301.400000
0
LINE
8
0
10
43.021169
20
8.800000
30
0.0
11
42.799976
21
8.800000
31
0.0
0
ARC
8
0
10
42.799976
20
9.100000
30
0.0
40
0.300000
50
180.000000
51
270.000000
0
LINE
8
0
10
42.499976
20
9.100000
30
0.0
11
42.499976
21
12.952786
31
0.0
0
ARC
8
0
10
42.199976
20
12.952786
30
0.0
40
0.300000
50
0.000000
51
48.187329
0
ARC
8
0
10
42.600000
20
13.399990
30
0.0
40
0.300009
50
66.004713
51
228.187329
0
LINE
8
0
10
42.722003
20
13.674072
30
0.0
11
42.904712
21
13.592725
31
0.0
0
LINE
8
0
10
42.904712
20
13.592725
30
0.0
11
44.533468
21
12.468259
31
0.0
0
ARC
8
0
10
44.363027
20
12.221379
30
0.0
40
0.300000
50
355.379459
51
55.379459
0
LINE
8
0
10
44.662052
20
12.197212
30
0.0
11
44.652750
21
12.082118
31
0.0
0
ARC
8
0
10
44.852100
20
12.066006
30
0.0
40
0.200000
50
175.379459
51
295.379459
0
LINE
8
0
10
44.937822
20
11.885309
30
0.0
11
45.445245
21
12.126028
31
0.0
0
ARC
8
0
10
45.316662
20
12.397074
30
0.0
40
0.300000
50
295.379459
51
335.745828
0
LINE
8
0
10
45.590181
20
12.273839
30
0.0
11
46.538831
21
14.379354
31
0.0
0
ARC
8
0
10
46.266105
20
14.504336
30
0.0
40
0.300000
50
335.379459
51
90.000000
0
LINE
8
0
10
46.264118
20
14.804330
30
0.0
11
44.685190
21
14.793872
31
0.0
0
ARC
8
0
10
44.686746
20
14.558878
30
0.0
40
0.235000
50
90.000000
51
156.000000
0
ARC
8
0
10
44.250812
20
14.735291
30
0.0
40
0.235000
50
250.221829
51
336.000000
0
LINE
8
0
10
44.171293
20
14.514154
30
0.0
11
42.869378
21
14.982312
31
0.0
0
ARC
8
0
10
42.767864
20
14.700009
30
0.0
40
0.300000
50
70.221829
51
90.000000
0
LINE
8
0
10
42.767864
20
15.000009
30
0.0
11
39.299976
21
15.000009
31
0.0
0
ARC
8
0
10
39.299976
20
15.300009
30
0.0
40
0.300000
50
180.000000
51
270.000000
0
LINE
8
0
10
38.999976
20
15.300009
30
0.0
11
38.999976
21
20.800009
31
0.0
0
ARC
8
0
10
39.299976
20
20.800009
30
0.0
40
0.300000
50
90.000000
51
180.000000
0
LINE
8
0
10
39.299976
20
21.100009
30
0.0
11
41.899976
21
21.100009
31
0.0
0
ARC
8
0
10
41.899976
20
21.400009
30
0.0
40
0.300000
50
270.000000
51
0.000000
0
LINE
8
0
10
42.199976
20
21.400009
30
0.0
11
42.199976
21
22.300009
31
0.0
0
ARC
8
0
10
41.899976
20
22.300009
30
0.0
40
0.300000
50
0.000000
51
90.000000
0
LINE
8
0
10
41.899976
20
22.600009
30
0.0
11
39.299976
21
22.600009
31
0.0
0
ARC
8
0
10
39.299976
20
22.900009
30
0.0
40
0.300000
50
180.000000
51
270.000000
0
LINE
8
0
10
38.999976
20
22.900009
30
0.0
11
38.999976
21
31.375594
31
0.0
0
ARC
8
0
10
39.299976
20
31.375594
30
0.0
40
0.300000
50
150.000000
51
180.000000
0
LINE
8
0
10
39.040168
20
31.525594
30
0.0
11
39.891422
21
33.000009
31
0.0
0
ARC
8
0
10
38.159371
20
34.000009
30
0.0
40
2.000000
50
330.000000
51
57.356923
0
ARC
8
0
10
39.400000
20
35.936717
30
0.0
40
0.300000
50
180.000000
51
237.356923
0
LINE
8
0
10
39.100000
20
35.936717
30
0.0
11
39.100000
21
37.700009
31
0.0
0
ARC
8
0
10
39.400000
20
37.700009
30
0.0
40
0.300000
50
90.000000
51
180.000000
0
LINE
8
0
10
39.400000
20
38.000009
30
0.0
11
41.800000
21
38.000009
31
0.0
0
ARC
8
0
10
41.800000
20
38.300009
30
0.0
40
0.300000
50
270.000000
51
0.000000
0
LINE
8
0
10
42.100000
20
38.300009
30
0.0
11
42.100000
21
40.175745
31
0.0
0
LINE
8
0
10
102.500836
20
27.200000
30
0.0
11
102.500836
21
15.300000
31
0.0
0
ARC
8
0
10
102.800836
20
15.300000
30
0.0
40
0.300000
50
180.000000
51
270.000000
0
LINE
8
0
10
102.800836
20
15.000000
30
0.0
11
114.600836
21
15.000000
31
0.0
0
ARC
8
0
10
114.600836
20
15.300000
30
0.0
40
0.300000
50
270.000000
51
0.000000
0
LINE
8
0
10
114.900836
20
15.300000
30
0.0
11
114.900836
21
27.200000
31
0.0
0
ARC
8
0
10
114.600836
20
27.200000
30
0.0
40
0.300000
50
0.000000
51
90.000000
0
LINE
8
0
10
114.600836
20
27.500000
30
0.0
11
102.800836
21
27.500000
31
0.0
0
ARC
8
0
10
102.800836
20
27.200000
30
0.0
40
0.300000
50
90.000000
51
180.000000
0
LINE
8
0
10
97.231539
20
0.000000
30
0.0
11
99.001251
21
0.000000
31
0.0
0
ARC
8
0
10
99.001251
20
0.300000
30
0.0
40
0.300000
50
270.000000
51
0.000000
0
LINE
8
0
10
99.301251
20
0.300000
30
0.0
11
99.301251
21
2.500000
31
0.0
0
ARC
8
0
10
99.801251
20
2.500000
30
0.0
40
0.500000
50
90.000000
51
180.000000
0
LINE
8
0
10
99.801251
20
3.000000
30
0.0
11
102.571626
21
3.000000
31
0.0
0
ARC
8
0
10
102.571626
20
2.500000
30
0.0
40
0.500000
50
0.000000
51
90.000000
0
LINE
8
0
10
103.071626
20
2.500000
30
0.0
11
103.071626
21
1.400000
31
0.0
0
ARC
8
0
10
103.571626
20
1.400000
30
0.0
40
0.500000
50
180.000000
51
270.000000
0
LINE
8
0
10
103.571626
20
0.900000
30
0.0
11
104.526628
21
0.900000
31
0.0
0
ARC
8
0
10
104.526628
20
1.400000
30
0.0
40
0.500000
50
270.000000
51
315.000000
0
LINE
8
0
10
104.880182
20
1.046446
30
0.0
11
106.687288
21
2.853553
31
0.0
0
ARC
8
0
10
107.040842
20
2.500000
30
0.0
40
0.500000
50
90.000000
51
135.000000
0
LINE
8
0
10
107.040842
20
3.000000
30
0.0
11
107.986438
21
3.000000
31
0.0
0
ARC
8
0
10
107.986438
20
3.300000
30
0.0
40
0.300000
50
270.000000
51
300.000000
0
LINE
8
0
10
108.136438
20
3.040192
30
0.0
11
108.436438
21
3.213397
31
0.0
0
ARC
8
0
10
108.586438
20
2.953589
30
0.0
40
0.300000
50
60.000000
51
120.000000
0
LINE
8
0
10
108.736438
20
3.213397
30
0.0
11
109.036438
21
3.040192
31
0.0
0
ARC
8
0
10
109.186438
20
3.300000
30
0.0
40
0.300000
50
240.000000
51
270.000000
0
LINE
8
0
10
109.186438
20
3.000000
30
0.0
11
110.132035
21
3.000000
31
0.0
0
ARC
8
0
10
110.132035
20
2.500000
30
0.0
40
0.500000
50
45.000000
51
90.000000
0
LINE
8
0
10
110.485588
20
2.853553
30
0.0
11
112.292695
21
1.046446
31
0.0
0
ARC
8
0
10
112.646249
20
1.400000
30
0.0
40
0.500000
50
225.000000
51
270.000000
0
LINE
8
0
10
112.646249
20
0.900000
30
0.0
11
113.801251
21
0.900000
31
0.0
0
ARC
8
0
10
113.801251
20
1.200000
30
0.0
40
0.300000
50
270.000000
51
0.000000
0
LINE
8
0
10
114.101251
20
1.200000
30
0.0
11
114.101251
21
2.900000
31
0.0
0
ARC
8
0
10
114.401251
20
2.900000
30
0.0
40
0.300000
50
90.000000
51
180.000000
0
LINE
8
0
10
114.401251
20
3.200000
30
0.0
11
116.501251
21
3.200000
31
0.0
0
ARC
8
0
10
116.501251
20
3.700000
30
0.0
40
0.500000
50
270.000000
51
0.000000
0
LINE
8
0
10
117.001251
20
3.700000
30
0.0
11
117.001251
21
4.200000
31
0.0
0
ARC
8
0
10
116.501251
20
4.200000
30
0.0
40
0.500000
50
0.000000
51
90.000000
0
LINE
8
0
10
116.501251
20
4.700000
30
0.0
11
101.235226
21
4.700000
31
0.0
0
ARC
8
0
10
101.235226
20
5.200000
30
0.0
40
0.500000
50
240.000000
51
270.000000
0
LINE
8
0
10
100.985226
20
4.766987
30
0.0
11
99.251251
21
5.768098
31
0.0
0
ARC
8
0
10
99.401251
20
6.027905
30
0.0
40
0.300000
50
180.000000
51
240.000000
0
LINE
8
0
10
99.101251
20
6.027905
30
0.0
11
99.101251
21
12.144313
31
0.0
0
ARC
8
0
10
99.401251
20
12.144313
30
0.0
40
0.300000
50
120.000000
51
180.000000
0
LINE
8
0
10
99.251251
20
12.404121
30
0.0
11
101.048851
21
13.433857
31
0.0
0
ARC
8
0
10
101.297381
20
13.000000
30
0.0
40
0.500000
50
90.000000
51
119.805797
0
LINE
8
0
10
101.297381
20
13.500000
30
0.0
11
115.900836
21
13.500000
31
0.0
0
ARC
8
0
10
115.900836
20
14.000000
30
0.0
40
0.500000
50
270.000000
51
0.000000
0
LINE
8
0
10
116.400836
20
14.000000
30
0.0
11
116.400836
21
20.800000
31
0.0
0
ARC
8
0
10
116.700836
20
20.800000
30
0.0
40
0.300000
50
90.000000
51
180.000000
0
LINE
8
0
10
116.700836
20
21.100000
30
0.0
11
119.300836
21
21.100000
31
0.0
0
ARC
8
0
10
119.300836
20
21.400000
30
0.0
40
0.300000
50
270.000000
51
0.000000
0
LINE
8
0
10
119.600836
20
21.400000
30
0.0
11
119.600836
21
22.300000
31
0.0
0
ARC
8
0
10
119.300836
20
22.300000
30
0.0
40
0.300000
50
0.000000
51
90.000000
0
LINE
8
0
10
119.300836
20
22.600000
30
0.0
11
116.700836
21
22.600000
31
0.0
0
ARC
8
0
10
116.700836
20
22.900000
30
0.0
40
0.300000
50
180.000000
51
270.000000
0
LINE
8
0
10
116.400836
20
22.900000
30
0.0
11
116.400811
21
31.375585
31
0.0
0
ARC
8
0
10
116.700811
20
31.375585
30
0.0
40
0.300000
50
150.000000
51
180.000000
0
LINE
8
0
10
116.441004
20
31.525585
30
0.0
11
117.292257
21
33.000000
31
0.0
0
ARC
8
0
10
115.560207
20
34.000000
30
0.0
40
2.000000
50
330.000000
51
57.356923
0
ARC
8
0
10
116.800836
20
35.936708
30
0.0
40
0.300000
50
180.000000
51
237.356923
0
LINE
8
0
10
116.500836
20
35.936708
30
0.0
11
116.500836
21
37.700000
31
0.0
0
ARC
8
0
10
116.800836
20
37.700000
30
0.0
40
0.300000
50
90.000000
51
180.000000
0
LINE
8
0
10
116.800836
20
38.000000
30
0.0
11
119.200836
21
38.000000
31
0.0
0
ARC
8
0
10
119.200836
20
38.300000
30
0.0
40
0.300000
50
270.000000
51
0.000000
0
LINE
8
0
10
119.500836
20
38.300000
30
0.0
11
119.500836
21
40.175735
31
0.0
0
ARC
8
0
10
119.200836
20
40.175735
30
0.0
40
0.300000
50
0.000000
51
45.000000
0
LINE
8
0
10
119.412968
20
40.387867
30
0.0
11
119.188704
21
40.612132
31
0.0
0
ARC
8
0
10
118.976572
20
40.400000
30
0.0
40
0.300000
50
45.000000
51
90.000000
0
LINE
8
0
10
118.976572
20
40.700000
30
0.0
11
118.300836
21
40.700000
31
0.0
0
ARC
8
0
10
118.300836
20
40.400000
30
0.0
40
0.300000
50
90.000000
51
180.000000
0
LINE
8
0
10
118.000836
20
40.400000
30
0.0
11
118.000836
21
39.800000
31
0.0
0
ARC
8
0
10
117.700836
20
39.800000
30
0.0
40
0.300000
50
270.000000
51
0.000000
0
LINE
8
0
10
117.700836
20
39.500000
30
0.0
11
115.290543
21
39.500000
31
0.0
0
ARC
8
0
10
115.290543
20
39.200000
30
0.0
40
0.300000
50
90.000000
51
178.000000
0
LINE
8
0
10
114.990725
20
39.210469
30
0.0
11
114.844302
21
35.017449
31
0.0
0
ARC
8
0
10
115.343997
20
35.000000
30
0.0
40
0.500000
50
178.000000
51
270.000000
0
LINE
8
0
10
115.343997
20
34.500000
30
0.0
11
115.560207
21
34.500000
31
0.0
0
ARC
8
0
10
115.560207
20
34.000000
30
0.0
40
0.500000
50
330.000000
51
90.000000
0
LINE
8
0
10
115.993219
20
33.750000
30
0.0
11
114.967823
21
31.973961
31
0.0
0
ARC
8
0
10
115.400836
20
31.723961
30
0.0
40
0.500000
50
150.000000
51
180.000000
0
LINE
8
0
10
114.900836
20
31.723961
30
0.0
11
114.900836
21
29.300000
31
0.0
0
ARC
8
0
10
114.600836
20
29.300000
30
0.0
40
0.300000
50
270.000000
51
0.000000
0
LINE
8
0
10
114.600836
20
29.000000
30
0.0
11
102.800836
21
29.000000
31
0.0
0
ARC
8
0
10
102.800836
20
29.300000
30
0.0
40
0.300000
50
180.000000
51
270.000000
0
LINE
8
0
10
102.500836
20
29.300000
30
0.0
11
102.500836
21
31.723961
31
0.0
0
ARC
8
0
10
102.000836
20
31.723961
30
0.0
40
0.500000
50
0.000000
51
30.000000
0
LINE
8
0
10
102.433849
20
31.973961
30
0.0
11
101.408452
21
33.750000
31
0.0
0
ARC
8
0
10
101.841465
20
34.000000
30
0.0
40
0.500000
50
90.000000
51
210.000000
0
LINE
8
0
10
101.841465
20
34.500000
30
0.0
11
102.057675
21
34.500000
31
0.0
0
ARC
8
0
10
102.057675
20
35.000000
30
0.0
40
0.500000
50
270.000000
51
2.000000
0
LINE
8
0
10
102.557370
20
35.017449
30
0.0
11
102.410947
21
39.210469
31
0.0
0
ARC
8
0
10
102.111129
20
39.200000
30
0.0
40
0.300000
50
2.000000
51
90.000000
0
LINE
8
0
10
102.111129
20
39.500000
30
0.0
11
99.700836
21
39.500000
31
0.0
0
ARC
8
0
10
99.700836
20
39.800000
30
0.0
40
0.300000
50
180.000000
51
270.000000
0
LINE
8
0
10
99.400836
20
39.800000
30
0.0
11
99.400836
21
40.400000
31
0.0
0
ARC
8
0
10
99.100836
20
40.400000
30
0.0
40
0.300000
50
0.000000
51
90.000000
0
LINE
8
0
10
99.100836
20
40.700000
30
0.0
11
98.425100
21
40.700000
31
0.0
0
ARC
8
0
10
98.425100
20
40.400000
30
0.0
40
0.300000
50
90.000000
51
135.000000
0
LINE
8
0
10
98.212968
20
40.612132
30
0.0
11
97.988704
21
40.387867
31
0.0
0
ARC
8
0
10
98.200836
20
40.175735
30
0.0
40
0.300000
50
135.000000
51
180.000000
0
LINE
8
0
10
97.900836
20
40.175735
30
0.0
11
97.900836
21
38.300000
31
0.0
0
ARC
8
0
10
98.200836
20
38.300000
30
0.0
40
0.300000
50
180.000000
51
270.000000
0
LINE
8
0
10
98.200836
20
38.000000
30
0.0
11
100.600836
21
38.000000
31
0.0
0
ARC
8
0
10
100.600836
20
37.700000
30
0.0
40
0.300000
50
0.000000
51
90.000000
0
LINE
8
0
10
100.900836
20
37.700000
30
0.0
11
100.900836
21
35.936708
31
0.0
0
ARC
8
0
10
100.600836
20
35.936708
30
0.0
40
0.300000
50
302.643077
51
0.000000
0
ARC
8
0
10
101.841465
20
34.000000
30
0.0
40
2.000000
50
122.643077
51
210.000000
0
LINE
8
0
10
100.109414
20
33.000000
30
0.0
11
100.960668
21
31.525585
31
0.0
0
ARC
8
0
10
100.700861
20
31.375585
30
0.0
40
0.300000
50
0.000000
51
30.000000
0
LINE
8
0
10
101.000861
20
31.375585
30
0.0
11
101.000836
21
22.900000
31
0.0
0
ARC
8
0
10
100.700836
20
22.900000
30
0.0
40
0.300000
50
270.000000
51
0.000000
0
LINE
8
0
10
100.700836
20
22.600000
30
0.0
11
98.100836
21
22.600000
31
0.0
0
ARC
8
0
10
98.100836
20
22.300000
30
0.0
40
0.300000
50
90.000000
51
180.000000
0
LINE
8
0
10
97.800836
20
22.300000
30
0.0
11
97.800836
21
21.400000
31
0.0
0
ARC
8
0
10
98.100836
20
21.400000
30
0.0
40
0.300000
50
180.000000
51
270.000000
0
LINE
8
0
10
98.100836
20
21.100000
30
0.0
11
100.700836
21
21.100000
31
0.0
0
ARC
8
0
10
100.700836
20
20.800000
30
0.0
40
0.300000
50
0.000000
51
90.000000
0
LINE
8
0
10
101.000836
20
20.800000
30
0.0
11
101.000836
21
15.300000
31
0.0
0
ARC
8
0
10
100.700836
20
15.300000
30
0.0
40
0.300000
50
270.000000
51
0.000000
0
LINE
8
0
10
100.700836
20
15.000000
30
0.0
11
97.232062
21
15.000000
31
0.0
0
ARC
8
0
10
97.232062
20
14.700000
30
0.0
40
0.300000
50
90.000000
51
109.778171
0
LINE
8
0
10
97.130548
20
14.982302
30
0.0
11
95.828659
21
14.514154
31
0.0
0
ARC
8
0
10
95.749140
20
14.735291
30
0.0
40
0.235000
50
204.000000
51
289.778171
0
ARC
8
0
10
95.313205
20
14.558878
30
0.0
40
0.235000
50
24.000000
51
90.000000
0
LINE
8
0
10
95.314761
20
14.793872
30
0.0
11
93.735833
21
14.804330
31
0.0
0
ARC
8
0
10
93.733846
20
14.504336
30
0.0
40
0.300000
50
90.000000
51
204.620541
0
LINE
8
0
10
93.461120
20
14.379354
30
0.0
11
94.409770
21
12.273839
31
0.0
0
ARC
8
0
10
94.683290
20
12.397074
30
0.0
40
0.300000
50
204.254172
51
244.620541
0
LINE
8
0
10
94.554706
20
12.126028
30
0.0
11
95.062129
21
11.885309
31
0.0
0
ARC
8
0
10
95.147852
20
12.066006
30
0.0
40
0.200000
50
244.620541
51
4.620541
0
LINE
8
0
10
95.347202
20
12.082118
30
0.0
11
95.337900
21
12.197212
31
0.0
0
ARC
8
0
10
95.636925
20
12.221379
30
0.0
40
0.300000
50
124.620541
51
184.620541
0
LINE
8
0
10
95.466483
20
12.468259
30
0.0
11
97.095240
21
13.592725
31
0.0
0
LINE
8
0
10
97.095240
20
13.592725
30
0.0
11
97.277949
21
13.674072
31
0.0
0
ARC
8
0
10
97.399951
20
13.399990
30
0.0
40
0.300009
50
311.812671
51
113.995287
0
ARC
8
0
10
97.799976
20
12.952786
30
0.0
40
0.300000
50
131.812671
51
180.000000
0
LINE
8
0
10
97.499976
20
12.952786
30
0.0
11
97.499976
21
9.100000
31
0.0
0
ARC
8
0
10
97.199976
20
9.100000
30
0.0
40
0.300000
50
270.000000
51
0.000000
0
LINE
8
0
10
97.199976
20
8.800000
30
0.0
11
96.978782
21
8.800000
31
0.0
0
ARC
8
0
10
96.978782
20
9.100000
30
0.0
40
0.300000
50
238.600000
51
270.000000
0
LINE
8
0
10
96.822480
20
8.843934
30
0.0
11
95.304178
21
9.770710
31
0.0
0
ARC
8
0
10
95.199976
20
9.600000
30
0.0
40
0.200000
50
58.600000
51
180.000000
0
LINE
8
0
10
94.999976
20
9.600000
30
0.0
11
94.999976
21
5.400000
31
0.0
0
ARC
8
0
10
95.199976
20
5.400000
30
0.0
40
0.200000
50
180.000000
51
301.400000
0
LINE
8
0
10
95.304178
20
5.229289
30
0.0
11
96.822480
21
6.156065
31
0.0
0
ARC
8
0
10
96.978782
20
5.900000
30
0.0
40
0.300000
50
90.000000
51
121.400000
0
LINE
8
0
10
96.978782
20
6.200000
30
0.0
11
97.199976
21
6.200000
31
0.0
0
ARC
8
0
10
97.199976
20
5.900000
30
0.0
40
0.300000
50
0.000000
51
90.000000
0
LINE
8
0
10
97.499976
20
5.900000
30
0.0
11
97.499976
21
2.047213
31
0.0
0
ARC
8
0
10
97.799976
20
2.047213
30
0.0
40
0.300000
50
180.000000
51
228.187329
0
ARC
8
0
10
97.399951
20
1.600009
30
0.0
40
0.300009
50
246.004713
51
48.187329
0
LINE
8
0
10
97.277949
20
1.325927
30
0.0
11
97.095240
21
1.407274
31
0.0
0
LINE
8
0
10
97.095240
20
1.407274
30
0.0
11
95.466483
21
2.531740
31
0.0
0
ARC
8
0
10
95.636925
20
2.778620
30
0.0
40
0.300000
50
175.379459
51
235.379459
0
LINE
8
0
10
95.337900
20
2.802787
30
0.0
11
95.347202
21
2.917881
31
0.0
0
ARC
8
0
10
95.147852
20
2.933993
30
0.0
40
0.200000
50
355.379459
51
115.379459
0
LINE
8
0
10
95.062129
20
3.114690
30
0.0
11
94.554706
21
2.873971
31
0.0
0
ARC
8
0
10
94.683290
20
2.602925
30
0.0
40
0.300000
50
115.379459
51
155.745828
0
LINE
8
0
10
94.409770
20
2.726160
30
0.0
11
93.461120
21
0.620645
31
0.0
0
ARC
8
0
10
93.733846
20
0.495663
30
0.0
40
0.300000
50
155.379459
51
270.000000
0
LINE
8
0
10
93.735833
20
0.195669
30
0.0
11
95.314761
21
0.206127
31
0.0
0
ARC
8
0
10
95.313205
20
0.441121
30
0.0
40
0.235000
50
270.000000
51
336.000000
0
ARC
8
0
10
95.749140
20
0.264708
30
0.0
40
0.235000
50
70.221829
51
156.000000
0
LINE
8
0
10
95.828659
20
0.485845
30
0.0
11
97.130548
21
0.017697
31
0.0
0
ARC
8
0
10
97.232062
20
0.300000
30
0.0
40
0.300000
50
250.221829
51
270.000000
0
LINE
8
0
10
74.950000
20
12.984687
30
0.0
11
65.050000
21
12.984687
31
0.0
0
ARC
8
0
10
65.050000
20
12.684687
30
0.0
40
0.300000
50
90.000000
51
180.000000
0
LINE
8
0
10
64.750000
20
12.684687
30
0.0
11
64.750000
21
8.884687
31
0.0
0
ARC
8
0
10
64.250000
20
8.884687
30
0.0
40
0.500000
50
180.000000
51
0.000000
0
LINE
8
0
10
63.750000
20
8.884687
30
0.0
11
63.750000
21
12.684687
31
0.0
0
ARC
8
0
10
63.450000
20
12.684687
30
0.0
40
0.300000
50
0.000000
51
90.000000
0
LINE
8
0
10
63.450000
20
12.984687
30
0.0
11
53.550000
21
12.984687
31
0.0
0
ARC
8
0
10
53.550000
20
12.684687
30
0.0
40
0.300000
50
90.000000
51
180.000000
0
LINE
8
0
10
53.250000
20
12.684687
30
0.0
11
53.250000
21
8.884687
31
0.0
0
ARC
8
0
10
52.750000
20
8.884687
30
0.0
40
0.500000
50
180.000000
51
0.000000
0
LINE
8
0
10
52.250000
20
8.884687
30
0.0
11
52.250000
21
12.684687
31
0.0
0
ARC
8
0
10
51.950000
20
12.684687
30
0.0
40
0.300000
50
0.000000
51
90.000000
0
LINE
8
0
10
51.950000
20
12.984687
30
0.0
11
49.645331
21
12.984687
31
0.0
0
ARC
8
0
10
49.645331
20
11.984687
30
0.0
40
1.000000
50
90.000000
51
144.745828
0
LINE
8
0
10
48.828731
20
12.561891
30
0.0
11
47.305910
21
10.407482
31
0.0
0
ARC
8
0
10
46.489311
20
10.984687
30
0.0
40
1.000000
50
270.000000
51
324.745828
0
LINE
8
0
10
46.489311
20
9.984687
30
0.0
11
45.388000
21
9.984687
31
0.0
0
ARC
8
0
10
45.388000
20
8.784687
30
0.0
40
1.200000
50
90.000000
51
119.981639
0
LINE
8
0
10
44.788333
20
9.824109
30
0.0
11
43.206389
21
8.911449
31
0.0
0
ARC
8
0
10
43.106445
20
9.084687
30
0.0
40
0.200000
50
270.000000
51
299.981639
0
LINE
8
0
10
43.106445
20
8.884687
30
0.0
11
42.900000
21
8.884687
31
0.0
0
ARC
8
0
10
42.900000
20
9.284687
30
0.0
40
0.400000
50
180.000000
51
270.000000
0
LINE
8
0
10
42.500000
20
9.284687
30
0.0
11
42.500000
21
12.684687
31
0.0
0
ARC
8
0
10
42.900000
20
12.684687
30
0.0
40
0.400000
50
90.000000
51
180.000000
0
LINE
8
0
10
42.900000
20
13.084687
30
0.0
11
43.106445
21
13.084687
31
0.0
0
ARC
8
0
10
43.106445
20
12.884687
30
0.0
40
0.200000
50
60.018361
51
90.000000
0
LINE
8
0
10
43.206389
20
13.057924
30
0.0
11
44.788333
21
12.145264
31
0.0
0
ARC
8
0
10
45.388000
20
13.184687
30
0.0
40
1.200000
50
240.018361
51
270.000000
0
LINE
8
0
10
45.388000
20
11.984687
30
0.0
11
45.816234
21
11.984687
31
0.0
0
ARC
8
0
10
45.816234
20
12.284687
30
0.0
40
0.300000
50
270.000000
51
324.745828
0
LINE
8
0
10
46.061214
20
12.111525
30
0.0
11
47.942653
21
14.773289
31
0.0
0
ARC
8
0
10
48.350953
20
14.484687
30
0.0
40
0.500000
50
90.000000
51
144.745828
0
LINE
8
0
10
48.350953
20
14.984687
30
0.0
11
91.649048
21
14.984687
31
0.0
0
ARC
8
0
10
91.649048
20
14.484687
30
0.0
40
0.500000
50
35.254172
51
90.000000
0
LINE
8
0
10
92.057348
20
14.773289
30
0.0
11
93.938787
21
12.111525
31
0.0
0
ARC
8
0
10
94.183767
20
12.284687
30
0.0
40
0.300000
50
215.254172
51
270.000000
0
LINE
8
0
10
94.183767
20
11.984687
30
0.0
11
94.612001
21
11.984687
31
0.0
0
ARC
8
0
10
94.612001
20
13.184687
30
0.0
40
1.200000
50
270.000000
51
299.981639
0
LINE
8
0
10
95.211668
20
12.145264
30
0.0
11
96.793611
21
13.057924
31
0.0
0
ARC
8
0
10
96.893556
20
12.884687
30
0.0
40
0.200000
50
90.000000
51
119.981639
0
LINE
8
0
10
96.893556
20
13.084687
30
0.0
11
97.100000
21
13.084687
31
0.0
0
ARC
8
0
10
97.100000
20
12.684687
30
0.0
40
0.400000
50
0.000000
51
90.000000
0
LINE
8
0
10
97.500000
20
12.684687
30
0.0
11
97.500000
21
9.284687
31
0.0
0
ARC
8
0
10
97.100000
20
9.284687
30
0.0
40
0.400000
50
270.000000
51
0.000000
0
LINE
8
0
10
97.100000
20
8.884687
30
0.0
11
96.893556
21
8.884687
31
0.0
0
ARC
8
0
10
96.893556
20
9.084687
30
0.0
40
0.200000
50
240.018361
51
270.000000
0
LINE
8
0
10
96.793611
20
8.911449
30
0.0
11
95.211668
21
9.824109
31
0.0
0
ARC
8
0
10
94.612001
20
8.784687
30
0.0
40
1.200000
50
60.018361
51
90.000000
0
LINE
8
0
10
94.612001
20
9.984687
30
0.0
11
93.510690
21
9.984687
31
0.0
0
ARC
8
0
10
93.510690
20
10.984687
30
0.0
40
1.000000
50
215.254172
51
270.000000
0
LINE
8
0
10
92.694091
20
10.407482
30
0.0
11
91.171270
21
12.561891
31
0.0
0
ARC
8
0
10
90.354670
20
11.984687
30
0.0
40
1.000000
50
35.254172
51
90.000000
0
LINE
8
0
10
90.354670
20
12.984687
30
0.0
11
88.050000
21
12.984687
31
0.0
0
ARC
8
0
10
88.050000
20
12.684687
30
0.0
40
0.300000
50
90.000000
51
180.000000
0
LINE
8
0
10
87.750000
20
12.684687
30
0.0
11
87.750000
21
8.884687
31
0.0
0
ARC
8
0
10
87.250000
20
8.884687
30
0.0
40
0.500000
50
180.000000
51
0.000000
0
LINE
8
0
10
86.750000
20
8.884687
30
0.0
11
86.750000
21
12.684687
31
0.0
0
ARC
8
0
10
86.450000
20
12.684687
30
0.0
40
0.300000
50
0.000000
51
90.000000
0
LINE
8
0
10
86.450000
20
12.984687
30
0.0
11
76.550000
21
12.984687
31
0.0
0
ARC
8
0
10
76.550000
20
12.684687
30
0.0
40
0.300000
50
90.000000
51
180.000000
0
LINE
8
0
10
76.250000
20
12.684687
30
0.0
11
76.250000
21
8.884687
31
0.0
0
ARC
8
0
10
75.750000
20
8.884687
30
0.0
40
0.500000
50
180.000000
51
0.000000
0
LINE
8
0
10
75.250000
20
8.884687
30
0.0
11
75.250000
21
12.684687
31
0.0
0
ARC
8
0
10
74.950000
20
12.684687
30
0.0
40
0.300000
50
0.000000
51
90.000000
0
LINE
8
0
10
74.950000
20
2.015312
30
0.0
11
65.050000
21
2.015312
31
0.0
0
ARC
8
0
10
65.050000
20
2.315312
30
0.0
40
0.300000
50
180.000000
51
270.000000
0
LINE
8
0
10
64.750000
20
2.315312
30
0.0
11
64.750000
21
6.115312
31
0.0
0
ARC
8
0
10
64.250000
20
6.115312
30
0.0
40
0.500000
50
0.000000
51
180.000000
0
LINE
8
0
10
63.750000
20
6.115312
30
0.0
11
63.750000
21
2.315312
31
0.0
0
ARC
8
0
10
63.450000
20
2.315312
30
0.0
40
0.300000
50
270.000000
51
0.000000
0
LINE
8
0
10
63.450000
20
2.015312
30
0.0
11
53.550000
21
2.015312
31
0.0
0
ARC
8
0
10
53.550000
20
2.315312
30
0.0
40
0.300000
50
180.000000
51
270.000000
0
LINE
8
0
10
53.250000
20
2.315312
30
0.0
11
53.250000
21
6.115312
31
0.0
0
ARC
8
0
10
52.750000
20
6.115312
30
0.0
40
0.500000
50
0.000000
51
180.000000
0
LINE
8
0
10
52.250000
20
6.115312
30
0.0
11
52.250000
21
2.315312
31
0.0
0
ARC
8
0
10
51.950000
20
2.315312
30
0.0
40
0.300000
50
270.000000
51
0.000000
0
LINE
8
0
10
51.950000
20
2.015312
30
0.0
11
49.645331
21
2.015312
31
0.0
0
ARC
8
0
10
49.645331
20
3.015312
30
0.0
40
1.000000
50
215.254172
51
270.000000
0
LINE
8
0
10
48.828731
20
2.438108
30
0.0
11
47.305910
21
4.592517
31
0.0
0
ARC
8
0
10
46.489311
20
4.015312
30
0.0
40
1.000000
50
35.254172
51
90.000000
0
LINE
8
0
10
46.489311
20
5.015312
30
0.0
11
45.388000
21
5.015312
31
0.0
0
ARC
8
0
10
45.388000
20
6.215312
30
0.0
40
1.200000
50
240.018361
51
270.000000
0
LINE
8
0
10
44.788333
20
5.175890
30
0.0
11
43.206389
21
6.088550
31
0.0
0
ARC
8
0
10
43.106445
20
5.915312
30
0.0
40
0.200000
50
60.018361
51
90.000000
0
LINE
8
0
10
43.106445
20
6.115312
30
0.0
11
42.900000
21
6.115312
31
0.0
0
ARC
8
0
10
42.900000
20
5.715312
30
0.0
40
0.400000
50
90.000000
51
180.000000
0
LINE
8
0
10
42.500000
20
5.715312
30
0.0
11
42.500000
21
2.315312
31
0.0
0
ARC
8
0
10
42.900000
20
2.315312
30
0.0
40
0.400000
50
180.000000
51
270.000000
0
LINE
8
0
10
42.900000
20
1.915312
30
0.0
11
43.106445
21
1.915312
31
0.0
0
ARC
8
0
10
43.106445
20
2.115312
30
0.0
40
0.200000
50
270.000000
51
299.981639
0
LINE
8
0
10
43.206389
20
1.942075
30
0.0
11
44.788333
21
2.854735
31
0.0
0
ARC
8
0
10
45.388000
20
1.815312
30
0.0
40
1.200000
50
90.000000
51
119.981639
0
LINE
8
0
10
45.388000
20
3.015312
30
0.0
11
45.816234
21
3.015312
31
0.0
0
ARC
8
0
10
45.816234
20
2.715312
30
0.0
40
0.300000
50
35.254172
51
90.000000
0
LINE
8
0
10
46.061214
20
2.888474
30
0.0
11
47.942653
21
0.226710
31
0.0
0
ARC
8
0
10
48.350953
20
0.515312
30
0.0
40
0.500000
50
215.254172
51
270.000000
0
LINE
8
0
10
48.350953
20
0.015312
30
0.0
11
91.649048
21
0.015312
31
0.0
0
ARC
8
0
10
91.649048
20
0.515312
30
0.0
40
0.500000
50
270.000000
51
324.745828
0
LINE
8
0
10
92.057348
20
0.226710
30
0.0
11
93.938787
21
2.888474
31
0.0
0
ARC
8
0
10
94.183767
20
2.715312
30
0.0
40
0.300000
50
90.000000
51
144.745828
0
LINE
8
0
10
94.183767
20
3.015312
30
0.0
11
94.612001
21
3.015312
31
0.0
0
ARC
8
0
10
94.612001
20
1.815312
30
0.0
40
1.200000
50
60.018361
51
90.000000
0
LINE
8
0
10
95.211668
20
2.854735
30
0.0
11
96.793611
21
1.942075
31
0.0
0
ARC
8
0
10
96.893556
20
2.115312
30
0.0
40
0.200000
50
240.018361
51
270.000000
0
LINE
8
0
10
96.893556
20
1.915312
30
0.0
11
97.100000
21
1.915312
31
0.0
0
ARC
8
0
10
97.100000
20
2.315312
30
0.0
40
0.400000
50
270.000000
51
0.000000
0
LINE
8
0
10
97.500000
20
2.315312
30
0.0
11
97.500000
21
5.715312
31
0.0
0
ARC
8
0
10
97.100000
20
5.715312
30
0.0
40
0.400000
50
0.000000
51
90.000000
0
LINE
8
0
10
97.100000
20
6.115312
30
0.0
11
96.893556
21
6.115312
31
0.0
0
ARC
8
0
10
96.893556
20
5.915312
30
0.0
40
0.200000
50
90.000000
51
119.981639
0
LINE
8
0
10
96.793611
20
6.088550
30
0.0
11
95.211668
21
5.175890
31
0.0
0
ARC
8
0
10
94.612001
20
6.215312
30
0.0
40
1.200000
50
270.000000
51
299.981639
0
LINE
8
0
10
94.612001
20
5.015312
30
0.0
11
93.510690
21
5.015312
31
0.0
0
ARC
8
0
10
93.510690
20
4.015312
30
0.0
40
1.000000
50
90.000000
51
144.745828
0
LINE
8
0
10
92.694091
20
4.592517
30
0.0
11
91.171270
21
2.438108
31
0.0
0
ARC
8
0
10
90.354670
20
3.015312
30
0.0
40
1.000000
50
270.000000
51
324.745828
0
LINE
8
0
10
90.354670
20
2.015312
30
0.0
11
88.050000
21
2.015312
31
0.0
0
ARC
8
0
10
88.050000
20
2.315312
30
0.0
40
0.300000
50
180.000000
51
270.000000
0
LINE
8
0
10
87.750000
20
2.315312
30
0.0
11
87.750000
21
6.115312
31
0.0
0
ARC
8
0
10
87.250000
20
6.115312
30
0.0
40
0.500000
50
0.000000
51
180.000000
0
LINE
8
0
10
86.750000
20
6.115312
30
0.0
11
86.750000
21
2.315312
31
0.0
0
ARC
8
0
10
86.450000
20
2.315312
30
0.0
40
0.300000
50
270.000000
51
0.000000
0
LINE
8
0
10
86.450000
20
2.015312
30
0.0
11
76.550000
21
2.015312
31
0.0
0
ARC
8
0
10
76.550000
20
2.315312
30
0.0
40
0.300000
50
180.000000
51
270.000000
0
LINE
8
0
10
76.250000
20
2.315312
30
0.0
11
76.250000
21
6.115312
31
0.0
0
ARC
8
0
10
75.750000
20
6.115312
30
0.0
40
0.500000
50
0.000000
51
180.000000
0
LINE
8
0
10
75.250000
20
6.115312
30
0.0
11
75.250000
21
2.315312
31
0.0
0
ARC
8
0
10
74.950000
20
2.315312
30
0.0
40
0.300000
50
270.000000
51
0.000000
0
ARC
8
0
10
118.202136
20
6.900000
30
0.0
40
0.300000
50
270.000000
51
0.000000
0
LINE
8
0
10
118.202136
20
6.600000
30
0.0
11
110.446836
21
6.600000
31
0.0
0
ARC
8
0
10
110.446836
20
6.900000
30
0.0
40
0.300000
50
225.000000
51
270.000000
0
LINE
8
0
10
110.234704
20
6.687868
30
0.0
11
108.913383
21
8.009188
31
0.0
0
ARC
8
0
10
108.701251
20
7.797056
30
0.0
40
0.300000
50
45.000000
51
135.000000
0
LINE
8
0
10
108.489119
20
8.009188
30
0.0
11
107.167799
21
6.687868
31
0.0
0
ARC
8
0
10
106.955667
20
6.900000
30
0.0
40
0.300000
50
270.000000
51
315.000000
0
LINE
8
0
10
106.955667
20
6.600000
30
0.0
11
103.983560
21
6.600000
31
0.0
0
ARC
8
0
10
103.983560
20
6.900000
30
0.0
40
0.300000
50
240.000000
51
270.000000
0
LINE
8
0
10
103.833560
20
6.640192
30
0.0
11
103.151251
21
7.034123
31
0.0
0
ARC
8
0
10
103.301251
20
7.293931
30
0.0
40
0.300000
50
180.000000
51
240.000000
0
LINE
8
0
10
103.001251
20
7.293931
30
0.0
11
103.001251
21
10.906069
31
0.0
0
ARC
8
0
10
103.301251
20
10.906069
30
0.0
40
0.300000
50
120.000000
51
180.000000
0
LINE
8
0
10
103.151251
20
11.165876
30
0.0
11
103.833560
21
11.559807
31
0.0
0
ARC
8
0
10
103.983560
20
11.300000
30
0.0
40
0.300000
50
90.000000
51
120.000000
0
LINE
8
0
10
103.983560
20
11.600000
30
0.0
11
118.202136
21
11.600000
31
0.0
0
ARC
8
0
10
118.202136
20
11.300000
30
0.0
40
0.300000
50
0.000000
51
90.000000
0
LINE
8
0
10
118.502136
20
11.300000
30
0.0
11
118.502136
21
6.900000
31
0.0
0
LINE
8
0
10
205.702136
20
37.920802
30
0.0
11
205.702136
21
22.900009
31
0.0
0
ARC
8
0
10
205.402136
20
22.900009
30
0.0
40
0.300000
50
270.000000
51
0.000000
0
LINE
8
0
10
205.402136
20
22.600009
30
0.0
11
202.702136
21
22.600009
31
0.0
0
ARC
8
0
10
202.702136
20
22.300009
30
0.0
40
0.300000
50
90.000000
51
180.000000
0
LINE
8
0
10
202.402136
20
22.300009
30
0.0
11
202.402136
21
21.400009
31
0.0
0
ARC
8
0
10
202.702136
20
21.400009
30
0.0
40
0.300000
50
180.000000
51
270.000000
0
LINE
8
0
10
202.702136
20
21.100009
30
0.0
11
204.002136
21
21.100009
31
0.0
0
ARC
8
0
10
204.002136
20
20.800009
30
0.0
40
0.300000
50
0.000000
51
90.000000
0
LINE
8
0
10
204.302136
20
20.800009
30
0.0
11
204.302136
21
19.400009
31
0.0
0
ARC
8
0
10
204.602136
20
19.400009
30
0.0
40
0.300000
50
180.000000
51
270.000000
0
LINE
8
0
10
204.602136
20
19.100009
30
0.0
11
205.402136
21
19.100009
31
0.0
0
ARC
8
0
10
205.402136
20
18.800009
30
0.0
40
0.300000
50
0.000000
51
90.000000
0
LINE
8
0
10
205.702136
20
18.800009
30
0.0
11
205.702136
21
16.800009
31
0.0
0
ARC
8
0
10
206.002136
20
16.800009
30
0.0
40
0.300000
50
180.000000
51
270.000000
0
LINE
8
0
10
206.002136
20
16.500009
30
0.0
11
215.702136
21
16.500009
31
0.0
0
ARC
8
0
10
215.702136
20
16.200009
30
0.0
40
0.300000
50
0.000000
51
90.000000
0
LINE
8
0
10
216.002136
20
16.200009
30
0.0
11
216.002136
21
6.800009
31
0.0
0
ARC
8
0
10
215.702136
20
6.800009
30
0.0
40
0.300000
50
270.000000
51
0.000000
0
LINE
8
0
10
215.702136
20
6.500009
30
0.0
11
206.102136
21
6.500009
31
0.0
0
ARC
8
0
10
206.102136
20
6.800009
30
0.0
40
0.300000
50
180.000000
51
270.000000
0
LINE
8
0
10
205.802136
20
6.800009
30
0.0
11
205.802136
21
7.700009
31
0.0
0
ARC
8
0
10
205.502136
20
7.700009
30
0.0
40
0.300000
50
0.000000
51
90.000000
0
LINE
8
0
10
205.502136
20
8.000009
30
0.0
11
204.602136
21
8.000009
31
0.0
0
ARC
8
0
10
204.602136
20
7.700009
30
0.0
40
0.300000
50
90.000000
51
180.000000
0
LINE
8
0
10
204.302136
20
7.700009
30
0.0
11
204.302136
21
6.800009
31
0.0
0
ARC
8
0
10
204.002136
20
6.800009
30
0.0
40
0.300000
50
270.000000
51
0.000000
0
LINE
8
0
10
204.002136
20
6.500009
30
0.0
11
181.602136
21
6.500009
31
0.0
0
ARC
8
0
10
181.602136
20
6.800009
30
0.0
40
0.300000
50
180.000000
51
270.000000
0
LINE
8
0
10
181.302136
20
6.800009
30
0.0
11
181.302136
21
7.700009
31
0.0
0
ARC
8
0
10
181.002136
20
7.700009
30
0.0
40
0.300000
50
0.000000
51
90.000000
0
LINE
8
0
10
181.002136
20
8.000009
30
0.0
11
180.102136
21
8.000009
31
0.0
0
ARC
8
0
10
180.102136
20
7.700009
30
0.0
40
0.300000
50
90.000000
51
180.000000
0
LINE
8
0
10
179.802136
20
7.700009
30
0.0
11
179.802136
21
6.800009
31
0.0
0
ARC
8
0
10
179.502136
20
6.800009
30
0.0
40
0.300000
50
270.000000
51
0.000000
0
LINE
8
0
10
179.502136
20
6.500009
30
0.0
11
176.802161
21
6.500009
31
0.0
0
ARC
8
0
10
176.802161
20
6.800009
30
0.0
40
0.300000
50
180.000000
51
270.000000
0
LINE
8
0
10
176.502161
20
6.800009
30
0.0
11
176.502161
21
13.200009
31
0.0
0
ARC
8
0
10
176.802161
20
13.200009
30
0.0
40
0.300000
50
90.000000
51
180.000000
0
LINE
8
0
10
176.802161
20
13.500009
30
0.0
11
179.702161
21
13.500009
31
0.0
0
ARC
8
0
10
179.702161
20
13.800009
30
0.0
40
0.300000
50
270.000000
51
0.000000
0
LINE
8
0
10
180.002161
20
13.800009
30
0.0
11
180.002161
21
18.800009
31
0.0
0
ARC
8
0
10
180.302161
20
18.800009
30
0.0
40
0.300000
50
90.000000
51
180.000000
0
LINE
8
0
10
180.302161
20
19.100009
30
0.0
11
181.002161
21
19.100009
31
0.0
0
ARC
8
0
10
181.002161
20
19.400009
30
0.0
40
0.300000
50
270.000000
51
0.000000
0
LINE
8
0
10
181.302161
20
19.400009
30
0.0
11
181.302161
21
20.800009
31
0.0
0
ARC
8
0
10
181.602161
20
20.800009
30
0.0
40
0.300000
50
90.000000
51
180.000000
0
LINE
8
0
10
181.602161
20
21.100009
30
0.0
11
184.002161
21
21.100009
31
0.0
0
ARC
8
0
10
184.002161
20
21.400009
30
0.0
40
0.300000
50
270.000000
51
0.000000
0
LINE
8
0
10
184.302161
20
21.400009
30
0.0
11
184.302161
21
22.300009
31
0.0
0
ARC
8
0
10
184.002161
20
22.300009
30
0.0
40
0.300000
50
0.000000
51
90.000000
0
LINE
8
0
10
184.002161
20
22.600009
30
0.0
11
180.302161
21
22.600009
31
0.0
0
ARC
8
0
10
180.302161
20
22.900009
30
0.0
40
0.300000
50
180.000000
51
270.000000
0
LINE
8
0
10
180.002161
20
22.900009
30
0.0
11
180.002161
21
27.200009
31
0.0
0
ARC
8
0
10
180.302161
20
27.200009
30
0.0
40
0.300000
50
90.000000
51
180.000000
0
LINE
8
0
10
180.302161
20
27.500009
30
0.0
11
183.327872
21
27.500009
31
0.0
0
ARC
8
0
10
183.327872
20
27.200009
30
0.0
40
0.300000
50
45.000000
51
90.000000
0
LINE
8
0
10
183.540004
20
27.412141
30
0.0
11
183.864268
21
27.087877
31
0.0
0
ARC
8
0
10
184.076400
20
27.300009
30
0.0
40
0.300000
50
225.000000
51
270.000000
0
LINE
8
0
10
184.076400
20
27.000009
30
0.0
11
188.327872
21
27.000009
31
0.0
0
ARC
8
0
10
188.327872
20
27.300009
30
0.0
40
0.300000
50
270.000000
51
315.000000
0
LINE
8
0
10
188.540004
20
27.087877
30
0.0
11
188.864268
21
27.412141
31
0.0
0
ARC
8
0
10
189.076400
20
27.200009
30
0.0
40
0.300000
50
90.000000
51
135.000000
0
LINE
8
0
10
189.076400
20
27.500009
30
0.0
11
192.902136
21
27.500009
31
0.0
0
ARC
8
0
10
192.902136
20
28.500009
30
0.0
40
1.000000
50
270.000000
51
0.000000
0
LINE
8
0
10
193.902136
20
28.500009
30
0.0
11
193.902136
21
31.375637
31
0.0
0
ARC
8
0
10
194.202136
20
31.375637
30
0.0
40
0.300000
50
150.000000
51
180.000000
0
LINE
8
0
10
193.942329
20
31.525637
30
0.0
11
194.793558
21
33.000009
31
0.0
0
ARC
8
0
10
193.061507
20
34.000009
30
0.0
40
2.000000
50
330.000000
51
57.356923
0
ARC
8
0
10
194.302136
20
35.936717
30
0.0
40
0.300000
50
180.000000
51
237.356923
0
LINE
8
0
10
194.002136
20
35.936717
30
0.0
11
194.002136
21
37.700009
31
0.0
0
ARC
8
0
10
194.302136
20
37.700009
30
0.0
40
0.300000
50
90.000000
51
180.000000
0
LINE
8
0
10
194.302136
20
38.000009
30
0.0
11
196.502136
21
38.000009
31
0.0
0
ARC
8
0
10
196.502136
20
38.500009
30
0.0
40
0.500000
50
270.000000
51
0.000000
0
LINE
8
0
10
197.002136
20
38.500009
30
0.0
11
197.002136
21
41.600009
31
0.0
0
ARC
8
0
10
197.302136
20
41.600009
30
0.0
40
0.300000
50
90.000000
51
180.000000
0
LINE
8
0
10
197.302136
20
41.900009
30
0.0
11
206.902136
21
41.900009
31
0.0
0
ARC
8
0
10
206.902136
20
41.600009
30
0.0
40
0.300000
50
0.000000
51
90.000000
0
LINE
8
0
10
207.202136
20
41.600009
30
0.0
11
207.202136
21
38.783122
31
0.0
0
ARC
8
0
10
206.902136
20
38.783122
30
0.0
40
0.300000
50
285.000000
51
0.000000
0
LINE
8
0
10
206.979782
20
38.493344
30
0.0
11
205.924490
21
38.210579
31
0.0
0
ARC
8
0
10
206.002136
20
37.920802
30
0.0
40
0.300000
50
105.000000
51
180.000000
0
ARC
8
0
10
175.702136
20
40.175745
30
0.0
40
0.300000
50
135.000000
51
180.000000
0
LINE
8
0
10
175.402136
20
40.175745
30
0.0
11
175.402136
21
40.300009
31
0.0
0
LINE
8
0
10
175.402136
20
40.300009
30
0.0
11
175.490004
21
40.387877
31
0.0
0
LINE
8
0
10
175.490004
20
40.387877
30
0.0
11
175.714268
21
40.612141
31
0.0
0
ARC
8
0
10
175.926400
20
40.400009
30
0.0
40
0.300000
50
90.000000
51
135.000000
0
LINE
8
0
10
175.926400
20
40.700009
30
0.0
11
176.602136
21
40.700009
31
0.0
0
ARC
8
0
10
176.602136
20
40.400009
30
0.0
40
0.300000
50
0.000000
51
90.000000
0
LINE
8
0
10
176.902136
20
40.400009
30
0.0
11
176.902136
21
39.800009
31
0.0
0
ARC
8
0
10
177.202136
20
39.800009
30
0.0
40
0.300000
50
180.000000
51
270.000000
0
LINE
8
0
10
177.202136
20
39.500009
30
0.0
11
179.612430
21
39.500009
31
0.0
0
ARC
8
0
10
179.612430
20
39.200009
30
0.0
40
0.300000
50
2.000000
51
90.000000
0
LINE
8
0
10
179.912247
20
39.210479
30
0.0
11
180.058670
21
35.017459
31
0.0
0
ARC
8
0
10
179.558975
20
35.000009
30
0.0
40
0.500000
50
270.000000
51
2.000000
0
LINE
8
0
10
179.558975
20
34.500009
30
0.0
11
179.342765
21
34.500009
31
0.0
0
ARC
8
0
10
179.342765
20
34.000009
30
0.0
40
0.500000
50
90.000000
51
210.000000
0
LINE
8
0
10
178.909753
20
33.750009
30
0.0
11
179.935149
21
31.973971
31
0.0
0
ARC
8
0
10
179.502136
20
31.723971
30
0.0
40
0.500000
50
0.000000
51
30.000000
0
LINE
8
0
10
180.002136
20
31.723971
30
0.0
11
180.002136
21
29.300009
31
0.0
0
ARC
8
0
10
180.302136
20
29.300009
30
0.0
40
0.300000
50
180.000000
51
270.000000
0
LINE
8
0
10
180.302136
20
29.000009
30
0.0
11
185.902136
21
29.000009
31
0.0
0
LINE
8
0
10
185.902136
20
29.000009
30
0.0
11
186.202136
21
28.700009
31
0.0
0
LINE
8
0
10
186.202136
20
28.700009
30
0.0
11
186.502136
21
29.000009
31
0.0
0
LINE
8
0
10
186.502136
20
29.000009
30
0.0
11
192.102136
21
29.000009
31
0.0
0
ARC
8
0
10
192.102136
20
29.300009
30
0.0
40
0.300000
50
270.000000
51
0.000000
0
LINE
8
0
10
192.402136
20
29.300009
30
0.0
11
192.402136
21
31.723971
31
0.0
0
ARC
8
0
10
192.902136
20
31.723971
30
0.0
40
0.500000
50
150.000000
51
180.000000
0
LINE
8
0
10
192.469123
20
31.973971
30
0.0
11
193.494520
21
33.750009
31
0.0
0
ARC
8
0
10
193.061507
20
34.000009
30
0.0
40
0.500000
50
330.000000
51
90.000000
0
LINE
8
0
10
193.061507
20
34.500009
30
0.0
11
192.845297
21
34.500009
31
0.0
0
ARC
8
0
10
192.845297
20
35.000009
30
0.0
40
0.500000
50
178.000000
51
270.000000
0
LINE
8
0
10
192.345602
20
35.017459
30
0.0
11
192.492026
21
39.210479
31
0.0
0
ARC
8
0
10
192.791843
20
39.200009
30
0.0
40
0.300000
50
90.000000
51
178.000000
0
LINE
8
0
10
192.791843
20
39.500009
30
0.0
11
195.202136
21
39.500009
31
0.0
0
ARC
8
0
10
195.202136
20
39.800009
30
0.0
40
0.300000
50
270.000000
51
0.000000
0
LINE
8
0
10
195.502136
20
39.800009
30
0.0
11
195.502136
21
43.100009
31
0.0
0
ARC
8
0
10
195.802136
20
43.100009
30
0.0
40
0.300000
50
90.000000
51
180.000000
0
LINE
8
0
10
195.802136
20
43.400009
30
0.0
11
207.702136
21
43.400009
31
0.0
0
ARC
8
0
10
207.702136
20
42.400009
30
0.0
40
1.000000
50
0.000000
51
90.000000
0
LINE
8
0
10
208.702136
20
42.400009
30
0.0
11
208.702136
21
37.632131
31
0.0
0
ARC
8
0
10
208.402136
20
37.632131
30
0.0
40
0.300000
50
285.000000
51
0.000000
0
LINE
8
0
10
208.479782
20
37.342353
30
0.0
11
207.424490
21
37.059589
31
0.0
0
ARC
8
0
10
207.502136
20
36.769811
30
0.0
40
0.300000
50
105.000000
51
180.000000
0
LINE
8
0
10
207.202136
20
36.769811
30
0.0
11
207.202136
21
18.300009
31
0.0
0
ARC
8
0
10
207.502136
20
18.300009
30
0.0
40
0.300000
50
180.000000
51
270.000000
0
LINE
8
0
10
207.502136
20
18.000009
30
0.0
11
217.002136
21
18.000009
31
0.0
0
ARC
8
0
10
217.002136
20
17.500009
30
0.0
40
0.500000
50
0.000000
51
90.000000
0
LINE
8
0
10
217.502136
20
17.500009
30
0.0
11
217.502136
21
0.300009
31
0.0
0
ARC
8
0
10
217.202136
20
0.300009
30
0.0
40
0.300000
50
270.000000
51
0.000000
0
LINE
8
0
10
217.202136
20
0.000009
30
0.0
11
213.971993
21
0.000009
31
0.0
0
ARC
8
0
10
213.971993
20
0.300009
30
0.0
40
0.300000
50
210.963757
51
270.000000
0
LINE
8
0
10
213.714745
20
0.145660
30
0.0
11
213.244888
21
0.928756
31
0.0
0
ARC
8
0
10
213.502136
20
1.083104
30
0.0
40
0.300000
50
180.000000
51
210.963757
0
LINE
8
0
10
213.202136
20
1.083104
30
0.0
11
213.202136
21
1.200009
31
0.0
0
ARC
8
0
10
213.502136
20
1.200009
30
0.0
40
0.300000
50
90.000000
51
180.000000
0
LINE
8
0
10
213.502136
20
1.500009
30
0.0
11
215.402136
21
1.500009
31
0.0
0
ARC
8
0
10
215.402136
20
1.800009
30
0.0
40
0.300000
50
270.000000
51
0.000000
0
LINE
8
0
10
215.702136
20
1.800009
30
0.0
11
215.702136
21
4.700009
31
0.0
0
ARC
8
0
10
215.402136
20
4.700009
30
0.0
40
0.300000
50
0.000000
51
90.000000
0
LINE
8
0
10
215.402136
20
5.000009
30
0.0
11
201.502136
21
5.000009
31
0.0
0
ARC
8
0
10
201.502136
20
4.700009
30
0.0
40
0.300000
50
90.000000
51
180.000000
0
LINE
8
0
10
201.202136
20
4.700009
30
0.0
11
201.202136
21
1.800009
31
0.0
0
ARC
8
0
10
201.502136
20
1.800009
30
0.0
40
0.300000
50
180.000000
51
270.000000
0
LINE
8
0
10
201.502136
20
1.500009
30
0.0
11
202.902136
21
1.500009
31
0.0
0
ARC
8
0
10
202.902136
20
1.200009
30
0.0
40
0.300000
50
0.000000
51
90.000000
0
LINE
8
0
10
203.202136
20
1.200009
30
0.0
11
203.202136
21
1.083104
31
0.0
0
ARC
8
0
10
202.902136
20
1.083104
30
0.0
40
0.300000
50
329.036244
51
0.000000
0
LINE
8
0
10
203.159384
20
0.928756
30
0.0
11
202.689527
21
0.145660
31
0.0
0
ARC
8
0
10
202.432279
20
0.300009
30
0.0
40
0.300000
50
270.000000
51
329.036244
0
LINE
8
0
10
202.432279
20
0.000009
30
0.0
11
200.002136
21
0.000009
31
0.0
0
ARC
8
0
10
200.002136
20
0.300009
30
0.0
40
0.300000
50
180.000000
51
270.000000
0
LINE
8
0
10
199.702136
20
0.300009
30
0.0
11
199.702136
21
4.700009
31
0.0
0
ARC
8
0
10
199.402136
20
4.700009
30
0.0
40
0.300000
50
0.000000
51
90.000000
0
LINE
8
0
10
199.402136
20
5.000009
30
0.0
11
176.802136
21
5.000009
31
0.0
0
ARC
8
0
10
176.802136
20
4.700009
30
0.0
40
0.300000
50
90.000000
51
180.000000
0
LINE
8
0
10
176.502136
20
4.700009
30
0.0
11
176.502136
21
0.300009
31
0.0
0
ARC
8
0
10
176.202136
20
0.300009
30
0.0
40
0.300000
50
270.000000
51
0.000000
0
LINE
8
0
10
176.202136
20
0.000009
30
0.0
11
174.734220
21
0.000009
31
0.0
0
ARC
8
0
10
174.734220
20
0.300009
30
0.0
40
0.300000
50
250.221829
51
270.000000
0
LINE
8
0
10
174.632707
20
0.017706
30
0.0
11
173.330844
21
0.485845
31
0.0
0
ARC
8
0
10
173.251325
20
0.264708
30
0.0
40
0.235000
50
70.221829
51
156.000000
0
ARC
8
0
10
172.815390
20
0.441122
30
0.0
40
0.235000
50
270.000000
51
336.000000
0
LINE
8
0
10
172.816946
20
0.206127
30
0.0
11
171.238018
21
0.195670
31
0.0
0
ARC
8
0
10
171.236031
20
0.495663
30
0.0
40
0.300000
50
155.379459
51
270.000000
0
LINE
8
0
10
170.963305
20
0.620645
30
0.0
11
171.911955
21
2.726160
31
0.0
0
ARC
8
0
10
172.185475
20
2.602925
30
0.0
40
0.300000
50
115.379459
51
155.745828
0
LINE
8
0
10
172.056892
20
2.873971
30
0.0
11
172.564314
21
3.114691
31
0.0
0
ARC
8
0
10
172.650037
20
2.933993
30
0.0
40
0.200000
50
355.379459
51
115.379459
0
LINE
8
0
10
172.849387
20
2.917882
30
0.0
11
172.840085
21
2.802787
31
0.0
0
ARC
8
0
10
173.139110
20
2.778620
30
0.0
40
0.300000
50
175.379459
51
235.379459
0
LINE
8
0
10
172.968668
20
2.531740
30
0.0
11
174.597425
21
1.407274
31
0.0
0
LINE
8
0
10
174.597425
20
1.407274
30
0.0
11
174.780134
21
1.325927
31
0.0
0
ARC
8
0
10
174.902136
20
1.600009
30
0.0
40
0.300009
50
246.004713
51
48.187329
0
ARC
8
0
10
175.302161
20
2.047213
30
0.0
40
0.300000
50
180.000000
51
228.187329
0
LINE
8
0
10
175.002161
20
2.047213
30
0.0
11
175.002161
21
5.900000
31
0.0
0
ARC
8
0
10
174.702161
20
5.900000
30
0.0
40
0.300000
50
0.000000
51
90.000000
0
LINE
8
0
10
174.702161
20
6.200000
30
0.0
11
174.480967
21
6.200000
31
0.0
0
ARC
8
0
10
174.480967
20
5.900000
30
0.0
40
0.300000
50
90.000000
51
121.400000
0
LINE
8
0
10
174.324665
20
6.156065
30
0.0
11
172.806363
21
5.229290
31
0.0
0
ARC
8
0
10
172.702161
20
5.400000
30
0.0
40
0.200000
50
180.000000
51
301.400000
0
LINE
8
0
10
172.502161
20
5.400000
30
0.0
11
172.502161
21
9.600000
31
0.0
0
ARC
8
0
10
172.702161
20
9.600000
30
0.0
40
0.200000
50
58.600000
51
180.000000
0
LINE
8
0
10
172.806363
20
9.770710
30
0.0
11
174.324665
21
8.843934
31
0.0
0
ARC
8
0
10
174.480967
20
9.100000
30
0.0
40
0.300000
50
238.600000
51
270.000000
0
LINE
8
0
10
174.480967
20
8.800000
30
0.0
11
174.702161
21
8.800000
31
0.0
0
ARC
8
0
10
174.702161
20
9.100000
30
0.0
40
0.300000
50
270.000000
51
0.000000
0
LINE
8
0
10
175.002161
20
9.100000
30
0.0
11
175.002161
21
12.952786
31
0.0
0
ARC
8
0
10
175.302161
20
12.952786
30
0.0
40
0.300000
50
131.812671
51
180.000000
0
ARC
8
0
10
174.902136
20
13.399990
30
0.0
40
0.300009
50
311.812671
51
113.995287
0
LINE
8
0
10
174.780134
20
13.674073
30
0.0
11
174.597425
21
13.592725
31
0.0
0
LINE
8
0
10
174.597425
20
13.592725
30
0.0
11
172.968668
21
12.468259
31
0.0
0
ARC
8
0
10
173.139110
20
12.221380
30
0.0
40
0.300000
50
124.620541
51
184.620541
0
LINE
8
0
10
172.840085
20
12.197213
30
0.0
11
172.849387
21
12.082118
31
0.0
0
ARC
8
0
10
172.650037
20
12.066007
30
0.0
40
0.200000
50
244.620541
51
4.620541
0
LINE
8
0
10
172.564314
20
11.885309
30
0.0
11
172.056892
21
12.126028
31
0.0
0
ARC
8
0
10
172.185475
20
12.397075
30
0.0
40
0.300000
50
204.254172
51
244.620541
0
LINE
8
0
10
171.911955
20
12.273839
30
0.0
11
170.963305
21
14.379354
31
0.0
0
ARC
8
0
10
171.236031
20
14.504336
30
0.0
40
0.300000
50
90.000000
51
204.620541
0
LINE
8
0
10
171.238018
20
14.804330
30
0.0
11
172.816946
21
14.793873
31
0.0
0
ARC
8
0
10
172.815390
20
14.558878
30
0.0
40
0.235000
50
24.000000
51
90.000000
0
ARC
8
0
10
173.251325
20
14.735291
30
0.0
40
0.235000
50
204.000000
51
289.778171
0
LINE
8
0
10
173.330844
20
14.514154
30
0.0
11
174.632759
21
14.982312
31
0.0
0
ARC
8
0
10
174.734273
20
14.700009
30
0.0
40
0.300000
50
90.000000
51
109.778171
0
LINE
8
0
10
174.734273
20
15.000009
30
0.0
11
178.202161
21
15.000009
31
0.0
0
ARC
8
0
10
178.202161
20
15.300009
30
0.0
40
0.300000
50
270.000000
51
0.000000
0
LINE
8
0
10
178.502161
20
15.300009
30
0.0
11
178.502161
21
20.800009
31
0.0
0
ARC
8
0
10
178.202161
20
20.800009
30
0.0
40
0.300000
50
0.000000
51
90.000000
0
LINE
8
0
10
178.202161
20
21.100009
30
0.0
11
175.602161
21
21.100009
31
0.0
0
ARC
8
0
10
175.602161
20
21.400009
30
0.0
40
0.300000
50
180.000000
51
270.000000
0
LINE
8
0
10
175.302161
20
21.400009
30
0.0
11
175.302161
21
22.300009
31
0.0
0
ARC
8
0
10
175.602161
20
22.300009
30
0.0
40
0.300000
50
90.000000
51
180.000000
0
LINE
8
0
10
175.602161
20
22.600009
30
0.0
11
178.202161
21
22.600009
31
0.0
0
ARC
8
0
10
178.202161
20
22.900009
30
0.0
40
0.300000
50
270.000000
51
0.000000
0
LINE
8
0
10
178.502161
20
22.900009
30
0.0
11
178.502161
21
31.375594
31
0.0
0
ARC
8
0
10
178.202161
20
31.375594
30
0.0
40
0.300000
50
0.000000
51
30.000000
0
LINE
8
0
10
178.461968
20
31.525594
30
0.0
11
177.610715
21
33.000009
31
0.0
0
ARC
8
0
10
179.342765
20
34.000009
30
0.0
40
2.000000
50
122.643077
51
210.000000
0
ARC
8
0
10
178.102136
20
35.936717
30
0.0
40
0.300000
50
302.643077
51
0.000000
0
LINE
8
0
10
178.402136
20
35.936717
30
0.0
11
178.402136
21
37.700009
31
0.0
0
ARC
8
0
10
178.102136
20
37.700009
30
0.0
40
0.300000
50
0.000000
51
90.000000
0
LINE
8
0
10
178.102136
20
38.000009
30
0.0
11
175.702136
21
38.000009
31
0.0
0
ARC
8
0
10
175.702136
20
38.300009
30
0.0
40
0.300000
50
180.000000
51
270.000000
0
LINE
8
0
10
175.402136
20
38.300009
30
0.0
11
175.402136
21
40.175745
31
0.0
0
ARC
8
0
10
103.581636
20
12.800000
30
0.0
40
0.300000
50
90.000000
51
120.000000
0
LINE
8
0
10
103.581636
20
13.100000
30
0.0
11
116.501251
21
13.100000
31
0.0
0
ARC
8
0
10
116.501251
20
13.600000
30
0.0
40
0.500000
50
270.000000
51
0.000000
0
LINE
8
0
10
117.001251
20
13.600000
30
0.0
11
117.001251
21
14.500000
31
0.0
0
ARC
8
0
10
117.501251
20
14.500000
30
0.0
40
0.500000
50
90.000000
51
180.000000
0
LINE
8
0
10
117.501251
20
15.000000
30
0.0
11
120.270075
21
15.000000
31
0.0
0
ARC
8
0
10
120.270075
20
14.700000
30
0.0
40
0.300000
50
70.221829
51
90.000000
0
LINE
8
0
10
120.371589
20
14.982303
30
0.0
11
121.673478
21
14.514154
31
0.0
0
ARC
8
0
10
121.752997
20
14.735291
30
0.0
40
0.235000
50
250.221829
51
336.000000
0
ARC
8
0
10
122.188932
20
14.558878
30
0.0
40
0.235000
50
90.000000
51
156.000000
0
LINE
8
0
10
122.187375
20
14.793873
30
0.0
11
123.766303
21
14.804330
31
0.0
0
ARC
8
0
10
123.768290
20
14.504336
30
0.0
40
0.300000
50
335.379459
51
90.000000
0
LINE
8
0
10
124.041016
20
14.379354
30
0.0
11
123.092366
21
12.273839
31
0.0
0
ARC
8
0
10
122.818847
20
12.397075
30
0.0
40
0.300000
50
295.379459
51
335.745828
0
LINE
8
0
10
122.947430
20
12.126028
30
0.0
11
122.440007
21
11.885309
31
0.0
0
ARC
8
0
10
122.354285
20
12.066007
30
0.0
40
0.200000
50
175.379459
51
295.379459
0
LINE
8
0
10
122.154935
20
12.082118
30
0.0
11
122.164237
21
12.197213
31
0.0
0
ARC
8
0
10
121.865212
20
12.221380
30
0.0
40
0.300000
50
355.379459
51
55.379459
0
LINE
8
0
10
122.035653
20
12.468259
30
0.0
11
120.406897
21
13.592725
31
0.0
0
LINE
8
0
10
120.406897
20
13.592725
30
0.0
11
120.224188
21
13.674073
31
0.0
0
ARC
8
0
10
120.102186
20
13.399990
30
0.0
40
0.300009
50
66.004713
51
228.187329
0
ARC
8
0
10
119.702161
20
12.952786
30
0.0
40
0.300000
50
0.000000
51
48.187329
0
LINE
8
0
10
120.002161
20
12.952786
30
0.0
11
120.002161
21
9.100000
31
0.0
0
ARC
8
0
10
120.302161
20
9.100000
30
0.0
40
0.300000
50
180.000000
51
270.000000
0
LINE
8
0
10
120.302161
20
8.800000
30
0.0
11
120.523354
21
8.800000
31
0.0
0
ARC
8
0
10
120.523354
20
9.100000
30
0.0
40
0.300000
50
270.000000
51
301.400000
0
LINE
8
0
10
120.679657
20
8.843934
30
0.0
11
122.197959
21
9.770710
31
0.0
0
ARC
8
0
10
122.302161
20
9.600000
30
0.0
40
0.200000
50
0.000000
51
121.400000
0
LINE
8
0
10
122.502161
20
9.600000
30
0.0
11
122.502161
21
5.400000
31
0.0
0
ARC
8
0
10
122.302161
20
5.400000
30
0.0
40
0.200000
50
238.600000
51
0.000000
0
LINE
8
0
10
122.197959
20
5.229290
30
0.0
11
120.679657
21
6.156065
31
0.0
0
ARC
8
0
10
120.523354
20
5.900000
30
0.0
40
0.300000
50
58.600000
51
90.000000
0
LINE
8
0
10
120.523354
20
6.200000
30
0.0
11
120.302161
21
6.200000
31
0.0
0
ARC
8
0
10
120.302161
20
5.900000
30
0.0
40
0.300000
50
90.000000
51
180.000000
0
LINE
8
0
10
120.002161
20
5.900000
30
0.0
11
120.002161
21
2.047213
31
0.0
0
ARC
8
0
10
119.702161
20
2.047213
30
0.0
40
0.300000
50
311.812671
51
0.000000
0
ARC
8
0
10
120.102186
20
1.600009
30
0.0
40
0.300009
50
131.812671
51
293.995287
0
LINE
8
0
10
120.224188
20
1.325927
30
0.0
11
120.406897
21
1.407274
31
0.0
0
LINE
8
0
10
120.406897
20
1.407274
30
0.0
11
122.035653
21
2.531740
31
0.0
0
ARC
8
0
10
121.865212
20
2.778620
30
0.0
40
0.300000
50
304.620541
51
4.620541
0
LINE
8
0
10
122.164237
20
2.802787
30
0.0
11
122.154935
21
2.917882
31
0.0
0
ARC
8
0
10
122.354285
20
2.933993
30
0.0
40
0.200000
50
64.620541
51
184.620541
0
LINE
8
0
10
122.440007
20
3.114691
30
0.0
11
122.947430
21
2.873971
31
0.0
0
ARC
8
0
10
122.818847
20
2.602925
30
0.0
40
0.300000
50
24.254172
51
64.620541
0
LINE
8
0
10
123.092366
20
2.726160
30
0.0
11
124.041016
21
0.620645
31
0.0
0
ARC
8
0
10
123.768290
20
0.495663
30
0.0
40
0.300000
50
270.000000
51
24.620541
0
LINE
8
0
10
123.766303
20
0.195670
30
0.0
11
122.187375
21
0.206127
31
0.0
0
ARC
8
0
10
122.188932
20
0.441122
30
0.0
40
0.235000
50
204.000000
51
270.000000
0
ARC
8
0
10
121.752997
20
0.264708
30
0.0
40
0.235000
50
24.000000
51
109.778171
0
LINE
8
0
10
121.673478
20
0.485845
30
0.0
11
120.371589
21
0.017697
31
0.0
0
ARC
8
0
10
120.270075
20
0.300000
30
0.0
40
0.300000
50
270.000000
51
289.778171
0
LINE
8
0
10
120.270075
20
0.000000
30
0.0
11
118.702136
21
0.000000
31
0.0
0
ARC
8
0
10
118.702136
20
0.500000
30
0.0
40
0.500000
50
180.000000
51
270.000000
0
LINE
8
0
10
118.202136
20
0.500000
30
0.0
11
118.202136
21
0.900000
31
0.0
0
ARC
8
0
10
117.702136
20
0.900000
30
0.0
40
0.500000
50
0.000000
51
90.000000
0
LINE
8
0
10
117.702136
20
1.400000
30
0.0
11
115.201667
21
1.400000
31
0.0
0
ARC
8
0
10
115.201667
20
1.900000
30
0.0
40
0.500000
50
180.000000
51
270.000000
0
LINE
8
0
10
114.701667
20
1.900000
30
0.0
11
114.701667
21
2.300000
31
0.0
0
ARC
8
0
10
115.201667
20
2.300000
30
0.0
40
0.500000
50
90.000000
51
180.000000
0
LINE
8
0
10
115.201667
20
2.800000
30
0.0
11
116.901667
21
2.800000
31
0.0
0
ARC
8
0
10
116.901667
20
3.300000
30
0.0
40
0.500000
50
270.000000
51
0.000000
0
LINE
8
0
10
117.401667
20
3.300000
30
0.0
11
117.401667
21
4.600000
31
0.0
0
ARC
8
0
10
116.901667
20
4.600000
30
0.0
40
0.500000
50
0.000000
51
90.000000
0
LINE
8
0
10
116.901667
20
5.100000
30
0.0
11
109.825515
21
5.100000
31
0.0
0
ARC
8
0
10
109.825515
20
5.400000
30
0.0
40
0.300000
50
225.000000
51
270.000000
0
LINE
8
0
10
109.613383
20
5.187868
30
0.0
11
108.913383
21
5.887868
31
0.0
0
ARC
8
0
10
108.701251
20
5.675736
30
0.0
40
0.300000
50
45.000000
51
135.000000
0
LINE
8
0
10
108.489119
20
5.887868
30
0.0
11
107.789119
21
5.187868
31
0.0
0
ARC
8
0
10
107.576987
20
5.400000
30
0.0
40
0.300000
50
270.000000
51
315.000000
0
LINE
8
0
10
107.576987
20
5.100000
30
0.0
11
103.581636
21
5.100000
31
0.0
0
ARC
8
0
10
103.581636
20
5.400000
30
0.0
40
0.300000
50
240.000000
51
270.000000
0
LINE
8
0
10
103.431636
20
5.140192
30
0.0
11
101.651251
21
6.168098
31
0.0
0
ARC
8
0
10
101.801251
20
6.427905
30
0.0
40
0.300000
50
180.000000
51
240.000000
0
LINE
8
0
10
101.501251
20
6.427905
30
0.0
11
101.501251
21
11.772094
31
0.0
0
ARC
8
0
10
101.801251
20
11.772094
30
0.0
40
0.300000
50
120.000000
51
180.000000
0
LINE
8
0
10
101.651251
20
12.031902
30
0.0
11
103.431636
21
13.059807
31
0.0
0
LINE
8
0
10
152.452136
20
12.984687
30
0.0
11
142.552136
21
12.984687
31
0.0
0
ARC
8
0
10
142.552136
20
12.684687
30
0.0
40
0.300000
50
90.000000
51
180.000000
0
LINE
8
0
10
142.252136
20
12.684687
30
0.0
11
142.252136
21
8.884687
31
0.0
0
ARC
8
0
10
141.752136
20
8.884687
30
0.0
40
0.500000
50
180.000000
51
0.000000
0
LINE
8
0
10
141.252136
20
8.884687
30
0.0
11
141.252136
21
12.684687
31
0.0
0
ARC
8
0
10
140.952136
20
12.684687
30
0.0
40
0.300000
50
0.000000
51
90.000000
0
LINE
8
0
10
140.952136
20
12.984687
30
0.0
11
131.052136
21
12.984687
31
0.0
0
ARC
8
0
10
131.052136
20
12.684687
30
0.0
40
0.300000
50
90.000000
51
180.000000
0
LINE
8
0
10
130.752136
20
12.684687
30
0.0
11
130.752136
21
8.884687
31
0.0
0
ARC
8
0
10
130.252136
20
8.884687
30
0.0
40
0.500000
50
180.000000
51
0.000000
0
LINE
8
0
10
129.752136
20
8.884687
30
0.0
11
129.752136
21
12.684687
31
0.0
0
ARC
8
0
10
129.452136
20
12.684687
30
0.0
40
0.300000
50
0.000000
51
90.000000
0
LINE
8
0
10
129.452136
20
12.984687
30
0.0
11
127.147466
21
12.984687
31
0.0
0
ARC
8
0
10
127.147466
20
11.984687
30
0.0
40
1.000000
50
90.000000
51
144.745828
0
LINE
8
0
10
126.330867
20
12.561891
30
0.0
11
124.808046
21
10.407482
31
0.0
0
ARC
8
0
10
123.991446
20
10.984687
30
0.0
40
1.000000
50
270.000000
51
324.745828
0
LINE
8
0
10
123.991446
20
9.984687
30
0.0
11
122.890136
21
9.984687
31
0.0
0
ARC
8
0
10
122.890136
20
8.784687
30
0.0
40
1.200000
50
90.000000
51
119.981639
0
LINE
8
0
10
122.290469
20
9.824109
30
0.0
11
120.708525
21
8.911450
31
0.0
0
ARC
8
0
10
120.608581
20
9.084687
30
0.0
40
0.200000
50
270.000000
51
299.981639
0
LINE
8
0
10
120.608581
20
8.884687
30
0.0
11
120.402136
21
8.884687
31
0.0
0
ARC
8
0
10
120.402136
20
9.284687
30
0.0
40
0.400000
50
180.000000
51
270.000000
0
LINE
8
0
10
120.002136
20
9.284687
30
0.0
11
120.002136
21
12.684687
31
0.0
0
ARC
8
0
10
120.402136
20
12.684687
30
0.0
40
0.400000
50
90.000000
51
180.000000
0
LINE
8
0
10
120.402136
20
13.084687
30
0.0
11
120.608581
21
13.084687
31
0.0
0
ARC
8
0
10
120.608581
20
12.884687
30
0.0
40
0.200000
50
60.018361
51
90.000000
0
LINE
8
0
10
120.708525
20
13.057924
30
0.0
11
122.290469
21
12.145264
31
0.0
0
ARC
8
0
10
122.890136
20
13.184687
30
0.0
40
1.200000
50
240.018361
51
270.000000
0
LINE
8
0
10
122.890136
20
11.984687
30
0.0
11
123.318370
21
11.984687
31
0.0
0
ARC
8
0
10
123.318370
20
12.284687
30
0.0
40
0.300000
50
270.000000
51
324.745828
0
LINE
8
0
10
123.563350
20
12.111525
30
0.0
11
125.444789
21
14.773289
31
0.0
0
ARC
8
0
10
125.853089
20
14.484687
30
0.0
40
0.500000
50
90.000000
51
144.745828
0
LINE
8
0
10
125.853089
20
14.984687
30
0.0
11
169.151184
21
14.984687
31
0.0
0
ARC
8
0
10
169.151184
20
14.484687
30
0.0
40
0.500000
50
35.254172
51
90.000000
0
LINE
8
0
10
169.559483
20
14.773289
30
0.0
11
171.440923
21
12.111525
31
0.0
0
ARC
8
0
10
171.685903
20
12.284687
30
0.0
40
0.300000
50
215.254172
51
270.000000
0
LINE
8
0
10
171.685903
20
11.984687
30
0.0
11
172.114137
21
11.984687
31
0.0
0
ARC
8
0
10
172.114137
20
13.184687
30
0.0
40
1.200000
50
270.000000
51
299.981639
0
LINE
8
0
10
172.713803
20
12.145264
30
0.0
11
174.295747
21
13.057924
31
0.0
0
ARC
8
0
10
174.395692
20
12.884687
30
0.0
40
0.200000
50
90.000000
51
119.981639
0
LINE
8
0
10
174.395692
20
13.084687
30
0.0
11
174.602136
21
13.084687
31
0.0
0
ARC
8
0
10
174.602136
20
12.684687
30
0.0
40
0.400000
50
0.000000
51
90.000000
0
LINE
8
0
10
175.002136
20
12.684687
30
0.0
11
175.002136
21
9.284687
31
0.0
0
ARC
8
0
10
174.602136
20
9.284687
30
0.0
40
0.400000
50
270.000000
51
0.000000
0
LINE
8
0
10
174.602136
20
8.884687
30
0.0
11
174.395692
21
8.884687
31
0.0
0
ARC
8
0
10
174.395692
20
9.084687
30
0.0
40
0.200000
50
240.018361
51
270.000000
0
LINE
8
0
10
174.295747
20
8.911450
30
0.0
11
172.713803
21
9.824109
31
0.0
0
ARC
8
0
10
172.114137
20
8.784687
30
0.0
40
1.200000
50
60.018361
51
90.000000
0
LINE
8
0
10
172.114137
20
9.984687
30
0.0
11
171.012826
21
9.984687
31
0.0
0
ARC
8
0
10
171.012826
20
10.984687
30
0.0
40
1.000000
50
215.254172
51
270.000000
0
LINE
8
0
10
170.196227
20
10.407482
30
0.0
11
168.673405
21
12.561891
31
0.0
0
ARC
8
0
10
167.856806
20
11.984687
30
0.0
40
1.000000
50
35.254172
51
90.000000
0
LINE
8
0
10
167.856806
20
12.984687
30
0.0
11
165.552136
21
12.984687
31
0.0
0
ARC
8
0
10
165.552136
20
12.684687
30
0.0
40
0.300000
50
90.000000
51
180.000000
0
LINE
8
0
10
165.252136
20
12.684687
30
0.0
11
165.252136
21
8.884687
31
0.0
0
ARC
8
0
10
164.752136
20
8.884687
30
0.0
40
0.500000
50
180.000000
51
0.000000
0
LINE
8
0
10
164.252136
20
8.884687
30
0.0
11
164.252136
21
12.684687
31
0.0
0
ARC
8
0
10
163.952136
20
12.684687
30
0.0
40
0.300000
50
0.000000
51
90.000000
0
LINE
8
0
10
163.952136
20
12.984687
30
0.0
11
154.052136
21
12.984687
31
0.0
0
ARC
8
0
10
154.052136
20
12.684687
30
0.0
40
0.300000
50
90.000000
51
180.000000
0
LINE
8
0
10
153.752136
20
12.684687
30
0.0
11
153.752136
21
8.884687
31
0.0
0
ARC
8
0
10
153.252136
20
8.884687
30
0.0
40
0.500000
50
180.000000
51
0.000000
0
LINE
8
0
10
152.752136
20
8.884687
30
0.0
11
152.752136
21
12.684687
31
0.0
0
ARC
8
0
10
152.452136
20
12.684687
30
0.0
40
0.300000
50
0.000000
51
90.000000
0
LINE
8
0
10
152.452136
20
2.015313
30
0.0
11
142.552136
21
2.015313
31
0.0
0
ARC
8
0
10
142.552136
20
2.315313
30
0.0
40
0.300000
50
180.000000
51
270.000000
0
LINE
8
0
10
142.252136
20
2.315313
30
0.0
11
142.252136
21
6.115313
31
0.0
0
ARC
8
0
10
141.752136
20
6.115313
30
0.0
40
0.500000
50
0.000000
51
180.000000
0
LINE
8
0
10
141.252136
20
6.115313
30
0.0
11
141.252136
21
2.315313
31
0.0
0
ARC
8
0
10
140.952136
20
2.315313
30
0.0
40
0.300000
50
270.000000
51
0.000000
0
LINE
8
0
10
140.952136
20
2.015313
30
0.0
11
131.052136
21
2.015313
31
0.0
0
ARC
8
0
10
131.052136
20
2.315313
30
0.0
40
0.300000
50
180.000000
51
270.000000
0
LINE
8
0
10
130.752136
20
2.315313
30
0.0
11
130.752136
21
6.115313
31
0.0
0
ARC
8
0
10
130.252136
20
6.115313
30
0.0
40
0.500000
50
0.000000
51
180.000000
0
LINE
8
0
10
129.752136
20
6.115313
30
0.0
11
129.752136
21
2.315313
31
0.0
0
ARC
8
0
10
129.452136
20
2.315313
30
0.0
40
0.300000
50
270.000000
51
0.000000
0
LINE
8
0
10
129.452136
20
2.015313
30
0.0
11
127.147466
21
2.015313
31
0.0
0
ARC
8
0
10
127.147466
20
3.015313
30
0.0
40
1.000000
50
215.254172
51
270.000000
0
LINE
8
0
10
126.330867
20
2.438108
30
0.0
11
124.808046
21
4.592517
31
0.0
0
ARC
8
0
10
123.991446
20
4.015313
30
0.0
40
1.000000
50
35.254172
51
90.000000
0
LINE
8
0
10
123.991446
20
5.015313
30
0.0
11
122.890136
21
5.015313
31
0.0
0
ARC
8
0
10
122.890136
20
6.215313
30
0.0
40
1.200000
50
240.018361
51
270.000000
0
LINE
8
0
10
122.290469
20
5.175890
30
0.0
11
120.708525
21
6.088550
31
0.0
0
ARC
8
0
10
120.608581
20
5.915313
30
0.0
40
0.200000
50
60.018361
51
90.000000
0
LINE
8
0
10
120.608581
20
6.115313
30
0.0
11
120.402136
21
6.115313
31
0.0
0
ARC
8
0
10
120.402136
20
5.715313
30
0.0
40
0.400000
50
90.000000
51
180.000000
0
LINE
8
0
10
120.002136
20
5.715313
30
0.0
11
120.002136
21
2.315313
31
0.0
0
ARC
8
0
10
120.402136
20
2.315313
30
0.0
40
0.400000
50
180.000000
51
270.000000
0
LINE
8
0
10
120.402136
20
1.915313
30
0.0
11
120.608581
21
1.915313
31
0.0
0
ARC
8
0
10
120.608581
20
2.115313
30
0.0
40
0.200000
50
270.000000
51
299.981639
0
LINE
8
0
10
120.708525
20
1.942076
30
0.0
11
122.290469
21
2.854735
31
0.0
0
ARC
8
0
10
122.890136
20
1.815313
30
0.0
40
1.200000
50
90.000000
51
119.981639
0
LINE
8
0
10
122.890136
20
3.015313
30
0.0
11
123.318370
21
3.015313
31
0.0
0
ARC
8
0
10
123.318370
20
2.715313
30
0.0
40
0.300000
50
35.254172
51
90.000000
0
LINE
8
0
10
123.563350
20
2.888474
30
0.0
11
125.444789
21
0.226710
31
0.0
0
ARC
8
0
10
125.853089
20
0.515313
30
0.0
40
0.500000
50
215.254172
51
270.000000
0
LINE
8
0
10
125.853089
20
0.015313
30
0.0
11
169.151184
21
0.015313
31
0.0
0
ARC
8
0
10
169.151184
20
0.515313
30
0.0
40
0.500000
50
270.000000
51
324.745828
0
LINE
8
0
10
169.559483
20
0.226710
30
0.0
11
171.440923
21
2.888474
31
0.0
0
ARC
8
0
10
171.685903
20
2.715313
30
0.0
40
0.300000
50
90.000000
51
144.745828
0
LINE
8
0
10
171.685903
20
3.015313
30
0.0
11
172.114137
21
3.015313
31
0.0
0
ARC
8
0
10
172.114137
20
1.815313
30
0.0
40
1.200000
50
60.018361
51
90.000000
0
LINE
8
0
10
172.713803
20
2.854735
30
0.0
11
174.295747
21
1.942076
31
0.0
0
ARC
8
0
10
174.395692
20
2.115313
30
0.0
40
0.200000
50
240.018361
51
270.000000
0
LINE
8
0
10
174.395692
20
1.915313
30
0.0
11
174.602136
21
1.915313
31
0.0
0
ARC
8
0
10
174.602136
20
2.315313
30
0.0
40
0.400000
50
270.000000
51
0.000000
0
LINE
8
0
10
175.002136
20
2.315313
30
0.0
11
175.002136
21
5.715313
31
0.0
0
ARC
8
0
10
174.602136
20
5.715313
30
0.0
40
0.400000
50
0.000000
51
90.000000
0
LINE
8
0
10
174.602136
20
6.115313
30
0.0
11
174.395692
21
6.115313
31
0.0
0
ARC
8
0
10
174.395692
20
5.915313
30
0.0
40
0.200000
50
90.000000
51
119.981639
0
LINE
8
0
10
174.295747
20
6.088550
30
0.0
11
172.713803
21
5.175890
31
0.0
0
ARC
8
0
10
172.114137
20
6.215313
30
0.0
40
1.200000
50
270.000000
51
299.981639
0
LINE
8
0
10
172.114137
20
5.015313
30
0.0
11
171.012826
21
5.015313
31
0.0
0
ARC
8
0
10
171.012826
20
4.015313
30
0.0
40
1.000000
50
90.000000
51
144.745828
0
LINE
8
0
10
170.196227
20
4.592517
30
0.0
11
168.673405
21
2.438108
31
0.0
0
ARC
8
0
10
167.856806
20
3.015313
30
0.0
40
1.000000
50
270.000000
51
324.745828
0
LINE
8
0
10
167.856806
20
2.015313
30
0.0
11
165.552136
21
2.015313
31
0.0
0
ARC
8
0
10
165.552136
20
2.315313
30
0.0
40
0.300000
50
180.000000
51
270.000000
0
LINE
8
0
10
165.252136
20
2.315313
30
0.0
11
165.252136
21
6.115313
31
0.0
0
ARC
8
0
10
164.752136
20
6.115313
30
0.0
40
0.500000
50
0.000000
51
180.000000
0
LINE
8
0
10
164.252136
20
6.115313
30
0.0
11
164.252136
21
2.315313
31
0.0
0
ARC
8
0
10
163.952136
20
2.315313
30
0.0
40
0.300000
50
270.000000
51
0.000000
0
LINE
8
0
10
163.952136
20
2.015313
30
0.0
11
154.052136
21
2.015313
31
0.0
0
ARC
8
0
10
154.052136
20
2.315313
30
0.0
40
0.300000
50
180.000000
51
270.000000
0
LINE
8
0
10
153.752136
20
2.315313
30
0.0
11
153.752136
21
6.115313
31
0.0
0
ARC
8
0
10
153.252136
20
6.115313
30
0.0
40
0.500000
50
0.000000
51
180.000000
0
LINE
8
0
10
152.752136
20
6.115313
30
0.0
11
152.752136
21
2.315313
31
0.0
0
ARC
8
0
10
152.452136
20
2.315313
30
0.0
40
0.300000
50
270.000000
51
0.000000
0
ARC
8
0
10
51.300000
20
15.600009
30
0.0
40
0.300000
50
270.000000
51
0.000000
0
LINE
8
0
10
51.600000
20
15.600009
30
0.0
11
51.600000
21
18.600009
31
0.0
0
ARC
8
0
10
52.100000
20
18.600009
30
0.0
40
0.500000
50
90.000000
51
180.000000
0
LINE
8
0
10
52.100000
20
19.100009
30
0.0
11
60.900000
21
19.100009
31
0.0
0
ARC
8
0
10
60.900000
20
18.600009
30
0.0
40
0.500000
50
0.000000
51
90.000000
0
LINE
8
0
10
61.400000
20
18.600009
30
0.0
11
61.400000
21
15.600009
31
0.0
0
ARC
8
0
10
61.700000
20
15.600009
30
0.0
40
0.300000
50
180.000000
51
270.000000
0
LINE
8
0
10
61.700000
20
15.300009
30
0.0
11
62.700000
21
15.300009
31
0.0
0
ARC
8
0
10
62.700000
20
15.600009
30
0.0
40
0.300000
50
270.000000
51
0.000000
0
LINE
8
0
10
63.000000
20
15.600009
30
0.0
11
63.000000
21
18.600009
31
0.0
0
ARC
8
0
10
63.500000
20
18.600009
30
0.0
40
0.500000
50
90.000000
51
180.000000
0
LINE
8
0
10
63.500000
20
19.100009
30
0.0
11
75.900000
21
19.100009
31
0.0
0
ARC
8
0
10
75.900000
20
18.600009
30
0.0
40
0.500000
50
0.000000
51
90.000000
0
LINE
8
0
10
76.400000
20
18.600009
30
0.0
11
76.400000
21
15.600009
31
0.0
0
ARC
8
0
10
76.700000
20
15.600009
30
0.0
40
0.300000
50
180.000000
51
270.000000
0
LINE
8
0
10
76.700000
20
15.300009
30
0.0
11
77.700000
21
15.300009
31
0.0
0
ARC
8
0
10
77.700000
20
15.600009
30
0.0
40
0.300000
50
270.000000
51
0.000000
0
LINE
8
0
10
78.000000
20
15.600009
30
0.0
11
78.000000
21
18.600009
31
0.0
0
ARC
8
0
10
78.500000
20
18.600009
30
0.0
40
0.500000
50
90.000000
51
180.000000
0
LINE
8
0
10
78.500000
20
19.100009
30
0.0
11
87.300000
21
19.100009
31
0.0
0
ARC
8
0
10
87.300000
20
18.600009
30
0.0
40
0.500000
50
0.000000
51
90.000000
0
LINE
8
0
10
87.800000
20
18.600009
30
0.0
11
87.800000
21
15.600009
31
0.0
0
ARC
8
0
10
88.100000
20
15.600009
30
0.0
40
0.300000
50
180.000000
51
270.000000
0
LINE
8
0
10
88.100000
20
15.300009
30
0.0
11
89.100000
21
15.300009
31
0.0
0
ARC
8
0
10
89.100000
20
15.600009
30
0.0
40
0.300000
50
270.000000
51
0.000000
0
LINE
8
0
10
89.400000
20
15.600009
30
0.0
11
89.400000
21
19.600009
31
0.0
0
ARC
8
0
10
90.900000
20
19.600009
30
0.0
40
1.500000
50
90.000000
51
180.000000
0
LINE
8
0
10
90.900000
20
21.100009
30
0.0
11
96.400000
21
21.100009
31
0.0
0
ARC
8
0
10
96.400000
20
21.900009
30
0.0
40
0.800000
50
270.000000
51
0.000000
0
LINE
8
0
10
97.200000
20
21.900009
30
0.0
11
97.200000
21
22.486121
31
0.0
0
ARC
8
0
10
96.200000
20
22.486121
30
0.0
40
1.000000
50
0.000000
51
12.994617
0
LINE
8
0
10
97.174391
20
22.710980
30
0.0
11
95.755897
21
28.857786
31
0.0
0
ARC
8
0
10
96.730289
20
29.082646
30
0.0
40
1.000000
50
165.074419
51
192.994617
0
LINE
8
0
10
95.764027
20
29.340210
30
0.0
11
97.719832
21
36.677478
31
0.0
0
ARC
8
0
10
96.753570
20
36.935042
30
0.0
40
1.000000
50
345.074419
51
0.000000
0
LINE
8
0
10
97.753570
20
36.935042
30
0.0
11
97.753570
21
37.819519
31
0.0
0
ARC
8
0
10
97.453570
20
37.819519
30
0.0
40
0.300000
50
0.000000
51
68.962489
0
LINE
8
0
10
97.561264
20
38.099523
30
0.0
11
97.492306
21
38.126045
31
0.0
0
ARC
8
0
10
97.600000
20
38.406049
30
0.0
40
0.300000
50
180.000000
51
248.962489
0
LINE
8
0
10
97.300000
20
38.406049
30
0.0
11
97.300000
21
40.275745
31
0.0
0
ARC
8
0
10
97.600000
20
40.275745
30
0.0
40
0.300000
50
135.000000
51
180.000000
0
LINE
8
0
10
97.387868
20
40.487877
30
0.0
11
97.812132
21
40.912141
31
0.0
0
ARC
8
0
10
98.024264
20
40.700009
30
0.0
40
0.300000
50
90.000000
51
135.000000
0
LINE
8
0
10
98.024264
20
41.000009
30
0.0
11
98.800000
21
41.000009
31
0.0
0
ARC
8
0
10
98.800000
20
41.300009
30
0.0
40
0.300000
50
270.000000
51
0.000000
0
LINE
8
0
10
99.100000
20
41.300009
30
0.0
11
99.100000
21
43.100009
31
0.0
0
ARC
8
0
10
98.800000
20
43.100009
30
0.0
40
0.300000
50
0.000000
51
90.000000
0
LINE
8
0
10
98.800000
20
43.400009
30
0.0
11
86.900000
21
43.400009
31
0.0
0
ARC
8
0
10
86.900000
20
42.400009
30
0.0
40
1.000000
50
90.000000
51
180.000000
0
LINE
8
0
10
85.900000
20
42.400009
30
0.0
11
85.900000
21
38.014631
31
0.0
0
ARC
8
0
10
86.700000
20
38.014631
30
0.0
40
0.800000
50
180.000000
51
255.068583
0
LINE
8
0
10
86.493870
20
37.241644
30
0.0
11
87.177299
21
37.059396
31
0.0
0
ARC
8
0
10
87.100000
20
36.769525
30
0.0
40
0.300000
50
0.000000
51
75.068583
0
LINE
8
0
10
87.400000
20
36.769525
30
0.0
11
87.400000
21
21.600009
31
0.0
0
ARC
8
0
10
86.900000
20
21.600009
30
0.0
40
0.500000
50
270.000000
51
0.000000
0
LINE
8
0
10
86.900000
20
21.100009
30
0.0
11
52.500000
21
21.100009
31
0.0
0
ARC
8
0
10
52.500000
20
21.600009
30
0.0
40
0.500000
50
180.000000
51
270.000000
0
LINE
8
0
10
52.000000
20
21.600009
30
0.0
11
52.000000
21
36.769525
31
0.0
0
ARC
8
0
10
52.300000
20
36.769525
30
0.0
40
0.300000
50
104.931417
51
180.000000
0
LINE
8
0
10
52.222701
20
37.059396
30
0.0
11
52.906130
21
37.241644
31
0.0
0
ARC
8
0
10
52.700000
20
38.014631
30
0.0
40
0.800000
50
284.931417
51
0.000000
0
LINE
8
0
10
53.500000
20
38.014631
30
0.0
11
53.500000
21
42.400009
31
0.0
0
ARC
8
0
10
52.500000
20
42.400009
30
0.0
40
1.000000
50
0.000000
51
90.000000
0
LINE
8
0
10
52.500000
20
43.400009
30
0.0
11
40.600000
21
43.400009
31
0.0
0
ARC
8
0
10
40.600000
20
43.100009
30
0.0
40
0.300000
50
90.000000
51
180.000000
0
LINE
8
0
10
40.300000
20
43.100009
30
0.0
11
40.300000
21
41.300009
31
0.0
0
ARC
8
0
10
40.600000
20
41.300009
30
0.0
40
0.300000
50
180.000000
51
270.000000
0
LINE
8
0
10
40.600000
20
41.000009
30
0.0
11
41.375736
21
41.000009
31
0.0
0
ARC
8
0
10
41.375736
20
40.700009
30
0.0
40
0.300000
50
45.000000
51
90.000000
0
LINE
8
0
10
41.587868
20
40.912141
30
0.0
11
42.012132
21
40.487877
31
0.0
0
ARC
8
0
10
41.800000
20
40.275745
30
0.0
40
0.300000
50
0.000000
51
45.000000
0
LINE
8
0
10
42.100000
20
40.275745
30
0.0
11
42.100000
21
38.406049
31
0.0
0
ARC
8
0
10
41.800000
20
38.406049
30
0.0
40
0.300000
50
291.037511
51
0.000000
0
LINE
8
0
10
41.907694
20
38.126045
30
0.0
11
41.838736
21
38.099523
31
0.0
0
ARC
8
0
10
41.946429
20
37.819519
30
0.0
40
0.300000
50
111.037511
51
180.000000
0
LINE
8
0
10
41.646429
20
37.819519
30
0.0
11
41.646429
21
36.935042
31
0.0
0
ARC
8
0
10
42.646429
20
36.935042
30
0.0
40
1.000000
50
180.000000
51
194.925581
0
LINE
8
0
10
41.680168
20
36.677478
30
0.0
11
43.635972
21
29.340210
31
0.0
0
ARC
8
0
10
42.669711
20
29.082646
30
0.0
40
1.000000
50
347.005383
51
14.925581
0
LINE
8
0
10
43.644102
20
28.857786
30
0.0
11
42.225609
21
22.710980
31
0.0
0
ARC
8
0
10
43.200000
20
22.486121
30
0.0
40
1.000000
50
167.005383
51
180.000000
0
LINE
8
0
10
42.200000
20
22.486121
30
0.0
11
42.200000
21
21.900009
31
0.0
0
ARC
8
0
10
43.000000
20
21.900009
30
0.0
40
0.800000
50
180.000000
51
270.000000
0
LINE
8
0
10
43.000000
20
21.100009
30
0.0
11
48.500000
21
21.100009
31
0.0
0
ARC
8
0
10
48.500000
20
19.600009
30
0.0
40
1.500000
50
0.000000
51
90.000000
0
LINE
8
0
10
50.000000
20
19.600009
30
0.0
11
50.000000
21
15.600009
31
0.0
0
ARC
8
0
10
50.300000
20
15.600009
30
0.0
40
0.300000
50
180.000000
51
270.000000
0
LINE
8
0
10
50.300000
20
15.300009
30
0.0
11
51.300000
21
15.300009
31
0.0
0
LINE
8
0
10
43.572868
20
23.212439
30
0.0
11
44.880449
21
28.878622
31
0.0
0
ARC
8
0
10
43.906058
20
29.103481
30
0.0
40
1.000000
50
347.005383
51
14.925581
0
LINE
8
0
10
44.872319
20
29.361046
30
0.0
11
42.857116
21
36.921151
31
0.0
0
ARC
8
0
10
43.146994
20
36.998420
30
0.0
40
0.300000
50
115.705312
51
194.925581
0
ARC
8
0
10
42.800000
20
37.719249
30
0.0
40
0.500000
50
295.705312
51
0.000000
0
LINE
8
0
10
43.300000
20
37.719249
30
0.0
11
43.300000
21
40.651677
31
0.0
0
ARC
8
0
10
43.000000
20
40.651677
30
0.0
40
0.300000
50
0.000000
51
56.251011
0
ARC
8
0
10
43.500000
20
41.400009
30
0.0
40
0.600000
50
33.748989
51
236.251011
0
ARC
8
0
10
44.248331
20
41.900009
30
0.0
40
0.300000
50
213.748989
51
270.000000
0
LINE
8
0
10
44.248331
20
41.600009
30
0.0
11
51.200000
21
41.600009
31
0.0
0
ARC
8
0
10
51.200000
20
41.100009
30
0.0
40
0.500000
50
0.000000
51
90.000000
0
LINE
8
0
10
51.700000
20
41.100009
30
0.0
11
51.700000
21
39.167049
31
0.0
0
ARC
8
0
10
51.200000
20
39.167049
30
0.0
40
0.500000
50
284.931417
51
0.000000
0
LINE
8
0
10
51.328831
20
38.683931
30
0.0
11
50.771169
21
38.535221
31
0.0
0
ARC
8
0
10
50.900000
20
38.052104
30
0.0
40
0.500000
50
104.931417
51
180.000000
0
LINE
8
0
10
50.400000
20
38.052104
30
0.0
11
50.400000
21
23.100009
31
0.0
0
ARC
8
0
10
49.900000
20
23.100009
30
0.0
40
0.500000
50
270.000000
51
0.000000
0
LINE
8
0
10
49.900000
20
22.600009
30
0.0
11
44.060064
21
22.600009
31
0.0
0
ARC
8
0
10
44.060064
20
23.100009
30
0.0
40
0.500000
50
167.005383
51
270.000000
0
LINE
8
0
10
94.527681
20
29.361046
30
0.0
11
96.542884
21
36.921151
31
0.0
0
ARC
8
0
10
96.253006
20
36.998420
30
0.0
40
0.300000
50
345.074419
51
64.294688
0
ARC
8
0
10
96.600000
20
37.719249
30
0.0
40
0.500000
50
180.000000
51
244.294688
0
LINE
8
0
10
96.100000
20
37.719249
30
0.0
11
96.100000
21
40.651677
31
0.0
0
ARC
8
0
10
96.400000
20
40.651677
30
0.0
40
0.300000
50
123.748989
51
180.000000
0
ARC
8
0
10
95.900000
20
41.400009
30
0.0
40
0.600000
50
303.748989
51
146.251011
0
ARC
8
0
10
95.151668
20
41.900009
30
0.0
40
0.300000
50
270.000000
51
326.251011
0
LINE
8
0
10
95.151668
20
41.600009
30
0.0
11
88.200000
21
41.600009
31
0.0
0
ARC
8
0
10
88.200000
20
41.100009
30
0.0
40
0.500000
50
90.000000
51
180.000000
0
LINE
8
0
10
87.700000
20
41.100009
30
0.0
11
87.700000
21
39.167049
31
0.0
0
ARC
8
0
10
88.200000
20
39.167049
30
0.0
40
0.500000
50
180.000000
51
255.068583
0
LINE
8
0
10
88.071169
20
38.683931
30
0.0
11
88.628831
21
38.535221
31
0.0
0
ARC
8
0
10
88.500000
20
38.052104
30
0.0
40
0.500000
50
0.000000
51
75.068583
0
LINE
8
0
10
89.000000
20
38.052104
30
0.0
11
89.000000
21
23.100009
31
0.0
0
ARC
8
0
10
89.500000
20
23.100009
30
0.0
40
0.500000
50
180.000000
51
270.000000
0
LINE
8
0
10
89.500000
20
22.600009
30
0.0
11
95.339936
21
22.600009
31
0.0
0
ARC
8
0
10
95.339936
20
23.100009
30
0.0
40
0.500000
50
270.000000
51
12.994617
0
LINE
8
0
10
95.827132
20
23.212439
30
0.0
11
94.519551
21
28.878622
31
0.0
0
ARC
8
0
10
95.493942
20
29.103481
30
0.0
40
1.000000
50
165.074419
51
192.994617
0
ARC
8
0
10
129.152136
20
15.600009
30
0.0
40
0.300000
50
270.000000
51
0.000000
0
LINE
8
0
10
129.452136
20
15.600009
30
0.0
11
129.452136
21
18.600009
31
0.0
0
ARC
8
0
10
129.952136
20
18.600009
30
0.0
40
0.500000
50
90.000000
51
180.000000
0
LINE
8
0
10
129.952136
20
19.100009
30
0.0
11
138.752136
21
19.100009
31
0.0
0
ARC
8
0
10
138.752136
20
18.600009
30
0.0
40
0.500000
50
0.000000
51
90.000000
0
LINE
8
0
10
139.252136
20
18.600009
30
0.0
11
139.252136
21
15.600009
31
0.0
0
ARC
8
0
10
139.552136
20
15.600009
30
0.0
40
0.300000
50
180.000000
51
270.000000
0
LINE
8
0
10
139.552136
20
15.300009
30
0.0
11
140.552136
21
15.300009
31
0.0
0
ARC
8
0
10
140.552136
20
15.600009
30
0.0
40
0.300000
50
270.000000
51
0.000000
0
LINE
8
0
10
140.852136
20
15.600009
30
0.0
11
140.852136
21
18.600009
31
0.0
0
ARC
8
0
10
141.352136
20
18.600009
30
0.0
40
0.500000
50
90.000000
51
180.000000
0
LINE
8
0
10
141.352136
20
19.100009
30
0.0
11
153.752136
21
19.100009
31
0.0
0
ARC
8
0
10
153.752136
20
18.600009
30
0.0
40
0.500000
50
0.000000
51
90.000000
0
LINE
8
0
10
154.252136
20
18.600009
30
0.0
11
154.252136
21
15.600009
31
0.0
0
ARC
8
0
10
154.552136
20
15.600009
30
0.0
40
0.300000
50
180.000000
51
270.000000
0
LINE
8
0
10
154.552136
20
15.300009
30
0.0
11
155.552136
21
15.300009
31
0.0
0
ARC
8
0
10
155.552136
20
15.600009
30
0.0
40
0.300000
50
270.000000
51
0.000000
0
LINE
8
0
10
155.852136
20
15.600009
30
0.0
11
155.852136
21
18.600009
31
0.0
0
ARC
8
0
10
156.352136
20
18.600009
30
0.0
40
0.500000
50
90.000000
51
180.000000
0
LINE
8
0
10
156.352136
20
19.100009
30
0.0
11
165.152136
21
19.100009
31
0.0
0
ARC
8
0
10
165.152136
20
18.600009
30
0.0
40
0.500000
50
0.000000
51
90.000000
0
LINE
8
0
10
165.652136
20
18.600009
30
0.0
11
165.652136
21
15.600009
31
0.0
0
ARC
8
0
10
165.952136
20
15.600009
30
0.0
40
0.300000
50
180.000000
51
270.000000
0
LINE
8
0
10
165.952136
20
15.300009
30
0.0
11
166.952136
21
15.300009
31
0.0
0
ARC
8
0
10
166.952136
20
15.600009
30
0.0
40
0.300000
50
270.000000
51
0.000000
0
LINE
8
0
10
167.252136
20
15.600009
30
0.0
11
167.252136
21
19.600009
31
0.0
0
ARC
8
0
10
168.752136
20
19.600009
30
0.0
40
1.500000
50
90.000000
51
180.000000
0
LINE
8
0
10
168.752136
20
21.100009
30
0.0
11
174.252136
21
21.100009
31
0.0
0
ARC
8
0
10
174.252136
20
21.900009
30
0.0
40
0.800000
50
270.000000
51
0.000000
0
LINE
8
0
10
175.052136
20
21.900009
30
0.0
11
175.052136
21
22.486121
31
0.0
0
ARC
8
0
10
174.052136
20
22.486121
30
0.0
40
1.000000
50
0.000000
51
12.994617
0
LINE
8
0
10
175.026527
20
22.710980
30
0.0
11
173.608033
21
28.857786
31
0.0
0
ARC
8
0
10
174.582425
20
29.082646
30
0.0
40
1.000000
50
165.074419
51
192.994617
0
LINE
8
0
10
173.616163
20
29.340210
30
0.0
11
175.571968
21
36.677478
31
0.0
0
ARC
8
0
10
174.605706
20
36.935042
30
0.0
40
1.000000
50
345.074419
51
0.000000
0
LINE
8
0
10
175.605706
20
36.935042
30
0.0
11
175.605706
21
37.819519
31
0.0
0
ARC
8
0
10
175.305706
20
37.819519
30
0.0
40
0.300000
50
0.000000
51
68.962489
0
LINE
8
0
10
175.413400
20
38.099523
30
0.0
11
175.344442
21
38.126045
31
0.0
0
ARC
8
0
10
175.452136
20
38.406049
30
0.0
40
0.300000
50
180.000000
51
248.962489
0
LINE
8
0
10
175.152136
20
38.406049
30
0.0
11
175.152136
21
40.275745
31
0.0
0
ARC
8
0
10
175.452136
20
40.275745
30
0.0
40
0.300000
50
135.000000
51
180.000000
0
LINE
8
0
10
175.240004
20
40.487877
30
0.0
11
175.664268
21
40.912141
31
0.0
0
ARC
8
0
10
175.876400
20
40.700009
30
0.0
40
0.300000
50
90.000000
51
135.000000
0
LINE
8
0
10
175.876400
20
41.000009
30
0.0
11
176.652136
21
41.000009
31
0.0
0
ARC
8
0
10
176.652136
20
41.300009
30
0.0
40
0.300000
50
270.000000
51
0.000000
0
LINE
8
0
10
176.952136
20
41.300009
30
0.0
11
176.952136
21
43.100009
31
0.0
0
ARC
8
0
10
176.652136
20
43.100009
30
0.0
40
0.300000
50
0.000000
51
90.000000
0
LINE
8
0
10
176.652136
20
43.400009
30
0.0
11
164.752136
21
43.400009
31
0.0
0
ARC
8
0
10
164.752136
20
42.400009
30
0.0
40
1.000000
50
90.000000
51
180.000000
0
LINE
8
0
10
163.752136
20
42.400009
30
0.0
11
163.752136
21
38.014631
31
0.0
0
ARC
8
0
10
164.552136
20
38.014631
30
0.0
40
0.800000
50
180.000000
51
255.068583
0
LINE
8
0
10
164.346006
20
37.241644
30
0.0
11
165.029435
21
37.059396
31
0.0
0
ARC
8
0
10
164.952136
20
36.769525
30
0.0
40
0.300000
50
0.000000
51
75.068583
0
LINE
8
0
10
165.252136
20
36.769525
30
0.0
11
165.252136
21
21.600009
31
0.0
0
ARC
8
0
10
164.752136
20
21.600009
30
0.0
40
0.500000
50
270.000000
51
0.000000
0
LINE
8
0
10
164.752136
20
21.100009
30
0.0
11
130.352136
21
21.100009
31
0.0
0
ARC
8
0
10
130.352136
20
21.600009
30
0.0
40
0.500000
50
180.000000
51
270.000000
0
LINE
8
0
10
129.852136
20
21.600009
30
0.0
11
129.852136
21
36.769525
31
0.0
0
ARC
8
0
10
130.152136
20
36.769525
30
0.0
40
0.300000
50
104.931417
51
180.000000
0
LINE
8
0
10
130.074837
20
37.059396
30
0.0
11
130.758266
21
37.241644
31
0.0
0
ARC
8
0
10
130.552136
20
38.014631
30
0.0
40
0.800000
50
284.931417
51
0.000000
0
LINE
8
0
10
131.352136
20
38.014631
30
0.0
11
131.352136
21
42.400009
31
0.0
0
ARC
8
0
10
130.352136
20
42.400009
30
0.0
40
1.000000
50
0.000000
51
90.000000
0
LINE
8
0
10
130.352136
20
43.400009
30
0.0
11
118.452136
21
43.400009
31
0.0
0
ARC
8
0
10
118.452136
20
43.100009
30
0.0
40
0.300000
50
90.000000
51
180.000000
0
LINE
8
0
10
118.152136
20
43.100009
30
0.0
11
118.152136
21
41.300009
31
0.0
0
ARC
8
0
10
118.452136
20
41.300009
30
0.0
40
0.300000
50
180.000000
51
270.000000
0
LINE
8
0
10
118.452136
20
41.000009
30
0.0
11
119.227872
21
41.000009
31
0.0
0
ARC
8
0
10
119.227872
20
40.700009
30
0.0
40
0.300000
50
45.000000
51
90.000000
0
LINE
8
0
10
119.440004
20
40.912141
30
0.0
11
119.864268
21
40.487877
31
0.0
0
ARC
8
0
10
119.652136
20
40.275745
30
0.0
40
0.300000
50
0.000000
51
45.000000
0
LINE
8
0
10
119.952136
20
40.275745
30
0.0
11
119.952136
21
38.406049
31
0.0
0
ARC
8
0
10
119.652136
20
38.406049
30
0.0
40
0.300000
50
291.037511
51
0.000000
0
LINE
8
0
10
119.759830
20
38.126045
30
0.0
11
119.690872
21
38.099523
31
0.0
0
ARC
8
0
10
119.798565
20
37.819519
30
0.0
40
0.300000
50
111.037511
51
180.000000
0
LINE
8
0
10
119.498565
20
37.819519
30
0.0
11
119.498565
21
36.935042
31
0.0
0
ARC
8
0
10
120.498565
20
36.935042
30
0.0
40
1.000000
50
180.000000
51
194.925581
0
LINE
8
0
10
119.532304
20
36.677478
30
0.0
11
121.488108
21
29.340210
31
0.0
0
ARC
8
0
10
120.521847
20
29.082646
30
0.0
40
1.000000
50
347.005383
51
14.925581
0
LINE
8
0
10
121.496238
20
28.857786
30
0.0
11
120.077745
21
22.710980
31
0.0
0
ARC
8
0
10
121.052136
20
22.486121
30
0.0
40
1.000000
50
167.005383
51
180.000000
0
LINE
8
0
10
120.052136
20
22.486121
30
0.0
11
120.052136
21
21.900009
31
0.0
0
ARC
8
0
10
120.852136
20
21.900009
30
0.0
40
0.800000
50
180.000000
51
270.000000
0
LINE
8
0
10
120.852136
20
21.100009
30
0.0
11
126.352136
21
21.100009
31
0.0
0
ARC
8
0
10
126.352136
20
19.600009
30
0.0
40
1.500000
50
0.000000
51
90.000000
0
LINE
8
0
10
127.852136
20
19.600009
30
0.0
11
127.852136
21
15.600009
31
0.0
0
ARC
8
0
10
128.152136
20
15.600009
30
0.0
40
0.300000
50
180.000000
51
270.000000
0
LINE
8
0
10
128.152136
20
15.300009
30
0.0
11
129.152136
21
15.300009
31
0.0
0
LINE
8
0
10
121.425004
20
23.212439
30
0.0
11
122.732585
21
28.878622
31
0.0
0
ARC
8
0
10
121.758194
20
29.103481
30
0.0
40
1.000000
50
347.005383
51
14.925581
0
LINE
8
0
10
122.724455
20
29.361046
30
0.0
11
120.709252
21
36.921151
31
0.0
0
ARC
8
0
10
120.999130
20
36.998420
30
0.0
40
0.300000
50
115.705312
51
194.925581
0
ARC
8
0
10
120.652136
20
37.719249
30
0.0
40
0.500000
50
295.705312
51
0.000000
0
LINE
8
0
10
121.152136
20
37.719249
30
0.0
11
121.152136
21
40.651677
31
0.0
0
ARC
8
0
10
120.852136
20
40.651677
30
0.0
40
0.300000
50
0.000000
51
56.251011
0
ARC
8
0
10
121.352136
20
41.400009
30
0.0
40
0.600000
50
33.748989
51
236.251011
0
ARC
8
0
10
122.100467
20
41.900009
30
0.0
40
0.300000
50
213.748989
51
270.000000
0
LINE
8
0
10
122.100467
20
41.600009
30
0.0
11
129.052136
21
41.600009
31
0.0
0
ARC
8
0
10
129.052136
20
41.100009
30
0.0
40
0.500000
50
0.000000
51
90.000000
0
LINE
8
0
10
129.552136
20
41.100009
30
0.0
11
129.552136
21
39.167049
31
0.0
0
ARC
8
0
10
129.052136
20
39.167049
30
0.0
40
0.500000
50
284.931417
51
0.000000
0
LINE
8
0
10
129.180967
20
38.683931
30
0.0
11
128.623305
21
38.535221
31
0.0
0
ARC
8
0
10
128.752136
20
38.052104
30
0.0
40
0.500000
50
104.931417
51
180.000000
0
LINE
8
0
10
128.252136
20
38.052104
30
0.0
11
128.252136
21
23.100009
31
0.0
0
ARC
8
0
10
127.752136
20
23.100009
30
0.0
40
0.500000
50
270.000000
51
0.000000
0
LINE
8
0
10
127.752136
20
22.600009
30
0.0
11
121.912200
21
22.600009
31
0.0
0
ARC
8
0
10
121.912200
20
23.100009
30
0.0
40
0.500000
50
167.005383
51
270.000000
0
LINE
8
0
10
172.379817
20
29.361046
30
0.0
11
174.395020
21
36.921151
31
0.0
0
ARC
8
0
10
174.105142
20
36.998420
30
0.0
40
0.300000
50
345.074419
51
64.294688
0
ARC
8
0
10
174.452136
20
37.719249
30
0.0
40
0.500000
50
180.000000
51
244.294688
0
LINE
8
0
10
173.952136
20
37.719249
30
0.0
11
173.952136
21
40.651677
31
0.0
0
ARC
8
0
10
174.252136
20
40.651677
30
0.0
40
0.300000
50
123.748989
51
180.000000
0
ARC
8
0
10
173.752136
20
41.400009
30
0.0
40
0.600000
50
303.748989
51
146.251011
0
ARC
8
0
10
173.003804
20
41.900009
30
0.0
40
0.300000
50
270.000000
51
326.251011
0
LINE
8
0
10
173.003804
20
41.600009
30
0.0
11
166.052136
21
41.600009
31
0.0
0
ARC
8
0
10
166.052136
20
41.100009
30
0.0
40
0.500000
50
90.000000
51
180.000000
0
LINE
8
0
10
165.552136
20
41.100009
30
0.0
11
165.552136
21
39.167049
31
0.0
0
ARC
8
0
10
166.052136
20
39.167049
30
0.0
40
0.500000
50
180.000000
51
255.068583
0
LINE
8
0
10
165.923305
20
38.683931
30
0.0
11
166.480967
21
38.535221
31
0.0
0
ARC
8
0
10
166.352136
20
38.052104
30
0.0
40
0.500000
50
0.000000
51
75.068583
0
LINE
8
0
10
166.852136
20
38.052104
30
0.0
11
166.852136
21
23.100009
31
0.0
0
ARC
8
0
10
167.352136
20
23.100009
30
0.0
40
0.500000
50
180.000000
51
270.000000
0
LINE
8
0
10
167.352136
20
22.600009
30
0.0
11
173.192072
21
22.600009
31
0.0
0
ARC
8
0
10
173.192072
20
23.100009
30
0.0
40
0.500000
50
270.000000
51
12.994617
0
LINE
8
0
10
173.679268
20
23.212439
30
0.0
11
172.371687
21
28.878622
31
0.0
0
ARC
8
0
10
173.346078
20
29.103481
30
0.0
40
1.000000
50
165.074419
51
192.994617
0
LINE
8
0
10
144.102136
20
42.000009
30
0.0
11
144.702136
21
42.000009
31
0.0
0
ARC
8
0
10
144.702136
20
42.300009
30
0.0
40
0.300000
50
270.000000
51
0.000000
0
LINE
8
0
10
145.002136
20
42.300009
30
0.0
11
145.002136
21
43.200009
31
0.0
0
ARC
8
0
10
145.302136
20
43.200009
30
0.0
40
0.300000
50
90.000000
51
180.000000
0
LINE
8
0
10
145.302136
20
43.500009
30
0.0
11
146.002136
21
43.500009
31
0.0
0
ARC
8
0
10
146.002136
20
43.200009
30
0.0
40
0.300000
50
0.000000
51
90.000000
0
LINE
8
0
10
146.302136
20
43.200009
30
0.0
11
146.302136
21
36.200009
31
0.0
0
ARC
8
0
10
146.002136
20
36.200009
30
0.0
40
0.300000
50
270.000000
51
0.000000
0
LINE
8
0
10
146.002136
20
35.900009
30
0.0
11
145.302136
21
35.900009
31
0.0
0
ARC
8
0
10
145.302136
20
36.200009
30
0.0
40
0.300000
50
180.000000
51
270.000000
0
LINE
8
0
10
145.002136
20
36.200009
30
0.0
11
145.002136
21
37.100009
31
0.0
0
ARC
8
0
10
144.702136
20
37.100009
30
0.0
40
0.300000
50
0.000000
51
90.000000
0
LINE
8
0
10
144.702136
20
37.400009
30
0.0
11
144.102136
21
37.400009
31
0.0
0
ARC
8
0
10
144.102136
20
37.100009
30
0.0
40
0.300000
50
90.000000
51
180.000000
0
LINE
8
0
10
143.802136
20
37.100009
30
0.0
11
143.802136
21
35.701709
31
0.0
0
ARC
8
0
10
144.802136
20
35.701709
30
0.0
40
1.000000
50
180.000000
51
270.000000
0
LINE
8
0
10
144.802136
20
34.701709
30
0.0
11
146.702136
21
34.701709
31
0.0
0
ARC
8
0
10
146.702136
20
35.701709
30
0.0
40
1.000000
50
270.000000
51
0.000000
0
LINE
8
0
10
147.702136
20
35.701709
30
0.0
11
147.702136
21
42.400009
31
0.0
0
ARC
8
0
10
148.702136
20
42.400009
30
0.0
40
1.000000
50
90.000000
51
180.000000
0
LINE
8
0
10
148.702136
20
43.400009
30
0.0
11
180.702136
21
43.400009
31
0.0
0
ARC
8
0
10
180.702136
20
43.100009
30
0.0
40
0.300000
50
0.000000
51
90.000000
0
LINE
8
0
10
181.002136
20
43.100009
30
0.0
11
181.002136
21
35.524273
31
0.0
0
ARC
8
0
10
180.702136
20
35.524273
30
0.0
40
0.300000
50
315.000000
51
0.000000
0
LINE
8
0
10
180.914268
20
35.312141
30
0.0
11
179.717085
21
34.114958
31
0.0
0
ARC
8
0
10
180.070638
20
33.761404
30
0.0
40
0.500000
50
135.000000
51
210.000000
0
LINE
8
0
10
179.637625
20
33.511404
30
0.0
11
180.192687
21
32.550009
31
0.0
0
ARC
8
0
10
180.625700
20
32.800009
30
0.0
40
0.500000
50
210.000000
51
30.000000
0
LINE
8
0
10
181.058713
20
33.050009
30
0.0
11
180.810582
21
33.479785
31
0.0
0
ARC
8
0
10
181.070389
20
33.629785
30
0.0
40
0.300000
50
135.000000
51
210.000000
0
LINE
8
0
10
180.858257
20
33.841917
30
0.0
11
181.914268
21
34.897927
31
0.0
0
ARC
8
0
10
181.702136
20
35.110059
30
0.0
40
0.300000
50
315.000000
51
0.000000
0
LINE
8
0
10
182.002136
20
35.110059
30
0.0
11
182.002136
21
43.100009
31
0.0
0
ARC
8
0
10
182.302136
20
43.100009
30
0.0
40
0.300000
50
90.000000
51
180.000000
0
LINE
8
0
10
182.302136
20
43.400009
30
0.0
11
190.102136
21
43.400009
31
0.0
0
ARC
8
0
10
190.102136
20
43.100009
30
0.0
40
0.300000
50
0.000000
51
90.000000
0
LINE
8
0
10
190.402136
20
43.100009
30
0.0
11
190.402136
21
35.110059
31
0.0
0
ARC
8
0
10
190.702136
20
35.110059
30
0.0
40
0.300000
50
180.000000
51
225.000000
0
LINE
8
0
10
190.490004
20
34.897927
30
0.0
11
191.546014
21
33.841917
31
0.0
0
ARC
8
0
10
191.333882
20
33.629785
30
0.0
40
0.300000
50
330.000000
51
45.000000
0
LINE
8
0
10
191.593690
20
33.479785
30
0.0
11
191.345559
21
33.050009
31
0.0
0
ARC
8
0
10
191.778572
20
32.800009
30
0.0
40
0.500000
50
150.000000
51
330.000000
0
LINE
8
0
10
192.211584
20
32.550009
30
0.0
11
192.766646
21
33.511404
31
0.0
0
ARC
8
0
10
192.333634
20
33.761404
30
0.0
40
0.500000
50
330.000000
51
45.000000
0
LINE
8
0
10
192.687187
20
34.114958
30
0.0
11
191.490004
21
35.312141
31
0.0
0
ARC
8
0
10
191.702136
20
35.524273
30
0.0
40
0.300000
50
180.000000
51
225.000000
0
LINE
8
0
10
191.402136
20
35.524273
30
0.0
11
191.402136
21
43.100009
31
0.0
0
ARC
8
0
10
191.702136
20
43.100009
30
0.0
40
0.300000
50
90.000000
51
180.000000
0
LINE
8
0
10
191.702136
20
43.400009
30
0.0
11
207.602136
21
43.400009
31
0.0
0
ARC
8
0
10
207.602136
20
43.700009
30
0.0
40
0.300000
50
270.000000
51
0.000000
0
ARC
8
0
10
206.702136
20
43.700009
30
0.0
40
1.200000
50
0.000000
51
90.000000
0
LINE
8
0
10
206.702136
20
44.900009
30
0.0
11
144.102136
21
44.900009
31
0.0
0
ARC
8
0
10
144.102136
20
44.600009
30
0.0
40
0.300000
50
90.000000
51
180.000000
0
LINE
8
0
10
143.802136
20
44.600009
30
0.0
11
143.802136
21
42.300009
31
0.0
0
ARC
8
0
10
144.102136
20
42.300009
30
0.0
40
0.300000
50
180.000000
51
270.000000
0
ARC
8
0
10
103.124400
20
32.800009
30
0.0
40
0.500000
50
210.000000
51
30.000000
0
LINE
8
0
10
103.557413
20
33.050009
30
0.0
11
103.309281
21
33.479784
31
0.0
0
ARC
8
0
10
103.569089
20
33.629784
30
0.0
40
0.300000
50
135.000000
51
210.000000
0
LINE
8
0
10
103.356957
20
33.841917
30
0.0
11
104.412968
21
34.897927
31
0.0
0
ARC
8
0
10
104.200836
20
35.110059
30
0.0
40
0.300000
50
315.000000
51
0.000000
0
LINE
8
0
10
104.500836
20
35.110059
30
0.0
11
104.500836
21
43.100009
31
0.0
0
ARC
8
0
10
104.800836
20
43.100009
30
0.0
40
0.300000
50
90.000000
51
180.000000
0
LINE
8
0
10
104.800836
20
43.400009
30
0.0
11
112.600836
21
43.400009
31
0.0
0
ARC
8
0
10
112.600836
20
43.100009
30
0.0
40
0.300000
50
0.000000
51
90.000000
0
LINE
8
0
10
112.900836
20
43.100009
30
0.0
11
112.900836
21
35.110059
31
0.0
0
ARC
8
0
10
113.200836
20
35.110059
30
0.0
40
0.300000
50
180.000000
51
225.000000
0
LINE
8
0
10
112.988704
20
34.897927
30
0.0
11
114.044714
21
33.841917
31
0.0
0
ARC
8
0
10
113.832582
20
33.629784
30
0.0
40
0.300000
50
330.000000
51
45.000000
0
LINE
8
0
10
114.092390
20
33.479784
30
0.0
11
113.844259
21
33.050009
31
0.0
0
ARC
8
0
10
114.277272
20
32.800009
30
0.0
40
0.500000
50
150.000000
51
330.000000
0
LINE
8
0
10
114.710284
20
32.550009
30
0.0
11
115.265346
21
33.511404
31
0.0
0
ARC
8
0
10
114.832333
20
33.761404
30
0.0
40
0.500000
50
330.000000
51
45.000000
0
LINE
8
0
10
115.185887
20
34.114958
30
0.0
11
113.988704
21
35.312141
31
0.0
0
ARC
8
0
10
114.200836
20
35.524273
30
0.0
40
0.300000
50
180.000000
51
225.000000
0
LINE
8
0
10
113.900836
20
35.524273
30
0.0
11
113.900836
21
43.100009
31
0.0
0
ARC
8
0
10
114.200836
20
43.100009
30
0.0
40
0.300000
50
90.000000
51
180.000000
0
LINE
8
0
10
114.200836
20
43.400009
30
0.0
11
141.302605
21
43.400009
31
0.0
0
ARC
8
0
10
141.302605
20
43.100009
30
0.0
40
0.300000
50
0.000000
51
90.000000
0
LINE
8
0
10
141.602605
20
43.100009
30
0.0
11
141.602605
21
35.200009
31
0.0
0
ARC
8
0
10
141.902605
20
35.200009
30
0.0
40
0.300000
50
180.000000
51
270.000000
0
LINE
8
0
10
141.902605
20
34.900009
30
0.0
11
142.802605
21
34.900009
31
0.0
0
ARC
8
0
10
142.802605
20
35.200009
30
0.0
40
0.300000
50
270.000000
51
0.000000
0
LINE
8
0
10
143.102605
20
35.200009
30
0.0
11
143.102605
21
44.600009
31
0.0
0
ARC
8
0
10
142.802605
20
44.600009
30
0.0
40
0.300000
50
0.000000
51
90.000000
0
LINE
8
0
10
142.802605
20
44.900009
30
0.0
11
66.600836
21
44.900009
31
0.0
0
ARC
8
0
10
66.600836
20
44.600009
30
0.0
40
0.300000
50
90.000000
51
180.000000
0
LINE
8
0
10
66.300836
20
44.600009
30
0.0
11
66.300836
21
42.300009
31
0.0
0
ARC
8
0
10
66.600836
20
42.300009
30
0.0
40
0.300000
50
180.000000
51
270.000000
0
LINE
8
0
10
66.600836
20
42.000009
30
0.0
11
67.200836
21
42.000009
31
0.0
0
ARC
8
0
10
67.200836
20
42.300009
30
0.0
40
0.300000
50
270.000000
51
0.000000
0
LINE
8
0
10
67.500836
20
42.300009
30
0.0
11
67.500836
21
43.200009
31
0.0
0
ARC
8
0
10
67.800836
20
43.200009
30
0.0
40
0.300000
50
90.000000
51
180.000000
0
LINE
8
0
10
67.800836
20
43.500009
30
0.0
11
68.500836
21
43.500009
31
0.0
0
ARC
8
0
10
68.500836
20
43.200009
30
0.0
40
0.300000
50
0.000000
51
90.000000
0
LINE
8
0
10
68.800836
20
43.200009
30
0.0
11
68.800836
21
36.200009
31
0.0
0
ARC
8
0
10
68.500836
20
36.200009
30
0.0
40
0.300000
50
270.000000
51
0.000000
0
LINE
8
0
10
68.500836
20
35.900009
30
0.0
11
67.800836
21
35.900009
31
0.0
0
ARC
8
0
10
67.800836
20
36.200009
30
0.0
40
0.300000
50
180.000000
51
270.000000
0
LINE
8
0
10
67.500836
20
36.200009
30
0.0
11
67.500836
21
37.100009
31
0.0
0
ARC
8
0
10
67.200836
20
37.100009
30
0.0
40
0.300000
50
0.000000
51
90.000000
0
LINE
8
0
10
67.200836
20
37.400009
30
0.0
11
66.600836
21
37.400009
31
0.0
0
ARC
8
0
10
66.600836
20
37.100009
30
0.0
40
0.300000
50
90.000000
51
180.000000
0
LINE
8
0
10
66.300836
20
37.100009
30
0.0
11
66.300836
21
35.701709
31
0.0
0
ARC
8
0
10
67.300836
20
35.701709
30
0.0
40
1.000000
50
180.000000
51
270.000000
0
LINE
8
0
10
67.300836
20
34.701709
30
0.0
11
69.200836
21
34.701709
31
0.0
0
ARC
8
0
10
69.200836
20
35.701709
30
0.0
40
1.000000
50
270.000000
51
0.000000
0
LINE
8
0
10
70.200836
20
35.701709
30
0.0
11
70.200836
21
42.400009
31
0.0
0
ARC
8
0
10
71.200836
20
42.400009
30
0.0
40
1.000000
50
90.000000
51
180.000000
0
LINE
8
0
10
71.200836
20
43.400009
30
0.0
11
103.200836
21
43.400009
31
0.0
0
ARC
8
0
10
103.200836
20
43.100009
30
0.0
40
0.300000
50
0.000000
51
90.000000
0
LINE
8
0
10
103.500836
20
43.100009
30
0.0
11
103.500836
21
35.524273
31
0.0
0
ARC
8
0
10
103.200836
20
35.524273
30
0.0
40
0.300000
50
315.000000
51
0.000000
0
LINE
8
0
10
103.412968
20
35.312141
30
0.0
11
102.215785
21
34.114958
31
0.0
0
ARC
8
0
10
102.569338
20
33.761404
30
0.0
40
0.500000
50
135.000000
51
210.000000
0
LINE
8
0
10
102.136325
20
33.511404
30
0.0
11
102.691387
21
32.550009
31
0.0
0
ATTDEF
8
0
10
0.000000
20
0.000000
30
0.0
40
3.5
1

3

2
GLASS_MIN:0.000000
70
0
0
ATTDEF
8
0
10
0.000000
20
0.000000
30
0.0
40
3.5
1

3

2
GLASS_MAX:0.000000
70
0
0
ATTDEF
8
0
10
0.000000
20
0.000000
30
0.0
40
3.5
1

3

2
BL01:6500.000000,,1
70
0
0
ATTDEF
8
0
10
0.000000
20
0.000000
30
0.0
40
3.5
1

3

2
HW_START
70
0
0
ATTDEF
8
0
10
217.502136
20
44.900009
30
0.0
40
3.5
1

3

2
HW_END
70
0
0
ATTDEF
8
0
10
15.750000
20
43.400009
30
0.0
40
3.5
1

3

2
VC_START
70
0
0
ATTDEF
8
0
10
1.915072
20
0.000009
30
0.0
40
3.5
1

3

2
VC_END
70
0
0
ATTDEF
8
0
10
0.000000
20
0.000000
30
0.0
40
3.5
1

3

2
FP_LCS_ORIG
70
0
0
ATTDEF
8
0
10
10.000000
20
0.000000
30
0.0
40
3.5
1

3

2
FP_LCS_HOT
70
0
0
ATTDEF
8
0
10
0.000000
20
10.000000
30
0.0
40
3.5
1

3

2
FP_LCS_INTERN
70
0
0
ATTDEF
8
0
10
0.000000
20
0.000000
30
0.0
40
3.5
1

3

2
TDEV3:0
70
0
0
ATTDEF
8
0
10
0.000000
20
0.000000
30
0.0
40
3.5
1

3

2
TDEV4:0
70
0
0
ATTDEF
8
0
10
0.000000
20
0.000000
30
0.0
40
3.5
1

3

2
TDEV5:0
70
0
0
ATTDEF
8
0
10
0.000000
20
0.000000
30
0.0
40
3.5
1

3

2
PANE_WIDTH:0
70
0
0
ATTDEF
8
0
10
0.000000
20
0.000000
30
0.0
40
3.5
1

3

2
MIN_VETRO:0
70
0
0
ATTDEF
8
0
10
0.000000
20
0.000000
30
0.0
40
3.5
1

3

2
MAX_VETRO:0
70
0
0
ATTDEF
8
0
10
0.000000
20
0.000000
30
0.0
40
3.5
1

3

2
JX:0
70
0
0
ATTDEF
8
0
10
0.000000
20
0.000000
30
0.0
40
3.5
1

3

2
WX:0
70
0
0
ATTDEF
8
0
10
0.000000
20
0.000000
30
0.0
40
3.5
1

3

2
JY:0
70
0
0
ATTDEF
8
0
10
0.000000
20
0.000000
30
0.0
40
3.5
1

3

2
WY:0
70
0
0
ATTDEF
8
0
10
0.000000
20
0.000000
30
0.0
40
3.5
1

3

2
DESC:U10061 - U10060 - V31208 - V31208 - N10901 - N10903
70
0
0
ATTDEF
8
0
10
0.000000
20
0.000000
30
0.0
40
3.5
1

3

2
DENS:0
70
0
0
ATTDEF
8
0
10
0.000000
20
0.000000
30
0.0
40
3.5
1

3

2
TDEV:0
70
0
0
ATTDEF
8
0
10
0.000000
20
0.000000
30
0.0
40
3.5
1

3

2
TDEV2:0
70
0
0
ATTDEF
8
0
10
0.000000
20
0.000000
30
0.0
40
3.5
1

3

2
TDEV3:0
70
0
0
ATTDEF
8
0
10
0.000000
20
0.000000
30
0.0
40
3.5
1

3

2
TDEV4:0
70
0
0
ATTDEF
8
0
10
0.000000
20
0.000000
30
0.0
40
3.5
1

3

2
TDEV5:0
70
0
0
ATTDEF
8
0
10
0.000000
20
0.000000
30
0.0
40
3.5
1

3

2
PANE_WIDTH:0
70
0
0
ATTDEF
8
0
10
0.000000
20
0.000000
30
0.0
40
3.5
1

3

2
MIN_VETRO:0
70
0
0
ATTDEF
8
0
10
0.000000
20
0.000000
30
0.0
40
3.5
1

3

2
MAX_VETRO:0
70
0
0
ATTDEF
8
0
10
0.000000
20
0.000000
30
0.0
40
3.5
1

3

2
JX:0
70
0
0
ATTDEF
8
0
10
0.000000
20
0.000000
30
0.0
40
3.5
1

3

2
WX:0
70
0
0
ATTDEF
8
0
10
0.000000
20
0.000000
30
0.0
40
3.5
1

3

2
JY:0
70
0
0
ATTDEF
8
0
10
0.000000
20
0.000000
30
0.0
40
3.5
1

3

2
WY:0
70
0
0
ENDSEC
0
EOF
