0
SECTION
2
ENTITIES
0
LINE
8
0
10
128.199889
20
37.920792
30
0.0
11
128.199889
21
22.900000
31
0.0
0
ARC
8
0
10
127.899889
20
22.900000
30
0.0
40
0.300000
50
270.000000
51
0.000000
0
LINE
8
0
10
127.899889
20
22.600000
30
0.0
11
125.199889
21
22.600000
31
0.0
0
ARC
8
0
10
125.199889
20
22.300000
30
0.0
40
0.300000
50
90.000000
51
180.000000
0
LINE
8
0
10
124.899889
20
22.300000
30
0.0
11
124.899889
21
21.400000
31
0.0
0
ARC
8
0
10
125.199889
20
21.400000
30
0.0
40
0.300000
50
180.000000
51
270.000000
0
LINE
8
0
10
125.199889
20
21.100000
30
0.0
11
126.499889
21
21.100000
31
0.0
0
ARC
8
0
10
126.499889
20
20.800000
30
0.0
40
0.300000
50
0.000000
51
90.000000
0
LINE
8
0
10
126.799889
20
20.800000
30
0.0
11
126.799889
21
19.400000
31
0.0
0
ARC
8
0
10
127.099889
20
19.400000
30
0.0
40
0.300000
50
180.000000
51
270.000000
0
LINE
8
0
10
127.099889
20
19.100000
30
0.0
11
127.899889
21
19.100000
31
0.0
0
ARC
8
0
10
127.899889
20
18.800000
30
0.0
40
0.300000
50
0.000000
51
90.000000
0
LINE
8
0
10
128.199889
20
18.800000
30
0.0
11
128.199889
21
16.800000
31
0.0
0
ARC
8
0
10
128.499889
20
16.800000
30
0.0
40
0.300000
50
180.000000
51
270.000000
0
LINE
8
0
10
128.499889
20
16.500000
30
0.0
11
138.199889
21
16.500000
31
0.0
0
ARC
8
0
10
138.199889
20
16.200000
30
0.0
40
0.300000
50
0.000000
51
90.000000
0
LINE
8
0
10
138.499889
20
16.200000
30
0.0
11
138.499889
21
6.800000
31
0.0
0
ARC
8
0
10
138.199889
20
6.800000
30
0.0
40
0.300000
50
270.000000
51
0.000000
0
LINE
8
0
10
138.199889
20
6.500000
30
0.0
11
128.599889
21
6.500000
31
0.0
0
ARC
8
0
10
128.599889
20
6.800000
30
0.0
40
0.300000
50
180.000000
51
270.000000
0
LINE
8
0
10
128.299889
20
6.800000
30
0.0
11
128.299889
21
7.700000
31
0.0
0
ARC
8
0
10
127.999889
20
7.700000
30
0.0
40
0.300000
50
0.000000
51
90.000000
0
LINE
8
0
10
127.999889
20
8.000000
30
0.0
11
127.099889
21
8.000000
31
0.0
0
ARC
8
0
10
127.099889
20
7.700000
30
0.0
40
0.300000
50
90.000000
51
180.000000
0
LINE
8
0
10
126.799889
20
7.700000
30
0.0
11
126.799889
21
6.800000
31
0.0
0
ARC
8
0
10
126.499889
20
6.800000
30
0.0
40
0.300000
50
270.000000
51
0.000000
0
LINE
8
0
10
126.499889
20
6.500000
30
0.0
11
104.099889
21
6.500000
31
0.0
0
ARC
8
0
10
104.099889
20
6.800000
30
0.0
40
0.300000
50
180.000000
51
270.000000
0
LINE
8
0
10
103.799889
20
6.800000
30
0.0
11
103.799889
21
7.700000
31
0.0
0
ARC
8
0
10
103.499889
20
7.700000
30
0.0
40
0.300000
50
0.000000
51
90.000000
0
LINE
8
0
10
103.499889
20
8.000000
30
0.0
11
102.599889
21
8.000000
31
0.0
0
ARC
8
0
10
102.599889
20
7.700000
30
0.0
40
0.300000
50
90.000000
51
180.000000
0
LINE
8
0
10
102.299889
20
7.700000
30
0.0
11
102.299889
21
6.800000
31
0.0
0
ARC
8
0
10
101.999889
20
6.800000
30
0.0
40
0.300000
50
270.000000
51
0.000000
0
LINE
8
0
10
101.999889
20
6.500000
30
0.0
11
99.299913
21
6.500000
31
0.0
0
ARC
8
0
10
99.299913
20
6.800000
30
0.0
40
0.300000
50
180.000000
51
270.000000
0
LINE
8
0
10
98.999913
20
6.800000
30
0.0
11
98.999913
21
13.200000
31
0.0
0
ARC
8
0
10
99.299913
20
13.200000
30
0.0
40
0.300000
50
90.000000
51
180.000000
0
LINE
8
0
10
99.299913
20
13.500000
30
0.0
11
102.199913
21
13.500000
31
0.0
0
ARC
8
0
10
102.199913
20
13.800000
30
0.0
40
0.300000
50
270.000000
51
0.000000
0
LINE
8
0
10
102.499913
20
13.800000
30
0.0
11
102.499913
21
18.800000
31
0.0
0
ARC
8
0
10
102.799913
20
18.800000
30
0.0
40
0.300000
50
90.000000
51
180.000000
0
LINE
8
0
10
102.799913
20
19.100000
30
0.0
11
103.499913
21
19.100000
31
0.0
0
ARC
8
0
10
103.499913
20
19.400000
30
0.0
40
0.300000
50
270.000000
51
0.000000
0
LINE
8
0
10
103.799913
20
19.400000
30
0.0
11
103.799913
21
20.800000
31
0.0
0
ARC
8
0
10
104.099913
20
20.800000
30
0.0
40
0.300000
50
90.000000
51
180.000000
0
LINE
8
0
10
104.099913
20
21.100000
30
0.0
11
106.499913
21
21.100000
31
0.0
0
ARC
8
0
10
106.499913
20
21.400000
30
0.0
40
0.300000
50
270.000000
51
0.000000
0
LINE
8
0
10
106.799913
20
21.400000
30
0.0
11
106.799913
21
22.300000
31
0.0
0
ARC
8
0
10
106.499913
20
22.300000
30
0.0
40
0.300000
50
0.000000
51
90.000000
0
LINE
8
0
10
106.499913
20
22.600000
30
0.0
11
102.799913
21
22.600000
31
0.0
0
ARC
8
0
10
102.799913
20
22.900000
30
0.0
40
0.300000
50
180.000000
51
270.000000
0
LINE
8
0
10
102.499913
20
22.900000
30
0.0
11
102.499913
21
27.200000
31
0.0
0
ARC
8
0
10
102.799913
20
27.200000
30
0.0
40
0.300000
50
90.000000
51
180.000000
0
LINE
8
0
10
102.799913
20
27.500000
30
0.0
11
105.825625
21
27.500000
31
0.0
0
ARC
8
0
10
105.825625
20
27.200000
30
0.0
40
0.300000
50
45.000000
51
90.000000
0
LINE
8
0
10
106.037757
20
27.412132
30
0.0
11
106.362021
21
27.087867
31
0.0
0
ARC
8
0
10
106.574153
20
27.300000
30
0.0
40
0.300000
50
225.000000
51
270.000000
0
LINE
8
0
10
106.574153
20
27.000000
30
0.0
11
110.825625
21
27.000000
31
0.0
0
ARC
8
0
10
110.825625
20
27.300000
30
0.0
40
0.300000
50
270.000000
51
315.000000
0
LINE
8
0
10
111.037757
20
27.087867
30
0.0
11
111.362021
21
27.412132
31
0.0
0
ARC
8
0
10
111.574153
20
27.200000
30
0.0
40
0.300000
50
90.000000
51
135.000000
0
LINE
8
0
10
111.574153
20
27.500000
30
0.0
11
115.399889
21
27.500000
31
0.0
0
ARC
8
0
10
115.399889
20
28.500000
30
0.0
40
1.000000
50
270.000000
51
0.000000
0
LINE
8
0
10
116.399889
20
28.500000
30
0.0
11
116.399889
21
31.375627
31
0.0
0
ARC
8
0
10
116.699889
20
31.375627
30
0.0
40
0.300000
50
150.000000
51
180.000000
0
LINE
8
0
10
116.440081
20
31.525627
30
0.0
11
117.291310
21
33.000000
31
0.0
0
ARC
8
0
10
115.559259
20
34.000000
30
0.0
40
2.000000
50
330.000000
51
57.356923
0
ARC
8
0
10
116.799889
20
35.936708
30
0.0
40
0.300000
50
180.000000
51
237.356923
0
LINE
8
0
10
116.499889
20
35.936708
30
0.0
11
116.499889
21
37.700000
31
0.0
0
ARC
8
0
10
116.799889
20
37.700000
30
0.0
40
0.300000
50
90.000000
51
180.000000
0
LINE
8
0
10
116.799889
20
38.000000
30
0.0
11
118.999889
21
38.000000
31
0.0
0
ARC
8
0
10
118.999889
20
38.500000
30
0.0
40
0.500000
50
270.000000
51
0.000000
0
LINE
8
0
10
119.499889
20
38.500000
30
0.0
11
119.499889
21
41.600000
31
0.0
0
ARC
8
0
10
119.799889
20
41.600000
30
0.0
40
0.300000
50
90.000000
51
180.000000
0
LINE
8
0
10
119.799889
20
41.900000
30
0.0
11
129.399889
21
41.900000
31
0.0
0
ARC
8
0
10
129.399889
20
41.600000
30
0.0
40
0.300000
50
0.000000
51
90.000000
0
LINE
8
0
10
129.699889
20
41.600000
30
0.0
11
129.699889
21
38.783112
31
0.0
0
ARC
8
0
10
129.399889
20
38.783112
30
0.0
40
0.300000
50
285.000000
51
0.000000
0
LINE
8
0
10
129.477534
20
38.493334
30
0.0
11
128.422243
21
38.210570
31
0.0
0
ARC
8
0
10
128.499889
20
37.920792
30
0.0
40
0.300000
50
105.000000
51
180.000000
0
LINE
8
0
10
97.987757
20
40.387867
30
0.0
11
98.212021
21
40.612132
31
0.0
0
ARC
8
0
10
98.424153
20
40.400000
30
0.0
40
0.300000
50
90.000000
51
135.000000
0
LINE
8
0
10
98.424153
20
40.700000
30
0.0
11
99.099889
21
40.700000
31
0.0
0
ARC
8
0
10
99.099889
20
40.400000
30
0.0
40
0.300000
50
0.000000
51
90.000000
0
LINE
8
0
10
99.399889
20
40.400000
30
0.0
11
99.399889
21
39.800000
31
0.0
0
ARC
8
0
10
99.699889
20
39.800000
30
0.0
40
0.300000
50
180.000000
51
270.000000
0
LINE
8
0
10
99.699889
20
39.500000
30
0.0
11
102.110182
21
39.500000
31
0.0
0
ARC
8
0
10
102.110182
20
39.200000
30
0.0
40
0.300000
50
2.000000
51
90.000000
0
LINE
8
0
10
102.409999
20
39.210469
30
0.0
11
102.556423
21
35.017449
31
0.0
0
ARC
8
0
10
102.056727
20
35.000000
30
0.0
40
0.500000
50
270.000000
51
2.000000
0
LINE
8
0
10
102.056727
20
34.500000
30
0.0
11
101.840518
21
34.500000
31
0.0
0
ARC
8
0
10
101.840518
20
34.000000
30
0.0
40
0.500000
50
90.000000
51
210.000000
0
LINE
8
0
10
101.407505
20
33.750000
30
0.0
11
102.432901
21
31.973961
31
0.0
0
ARC
8
0
10
101.999889
20
31.723961
30
0.0
40
0.500000
50
0.000000
51
30.000000
0
LINE
8
0
10
102.499889
20
31.723961
30
0.0
11
102.499889
21
29.300000
31
0.0
0
ARC
8
0
10
102.799889
20
29.300000
30
0.0
40
0.300000
50
180.000000
51
270.000000
0
LINE
8
0
10
102.799889
20
29.000000
30
0.0
11
108.399889
21
29.000000
31
0.0
0
LINE
8
0
10
108.399889
20
29.000000
30
0.0
11
108.699889
21
28.700000
31
0.0
0
LINE
8
0
10
108.699889
20
28.700000
30
0.0
11
108.999889
21
29.000000
31
0.0
0
LINE
8
0
10
108.999889
20
29.000000
30
0.0
11
114.599889
21
29.000000
31
0.0
0
ARC
8
0
10
114.599889
20
29.300000
30
0.0
40
0.300000
50
270.000000
51
0.000000
0
LINE
8
0
10
114.899889
20
29.300000
30
0.0
11
114.899889
21
31.723961
31
0.0
0
ARC
8
0
10
115.399889
20
31.723961
30
0.0
40
0.500000
50
150.000000
51
180.000000
0
LINE
8
0
10
114.966876
20
31.973961
30
0.0
11
115.992272
21
33.750000
31
0.0
0
ARC
8
0
10
115.559259
20
34.000000
30
0.0
40
0.500000
50
330.000000
51
90.000000
0
LINE
8
0
10
115.559259
20
34.500000
30
0.0
11
115.343050
21
34.500000
31
0.0
0
ARC
8
0
10
115.343050
20
35.000000
30
0.0
40
0.500000
50
178.000000
51
270.000000
0
LINE
8
0
10
114.843355
20
35.017449
30
0.0
11
114.989778
21
39.210469
31
0.0
0
ARC
8
0
10
115.289595
20
39.200000
30
0.0
40
0.300000
50
90.000000
51
178.000000
0
LINE
8
0
10
115.289595
20
39.500000
30
0.0
11
117.699889
21
39.500000
31
0.0
0
ARC
8
0
10
117.699889
20
39.800000
30
0.0
40
0.300000
50
270.000000
51
0.000000
0
LINE
8
0
10
117.999889
20
39.800000
30
0.0
11
117.999889
21
43.100000
31
0.0
0
ARC
8
0
10
118.299889
20
43.100000
30
0.0
40
0.300000
50
90.000000
51
180.000000
0
LINE
8
0
10
118.299889
20
43.400000
30
0.0
11
130.199889
21
43.400000
31
0.0
0
ARC
8
0
10
130.199889
20
42.400000
30
0.0
40
1.000000
50
0.000000
51
90.000000
0
LINE
8
0
10
131.199889
20
42.400000
30
0.0
11
131.199889
21
37.632121
31
0.0
0
ARC
8
0
10
130.899889
20
37.632121
30
0.0
40
0.300000
50
285.000000
51
0.000000
0
LINE
8
0
10
130.977534
20
37.342344
30
0.0
11
129.922243
21
37.059579
31
0.0
0
ARC
8
0
10
129.999889
20
36.769801
30
0.0
40
0.300000
50
105.000000
51
180.000000
0
LINE
8
0
10
129.699889
20
36.769801
30
0.0
11
129.699889
21
18.300000
31
0.0
0
ARC
8
0
10
129.999889
20
18.300000
30
0.0
40
0.300000
50
180.000000
51
270.000000
0
LINE
8
0
10
129.999889
20
18.000000
30
0.0
11
139.499889
21
18.000000
31
0.0
0
ARC
8
0
10
139.499889
20
17.500000
30
0.0
40
0.500000
50
0.000000
51
90.000000
0
LINE
8
0
10
139.999889
20
17.500000
30
0.0
11
139.999889
21
0.300000
31
0.0
0
ARC
8
0
10
139.699889
20
0.300000
30
0.0
40
0.300000
50
270.000000
51
0.000000
0
LINE
8
0
10
139.699889
20
0.000000
30
0.0
11
136.469746
21
0.000000
31
0.0
0
ARC
8
0
10
136.469746
20
0.300000
30
0.0
40
0.300000
50
210.963756
51
270.000000
0
LINE
8
0
10
136.212498
20
0.145651
30
0.0
11
135.742641
21
0.928746
31
0.0
0
ARC
8
0
10
135.999889
20
1.083095
30
0.0
40
0.300000
50
180.000000
51
210.963756
0
LINE
8
0
10
135.699889
20
1.083095
30
0.0
11
135.699889
21
1.200000
31
0.0
0
ARC
8
0
10
135.999889
20
1.200000
30
0.0
40
0.300000
50
90.000000
51
180.000000
0
LINE
8
0
10
135.999889
20
1.500000
30
0.0
11
137.899889
21
1.500000
31
0.0
0
ARC
8
0
10
137.899889
20
1.800000
30
0.0
40
0.300000
50
270.000000
51
0.000000
0
LINE
8
0
10
138.199889
20
1.800000
30
0.0
11
138.199889
21
4.700000
31
0.0
0
ARC
8
0
10
137.899889
20
4.700000
30
0.0
40
0.300000
50
0.000000
51
90.000000
0
LINE
8
0
10
137.899889
20
5.000000
30
0.0
11
123.999889
21
5.000000
31
0.0
0
ARC
8
0
10
123.999889
20
4.700000
30
0.0
40
0.300000
50
90.000000
51
180.000000
0
LINE
8
0
10
123.699889
20
4.700000
30
0.0
11
123.699889
21
1.800000
31
0.0
0
ARC
8
0
10
123.999889
20
1.800000
30
0.0
40
0.300000
50
180.000000
51
270.000000
0
LINE
8
0
10
123.999889
20
1.500000
30
0.0
11
125.399889
21
1.500000
31
0.0
0
ARC
8
0
10
125.399889
20
1.200000
30
0.0
40
0.300000
50
0.000000
51
90.000000
0
LINE
8
0
10
125.699889
20
1.200000
30
0.0
11
125.699889
21
1.083095
31
0.0
0
ARC
8
0
10
125.399889
20
1.083095
30
0.0
40
0.300000
50
329.036243
51
0.000000
0
LINE
8
0
10
125.657137
20
0.928746
30
0.0
11
125.187279
21
0.145651
31
0.0
0
ARC
8
0
10
124.930032
20
0.300000
30
0.0
40
0.300000
50
270.000000
51
329.036243
0
LINE
8
0
10
124.930032
20
0.000000
30
0.0
11
122.499889
21
0.000000
31
0.0
0
ARC
8
0
10
122.499889
20
0.300000
30
0.0
40
0.300000
50
180.000000
51
270.000000
0
LINE
8
0
10
122.199889
20
0.300000
30
0.0
11
122.199889
21
4.700000
31
0.0
0
ARC
8
0
10
121.899889
20
4.700000
30
0.0
40
0.300000
50
0.000000
51
90.000000
0
LINE
8
0
10
121.899889
20
5.000000
30
0.0
11
99.299889
21
5.000000
31
0.0
0
ARC
8
0
10
99.299889
20
4.700000
30
0.0
40
0.300000
50
90.000000
51
180.000000
0
LINE
8
0
10
98.999889
20
4.700000
30
0.0
11
98.999889
21
0.300000
31
0.0
0
ARC
8
0
10
98.699889
20
0.300000
30
0.0
40
0.300000
50
270.000000
51
0.000000
0
LINE
8
0
10
98.699889
20
0.000000
30
0.0
11
97.231973
21
0.000000
31
0.0
0
ARC
8
0
10
97.231973
20
0.300000
30
0.0
40
0.300000
50
250.221829
51
270.000000
0
LINE
8
0
10
97.130459
20
0.017697
30
0.0
11
95.828597
21
0.485836
31
0.0
0
ARC
8
0
10
95.749077
20
0.264698
30
0.0
40
0.235000
50
70.221829
51
156.000000
0
ARC
8
0
10
95.313143
20
0.441112
30
0.0
40
0.235000
50
270.000000
51
336.000000
0
LINE
8
0
10
95.314699
20
0.206117
30
0.0
11
93.735771
21
0.195660
31
0.0
0
ARC
8
0
10
93.733784
20
0.495653
30
0.0
40
0.300000
50
155.379459
51
270.000000
0
LINE
8
0
10
93.461058
20
0.620636
30
0.0
11
94.409708
21
2.726151
31
0.0
0
ARC
8
0
10
94.683227
20
2.602915
30
0.0
40
0.300000
50
115.379459
51
155.745828
0
LINE
8
0
10
94.554644
20
2.873962
30
0.0
11
95.062067
21
3.114681
31
0.0
0
ARC
8
0
10
95.147789
20
2.933983
30
0.0
40
0.200000
50
355.379459
51
115.379459
0
LINE
8
0
10
95.347139
20
2.917872
30
0.0
11
95.337837
21
2.802777
31
0.0
0
ARC
8
0
10
95.636862
20
2.778610
30
0.0
40
0.300000
50
175.379459
51
235.379459
0
LINE
8
0
10
95.466421
20
2.531730
30
0.0
11
97.095177
21
1.407265
31
0.0
0
LINE
8
0
10
97.095177
20
1.407265
30
0.0
11
97.277886
21
1.325917
31
0.0
0
ARC
8
0
10
97.399889
20
1.600000
30
0.0
40
0.300009
50
246.004713
51
48.187329
0
ARC
8
0
10
97.799913
20
2.047204
30
0.0
40
0.300000
50
180.000000
51
228.187329
0
LINE
8
0
10
97.499913
20
2.047204
30
0.0
11
97.499913
21
5.899990
31
0.0
0
ARC
8
0
10
97.199913
20
5.899990
30
0.0
40
0.300000
50
0.000000
51
90.000000
0
LINE
8
0
10
97.199913
20
6.199990
30
0.0
11
96.978720
21
6.199990
31
0.0
0
ARC
8
0
10
96.978720
20
5.899990
30
0.0
40
0.300000
50
90.000000
51
121.400000
0
LINE
8
0
10
96.822417
20
6.156055
30
0.0
11
95.304115
21
5.229280
31
0.0
0
ARC
8
0
10
95.199913
20
5.399990
30
0.0
40
0.200000
50
180.000000
51
301.400000
0
LINE
8
0
10
94.999913
20
5.399990
30
0.0
11
94.999913
21
9.599990
31
0.0
0
ARC
8
0
10
95.199913
20
9.599990
30
0.0
40
0.200000
50
58.600000
51
180.000000
0
LINE
8
0
10
95.304115
20
9.770700
30
0.0
11
96.822417
21
8.843925
31
0.0
0
ARC
8
0
10
96.978720
20
9.099990
30
0.0
40
0.300000
50
238.600000
51
270.000000
0
LINE
8
0
10
96.978720
20
8.799990
30
0.0
11
97.199913
21
8.799990
31
0.0
0
ARC
8
0
10
97.199913
20
9.099990
30
0.0
40
0.300000
50
270.000000
51
0.000000
0
LINE
8
0
10
97.499913
20
9.099990
30
0.0
11
97.499913
21
12.952777
31
0.0
0
ARC
8
0
10
97.799913
20
12.952777
30
0.0
40
0.300000
50
131.812671
51
180.000000
0
ARC
8
0
10
97.399889
20
13.399981
30
0.0
40
0.300009
50
311.812671
51
113.995287
0
LINE
8
0
10
97.277886
20
13.674063
30
0.0
11
97.095177
21
13.592716
31
0.0
0
LINE
8
0
10
97.095177
20
13.592716
30
0.0
11
95.466421
21
12.468250
31
0.0
0
ARC
8
0
10
95.636862
20
12.221370
30
0.0
40
0.300000
50
124.620541
51
184.620541
0
LINE
8
0
10
95.337837
20
12.197203
30
0.0
11
95.347139
21
12.082108
31
0.0
0
ARC
8
0
10
95.147789
20
12.065997
30
0.0
40
0.200000
50
244.620541
51
4.620541
0
LINE
8
0
10
95.062067
20
11.885299
30
0.0
11
94.554644
21
12.126018
31
0.0
0
ARC
8
0
10
94.683227
20
12.397065
30
0.0
40
0.300000
50
204.254172
51
244.620541
0
LINE
8
0
10
94.409708
20
12.273830
30
0.0
11
93.461058
21
14.379345
31
0.0
0
ARC
8
0
10
93.733784
20
14.504327
30
0.0
40
0.300000
50
90.000000
51
204.620541
0
LINE
8
0
10
93.735771
20
14.804320
30
0.0
11
95.314699
21
14.793863
31
0.0
0
ARC
8
0
10
95.313143
20
14.558868
30
0.0
40
0.235000
50
24.000000
51
90.000000
0
ARC
8
0
10
95.749077
20
14.735282
30
0.0
40
0.235000
50
204.000000
51
289.778171
0
LINE
8
0
10
95.828597
20
14.514144
30
0.0
11
97.130511
21
14.982302
31
0.0
0
ARC
8
0
10
97.232025
20
14.700000
30
0.0
40
0.300000
50
90.000000
51
109.778171
0
LINE
8
0
10
97.232025
20
15.000000
30
0.0
11
100.699913
21
15.000000
31
0.0
0
ARC
8
0
10
100.699913
20
15.300000
30
0.0
40
0.300000
50
270.000000
51
0.000000
0
LINE
8
0
10
100.999913
20
15.300000
30
0.0
11
100.999913
21
20.800000
31
0.0
0
ARC
8
0
10
100.699913
20
20.800000
30
0.0
40
0.300000
50
0.000000
51
90.000000
0
LINE
8
0
10
100.699913
20
21.100000
30
0.0
11
98.099913
21
21.100000
31
0.0
0
ARC
8
0
10
98.099913
20
21.400000
30
0.0
40
0.300000
50
180.000000
51
270.000000
0
LINE
8
0
10
97.799913
20
21.400000
30
0.0
11
97.799913
21
22.300000
31
0.0
0
ARC
8
0
10
98.099913
20
22.300000
30
0.0
40
0.300000
50
90.000000
51
180.000000
0
LINE
8
0
10
98.099913
20
22.600000
30
0.0
11
100.699913
21
22.600000
31
0.0
0
ARC
8
0
10
100.699913
20
22.900000
30
0.0
40
0.300000
50
270.000000
51
0.000000
0
LINE
8
0
10
100.999913
20
22.900000
30
0.0
11
100.999913
21
31.375585
31
0.0
0
ARC
8
0
10
100.699913
20
31.375585
30
0.0
40
0.300000
50
0.000000
51
30.000000
0
LINE
8
0
10
100.959721
20
31.525585
30
0.0
11
100.108467
21
33.000000
31
0.0
0
ARC
8
0
10
101.840518
20
34.000000
30
0.0
40
2.000000
50
122.643077
51
210.000000
0
ARC
8
0
10
100.599889
20
35.936708
30
0.0
40
0.300000
50
302.643077
51
0.000000
0
LINE
8
0
10
100.899889
20
35.936708
30
0.0
11
100.899889
21
37.700000
31
0.0
0
ARC
8
0
10
100.599889
20
37.700000
30
0.0
40
0.300000
50
0.000000
51
90.000000
0
LINE
8
0
10
100.599889
20
38.000000
30
0.0
11
98.199889
21
38.000000
31
0.0
0
ARC
8
0
10
98.199889
20
38.300000
30
0.0
40
0.300000
50
180.000000
51
270.000000
0
LINE
8
0
10
97.899889
20
38.300000
30
0.0
11
97.899889
21
40.175735
31
0.0
0
ARC
8
0
10
98.199889
20
40.175735
30
0.0
40
0.300000
50
135.000000
51
180.000000
0
ARC
8
0
10
67.699914
20
6.800000
30
0.0
40
0.300000
50
270.000000
51
0.000000
0
LINE
8
0
10
67.999914
20
6.800000
30
0.0
11
67.999914
21
13.200000
31
0.0
0
ARC
8
0
10
67.699914
20
13.200000
30
0.0
40
0.300000
50
0.000000
51
90.000000
0
LINE
8
0
10
67.699914
20
13.500000
30
0.0
11
47.800789
21
13.500000
31
0.0
0
ARC
8
0
10
47.800789
20
13.200000
30
0.0
40
0.300000
50
90.000000
51
180.000000
0
LINE
8
0
10
47.500789
20
13.200000
30
0.0
11
47.500789
21
6.800000
31
0.0
0
ARC
8
0
10
47.800789
20
6.800000
30
0.0
40
0.300000
50
180.000000
51
270.000000
0
LINE
8
0
10
47.800789
20
6.500000
30
0.0
11
67.699914
21
6.500000
31
0.0
0
LINE
8
0
10
60.400789
20
15.000000
30
0.0
11
45.732901
21
15.000000
31
0.0
0
ARC
8
0
10
45.732901
20
14.700000
30
0.0
40
0.300000
50
90.000000
51
109.778171
0
LINE
8
0
10
45.631387
20
14.982302
30
0.0
11
44.329472
21
14.514144
31
0.0
0
ARC
8
0
10
44.249953
20
14.735282
30
0.0
40
0.235000
50
204.000000
51
289.778171
0
ARC
8
0
10
43.814019
20
14.558868
30
0.0
40
0.235000
50
24.000000
51
90.000000
0
LINE
8
0
10
43.815575
20
14.793863
30
0.0
11
42.236647
21
14.804320
31
0.0
0
ARC
8
0
10
42.234660
20
14.504327
30
0.0
40
0.300000
50
90.000000
51
204.620541
0
LINE
8
0
10
41.961934
20
14.379345
30
0.0
11
42.910584
21
12.273830
31
0.0
0
ARC
8
0
10
43.184103
20
12.397065
30
0.0
40
0.300000
50
204.254172
51
244.620541
0
LINE
8
0
10
43.055520
20
12.126018
30
0.0
11
43.562943
21
11.885299
31
0.0
0
ARC
8
0
10
43.648665
20
12.065997
30
0.0
40
0.200000
50
244.620541
51
4.620541
0
LINE
8
0
10
43.848015
20
12.082108
30
0.0
11
43.838713
21
12.197203
31
0.0
0
ARC
8
0
10
44.137738
20
12.221370
30
0.0
40
0.300000
50
124.620541
51
184.620541
0
LINE
8
0
10
43.967297
20
12.468250
30
0.0
11
45.596053
21
13.592716
31
0.0
0
LINE
8
0
10
45.596053
20
13.592716
30
0.0
11
45.778762
21
13.674063
31
0.0
0
ARC
8
0
10
45.900765
20
13.399981
30
0.0
40
0.300009
50
311.812671
51
113.995287
0
ARC
8
0
10
46.300789
20
12.952777
30
0.0
40
0.300000
50
131.812671
51
180.000000
0
LINE
8
0
10
46.000789
20
12.952777
30
0.0
11
46.000789
21
9.099990
31
0.0
0
ARC
8
0
10
45.700789
20
9.099990
30
0.0
40
0.300000
50
270.000000
51
0.000000
0
LINE
8
0
10
45.700789
20
8.799990
30
0.0
11
45.479596
21
8.799990
31
0.0
0
ARC
8
0
10
45.479596
20
9.099990
30
0.0
40
0.300000
50
238.600000
51
270.000000
0
LINE
8
0
10
45.323293
20
8.843925
30
0.0
11
43.804991
21
9.770700
31
0.0
0
ARC
8
0
10
43.700789
20
9.599990
30
0.0
40
0.200000
50
58.600000
51
180.000000
0
LINE
8
0
10
43.500789
20
9.599990
30
0.0
11
43.500789
21
5.399990
31
0.0
0
ARC
8
0
10
43.700789
20
5.399990
30
0.0
40
0.200000
50
180.000000
51
301.400000
0
LINE
8
0
10
43.804991
20
5.229280
30
0.0
11
45.323293
21
6.156055
31
0.0
0
ARC
8
0
10
45.479596
20
5.899990
30
0.0
40
0.300000
50
90.000000
51
121.400000
0
LINE
8
0
10
45.479596
20
6.199990
30
0.0
11
45.700789
21
6.199990
31
0.0
0
ARC
8
0
10
45.700789
20
5.899990
30
0.0
40
0.300000
50
0.000000
51
90.000000
0
LINE
8
0
10
46.000789
20
5.899990
30
0.0
11
46.000789
21
2.047204
31
0.0
0
ARC
8
0
10
46.300789
20
2.047204
30
0.0
40
0.300000
50
180.000000
51
228.187329
0
ARC
8
0
10
45.900765
20
1.600000
30
0.0
40
0.300009
50
246.004713
51
48.187329
0
LINE
8
0
10
45.778762
20
1.325917
30
0.0
11
45.596053
21
1.407265
31
0.0
0
LINE
8
0
10
45.596053
20
1.407265
30
0.0
11
43.967297
21
2.531730
31
0.0
0
ARC
8
0
10
44.137738
20
2.778610
30
0.0
40
0.300000
50
175.379459
51
235.379459
0
LINE
8
0
10
43.838713
20
2.802777
30
0.0
11
43.848015
21
2.917872
31
0.0
0
ARC
8
0
10
43.648665
20
2.933983
30
0.0
40
0.200000
50
355.379459
51
115.379459
0
LINE
8
0
10
43.562943
20
3.114681
30
0.0
11
43.055520
21
2.873962
31
0.0
0
ARC
8
0
10
43.184103
20
2.602915
30
0.0
40
0.300000
50
115.379459
51
155.745828
0
LINE
8
0
10
42.910584
20
2.726151
30
0.0
11
41.961934
21
0.620636
31
0.0
0
ARC
8
0
10
42.234660
20
0.495653
30
0.0
40
0.300000
50
155.379459
51
270.000000
0
LINE
8
0
10
42.236647
20
0.195660
30
0.0
11
43.815575
21
0.206117
31
0.0
0
ARC
8
0
10
43.814019
20
0.441112
30
0.0
40
0.235000
50
270.000000
51
336.000000
0
ARC
8
0
10
44.249953
20
0.264698
30
0.0
40
0.235000
50
70.221829
51
156.000000
0
LINE
8
0
10
44.329472
20
0.485836
30
0.0
11
45.631335
21
0.017697
31
0.0
0
ARC
8
0
10
45.732849
20
0.300000
30
0.0
40
0.300000
50
250.221829
51
270.000000
0
LINE
8
0
10
45.732849
20
0.000000
30
0.0
11
47.500765
21
0.000000
31
0.0
0
ARC
8
0
10
47.500765
20
0.300000
30
0.0
40
0.300000
50
270.000000
51
0.000000
0
LINE
8
0
10
47.800765
20
0.300000
30
0.0
11
47.800765
21
4.700000
31
0.0
0
ARC
8
0
10
48.100765
20
4.700000
30
0.0
40
0.300000
50
90.000000
51
180.000000
0
LINE
8
0
10
48.100765
20
5.000000
30
0.0
11
67.399938
21
5.000000
31
0.0
0
ARC
8
0
10
67.399938
20
4.700000
30
0.0
40
0.300000
50
0.000000
51
90.000000
0
LINE
8
0
10
67.699938
20
4.700000
30
0.0
11
67.699938
21
0.300000
31
0.0
0
ARC
8
0
10
67.999938
20
0.300000
30
0.0
40
0.300000
50
180.000000
51
270.000000
0
LINE
8
0
10
67.999938
20
0.000000
30
0.0
11
69.767854
21
0.000000
31
0.0
0
ARC
8
0
10
69.767854
20
0.300000
30
0.0
40
0.300000
50
270.000000
51
289.778171
0
LINE
8
0
10
69.869368
20
0.017697
30
0.0
11
71.171230
21
0.485836
31
0.0
0
ARC
8
0
10
71.250750
20
0.264698
30
0.0
40
0.235000
50
24.000000
51
109.778171
0
ARC
8
0
10
71.686684
20
0.441112
30
0.0
40
0.235000
50
204.000000
51
270.000000
0
LINE
8
0
10
71.685128
20
0.206117
30
0.0
11
73.264056
21
0.195660
31
0.0
0
ARC
8
0
10
73.266043
20
0.495653
30
0.0
40
0.300000
50
270.000000
51
24.620541
0
LINE
8
0
10
73.538769
20
0.620636
30
0.0
11
72.590119
21
2.726151
31
0.0
0
ARC
8
0
10
72.316599
20
2.602915
30
0.0
40
0.300000
50
24.254172
51
64.620541
0
LINE
8
0
10
72.445183
20
2.873962
30
0.0
11
71.937760
21
3.114681
31
0.0
0
ARC
8
0
10
71.852038
20
2.933983
30
0.0
40
0.200000
50
64.620541
51
184.620541
0
LINE
8
0
10
71.652688
20
2.917872
30
0.0
11
71.661990
21
2.802777
31
0.0
0
ARC
8
0
10
71.362965
20
2.778610
30
0.0
40
0.300000
50
304.620541
51
4.620541
0
LINE
8
0
10
71.533406
20
2.531730
30
0.0
11
69.904650
21
1.407265
31
0.0
0
LINE
8
0
10
69.904650
20
1.407265
30
0.0
11
69.721941
21
1.325917
31
0.0
0
ARC
8
0
10
69.599938
20
1.600000
30
0.0
40
0.300009
50
131.812671
51
293.995287
0
ARC
8
0
10
69.199914
20
2.047204
30
0.0
40
0.300000
50
311.812671
51
0.000000
0
LINE
8
0
10
69.499914
20
2.047204
30
0.0
11
69.499914
21
5.899990
31
0.0
0
ARC
8
0
10
69.799914
20
5.899990
30
0.0
40
0.300000
50
90.000000
51
180.000000
0
LINE
8
0
10
69.799914
20
6.199990
30
0.0
11
70.021107
21
6.199990
31
0.0
0
ARC
8
0
10
70.021107
20
5.899990
30
0.0
40
0.300000
50
58.600000
51
90.000000
0
LINE
8
0
10
70.177410
20
6.156055
30
0.0
11
71.695712
21
5.229280
31
0.0
0
ARC
8
0
10
71.799914
20
5.399990
30
0.0
40
0.200000
50
238.600000
51
0.000000
0
LINE
8
0
10
71.999914
20
5.399990
30
0.0
11
71.999914
21
9.599990
31
0.0
0
ARC
8
0
10
71.799914
20
9.599990
30
0.0
40
0.200000
50
0.000000
51
121.400000
0
LINE
8
0
10
71.695712
20
9.770700
30
0.0
11
70.177410
21
8.843925
31
0.0
0
ARC
8
0
10
70.021107
20
9.099990
30
0.0
40
0.300000
50
270.000000
51
301.400000
0
LINE
8
0
10
70.021107
20
8.799990
30
0.0
11
69.799914
21
8.799990
31
0.0
0
ARC
8
0
10
69.799914
20
9.099990
30
0.0
40
0.300000
50
180.000000
51
270.000000
0
LINE
8
0
10
69.499914
20
9.099990
30
0.0
11
69.499914
21
12.952777
31
0.0
0
ARC
8
0
10
69.199914
20
12.952777
30
0.0
40
0.300000
50
0.000000
51
48.187329
0
ARC
8
0
10
69.599938
20
13.399981
30
0.0
40
0.300009
50
66.004713
51
228.187329
0
LINE
8
0
10
69.721941
20
13.674063
30
0.0
11
69.904650
21
13.592716
31
0.0
0
LINE
8
0
10
69.904650
20
13.592716
30
0.0
11
71.533406
21
12.468250
31
0.0
0
ARC
8
0
10
71.362965
20
12.221370
30
0.0
40
0.300000
50
355.379459
51
55.379459
0
LINE
8
0
10
71.661990
20
12.197203
30
0.0
11
71.652688
21
12.082108
31
0.0
0
ARC
8
0
10
71.852038
20
12.065997
30
0.0
40
0.200000
50
175.379459
51
295.379459
0
LINE
8
0
10
71.937760
20
11.885299
30
0.0
11
72.445183
21
12.126018
31
0.0
0
ARC
8
0
10
72.316599
20
12.397065
30
0.0
40
0.300000
50
295.379459
51
335.745828
0
LINE
8
0
10
72.590119
20
12.273830
30
0.0
11
73.538769
21
14.379345
31
0.0
0
ARC
8
0
10
73.266043
20
14.504327
30
0.0
40
0.300000
50
335.379459
51
90.000000
0
LINE
8
0
10
73.264056
20
14.804320
30
0.0
11
71.685128
21
14.793863
31
0.0
0
ARC
8
0
10
71.686684
20
14.558868
30
0.0
40
0.235000
50
90.000000
51
156.000000
0
ARC
8
0
10
71.250750
20
14.735282
30
0.0
40
0.235000
50
250.221829
51
336.000000
0
LINE
8
0
10
71.171230
20
14.514144
30
0.0
11
69.869315
21
14.982302
31
0.0
0
ARC
8
0
10
69.767802
20
14.700000
30
0.0
40
0.300000
50
70.221829
51
90.000000
0
LINE
8
0
10
69.767802
20
15.000000
30
0.0
11
62.600789
21
15.000000
31
0.0
0
ARC
8
0
10
62.600789
20
15.300000
30
0.0
40
0.300000
50
180.000000
51
270.000000
0
LINE
8
0
10
62.300789
20
15.300000
30
0.0
11
62.300789
21
21.100000
31
0.0
0
ARC
8
0
10
62.600789
20
21.100000
30
0.0
40
0.300000
50
90.000000
51
180.000000
0
LINE
8
0
10
62.600789
20
21.400000
30
0.0
11
63.500789
21
21.400000
31
0.0
0
ARC
8
0
10
63.500789
20
21.700000
30
0.0
40
0.300000
50
270.000000
51
0.000000
0
LINE
8
0
10
63.800789
20
21.700000
30
0.0
11
63.800789
21
21.900000
31
0.0
0
ARC
8
0
10
62.800789
20
21.900000
30
0.0
40
1.000000
50
0.000000
51
85.588274
0
LINE
8
0
10
62.877712
20
22.897037
30
0.0
11
62.577712
21
22.897037
31
0.0
0
ARC
8
0
10
62.600789
20
23.196148
30
0.0
40
0.300000
50
180.000000
51
265.588274
0
LINE
8
0
10
62.300789
20
23.196148
30
0.0
11
62.300789
21
45.300000
31
0.0
0
ARC
8
0
10
62.000789
20
45.300000
30
0.0
40
0.300000
50
0.000000
51
90.000000
0
LINE
8
0
10
62.000789
20
45.600000
30
0.0
11
58.100789
21
45.600000
31
0.0
0
ARC
8
0
10
58.100789
20
45.300000
30
0.0
40
0.300000
50
90.000000
51
180.000000
0
LINE
8
0
10
57.800789
20
45.300000
30
0.0
11
57.800789
21
43.800000
31
0.0
0
ARC
8
0
10
58.500789
20
43.800000
30
0.0
40
0.700000
50
180.000000
51
270.000000
0
ARC
8
0
10
58.500789
20
43.400000
30
0.0
40
0.300000
50
270.000000
51
0.000000
0
LINE
8
0
10
58.800789
20
43.400000
30
0.0
11
58.800789
21
44.100000
31
0.0
0
ARC
8
0
10
59.100789
20
44.100000
30
0.0
40
0.300000
50
90.000000
51
180.000000
0
LINE
8
0
10
59.100789
20
44.400000
30
0.0
11
60.300789
21
44.400000
31
0.0
0
ARC
8
0
10
60.300789
20
43.700000
30
0.0
40
0.700000
50
0.000000
51
90.000000
0
LINE
8
0
10
61.000789
20
43.700000
30
0.0
11
61.000789
21
37.500000
31
0.0
0
ARC
8
0
10
60.300789
20
37.500000
30
0.0
40
0.700000
50
270.000000
51
0.000000
0
LINE
8
0
10
60.300789
20
36.800000
30
0.0
11
59.100789
21
36.800000
31
0.0
0
ARC
8
0
10
59.100789
20
37.100000
30
0.0
40
0.300000
50
180.000000
51
270.000000
0
LINE
8
0
10
58.800789
20
37.100000
30
0.0
11
58.800789
21
37.800000
31
0.0
0
ARC
8
0
10
58.500789
20
37.800000
30
0.0
40
0.300000
50
0.000000
51
90.000000
0
ARC
8
0
10
58.500789
20
37.400000
30
0.0
40
0.700000
50
90.000000
51
180.000000
0
LINE
8
0
10
57.800789
20
37.400000
30
0.0
11
57.800789
21
34.400000
31
0.0
0
ARC
8
0
10
58.100789
20
34.400000
30
0.0
40
0.300000
50
180.000000
51
270.000000
0
LINE
8
0
10
58.100789
20
34.100000
30
0.0
11
58.500789
21
34.100000
31
0.0
0
ARC
8
0
10
58.500789
20
34.400000
30
0.0
40
0.300000
50
270.000000
51
0.000000
0
LINE
8
0
10
58.800789
20
34.400000
30
0.0
11
58.800789
21
35.300000
31
0.0
0
ARC
8
0
10
59.100789
20
35.300000
30
0.0
40
0.300000
50
90.000000
51
180.000000
0
LINE
8
0
10
59.100789
20
35.600000
30
0.0
11
60.400789
21
35.600000
31
0.0
0
ARC
8
0
10
60.400789
20
35.300000
30
0.0
40
0.300000
50
0.000000
51
90.000000
0
LINE
8
0
10
60.700789
20
35.300000
30
0.0
11
60.700789
21
15.300000
31
0.0
0
ARC
8
0
10
60.400789
20
15.300000
30
0.0
40
0.300000
50
270.000000
51
0.000000
0
ARC
8
0
10
18.521194
20
9.099995
30
0.0
40
0.300000
50
270.000000
51
301.400000
0
LINE
8
0
10
18.521194
20
8.799995
30
0.0
11
18.300000
21
8.799995
31
0.0
0
ARC
8
0
10
18.300000
20
9.099995
30
0.0
40
0.300000
50
180.000000
51
270.000000
0
LINE
8
0
10
18.000000
20
9.099995
30
0.0
11
18.000000
21
12.952781
31
0.0
0
ARC
8
0
10
17.700000
20
12.952781
30
0.0
40
0.300000
50
0.000000
51
48.187329
0
ARC
8
0
10
18.100025
20
13.399985
30
0.0
40
0.300009
50
66.004713
51
228.187329
0
LINE
8
0
10
18.222027
20
13.674068
30
0.0
11
18.404736
21
13.592720
31
0.0
0
LINE
8
0
10
18.404736
20
13.592720
30
0.0
11
20.033493
21
12.468254
31
0.0
0
ARC
8
0
10
19.863051
20
12.221375
30
0.0
40
0.300000
50
355.379459
51
55.379459
0
LINE
8
0
10
20.162076
20
12.197208
30
0.0
11
20.152775
21
12.082113
31
0.0
0
ARC
8
0
10
20.352125
20
12.066002
30
0.0
40
0.200000
50
175.379459
51
295.379459
0
LINE
8
0
10
20.437847
20
11.885304
30
0.0
11
20.945270
21
12.126023
31
0.0
0
ARC
8
0
10
20.816686
20
12.397070
30
0.0
40
0.300000
50
295.379459
51
335.745828
0
LINE
8
0
10
21.090206
20
12.273834
30
0.0
11
22.038856
21
14.379349
31
0.0
0
ARC
8
0
10
21.766130
20
14.504331
30
0.0
40
0.300000
50
335.379459
51
90.000000
0
LINE
8
0
10
21.764143
20
14.804325
30
0.0
11
20.185215
21
14.793868
31
0.0
0
ARC
8
0
10
20.186771
20
14.558873
30
0.0
40
0.235000
50
90.000000
51
156.000000
0
ARC
8
0
10
19.750836
20
14.735286
30
0.0
40
0.235000
50
250.221829
51
336.000000
0
LINE
8
0
10
19.671317
20
14.514149
30
0.0
11
18.369402
21
14.982307
31
0.0
0
LINE
8
0
10
18.283944
20
14.999574
30
0.0
11
18.369402
21
14.982307
31
0.0
0
ARC
8
0
10
18.300000
20
15.299144
30
0.0
40
0.300000
50
180.000000
51
266.932069
0
LINE
8
0
10
18.000000
20
15.299144
30
0.0
11
18.000000
21
27.300000
31
0.0
0
ARC
8
0
10
17.700000
20
27.300000
30
0.0
40
0.300000
50
0.000000
51
90.000000
0
LINE
8
0
10
17.700000
20
27.600000
30
0.0
11
15.050556
21
27.600000
31
0.0
0
ARC
8
0
10
15.050556
20
27.300000
30
0.0
40
0.300000
50
90.000000
51
150.000000
0
LINE
8
0
10
14.790748
20
27.450000
30
0.0
11
14.340193
21
26.669615
31
0.0
0
ARC
8
0
10
14.600000
20
26.519615
30
0.0
40
0.300000
50
150.000000
51
180.000000
0
LINE
8
0
10
14.300000
20
26.519615
30
0.0
11
14.300000
21
26.400000
31
0.0
0
ARC
8
0
10
14.600000
20
26.400000
30
0.0
40
0.300000
50
180.000000
51
270.000000
0
LINE
8
0
10
14.600000
20
26.100000
30
0.0
11
16.000000
21
26.100000
31
0.0
0
ARC
8
0
10
16.000000
20
25.800000
30
0.0
40
0.300000
50
0.000000
51
90.000000
0
LINE
8
0
10
16.300000
20
25.800000
30
0.0
11
16.300000
21
22.900000
31
0.0
0
ARC
8
0
10
16.000000
20
22.900000
30
0.0
40
0.300000
50
270.000000
51
0.000000
0
LINE
8
0
10
16.000000
20
22.600000
30
0.0
11
2.100000
21
22.600000
31
0.0
0
ARC
8
0
10
2.100000
20
22.900000
30
0.0
40
0.300000
50
180.000000
51
270.000000
0
LINE
8
0
10
1.800000
20
22.900000
30
0.0
11
1.800000
21
25.800000
31
0.0
0
ARC
8
0
10
2.100000
20
25.800000
30
0.0
40
0.300000
50
90.000000
51
180.000000
0
LINE
8
0
10
2.100000
20
26.100000
30
0.0
11
4.000000
21
26.100000
31
0.0
0
ARC
8
0
10
4.000000
20
26.400000
30
0.0
40
0.300000
50
270.000000
51
0.000000
0
LINE
8
0
10
4.300000
20
26.400000
30
0.0
11
4.300000
21
26.519615
31
0.0
0
ARC
8
0
10
4.000000
20
26.519615
30
0.0
40
0.300000
50
0.000000
51
30.000000
0
LINE
8
0
10
4.259808
20
26.669615
30
0.0
11
3.809253
21
27.450000
31
0.0
0
ARC
8
0
10
3.549445
20
27.300000
30
0.0
40
0.300000
50
30.000000
51
90.000000
0
LINE
8
0
10
3.549445
20
27.600000
30
0.0
11
0.300000
21
27.600000
31
0.0
0
ARC
8
0
10
0.300000
20
27.300000
30
0.0
40
0.300000
50
90.000000
51
180.000000
0
LINE
8
0
10
0.000000
20
27.300000
30
0.0
11
0.000000
21
0.300000
31
0.0
0
ARC
8
0
10
0.300000
20
0.300000
30
0.0
40
0.300000
50
180.000000
51
270.000000
0
LINE
8
0
10
0.300000
20
0.000000
30
0.0
11
3.549445
21
0.000000
31
0.0
0
ARC
8
0
10
3.549445
20
0.300000
30
0.0
40
0.300000
50
270.000000
51
330.000000
0
LINE
8
0
10
3.809253
20
0.150000
30
0.0
11
4.259808
21
0.930384
31
0.0
0
ARC
8
0
10
4.000000
20
1.080384
30
0.0
40
0.300000
50
330.000000
51
0.000000
0
LINE
8
0
10
4.300000
20
1.080384
30
0.0
11
4.300000
21
1.200000
31
0.0
0
ARC
8
0
10
4.000000
20
1.200000
30
0.0
40
0.300000
50
0.000000
51
90.000000
0
LINE
8
0
10
4.000000
20
1.500000
30
0.0
11
2.100000
21
1.500000
31
0.0
0
ARC
8
0
10
2.100000
20
1.800000
30
0.0
40
0.300000
50
180.000000
51
270.000000
0
LINE
8
0
10
1.800000
20
1.800000
30
0.0
11
1.800000
21
4.700000
31
0.0
0
ARC
8
0
10
2.100000
20
4.700000
30
0.0
40
0.300000
50
90.000000
51
180.000000
0
LINE
8
0
10
2.100000
20
5.000000
30
0.0
11
16.000000
21
5.000000
31
0.0
0
ARC
8
0
10
16.000000
20
4.700000
30
0.0
40
0.300000
50
0.000000
51
90.000000
0
LINE
8
0
10
16.300000
20
4.700000
30
0.0
11
16.300000
21
1.800000
31
0.0
0
ARC
8
0
10
16.000000
20
1.800000
30
0.0
40
0.300000
50
270.000000
51
0.000000
0
LINE
8
0
10
16.000000
20
1.500000
30
0.0
11
14.600000
21
1.500000
31
0.0
0
ARC
8
0
10
14.600000
20
1.200000
30
0.0
40
0.300000
50
90.000000
51
180.000000
0
LINE
8
0
10
14.300000
20
1.200000
30
0.0
11
14.300000
21
1.080384
31
0.0
0
ARC
8
0
10
14.600000
20
1.080384
30
0.0
40
0.300000
50
180.000000
51
210.000000
0
LINE
8
0
10
14.340193
20
0.930384
30
0.0
11
14.790748
21
0.150000
31
0.0
0
ARC
8
0
10
15.050556
20
0.300000
30
0.0
40
0.300000
50
210.000000
51
270.000000
0
LINE
8
0
10
15.050556
20
0.000000
30
0.0
11
18.267941
21
0.000004
31
0.0
0
ARC
8
0
10
18.267941
20
0.300004
30
0.0
40
0.300000
50
270.000000
51
289.778171
0
LINE
8
0
10
18.369455
20
0.017701
30
0.0
11
19.671317
21
0.485840
31
0.0
0
ARC
8
0
10
19.750836
20
0.264703
30
0.0
40
0.235000
50
24.000000
51
109.778171
0
ARC
8
0
10
20.186771
20
0.441117
30
0.0
40
0.235000
50
204.000000
51
270.000000
0
LINE
8
0
10
20.185215
20
0.206122
30
0.0
11
21.764143
21
0.195665
31
0.0
0
ARC
8
0
10
21.766130
20
0.495658
30
0.0
40
0.300000
50
270.000000
51
24.620541
0
LINE
8
0
10
22.038856
20
0.620640
30
0.0
11
21.090206
21
2.726155
31
0.0
0
ARC
8
0
10
20.816686
20
2.602920
30
0.0
40
0.300000
50
24.254172
51
64.620541
0
LINE
8
0
10
20.945270
20
2.873967
30
0.0
11
20.437847
21
3.114686
31
0.0
0
ARC
8
0
10
20.352125
20
2.933988
30
0.0
40
0.200000
50
64.620541
51
184.620541
0
LINE
8
0
10
20.152775
20
2.917877
30
0.0
11
20.162076
21
2.802782
31
0.0
0
ARC
8
0
10
19.863051
20
2.778615
30
0.0
40
0.300000
50
304.620541
51
4.620541
0
LINE
8
0
10
20.033493
20
2.531735
30
0.0
11
18.404736
21
1.407269
31
0.0
0
LINE
8
0
10
18.404736
20
1.407269
30
0.0
11
18.222027
21
1.325922
31
0.0
0
ARC
8
0
10
18.100025
20
1.600004
30
0.0
40
0.300009
50
131.812671
51
293.995287
0
ARC
8
0
10
17.700000
20
2.047208
30
0.0
40
0.300000
50
311.812671
51
0.000000
0
LINE
8
0
10
18.000000
20
2.047208
30
0.0
11
18.000000
21
5.899995
31
0.0
0
ARC
8
0
10
18.300000
20
5.899995
30
0.0
40
0.300000
50
90.000000
51
180.000000
0
LINE
8
0
10
18.300000
20
6.199995
30
0.0
11
18.521194
21
6.199995
31
0.0
0
ARC
8
0
10
18.521194
20
5.899995
30
0.0
40
0.300000
50
58.600000
51
90.000000
0
LINE
8
0
10
18.677497
20
6.156060
30
0.0
11
20.195799
21
5.229285
31
0.0
0
ARC
8
0
10
20.300000
20
5.399995
30
0.0
40
0.200000
50
238.600000
51
0.000000
0
LINE
8
0
10
20.500000
20
5.399995
30
0.0
11
20.500000
21
9.599995
31
0.0
0
ARC
8
0
10
20.300000
20
9.599995
30
0.0
40
0.200000
50
0.000000
51
121.400000
0
LINE
8
0
10
20.195799
20
9.770705
30
0.0
11
18.677497
21
8.843930
31
0.0
0
LINE
8
0
10
1.499350
20
20.800000
30
0.0
11
1.499350
21
6.900000
31
0.0
0
ARC
8
0
10
1.799350
20
6.900000
30
0.0
40
0.300000
50
180.000000
51
270.000000
0
LINE
8
0
10
1.799350
20
6.600000
30
0.0
11
3.899350
21
6.600000
31
0.0
0
LINE
8
0
10
3.899350
20
6.600000
30
0.0
11
3.899350
21
6.500000
31
0.0
0
LINE
8
0
10
3.899350
20
6.500000
30
0.0
11
14.099350
21
6.500000
31
0.0
0
LINE
8
0
10
14.099350
20
6.500000
30
0.0
11
14.099350
21
6.600000
31
0.0
0
LINE
8
0
10
14.099350
20
6.600000
30
0.0
11
16.199350
21
6.600000
31
0.0
0
ARC
8
0
10
16.199350
20
6.900000
30
0.0
40
0.300000
50
270.000000
51
0.000000
0
LINE
8
0
10
16.499350
20
6.900000
30
0.0
11
16.499350
21
20.800000
31
0.0
0
ARC
8
0
10
16.199350
20
20.800000
30
0.0
40
0.300000
50
0.000000
51
90.000000
0
LINE
8
0
10
16.199350
20
21.100000
30
0.0
11
1.799350
21
21.100000
31
0.0
0
ARC
8
0
10
1.799350
20
20.800000
30
0.0
40
0.300000
50
90.000000
51
180.000000
0
ARC
8
0
10
74.280974
20
14.442359
30
0.0
40
0.400000
50
90.000000
51
160.000000
0
LINE
8
0
10
73.905097
20
14.579167
30
0.0
11
73.053620
21
12.239753
31
0.0
0
ARC
8
0
10
72.771712
20
12.342359
30
0.0
40
0.300000
50
270.000000
51
340.000000
0
LINE
8
0
10
72.771712
20
12.042359
30
0.0
11
72.486963
21
12.042359
31
0.0
0
ARC
8
0
10
72.486963
20
13.242359
30
0.0
40
1.200000
50
240.018361
51
270.000000
0
LINE
8
0
10
71.887296
20
12.202936
30
0.0
11
70.305352
21
13.115596
31
0.0
0
ARC
8
0
10
70.205408
20
12.942359
30
0.0
40
0.200000
50
60.018361
51
90.000000
0
LINE
8
0
10
70.205408
20
13.142359
30
0.0
11
69.698963
21
13.142359
31
0.0
0
ARC
8
0
10
69.698963
20
12.942359
30
0.0
40
0.200000
50
90.000000
51
180.000000
0
LINE
8
0
10
69.498963
20
12.942359
30
0.0
11
69.498963
21
9.142359
31
0.0
0
ARC
8
0
10
69.698963
20
9.142359
30
0.0
40
0.200000
50
180.000000
51
270.000000
0
LINE
8
0
10
69.698963
20
8.942359
30
0.0
11
70.205408
21
8.942359
31
0.0
0
ARC
8
0
10
70.205408
20
9.142359
30
0.0
40
0.200000
50
270.000000
51
299.981639
0
LINE
8
0
10
70.305352
20
8.969122
30
0.0
11
71.887296
21
9.881782
31
0.0
0
ARC
8
0
10
72.486963
20
8.842359
30
0.0
40
1.200000
50
90.000000
51
119.981639
0
LINE
8
0
10
72.486963
20
10.042359
30
0.0
11
73.469147
21
10.042359
31
0.0
0
ARC
8
0
10
73.469147
20
11.042359
30
0.0
40
1.000000
50
270.000000
51
340.000000
0
LINE
8
0
10
74.408839
20
10.700339
30
0.0
11
75.165471
21
12.779167
31
0.0
0
ARC
8
0
10
75.541348
20
12.642359
30
0.0
40
0.400000
50
90.000000
51
160.000000
0
LINE
8
0
10
75.541348
20
13.042359
30
0.0
11
81.399438
21
13.042359
31
0.0
0
ARC
8
0
10
81.399438
20
12.542359
30
0.0
40
0.500000
50
0.000000
51
90.000000
0
LINE
8
0
10
81.899438
20
12.542359
30
0.0
11
81.899438
21
4.142359
31
0.0
0
ARC
8
0
10
82.199438
20
4.142359
30
0.0
40
0.300000
50
180.000000
51
270.000000
0
LINE
8
0
10
82.199438
20
3.842359
30
0.0
11
82.599438
21
3.842359
31
0.0
0
ARC
8
0
10
82.599438
20
4.142359
30
0.0
40
0.300000
50
270.000000
51
0.000000
0
LINE
8
0
10
82.899438
20
4.142359
30
0.0
11
82.899438
21
12.542359
31
0.0
0
ARC
8
0
10
83.399438
20
12.542359
30
0.0
40
0.500000
50
90.000000
51
180.000000
0
LINE
8
0
10
83.399438
20
13.042359
30
0.0
11
87.157818
21
13.042359
31
0.0
0
ARC
8
0
10
87.157818
20
12.742359
30
0.0
40
0.300000
50
22.024313
51
90.000000
0
ARC
8
0
10
87.899438
20
13.042359
30
0.0
40
0.500000
50
202.024313
51
337.975687
0
ARC
8
0
10
88.641058
20
12.742359
30
0.0
40
0.300000
50
90.000000
51
157.975687
0
LINE
8
0
10
88.641058
20
13.042359
30
0.0
11
91.457529
21
13.042359
31
0.0
0
ARC
8
0
10
91.457529
20
12.642359
30
0.0
40
0.400000
50
20.000000
51
90.000000
0
LINE
8
0
10
91.833406
20
12.779167
30
0.0
11
92.590037
21
10.700339
31
0.0
0
ARC
8
0
10
93.529730
20
11.042359
30
0.0
40
1.000000
50
200.000000
51
270.000000
0
LINE
8
0
10
93.529730
20
10.042359
30
0.0
11
94.511914
21
10.042359
31
0.0
0
ARC
8
0
10
94.511914
20
8.842359
30
0.0
40
1.200000
50
60.018361
51
90.000000
0
LINE
8
0
10
95.111581
20
9.881782
30
0.0
11
96.693524
21
8.969122
31
0.0
0
ARC
8
0
10
96.793469
20
9.142359
30
0.0
40
0.200000
50
240.018361
51
270.000000
0
LINE
8
0
10
96.793469
20
8.942359
30
0.0
11
97.299913
21
8.942359
31
0.0
0
ARC
8
0
10
97.299913
20
9.142359
30
0.0
40
0.200000
50
270.000000
51
0.000000
0
LINE
8
0
10
97.499913
20
9.142359
30
0.0
11
97.499913
21
12.942359
31
0.0
0
ARC
8
0
10
97.299913
20
12.942359
30
0.0
40
0.200000
50
0.000000
51
90.000000
0
LINE
8
0
10
97.299913
20
13.142359
30
0.0
11
96.793469
21
13.142359
31
0.0
0
ARC
8
0
10
96.793469
20
12.942359
30
0.0
40
0.200000
50
90.000000
51
119.981639
0
LINE
8
0
10
96.693524
20
13.115596
30
0.0
11
95.111581
21
12.202936
31
0.0
0
ARC
8
0
10
94.511914
20
13.242359
30
0.0
40
1.200000
50
270.000000
51
299.981639
0
LINE
8
0
10
94.511914
20
12.042359
30
0.0
11
94.227164
21
12.042359
31
0.0
0
ARC
8
0
10
94.227164
20
12.342359
30
0.0
40
0.300000
50
200.000000
51
270.000000
0
LINE
8
0
10
93.945256
20
12.239753
30
0.0
11
93.093779
21
14.579167
31
0.0
0
ARC
8
0
10
92.717902
20
14.442359
30
0.0
40
0.400000
50
20.000000
51
90.000000
0
LINE
8
0
10
92.717902
20
14.842359
30
0.0
11
74.280974
21
14.842359
31
0.0
0
ARC
8
0
10
92.717902
20
0.557625
30
0.0
40
0.400000
50
270.000000
51
340.000000
0
LINE
8
0
10
93.093779
20
0.420817
30
0.0
11
93.945256
21
2.760231
31
0.0
0
ARC
8
0
10
94.227164
20
2.657625
30
0.0
40
0.300000
50
90.000000
51
160.000000
0
LINE
8
0
10
94.227164
20
2.957625
30
0.0
11
94.511914
21
2.957625
31
0.0
0
ARC
8
0
10
94.511914
20
1.757625
30
0.0
40
1.200000
50
60.018361
51
90.000000
0
LINE
8
0
10
95.111581
20
2.797048
30
0.0
11
96.693524
21
1.884388
31
0.0
0
ARC
8
0
10
96.793469
20
2.057625
30
0.0
40
0.200000
50
240.018361
51
270.000000
0
LINE
8
0
10
96.793469
20
1.857625
30
0.0
11
97.299913
21
1.857625
31
0.0
0
ARC
8
0
10
97.299913
20
2.057625
30
0.0
40
0.200000
50
270.000000
51
0.000000
0
LINE
8
0
10
97.499913
20
2.057625
30
0.0
11
97.499913
21
5.857625
31
0.0
0
ARC
8
0
10
97.299913
20
5.857625
30
0.0
40
0.200000
50
0.000000
51
90.000000
0
LINE
8
0
10
97.299913
20
6.057625
30
0.0
11
96.793469
21
6.057625
31
0.0
0
ARC
8
0
10
96.793469
20
5.857625
30
0.0
40
0.200000
50
90.000000
51
119.981639
0
LINE
8
0
10
96.693524
20
6.030862
30
0.0
11
95.111581
21
5.118202
31
0.0
0
ARC
8
0
10
94.511914
20
6.157625
30
0.0
40
1.200000
50
270.000000
51
299.981639
0
LINE
8
0
10
94.511914
20
4.957625
30
0.0
11
93.529730
21
4.957625
31
0.0
0
ARC
8
0
10
93.529730
20
3.957625
30
0.0
40
1.000000
50
90.000000
51
160.000000
0
LINE
8
0
10
92.590037
20
4.299645
30
0.0
11
91.833406
21
2.220817
31
0.0
0
ARC
8
0
10
91.457529
20
2.357625
30
0.0
40
0.400000
50
270.000000
51
340.000000
0
LINE
8
0
10
91.457529
20
1.957625
30
0.0
11
85.599438
21
1.957625
31
0.0
0
ARC
8
0
10
85.599438
20
2.457625
30
0.0
40
0.500000
50
180.000000
51
270.000000
0
LINE
8
0
10
85.099438
20
2.457625
30
0.0
11
85.099438
21
10.857625
31
0.0
0
ARC
8
0
10
84.799438
20
10.857625
30
0.0
40
0.300000
50
0.000000
51
90.000000
0
LINE
8
0
10
84.799438
20
11.157625
30
0.0
11
84.399438
21
11.157625
31
0.0
0
ARC
8
0
10
84.399438
20
10.857625
30
0.0
40
0.300000
50
90.000000
51
180.000000
0
LINE
8
0
10
84.099438
20
10.857625
30
0.0
11
84.099438
21
2.457625
31
0.0
0
ARC
8
0
10
83.599438
20
2.457625
30
0.0
40
0.500000
50
270.000000
51
0.000000
0
LINE
8
0
10
83.599438
20
1.957625
30
0.0
11
79.841058
21
1.957625
31
0.0
0
ARC
8
0
10
79.841058
20
2.257625
30
0.0
40
0.300000
50
202.024313
51
270.000000
0
ARC
8
0
10
79.099438
20
1.957625
30
0.0
40
0.500000
50
22.024313
51
157.975687
0
ARC
8
0
10
78.357818
20
2.257625
30
0.0
40
0.300000
50
270.000000
51
337.975687
0
LINE
8
0
10
78.357818
20
1.957625
30
0.0
11
75.541348
21
1.957625
31
0.0
0
ARC
8
0
10
75.541348
20
2.357625
30
0.0
40
0.400000
50
200.000000
51
270.000000
0
LINE
8
0
10
75.165471
20
2.220817
30
0.0
11
74.408839
21
4.299645
31
0.0
0
ARC
8
0
10
73.469147
20
3.957625
30
0.0
40
1.000000
50
20.000000
51
90.000000
0
LINE
8
0
10
73.469147
20
4.957625
30
0.0
11
72.486963
21
4.957625
31
0.0
0
ARC
8
0
10
72.486963
20
6.157625
30
0.0
40
1.200000
50
240.018361
51
270.000000
0
LINE
8
0
10
71.887296
20
5.118202
30
0.0
11
70.305352
21
6.030862
31
0.0
0
ARC
8
0
10
70.205408
20
5.857625
30
0.0
40
0.200000
50
60.018361
51
90.000000
0
LINE
8
0
10
70.205408
20
6.057625
30
0.0
11
69.698963
21
6.057625
31
0.0
0
ARC
8
0
10
69.698963
20
5.857625
30
0.0
40
0.200000
50
90.000000
51
180.000000
0
LINE
8
0
10
69.498963
20
5.857625
30
0.0
11
69.498963
21
2.057625
31
0.0
0
ARC
8
0
10
69.698963
20
2.057625
30
0.0
40
0.200000
50
180.000000
51
270.000000
0
LINE
8
0
10
69.698963
20
1.857625
30
0.0
11
70.205408
21
1.857625
31
0.0
0
ARC
8
0
10
70.205408
20
2.057625
30
0.0
40
0.200000
50
270.000000
51
299.981639
0
LINE
8
0
10
70.305352
20
1.884388
30
0.0
11
71.887296
21
2.797048
31
0.0
0
ARC
8
0
10
72.486963
20
1.757625
30
0.0
40
1.200000
50
90.000000
51
119.981639
0
LINE
8
0
10
72.486963
20
2.957625
30
0.0
11
72.771712
21
2.957625
31
0.0
0
ARC
8
0
10
72.771712
20
2.657625
30
0.0
40
0.300000
50
20.000000
51
90.000000
0
LINE
8
0
10
73.053620
20
2.760231
30
0.0
11
73.905097
21
0.420817
31
0.0
0
ARC
8
0
10
74.280974
20
0.557625
30
0.0
40
0.400000
50
200.000000
51
270.000000
0
LINE
8
0
10
74.280974
20
0.157625
30
0.0
11
92.717902
21
0.157625
31
0.0
0
ARC
8
0
10
22.781850
20
14.442359
30
0.0
40
0.400000
50
90.000000
51
160.000000
0
LINE
8
0
10
22.405973
20
14.579167
30
0.0
11
21.554496
21
12.239753
31
0.0
0
ARC
8
0
10
21.272588
20
12.342359
30
0.0
40
0.300000
50
270.000000
51
340.000000
0
LINE
8
0
10
21.272588
20
12.042359
30
0.0
11
20.987839
21
12.042359
31
0.0
0
ARC
8
0
10
20.987839
20
13.242359
30
0.0
40
1.200000
50
240.018361
51
270.000000
0
LINE
8
0
10
20.388172
20
12.202936
30
0.0
11
18.806228
21
13.115596
31
0.0
0
ARC
8
0
10
18.706284
20
12.942359
30
0.0
40
0.200000
50
60.018361
51
90.000000
0
LINE
8
0
10
18.706284
20
13.142359
30
0.0
11
18.199839
21
13.142359
31
0.0
0
ARC
8
0
10
18.199839
20
12.942359
30
0.0
40
0.200000
50
90.000000
51
180.000000
0
LINE
8
0
10
17.999839
20
12.942359
30
0.0
11
17.999839
21
9.142359
31
0.0
0
ARC
8
0
10
18.199839
20
9.142359
30
0.0
40
0.200000
50
180.000000
51
270.000000
0
LINE
8
0
10
18.199839
20
8.942359
30
0.0
11
18.706284
21
8.942359
31
0.0
0
ARC
8
0
10
18.706284
20
9.142359
30
0.0
40
0.200000
50
270.000000
51
299.981639
0
LINE
8
0
10
18.806228
20
8.969122
30
0.0
11
20.388172
21
9.881782
31
0.0
0
ARC
8
0
10
20.987839
20
8.842359
30
0.0
40
1.200000
50
90.000000
51
119.981639
0
LINE
8
0
10
20.987839
20
10.042359
30
0.0
11
21.970023
21
10.042359
31
0.0
0
ARC
8
0
10
21.970023
20
11.042359
30
0.0
40
1.000000
50
270.000000
51
340.000000
0
LINE
8
0
10
22.909715
20
10.700339
30
0.0
11
23.666347
21
12.779167
31
0.0
0
ARC
8
0
10
24.042224
20
12.642359
30
0.0
40
0.400000
50
90.000000
51
160.000000
0
LINE
8
0
10
24.042224
20
13.042359
30
0.0
11
29.900314
21
13.042359
31
0.0
0
ARC
8
0
10
29.900314
20
12.542359
30
0.0
40
0.500000
50
0.000000
51
90.000000
0
LINE
8
0
10
30.400314
20
12.542359
30
0.0
11
30.400314
21
4.142359
31
0.0
0
ARC
8
0
10
30.700314
20
4.142359
30
0.0
40
0.300000
50
180.000000
51
270.000000
0
LINE
8
0
10
30.700314
20
3.842359
30
0.0
11
31.100314
21
3.842359
31
0.0
0
ARC
8
0
10
31.100314
20
4.142359
30
0.0
40
0.300000
50
270.000000
51
0.000000
0
LINE
8
0
10
31.400314
20
4.142359
30
0.0
11
31.400314
21
12.542359
31
0.0
0
ARC
8
0
10
31.900314
20
12.542359
30
0.0
40
0.500000
50
90.000000
51
180.000000
0
LINE
8
0
10
31.900314
20
13.042359
30
0.0
11
35.658694
21
13.042359
31
0.0
0
ARC
8
0
10
35.658694
20
12.742359
30
0.0
40
0.300000
50
22.024313
51
90.000000
0
ARC
8
0
10
36.400314
20
13.042359
30
0.0
40
0.500000
50
202.024313
51
337.975687
0
ARC
8
0
10
37.141934
20
12.742359
30
0.0
40
0.300000
50
90.000000
51
157.975687
0
LINE
8
0
10
37.141934
20
13.042359
30
0.0
11
39.958405
21
13.042359
31
0.0
0
ARC
8
0
10
39.958405
20
12.642359
30
0.0
40
0.400000
50
20.000000
51
90.000000
0
LINE
8
0
10
40.334282
20
12.779167
30
0.0
11
41.090913
21
10.700339
31
0.0
0
ARC
8
0
10
42.030606
20
11.042359
30
0.0
40
1.000000
50
200.000000
51
270.000000
0
LINE
8
0
10
42.030606
20
10.042359
30
0.0
11
43.012790
21
10.042359
31
0.0
0
ARC
8
0
10
43.012790
20
8.842359
30
0.0
40
1.200000
50
60.018361
51
90.000000
0
LINE
8
0
10
43.612457
20
9.881782
30
0.0
11
45.194400
21
8.969122
31
0.0
0
ARC
8
0
10
45.294345
20
9.142359
30
0.0
40
0.200000
50
240.018361
51
270.000000
0
LINE
8
0
10
45.294345
20
8.942359
30
0.0
11
45.800789
21
8.942359
31
0.0
0
ARC
8
0
10
45.800789
20
9.142359
30
0.0
40
0.200000
50
270.000000
51
0.000000
0
LINE
8
0
10
46.000789
20
9.142359
30
0.0
11
46.000789
21
12.942359
31
0.0
0
ARC
8
0
10
45.800789
20
12.942359
30
0.0
40
0.200000
50
0.000000
51
90.000000
0
LINE
8
0
10
45.800789
20
13.142359
30
0.0
11
45.294345
21
13.142359
31
0.0
0
ARC
8
0
10
45.294345
20
12.942359
30
0.0
40
0.200000
50
90.000000
51
119.981639
0
LINE
8
0
10
45.194400
20
13.115596
30
0.0
11
43.612457
21
12.202936
31
0.0
0
ARC
8
0
10
43.012790
20
13.242359
30
0.0
40
1.200000
50
270.000000
51
299.981639
0
LINE
8
0
10
43.012790
20
12.042359
30
0.0
11
42.728040
21
12.042359
31
0.0
0
ARC
8
0
10
42.728040
20
12.342359
30
0.0
40
0.300000
50
200.000000
51
270.000000
0
LINE
8
0
10
42.446132
20
12.239753
30
0.0
11
41.594655
21
14.579167
31
0.0
0
ARC
8
0
10
41.218778
20
14.442359
30
0.0
40
0.400000
50
20.000000
51
90.000000
0
LINE
8
0
10
41.218778
20
14.842359
30
0.0
11
22.781850
21
14.842359
31
0.0
0
ARC
8
0
10
41.218778
20
0.557625
30
0.0
40
0.400000
50
270.000000
51
340.000000
0
LINE
8
0
10
41.594655
20
0.420817
30
0.0
11
42.446132
21
2.760231
31
0.0
0
ARC
8
0
10
42.728040
20
2.657625
30
0.0
40
0.300000
50
90.000000
51
160.000000
0
LINE
8
0
10
42.728040
20
2.957625
30
0.0
11
43.012790
21
2.957625
31
0.0
0
ARC
8
0
10
43.012790
20
1.757625
30
0.0
40
1.200000
50
60.018361
51
90.000000
0
LINE
8
0
10
43.612457
20
2.797048
30
0.0
11
45.194400
21
1.884388
31
0.0
0
ARC
8
0
10
45.294345
20
2.057625
30
0.0
40
0.200000
50
240.018361
51
270.000000
0
LINE
8
0
10
45.294345
20
1.857625
30
0.0
11
45.800789
21
1.857625
31
0.0
0
ARC
8
0
10
45.800789
20
2.057625
30
0.0
40
0.200000
50
270.000000
51
0.000000
0
LINE
8
0
10
46.000789
20
2.057625
30
0.0
11
46.000789
21
5.857625
31
0.0
0
ARC
8
0
10
45.800789
20
5.857625
30
0.0
40
0.200000
50
0.000000
51
90.000000
0
LINE
8
0
10
45.800789
20
6.057625
30
0.0
11
45.294345
21
6.057625
31
0.0
0
ARC
8
0
10
45.294345
20
5.857625
30
0.0
40
0.200000
50
90.000000
51
119.981639
0
LINE
8
0
10
45.194400
20
6.030862
30
0.0
11
43.612457
21
5.118202
31
0.0
0
ARC
8
0
10
43.012790
20
6.157625
30
0.0
40
1.200000
50
270.000000
51
299.981639
0
LINE
8
0
10
43.012790
20
4.957625
30
0.0
11
42.030606
21
4.957625
31
0.0
0
ARC
8
0
10
42.030606
20
3.957625
30
0.0
40
1.000000
50
90.000000
51
160.000000
0
LINE
8
0
10
41.090913
20
4.299645
30
0.0
11
40.334282
21
2.220817
31
0.0
0
ARC
8
0
10
39.958405
20
2.357625
30
0.0
40
0.400000
50
270.000000
51
340.000000
0
LINE
8
0
10
39.958405
20
1.957625
30
0.0
11
34.100314
21
1.957625
31
0.0
0
ARC
8
0
10
34.100314
20
2.457625
30
0.0
40
0.500000
50
180.000000
51
270.000000
0
LINE
8
0
10
33.600314
20
2.457625
30
0.0
11
33.600314
21
10.857625
31
0.0
0
ARC
8
0
10
33.300314
20
10.857625
30
0.0
40
0.300000
50
0.000000
51
90.000000
0
LINE
8
0
10
33.300314
20
11.157625
30
0.0
11
32.900314
21
11.157625
31
0.0
0
ARC
8
0
10
32.900314
20
10.857625
30
0.0
40
0.300000
50
90.000000
51
180.000000
0
LINE
8
0
10
32.600314
20
10.857625
30
0.0
11
32.600314
21
2.457625
31
0.0
0
ARC
8
0
10
32.100314
20
2.457625
30
0.0
40
0.500000
50
270.000000
51
0.000000
0
LINE
8
0
10
32.100314
20
1.957625
30
0.0
11
28.341934
21
1.957625
31
0.0
0
ARC
8
0
10
28.341934
20
2.257625
30
0.0
40
0.300000
50
202.024313
51
270.000000
0
ARC
8
0
10
27.600314
20
1.957625
30
0.0
40
0.500000
50
22.024313
51
157.975687
0
ARC
8
0
10
26.858694
20
2.257625
30
0.0
40
0.300000
50
270.000000
51
337.975687
0
LINE
8
0
10
26.858694
20
1.957625
30
0.0
11
24.042224
21
1.957625
31
0.0
0
ARC
8
0
10
24.042224
20
2.357625
30
0.0
40
0.400000
50
200.000000
51
270.000000
0
LINE
8
0
10
23.666347
20
2.220817
30
0.0
11
22.909715
21
4.299645
31
0.0
0
ARC
8
0
10
21.970023
20
3.957625
30
0.0
40
1.000000
50
20.000000
51
90.000000
0
LINE
8
0
10
21.970023
20
4.957625
30
0.0
11
20.987839
21
4.957625
31
0.0
0
ARC
8
0
10
20.987839
20
6.157625
30
0.0
40
1.200000
50
240.018361
51
270.000000
0
LINE
8
0
10
20.388172
20
5.118202
30
0.0
11
18.806228
21
6.030862
31
0.0
0
ARC
8
0
10
18.706284
20
5.857625
30
0.0
40
0.200000
50
60.018361
51
90.000000
0
LINE
8
0
10
18.706284
20
6.057625
30
0.0
11
18.199839
21
6.057625
31
0.0
0
ARC
8
0
10
18.199839
20
5.857625
30
0.0
40
0.200000
50
90.000000
51
180.000000
0
LINE
8
0
10
17.999839
20
5.857625
30
0.0
11
17.999839
21
2.057625
31
0.0
0
ARC
8
0
10
18.199839
20
2.057625
30
0.0
40
0.200000
50
180.000000
51
270.000000
0
LINE
8
0
10
18.199839
20
1.857625
30
0.0
11
18.706284
21
1.857625
31
0.0
0
ARC
8
0
10
18.706284
20
2.057625
30
0.0
40
0.200000
50
270.000000
51
299.981639
0
LINE
8
0
10
18.806228
20
1.884388
30
0.0
11
20.388172
21
2.797048
31
0.0
0
ARC
8
0
10
20.987839
20
1.757625
30
0.0
40
1.200000
50
90.000000
51
119.981639
0
LINE
8
0
10
20.987839
20
2.957625
30
0.0
11
21.272588
21
2.957625
31
0.0
0
ARC
8
0
10
21.272588
20
2.657625
30
0.0
40
0.300000
50
20.000000
51
90.000000
0
LINE
8
0
10
21.554496
20
2.760231
30
0.0
11
22.405973
21
0.420817
31
0.0
0
ARC
8
0
10
22.781850
20
0.557625
30
0.0
40
0.400000
50
200.000000
51
270.000000
0
LINE
8
0
10
22.781850
20
0.157625
30
0.0
11
41.218778
21
0.157625
31
0.0
0
LINE
8
0
10
98.624153
20
40.700000
30
0.0
11
99.296461
21
40.700000
31
0.0
0
ARC
8
0
10
99.296461
20
41.000000
30
0.0
40
0.300000
50
270.000000
51
0.000000
0
LINE
8
0
10
99.596461
20
41.000000
30
0.0
11
99.596461
21
42.800000
31
0.0
0
ARC
8
0
10
99.296461
20
42.800000
30
0.0
40
0.300000
50
0.000000
51
90.000000
0
LINE
8
0
10
99.296461
20
43.100000
30
0.0
11
87.396461
21
43.100000
31
0.0
0
ARC
8
0
10
87.396461
20
42.100000
30
0.0
40
1.000000
50
90.000000
51
180.000000
0
LINE
8
0
10
86.396461
20
42.100000
30
0.0
11
86.396461
21
37.714623
31
0.0
0
ARC
8
0
10
87.196461
20
37.714623
30
0.0
40
0.800000
50
180.000000
51
255.068583
0
LINE
8
0
10
86.990331
20
36.941635
30
0.0
11
87.673760
21
36.759387
31
0.0
0
ARC
8
0
10
87.596461
20
36.469517
30
0.0
40
0.300000
50
0.000000
51
75.068583
0
LINE
8
0
10
87.896461
20
36.469517
30
0.0
11
87.896461
21
21.300000
31
0.0
0
ARC
8
0
10
87.396461
20
21.300000
30
0.0
40
0.500000
50
270.000000
51
0.000000
0
LINE
8
0
10
87.396461
20
20.800000
30
0.0
11
63.197362
21
20.800000
31
0.0
0
ARC
8
0
10
63.197362
20
20.300000
30
0.0
40
0.500000
50
90.000000
51
180.000000
0
LINE
8
0
10
62.697362
20
20.300000
30
0.0
11
62.697362
21
15.300000
31
0.0
0
ARC
8
0
10
62.997362
20
15.300000
30
0.0
40
0.300000
50
180.000000
51
270.000000
0
LINE
8
0
10
62.997362
20
15.000000
30
0.0
11
63.997362
21
15.000000
31
0.0
0
ARC
8
0
10
63.997362
20
15.300000
30
0.0
40
0.300000
50
270.000000
51
0.000000
0
LINE
8
0
10
64.297362
20
15.300000
30
0.0
11
64.297362
21
18.300000
31
0.0
0
ARC
8
0
10
64.797362
20
18.300000
30
0.0
40
0.500000
50
90.000000
51
180.000000
0
LINE
8
0
10
64.797362
20
18.800000
30
0.0
11
75.046911
21
18.800000
31
0.0
0
ARC
8
0
10
75.046911
20
18.300000
30
0.0
40
0.500000
50
0.000000
51
90.000000
0
LINE
8
0
10
75.546911
20
18.300000
30
0.0
11
75.546911
21
15.300000
31
0.0
0
ARC
8
0
10
75.846911
20
15.300000
30
0.0
40
0.300000
50
180.000000
51
270.000000
0
LINE
8
0
10
75.846911
20
15.000000
30
0.0
11
76.846911
21
15.000000
31
0.0
0
ARC
8
0
10
76.846911
20
15.300000
30
0.0
40
0.300000
50
270.000000
51
0.000000
0
LINE
8
0
10
77.146911
20
15.300000
30
0.0
11
77.146911
21
18.300000
31
0.0
0
ARC
8
0
10
77.646911
20
18.300000
30
0.0
40
0.500000
50
90.000000
51
180.000000
0
LINE
8
0
10
77.646911
20
18.800000
30
0.0
11
87.796461
21
18.800000
31
0.0
0
ARC
8
0
10
87.796461
20
18.300000
30
0.0
40
0.500000
50
0.000000
51
90.000000
0
LINE
8
0
10
88.296461
20
18.300000
30
0.0
11
88.296461
21
15.300000
31
0.0
0
ARC
8
0
10
88.596461
20
15.300000
30
0.0
40
0.300000
50
180.000000
51
270.000000
0
LINE
8
0
10
88.596461
20
15.000000
30
0.0
11
89.596461
21
15.000000
31
0.0
0
ARC
8
0
10
89.596461
20
15.300000
30
0.0
40
0.300000
50
270.000000
51
0.000000
0
LINE
8
0
10
89.896461
20
15.300000
30
0.0
11
89.896461
21
19.200000
31
0.0
0
ARC
8
0
10
91.396461
20
19.200000
30
0.0
40
1.500000
50
90.000000
51
180.000000
0
LINE
8
0
10
91.396461
20
20.700000
30
0.0
11
96.696461
21
20.700000
31
0.0
0
ARC
8
0
10
96.696461
20
21.700000
30
0.0
40
1.000000
50
270.000000
51
0.000000
0
LINE
8
0
10
97.696461
20
21.700000
30
0.0
11
97.696461
21
21.800000
31
0.0
0
ARC
8
0
10
97.196461
20
21.800000
30
0.0
40
0.500000
50
0.000000
51
90.000000
0
LINE
8
0
10
97.196461
20
22.300000
30
0.0
11
90.196461
21
22.300000
31
0.0
0
ARC
8
0
10
90.196461
20
22.800000
30
0.0
40
0.500000
50
180.000000
51
270.000000
0
LINE
8
0
10
89.696461
20
22.800000
30
0.0
11
89.696461
21
37.698762
31
0.0
0
ARC
8
0
10
89.196461
20
37.698762
30
0.0
40
0.500000
50
0.000000
51
75.068583
0
LINE
8
0
10
89.325292
20
38.181880
30
0.0
11
88.567630
21
38.383923
31
0.0
0
ARC
8
0
10
88.696461
20
38.867041
30
0.0
40
0.500000
50
180.000000
51
255.068583
0
LINE
8
0
10
88.196461
20
38.867041
30
0.0
11
88.196461
21
40.800000
31
0.0
0
ARC
8
0
10
88.696461
20
40.800000
30
0.0
40
0.500000
50
90.000000
51
180.000000
0
LINE
8
0
10
88.696461
20
41.300000
30
0.0
11
95.751558
21
41.300000
31
0.0
0
ARC
8
0
10
95.751558
20
41.600000
30
0.0
40
0.300000
50
270.000000
51
326.251011
0
ARC
8
0
10
96.499889
20
41.100000
30
0.0
40
0.600000
50
303.748989
51
146.251011
0
ARC
8
0
10
96.999889
20
40.351669
30
0.0
40
0.300000
50
123.748989
51
180.000000
0
LINE
8
0
10
96.699889
20
40.351669
30
0.0
11
96.699889
21
37.010074
31
0.0
0
ARC
8
0
10
96.999889
20
37.010074
30
0.0
40
0.300000
50
180.000000
51
248.279152
0
LINE
8
0
10
96.888864
20
36.731374
30
0.0
11
97.153155
21
36.626089
31
0.0
0
ARC
8
0
10
97.042129
20
36.347389
30
0.0
40
0.300000
50
340.000000
51
68.279152
0
LINE
8
0
10
97.324037
20
36.244783
30
0.0
11
96.326909
21
33.505195
31
0.0
0
ARC
8
0
10
96.890712
20
33.299988
30
0.0
40
0.599987
50
160.000000
51
339.922274
0
LINE
8
0
10
97.454237
20
33.094015
30
0.0
11
98.788210
21
36.743665
31
0.0
0
ARC
8
0
10
98.318596
20
36.915312
30
0.0
40
0.500000
50
339.922274
51
68.279152
0
LINE
8
0
10
98.503639
20
37.379811
30
0.0
11
98.088864
21
37.545045
31
0.0
0
ARC
8
0
10
98.199889
20
37.823744
30
0.0
40
0.300000
50
180.000000
51
248.279152
0
LINE
8
0
10
97.899889
20
37.823744
30
0.0
11
97.899889
21
39.975736
31
0.0
0
ARC
8
0
10
98.199889
20
39.975736
30
0.0
40
0.300000
50
135.000000
51
180.000000
0
LINE
8
0
10
97.987757
20
40.187868
30
0.0
11
98.412021
21
40.612132
31
0.0
0
ARC
8
0
10
98.624153
20
40.400000
30
0.0
40
0.300000
50
90.000000
51
135.000000
0
LINE
8
0
10
102.499889
20
41.300000
30
0.0
11
103.199889
21
41.300000
31
0.0
0
ARC
8
0
10
103.199889
20
41.000000
30
0.0
40
0.300000
50
0.000000
51
90.000000
0
LINE
8
0
10
103.499889
20
41.000000
30
0.0
11
103.499889
21
35.824264
31
0.0
0
ARC
8
0
10
103.199889
20
35.824264
30
0.0
40
0.300000
50
315.000000
51
0.000000
0
LINE
8
0
10
103.412022
20
35.612132
30
0.0
11
102.214838
21
34.414949
31
0.0
0
ARC
8
0
10
102.568392
20
34.061396
30
0.0
40
0.500000
50
135.000000
51
210.000000
0
LINE
8
0
10
102.135379
20
33.811396
30
0.0
11
102.719490
21
32.799686
31
0.0
0
ARC
8
0
10
103.065900
20
32.999686
30
0.0
40
0.400000
50
210.000000
51
30.000000
0
LINE
8
0
10
103.412310
20
33.199686
30
0.0
11
103.058397
21
33.812681
31
0.0
0
ARC
8
0
10
103.318205
20
33.962681
30
0.0
40
0.300000
50
135.000000
51
210.000000
0
LINE
8
0
10
103.106073
20
34.174813
30
0.0
11
104.212022
21
35.280761
31
0.0
0
ARC
8
0
10
103.999889
20
35.492893
30
0.0
40
0.300000
50
315.000000
51
0.000000
0
LINE
8
0
10
104.299889
20
35.492893
30
0.0
11
104.299889
21
41.000000
31
0.0
0
ARC
8
0
10
104.599889
20
41.000000
30
0.0
40
0.300000
50
90.000000
51
180.000000
0
LINE
8
0
10
104.599889
20
41.300000
30
0.0
11
112.799889
21
41.300000
31
0.0
0
ARC
8
0
10
112.799889
20
41.000000
30
0.0
40
0.300000
50
0.000000
51
90.000000
0
LINE
8
0
10
113.099889
20
41.000000
30
0.0
11
113.099889
21
35.492893
31
0.0
0
ARC
8
0
10
113.399889
20
35.492893
30
0.0
40
0.300000
50
180.000000
51
225.000000
0
LINE
8
0
10
113.187757
20
35.280761
30
0.0
11
114.293706
21
34.174813
31
0.0
0
ARC
8
0
10
114.081574
20
33.962681
30
0.0
40
0.300000
50
330.000000
51
45.000000
0
LINE
8
0
10
114.341382
20
33.812681
30
0.0
11
113.987469
21
33.199686
31
0.0
0
ARC
8
0
10
114.333879
20
32.999686
30
0.0
40
0.400000
50
150.000000
51
330.000000
0
LINE
8
0
10
114.680289
20
32.799686
30
0.0
11
115.264400
21
33.811396
31
0.0
0
ARC
8
0
10
114.831387
20
34.061396
30
0.0
40
0.500000
50
330.000000
51
45.000000
0
LINE
8
0
10
115.184941
20
34.414949
30
0.0
11
113.987757
21
35.612132
31
0.0
0
ARC
8
0
10
114.199889
20
35.824264
30
0.0
40
0.300000
50
180.000000
51
225.000000
0
LINE
8
0
10
113.899889
20
35.824264
30
0.0
11
113.899889
21
41.000000
31
0.0
0
ARC
8
0
10
114.199889
20
41.000000
30
0.0
40
0.300000
50
90.000000
51
180.000000
0
LINE
8
0
10
114.199889
20
41.300000
30
0.0
11
114.899889
21
41.300000
31
0.0
0
ARC
8
0
10
114.899889
20
40.300000
30
0.0
40
1.000000
50
337.380135
51
90.000000
0
ARC
8
0
10
116.099889
20
39.800000
30
0.0
40
0.300000
50
157.380135
51
270.000000
0
LINE
8
0
10
116.099889
20
39.500000
30
0.0
11
117.399889
21
39.500000
31
0.0
0
ARC
8
0
10
117.399889
20
39.800000
30
0.0
40
0.300000
50
270.000000
51
0.000000
0
LINE
8
0
10
117.699889
20
39.800000
30
0.0
11
117.699889
21
43.100000
31
0.0
0
ARC
8
0
10
117.399889
20
43.100000
30
0.0
40
0.300000
50
0.000000
51
90.000000
0
LINE
8
0
10
117.399889
20
43.400000
30
0.0
11
111.699889
21
43.400000
31
0.0
0
ARC
8
0
10
111.699889
20
43.900000
30
0.0
40
0.500000
50
180.000000
51
270.000000
0
LINE
8
0
10
111.199889
20
43.900000
30
0.0
11
111.199889
21
44.200000
31
0.0
0
ARC
8
0
10
108.699889
20
44.200000
30
0.0
40
2.500000
50
0.000000
51
180.000000
0
LINE
8
0
10
106.199889
20
44.200000
30
0.0
11
106.199889
21
43.900000
31
0.0
0
ARC
8
0
10
105.699889
20
43.900000
30
0.0
40
0.500000
50
270.000000
51
0.000000
0
LINE
8
0
10
105.699889
20
43.400000
30
0.0
11
99.999889
21
43.400000
31
0.0
0
ARC
8
0
10
99.999889
20
43.100000
30
0.0
40
0.300000
50
90.000000
51
180.000000
0
LINE
8
0
10
99.699889
20
43.100000
30
0.0
11
99.699889
21
39.800000
31
0.0
0
ARC
8
0
10
99.999889
20
39.800000
30
0.0
40
0.300000
50
180.000000
51
270.000000
0
LINE
8
0
10
99.999889
20
39.500000
30
0.0
11
101.299889
21
39.500000
31
0.0
0
ARC
8
0
10
101.299889
20
39.800000
30
0.0
40
0.300000
50
270.000000
51
22.619865
0
ARC
8
0
10
102.499889
20
40.300000
30
0.0
40
1.000000
50
90.000000
51
202.619865
0
ATTDEF
8
0
10
0.000000
20
0.000000
30
0.0
40
3.5
1

3

2
GLASS_MIN:0.000000
70
0
0
ATTDEF
8
0
10
0.000000
20
0.000000
30
0.0
40
3.5
1

3

2
GLASS_MAX:0.000000
70
0
0
ATTDEF
8
0
10
0.000000
20
0.000000
30
0.0
40
3.5
1

3

2
BL01:6500.000000,,1
70
0
0
ATTDEF
8
0
10
0.000000
20
0.000000
30
0.0
40
3.5
1

3

2
HW_START
70
0
0
ATTDEF
8
0
10
139.999889
20
46.700000
30
0.0
40
3.5
1

3

2
HW_END
70
0
0
ATTDEF
8
0
10
1.924723
20
27.600000
30
0.0
40
3.5
1

3

2
VC_START
70
0
0
ATTDEF
8
0
10
1.924723
20
0.000000
30
0.0
40
3.5
1

3

2
VC_END
70
0
0
ATTDEF
8
0
10
0.000000
20
0.000000
30
0.0
40
3.5
1

3

2
FP_LCS_ORIG
70
0
0
ATTDEF
8
0
10
10.000000
20
0.000000
30
0.0
40
3.5
1

3

2
FP_LCS_HOT
70
0
0
ATTDEF
8
0
10
0.000000
20
10.000000
30
0.0
40
3.5
1

3

2
FP_LCS_INTERN
70
0
0
ATTDEF
8
0
10
0.000000
20
0.000000
30
0.0
40
3.5
1

3

2
TDEV3:0
70
0
0
ATTDEF
8
0
10
0.000000
20
0.000000
30
0.0
40
3.5
1

3

2
TDEV4:0
70
0
0
ATTDEF
8
0
10
0.000000
20
0.000000
30
0.0
40
3.5
1

3

2
TDEV5:0
70
0
0
ATTDEF
8
0
10
0.000000
20
0.000000
30
0.0
40
3.5
1

3

2
PANE_WIDTH:57.5
70
0
0
ATTDEF
8
0
10
0.000000
20
0.000000
30
0.0
40
3.5
1

3

2
MIN_VETRO:0
70
0
0
ATTDEF
8
0
10
0.000000
20
0.000000
30
0.0
40
3.5
1

3

2
MAX_VETRO:0
70
0
0
ATTDEF
8
0
10
0.000000
20
0.000000
30
0.0
40
3.5
1

3

2
JX:0
70
0
0
ATTDEF
8
0
10
0.000000
20
0.000000
30
0.0
40
3.5
1

3

2
WX:0
70
0
0
ATTDEF
8
0
10
0.000000
20
0.000000
30
0.0
40
3.5
1

3

2
JY:0
70
0
0
ATTDEF
8
0
10
0.000000
20
0.000000
30
0.0
40
3.5
1

3

2
WY:0
70
0
0
ATTDEF
8
0
10
0.000000
20
0.000000
30
0.0
40
3.5
1

3

2
DESC:U10000 - V31212 - N10630
70
0
0
ATTDEF
8
0
10
0.000000
20
0.000000
30
0.0
40
3.5
1

3

2
DENS:0
70
0
0
ATTDEF
8
0
10
0.000000
20
0.000000
30
0.0
40
3.5
1

3

2
TDEV:0
70
0
0
ATTDEF
8
0
10
0.000000
20
0.000000
30
0.0
40
3.5
1

3

2
TDEV2:0
70
0
0
ATTDEF
8
0
10
0.000000
20
0.000000
30
0.0
40
3.5
1

3

2
TDEV3:0
70
0
0
ATTDEF
8
0
10
0.000000
20
0.000000
30
0.0
40
3.5
1

3

2
TDEV4:0
70
0
0
ATTDEF
8
0
10
0.000000
20
0.000000
30
0.0
40
3.5
1

3

2
TDEV5:0
70
0
0
ATTDEF
8
0
10
0.000000
20
0.000000
30
0.0
40
3.5
1

3

2
PANE_WIDTH:57.5
70
0
0
ATTDEF
8
0
10
0.000000
20
0.000000
30
0.0
40
3.5
1

3

2
MIN_VETRO:0
70
0
0
ATTDEF
8
0
10
0.000000
20
0.000000
30
0.0
40
3.5
1

3

2
MAX_VETRO:0
70
0
0
ATTDEF
8
0
10
0.000000
20
0.000000
30
0.0
40
3.5
1

3

2
JX:0
70
0
0
ATTDEF
8
0
10
0.000000
20
0.000000
30
0.0
40
3.5
1

3

2
WX:0
70
0
0
ATTDEF
8
0
10
0.000000
20
0.000000
30
0.0
40
3.5
1

3

2
JY:0
70
0
0
ATTDEF
8
0
10
0.000000
20
0.000000
30
0.0
40
3.5
1

3

2
WY:0
70
0
0
ENDSEC
0
EOF
