0
SECTION
2
ENTITIES
0
LINE
8
0
10
132.000000
20
63.303432
30
0.0
11
134.200000
21
63.303432
31
0.0
0
ARC
8
0
10
134.200000
20
63.603432
30
0.0
40
0.300000
50
270.000000
51
0.000000
0
LINE
8
0
10
134.500000
20
63.603432
30
0.0
11
134.500000
21
69.502869
31
0.0
0
ARC
8
0
10
134.800000
20
69.502869
30
0.0
40
0.300000
50
90.000000
51
180.000000
0
LINE
8
0
10
134.800000
20
69.802869
30
0.0
11
138.100000
21
69.802869
31
0.0
0
ARC
8
0
10
138.100000
20
69.502869
30
0.0
40
0.300000
50
0.000000
51
90.000000
0
LINE
8
0
10
138.400000
20
69.502869
30
0.0
11
138.400000
21
49.903432
31
0.0
0
ARC
8
0
10
138.100000
20
49.903432
30
0.0
40
0.300000
50
270.000000
51
0.000000
0
LINE
8
0
10
138.100000
20
49.603432
30
0.0
11
129.700000
21
49.603432
31
0.0
0
ARC
8
0
10
129.700000
20
49.903432
30
0.0
40
0.300000
50
180.000000
51
270.000000
0
LINE
8
0
10
129.400000
20
49.903432
30
0.0
11
129.400000
21
63.003432
31
0.0
0
ARC
8
0
10
129.700000
20
63.003432
30
0.0
40
0.300000
50
90.000000
51
180.000000
0
LINE
8
0
10
129.700000
20
63.303432
30
0.0
11
131.400000
21
63.303432
31
0.0
0
LINE
8
0
10
131.400000
20
63.303432
30
0.0
11
131.700000
21
63.603432
31
0.0
0
LINE
8
0
10
131.700000
20
63.603432
30
0.0
11
132.000000
21
63.303432
31
0.0
0
ARC
8
0
10
136.900000
20
38.202869
30
0.0
40
0.300000
50
270.000000
51
0.000000
0
LINE
8
0
10
137.200000
20
38.202869
30
0.0
11
137.200000
21
39.102869
31
0.0
0
ARC
8
0
10
137.500000
20
39.102869
30
0.0
40
0.300000
50
90.000000
51
180.000000
0
LINE
8
0
10
137.500000
20
39.402869
30
0.0
11
138.100000
21
39.402869
31
0.0
0
ARC
8
0
10
138.100000
20
39.102869
30
0.0
40
0.300000
50
0.000000
51
90.000000
0
LINE
8
0
10
138.400000
20
39.102869
30
0.0
11
138.400000
21
22.602869
31
0.0
0
ARC
8
0
10
138.100000
20
22.602869
30
0.0
40
0.300000
50
270.000000
51
0.000000
0
LINE
8
0
10
138.100000
20
22.302869
30
0.0
11
137.500000
21
22.302869
31
0.0
0
ARC
8
0
10
137.500000
20
22.602869
30
0.0
40
0.300000
50
180.000000
51
270.000000
0
LINE
8
0
10
137.200000
20
22.602869
30
0.0
11
137.200000
21
23.502869
31
0.0
0
ARC
8
0
10
136.900000
20
23.502869
30
0.0
40
0.300000
50
0.000000
51
90.000000
0
LINE
8
0
10
136.900000
20
23.802869
30
0.0
11
136.200000
21
23.802869
31
0.0
0
ARC
8
0
10
136.200000
20
23.502869
30
0.0
40
0.300000
50
90.000000
51
180.000000
0
LINE
8
0
10
135.900000
20
23.502869
30
0.0
11
135.900000
21
19.902869
31
0.0
0
ARC
8
0
10
136.200000
20
19.902869
30
0.0
40
0.300000
50
180.000000
51
270.000000
0
LINE
8
0
10
136.200000
20
19.602869
30
0.0
11
136.600000
21
19.602869
31
0.0
0
ARC
8
0
10
136.600000
20
19.902869
30
0.0
40
0.300000
50
270.000000
51
0.000000
0
LINE
8
0
10
136.900000
20
19.902869
30
0.0
11
136.900000
21
20.802869
31
0.0
0
ARC
8
0
10
137.200000
20
20.802869
30
0.0
40
0.300000
50
90.000000
51
180.000000
0
LINE
8
0
10
137.200000
20
21.102869
30
0.0
11
137.897977
21
21.102869
31
0.0
0
ARC
8
0
10
137.897977
20
20.802869
30
0.0
40
0.300000
50
0.000000
51
90.000000
0
LINE
8
0
10
138.197977
20
20.802869
30
0.0
11
138.197977
21
20.052869
31
0.0
0
ARC
8
0
10
138.497977
20
20.052869
30
0.0
40
0.300000
50
180.000000
51
240.000000
0
ARC
8
0
10
138.197977
20
19.533254
30
0.0
40
0.300000
50
0.000000
51
60.000000
0
LINE
8
0
10
138.497977
20
19.533254
30
0.0
11
138.497977
21
15.072485
31
0.0
0
ARC
8
0
10
138.197977
20
15.072485
30
0.0
40
0.300000
50
300.000000
51
0.000000
0
ARC
8
0
10
138.497977
20
14.552869
30
0.0
40
0.300000
50
120.000000
51
180.000000
0
LINE
8
0
10
138.197977
20
14.552869
30
0.0
11
138.197977
21
13.802869
31
0.0
0
ARC
8
0
10
137.897977
20
13.802869
30
0.0
40
0.300000
50
270.000000
51
0.000000
0
LINE
8
0
10
137.897977
20
13.502869
30
0.0
11
137.200000
21
13.502869
31
0.0
0
ARC
8
0
10
137.200000
20
13.802869
30
0.0
40
0.300000
50
180.000000
51
270.000000
0
LINE
8
0
10
136.900000
20
13.802869
30
0.0
11
136.900000
21
14.702869
31
0.0
0
ARC
8
0
10
136.600000
20
14.702869
30
0.0
40
0.300000
50
0.000000
51
90.000000
0
LINE
8
0
10
136.600000
20
15.002869
30
0.0
11
136.200000
21
15.002869
31
0.0
0
ARC
8
0
10
136.200000
20
14.702869
30
0.0
40
0.300000
50
90.000000
51
180.000000
0
LINE
8
0
10
135.900000
20
14.702869
30
0.0
11
135.900000
21
12.602869
31
0.0
0
ARC
8
0
10
136.200000
20
12.602869
30
0.0
40
0.300000
50
180.000000
51
270.000000
0
LINE
8
0
10
136.200000
20
12.302869
30
0.0
11
139.400000
21
12.302869
31
0.0
0
ARC
8
0
10
139.400000
20
12.802869
30
0.0
40
0.500000
50
270.000000
51
0.000000
0
LINE
8
0
10
139.900000
20
12.802869
30
0.0
11
139.900000
21
76.002869
31
0.0
0
ARC
8
0
10
139.600000
20
76.002869
30
0.0
40
0.300000
50
0.000000
51
90.000000
0
LINE
8
0
10
139.600000
20
76.302869
30
0.0
11
136.350555
21
76.302869
31
0.0
0
ARC
8
0
10
136.350555
20
76.002869
30
0.0
40
0.300000
50
90.000000
51
150.000000
0
LINE
8
0
10
136.090748
20
76.152869
30
0.0
11
135.640192
21
75.372485
31
0.0
0
ARC
8
0
10
135.900000
20
75.222485
30
0.0
40
0.300000
50
150.000000
51
180.000000
0
LINE
8
0
10
135.600000
20
75.222485
30
0.0
11
135.600000
21
75.102869
31
0.0
0
ARC
8
0
10
135.900000
20
75.102869
30
0.0
40
0.300000
50
180.000000
51
270.000000
0
LINE
8
0
10
135.900000
20
74.802869
30
0.0
11
137.800000
21
74.802869
31
0.0
0
ARC
8
0
10
137.800000
20
74.502869
30
0.0
40
0.300000
50
0.000000
51
90.000000
0
LINE
8
0
10
138.100000
20
74.502869
30
0.0
11
138.100000
21
71.602869
31
0.0
0
ARC
8
0
10
137.800000
20
71.602869
30
0.0
40
0.300000
50
270.000000
51
0.000000
0
LINE
8
0
10
137.800000
20
71.302869
30
0.0
11
132.630521
21
71.302869
31
0.0
0
ARC
8
0
10
132.630521
20
71.002869
30
0.0
40
0.300000
50
90.000000
51
109.778171
0
LINE
8
0
10
132.529007
20
71.285172
30
0.0
11
131.228683
21
70.817586
31
0.0
0
ARC
8
0
10
131.149164
20
71.038724
30
0.0
40
0.235000
50
204.000000
51
289.778171
0
ARC
8
0
10
130.713229
20
70.862310
30
0.0
40
0.235000
50
24.000000
51
90.000000
0
LINE
8
0
10
130.714786
20
71.097305
30
0.0
11
129.135857
21
71.107762
31
0.0
0
ARC
8
0
10
129.133870
20
70.807769
30
0.0
40
0.300000
50
90.000000
51
204.620541
0
LINE
8
0
10
128.861144
20
70.682787
30
0.0
11
129.809794
21
68.577271
31
0.0
0
ARC
8
0
10
130.083314
20
68.700507
30
0.0
40
0.300000
50
204.254172
51
244.620541
0
LINE
8
0
10
129.954731
20
68.429460
30
0.0
11
130.462153
21
68.188741
31
0.0
0
ARC
8
0
10
130.547876
20
68.369439
30
0.0
40
0.200000
50
244.620541
51
4.620541
0
LINE
8
0
10
130.747226
20
68.385550
30
0.0
11
130.737924
21
68.500645
31
0.0
0
ARC
8
0
10
131.036949
20
68.524812
30
0.0
40
0.300000
50
124.620541
51
184.620541
0
LINE
8
0
10
130.866507
20
68.771692
30
0.0
11
132.495264
21
69.896158
31
0.0
0
LINE
8
0
10
132.495264
20
69.896158
30
0.0
11
132.677973
21
69.977505
31
0.0
0
ARC
8
0
10
132.799975
20
69.703423
30
0.0
40
0.300009
50
311.812671
51
113.995287
0
ARC
8
0
10
133.200000
20
69.256218
30
0.0
40
0.300000
50
131.812671
51
180.000000
0
LINE
8
0
10
132.900000
20
69.256218
30
0.0
11
132.900000
21
65.403432
31
0.0
0
ARC
8
0
10
132.600000
20
65.403432
30
0.0
40
0.300000
50
270.000000
51
0.000000
0
LINE
8
0
10
132.600000
20
65.103432
30
0.0
11
132.378807
21
65.103432
31
0.0
0
ARC
8
0
10
132.378807
20
65.403432
30
0.0
40
0.300000
50
238.600000
51
270.000000
0
LINE
8
0
10
132.222504
20
65.147367
30
0.0
11
130.704202
21
66.074142
31
0.0
0
ARC
8
0
10
130.600000
20
65.903432
30
0.0
40
0.200000
50
58.600000
51
180.000000
0
LINE
8
0
10
130.400000
20
65.903432
30
0.0
11
130.400000
21
65.553432
31
0.0
0
ARC
8
0
10
130.100000
20
65.553432
30
0.0
40
0.300000
50
270.000000
51
0.000000
0
LINE
8
0
10
130.100000
20
65.253432
30
0.0
11
126.686766
21
65.253432
31
0.0
0
ARC
8
0
10
126.686766
20
64.253432
30
0.0
40
1.000000
50
90.000000
51
121.400000
0
LINE
8
0
10
126.165756
20
65.106983
30
0.0
11
125.878990
21
64.931940
31
0.0
0
ARC
8
0
10
126.400000
20
64.078389
30
0.0
40
1.000000
50
121.400000
51
180.000000
0
LINE
8
0
10
125.400000
20
64.078389
30
0.0
11
125.400000
21
62.652806
31
0.0
0
ARC
8
0
10
125.600000
20
62.652806
30
0.0
40
0.200000
50
180.000000
51
301.400000
0
LINE
8
0
10
125.704202
20
62.482096
30
0.0
11
127.222504
21
63.408871
31
0.0
0
ARC
8
0
10
127.378807
20
63.152806
30
0.0
40
0.300000
50
90.000000
51
121.400000
0
LINE
8
0
10
127.378807
20
63.452806
30
0.0
11
127.600000
21
63.452806
31
0.0
0
ARC
8
0
10
127.600000
20
63.152806
30
0.0
40
0.300000
50
0.000000
51
90.000000
0
LINE
8
0
10
127.900000
20
63.152806
30
0.0
11
127.900000
21
59.300020
31
0.0
0
ARC
8
0
10
128.200000
20
59.300020
30
0.0
40
0.300000
50
180.000000
51
228.187329
0
ARC
8
0
10
127.799975
20
58.852815
30
0.0
40
0.300009
50
246.004713
51
48.187329
0
LINE
8
0
10
127.677973
20
58.578733
30
0.0
11
127.495264
21
58.660080
31
0.0
0
LINE
8
0
10
127.495264
20
58.660080
30
0.0
11
125.866507
21
59.784546
31
0.0
0
ARC
8
0
10
126.036949
20
60.031426
30
0.0
40
0.300000
50
175.379459
51
235.379459
0
LINE
8
0
10
125.737924
20
60.055593
30
0.0
11
125.747226
21
60.170688
31
0.0
0
ARC
8
0
10
125.547876
20
60.186799
30
0.0
40
0.200000
50
355.379459
51
115.379459
0
LINE
8
0
10
125.462153
20
60.367497
30
0.0
11
124.954731
21
60.126778
31
0.0
0
ARC
8
0
10
125.083314
20
59.855731
30
0.0
40
0.300000
50
115.379459
51
155.745828
0
LINE
8
0
10
124.809794
20
59.978967
30
0.0
11
123.861144
21
57.873451
31
0.0
0
ARC
8
0
10
124.133870
20
57.748469
30
0.0
40
0.300000
50
155.379459
51
270.000000
0
LINE
8
0
10
124.135857
20
57.448476
30
0.0
11
125.714786
21
57.458933
31
0.0
0
ARC
8
0
10
125.713229
20
57.693928
30
0.0
40
0.235000
50
270.000000
51
336.000000
0
ARC
8
0
10
126.149164
20
57.517514
30
0.0
40
0.235000
50
70.221829
51
156.000000
0
LINE
8
0
10
126.228683
20
57.738652
30
0.0
11
127.701514
21
57.209034
31
0.0
0
ARC
8
0
10
127.600000
20
56.926731
30
0.0
40
0.300000
50
0.000000
51
70.221829
0
LINE
8
0
10
127.900000
20
56.926731
30
0.0
11
127.900000
21
50.103432
31
0.0
0
ARC
8
0
10
127.400000
20
50.103432
30
0.0
40
0.500000
50
270.000000
51
0.000000
0
ARC
8
0
10
127.400000
20
49.103432
30
0.0
40
0.500000
50
90.000000
51
180.000000
0
LINE
8
0
10
126.900000
20
49.103432
30
0.0
11
126.900000
21
48.603432
31
0.0
0
ARC
8
0
10
127.400000
20
48.603432
30
0.0
40
0.500000
50
180.000000
51
270.000000
0
LINE
8
0
10
127.400000
20
48.103432
30
0.0
11
131.400000
21
48.103432
31
0.0
0
LINE
8
0
10
131.400000
20
48.103432
30
0.0
11
131.700000
21
48.403432
31
0.0
0
LINE
8
0
10
131.700000
20
48.403432
30
0.0
11
132.000000
21
48.103432
31
0.0
0
LINE
8
0
10
132.000000
20
48.103432
30
0.0
11
137.146439
21
48.103432
31
0.0
0
ARC
8
0
10
137.146439
20
47.103432
30
0.0
40
1.000000
50
2.628630
51
90.000000
0
LINE
8
0
10
138.145387
20
47.149294
30
0.0
11
138.400000
21
41.603432
31
0.0
0
LINE
8
0
10
138.400000
20
41.603432
30
0.0
11
138.400000
21
40.902869
31
0.0
0
ARC
8
0
10
138.100000
20
40.902869
30
0.0
40
0.300000
50
270.000000
51
0.000000
0
LINE
8
0
10
138.100000
20
40.602869
30
0.0
11
136.200000
21
40.602869
31
0.0
0
ARC
8
0
10
136.200000
20
40.302869
30
0.0
40
0.300000
50
90.000000
51
180.000000
0
LINE
8
0
10
135.900000
20
40.302869
30
0.0
11
135.900000
21
38.202869
31
0.0
0
ARC
8
0
10
136.200000
20
38.202869
30
0.0
40
0.300000
50
180.000000
51
270.000000
0
LINE
8
0
10
136.200000
20
37.902869
30
0.0
11
136.900000
21
37.902869
31
0.0
0
ARC
8
0
10
79.700000
20
69.502869
30
0.0
40
0.300000
50
90.000000
51
180.000000
0
LINE
8
0
10
79.400000
20
69.502869
30
0.0
11
79.400000
21
49.903432
31
0.0
0
ARC
8
0
10
79.700000
20
49.903432
30
0.0
40
0.300000
50
180.000000
51
270.000000
0
LINE
8
0
10
79.700000
20
49.603432
30
0.0
11
88.100000
21
49.603432
31
0.0
0
ARC
8
0
10
88.100000
20
49.903432
30
0.0
40
0.300000
50
270.000000
51
0.000000
0
LINE
8
0
10
88.400000
20
49.903432
30
0.0
11
88.400000
21
63.003432
31
0.0
0
ARC
8
0
10
88.100000
20
63.003432
30
0.0
40
0.300000
50
0.000000
51
90.000000
0
LINE
8
0
10
88.100000
20
63.303432
30
0.0
11
86.400000
21
63.303432
31
0.0
0
LINE
8
0
10
86.400000
20
63.303432
30
0.0
11
86.100000
21
63.603432
31
0.0
0
LINE
8
0
10
86.100000
20
63.603432
30
0.0
11
85.800000
21
63.303432
31
0.0
0
LINE
8
0
10
85.800000
20
63.303432
30
0.0
11
83.600000
21
63.303432
31
0.0
0
ARC
8
0
10
83.600000
20
63.603432
30
0.0
40
0.300000
50
180.000000
51
270.000000
0
LINE
8
0
10
83.300000
20
63.603432
30
0.0
11
83.300000
21
69.502869
31
0.0
0
ARC
8
0
10
83.000000
20
69.502869
30
0.0
40
0.300000
50
0.000000
51
90.000000
0
LINE
8
0
10
83.000000
20
69.802869
30
0.0
11
79.700000
21
69.802869
31
0.0
0
ARC
8
0
10
79.700000
20
39.102869
30
0.0
40
0.300000
50
90.000000
51
180.000000
0
LINE
8
0
10
79.400000
20
39.102869
30
0.0
11
79.400000
21
22.602869
31
0.0
0
ARC
8
0
10
79.700000
20
22.602869
30
0.0
40
0.300000
50
180.000000
51
270.000000
0
LINE
8
0
10
79.700000
20
22.302869
30
0.0
11
80.300000
21
22.302869
31
0.0
0
ARC
8
0
10
80.300000
20
22.602869
30
0.0
40
0.300000
50
270.000000
51
0.000000
0
LINE
8
0
10
80.600000
20
22.602869
30
0.0
11
80.600000
21
23.502869
31
0.0
0
ARC
8
0
10
80.900000
20
23.502869
30
0.0
40
0.300000
50
90.000000
51
180.000000
0
LINE
8
0
10
80.900000
20
23.802869
30
0.0
11
81.600000
21
23.802869
31
0.0
0
ARC
8
0
10
81.600000
20
23.502869
30
0.0
40
0.300000
50
0.000000
51
90.000000
0
LINE
8
0
10
81.900000
20
23.502869
30
0.0
11
81.900000
21
19.902869
31
0.0
0
ARC
8
0
10
81.600000
20
19.902869
30
0.0
40
0.300000
50
270.000000
51
0.000000
0
LINE
8
0
10
81.600000
20
19.602869
30
0.0
11
81.200000
21
19.602869
31
0.0
0
ARC
8
0
10
81.200000
20
19.902869
30
0.0
40
0.300000
50
180.000000
51
270.000000
0
LINE
8
0
10
80.900000
20
19.902869
30
0.0
11
80.900000
21
20.802869
31
0.0
0
ARC
8
0
10
80.600000
20
20.802869
30
0.0
40
0.300000
50
0.000000
51
90.000000
0
LINE
8
0
10
80.600000
20
21.102869
30
0.0
11
79.902022
21
21.102869
31
0.0
0
ARC
8
0
10
79.902022
20
20.802869
30
0.0
40
0.300000
50
90.000000
51
180.000000
0
LINE
8
0
10
79.602022
20
20.802869
30
0.0
11
79.602022
21
20.052869
31
0.0
0
ARC
8
0
10
79.302022
20
20.052869
30
0.0
40
0.300000
50
300.000000
51
0.000000
0
ARC
8
0
10
79.602022
20
19.533254
30
0.0
40
0.300000
50
120.000000
51
180.000000
0
LINE
8
0
10
79.302022
20
19.533254
30
0.0
11
79.302022
21
15.072485
31
0.0
0
ARC
8
0
10
79.602022
20
15.072485
30
0.0
40
0.300000
50
180.000000
51
240.000000
0
ARC
8
0
10
79.302022
20
14.552869
30
0.0
40
0.300000
50
0.000000
51
60.000000
0
LINE
8
0
10
79.602022
20
14.552869
30
0.0
11
79.602022
21
13.802869
31
0.0
0
ARC
8
0
10
79.902022
20
13.802869
30
0.0
40
0.300000
50
180.000000
51
270.000000
0
LINE
8
0
10
79.902022
20
13.502869
30
0.0
11
80.600000
21
13.502869
31
0.0
0
ARC
8
0
10
80.600000
20
13.802869
30
0.0
40
0.300000
50
270.000000
51
0.000000
0
LINE
8
0
10
80.900000
20
13.802869
30
0.0
11
80.900000
21
14.702869
31
0.0
0
ARC
8
0
10
81.200000
20
14.702869
30
0.0
40
0.300000
50
90.000000
51
180.000000
0
LINE
8
0
10
81.200000
20
15.002869
30
0.0
11
81.600000
21
15.002869
31
0.0
0
ARC
8
0
10
81.600000
20
14.702869
30
0.0
40
0.300000
50
0.000000
51
90.000000
0
LINE
8
0
10
81.900000
20
14.702869
30
0.0
11
81.900000
21
12.602869
31
0.0
0
ARC
8
0
10
81.600000
20
12.602869
30
0.0
40
0.300000
50
270.000000
51
0.000000
0
LINE
8
0
10
81.600000
20
12.302869
30
0.0
11
78.400000
21
12.302869
31
0.0
0
ARC
8
0
10
78.400000
20
12.802869
30
0.0
40
0.500000
50
180.000000
51
270.000000
0
LINE
8
0
10
77.900000
20
12.802869
30
0.0
11
77.900000
21
94.002869
31
0.0
0
ARC
8
0
10
78.200000
20
94.002869
30
0.0
40
0.300000
50
90.000000
51
180.000000
0
LINE
8
0
10
78.200000
20
94.302869
30
0.0
11
82.100000
21
94.302869
31
0.0
0
ARC
8
0
10
82.100000
20
94.002869
30
0.0
40
0.300000
50
0.000000
51
90.000000
0
LINE
8
0
10
82.400000
20
94.002869
30
0.0
11
82.400000
21
92.502869
31
0.0
0
ARC
8
0
10
81.700000
20
92.502869
30
0.0
40
0.700000
50
270.000000
51
0.000000
0
ARC
8
0
10
81.700000
20
92.102869
30
0.0
40
0.300000
50
180.000000
51
270.000000
0
LINE
8
0
10
81.400000
20
92.102869
30
0.0
11
81.400000
21
92.802869
31
0.0
0
ARC
8
0
10
81.100000
20
92.802869
30
0.0
40
0.300000
50
0.000000
51
90.000000
0
LINE
8
0
10
81.100000
20
93.102869
30
0.0
11
79.900000
21
93.102869
31
0.0
0
ARC
8
0
10
79.900000
20
92.402869
30
0.0
40
0.700000
50
90.000000
51
180.000000
0
LINE
8
0
10
79.200000
20
92.402869
30
0.0
11
79.200000
21
86.202869
31
0.0
0
ARC
8
0
10
79.900000
20
86.202869
30
0.0
40
0.700000
50
180.000000
51
270.000000
0
LINE
8
0
10
79.900000
20
85.502869
30
0.0
11
81.100000
21
85.502869
31
0.0
0
ARC
8
0
10
81.100000
20
85.802869
30
0.0
40
0.300000
50
270.000000
51
0.000000
0
LINE
8
0
10
81.400000
20
85.802869
30
0.0
11
81.400000
21
86.502869
31
0.0
0
ARC
8
0
10
81.700000
20
86.502869
30
0.0
40
0.300000
50
90.000000
51
180.000000
0
ARC
8
0
10
81.700000
20
86.102869
30
0.0
40
0.700000
50
0.000000
51
90.000000
0
LINE
8
0
10
82.400000
20
86.102869
30
0.0
11
82.400000
21
83.102869
31
0.0
0
ARC
8
0
10
82.100000
20
83.102869
30
0.0
40
0.300000
50
270.000000
51
0.000000
0
LINE
8
0
10
82.100000
20
82.802869
30
0.0
11
81.700000
21
82.802869
31
0.0
0
ARC
8
0
10
81.700000
20
83.102869
30
0.0
40
0.300000
50
180.000000
51
270.000000
0
LINE
8
0
10
81.400000
20
83.102869
30
0.0
11
81.400000
21
84.002869
31
0.0
0
ARC
8
0
10
81.100000
20
84.002869
30
0.0
40
0.300000
50
0.000000
51
90.000000
0
LINE
8
0
10
81.100000
20
84.302869
30
0.0
11
79.700000
21
84.302869
31
0.0
0
ARC
8
0
10
79.700000
20
84.002869
30
0.0
40
0.300000
50
90.000000
51
180.000000
0
LINE
8
0
10
79.400000
20
84.002869
30
0.0
11
79.400000
21
77.802869
31
0.0
0
LINE
8
0
10
79.400000
20
77.802869
30
0.0
11
79.654613
21
72.257007
31
0.0
0
ARC
8
0
10
80.653561
20
72.302869
30
0.0
40
1.000000
50
182.628630
51
270.000000
0
LINE
8
0
10
80.653561
20
71.302869
30
0.0
11
85.169479
21
71.302869
31
0.0
0
ARC
8
0
10
85.169479
20
71.002869
30
0.0
40
0.300000
50
70.221829
51
90.000000
0
LINE
8
0
10
85.270993
20
71.285172
30
0.0
11
86.571317
21
70.817586
31
0.0
0
ARC
8
0
10
86.650836
20
71.038724
30
0.0
40
0.235000
50
250.221829
51
336.000000
0
ARC
8
0
10
87.086771
20
70.862310
30
0.0
40
0.235000
50
90.000000
51
156.000000
0
LINE
8
0
10
87.085214
20
71.097305
30
0.0
11
88.664142
21
71.107762
31
0.0
0
ARC
8
0
10
88.666129
20
70.807769
30
0.0
40
0.300000
50
335.379459
51
90.000000
0
LINE
8
0
10
88.938855
20
70.682787
30
0.0
11
87.990205
21
68.577271
31
0.0
0
ARC
8
0
10
87.716686
20
68.700507
30
0.0
40
0.300000
50
295.379459
51
335.745828
0
LINE
8
0
10
87.845269
20
68.429460
30
0.0
11
87.337846
21
68.188741
31
0.0
0
ARC
8
0
10
87.252124
20
68.369439
30
0.0
40
0.200000
50
175.379459
51
295.379459
0
LINE
8
0
10
87.052774
20
68.385550
30
0.0
11
87.062076
21
68.500645
31
0.0
0
ARC
8
0
10
86.763051
20
68.524812
30
0.0
40
0.300000
50
355.379459
51
55.379459
0
LINE
8
0
10
86.933493
20
68.771692
30
0.0
11
85.304736
21
69.896158
31
0.0
0
LINE
8
0
10
85.304736
20
69.896158
30
0.0
11
85.122027
21
69.977505
31
0.0
0
ARC
8
0
10
85.000025
20
69.703423
30
0.0
40
0.300009
50
66.004713
51
228.187329
0
ARC
8
0
10
84.600000
20
69.256218
30
0.0
40
0.300000
50
0.000000
51
48.187329
0
LINE
8
0
10
84.900000
20
69.256218
30
0.0
11
84.900000
21
65.403432
31
0.0
0
ARC
8
0
10
85.200000
20
65.403432
30
0.0
40
0.300000
50
180.000000
51
270.000000
0
LINE
8
0
10
85.200000
20
65.103432
30
0.0
11
85.421193
21
65.103432
31
0.0
0
ARC
8
0
10
85.421193
20
65.403432
30
0.0
40
0.300000
50
270.000000
51
301.400000
0
LINE
8
0
10
85.577496
20
65.147367
30
0.0
11
87.095798
21
66.074142
31
0.0
0
ARC
8
0
10
87.200000
20
65.903432
30
0.0
40
0.200000
50
0.000000
51
121.400000
0
LINE
8
0
10
87.400000
20
65.903432
30
0.0
11
87.400000
21
65.553432
31
0.0
0
ARC
8
0
10
87.700000
20
65.553432
30
0.0
40
0.300000
50
180.000000
51
270.000000
0
LINE
8
0
10
87.700000
20
65.253432
30
0.0
11
91.113234
21
65.253432
31
0.0
0
ARC
8
0
10
91.113234
20
64.253432
30
0.0
40
1.000000
50
58.600000
51
90.000000
0
LINE
8
0
10
91.634243
20
65.106983
30
0.0
11
91.921010
21
64.931940
31
0.0
0
ARC
8
0
10
91.400000
20
64.078389
30
0.0
40
1.000000
50
0.000000
51
58.600000
0
LINE
8
0
10
92.400000
20
64.078389
30
0.0
11
92.400000
21
62.652806
31
0.0
0
ARC
8
0
10
92.200000
20
62.652806
30
0.0
40
0.200000
50
238.600000
51
0.000000
0
LINE
8
0
10
92.095798
20
62.482096
30
0.0
11
90.577496
21
63.408871
31
0.0
0
ARC
8
0
10
90.421193
20
63.152806
30
0.0
40
0.300000
50
58.600000
51
90.000000
0
LINE
8
0
10
90.421193
20
63.452806
30
0.0
11
90.200000
21
63.452806
31
0.0
0
ARC
8
0
10
90.200000
20
63.152806
30
0.0
40
0.300000
50
90.000000
51
180.000000
0
LINE
8
0
10
89.900000
20
63.152806
30
0.0
11
89.900000
21
59.300020
31
0.0
0
ARC
8
0
10
89.600000
20
59.300020
30
0.0
40
0.300000
50
311.812671
51
0.000000
0
ARC
8
0
10
90.000025
20
58.852815
30
0.0
40
0.300009
50
131.812671
51
293.995287
0
LINE
8
0
10
90.122027
20
58.578733
30
0.0
11
90.304736
21
58.660080
31
0.0
0
LINE
8
0
10
90.304736
20
58.660080
30
0.0
11
91.933493
21
59.784546
31
0.0
0
ARC
8
0
10
91.763051
20
60.031426
30
0.0
40
0.300000
50
304.620541
51
4.620541
0
LINE
8
0
10
92.062076
20
60.055593
30
0.0
11
92.052774
21
60.170688
31
0.0
0
ARC
8
0
10
92.252124
20
60.186799
30
0.0
40
0.200000
50
64.620541
51
184.620541
0
LINE
8
0
10
92.337846
20
60.367497
30
0.0
11
92.845269
21
60.126778
31
0.0
0
ARC
8
0
10
92.716686
20
59.855731
30
0.0
40
0.300000
50
24.254172
51
64.620541
0
LINE
8
0
10
92.990205
20
59.978967
30
0.0
11
93.938855
21
57.873451
31
0.0
0
ARC
8
0
10
93.666129
20
57.748469
30
0.0
40
0.300000
50
270.000000
51
24.620541
0
LINE
8
0
10
93.664142
20
57.448476
30
0.0
11
92.085214
21
57.458933
31
0.0
0
ARC
8
0
10
92.086771
20
57.693928
30
0.0
40
0.235000
50
204.000000
51
270.000000
0
ARC
8
0
10
91.650836
20
57.517514
30
0.0
40
0.235000
50
24.000000
51
109.778171
0
LINE
8
0
10
91.571317
20
57.738652
30
0.0
11
90.098486
21
57.209034
31
0.0
0
ARC
8
0
10
90.200000
20
56.926731
30
0.0
40
0.300000
50
109.778171
51
180.000000
0
LINE
8
0
10
89.900000
20
56.926731
30
0.0
11
89.900000
21
50.103432
31
0.0
0
ARC
8
0
10
90.400000
20
50.103432
30
0.0
40
0.500000
50
180.000000
51
270.000000
0
ARC
8
0
10
90.400000
20
49.103432
30
0.0
40
0.500000
50
0.000000
51
90.000000
0
LINE
8
0
10
90.900000
20
49.103432
30
0.0
11
90.900000
21
48.603432
31
0.0
0
ARC
8
0
10
90.400000
20
48.603432
30
0.0
40
0.500000
50
270.000000
51
0.000000
0
LINE
8
0
10
90.400000
20
48.103432
30
0.0
11
86.400000
21
48.103432
31
0.0
0
LINE
8
0
10
86.400000
20
48.103432
30
0.0
11
86.100000
21
48.403432
31
0.0
0
LINE
8
0
10
86.100000
20
48.403432
30
0.0
11
85.800000
21
48.103432
31
0.0
0
LINE
8
0
10
85.800000
20
48.103432
30
0.0
11
80.653561
21
48.103432
31
0.0
0
ARC
8
0
10
80.653561
20
47.103432
30
0.0
40
1.000000
50
90.000000
51
177.371370
0
LINE
8
0
10
79.654613
20
47.149294
30
0.0
11
79.400000
21
41.603432
31
0.0
0
LINE
8
0
10
79.400000
20
41.603432
30
0.0
11
79.400000
21
40.902869
31
0.0
0
ARC
8
0
10
79.700000
20
40.902869
30
0.0
40
0.300000
50
180.000000
51
270.000000
0
LINE
8
0
10
79.700000
20
40.602869
30
0.0
11
81.600000
21
40.602869
31
0.0
0
ARC
8
0
10
81.600000
20
40.302869
30
0.0
40
0.300000
50
0.000000
51
90.000000
0
LINE
8
0
10
81.900000
20
40.302869
30
0.0
11
81.900000
21
38.202869
31
0.0
0
ARC
8
0
10
81.600000
20
38.202869
30
0.0
40
0.300000
50
270.000000
51
0.000000
0
LINE
8
0
10
81.600000
20
37.902869
30
0.0
11
80.900000
21
37.902869
31
0.0
0
ARC
8
0
10
80.900000
20
38.202869
30
0.0
40
0.300000
50
180.000000
51
270.000000
0
LINE
8
0
10
80.600000
20
38.202869
30
0.0
11
80.600000
21
39.102869
31
0.0
0
ARC
8
0
10
80.300000
20
39.102869
30
0.0
40
0.300000
50
0.000000
51
90.000000
0
LINE
8
0
10
80.300000
20
39.402869
30
0.0
11
79.700000
21
39.402869
31
0.0
0
LINE
8
0
10
87.014999
20
66.042292
30
0.0
11
85.606389
21
65.229632
31
0.0
0
ARC
8
0
10
85.506444
20
65.402869
30
0.0
40
0.200000
50
270.000000
51
299.981639
0
LINE
8
0
10
85.506444
20
65.202869
30
0.0
11
85.300000
21
65.202869
31
0.0
0
ARC
8
0
10
85.300000
20
65.602869
30
0.0
40
0.400000
50
180.000000
51
270.000000
0
LINE
8
0
10
84.900000
20
65.602869
30
0.0
11
84.900000
21
69.002869
31
0.0
0
ARC
8
0
10
85.300000
20
69.002869
30
0.0
40
0.400000
50
90.000000
51
180.000000
0
LINE
8
0
10
85.300000
20
69.402869
30
0.0
11
85.506444
21
69.402869
31
0.0
0
ARC
8
0
10
85.506444
20
69.202869
30
0.0
40
0.200000
50
60.018361
51
90.000000
0
LINE
8
0
10
85.606389
20
69.376106
30
0.0
11
87.014999
21
68.563446
31
0.0
0
ARC
8
0
10
87.614666
20
69.602869
30
0.0
40
1.200000
50
240.018361
51
270.000000
0
LINE
8
0
10
87.614666
20
68.402869
30
0.0
11
88.297368
21
68.402869
31
0.0
0
ARC
8
0
10
88.297368
20
68.702869
30
0.0
40
0.300000
50
270.000000
51
324.745828
0
LINE
8
0
10
88.542348
20
68.529708
30
0.0
11
90.353103
21
71.091471
31
0.0
0
ARC
8
0
10
90.761403
20
70.802869
30
0.0
40
0.500000
50
90.000000
51
144.745828
0
LINE
8
0
10
90.761403
20
71.302869
30
0.0
11
121.400000
21
71.302869
31
0.0
0
ARC
8
0
10
121.400000
20
71.802869
30
0.0
40
0.500000
50
270.000000
51
0.000000
0
LINE
8
0
10
121.900000
20
71.802869
30
0.0
11
121.900000
21
76.002869
31
0.0
0
ARC
8
0
10
122.200000
20
76.002869
30
0.0
40
0.300000
50
90.000000
51
180.000000
0
LINE
8
0
10
122.200000
20
76.302869
30
0.0
11
124.849445
21
76.302869
31
0.0
0
ARC
8
0
10
124.849445
20
76.002869
30
0.0
40
0.300000
50
30.000000
51
90.000000
0
LINE
8
0
10
125.109252
20
76.152869
30
0.0
11
125.559808
21
75.372484
31
0.0
0
ARC
8
0
10
125.300000
20
75.222484
30
0.0
40
0.300000
50
0.000000
51
30.000000
0
LINE
8
0
10
125.600000
20
75.222484
30
0.0
11
125.600000
21
75.102869
31
0.0
0
ARC
8
0
10
125.300000
20
75.102869
30
0.0
40
0.300000
50
270.000000
51
0.000000
0
LINE
8
0
10
125.300000
20
74.802869
30
0.0
11
123.900000
21
74.802869
31
0.0
0
ARC
8
0
10
123.900000
20
74.502869
30
0.0
40
0.300000
50
90.000000
51
180.000000
0
LINE
8
0
10
123.600000
20
74.502869
30
0.0
11
123.600000
21
71.802869
31
0.0
0
ARC
8
0
10
124.100000
20
71.802869
30
0.0
40
0.500000
50
180.000000
51
270.000000
0
LINE
8
0
10
124.100000
20
71.302869
30
0.0
11
127.038597
21
71.302869
31
0.0
0
ARC
8
0
10
127.038597
20
70.802869
30
0.0
40
0.500000
50
35.254172
51
90.000000
0
LINE
8
0
10
127.446897
20
71.091471
30
0.0
11
129.257652
21
68.529708
31
0.0
0
ARC
8
0
10
129.502632
20
68.702869
30
0.0
40
0.300000
50
215.254172
51
270.000000
0
LINE
8
0
10
129.502632
20
68.402869
30
0.0
11
130.185334
21
68.402869
31
0.0
0
ARC
8
0
10
130.185334
20
69.602869
30
0.0
40
1.200000
50
270.000000
51
299.981639
0
LINE
8
0
10
130.785001
20
68.563446
30
0.0
11
132.193611
21
69.376106
31
0.0
0
ARC
8
0
10
132.293555
20
69.202869
30
0.0
40
0.200000
50
90.000000
51
119.981639
0
LINE
8
0
10
132.293555
20
69.402869
30
0.0
11
132.500000
21
69.402869
31
0.0
0
ARC
8
0
10
132.500000
20
69.002869
30
0.0
40
0.400000
50
0.000000
51
90.000000
0
LINE
8
0
10
132.900000
20
69.002869
30
0.0
11
132.900000
21
65.602869
31
0.0
0
ARC
8
0
10
132.500000
20
65.602869
30
0.0
40
0.400000
50
270.000000
51
0.000000
0
LINE
8
0
10
132.500000
20
65.202869
30
0.0
11
132.293555
21
65.202869
31
0.0
0
ARC
8
0
10
132.293555
20
65.402869
30
0.0
40
0.200000
50
240.018361
51
270.000000
0
LINE
8
0
10
132.193611
20
65.229632
30
0.0
11
130.785001
21
66.042292
31
0.0
0
ARC
8
0
10
130.185334
20
65.002869
30
0.0
40
1.200000
50
60.018361
51
90.000000
0
LINE
8
0
10
130.185334
20
66.202869
30
0.0
11
128.726005
21
66.202869
31
0.0
0
ARC
8
0
10
128.726005
20
67.202869
30
0.0
40
1.000000
50
215.254172
51
270.000000
0
LINE
8
0
10
127.909406
20
66.625664
30
0.0
11
126.375671
21
68.795513
31
0.0
0
ARC
8
0
10
125.395752
20
68.102867
30
0.0
40
1.200000
50
35.254172
51
90.000000
0
LINE
8
0
10
125.395752
20
69.302867
30
0.0
11
92.404248
21
69.302867
31
0.0
0
ARC
8
0
10
92.404248
20
68.102867
30
0.0
40
1.200000
50
90.000000
51
144.745828
0
LINE
8
0
10
91.424328
20
68.795513
30
0.0
11
89.890594
21
66.625664
31
0.0
0
ARC
8
0
10
89.073995
20
67.202869
30
0.0
40
1.000000
50
270.000000
51
324.745828
0
LINE
8
0
10
89.073995
20
66.202869
30
0.0
11
87.614666
21
66.202869
31
0.0
0
ARC
8
0
10
87.614666
20
65.002869
30
0.0
40
1.200000
50
90.000000
51
119.981639
0
ARC
8
0
10
108.400000
20
61.326413
30
0.0
40
1.000000
50
180.000000
51
270.000000
0
LINE
8
0
10
107.400000
20
61.326413
30
0.0
11
107.400000
21
68.426413
31
0.0
0
ARC
8
0
10
107.100000
20
68.426413
30
0.0
40
0.300000
50
0.000000
51
90.000000
0
LINE
8
0
10
107.100000
20
68.726413
30
0.0
11
105.500000
21
68.726413
31
0.0
0
ARC
8
0
10
105.500000
20
68.426413
30
0.0
40
0.300000
50
90.000000
51
180.000000
0
LINE
8
0
10
105.200000
20
68.426413
30
0.0
11
105.200000
21
60.226413
31
0.0
0
ARC
8
0
10
104.200000
20
60.226413
30
0.0
40
1.000000
50
270.000000
51
0.000000
0
LINE
8
0
10
104.200000
20
59.226413
30
0.0
11
97.074834
21
59.226413
31
0.0
0
ARC
8
0
10
97.074834
20
60.226413
30
0.0
40
1.000000
50
215.254172
51
270.000000
0
LINE
8
0
10
96.258235
20
59.649208
30
0.0
11
94.735414
21
61.803617
31
0.0
0
ARC
8
0
10
93.918814
20
61.226413
30
0.0
40
1.000000
50
35.254172
51
90.000000
0
LINE
8
0
10
93.918814
20
62.226413
30
0.0
11
92.788000
21
62.226413
31
0.0
0
ARC
8
0
10
92.788000
20
63.426413
30
0.0
40
1.200000
50
240.018361
51
270.000000
0
LINE
8
0
10
92.188333
20
62.386990
30
0.0
11
90.606389
21
63.299650
31
0.0
0
ARC
8
0
10
90.506444
20
63.126413
30
0.0
40
0.200000
50
60.018361
51
90.000000
0
LINE
8
0
10
90.506444
20
63.326413
30
0.0
11
90.300000
21
63.326413
31
0.0
0
ARC
8
0
10
90.300000
20
62.926413
30
0.0
40
0.400000
50
90.000000
51
180.000000
0
LINE
8
0
10
89.900000
20
62.926413
30
0.0
11
89.900000
21
59.526413
31
0.0
0
ARC
8
0
10
90.300000
20
59.526413
30
0.0
40
0.400000
50
180.000000
51
270.000000
0
LINE
8
0
10
90.300000
20
59.126413
30
0.0
11
90.506444
21
59.126413
31
0.0
0
ARC
8
0
10
90.506444
20
59.326413
30
0.0
40
0.200000
50
270.000000
51
299.981639
0
LINE
8
0
10
90.606389
20
59.153176
30
0.0
11
92.188333
21
60.065835
31
0.0
0
ARC
8
0
10
92.788000
20
59.026413
30
0.0
40
1.200000
50
90.000000
51
119.981639
0
LINE
8
0
10
92.788000
20
60.226413
30
0.0
11
93.245738
21
60.226413
31
0.0
0
ARC
8
0
10
93.245738
20
59.926413
30
0.0
40
0.300000
50
35.254172
51
90.000000
0
LINE
8
0
10
93.490718
20
60.099574
30
0.0
11
95.152049
21
57.749208
31
0.0
0
ARC
8
0
10
95.968648
20
58.326413
30
0.0
40
1.000000
50
215.254172
51
270.000000
0
LINE
8
0
10
95.968648
20
57.326413
30
0.0
11
108.517157
21
57.326413
31
0.0
0
LINE
8
0
10
108.517157
20
57.326413
30
0.0
11
108.587868
21
57.355702
31
0.0
0
LINE
8
0
10
108.587868
20
57.355702
30
0.0
11
108.829289
21
57.597123
31
0.0
0
ARC
8
0
10
108.900000
20
57.526413
30
0.0
40
0.100000
50
45.000000
51
135.000000
0
LINE
8
0
10
108.970711
20
57.597123
30
0.0
11
109.212132
21
57.355702
31
0.0
0
LINE
8
0
10
109.212132
20
57.355702
30
0.0
11
109.282843
21
57.326413
31
0.0
0
LINE
8
0
10
109.282843
20
57.326413
30
0.0
11
121.831352
21
57.326413
31
0.0
0
ARC
8
0
10
121.831352
20
58.326413
30
0.0
40
1.000000
50
270.000000
51
324.745828
0
LINE
8
0
10
122.647951
20
57.749208
30
0.0
11
124.309282
21
60.099574
31
0.0
0
ARC
8
0
10
124.554262
20
59.926413
30
0.0
40
0.300000
50
90.000000
51
144.745828
0
LINE
8
0
10
124.554262
20
60.226413
30
0.0
11
125.012000
21
60.226413
31
0.0
0
ARC
8
0
10
125.012000
20
59.026413
30
0.0
40
1.200000
50
60.018361
51
90.000000
0
LINE
8
0
10
125.611667
20
60.065835
30
0.0
11
127.193611
21
59.153176
31
0.0
0
ARC
8
0
10
127.293555
20
59.326413
30
0.0
40
0.200000
50
240.018361
51
270.000000
0
LINE
8
0
10
127.293555
20
59.126413
30
0.0
11
127.500000
21
59.126413
31
0.0
0
ARC
8
0
10
127.500000
20
59.526413
30
0.0
40
0.400000
50
270.000000
51
0.000000
0
LINE
8
0
10
127.900000
20
59.526413
30
0.0
11
127.900000
21
62.926413
31
0.0
0
ARC
8
0
10
127.500000
20
62.926413
30
0.0
40
0.400000
50
0.000000
51
90.000000
0
LINE
8
0
10
127.500000
20
63.326413
30
0.0
11
127.293555
21
63.326413
31
0.0
0
ARC
8
0
10
127.293555
20
63.126413
30
0.0
40
0.200000
50
90.000000
51
119.981639
0
LINE
8
0
10
127.193611
20
63.299650
30
0.0
11
125.611667
21
62.386990
31
0.0
0
ARC
8
0
10
125.012000
20
63.426413
30
0.0
40
1.200000
50
270.000000
51
299.981639
0
LINE
8
0
10
125.012000
20
62.226413
30
0.0
11
123.881186
21
62.226413
31
0.0
0
ARC
8
0
10
123.881186
20
61.226413
30
0.0
40
1.000000
50
90.000000
51
144.745828
0
LINE
8
0
10
123.064586
20
61.803617
30
0.0
11
121.541765
21
59.649208
31
0.0
0
ARC
8
0
10
120.725165
20
60.226413
30
0.0
40
1.000000
50
270.000000
51
324.745828
0
LINE
8
0
10
120.725165
20
59.226413
30
0.0
11
113.600000
21
59.226413
31
0.0
0
ARC
8
0
10
113.600000
20
60.226413
30
0.0
40
1.000000
50
180.000000
51
270.000000
0
LINE
8
0
10
112.600000
20
60.226413
30
0.0
11
112.600000
21
68.426413
31
0.0
0
ARC
8
0
10
112.300000
20
68.426413
30
0.0
40
0.300000
50
0.000000
51
90.000000
0
LINE
8
0
10
112.300000
20
68.726413
30
0.0
11
110.700000
21
68.726413
31
0.0
0
ARC
8
0
10
110.700000
20
68.426413
30
0.0
40
0.300000
50
90.000000
51
180.000000
0
LINE
8
0
10
110.400000
20
68.426413
30
0.0
11
110.400000
21
61.326413
31
0.0
0
ARC
8
0
10
109.400000
20
61.326413
30
0.0
40
1.000000
50
270.000000
51
0.000000
0
LINE
8
0
10
109.400000
20
60.326413
30
0.0
11
108.400000
21
60.326413
31
0.0
0
ATTDEF
8
0
10
136.350555
20
76.302869
30
0.0
40
3.5
1

3

2
VC_START
70
0
0
ATTDEF
8
0
10
127.400000
20
48.103432
30
0.0
40
3.5
1

3

2
VC_END
70
0
0
LINE
8
0
10
5.600316
20
5.900000
30
0.0
11
5.600316
21
0.300000
31
0.0
0
ARC
8
0
10
5.300316
20
0.300000
30
0.0
40
0.300000
50
209.883652
51
0.000000
0
LINE
8
0
10
5.040205
20
0.150528
30
0.0
11
4.089054
21
1.831660
31
0.0
0
ARC
8
0
10
4.698301
20
2.176360
30
0.0
40
0.700000
50
135.000000
51
209.500322
0
LINE
8
0
10
4.203326
20
2.671334
30
0.0
11
4.512448
21
2.980457
31
0.0
0
ARC
8
0
10
4.300316
20
3.192589
30
0.0
40
0.300000
50
315.000000
51
0.000000
0
LINE
8
0
10
4.600316
20
3.192589
30
0.0
11
4.600316
21
4.600000
31
0.0
0
ARC
8
0
10
4.100316
20
4.600000
30
0.0
40
0.500000
50
0.000000
51
90.000000
0
LINE
8
0
10
4.100316
20
5.100000
30
0.0
11
2.000000
21
5.100000
31
0.0
0
LINE
8
0
10
2.000000
20
5.100000
30
0.0
11
2.000000
21
4.900000
31
0.0
0
ARC
8
0
10
1.700000
20
4.900000
30
0.0
40
0.300000
50
270.000000
51
0.000000
0
LINE
8
0
10
1.700000
20
4.600000
30
0.0
11
0.300000
21
4.600000
31
0.0
0
ARC
8
0
10
0.300000
20
4.900000
30
0.0
40
0.300000
50
180.000000
51
270.000000
0
LINE
8
0
10
0.000000
20
4.900000
30
0.0
11
0.000000
21
27.002869
31
0.0
0
ARC
8
0
10
0.300000
20
27.002869
30
0.0
40
0.300000
50
90.000000
51
180.000000
0
LINE
8
0
10
0.300000
20
27.302869
30
0.0
11
72.600000
21
27.302869
31
0.0
0
ARC
8
0
10
72.600000
20
27.002869
30
0.0
40
0.300000
50
0.000000
51
90.000000
0
LINE
8
0
10
72.900000
20
27.002869
30
0.0
11
72.900000
21
24.704570
31
0.0
0
ARC
8
0
10
72.600000
20
24.704570
30
0.0
40
0.300000
50
270.000000
51
0.000000
0
LINE
8
0
10
72.600000
20
24.404570
30
0.0
11
72.000000
21
24.404570
31
0.0
0
ARC
8
0
10
72.000000
20
24.704570
30
0.0
40
0.300000
50
180.000000
51
270.000000
0
LINE
8
0
10
71.700000
20
24.704570
30
0.0
11
71.700000
21
25.604570
31
0.0
0
ARC
8
0
10
71.400000
20
25.604570
30
0.0
40
0.300000
50
0.000000
51
90.000000
0
LINE
8
0
10
71.400000
20
25.904570
30
0.0
11
70.700000
21
25.904570
31
0.0
0
ARC
8
0
10
70.700000
20
25.604570
30
0.0
40
0.300000
50
90.000000
51
180.000000
0
LINE
8
0
10
70.400000
20
25.604570
30
0.0
11
70.400000
21
18.604570
31
0.0
0
ARC
8
0
10
70.700000
20
18.604570
30
0.0
40
0.300000
50
180.000000
51
270.000000
0
LINE
8
0
10
70.700000
20
18.304570
30
0.0
11
71.400000
21
18.304570
31
0.0
0
ARC
8
0
10
71.400000
20
18.604570
30
0.0
40
0.300000
50
270.000000
51
0.000000
0
LINE
8
0
10
71.700000
20
18.604570
30
0.0
11
71.700000
21
19.504570
31
0.0
0
ARC
8
0
10
72.000000
20
19.504570
30
0.0
40
0.300000
50
90.000000
51
180.000000
0
LINE
8
0
10
72.000000
20
19.804570
30
0.0
11
72.600000
21
19.804570
31
0.0
0
ARC
8
0
10
72.600000
20
19.504570
30
0.0
40
0.300000
50
0.000000
51
90.000000
0
LINE
8
0
10
72.900000
20
19.504570
30
0.0
11
72.900000
21
18.104570
31
0.0
0
ARC
8
0
10
71.900000
20
18.104570
30
0.0
40
1.000000
50
270.000000
51
0.000000
0
LINE
8
0
10
71.900000
20
17.104570
30
0.0
11
70.000000
21
17.104570
31
0.0
0
ARC
8
0
10
70.000000
20
18.104570
30
0.0
40
1.000000
50
180.000000
51
270.000000
0
LINE
8
0
10
69.000000
20
18.104570
30
0.0
11
69.000000
21
24.802869
31
0.0
0
ARC
8
0
10
68.500000
20
24.802869
30
0.0
40
0.500000
50
0.000000
51
90.000000
0
LINE
8
0
10
68.500000
20
25.302869
30
0.0
11
51.500015
21
25.302869
31
0.0
0
ARC
8
0
10
51.500015
20
25.002869
30
0.0
40
0.300000
50
90.000000
51
180.000000
0
LINE
8
0
10
51.200015
20
25.002869
30
0.0
11
51.200015
21
23.264887
31
0.0
0
ARC
8
0
10
51.500015
20
23.264887
30
0.0
40
0.300000
50
180.000000
51
255.000000
0
LINE
8
0
10
51.422370
20
22.975109
30
0.0
11
53.477661
21
22.424396
31
0.0
0
ARC
8
0
10
53.400015
20
22.134618
30
0.0
40
0.300000
50
0.000000
51
75.000000
0
LINE
8
0
10
53.700015
20
22.134618
30
0.0
11
53.700015
21
21.202869
31
0.0
0
ARC
8
0
10
53.400015
20
21.202869
30
0.0
40
0.300000
50
255.000000
51
0.000000
0
LINE
8
0
10
53.322370
20
20.913092
30
0.0
11
49.922370
21
21.824119
31
0.0
0
ARC
8
0
10
50.000015
20
22.113897
30
0.0
40
0.300000
50
180.000000
51
255.000000
0
LINE
8
0
10
49.700015
20
22.113897
30
0.0
11
49.700015
21
25.002869
31
0.0
0
ARC
8
0
10
49.400015
20
25.002869
30
0.0
40
0.300000
50
0.000000
51
90.000000
0
LINE
8
0
10
49.400015
20
25.302869
30
0.0
11
18.400000
21
25.302869
31
0.0
0
ARC
8
0
10
18.400000
20
25.002869
30
0.0
40
0.300000
50
90.000000
51
180.000000
0
LINE
8
0
10
18.100000
20
25.002869
30
0.0
11
18.100000
21
4.900000
31
0.0
0
ARC
8
0
10
17.800000
20
4.900000
30
0.0
40
0.300000
50
270.000000
51
0.000000
0
LINE
8
0
10
17.800000
20
4.600000
30
0.0
11
16.400000
21
4.600000
31
0.0
0
ARC
8
0
10
16.400000
20
4.900000
30
0.0
40
0.300000
50
180.000000
51
270.000000
0
LINE
8
0
10
16.100000
20
4.900000
30
0.0
11
16.100000
21
5.100000
31
0.0
0
LINE
8
0
10
16.100000
20
5.100000
30
0.0
11
14.500000
21
5.100000
31
0.0
0
ARC
8
0
10
14.500000
20
4.600000
30
0.0
40
0.500000
50
90.000000
51
180.000000
0
LINE
8
0
10
14.000000
20
4.600000
30
0.0
11
14.000000
21
3.192589
31
0.0
0
ARC
8
0
10
14.300000
20
3.192589
30
0.0
40
0.300000
50
180.000000
51
225.000000
0
LINE
8
0
10
14.087868
20
2.980457
30
0.0
11
14.396990
21
2.671334
31
0.0
0
ARC
8
0
10
13.902015
20
2.176360
30
0.0
40
0.700000
50
330.499678
51
45.000000
0
LINE
8
0
10
14.511262
20
1.831660
30
0.0
11
13.560112
21
0.150528
31
0.0
0
ARC
8
0
10
13.300000
20
0.300000
30
0.0
40
0.300000
50
180.000000
51
330.116348
0
LINE
8
0
10
13.000000
20
0.300000
30
0.0
11
13.000000
21
5.900000
31
0.0
0
ARC
8
0
10
13.500000
20
5.900000
30
0.0
40
0.500000
50
90.000000
51
180.000000
0
LINE
8
0
10
13.500000
20
6.400000
30
0.0
11
16.400000
21
6.400000
31
0.0
0
ARC
8
0
10
16.400000
20
6.700000
30
0.0
40
0.300000
50
270.000000
51
0.000000
0
LINE
8
0
10
16.700000
20
6.700000
30
0.0
11
16.700000
21
25.302869
31
0.0
0
ARC
8
0
10
16.400000
20
25.302869
30
0.0
40
0.300000
50
0.000000
51
90.000000
0
LINE
8
0
10
16.400000
20
25.602869
30
0.0
11
2.000316
21
25.602869
31
0.0
0
ARC
8
0
10
2.000316
20
25.302869
30
0.0
40
0.300000
50
90.000000
51
180.000000
0
LINE
8
0
10
1.700316
20
25.302869
30
0.0
11
1.700316
21
6.700000
31
0.0
0
ARC
8
0
10
2.000316
20
6.700000
30
0.0
40
0.300000
50
180.000000
51
270.000000
0
LINE
8
0
10
2.000316
20
6.400000
30
0.0
11
5.100316
21
6.400000
31
0.0
0
ARC
8
0
10
5.100316
20
5.900000
30
0.0
40
0.500000
50
0.000000
51
90.000000
0
ARC
8
0
10
93.129289
20
48.426413
30
0.0
40
0.500000
50
180.000000
51
270.000000
0
LINE
8
0
10
92.629289
20
48.426413
30
0.0
11
92.629289
21
53.826413
31
0.0
0
ARC
8
0
10
93.129289
20
53.826413
30
0.0
40
0.500000
50
90.000000
51
180.000000
0
LINE
8
0
10
93.129289
20
54.326413
30
0.0
11
95.829289
21
54.326413
31
0.0
0
ARC
8
0
10
95.829289
20
53.826413
30
0.0
40
0.500000
50
0.000000
51
90.000000
0
LINE
8
0
10
96.329289
20
53.826413
30
0.0
11
96.329289
21
48.426413
31
0.0
0
ARC
8
0
10
95.829289
20
48.426413
30
0.0
40
0.500000
50
270.000000
51
0.000000
0
LINE
8
0
10
95.829289
20
47.926413
30
0.0
11
93.129289
21
47.926413
31
0.0
0
LINE
8
0
10
89.239012
20
38.226413
30
0.0
11
89.239012
21
45.626413
31
0.0
0
ARC
8
0
10
89.739012
20
45.626413
30
0.0
40
0.500000
50
90.000000
51
180.000000
0
LINE
8
0
10
89.739012
20
46.126413
30
0.0
11
95.829289
21
46.126413
31
0.0
0
ARC
8
0
10
95.829289
20
45.626413
30
0.0
40
0.500000
50
0.000000
51
90.000000
0
LINE
8
0
10
96.329289
20
45.626413
30
0.0
11
96.329289
21
38.226413
31
0.0
0
ARC
8
0
10
95.829289
20
38.226413
30
0.0
40
0.500000
50
270.000000
51
0.000000
0
LINE
8
0
10
95.829289
20
37.726413
30
0.0
11
89.739012
21
37.726413
31
0.0
0
ARC
8
0
10
89.739012
20
38.226413
30
0.0
40
0.500000
50
180.000000
51
270.000000
0
LINE
8
0
10
83.367212
20
25.326413
30
0.0
11
86.939012
21
25.326413
31
0.0
0
ARC
8
0
10
86.939012
20
26.326413
30
0.0
40
1.000000
50
270.000000
51
0.000000
0
LINE
8
0
10
87.939012
20
26.326413
30
0.0
11
87.939012
21
45.626413
31
0.0
0
ARC
8
0
10
87.439012
20
45.626413
30
0.0
40
0.500000
50
0.000000
51
90.000000
0
LINE
8
0
10
87.439012
20
46.126413
30
0.0
11
83.929289
21
46.126413
31
0.0
0
ARC
8
0
10
83.929289
20
45.626413
30
0.0
40
0.500000
50
90.000000
51
180.000000
0
LINE
8
0
10
83.429289
20
45.626413
30
0.0
11
83.429289
21
29.101595
31
0.0
0
LINE
8
0
10
83.429289
20
29.101595
30
0.0
11
83.421693
21
29.014771
31
0.0
0
LINE
8
0
10
83.421693
20
29.014771
30
0.0
11
82.874808
21
25.913237
31
0.0
0
ARC
8
0
10
83.367212
20
25.826413
30
0.0
40
0.500000
50
170.000000
51
270.000000
0
ARC
8
0
10
124.529289
20
48.426413
30
0.0
40
0.500000
50
270.000000
51
0.000000
0
LINE
8
0
10
125.029289
20
48.426413
30
0.0
11
125.029289
21
53.826413
31
0.0
0
ARC
8
0
10
124.529289
20
53.826413
30
0.0
40
0.500000
50
0.000000
51
90.000000
0
LINE
8
0
10
124.529289
20
54.326413
30
0.0
11
121.829289
21
54.326413
31
0.0
0
ARC
8
0
10
121.829289
20
53.826413
30
0.0
40
0.500000
50
90.000000
51
180.000000
0
LINE
8
0
10
121.329289
20
53.826413
30
0.0
11
121.329289
21
48.426413
31
0.0
0
ARC
8
0
10
121.829289
20
48.426413
30
0.0
40
0.500000
50
180.000000
51
270.000000
0
LINE
8
0
10
121.829289
20
47.926413
30
0.0
11
124.529289
21
47.926413
31
0.0
0
LINE
8
0
10
128.419566
20
38.226413
30
0.0
11
128.419566
21
45.626413
31
0.0
0
ARC
8
0
10
127.919566
20
45.626413
30
0.0
40
0.500000
50
0.000000
51
90.000000
0
LINE
8
0
10
127.919566
20
46.126413
30
0.0
11
121.829289
21
46.126413
31
0.0
0
ARC
8
0
10
121.829289
20
45.626413
30
0.0
40
0.500000
50
90.000000
51
180.000000
0
LINE
8
0
10
121.329289
20
45.626413
30
0.0
11
121.329289
21
38.226413
31
0.0
0
ARC
8
0
10
121.829289
20
38.226413
30
0.0
40
0.500000
50
180.000000
51
270.000000
0
LINE
8
0
10
121.829289
20
37.726413
30
0.0
11
127.919566
21
37.726413
31
0.0
0
ARC
8
0
10
127.919566
20
38.226413
30
0.0
40
0.500000
50
270.000000
51
0.000000
0
LINE
8
0
10
134.291365
20
25.326413
30
0.0
11
130.719566
21
25.326413
31
0.0
0
ARC
8
0
10
130.719566
20
26.326413
30
0.0
40
1.000000
50
180.000000
51
270.000000
0
LINE
8
0
10
129.719566
20
26.326413
30
0.0
11
129.719566
21
45.626413
31
0.0
0
ARC
8
0
10
130.219566
20
45.626413
30
0.0
40
0.500000
50
90.000000
51
180.000000
0
LINE
8
0
10
130.219566
20
46.126413
30
0.0
11
133.729289
21
46.126413
31
0.0
0
ARC
8
0
10
133.729289
20
45.626413
30
0.0
40
0.500000
50
0.000000
51
90.000000
0
LINE
8
0
10
134.229289
20
45.626413
30
0.0
11
134.229289
21
29.101595
31
0.0
0
LINE
8
0
10
134.236885
20
29.014771
30
0.0
11
134.229289
21
29.101595
31
0.0
0
LINE
8
0
10
134.236885
20
29.014771
30
0.0
11
134.783769
21
25.913237
31
0.0
0
ARC
8
0
10
134.291365
20
25.826413
30
0.0
40
0.500000
50
270.000000
51
10.000000
0
LINE
8
0
10
97.129289
20
26.926413
30
0.0
11
97.129289
21
25.826413
31
0.0
0
ARC
8
0
10
97.329289
20
25.826413
30
0.0
40
0.200000
50
180.000000
51
270.000000
0
LINE
8
0
10
97.329289
20
25.626413
30
0.0
11
97.429289
21
25.626413
31
0.0
0
ARC
8
0
10
97.429289
20
25.426413
30
0.0
40
0.200000
50
0.000000
51
90.000000
0
LINE
8
0
10
97.629289
20
25.426413
30
0.0
11
97.629289
21
22.826413
31
0.0
0
ARC
8
0
10
97.129289
20
22.826413
30
0.0
40
0.500000
50
270.000000
51
0.000000
0
LINE
8
0
10
97.129289
20
22.326413
30
0.0
11
96.929289
21
22.326413
31
0.0
0
ARC
8
0
10
96.929289
20
22.826413
30
0.0
40
0.500000
50
180.000000
51
270.000000
0
LINE
8
0
10
96.429289
20
22.826413
30
0.0
11
96.429289
21
23.526413
31
0.0
0
ARC
8
0
10
96.129289
20
23.526413
30
0.0
40
0.300000
50
0.000000
51
90.000000
0
LINE
8
0
10
96.129289
20
23.826413
30
0.0
11
83.729289
21
23.826413
31
0.0
0
ARC
8
0
10
83.729289
20
23.526413
30
0.0
40
0.300000
50
90.000000
51
180.000000
0
LINE
8
0
10
83.429289
20
23.526413
30
0.0
11
83.429289
21
23.126413
31
0.0
0
ARC
8
0
10
83.129289
20
23.126413
30
0.0
40
0.300000
50
270.000000
51
0.000000
0
LINE
8
0
10
83.129289
20
22.826413
30
0.0
11
82.429289
21
22.826413
31
0.0
0
ARC
8
0
10
82.429289
20
23.126413
30
0.0
40
0.300000
50
180.000000
51
270.000000
0
LINE
8
0
10
82.129289
20
23.126413
30
0.0
11
82.129289
21
23.726413
31
0.0
0
ARC
8
0
10
81.729289
20
23.726413
30
0.0
40
0.400000
50
0.000000
51
90.000000
0
ARC
8
0
10
81.729289
20
24.526413
30
0.0
40
0.400000
50
180.000000
51
270.000000
0
LINE
8
0
10
81.329289
20
24.526413
30
0.0
11
81.329289
21
24.590816
31
0.0
0
LINE
8
0
10
81.329289
20
24.590816
30
0.0
11
81.336885
21
24.677640
31
0.0
0
LINE
8
0
10
81.336885
20
24.677640
30
0.0
11
82.121693
21
29.128506
31
0.0
0
LINE
8
0
10
82.129289
20
29.215330
30
0.0
11
82.121693
21
29.128506
31
0.0
0
LINE
8
0
10
82.129289
20
29.215330
30
0.0
11
82.129289
21
45.826413
31
0.0
0
ARC
8
0
10
83.729289
20
45.826413
30
0.0
40
1.600000
50
90.000000
51
180.000000
0
LINE
8
0
10
83.729289
20
47.426413
30
0.0
11
90.829289
21
47.426413
31
0.0
0
ARC
8
0
10
90.829289
20
47.926413
30
0.0
40
0.500000
50
270.000000
51
0.000000
0
LINE
8
0
10
91.329289
20
47.926413
30
0.0
11
91.329289
21
56.826413
31
0.0
0
ARC
8
0
10
91.829289
20
56.826413
30
0.0
40
0.500000
50
90.000000
51
180.000000
0
LINE
8
0
10
91.829289
20
57.326413
30
0.0
11
99.529289
21
57.326413
31
0.0
0
ARC
8
0
10
99.529289
20
57.026413
30
0.0
40
0.300000
50
0.000000
51
90.000000
0
LINE
8
0
10
99.829289
20
57.026413
30
0.0
11
99.829289
21
56.826413
31
0.0
0
ARC
8
0
10
100.129289
20
56.826413
30
0.0
40
0.300000
50
180.000000
51
270.000000
0
LINE
8
0
10
100.129289
20
56.526413
30
0.0
11
104.529289
21
56.526413
31
0.0
0
ARC
8
0
10
104.529289
20
56.826413
30
0.0
40
0.300000
50
270.000000
51
0.000000
0
LINE
8
0
10
104.829289
20
56.826413
30
0.0
11
104.829289
21
57.026413
31
0.0
0
ARC
8
0
10
105.129289
20
57.026413
30
0.0
40
0.300000
50
90.000000
51
180.000000
0
LINE
8
0
10
105.129289
20
57.326413
30
0.0
11
112.529289
21
57.326413
31
0.0
0
ARC
8
0
10
112.529289
20
57.026413
30
0.0
40
0.300000
50
0.000000
51
90.000000
0
LINE
8
0
10
112.829289
20
57.026413
30
0.0
11
112.829289
21
56.826413
31
0.0
0
ARC
8
0
10
113.129289
20
56.826413
30
0.0
40
0.300000
50
180.000000
51
270.000000
0
LINE
8
0
10
113.129289
20
56.526413
30
0.0
11
117.529289
21
56.526413
31
0.0
0
ARC
8
0
10
117.529289
20
56.826413
30
0.0
40
0.300000
50
270.000000
51
0.000000
0
LINE
8
0
10
117.829289
20
56.826413
30
0.0
11
117.829289
21
57.026413
31
0.0
0
ARC
8
0
10
118.129289
20
57.026413
30
0.0
40
0.300000
50
90.000000
51
180.000000
0
LINE
8
0
10
118.129289
20
57.326413
30
0.0
11
125.829289
21
57.326413
31
0.0
0
ARC
8
0
10
125.829289
20
56.826413
30
0.0
40
0.500000
50
0.000000
51
90.000000
0
LINE
8
0
10
126.329289
20
56.826413
30
0.0
11
126.329289
21
47.926413
31
0.0
0
ARC
8
0
10
126.829289
20
47.926413
30
0.0
40
0.500000
50
180.000000
51
270.000000
0
LINE
8
0
10
126.829289
20
47.426413
30
0.0
11
133.929289
21
47.426413
31
0.0
0
ARC
8
0
10
133.929289
20
45.826413
30
0.0
40
1.600000
50
0.000000
51
90.000000
0
LINE
8
0
10
135.529289
20
45.826413
30
0.0
11
135.529289
21
29.215330
31
0.0
0
LINE
8
0
10
135.536885
20
29.128506
30
0.0
11
135.529289
21
29.215330
31
0.0
0
LINE
8
0
10
135.536885
20
29.128506
30
0.0
11
136.321693
21
24.677640
31
0.0
0
LINE
8
0
10
136.321693
20
24.677640
30
0.0
11
136.329289
21
24.590816
31
0.0
0
LINE
8
0
10
136.329289
20
24.590816
30
0.0
11
136.329289
21
24.526413
31
0.0
0
ARC
8
0
10
135.929289
20
24.526413
30
0.0
40
0.400000
50
270.000000
51
0.000000
0
ARC
8
0
10
135.929289
20
23.726413
30
0.0
40
0.400000
50
90.000000
51
180.000000
0
LINE
8
0
10
135.529289
20
23.726413
30
0.0
11
135.529289
21
23.126413
31
0.0
0
ARC
8
0
10
135.229289
20
23.126413
30
0.0
40
0.300000
50
270.000000
51
0.000000
0
LINE
8
0
10
135.229289
20
22.826413
30
0.0
11
134.529289
21
22.826413
31
0.0
0
ARC
8
0
10
134.529289
20
23.126413
30
0.0
40
0.300000
50
180.000000
51
270.000000
0
LINE
8
0
10
134.229289
20
23.126413
30
0.0
11
134.229289
21
23.526413
31
0.0
0
ARC
8
0
10
133.929289
20
23.526413
30
0.0
40
0.300000
50
0.000000
51
90.000000
0
LINE
8
0
10
133.929289
20
23.826413
30
0.0
11
121.529289
21
23.826413
31
0.0
0
ARC
8
0
10
121.529289
20
23.526413
30
0.0
40
0.300000
50
90.000000
51
180.000000
0
LINE
8
0
10
121.229289
20
23.526413
30
0.0
11
121.229289
21
22.826413
31
0.0
0
ARC
8
0
10
120.729289
20
22.826413
30
0.0
40
0.500000
50
270.000000
51
0.000000
0
LINE
8
0
10
120.729289
20
22.326413
30
0.0
11
120.529289
21
22.326413
31
0.0
0
ARC
8
0
10
120.529289
20
22.826413
30
0.0
40
0.500000
50
180.000000
51
270.000000
0
LINE
8
0
10
120.029289
20
22.826413
30
0.0
11
120.029289
21
25.426413
31
0.0
0
ARC
8
0
10
120.229289
20
25.426413
30
0.0
40
0.200000
50
90.000000
51
180.000000
0
LINE
8
0
10
120.229289
20
25.626413
30
0.0
11
120.329289
21
25.626413
31
0.0
0
ARC
8
0
10
120.329289
20
25.826413
30
0.0
40
0.200000
50
270.000000
51
0.000000
0
LINE
8
0
10
120.529289
20
25.826413
30
0.0
11
120.529289
21
26.926413
31
0.0
0
ARC
8
0
10
121.229289
20
26.926413
30
0.0
40
0.700000
50
90.000000
51
180.000000
0
LINE
8
0
10
121.229289
20
27.626413
30
0.0
11
121.329289
21
27.626413
31
0.0
0
ARC
8
0
10
121.329289
20
27.326413
30
0.0
40
0.300000
50
0.000000
51
90.000000
0
LINE
8
0
10
121.629289
20
27.326413
30
0.0
11
121.629289
21
25.926413
31
0.0
0
ARC
8
0
10
121.929289
20
25.926413
30
0.0
40
0.300000
50
180.000000
51
270.000000
0
LINE
8
0
10
121.929289
20
25.626413
30
0.0
11
127.619566
21
25.626413
31
0.0
0
ARC
8
0
10
127.619566
20
26.426413
30
0.0
40
0.800000
50
270.000000
51
0.000000
0
LINE
8
0
10
128.419566
20
26.426413
30
0.0
11
128.419566
21
35.626413
31
0.0
0
ARC
8
0
10
127.619566
20
35.626413
30
0.0
40
0.800000
50
0.000000
51
90.000000
0
LINE
8
0
10
127.619566
20
36.426413
30
0.0
11
121.929289
21
36.426413
31
0.0
0
ARC
8
0
10
121.929289
20
36.126413
30
0.0
40
0.300000
50
90.000000
51
180.000000
0
LINE
8
0
10
121.629289
20
36.126413
30
0.0
11
121.629289
21
34.726413
31
0.0
0
ARC
8
0
10
121.329289
20
34.726413
30
0.0
40
0.300000
50
270.000000
51
0.000000
0
LINE
8
0
10
121.329289
20
34.426413
30
0.0
11
121.229289
21
34.426413
31
0.0
0
ARC
8
0
10
121.229289
20
35.126413
30
0.0
40
0.700000
50
180.000000
51
270.000000
0
LINE
8
0
10
120.529289
20
35.126413
30
0.0
11
120.529289
21
36.226413
31
0.0
0
ARC
8
0
10
120.329289
20
36.226413
30
0.0
40
0.200000
50
0.000000
51
90.000000
0
LINE
8
0
10
120.329289
20
36.426413
30
0.0
11
120.229289
21
36.426413
31
0.0
0
ARC
8
0
10
120.229289
20
36.626413
30
0.0
40
0.200000
50
180.000000
51
270.000000
0
LINE
8
0
10
120.029289
20
36.626413
30
0.0
11
120.029289
21
45.426413
31
0.0
0
ARC
8
0
10
119.529289
20
45.426413
30
0.0
40
0.500000
50
0.000000
51
90.000000
0
LINE
8
0
10
119.529289
20
45.926413
30
0.0
11
118.229289
21
45.926413
31
0.0
0
ARC
8
0
10
118.229289
20
46.426413
30
0.0
40
0.500000
50
180.000000
51
270.000000
0
LINE
8
0
10
117.729289
20
46.426413
30
0.0
11
117.729289
21
47.426413
31
0.0
0
ARC
8
0
10
118.229289
20
47.426413
30
0.0
40
0.500000
50
90.000000
51
180.000000
0
LINE
8
0
10
118.229289
20
47.926413
30
0.0
11
119.529289
21
47.926413
31
0.0
0
ARC
8
0
10
119.529289
20
48.426413
30
0.0
40
0.500000
50
270.000000
51
0.000000
0
LINE
8
0
10
120.029289
20
48.426413
30
0.0
11
120.029289
21
52.326413
31
0.0
0
ARC
8
0
10
118.029289
20
52.326413
30
0.0
40
2.000000
50
0.000000
51
90.000000
0
LINE
8
0
10
118.029289
20
54.326413
30
0.0
11
109.429289
21
54.326413
31
0.0
0
LINE
8
0
10
109.429289
20
54.326413
30
0.0
11
108.829289
21
54.926413
31
0.0
0
LINE
8
0
10
108.829289
20
54.926413
30
0.0
11
108.229289
21
54.326413
31
0.0
0
LINE
8
0
10
108.229289
20
54.326413
30
0.0
11
99.629289
21
54.326413
31
0.0
0
ARC
8
0
10
99.629289
20
52.326413
30
0.0
40
2.000000
50
90.000000
51
180.000000
0
LINE
8
0
10
97.629289
20
52.326413
30
0.0
11
97.629289
21
48.426413
31
0.0
0
ARC
8
0
10
98.129289
20
48.426413
30
0.0
40
0.500000
50
180.000000
51
270.000000
0
LINE
8
0
10
98.129289
20
47.926413
30
0.0
11
99.429289
21
47.926413
31
0.0
0
ARC
8
0
10
99.429289
20
47.426413
30
0.0
40
0.500000
50
0.000000
51
90.000000
0
LINE
8
0
10
99.929289
20
47.426413
30
0.0
11
99.929289
21
46.426413
31
0.0
0
ARC
8
0
10
99.429289
20
46.426413
30
0.0
40
0.500000
50
270.000000
51
0.000000
0
LINE
8
0
10
99.429289
20
45.926413
30
0.0
11
98.129289
21
45.926413
31
0.0
0
ARC
8
0
10
98.129289
20
45.426413
30
0.0
40
0.500000
50
90.000000
51
180.000000
0
LINE
8
0
10
97.629289
20
45.426413
30
0.0
11
97.629289
21
36.626413
31
0.0
0
ARC
8
0
10
97.429289
20
36.626413
30
0.0
40
0.200000
50
270.000000
51
0.000000
0
LINE
8
0
10
97.429289
20
36.426413
30
0.0
11
97.329289
21
36.426413
31
0.0
0
ARC
8
0
10
97.329289
20
36.226413
30
0.0
40
0.200000
50
90.000000
51
180.000000
0
LINE
8
0
10
97.129289
20
36.226413
30
0.0
11
97.129289
21
35.126413
31
0.0
0
ARC
8
0
10
96.429289
20
35.126413
30
0.0
40
0.700000
50
270.000000
51
0.000000
0
LINE
8
0
10
96.429289
20
34.426413
30
0.0
11
96.329289
21
34.426413
31
0.0
0
ARC
8
0
10
96.329289
20
34.726413
30
0.0
40
0.300000
50
180.000000
51
270.000000
0
LINE
8
0
10
96.029289
20
34.726413
30
0.0
11
96.029289
21
36.126413
31
0.0
0
ARC
8
0
10
95.729289
20
36.126413
30
0.0
40
0.300000
50
0.000000
51
90.000000
0
LINE
8
0
10
95.729289
20
36.426413
30
0.0
11
90.039012
21
36.426413
31
0.0
0
ARC
8
0
10
90.039012
20
35.626413
30
0.0
40
0.800000
50
90.000000
51
180.000000
0
LINE
8
0
10
89.239012
20
35.626413
30
0.0
11
89.239012
21
26.426413
31
0.0
0
ARC
8
0
10
90.039012
20
26.426413
30
0.0
40
0.800000
50
180.000000
51
270.000000
0
LINE
8
0
10
90.039012
20
25.626413
30
0.0
11
95.729289
21
25.626413
31
0.0
0
ARC
8
0
10
95.729289
20
25.926413
30
0.0
40
0.300000
50
270.000000
51
0.000000
0
LINE
8
0
10
96.029289
20
25.926413
30
0.0
11
96.029289
21
27.326413
31
0.0
0
ARC
8
0
10
96.329289
20
27.326413
30
0.0
40
0.300000
50
90.000000
51
180.000000
0
LINE
8
0
10
96.329289
20
27.626413
30
0.0
11
96.429289
21
27.626413
31
0.0
0
ARC
8
0
10
96.429289
20
26.926413
30
0.0
40
0.700000
50
0.000000
51
90.000000
0
ATTDEF
8
0
10
0.000000
20
0.000000
30
0.0
40
3.5
1

3

2
GLASS_MIN:0.000000
70
0
0
ATTDEF
8
0
10
0.000000
20
0.000000
30
0.0
40
3.5
1

3

2
GLASS_MAX:0.000000
70
0
0
ATTDEF
8
0
10
0.000000
20
0.000000
30
0.0
40
3.5
1

3

2
BL01:6500.000000,,1
70
0
0
ATTDEF
8
0
10
0.000000
20
0.000000
30
0.0
40
3.5
1

3

2
HW_START
70
0
0
ATTDEF
8
0
10
139.900000
20
94.302869
30
0.0
40
3.5
1

3

2
HW_END
70
0
0
ATTDEF
8
0
10
0.000000
20
0.000000
30
0.0
40
3.5
1

3

2
FP_LCS_ORIG
70
0
0
ATTDEF
8
0
10
10.000000
20
0.000000
30
0.0
40
3.5
1

3

2
FP_LCS_HOT
70
0
0
ATTDEF
8
0
10
0.000000
20
10.000000
30
0.0
40
3.5
1

3

2
FP_LCS_INTERN
70
0
0
ATTDEF
8
0
10
0.000000
20
0.000000
30
0.0
40
3.5
1

3

2
TDEV3:0
70
0
0
ATTDEF
8
0
10
0.000000
20
0.000000
30
0.0
40
3.5
1

3

2
TDEV4:0
70
0
0
ATTDEF
8
0
10
0.000000
20
0.000000
30
0.0
40
3.5
1

3

2
TDEV5:0
70
0
0
ATTDEF
8
0
10
0.000000
20
0.000000
30
0.0
40
3.5
1

3

2
PANE_WIDTH:57.5
70
0
0
ATTDEF
8
0
10
0.000000
20
0.000000
30
0.0
40
3.5
1

3

2
MIN_VETRO:0
70
0
0
ATTDEF
8
0
10
0.000000
20
0.000000
30
0.0
40
3.5
1

3

2
MAX_VETRO:0
70
0
0
ATTDEF
8
0
10
0.000000
20
0.000000
30
0.0
40
3.5
1

3

2
JX:0
70
0
0
ATTDEF
8
0
10
0.000000
20
0.000000
30
0.0
40
3.5
1

3

2
WX:0
70
0
0
ATTDEF
8
0
10
0.000000
20
0.000000
30
0.0
40
3.5
1

3

2
JY:0
70
0
0
ATTDEF
8
0
10
0.000000
20
0.000000
30
0.0
40
3.5
1

3

2
WY:0
70
0
0
ATTDEF
8
0
10
0.000000
20
0.000000
30
0.0
40
3.5
1

3

2
DESC:U10140 - N10904 - V31210
70
0
0
ATTDEF
8
0
10
0.000000
20
0.000000
30
0.0
40
3.5
1

3

2
DENS:0
70
0
0
ATTDEF
8
0
10
0.000000
20
0.000000
30
0.0
40
3.5
1

3

2
TDEV:0
70
0
0
ATTDEF
8
0
10
0.000000
20
0.000000
30
0.0
40
3.5
1

3

2
TDEV2:0
70
0
0
ATTDEF
8
0
10
0.000000
20
0.000000
30
0.0
40
3.5
1

3

2
TDEV3:0
70
0
0
ATTDEF
8
0
10
0.000000
20
0.000000
30
0.0
40
3.5
1

3

2
TDEV4:0
70
0
0
ATTDEF
8
0
10
0.000000
20
0.000000
30
0.0
40
3.5
1

3

2
TDEV5:0
70
0
0
ATTDEF
8
0
10
0.000000
20
0.000000
30
0.0
40
3.5
1

3

2
PANE_WIDTH:57.5
70
0
0
ATTDEF
8
0
10
0.000000
20
0.000000
30
0.0
40
3.5
1

3

2
MIN_VETRO:0
70
0
0
ATTDEF
8
0
10
0.000000
20
0.000000
30
0.0
40
3.5
1

3

2
MAX_VETRO:0
70
0
0
ATTDEF
8
0
10
0.000000
20
0.000000
30
0.0
40
3.5
1

3

2
JX:0
70
0
0
ATTDEF
8
0
10
0.000000
20
0.000000
30
0.0
40
3.5
1

3

2
WX:0
70
0
0
ATTDEF
8
0
10
0.000000
20
0.000000
30
0.0
40
3.5
1

3

2
JY:0
70
0
0
ATTDEF
8
0
10
0.000000
20
0.000000
30
0.0
40
3.5
1

3

2
WY:0
70
0
0
ENDSEC
0
EOF
