0
SECTION
2
ENTITIES
0
LINE
8
0
10
54.100000
20
63.303432
30
0.0
11
56.300000
21
63.303432
31
0.0
0
ARC
8
0
10
56.300000
20
63.603432
30
0.0
40
0.300000
50
270.000000
51
360.000000
0
LINE
8
0
10
56.600000
20
63.603432
30
0.0
11
56.600000
21
69.502869
31
0.0
0
ARC
8
0
10
56.900000
20
69.502869
30
0.0
40
0.300000
50
90.000000
51
180.000000
0
LINE
8
0
10
56.900000
20
69.802869
30
0.0
11
60.200000
21
69.802869
31
0.0
0
ARC
8
0
10
60.200000
20
69.502869
30
0.0
40
0.300000
50
360.000000
51
90.000000
0
LINE
8
0
10
60.500000
20
69.502869
30
0.0
11
60.500000
21
49.903432
31
0.0
0
ARC
8
0
10
60.200000
20
49.903432
30
0.0
40
0.300000
50
270.000000
51
360.000000
0
LINE
8
0
10
60.200000
20
49.603432
30
0.0
11
51.800000
21
49.603432
31
0.0
0
ARC
8
0
10
51.800000
20
49.903432
30
0.0
40
0.300000
50
180.000000
51
270.000000
0
LINE
8
0
10
51.500000
20
49.903432
30
0.0
11
51.500000
21
63.003432
31
0.0
0
ARC
8
0
10
51.800000
20
63.003432
30
0.0
40
0.300000
50
90.000000
51
180.000000
0
LINE
8
0
10
51.800000
20
63.303432
30
0.0
11
53.500000
21
63.303432
31
0.0
0
LINE
8
0
10
53.500000
20
63.303432
30
0.0
11
53.800000
21
63.603432
31
0.0
0
LINE
8
0
10
53.800000
20
63.603432
30
0.0
11
54.100000
21
63.303432
31
0.0
0
ARC
8
0
10
59.000000
20
38.202869
30
0.0
40
0.300000
50
270.000000
51
360.000000
0
LINE
8
0
10
59.300000
20
38.202869
30
0.0
11
59.300000
21
39.102869
31
0.0
0
ARC
8
0
10
59.600000
20
39.102869
30
0.0
40
0.300000
50
90.000000
51
180.000000
0
LINE
8
0
10
59.600000
20
39.402869
30
0.0
11
60.200000
21
39.402869
31
0.0
0
ARC
8
0
10
60.200000
20
39.102869
30
0.0
40
0.300000
50
360.000000
51
90.000000
0
LINE
8
0
10
60.500000
20
39.102869
30
0.0
11
60.500000
21
22.602869
31
0.0
0
ARC
8
0
10
60.200000
20
22.602869
30
0.0
40
0.300000
50
270.000000
51
360.000000
0
LINE
8
0
10
60.200000
20
22.302869
30
0.0
11
59.600000
21
22.302869
31
0.0
0
ARC
8
0
10
59.600000
20
22.602869
30
0.0
40
0.300000
50
180.000000
51
270.000000
0
LINE
8
0
10
59.300000
20
22.602869
30
0.0
11
59.300000
21
23.502869
31
0.0
0
ARC
8
0
10
59.000000
20
23.502869
30
0.0
40
0.300000
50
360.000000
51
90.000000
0
LINE
8
0
10
59.000000
20
23.802869
30
0.0
11
58.300000
21
23.802869
31
0.0
0
ARC
8
0
10
58.300000
20
23.502869
30
0.0
40
0.300000
50
90.000000
51
180.000000
0
LINE
8
0
10
58.000000
20
23.502869
30
0.0
11
58.000000
21
19.902869
31
0.0
0
ARC
8
0
10
58.300000
20
19.902869
30
0.0
40
0.300000
50
180.000000
51
270.000000
0
LINE
8
0
10
58.300000
20
19.602869
30
0.0
11
58.700000
21
19.602869
31
0.0
0
ARC
8
0
10
58.700000
20
19.902869
30
0.0
40
0.300000
50
270.000000
51
360.000000
0
LINE
8
0
10
59.000000
20
19.902869
30
0.0
11
59.000000
21
20.802869
31
0.0
0
ARC
8
0
10
59.300000
20
20.802869
30
0.0
40
0.300000
50
90.000000
51
180.000000
0
LINE
8
0
10
59.300000
20
21.102869
30
0.0
11
59.997977
21
21.102869
31
0.0
0
ARC
8
0
10
59.997977
20
20.802869
30
0.0
40
0.300000
50
360.000000
51
90.000000
0
LINE
8
0
10
60.297977
20
20.802869
30
0.0
11
60.297977
21
20.052869
31
0.0
0
ARC
8
0
10
60.597977
20
20.052869
30
0.0
40
0.300000
50
180.000000
51
240.000000
0
ARC
8
0
10
60.297977
20
19.533254
30
0.0
40
0.300000
50
360.000000
51
60.000000
0
LINE
8
0
10
60.597977
20
19.533254
30
0.0
11
60.597977
21
15.072485
31
0.0
0
ARC
8
0
10
60.297977
20
15.072485
30
0.0
40
0.300000
50
300.000000
51
360.000000
0
ARC
8
0
10
60.597977
20
14.552869
30
0.0
40
0.300000
50
120.000000
51
180.000000
0
LINE
8
0
10
60.297977
20
14.552869
30
0.0
11
60.297977
21
13.802869
31
0.0
0
ARC
8
0
10
59.997977
20
13.802869
30
0.0
40
0.300000
50
270.000000
51
360.000000
0
LINE
8
0
10
59.997977
20
13.502869
30
0.0
11
59.300000
21
13.502869
31
0.0
0
ARC
8
0
10
59.300000
20
13.802869
30
0.0
40
0.300000
50
180.000000
51
270.000000
0
LINE
8
0
10
59.000000
20
13.802869
30
0.0
11
59.000000
21
14.702869
31
0.0
0
ARC
8
0
10
58.700000
20
14.702869
30
0.0
40
0.300000
50
360.000000
51
90.000000
0
LINE
8
0
10
58.700000
20
15.002869
30
0.0
11
58.300000
21
15.002869
31
0.0
0
ARC
8
0
10
58.300000
20
14.702869
30
0.0
40
0.300000
50
90.000000
51
180.000000
0
LINE
8
0
10
58.000000
20
14.702869
30
0.0
11
58.000000
21
12.602869
31
0.0
0
ARC
8
0
10
58.300000
20
12.602869
30
0.0
40
0.300000
50
180.000000
51
270.000000
0
LINE
8
0
10
58.300000
20
12.302869
30
0.0
11
61.500000
21
12.302869
31
0.0
0
ARC
8
0
10
61.500000
20
12.802869
30
0.0
40
0.500000
50
270.000000
51
360.000000
0
LINE
8
0
10
62.000000
20
12.802869
30
0.0
11
62.000000
21
76.002869
31
0.0
0
ARC
8
0
10
61.700000
20
76.002869
30
0.0
40
0.300000
50
360.000000
51
90.000000
0
LINE
8
0
10
61.700000
20
76.302869
30
0.0
11
58.450555
21
76.302869
31
0.0
0
ARC
8
0
10
58.450555
20
76.002869
30
0.0
40
0.300000
50
90.000000
51
150.000000
0
LINE
8
0
10
58.190748
20
76.152869
30
0.0
11
57.740192
21
75.372485
31
0.0
0
ARC
8
0
10
58.000000
20
75.222485
30
0.0
40
0.300000
50
150.000000
51
180.000000
0
LINE
8
0
10
57.700000
20
75.222485
30
0.0
11
57.700000
21
75.102869
31
0.0
0
ARC
8
0
10
58.000000
20
75.102869
30
0.0
40
0.300000
50
180.000000
51
270.000000
0
LINE
8
0
10
58.000000
20
74.802869
30
0.0
11
59.900000
21
74.802869
31
0.0
0
ARC
8
0
10
59.900000
20
74.502869
30
0.0
40
0.300000
50
360.000000
51
90.000000
0
LINE
8
0
10
60.200000
20
74.502869
30
0.0
11
60.200000
21
71.602869
31
0.0
0
ARC
8
0
10
59.900000
20
71.602869
30
0.0
40
0.300000
50
270.000000
51
360.000000
0
LINE
8
0
10
59.900000
20
71.302869
30
0.0
11
54.730521
21
71.302869
31
0.0
0
ARC
8
0
10
54.730521
20
71.002869
30
0.0
40
0.300000
50
90.000000
51
109.778171
0
LINE
8
0
10
54.629007
20
71.285172
30
0.0
11
53.328683
21
70.817586
31
0.0
0
ARC
8
0
10
53.249164
20
71.038724
30
0.0
40
0.235000
50
204.000000
51
289.778171
0
ARC
8
0
10
52.813229
20
70.862310
30
0.0
40
0.235000
50
24.000000
51
90.000000
0
LINE
8
0
10
52.814786
20
71.097305
30
0.0
11
51.235857
21
71.107762
31
0.0
0
ARC
8
0
10
51.233870
20
70.807769
30
0.0
40
0.300000
50
90.000000
51
204.620541
0
LINE
8
0
10
50.961144
20
70.682787
30
0.0
11
51.909794
21
68.577271
31
0.0
0
ARC
8
0
10
52.183314
20
68.700507
30
0.0
40
0.300000
50
204.254172
51
244.620541
0
LINE
8
0
10
52.054731
20
68.429460
30
0.0
11
52.562153
21
68.188741
31
0.0
0
ARC
8
0
10
52.647876
20
68.369439
30
0.0
40
0.200000
50
244.620541
51
4.620541
0
LINE
8
0
10
52.847226
20
68.385550
30
0.0
11
52.837924
21
68.500645
31
0.0
0
ARC
8
0
10
53.136949
20
68.524812
30
0.0
40
0.300000
50
124.620541
51
184.620541
0
LINE
8
0
10
52.966507
20
68.771692
30
0.0
11
54.595264
21
69.896158
31
0.0
0
LINE
8
0
10
54.595264
20
69.896158
30
0.0
11
54.777973
21
69.977505
31
0.0
0
ARC
8
0
10
54.899975
20
69.703423
30
0.0
40
0.300009
50
311.812671
51
113.995287
0
ARC
8
0
10
55.300000
20
69.256218
30
0.0
40
0.300000
50
131.812671
51
180.000000
0
LINE
8
0
10
55.000000
20
69.256218
30
0.0
11
55.000000
21
65.403432
31
0.0
0
ARC
8
0
10
54.700000
20
65.403432
30
0.0
40
0.300000
50
270.000000
51
360.000000
0
LINE
8
0
10
54.700000
20
65.103432
30
0.0
11
54.478807
21
65.103432
31
0.0
0
ARC
8
0
10
54.478807
20
65.403432
30
0.0
40
0.300000
50
238.600000
51
270.000000
0
LINE
8
0
10
54.322504
20
65.147367
30
0.0
11
52.804202
21
66.074142
31
0.0
0
ARC
8
0
10
52.700000
20
65.903432
30
0.0
40
0.200000
50
58.600000
51
180.000000
0
LINE
8
0
10
52.500000
20
65.903432
30
0.0
11
52.500000
21
65.553432
31
0.0
0
ARC
8
0
10
52.200000
20
65.553432
30
0.0
40
0.300000
50
270.000000
51
360.000000
0
LINE
8
0
10
52.200000
20
65.253432
30
0.0
11
48.786766
21
65.253432
31
0.0
0
ARC
8
0
10
48.786766
20
64.253432
30
0.0
40
1.000000
50
90.000000
51
121.400000
0
LINE
8
0
10
48.265756
20
65.106983
30
0.0
11
47.978990
21
64.931940
31
0.0
0
ARC
8
0
10
48.500000
20
64.078389
30
0.0
40
1.000000
50
121.400000
51
180.000000
0
LINE
8
0
10
47.500000
20
64.078389
30
0.0
11
47.500000
21
62.652806
31
0.0
0
ARC
8
0
10
47.700000
20
62.652806
30
0.0
40
0.200000
50
180.000000
51
301.400000
0
LINE
8
0
10
47.804202
20
62.482096
30
0.0
11
49.322504
21
63.408871
31
0.0
0
ARC
8
0
10
49.478807
20
63.152806
30
0.0
40
0.300000
50
90.000000
51
121.400000
0
LINE
8
0
10
49.478807
20
63.452806
30
0.0
11
49.700000
21
63.452806
31
0.0
0
ARC
8
0
10
49.700000
20
63.152806
30
0.0
40
0.300000
50
360.000000
51
90.000000
0
LINE
8
0
10
50.000000
20
63.152806
30
0.0
11
50.000000
21
59.300020
31
0.0
0
ARC
8
0
10
50.300000
20
59.300020
30
0.0
40
0.300000
50
180.000000
51
228.187329
0
ARC
8
0
10
49.899975
20
58.852815
30
0.0
40
0.300009
50
246.004713
51
48.187329
0
LINE
8
0
10
49.777973
20
58.578733
30
0.0
11
49.595264
21
58.660080
31
0.0
0
LINE
8
0
10
49.595264
20
58.660080
30
0.0
11
47.966507
21
59.784546
31
0.0
0
ARC
8
0
10
48.136949
20
60.031426
30
0.0
40
0.300000
50
175.379459
51
235.379459
0
LINE
8
0
10
47.837924
20
60.055593
30
0.0
11
47.847226
21
60.170688
31
0.0
0
ARC
8
0
10
47.647876
20
60.186799
30
0.0
40
0.200000
50
355.379459
51
115.379459
0
LINE
8
0
10
47.562153
20
60.367497
30
0.0
11
47.054731
21
60.126778
31
0.0
0
ARC
8
0
10
47.183314
20
59.855731
30
0.0
40
0.300000
50
115.379459
51
155.745828
0
LINE
8
0
10
46.909794
20
59.978967
30
0.0
11
45.961144
21
57.873451
31
0.0
0
ARC
8
0
10
46.233870
20
57.748469
30
0.0
40
0.300000
50
155.379459
51
270.000000
0
LINE
8
0
10
46.235857
20
57.448476
30
0.0
11
47.814786
21
57.458933
31
0.0
0
ARC
8
0
10
47.813229
20
57.693928
30
0.0
40
0.235000
50
270.000000
51
336.000000
0
ARC
8
0
10
48.249164
20
57.517514
30
0.0
40
0.235000
50
70.221829
51
156.000000
0
LINE
8
0
10
48.328683
20
57.738652
30
0.0
11
49.801514
21
57.209034
31
0.0
0
ARC
8
0
10
49.700000
20
56.926731
30
0.0
40
0.300000
50
360.000000
51
70.221829
0
LINE
8
0
10
50.000000
20
56.926731
30
0.0
11
50.000000
21
50.103432
31
0.0
0
ARC
8
0
10
49.500000
20
50.103432
30
0.0
40
0.500000
50
270.000000
51
360.000000
0
ARC
8
0
10
49.500000
20
49.103432
30
0.0
40
0.500000
50
90.000000
51
180.000000
0
LINE
8
0
10
49.000000
20
49.103432
30
0.0
11
49.000000
21
48.603432
31
0.0
0
ARC
8
0
10
49.500000
20
48.603432
30
0.0
40
0.500000
50
180.000000
51
270.000000
0
LINE
8
0
10
49.500000
20
48.103432
30
0.0
11
53.500000
21
48.103432
31
0.0
0
LINE
8
0
10
53.500000
20
48.103432
30
0.0
11
53.800000
21
48.403432
31
0.0
0
LINE
8
0
10
53.800000
20
48.403432
30
0.0
11
54.100000
21
48.103432
31
0.0
0
LINE
8
0
10
54.100000
20
48.103432
30
0.0
11
59.246439
21
48.103432
31
0.0
0
ARC
8
0
10
59.246439
20
47.103432
30
0.0
40
1.000000
50
2.628630
51
90.000000
0
LINE
8
0
10
60.245387
20
47.149294
30
0.0
11
60.500000
21
41.603432
31
0.0
0
LINE
8
0
10
60.500000
20
41.603432
30
0.0
11
60.500000
21
40.902869
31
0.0
0
ARC
8
0
10
60.200000
20
40.902869
30
0.0
40
0.300000
50
270.000000
51
360.000000
0
LINE
8
0
10
60.200000
20
40.602869
30
0.0
11
58.300000
21
40.602869
31
0.0
0
ARC
8
0
10
58.300000
20
40.302869
30
0.0
40
0.300000
50
90.000000
51
180.000000
0
LINE
8
0
10
58.000000
20
40.302869
30
0.0
11
58.000000
21
38.202869
31
0.0
0
ARC
8
0
10
58.300000
20
38.202869
30
0.0
40
0.300000
50
180.000000
51
270.000000
0
LINE
8
0
10
58.300000
20
37.902869
30
0.0
11
59.000000
21
37.902869
31
0.0
0
ARC
8
0
10
1.800000
20
69.502869
30
0.0
40
0.300000
50
90.000000
51
180.000000
0
LINE
8
0
10
1.500000
20
69.502869
30
0.0
11
1.500000
21
49.903432
31
0.0
0
ARC
8
0
10
1.800000
20
49.903432
30
0.0
40
0.300000
50
180.000000
51
270.000000
0
LINE
8
0
10
1.800000
20
49.603432
30
0.0
11
10.200000
21
49.603432
31
0.0
0
ARC
8
0
10
10.200000
20
49.903432
30
0.0
40
0.300000
50
270.000000
51
360.000000
0
LINE
8
0
10
10.500000
20
49.903432
30
0.0
11
10.500000
21
63.003432
31
0.0
0
ARC
8
0
10
10.200000
20
63.003432
30
0.0
40
0.300000
50
360.000000
51
90.000000
0
LINE
8
0
10
10.200000
20
63.303432
30
0.0
11
8.500000
21
63.303432
31
0.0
0
LINE
8
0
10
8.500000
20
63.303432
30
0.0
11
8.200000
21
63.603432
31
0.0
0
LINE
8
0
10
8.200000
20
63.603432
30
0.0
11
7.900000
21
63.303432
31
0.0
0
LINE
8
0
10
7.900000
20
63.303432
30
0.0
11
5.700000
21
63.303432
31
0.0
0
ARC
8
0
10
5.700000
20
63.603432
30
0.0
40
0.300000
50
180.000000
51
270.000000
0
LINE
8
0
10
5.400000
20
63.603432
30
0.0
11
5.400000
21
69.502869
31
0.0
0
ARC
8
0
10
5.100000
20
69.502869
30
0.0
40
0.300000
50
360.000000
51
90.000000
0
LINE
8
0
10
5.100000
20
69.802869
30
0.0
11
1.800000
21
69.802869
31
0.0
0
ARC
8
0
10
1.800000
20
39.102869
30
0.0
40
0.300000
50
90.000000
51
180.000000
0
LINE
8
0
10
1.500000
20
39.102869
30
0.0
11
1.500000
21
22.602869
31
0.0
0
ARC
8
0
10
1.800000
20
22.602869
30
0.0
40
0.300000
50
180.000000
51
270.000000
0
LINE
8
0
10
1.800000
20
22.302869
30
0.0
11
2.400000
21
22.302869
31
0.0
0
ARC
8
0
10
2.400000
20
22.602869
30
0.0
40
0.300000
50
270.000000
51
360.000000
0
LINE
8
0
10
2.700000
20
22.602869
30
0.0
11
2.700000
21
23.502869
31
0.0
0
ARC
8
0
10
3.000000
20
23.502869
30
0.0
40
0.300000
50
90.000000
51
180.000000
0
LINE
8
0
10
3.000000
20
23.802869
30
0.0
11
3.700000
21
23.802869
31
0.0
0
ARC
8
0
10
3.700000
20
23.502869
30
0.0
40
0.300000
50
360.000000
51
90.000000
0
LINE
8
0
10
4.000000
20
23.502869
30
0.0
11
4.000000
21
19.902869
31
0.0
0
ARC
8
0
10
3.700000
20
19.902869
30
0.0
40
0.300000
50
270.000000
51
360.000000
0
LINE
8
0
10
3.700000
20
19.602869
30
0.0
11
3.300000
21
19.602869
31
0.0
0
ARC
8
0
10
3.300000
20
19.902869
30
0.0
40
0.300000
50
180.000000
51
270.000000
0
LINE
8
0
10
3.000000
20
19.902869
30
0.0
11
3.000000
21
20.802869
31
0.0
0
ARC
8
0
10
2.700000
20
20.802869
30
0.0
40
0.300000
50
360.000000
51
90.000000
0
LINE
8
0
10
2.700000
20
21.102869
30
0.0
11
2.002022
21
21.102869
31
0.0
0
ARC
8
0
10
2.002022
20
20.802869
30
0.0
40
0.300000
50
90.000000
51
180.000000
0
LINE
8
0
10
1.702022
20
20.802869
30
0.0
11
1.702022
21
20.052869
31
0.0
0
ARC
8
0
10
1.402022
20
20.052869
30
0.0
40
0.300000
50
300.000000
51
360.000000
0
ARC
8
0
10
1.702022
20
19.533254
30
0.0
40
0.300000
50
120.000000
51
180.000000
0
LINE
8
0
10
1.402022
20
19.533254
30
0.0
11
1.402022
21
15.072485
31
0.0
0
ARC
8
0
10
1.702022
20
15.072485
30
0.0
40
0.300000
50
180.000000
51
240.000000
0
ARC
8
0
10
1.402022
20
14.552869
30
0.0
40
0.300000
50
360.000000
51
60.000000
0
LINE
8
0
10
1.702022
20
14.552869
30
0.0
11
1.702022
21
13.802869
31
0.0
0
ARC
8
0
10
2.002022
20
13.802869
30
0.0
40
0.300000
50
180.000000
51
270.000000
0
LINE
8
0
10
2.002022
20
13.502869
30
0.0
11
2.700000
21
13.502869
31
0.0
0
ARC
8
0
10
2.700000
20
13.802869
30
0.0
40
0.300000
50
270.000000
51
360.000000
0
LINE
8
0
10
3.000000
20
13.802869
30
0.0
11
3.000000
21
14.702869
31
0.0
0
ARC
8
0
10
3.300000
20
14.702869
30
0.0
40
0.300000
50
90.000000
51
180.000000
0
LINE
8
0
10
3.300000
20
15.002869
30
0.0
11
3.700000
21
15.002869
31
0.0
0
ARC
8
0
10
3.700000
20
14.702869
30
0.0
40
0.300000
50
360.000000
51
90.000000
0
LINE
8
0
10
4.000000
20
14.702869
30
0.0
11
4.000000
21
12.602869
31
0.0
0
ARC
8
0
10
3.700000
20
12.602869
30
0.0
40
0.300000
50
270.000000
51
360.000000
0
LINE
8
0
10
3.700000
20
12.302869
30
0.0
11
0.500000
21
12.302869
31
0.0
0
ARC
8
0
10
0.500000
20
12.802869
30
0.0
40
0.500000
50
180.000000
51
270.000000
0
LINE
8
0
10
0.000000
20
12.802869
30
0.0
11
0.000000
21
94.002869
31
0.0
0
ARC
8
0
10
0.300000
20
94.002869
30
0.0
40
0.300000
50
90.000000
51
180.000000
0
LINE
8
0
10
0.300000
20
94.302869
30
0.0
11
4.200000
21
94.302869
31
0.0
0
ARC
8
0
10
4.200000
20
94.002869
30
0.0
40
0.300000
50
360.000000
51
90.000000
0
LINE
8
0
10
4.500000
20
94.002869
30
0.0
11
4.500000
21
92.502869
31
0.0
0
ARC
8
0
10
3.800000
20
92.502869
30
0.0
40
0.700000
50
270.000000
51
360.000000
0
ARC
8
0
10
3.800000
20
92.102869
30
0.0
40
0.300000
50
180.000000
51
270.000000
0
LINE
8
0
10
3.500000
20
92.102869
30
0.0
11
3.500000
21
92.802869
31
0.0
0
ARC
8
0
10
3.200000
20
92.802869
30
0.0
40
0.300000
50
360.000000
51
90.000000
0
LINE
8
0
10
3.200000
20
93.102869
30
0.0
11
2.000000
21
93.102869
31
0.0
0
ARC
8
0
10
2.000000
20
92.402869
30
0.0
40
0.700000
50
90.000000
51
180.000000
0
LINE
8
0
10
1.300000
20
92.402869
30
0.0
11
1.300000
21
86.202869
31
0.0
0
ARC
8
0
10
2.000000
20
86.202869
30
0.0
40
0.700000
50
180.000000
51
270.000000
0
LINE
8
0
10
2.000000
20
85.502869
30
0.0
11
3.200000
21
85.502869
31
0.0
0
ARC
8
0
10
3.200000
20
85.802869
30
0.0
40
0.300000
50
270.000000
51
360.000000
0
LINE
8
0
10
3.500000
20
85.802869
30
0.0
11
3.500000
21
86.502869
31
0.0
0
ARC
8
0
10
3.800000
20
86.502869
30
0.0
40
0.300000
50
90.000000
51
180.000000
0
ARC
8
0
10
3.800000
20
86.102869
30
0.0
40
0.700000
50
360.000000
51
90.000000
0
LINE
8
0
10
4.500000
20
86.102869
30
0.0
11
4.500000
21
83.102869
31
0.0
0
ARC
8
0
10
4.200000
20
83.102869
30
0.0
40
0.300000
50
270.000000
51
360.000000
0
LINE
8
0
10
4.200000
20
82.802869
30
0.0
11
3.800000
21
82.802869
31
0.0
0
ARC
8
0
10
3.800000
20
83.102869
30
0.0
40
0.300000
50
180.000000
51
270.000000
0
LINE
8
0
10
3.500000
20
83.102869
30
0.0
11
3.500000
21
84.002869
31
0.0
0
ARC
8
0
10
3.200000
20
84.002869
30
0.0
40
0.300000
50
360.000000
51
90.000000
0
LINE
8
0
10
3.200000
20
84.302869
30
0.0
11
1.800000
21
84.302869
31
0.0
0
ARC
8
0
10
1.800000
20
84.002869
30
0.0
40
0.300000
50
90.000000
51
180.000000
0
LINE
8
0
10
1.500000
20
84.002869
30
0.0
11
1.500000
21
77.802869
31
0.0
0
LINE
8
0
10
1.500000
20
77.802869
30
0.0
11
1.754613
21
72.257007
31
0.0
0
ARC
8
0
10
2.753561
20
72.302869
30
0.0
40
1.000000
50
182.628630
51
270.000000
0
LINE
8
0
10
2.753561
20
71.302869
30
0.0
11
7.269479
21
71.302869
31
0.0
0
ARC
8
0
10
7.269479
20
71.002869
30
0.0
40
0.300000
50
70.221829
51
90.000000
0
LINE
8
0
10
7.370993
20
71.285172
30
0.0
11
8.671317
21
70.817586
31
0.0
0
ARC
8
0
10
8.750836
20
71.038724
30
0.0
40
0.235000
50
250.221829
51
336.000000
0
ARC
8
0
10
9.186771
20
70.862310
30
0.0
40
0.235000
50
90.000000
51
156.000000
0
LINE
8
0
10
9.185214
20
71.097305
30
0.0
11
10.764142
21
71.107762
31
0.0
0
ARC
8
0
10
10.766129
20
70.807769
30
0.0
40
0.300000
50
335.379459
51
90.000000
0
LINE
8
0
10
11.038855
20
70.682787
30
0.0
11
10.090205
21
68.577271
31
0.0
0
ARC
8
0
10
9.816686
20
68.700507
30
0.0
40
0.300000
50
295.379459
51
335.745828
0
LINE
8
0
10
9.945269
20
68.429460
30
0.0
11
9.437846
21
68.188741
31
0.0
0
ARC
8
0
10
9.352124
20
68.369439
30
0.0
40
0.200000
50
175.379459
51
295.379459
0
LINE
8
0
10
9.152774
20
68.385550
30
0.0
11
9.162076
21
68.500645
31
0.0
0
ARC
8
0
10
8.863051
20
68.524812
30
0.0
40
0.300000
50
355.379459
51
55.379459
0
LINE
8
0
10
9.033493
20
68.771692
30
0.0
11
7.404736
21
69.896158
31
0.0
0
LINE
8
0
10
7.404736
20
69.896158
30
0.0
11
7.222027
21
69.977505
31
0.0
0
ARC
8
0
10
7.100025
20
69.703423
30
0.0
40
0.300009
50
66.004713
51
228.187329
0
ARC
8
0
10
6.700000
20
69.256218
30
0.0
40
0.300000
50
360.000000
51
48.187329
0
LINE
8
0
10
7.000000
20
69.256218
30
0.0
11
7.000000
21
65.403432
31
0.0
0
ARC
8
0
10
7.300000
20
65.403432
30
0.0
40
0.300000
50
180.000000
51
270.000000
0
LINE
8
0
10
7.300000
20
65.103432
30
0.0
11
7.521193
21
65.103432
31
0.0
0
ARC
8
0
10
7.521193
20
65.403432
30
0.0
40
0.300000
50
270.000000
51
301.400000
0
LINE
8
0
10
7.677496
20
65.147367
30
0.0
11
9.195798
21
66.074142
31
0.0
0
ARC
8
0
10
9.300000
20
65.903432
30
0.0
40
0.200000
50
360.000000
51
121.400000
0
LINE
8
0
10
9.500000
20
65.903432
30
0.0
11
9.500000
21
65.553432
31
0.0
0
ARC
8
0
10
9.800000
20
65.553432
30
0.0
40
0.300000
50
180.000000
51
270.000000
0
LINE
8
0
10
9.800000
20
65.253432
30
0.0
11
13.213234
21
65.253432
31
0.0
0
ARC
8
0
10
13.213234
20
64.253432
30
0.0
40
1.000000
50
58.600000
51
90.000000
0
LINE
8
0
10
13.734243
20
65.106983
30
0.0
11
14.021010
21
64.931940
31
0.0
0
ARC
8
0
10
13.500000
20
64.078389
30
0.0
40
1.000000
50
360.000000
51
58.600000
0
LINE
8
0
10
14.500000
20
64.078389
30
0.0
11
14.500000
21
62.652806
31
0.0
0
ARC
8
0
10
14.300000
20
62.652806
30
0.0
40
0.200000
50
238.600000
51
360.000000
0
LINE
8
0
10
14.195798
20
62.482096
30
0.0
11
12.677496
21
63.408871
31
0.0
0
ARC
8
0
10
12.521193
20
63.152806
30
0.0
40
0.300000
50
58.600000
51
90.000000
0
LINE
8
0
10
12.521193
20
63.452806
30
0.0
11
12.300000
21
63.452806
31
0.0
0
ARC
8
0
10
12.300000
20
63.152806
30
0.0
40
0.300000
50
90.000000
51
180.000000
0
LINE
8
0
10
12.000000
20
63.152806
30
0.0
11
12.000000
21
59.300020
31
0.0
0
ARC
8
0
10
11.700000
20
59.300020
30
0.0
40
0.300000
50
311.812671
51
360.000000
0
ARC
8
0
10
12.100025
20
58.852815
30
0.0
40
0.300009
50
131.812671
51
293.995287
0
LINE
8
0
10
12.222027
20
58.578733
30
0.0
11
12.404736
21
58.660080
31
0.0
0
LINE
8
0
10
12.404736
20
58.660080
30
0.0
11
14.033493
21
59.784546
31
0.0
0
ARC
8
0
10
13.863051
20
60.031426
30
0.0
40
0.300000
50
304.620541
51
4.620541
0
LINE
8
0
10
14.162076
20
60.055593
30
0.0
11
14.152774
21
60.170688
31
0.0
0
ARC
8
0
10
14.352124
20
60.186799
30
0.0
40
0.200000
50
64.620541
51
184.620541
0
LINE
8
0
10
14.437846
20
60.367497
30
0.0
11
14.945269
21
60.126778
31
0.0
0
ARC
8
0
10
14.816686
20
59.855731
30
0.0
40
0.300000
50
24.254172
51
64.620541
0
LINE
8
0
10
15.090205
20
59.978967
30
0.0
11
16.038855
21
57.873451
31
0.0
0
ARC
8
0
10
15.766129
20
57.748469
30
0.0
40
0.300000
50
270.000000
51
24.620541
0
LINE
8
0
10
15.764142
20
57.448476
30
0.0
11
14.185214
21
57.458933
31
0.0
0
ARC
8
0
10
14.186771
20
57.693928
30
0.0
40
0.235000
50
204.000000
51
270.000000
0
ARC
8
0
10
13.750836
20
57.517514
30
0.0
40
0.235000
50
24.000000
51
109.778171
0
LINE
8
0
10
13.671317
20
57.738652
30
0.0
11
12.198486
21
57.209034
31
0.0
0
ARC
8
0
10
12.300000
20
56.926731
30
0.0
40
0.300000
50
109.778171
51
180.000000
0
LINE
8
0
10
12.000000
20
56.926731
30
0.0
11
12.000000
21
50.103432
31
0.0
0
ARC
8
0
10
12.500000
20
50.103432
30
0.0
40
0.500000
50
180.000000
51
270.000000
0
ARC
8
0
10
12.500000
20
49.103432
30
0.0
40
0.500000
50
360.000000
51
90.000000
0
LINE
8
0
10
13.000000
20
49.103432
30
0.0
11
13.000000
21
48.603432
31
0.0
0
ARC
8
0
10
12.500000
20
48.603432
30
0.0
40
0.500000
50
270.000000
51
360.000000
0
LINE
8
0
10
12.500000
20
48.103432
30
0.0
11
8.500000
21
48.103432
31
0.0
0
LINE
8
0
10
8.500000
20
48.103432
30
0.0
11
8.200000
21
48.403432
31
0.0
0
LINE
8
0
10
8.200000
20
48.403432
30
0.0
11
7.900000
21
48.103432
31
0.0
0
LINE
8
0
10
7.900000
20
48.103432
30
0.0
11
2.753561
21
48.103432
31
0.0
0
ARC
8
0
10
2.753561
20
47.103432
30
0.0
40
1.000000
50
90.000000
51
177.371370
0
LINE
8
0
10
1.754613
20
47.149294
30
0.0
11
1.500000
21
41.603432
31
0.0
0
LINE
8
0
10
1.500000
20
41.603432
30
0.0
11
1.500000
21
40.902869
31
0.0
0
ARC
8
0
10
1.800000
20
40.902869
30
0.0
40
0.300000
50
180.000000
51
270.000000
0
LINE
8
0
10
1.800000
20
40.602869
30
0.0
11
3.700000
21
40.602869
31
0.0
0
ARC
8
0
10
3.700000
20
40.302869
30
0.0
40
0.300000
50
360.000000
51
90.000000
0
LINE
8
0
10
4.000000
20
40.302869
30
0.0
11
4.000000
21
38.202869
31
0.0
0
ARC
8
0
10
3.700000
20
38.202869
30
0.0
40
0.300000
50
270.000000
51
360.000000
0
LINE
8
0
10
3.700000
20
37.902869
30
0.0
11
3.000000
21
37.902869
31
0.0
0
ARC
8
0
10
3.000000
20
38.202869
30
0.0
40
0.300000
50
180.000000
51
270.000000
0
LINE
8
0
10
2.700000
20
38.202869
30
0.0
11
2.700000
21
39.102869
31
0.0
0
ARC
8
0
10
2.400000
20
39.102869
30
0.0
40
0.300000
50
360.000000
51
90.000000
0
LINE
8
0
10
2.400000
20
39.402869
30
0.0
11
1.800000
21
39.402869
31
0.0
0
LINE
8
0
10
9.114999
20
66.042292
30
0.0
11
7.706389
21
65.229632
31
0.0
0
ARC
8
0
10
7.606444
20
65.402869
30
0.0
40
0.200000
50
270.000000
51
299.981639
0
LINE
8
0
10
7.606444
20
65.202869
30
0.0
11
7.400000
21
65.202869
31
0.0
0
ARC
8
0
10
7.400000
20
65.602869
30
0.0
40
0.400000
50
180.000000
51
270.000000
0
LINE
8
0
10
7.000000
20
65.602869
30
0.0
11
7.000000
21
69.002869
31
0.0
0
ARC
8
0
10
7.400000
20
69.002869
30
0.0
40
0.400000
50
90.000000
51
180.000000
0
LINE
8
0
10
7.400000
20
69.402869
30
0.0
11
7.606444
21
69.402869
31
0.0
0
ARC
8
0
10
7.606444
20
69.202869
30
0.0
40
0.200000
50
60.018361
51
90.000000
0
LINE
8
0
10
7.706389
20
69.376106
30
0.0
11
9.114999
21
68.563446
31
0.0
0
ARC
8
0
10
9.714666
20
69.602869
30
0.0
40
1.200000
50
240.018361
51
270.000000
0
LINE
8
0
10
9.714666
20
68.402869
30
0.0
11
10.397368
21
68.402869
31
0.0
0
ARC
8
0
10
10.397368
20
68.702869
30
0.0
40
0.300000
50
270.000000
51
324.745828
0
LINE
8
0
10
10.642348
20
68.529708
30
0.0
11
12.453103
21
71.091471
31
0.0
0
ARC
8
0
10
12.861403
20
70.802869
30
0.0
40
0.500000
50
90.000000
51
144.745828
0
LINE
8
0
10
12.861403
20
71.302869
30
0.0
11
43.500000
21
71.302869
31
0.0
0
ARC
8
0
10
43.500000
20
71.802869
30
0.0
40
0.500000
50
270.000000
51
360.000000
0
LINE
8
0
10
44.000000
20
71.802869
30
0.0
11
44.000000
21
76.002869
31
0.0
0
ARC
8
0
10
44.300000
20
76.002869
30
0.0
40
0.300000
50
90.000000
51
180.000000
0
LINE
8
0
10
44.300000
20
76.302869
30
0.0
11
46.949445
21
76.302869
31
0.0
0
ARC
8
0
10
46.949445
20
76.002869
30
0.0
40
0.300000
50
30.000000
51
90.000000
0
LINE
8
0
10
47.209252
20
76.152869
30
0.0
11
47.659808
21
75.372484
31
0.0
0
ARC
8
0
10
47.400000
20
75.222484
30
0.0
40
0.300000
50
360.000000
51
30.000000
0
LINE
8
0
10
47.700000
20
75.222484
30
0.0
11
47.700000
21
75.102869
31
0.0
0
ARC
8
0
10
47.400000
20
75.102869
30
0.0
40
0.300000
50
270.000000
51
360.000000
0
LINE
8
0
10
47.400000
20
74.802869
30
0.0
11
46.000000
21
74.802869
31
0.0
0
ARC
8
0
10
46.000000
20
74.502869
30
0.0
40
0.300000
50
90.000000
51
180.000000
0
LINE
8
0
10
45.700000
20
74.502869
30
0.0
11
45.700000
21
71.802869
31
0.0
0
ARC
8
0
10
46.200000
20
71.802869
30
0.0
40
0.500000
50
180.000000
51
270.000000
0
LINE
8
0
10
46.200000
20
71.302869
30
0.0
11
49.138597
21
71.302869
31
0.0
0
ARC
8
0
10
49.138597
20
70.802869
30
0.0
40
0.500000
50
35.254172
51
90.000000
0
LINE
8
0
10
49.546897
20
71.091471
30
0.0
11
51.357652
21
68.529708
31
0.0
0
ARC
8
0
10
51.602632
20
68.702869
30
0.0
40
0.300000
50
215.254172
51
270.000000
0
LINE
8
0
10
51.602632
20
68.402869
30
0.0
11
52.285334
21
68.402869
31
0.0
0
ARC
8
0
10
52.285334
20
69.602869
30
0.0
40
1.200000
50
270.000000
51
299.981639
0
LINE
8
0
10
52.885001
20
68.563446
30
0.0
11
54.293611
21
69.376106
31
0.0
0
ARC
8
0
10
54.393555
20
69.202869
30
0.0
40
0.200000
50
90.000000
51
119.981639
0
LINE
8
0
10
54.393555
20
69.402869
30
0.0
11
54.600000
21
69.402869
31
0.0
0
ARC
8
0
10
54.600000
20
69.002869
30
0.0
40
0.400000
50
360.000000
51
90.000000
0
LINE
8
0
10
55.000000
20
69.002869
30
0.0
11
55.000000
21
65.602869
31
0.0
0
ARC
8
0
10
54.600000
20
65.602869
30
0.0
40
0.400000
50
270.000000
51
360.000000
0
LINE
8
0
10
54.600000
20
65.202869
30
0.0
11
54.393555
21
65.202869
31
0.0
0
ARC
8
0
10
54.393555
20
65.402869
30
0.0
40
0.200000
50
240.018361
51
270.000000
0
LINE
8
0
10
54.293611
20
65.229632
30
0.0
11
52.885001
21
66.042292
31
0.0
0
ARC
8
0
10
52.285334
20
65.002869
30
0.0
40
1.200000
50
60.018361
51
90.000000
0
LINE
8
0
10
52.285334
20
66.202869
30
0.0
11
50.826005
21
66.202869
31
0.0
0
ARC
8
0
10
50.826005
20
67.202869
30
0.0
40
1.000000
50
215.254172
51
270.000000
0
LINE
8
0
10
50.009406
20
66.625664
30
0.0
11
48.475671
21
68.795513
31
0.0
0
ARC
8
0
10
47.495752
20
68.102867
30
0.0
40
1.200000
50
35.254172
51
90.000000
0
LINE
8
0
10
47.495752
20
69.302867
30
0.0
11
14.504248
21
69.302867
31
0.0
0
ARC
8
0
10
14.504248
20
68.102867
30
0.0
40
1.200000
50
90.000000
51
144.745828
0
LINE
8
0
10
13.524328
20
68.795513
30
0.0
11
11.990594
21
66.625664
31
0.0
0
ARC
8
0
10
11.173995
20
67.202869
30
0.0
40
1.000000
50
270.000000
51
324.745828
0
LINE
8
0
10
11.173995
20
66.202869
30
0.0
11
9.714666
21
66.202869
31
0.0
0
ARC
8
0
10
9.714666
20
65.002869
30
0.0
40
1.200000
50
90.000000
51
119.981639
0
ARC
8
0
10
30.500000
20
61.326413
30
0.0
40
1.000000
50
180.000000
51
270.000000
0
LINE
8
0
10
29.500000
20
61.326413
30
0.0
11
29.500000
21
68.426413
31
0.0
0
ARC
8
0
10
29.200000
20
68.426413
30
0.0
40
0.300000
50
360.000000
51
90.000000
0
LINE
8
0
10
29.200000
20
68.726413
30
0.0
11
27.600000
21
68.726413
31
0.0
0
ARC
8
0
10
27.600000
20
68.426413
30
0.0
40
0.300000
50
90.000000
51
180.000000
0
LINE
8
0
10
27.300000
20
68.426413
30
0.0
11
27.300000
21
60.226413
31
0.0
0
ARC
8
0
10
26.300000
20
60.226413
30
0.0
40
1.000000
50
270.000000
51
360.000000
0
LINE
8
0
10
26.300000
20
59.226413
30
0.0
11
19.174834
21
59.226413
31
0.0
0
ARC
8
0
10
19.174834
20
60.226413
30
0.0
40
1.000000
50
215.254172
51
270.000000
0
LINE
8
0
10
18.358235
20
59.649208
30
0.0
11
16.835414
21
61.803617
31
0.0
0
ARC
8
0
10
16.018814
20
61.226413
30
0.0
40
1.000000
50
35.254172
51
90.000000
0
LINE
8
0
10
16.018814
20
62.226413
30
0.0
11
14.888000
21
62.226413
31
0.0
0
ARC
8
0
10
14.888000
20
63.426413
30
0.0
40
1.200000
50
240.018361
51
270.000000
0
LINE
8
0
10
14.288333
20
62.386990
30
0.0
11
12.706389
21
63.299650
31
0.0
0
ARC
8
0
10
12.606444
20
63.126413
30
0.0
40
0.200000
50
60.018361
51
90.000000
0
LINE
8
0
10
12.606444
20
63.326413
30
0.0
11
12.400000
21
63.326413
31
0.0
0
ARC
8
0
10
12.400000
20
62.926413
30
0.0
40
0.400000
50
90.000000
51
180.000000
0
LINE
8
0
10
12.000000
20
62.926413
30
0.0
11
12.000000
21
59.526413
31
0.0
0
ARC
8
0
10
12.400000
20
59.526413
30
0.0
40
0.400000
50
180.000000
51
270.000000
0
LINE
8
0
10
12.400000
20
59.126413
30
0.0
11
12.606444
21
59.126413
31
0.0
0
ARC
8
0
10
12.606444
20
59.326413
30
0.0
40
0.200000
50
270.000000
51
299.981639
0
LINE
8
0
10
12.706389
20
59.153176
30
0.0
11
14.288333
21
60.065835
31
0.0
0
ARC
8
0
10
14.888000
20
59.026413
30
0.0
40
1.200000
50
90.000000
51
119.981639
0
LINE
8
0
10
14.888000
20
60.226413
30
0.0
11
15.345738
21
60.226413
31
0.0
0
ARC
8
0
10
15.345738
20
59.926413
30
0.0
40
0.300000
50
35.254172
51
90.000000
0
LINE
8
0
10
15.590718
20
60.099574
30
0.0
11
17.252049
21
57.749208
31
0.0
0
ARC
8
0
10
18.068648
20
58.326413
30
0.0
40
1.000000
50
215.254172
51
270.000000
0
LINE
8
0
10
18.068648
20
57.326413
30
0.0
11
30.617157
21
57.326413
31
0.0
0
LINE
8
0
10
30.617157
20
57.326413
30
0.0
11
30.687868
21
57.355702
31
0.0
0
LINE
8
0
10
30.687868
20
57.355702
30
0.0
11
30.929289
21
57.597123
31
0.0
0
ARC
8
0
10
31.000000
20
57.526413
30
0.0
40
0.100000
50
45.000000
51
135.000000
0
LINE
8
0
10
31.070711
20
57.597123
30
0.0
11
31.312132
21
57.355702
31
0.0
0
LINE
8
0
10
31.312132
20
57.355702
30
0.0
11
31.382843
21
57.326413
31
0.0
0
LINE
8
0
10
31.382843
20
57.326413
30
0.0
11
43.931352
21
57.326413
31
0.0
0
ARC
8
0
10
43.931352
20
58.326413
30
0.0
40
1.000000
50
270.000000
51
324.745828
0
LINE
8
0
10
44.747951
20
57.749208
30
0.0
11
46.409282
21
60.099574
31
0.0
0
ARC
8
0
10
46.654262
20
59.926413
30
0.0
40
0.300000
50
90.000000
51
144.745828
0
LINE
8
0
10
46.654262
20
60.226413
30
0.0
11
47.112000
21
60.226413
31
0.0
0
ARC
8
0
10
47.112000
20
59.026413
30
0.0
40
1.200000
50
60.018361
51
90.000000
0
LINE
8
0
10
47.711667
20
60.065835
30
0.0
11
49.293611
21
59.153176
31
0.0
0
ARC
8
0
10
49.393555
20
59.326413
30
0.0
40
0.200000
50
240.018361
51
270.000000
0
LINE
8
0
10
49.393555
20
59.126413
30
0.0
11
49.600000
21
59.126413
31
0.0
0
ARC
8
0
10
49.600000
20
59.526413
30
0.0
40
0.400000
50
270.000000
51
360.000000
0
LINE
8
0
10
50.000000
20
59.526413
30
0.0
11
50.000000
21
62.926413
31
0.0
0
ARC
8
0
10
49.600000
20
62.926413
30
0.0
40
0.400000
50
360.000000
51
90.000000
0
LINE
8
0
10
49.600000
20
63.326413
30
0.0
11
49.393555
21
63.326413
31
0.0
0
ARC
8
0
10
49.393555
20
63.126413
30
0.0
40
0.200000
50
90.000000
51
119.981639
0
LINE
8
0
10
49.293611
20
63.299650
30
0.0
11
47.711667
21
62.386990
31
0.0
0
ARC
8
0
10
47.112000
20
63.426413
30
0.0
40
1.200000
50
270.000000
51
299.981639
0
LINE
8
0
10
47.112000
20
62.226413
30
0.0
11
45.981186
21
62.226413
31
0.0
0
ARC
8
0
10
45.981186
20
61.226413
30
0.0
40
1.000000
50
90.000000
51
144.745828
0
LINE
8
0
10
45.164586
20
61.803617
30
0.0
11
43.641765
21
59.649208
31
0.0
0
ARC
8
0
10
42.825165
20
60.226413
30
0.0
40
1.000000
50
270.000000
51
324.745828
0
LINE
8
0
10
42.825165
20
59.226413
30
0.0
11
35.700000
21
59.226413
31
0.0
0
ARC
8
0
10
35.700000
20
60.226413
30
0.0
40
1.000000
50
180.000000
51
270.000000
0
LINE
8
0
10
34.700000
20
60.226413
30
0.0
11
34.700000
21
68.426413
31
0.0
0
ARC
8
0
10
34.400000
20
68.426413
30
0.0
40
0.300000
50
360.000000
51
90.000000
0
LINE
8
0
10
34.400000
20
68.726413
30
0.0
11
32.800000
21
68.726413
31
0.0
0
ARC
8
0
10
32.800000
20
68.426413
30
0.0
40
0.300000
50
90.000000
51
180.000000
0
LINE
8
0
10
32.500000
20
68.426413
30
0.0
11
32.500000
21
61.326413
31
0.0
0
ARC
8
0
10
31.500000
20
61.326413
30
0.0
40
1.000000
50
270.000000
51
360.000000
0
LINE
8
0
10
31.500000
20
60.326413
30
0.0
11
30.500000
21
60.326413
31
0.0
0
ATTDEF
8
0
10
58.450555
20
76.302869
30
0.0
40
3.5
1

3

2
VC_START
70
0
0
ATTDEF
8
0
10
49.500000
20
48.103432
30
0.0
40
3.5
1

3

2
VC_END
70
0
0
LINE
8
0
10
134.099684
20
5.900000
30
0.0
11
134.099684
21
0.300000
31
0.0
0
ARC
8
0
10
134.399684
20
0.300000
30
0.0
40
0.300000
50
180.000000
51
330.116348
0
LINE
8
0
10
134.659795
20
0.150528
30
0.0
11
135.610946
21
1.831660
31
0.0
0
ARC
8
0
10
135.001699
20
2.176360
30
0.0
40
0.700000
50
330.499678
51
45.000000
0
LINE
8
0
10
135.496674
20
2.671334
30
0.0
11
135.187552
21
2.980457
31
0.0
0
ARC
8
0
10
135.399684
20
3.192589
30
0.0
40
0.300000
50
180.000000
51
225.000000
0
LINE
8
0
10
135.099684
20
3.192589
30
0.0
11
135.099684
21
4.600000
31
0.0
0
ARC
8
0
10
135.599684
20
4.600000
30
0.0
40
0.500000
50
90.000000
51
180.000000
0
LINE
8
0
10
135.599684
20
5.100000
30
0.0
11
137.700000
21
5.100000
31
0.0
0
LINE
8
0
10
137.700000
20
5.100000
30
0.0
11
137.700000
21
4.900000
31
0.0
0
ARC
8
0
10
138.000000
20
4.900000
30
0.0
40
0.300000
50
180.000000
51
270.000000
0
LINE
8
0
10
138.000000
20
4.600000
30
0.0
11
139.400000
21
4.600000
31
0.0
0
ARC
8
0
10
139.400000
20
4.900000
30
0.0
40
0.300000
50
270.000000
51
360.000000
0
LINE
8
0
10
139.700000
20
4.900000
30
0.0
11
139.700000
21
27.002869
31
0.0
0
ARC
8
0
10
139.400000
20
27.002869
30
0.0
40
0.300000
50
360.000000
51
90.000000
0
LINE
8
0
10
139.400000
20
27.302869
30
0.0
11
67.100000
21
27.302869
31
0.0
0
ARC
8
0
10
67.100000
20
27.002869
30
0.0
40
0.300000
50
90.000000
51
180.000000
0
LINE
8
0
10
66.800000
20
27.002869
30
0.0
11
66.800000
21
24.704570
31
0.0
0
ARC
8
0
10
67.100000
20
24.704570
30
0.0
40
0.300000
50
180.000000
51
270.000000
0
LINE
8
0
10
67.100000
20
24.404570
30
0.0
11
67.700000
21
24.404570
31
0.0
0
ARC
8
0
10
67.700000
20
24.704570
30
0.0
40
0.300000
50
270.000000
51
360.000000
0
LINE
8
0
10
68.000000
20
24.704570
30
0.0
11
68.000000
21
25.604570
31
0.0
0
ARC
8
0
10
68.300000
20
25.604570
30
0.0
40
0.300000
50
90.000000
51
180.000000
0
LINE
8
0
10
68.300000
20
25.904570
30
0.0
11
69.000000
21
25.904570
31
0.0
0
ARC
8
0
10
69.000000
20
25.604570
30
0.0
40
0.300000
50
360.000000
51
90.000000
0
LINE
8
0
10
69.300000
20
25.604570
30
0.0
11
69.300000
21
18.604570
31
0.0
0
ARC
8
0
10
69.000000
20
18.604570
30
0.0
40
0.300000
50
270.000000
51
360.000000
0
LINE
8
0
10
69.000000
20
18.304570
30
0.0
11
68.300000
21
18.304570
31
0.0
0
ARC
8
0
10
68.300000
20
18.604570
30
0.0
40
0.300000
50
180.000000
51
270.000000
0
LINE
8
0
10
68.000000
20
18.604570
30
0.0
11
68.000000
21
19.504570
31
0.0
0
ARC
8
0
10
67.700000
20
19.504570
30
0.0
40
0.300000
50
360.000000
51
90.000000
0
LINE
8
0
10
67.700000
20
19.804570
30
0.0
11
67.100000
21
19.804570
31
0.0
0
ARC
8
0
10
67.100000
20
19.504570
30
0.0
40
0.300000
50
90.000000
51
180.000000
0
LINE
8
0
10
66.800000
20
19.504570
30
0.0
11
66.800000
21
18.104570
31
0.0
0
ARC
8
0
10
67.800000
20
18.104570
30
0.0
40
1.000000
50
180.000000
51
270.000000
0
LINE
8
0
10
67.800000
20
17.104570
30
0.0
11
69.700000
21
17.104570
31
0.0
0
ARC
8
0
10
69.700000
20
18.104570
30
0.0
40
1.000000
50
270.000000
51
360.000000
0
LINE
8
0
10
70.700000
20
18.104570
30
0.0
11
70.700000
21
24.802869
31
0.0
0
ARC
8
0
10
71.200000
20
24.802869
30
0.0
40
0.500000
50
90.000000
51
180.000000
0
LINE
8
0
10
71.200000
20
25.302869
30
0.0
11
88.199985
21
25.302869
31
0.0
0
ARC
8
0
10
88.199985
20
25.002869
30
0.0
40
0.300000
50
360.000000
51
90.000000
0
LINE
8
0
10
88.499985
20
25.002869
30
0.0
11
88.499985
21
23.264887
31
0.0
0
ARC
8
0
10
88.199985
20
23.264887
30
0.0
40
0.300000
50
285.000000
51
360.000000
0
LINE
8
0
10
88.277630
20
22.975109
30
0.0
11
86.222339
21
22.424396
31
0.0
0
ARC
8
0
10
86.299985
20
22.134618
30
0.0
40
0.300000
50
105.000000
51
180.000000
0
LINE
8
0
10
85.999985
20
22.134618
30
0.0
11
85.999985
21
21.202869
31
0.0
0
ARC
8
0
10
86.299985
20
21.202869
30
0.0
40
0.300000
50
180.000000
51
285.000000
0
LINE
8
0
10
86.377630
20
20.913092
30
0.0
11
89.777630
21
21.824119
31
0.0
0
ARC
8
0
10
89.699985
20
22.113897
30
0.0
40
0.300000
50
285.000000
51
360.000000
0
LINE
8
0
10
89.999985
20
22.113897
30
0.0
11
89.999985
21
25.002869
31
0.0
0
ARC
8
0
10
90.299985
20
25.002869
30
0.0
40
0.300000
50
90.000000
51
180.000000
0
LINE
8
0
10
90.299985
20
25.302869
30
0.0
11
121.300000
21
25.302869
31
0.0
0
ARC
8
0
10
121.300000
20
25.002869
30
0.0
40
0.300000
50
360.000000
51
90.000000
0
LINE
8
0
10
121.600000
20
25.002869
30
0.0
11
121.600000
21
4.900000
31
0.0
0
ARC
8
0
10
121.900000
20
4.900000
30
0.0
40
0.300000
50
180.000000
51
270.000000
0
LINE
8
0
10
121.900000
20
4.600000
30
0.0
11
123.300000
21
4.600000
31
0.0
0
ARC
8
0
10
123.300000
20
4.900000
30
0.0
40
0.300000
50
270.000000
51
360.000000
0
LINE
8
0
10
123.600000
20
4.900000
30
0.0
11
123.600000
21
5.100000
31
0.0
0
LINE
8
0
10
123.600000
20
5.100000
30
0.0
11
125.200000
21
5.100000
31
0.0
0
ARC
8
0
10
125.200000
20
4.600000
30
0.0
40
0.500000
50
360.000000
51
90.000000
0
LINE
8
0
10
125.700000
20
4.600000
30
0.0
11
125.700000
21
3.192589
31
0.0
0
ARC
8
0
10
125.400000
20
3.192589
30
0.0
40
0.300000
50
315.000000
51
360.000000
0
LINE
8
0
10
125.612132
20
2.980457
30
0.0
11
125.303010
21
2.671334
31
0.0
0
ARC
8
0
10
125.797985
20
2.176360
30
0.0
40
0.700000
50
135.000000
51
209.500322
0
LINE
8
0
10
125.188738
20
1.831660
30
0.0
11
126.139888
21
0.150528
31
0.0
0
ARC
8
0
10
126.400000
20
0.300000
30
0.0
40
0.300000
50
209.883652
51
360.000000
0
LINE
8
0
10
126.700000
20
0.300000
30
0.0
11
126.700000
21
5.900000
31
0.0
0
ARC
8
0
10
126.200000
20
5.900000
30
0.0
40
0.500000
50
360.000000
51
90.000000
0
LINE
8
0
10
126.200000
20
6.400000
30
0.0
11
123.300000
21
6.400000
31
0.0
0
ARC
8
0
10
123.300000
20
6.700000
30
0.0
40
0.300000
50
180.000000
51
270.000000
0
LINE
8
0
10
123.000000
20
6.700000
30
0.0
11
123.000000
21
25.302869
31
0.0
0
ARC
8
0
10
123.300000
20
25.302869
30
0.0
40
0.300000
50
90.000000
51
180.000000
0
LINE
8
0
10
123.300000
20
25.602869
30
0.0
11
137.699684
21
25.602869
31
0.0
0
ARC
8
0
10
137.699684
20
25.302869
30
0.0
40
0.300000
50
360.000000
51
90.000000
0
LINE
8
0
10
137.999684
20
25.302869
30
0.0
11
137.999684
21
6.700000
31
0.0
0
ARC
8
0
10
137.699684
20
6.700000
30
0.0
40
0.300000
50
270.000000
51
360.000000
0
LINE
8
0
10
137.699684
20
6.400000
30
0.0
11
134.599684
21
6.400000
31
0.0
0
ARC
8
0
10
134.599684
20
5.900000
30
0.0
40
0.500000
50
90.000000
51
180.000000
0
ARC
8
0
10
15.370711
20
48.426413
30
0.0
40
0.500000
50
180.000000
51
270.000000
0
LINE
8
0
10
14.870711
20
48.426413
30
0.0
11
14.870711
21
53.826413
31
0.0
0
ARC
8
0
10
15.370711
20
53.826413
30
0.0
40
0.500000
50
90.000000
51
180.000000
0
LINE
8
0
10
15.370711
20
54.326413
30
0.0
11
18.070711
21
54.326413
31
0.0
0
ARC
8
0
10
18.070711
20
53.826413
30
0.0
40
0.500000
50
360.000000
51
90.000000
0
LINE
8
0
10
18.570711
20
53.826413
30
0.0
11
18.570711
21
48.426413
31
0.0
0
ARC
8
0
10
18.070711
20
48.426413
30
0.0
40
0.500000
50
270.000000
51
360.000000
0
LINE
8
0
10
18.070711
20
47.926413
30
0.0
11
15.370711
21
47.926413
31
0.0
0
LINE
8
0
10
11.480434
20
38.226413
30
0.0
11
11.480434
21
45.626413
31
0.0
0
ARC
8
0
10
11.980434
20
45.626413
30
0.0
40
0.500000
50
90.000000
51
180.000000
0
LINE
8
0
10
11.980434
20
46.126413
30
0.0
11
18.070711
21
46.126413
31
0.0
0
ARC
8
0
10
18.070711
20
45.626413
30
0.0
40
0.500000
50
360.000000
51
90.000000
0
LINE
8
0
10
18.570711
20
45.626413
30
0.0
11
18.570711
21
38.226413
31
0.0
0
ARC
8
0
10
18.070711
20
38.226413
30
0.0
40
0.500000
50
270.000000
51
360.000000
0
LINE
8
0
10
18.070711
20
37.726413
30
0.0
11
11.980434
21
37.726413
31
0.0
0
ARC
8
0
10
11.980434
20
38.226413
30
0.0
40
0.500000
50
180.000000
51
270.000000
0
LINE
8
0
10
5.608634
20
25.326413
30
0.0
11
9.180434
21
25.326413
31
0.0
0
ARC
8
0
10
9.180434
20
26.326413
30
0.0
40
1.000000
50
270.000000
51
360.000000
0
LINE
8
0
10
10.180434
20
26.326413
30
0.0
11
10.180434
21
45.626413
31
0.0
0
ARC
8
0
10
9.680434
20
45.626413
30
0.0
40
0.500000
50
360.000000
51
90.000000
0
LINE
8
0
10
9.680434
20
46.126413
30
0.0
11
6.170711
21
46.126413
31
0.0
0
ARC
8
0
10
6.170711
20
45.626413
30
0.0
40
0.500000
50
90.000000
51
180.000000
0
LINE
8
0
10
5.670711
20
45.626413
30
0.0
11
5.670711
21
29.101595
31
0.0
0
LINE
8
0
10
5.670711
20
29.101595
30
0.0
11
5.663115
21
29.014771
31
0.0
0
LINE
8
0
10
5.663115
20
29.014771
30
0.0
11
5.116230
21
25.913237
31
0.0
0
ARC
8
0
10
5.608634
20
25.826413
30
0.0
40
0.500000
50
170.000000
51
270.000000
0
ARC
8
0
10
46.770711
20
48.426413
30
0.0
40
0.500000
50
270.000000
51
360.000000
0
LINE
8
0
10
47.270711
20
48.426413
30
0.0
11
47.270711
21
53.826413
31
0.0
0
ARC
8
0
10
46.770711
20
53.826413
30
0.0
40
0.500000
50
360.000000
51
90.000000
0
LINE
8
0
10
46.770711
20
54.326413
30
0.0
11
44.070711
21
54.326413
31
0.0
0
ARC
8
0
10
44.070711
20
53.826413
30
0.0
40
0.500000
50
90.000000
51
180.000000
0
LINE
8
0
10
43.570711
20
53.826413
30
0.0
11
43.570711
21
48.426413
31
0.0
0
ARC
8
0
10
44.070711
20
48.426413
30
0.0
40
0.500000
50
180.000000
51
270.000000
0
LINE
8
0
10
44.070711
20
47.926413
30
0.0
11
46.770711
21
47.926413
31
0.0
0
LINE
8
0
10
50.660988
20
38.226413
30
0.0
11
50.660988
21
45.626413
31
0.0
0
ARC
8
0
10
50.160988
20
45.626413
30
0.0
40
0.500000
50
360.000000
51
90.000000
0
LINE
8
0
10
50.160988
20
46.126413
30
0.0
11
44.070711
21
46.126413
31
0.0
0
ARC
8
0
10
44.070711
20
45.626413
30
0.0
40
0.500000
50
90.000000
51
180.000000
0
LINE
8
0
10
43.570711
20
45.626413
30
0.0
11
43.570711
21
38.226413
31
0.0
0
ARC
8
0
10
44.070711
20
38.226413
30
0.0
40
0.500000
50
180.000000
51
270.000000
0
LINE
8
0
10
44.070711
20
37.726413
30
0.0
11
50.160988
21
37.726413
31
0.0
0
ARC
8
0
10
50.160988
20
38.226413
30
0.0
40
0.500000
50
270.000000
51
360.000000
0
LINE
8
0
10
56.532787
20
25.326413
30
0.0
11
52.960988
21
25.326413
31
0.0
0
ARC
8
0
10
52.960988
20
26.326413
30
0.0
40
1.000000
50
180.000000
51
270.000000
0
LINE
8
0
10
51.960988
20
26.326413
30
0.0
11
51.960988
21
45.626413
31
0.0
0
ARC
8
0
10
52.460988
20
45.626413
30
0.0
40
0.500000
50
90.000000
51
180.000000
0
LINE
8
0
10
52.460988
20
46.126413
30
0.0
11
55.970711
21
46.126413
31
0.0
0
ARC
8
0
10
55.970711
20
45.626413
30
0.0
40
0.500000
50
360.000000
51
90.000000
0
LINE
8
0
10
56.470711
20
45.626413
30
0.0
11
56.470711
21
29.101595
31
0.0
0
LINE
8
0
10
56.478307
20
29.014771
30
0.0
11
56.470711
21
29.101595
31
0.0
0
LINE
8
0
10
56.478307
20
29.014771
30
0.0
11
57.025191
21
25.913237
31
0.0
0
ARC
8
0
10
56.532787
20
25.826413
30
0.0
40
0.500000
50
270.000000
51
10.000000
0
LINE
8
0
10
19.370711
20
26.926413
30
0.0
11
19.370711
21
25.826413
31
0.0
0
ARC
8
0
10
19.570711
20
25.826413
30
0.0
40
0.200000
50
180.000000
51
270.000000
0
LINE
8
0
10
19.570711
20
25.626413
30
0.0
11
19.670711
21
25.626413
31
0.0
0
ARC
8
0
10
19.670711
20
25.426413
30
0.0
40
0.200000
50
360.000000
51
90.000000
0
LINE
8
0
10
19.870711
20
25.426413
30
0.0
11
19.870711
21
22.826413
31
0.0
0
ARC
8
0
10
19.370711
20
22.826413
30
0.0
40
0.500000
50
270.000000
51
360.000000
0
LINE
8
0
10
19.370711
20
22.326413
30
0.0
11
19.170711
21
22.326413
31
0.0
0
ARC
8
0
10
19.170711
20
22.826413
30
0.0
40
0.500000
50
180.000000
51
270.000000
0
LINE
8
0
10
18.670711
20
22.826413
30
0.0
11
18.670711
21
23.526413
31
0.0
0
ARC
8
0
10
18.370711
20
23.526413
30
0.0
40
0.300000
50
360.000000
51
90.000000
0
LINE
8
0
10
18.370711
20
23.826413
30
0.0
11
5.970711
21
23.826413
31
0.0
0
ARC
8
0
10
5.970711
20
23.526413
30
0.0
40
0.300000
50
90.000000
51
180.000000
0
LINE
8
0
10
5.670711
20
23.526413
30
0.0
11
5.670711
21
23.126413
31
0.0
0
ARC
8
0
10
5.370711
20
23.126413
30
0.0
40
0.300000
50
270.000000
51
360.000000
0
LINE
8
0
10
5.370711
20
22.826413
30
0.0
11
4.670711
21
22.826413
31
0.0
0
ARC
8
0
10
4.670711
20
23.126413
30
0.0
40
0.300000
50
180.000000
51
270.000000
0
LINE
8
0
10
4.370711
20
23.126413
30
0.0
11
4.370711
21
23.726413
31
0.0
0
ARC
8
0
10
3.970711
20
23.726413
30
0.0
40
0.400000
50
360.000000
51
90.000000
0
ARC
8
0
10
3.970711
20
24.526413
30
0.0
40
0.400000
50
180.000000
51
270.000000
0
LINE
8
0
10
3.570711
20
24.526413
30
0.0
11
3.570711
21
24.590816
31
0.0
0
LINE
8
0
10
3.570711
20
24.590816
30
0.0
11
3.578307
21
24.677640
31
0.0
0
LINE
8
0
10
3.578307
20
24.677640
30
0.0
11
4.363115
21
29.128506
31
0.0
0
LINE
8
0
10
4.370711
20
29.215330
30
0.0
11
4.363115
21
29.128506
31
0.0
0
LINE
8
0
10
4.370711
20
29.215330
30
0.0
11
4.370711
21
45.826413
31
0.0
0
ARC
8
0
10
5.970711
20
45.826413
30
0.0
40
1.600000
50
90.000000
51
180.000000
0
LINE
8
0
10
5.970711
20
47.426413
30
0.0
11
13.070711
21
47.426413
31
0.0
0
ARC
8
0
10
13.070711
20
47.926413
30
0.0
40
0.500000
50
270.000000
51
360.000000
0
LINE
8
0
10
13.570711
20
47.926413
30
0.0
11
13.570711
21
56.826413
31
0.0
0
ARC
8
0
10
14.070711
20
56.826413
30
0.0
40
0.500000
50
90.000000
51
180.000000
0
LINE
8
0
10
14.070711
20
57.326413
30
0.0
11
21.770711
21
57.326413
31
0.0
0
ARC
8
0
10
21.770711
20
57.026413
30
0.0
40
0.300000
50
360.000000
51
90.000000
0
LINE
8
0
10
22.070711
20
57.026413
30
0.0
11
22.070711
21
56.826413
31
0.0
0
ARC
8
0
10
22.370711
20
56.826413
30
0.0
40
0.300000
50
180.000000
51
270.000000
0
LINE
8
0
10
22.370711
20
56.526413
30
0.0
11
26.770711
21
56.526413
31
0.0
0
ARC
8
0
10
26.770711
20
56.826413
30
0.0
40
0.300000
50
270.000000
51
360.000000
0
LINE
8
0
10
27.070711
20
56.826413
30
0.0
11
27.070711
21
57.026413
31
0.0
0
ARC
8
0
10
27.370711
20
57.026413
30
0.0
40
0.300000
50
90.000000
51
180.000000
0
LINE
8
0
10
27.370711
20
57.326413
30
0.0
11
34.770711
21
57.326413
31
0.0
0
ARC
8
0
10
34.770711
20
57.026413
30
0.0
40
0.300000
50
360.000000
51
90.000000
0
LINE
8
0
10
35.070711
20
57.026413
30
0.0
11
35.070711
21
56.826413
31
0.0
0
ARC
8
0
10
35.370711
20
56.826413
30
0.0
40
0.300000
50
180.000000
51
270.000000
0
LINE
8
0
10
35.370711
20
56.526413
30
0.0
11
39.770711
21
56.526413
31
0.0
0
ARC
8
0
10
39.770711
20
56.826413
30
0.0
40
0.300000
50
270.000000
51
360.000000
0
LINE
8
0
10
40.070711
20
56.826413
30
0.0
11
40.070711
21
57.026413
31
0.0
0
ARC
8
0
10
40.370711
20
57.026413
30
0.0
40
0.300000
50
90.000000
51
180.000000
0
LINE
8
0
10
40.370711
20
57.326413
30
0.0
11
48.070711
21
57.326413
31
0.0
0
ARC
8
0
10
48.070711
20
56.826413
30
0.0
40
0.500000
50
360.000000
51
90.000000
0
LINE
8
0
10
48.570711
20
56.826413
30
0.0
11
48.570711
21
47.926413
31
0.0
0
ARC
8
0
10
49.070711
20
47.926413
30
0.0
40
0.500000
50
180.000000
51
270.000000
0
LINE
8
0
10
49.070711
20
47.426413
30
0.0
11
56.170711
21
47.426413
31
0.0
0
ARC
8
0
10
56.170711
20
45.826413
30
0.0
40
1.600000
50
360.000000
51
90.000000
0
LINE
8
0
10
57.770711
20
45.826413
30
0.0
11
57.770711
21
29.215330
31
0.0
0
LINE
8
0
10
57.778307
20
29.128506
30
0.0
11
57.770711
21
29.215330
31
0.0
0
LINE
8
0
10
57.778307
20
29.128506
30
0.0
11
58.563115
21
24.677640
31
0.0
0
LINE
8
0
10
58.563115
20
24.677640
30
0.0
11
58.570711
21
24.590816
31
0.0
0
LINE
8
0
10
58.570711
20
24.590816
30
0.0
11
58.570711
21
24.526413
31
0.0
0
ARC
8
0
10
58.170711
20
24.526413
30
0.0
40
0.400000
50
270.000000
51
360.000000
0
ARC
8
0
10
58.170711
20
23.726413
30
0.0
40
0.400000
50
90.000000
51
180.000000
0
LINE
8
0
10
57.770711
20
23.726413
30
0.0
11
57.770711
21
23.126413
31
0.0
0
ARC
8
0
10
57.470711
20
23.126413
30
0.0
40
0.300000
50
270.000000
51
360.000000
0
LINE
8
0
10
57.470711
20
22.826413
30
0.0
11
56.770711
21
22.826413
31
0.0
0
ARC
8
0
10
56.770711
20
23.126413
30
0.0
40
0.300000
50
180.000000
51
270.000000
0
LINE
8
0
10
56.470711
20
23.126413
30
0.0
11
56.470711
21
23.526413
31
0.0
0
ARC
8
0
10
56.170711
20
23.526413
30
0.0
40
0.300000
50
360.000000
51
90.000000
0
LINE
8
0
10
56.170711
20
23.826413
30
0.0
11
43.770711
21
23.826413
31
0.0
0
ARC
8
0
10
43.770711
20
23.526413
30
0.0
40
0.300000
50
90.000000
51
180.000000
0
LINE
8
0
10
43.470711
20
23.526413
30
0.0
11
43.470711
21
22.826413
31
0.0
0
ARC
8
0
10
42.970711
20
22.826413
30
0.0
40
0.500000
50
270.000000
51
360.000000
0
LINE
8
0
10
42.970711
20
22.326413
30
0.0
11
42.770711
21
22.326413
31
0.0
0
ARC
8
0
10
42.770711
20
22.826413
30
0.0
40
0.500000
50
180.000000
51
270.000000
0
LINE
8
0
10
42.270711
20
22.826413
30
0.0
11
42.270711
21
25.426413
31
0.0
0
ARC
8
0
10
42.470711
20
25.426413
30
0.0
40
0.200000
50
90.000000
51
180.000000
0
LINE
8
0
10
42.470711
20
25.626413
30
0.0
11
42.570711
21
25.626413
31
0.0
0
ARC
8
0
10
42.570711
20
25.826413
30
0.0
40
0.200000
50
270.000000
51
360.000000
0
LINE
8
0
10
42.770711
20
25.826413
30
0.0
11
42.770711
21
26.926413
31
0.0
0
ARC
8
0
10
43.470711
20
26.926413
30
0.0
40
0.700000
50
90.000000
51
180.000000
0
LINE
8
0
10
43.470711
20
27.626413
30
0.0
11
43.570711
21
27.626413
31
0.0
0
ARC
8
0
10
43.570711
20
27.326413
30
0.0
40
0.300000
50
360.000000
51
90.000000
0
LINE
8
0
10
43.870711
20
27.326413
30
0.0
11
43.870711
21
25.926413
31
0.0
0
ARC
8
0
10
44.170711
20
25.926413
30
0.0
40
0.300000
50
180.000000
51
270.000000
0
LINE
8
0
10
44.170711
20
25.626413
30
0.0
11
49.860988
21
25.626413
31
0.0
0
ARC
8
0
10
49.860988
20
26.426413
30
0.0
40
0.800000
50
270.000000
51
360.000000
0
LINE
8
0
10
50.660988
20
26.426413
30
0.0
11
50.660988
21
35.626413
31
0.0
0
ARC
8
0
10
49.860988
20
35.626413
30
0.0
40
0.800000
50
360.000000
51
90.000000
0
LINE
8
0
10
49.860988
20
36.426413
30
0.0
11
44.170711
21
36.426413
31
0.0
0
ARC
8
0
10
44.170711
20
36.126413
30
0.0
40
0.300000
50
90.000000
51
180.000000
0
LINE
8
0
10
43.870711
20
36.126413
30
0.0
11
43.870711
21
34.726413
31
0.0
0
ARC
8
0
10
43.570711
20
34.726413
30
0.0
40
0.300000
50
270.000000
51
360.000000
0
LINE
8
0
10
43.570711
20
34.426413
30
0.0
11
43.470711
21
34.426413
31
0.0
0
ARC
8
0
10
43.470711
20
35.126413
30
0.0
40
0.700000
50
180.000000
51
270.000000
0
LINE
8
0
10
42.770711
20
35.126413
30
0.0
11
42.770711
21
36.226413
31
0.0
0
ARC
8
0
10
42.570711
20
36.226413
30
0.0
40
0.200000
50
360.000000
51
90.000000
0
LINE
8
0
10
42.570711
20
36.426413
30
0.0
11
42.470711
21
36.426413
31
0.0
0
ARC
8
0
10
42.470711
20
36.626413
30
0.0
40
0.200000
50
180.000000
51
270.000000
0
LINE
8
0
10
42.270711
20
36.626413
30
0.0
11
42.270711
21
45.426413
31
0.0
0
ARC
8
0
10
41.770711
20
45.426413
30
0.0
40
0.500000
50
360.000000
51
90.000000
0
LINE
8
0
10
41.770711
20
45.926413
30
0.0
11
40.470711
21
45.926413
31
0.0
0
ARC
8
0
10
40.470711
20
46.426413
30
0.0
40
0.500000
50
180.000000
51
270.000000
0
LINE
8
0
10
39.970711
20
46.426413
30
0.0
11
39.970711
21
47.426413
31
0.0
0
ARC
8
0
10
40.470711
20
47.426413
30
0.0
40
0.500000
50
90.000000
51
180.000000
0
LINE
8
0
10
40.470711
20
47.926413
30
0.0
11
41.770711
21
47.926413
31
0.0
0
ARC
8
0
10
41.770711
20
48.426413
30
0.0
40
0.500000
50
270.000000
51
360.000000
0
LINE
8
0
10
42.270711
20
48.426413
30
0.0
11
42.270711
21
52.326413
31
0.0
0
ARC
8
0
10
40.270711
20
52.326413
30
0.0
40
2.000000
50
360.000000
51
90.000000
0
LINE
8
0
10
40.270711
20
54.326413
30
0.0
11
31.670711
21
54.326413
31
0.0
0
LINE
8
0
10
31.670711
20
54.326413
30
0.0
11
31.070711
21
54.926413
31
0.0
0
LINE
8
0
10
31.070711
20
54.926413
30
0.0
11
30.470711
21
54.326413
31
0.0
0
LINE
8
0
10
30.470711
20
54.326413
30
0.0
11
21.870711
21
54.326413
31
0.0
0
ARC
8
0
10
21.870711
20
52.326413
30
0.0
40
2.000000
50
90.000000
51
180.000000
0
LINE
8
0
10
19.870711
20
52.326413
30
0.0
11
19.870711
21
48.426413
31
0.0
0
ARC
8
0
10
20.370711
20
48.426413
30
0.0
40
0.500000
50
180.000000
51
270.000000
0
LINE
8
0
10
20.370711
20
47.926413
30
0.0
11
21.670711
21
47.926413
31
0.0
0
ARC
8
0
10
21.670711
20
47.426413
30
0.0
40
0.500000
50
360.000000
51
90.000000
0
LINE
8
0
10
22.170711
20
47.426413
30
0.0
11
22.170711
21
46.426413
31
0.0
0
ARC
8
0
10
21.670711
20
46.426413
30
0.0
40
0.500000
50
270.000000
51
360.000000
0
LINE
8
0
10
21.670711
20
45.926413
30
0.0
11
20.370711
21
45.926413
31
0.0
0
ARC
8
0
10
20.370711
20
45.426413
30
0.0
40
0.500000
50
90.000000
51
180.000000
0
LINE
8
0
10
19.870711
20
45.426413
30
0.0
11
19.870711
21
36.626413
31
0.0
0
ARC
8
0
10
19.670711
20
36.626413
30
0.0
40
0.200000
50
270.000000
51
360.000000
0
LINE
8
0
10
19.670711
20
36.426413
30
0.0
11
19.570711
21
36.426413
31
0.0
0
ARC
8
0
10
19.570711
20
36.226413
30
0.0
40
0.200000
50
90.000000
51
180.000000
0
LINE
8
0
10
19.370711
20
36.226413
30
0.0
11
19.370711
21
35.126413
31
0.0
0
ARC
8
0
10
18.670711
20
35.126413
30
0.0
40
0.700000
50
270.000000
51
360.000000
0
LINE
8
0
10
18.670711
20
34.426413
30
0.0
11
18.570711
21
34.426413
31
0.0
0
ARC
8
0
10
18.570711
20
34.726413
30
0.0
40
0.300000
50
180.000000
51
270.000000
0
LINE
8
0
10
18.270711
20
34.726413
30
0.0
11
18.270711
21
36.126413
31
0.0
0
ARC
8
0
10
17.970711
20
36.126413
30
0.0
40
0.300000
50
360.000000
51
90.000000
0
LINE
8
0
10
17.970711
20
36.426413
30
0.0
11
12.280434
21
36.426413
31
0.0
0
ARC
8
0
10
12.280434
20
35.626413
30
0.0
40
0.800000
50
90.000000
51
180.000000
0
LINE
8
0
10
11.480434
20
35.626413
30
0.0
11
11.480434
21
26.426413
31
0.0
0
ARC
8
0
10
12.280434
20
26.426413
30
0.0
40
0.800000
50
180.000000
51
270.000000
0
LINE
8
0
10
12.280434
20
25.626413
30
0.0
11
17.970711
21
25.626413
31
0.0
0
ARC
8
0
10
17.970711
20
25.926413
30
0.0
40
0.300000
50
270.000000
51
360.000000
0
LINE
8
0
10
18.270711
20
25.926413
30
0.0
11
18.270711
21
27.326413
31
0.0
0
ARC
8
0
10
18.570711
20
27.326413
30
0.0
40
0.300000
50
90.000000
51
180.000000
0
LINE
8
0
10
18.570711
20
27.626413
30
0.0
11
18.670711
21
27.626413
31
0.0
0
ARC
8
0
10
18.670711
20
26.926413
30
0.0
40
0.700000
50
360.000000
51
90.000000
0
ATTDEF
8
0
10
0.000000
20
0.000000
30
0.0
40
3.5
1

3

2
HW_START
70
0
0
ATTDEF
8
0
10
139.700000
20
94.302869
30
0.0
40
3.5
1

3

2
HW_END
70
0
0
ATTDEF
8
0
10
0.000000
20
0.000000
30
0.0
40
3.5
1

3

2
MIN_VETRO:0
70
0
0
ATTDEF
8
0
10
0.000000
20
0.000000
30
0.0
40
3.5
1

3

2
MAX_VETRO:0
70
0
0
ATTDEF
8
0
10
0.000000
20
0.000000
30
0.0
40
3.5
1

3

2
MIN_VETRO:0
70
0
0
ATTDEF
8
0
10
0.000000
20
0.000000
30
0.0
40
3.5
1

3

2
MAX_VETRO:0
70
0
0
ATTDEF
8
0
10
0.000000
20
0.000000
30
0.0
40
3.5
1

3

2
DESC:U10140 - N10904 - V31210
70
0
0
ATTDEF
8
0
10
0.000000
20
0.000000
30
0.0
40
3.5
1

3

2
DENS:0.000000
70
0
0
ATTDEF
8
0
10
0.000000
20
0.000000
30
0.0
40
3.5
1

3

2
TDEV:0.000000
70
0
0
ATTDEF
8
0
10
0.000000
20
0.000000
30
0.0
40
3.5
1

3

2
TDEV2:0.000000
70
0
0
ATTDEF
8
0
10
0.000000
20
0.000000
30
0.0
40
3.5
1

3

2
TDEV3:0.000000
70
0
0
ATTDEF
8
0
10
0.000000
20
0.000000
30
0.0
40
3.5
1

3

2
TDEV4:0.000000
70
0
0
ATTDEF
8
0
10
0.000000
20
0.000000
30
0.0
40
3.5
1

3

2
TDEV5:0.000000
70
0
0
ATTDEF
8
0
10
0.000000
20
0.000000
30
0.0
40
3.5
1

3

2
REAR_VIEW
70
0
0
ATTDEF
8
0
10
0.000000
20
0.000000
30
0.0
40
3.5
1

3

2
BL01:6500.000000,,1
70
0
0
ATTDEF
8
0
10
0.000000
20
0.000000
30
0.0
40
3.5
1

3

2
OPTI:500.000000,1,0,3000.000000,6500.000000,500.000000,0,0.000000,0
70
0
0
ATTDEF
8
0
10
0.000000
20
0.000000
30
0.0
40
3.5
1

3

2
PANE_WIDTH:57.500000
70
0
0
ATTDEF
8
0
10
0.000000
20
0.000000
30
0.0
40
3.5
1

3

2
GLASS_MIN:0.000000
70
0
0
ATTDEF
8
0
10
0.000000
20
0.000000
30
0.0
40
3.5
1

3

2
GLASS_MAX:0.000000
70
0
0
ATTDEF
8
0
10
0.000000
20
0.000000
30
0.0
40
3.5
1

3

2
JX:0.000000
70
0
0
ATTDEF
8
0
10
0.000000
20
0.000000
30
0.0
40
3.5
1

3

2
WX:0.000000
70
0
0
ATTDEF
8
0
10
0.000000
20
0.000000
30
0.0
40
3.5
1

3

2
JY:0.000000
70
0
0
ATTDEF
8
0
10
0.000000
20
0.000000
30
0.0
40
3.5
1

3

2
WY:0.000000
70
0
0
ATTDEF
8
0
10
0.000000
20
0.000000
30
0.0
40
3.5
1

3

2
FP_LCS_ORIG
70
0
0
ATTDEF
8
0
10
10.000000
20
0.000000
30
0.0
40
3.5
1

3

2
FP_LCS_HOT
70
0
0
ATTDEF
8
0
10
0.000000
20
10.000000
30
0.0
40
3.5
1

3

2
FP_LCS_INTERN
70
0
0
ENDSEC
0
EOF
