0
SECTION
2
ENTITIES
0
LINE
8
0
10
54.100000
20
51.000563
30
0.0
11
56.300000
21
51.000563
31
0.0
0
ARC
8
0
10
56.300000
20
51.300563
30
0.0
40
0.300000
50
270.000000
51
0.000000
0
LINE
8
0
10
56.600000
20
51.300563
30
0.0
11
56.600000
21
57.200000
31
0.0
0
ARC
8
0
10
56.900000
20
57.200000
30
0.0
40
0.300000
50
90.000000
51
180.000000
0
LINE
8
0
10
56.900000
20
57.500000
30
0.0
11
60.200000
21
57.500000
31
0.0
0
ARC
8
0
10
60.200000
20
57.200000
30
0.0
40
0.300000
50
0.000000
51
90.000000
0
LINE
8
0
10
60.500000
20
57.200000
30
0.0
11
60.500000
21
37.600563
31
0.0
0
ARC
8
0
10
60.200000
20
37.600563
30
0.0
40
0.300000
50
270.000000
51
0.000000
0
LINE
8
0
10
60.200000
20
37.300563
30
0.0
11
51.800000
21
37.300563
31
0.0
0
ARC
8
0
10
51.800000
20
37.600563
30
0.0
40
0.300000
50
180.000000
51
270.000000
0
LINE
8
0
10
51.500000
20
37.600563
30
0.0
11
51.500000
21
50.700563
31
0.0
0
ARC
8
0
10
51.800000
20
50.700563
30
0.0
40
0.300000
50
90.000000
51
180.000000
0
LINE
8
0
10
51.800000
20
51.000563
30
0.0
11
53.500000
21
51.000563
31
0.0
0
LINE
8
0
10
53.500000
20
51.000563
30
0.0
11
53.800000
21
51.300563
31
0.0
0
LINE
8
0
10
53.800000
20
51.300563
30
0.0
11
54.100000
21
51.000563
31
0.0
0
ARC
8
0
10
59.000000
20
25.900000
30
0.0
40
0.300000
50
270.000000
51
0.000000
0
LINE
8
0
10
59.300000
20
25.900000
30
0.0
11
59.300000
21
26.800000
31
0.0
0
ARC
8
0
10
59.600000
20
26.800000
30
0.0
40
0.300000
50
90.000000
51
180.000000
0
LINE
8
0
10
59.600000
20
27.100000
30
0.0
11
60.200000
21
27.100000
31
0.0
0
ARC
8
0
10
60.200000
20
26.800000
30
0.0
40
0.300000
50
0.000000
51
90.000000
0
LINE
8
0
10
60.500000
20
26.800000
30
0.0
11
60.500000
21
10.300000
31
0.0
0
ARC
8
0
10
60.200000
20
10.300000
30
0.0
40
0.300000
50
270.000000
51
0.000000
0
LINE
8
0
10
60.200000
20
10.000000
30
0.0
11
59.600000
21
10.000000
31
0.0
0
ARC
8
0
10
59.600000
20
10.300000
30
0.0
40
0.300000
50
180.000000
51
270.000000
0
LINE
8
0
10
59.300000
20
10.300000
30
0.0
11
59.300000
21
11.200000
31
0.0
0
ARC
8
0
10
59.000000
20
11.200000
30
0.0
40
0.300000
50
0.000000
51
90.000000
0
LINE
8
0
10
59.000000
20
11.500000
30
0.0
11
58.300000
21
11.500000
31
0.0
0
ARC
8
0
10
58.300000
20
11.200000
30
0.0
40
0.300000
50
90.000000
51
180.000000
0
LINE
8
0
10
58.000000
20
11.200000
30
0.0
11
58.000000
21
7.600000
31
0.0
0
ARC
8
0
10
58.300000
20
7.600000
30
0.0
40
0.300000
50
180.000000
51
270.000000
0
LINE
8
0
10
58.300000
20
7.300000
30
0.0
11
58.700000
21
7.300000
31
0.0
0
ARC
8
0
10
58.700000
20
7.600000
30
0.0
40
0.300000
50
270.000000
51
0.000000
0
LINE
8
0
10
59.000000
20
7.600000
30
0.0
11
59.000000
21
8.500000
31
0.0
0
ARC
8
0
10
59.300000
20
8.500000
30
0.0
40
0.300000
50
90.000000
51
180.000000
0
LINE
8
0
10
59.300000
20
8.800000
30
0.0
11
59.997977
21
8.800000
31
0.0
0
ARC
8
0
10
59.997977
20
8.500000
30
0.0
40
0.300000
50
0.000000
51
90.000000
0
LINE
8
0
10
60.297977
20
8.500000
30
0.0
11
60.297977
21
7.750000
31
0.0
0
ARC
8
0
10
60.597977
20
7.750000
30
0.0
40
0.300000
50
180.000000
51
240.000000
0
ARC
8
0
10
60.297977
20
7.230385
30
0.0
40
0.300000
50
0.000000
51
60.000000
0
LINE
8
0
10
60.597977
20
7.230385
30
0.0
11
60.597977
21
2.769616
31
0.0
0
ARC
8
0
10
60.297977
20
2.769616
30
0.0
40
0.300000
50
300.000000
51
0.000000
0
ARC
8
0
10
60.597977
20
2.250000
30
0.0
40
0.300000
50
120.000000
51
180.000000
0
LINE
8
0
10
60.297977
20
2.250000
30
0.0
11
60.297977
21
1.500000
31
0.0
0
ARC
8
0
10
59.997977
20
1.500000
30
0.0
40
0.300000
50
270.000000
51
0.000000
0
LINE
8
0
10
59.997977
20
1.200000
30
0.0
11
59.300000
21
1.200000
31
0.0
0
ARC
8
0
10
59.300000
20
1.500000
30
0.0
40
0.300000
50
180.000000
51
270.000000
0
LINE
8
0
10
59.000000
20
1.500000
30
0.0
11
59.000000
21
2.400000
31
0.0
0
ARC
8
0
10
58.700000
20
2.400000
30
0.0
40
0.300000
50
0.000000
51
90.000000
0
LINE
8
0
10
58.700000
20
2.700000
30
0.0
11
58.300000
21
2.700000
31
0.0
0
ARC
8
0
10
58.300000
20
2.400000
30
0.0
40
0.300000
50
90.000000
51
180.000000
0
LINE
8
0
10
58.000000
20
2.400000
30
0.0
11
58.000000
21
0.300000
31
0.0
0
ARC
8
0
10
58.300000
20
0.300000
30
0.0
40
0.300000
50
180.000000
51
270.000000
0
LINE
8
0
10
58.300000
20
0.000000
30
0.0
11
61.500000
21
0.000000
31
0.0
0
ARC
8
0
10
61.500000
20
0.500000
30
0.0
40
0.500000
50
270.000000
51
0.000000
0
LINE
8
0
10
62.000000
20
0.500000
30
0.0
11
62.000000
21
63.700000
31
0.0
0
ARC
8
0
10
61.700000
20
63.700000
30
0.0
40
0.300000
50
0.000000
51
90.000000
0
LINE
8
0
10
61.700000
20
64.000000
30
0.0
11
58.450555
21
64.000000
31
0.0
0
ARC
8
0
10
58.450555
20
63.700000
30
0.0
40
0.300000
50
90.000000
51
150.000000
0
LINE
8
0
10
58.190748
20
63.850000
30
0.0
11
57.740192
21
63.069616
31
0.0
0
ARC
8
0
10
58.000000
20
62.919616
30
0.0
40
0.300000
50
150.000000
51
180.000000
0
LINE
8
0
10
57.700000
20
62.919616
30
0.0
11
57.700000
21
62.800000
31
0.0
0
ARC
8
0
10
58.000000
20
62.800000
30
0.0
40
0.300000
50
180.000000
51
270.000000
0
LINE
8
0
10
58.000000
20
62.500000
30
0.0
11
59.900000
21
62.500000
31
0.0
0
ARC
8
0
10
59.900000
20
62.200000
30
0.0
40
0.300000
50
0.000000
51
90.000000
0
LINE
8
0
10
60.200000
20
62.200000
30
0.0
11
60.200000
21
59.300000
31
0.0
0
ARC
8
0
10
59.900000
20
59.300000
30
0.0
40
0.300000
50
270.000000
51
0.000000
0
LINE
8
0
10
59.900000
20
59.000000
30
0.0
11
54.730521
21
59.000000
31
0.0
0
ARC
8
0
10
54.730521
20
58.700000
30
0.0
40
0.300000
50
90.000000
51
109.778171
0
LINE
8
0
10
54.629007
20
58.982303
30
0.0
11
53.328683
21
58.514717
31
0.0
0
ARC
8
0
10
53.249164
20
58.735855
30
0.0
40
0.235000
50
204.000000
51
289.778171
0
ARC
8
0
10
52.813229
20
58.559441
30
0.0
40
0.235000
50
24.000000
51
90.000000
0
LINE
8
0
10
52.814786
20
58.794436
30
0.0
11
51.235857
21
58.804893
31
0.0
0
ARC
8
0
10
51.233870
20
58.504900
30
0.0
40
0.300000
50
90.000000
51
204.620541
0
LINE
8
0
10
50.961144
20
58.379918
30
0.0
11
51.909794
21
56.274402
31
0.0
0
ARC
8
0
10
52.183314
20
56.397638
30
0.0
40
0.300000
50
204.254172
51
244.620541
0
LINE
8
0
10
52.054731
20
56.126591
30
0.0
11
52.562153
21
55.885872
31
0.0
0
ARC
8
0
10
52.647876
20
56.066570
30
0.0
40
0.200000
50
244.620541
51
4.620541
0
LINE
8
0
10
52.847226
20
56.082681
30
0.0
11
52.837924
21
56.197776
31
0.0
0
ARC
8
0
10
53.136949
20
56.221943
30
0.0
40
0.300000
50
124.620541
51
184.620541
0
LINE
8
0
10
52.966507
20
56.468823
30
0.0
11
54.595264
21
57.593289
31
0.0
0
LINE
8
0
10
54.595264
20
57.593289
30
0.0
11
54.777973
21
57.674636
31
0.0
0
ARC
8
0
10
54.899975
20
57.400554
30
0.0
40
0.300009
50
311.812671
51
113.995287
0
ARC
8
0
10
55.300000
20
56.953349
30
0.0
40
0.300000
50
131.812671
51
180.000000
0
LINE
8
0
10
55.000000
20
56.953349
30
0.0
11
55.000000
21
53.100563
31
0.0
0
ARC
8
0
10
54.700000
20
53.100563
30
0.0
40
0.300000
50
270.000000
51
0.000000
0
LINE
8
0
10
54.700000
20
52.800563
30
0.0
11
54.478807
21
52.800563
31
0.0
0
ARC
8
0
10
54.478807
20
53.100563
30
0.0
40
0.300000
50
238.600000
51
270.000000
0
LINE
8
0
10
54.322504
20
52.844498
30
0.0
11
52.804202
21
53.771273
31
0.0
0
ARC
8
0
10
52.700000
20
53.600563
30
0.0
40
0.200000
50
58.600000
51
180.000000
0
LINE
8
0
10
52.500000
20
53.600563
30
0.0
11
52.500000
21
53.250563
31
0.0
0
ARC
8
0
10
52.200000
20
53.250563
30
0.0
40
0.300000
50
270.000000
51
0.000000
0
LINE
8
0
10
52.200000
20
52.950563
30
0.0
11
48.786766
21
52.950563
31
0.0
0
ARC
8
0
10
48.786766
20
51.950563
30
0.0
40
1.000000
50
90.000000
51
121.400000
0
LINE
8
0
10
48.265756
20
52.804114
30
0.0
11
47.978990
21
52.629071
31
0.0
0
ARC
8
0
10
48.500000
20
51.775520
30
0.0
40
1.000000
50
121.400000
51
180.000000
0
LINE
8
0
10
47.500000
20
51.775520
30
0.0
11
47.500000
21
50.349937
31
0.0
0
ARC
8
0
10
47.700000
20
50.349937
30
0.0
40
0.200000
50
180.000000
51
301.400000
0
LINE
8
0
10
47.804202
20
50.179227
30
0.0
11
49.322504
21
51.106002
31
0.0
0
ARC
8
0
10
49.478807
20
50.849937
30
0.0
40
0.300000
50
90.000000
51
121.400000
0
LINE
8
0
10
49.478807
20
51.149937
30
0.0
11
49.700000
21
51.149937
31
0.0
0
ARC
8
0
10
49.700000
20
50.849937
30
0.0
40
0.300000
50
0.000000
51
90.000000
0
LINE
8
0
10
50.000000
20
50.849937
30
0.0
11
50.000000
21
46.997151
31
0.0
0
ARC
8
0
10
50.300000
20
46.997151
30
0.0
40
0.300000
50
180.000000
51
228.187329
0
ARC
8
0
10
49.899975
20
46.549946
30
0.0
40
0.300009
50
246.004713
51
48.187329
0
LINE
8
0
10
49.777973
20
46.275864
30
0.0
11
49.595264
21
46.357211
31
0.0
0
LINE
8
0
10
49.595264
20
46.357211
30
0.0
11
47.966507
21
47.481677
31
0.0
0
ARC
8
0
10
48.136949
20
47.728557
30
0.0
40
0.300000
50
175.379459
51
235.379459
0
LINE
8
0
10
47.837924
20
47.752724
30
0.0
11
47.847226
21
47.867819
31
0.0
0
ARC
8
0
10
47.647876
20
47.883930
30
0.0
40
0.200000
50
355.379459
51
115.379459
0
LINE
8
0
10
47.562153
20
48.064628
30
0.0
11
47.054731
21
47.823909
31
0.0
0
ARC
8
0
10
47.183314
20
47.552862
30
0.0
40
0.300000
50
115.379459
51
155.745828
0
LINE
8
0
10
46.909794
20
47.676098
30
0.0
11
45.961144
21
45.570582
31
0.0
0
ARC
8
0
10
46.233870
20
45.445600
30
0.0
40
0.300000
50
155.379459
51
270.000000
0
LINE
8
0
10
46.235857
20
45.145607
30
0.0
11
47.814786
21
45.156064
31
0.0
0
ARC
8
0
10
47.813229
20
45.391059
30
0.0
40
0.235000
50
270.000000
51
336.000000
0
ARC
8
0
10
48.249164
20
45.214645
30
0.0
40
0.235000
50
70.221829
51
156.000000
0
LINE
8
0
10
48.328683
20
45.435783
30
0.0
11
49.801514
21
44.906165
31
0.0
0
ARC
8
0
10
49.700000
20
44.623862
30
0.0
40
0.300000
50
0.000000
51
70.221829
0
LINE
8
0
10
50.000000
20
44.623862
30
0.0
11
50.000000
21
37.800563
31
0.0
0
ARC
8
0
10
49.500000
20
37.800563
30
0.0
40
0.500000
50
270.000000
51
0.000000
0
ARC
8
0
10
49.500000
20
36.800563
30
0.0
40
0.500000
50
90.000000
51
180.000000
0
LINE
8
0
10
49.000000
20
36.800563
30
0.0
11
49.000000
21
36.300563
31
0.0
0
ARC
8
0
10
49.500000
20
36.300563
30
0.0
40
0.500000
50
180.000000
51
270.000000
0
LINE
8
0
10
49.500000
20
35.800563
30
0.0
11
53.500000
21
35.800563
31
0.0
0
LINE
8
0
10
53.500000
20
35.800563
30
0.0
11
53.800000
21
36.100563
31
0.0
0
LINE
8
0
10
53.800000
20
36.100563
30
0.0
11
54.100000
21
35.800563
31
0.0
0
LINE
8
0
10
54.100000
20
35.800563
30
0.0
11
59.246439
21
35.800563
31
0.0
0
ARC
8
0
10
59.246439
20
34.800563
30
0.0
40
1.000000
50
2.628630
51
90.000000
0
LINE
8
0
10
60.245387
20
34.846425
30
0.0
11
60.500000
21
29.300563
31
0.0
0
LINE
8
0
10
60.500000
20
29.300563
30
0.0
11
60.500000
21
28.600000
31
0.0
0
ARC
8
0
10
60.200000
20
28.600000
30
0.0
40
0.300000
50
270.000000
51
0.000000
0
LINE
8
0
10
60.200000
20
28.300000
30
0.0
11
58.300000
21
28.300000
31
0.0
0
ARC
8
0
10
58.300000
20
28.000000
30
0.0
40
0.300000
50
90.000000
51
180.000000
0
LINE
8
0
10
58.000000
20
28.000000
30
0.0
11
58.000000
21
25.900000
31
0.0
0
ARC
8
0
10
58.300000
20
25.900000
30
0.0
40
0.300000
50
180.000000
51
270.000000
0
LINE
8
0
10
58.300000
20
25.600000
30
0.0
11
59.000000
21
25.600000
31
0.0
0
ARC
8
0
10
1.800000
20
57.200000
30
0.0
40
0.300000
50
90.000000
51
180.000000
0
LINE
8
0
10
1.500000
20
57.200000
30
0.0
11
1.500000
21
37.600563
31
0.0
0
ARC
8
0
10
1.800000
20
37.600563
30
0.0
40
0.300000
50
180.000000
51
270.000000
0
LINE
8
0
10
1.800000
20
37.300563
30
0.0
11
10.200000
21
37.300563
31
0.0
0
ARC
8
0
10
10.200000
20
37.600563
30
0.0
40
0.300000
50
270.000000
51
0.000000
0
LINE
8
0
10
10.500000
20
37.600563
30
0.0
11
10.500000
21
50.700563
31
0.0
0
ARC
8
0
10
10.200000
20
50.700563
30
0.0
40
0.300000
50
0.000000
51
90.000000
0
LINE
8
0
10
10.200000
20
51.000563
30
0.0
11
8.500000
21
51.000563
31
0.0
0
LINE
8
0
10
8.500000
20
51.000563
30
0.0
11
8.200000
21
51.300563
31
0.0
0
LINE
8
0
10
8.200000
20
51.300563
30
0.0
11
7.900000
21
51.000563
31
0.0
0
LINE
8
0
10
7.900000
20
51.000563
30
0.0
11
5.700000
21
51.000563
31
0.0
0
ARC
8
0
10
5.700000
20
51.300563
30
0.0
40
0.300000
50
180.000000
51
270.000000
0
LINE
8
0
10
5.400000
20
51.300563
30
0.0
11
5.400000
21
57.200000
31
0.0
0
ARC
8
0
10
5.100000
20
57.200000
30
0.0
40
0.300000
50
0.000000
51
90.000000
0
LINE
8
0
10
5.100000
20
57.500000
30
0.0
11
1.800000
21
57.500000
31
0.0
0
ARC
8
0
10
1.800000
20
26.800000
30
0.0
40
0.300000
50
90.000000
51
180.000000
0
LINE
8
0
10
1.500000
20
26.800000
30
0.0
11
1.500000
21
10.300000
31
0.0
0
ARC
8
0
10
1.800000
20
10.300000
30
0.0
40
0.300000
50
180.000000
51
270.000000
0
LINE
8
0
10
1.800000
20
10.000000
30
0.0
11
2.400000
21
10.000000
31
0.0
0
ARC
8
0
10
2.400000
20
10.300000
30
0.0
40
0.300000
50
270.000000
51
0.000000
0
LINE
8
0
10
2.700000
20
10.300000
30
0.0
11
2.700000
21
11.200000
31
0.0
0
ARC
8
0
10
3.000000
20
11.200000
30
0.0
40
0.300000
50
90.000000
51
180.000000
0
LINE
8
0
10
3.000000
20
11.500000
30
0.0
11
3.700000
21
11.500000
31
0.0
0
ARC
8
0
10
3.700000
20
11.200000
30
0.0
40
0.300000
50
0.000000
51
90.000000
0
LINE
8
0
10
4.000000
20
11.200000
30
0.0
11
4.000000
21
7.600000
31
0.0
0
ARC
8
0
10
3.700000
20
7.600000
30
0.0
40
0.300000
50
270.000000
51
0.000000
0
LINE
8
0
10
3.700000
20
7.300000
30
0.0
11
3.300000
21
7.300000
31
0.0
0
ARC
8
0
10
3.300000
20
7.600000
30
0.0
40
0.300000
50
180.000000
51
270.000000
0
LINE
8
0
10
3.000000
20
7.600000
30
0.0
11
3.000000
21
8.500000
31
0.0
0
ARC
8
0
10
2.700000
20
8.500000
30
0.0
40
0.300000
50
0.000000
51
90.000000
0
LINE
8
0
10
2.700000
20
8.800000
30
0.0
11
2.002022
21
8.800000
31
0.0
0
ARC
8
0
10
2.002022
20
8.500000
30
0.0
40
0.300000
50
90.000000
51
180.000000
0
LINE
8
0
10
1.702022
20
8.500000
30
0.0
11
1.702022
21
7.750000
31
0.0
0
ARC
8
0
10
1.402022
20
7.750000
30
0.0
40
0.300000
50
300.000000
51
0.000000
0
ARC
8
0
10
1.702022
20
7.230385
30
0.0
40
0.300000
50
120.000000
51
180.000000
0
LINE
8
0
10
1.402022
20
7.230385
30
0.0
11
1.402022
21
2.769616
31
0.0
0
ARC
8
0
10
1.702022
20
2.769616
30
0.0
40
0.300000
50
180.000000
51
240.000000
0
ARC
8
0
10
1.402022
20
2.250000
30
0.0
40
0.300000
50
0.000000
51
60.000000
0
LINE
8
0
10
1.702022
20
2.250000
30
0.0
11
1.702022
21
1.500000
31
0.0
0
ARC
8
0
10
2.002022
20
1.500000
30
0.0
40
0.300000
50
180.000000
51
270.000000
0
LINE
8
0
10
2.002022
20
1.200000
30
0.0
11
2.700000
21
1.200000
31
0.0
0
ARC
8
0
10
2.700000
20
1.500000
30
0.0
40
0.300000
50
270.000000
51
0.000000
0
LINE
8
0
10
3.000000
20
1.500000
30
0.0
11
3.000000
21
2.400000
31
0.0
0
ARC
8
0
10
3.300000
20
2.400000
30
0.0
40
0.300000
50
90.000000
51
180.000000
0
LINE
8
0
10
3.300000
20
2.700000
30
0.0
11
3.700000
21
2.700000
31
0.0
0
ARC
8
0
10
3.700000
20
2.400000
30
0.0
40
0.300000
50
0.000000
51
90.000000
0
LINE
8
0
10
4.000000
20
2.400000
30
0.0
11
4.000000
21
0.300000
31
0.0
0
ARC
8
0
10
3.700000
20
0.300000
30
0.0
40
0.300000
50
270.000000
51
0.000000
0
LINE
8
0
10
3.700000
20
0.000000
30
0.0
11
0.500000
21
0.000000
31
0.0
0
ARC
8
0
10
0.500000
20
0.500000
30
0.0
40
0.500000
50
180.000000
51
270.000000
0
LINE
8
0
10
0.000000
20
0.500000
30
0.0
11
0.000000
21
81.700000
31
0.0
0
ARC
8
0
10
0.300000
20
81.700000
30
0.0
40
0.300000
50
90.000000
51
180.000000
0
LINE
8
0
10
0.300000
20
82.000000
30
0.0
11
4.200000
21
82.000000
31
0.0
0
ARC
8
0
10
4.200000
20
81.700000
30
0.0
40
0.300000
50
0.000000
51
90.000000
0
LINE
8
0
10
4.500000
20
81.700000
30
0.0
11
4.500000
21
80.200000
31
0.0
0
ARC
8
0
10
3.800000
20
80.200000
30
0.0
40
0.700000
50
270.000000
51
0.000000
0
ARC
8
0
10
3.800000
20
79.800000
30
0.0
40
0.300000
50
180.000000
51
270.000000
0
LINE
8
0
10
3.500000
20
79.800000
30
0.0
11
3.500000
21
80.500000
31
0.0
0
ARC
8
0
10
3.200000
20
80.500000
30
0.0
40
0.300000
50
0.000000
51
90.000000
0
LINE
8
0
10
3.200000
20
80.800000
30
0.0
11
2.000000
21
80.800000
31
0.0
0
ARC
8
0
10
2.000000
20
80.100000
30
0.0
40
0.700000
50
90.000000
51
180.000000
0
LINE
8
0
10
1.300000
20
80.100000
30
0.0
11
1.300000
21
73.900000
31
0.0
0
ARC
8
0
10
2.000000
20
73.900000
30
0.0
40
0.700000
50
180.000000
51
270.000000
0
LINE
8
0
10
2.000000
20
73.200000
30
0.0
11
3.200000
21
73.200000
31
0.0
0
ARC
8
0
10
3.200000
20
73.500000
30
0.0
40
0.300000
50
270.000000
51
0.000000
0
LINE
8
0
10
3.500000
20
73.500000
30
0.0
11
3.500000
21
74.200000
31
0.0
0
ARC
8
0
10
3.800000
20
74.200000
30
0.0
40
0.300000
50
90.000000
51
180.000000
0
ARC
8
0
10
3.800000
20
73.800000
30
0.0
40
0.700000
50
0.000000
51
90.000000
0
LINE
8
0
10
4.500000
20
73.800000
30
0.0
11
4.500000
21
70.800000
31
0.0
0
ARC
8
0
10
4.200000
20
70.800000
30
0.0
40
0.300000
50
270.000000
51
0.000000
0
LINE
8
0
10
4.200000
20
70.500000
30
0.0
11
3.800000
21
70.500000
31
0.0
0
ARC
8
0
10
3.800000
20
70.800000
30
0.0
40
0.300000
50
180.000000
51
270.000000
0
LINE
8
0
10
3.500000
20
70.800000
30
0.0
11
3.500000
21
71.700000
31
0.0
0
ARC
8
0
10
3.200000
20
71.700000
30
0.0
40
0.300000
50
0.000000
51
90.000000
0
LINE
8
0
10
3.200000
20
72.000000
30
0.0
11
1.800000
21
72.000000
31
0.0
0
ARC
8
0
10
1.800000
20
71.700000
30
0.0
40
0.300000
50
90.000000
51
180.000000
0
LINE
8
0
10
1.500000
20
71.700000
30
0.0
11
1.500000
21
65.500000
31
0.0
0
LINE
8
0
10
1.500000
20
65.500000
30
0.0
11
1.754613
21
59.954138
31
0.0
0
ARC
8
0
10
2.753561
20
60.000000
30
0.0
40
1.000000
50
182.628630
51
270.000000
0
LINE
8
0
10
2.753561
20
59.000000
30
0.0
11
7.269479
21
59.000000
31
0.0
0
ARC
8
0
10
7.269479
20
58.700000
30
0.0
40
0.300000
50
70.221829
51
90.000000
0
LINE
8
0
10
7.370993
20
58.982303
30
0.0
11
8.671317
21
58.514717
31
0.0
0
ARC
8
0
10
8.750836
20
58.735855
30
0.0
40
0.235000
50
250.221829
51
336.000000
0
ARC
8
0
10
9.186771
20
58.559441
30
0.0
40
0.235000
50
90.000000
51
156.000000
0
LINE
8
0
10
9.185214
20
58.794436
30
0.0
11
10.764142
21
58.804893
31
0.0
0
ARC
8
0
10
10.766129
20
58.504900
30
0.0
40
0.300000
50
335.379459
51
90.000000
0
LINE
8
0
10
11.038855
20
58.379918
30
0.0
11
10.090205
21
56.274402
31
0.0
0
ARC
8
0
10
9.816686
20
56.397638
30
0.0
40
0.300000
50
295.379459
51
335.745828
0
LINE
8
0
10
9.945269
20
56.126591
30
0.0
11
9.437846
21
55.885872
31
0.0
0
ARC
8
0
10
9.352124
20
56.066570
30
0.0
40
0.200000
50
175.379459
51
295.379459
0
LINE
8
0
10
9.152774
20
56.082681
30
0.0
11
9.162076
21
56.197776
31
0.0
0
ARC
8
0
10
8.863051
20
56.221943
30
0.0
40
0.300000
50
355.379459
51
55.379459
0
LINE
8
0
10
9.033493
20
56.468823
30
0.0
11
7.404736
21
57.593289
31
0.0
0
LINE
8
0
10
7.404736
20
57.593289
30
0.0
11
7.222027
21
57.674636
31
0.0
0
ARC
8
0
10
7.100025
20
57.400554
30
0.0
40
0.300009
50
66.004713
51
228.187329
0
ARC
8
0
10
6.700000
20
56.953349
30
0.0
40
0.300000
50
0.000000
51
48.187329
0
LINE
8
0
10
7.000000
20
56.953349
30
0.0
11
7.000000
21
53.100563
31
0.0
0
ARC
8
0
10
7.300000
20
53.100563
30
0.0
40
0.300000
50
180.000000
51
270.000000
0
LINE
8
0
10
7.300000
20
52.800563
30
0.0
11
7.521193
21
52.800563
31
0.0
0
ARC
8
0
10
7.521193
20
53.100563
30
0.0
40
0.300000
50
270.000000
51
301.400000
0
LINE
8
0
10
7.677496
20
52.844498
30
0.0
11
9.195798
21
53.771273
31
0.0
0
ARC
8
0
10
9.300000
20
53.600563
30
0.0
40
0.200000
50
0.000000
51
121.400000
0
LINE
8
0
10
9.500000
20
53.600563
30
0.0
11
9.500000
21
53.250563
31
0.0
0
ARC
8
0
10
9.800000
20
53.250563
30
0.0
40
0.300000
50
180.000000
51
270.000000
0
LINE
8
0
10
9.800000
20
52.950563
30
0.0
11
13.213234
21
52.950563
31
0.0
0
ARC
8
0
10
13.213234
20
51.950563
30
0.0
40
1.000000
50
58.600000
51
90.000000
0
LINE
8
0
10
13.734243
20
52.804114
30
0.0
11
14.021010
21
52.629071
31
0.0
0
ARC
8
0
10
13.500000
20
51.775520
30
0.0
40
1.000000
50
0.000000
51
58.600000
0
LINE
8
0
10
14.500000
20
51.775520
30
0.0
11
14.500000
21
50.349937
31
0.0
0
ARC
8
0
10
14.300000
20
50.349937
30
0.0
40
0.200000
50
238.600000
51
0.000000
0
LINE
8
0
10
14.195798
20
50.179227
30
0.0
11
12.677496
21
51.106002
31
0.0
0
ARC
8
0
10
12.521193
20
50.849937
30
0.0
40
0.300000
50
58.600000
51
90.000000
0
LINE
8
0
10
12.521193
20
51.149937
30
0.0
11
12.300000
21
51.149937
31
0.0
0
ARC
8
0
10
12.300000
20
50.849937
30
0.0
40
0.300000
50
90.000000
51
180.000000
0
LINE
8
0
10
12.000000
20
50.849937
30
0.0
11
12.000000
21
46.997151
31
0.0
0
ARC
8
0
10
11.700000
20
46.997151
30
0.0
40
0.300000
50
311.812671
51
0.000000
0
ARC
8
0
10
12.100025
20
46.549946
30
0.0
40
0.300009
50
131.812671
51
293.995287
0
LINE
8
0
10
12.222027
20
46.275864
30
0.0
11
12.404736
21
46.357211
31
0.0
0
LINE
8
0
10
12.404736
20
46.357211
30
0.0
11
14.033493
21
47.481677
31
0.0
0
ARC
8
0
10
13.863051
20
47.728557
30
0.0
40
0.300000
50
304.620541
51
4.620541
0
LINE
8
0
10
14.162076
20
47.752724
30
0.0
11
14.152774
21
47.867819
31
0.0
0
ARC
8
0
10
14.352124
20
47.883930
30
0.0
40
0.200000
50
64.620541
51
184.620541
0
LINE
8
0
10
14.437846
20
48.064628
30
0.0
11
14.945269
21
47.823909
31
0.0
0
ARC
8
0
10
14.816686
20
47.552862
30
0.0
40
0.300000
50
24.254172
51
64.620541
0
LINE
8
0
10
15.090205
20
47.676098
30
0.0
11
16.038855
21
45.570582
31
0.0
0
ARC
8
0
10
15.766129
20
45.445600
30
0.0
40
0.300000
50
270.000000
51
24.620541
0
LINE
8
0
10
15.764142
20
45.145607
30
0.0
11
14.185214
21
45.156064
31
0.0
0
ARC
8
0
10
14.186771
20
45.391059
30
0.0
40
0.235000
50
204.000000
51
270.000000
0
ARC
8
0
10
13.750836
20
45.214645
30
0.0
40
0.235000
50
24.000000
51
109.778171
0
LINE
8
0
10
13.671317
20
45.435783
30
0.0
11
12.198486
21
44.906165
31
0.0
0
ARC
8
0
10
12.300000
20
44.623862
30
0.0
40
0.300000
50
109.778171
51
180.000000
0
LINE
8
0
10
12.000000
20
44.623862
30
0.0
11
12.000000
21
37.800563
31
0.0
0
ARC
8
0
10
12.500000
20
37.800563
30
0.0
40
0.500000
50
180.000000
51
270.000000
0
ARC
8
0
10
12.500000
20
36.800563
30
0.0
40
0.500000
50
0.000000
51
90.000000
0
LINE
8
0
10
13.000000
20
36.800563
30
0.0
11
13.000000
21
36.300563
31
0.0
0
ARC
8
0
10
12.500000
20
36.300563
30
0.0
40
0.500000
50
270.000000
51
0.000000
0
LINE
8
0
10
12.500000
20
35.800563
30
0.0
11
8.500000
21
35.800563
31
0.0
0
LINE
8
0
10
8.500000
20
35.800563
30
0.0
11
8.200000
21
36.100563
31
0.0
0
LINE
8
0
10
8.200000
20
36.100563
30
0.0
11
7.900000
21
35.800563
31
0.0
0
LINE
8
0
10
7.900000
20
35.800563
30
0.0
11
2.753561
21
35.800563
31
0.0
0
ARC
8
0
10
2.753561
20
34.800563
30
0.0
40
1.000000
50
90.000000
51
177.371370
0
LINE
8
0
10
1.754613
20
34.846425
30
0.0
11
1.500000
21
29.300563
31
0.0
0
LINE
8
0
10
1.500000
20
29.300563
30
0.0
11
1.500000
21
28.600000
31
0.0
0
ARC
8
0
10
1.800000
20
28.600000
30
0.0
40
0.300000
50
180.000000
51
270.000000
0
LINE
8
0
10
1.800000
20
28.300000
30
0.0
11
3.700000
21
28.300000
31
0.0
0
ARC
8
0
10
3.700000
20
28.000000
30
0.0
40
0.300000
50
0.000000
51
90.000000
0
LINE
8
0
10
4.000000
20
28.000000
30
0.0
11
4.000000
21
25.900000
31
0.0
0
ARC
8
0
10
3.700000
20
25.900000
30
0.0
40
0.300000
50
270.000000
51
0.000000
0
LINE
8
0
10
3.700000
20
25.600000
30
0.0
11
3.000000
21
25.600000
31
0.0
0
ARC
8
0
10
3.000000
20
25.900000
30
0.0
40
0.300000
50
180.000000
51
270.000000
0
LINE
8
0
10
2.700000
20
25.900000
30
0.0
11
2.700000
21
26.800000
31
0.0
0
ARC
8
0
10
2.400000
20
26.800000
30
0.0
40
0.300000
50
0.000000
51
90.000000
0
LINE
8
0
10
2.400000
20
27.100000
30
0.0
11
1.800000
21
27.100000
31
0.0
0
LINE
8
0
10
9.114999
20
53.739423
30
0.0
11
7.706389
21
52.926763
31
0.0
0
ARC
8
0
10
7.606444
20
53.100000
30
0.0
40
0.200000
50
270.000000
51
299.981639
0
LINE
8
0
10
7.606444
20
52.900000
30
0.0
11
7.400000
21
52.900000
31
0.0
0
ARC
8
0
10
7.400000
20
53.300000
30
0.0
40
0.400000
50
180.000000
51
270.000000
0
LINE
8
0
10
7.000000
20
53.300000
30
0.0
11
7.000000
21
56.700000
31
0.0
0
ARC
8
0
10
7.400000
20
56.700000
30
0.0
40
0.400000
50
90.000000
51
180.000000
0
LINE
8
0
10
7.400000
20
57.100000
30
0.0
11
7.606444
21
57.100000
31
0.0
0
ARC
8
0
10
7.606444
20
56.900000
30
0.0
40
0.200000
50
60.018361
51
90.000000
0
LINE
8
0
10
7.706389
20
57.073237
30
0.0
11
9.114999
21
56.260577
31
0.0
0
ARC
8
0
10
9.714666
20
57.300000
30
0.0
40
1.200000
50
240.018361
51
270.000000
0
LINE
8
0
10
9.714666
20
56.100000
30
0.0
11
10.397368
21
56.100000
31
0.0
0
ARC
8
0
10
10.397368
20
56.400000
30
0.0
40
0.300000
50
270.000000
51
324.745828
0
LINE
8
0
10
10.642348
20
56.226839
30
0.0
11
12.453103
21
58.788602
31
0.0
0
ARC
8
0
10
12.861403
20
58.500000
30
0.0
40
0.500000
50
90.000000
51
144.745828
0
LINE
8
0
10
12.861403
20
59.000000
30
0.0
11
43.500000
21
59.000000
31
0.0
0
ARC
8
0
10
43.500000
20
59.500000
30
0.0
40
0.500000
50
270.000000
51
0.000000
0
LINE
8
0
10
44.000000
20
59.500000
30
0.0
11
44.000000
21
63.700000
31
0.0
0
ARC
8
0
10
44.300000
20
63.700000
30
0.0
40
0.300000
50
90.000000
51
180.000000
0
LINE
8
0
10
44.300000
20
64.000000
30
0.0
11
46.949445
21
64.000000
31
0.0
0
ARC
8
0
10
46.949445
20
63.700000
30
0.0
40
0.300000
50
30.000000
51
90.000000
0
LINE
8
0
10
47.209252
20
63.850000
30
0.0
11
47.659808
21
63.069615
31
0.0
0
ARC
8
0
10
47.400000
20
62.919615
30
0.0
40
0.300000
50
0.000000
51
30.000000
0
LINE
8
0
10
47.700000
20
62.919615
30
0.0
11
47.700000
21
62.800000
31
0.0
0
ARC
8
0
10
47.400000
20
62.800000
30
0.0
40
0.300000
50
270.000000
51
0.000000
0
LINE
8
0
10
47.400000
20
62.500000
30
0.0
11
46.000000
21
62.500000
31
0.0
0
ARC
8
0
10
46.000000
20
62.200000
30
0.0
40
0.300000
50
90.000000
51
180.000000
0
LINE
8
0
10
45.700000
20
62.200000
30
0.0
11
45.700000
21
59.500000
31
0.0
0
ARC
8
0
10
46.200000
20
59.500000
30
0.0
40
0.500000
50
180.000000
51
270.000000
0
LINE
8
0
10
46.200000
20
59.000000
30
0.0
11
49.138597
21
59.000000
31
0.0
0
ARC
8
0
10
49.138597
20
58.500000
30
0.0
40
0.500000
50
35.254172
51
90.000000
0
LINE
8
0
10
49.546897
20
58.788602
30
0.0
11
51.357652
21
56.226839
31
0.0
0
ARC
8
0
10
51.602632
20
56.400000
30
0.0
40
0.300000
50
215.254172
51
270.000000
0
LINE
8
0
10
51.602632
20
56.100000
30
0.0
11
52.285334
21
56.100000
31
0.0
0
ARC
8
0
10
52.285334
20
57.300000
30
0.0
40
1.200000
50
270.000000
51
299.981639
0
LINE
8
0
10
52.885001
20
56.260577
30
0.0
11
54.293611
21
57.073237
31
0.0
0
ARC
8
0
10
54.393555
20
56.900000
30
0.0
40
0.200000
50
90.000000
51
119.981639
0
LINE
8
0
10
54.393555
20
57.100000
30
0.0
11
54.600000
21
57.100000
31
0.0
0
ARC
8
0
10
54.600000
20
56.700000
30
0.0
40
0.400000
50
0.000000
51
90.000000
0
LINE
8
0
10
55.000000
20
56.700000
30
0.0
11
55.000000
21
53.300000
31
0.0
0
ARC
8
0
10
54.600000
20
53.300000
30
0.0
40
0.400000
50
270.000000
51
0.000000
0
LINE
8
0
10
54.600000
20
52.900000
30
0.0
11
54.393555
21
52.900000
31
0.0
0
ARC
8
0
10
54.393555
20
53.100000
30
0.0
40
0.200000
50
240.018361
51
270.000000
0
LINE
8
0
10
54.293611
20
52.926763
30
0.0
11
52.885001
21
53.739423
31
0.0
0
ARC
8
0
10
52.285334
20
52.700000
30
0.0
40
1.200000
50
60.018361
51
90.000000
0
LINE
8
0
10
52.285334
20
53.900000
30
0.0
11
50.826005
21
53.900000
31
0.0
0
ARC
8
0
10
50.826005
20
54.900000
30
0.0
40
1.000000
50
215.254172
51
270.000000
0
LINE
8
0
10
50.009406
20
54.322795
30
0.0
11
48.475671
21
56.492644
31
0.0
0
ARC
8
0
10
47.495752
20
55.799998
30
0.0
40
1.200000
50
35.254172
51
90.000000
0
LINE
8
0
10
47.495752
20
56.999998
30
0.0
11
14.504248
21
56.999998
31
0.0
0
ARC
8
0
10
14.504248
20
55.799998
30
0.0
40
1.200000
50
90.000000
51
144.745828
0
LINE
8
0
10
13.524328
20
56.492644
30
0.0
11
11.990594
21
54.322795
31
0.0
0
ARC
8
0
10
11.173995
20
54.900000
30
0.0
40
1.000000
50
270.000000
51
324.745828
0
LINE
8
0
10
11.173995
20
53.900000
30
0.0
11
9.714666
21
53.900000
31
0.0
0
ARC
8
0
10
9.714666
20
52.700000
30
0.0
40
1.200000
50
90.000000
51
119.981639
0
ARC
8
0
10
30.500000
20
49.023544
30
0.0
40
1.000000
50
180.000000
51
270.000000
0
LINE
8
0
10
29.500000
20
49.023544
30
0.0
11
29.500000
21
56.123544
31
0.0
0
ARC
8
0
10
29.200000
20
56.123544
30
0.0
40
0.300000
50
0.000000
51
90.000000
0
LINE
8
0
10
29.200000
20
56.423544
30
0.0
11
27.600000
21
56.423544
31
0.0
0
ARC
8
0
10
27.600000
20
56.123544
30
0.0
40
0.300000
50
90.000000
51
180.000000
0
LINE
8
0
10
27.300000
20
56.123544
30
0.0
11
27.300000
21
47.923544
31
0.0
0
ARC
8
0
10
26.300000
20
47.923544
30
0.0
40
1.000000
50
270.000000
51
0.000000
0
LINE
8
0
10
26.300000
20
46.923544
30
0.0
11
19.174834
21
46.923544
31
0.0
0
ARC
8
0
10
19.174834
20
47.923544
30
0.0
40
1.000000
50
215.254172
51
270.000000
0
LINE
8
0
10
18.358235
20
47.346339
30
0.0
11
16.835414
21
49.500748
31
0.0
0
ARC
8
0
10
16.018814
20
48.923544
30
0.0
40
1.000000
50
35.254172
51
90.000000
0
LINE
8
0
10
16.018814
20
49.923544
30
0.0
11
14.888000
21
49.923544
31
0.0
0
ARC
8
0
10
14.888000
20
51.123544
30
0.0
40
1.200000
50
240.018361
51
270.000000
0
LINE
8
0
10
14.288333
20
50.084121
30
0.0
11
12.706389
21
50.996781
31
0.0
0
ARC
8
0
10
12.606444
20
50.823544
30
0.0
40
0.200000
50
60.018361
51
90.000000
0
LINE
8
0
10
12.606444
20
51.023544
30
0.0
11
12.400000
21
51.023544
31
0.0
0
ARC
8
0
10
12.400000
20
50.623544
30
0.0
40
0.400000
50
90.000000
51
180.000000
0
LINE
8
0
10
12.000000
20
50.623544
30
0.0
11
12.000000
21
47.223544
31
0.0
0
ARC
8
0
10
12.400000
20
47.223544
30
0.0
40
0.400000
50
180.000000
51
270.000000
0
LINE
8
0
10
12.400000
20
46.823544
30
0.0
11
12.606444
21
46.823544
31
0.0
0
ARC
8
0
10
12.606444
20
47.023544
30
0.0
40
0.200000
50
270.000000
51
299.981639
0
LINE
8
0
10
12.706389
20
46.850307
30
0.0
11
14.288333
21
47.762966
31
0.0
0
ARC
8
0
10
14.888000
20
46.723544
30
0.0
40
1.200000
50
90.000000
51
119.981639
0
LINE
8
0
10
14.888000
20
47.923544
30
0.0
11
15.345738
21
47.923544
31
0.0
0
ARC
8
0
10
15.345738
20
47.623544
30
0.0
40
0.300000
50
35.254172
51
90.000000
0
LINE
8
0
10
15.590718
20
47.796705
30
0.0
11
17.252049
21
45.446339
31
0.0
0
ARC
8
0
10
18.068648
20
46.023544
30
0.0
40
1.000000
50
215.254172
51
270.000000
0
LINE
8
0
10
18.068648
20
45.023544
30
0.0
11
30.617157
21
45.023544
31
0.0
0
LINE
8
0
10
30.617157
20
45.023544
30
0.0
11
30.687868
21
45.052833
31
0.0
0
LINE
8
0
10
30.687868
20
45.052833
30
0.0
11
30.929289
21
45.294254
31
0.0
0
ARC
8
0
10
31.000000
20
45.223544
30
0.0
40
0.100000
50
45.000000
51
135.000000
0
LINE
8
0
10
31.070711
20
45.294254
30
0.0
11
31.312132
21
45.052833
31
0.0
0
LINE
8
0
10
31.312132
20
45.052833
30
0.0
11
31.382843
21
45.023544
31
0.0
0
LINE
8
0
10
31.382843
20
45.023544
30
0.0
11
43.931352
21
45.023544
31
0.0
0
ARC
8
0
10
43.931352
20
46.023544
30
0.0
40
1.000000
50
270.000000
51
324.745828
0
LINE
8
0
10
44.747951
20
45.446339
30
0.0
11
46.409282
21
47.796705
31
0.0
0
ARC
8
0
10
46.654262
20
47.623544
30
0.0
40
0.300000
50
90.000000
51
144.745828
0
LINE
8
0
10
46.654262
20
47.923544
30
0.0
11
47.112000
21
47.923544
31
0.0
0
ARC
8
0
10
47.112000
20
46.723544
30
0.0
40
1.200000
50
60.018361
51
90.000000
0
LINE
8
0
10
47.711667
20
47.762966
30
0.0
11
49.293611
21
46.850307
31
0.0
0
ARC
8
0
10
49.393555
20
47.023544
30
0.0
40
0.200000
50
240.018361
51
270.000000
0
LINE
8
0
10
49.393555
20
46.823544
30
0.0
11
49.600000
21
46.823544
31
0.0
0
ARC
8
0
10
49.600000
20
47.223544
30
0.0
40
0.400000
50
270.000000
51
0.000000
0
LINE
8
0
10
50.000000
20
47.223544
30
0.0
11
50.000000
21
50.623544
31
0.0
0
ARC
8
0
10
49.600000
20
50.623544
30
0.0
40
0.400000
50
0.000000
51
90.000000
0
LINE
8
0
10
49.600000
20
51.023544
30
0.0
11
49.393555
21
51.023544
31
0.0
0
ARC
8
0
10
49.393555
20
50.823544
30
0.0
40
0.200000
50
90.000000
51
119.981639
0
LINE
8
0
10
49.293611
20
50.996781
30
0.0
11
47.711667
21
50.084121
31
0.0
0
ARC
8
0
10
47.112000
20
51.123544
30
0.0
40
1.200000
50
270.000000
51
299.981639
0
LINE
8
0
10
47.112000
20
49.923544
30
0.0
11
45.981186
21
49.923544
31
0.0
0
ARC
8
0
10
45.981186
20
48.923544
30
0.0
40
1.000000
50
90.000000
51
144.745828
0
LINE
8
0
10
45.164586
20
49.500748
30
0.0
11
43.641765
21
47.346339
31
0.0
0
ARC
8
0
10
42.825165
20
47.923544
30
0.0
40
1.000000
50
270.000000
51
324.745828
0
LINE
8
0
10
42.825165
20
46.923544
30
0.0
11
35.700000
21
46.923544
31
0.0
0
ARC
8
0
10
35.700000
20
47.923544
30
0.0
40
1.000000
50
180.000000
51
270.000000
0
LINE
8
0
10
34.700000
20
47.923544
30
0.0
11
34.700000
21
56.123544
31
0.0
0
ARC
8
0
10
34.400000
20
56.123544
30
0.0
40
0.300000
50
0.000000
51
90.000000
0
LINE
8
0
10
34.400000
20
56.423544
30
0.0
11
32.800000
21
56.423544
31
0.0
0
ARC
8
0
10
32.800000
20
56.123544
30
0.0
40
0.300000
50
90.000000
51
180.000000
0
LINE
8
0
10
32.500000
20
56.123544
30
0.0
11
32.500000
21
49.023544
31
0.0
0
ARC
8
0
10
31.500000
20
49.023544
30
0.0
40
1.000000
50
270.000000
51
0.000000
0
LINE
8
0
10
31.500000
20
48.023544
30
0.0
11
30.500000
21
48.023544
31
0.0
0
ATTDEF
8
0
10
58.450555
20
64.000000
30
0.0
40
3.5
1

3

2
VC_START
70
0
0
ATTDEF
8
0
10
49.500000
20
35.800563
30
0.0
40
3.5
1

3

2
VC_END
70
0
0
ARC
8
0
10
15.229289
20
36.123544
30
0.0
40
0.500000
50
180.000000
51
270.000000
0
LINE
8
0
10
14.729289
20
36.123544
30
0.0
11
14.729289
21
41.523544
31
0.0
0
ARC
8
0
10
15.229289
20
41.523544
30
0.0
40
0.500000
50
90.000000
51
180.000000
0
LINE
8
0
10
15.229289
20
42.023544
30
0.0
11
17.929289
21
42.023544
31
0.0
0
ARC
8
0
10
17.929289
20
41.523544
30
0.0
40
0.500000
50
0.000000
51
90.000000
0
LINE
8
0
10
18.429289
20
41.523544
30
0.0
11
18.429289
21
36.123544
31
0.0
0
ARC
8
0
10
17.929289
20
36.123544
30
0.0
40
0.500000
50
270.000000
51
0.000000
0
LINE
8
0
10
17.929289
20
35.623544
30
0.0
11
15.229289
21
35.623544
31
0.0
0
LINE
8
0
10
11.339012
20
25.923544
30
0.0
11
11.339012
21
33.323544
31
0.0
0
ARC
8
0
10
11.839012
20
33.323544
30
0.0
40
0.500000
50
90.000000
51
180.000000
0
LINE
8
0
10
11.839012
20
33.823544
30
0.0
11
17.929289
21
33.823544
31
0.0
0
ARC
8
0
10
17.929289
20
33.323544
30
0.0
40
0.500000
50
0.000000
51
90.000000
0
LINE
8
0
10
18.429289
20
33.323544
30
0.0
11
18.429289
21
25.923544
31
0.0
0
ARC
8
0
10
17.929289
20
25.923544
30
0.0
40
0.500000
50
270.000000
51
0.000000
0
LINE
8
0
10
17.929289
20
25.423544
30
0.0
11
11.839012
21
25.423544
31
0.0
0
ARC
8
0
10
11.839012
20
25.923544
30
0.0
40
0.500000
50
180.000000
51
270.000000
0
LINE
8
0
10
5.467212
20
13.023544
30
0.0
11
9.039012
21
13.023544
31
0.0
0
ARC
8
0
10
9.039012
20
14.023544
30
0.0
40
1.000000
50
270.000000
51
0.000000
0
LINE
8
0
10
10.039012
20
14.023544
30
0.0
11
10.039012
21
33.323544
31
0.0
0
ARC
8
0
10
9.539012
20
33.323544
30
0.0
40
0.500000
50
0.000000
51
90.000000
0
LINE
8
0
10
9.539012
20
33.823544
30
0.0
11
6.029289
21
33.823544
31
0.0
0
ARC
8
0
10
6.029289
20
33.323544
30
0.0
40
0.500000
50
90.000000
51
180.000000
0
LINE
8
0
10
5.529289
20
33.323544
30
0.0
11
5.529289
21
16.798726
31
0.0
0
LINE
8
0
10
5.529289
20
16.798726
30
0.0
11
5.521693
21
16.711902
31
0.0
0
LINE
8
0
10
5.521693
20
16.711902
30
0.0
11
4.974808
21
13.610368
31
0.0
0
ARC
8
0
10
5.467212
20
13.523544
30
0.0
40
0.500000
50
170.000000
51
270.000000
0
ARC
8
0
10
46.629289
20
36.123544
30
0.0
40
0.500000
50
270.000000
51
0.000000
0
LINE
8
0
10
47.129289
20
36.123544
30
0.0
11
47.129289
21
41.523544
31
0.0
0
ARC
8
0
10
46.629289
20
41.523544
30
0.0
40
0.500000
50
0.000000
51
90.000000
0
LINE
8
0
10
46.629289
20
42.023544
30
0.0
11
43.929289
21
42.023544
31
0.0
0
ARC
8
0
10
43.929289
20
41.523544
30
0.0
40
0.500000
50
90.000000
51
180.000000
0
LINE
8
0
10
43.429289
20
41.523544
30
0.0
11
43.429289
21
36.123544
31
0.0
0
ARC
8
0
10
43.929289
20
36.123544
30
0.0
40
0.500000
50
180.000000
51
270.000000
0
LINE
8
0
10
43.929289
20
35.623544
30
0.0
11
46.629289
21
35.623544
31
0.0
0
LINE
8
0
10
50.519566
20
25.923544
30
0.0
11
50.519566
21
33.323544
31
0.0
0
ARC
8
0
10
50.019566
20
33.323544
30
0.0
40
0.500000
50
0.000000
51
90.000000
0
LINE
8
0
10
50.019566
20
33.823544
30
0.0
11
43.929289
21
33.823544
31
0.0
0
ARC
8
0
10
43.929289
20
33.323544
30
0.0
40
0.500000
50
90.000000
51
180.000000
0
LINE
8
0
10
43.429289
20
33.323544
30
0.0
11
43.429289
21
25.923544
31
0.0
0
ARC
8
0
10
43.929289
20
25.923544
30
0.0
40
0.500000
50
180.000000
51
270.000000
0
LINE
8
0
10
43.929289
20
25.423544
30
0.0
11
50.019566
21
25.423544
31
0.0
0
ARC
8
0
10
50.019566
20
25.923544
30
0.0
40
0.500000
50
270.000000
51
0.000000
0
LINE
8
0
10
56.391365
20
13.023544
30
0.0
11
52.819566
21
13.023544
31
0.0
0
ARC
8
0
10
52.819566
20
14.023544
30
0.0
40
1.000000
50
180.000000
51
270.000000
0
LINE
8
0
10
51.819566
20
14.023544
30
0.0
11
51.819566
21
33.323544
31
0.0
0
ARC
8
0
10
52.319566
20
33.323544
30
0.0
40
0.500000
50
90.000000
51
180.000000
0
LINE
8
0
10
52.319566
20
33.823544
30
0.0
11
55.829289
21
33.823544
31
0.0
0
ARC
8
0
10
55.829289
20
33.323544
30
0.0
40
0.500000
50
0.000000
51
90.000000
0
LINE
8
0
10
56.329289
20
33.323544
30
0.0
11
56.329289
21
16.798726
31
0.0
0
LINE
8
0
10
56.336885
20
16.711902
30
0.0
11
56.329289
21
16.798726
31
0.0
0
LINE
8
0
10
56.336885
20
16.711902
30
0.0
11
56.883769
21
13.610368
31
0.0
0
ARC
8
0
10
56.391365
20
13.523544
30
0.0
40
0.500000
50
270.000000
51
10.000000
0
LINE
8
0
10
19.229289
20
14.623544
30
0.0
11
19.229289
21
13.523544
31
0.0
0
ARC
8
0
10
19.429289
20
13.523544
30
0.0
40
0.200000
50
180.000000
51
270.000000
0
LINE
8
0
10
19.429289
20
13.323544
30
0.0
11
19.529289
21
13.323544
31
0.0
0
ARC
8
0
10
19.529289
20
13.123544
30
0.0
40
0.200000
50
0.000000
51
90.000000
0
LINE
8
0
10
19.729289
20
13.123544
30
0.0
11
19.729289
21
10.523544
31
0.0
0
ARC
8
0
10
19.229289
20
10.523544
30
0.0
40
0.500000
50
270.000000
51
0.000000
0
LINE
8
0
10
19.229289
20
10.023544
30
0.0
11
19.029289
21
10.023544
31
0.0
0
ARC
8
0
10
19.029289
20
10.523544
30
0.0
40
0.500000
50
180.000000
51
270.000000
0
LINE
8
0
10
18.529289
20
10.523544
30
0.0
11
18.529289
21
11.223544
31
0.0
0
ARC
8
0
10
18.229289
20
11.223544
30
0.0
40
0.300000
50
0.000000
51
90.000000
0
LINE
8
0
10
18.229289
20
11.523544
30
0.0
11
5.829289
21
11.523544
31
0.0
0
ARC
8
0
10
5.829289
20
11.223544
30
0.0
40
0.300000
50
90.000000
51
180.000000
0
LINE
8
0
10
5.529289
20
11.223544
30
0.0
11
5.529289
21
10.823544
31
0.0
0
ARC
8
0
10
5.229289
20
10.823544
30
0.0
40
0.300000
50
270.000000
51
0.000000
0
LINE
8
0
10
5.229289
20
10.523544
30
0.0
11
4.529289
21
10.523544
31
0.0
0
ARC
8
0
10
4.529289
20
10.823544
30
0.0
40
0.300000
50
180.000000
51
270.000000
0
LINE
8
0
10
4.229289
20
10.823544
30
0.0
11
4.229289
21
11.423544
31
0.0
0
ARC
8
0
10
3.829289
20
11.423544
30
0.0
40
0.400000
50
0.000000
51
90.000000
0
ARC
8
0
10
3.829289
20
12.223544
30
0.0
40
0.400000
50
180.000000
51
270.000000
0
LINE
8
0
10
3.429289
20
12.223544
30
0.0
11
3.429289
21
12.287947
31
0.0
0
LINE
8
0
10
3.429289
20
12.287947
30
0.0
11
3.436885
21
12.374771
31
0.0
0
LINE
8
0
10
3.436885
20
12.374771
30
0.0
11
4.221693
21
16.825637
31
0.0
0
LINE
8
0
10
4.229289
20
16.912461
30
0.0
11
4.221693
21
16.825637
31
0.0
0
LINE
8
0
10
4.229289
20
16.912461
30
0.0
11
4.229289
21
33.523544
31
0.0
0
ARC
8
0
10
5.829289
20
33.523544
30
0.0
40
1.600000
50
90.000000
51
180.000000
0
LINE
8
0
10
5.829289
20
35.123544
30
0.0
11
12.929289
21
35.123544
31
0.0
0
ARC
8
0
10
12.929289
20
35.623544
30
0.0
40
0.500000
50
270.000000
51
0.000000
0
LINE
8
0
10
13.429289
20
35.623544
30
0.0
11
13.429289
21
44.523544
31
0.0
0
ARC
8
0
10
13.929289
20
44.523544
30
0.0
40
0.500000
50
90.000000
51
180.000000
0
LINE
8
0
10
13.929289
20
45.023544
30
0.0
11
21.629289
21
45.023544
31
0.0
0
ARC
8
0
10
21.629289
20
44.723544
30
0.0
40
0.300000
50
0.000000
51
90.000000
0
LINE
8
0
10
21.929289
20
44.723544
30
0.0
11
21.929289
21
44.523544
31
0.0
0
ARC
8
0
10
22.229289
20
44.523544
30
0.0
40
0.300000
50
180.000000
51
270.000000
0
LINE
8
0
10
22.229289
20
44.223544
30
0.0
11
26.629289
21
44.223544
31
0.0
0
ARC
8
0
10
26.629289
20
44.523544
30
0.0
40
0.300000
50
270.000000
51
0.000000
0
LINE
8
0
10
26.929289
20
44.523544
30
0.0
11
26.929289
21
44.723544
31
0.0
0
ARC
8
0
10
27.229289
20
44.723544
30
0.0
40
0.300000
50
90.000000
51
180.000000
0
LINE
8
0
10
27.229289
20
45.023544
30
0.0
11
34.629289
21
45.023544
31
0.0
0
ARC
8
0
10
34.629289
20
44.723544
30
0.0
40
0.300000
50
0.000000
51
90.000000
0
LINE
8
0
10
34.929289
20
44.723544
30
0.0
11
34.929289
21
44.523544
31
0.0
0
ARC
8
0
10
35.229289
20
44.523544
30
0.0
40
0.300000
50
180.000000
51
270.000000
0
LINE
8
0
10
35.229289
20
44.223544
30
0.0
11
39.629289
21
44.223544
31
0.0
0
ARC
8
0
10
39.629289
20
44.523544
30
0.0
40
0.300000
50
270.000000
51
0.000000
0
LINE
8
0
10
39.929289
20
44.523544
30
0.0
11
39.929289
21
44.723544
31
0.0
0
ARC
8
0
10
40.229289
20
44.723544
30
0.0
40
0.300000
50
90.000000
51
180.000000
0
LINE
8
0
10
40.229289
20
45.023544
30
0.0
11
47.929289
21
45.023544
31
0.0
0
ARC
8
0
10
47.929289
20
44.523544
30
0.0
40
0.500000
50
0.000000
51
90.000000
0
LINE
8
0
10
48.429289
20
44.523544
30
0.0
11
48.429289
21
35.623544
31
0.0
0
ARC
8
0
10
48.929289
20
35.623544
30
0.0
40
0.500000
50
180.000000
51
270.000000
0
LINE
8
0
10
48.929289
20
35.123544
30
0.0
11
56.029289
21
35.123544
31
0.0
0
ARC
8
0
10
56.029289
20
33.523544
30
0.0
40
1.600000
50
0.000000
51
90.000000
0
LINE
8
0
10
57.629289
20
33.523544
30
0.0
11
57.629289
21
16.912461
31
0.0
0
LINE
8
0
10
57.636885
20
16.825637
30
0.0
11
57.629289
21
16.912461
31
0.0
0
LINE
8
0
10
57.636885
20
16.825637
30
0.0
11
58.421693
21
12.374771
31
0.0
0
LINE
8
0
10
58.421693
20
12.374771
30
0.0
11
58.429289
21
12.287947
31
0.0
0
LINE
8
0
10
58.429289
20
12.287947
30
0.0
11
58.429289
21
12.223544
31
0.0
0
ARC
8
0
10
58.029289
20
12.223544
30
0.0
40
0.400000
50
270.000000
51
0.000000
0
ARC
8
0
10
58.029289
20
11.423544
30
0.0
40
0.400000
50
90.000000
51
180.000000
0
LINE
8
0
10
57.629289
20
11.423544
30
0.0
11
57.629289
21
10.823544
31
0.0
0
ARC
8
0
10
57.329289
20
10.823544
30
0.0
40
0.300000
50
270.000000
51
0.000000
0
LINE
8
0
10
57.329289
20
10.523544
30
0.0
11
56.629289
21
10.523544
31
0.0
0
ARC
8
0
10
56.629289
20
10.823544
30
0.0
40
0.300000
50
180.000000
51
270.000000
0
LINE
8
0
10
56.329289
20
10.823544
30
0.0
11
56.329289
21
11.223544
31
0.0
0
ARC
8
0
10
56.029289
20
11.223544
30
0.0
40
0.300000
50
0.000000
51
90.000000
0
LINE
8
0
10
56.029289
20
11.523544
30
0.0
11
43.629289
21
11.523544
31
0.0
0
ARC
8
0
10
43.629289
20
11.223544
30
0.0
40
0.300000
50
90.000000
51
180.000000
0
LINE
8
0
10
43.329289
20
11.223544
30
0.0
11
43.329289
21
10.523544
31
0.0
0
ARC
8
0
10
42.829289
20
10.523544
30
0.0
40
0.500000
50
270.000000
51
0.000000
0
LINE
8
0
10
42.829289
20
10.023544
30
0.0
11
42.629289
21
10.023544
31
0.0
0
ARC
8
0
10
42.629289
20
10.523544
30
0.0
40
0.500000
50
180.000000
51
270.000000
0
LINE
8
0
10
42.129289
20
10.523544
30
0.0
11
42.129289
21
13.123544
31
0.0
0
ARC
8
0
10
42.329289
20
13.123544
30
0.0
40
0.200000
50
90.000000
51
180.000000
0
LINE
8
0
10
42.329289
20
13.323544
30
0.0
11
42.429289
21
13.323544
31
0.0
0
ARC
8
0
10
42.429289
20
13.523544
30
0.0
40
0.200000
50
270.000000
51
0.000000
0
LINE
8
0
10
42.629289
20
13.523544
30
0.0
11
42.629289
21
14.623544
31
0.0
0
ARC
8
0
10
43.329289
20
14.623544
30
0.0
40
0.700000
50
90.000000
51
180.000000
0
LINE
8
0
10
43.329289
20
15.323544
30
0.0
11
43.429289
21
15.323544
31
0.0
0
ARC
8
0
10
43.429289
20
15.023544
30
0.0
40
0.300000
50
0.000000
51
90.000000
0
LINE
8
0
10
43.729289
20
15.023544
30
0.0
11
43.729289
21
13.623544
31
0.0
0
ARC
8
0
10
44.029289
20
13.623544
30
0.0
40
0.300000
50
180.000000
51
270.000000
0
LINE
8
0
10
44.029289
20
13.323544
30
0.0
11
49.719566
21
13.323544
31
0.0
0
ARC
8
0
10
49.719566
20
14.123544
30
0.0
40
0.800000
50
270.000000
51
0.000000
0
LINE
8
0
10
50.519566
20
14.123544
30
0.0
11
50.519566
21
23.323544
31
0.0
0
ARC
8
0
10
49.719566
20
23.323544
30
0.0
40
0.800000
50
0.000000
51
90.000000
0
LINE
8
0
10
49.719566
20
24.123544
30
0.0
11
44.029289
21
24.123544
31
0.0
0
ARC
8
0
10
44.029289
20
23.823544
30
0.0
40
0.300000
50
90.000000
51
180.000000
0
LINE
8
0
10
43.729289
20
23.823544
30
0.0
11
43.729289
21
22.423544
31
0.0
0
ARC
8
0
10
43.429289
20
22.423544
30
0.0
40
0.300000
50
270.000000
51
0.000000
0
LINE
8
0
10
43.429289
20
22.123544
30
0.0
11
43.329289
21
22.123544
31
0.0
0
ARC
8
0
10
43.329289
20
22.823544
30
0.0
40
0.700000
50
180.000000
51
270.000000
0
LINE
8
0
10
42.629289
20
22.823544
30
0.0
11
42.629289
21
23.923544
31
0.0
0
ARC
8
0
10
42.429289
20
23.923544
30
0.0
40
0.200000
50
0.000000
51
90.000000
0
LINE
8
0
10
42.429289
20
24.123544
30
0.0
11
42.329289
21
24.123544
31
0.0
0
ARC
8
0
10
42.329289
20
24.323544
30
0.0
40
0.200000
50
180.000000
51
270.000000
0
LINE
8
0
10
42.129289
20
24.323544
30
0.0
11
42.129289
21
33.123544
31
0.0
0
ARC
8
0
10
41.629289
20
33.123544
30
0.0
40
0.500000
50
0.000000
51
90.000000
0
LINE
8
0
10
41.629289
20
33.623544
30
0.0
11
40.329289
21
33.623544
31
0.0
0
ARC
8
0
10
40.329289
20
34.123544
30
0.0
40
0.500000
50
180.000000
51
270.000000
0
LINE
8
0
10
39.829289
20
34.123544
30
0.0
11
39.829289
21
35.123544
31
0.0
0
ARC
8
0
10
40.329289
20
35.123544
30
0.0
40
0.500000
50
90.000000
51
180.000000
0
LINE
8
0
10
40.329289
20
35.623544
30
0.0
11
41.629289
21
35.623544
31
0.0
0
ARC
8
0
10
41.629289
20
36.123544
30
0.0
40
0.500000
50
270.000000
51
0.000000
0
LINE
8
0
10
42.129289
20
36.123544
30
0.0
11
42.129289
21
40.023544
31
0.0
0
ARC
8
0
10
40.129289
20
40.023544
30
0.0
40
2.000000
50
0.000000
51
90.000000
0
LINE
8
0
10
40.129289
20
42.023544
30
0.0
11
31.529289
21
42.023544
31
0.0
0
LINE
8
0
10
31.529289
20
42.023544
30
0.0
11
30.929289
21
42.623544
31
0.0
0
LINE
8
0
10
30.929289
20
42.623544
30
0.0
11
30.329289
21
42.023544
31
0.0
0
LINE
8
0
10
30.329289
20
42.023544
30
0.0
11
21.729289
21
42.023544
31
0.0
0
ARC
8
0
10
21.729289
20
40.023544
30
0.0
40
2.000000
50
90.000000
51
180.000000
0
LINE
8
0
10
19.729289
20
40.023544
30
0.0
11
19.729289
21
36.123544
31
0.0
0
ARC
8
0
10
20.229289
20
36.123544
30
0.0
40
0.500000
50
180.000000
51
270.000000
0
LINE
8
0
10
20.229289
20
35.623544
30
0.0
11
21.529289
21
35.623544
31
0.0
0
ARC
8
0
10
21.529289
20
35.123544
30
0.0
40
0.500000
50
0.000000
51
90.000000
0
LINE
8
0
10
22.029289
20
35.123544
30
0.0
11
22.029289
21
34.123544
31
0.0
0
ARC
8
0
10
21.529289
20
34.123544
30
0.0
40
0.500000
50
270.000000
51
0.000000
0
LINE
8
0
10
21.529289
20
33.623544
30
0.0
11
20.229289
21
33.623544
31
0.0
0
ARC
8
0
10
20.229289
20
33.123544
30
0.0
40
0.500000
50
90.000000
51
180.000000
0
LINE
8
0
10
19.729289
20
33.123544
30
0.0
11
19.729289
21
24.323544
31
0.0
0
ARC
8
0
10
19.529289
20
24.323544
30
0.0
40
0.200000
50
270.000000
51
0.000000
0
LINE
8
0
10
19.529289
20
24.123544
30
0.0
11
19.429289
21
24.123544
31
0.0
0
ARC
8
0
10
19.429289
20
23.923544
30
0.0
40
0.200000
50
90.000000
51
180.000000
0
LINE
8
0
10
19.229289
20
23.923544
30
0.0
11
19.229289
21
22.823544
31
0.0
0
ARC
8
0
10
18.529289
20
22.823544
30
0.0
40
0.700000
50
270.000000
51
0.000000
0
LINE
8
0
10
18.529289
20
22.123544
30
0.0
11
18.429289
21
22.123544
31
0.0
0
ARC
8
0
10
18.429289
20
22.423544
30
0.0
40
0.300000
50
180.000000
51
270.000000
0
LINE
8
0
10
18.129289
20
22.423544
30
0.0
11
18.129289
21
23.823544
31
0.0
0
ARC
8
0
10
17.829289
20
23.823544
30
0.0
40
0.300000
50
0.000000
51
90.000000
0
LINE
8
0
10
17.829289
20
24.123544
30
0.0
11
12.139012
21
24.123544
31
0.0
0
ARC
8
0
10
12.139012
20
23.323544
30
0.0
40
0.800000
50
90.000000
51
180.000000
0
LINE
8
0
10
11.339012
20
23.323544
30
0.0
11
11.339012
21
14.123544
31
0.0
0
ARC
8
0
10
12.139012
20
14.123544
30
0.0
40
0.800000
50
180.000000
51
270.000000
0
LINE
8
0
10
12.139012
20
13.323544
30
0.0
11
17.829289
21
13.323544
31
0.0
0
ARC
8
0
10
17.829289
20
13.623544
30
0.0
40
0.300000
50
270.000000
51
0.000000
0
LINE
8
0
10
18.129289
20
13.623544
30
0.0
11
18.129289
21
15.023544
31
0.0
0
ARC
8
0
10
18.429289
20
15.023544
30
0.0
40
0.300000
50
90.000000
51
180.000000
0
LINE
8
0
10
18.429289
20
15.323544
30
0.0
11
18.529289
21
15.323544
31
0.0
0
ARC
8
0
10
18.529289
20
14.623544
30
0.0
40
0.700000
50
0.000000
51
90.000000
0
ATTDEF
8
0
10
0.000000
20
0.000000
30
0.0
40
3.5
1

3

2
GLASS_MIN:0.000000
70
0
0
ATTDEF
8
0
10
0.000000
20
0.000000
30
0.0
40
3.5
1

3

2
GLASS_MAX:0.000000
70
0
0
ATTDEF
8
0
10
0.000000
20
0.000000
30
0.0
40
3.5
1

3

2
BL01:6500.000000,,1
70
0
0
ATTDEF
8
0
10
0.000000
20
0.000000
30
0.0
40
3.5
1

3

2
HW_START
70
0
0
ATTDEF
8
0
10
62.000000
20
82.000000
30
0.0
40
3.5
1

3

2
HW_END
70
0
0
ATTDEF
8
0
10
0.000000
20
0.000000
30
0.0
40
3.5
1

3

2
FP_LCS_ORIG
70
0
0
ATTDEF
8
0
10
10.000000
20
0.000000
30
0.0
40
3.5
1

3

2
FP_LCS_HOT
70
0
0
ATTDEF
8
0
10
0.000000
20
10.000000
30
0.0
40
3.5
1

3

2
FP_LCS_INTERN
70
0
0
ATTDEF
8
0
10
0.000000
20
0.000000
30
0.0
40
3.5
1

3

2
TDEV3:0
70
0
0
ATTDEF
8
0
10
0.000000
20
0.000000
30
0.0
40
3.5
1

3

2
TDEV4:0
70
0
0
ATTDEF
8
0
10
0.000000
20
0.000000
30
0.0
40
3.5
1

3

2
TDEV5:0
70
0
0
ATTDEF
8
0
10
0.000000
20
0.000000
30
0.0
40
3.5
1

3

2
PANE_WIDTH:57.5
70
0
0
ATTDEF
8
0
10
0.000000
20
0.000000
30
0.0
40
3.5
1

3

2
MIN_VETRO:0
70
0
0
ATTDEF
8
0
10
0.000000
20
0.000000
30
0.0
40
3.5
1

3

2
MAX_VETRO:0
70
0
0
ATTDEF
8
0
10
0.000000
20
0.000000
30
0.0
40
3.5
1

3

2
JX:0
70
0
0
ATTDEF
8
0
10
0.000000
20
0.000000
30
0.0
40
3.5
1

3

2
WX:0
70
0
0
ATTDEF
8
0
10
0.000000
20
0.000000
30
0.0
40
3.5
1

3

2
JY:0
70
0
0
ATTDEF
8
0
10
0.000000
20
0.000000
30
0.0
40
3.5
1

3

2
WY:0
70
0
0
ATTDEF
8
0
10
0.000000
20
0.000000
30
0.0
40
3.5
1

3

2
DESC:U10140 - V31210
70
0
0
ATTDEF
8
0
10
0.000000
20
0.000000
30
0.0
40
3.5
1

3

2
DENS:0
70
0
0
ATTDEF
8
0
10
0.000000
20
0.000000
30
0.0
40
3.5
1

3

2
TDEV:0
70
0
0
ATTDEF
8
0
10
0.000000
20
0.000000
30
0.0
40
3.5
1

3

2
TDEV2:0
70
0
0
ATTDEF
8
0
10
0.000000
20
0.000000
30
0.0
40
3.5
1

3

2
TDEV3:0
70
0
0
ATTDEF
8
0
10
0.000000
20
0.000000
30
0.0
40
3.5
1

3

2
TDEV4:0
70
0
0
ATTDEF
8
0
10
0.000000
20
0.000000
30
0.0
40
3.5
1

3

2
TDEV5:0
70
0
0
ATTDEF
8
0
10
0.000000
20
0.000000
30
0.0
40
3.5
1

3

2
PANE_WIDTH:57.5
70
0
0
ATTDEF
8
0
10
0.000000
20
0.000000
30
0.0
40
3.5
1

3

2
MIN_VETRO:0
70
0
0
ATTDEF
8
0
10
0.000000
20
0.000000
30
0.0
40
3.5
1

3

2
MAX_VETRO:0
70
0
0
ATTDEF
8
0
10
0.000000
20
0.000000
30
0.0
40
3.5
1

3

2
JX:0
70
0
0
ATTDEF
8
0
10
0.000000
20
0.000000
30
0.0
40
3.5
1

3

2
WX:0
70
0
0
ATTDEF
8
0
10
0.000000
20
0.000000
30
0.0
40
3.5
1

3

2
JY:0
70
0
0
ATTDEF
8
0
10
0.000000
20
0.000000
30
0.0
40
3.5
1

3

2
WY:0
70
0
0
ENDSEC
0
EOF
