0
SECTION
2
ENTITIES
0
LINE
8
0
10
-31.404828
20
219.451351
30
0.0
11
-29.204828
21
219.451351
31
0.0
0
ARC
8
0
10
-29.204828
20
219.751351
30
0.0
40
0.300000
50
270.000000
51
0.000000
0
LINE
8
0
10
-28.904828
20
219.751351
30
0.0
11
-28.904828
21
225.650788
31
0.0
0
ARC
8
0
10
-28.604828
20
225.650788
30
0.0
40
0.300000
50
90.000000
51
180.000000
0
LINE
8
0
10
-28.604828
20
225.950788
30
0.0
11
-25.304828
21
225.950788
31
0.0
0
ARC
8
0
10
-25.304828
20
225.650788
30
0.0
40
0.300000
50
0.000000
51
90.000000
0
LINE
8
0
10
-25.004828
20
225.650788
30
0.0
11
-25.004828
21
206.051351
31
0.0
0
ARC
8
0
10
-25.304828
20
206.051351
30
0.0
40
0.300000
50
270.000000
51
0.000000
0
LINE
8
0
10
-25.304828
20
205.751351
30
0.0
11
-33.704828
21
205.751351
31
0.0
0
ARC
8
0
10
-33.704828
20
206.051351
30
0.0
40
0.300000
50
180.000000
51
270.000000
0
LINE
8
0
10
-34.004828
20
206.051351
30
0.0
11
-34.004828
21
219.151351
31
0.0
0
ARC
8
0
10
-33.704828
20
219.151351
30
0.0
40
0.300000
50
90.000000
51
180.000000
0
LINE
8
0
10
-33.704828
20
219.451351
30
0.0
11
-32.004828
21
219.451351
31
0.0
0
LINE
8
0
10
-32.004828
20
219.451351
30
0.0
11
-31.704828
21
219.751351
31
0.0
0
LINE
8
0
10
-31.704828
20
219.751351
30
0.0
11
-31.404828
21
219.451351
31
0.0
0
ARC
8
0
10
-26.504828
20
194.350788
30
0.0
40
0.300000
50
270.000000
51
0.000000
0
LINE
8
0
10
-26.204828
20
194.350788
30
0.0
11
-26.204828
21
195.250788
31
0.0
0
ARC
8
0
10
-25.904828
20
195.250788
30
0.0
40
0.300000
50
90.000000
51
180.000000
0
LINE
8
0
10
-25.904828
20
195.550788
30
0.0
11
-25.304828
21
195.550788
31
0.0
0
ARC
8
0
10
-25.304828
20
195.250788
30
0.0
40
0.300000
50
0.000000
51
90.000000
0
LINE
8
0
10
-25.004828
20
195.250788
30
0.0
11
-25.004828
21
178.750788
31
0.0
0
ARC
8
0
10
-25.304828
20
178.750788
30
0.0
40
0.300000
50
270.000000
51
0.000000
0
LINE
8
0
10
-25.304828
20
178.450788
30
0.0
11
-25.904828
21
178.450788
31
0.0
0
ARC
8
0
10
-25.904828
20
178.750788
30
0.0
40
0.300000
50
180.000000
51
270.000000
0
LINE
8
0
10
-26.204828
20
178.750788
30
0.0
11
-26.204828
21
179.650788
31
0.0
0
ARC
8
0
10
-26.504828
20
179.650788
30
0.0
40
0.300000
50
0.000000
51
90.000000
0
LINE
8
0
10
-26.504828
20
179.950788
30
0.0
11
-27.204828
21
179.950788
31
0.0
0
ARC
8
0
10
-27.204828
20
179.650788
30
0.0
40
0.300000
50
90.000000
51
180.000000
0
LINE
8
0
10
-27.504828
20
179.650788
30
0.0
11
-27.504828
21
176.050788
31
0.0
0
ARC
8
0
10
-27.204828
20
176.050788
30
0.0
40
0.300000
50
180.000000
51
270.000000
0
LINE
8
0
10
-27.204828
20
175.750788
30
0.0
11
-26.804828
21
175.750788
31
0.0
0
ARC
8
0
10
-26.804828
20
176.050788
30
0.0
40
0.300000
50
270.000000
51
0.000000
0
LINE
8
0
10
-26.504828
20
176.050788
30
0.0
11
-26.504828
21
176.950788
31
0.0
0
ARC
8
0
10
-26.204828
20
176.950788
30
0.0
40
0.300000
50
90.000000
51
180.000000
0
LINE
8
0
10
-26.204828
20
177.250788
30
0.0
11
-25.506851
21
177.250788
31
0.0
0
ARC
8
0
10
-25.506851
20
176.950788
30
0.0
40
0.300000
50
0.000000
51
90.000000
0
LINE
8
0
10
-25.206851
20
176.950788
30
0.0
11
-25.206851
21
176.200788
31
0.0
0
ARC
8
0
10
-24.906851
20
176.200788
30
0.0
40
0.300000
50
180.000000
51
240.000000
0
ARC
8
0
10
-25.206851
20
175.681173
30
0.0
40
0.300000
50
0.000000
51
60.000000
0
LINE
8
0
10
-24.906851
20
175.681173
30
0.0
11
-24.906851
21
171.220404
31
0.0
0
ARC
8
0
10
-25.206851
20
171.220404
30
0.0
40
0.300000
50
300.000000
51
0.000000
0
ARC
8
0
10
-24.906851
20
170.700788
30
0.0
40
0.300000
50
120.000000
51
180.000000
0
LINE
8
0
10
-25.206851
20
170.700788
30
0.0
11
-25.206851
21
169.950788
31
0.0
0
ARC
8
0
10
-25.506851
20
169.950788
30
0.0
40
0.300000
50
270.000000
51
0.000000
0
LINE
8
0
10
-25.506851
20
169.650788
30
0.0
11
-26.204828
21
169.650788
31
0.0
0
ARC
8
0
10
-26.204828
20
169.950788
30
0.0
40
0.300000
50
180.000000
51
270.000000
0
LINE
8
0
10
-26.504828
20
169.950788
30
0.0
11
-26.504828
21
170.850788
31
0.0
0
ARC
8
0
10
-26.804828
20
170.850788
30
0.0
40
0.300000
50
0.000000
51
90.000000
0
LINE
8
0
10
-26.804828
20
171.150788
30
0.0
11
-27.204828
21
171.150788
31
0.0
0
ARC
8
0
10
-27.204828
20
170.850788
30
0.0
40
0.300000
50
90.000000
51
180.000000
0
LINE
8
0
10
-27.504828
20
170.850788
30
0.0
11
-27.504828
21
168.750788
31
0.0
0
ARC
8
0
10
-27.204828
20
168.750788
30
0.0
40
0.300000
50
180.000000
51
270.000000
0
LINE
8
0
10
-27.204828
20
168.450788
30
0.0
11
-24.004828
21
168.450788
31
0.0
0
ARC
8
0
10
-24.004828
20
168.950788
30
0.0
40
0.500000
50
270.000000
51
0.000000
0
LINE
8
0
10
-23.504828
20
168.950788
30
0.0
11
-23.504828
21
232.150788
31
0.0
0
ARC
8
0
10
-23.804828
20
232.150788
30
0.0
40
0.300000
50
0.000000
51
90.000000
0
LINE
8
0
10
-23.804828
20
232.450788
30
0.0
11
-27.054273
21
232.450788
31
0.0
0
ARC
8
0
10
-27.054273
20
232.150788
30
0.0
40
0.300000
50
90.000000
51
150.000000
0
LINE
8
0
10
-27.314080
20
232.300788
30
0.0
11
-27.764636
21
231.520404
31
0.0
0
ARC
8
0
10
-27.504828
20
231.370404
30
0.0
40
0.300000
50
150.000000
51
180.000000
0
LINE
8
0
10
-27.804828
20
231.370404
30
0.0
11
-27.804828
21
231.250788
31
0.0
0
ARC
8
0
10
-27.504828
20
231.250788
30
0.0
40
0.300000
50
180.000000
51
270.000000
0
LINE
8
0
10
-27.504828
20
230.950788
30
0.0
11
-25.604828
21
230.950788
31
0.0
0
ARC
8
0
10
-25.604828
20
230.650788
30
0.0
40
0.300000
50
0.000000
51
90.000000
0
LINE
8
0
10
-25.304828
20
230.650788
30
0.0
11
-25.304828
21
227.750788
31
0.0
0
ARC
8
0
10
-25.604828
20
227.750788
30
0.0
40
0.300000
50
270.000000
51
0.000000
0
LINE
8
0
10
-25.604828
20
227.450788
30
0.0
11
-30.774307
21
227.450788
31
0.0
0
ARC
8
0
10
-30.774307
20
227.150788
30
0.0
40
0.300000
50
90.000000
51
109.778171
0
LINE
8
0
10
-30.875821
20
227.433091
30
0.0
11
-32.176145
21
226.965505
31
0.0
0
ARC
8
0
10
-32.255664
20
227.186643
30
0.0
40
0.235000
50
204.000000
51
289.778171
0
ARC
8
0
10
-32.691599
20
227.010229
30
0.0
40
0.235000
50
24.000000
51
90.000000
0
LINE
8
0
10
-32.690042
20
227.245224
30
0.0
11
-34.268971
21
227.255681
31
0.0
0
ARC
8
0
10
-34.270958
20
226.955688
30
0.0
40
0.300000
50
90.000000
51
204.620541
0
LINE
8
0
10
-34.543684
20
226.830706
30
0.0
11
-33.595034
21
224.725190
31
0.0
0
ARC
8
0
10
-33.321514
20
224.848426
30
0.0
40
0.300000
50
204.254172
51
244.620541
0
LINE
8
0
10
-33.450097
20
224.577379
30
0.0
11
-32.942675
21
224.336660
31
0.0
0
ARC
8
0
10
-32.856952
20
224.517358
30
0.0
40
0.200000
50
244.620541
51
4.620541
0
LINE
8
0
10
-32.657602
20
224.533469
30
0.0
11
-32.666904
21
224.648564
31
0.0
0
ARC
8
0
10
-32.367879
20
224.672731
30
0.0
40
0.300000
50
124.620541
51
184.620541
0
LINE
8
0
10
-32.538321
20
224.919611
30
0.0
11
-30.909564
21
226.044077
31
0.0
0
LINE
8
0
10
-30.909564
20
226.044077
30
0.0
11
-30.726855
21
226.125424
31
0.0
0
ARC
8
0
10
-30.604853
20
225.851342
30
0.0
40
0.300009
50
311.812671
51
113.995287
0
ARC
8
0
10
-30.204828
20
225.404137
30
0.0
40
0.300000
50
131.812671
51
180.000000
0
LINE
8
0
10
-30.504828
20
225.404137
30
0.0
11
-30.504828
21
221.551351
31
0.0
0
ARC
8
0
10
-30.804828
20
221.551351
30
0.0
40
0.300000
50
270.000000
51
0.000000
0
LINE
8
0
10
-30.804828
20
221.251351
30
0.0
11
-31.026021
21
221.251351
31
0.0
0
ARC
8
0
10
-31.026021
20
221.551351
30
0.0
40
0.300000
50
238.600000
51
270.000000
0
LINE
8
0
10
-31.182324
20
221.295286
30
0.0
11
-32.700626
21
222.222061
31
0.0
0
ARC
8
0
10
-32.804828
20
222.051351
30
0.0
40
0.200000
50
58.600000
51
180.000000
0
LINE
8
0
10
-33.004828
20
222.051351
30
0.0
11
-33.004828
21
221.701351
31
0.0
0
ARC
8
0
10
-33.304828
20
221.701351
30
0.0
40
0.300000
50
270.000000
51
0.000000
0
LINE
8
0
10
-33.304828
20
221.401351
30
0.0
11
-36.718062
21
221.401351
31
0.0
0
ARC
8
0
10
-36.718062
20
220.401351
30
0.0
40
1.000000
50
90.000000
51
121.400000
0
LINE
8
0
10
-37.239072
20
221.254902
30
0.0
11
-37.525838
21
221.079859
31
0.0
0
ARC
8
0
10
-37.004828
20
220.226308
30
0.0
40
1.000000
50
121.400000
51
180.000000
0
LINE
8
0
10
-38.004828
20
220.226308
30
0.0
11
-38.004828
21
218.800725
31
0.0
0
ARC
8
0
10
-37.804828
20
218.800725
30
0.0
40
0.200000
50
180.000000
51
301.400000
0
LINE
8
0
10
-37.700626
20
218.630015
30
0.0
11
-36.182324
21
219.556790
31
0.0
0
ARC
8
0
10
-36.026021
20
219.300725
30
0.0
40
0.300000
50
90.000000
51
121.400000
0
LINE
8
0
10
-36.026021
20
219.600725
30
0.0
11
-35.804828
21
219.600725
31
0.0
0
ARC
8
0
10
-35.804828
20
219.300725
30
0.0
40
0.300000
50
0.000000
51
90.000000
0
LINE
8
0
10
-35.504828
20
219.300725
30
0.0
11
-35.504828
21
215.447939
31
0.0
0
ARC
8
0
10
-35.204828
20
215.447939
30
0.0
40
0.300000
50
180.000000
51
228.187329
0
ARC
8
0
10
-35.604853
20
215.000734
30
0.0
40
0.300009
50
246.004713
51
48.187329
0
LINE
8
0
10
-35.726855
20
214.726652
30
0.0
11
-35.909564
21
214.807999
31
0.0
0
LINE
8
0
10
-35.909564
20
214.807999
30
0.0
11
-37.538321
21
215.932465
31
0.0
0
ARC
8
0
10
-37.367879
20
216.179345
30
0.0
40
0.300000
50
175.379459
51
235.379459
0
LINE
8
0
10
-37.666904
20
216.203512
30
0.0
11
-37.657602
21
216.318607
31
0.0
0
ARC
8
0
10
-37.856952
20
216.334718
30
0.0
40
0.200000
50
355.379459
51
115.379459
0
LINE
8
0
10
-37.942675
20
216.515416
30
0.0
11
-38.450097
21
216.274697
31
0.0
0
ARC
8
0
10
-38.321514
20
216.003650
30
0.0
40
0.300000
50
115.379459
51
155.745828
0
LINE
8
0
10
-38.595034
20
216.126886
30
0.0
11
-39.543684
21
214.021370
31
0.0
0
ARC
8
0
10
-39.270958
20
213.896388
30
0.0
40
0.300000
50
155.379459
51
270.000000
0
LINE
8
0
10
-39.268971
20
213.596395
30
0.0
11
-37.690042
21
213.606852
31
0.0
0
ARC
8
0
10
-37.691599
20
213.841847
30
0.0
40
0.235000
50
270.000000
51
336.000000
0
ARC
8
0
10
-37.255664
20
213.665433
30
0.0
40
0.235000
50
70.221829
51
156.000000
0
LINE
8
0
10
-37.176145
20
213.886571
30
0.0
11
-35.703314
21
213.356953
31
0.0
0
ARC
8
0
10
-35.804828
20
213.074650
30
0.0
40
0.300000
50
0.000000
51
70.221829
0
LINE
8
0
10
-35.504828
20
213.074650
30
0.0
11
-35.504828
21
206.251351
31
0.0
0
ARC
8
0
10
-36.004828
20
206.251351
30
0.0
40
0.500000
50
270.000000
51
0.000000
0
ARC
8
0
10
-36.004828
20
205.251351
30
0.0
40
0.500000
50
90.000000
51
180.000000
0
LINE
8
0
10
-36.504828
20
205.251351
30
0.0
11
-36.504828
21
204.751351
31
0.0
0
ARC
8
0
10
-36.004828
20
204.751351
30
0.0
40
0.500000
50
180.000000
51
270.000000
0
LINE
8
0
10
-36.004828
20
204.251351
30
0.0
11
-32.004828
21
204.251351
31
0.0
0
LINE
8
0
10
-32.004828
20
204.251351
30
0.0
11
-31.704828
21
204.551351
31
0.0
0
LINE
8
0
10
-31.704828
20
204.551351
30
0.0
11
-31.404828
21
204.251351
31
0.0
0
LINE
8
0
10
-31.404828
20
204.251351
30
0.0
11
-26.258389
21
204.251351
31
0.0
0
ARC
8
0
10
-26.258389
20
203.251351
30
0.0
40
1.000000
50
2.628630
51
90.000000
0
LINE
8
0
10
-25.259441
20
203.297213
30
0.0
11
-25.004828
21
197.751351
31
0.0
0
LINE
8
0
10
-25.004828
20
197.751351
30
0.0
11
-25.004828
21
197.050788
31
0.0
0
ARC
8
0
10
-25.304828
20
197.050788
30
0.0
40
0.300000
50
270.000000
51
0.000000
0
LINE
8
0
10
-25.304828
20
196.750788
30
0.0
11
-27.204828
21
196.750788
31
0.0
0
ARC
8
0
10
-27.204828
20
196.450788
30
0.0
40
0.300000
50
90.000000
51
180.000000
0
LINE
8
0
10
-27.504828
20
196.450788
30
0.0
11
-27.504828
21
194.350788
31
0.0
0
ARC
8
0
10
-27.204828
20
194.350788
30
0.0
40
0.300000
50
180.000000
51
270.000000
0
LINE
8
0
10
-27.204828
20
194.050788
30
0.0
11
-26.504828
21
194.050788
31
0.0
0
ARC
8
0
10
-83.704828
20
225.650788
30
0.0
40
0.300000
50
90.000000
51
180.000000
0
LINE
8
0
10
-84.004828
20
225.650788
30
0.0
11
-84.004828
21
206.051351
31
0.0
0
ARC
8
0
10
-83.704828
20
206.051351
30
0.0
40
0.300000
50
180.000000
51
270.000000
0
LINE
8
0
10
-83.704828
20
205.751351
30
0.0
11
-75.304828
21
205.751351
31
0.0
0
ARC
8
0
10
-75.304828
20
206.051351
30
0.0
40
0.300000
50
270.000000
51
0.000000
0
LINE
8
0
10
-75.004828
20
206.051351
30
0.0
11
-75.004828
21
219.151351
31
0.0
0
ARC
8
0
10
-75.304828
20
219.151351
30
0.0
40
0.300000
50
0.000000
51
90.000000
0
LINE
8
0
10
-75.304828
20
219.451351
30
0.0
11
-77.004828
21
219.451351
31
0.0
0
LINE
8
0
10
-77.004828
20
219.451351
30
0.0
11
-77.304828
21
219.751351
31
0.0
0
LINE
8
0
10
-77.304828
20
219.751351
30
0.0
11
-77.604828
21
219.451351
31
0.0
0
LINE
8
0
10
-77.604828
20
219.451351
30
0.0
11
-79.804828
21
219.451351
31
0.0
0
ARC
8
0
10
-79.804828
20
219.751351
30
0.0
40
0.300000
50
180.000000
51
270.000000
0
LINE
8
0
10
-80.104828
20
219.751351
30
0.0
11
-80.104828
21
225.650788
31
0.0
0
ARC
8
0
10
-80.404828
20
225.650788
30
0.0
40
0.300000
50
0.000000
51
90.000000
0
LINE
8
0
10
-80.404828
20
225.950788
30
0.0
11
-83.704828
21
225.950788
31
0.0
0
ARC
8
0
10
-83.704828
20
195.250788
30
0.0
40
0.300000
50
90.000000
51
180.000000
0
LINE
8
0
10
-84.004828
20
195.250788
30
0.0
11
-84.004828
21
178.750788
31
0.0
0
ARC
8
0
10
-83.704828
20
178.750788
30
0.0
40
0.300000
50
180.000000
51
270.000000
0
LINE
8
0
10
-83.704828
20
178.450788
30
0.0
11
-83.104828
21
178.450788
31
0.0
0
ARC
8
0
10
-83.104828
20
178.750788
30
0.0
40
0.300000
50
270.000000
51
0.000000
0
LINE
8
0
10
-82.804828
20
178.750788
30
0.0
11
-82.804828
21
179.650788
31
0.0
0
ARC
8
0
10
-82.504828
20
179.650788
30
0.0
40
0.300000
50
90.000000
51
180.000000
0
LINE
8
0
10
-82.504828
20
179.950788
30
0.0
11
-81.804828
21
179.950788
31
0.0
0
ARC
8
0
10
-81.804828
20
179.650788
30
0.0
40
0.300000
50
0.000000
51
90.000000
0
LINE
8
0
10
-81.504828
20
179.650788
30
0.0
11
-81.504828
21
176.050788
31
0.0
0
ARC
8
0
10
-81.804828
20
176.050788
30
0.0
40
0.300000
50
270.000000
51
0.000000
0
LINE
8
0
10
-81.804828
20
175.750788
30
0.0
11
-82.204828
21
175.750788
31
0.0
0
ARC
8
0
10
-82.204828
20
176.050788
30
0.0
40
0.300000
50
180.000000
51
270.000000
0
LINE
8
0
10
-82.504828
20
176.050788
30
0.0
11
-82.504828
21
176.950788
31
0.0
0
ARC
8
0
10
-82.804828
20
176.950788
30
0.0
40
0.300000
50
0.000000
51
90.000000
0
LINE
8
0
10
-82.804828
20
177.250788
30
0.0
11
-83.502806
21
177.250788
31
0.0
0
ARC
8
0
10
-83.502806
20
176.950788
30
0.0
40
0.300000
50
90.000000
51
180.000000
0
LINE
8
0
10
-83.802806
20
176.950788
30
0.0
11
-83.802806
21
176.200788
31
0.0
0
ARC
8
0
10
-84.102806
20
176.200788
30
0.0
40
0.300000
50
300.000000
51
0.000000
0
ARC
8
0
10
-83.802806
20
175.681173
30
0.0
40
0.300000
50
120.000000
51
180.000000
0
LINE
8
0
10
-84.102806
20
175.681173
30
0.0
11
-84.102806
21
171.220404
31
0.0
0
ARC
8
0
10
-83.802806
20
171.220404
30
0.0
40
0.300000
50
180.000000
51
240.000000
0
ARC
8
0
10
-84.102806
20
170.700788
30
0.0
40
0.300000
50
0.000000
51
60.000000
0
LINE
8
0
10
-83.802806
20
170.700788
30
0.0
11
-83.802806
21
169.950788
31
0.0
0
ARC
8
0
10
-83.502806
20
169.950788
30
0.0
40
0.300000
50
180.000000
51
270.000000
0
LINE
8
0
10
-83.502806
20
169.650788
30
0.0
11
-82.804828
21
169.650788
31
0.0
0
ARC
8
0
10
-82.804828
20
169.950788
30
0.0
40
0.300000
50
270.000000
51
0.000000
0
LINE
8
0
10
-82.504828
20
169.950788
30
0.0
11
-82.504828
21
170.850788
31
0.0
0
ARC
8
0
10
-82.204828
20
170.850788
30
0.0
40
0.300000
50
90.000000
51
180.000000
0
LINE
8
0
10
-82.204828
20
171.150788
30
0.0
11
-81.804828
21
171.150788
31
0.0
0
ARC
8
0
10
-81.804828
20
170.850788
30
0.0
40
0.300000
50
0.000000
51
90.000000
0
LINE
8
0
10
-81.504828
20
170.850788
30
0.0
11
-81.504828
21
168.750788
31
0.0
0
ARC
8
0
10
-81.804828
20
168.750788
30
0.0
40
0.300000
50
270.000000
51
0.000000
0
LINE
8
0
10
-81.804828
20
168.450788
30
0.0
11
-85.004828
21
168.450788
31
0.0
0
ARC
8
0
10
-85.004828
20
168.950788
30
0.0
40
0.500000
50
180.000000
51
270.000000
0
LINE
8
0
10
-85.504828
20
168.950788
30
0.0
11
-85.504828
21
250.150788
31
0.0
0
ARC
8
0
10
-85.204828
20
250.150788
30
0.0
40
0.300000
50
90.000000
51
180.000000
0
LINE
8
0
10
-85.204828
20
250.450788
30
0.0
11
-81.304828
21
250.450788
31
0.0
0
ARC
8
0
10
-81.304828
20
250.150788
30
0.0
40
0.300000
50
0.000000
51
90.000000
0
LINE
8
0
10
-81.004828
20
250.150788
30
0.0
11
-81.004828
21
248.650788
31
0.0
0
ARC
8
0
10
-81.704828
20
248.650788
30
0.0
40
0.700000
50
270.000000
51
0.000000
0
ARC
8
0
10
-81.704828
20
248.250788
30
0.0
40
0.300000
50
180.000000
51
270.000000
0
LINE
8
0
10
-82.004828
20
248.250788
30
0.0
11
-82.004828
21
248.950788
31
0.0
0
ARC
8
0
10
-82.304828
20
248.950788
30
0.0
40
0.300000
50
0.000000
51
90.000000
0
LINE
8
0
10
-82.304828
20
249.250788
30
0.0
11
-83.504828
21
249.250788
31
0.0
0
ARC
8
0
10
-83.504828
20
248.550788
30
0.0
40
0.700000
50
90.000000
51
180.000000
0
LINE
8
0
10
-84.204828
20
248.550788
30
0.0
11
-84.204828
21
242.350788
31
0.0
0
ARC
8
0
10
-83.504828
20
242.350788
30
0.0
40
0.700000
50
180.000000
51
270.000000
0
LINE
8
0
10
-83.504828
20
241.650788
30
0.0
11
-82.304828
21
241.650788
31
0.0
0
ARC
8
0
10
-82.304828
20
241.950788
30
0.0
40
0.300000
50
270.000000
51
0.000000
0
LINE
8
0
10
-82.004828
20
241.950788
30
0.0
11
-82.004828
21
242.650788
31
0.0
0
ARC
8
0
10
-81.704828
20
242.650788
30
0.0
40
0.300000
50
90.000000
51
180.000000
0
ARC
8
0
10
-81.704828
20
242.250788
30
0.0
40
0.700000
50
0.000000
51
90.000000
0
LINE
8
0
10
-81.004828
20
242.250788
30
0.0
11
-81.004828
21
239.250788
31
0.0
0
ARC
8
0
10
-81.304828
20
239.250788
30
0.0
40
0.300000
50
270.000000
51
0.000000
0
LINE
8
0
10
-81.304828
20
238.950788
30
0.0
11
-81.704828
21
238.950788
31
0.0
0
ARC
8
0
10
-81.704828
20
239.250788
30
0.0
40
0.300000
50
180.000000
51
270.000000
0
LINE
8
0
10
-82.004828
20
239.250788
30
0.0
11
-82.004828
21
240.150788
31
0.0
0
ARC
8
0
10
-82.304828
20
240.150788
30
0.0
40
0.300000
50
0.000000
51
90.000000
0
LINE
8
0
10
-82.304828
20
240.450788
30
0.0
11
-83.704828
21
240.450788
31
0.0
0
ARC
8
0
10
-83.704828
20
240.150788
30
0.0
40
0.300000
50
90.000000
51
180.000000
0
LINE
8
0
10
-84.004828
20
240.150788
30
0.0
11
-84.004828
21
233.950788
31
0.0
0
LINE
8
0
10
-84.004828
20
233.950788
30
0.0
11
-83.750215
21
228.404926
31
0.0
0
ARC
8
0
10
-82.751267
20
228.450788
30
0.0
40
1.000000
50
182.628630
51
270.000000
0
LINE
8
0
10
-82.751267
20
227.450788
30
0.0
11
-78.235349
21
227.450788
31
0.0
0
ARC
8
0
10
-78.235349
20
227.150788
30
0.0
40
0.300000
50
70.221829
51
90.000000
0
LINE
8
0
10
-78.133835
20
227.433091
30
0.0
11
-76.833511
21
226.965505
31
0.0
0
ARC
8
0
10
-76.753992
20
227.186643
30
0.0
40
0.235000
50
250.221829
51
336.000000
0
ARC
8
0
10
-76.318057
20
227.010229
30
0.0
40
0.235000
50
90.000000
51
156.000000
0
LINE
8
0
10
-76.319614
20
227.245224
30
0.0
11
-74.740686
21
227.255681
31
0.0
0
ARC
8
0
10
-74.738699
20
226.955688
30
0.0
40
0.300000
50
335.379459
51
90.000000
0
LINE
8
0
10
-74.465973
20
226.830706
30
0.0
11
-75.414623
21
224.725190
31
0.0
0
ARC
8
0
10
-75.688142
20
224.848426
30
0.0
40
0.300000
50
295.379459
51
335.745828
0
LINE
8
0
10
-75.559559
20
224.577379
30
0.0
11
-76.066982
21
224.336660
31
0.0
0
ARC
8
0
10
-76.152704
20
224.517358
30
0.0
40
0.200000
50
175.379459
51
295.379459
0
LINE
8
0
10
-76.352054
20
224.533469
30
0.0
11
-76.342752
21
224.648564
31
0.0
0
ARC
8
0
10
-76.641777
20
224.672731
30
0.0
40
0.300000
50
355.379459
51
55.379459
0
LINE
8
0
10
-76.471335
20
224.919611
30
0.0
11
-78.100092
21
226.044077
31
0.0
0
LINE
8
0
10
-78.100092
20
226.044077
30
0.0
11
-78.282801
21
226.125424
31
0.0
0
ARC
8
0
10
-78.404803
20
225.851342
30
0.0
40
0.300009
50
66.004713
51
228.187329
0
ARC
8
0
10
-78.804828
20
225.404137
30
0.0
40
0.300000
50
0.000000
51
48.187329
0
LINE
8
0
10
-78.504828
20
225.404137
30
0.0
11
-78.504828
21
221.551351
31
0.0
0
ARC
8
0
10
-78.204828
20
221.551351
30
0.0
40
0.300000
50
180.000000
51
270.000000
0
LINE
8
0
10
-78.204828
20
221.251351
30
0.0
11
-77.983635
21
221.251351
31
0.0
0
ARC
8
0
10
-77.983635
20
221.551351
30
0.0
40
0.300000
50
270.000000
51
301.400000
0
LINE
8
0
10
-77.827332
20
221.295286
30
0.0
11
-76.309030
21
222.222061
31
0.0
0
ARC
8
0
10
-76.204828
20
222.051351
30
0.0
40
0.200000
50
0.000000
51
121.400000
0
LINE
8
0
10
-76.004828
20
222.051351
30
0.0
11
-76.004828
21
221.701351
31
0.0
0
ARC
8
0
10
-75.704828
20
221.701351
30
0.0
40
0.300000
50
180.000000
51
270.000000
0
LINE
8
0
10
-75.704828
20
221.401351
30
0.0
11
-72.291594
21
221.401351
31
0.0
0
ARC
8
0
10
-72.291594
20
220.401351
30
0.0
40
1.000000
50
58.600000
51
90.000000
0
LINE
8
0
10
-71.770585
20
221.254902
30
0.0
11
-71.483818
21
221.079859
31
0.0
0
ARC
8
0
10
-72.004828
20
220.226308
30
0.0
40
1.000000
50
0.000000
51
58.600000
0
LINE
8
0
10
-71.004828
20
220.226308
30
0.0
11
-71.004828
21
218.800725
31
0.0
0
ARC
8
0
10
-71.204828
20
218.800725
30
0.0
40
0.200000
50
238.600000
51
0.000000
0
LINE
8
0
10
-71.309030
20
218.630015
30
0.0
11
-72.827332
21
219.556790
31
0.0
0
ARC
8
0
10
-72.983635
20
219.300725
30
0.0
40
0.300000
50
58.600000
51
90.000000
0
LINE
8
0
10
-72.983635
20
219.600725
30
0.0
11
-73.204828
21
219.600725
31
0.0
0
ARC
8
0
10
-73.204828
20
219.300725
30
0.0
40
0.300000
50
90.000000
51
180.000000
0
LINE
8
0
10
-73.504828
20
219.300725
30
0.0
11
-73.504828
21
215.447939
31
0.0
0
ARC
8
0
10
-73.804828
20
215.447939
30
0.0
40
0.300000
50
311.812671
51
0.000000
0
ARC
8
0
10
-73.404803
20
215.000734
30
0.0
40
0.300009
50
131.812671
51
293.995287
0
LINE
8
0
10
-73.282801
20
214.726652
30
0.0
11
-73.100092
21
214.807999
31
0.0
0
LINE
8
0
10
-73.100092
20
214.807999
30
0.0
11
-71.471335
21
215.932465
31
0.0
0
ARC
8
0
10
-71.641777
20
216.179345
30
0.0
40
0.300000
50
304.620541
51
4.620541
0
LINE
8
0
10
-71.342752
20
216.203512
30
0.0
11
-71.352054
21
216.318607
31
0.0
0
ARC
8
0
10
-71.152704
20
216.334718
30
0.0
40
0.200000
50
64.620541
51
184.620541
0
LINE
8
0
10
-71.066982
20
216.515416
30
0.0
11
-70.559559
21
216.274697
31
0.0
0
ARC
8
0
10
-70.688142
20
216.003650
30
0.0
40
0.300000
50
24.254172
51
64.620541
0
LINE
8
0
10
-70.414623
20
216.126886
30
0.0
11
-69.465973
21
214.021370
31
0.0
0
ARC
8
0
10
-69.738699
20
213.896388
30
0.0
40
0.300000
50
270.000000
51
24.620541
0
LINE
8
0
10
-69.740686
20
213.596395
30
0.0
11
-71.319614
21
213.606852
31
0.0
0
ARC
8
0
10
-71.318057
20
213.841847
30
0.0
40
0.235000
50
204.000000
51
270.000000
0
ARC
8
0
10
-71.753992
20
213.665433
30
0.0
40
0.235000
50
24.000000
51
109.778171
0
LINE
8
0
10
-71.833511
20
213.886571
30
0.0
11
-73.306342
21
213.356953
31
0.0
0
ARC
8
0
10
-73.204828
20
213.074650
30
0.0
40
0.300000
50
109.778171
51
180.000000
0
LINE
8
0
10
-73.504828
20
213.074650
30
0.0
11
-73.504828
21
206.251351
31
0.0
0
ARC
8
0
10
-73.004828
20
206.251351
30
0.0
40
0.500000
50
180.000000
51
270.000000
0
ARC
8
0
10
-73.004828
20
205.251351
30
0.0
40
0.500000
50
0.000000
51
90.000000
0
LINE
8
0
10
-72.504828
20
205.251351
30
0.0
11
-72.504828
21
204.751351
31
0.0
0
ARC
8
0
10
-73.004828
20
204.751351
30
0.0
40
0.500000
50
270.000000
51
0.000000
0
LINE
8
0
10
-73.004828
20
204.251351
30
0.0
11
-77.004828
21
204.251351
31
0.0
0
LINE
8
0
10
-77.004828
20
204.251351
30
0.0
11
-77.304828
21
204.551351
31
0.0
0
LINE
8
0
10
-77.304828
20
204.551351
30
0.0
11
-77.604828
21
204.251351
31
0.0
0
LINE
8
0
10
-77.604828
20
204.251351
30
0.0
11
-82.751267
21
204.251351
31
0.0
0
ARC
8
0
10
-82.751267
20
203.251351
30
0.0
40
1.000000
50
90.000000
51
177.371370
0
LINE
8
0
10
-83.750215
20
203.297213
30
0.0
11
-84.004828
21
197.751351
31
0.0
0
LINE
8
0
10
-84.004828
20
197.751351
30
0.0
11
-84.004828
21
197.050788
31
0.0
0
ARC
8
0
10
-83.704828
20
197.050788
30
0.0
40
0.300000
50
180.000000
51
270.000000
0
LINE
8
0
10
-83.704828
20
196.750788
30
0.0
11
-81.804828
21
196.750788
31
0.0
0
ARC
8
0
10
-81.804828
20
196.450788
30
0.0
40
0.300000
50
0.000000
51
90.000000
0
LINE
8
0
10
-81.504828
20
196.450788
30
0.0
11
-81.504828
21
194.350788
31
0.0
0
ARC
8
0
10
-81.804828
20
194.350788
30
0.0
40
0.300000
50
270.000000
51
0.000000
0
LINE
8
0
10
-81.804828
20
194.050788
30
0.0
11
-82.504828
21
194.050788
31
0.0
0
ARC
8
0
10
-82.504828
20
194.350788
30
0.0
40
0.300000
50
180.000000
51
270.000000
0
LINE
8
0
10
-82.804828
20
194.350788
30
0.0
11
-82.804828
21
195.250788
31
0.0
0
ARC
8
0
10
-83.104828
20
195.250788
30
0.0
40
0.300000
50
0.000000
51
90.000000
0
LINE
8
0
10
-83.104828
20
195.550788
30
0.0
11
-83.704828
21
195.550788
31
0.0
0
LINE
8
0
10
-76.389829
20
222.190211
30
0.0
11
-77.798439
21
221.377551
31
0.0
0
ARC
8
0
10
-77.898384
20
221.550788
30
0.0
40
0.200000
50
270.000000
51
299.981639
0
LINE
8
0
10
-77.898384
20
221.350788
30
0.0
11
-78.104828
21
221.350788
31
0.0
0
ARC
8
0
10
-78.104828
20
221.750788
30
0.0
40
0.400000
50
180.000000
51
270.000000
0
LINE
8
0
10
-78.504828
20
221.750788
30
0.0
11
-78.504828
21
225.150788
31
0.0
0
ARC
8
0
10
-78.104828
20
225.150788
30
0.0
40
0.400000
50
90.000000
51
180.000000
0
LINE
8
0
10
-78.104828
20
225.550788
30
0.0
11
-77.898384
21
225.550788
31
0.0
0
ARC
8
0
10
-77.898384
20
225.350788
30
0.0
40
0.200000
50
60.018361
51
90.000000
0
LINE
8
0
10
-77.798439
20
225.524025
30
0.0
11
-76.389829
21
224.711365
31
0.0
0
ARC
8
0
10
-75.790162
20
225.750788
30
0.0
40
1.200000
50
240.018361
51
270.000000
0
LINE
8
0
10
-75.790162
20
224.550788
30
0.0
11
-75.107460
21
224.550788
31
0.0
0
ARC
8
0
10
-75.107460
20
224.850788
30
0.0
40
0.300000
50
270.000000
51
324.745828
0
LINE
8
0
10
-74.862480
20
224.677627
30
0.0
11
-73.051725
21
227.239390
31
0.0
0
ARC
8
0
10
-72.643425
20
226.950788
30
0.0
40
0.500000
50
90.000000
51
144.745828
0
LINE
8
0
10
-72.643425
20
227.450788
30
0.0
11
-42.004828
21
227.450788
31
0.0
0
ARC
8
0
10
-42.004828
20
227.950788
30
0.0
40
0.500000
50
270.000000
51
0.000000
0
LINE
8
0
10
-41.504828
20
227.950788
30
0.0
11
-41.504828
21
232.150788
31
0.0
0
ARC
8
0
10
-41.204828
20
232.150788
30
0.0
40
0.300000
50
90.000000
51
180.000000
0
LINE
8
0
10
-41.204828
20
232.450788
30
0.0
11
-38.555383
21
232.450788
31
0.0
0
ARC
8
0
10
-38.555383
20
232.150788
30
0.0
40
0.300000
50
30.000000
51
90.000000
0
LINE
8
0
10
-38.295576
20
232.300788
30
0.0
11
-37.845020
21
231.520403
31
0.0
0
ARC
8
0
10
-38.104828
20
231.370403
30
0.0
40
0.300000
50
0.000000
51
30.000000
0
LINE
8
0
10
-37.804828
20
231.370403
30
0.0
11
-37.804828
21
231.250788
31
0.0
0
ARC
8
0
10
-38.104828
20
231.250788
30
0.0
40
0.300000
50
270.000000
51
0.000000
0
LINE
8
0
10
-38.104828
20
230.950788
30
0.0
11
-39.504828
21
230.950788
31
0.0
0
ARC
8
0
10
-39.504828
20
230.650788
30
0.0
40
0.300000
50
90.000000
51
180.000000
0
LINE
8
0
10
-39.804828
20
230.650788
30
0.0
11
-39.804828
21
227.950788
31
0.0
0
ARC
8
0
10
-39.304828
20
227.950788
30
0.0
40
0.500000
50
180.000000
51
270.000000
0
LINE
8
0
10
-39.304828
20
227.450788
30
0.0
11
-36.366231
21
227.450788
31
0.0
0
ARC
8
0
10
-36.366231
20
226.950788
30
0.0
40
0.500000
50
35.254172
51
90.000000
0
LINE
8
0
10
-35.957931
20
227.239390
30
0.0
11
-34.147176
21
224.677627
31
0.0
0
ARC
8
0
10
-33.902196
20
224.850788
30
0.0
40
0.300000
50
215.254172
51
270.000000
0
LINE
8
0
10
-33.902196
20
224.550788
30
0.0
11
-33.219494
21
224.550788
31
0.0
0
ARC
8
0
10
-33.219494
20
225.750788
30
0.0
40
1.200000
50
270.000000
51
299.981639
0
LINE
8
0
10
-32.619827
20
224.711365
30
0.0
11
-31.211217
21
225.524025
31
0.0
0
ARC
8
0
10
-31.111273
20
225.350788
30
0.0
40
0.200000
50
90.000000
51
119.981639
0
LINE
8
0
10
-31.111273
20
225.550788
30
0.0
11
-30.904828
21
225.550788
31
0.0
0
ARC
8
0
10
-30.904828
20
225.150788
30
0.0
40
0.400000
50
0.000000
51
90.000000
0
LINE
8
0
10
-30.504828
20
225.150788
30
0.0
11
-30.504828
21
221.750788
31
0.0
0
ARC
8
0
10
-30.904828
20
221.750788
30
0.0
40
0.400000
50
270.000000
51
0.000000
0
LINE
8
0
10
-30.904828
20
221.350788
30
0.0
11
-31.111273
21
221.350788
31
0.0
0
ARC
8
0
10
-31.111273
20
221.550788
30
0.0
40
0.200000
50
240.018361
51
270.000000
0
LINE
8
0
10
-31.211217
20
221.377551
30
0.0
11
-32.619827
21
222.190211
31
0.0
0
ARC
8
0
10
-33.219494
20
221.150788
30
0.0
40
1.200000
50
60.018361
51
90.000000
0
LINE
8
0
10
-33.219494
20
222.350788
30
0.0
11
-34.678823
21
222.350788
31
0.0
0
ARC
8
0
10
-34.678823
20
223.350788
30
0.0
40
1.000000
50
215.254172
51
270.000000
0
LINE
8
0
10
-35.495422
20
222.773583
30
0.0
11
-37.029157
21
224.943432
31
0.0
0
ARC
8
0
10
-38.009076
20
224.250786
30
0.0
40
1.200000
50
35.254172
51
90.000000
0
LINE
8
0
10
-38.009076
20
225.450786
30
0.0
11
-71.000580
21
225.450786
31
0.0
0
ARC
8
0
10
-71.000580
20
224.250786
30
0.0
40
1.200000
50
90.000000
51
144.745828
0
LINE
8
0
10
-71.980500
20
224.943432
30
0.0
11
-73.514234
21
222.773583
31
0.0
0
ARC
8
0
10
-74.330833
20
223.350788
30
0.0
40
1.000000
50
270.000000
51
324.745828
0
LINE
8
0
10
-74.330833
20
222.350788
30
0.0
11
-75.790162
21
222.350788
31
0.0
0
ARC
8
0
10
-75.790162
20
221.150788
30
0.0
40
1.200000
50
90.000000
51
119.981639
0
ARC
8
0
10
-55.004828
20
217.474332
30
0.0
40
1.000000
50
180.000000
51
270.000000
0
LINE
8
0
10
-56.004828
20
217.474332
30
0.0
11
-56.004828
21
224.574332
31
0.0
0
ARC
8
0
10
-56.304828
20
224.574332
30
0.0
40
0.300000
50
0.000000
51
90.000000
0
LINE
8
0
10
-56.304828
20
224.874332
30
0.0
11
-57.904828
21
224.874332
31
0.0
0
ARC
8
0
10
-57.904828
20
224.574332
30
0.0
40
0.300000
50
90.000000
51
180.000000
0
LINE
8
0
10
-58.204828
20
224.574332
30
0.0
11
-58.204828
21
216.374332
31
0.0
0
ARC
8
0
10
-59.204828
20
216.374332
30
0.0
40
1.000000
50
270.000000
51
0.000000
0
LINE
8
0
10
-59.204828
20
215.374332
30
0.0
11
-66.329994
21
215.374332
31
0.0
0
ARC
8
0
10
-66.329994
20
216.374332
30
0.0
40
1.000000
50
215.254172
51
270.000000
0
LINE
8
0
10
-67.146593
20
215.797127
30
0.0
11
-68.669414
21
217.951536
31
0.0
0
ARC
8
0
10
-69.486014
20
217.374332
30
0.0
40
1.000000
50
35.254172
51
90.000000
0
LINE
8
0
10
-69.486014
20
218.374332
30
0.0
11
-70.616828
21
218.374332
31
0.0
0
ARC
8
0
10
-70.616828
20
219.574332
30
0.0
40
1.200000
50
240.018361
51
270.000000
0
LINE
8
0
10
-71.216495
20
218.534909
30
0.0
11
-72.798439
21
219.447569
31
0.0
0
ARC
8
0
10
-72.898384
20
219.274332
30
0.0
40
0.200000
50
60.018361
51
90.000000
0
LINE
8
0
10
-72.898384
20
219.474332
30
0.0
11
-73.104828
21
219.474332
31
0.0
0
ARC
8
0
10
-73.104828
20
219.074332
30
0.0
40
0.400000
50
90.000000
51
180.000000
0
LINE
8
0
10
-73.504828
20
219.074332
30
0.0
11
-73.504828
21
215.674332
31
0.0
0
ARC
8
0
10
-73.104828
20
215.674332
30
0.0
40
0.400000
50
180.000000
51
270.000000
0
LINE
8
0
10
-73.104828
20
215.274332
30
0.0
11
-72.898384
21
215.274332
31
0.0
0
ARC
8
0
10
-72.898384
20
215.474332
30
0.0
40
0.200000
50
270.000000
51
299.981639
0
LINE
8
0
10
-72.798439
20
215.301095
30
0.0
11
-71.216495
21
216.213754
31
0.0
0
ARC
8
0
10
-70.616828
20
215.174332
30
0.0
40
1.200000
50
90.000000
51
119.981639
0
LINE
8
0
10
-70.616828
20
216.374332
30
0.0
11
-70.159090
21
216.374332
31
0.0
0
ARC
8
0
10
-70.159090
20
216.074332
30
0.0
40
0.300000
50
35.254172
51
90.000000
0
LINE
8
0
10
-69.914110
20
216.247493
30
0.0
11
-68.252779
21
213.897127
31
0.0
0
ARC
8
0
10
-67.436180
20
214.474332
30
0.0
40
1.000000
50
215.254172
51
270.000000
0
LINE
8
0
10
-67.436180
20
213.474332
30
0.0
11
-54.887671
21
213.474332
31
0.0
0
LINE
8
0
10
-54.887671
20
213.474332
30
0.0
11
-54.816960
21
213.503621
31
0.0
0
LINE
8
0
10
-54.816960
20
213.503621
30
0.0
11
-54.575539
21
213.745042
31
0.0
0
ARC
8
0
10
-54.504828
20
213.674332
30
0.0
40
0.100000
50
45.000000
51
135.000000
0
LINE
8
0
10
-54.434117
20
213.745042
30
0.0
11
-54.192696
21
213.503621
31
0.0
0
LINE
8
0
10
-54.192696
20
213.503621
30
0.0
11
-54.121985
21
213.474332
31
0.0
0
LINE
8
0
10
-54.121985
20
213.474332
30
0.0
11
-41.573476
21
213.474332
31
0.0
0
ARC
8
0
10
-41.573476
20
214.474332
30
0.0
40
1.000000
50
270.000000
51
324.745828
0
LINE
8
0
10
-40.756877
20
213.897127
30
0.0
11
-39.095546
21
216.247493
31
0.0
0
ARC
8
0
10
-38.850566
20
216.074332
30
0.0
40
0.300000
50
90.000000
51
144.745828
0
LINE
8
0
10
-38.850566
20
216.374332
30
0.0
11
-38.392828
21
216.374332
31
0.0
0
ARC
8
0
10
-38.392828
20
215.174332
30
0.0
40
1.200000
50
60.018361
51
90.000000
0
LINE
8
0
10
-37.793161
20
216.213754
30
0.0
11
-36.211217
21
215.301095
31
0.0
0
ARC
8
0
10
-36.111273
20
215.474332
30
0.0
40
0.200000
50
240.018361
51
270.000000
0
LINE
8
0
10
-36.111273
20
215.274332
30
0.0
11
-35.904828
21
215.274332
31
0.0
0
ARC
8
0
10
-35.904828
20
215.674332
30
0.0
40
0.400000
50
270.000000
51
0.000000
0
LINE
8
0
10
-35.504828
20
215.674332
30
0.0
11
-35.504828
21
219.074332
31
0.0
0
ARC
8
0
10
-35.904828
20
219.074332
30
0.0
40
0.400000
50
0.000000
51
90.000000
0
LINE
8
0
10
-35.904828
20
219.474332
30
0.0
11
-36.111273
21
219.474332
31
0.0
0
ARC
8
0
10
-36.111273
20
219.274332
30
0.0
40
0.200000
50
90.000000
51
119.981639
0
LINE
8
0
10
-36.211217
20
219.447569
30
0.0
11
-37.793161
21
218.534909
31
0.0
0
ARC
8
0
10
-38.392828
20
219.574332
30
0.0
40
1.200000
50
270.000000
51
299.981639
0
LINE
8
0
10
-38.392828
20
218.374332
30
0.0
11
-39.523642
21
218.374332
31
0.0
0
ARC
8
0
10
-39.523642
20
217.374332
30
0.0
40
1.000000
50
90.000000
51
144.745828
0
LINE
8
0
10
-40.340242
20
217.951536
30
0.0
11
-41.863063
21
215.797127
31
0.0
0
ARC
8
0
10
-42.679663
20
216.374332
30
0.0
40
1.000000
50
270.000000
51
324.745828
0
LINE
8
0
10
-42.679663
20
215.374332
30
0.0
11
-49.804828
21
215.374332
31
0.0
0
ARC
8
0
10
-49.804828
20
216.374332
30
0.0
40
1.000000
50
180.000000
51
270.000000
0
LINE
8
0
10
-50.804828
20
216.374332
30
0.0
11
-50.804828
21
224.574332
31
0.0
0
ARC
8
0
10
-51.104828
20
224.574332
30
0.0
40
0.300000
50
0.000000
51
90.000000
0
LINE
8
0
10
-51.104828
20
224.874332
30
0.0
11
-52.704828
21
224.874332
31
0.0
0
ARC
8
0
10
-52.704828
20
224.574332
30
0.0
40
0.300000
50
90.000000
51
180.000000
0
LINE
8
0
10
-53.004828
20
224.574332
30
0.0
11
-53.004828
21
217.474332
31
0.0
0
ARC
8
0
10
-54.004828
20
217.474332
30
0.0
40
1.000000
50
270.000000
51
0.000000
0
LINE
8
0
10
-54.004828
20
216.474332
30
0.0
11
-55.004828
21
216.474332
31
0.0
0
ATTDEF
8
0
10
-27.054273
20
232.450788
30
0.0
40
3.5
1

3

2
VC_START
70
0
0
ATTDEF
8
0
10
-36.004828
20
204.251351
30
0.0
40
3.5
1

3

2
VC_END
70
0
0
ATTDEF
8
0
10
-85.504828
20
168.450788
30
0.0
40
3.5
1

3

2
FRONT_VIEW
70
0
0
ATTDEF
8
0
10
-85.504828
20
168.450788
30
0.0
40
3.5
1

3

2
BL01:6800.000000,,1
70
0
0
ATTDEF
8
0
10
-85.504828
20
168.450788
30
0.0
40
3.5
1

3

2
OPTI:500.000000,1,0,3000.000000,6500.000000,500.000000,0,0.000000,0
70
0
0
ATTDEF
8
0
10
-85.504828
20
168.450788
30
0.0
40
3.5
1

3

2
GLASS_MIN:0.000000
70
0
0
ATTDEF
8
0
10
-85.504828
20
168.450788
30
0.0
40
3.5
1

3

2
GLASS_MAX:0.000000
70
0
0
ATTDEF
8
0
10
-85.504828
20
168.450788
30
0.0
40
3.5
1

3

2
FP_LCS_ORIG
70
0
0
ATTDEF
8
0
10
-75.504828
20
168.450788
30
0.0
40
3.5
1

3

2
FP_LCS_HOT
70
0
0
ATTDEF
8
0
10
-85.504828
20
178.450788
30
0.0
40
3.5
1

3

2
FP_LCS_INTERN
70
0
0
ATTDEF
8
0
10
0.000000
20
0.000000
30
0.0
40
3.5
1

3

2
TDEV2:0
70
0
0
ATTDEF
8
0
10
0.000000
20
0.000000
30
0.0
40
3.5
1

3

2
TDEV3:0
70
0
0
ATTDEF
8
0
10
0.000000
20
0.000000
30
0.0
40
3.5
1

3

2
TDEV4:0
70
0
0
ATTDEF
8
0
10
0.000000
20
0.000000
30
0.0
40
3.5
1

3

2
TDEV5:0
70
0
0
ATTDEF
8
0
10
0.000000
20
0.000000
30
0.0
40
3.5
1

3

2
PANE_WIDTH:57.5
70
0
0
ATTDEF
8
0
10
0.000000
20
0.000000
30
0.0
40
3.5
1

3

2
MIN_VETRO:0
70
0
0
ATTDEF
8
0
10
0.000000
20
0.000000
30
0.0
40
3.5
1

3

2
MAX_VETRO:0
70
0
0
ATTDEF
8
0
10
0.000000
20
0.000000
30
0.0
40
3.5
1

3

2
JX:0
70
0
0
ATTDEF
8
0
10
0.000000
20
0.000000
30
0.0
40
3.5
1

3

2
WX:0
70
0
0
ATTDEF
8
0
10
0.000000
20
0.000000
30
0.0
40
3.5
1

3

2
JY:0
70
0
0
ATTDEF
8
0
10
0.000000
20
0.000000
30
0.0
40
3.5
1

3

2
WY:0
70
0
0
ATTDEF
8
0
10
0.000000
20
0.000000
30
0.0
40
3.5
1

3

2
DESC:Anta
70
0
0
ATTDEF
8
0
10
0.000000
20
0.000000
30
0.0
40
3.5
1

3

2
DENS:1.55
70
0
0
ATTDEF
8
0
10
0.000000
20
0.000000
30
0.0
40
3.5
1

3

2
TDEV:0
70
0
0
ATTDEF
8
0
10
0.000000
20
0.000000
30
0.0
40
3.5
1

3

2
TDEV2:0
70
0
0
ATTDEF
8
0
10
0.000000
20
0.000000
30
0.0
40
3.5
1

3

2
TDEV3:0
70
0
0
ATTDEF
8
0
10
0.000000
20
0.000000
30
0.0
40
3.5
1

3

2
TDEV4:0
70
0
0
ATTDEF
8
0
10
0.000000
20
0.000000
30
0.0
40
3.5
1

3

2
TDEV5:0
70
0
0
ATTDEF
8
0
10
0.000000
20
0.000000
30
0.0
40
3.5
1

3

2
PANE_WIDTH:57.5
70
0
0
ATTDEF
8
0
10
0.000000
20
0.000000
30
0.0
40
3.5
1

3

2
MIN_VETRO:0
70
0
0
ATTDEF
8
0
10
0.000000
20
0.000000
30
0.0
40
3.5
1

3

2
MAX_VETRO:0
70
0
0
ATTDEF
8
0
10
0.000000
20
0.000000
30
0.0
40
3.5
1

3

2
JX:0
70
0
0
ATTDEF
8
0
10
0.000000
20
0.000000
30
0.0
40
3.5
1

3

2
WX:0
70
0
0
ATTDEF
8
0
10
0.000000
20
0.000000
30
0.0
40
3.5
1

3

2
JY:0
70
0
0
ATTDEF
8
0
10
0.000000
20
0.000000
30
0.0
40
3.5
1

3

2
WY:0
70
0
0
ENDSEC
0
EOF
