0
SECTION
2
ENTITIES
0
LINE
8
0
10
-154.737255
20
228.464021
30
0.0
11
-154.785495
21
228.436517
31
0.0
0
LINE
8
0
10
-154.785495
20
228.436517
30
0.0
11
-156.364512
21
227.330878
31
0.0
0
ARC
8
0
10
-156.192439
20
227.085132
30
0.0
40
0.300000
50
125.000000
51
185.000000
0
LINE
8
0
10
-156.491297
20
227.058985
30
0.0
11
-156.481075
21
226.942143
31
0.0
0
ARC
8
0
10
-156.680314
20
226.924712
30
0.0
40
0.200000
50
245.000000
51
5.000000
0
LINE
8
0
10
-156.764837
20
226.743450
30
0.0
11
-157.231064
21
226.960855
31
0.0
0
ARC
8
0
10
-157.104279
20
227.232748
30
0.0
40
0.300000
50
205.000000
51
245.000000
0
LINE
8
0
10
-157.376171
20
227.105962
30
0.0
11
-158.379709
21
229.258055
31
0.0
0
ARC
8
0
10
-158.107816
20
229.384841
30
0.0
40
0.300000
50
90.000000
51
205.000000
0
LINE
8
0
10
-158.107816
20
229.684841
30
0.0
11
-156.606439
21
229.684841
31
0.0
0
ARC
8
0
10
-156.606439
20
229.384841
30
0.0
40
0.300000
50
30.904283
51
90.000000
0
ARC
8
0
10
-156.091623
20
229.693004
30
0.0
40
0.300000
50
210.904283
51
290.000000
0
LINE
8
0
10
-155.989017
20
229.411096
30
0.0
11
-154.699936
21
229.884304
31
0.0
0
LINE
8
0
10
-154.699936
20
229.884304
30
0.0
11
-149.408117
21
229.883238
31
0.0
0
ARC
8
0
10
-149.408117
20
230.183238
30
0.0
40
0.300000
50
270.000000
51
360.000000
0
LINE
8
0
10
-149.108117
20
230.183238
30
0.0
11
-149.108117
21
233.083238
31
0.0
0
ARC
8
0
10
-149.408117
20
233.083238
30
0.0
40
0.300000
50
360.000000
51
90.000000
0
LINE
8
0
10
-149.408117
20
233.383238
30
0.0
11
-151.308117
21
233.383238
31
0.0
0
ARC
8
0
10
-151.308117
20
233.683238
30
0.0
40
0.300000
50
180.000000
51
270.000000
0
LINE
8
0
10
-151.608117
20
233.683238
30
0.0
11
-151.608117
21
233.802854
31
0.0
0
ARC
8
0
10
-151.308117
20
233.802854
30
0.0
40
0.300000
50
150.000000
51
180.000000
0
LINE
8
0
10
-151.567924
20
233.952854
30
0.0
11
-151.117369
21
234.733238
31
0.0
0
ARC
8
0
10
-150.857562
20
234.583238
30
0.0
40
0.300000
50
90.000000
51
150.000000
0
LINE
8
0
10
-150.857562
20
234.883238
30
0.0
11
-147.608117
21
234.883238
31
0.0
0
ARC
8
0
10
-147.608117
20
234.583238
30
0.0
40
0.300000
50
360.000000
51
90.000000
0
LINE
8
0
10
-147.308117
20
234.583238
30
0.0
11
-147.308117
21
216.183238
31
0.0
0
ARC
8
0
10
-147.608117
20
216.183238
30
0.0
40
0.300000
50
270.000000
51
360.000000
0
LINE
8
0
10
-147.608117
20
215.883238
30
0.0
11
-150.808117
21
215.883238
31
0.0
0
ARC
8
0
10
-150.808117
20
216.383238
30
0.0
40
0.500000
50
180.000000
51
270.000000
0
LINE
8
0
10
-151.308117
20
216.383238
30
0.0
11
-151.308117
21
218.283238
31
0.0
0
ARC
8
0
10
-151.008117
20
218.283238
30
0.0
40
0.300000
50
90.000000
51
180.000000
0
LINE
8
0
10
-151.008117
20
218.583238
30
0.0
11
-150.608117
21
218.583238
31
0.0
0
ARC
8
0
10
-150.608117
20
218.283238
30
0.0
40
0.300000
50
360.000000
51
90.000000
0
LINE
8
0
10
-150.308117
20
218.283238
30
0.0
11
-150.308117
21
217.583238
31
0.0
0
ARC
8
0
10
-150.008117
20
217.583238
30
0.0
40
0.300000
50
180.000000
51
270.000000
0
LINE
8
0
10
-150.008117
20
217.283238
30
0.0
11
-149.010139
21
217.283238
31
0.0
0
ARC
8
0
10
-149.010139
20
217.583238
30
0.0
40
0.300000
50
270.000000
51
360.000000
0
LINE
8
0
10
-148.710139
20
217.583238
30
0.0
11
-148.710139
21
219.783242
31
0.0
0
ARC
8
0
10
-149.010139
20
219.783242
30
0.0
40
0.300000
50
360.000000
51
90.000000
0
ARC
8
0
10
-149.008117
20
220.383238
30
0.0
40
0.300000
50
180.000000
51
270.000000
0
LINE
8
0
10
-149.308117
20
220.383238
30
0.0
11
-149.308117
21
221.783238
31
0.0
0
ARC
8
0
10
-149.608117
20
221.783238
30
0.0
40
0.300000
50
360.000000
51
90.000000
0
LINE
8
0
10
-149.608117
20
222.083238
30
0.0
11
-152.338672
21
222.083238
31
0.0
0
ARC
8
0
10
-152.338672
20
221.783238
30
0.0
40
0.300000
50
90.000000
51
142.857143
0
LINE
8
0
10
-152.577812
20
221.964380
30
0.0
11
-153.405920
21
220.871126
31
0.0
0
ARC
8
0
10
-153.645059
20
221.052267
30
0.0
40
0.300000
50
207.480209
51
322.857143
0
ARC
8
0
10
-155.508117
20
220.083238
30
0.0
40
1.800000
50
27.480209
51
52.857143
0
LINE
8
0
10
-154.421269
20
221.518077
30
0.0
11
-154.240128
21
221.757217
31
0.0
0
ARC
8
0
10
-155.508117
20
220.083238
30
0.0
40
2.100000
50
52.857143
51
92.857143
0
LINE
8
0
10
-155.612793
20
222.180628
30
0.0
11
-155.597839
21
221.881001
31
0.0
0
ARC
8
0
10
-155.508117
20
220.083238
30
0.0
40
1.800000
50
92.857143
51
132.857143
0
LINE
8
0
10
-156.732428
20
221.402732
30
0.0
11
-156.936480
21
221.622647
31
0.0
0
ARC
8
0
10
-155.508117
20
220.083238
30
0.0
40
2.100000
50
132.857143
51
172.857143
0
LINE
8
0
10
-157.591819
20
220.344360
30
0.0
11
-157.294147
21
220.307057
31
0.0
0
ARC
8
0
10
-155.508117
20
220.083238
30
0.0
40
1.800000
50
172.857143
51
212.857143
0
LINE
8
0
10
-157.020164
20
219.106655
30
0.0
11
-157.272171
21
218.943891
31
0.0
0
ARC
8
0
10
-155.508117
20
220.083238
30
0.0
40
2.100000
50
212.857143
51
252.857143
0
LINE
8
0
10
-156.127103
20
218.076535
30
0.0
11
-156.038676
21
218.363207
31
0.0
0
ARC
8
0
10
-155.508117
20
220.083238
30
0.0
40
1.800000
50
252.857143
51
272.729851
0
ARC
8
0
10
-155.398575
20
217.785848
30
0.0
40
0.500000
50
345.285714
51
92.729851
0
LINE
8
0
10
-154.914973
20
217.658849
30
0.0
11
-154.989452
21
217.375240
31
0.0
0
ARC
8
0
10
-156.923861
20
217.883238
30
0.0
40
2.000000
50
270.000000
51
345.285714
0
LINE
8
0
10
-156.923861
20
215.883238
30
0.0
11
-160.147297
21
215.883238
31
0.0
0
ARC
8
0
10
-160.147297
20
216.183238
30
0.0
40
0.300000
50
249.842370
51
270.000000
0
LINE
8
0
10
-160.250679
20
215.901614
30
0.0
11
-161.489017
21
216.356194
31
0.0
0
ARC
8
0
10
-161.591623
20
216.074287
30
0.0
40
0.300000
50
70.000000
51
149.095717
0
ARC
8
0
10
-162.106439
20
216.382450
30
0.0
40
0.300000
50
270.000000
51
329.095717
0
LINE
8
0
10
-162.106439
20
216.082450
30
0.0
11
-163.607816
21
216.082450
31
0.0
0
ARC
8
0
10
-163.607816
20
216.382450
30
0.0
40
0.300000
50
155.000000
51
270.000000
0
LINE
8
0
10
-163.879709
20
216.509235
30
0.0
11
-162.876171
21
218.661329
31
0.0
0
ARC
8
0
10
-162.604279
20
218.534543
30
0.0
40
0.300000
50
115.000000
51
155.000000
0
LINE
8
0
10
-162.731064
20
218.806435
30
0.0
11
-162.264837
21
219.023841
31
0.0
0
ARC
8
0
10
-162.180314
20
218.842579
30
0.0
40
0.200000
50
355.000000
51
115.000000
0
LINE
8
0
10
-161.981075
20
218.825148
30
0.0
11
-161.991297
21
218.708306
31
0.0
0
ARC
8
0
10
-161.692439
20
218.682159
30
0.0
40
0.300000
50
175.000000
51
235.000000
0
LINE
8
0
10
-161.864512
20
218.436413
30
0.0
11
-160.285495
21
217.330774
31
0.0
0
LINE
8
0
10
-160.285495
20
217.330774
30
0.0
11
-160.237255
21
217.303270
31
0.0
0
LINE
8
0
10
-160.237255
20
217.303270
30
0.0
11
-160.032001
21
217.210251
31
0.0
0
ARC
8
0
10
-159.908142
20
217.483499
30
0.0
40
0.300009
50
245.615828
51
48.187329
0
ARC
8
0
10
-159.508117
20
217.930703
30
0.0
40
0.300000
50
180.000000
51
228.187329
0
LINE
8
0
10
-159.808117
20
217.930703
30
0.0
11
-159.808117
21
221.783490
31
0.0
0
ARC
8
0
10
-160.108117
20
221.783490
30
0.0
40
0.300000
50
360.000000
51
90.000000
0
LINE
8
0
10
-160.108117
20
222.083490
30
0.0
11
-160.329310
21
222.083490
31
0.0
0
ARC
8
0
10
-160.329310
20
221.783490
30
0.0
40
0.300000
50
90.000000
51
121.400000
0
LINE
8
0
10
-160.485613
20
222.039555
30
0.0
11
-162.003915
21
221.112780
31
0.0
0
ARC
8
0
10
-162.108117
20
221.283490
30
0.0
40
0.200000
50
180.000000
51
301.400000
0
LINE
8
0
10
-162.308117
20
221.283490
30
0.0
11
-162.308117
21
223.183801
31
0.0
0
ARC
8
0
10
-161.808117
20
223.183801
30
0.0
40
0.500000
50
90.000000
51
180.000000
0
LINE
8
0
10
-161.808117
20
223.683801
30
0.0
11
-157.474142
21
223.683801
31
0.0
0
ARC
8
0
10
-157.474142
20
223.983801
30
0.0
40
0.300000
50
270.000000
51
330.000000
0
LINE
8
0
10
-157.214335
20
223.833801
30
0.0
11
-156.781322
21
224.583801
31
0.0
0
ARC
8
0
10
-156.608117
20
224.483801
30
0.0
40
0.200000
50
58.600000
51
150.000000
0
LINE
8
0
10
-156.503915
20
224.654511
30
0.0
11
-154.985613
21
223.727736
31
0.0
0
ARC
8
0
10
-154.829310
20
223.983801
30
0.0
40
0.300000
50
238.600000
51
270.000000
0
LINE
8
0
10
-154.829310
20
223.683801
30
0.0
11
-154.608117
21
223.683801
31
0.0
0
ARC
8
0
10
-154.608117
20
223.983801
30
0.0
40
0.300000
50
270.000000
51
360.000000
0
LINE
8
0
10
-154.308117
20
223.983801
30
0.0
11
-154.308117
21
227.836587
31
0.0
0
ARC
8
0
10
-154.008117
20
227.836587
30
0.0
40
0.300000
50
131.812671
51
180.000000
0
ARC
8
0
10
-154.408142
20
228.283792
30
0.0
40
0.300009
50
311.812671
51
114.384172
0
LINE
8
0
10
-154.532001
20
228.557040
30
0.0
11
-154.737255
21
228.464021
31
0.0
0
LINE
8
0
10
-152.508054
20
228.083845
30
0.0
11
-149.408054
21
228.083176
31
0.0
0
ARC
8
0
10
-149.408117
20
227.783176
30
0.0
40
0.300000
50
360.000000
51
90.000000
0
LINE
8
0
10
-149.108117
20
227.783176
30
0.0
11
-149.108117
21
223.883238
31
0.0
0
ARC
8
0
10
-149.408117
20
223.883238
30
0.0
40
0.300000
50
270.000000
51
360.000000
0
LINE
8
0
10
-149.408117
20
223.583238
30
0.0
11
-152.508117
21
223.583238
31
0.0
0
ARC
8
0
10
-152.508117
20
223.883238
30
0.0
40
0.300000
50
180.000000
51
270.000000
0
LINE
8
0
10
-152.808117
20
223.883238
30
0.0
11
-152.808117
21
227.783845
31
0.0
0
ARC
8
0
10
-152.508117
20
227.783845
30
0.0
40
0.300000
50
90.000000
51
180.000000
0
LINE
8
0
10
-207.008117
20
228.083176
30
0.0
11
-204.308117
21
228.083176
31
0.0
0
ARC
8
0
10
-204.308117
20
227.583176
30
0.0
40
0.500000
50
360.000000
51
90.000000
0
LINE
8
0
10
-203.808117
20
227.583176
30
0.0
11
-203.808117
21
223.883515
31
0.0
0
ARC
8
0
10
-204.108117
20
223.883515
30
0.0
40
0.300000
50
270.000000
51
360.000000
0
LINE
8
0
10
-204.108086
20
223.583515
30
0.0
11
-207.208086
21
223.582962
31
0.0
0
ARC
8
0
10
-207.208117
20
223.882962
30
0.0
40
0.300000
50
180.000000
51
270.000000
0
LINE
8
0
10
-207.508117
20
223.882962
30
0.0
11
-207.508117
21
227.583176
31
0.0
0
ARC
8
0
10
-207.008117
20
227.583176
30
0.0
40
0.500000
50
90.000000
51
180.000000
0
LINE
8
0
10
-201.003440
20
222.180628
30
0.0
11
-201.018394
21
221.881001
31
0.0
0
ARC
8
0
10
-201.108117
20
220.083238
30
0.0
40
1.800000
50
47.142857
51
87.142857
0
LINE
8
0
10
-199.883806
20
221.402732
30
0.0
11
-199.679754
21
221.622647
31
0.0
0
ARC
8
0
10
-201.108117
20
220.083238
30
0.0
40
2.100000
50
7.142857
51
47.142857
0
LINE
8
0
10
-199.024415
20
220.344360
30
0.0
11
-199.322086
21
220.307057
31
0.0
0
ARC
8
0
10
-201.108117
20
220.083238
30
0.0
40
1.800000
50
327.142857
51
7.142857
0
LINE
8
0
10
-199.596070
20
219.106655
30
0.0
11
-199.344062
21
218.943891
31
0.0
0
ARC
8
0
10
-201.108117
20
220.083238
30
0.0
40
2.100000
50
287.142857
51
327.142857
0
LINE
8
0
10
-200.489131
20
218.076535
30
0.0
11
-200.577558
21
218.363207
31
0.0
0
ARC
8
0
10
-201.108117
20
220.083238
30
0.0
40
1.800000
50
267.270149
51
287.142857
0
ARC
8
0
10
-201.217659
20
217.785848
30
0.0
40
0.500000
50
87.270149
51
194.714286
0
LINE
8
0
10
-201.701261
20
217.658849
30
0.0
11
-201.626782
21
217.375240
31
0.0
0
ARC
8
0
10
-199.692373
20
217.883238
30
0.0
40
2.000000
50
194.714286
51
270.000000
0
LINE
8
0
10
-199.692373
20
215.883238
30
0.0
11
-196.540902
21
215.883238
31
0.0
0
ARC
8
0
10
-196.540902
20
216.183238
30
0.0
40
0.300000
50
270.000000
51
289.778171
0
LINE
8
0
10
-196.439388
20
215.900935
30
0.0
11
-195.136800
21
216.369335
31
0.0
0
ARC
8
0
10
-195.057281
20
216.148198
30
0.0
40
0.235000
50
24.000000
51
109.778171
0
ARC
8
0
10
-194.621346
20
216.324612
30
0.0
40
0.235000
50
204.000000
51
270.000000
0
LINE
8
0
10
-194.622903
20
216.089617
30
0.0
11
-193.043974
21
216.079160
31
0.0
0
ARC
8
0
10
-193.041987
20
216.379153
30
0.0
40
0.300000
50
270.000000
51
24.620541
0
LINE
8
0
10
-192.769261
20
216.504135
30
0.0
11
-193.717911
21
218.609650
31
0.0
0
ARC
8
0
10
-193.991431
20
218.486415
30
0.0
40
0.300000
50
24.254172
51
64.620541
0
LINE
8
0
10
-193.862848
20
218.757461
30
0.0
11
-194.370270
21
218.998181
31
0.0
0
ARC
8
0
10
-194.455993
20
218.817483
30
0.0
40
0.200000
50
64.620541
51
184.620541
0
LINE
8
0
10
-194.655343
20
218.801372
30
0.0
11
-194.646041
21
218.686277
31
0.0
0
ARC
8
0
10
-194.945066
20
218.662110
30
0.0
40
0.300000
50
304.620541
51
4.620541
0
LINE
8
0
10
-194.774624
20
218.415230
30
0.0
11
-196.403381
21
217.290764
31
0.0
0
LINE
8
0
10
-196.403381
20
217.290764
30
0.0
11
-196.586090
21
217.209417
31
0.0
0
ARC
8
0
10
-196.708092
20
217.483499
30
0.0
40
0.300009
50
131.812671
51
293.995287
0
ARC
8
0
10
-197.108117
20
217.930703
30
0.0
40
0.300000
50
311.812671
51
360.000000
0
LINE
8
0
10
-196.808117
20
217.930703
30
0.0
11
-196.808117
21
221.783490
31
0.0
0
ARC
8
0
10
-196.508117
20
221.783490
30
0.0
40
0.300000
50
90.000000
51
180.000000
0
LINE
8
0
10
-196.508117
20
222.083490
30
0.0
11
-196.286924
21
222.083490
31
0.0
0
ARC
8
0
10
-196.286924
20
221.783490
30
0.0
40
0.300000
50
58.600000
51
90.000000
0
LINE
8
0
10
-196.130621
20
222.039555
30
0.0
11
-194.612319
21
221.112780
31
0.0
0
ARC
8
0
10
-194.508117
20
221.283490
30
0.0
40
0.200000
50
238.600000
51
360.000000
0
LINE
8
0
10
-194.308117
20
221.283490
30
0.0
11
-194.308117
21
222.683801
31
0.0
0
ARC
8
0
10
-195.308117
20
222.683801
30
0.0
40
1.000000
50
360.000000
51
90.000000
0
LINE
8
0
10
-195.308117
20
223.683801
30
0.0
11
-199.142091
21
223.683801
31
0.0
0
ARC
8
0
10
-199.142091
20
223.983801
30
0.0
40
0.300000
50
210.000000
51
270.000000
0
LINE
8
0
10
-199.401899
20
223.833801
30
0.0
11
-199.834912
21
224.583801
31
0.0
0
ARC
8
0
10
-200.008117
20
224.483801
30
0.0
40
0.200000
50
30.000000
51
121.400000
0
LINE
8
0
10
-200.112319
20
224.654511
30
0.0
11
-201.630621
21
223.727736
31
0.0
0
ARC
8
0
10
-201.786924
20
223.983801
30
0.0
40
0.300000
50
270.000000
51
301.400000
0
LINE
8
0
10
-201.786924
20
223.683801
30
0.0
11
-202.008117
21
223.683801
31
0.0
0
ARC
8
0
10
-202.008117
20
223.983801
30
0.0
40
0.300000
50
180.000000
51
270.000000
0
LINE
8
0
10
-202.308117
20
223.983801
30
0.0
11
-202.308117
21
227.836587
31
0.0
0
ARC
8
0
10
-202.608117
20
227.836587
30
0.0
40
0.300000
50
360.000000
51
48.187329
0
ARC
8
0
10
-202.208092
20
228.283792
30
0.0
40
0.300009
50
66.004713
51
228.187329
0
LINE
8
0
10
-202.086090
20
228.557874
30
0.0
11
-201.903381
21
228.476527
31
0.0
0
LINE
8
0
10
-201.903381
20
228.476527
30
0.0
11
-200.274624
21
227.352061
31
0.0
0
ARC
8
0
10
-200.445066
20
227.105181
30
0.0
40
0.300000
50
355.379459
51
55.379459
0
LINE
8
0
10
-200.146041
20
227.081014
30
0.0
11
-200.155343
21
226.965919
31
0.0
0
ARC
8
0
10
-199.955993
20
226.949808
30
0.0
40
0.200000
50
175.379459
51
295.379459
0
LINE
8
0
10
-199.870270
20
226.769110
30
0.0
11
-199.362848
21
227.009829
31
0.0
0
ARC
8
0
10
-199.491431
20
227.280876
30
0.0
40
0.300000
50
295.379459
51
335.745828
0
LINE
8
0
10
-199.217911
20
227.157640
30
0.0
11
-198.269261
21
229.263156
31
0.0
0
ARC
8
0
10
-198.541987
20
229.388138
30
0.0
40
0.300000
50
335.379459
51
90.000000
0
LINE
8
0
10
-198.543974
20
229.688131
30
0.0
11
-200.122903
21
229.677674
31
0.0
0
ARC
8
0
10
-200.121346
20
229.442679
30
0.0
40
0.235000
50
90.000000
51
156.000000
0
ARC
8
0
10
-200.557281
20
229.619093
30
0.0
40
0.235000
50
250.221829
51
336.000000
0
LINE
8
0
10
-200.636800
20
229.397955
30
0.0
11
-201.937124
21
229.865541
31
0.0
0
ARC
8
0
10
-202.038638
20
229.583238
30
0.0
40
0.300000
50
70.221829
51
90.000000
0
LINE
8
0
10
-202.038638
20
229.883238
30
0.0
11
-206.554556
21
229.883238
31
0.0
0
ARC
8
0
10
-206.554556
20
230.883238
30
0.0
40
1.000000
50
182.628630
51
270.000000
0
LINE
8
0
10
-207.553504
20
230.837376
30
0.0
11
-207.808117
21
236.383238
31
0.0
0
LINE
8
0
10
-207.808117
20
236.383238
30
0.0
11
-207.808117
21
242.583238
31
0.0
0
ARC
8
0
10
-207.508117
20
242.583238
30
0.0
40
0.300000
50
90.000000
51
180.000000
0
LINE
8
0
10
-207.508117
20
242.883238
30
0.0
11
-206.108117
21
242.883238
31
0.0
0
ARC
8
0
10
-206.108117
20
242.583238
30
0.0
40
0.300000
50
360.000000
51
90.000000
0
LINE
8
0
10
-205.808117
20
242.583238
30
0.0
11
-205.808117
21
241.683238
31
0.0
0
ARC
8
0
10
-205.508117
20
241.683238
30
0.0
40
0.300000
50
180.000000
51
270.000000
0
LINE
8
0
10
-205.508117
20
241.383238
30
0.0
11
-205.108117
21
241.383238
31
0.0
0
ARC
8
0
10
-205.108117
20
241.683238
30
0.0
40
0.300000
50
270.000000
51
360.000000
0
LINE
8
0
10
-204.808117
20
241.683238
30
0.0
11
-204.808117
21
244.683238
31
0.0
0
ARC
8
0
10
-205.508117
20
244.683238
30
0.0
40
0.700000
50
360.000000
51
90.000000
0
ARC
8
0
10
-205.508117
20
245.083238
30
0.0
40
0.300000
50
90.000000
51
180.000000
0
LINE
8
0
10
-205.808117
20
245.083238
30
0.0
11
-205.808117
21
244.383238
31
0.0
0
ARC
8
0
10
-206.108117
20
244.383238
30
0.0
40
0.300000
50
270.000000
51
360.000000
0
LINE
8
0
10
-206.108117
20
244.083238
30
0.0
11
-207.308117
21
244.083238
31
0.0
0
ARC
8
0
10
-207.308117
20
244.783238
30
0.0
40
0.700000
50
180.000000
51
270.000000
0
LINE
8
0
10
-208.008117
20
244.783238
30
0.0
11
-208.008117
21
250.983238
31
0.0
0
ARC
8
0
10
-207.308117
20
250.983238
30
0.0
40
0.700000
50
90.000000
51
180.000000
0
LINE
8
0
10
-207.308117
20
251.683238
30
0.0
11
-206.108117
21
251.683238
31
0.0
0
ARC
8
0
10
-206.108117
20
251.383238
30
0.0
40
0.300000
50
360.000000
51
90.000000
0
LINE
8
0
10
-205.808117
20
251.383238
30
0.0
11
-205.808117
21
250.683238
31
0.0
0
ARC
8
0
10
-205.508117
20
250.683238
30
0.0
40
0.300000
50
180.000000
51
270.000000
0
ARC
8
0
10
-205.508117
20
251.083238
30
0.0
40
0.700000
50
270.000000
51
360.000000
0
LINE
8
0
10
-204.808117
20
251.083238
30
0.0
11
-204.808117
21
252.583238
31
0.0
0
ARC
8
0
10
-205.108117
20
252.583238
30
0.0
40
0.300000
50
360.000000
51
90.000000
0
LINE
8
0
10
-205.108117
20
252.883238
30
0.0
11
-209.008117
21
252.883238
31
0.0
0
ARC
8
0
10
-209.008117
20
252.583238
30
0.0
40
0.300000
50
90.000000
51
180.000000
0
LINE
8
0
10
-209.308117
20
252.583238
30
0.0
11
-209.308117
21
216.183238
31
0.0
0
ARC
8
0
10
-209.008117
20
216.183238
30
0.0
40
0.300000
50
180.000000
51
270.000000
0
LINE
8
0
10
-209.008117
20
215.883238
30
0.0
11
-205.808117
21
215.883238
31
0.0
0
ARC
8
0
10
-205.808117
20
216.383238
30
0.0
40
0.500000
50
270.000000
51
360.000000
0
LINE
8
0
10
-205.308117
20
216.383238
30
0.0
11
-205.308117
21
218.283238
31
0.0
0
ARC
8
0
10
-205.608117
20
218.283238
30
0.0
40
0.300000
50
360.000000
51
90.000000
0
LINE
8
0
10
-205.608117
20
218.583238
30
0.0
11
-206.008117
21
218.583238
31
0.0
0
ARC
8
0
10
-206.008117
20
218.283238
30
0.0
40
0.300000
50
90.000000
51
180.000000
0
LINE
8
0
10
-206.308117
20
218.283238
30
0.0
11
-206.308117
21
217.583238
31
0.0
0
ARC
8
0
10
-206.608117
20
217.583238
30
0.0
40
0.300000
50
270.000000
51
360.000000
0
LINE
8
0
10
-206.608117
20
217.283238
30
0.0
11
-207.606094
21
217.283238
31
0.0
0
ARC
8
0
10
-207.606094
20
217.583238
30
0.0
40
0.300000
50
180.000000
51
270.000000
0
LINE
8
0
10
-207.906094
20
217.583238
30
0.0
11
-207.906094
21
219.783242
31
0.0
0
ARC
8
0
10
-207.606094
20
219.783242
30
0.0
40
0.300000
50
90.000000
51
180.000000
0
ARC
8
0
10
-207.608117
20
220.383238
30
0.0
40
0.300000
50
270.000000
51
360.000000
0
LINE
8
0
10
-207.308117
20
220.383238
30
0.0
11
-207.308117
21
221.783238
31
0.0
0
ARC
8
0
10
-207.008117
20
221.783238
30
0.0
40
0.300000
50
90.000000
51
180.000000
0
LINE
8
0
10
-207.008117
20
222.083238
30
0.0
11
-204.277562
21
222.083238
31
0.0
0
ARC
8
0
10
-204.277562
20
221.783238
30
0.0
40
0.300000
50
37.142857
51
90.000000
0
LINE
8
0
10
-204.038422
20
221.964380
30
0.0
11
-203.210314
21
220.871126
31
0.0
0
ARC
8
0
10
-202.971174
20
221.052267
30
0.0
40
0.300000
50
217.142857
51
332.519791
0
ARC
8
0
10
-201.108117
20
220.083238
30
0.0
40
1.800000
50
127.142857
51
152.519791
0
LINE
8
0
10
-202.194965
20
221.518077
30
0.0
11
-202.376106
21
221.757217
31
0.0
0
ARC
8
0
10
-201.108117
20
220.083238
30
0.0
40
2.100000
50
87.142857
51
127.142857
0
LINE
8
0
10
-160.208117
20
217.794951
30
0.0
11
-160.388502
21
217.794951
31
0.0
0
ARC
8
0
10
-160.388502
20
218.094951
30
0.0
40
0.300000
50
240.000000
51
270.000000
0
LINE
8
0
10
-160.538502
20
217.835143
30
0.0
11
-161.922476
21
218.634181
31
0.0
0
ARC
8
0
10
-162.522476
20
217.594951
30
0.0
40
1.200000
50
60.000000
51
90.000000
0
LINE
8
0
10
-162.522476
20
218.794951
30
0.0
11
-163.147833
21
218.794951
31
0.0
0
ARC
8
0
10
-163.147833
20
218.294951
30
0.0
40
0.500000
50
90.000000
51
145.000000
0
LINE
8
0
10
-163.557409
20
218.581739
30
0.0
11
-165.000092
21
216.521374
31
0.0
0
ARC
8
0
10
-165.819244
20
217.094951
30
0.0
40
1.000000
50
270.000000
51
325.000000
0
LINE
8
0
10
-165.819244
20
216.094951
30
0.0
11
-190.787550
21
216.094951
31
0.0
0
ARC
8
0
10
-190.787550
20
217.094951
30
0.0
40
1.000000
50
215.000000
51
270.000000
0
LINE
8
0
10
-191.606702
20
216.521374
30
0.0
11
-193.049385
21
218.581739
31
0.0
0
ARC
8
0
10
-193.458961
20
218.294951
30
0.0
40
0.500000
50
35.000000
51
90.000000
0
LINE
8
0
10
-193.458961
20
218.794951
30
0.0
11
-194.093758
21
218.794951
31
0.0
0
ARC
8
0
10
-194.093758
20
217.594951
30
0.0
40
1.200000
50
90.000000
51
120.000000
0
LINE
8
0
10
-194.693758
20
218.634181
30
0.0
11
-196.077732
21
217.835143
31
0.0
0
ARC
8
0
10
-196.227732
20
218.094951
30
0.0
40
0.300000
50
270.000000
51
300.000000
0
LINE
8
0
10
-196.227732
20
217.794951
30
0.0
11
-196.408117
21
217.794951
31
0.0
0
ARC
8
0
10
-196.408117
20
218.194951
30
0.0
40
0.400000
50
180.000000
51
270.000000
0
LINE
8
0
10
-196.808117
20
218.194951
30
0.0
11
-196.808117
21
221.594951
31
0.0
0
ARC
8
0
10
-196.408117
20
221.594951
30
0.0
40
0.400000
50
90.000000
51
180.000000
0
LINE
8
0
10
-196.408117
20
221.994951
30
0.0
11
-196.227732
21
221.994951
31
0.0
0
ARC
8
0
10
-196.227732
20
221.694951
30
0.0
40
0.300000
50
60.000000
51
90.000000
0
LINE
8
0
10
-196.077732
20
221.954758
30
0.0
11
-194.693758
21
221.155720
31
0.0
0
ARC
8
0
10
-194.093758
20
222.194951
30
0.0
40
1.200000
50
240.000000
51
270.000000
0
LINE
8
0
10
-194.093758
20
220.994951
30
0.0
11
-192.818152
21
220.994951
31
0.0
0
ARC
8
0
10
-192.818152
20
219.994951
30
0.0
40
1.000000
50
35.000000
51
90.000000
0
LINE
8
0
10
-191.999000
20
220.568527
30
0.0
11
-190.724111
21
218.747798
31
0.0
0
ARC
8
0
10
-189.085807
20
219.894951
30
0.0
40
2.000000
50
215.000000
51
270.000000
0
LINE
8
0
10
-189.085807
20
217.894951
30
0.0
11
-167.500703
21
217.894951
31
0.0
0
ARC
8
0
10
-167.500703
20
219.894951
30
0.0
40
2.000000
50
270.000000
51
324.745828
0
LINE
8
0
10
-165.867504
20
218.740541
30
0.0
11
-164.572847
21
220.572155
31
0.0
0
ARC
8
0
10
-163.756247
20
219.994951
30
0.0
40
1.000000
50
90.000000
51
144.745828
0
LINE
8
0
10
-163.756247
20
220.994951
30
0.0
11
-162.522476
21
220.994951
31
0.0
0
ARC
8
0
10
-162.522476
20
222.194951
30
0.0
40
1.200000
50
270.000000
51
300.000000
0
LINE
8
0
10
-161.922476
20
221.155720
30
0.0
11
-160.538502
21
221.954758
31
0.0
0
ARC
8
0
10
-160.388502
20
221.694951
30
0.0
40
0.300000
50
90.000000
51
120.000000
0
LINE
8
0
10
-160.388502
20
221.994951
30
0.0
11
-160.208117
21
221.994951
31
0.0
0
ARC
8
0
10
-160.208117
20
221.594951
30
0.0
40
0.400000
50
360.000000
51
90.000000
0
LINE
8
0
10
-159.808117
20
221.594951
30
0.0
11
-159.808117
21
218.194951
31
0.0
0
ARC
8
0
10
-160.208117
20
218.194951
30
0.0
40
0.400000
50
270.000000
51
360.000000
0
LINE
8
0
10
-200.193118
20
224.622661
30
0.0
11
-201.601728
21
223.810001
31
0.0
0
ARC
8
0
10
-201.701672
20
223.983238
30
0.0
40
0.200000
50
270.000000
51
299.981639
0
LINE
8
0
10
-201.701672
20
223.783238
30
0.0
11
-201.908117
21
223.783238
31
0.0
0
ARC
8
0
10
-201.908117
20
224.183238
30
0.0
40
0.400000
50
180.000000
51
270.000000
0
LINE
8
0
10
-202.308117
20
224.183238
30
0.0
11
-202.308117
21
227.583238
31
0.0
0
ARC
8
0
10
-201.908117
20
227.583238
30
0.0
40
0.400000
50
90.000000
51
180.000000
0
LINE
8
0
10
-201.908117
20
227.983238
30
0.0
11
-201.701672
21
227.983238
31
0.0
0
ARC
8
0
10
-201.701672
20
227.783238
30
0.0
40
0.200000
50
60.018361
51
90.000000
0
LINE
8
0
10
-201.601728
20
227.956475
30
0.0
11
-200.193118
21
227.143816
31
0.0
0
ARC
8
0
10
-199.593451
20
228.183238
30
0.0
40
1.200000
50
240.018361
51
270.000000
0
LINE
8
0
10
-199.593451
20
226.983238
30
0.0
11
-198.910749
21
226.983238
31
0.0
0
ARC
8
0
10
-198.910749
20
227.283238
30
0.0
40
0.300000
50
270.000000
51
324.745828
0
LINE
8
0
10
-198.665769
20
227.110077
30
0.0
11
-196.855014
21
229.671841
31
0.0
0
ARC
8
0
10
-196.446714
20
229.383238
30
0.0
40
0.500000
50
90.000000
51
144.745828
0
LINE
8
0
10
-196.446714
20
229.883238
30
0.0
11
-165.808117
21
229.883239
31
0.0
0
ARC
8
0
10
-165.808117
20
230.383239
30
0.0
40
0.500000
50
270.000000
51
360.000000
0
LINE
8
0
10
-165.308117
20
230.383239
30
0.0
11
-165.308117
21
234.583238
31
0.0
0
ARC
8
0
10
-165.008117
20
234.583238
30
0.0
40
0.300000
50
90.000000
51
180.000000
0
LINE
8
0
10
-165.008117
20
234.883238
30
0.0
11
-162.358672
21
234.883238
31
0.0
0
ARC
8
0
10
-162.358672
20
234.583238
30
0.0
40
0.300000
50
30.000000
51
90.000000
0
LINE
8
0
10
-162.098865
20
234.733238
30
0.0
11
-161.648309
21
233.952854
31
0.0
0
ARC
8
0
10
-161.908117
20
233.802854
30
0.0
40
0.300000
50
360.000000
51
30.000000
0
LINE
8
0
10
-161.608117
20
233.802854
30
0.0
11
-161.608117
21
233.683238
31
0.0
0
ARC
8
0
10
-161.908117
20
233.683238
30
0.0
40
0.300000
50
270.000000
51
360.000000
0
LINE
8
0
10
-161.908117
20
233.383238
30
0.0
11
-163.308117
21
233.383238
31
0.0
0
ARC
8
0
10
-163.308117
20
233.083238
30
0.0
40
0.300000
50
90.000000
51
180.000000
0
LINE
8
0
10
-163.608117
20
233.083238
30
0.0
11
-163.608117
21
230.383238
31
0.0
0
ARC
8
0
10
-163.108117
20
230.383238
30
0.0
40
0.500000
50
180.000000
51
270.000000
0
LINE
8
0
10
-163.108117
20
229.883238
30
0.0
11
-160.169520
21
229.883238
31
0.0
0
ARC
8
0
10
-160.169520
20
229.383238
30
0.0
40
0.500000
50
35.254172
51
90.000000
0
LINE
8
0
10
-159.761220
20
229.671841
30
0.0
11
-157.950465
21
227.110077
31
0.0
0
ARC
8
0
10
-157.705485
20
227.283238
30
0.0
40
0.300000
50
215.254172
51
270.000000
0
LINE
8
0
10
-157.705485
20
226.983238
30
0.0
11
-157.022783
21
226.983238
31
0.0
0
ARC
8
0
10
-157.022783
20
228.183238
30
0.0
40
1.200000
50
270.000000
51
299.981639
0
LINE
8
0
10
-156.423116
20
227.143816
30
0.0
11
-155.014506
21
227.956475
31
0.0
0
ARC
8
0
10
-154.914561
20
227.783238
30
0.0
40
0.200000
50
90.000000
51
119.981639
0
LINE
8
0
10
-154.914561
20
227.983238
30
0.0
11
-154.708117
21
227.983238
31
0.0
0
ARC
8
0
10
-154.708117
20
227.583238
30
0.0
40
0.400000
50
360.000000
51
90.000000
0
LINE
8
0
10
-154.308117
20
227.583238
30
0.0
11
-154.308117
21
224.183238
31
0.0
0
ARC
8
0
10
-154.708117
20
224.183238
30
0.0
40
0.400000
50
270.000000
51
360.000000
0
LINE
8
0
10
-154.708117
20
223.783238
30
0.0
11
-154.914561
21
223.783238
31
0.0
0
ARC
8
0
10
-154.914561
20
223.983238
30
0.0
40
0.200000
50
240.018361
51
270.000000
0
LINE
8
0
10
-155.014506
20
223.810001
30
0.0
11
-156.423116
21
224.622661
31
0.0
0
ARC
8
0
10
-157.022783
20
223.583238
30
0.0
40
1.200000
50
60.018361
51
90.000000
0
LINE
8
0
10
-157.022783
20
224.783238
30
0.0
11
-158.482112
21
224.783238
31
0.0
0
ARC
8
0
10
-158.482112
20
225.783238
30
0.0
40
1.000000
50
215.254172
51
270.000000
0
LINE
8
0
10
-159.298711
20
225.206034
30
0.0
11
-160.832445
21
227.375882
31
0.0
0
ARC
8
0
10
-161.812365
20
226.683236
30
0.0
40
1.200000
50
35.254172
51
90.000000
0
LINE
8
0
10
-161.812365
20
227.883236
30
0.0
11
-194.803869
21
227.883236
31
0.0
0
ARC
8
0
10
-194.803869
20
226.683236
30
0.0
40
1.200000
50
90.000000
51
144.745828
0
LINE
8
0
10
-195.783788
20
227.375882
30
0.0
11
-197.317523
21
225.206034
31
0.0
0
ARC
8
0
10
-198.134122
20
225.783238
30
0.0
40
1.000000
50
270.000000
51
324.745828
0
LINE
8
0
10
-198.134122
20
224.783238
30
0.0
11
-199.593451
21
224.783238
31
0.0
0
ARC
8
0
10
-199.593451
20
223.583238
30
0.0
40
1.200000
50
90.000000
51
119.981639
0
ATTDEF
8
0
10
-165.008117
20
234.883238
30
0.0
40
3.5
1

3

2
VC_START
70
0
0
ATTDEF
8
0
10
-150.808117
20
215.883238
30
0.0
40
3.5
1

3

2
VC_END
70
0
0
ATTDEF
8
0
10
0.000000
20
0.000000
30
0.0
40
3.5
1

3

2
MIN_VETRO:0
70
0
0
ATTDEF
8
0
10
0.000000
20
0.000000
30
0.0
40
3.5
1

3

2
MAX_VETRO:0
70
0
0
ATTDEF
8
0
10
0.000000
20
0.000000
30
0.0
40
3.5
1

3

2
MIN_VETRO:0
70
0
0
ATTDEF
8
0
10
0.000000
20
0.000000
30
0.0
40
3.5
1

3

2
MAX_VETRO:0
70
0
0
ATTDEF
8
0
10
-209.308117
20
215.883238
30
0.0
40
3.5
1

3

2
DESC:Montante centrale anta slim
70
0
0
ATTDEF
8
0
10
-209.308117
20
215.883238
30
0.0
40
3.5
1

3

2
DENS:0.990000
70
0
0
ATTDEF
8
0
10
-209.308117
20
215.883238
30
0.0
40
3.5
1

3

2
TDEV:0.000000
70
0
0
ATTDEF
8
0
10
-209.308117
20
215.883238
30
0.0
40
3.5
1

3

2
TDEV2:0.000000
70
0
0
ATTDEF
8
0
10
-209.308117
20
215.883238
30
0.0
40
3.5
1

3

2
TDEV3:0.000000
70
0
0
ATTDEF
8
0
10
-209.308117
20
215.883238
30
0.0
40
3.5
1

3

2
TDEV4:0.000000
70
0
0
ATTDEF
8
0
10
-209.308117
20
215.883238
30
0.0
40
3.5
1

3

2
TDEV5:0.000000
70
0
0
ATTDEF
8
0
10
-209.308117
20
215.883238
30
0.0
40
3.5
1

3

2
REAR_VIEW
70
0
0
ATTDEF
8
0
10
-209.308117
20
215.883238
30
0.0
40
3.5
1

3

2
BL01:6800.000000,,1
70
0
0
ATTDEF
8
0
10
-209.308117
20
215.883238
30
0.0
40
3.5
1

3

2
OPTI:500.000000,1,0,3000.000000,6500.000000,500.000000,0,0.000000,0
70
0
0
ATTDEF
8
0
10
-209.308117
20
215.883238
30
0.0
40
3.5
1

3

2
PANE_WIDTH:57.500000
70
0
0
ATTDEF
8
0
10
-209.308117
20
215.883238
30
0.0
40
3.5
1

3

2
GLASS_MIN:0.000000
70
0
0
ATTDEF
8
0
10
-209.308117
20
215.883238
30
0.0
40
3.5
1

3

2
GLASS_MAX:0.000000
70
0
0
ATTDEF
8
0
10
-209.308117
20
215.883238
30
0.0
40
3.5
1

3

2
JX:0.000000
70
0
0
ATTDEF
8
0
10
-209.308117
20
215.883238
30
0.0
40
3.5
1

3

2
WX:0.000000
70
0
0
ATTDEF
8
0
10
-209.308117
20
215.883238
30
0.0
40
3.5
1

3

2
JY:0.000000
70
0
0
ATTDEF
8
0
10
-209.308117
20
215.883238
30
0.0
40
3.5
1

3

2
WY:0.000000
70
0
0
ATTDEF
8
0
10
-209.308117
20
215.883238
30
0.0
40
3.5
1

3

2
FP_LCS_ORIG
70
0
0
ATTDEF
8
0
10
-199.308117
20
215.883238
30
0.0
40
3.5
1

3

2
FP_LCS_HOT
70
0
0
ATTDEF
8
0
10
-209.308117
20
225.883238
30
0.0
40
3.5
1

3

2
FP_LCS_INTERN
70
0
0
ENDSEC
0
EOF
