0
SECTION
2
ENTITIES
0
LINE
8
0
10
54.570862
20
19.380783
30
0.0
11
54.522622
21
19.353279
31
0.0
0
LINE
8
0
10
54.522622
20
19.353279
30
0.0
11
52.943605
21
18.247640
31
0.0
0
ARC
8
0
10
53.115678
20
18.001894
30
0.0
40
0.300000
50
125.000000
51
185.000000
0
LINE
8
0
10
52.816820
20
17.975747
30
0.0
11
52.827042
21
17.858905
31
0.0
0
ARC
8
0
10
52.627803
20
17.841474
30
0.0
40
0.200000
50
245.000000
51
5.000000
0
LINE
8
0
10
52.543280
20
17.660212
30
0.0
11
52.077053
21
17.877617
31
0.0
0
ARC
8
0
10
52.203838
20
18.149510
30
0.0
40
0.300000
50
205.000000
51
245.000000
0
LINE
8
0
10
51.931946
20
18.022724
30
0.0
11
50.928408
21
20.174817
31
0.0
0
ARC
8
0
10
51.200301
20
20.301603
30
0.0
40
0.300000
50
90.000000
51
205.000000
0
LINE
8
0
10
51.200301
20
20.601603
30
0.0
11
52.701678
21
20.601603
31
0.0
0
ARC
8
0
10
52.701678
20
20.301603
30
0.0
40
0.300000
50
30.904283
51
90.000000
0
ARC
8
0
10
53.216494
20
20.609766
30
0.0
40
0.300000
50
210.904283
51
290.000000
0
LINE
8
0
10
53.319100
20
20.327858
30
0.0
11
54.608181
21
20.801066
31
0.0
0
LINE
8
0
10
54.608181
20
20.801066
30
0.0
11
59.900000
21
20.800000
31
0.0
0
ARC
8
0
10
59.900000
20
21.100000
30
0.0
40
0.300000
50
270.000000
51
0.000000
0
LINE
8
0
10
60.200000
20
21.100000
30
0.0
11
60.200000
21
24.000000
31
0.0
0
ARC
8
0
10
59.900000
20
24.000000
30
0.0
40
0.300000
50
0.000000
51
90.000000
0
LINE
8
0
10
59.900000
20
24.300000
30
0.0
11
58.000000
21
24.300000
31
0.0
0
ARC
8
0
10
58.000000
20
24.600000
30
0.0
40
0.300000
50
180.000000
51
270.000000
0
LINE
8
0
10
57.700000
20
24.600000
30
0.0
11
57.700000
21
24.719616
31
0.0
0
ARC
8
0
10
58.000000
20
24.719616
30
0.0
40
0.300000
50
150.000000
51
180.000000
0
LINE
8
0
10
57.740193
20
24.869616
30
0.0
11
58.190748
21
25.650000
31
0.0
0
ARC
8
0
10
58.450555
20
25.500000
30
0.0
40
0.300000
50
90.000000
51
150.000000
0
LINE
8
0
10
58.450555
20
25.800000
30
0.0
11
61.700000
21
25.800000
31
0.0
0
ARC
8
0
10
61.700000
20
25.500000
30
0.0
40
0.300000
50
0.000000
51
90.000000
0
LINE
8
0
10
62.000000
20
25.500000
30
0.0
11
62.000000
21
7.100000
31
0.0
0
ARC
8
0
10
61.700000
20
7.100000
30
0.0
40
0.300000
50
270.000000
51
0.000000
0
LINE
8
0
10
61.700000
20
6.800000
30
0.0
11
58.500000
21
6.800000
31
0.0
0
ARC
8
0
10
58.500000
20
7.300000
30
0.0
40
0.500000
50
180.000000
51
270.000000
0
LINE
8
0
10
58.000000
20
7.300000
30
0.0
11
58.000000
21
9.200000
31
0.0
0
ARC
8
0
10
58.300000
20
9.200000
30
0.0
40
0.300000
50
90.000000
51
180.000000
0
LINE
8
0
10
58.300000
20
9.500000
30
0.0
11
58.700000
21
9.500000
31
0.0
0
ARC
8
0
10
58.700000
20
9.200000
30
0.0
40
0.300000
50
0.000000
51
90.000000
0
LINE
8
0
10
59.000000
20
9.200000
30
0.0
11
59.000000
21
8.500000
31
0.0
0
ARC
8
0
10
59.300000
20
8.500000
30
0.0
40
0.300000
50
180.000000
51
270.000000
0
LINE
8
0
10
59.300000
20
8.200000
30
0.0
11
60.297978
21
8.200000
31
0.0
0
ARC
8
0
10
60.297978
20
8.500000
30
0.0
40
0.300000
50
270.000000
51
0.000000
0
LINE
8
0
10
60.597978
20
8.500000
30
0.0
11
60.597978
21
10.700004
31
0.0
0
ARC
8
0
10
60.297978
20
10.700004
30
0.0
40
0.300000
50
0.000000
51
90.000000
0
ARC
8
0
10
60.300000
20
11.300000
30
0.0
40
0.300000
50
180.000000
51
270.000000
0
LINE
8
0
10
60.000000
20
11.300000
30
0.0
11
60.000000
21
12.700000
31
0.0
0
ARC
8
0
10
59.700000
20
12.700000
30
0.0
40
0.300000
50
0.000000
51
90.000000
0
LINE
8
0
10
59.700000
20
13.000000
30
0.0
11
56.969445
21
13.000000
31
0.0
0
ARC
8
0
10
56.969445
20
12.700000
30
0.0
40
0.300000
50
90.000000
51
142.857143
0
LINE
8
0
10
56.730305
20
12.881142
30
0.0
11
55.902197
21
11.787888
31
0.0
0
ARC
8
0
10
55.663058
20
11.969029
30
0.0
40
0.300000
50
207.480209
51
322.857143
0
ARC
8
0
10
53.800000
20
11.000000
30
0.0
40
1.800000
50
27.480209
51
52.857143
0
LINE
8
0
10
54.886848
20
12.434839
30
0.0
11
55.067989
21
12.673979
31
0.0
0
ARC
8
0
10
53.800000
20
11.000000
30
0.0
40
2.100000
50
52.857143
51
92.857143
0
LINE
8
0
10
53.695324
20
13.097390
30
0.0
11
53.710278
21
12.797763
31
0.0
0
ARC
8
0
10
53.800000
20
11.000000
30
0.0
40
1.800000
50
92.857143
51
132.857143
0
LINE
8
0
10
52.575689
20
12.319494
30
0.0
11
52.371637
21
12.539409
31
0.0
0
ARC
8
0
10
53.800000
20
11.000000
30
0.0
40
2.100000
50
132.857143
51
172.857143
0
LINE
8
0
10
51.716298
20
11.261122
30
0.0
11
52.013970
21
11.223819
31
0.0
0
ARC
8
0
10
53.800000
20
11.000000
30
0.0
40
1.800000
50
172.857143
51
212.857143
0
LINE
8
0
10
52.287953
20
10.023417
30
0.0
11
52.035946
21
9.860653
31
0.0
0
ARC
8
0
10
53.800000
20
11.000000
30
0.0
40
2.100000
50
212.857143
51
252.857143
0
LINE
8
0
10
53.181014
20
8.993297
30
0.0
11
53.269441
21
9.279969
31
0.0
0
ARC
8
0
10
53.800000
20
11.000000
30
0.0
40
1.800000
50
252.857143
51
272.729851
0
ARC
8
0
10
53.909542
20
8.702610
30
0.0
40
0.500000
50
345.285714
51
92.729851
0
LINE
8
0
10
54.393144
20
8.575611
30
0.0
11
54.318665
21
8.292002
31
0.0
0
ARC
8
0
10
52.384256
20
8.800000
30
0.0
40
2.000000
50
270.000000
51
345.285714
0
LINE
8
0
10
52.384256
20
6.800000
30
0.0
11
49.160820
21
6.800000
31
0.0
0
ARC
8
0
10
49.160820
20
7.100000
30
0.0
40
0.300000
50
249.842370
51
270.000000
0
LINE
8
0
10
49.057438
20
6.818376
30
0.0
11
47.819100
21
7.272956
31
0.0
0
ARC
8
0
10
47.716494
20
6.991049
30
0.0
40
0.300000
50
70.000000
51
149.095717
0
ARC
8
0
10
47.201678
20
7.299212
30
0.0
40
0.300000
50
270.000000
51
329.095717
0
LINE
8
0
10
47.201678
20
6.999212
30
0.0
11
45.700301
21
6.999212
31
0.0
0
ARC
8
0
10
45.700301
20
7.299212
30
0.0
40
0.300000
50
155.000000
51
270.000000
0
LINE
8
0
10
45.428408
20
7.425997
30
0.0
11
46.431946
21
9.578091
31
0.0
0
ARC
8
0
10
46.703838
20
9.451305
30
0.0
40
0.300000
50
115.000000
51
155.000000
0
LINE
8
0
10
46.577053
20
9.723197
30
0.0
11
47.043280
21
9.940603
31
0.0
0
ARC
8
0
10
47.127803
20
9.759341
30
0.0
40
0.200000
50
355.000000
51
115.000000
0
LINE
8
0
10
47.327042
20
9.741910
30
0.0
11
47.316820
21
9.625068
31
0.0
0
ARC
8
0
10
47.615678
20
9.598921
30
0.0
40
0.300000
50
175.000000
51
235.000000
0
LINE
8
0
10
47.443605
20
9.353175
30
0.0
11
49.022622
21
8.247536
31
0.0
0
LINE
8
0
10
49.022622
20
8.247536
30
0.0
11
49.070862
21
8.220032
31
0.0
0
LINE
8
0
10
49.070862
20
8.220032
30
0.0
11
49.276116
21
8.127013
31
0.0
0
ARC
8
0
10
49.399975
20
8.400261
30
0.0
40
0.300009
50
245.615828
51
48.187329
0
ARC
8
0
10
49.800000
20
8.847465
30
0.0
40
0.300000
50
180.000000
51
228.187329
0
LINE
8
0
10
49.500000
20
8.847465
30
0.0
11
49.500000
21
12.700252
31
0.0
0
ARC
8
0
10
49.200000
20
12.700252
30
0.0
40
0.300000
50
0.000000
51
90.000000
0
LINE
8
0
10
49.200000
20
13.000252
30
0.0
11
48.978807
21
13.000252
31
0.0
0
ARC
8
0
10
48.978807
20
12.700252
30
0.0
40
0.300000
50
90.000000
51
121.400000
0
LINE
8
0
10
48.822504
20
12.956317
30
0.0
11
47.304202
21
12.029542
31
0.0
0
ARC
8
0
10
47.200000
20
12.200252
30
0.0
40
0.200000
50
180.000000
51
301.400000
0
LINE
8
0
10
47.000000
20
12.200252
30
0.0
11
47.000000
21
14.100563
31
0.0
0
ARC
8
0
10
47.500000
20
14.100563
30
0.0
40
0.500000
50
90.000000
51
180.000000
0
LINE
8
0
10
47.500000
20
14.600563
30
0.0
11
51.833975
21
14.600563
31
0.0
0
ARC
8
0
10
51.833975
20
14.900563
30
0.0
40
0.300000
50
270.000000
51
330.000000
0
LINE
8
0
10
52.093782
20
14.750563
30
0.0
11
52.526795
21
15.500563
31
0.0
0
ARC
8
0
10
52.700000
20
15.400563
30
0.0
40
0.200000
50
58.600000
51
150.000000
0
LINE
8
0
10
52.804202
20
15.571273
30
0.0
11
54.322504
21
14.644498
31
0.0
0
ARC
8
0
10
54.478807
20
14.900563
30
0.0
40
0.300000
50
238.600000
51
270.000000
0
LINE
8
0
10
54.478807
20
14.600563
30
0.0
11
54.700000
21
14.600563
31
0.0
0
ARC
8
0
10
54.700000
20
14.900563
30
0.0
40
0.300000
50
270.000000
51
0.000000
0
LINE
8
0
10
55.000000
20
14.900563
30
0.0
11
55.000000
21
18.753349
31
0.0
0
ARC
8
0
10
55.300000
20
18.753349
30
0.0
40
0.300000
50
131.812671
51
180.000000
0
ARC
8
0
10
54.899975
20
19.200554
30
0.0
40
0.300009
50
311.812671
51
114.384172
0
LINE
8
0
10
54.776116
20
19.473802
30
0.0
11
54.570862
21
19.380783
31
0.0
0
LINE
8
0
10
56.800063
20
19.000607
30
0.0
11
59.900063
21
18.999938
31
0.0
0
ARC
8
0
10
59.900000
20
18.699938
30
0.0
40
0.300000
50
0.000000
51
90.000000
0
LINE
8
0
10
60.200000
20
18.699938
30
0.0
11
60.200000
21
14.800000
31
0.0
0
ARC
8
0
10
59.900000
20
14.800000
30
0.0
40
0.300000
50
270.000000
51
0.000000
0
LINE
8
0
10
59.900000
20
14.500000
30
0.0
11
56.800000
21
14.500000
31
0.0
0
ARC
8
0
10
56.800000
20
14.800000
30
0.0
40
0.300000
50
180.000000
51
270.000000
0
LINE
8
0
10
56.500000
20
14.800000
30
0.0
11
56.500000
21
18.700607
31
0.0
0
ARC
8
0
10
56.800000
20
18.700607
30
0.0
40
0.300000
50
90.000000
51
180.000000
0
LINE
8
0
10
2.300000
20
18.999938
30
0.0
11
5.000000
21
18.999938
31
0.0
0
ARC
8
0
10
5.000000
20
18.499938
30
0.0
40
0.500000
50
0.000000
51
90.000000
0
LINE
8
0
10
5.500000
20
18.499938
30
0.0
11
5.500000
21
14.800277
31
0.0
0
ARC
8
0
10
5.200000
20
14.800277
30
0.0
40
0.300000
50
270.000000
51
0.000000
0
LINE
8
0
10
5.200031
20
14.500277
30
0.0
11
2.100031
21
14.499724
31
0.0
0
ARC
8
0
10
2.100000
20
14.799724
30
0.0
40
0.300000
50
180.000000
51
270.000000
0
LINE
8
0
10
1.800000
20
14.799724
30
0.0
11
1.800000
21
18.499938
31
0.0
0
ARC
8
0
10
2.300000
20
18.499938
30
0.0
40
0.500000
50
90.000000
51
180.000000
0
LINE
8
0
10
8.304677
20
13.097390
30
0.0
11
8.289723
21
12.797763
31
0.0
0
ARC
8
0
10
8.200000
20
11.000000
30
0.0
40
1.800000
50
47.142857
51
87.142857
0
LINE
8
0
10
9.424311
20
12.319494
30
0.0
11
9.628363
21
12.539409
31
0.0
0
ARC
8
0
10
8.200000
20
11.000000
30
0.0
40
2.100000
50
7.142857
51
47.142857
0
LINE
8
0
10
10.283702
20
11.261122
30
0.0
11
9.986031
21
11.223819
31
0.0
0
ARC
8
0
10
8.200000
20
11.000000
30
0.0
40
1.800000
50
327.142857
51
7.142857
0
LINE
8
0
10
9.712047
20
10.023417
30
0.0
11
9.964055
21
9.860653
31
0.0
0
ARC
8
0
10
8.200000
20
11.000000
30
0.0
40
2.100000
50
287.142857
51
327.142857
0
LINE
8
0
10
8.818986
20
8.993297
30
0.0
11
8.730559
21
9.279969
31
0.0
0
ARC
8
0
10
8.200000
20
11.000000
30
0.0
40
1.800000
50
267.270149
51
287.142857
0
ARC
8
0
10
8.090458
20
8.702610
30
0.0
40
0.500000
50
87.270149
51
194.714286
0
LINE
8
0
10
7.606856
20
8.575611
30
0.0
11
7.681335
21
8.292002
31
0.0
0
ARC
8
0
10
9.615744
20
8.800000
30
0.0
40
2.000000
50
194.714286
51
270.000000
0
LINE
8
0
10
9.615744
20
6.800000
30
0.0
11
12.767215
21
6.800000
31
0.0
0
ARC
8
0
10
12.767215
20
7.100000
30
0.0
40
0.300000
50
270.000000
51
289.778171
0
LINE
8
0
10
12.868729
20
6.817697
30
0.0
11
14.171317
21
7.286097
31
0.0
0
ARC
8
0
10
14.250836
20
7.064960
30
0.0
40
0.235000
50
24.000000
51
109.778171
0
ARC
8
0
10
14.686771
20
7.241374
30
0.0
40
0.235000
50
204.000000
51
270.000000
0
LINE
8
0
10
14.685214
20
7.006379
30
0.0
11
16.264143
21
6.995922
31
0.0
0
ARC
8
0
10
16.266130
20
7.295915
30
0.0
40
0.300000
50
270.000000
51
24.620541
0
LINE
8
0
10
16.538856
20
7.420897
30
0.0
11
15.590206
21
9.526412
31
0.0
0
ARC
8
0
10
15.316686
20
9.403177
30
0.0
40
0.300000
50
24.254172
51
64.620541
0
LINE
8
0
10
15.445269
20
9.674223
30
0.0
11
14.937847
21
9.914943
31
0.0
0
ARC
8
0
10
14.852124
20
9.734245
30
0.0
40
0.200000
50
64.620541
51
184.620541
0
LINE
8
0
10
14.652774
20
9.718134
30
0.0
11
14.662076
21
9.603039
31
0.0
0
ARC
8
0
10
14.363051
20
9.578872
30
0.0
40
0.300000
50
304.620541
51
4.620541
0
LINE
8
0
10
14.533493
20
9.331992
30
0.0
11
12.904736
21
8.207526
31
0.0
0
LINE
8
0
10
12.904736
20
8.207526
30
0.0
11
12.722027
21
8.126179
31
0.0
0
ARC
8
0
10
12.600025
20
8.400261
30
0.0
40
0.300009
50
131.812671
51
293.995287
0
ARC
8
0
10
12.200000
20
8.847465
30
0.0
40
0.300000
50
311.812671
51
0.000000
0
LINE
8
0
10
12.500000
20
8.847465
30
0.0
11
12.500000
21
12.700252
31
0.0
0
ARC
8
0
10
12.800000
20
12.700252
30
0.0
40
0.300000
50
90.000000
51
180.000000
0
LINE
8
0
10
12.800000
20
13.000252
30
0.0
11
13.021193
21
13.000252
31
0.0
0
ARC
8
0
10
13.021193
20
12.700252
30
0.0
40
0.300000
50
58.600000
51
90.000000
0
LINE
8
0
10
13.177496
20
12.956317
30
0.0
11
14.695798
21
12.029542
31
0.0
0
ARC
8
0
10
14.800000
20
12.200252
30
0.0
40
0.200000
50
238.600000
51
0.000000
0
LINE
8
0
10
15.000000
20
12.200252
30
0.0
11
15.000000
21
13.600563
31
0.0
0
ARC
8
0
10
14.000000
20
13.600563
30
0.0
40
1.000000
50
0.000000
51
90.000000
0
LINE
8
0
10
14.000000
20
14.600563
30
0.0
11
10.166026
21
14.600563
31
0.0
0
ARC
8
0
10
10.166026
20
14.900563
30
0.0
40
0.300000
50
210.000000
51
270.000000
0
LINE
8
0
10
9.906218
20
14.750563
30
0.0
11
9.473205
21
15.500563
31
0.0
0
ARC
8
0
10
9.300000
20
15.400563
30
0.0
40
0.200000
50
30.000000
51
121.400000
0
LINE
8
0
10
9.195798
20
15.571273
30
0.0
11
7.677496
21
14.644498
31
0.0
0
ARC
8
0
10
7.521193
20
14.900563
30
0.0
40
0.300000
50
270.000000
51
301.400000
0
LINE
8
0
10
7.521193
20
14.600563
30
0.0
11
7.300000
21
14.600563
31
0.0
0
ARC
8
0
10
7.300000
20
14.900563
30
0.0
40
0.300000
50
180.000000
51
270.000000
0
LINE
8
0
10
7.000000
20
14.900563
30
0.0
11
7.000000
21
18.753349
31
0.0
0
ARC
8
0
10
6.700000
20
18.753349
30
0.0
40
0.300000
50
0.000000
51
48.187329
0
ARC
8
0
10
7.100025
20
19.200554
30
0.0
40
0.300009
50
66.004713
51
228.187329
0
LINE
8
0
10
7.222027
20
19.474636
30
0.0
11
7.404736
21
19.393289
31
0.0
0
LINE
8
0
10
7.404736
20
19.393289
30
0.0
11
9.033493
21
18.268823
31
0.0
0
ARC
8
0
10
8.863051
20
18.021943
30
0.0
40
0.300000
50
355.379459
51
55.379459
0
LINE
8
0
10
9.162076
20
17.997776
30
0.0
11
9.152774
21
17.882681
31
0.0
0
ARC
8
0
10
9.352124
20
17.866570
30
0.0
40
0.200000
50
175.379459
51
295.379459
0
LINE
8
0
10
9.437847
20
17.685872
30
0.0
11
9.945269
21
17.926591
31
0.0
0
ARC
8
0
10
9.816686
20
18.197638
30
0.0
40
0.300000
50
295.379459
51
335.745828
0
LINE
8
0
10
10.090206
20
18.074402
30
0.0
11
11.038856
21
20.179918
31
0.0
0
ARC
8
0
10
10.766130
20
20.304900
30
0.0
40
0.300000
50
335.379459
51
90.000000
0
LINE
8
0
10
10.764143
20
20.604893
30
0.0
11
9.185214
21
20.594436
31
0.0
0
ARC
8
0
10
9.186771
20
20.359441
30
0.0
40
0.235000
50
90.000000
51
156.000000
0
ARC
8
0
10
8.750836
20
20.535855
30
0.0
40
0.235000
50
250.221829
51
336.000000
0
LINE
8
0
10
8.671317
20
20.314717
30
0.0
11
7.370993
21
20.782303
31
0.0
0
ARC
8
0
10
7.269479
20
20.500000
30
0.0
40
0.300000
50
70.221829
51
90.000000
0
LINE
8
0
10
7.269479
20
20.800000
30
0.0
11
2.753561
21
20.800000
31
0.0
0
ARC
8
0
10
2.753561
20
21.800000
30
0.0
40
1.000000
50
182.628630
51
270.000000
0
LINE
8
0
10
1.754613
20
21.754138
30
0.0
11
1.500000
21
27.300000
31
0.0
0
LINE
8
0
10
1.500000
20
27.300000
30
0.0
11
1.500000
21
33.500000
31
0.0
0
ARC
8
0
10
1.800000
20
33.500000
30
0.0
40
0.300000
50
90.000000
51
180.000000
0
LINE
8
0
10
1.800000
20
33.800000
30
0.0
11
3.200000
21
33.800000
31
0.0
0
ARC
8
0
10
3.200000
20
33.500000
30
0.0
40
0.300000
50
0.000000
51
90.000000
0
LINE
8
0
10
3.500000
20
33.500000
30
0.0
11
3.500000
21
32.600000
31
0.0
0
ARC
8
0
10
3.800000
20
32.600000
30
0.0
40
0.300000
50
180.000000
51
270.000000
0
LINE
8
0
10
3.800000
20
32.300000
30
0.0
11
4.200000
21
32.300000
31
0.0
0
ARC
8
0
10
4.200000
20
32.600000
30
0.0
40
0.300000
50
270.000000
51
0.000000
0
LINE
8
0
10
4.500000
20
32.600000
30
0.0
11
4.500000
21
35.600000
31
0.0
0
ARC
8
0
10
3.800000
20
35.600000
30
0.0
40
0.700000
50
0.000000
51
90.000000
0
ARC
8
0
10
3.800000
20
36.000000
30
0.0
40
0.300000
50
90.000000
51
180.000000
0
LINE
8
0
10
3.500000
20
36.000000
30
0.0
11
3.500000
21
35.300000
31
0.0
0
ARC
8
0
10
3.200000
20
35.300000
30
0.0
40
0.300000
50
270.000000
51
0.000000
0
LINE
8
0
10
3.200000
20
35.000000
30
0.0
11
2.000000
21
35.000000
31
0.0
0
ARC
8
0
10
2.000000
20
35.700000
30
0.0
40
0.700000
50
180.000000
51
270.000000
0
LINE
8
0
10
1.300000
20
35.700000
30
0.0
11
1.300000
21
41.900000
31
0.0
0
ARC
8
0
10
2.000000
20
41.900000
30
0.0
40
0.700000
50
90.000000
51
180.000000
0
LINE
8
0
10
2.000000
20
42.600000
30
0.0
11
3.200000
21
42.600000
31
0.0
0
ARC
8
0
10
3.200000
20
42.300000
30
0.0
40
0.300000
50
0.000000
51
90.000000
0
LINE
8
0
10
3.500000
20
42.300000
30
0.0
11
3.500000
21
41.600000
31
0.0
0
ARC
8
0
10
3.800000
20
41.600000
30
0.0
40
0.300000
50
180.000000
51
270.000000
0
ARC
8
0
10
3.800000
20
42.000000
30
0.0
40
0.700000
50
270.000000
51
0.000000
0
LINE
8
0
10
4.500000
20
42.000000
30
0.0
11
4.500000
21
43.500000
31
0.0
0
ARC
8
0
10
4.200000
20
43.500000
30
0.0
40
0.300000
50
0.000000
51
90.000000
0
LINE
8
0
10
4.200000
20
43.800000
30
0.0
11
0.300000
21
43.800000
31
0.0
0
ARC
8
0
10
0.300000
20
43.500000
30
0.0
40
0.300000
50
90.000000
51
180.000000
0
LINE
8
0
10
0.000000
20
43.500000
30
0.0
11
0.000000
21
7.100000
31
0.0
0
ARC
8
0
10
0.300000
20
7.100000
30
0.0
40
0.300000
50
180.000000
51
270.000000
0
LINE
8
0
10
0.300000
20
6.800000
30
0.0
11
3.500000
21
6.800000
31
0.0
0
ARC
8
0
10
3.500000
20
7.300000
30
0.0
40
0.500000
50
270.000000
51
0.000000
0
LINE
8
0
10
4.000000
20
7.300000
30
0.0
11
4.000000
21
9.200000
31
0.0
0
ARC
8
0
10
3.700000
20
9.200000
30
0.0
40
0.300000
50
0.000000
51
90.000000
0
LINE
8
0
10
3.700000
20
9.500000
30
0.0
11
3.300000
21
9.500000
31
0.0
0
ARC
8
0
10
3.300000
20
9.200000
30
0.0
40
0.300000
50
90.000000
51
180.000000
0
LINE
8
0
10
3.000000
20
9.200000
30
0.0
11
3.000000
21
8.500000
31
0.0
0
ARC
8
0
10
2.700000
20
8.500000
30
0.0
40
0.300000
50
270.000000
51
0.000000
0
LINE
8
0
10
2.700000
20
8.200000
30
0.0
11
1.702023
21
8.200000
31
0.0
0
ARC
8
0
10
1.702023
20
8.500000
30
0.0
40
0.300000
50
180.000000
51
270.000000
0
LINE
8
0
10
1.402023
20
8.500000
30
0.0
11
1.402023
21
10.700004
31
0.0
0
ARC
8
0
10
1.702023
20
10.700004
30
0.0
40
0.300000
50
90.000000
51
180.000000
0
ARC
8
0
10
1.700000
20
11.300000
30
0.0
40
0.300000
50
270.000000
51
0.000000
0
LINE
8
0
10
2.000000
20
11.300000
30
0.0
11
2.000000
21
12.700000
31
0.0
0
ARC
8
0
10
2.300000
20
12.700000
30
0.0
40
0.300000
50
90.000000
51
180.000000
0
LINE
8
0
10
2.300000
20
13.000000
30
0.0
11
5.030555
21
13.000000
31
0.0
0
ARC
8
0
10
5.030555
20
12.700000
30
0.0
40
0.300000
50
37.142857
51
90.000000
0
LINE
8
0
10
5.269695
20
12.881142
30
0.0
11
6.097803
21
11.787888
31
0.0
0
ARC
8
0
10
6.336943
20
11.969029
30
0.0
40
0.300000
50
217.142857
51
332.519791
0
ARC
8
0
10
8.200000
20
11.000000
30
0.0
40
1.800000
50
127.142857
51
152.519791
0
LINE
8
0
10
7.113152
20
12.434839
30
0.0
11
6.932011
21
12.673979
31
0.0
0
ARC
8
0
10
8.200000
20
11.000000
30
0.0
40
2.100000
50
87.142857
51
127.142857
0
LINE
8
0
10
49.100000
20
8.711713
30
0.0
11
48.919615
21
8.711713
31
0.0
0
ARC
8
0
10
48.919615
20
9.011713
30
0.0
40
0.300000
50
240.000000
51
270.000000
0
LINE
8
0
10
48.769615
20
8.751905
30
0.0
11
47.385641
21
9.550943
31
0.0
0
ARC
8
0
10
46.785641
20
8.511713
30
0.0
40
1.200000
50
60.000000
51
90.000000
0
LINE
8
0
10
46.785641
20
9.711713
30
0.0
11
46.160284
21
9.711713
31
0.0
0
ARC
8
0
10
46.160284
20
9.211713
30
0.0
40
0.500000
50
90.000000
51
145.000000
0
LINE
8
0
10
45.750708
20
9.498501
30
0.0
11
44.308025
21
7.438136
31
0.0
0
ARC
8
0
10
43.488873
20
8.011713
30
0.0
40
1.000000
50
270.000000
51
325.000000
0
LINE
8
0
10
43.488873
20
7.011713
30
0.0
11
18.520567
21
7.011713
31
0.0
0
ARC
8
0
10
18.520567
20
8.011713
30
0.0
40
1.000000
50
215.000000
51
270.000000
0
LINE
8
0
10
17.701415
20
7.438136
30
0.0
11
16.258732
21
9.498501
31
0.0
0
ARC
8
0
10
15.849156
20
9.211713
30
0.0
40
0.500000
50
35.000000
51
90.000000
0
LINE
8
0
10
15.849156
20
9.711713
30
0.0
11
15.214359
21
9.711713
31
0.0
0
ARC
8
0
10
15.214359
20
8.511713
30
0.0
40
1.200000
50
90.000000
51
120.000000
0
LINE
8
0
10
14.614359
20
9.550943
30
0.0
11
13.230385
21
8.751905
31
0.0
0
ARC
8
0
10
13.080385
20
9.011713
30
0.0
40
0.300000
50
270.000000
51
300.000000
0
LINE
8
0
10
13.080385
20
8.711713
30
0.0
11
12.900000
21
8.711713
31
0.0
0
ARC
8
0
10
12.900000
20
9.111713
30
0.0
40
0.400000
50
180.000000
51
270.000000
0
LINE
8
0
10
12.500000
20
9.111713
30
0.0
11
12.500000
21
12.511713
31
0.0
0
ARC
8
0
10
12.900000
20
12.511713
30
0.0
40
0.400000
50
90.000000
51
180.000000
0
LINE
8
0
10
12.900000
20
12.911713
30
0.0
11
13.080385
21
12.911713
31
0.0
0
ARC
8
0
10
13.080385
20
12.611713
30
0.0
40
0.300000
50
60.000000
51
90.000000
0
LINE
8
0
10
13.230385
20
12.871520
30
0.0
11
14.614359
21
12.072482
31
0.0
0
ARC
8
0
10
15.214359
20
13.111713
30
0.0
40
1.200000
50
240.000000
51
270.000000
0
LINE
8
0
10
15.214359
20
11.911713
30
0.0
11
16.489965
21
11.911713
31
0.0
0
ARC
8
0
10
16.489965
20
10.911713
30
0.0
40
1.000000
50
35.000000
51
90.000000
0
LINE
8
0
10
17.309117
20
11.485289
30
0.0
11
18.584006
21
9.664560
31
0.0
0
ARC
8
0
10
20.222310
20
10.811713
30
0.0
40
2.000000
50
215.000000
51
270.000000
0
LINE
8
0
10
20.222310
20
8.811713
30
0.0
11
41.807414
21
8.811713
31
0.0
0
ARC
8
0
10
41.807414
20
10.811713
30
0.0
40
2.000000
50
270.000000
51
324.745828
0
LINE
8
0
10
43.440613
20
9.657303
30
0.0
11
44.735270
21
11.488917
31
0.0
0
ARC
8
0
10
45.551870
20
10.911713
30
0.0
40
1.000000
50
90.000000
51
144.745828
0
LINE
8
0
10
45.551870
20
11.911713
30
0.0
11
46.785641
21
11.911713
31
0.0
0
ARC
8
0
10
46.785641
20
13.111713
30
0.0
40
1.200000
50
270.000000
51
300.000000
0
LINE
8
0
10
47.385641
20
12.072482
30
0.0
11
48.769615
21
12.871520
31
0.0
0
ARC
8
0
10
48.919615
20
12.611713
30
0.0
40
0.300000
50
90.000000
51
120.000000
0
LINE
8
0
10
48.919615
20
12.911713
30
0.0
11
49.100000
21
12.911713
31
0.0
0
ARC
8
0
10
49.100000
20
12.511713
30
0.0
40
0.400000
50
0.000000
51
90.000000
0
LINE
8
0
10
49.500000
20
12.511713
30
0.0
11
49.500000
21
9.111713
31
0.0
0
ARC
8
0
10
49.100000
20
9.111713
30
0.0
40
0.400000
50
270.000000
51
0.000000
0
LINE
8
0
10
9.114999
20
15.539423
30
0.0
11
7.706389
21
14.726763
31
0.0
0
ARC
8
0
10
7.606445
20
14.900000
30
0.0
40
0.200000
50
270.000000
51
299.981639
0
LINE
8
0
10
7.606445
20
14.700000
30
0.0
11
7.400000
21
14.700000
31
0.0
0
ARC
8
0
10
7.400000
20
15.100000
30
0.0
40
0.400000
50
180.000000
51
270.000000
0
LINE
8
0
10
7.000000
20
15.100000
30
0.0
11
7.000000
21
18.500000
31
0.0
0
ARC
8
0
10
7.400000
20
18.500000
30
0.0
40
0.400000
50
90.000000
51
180.000000
0
LINE
8
0
10
7.400000
20
18.900000
30
0.0
11
7.606445
21
18.900000
31
0.0
0
ARC
8
0
10
7.606445
20
18.700000
30
0.0
40
0.200000
50
60.018361
51
90.000000
0
LINE
8
0
10
7.706389
20
18.873237
30
0.0
11
9.114999
21
18.060578
31
0.0
0
ARC
8
0
10
9.714666
20
19.100000
30
0.0
40
1.200000
50
240.018361
51
270.000000
0
LINE
8
0
10
9.714666
20
17.900000
30
0.0
11
10.397368
21
17.900000
31
0.0
0
ARC
8
0
10
10.397368
20
18.200000
30
0.0
40
0.300000
50
270.000000
51
324.745828
0
LINE
8
0
10
10.642348
20
18.026839
30
0.0
11
12.453103
21
20.588603
31
0.0
0
ARC
8
0
10
12.861403
20
20.300000
30
0.0
40
0.500000
50
90.000000
51
144.745828
0
LINE
8
0
10
12.861403
20
20.800000
30
0.0
11
43.500000
21
20.800001
31
0.0
0
ARC
8
0
10
43.500000
20
21.300001
30
0.0
40
0.500000
50
270.000000
51
0.000000
0
LINE
8
0
10
44.000000
20
21.300001
30
0.0
11
44.000000
21
25.500000
31
0.0
0
ARC
8
0
10
44.300000
20
25.500000
30
0.0
40
0.300000
50
90.000000
51
180.000000
0
LINE
8
0
10
44.300000
20
25.800000
30
0.0
11
46.949445
21
25.800000
31
0.0
0
ARC
8
0
10
46.949445
20
25.500000
30
0.0
40
0.300000
50
30.000000
51
90.000000
0
LINE
8
0
10
47.209252
20
25.650000
30
0.0
11
47.659808
21
24.869616
31
0.0
0
ARC
8
0
10
47.400000
20
24.719616
30
0.0
40
0.300000
50
0.000000
51
30.000000
0
LINE
8
0
10
47.700000
20
24.719616
30
0.0
11
47.700000
21
24.600000
31
0.0
0
ARC
8
0
10
47.400000
20
24.600000
30
0.0
40
0.300000
50
270.000000
51
0.000000
0
LINE
8
0
10
47.400000
20
24.300000
30
0.0
11
46.000000
21
24.300000
31
0.0
0
ARC
8
0
10
46.000000
20
24.000000
30
0.0
40
0.300000
50
90.000000
51
180.000000
0
LINE
8
0
10
45.700000
20
24.000000
30
0.0
11
45.700000
21
21.300000
31
0.0
0
ARC
8
0
10
46.200000
20
21.300000
30
0.0
40
0.500000
50
180.000000
51
270.000000
0
LINE
8
0
10
46.200000
20
20.800000
30
0.0
11
49.138597
21
20.800000
31
0.0
0
ARC
8
0
10
49.138597
20
20.300000
30
0.0
40
0.500000
50
35.254172
51
90.000000
0
LINE
8
0
10
49.546897
20
20.588603
30
0.0
11
51.357652
21
18.026839
31
0.0
0
ARC
8
0
10
51.602632
20
18.200000
30
0.0
40
0.300000
50
215.254172
51
270.000000
0
LINE
8
0
10
51.602632
20
17.900000
30
0.0
11
52.285334
21
17.900000
31
0.0
0
ARC
8
0
10
52.285334
20
19.100000
30
0.0
40
1.200000
50
270.000000
51
299.981639
0
LINE
8
0
10
52.885001
20
18.060578
30
0.0
11
54.293611
21
18.873237
31
0.0
0
ARC
8
0
10
54.393556
20
18.700000
30
0.0
40
0.200000
50
90.000000
51
119.981639
0
LINE
8
0
10
54.393556
20
18.900000
30
0.0
11
54.600000
21
18.900000
31
0.0
0
ARC
8
0
10
54.600000
20
18.500000
30
0.0
40
0.400000
50
0.000000
51
90.000000
0
LINE
8
0
10
55.000000
20
18.500000
30
0.0
11
55.000000
21
15.100000
31
0.0
0
ARC
8
0
10
54.600000
20
15.100000
30
0.0
40
0.400000
50
270.000000
51
0.000000
0
LINE
8
0
10
54.600000
20
14.700000
30
0.0
11
54.393556
21
14.700000
31
0.0
0
ARC
8
0
10
54.393556
20
14.900000
30
0.0
40
0.200000
50
240.018361
51
270.000000
0
LINE
8
0
10
54.293611
20
14.726763
30
0.0
11
52.885001
21
15.539423
31
0.0
0
ARC
8
0
10
52.285334
20
14.500000
30
0.0
40
1.200000
50
60.018361
51
90.000000
0
LINE
8
0
10
52.285334
20
15.700000
30
0.0
11
50.826005
21
15.700000
31
0.0
0
ARC
8
0
10
50.826005
20
16.700000
30
0.0
40
1.000000
50
215.254172
51
270.000000
0
LINE
8
0
10
50.009406
20
16.122796
30
0.0
11
48.475672
21
18.292644
31
0.0
0
ARC
8
0
10
47.495752
20
17.599998
30
0.0
40
1.200000
50
35.254172
51
90.000000
0
LINE
8
0
10
47.495752
20
18.799998
30
0.0
11
14.504248
21
18.799998
31
0.0
0
ARC
8
0
10
14.504248
20
17.599998
30
0.0
40
1.200000
50
90.000000
51
144.745828
0
LINE
8
0
10
13.524329
20
18.292644
30
0.0
11
11.990594
21
16.122796
31
0.0
0
ARC
8
0
10
11.173995
20
16.700000
30
0.0
40
1.000000
50
270.000000
51
324.745828
0
LINE
8
0
10
11.173995
20
15.700000
30
0.0
11
9.714666
21
15.700000
31
0.0
0
ARC
8
0
10
9.714666
20
14.500000
30
0.0
40
1.200000
50
90.000000
51
119.981639
0
ATTDEF
8
0
10
44.300000
20
25.800000
30
0.0
40
3.5
1

3

2
VC_START
70
0
0
ATTDEF
8
0
10
58.500000
20
6.800000
30
0.0
40
3.5
1

3

2
VC_END
70
0
0
ARC
8
0
10
71.900000
20
15.498465
30
0.0
40
0.500000
50
270.000000
51
0.000000
0
LINE
8
0
10
72.400000
20
15.498465
30
0.0
11
72.400000
21
21.899887
31
0.0
0
ARC
8
0
10
71.400000
20
21.899887
30
0.0
40
1.000000
50
0.000000
51
90.000000
0
LINE
8
0
10
71.400000
20
22.899887
30
0.0
11
70.981899
21
22.899887
31
0.0
0
ARC
8
0
10
70.981899
20
22.399887
30
0.0
40
0.500000
50
90.000000
51
165.000000
0
LINE
8
0
10
70.498937
20
22.529296
30
0.0
11
69.598944
21
19.170477
31
0.0
0
ARC
8
0
10
69.115981
20
19.299887
30
0.0
40
0.500000
50
270.000000
51
345.000000
0
LINE
8
0
10
69.115981
20
18.799887
30
0.0
11
68.000000
21
18.799887
31
0.0
0
ARC
8
0
10
68.000000
20
18.099887
30
0.0
40
0.700000
50
90.000000
51
180.000000
0
ARC
8
0
10
67.600000
20
18.099887
30
0.0
40
0.300000
50
180.000000
51
270.000000
0
LINE
8
0
10
67.600000
20
17.799887
30
0.0
11
68.100000
21
17.799887
31
0.0
0
ARC
8
0
10
68.100000
20
17.499887
30
0.0
40
0.300000
50
0.000000
51
90.000000
0
LINE
8
0
10
68.400000
20
17.499887
30
0.0
11
68.400000
21
17.327237
31
0.0
0
ARC
8
0
10
67.400000
20
17.327237
30
0.0
40
1.000000
50
300.000000
51
0.000000
0
LINE
8
0
10
67.900000
20
16.461212
30
0.0
11
66.177757
21
15.466874
31
0.0
0
ARC
8
0
10
65.927757
20
15.899887
30
0.0
40
0.500000
50
270.000000
51
300.000000
0
LINE
8
0
10
65.927757
20
15.399887
30
0.0
11
65.672243
21
15.399887
31
0.0
0
ARC
8
0
10
65.672243
20
15.899887
30
0.0
40
0.500000
50
240.000000
51
270.000000
0
LINE
8
0
10
65.422243
20
15.466874
30
0.0
11
63.700000
21
16.461212
31
0.0
0
ARC
8
0
10
64.200000
20
17.327237
30
0.0
40
1.000000
50
180.000000
51
240.000000
0
LINE
8
0
10
63.200000
20
17.327237
30
0.0
11
63.200000
21
17.499887
31
0.0
0
ARC
8
0
10
63.500000
20
17.499887
30
0.0
40
0.300000
50
90.000000
51
180.000000
0
LINE
8
0
10
63.500000
20
17.799887
30
0.0
11
64.000000
21
17.799887
31
0.0
0
ARC
8
0
10
64.000000
20
18.099887
30
0.0
40
0.300000
50
270.000000
51
0.000000
0
ARC
8
0
10
63.600000
20
18.099887
30
0.0
40
0.700000
50
0.000000
51
90.000000
0
LINE
8
0
10
63.600000
20
18.799887
30
0.0
11
62.500000
21
18.799887
31
0.0
0
ARC
8
0
10
62.500000
20
18.299887
30
0.0
40
0.500000
50
90.000000
51
180.000000
0
LINE
8
0
10
62.000000
20
18.299887
30
0.0
11
62.000000
21
12.499887
31
0.0
0
ARC
8
0
10
62.300000
20
12.499887
30
0.0
40
0.300000
50
180.000000
51
270.000000
0
LINE
8
0
10
62.300000
20
12.199887
30
0.0
11
62.900000
21
12.199887
31
0.0
0
ARC
8
0
10
62.900000
20
11.899887
30
0.0
40
0.300000
50
0.000000
51
90.000000
0
LINE
8
0
10
63.200000
20
11.899887
30
0.0
11
63.200000
21
8.899887
31
0.0
0
ARC
8
0
10
62.900000
20
8.899887
30
0.0
40
0.300000
50
270.000000
51
0.000000
0
LINE
8
0
10
62.900000
20
8.599887
30
0.0
11
62.300000
21
8.599887
31
0.0
0
ARC
8
0
10
62.300000
20
8.299887
30
0.0
40
0.300000
50
90.000000
51
180.000000
0
LINE
8
0
10
62.000000
20
8.299887
30
0.0
11
62.000000
21
7.100000
31
0.0
0
ARC
8
0
10
61.700000
20
7.100000
30
0.0
40
0.300000
50
270.000000
51
0.000000
0
LINE
8
0
10
61.700000
20
6.800000
30
0.0
11
60.200000
21
6.800000
31
0.0
0
ARC
8
0
10
60.200000
20
6.500000
30
0.0
40
0.300000
50
90.000000
51
180.000000
0
LINE
8
0
10
59.900000
20
6.500000
30
0.0
11
59.900000
21
2.200000
31
0.0
0
ARC
8
0
10
60.400000
20
2.200000
30
0.0
40
0.500000
50
180.000000
51
270.000000
0
LINE
8
0
10
60.400000
20
1.700000
30
0.0
11
61.400000
21
1.700000
31
0.0
0
ARC
8
0
10
61.400000
20
4.200000
30
0.0
40
2.500000
50
270.000000
51
324.672086
0
ARC
8
0
10
65.887208
20
1.019597
30
0.0
40
3.000000
50
107.585703
51
144.672086
0
ARC
8
0
10
67.700000
20
-4.700000
30
0.0
40
9.000000
50
94.301222
51
107.585703
0
ARC
8
0
10
67.100000
20
3.277469
30
0.0
40
1.000000
50
274.301222
51
94.301222
0
ARC
8
0
10
67.700000
20
-4.700000
30
0.0
40
7.000000
50
94.301222
51
106.076650
0
ARC
8
0
10
65.900000
20
1.545799
30
0.0
40
0.500000
50
106.076650
51
180.000000
0
LINE
8
0
10
65.400000
20
1.545799
30
0.0
11
65.400000
21
0.500000
31
0.0
0
ARC
8
0
10
65.900000
20
0.500000
30
0.0
40
0.500000
50
180.000000
51
270.000000
0
LINE
8
0
10
65.900000
20
0.000000
30
0.0
11
71.900000
21
0.000000
31
0.0
0
ARC
8
0
10
71.900000
20
0.500000
30
0.0
40
0.500000
50
270.000000
51
0.000000
0
LINE
8
0
10
72.400000
20
0.500000
30
0.0
11
72.400000
21
5.199887
31
0.0
0
ARC
8
0
10
71.900000
20
5.199887
30
0.0
40
0.500000
50
0.000000
51
90.000000
0
LINE
8
0
10
71.900000
20
5.699887
30
0.0
11
71.600000
21
5.699887
31
0.0
0
ARC
8
0
10
71.600000
20
5.899887
30
0.0
40
0.200000
50
180.000000
51
270.000000
0
LINE
8
0
10
71.400000
20
5.899887
30
0.0
11
71.400000
21
6.349887
31
0.0
0
ARC
8
0
10
71.150000
20
6.349887
30
0.0
40
0.250000
50
0.000000
51
90.000000
0
LINE
8
0
10
71.150000
20
6.599887
30
0.0
11
70.750000
21
6.599887
31
0.0
0
ARC
8
0
10
70.750000
20
6.349887
30
0.0
40
0.250000
50
90.000000
51
180.000000
0
LINE
8
0
10
70.500000
20
6.349887
30
0.0
11
70.500000
21
5.899887
31
0.0
0
ARC
8
0
10
70.300000
20
5.899887
30
0.0
40
0.200000
50
270.000000
51
0.000000
0
LINE
8
0
10
70.300000
20
5.699887
30
0.0
11
69.307107
21
5.699887
31
0.0
0
ARC
8
0
10
69.307107
20
6.199887
30
0.0
40
0.500000
50
225.000000
51
270.000000
0
LINE
8
0
10
68.953553
20
5.846333
30
0.0
11
66.287868
21
8.512019
31
0.0
0
ARC
8
0
10
66.500000
20
8.724151
30
0.0
40
0.300000
50
180.000000
51
225.000000
0
LINE
8
0
10
66.200000
20
8.724151
30
0.0
11
66.200000
21
10.049887
31
0.0
0
LINE
8
0
10
66.200000
20
10.049887
30
0.0
11
65.900000
21
10.349887
31
0.0
0
LINE
8
0
10
65.900000
20
10.349887
30
0.0
11
66.200000
21
10.649887
31
0.0
0
LINE
8
0
10
66.200000
20
10.649887
30
0.0
11
66.200000
21
11.975623
31
0.0
0
ARC
8
0
10
66.500000
20
11.975623
30
0.0
40
0.300000
50
135.000000
51
180.000000
0
LINE
8
0
10
66.287868
20
12.187755
30
0.0
11
68.953553
21
14.853440
31
0.0
0
ARC
8
0
10
69.307107
20
14.499887
30
0.0
40
0.500000
50
90.000000
51
135.000000
0
LINE
8
0
10
69.307107
20
14.999887
30
0.0
11
70.300000
21
14.999887
31
0.0
0
ARC
8
0
10
70.300000
20
14.799887
30
0.0
40
0.200000
50
0.000000
51
90.000000
0
LINE
8
0
10
70.500000
20
14.799887
30
0.0
11
70.500000
21
14.349887
31
0.0
0
ARC
8
0
10
70.750000
20
14.349887
30
0.0
40
0.250000
50
180.000000
51
270.000000
0
LINE
8
0
10
70.750000
20
14.099887
30
0.0
11
71.150000
21
14.099887
31
0.0
0
ARC
8
0
10
71.150000
20
14.349887
30
0.0
40
0.250000
50
270.000000
51
0.000000
0
LINE
8
0
10
71.400000
20
14.349887
30
0.0
11
71.400000
21
14.799887
31
0.0
0
ARC
8
0
10
71.600000
20
14.799887
30
0.0
40
0.200000
50
90.000000
51
180.000000
0
LINE
8
0
10
71.600000
20
14.999887
30
0.0
11
71.900000
21
14.999887
31
0.0
0
ARC
8
0
10
68.063601
20
-4.580571
30
0.0
40
7.300000
50
99.375824
51
113.579898
0
ARC
8
0
10
67.161895
20
3.368449
30
0.0
40
0.800000
50
248.935524
51
126.784723
0
ARC
8
0
10
68.063601
20
-4.580571
30
0.0
40
8.700000
50
99.131874
51
109.799206
0
ARC
8
0
10
66.048188
20
1.017697
30
0.0
40
2.750000
50
109.799206
51
160.608769
0
ARC
8
0
10
62.982549
20
2.096752
30
0.0
40
0.500000
50
270.000000
51
340.608769
0
LINE
8
0
10
62.982549
20
1.596752
30
0.0
11
5.600000
21
1.596752
31
0.0
0
ARC
8
0
10
5.600000
20
1.896752
30
0.0
40
0.300000
50
180.000000
51
270.000000
0
LINE
8
0
10
5.300000
20
1.896752
30
0.0
11
5.300000
21
9.223794
31
0.0
0
ARC
8
0
10
4.800000
20
9.223794
30
0.0
40
0.500000
50
0.000000
51
35.000000
0
LINE
8
0
10
5.209576
20
9.510583
30
0.0
11
4.575029
21
10.416810
31
0.0
0
ARC
8
0
10
4.820775
20
10.588883
30
0.0
40
0.300000
50
145.000000
51
215.000000
0
LINE
8
0
10
4.575029
20
10.760956
30
0.0
11
5.209576
21
11.667183
31
0.0
0
ARC
8
0
10
4.800000
20
11.953971
30
0.0
40
0.500000
50
325.000000
51
145.000000
0
LINE
8
0
10
4.390424
20
12.240759
30
0.0
11
3.354254
21
10.760956
31
0.0
0
ARC
8
0
10
3.600000
20
10.588883
30
0.0
40
0.300000
50
145.000000
51
215.000000
0
LINE
8
0
10
3.354254
20
10.416810
30
0.0
11
4.045746
21
9.429258
31
0.0
0
ARC
8
0
10
3.800000
20
9.257185
30
0.0
40
0.300000
50
0.000000
51
35.000000
0
LINE
8
0
10
4.100000
20
9.257185
30
0.0
11
4.100000
21
1.900000
31
0.0
0
ARC
8
0
10
3.800000
20
1.900000
30
0.0
40
0.300000
50
270.000000
51
0.000000
0
LINE
8
0
10
3.800000
20
1.600000
30
0.0
11
2.000000
21
1.600000
31
0.0
0
ARC
8
0
10
2.000000
20
2.100000
30
0.0
40
0.500000
50
180.000000
51
270.000000
0
LINE
8
0
10
1.500000
20
2.100000
30
0.0
11
1.500000
21
6.500000
31
0.0
0
ARC
8
0
10
1.200000
20
6.500000
30
0.0
40
0.300000
50
0.000000
51
90.000000
0
LINE
8
0
10
1.200000
20
6.800000
30
0.0
11
0.300000
21
6.800000
31
0.0
0
ARC
8
0
10
0.300000
20
6.500000
30
0.0
40
0.300000
50
90.000000
51
180.000000
0
LINE
8
0
10
0.000000
20
6.500000
30
0.0
11
0.000000
21
0.403248
31
0.0
0
ARC
8
0
10
0.305618
20
0.405575
30
0.0
40
0.305627
50
180.000000
51
270.000000
0
LINE
8
0
10
0.300000
20
0.100000
30
0.0
11
64.998188
21
0.100000
31
0.0
0
ARC
8
0
10
64.998188
20
0.400000
30
0.0
40
0.300000
50
270.000000
51
0.000000
0
LINE
8
0
10
65.298188
20
0.400000
30
0.0
11
65.298188
21
1.296752
31
0.0
0
ARC
8
0
10
64.998188
20
1.296752
30
0.0
40
0.300000
50
0.000000
51
63.766256
0
ARC
8
0
10
65.263408
20
1.834950
30
0.0
40
0.300000
50
113.579898
51
243.766256
0
ATTDEF
8
0
10
0.000000
20
0.000000
30
0.0
40
3.5
1

3

2
GLASS_MIN:0.000000
70
0
0
ATTDEF
8
0
10
0.000000
20
0.000000
30
0.0
40
3.5
1

3

2
GLASS_MAX:0.000000
70
0
0
ATTDEF
8
0
10
0.000000
20
0.000000
30
0.0
40
3.5
1

3

2
BL01:6500.000000,,1
70
0
0
ATTDEF
8
0
10
0.000000
20
0.000000
30
0.0
40
3.5
1

3

2
HW_START
70
0
0
ATTDEF
8
0
10
72.400000
20
43.800000
30
0.0
40
3.5
1

3

2
HW_END
70
0
0
ATTDEF
8
0
10
0.000000
20
0.000000
30
0.0
40
3.5
1

3

2
FP_LCS_ORIG
70
0
0
ATTDEF
8
0
10
10.000000
20
0.000000
30
0.0
40
3.5
1

3

2
FP_LCS_HOT
70
0
0
ATTDEF
8
0
10
0.000000
20
10.000000
30
0.0
40
3.5
1

3

2
FP_LCS_INTERN
70
0
0
ATTDEF
8
0
10
0.000000
20
0.000000
30
0.0
40
3.5
1

3

2
TDEV3:0
70
0
0
ATTDEF
8
0
10
0.000000
20
0.000000
30
0.0
40
3.5
1

3

2
TDEV4:0
70
0
0
ATTDEF
8
0
10
0.000000
20
0.000000
30
0.0
40
3.5
1

3

2
TDEV5:0
70
0
0
ATTDEF
8
0
10
0.000000
20
0.000000
30
0.0
40
3.5
1

3

2
PANE_WIDTH:57.5
70
0
0
ATTDEF
8
0
10
0.000000
20
0.000000
30
0.0
40
3.5
1

3

2
MIN_VETRO:0
70
0
0
ATTDEF
8
0
10
0.000000
20
0.000000
30
0.0
40
3.5
1

3

2
MAX_VETRO:0
70
0
0
ATTDEF
8
0
10
0.000000
20
0.000000
30
0.0
40
3.5
1

3

2
JX:0
70
0
0
ATTDEF
8
0
10
0.000000
20
0.000000
30
0.0
40
3.5
1

3

2
WX:0
70
0
0
ATTDEF
8
0
10
0.000000
20
0.000000
30
0.0
40
3.5
1

3

2
JY:0
70
0
0
ATTDEF
8
0
10
0.000000
20
0.000000
30
0.0
40
3.5
1

3

2
WY:0
70
0
0
ATTDEF
8
0
10
0.000000
20
0.000000
30
0.0
40
3.5
1

3

2
DESC:U10120 - V31015 - N10909
70
0
0
ATTDEF
8
0
10
0.000000
20
0.000000
30
0.0
40
3.5
1

3

2
DENS:0
70
0
0
ATTDEF
8
0
10
0.000000
20
0.000000
30
0.0
40
3.5
1

3

2
TDEV:0
70
0
0
ATTDEF
8
0
10
0.000000
20
0.000000
30
0.0
40
3.5
1

3

2
TDEV2:0
70
0
0
ATTDEF
8
0
10
0.000000
20
0.000000
30
0.0
40
3.5
1

3

2
TDEV3:0
70
0
0
ATTDEF
8
0
10
0.000000
20
0.000000
30
0.0
40
3.5
1

3

2
TDEV4:0
70
0
0
ATTDEF
8
0
10
0.000000
20
0.000000
30
0.0
40
3.5
1

3

2
TDEV5:0
70
0
0
ATTDEF
8
0
10
0.000000
20
0.000000
30
0.0
40
3.5
1

3

2
PANE_WIDTH:57.5
70
0
0
ATTDEF
8
0
10
0.000000
20
0.000000
30
0.0
40
3.5
1

3

2
MIN_VETRO:0
70
0
0
ATTDEF
8
0
10
0.000000
20
0.000000
30
0.0
40
3.5
1

3

2
MAX_VETRO:0
70
0
0
ATTDEF
8
0
10
0.000000
20
0.000000
30
0.0
40
3.5
1

3

2
JX:0
70
0
0
ATTDEF
8
0
10
0.000000
20
0.000000
30
0.0
40
3.5
1

3

2
WX:0
70
0
0
ATTDEF
8
0
10
0.000000
20
0.000000
30
0.0
40
3.5
1

3

2
JY:0
70
0
0
ATTDEF
8
0
10
0.000000
20
0.000000
30
0.0
40
3.5
1

3

2
WY:0
70
0
0
ENDSEC
0
EOF
