0
SECTION
2
ENTITIES
0
LINE
8
0
10
54.100000
20
63.300563
30
0.0
11
56.300000
21
63.300563
31
0.0
0
ARC
8
0
10
56.300000
20
63.600563
30
0.0
40
0.300000
50
270.000000
51
0.000000
0
LINE
8
0
10
56.600000
20
63.600563
30
0.0
11
56.600000
21
69.500000
31
0.0
0
ARC
8
0
10
56.900000
20
69.500000
30
0.0
40
0.300000
50
90.000000
51
180.000000
0
LINE
8
0
10
56.900000
20
69.800000
30
0.0
11
60.200000
21
69.800000
31
0.0
0
ARC
8
0
10
60.200000
20
69.500000
30
0.0
40
0.300000
50
0.000000
51
90.000000
0
LINE
8
0
10
60.500000
20
69.500000
30
0.0
11
60.500000
21
49.900563
31
0.0
0
ARC
8
0
10
60.200000
20
49.900563
30
0.0
40
0.300000
50
270.000000
51
0.000000
0
LINE
8
0
10
60.200000
20
49.600563
30
0.0
11
51.800000
21
49.600563
31
0.0
0
ARC
8
0
10
51.800000
20
49.900563
30
0.0
40
0.300000
50
180.000000
51
270.000000
0
LINE
8
0
10
51.500000
20
49.900563
30
0.0
11
51.500000
21
63.000563
31
0.0
0
ARC
8
0
10
51.800000
20
63.000563
30
0.0
40
0.300000
50
90.000000
51
180.000000
0
LINE
8
0
10
51.800000
20
63.300563
30
0.0
11
53.500000
21
63.300563
31
0.0
0
LINE
8
0
10
53.500000
20
63.300563
30
0.0
11
53.800000
21
63.600563
31
0.0
0
LINE
8
0
10
53.800000
20
63.600563
30
0.0
11
54.100000
21
63.300563
31
0.0
0
ARC
8
0
10
59.000000
20
38.200000
30
0.0
40
0.300000
50
270.000000
51
0.000000
0
LINE
8
0
10
59.300000
20
38.200000
30
0.0
11
59.300000
21
39.100000
31
0.0
0
ARC
8
0
10
59.600000
20
39.100000
30
0.0
40
0.300000
50
90.000000
51
180.000000
0
LINE
8
0
10
59.600000
20
39.400000
30
0.0
11
60.200000
21
39.400000
31
0.0
0
ARC
8
0
10
60.200000
20
39.100000
30
0.0
40
0.300000
50
0.000000
51
90.000000
0
LINE
8
0
10
60.500000
20
39.100000
30
0.0
11
60.500000
21
22.600000
31
0.0
0
ARC
8
0
10
60.200000
20
22.600000
30
0.0
40
0.300000
50
270.000000
51
0.000000
0
LINE
8
0
10
60.200000
20
22.300000
30
0.0
11
59.600000
21
22.300000
31
0.0
0
ARC
8
0
10
59.600000
20
22.600000
30
0.0
40
0.300000
50
180.000000
51
270.000000
0
LINE
8
0
10
59.300000
20
22.600000
30
0.0
11
59.300000
21
23.500000
31
0.0
0
ARC
8
0
10
59.000000
20
23.500000
30
0.0
40
0.300000
50
0.000000
51
90.000000
0
LINE
8
0
10
59.000000
20
23.800000
30
0.0
11
58.300000
21
23.800000
31
0.0
0
ARC
8
0
10
58.300000
20
23.500000
30
0.0
40
0.300000
50
90.000000
51
180.000000
0
LINE
8
0
10
58.000000
20
23.500000
30
0.0
11
58.000000
21
19.900000
31
0.0
0
ARC
8
0
10
58.300000
20
19.900000
30
0.0
40
0.300000
50
180.000000
51
270.000000
0
LINE
8
0
10
58.300000
20
19.600000
30
0.0
11
58.700000
21
19.600000
31
0.0
0
ARC
8
0
10
58.700000
20
19.900000
30
0.0
40
0.300000
50
270.000000
51
0.000000
0
LINE
8
0
10
59.000000
20
19.900000
30
0.0
11
59.000000
21
20.800000
31
0.0
0
ARC
8
0
10
59.300000
20
20.800000
30
0.0
40
0.300000
50
90.000000
51
180.000000
0
LINE
8
0
10
59.300000
20
21.100000
30
0.0
11
59.997977
21
21.100000
31
0.0
0
ARC
8
0
10
59.997977
20
20.800000
30
0.0
40
0.300000
50
0.000000
51
90.000000
0
LINE
8
0
10
60.297977
20
20.800000
30
0.0
11
60.297977
21
20.050000
31
0.0
0
ARC
8
0
10
60.597977
20
20.050000
30
0.0
40
0.300000
50
180.000000
51
240.000000
0
ARC
8
0
10
60.297977
20
19.530385
30
0.0
40
0.300000
50
0.000000
51
60.000000
0
LINE
8
0
10
60.597977
20
19.530385
30
0.0
11
60.597977
21
15.069616
31
0.0
0
ARC
8
0
10
60.297977
20
15.069616
30
0.0
40
0.300000
50
300.000000
51
0.000000
0
ARC
8
0
10
60.597977
20
14.550000
30
0.0
40
0.300000
50
120.000000
51
180.000000
0
LINE
8
0
10
60.297977
20
14.550000
30
0.0
11
60.297977
21
13.800000
31
0.0
0
ARC
8
0
10
59.997977
20
13.800000
30
0.0
40
0.300000
50
270.000000
51
0.000000
0
LINE
8
0
10
59.997977
20
13.500000
30
0.0
11
59.300000
21
13.500000
31
0.0
0
ARC
8
0
10
59.300000
20
13.800000
30
0.0
40
0.300000
50
180.000000
51
270.000000
0
LINE
8
0
10
59.000000
20
13.800000
30
0.0
11
59.000000
21
14.700000
31
0.0
0
ARC
8
0
10
58.700000
20
14.700000
30
0.0
40
0.300000
50
0.000000
51
90.000000
0
LINE
8
0
10
58.700000
20
15.000000
30
0.0
11
58.300000
21
15.000000
31
0.0
0
ARC
8
0
10
58.300000
20
14.700000
30
0.0
40
0.300000
50
90.000000
51
180.000000
0
LINE
8
0
10
58.000000
20
14.700000
30
0.0
11
58.000000
21
12.600000
31
0.0
0
ARC
8
0
10
58.300000
20
12.600000
30
0.0
40
0.300000
50
180.000000
51
270.000000
0
LINE
8
0
10
58.300000
20
12.300000
30
0.0
11
61.500000
21
12.300000
31
0.0
0
ARC
8
0
10
61.500000
20
12.800000
30
0.0
40
0.500000
50
270.000000
51
0.000000
0
LINE
8
0
10
62.000000
20
12.800000
30
0.0
11
62.000000
21
76.000000
31
0.0
0
ARC
8
0
10
61.700000
20
76.000000
30
0.0
40
0.300000
50
0.000000
51
90.000000
0
LINE
8
0
10
61.700000
20
76.300000
30
0.0
11
58.450555
21
76.300000
31
0.0
0
ARC
8
0
10
58.450555
20
76.000000
30
0.0
40
0.300000
50
90.000000
51
150.000000
0
LINE
8
0
10
58.190748
20
76.150000
30
0.0
11
57.740192
21
75.369616
31
0.0
0
ARC
8
0
10
58.000000
20
75.219616
30
0.0
40
0.300000
50
150.000000
51
180.000000
0
LINE
8
0
10
57.700000
20
75.219616
30
0.0
11
57.700000
21
75.100000
31
0.0
0
ARC
8
0
10
58.000000
20
75.100000
30
0.0
40
0.300000
50
180.000000
51
270.000000
0
LINE
8
0
10
58.000000
20
74.800000
30
0.0
11
59.900000
21
74.800000
31
0.0
0
ARC
8
0
10
59.900000
20
74.500000
30
0.0
40
0.300000
50
0.000000
51
90.000000
0
LINE
8
0
10
60.200000
20
74.500000
30
0.0
11
60.200000
21
71.600000
31
0.0
0
ARC
8
0
10
59.900000
20
71.600000
30
0.0
40
0.300000
50
270.000000
51
0.000000
0
LINE
8
0
10
59.900000
20
71.300000
30
0.0
11
54.730521
21
71.300000
31
0.0
0
ARC
8
0
10
54.730521
20
71.000000
30
0.0
40
0.300000
50
90.000000
51
109.778171
0
LINE
8
0
10
54.629007
20
71.282303
30
0.0
11
53.328683
21
70.814717
31
0.0
0
ARC
8
0
10
53.249164
20
71.035855
30
0.0
40
0.235000
50
204.000000
51
289.778171
0
ARC
8
0
10
52.813229
20
70.859441
30
0.0
40
0.235000
50
24.000000
51
90.000000
0
LINE
8
0
10
52.814786
20
71.094436
30
0.0
11
51.235857
21
71.104893
31
0.0
0
ARC
8
0
10
51.233870
20
70.804900
30
0.0
40
0.300000
50
90.000000
51
204.620541
0
LINE
8
0
10
50.961144
20
70.679918
30
0.0
11
51.909794
21
68.574402
31
0.0
0
ARC
8
0
10
52.183314
20
68.697638
30
0.0
40
0.300000
50
204.254172
51
244.620541
0
LINE
8
0
10
52.054731
20
68.426591
30
0.0
11
52.562153
21
68.185872
31
0.0
0
ARC
8
0
10
52.647876
20
68.366570
30
0.0
40
0.200000
50
244.620541
51
4.620541
0
LINE
8
0
10
52.847226
20
68.382681
30
0.0
11
52.837924
21
68.497776
31
0.0
0
ARC
8
0
10
53.136949
20
68.521943
30
0.0
40
0.300000
50
124.620541
51
184.620541
0
LINE
8
0
10
52.966507
20
68.768823
30
0.0
11
54.595264
21
69.893289
31
0.0
0
LINE
8
0
10
54.595264
20
69.893289
30
0.0
11
54.777973
21
69.974636
31
0.0
0
ARC
8
0
10
54.899975
20
69.700554
30
0.0
40
0.300009
50
311.812671
51
113.995287
0
ARC
8
0
10
55.300000
20
69.253349
30
0.0
40
0.300000
50
131.812671
51
180.000000
0
LINE
8
0
10
55.000000
20
69.253349
30
0.0
11
55.000000
21
65.400563
31
0.0
0
ARC
8
0
10
54.700000
20
65.400563
30
0.0
40
0.300000
50
270.000000
51
0.000000
0
LINE
8
0
10
54.700000
20
65.100563
30
0.0
11
54.478807
21
65.100563
31
0.0
0
ARC
8
0
10
54.478807
20
65.400563
30
0.0
40
0.300000
50
238.600000
51
270.000000
0
LINE
8
0
10
54.322504
20
65.144498
30
0.0
11
52.804202
21
66.071273
31
0.0
0
ARC
8
0
10
52.700000
20
65.900563
30
0.0
40
0.200000
50
58.600000
51
180.000000
0
LINE
8
0
10
52.500000
20
65.900563
30
0.0
11
52.500000
21
65.550563
31
0.0
0
ARC
8
0
10
52.200000
20
65.550563
30
0.0
40
0.300000
50
270.000000
51
0.000000
0
LINE
8
0
10
52.200000
20
65.250563
30
0.0
11
48.786766
21
65.250563
31
0.0
0
ARC
8
0
10
48.786766
20
64.250563
30
0.0
40
1.000000
50
90.000000
51
121.400000
0
LINE
8
0
10
48.265756
20
65.104114
30
0.0
11
47.978990
21
64.929071
31
0.0
0
ARC
8
0
10
48.500000
20
64.075520
30
0.0
40
1.000000
50
121.400000
51
180.000000
0
LINE
8
0
10
47.500000
20
64.075520
30
0.0
11
47.500000
21
62.649937
31
0.0
0
ARC
8
0
10
47.700000
20
62.649937
30
0.0
40
0.200000
50
180.000000
51
301.400000
0
LINE
8
0
10
47.804202
20
62.479227
30
0.0
11
49.322504
21
63.406002
31
0.0
0
ARC
8
0
10
49.478807
20
63.149937
30
0.0
40
0.300000
50
90.000000
51
121.400000
0
LINE
8
0
10
49.478807
20
63.449937
30
0.0
11
49.700000
21
63.449937
31
0.0
0
ARC
8
0
10
49.700000
20
63.149937
30
0.0
40
0.300000
50
0.000000
51
90.000000
0
LINE
8
0
10
50.000000
20
63.149937
30
0.0
11
50.000000
21
59.297151
31
0.0
0
ARC
8
0
10
50.300000
20
59.297151
30
0.0
40
0.300000
50
180.000000
51
228.187329
0
ARC
8
0
10
49.899975
20
58.849946
30
0.0
40
0.300009
50
246.004713
51
48.187329
0
LINE
8
0
10
49.777973
20
58.575864
30
0.0
11
49.595264
21
58.657211
31
0.0
0
LINE
8
0
10
49.595264
20
58.657211
30
0.0
11
47.966507
21
59.781677
31
0.0
0
ARC
8
0
10
48.136949
20
60.028557
30
0.0
40
0.300000
50
175.379459
51
235.379459
0
LINE
8
0
10
47.837924
20
60.052724
30
0.0
11
47.847226
21
60.167819
31
0.0
0
ARC
8
0
10
47.647876
20
60.183930
30
0.0
40
0.200000
50
355.379459
51
115.379459
0
LINE
8
0
10
47.562153
20
60.364628
30
0.0
11
47.054731
21
60.123909
31
0.0
0
ARC
8
0
10
47.183314
20
59.852862
30
0.0
40
0.300000
50
115.379459
51
155.745828
0
LINE
8
0
10
46.909794
20
59.976098
30
0.0
11
45.961144
21
57.870582
31
0.0
0
ARC
8
0
10
46.233870
20
57.745600
30
0.0
40
0.300000
50
155.379459
51
270.000000
0
LINE
8
0
10
46.235857
20
57.445607
30
0.0
11
47.814786
21
57.456064
31
0.0
0
ARC
8
0
10
47.813229
20
57.691059
30
0.0
40
0.235000
50
270.000000
51
336.000000
0
ARC
8
0
10
48.249164
20
57.514645
30
0.0
40
0.235000
50
70.221829
51
156.000000
0
LINE
8
0
10
48.328683
20
57.735783
30
0.0
11
49.801514
21
57.206165
31
0.0
0
ARC
8
0
10
49.700000
20
56.923862
30
0.0
40
0.300000
50
0.000000
51
70.221829
0
LINE
8
0
10
50.000000
20
56.923862
30
0.0
11
50.000000
21
50.100563
31
0.0
0
ARC
8
0
10
49.500000
20
50.100563
30
0.0
40
0.500000
50
270.000000
51
0.000000
0
ARC
8
0
10
49.500000
20
49.100563
30
0.0
40
0.500000
50
90.000000
51
180.000000
0
LINE
8
0
10
49.000000
20
49.100563
30
0.0
11
49.000000
21
48.600563
31
0.0
0
ARC
8
0
10
49.500000
20
48.600563
30
0.0
40
0.500000
50
180.000000
51
270.000000
0
LINE
8
0
10
49.500000
20
48.100563
30
0.0
11
53.500000
21
48.100563
31
0.0
0
LINE
8
0
10
53.500000
20
48.100563
30
0.0
11
53.800000
21
48.400563
31
0.0
0
LINE
8
0
10
53.800000
20
48.400563
30
0.0
11
54.100000
21
48.100563
31
0.0
0
LINE
8
0
10
54.100000
20
48.100563
30
0.0
11
59.246439
21
48.100563
31
0.0
0
ARC
8
0
10
59.246439
20
47.100563
30
0.0
40
1.000000
50
2.628630
51
90.000000
0
LINE
8
0
10
60.245387
20
47.146425
30
0.0
11
60.500000
21
41.600563
31
0.0
0
LINE
8
0
10
60.500000
20
41.600563
30
0.0
11
60.500000
21
40.900000
31
0.0
0
ARC
8
0
10
60.200000
20
40.900000
30
0.0
40
0.300000
50
270.000000
51
0.000000
0
LINE
8
0
10
60.200000
20
40.600000
30
0.0
11
58.300000
21
40.600000
31
0.0
0
ARC
8
0
10
58.300000
20
40.300000
30
0.0
40
0.300000
50
90.000000
51
180.000000
0
LINE
8
0
10
58.000000
20
40.300000
30
0.0
11
58.000000
21
38.200000
31
0.0
0
ARC
8
0
10
58.300000
20
38.200000
30
0.0
40
0.300000
50
180.000000
51
270.000000
0
LINE
8
0
10
58.300000
20
37.900000
30
0.0
11
59.000000
21
37.900000
31
0.0
0
ARC
8
0
10
1.800000
20
69.500000
30
0.0
40
0.300000
50
90.000000
51
180.000000
0
LINE
8
0
10
1.500000
20
69.500000
30
0.0
11
1.500000
21
49.900563
31
0.0
0
ARC
8
0
10
1.800000
20
49.900563
30
0.0
40
0.300000
50
180.000000
51
270.000000
0
LINE
8
0
10
1.800000
20
49.600563
30
0.0
11
10.200000
21
49.600563
31
0.0
0
ARC
8
0
10
10.200000
20
49.900563
30
0.0
40
0.300000
50
270.000000
51
0.000000
0
LINE
8
0
10
10.500000
20
49.900563
30
0.0
11
10.500000
21
63.000563
31
0.0
0
ARC
8
0
10
10.200000
20
63.000563
30
0.0
40
0.300000
50
0.000000
51
90.000000
0
LINE
8
0
10
10.200000
20
63.300563
30
0.0
11
8.500000
21
63.300563
31
0.0
0
LINE
8
0
10
8.500000
20
63.300563
30
0.0
11
8.200000
21
63.600563
31
0.0
0
LINE
8
0
10
8.200000
20
63.600563
30
0.0
11
7.900000
21
63.300563
31
0.0
0
LINE
8
0
10
7.900000
20
63.300563
30
0.0
11
5.700000
21
63.300563
31
0.0
0
ARC
8
0
10
5.700000
20
63.600563
30
0.0
40
0.300000
50
180.000000
51
270.000000
0
LINE
8
0
10
5.400000
20
63.600563
30
0.0
11
5.400000
21
69.500000
31
0.0
0
ARC
8
0
10
5.100000
20
69.500000
30
0.0
40
0.300000
50
0.000000
51
90.000000
0
LINE
8
0
10
5.100000
20
69.800000
30
0.0
11
1.800000
21
69.800000
31
0.0
0
ARC
8
0
10
1.800000
20
39.100000
30
0.0
40
0.300000
50
90.000000
51
180.000000
0
LINE
8
0
10
1.500000
20
39.100000
30
0.0
11
1.500000
21
22.600000
31
0.0
0
ARC
8
0
10
1.800000
20
22.600000
30
0.0
40
0.300000
50
180.000000
51
270.000000
0
LINE
8
0
10
1.800000
20
22.300000
30
0.0
11
2.400000
21
22.300000
31
0.0
0
ARC
8
0
10
2.400000
20
22.600000
30
0.0
40
0.300000
50
270.000000
51
0.000000
0
LINE
8
0
10
2.700000
20
22.600000
30
0.0
11
2.700000
21
23.500000
31
0.0
0
ARC
8
0
10
3.000000
20
23.500000
30
0.0
40
0.300000
50
90.000000
51
180.000000
0
LINE
8
0
10
3.000000
20
23.800000
30
0.0
11
3.700000
21
23.800000
31
0.0
0
ARC
8
0
10
3.700000
20
23.500000
30
0.0
40
0.300000
50
0.000000
51
90.000000
0
LINE
8
0
10
4.000000
20
23.500000
30
0.0
11
4.000000
21
19.900000
31
0.0
0
ARC
8
0
10
3.700000
20
19.900000
30
0.0
40
0.300000
50
270.000000
51
0.000000
0
LINE
8
0
10
3.700000
20
19.600000
30
0.0
11
3.300000
21
19.600000
31
0.0
0
ARC
8
0
10
3.300000
20
19.900000
30
0.0
40
0.300000
50
180.000000
51
270.000000
0
LINE
8
0
10
3.000000
20
19.900000
30
0.0
11
3.000000
21
20.800000
31
0.0
0
ARC
8
0
10
2.700000
20
20.800000
30
0.0
40
0.300000
50
0.000000
51
90.000000
0
LINE
8
0
10
2.700000
20
21.100000
30
0.0
11
2.002022
21
21.100000
31
0.0
0
ARC
8
0
10
2.002022
20
20.800000
30
0.0
40
0.300000
50
90.000000
51
180.000000
0
LINE
8
0
10
1.702022
20
20.800000
30
0.0
11
1.702022
21
20.050000
31
0.0
0
ARC
8
0
10
1.402022
20
20.050000
30
0.0
40
0.300000
50
300.000000
51
0.000000
0
ARC
8
0
10
1.702022
20
19.530385
30
0.0
40
0.300000
50
120.000000
51
180.000000
0
LINE
8
0
10
1.402022
20
19.530385
30
0.0
11
1.402022
21
15.069616
31
0.0
0
ARC
8
0
10
1.702022
20
15.069616
30
0.0
40
0.300000
50
180.000000
51
240.000000
0
ARC
8
0
10
1.402022
20
14.550000
30
0.0
40
0.300000
50
0.000000
51
60.000000
0
LINE
8
0
10
1.702022
20
14.550000
30
0.0
11
1.702022
21
13.800000
31
0.0
0
ARC
8
0
10
2.002022
20
13.800000
30
0.0
40
0.300000
50
180.000000
51
270.000000
0
LINE
8
0
10
2.002022
20
13.500000
30
0.0
11
2.700000
21
13.500000
31
0.0
0
ARC
8
0
10
2.700000
20
13.800000
30
0.0
40
0.300000
50
270.000000
51
0.000000
0
LINE
8
0
10
3.000000
20
13.800000
30
0.0
11
3.000000
21
14.700000
31
0.0
0
ARC
8
0
10
3.300000
20
14.700000
30
0.0
40
0.300000
50
90.000000
51
180.000000
0
LINE
8
0
10
3.300000
20
15.000000
30
0.0
11
3.700000
21
15.000000
31
0.0
0
ARC
8
0
10
3.700000
20
14.700000
30
0.0
40
0.300000
50
0.000000
51
90.000000
0
LINE
8
0
10
4.000000
20
14.700000
30
0.0
11
4.000000
21
12.600000
31
0.0
0
ARC
8
0
10
3.700000
20
12.600000
30
0.0
40
0.300000
50
270.000000
51
0.000000
0
LINE
8
0
10
3.700000
20
12.300000
30
0.0
11
0.500000
21
12.300000
31
0.0
0
ARC
8
0
10
0.500000
20
12.800000
30
0.0
40
0.500000
50
180.000000
51
270.000000
0
LINE
8
0
10
0.000000
20
12.800000
30
0.0
11
0.000000
21
94.000000
31
0.0
0
ARC
8
0
10
0.300000
20
94.000000
30
0.0
40
0.300000
50
90.000000
51
180.000000
0
LINE
8
0
10
0.300000
20
94.300000
30
0.0
11
4.200000
21
94.300000
31
0.0
0
ARC
8
0
10
4.200000
20
94.000000
30
0.0
40
0.300000
50
0.000000
51
90.000000
0
LINE
8
0
10
4.500000
20
94.000000
30
0.0
11
4.500000
21
92.500000
31
0.0
0
ARC
8
0
10
3.800000
20
92.500000
30
0.0
40
0.700000
50
270.000000
51
0.000000
0
ARC
8
0
10
3.800000
20
92.100000
30
0.0
40
0.300000
50
180.000000
51
270.000000
0
LINE
8
0
10
3.500000
20
92.100000
30
0.0
11
3.500000
21
92.800000
31
0.0
0
ARC
8
0
10
3.200000
20
92.800000
30
0.0
40
0.300000
50
0.000000
51
90.000000
0
LINE
8
0
10
3.200000
20
93.100000
30
0.0
11
2.000000
21
93.100000
31
0.0
0
ARC
8
0
10
2.000000
20
92.400000
30
0.0
40
0.700000
50
90.000000
51
180.000000
0
LINE
8
0
10
1.300000
20
92.400000
30
0.0
11
1.300000
21
86.200000
31
0.0
0
ARC
8
0
10
2.000000
20
86.200000
30
0.0
40
0.700000
50
180.000000
51
270.000000
0
LINE
8
0
10
2.000000
20
85.500000
30
0.0
11
3.200000
21
85.500000
31
0.0
0
ARC
8
0
10
3.200000
20
85.800000
30
0.0
40
0.300000
50
270.000000
51
0.000000
0
LINE
8
0
10
3.500000
20
85.800000
30
0.0
11
3.500000
21
86.500000
31
0.0
0
ARC
8
0
10
3.800000
20
86.500000
30
0.0
40
0.300000
50
90.000000
51
180.000000
0
ARC
8
0
10
3.800000
20
86.100000
30
0.0
40
0.700000
50
0.000000
51
90.000000
0
LINE
8
0
10
4.500000
20
86.100000
30
0.0
11
4.500000
21
83.100000
31
0.0
0
ARC
8
0
10
4.200000
20
83.100000
30
0.0
40
0.300000
50
270.000000
51
0.000000
0
LINE
8
0
10
4.200000
20
82.800000
30
0.0
11
3.800000
21
82.800000
31
0.0
0
ARC
8
0
10
3.800000
20
83.100000
30
0.0
40
0.300000
50
180.000000
51
270.000000
0
LINE
8
0
10
3.500000
20
83.100000
30
0.0
11
3.500000
21
84.000000
31
0.0
0
ARC
8
0
10
3.200000
20
84.000000
30
0.0
40
0.300000
50
0.000000
51
90.000000
0
LINE
8
0
10
3.200000
20
84.300000
30
0.0
11
1.800000
21
84.300000
31
0.0
0
ARC
8
0
10
1.800000
20
84.000000
30
0.0
40
0.300000
50
90.000000
51
180.000000
0
LINE
8
0
10
1.500000
20
84.000000
30
0.0
11
1.500000
21
77.800000
31
0.0
0
LINE
8
0
10
1.500000
20
77.800000
30
0.0
11
1.754613
21
72.254138
31
0.0
0
ARC
8
0
10
2.753561
20
72.300000
30
0.0
40
1.000000
50
182.628630
51
270.000000
0
LINE
8
0
10
2.753561
20
71.300000
30
0.0
11
7.269479
21
71.300000
31
0.0
0
ARC
8
0
10
7.269479
20
71.000000
30
0.0
40
0.300000
50
70.221829
51
90.000000
0
LINE
8
0
10
7.370993
20
71.282303
30
0.0
11
8.671317
21
70.814717
31
0.0
0
ARC
8
0
10
8.750836
20
71.035855
30
0.0
40
0.235000
50
250.221829
51
336.000000
0
ARC
8
0
10
9.186771
20
70.859441
30
0.0
40
0.235000
50
90.000000
51
156.000000
0
LINE
8
0
10
9.185214
20
71.094436
30
0.0
11
10.764142
21
71.104893
31
0.0
0
ARC
8
0
10
10.766129
20
70.804900
30
0.0
40
0.300000
50
335.379459
51
90.000000
0
LINE
8
0
10
11.038855
20
70.679918
30
0.0
11
10.090205
21
68.574402
31
0.0
0
ARC
8
0
10
9.816686
20
68.697638
30
0.0
40
0.300000
50
295.379459
51
335.745828
0
LINE
8
0
10
9.945269
20
68.426591
30
0.0
11
9.437846
21
68.185872
31
0.0
0
ARC
8
0
10
9.352124
20
68.366570
30
0.0
40
0.200000
50
175.379459
51
295.379459
0
LINE
8
0
10
9.152774
20
68.382681
30
0.0
11
9.162076
21
68.497776
31
0.0
0
ARC
8
0
10
8.863051
20
68.521943
30
0.0
40
0.300000
50
355.379459
51
55.379459
0
LINE
8
0
10
9.033493
20
68.768823
30
0.0
11
7.404736
21
69.893289
31
0.0
0
LINE
8
0
10
7.404736
20
69.893289
30
0.0
11
7.222027
21
69.974636
31
0.0
0
ARC
8
0
10
7.100025
20
69.700554
30
0.0
40
0.300009
50
66.004713
51
228.187329
0
ARC
8
0
10
6.700000
20
69.253349
30
0.0
40
0.300000
50
0.000000
51
48.187329
0
LINE
8
0
10
7.000000
20
69.253349
30
0.0
11
7.000000
21
65.400563
31
0.0
0
ARC
8
0
10
7.300000
20
65.400563
30
0.0
40
0.300000
50
180.000000
51
270.000000
0
LINE
8
0
10
7.300000
20
65.100563
30
0.0
11
7.521193
21
65.100563
31
0.0
0
ARC
8
0
10
7.521193
20
65.400563
30
0.0
40
0.300000
50
270.000000
51
301.400000
0
LINE
8
0
10
7.677496
20
65.144498
30
0.0
11
9.195798
21
66.071273
31
0.0
0
ARC
8
0
10
9.300000
20
65.900563
30
0.0
40
0.200000
50
0.000000
51
121.400000
0
LINE
8
0
10
9.500000
20
65.900563
30
0.0
11
9.500000
21
65.550563
31
0.0
0
ARC
8
0
10
9.800000
20
65.550563
30
0.0
40
0.300000
50
180.000000
51
270.000000
0
LINE
8
0
10
9.800000
20
65.250563
30
0.0
11
13.213234
21
65.250563
31
0.0
0
ARC
8
0
10
13.213234
20
64.250563
30
0.0
40
1.000000
50
58.600000
51
90.000000
0
LINE
8
0
10
13.734243
20
65.104114
30
0.0
11
14.021010
21
64.929071
31
0.0
0
ARC
8
0
10
13.500000
20
64.075520
30
0.0
40
1.000000
50
0.000000
51
58.600000
0
LINE
8
0
10
14.500000
20
64.075520
30
0.0
11
14.500000
21
62.649937
31
0.0
0
ARC
8
0
10
14.300000
20
62.649937
30
0.0
40
0.200000
50
238.600000
51
0.000000
0
LINE
8
0
10
14.195798
20
62.479227
30
0.0
11
12.677496
21
63.406002
31
0.0
0
ARC
8
0
10
12.521193
20
63.149937
30
0.0
40
0.300000
50
58.600000
51
90.000000
0
LINE
8
0
10
12.521193
20
63.449937
30
0.0
11
12.300000
21
63.449937
31
0.0
0
ARC
8
0
10
12.300000
20
63.149937
30
0.0
40
0.300000
50
90.000000
51
180.000000
0
LINE
8
0
10
12.000000
20
63.149937
30
0.0
11
12.000000
21
59.297151
31
0.0
0
ARC
8
0
10
11.700000
20
59.297151
30
0.0
40
0.300000
50
311.812671
51
0.000000
0
ARC
8
0
10
12.100025
20
58.849946
30
0.0
40
0.300009
50
131.812671
51
293.995287
0
LINE
8
0
10
12.222027
20
58.575864
30
0.0
11
12.404736
21
58.657211
31
0.0
0
LINE
8
0
10
12.404736
20
58.657211
30
0.0
11
14.033493
21
59.781677
31
0.0
0
ARC
8
0
10
13.863051
20
60.028557
30
0.0
40
0.300000
50
304.620541
51
4.620541
0
LINE
8
0
10
14.162076
20
60.052724
30
0.0
11
14.152774
21
60.167819
31
0.0
0
ARC
8
0
10
14.352124
20
60.183930
30
0.0
40
0.200000
50
64.620541
51
184.620541
0
LINE
8
0
10
14.437846
20
60.364628
30
0.0
11
14.945269
21
60.123909
31
0.0
0
ARC
8
0
10
14.816686
20
59.852862
30
0.0
40
0.300000
50
24.254172
51
64.620541
0
LINE
8
0
10
15.090205
20
59.976098
30
0.0
11
16.038855
21
57.870582
31
0.0
0
ARC
8
0
10
15.766129
20
57.745600
30
0.0
40
0.300000
50
270.000000
51
24.620541
0
LINE
8
0
10
15.764142
20
57.445607
30
0.0
11
14.185214
21
57.456064
31
0.0
0
ARC
8
0
10
14.186771
20
57.691059
30
0.0
40
0.235000
50
204.000000
51
270.000000
0
ARC
8
0
10
13.750836
20
57.514645
30
0.0
40
0.235000
50
24.000000
51
109.778171
0
LINE
8
0
10
13.671317
20
57.735783
30
0.0
11
12.198486
21
57.206165
31
0.0
0
ARC
8
0
10
12.300000
20
56.923862
30
0.0
40
0.300000
50
109.778171
51
180.000000
0
LINE
8
0
10
12.000000
20
56.923862
30
0.0
11
12.000000
21
50.100563
31
0.0
0
ARC
8
0
10
12.500000
20
50.100563
30
0.0
40
0.500000
50
180.000000
51
270.000000
0
ARC
8
0
10
12.500000
20
49.100563
30
0.0
40
0.500000
50
0.000000
51
90.000000
0
LINE
8
0
10
13.000000
20
49.100563
30
0.0
11
13.000000
21
48.600563
31
0.0
0
ARC
8
0
10
12.500000
20
48.600563
30
0.0
40
0.500000
50
270.000000
51
0.000000
0
LINE
8
0
10
12.500000
20
48.100563
30
0.0
11
8.500000
21
48.100563
31
0.0
0
LINE
8
0
10
8.500000
20
48.100563
30
0.0
11
8.200000
21
48.400563
31
0.0
0
LINE
8
0
10
8.200000
20
48.400563
30
0.0
11
7.900000
21
48.100563
31
0.0
0
LINE
8
0
10
7.900000
20
48.100563
30
0.0
11
2.753561
21
48.100563
31
0.0
0
ARC
8
0
10
2.753561
20
47.100563
30
0.0
40
1.000000
50
90.000000
51
177.371370
0
LINE
8
0
10
1.754613
20
47.146425
30
0.0
11
1.500000
21
41.600563
31
0.0
0
LINE
8
0
10
1.500000
20
41.600563
30
0.0
11
1.500000
21
40.900000
31
0.0
0
ARC
8
0
10
1.800000
20
40.900000
30
0.0
40
0.300000
50
180.000000
51
270.000000
0
LINE
8
0
10
1.800000
20
40.600000
30
0.0
11
3.700000
21
40.600000
31
0.0
0
ARC
8
0
10
3.700000
20
40.300000
30
0.0
40
0.300000
50
0.000000
51
90.000000
0
LINE
8
0
10
4.000000
20
40.300000
30
0.0
11
4.000000
21
38.200000
31
0.0
0
ARC
8
0
10
3.700000
20
38.200000
30
0.0
40
0.300000
50
270.000000
51
0.000000
0
LINE
8
0
10
3.700000
20
37.900000
30
0.0
11
3.000000
21
37.900000
31
0.0
0
ARC
8
0
10
3.000000
20
38.200000
30
0.0
40
0.300000
50
180.000000
51
270.000000
0
LINE
8
0
10
2.700000
20
38.200000
30
0.0
11
2.700000
21
39.100000
31
0.0
0
ARC
8
0
10
2.400000
20
39.100000
30
0.0
40
0.300000
50
0.000000
51
90.000000
0
LINE
8
0
10
2.400000
20
39.400000
30
0.0
11
1.800000
21
39.400000
31
0.0
0
LINE
8
0
10
9.114999
20
66.039423
30
0.0
11
7.706389
21
65.226763
31
0.0
0
ARC
8
0
10
7.606444
20
65.400000
30
0.0
40
0.200000
50
270.000000
51
299.981639
0
LINE
8
0
10
7.606444
20
65.200000
30
0.0
11
7.400000
21
65.200000
31
0.0
0
ARC
8
0
10
7.400000
20
65.600000
30
0.0
40
0.400000
50
180.000000
51
270.000000
0
LINE
8
0
10
7.000000
20
65.600000
30
0.0
11
7.000000
21
69.000000
31
0.0
0
ARC
8
0
10
7.400000
20
69.000000
30
0.0
40
0.400000
50
90.000000
51
180.000000
0
LINE
8
0
10
7.400000
20
69.400000
30
0.0
11
7.606444
21
69.400000
31
0.0
0
ARC
8
0
10
7.606444
20
69.200000
30
0.0
40
0.200000
50
60.018361
51
90.000000
0
LINE
8
0
10
7.706389
20
69.373237
30
0.0
11
9.114999
21
68.560577
31
0.0
0
ARC
8
0
10
9.714666
20
69.600000
30
0.0
40
1.200000
50
240.018361
51
270.000000
0
LINE
8
0
10
9.714666
20
68.400000
30
0.0
11
10.397368
21
68.400000
31
0.0
0
ARC
8
0
10
10.397368
20
68.700000
30
0.0
40
0.300000
50
270.000000
51
324.745828
0
LINE
8
0
10
10.642348
20
68.526839
30
0.0
11
12.453103
21
71.088602
31
0.0
0
ARC
8
0
10
12.861403
20
70.800000
30
0.0
40
0.500000
50
90.000000
51
144.745828
0
LINE
8
0
10
12.861403
20
71.300000
30
0.0
11
43.500000
21
71.300000
31
0.0
0
ARC
8
0
10
43.500000
20
71.800000
30
0.0
40
0.500000
50
270.000000
51
0.000000
0
LINE
8
0
10
44.000000
20
71.800000
30
0.0
11
44.000000
21
76.000000
31
0.0
0
ARC
8
0
10
44.300000
20
76.000000
30
0.0
40
0.300000
50
90.000000
51
180.000000
0
LINE
8
0
10
44.300000
20
76.300000
30
0.0
11
46.949445
21
76.300000
31
0.0
0
ARC
8
0
10
46.949445
20
76.000000
30
0.0
40
0.300000
50
30.000000
51
90.000000
0
LINE
8
0
10
47.209252
20
76.150000
30
0.0
11
47.659808
21
75.369615
31
0.0
0
ARC
8
0
10
47.400000
20
75.219615
30
0.0
40
0.300000
50
0.000000
51
30.000000
0
LINE
8
0
10
47.700000
20
75.219615
30
0.0
11
47.700000
21
75.100000
31
0.0
0
ARC
8
0
10
47.400000
20
75.100000
30
0.0
40
0.300000
50
270.000000
51
0.000000
0
LINE
8
0
10
47.400000
20
74.800000
30
0.0
11
46.000000
21
74.800000
31
0.0
0
ARC
8
0
10
46.000000
20
74.500000
30
0.0
40
0.300000
50
90.000000
51
180.000000
0
LINE
8
0
10
45.700000
20
74.500000
30
0.0
11
45.700000
21
71.800000
31
0.0
0
ARC
8
0
10
46.200000
20
71.800000
30
0.0
40
0.500000
50
180.000000
51
270.000000
0
LINE
8
0
10
46.200000
20
71.300000
30
0.0
11
49.138597
21
71.300000
31
0.0
0
ARC
8
0
10
49.138597
20
70.800000
30
0.0
40
0.500000
50
35.254172
51
90.000000
0
LINE
8
0
10
49.546897
20
71.088602
30
0.0
11
51.357652
21
68.526839
31
0.0
0
ARC
8
0
10
51.602632
20
68.700000
30
0.0
40
0.300000
50
215.254172
51
270.000000
0
LINE
8
0
10
51.602632
20
68.400000
30
0.0
11
52.285334
21
68.400000
31
0.0
0
ARC
8
0
10
52.285334
20
69.600000
30
0.0
40
1.200000
50
270.000000
51
299.981639
0
LINE
8
0
10
52.885001
20
68.560577
30
0.0
11
54.293611
21
69.373237
31
0.0
0
ARC
8
0
10
54.393555
20
69.200000
30
0.0
40
0.200000
50
90.000000
51
119.981639
0
LINE
8
0
10
54.393555
20
69.400000
30
0.0
11
54.600000
21
69.400000
31
0.0
0
ARC
8
0
10
54.600000
20
69.000000
30
0.0
40
0.400000
50
0.000000
51
90.000000
0
LINE
8
0
10
55.000000
20
69.000000
30
0.0
11
55.000000
21
65.600000
31
0.0
0
ARC
8
0
10
54.600000
20
65.600000
30
0.0
40
0.400000
50
270.000000
51
0.000000
0
LINE
8
0
10
54.600000
20
65.200000
30
0.0
11
54.393555
21
65.200000
31
0.0
0
ARC
8
0
10
54.393555
20
65.400000
30
0.0
40
0.200000
50
240.018361
51
270.000000
0
LINE
8
0
10
54.293611
20
65.226763
30
0.0
11
52.885001
21
66.039423
31
0.0
0
ARC
8
0
10
52.285334
20
65.000000
30
0.0
40
1.200000
50
60.018361
51
90.000000
0
LINE
8
0
10
52.285334
20
66.200000
30
0.0
11
50.826005
21
66.200000
31
0.0
0
ARC
8
0
10
50.826005
20
67.200000
30
0.0
40
1.000000
50
215.254172
51
270.000000
0
LINE
8
0
10
50.009406
20
66.622795
30
0.0
11
48.475671
21
68.792644
31
0.0
0
ARC
8
0
10
47.495752
20
68.099998
30
0.0
40
1.200000
50
35.254172
51
90.000000
0
LINE
8
0
10
47.495752
20
69.299998
30
0.0
11
14.504248
21
69.299998
31
0.0
0
ARC
8
0
10
14.504248
20
68.099998
30
0.0
40
1.200000
50
90.000000
51
144.745828
0
LINE
8
0
10
13.524328
20
68.792644
30
0.0
11
11.990594
21
66.622795
31
0.0
0
ARC
8
0
10
11.173995
20
67.200000
30
0.0
40
1.000000
50
270.000000
51
324.745828
0
LINE
8
0
10
11.173995
20
66.200000
30
0.0
11
9.714666
21
66.200000
31
0.0
0
ARC
8
0
10
9.714666
20
65.000000
30
0.0
40
1.200000
50
90.000000
51
119.981639
0
ARC
8
0
10
30.500000
20
61.323544
30
0.0
40
1.000000
50
180.000000
51
270.000000
0
LINE
8
0
10
29.500000
20
61.323544
30
0.0
11
29.500000
21
68.423544
31
0.0
0
ARC
8
0
10
29.200000
20
68.423544
30
0.0
40
0.300000
50
0.000000
51
90.000000
0
LINE
8
0
10
29.200000
20
68.723544
30
0.0
11
27.600000
21
68.723544
31
0.0
0
ARC
8
0
10
27.600000
20
68.423544
30
0.0
40
0.300000
50
90.000000
51
180.000000
0
LINE
8
0
10
27.300000
20
68.423544
30
0.0
11
27.300000
21
60.223544
31
0.0
0
ARC
8
0
10
26.300000
20
60.223544
30
0.0
40
1.000000
50
270.000000
51
0.000000
0
LINE
8
0
10
26.300000
20
59.223544
30
0.0
11
19.174834
21
59.223544
31
0.0
0
ARC
8
0
10
19.174834
20
60.223544
30
0.0
40
1.000000
50
215.254172
51
270.000000
0
LINE
8
0
10
18.358235
20
59.646339
30
0.0
11
16.835414
21
61.800748
31
0.0
0
ARC
8
0
10
16.018814
20
61.223544
30
0.0
40
1.000000
50
35.254172
51
90.000000
0
LINE
8
0
10
16.018814
20
62.223544
30
0.0
11
14.888000
21
62.223544
31
0.0
0
ARC
8
0
10
14.888000
20
63.423544
30
0.0
40
1.200000
50
240.018361
51
270.000000
0
LINE
8
0
10
14.288333
20
62.384121
30
0.0
11
12.706389
21
63.296781
31
0.0
0
ARC
8
0
10
12.606444
20
63.123544
30
0.0
40
0.200000
50
60.018361
51
90.000000
0
LINE
8
0
10
12.606444
20
63.323544
30
0.0
11
12.400000
21
63.323544
31
0.0
0
ARC
8
0
10
12.400000
20
62.923544
30
0.0
40
0.400000
50
90.000000
51
180.000000
0
LINE
8
0
10
12.000000
20
62.923544
30
0.0
11
12.000000
21
59.523544
31
0.0
0
ARC
8
0
10
12.400000
20
59.523544
30
0.0
40
0.400000
50
180.000000
51
270.000000
0
LINE
8
0
10
12.400000
20
59.123544
30
0.0
11
12.606444
21
59.123544
31
0.0
0
ARC
8
0
10
12.606444
20
59.323544
30
0.0
40
0.200000
50
270.000000
51
299.981639
0
LINE
8
0
10
12.706389
20
59.150307
30
0.0
11
14.288333
21
60.062966
31
0.0
0
ARC
8
0
10
14.888000
20
59.023544
30
0.0
40
1.200000
50
90.000000
51
119.981639
0
LINE
8
0
10
14.888000
20
60.223544
30
0.0
11
15.345738
21
60.223544
31
0.0
0
ARC
8
0
10
15.345738
20
59.923544
30
0.0
40
0.300000
50
35.254172
51
90.000000
0
LINE
8
0
10
15.590718
20
60.096705
30
0.0
11
17.252049
21
57.746339
31
0.0
0
ARC
8
0
10
18.068648
20
58.323544
30
0.0
40
1.000000
50
215.254172
51
270.000000
0
LINE
8
0
10
18.068648
20
57.323544
30
0.0
11
30.617157
21
57.323544
31
0.0
0
LINE
8
0
10
30.617157
20
57.323544
30
0.0
11
30.687868
21
57.352833
31
0.0
0
LINE
8
0
10
30.687868
20
57.352833
30
0.0
11
30.929289
21
57.594254
31
0.0
0
ARC
8
0
10
31.000000
20
57.523544
30
0.0
40
0.100000
50
45.000000
51
135.000000
0
LINE
8
0
10
31.070711
20
57.594254
30
0.0
11
31.312132
21
57.352833
31
0.0
0
LINE
8
0
10
31.312132
20
57.352833
30
0.0
11
31.382843
21
57.323544
31
0.0
0
LINE
8
0
10
31.382843
20
57.323544
30
0.0
11
43.931352
21
57.323544
31
0.0
0
ARC
8
0
10
43.931352
20
58.323544
30
0.0
40
1.000000
50
270.000000
51
324.745828
0
LINE
8
0
10
44.747951
20
57.746339
30
0.0
11
46.409282
21
60.096705
31
0.0
0
ARC
8
0
10
46.654262
20
59.923544
30
0.0
40
0.300000
50
90.000000
51
144.745828
0
LINE
8
0
10
46.654262
20
60.223544
30
0.0
11
47.112000
21
60.223544
31
0.0
0
ARC
8
0
10
47.112000
20
59.023544
30
0.0
40
1.200000
50
60.018361
51
90.000000
0
LINE
8
0
10
47.711667
20
60.062966
30
0.0
11
49.293611
21
59.150307
31
0.0
0
ARC
8
0
10
49.393555
20
59.323544
30
0.0
40
0.200000
50
240.018361
51
270.000000
0
LINE
8
0
10
49.393555
20
59.123544
30
0.0
11
49.600000
21
59.123544
31
0.0
0
ARC
8
0
10
49.600000
20
59.523544
30
0.0
40
0.400000
50
270.000000
51
0.000000
0
LINE
8
0
10
50.000000
20
59.523544
30
0.0
11
50.000000
21
62.923544
31
0.0
0
ARC
8
0
10
49.600000
20
62.923544
30
0.0
40
0.400000
50
0.000000
51
90.000000
0
LINE
8
0
10
49.600000
20
63.323544
30
0.0
11
49.393555
21
63.323544
31
0.0
0
ARC
8
0
10
49.393555
20
63.123544
30
0.0
40
0.200000
50
90.000000
51
119.981639
0
LINE
8
0
10
49.293611
20
63.296781
30
0.0
11
47.711667
21
62.384121
31
0.0
0
ARC
8
0
10
47.112000
20
63.423544
30
0.0
40
1.200000
50
270.000000
51
299.981639
0
LINE
8
0
10
47.112000
20
62.223544
30
0.0
11
45.981186
21
62.223544
31
0.0
0
ARC
8
0
10
45.981186
20
61.223544
30
0.0
40
1.000000
50
90.000000
51
144.745828
0
LINE
8
0
10
45.164586
20
61.800748
30
0.0
11
43.641765
21
59.646339
31
0.0
0
ARC
8
0
10
42.825165
20
60.223544
30
0.0
40
1.000000
50
270.000000
51
324.745828
0
LINE
8
0
10
42.825165
20
59.223544
30
0.0
11
35.700000
21
59.223544
31
0.0
0
ARC
8
0
10
35.700000
20
60.223544
30
0.0
40
1.000000
50
180.000000
51
270.000000
0
LINE
8
0
10
34.700000
20
60.223544
30
0.0
11
34.700000
21
68.423544
31
0.0
0
ARC
8
0
10
34.400000
20
68.423544
30
0.0
40
0.300000
50
0.000000
51
90.000000
0
LINE
8
0
10
34.400000
20
68.723544
30
0.0
11
32.800000
21
68.723544
31
0.0
0
ARC
8
0
10
32.800000
20
68.423544
30
0.0
40
0.300000
50
90.000000
51
180.000000
0
LINE
8
0
10
32.500000
20
68.423544
30
0.0
11
32.500000
21
61.323544
31
0.0
0
ARC
8
0
10
31.500000
20
61.323544
30
0.0
40
1.000000
50
270.000000
51
0.000000
0
LINE
8
0
10
31.500000
20
60.323544
30
0.0
11
30.500000
21
60.323544
31
0.0
0
ATTDEF
8
0
10
58.450555
20
76.300000
30
0.0
40
3.5
1

3

2
VC_START
70
0
0
ATTDEF
8
0
10
49.500000
20
48.100563
30
0.0
40
3.5
1

3

2
VC_END
70
0
0
ARC
8
0
10
15.229289
20
48.423544
30
0.0
40
0.500000
50
180.000000
51
270.000000
0
LINE
8
0
10
14.729289
20
48.423544
30
0.0
11
14.729289
21
53.823544
31
0.0
0
ARC
8
0
10
15.229289
20
53.823544
30
0.0
40
0.500000
50
90.000000
51
180.000000
0
LINE
8
0
10
15.229289
20
54.323544
30
0.0
11
17.929289
21
54.323544
31
0.0
0
ARC
8
0
10
17.929289
20
53.823544
30
0.0
40
0.500000
50
0.000000
51
90.000000
0
LINE
8
0
10
18.429289
20
53.823544
30
0.0
11
18.429289
21
48.423544
31
0.0
0
ARC
8
0
10
17.929289
20
48.423544
30
0.0
40
0.500000
50
270.000000
51
0.000000
0
LINE
8
0
10
17.929289
20
47.923544
30
0.0
11
15.229289
21
47.923544
31
0.0
0
LINE
8
0
10
11.339012
20
38.223544
30
0.0
11
11.339012
21
45.623544
31
0.0
0
ARC
8
0
10
11.839012
20
45.623544
30
0.0
40
0.500000
50
90.000000
51
180.000000
0
LINE
8
0
10
11.839012
20
46.123544
30
0.0
11
17.929289
21
46.123544
31
0.0
0
ARC
8
0
10
17.929289
20
45.623544
30
0.0
40
0.500000
50
0.000000
51
90.000000
0
LINE
8
0
10
18.429289
20
45.623544
30
0.0
11
18.429289
21
38.223544
31
0.0
0
ARC
8
0
10
17.929289
20
38.223544
30
0.0
40
0.500000
50
270.000000
51
0.000000
0
LINE
8
0
10
17.929289
20
37.723544
30
0.0
11
11.839012
21
37.723544
31
0.0
0
ARC
8
0
10
11.839012
20
38.223544
30
0.0
40
0.500000
50
180.000000
51
270.000000
0
LINE
8
0
10
5.467212
20
25.323544
30
0.0
11
9.039012
21
25.323544
31
0.0
0
ARC
8
0
10
9.039012
20
26.323544
30
0.0
40
1.000000
50
270.000000
51
0.000000
0
LINE
8
0
10
10.039012
20
26.323544
30
0.0
11
10.039012
21
45.623544
31
0.0
0
ARC
8
0
10
9.539012
20
45.623544
30
0.0
40
0.500000
50
0.000000
51
90.000000
0
LINE
8
0
10
9.539012
20
46.123544
30
0.0
11
6.029289
21
46.123544
31
0.0
0
ARC
8
0
10
6.029289
20
45.623544
30
0.0
40
0.500000
50
90.000000
51
180.000000
0
LINE
8
0
10
5.529289
20
45.623544
30
0.0
11
5.529289
21
29.098726
31
0.0
0
LINE
8
0
10
5.529289
20
29.098726
30
0.0
11
5.521693
21
29.011902
31
0.0
0
LINE
8
0
10
5.521693
20
29.011902
30
0.0
11
4.974808
21
25.910368
31
0.0
0
ARC
8
0
10
5.467212
20
25.823544
30
0.0
40
0.500000
50
170.000000
51
270.000000
0
ARC
8
0
10
46.629289
20
48.423544
30
0.0
40
0.500000
50
270.000000
51
0.000000
0
LINE
8
0
10
47.129289
20
48.423544
30
0.0
11
47.129289
21
53.823544
31
0.0
0
ARC
8
0
10
46.629289
20
53.823544
30
0.0
40
0.500000
50
0.000000
51
90.000000
0
LINE
8
0
10
46.629289
20
54.323544
30
0.0
11
43.929289
21
54.323544
31
0.0
0
ARC
8
0
10
43.929289
20
53.823544
30
0.0
40
0.500000
50
90.000000
51
180.000000
0
LINE
8
0
10
43.429289
20
53.823544
30
0.0
11
43.429289
21
48.423544
31
0.0
0
ARC
8
0
10
43.929289
20
48.423544
30
0.0
40
0.500000
50
180.000000
51
270.000000
0
LINE
8
0
10
43.929289
20
47.923544
30
0.0
11
46.629289
21
47.923544
31
0.0
0
LINE
8
0
10
50.519566
20
38.223544
30
0.0
11
50.519566
21
45.623544
31
0.0
0
ARC
8
0
10
50.019566
20
45.623544
30
0.0
40
0.500000
50
0.000000
51
90.000000
0
LINE
8
0
10
50.019566
20
46.123544
30
0.0
11
43.929289
21
46.123544
31
0.0
0
ARC
8
0
10
43.929289
20
45.623544
30
0.0
40
0.500000
50
90.000000
51
180.000000
0
LINE
8
0
10
43.429289
20
45.623544
30
0.0
11
43.429289
21
38.223544
31
0.0
0
ARC
8
0
10
43.929289
20
38.223544
30
0.0
40
0.500000
50
180.000000
51
270.000000
0
LINE
8
0
10
43.929289
20
37.723544
30
0.0
11
50.019566
21
37.723544
31
0.0
0
ARC
8
0
10
50.019566
20
38.223544
30
0.0
40
0.500000
50
270.000000
51
0.000000
0
LINE
8
0
10
56.391365
20
25.323544
30
0.0
11
52.819566
21
25.323544
31
0.0
0
ARC
8
0
10
52.819566
20
26.323544
30
0.0
40
1.000000
50
180.000000
51
270.000000
0
LINE
8
0
10
51.819566
20
26.323544
30
0.0
11
51.819566
21
45.623544
31
0.0
0
ARC
8
0
10
52.319566
20
45.623544
30
0.0
40
0.500000
50
90.000000
51
180.000000
0
LINE
8
0
10
52.319566
20
46.123544
30
0.0
11
55.829289
21
46.123544
31
0.0
0
ARC
8
0
10
55.829289
20
45.623544
30
0.0
40
0.500000
50
0.000000
51
90.000000
0
LINE
8
0
10
56.329289
20
45.623544
30
0.0
11
56.329289
21
29.098726
31
0.0
0
LINE
8
0
10
56.336885
20
29.011902
30
0.0
11
56.329289
21
29.098726
31
0.0
0
LINE
8
0
10
56.336885
20
29.011902
30
0.0
11
56.883769
21
25.910368
31
0.0
0
ARC
8
0
10
56.391365
20
25.823544
30
0.0
40
0.500000
50
270.000000
51
10.000000
0
LINE
8
0
10
19.229289
20
26.923544
30
0.0
11
19.229289
21
25.823544
31
0.0
0
ARC
8
0
10
19.429289
20
25.823544
30
0.0
40
0.200000
50
180.000000
51
270.000000
0
LINE
8
0
10
19.429289
20
25.623544
30
0.0
11
19.529289
21
25.623544
31
0.0
0
ARC
8
0
10
19.529289
20
25.423544
30
0.0
40
0.200000
50
0.000000
51
90.000000
0
LINE
8
0
10
19.729289
20
25.423544
30
0.0
11
19.729289
21
22.823544
31
0.0
0
ARC
8
0
10
19.229289
20
22.823544
30
0.0
40
0.500000
50
270.000000
51
0.000000
0
LINE
8
0
10
19.229289
20
22.323544
30
0.0
11
19.029289
21
22.323544
31
0.0
0
ARC
8
0
10
19.029289
20
22.823544
30
0.0
40
0.500000
50
180.000000
51
270.000000
0
LINE
8
0
10
18.529289
20
22.823544
30
0.0
11
18.529289
21
23.523544
31
0.0
0
ARC
8
0
10
18.229289
20
23.523544
30
0.0
40
0.300000
50
0.000000
51
90.000000
0
LINE
8
0
10
18.229289
20
23.823544
30
0.0
11
5.829289
21
23.823544
31
0.0
0
ARC
8
0
10
5.829289
20
23.523544
30
0.0
40
0.300000
50
90.000000
51
180.000000
0
LINE
8
0
10
5.529289
20
23.523544
30
0.0
11
5.529289
21
23.123544
31
0.0
0
ARC
8
0
10
5.229289
20
23.123544
30
0.0
40
0.300000
50
270.000000
51
0.000000
0
LINE
8
0
10
5.229289
20
22.823544
30
0.0
11
4.529289
21
22.823544
31
0.0
0
ARC
8
0
10
4.529289
20
23.123544
30
0.0
40
0.300000
50
180.000000
51
270.000000
0
LINE
8
0
10
4.229289
20
23.123544
30
0.0
11
4.229289
21
23.723544
31
0.0
0
ARC
8
0
10
3.829289
20
23.723544
30
0.0
40
0.400000
50
0.000000
51
90.000000
0
ARC
8
0
10
3.829289
20
24.523544
30
0.0
40
0.400000
50
180.000000
51
270.000000
0
LINE
8
0
10
3.429289
20
24.523544
30
0.0
11
3.429289
21
24.587947
31
0.0
0
LINE
8
0
10
3.429289
20
24.587947
30
0.0
11
3.436885
21
24.674771
31
0.0
0
LINE
8
0
10
3.436885
20
24.674771
30
0.0
11
4.221693
21
29.125637
31
0.0
0
LINE
8
0
10
4.229289
20
29.212461
30
0.0
11
4.221693
21
29.125637
31
0.0
0
LINE
8
0
10
4.229289
20
29.212461
30
0.0
11
4.229289
21
45.823544
31
0.0
0
ARC
8
0
10
5.829289
20
45.823544
30
0.0
40
1.600000
50
90.000000
51
180.000000
0
LINE
8
0
10
5.829289
20
47.423544
30
0.0
11
12.929289
21
47.423544
31
0.0
0
ARC
8
0
10
12.929289
20
47.923544
30
0.0
40
0.500000
50
270.000000
51
0.000000
0
LINE
8
0
10
13.429289
20
47.923544
30
0.0
11
13.429289
21
56.823544
31
0.0
0
ARC
8
0
10
13.929289
20
56.823544
30
0.0
40
0.500000
50
90.000000
51
180.000000
0
LINE
8
0
10
13.929289
20
57.323544
30
0.0
11
21.629289
21
57.323544
31
0.0
0
ARC
8
0
10
21.629289
20
57.023544
30
0.0
40
0.300000
50
0.000000
51
90.000000
0
LINE
8
0
10
21.929289
20
57.023544
30
0.0
11
21.929289
21
56.823544
31
0.0
0
ARC
8
0
10
22.229289
20
56.823544
30
0.0
40
0.300000
50
180.000000
51
270.000000
0
LINE
8
0
10
22.229289
20
56.523544
30
0.0
11
26.629289
21
56.523544
31
0.0
0
ARC
8
0
10
26.629289
20
56.823544
30
0.0
40
0.300000
50
270.000000
51
0.000000
0
LINE
8
0
10
26.929289
20
56.823544
30
0.0
11
26.929289
21
57.023544
31
0.0
0
ARC
8
0
10
27.229289
20
57.023544
30
0.0
40
0.300000
50
90.000000
51
180.000000
0
LINE
8
0
10
27.229289
20
57.323544
30
0.0
11
34.629289
21
57.323544
31
0.0
0
ARC
8
0
10
34.629289
20
57.023544
30
0.0
40
0.300000
50
0.000000
51
90.000000
0
LINE
8
0
10
34.929289
20
57.023544
30
0.0
11
34.929289
21
56.823544
31
0.0
0
ARC
8
0
10
35.229289
20
56.823544
30
0.0
40
0.300000
50
180.000000
51
270.000000
0
LINE
8
0
10
35.229289
20
56.523544
30
0.0
11
39.629289
21
56.523544
31
0.0
0
ARC
8
0
10
39.629289
20
56.823544
30
0.0
40
0.300000
50
270.000000
51
0.000000
0
LINE
8
0
10
39.929289
20
56.823544
30
0.0
11
39.929289
21
57.023544
31
0.0
0
ARC
8
0
10
40.229289
20
57.023544
30
0.0
40
0.300000
50
90.000000
51
180.000000
0
LINE
8
0
10
40.229289
20
57.323544
30
0.0
11
47.929289
21
57.323544
31
0.0
0
ARC
8
0
10
47.929289
20
56.823544
30
0.0
40
0.500000
50
0.000000
51
90.000000
0
LINE
8
0
10
48.429289
20
56.823544
30
0.0
11
48.429289
21
47.923544
31
0.0
0
ARC
8
0
10
48.929289
20
47.923544
30
0.0
40
0.500000
50
180.000000
51
270.000000
0
LINE
8
0
10
48.929289
20
47.423544
30
0.0
11
56.029289
21
47.423544
31
0.0
0
ARC
8
0
10
56.029289
20
45.823544
30
0.0
40
1.600000
50
0.000000
51
90.000000
0
LINE
8
0
10
57.629289
20
45.823544
30
0.0
11
57.629289
21
29.212461
31
0.0
0
LINE
8
0
10
57.636885
20
29.125637
30
0.0
11
57.629289
21
29.212461
31
0.0
0
LINE
8
0
10
57.636885
20
29.125637
30
0.0
11
58.421693
21
24.674771
31
0.0
0
LINE
8
0
10
58.421693
20
24.674771
30
0.0
11
58.429289
21
24.587947
31
0.0
0
LINE
8
0
10
58.429289
20
24.587947
30
0.0
11
58.429289
21
24.523544
31
0.0
0
ARC
8
0
10
58.029289
20
24.523544
30
0.0
40
0.400000
50
270.000000
51
0.000000
0
ARC
8
0
10
58.029289
20
23.723544
30
0.0
40
0.400000
50
90.000000
51
180.000000
0
LINE
8
0
10
57.629289
20
23.723544
30
0.0
11
57.629289
21
23.123544
31
0.0
0
ARC
8
0
10
57.329289
20
23.123544
30
0.0
40
0.300000
50
270.000000
51
0.000000
0
LINE
8
0
10
57.329289
20
22.823544
30
0.0
11
56.629289
21
22.823544
31
0.0
0
ARC
8
0
10
56.629289
20
23.123544
30
0.0
40
0.300000
50
180.000000
51
270.000000
0
LINE
8
0
10
56.329289
20
23.123544
30
0.0
11
56.329289
21
23.523544
31
0.0
0
ARC
8
0
10
56.029289
20
23.523544
30
0.0
40
0.300000
50
0.000000
51
90.000000
0
LINE
8
0
10
56.029289
20
23.823544
30
0.0
11
43.629289
21
23.823544
31
0.0
0
ARC
8
0
10
43.629289
20
23.523544
30
0.0
40
0.300000
50
90.000000
51
180.000000
0
LINE
8
0
10
43.329289
20
23.523544
30
0.0
11
43.329289
21
22.823544
31
0.0
0
ARC
8
0
10
42.829289
20
22.823544
30
0.0
40
0.500000
50
270.000000
51
0.000000
0
LINE
8
0
10
42.829289
20
22.323544
30
0.0
11
42.629289
21
22.323544
31
0.0
0
ARC
8
0
10
42.629289
20
22.823544
30
0.0
40
0.500000
50
180.000000
51
270.000000
0
LINE
8
0
10
42.129289
20
22.823544
30
0.0
11
42.129289
21
25.423544
31
0.0
0
ARC
8
0
10
42.329289
20
25.423544
30
0.0
40
0.200000
50
90.000000
51
180.000000
0
LINE
8
0
10
42.329289
20
25.623544
30
0.0
11
42.429289
21
25.623544
31
0.0
0
ARC
8
0
10
42.429289
20
25.823544
30
0.0
40
0.200000
50
270.000000
51
0.000000
0
LINE
8
0
10
42.629289
20
25.823544
30
0.0
11
42.629289
21
26.923544
31
0.0
0
ARC
8
0
10
43.329289
20
26.923544
30
0.0
40
0.700000
50
90.000000
51
180.000000
0
LINE
8
0
10
43.329289
20
27.623544
30
0.0
11
43.429289
21
27.623544
31
0.0
0
ARC
8
0
10
43.429289
20
27.323544
30
0.0
40
0.300000
50
0.000000
51
90.000000
0
LINE
8
0
10
43.729289
20
27.323544
30
0.0
11
43.729289
21
25.923544
31
0.0
0
ARC
8
0
10
44.029289
20
25.923544
30
0.0
40
0.300000
50
180.000000
51
270.000000
0
LINE
8
0
10
44.029289
20
25.623544
30
0.0
11
49.719566
21
25.623544
31
0.0
0
ARC
8
0
10
49.719566
20
26.423544
30
0.0
40
0.800000
50
270.000000
51
0.000000
0
LINE
8
0
10
50.519566
20
26.423544
30
0.0
11
50.519566
21
35.623544
31
0.0
0
ARC
8
0
10
49.719566
20
35.623544
30
0.0
40
0.800000
50
0.000000
51
90.000000
0
LINE
8
0
10
49.719566
20
36.423544
30
0.0
11
44.029289
21
36.423544
31
0.0
0
ARC
8
0
10
44.029289
20
36.123544
30
0.0
40
0.300000
50
90.000000
51
180.000000
0
LINE
8
0
10
43.729289
20
36.123544
30
0.0
11
43.729289
21
34.723544
31
0.0
0
ARC
8
0
10
43.429289
20
34.723544
30
0.0
40
0.300000
50
270.000000
51
0.000000
0
LINE
8
0
10
43.429289
20
34.423544
30
0.0
11
43.329289
21
34.423544
31
0.0
0
ARC
8
0
10
43.329289
20
35.123544
30
0.0
40
0.700000
50
180.000000
51
270.000000
0
LINE
8
0
10
42.629289
20
35.123544
30
0.0
11
42.629289
21
36.223544
31
0.0
0
ARC
8
0
10
42.429289
20
36.223544
30
0.0
40
0.200000
50
0.000000
51
90.000000
0
LINE
8
0
10
42.429289
20
36.423544
30
0.0
11
42.329289
21
36.423544
31
0.0
0
ARC
8
0
10
42.329289
20
36.623544
30
0.0
40
0.200000
50
180.000000
51
270.000000
0
LINE
8
0
10
42.129289
20
36.623544
30
0.0
11
42.129289
21
45.423544
31
0.0
0
ARC
8
0
10
41.629289
20
45.423544
30
0.0
40
0.500000
50
0.000000
51
90.000000
0
LINE
8
0
10
41.629289
20
45.923544
30
0.0
11
40.329289
21
45.923544
31
0.0
0
ARC
8
0
10
40.329289
20
46.423544
30
0.0
40
0.500000
50
180.000000
51
270.000000
0
LINE
8
0
10
39.829289
20
46.423544
30
0.0
11
39.829289
21
47.423544
31
0.0
0
ARC
8
0
10
40.329289
20
47.423544
30
0.0
40
0.500000
50
90.000000
51
180.000000
0
LINE
8
0
10
40.329289
20
47.923544
30
0.0
11
41.629289
21
47.923544
31
0.0
0
ARC
8
0
10
41.629289
20
48.423544
30
0.0
40
0.500000
50
270.000000
51
0.000000
0
LINE
8
0
10
42.129289
20
48.423544
30
0.0
11
42.129289
21
52.323544
31
0.0
0
ARC
8
0
10
40.129289
20
52.323544
30
0.0
40
2.000000
50
0.000000
51
90.000000
0
LINE
8
0
10
40.129289
20
54.323544
30
0.0
11
31.529289
21
54.323544
31
0.0
0
LINE
8
0
10
31.529289
20
54.323544
30
0.0
11
30.929289
21
54.923544
31
0.0
0
LINE
8
0
10
30.929289
20
54.923544
30
0.0
11
30.329289
21
54.323544
31
0.0
0
LINE
8
0
10
30.329289
20
54.323544
30
0.0
11
21.729289
21
54.323544
31
0.0
0
ARC
8
0
10
21.729289
20
52.323544
30
0.0
40
2.000000
50
90.000000
51
180.000000
0
LINE
8
0
10
19.729289
20
52.323544
30
0.0
11
19.729289
21
48.423544
31
0.0
0
ARC
8
0
10
20.229289
20
48.423544
30
0.0
40
0.500000
50
180.000000
51
270.000000
0
LINE
8
0
10
20.229289
20
47.923544
30
0.0
11
21.529289
21
47.923544
31
0.0
0
ARC
8
0
10
21.529289
20
47.423544
30
0.0
40
0.500000
50
0.000000
51
90.000000
0
LINE
8
0
10
22.029289
20
47.423544
30
0.0
11
22.029289
21
46.423544
31
0.0
0
ARC
8
0
10
21.529289
20
46.423544
30
0.0
40
0.500000
50
270.000000
51
0.000000
0
LINE
8
0
10
21.529289
20
45.923544
30
0.0
11
20.229289
21
45.923544
31
0.0
0
ARC
8
0
10
20.229289
20
45.423544
30
0.0
40
0.500000
50
90.000000
51
180.000000
0
LINE
8
0
10
19.729289
20
45.423544
30
0.0
11
19.729289
21
36.623544
31
0.0
0
ARC
8
0
10
19.529289
20
36.623544
30
0.0
40
0.200000
50
270.000000
51
0.000000
0
LINE
8
0
10
19.529289
20
36.423544
30
0.0
11
19.429289
21
36.423544
31
0.0
0
ARC
8
0
10
19.429289
20
36.223544
30
0.0
40
0.200000
50
90.000000
51
180.000000
0
LINE
8
0
10
19.229289
20
36.223544
30
0.0
11
19.229289
21
35.123544
31
0.0
0
ARC
8
0
10
18.529289
20
35.123544
30
0.0
40
0.700000
50
270.000000
51
0.000000
0
LINE
8
0
10
18.529289
20
34.423544
30
0.0
11
18.429289
21
34.423544
31
0.0
0
ARC
8
0
10
18.429289
20
34.723544
30
0.0
40
0.300000
50
180.000000
51
270.000000
0
LINE
8
0
10
18.129289
20
34.723544
30
0.0
11
18.129289
21
36.123544
31
0.0
0
ARC
8
0
10
17.829289
20
36.123544
30
0.0
40
0.300000
50
0.000000
51
90.000000
0
LINE
8
0
10
17.829289
20
36.423544
30
0.0
11
12.139012
21
36.423544
31
0.0
0
ARC
8
0
10
12.139012
20
35.623544
30
0.0
40
0.800000
50
90.000000
51
180.000000
0
LINE
8
0
10
11.339012
20
35.623544
30
0.0
11
11.339012
21
26.423544
31
0.0
0
ARC
8
0
10
12.139012
20
26.423544
30
0.0
40
0.800000
50
180.000000
51
270.000000
0
LINE
8
0
10
12.139012
20
25.623544
30
0.0
11
17.829289
21
25.623544
31
0.0
0
ARC
8
0
10
17.829289
20
25.923544
30
0.0
40
0.300000
50
270.000000
51
0.000000
0
LINE
8
0
10
18.129289
20
25.923544
30
0.0
11
18.129289
21
27.323544
31
0.0
0
ARC
8
0
10
18.429289
20
27.323544
30
0.0
40
0.300000
50
90.000000
51
180.000000
0
LINE
8
0
10
18.429289
20
27.623544
30
0.0
11
18.529289
21
27.623544
31
0.0
0
ARC
8
0
10
18.529289
20
26.923544
30
0.0
40
0.700000
50
0.000000
51
90.000000
0
LINE
8
0
10
33.929289
20
14.742365
30
0.0
11
27.990907
21
14.742365
31
0.0
0
ARC
8
0
10
27.990907
20
14.342365
30
0.0
40
0.400000
50
90.000000
51
160.000000
0
LINE
8
0
10
27.615029
20
14.479173
30
0.0
11
26.822001
21
12.300345
31
0.0
0
ARC
8
0
10
25.882308
20
12.642365
30
0.0
40
1.000000
50
270.000000
51
340.000000
0
LINE
8
0
10
25.882308
20
11.642365
30
0.0
11
24.917289
21
11.642365
31
0.0
0
ARC
8
0
10
24.917289
20
10.442365
30
0.0
40
1.200000
50
90.000000
51
119.981639
0
LINE
8
0
10
24.317622
20
11.481788
30
0.0
11
22.735678
21
10.569128
31
0.0
0
ARC
8
0
10
22.635734
20
10.742365
30
0.0
40
0.200000
50
270.000000
51
299.981639
0
LINE
8
0
10
22.635734
20
10.542365
30
0.0
11
22.329289
21
10.542365
31
0.0
0
ARC
8
0
10
22.329289
20
10.942365
30
0.0
40
0.400000
50
180.000000
51
270.000000
0
LINE
8
0
10
21.929289
20
10.942365
30
0.0
11
21.929289
21
11.442365
31
0.0
0
ARC
8
0
10
22.029289
20
11.442365
30
0.0
40
0.100000
50
90.000000
51
180.000000
0
LINE
8
0
10
22.029289
20
11.542365
30
0.0
11
22.029289
21
11.917365
31
0.0
0
ARC
8
0
10
22.229289
20
11.917365
30
0.0
40
0.200000
50
90.000000
51
180.000000
0
LINE
8
0
10
22.229289
20
12.117365
30
0.0
11
22.261707
21
12.117365
31
0.0
0
ARC
8
0
10
22.261707
20
11.517365
30
0.0
40
0.600000
50
69.635865
51
90.000000
0
ARC
8
0
10
22.679289
20
12.642365
30
0.0
40
0.600000
50
249.635865
51
110.364135
0
ARC
8
0
10
22.261707
20
13.767365
30
0.0
40
0.600000
50
270.000000
51
290.364135
0
LINE
8
0
10
22.261707
20
13.167365
30
0.0
11
22.229289
21
13.167365
31
0.0
0
ARC
8
0
10
22.229289
20
13.367365
30
0.0
40
0.200000
50
180.000000
51
270.000000
0
LINE
8
0
10
22.029289
20
13.367365
30
0.0
11
22.029289
21
13.742365
31
0.0
0
ARC
8
0
10
22.029289
20
13.842365
30
0.0
40
0.100000
50
180.000000
51
270.000000
0
LINE
8
0
10
21.929289
20
13.842365
30
0.0
11
21.929289
21
14.342365
31
0.0
0
ARC
8
0
10
22.329289
20
14.342365
30
0.0
40
0.400000
50
90.000000
51
180.000000
0
LINE
8
0
10
22.329289
20
14.742365
30
0.0
11
22.689289
21
14.742365
31
0.0
0
LINE
8
0
10
22.689289
20
14.742365
30
0.0
11
24.317622
21
13.802943
31
0.0
0
ARC
8
0
10
24.917289
20
14.842365
30
0.0
40
1.200000
50
240.018361
51
270.000000
0
LINE
8
0
10
24.917289
20
13.642365
30
0.0
11
24.972038
21
13.642365
31
0.0
0
ARC
8
0
10
24.972038
20
13.942365
30
0.0
40
0.300000
50
270.000000
51
340.000000
0
LINE
8
0
10
25.253946
20
13.839759
30
0.0
11
26.141820
21
16.279173
31
0.0
0
ARC
8
0
10
26.517697
20
16.142365
30
0.0
40
0.400000
50
90.000000
51
160.000000
0
LINE
8
0
10
26.517697
20
16.542365
30
0.0
11
35.340881
21
16.542365
31
0.0
0
ARC
8
0
10
35.340881
20
16.142365
30
0.0
40
0.400000
50
20.000000
51
90.000000
0
LINE
8
0
10
35.716758
20
16.279173
30
0.0
11
36.604632
21
13.839759
31
0.0
0
ARC
8
0
10
36.886540
20
13.942365
30
0.0
40
0.300000
50
200.000000
51
270.000000
0
ARC
8
0
10
36.886540
20
13.942365
30
0.0
40
0.300000
50
200.000000
51
270.000000
0
ARC
8
0
10
36.886540
20
13.942365
30
0.0
40
0.300000
50
200.000000
51
270.000000
0
LINE
8
0
10
36.886540
20
13.642365
30
0.0
11
36.941290
21
13.642365
31
0.0
0
LINE
8
0
10
36.941290
20
13.642365
30
0.0
11
36.886540
21
13.642365
31
0.0
0
LINE
8
0
10
36.886540
20
13.642365
30
0.0
11
36.941290
21
13.642365
31
0.0
0
ARC
8
0
10
36.941290
20
14.842365
30
0.0
40
1.200000
50
270.000000
51
299.981639
0
ARC
8
0
10
36.941290
20
14.842365
30
0.0
40
1.200000
50
270.000000
51
299.981639
0
ARC
8
0
10
36.941290
20
14.842365
30
0.0
40
1.200000
50
270.000000
51
299.981639
0
LINE
8
0
10
37.540957
20
13.802943
30
0.0
11
39.169289
21
14.742365
31
0.0
0
LINE
8
0
10
39.169289
20
14.742365
30
0.0
11
37.540957
21
13.802943
31
0.0
0
LINE
8
0
10
37.540957
20
13.802943
30
0.0
11
39.169289
21
14.742365
31
0.0
0
LINE
8
0
10
39.169289
20
14.742365
30
0.0
11
39.529289
21
14.742365
31
0.0
0
LINE
8
0
10
39.529289
20
14.742365
30
0.0
11
39.169289
21
14.742365
31
0.0
0
LINE
8
0
10
39.169289
20
14.742365
30
0.0
11
39.529289
21
14.742365
31
0.0
0
ARC
8
0
10
39.529289
20
14.342365
30
0.0
40
0.400000
50
0.000000
51
90.000000
0
LINE
8
0
10
39.929289
20
14.342365
30
0.0
11
39.929289
21
13.842365
31
0.0
0
ARC
8
0
10
39.829289
20
13.842365
30
0.0
40
0.100000
50
270.000000
51
0.000000
0
LINE
8
0
10
39.829289
20
13.742365
30
0.0
11
39.829289
21
13.367365
31
0.0
0
ARC
8
0
10
39.629289
20
13.367365
30
0.0
40
0.200000
50
270.000000
51
0.000000
0
LINE
8
0
10
39.629289
20
13.167365
30
0.0
11
39.596872
21
13.167365
31
0.0
0
ARC
8
0
10
39.596872
20
13.767365
30
0.0
40
0.600000
50
249.635865
51
270.000000
0
ARC
8
0
10
39.179289
20
12.642365
30
0.0
40
0.600000
50
69.635865
51
290.364135
0
ARC
8
0
10
39.596872
20
11.517365
30
0.0
40
0.600000
50
90.000000
51
110.364135
0
LINE
8
0
10
39.596872
20
12.117365
30
0.0
11
39.629289
21
12.117365
31
0.0
0
ARC
8
0
10
39.629289
20
11.917365
30
0.0
40
0.200000
50
0.000000
51
90.000000
0
LINE
8
0
10
39.829289
20
11.917365
30
0.0
11
39.829289
21
11.542365
31
0.0
0
ARC
8
0
10
39.829289
20
11.442365
30
0.0
40
0.100000
50
0.000000
51
90.000000
0
LINE
8
0
10
39.929289
20
11.442365
30
0.0
11
39.929289
21
10.942365
31
0.0
0
ARC
8
0
10
39.529289
20
10.942365
30
0.0
40
0.400000
50
270.000000
51
0.000000
0
LINE
8
0
10
39.529289
20
10.542365
30
0.0
11
39.222845
21
10.542365
31
0.0
0
ARC
8
0
10
39.222845
20
10.742365
30
0.0
40
0.200000
50
240.018361
51
270.000000
0
LINE
8
0
10
39.122900
20
10.569128
30
0.0
11
37.540957
21
11.481788
31
0.0
0
ARC
8
0
10
36.941290
20
10.442365
30
0.0
40
1.200000
50
60.018361
51
90.000000
0
LINE
8
0
10
36.941290
20
11.642365
30
0.0
11
35.976270
21
11.642365
31
0.0
0
ARC
8
0
10
35.976270
20
12.642365
30
0.0
40
1.000000
50
200.000000
51
270.000000
0
LINE
8
0
10
35.036578
20
12.300345
30
0.0
11
34.243549
21
14.479173
31
0.0
0
ARC
8
0
10
33.867672
20
14.342365
30
0.0
40
0.400000
50
20.000000
51
90.000000
0
LINE
8
0
10
33.867672
20
14.742365
30
0.0
11
33.929289
21
14.742365
31
0.0
0
LINE
8
0
10
33.929289
20
4.157635
30
0.0
11
27.990907
21
4.157635
31
0.0
0
ARC
8
0
10
27.990907
20
4.557635
30
0.0
40
0.400000
50
200.000000
51
270.000000
0
LINE
8
0
10
27.615029
20
4.420827
30
0.0
11
26.822001
21
6.599655
31
0.0
0
ARC
8
0
10
25.882308
20
6.257635
30
0.0
40
1.000000
50
20.000000
51
90.000000
0
LINE
8
0
10
25.882308
20
7.257635
30
0.0
11
24.917289
21
7.257635
31
0.0
0
ARC
8
0
10
24.917289
20
8.457635
30
0.0
40
1.200000
50
240.018361
51
270.000000
0
LINE
8
0
10
24.317622
20
7.418212
30
0.0
11
22.735678
21
8.330872
31
0.0
0
ARC
8
0
10
22.635734
20
8.157635
30
0.0
40
0.200000
50
60.018361
51
90.000000
0
LINE
8
0
10
22.635734
20
8.357635
30
0.0
11
22.329289
21
8.357635
31
0.0
0
ARC
8
0
10
22.329289
20
7.957635
30
0.0
40
0.400000
50
90.000000
51
180.000000
0
LINE
8
0
10
21.929289
20
7.957635
30
0.0
11
21.929289
21
7.457635
31
0.0
0
ARC
8
0
10
22.029289
20
7.457635
30
0.0
40
0.100000
50
180.000000
51
270.000000
0
LINE
8
0
10
22.029289
20
7.357635
30
0.0
11
22.029289
21
6.982635
31
0.0
0
ARC
8
0
10
22.229289
20
6.982635
30
0.0
40
0.200000
50
180.000000
51
270.000000
0
LINE
8
0
10
22.229289
20
6.782635
30
0.0
11
22.261707
21
6.782635
31
0.0
0
ARC
8
0
10
22.261707
20
7.382635
30
0.0
40
0.600000
50
270.000000
51
290.364135
0
ARC
8
0
10
22.679289
20
6.257635
30
0.0
40
0.600000
50
249.635865
51
110.364135
0
ARC
8
0
10
22.261707
20
5.132635
30
0.0
40
0.600000
50
69.635865
51
90.000000
0
LINE
8
0
10
22.261707
20
5.732635
30
0.0
11
22.229289
21
5.732635
31
0.0
0
ARC
8
0
10
22.229289
20
5.532635
30
0.0
40
0.200000
50
90.000000
51
180.000000
0
LINE
8
0
10
22.029289
20
5.532635
30
0.0
11
22.029289
21
5.157635
31
0.0
0
ARC
8
0
10
22.029289
20
5.057635
30
0.0
40
0.100000
50
90.000000
51
180.000000
0
LINE
8
0
10
21.929289
20
5.057635
30
0.0
11
21.929289
21
4.557635
31
0.0
0
ARC
8
0
10
22.329289
20
4.557635
30
0.0
40
0.400000
50
180.000000
51
270.000000
0
LINE
8
0
10
22.329289
20
4.157635
30
0.0
11
22.689289
21
4.157635
31
0.0
0
LINE
8
0
10
22.689289
20
4.157635
30
0.0
11
24.317622
21
5.097058
31
0.0
0
ARC
8
0
10
24.917289
20
4.057635
30
0.0
40
1.200000
50
90.000000
51
119.981639
0
LINE
8
0
10
24.917289
20
5.257635
30
0.0
11
24.972038
21
5.257635
31
0.0
0
ARC
8
0
10
24.972038
20
4.957635
30
0.0
40
0.300000
50
20.000000
51
90.000000
0
LINE
8
0
10
25.253946
20
5.060241
30
0.0
11
26.141820
21
2.620827
31
0.0
0
ARC
8
0
10
26.517697
20
2.757635
30
0.0
40
0.400000
50
200.000000
51
270.000000
0
LINE
8
0
10
26.517697
20
2.357635
30
0.0
11
35.340881
21
2.357635
31
0.0
0
ARC
8
0
10
35.340881
20
2.757635
30
0.0
40
0.400000
50
270.000000
51
340.000000
0
LINE
8
0
10
35.716758
20
2.620827
30
0.0
11
36.604632
21
5.060241
31
0.0
0
ARC
8
0
10
36.886540
20
4.957635
30
0.0
40
0.300000
50
90.000000
51
160.000000
0
ARC
8
0
10
36.886540
20
4.957635
30
0.0
40
0.300000
50
90.000000
51
160.000000
0
ARC
8
0
10
36.886540
20
4.957635
30
0.0
40
0.300000
50
90.000000
51
160.000000
0
LINE
8
0
10
36.886540
20
5.257635
30
0.0
11
36.941290
21
5.257635
31
0.0
0
LINE
8
0
10
36.941290
20
5.257635
30
0.0
11
36.886540
21
5.257635
31
0.0
0
LINE
8
0
10
36.886540
20
5.257635
30
0.0
11
36.941290
21
5.257635
31
0.0
0
ARC
8
0
10
36.941290
20
4.057635
30
0.0
40
1.200000
50
60.018361
51
90.000000
0
ARC
8
0
10
36.941290
20
4.057635
30
0.0
40
1.200000
50
60.018361
51
90.000000
0
ARC
8
0
10
36.941290
20
4.057635
30
0.0
40
1.200000
50
60.018361
51
90.000000
0
LINE
8
0
10
37.540957
20
5.097058
30
0.0
11
39.169289
21
4.157635
31
0.0
0
LINE
8
0
10
39.169289
20
4.157635
30
0.0
11
37.540957
21
5.097058
31
0.0
0
LINE
8
0
10
37.540957
20
5.097058
30
0.0
11
39.169289
21
4.157635
31
0.0
0
LINE
8
0
10
39.169289
20
4.157635
30
0.0
11
39.529289
21
4.157635
31
0.0
0
LINE
8
0
10
39.529289
20
4.157635
30
0.0
11
39.169289
21
4.157635
31
0.0
0
LINE
8
0
10
39.169289
20
4.157635
30
0.0
11
39.529289
21
4.157635
31
0.0
0
ARC
8
0
10
39.529289
20
4.557635
30
0.0
40
0.400000
50
270.000000
51
0.000000
0
LINE
8
0
10
39.929289
20
4.557635
30
0.0
11
39.929289
21
5.057635
31
0.0
0
ARC
8
0
10
39.829289
20
5.057635
30
0.0
40
0.100000
50
0.000000
51
90.000000
0
LINE
8
0
10
39.829289
20
5.157635
30
0.0
11
39.829289
21
5.532635
31
0.0
0
ARC
8
0
10
39.629289
20
5.532635
30
0.0
40
0.200000
50
0.000000
51
90.000000
0
LINE
8
0
10
39.629289
20
5.732635
30
0.0
11
39.596872
21
5.732635
31
0.0
0
ARC
8
0
10
39.596872
20
5.132635
30
0.0
40
0.600000
50
90.000000
51
110.364135
0
ARC
8
0
10
39.179289
20
6.257635
30
0.0
40
0.600000
50
69.635865
51
290.364135
0
ARC
8
0
10
39.596872
20
7.382635
30
0.0
40
0.600000
50
249.635865
51
270.000000
0
LINE
8
0
10
39.596872
20
6.782635
30
0.0
11
39.629289
21
6.782635
31
0.0
0
ARC
8
0
10
39.629289
20
6.982635
30
0.0
40
0.200000
50
270.000000
51
0.000000
0
LINE
8
0
10
39.829289
20
6.982635
30
0.0
11
39.829289
21
7.357635
31
0.0
0
ARC
8
0
10
39.829289
20
7.457635
30
0.0
40
0.100000
50
270.000000
51
0.000000
0
LINE
8
0
10
39.929289
20
7.457635
30
0.0
11
39.929289
21
7.957635
31
0.0
0
ARC
8
0
10
39.529289
20
7.957635
30
0.0
40
0.400000
50
0.000000
51
90.000000
0
LINE
8
0
10
39.529289
20
8.357635
30
0.0
11
39.222845
21
8.357635
31
0.0
0
ARC
8
0
10
39.222845
20
8.157635
30
0.0
40
0.200000
50
90.000000
51
119.981639
0
LINE
8
0
10
39.122900
20
8.330872
30
0.0
11
37.540957
21
7.418212
31
0.0
0
ARC
8
0
10
36.941290
20
8.457635
30
0.0
40
1.200000
50
270.000000
51
299.981639
0
LINE
8
0
10
36.941290
20
7.257635
30
0.0
11
35.976270
21
7.257635
31
0.0
0
ARC
8
0
10
35.976270
20
6.257635
30
0.0
40
1.000000
50
90.000000
51
160.000000
0
LINE
8
0
10
35.036578
20
6.599655
30
0.0
11
34.243549
21
4.420827
31
0.0
0
ARC
8
0
10
33.867672
20
4.557635
30
0.0
40
0.400000
50
270.000000
51
340.000000
0
LINE
8
0
10
33.867672
20
4.157635
30
0.0
11
33.929289
21
4.157635
31
0.0
0
ARC
8
0
10
8.129289
20
15.900000
30
0.0
40
0.300000
50
180.000000
51
270.000000
0
LINE
8
0
10
7.829289
20
15.900000
30
0.0
11
7.829289
21
16.300000
31
0.0
0
ARC
8
0
10
8.129289
20
16.300000
30
0.0
40
0.300000
50
90.000000
51
180.000000
0
LINE
8
0
10
8.129289
20
16.600000
30
0.0
11
11.629289
21
16.600000
31
0.0
0
ARC
8
0
10
11.629289
20
16.300000
30
0.0
40
0.300000
50
0.000000
51
90.000000
0
LINE
8
0
10
11.929289
20
16.300000
30
0.0
11
11.929289
21
15.400000
31
0.0
0
ARC
8
0
10
11.629289
20
15.400000
30
0.0
40
0.300000
50
270.000000
51
0.000000
0
LINE
8
0
10
11.629289
20
15.100000
30
0.0
11
10.229289
21
15.100000
31
0.0
0
ARC
8
0
10
10.229289
20
14.800000
30
0.0
40
0.300000
50
90.000000
51
180.000000
0
LINE
8
0
10
9.929289
20
14.800000
30
0.0
11
9.929289
21
8.500000
31
0.0
0
ARC
8
0
10
10.229289
20
8.500000
30
0.0
40
0.300000
50
180.000000
51
270.000000
0
LINE
8
0
10
10.229289
20
8.200000
30
0.0
11
19.929289
21
8.200000
31
0.0
0
ARC
8
0
10
19.929289
20
8.500000
30
0.0
40
0.300000
50
270.000000
51
0.000000
0
LINE
8
0
10
20.229289
20
8.500000
30
0.0
11
20.229289
21
14.800000
31
0.0
0
ARC
8
0
10
19.929289
20
14.800000
30
0.0
40
0.300000
50
0.000000
51
90.000000
0
LINE
8
0
10
19.929289
20
15.100000
30
0.0
11
18.529289
21
15.100000
31
0.0
0
ARC
8
0
10
18.529289
20
15.400000
30
0.0
40
0.300000
50
180.000000
51
270.000000
0
LINE
8
0
10
18.229289
20
15.400000
30
0.0
11
18.229289
21
16.300000
31
0.0
0
ARC
8
0
10
18.529289
20
16.300000
30
0.0
40
0.300000
50
90.000000
51
180.000000
0
LINE
8
0
10
18.529289
20
16.600000
30
0.0
11
22.249503
21
16.600000
31
0.0
0
LINE
8
0
10
22.249503
20
16.600000
30
0.0
11
23.600606
21
16.114155
31
0.0
0
ARC
8
0
10
23.680125
20
16.335292
30
0.0
40
0.235000
50
250.221829
51
336.000000
0
ARC
8
0
10
24.116060
20
16.158878
30
0.0
40
0.235000
50
90.000000
51
156.000000
0
LINE
8
0
10
24.114504
20
16.393873
30
0.0
11
25.693432
21
16.404330
31
0.0
0
ARC
8
0
10
25.695419
20
16.104337
30
0.0
40
0.300000
50
335.379459
51
90.000000
0
LINE
8
0
10
25.968145
20
15.979355
30
0.0
11
25.019495
21
13.873840
31
0.0
0
ARC
8
0
10
24.745975
20
13.997075
30
0.0
40
0.300000
50
295.379459
51
335.745828
0
LINE
8
0
10
24.874559
20
13.726028
30
0.0
11
24.367136
21
13.485309
31
0.0
0
ARC
8
0
10
24.281413
20
13.666007
30
0.0
40
0.200000
50
175.379459
51
295.379459
0
LINE
8
0
10
24.082063
20
13.682118
30
0.0
11
24.091365
21
13.797213
31
0.0
0
ARC
8
0
10
23.792340
20
13.821380
30
0.0
40
0.300000
50
355.379459
51
55.379459
0
LINE
8
0
10
23.962782
20
14.068260
30
0.0
11
22.334025
21
15.192726
31
0.0
0
LINE
8
0
10
22.334025
20
15.192726
30
0.0
11
22.151316
21
15.274073
31
0.0
0
ARC
8
0
10
22.029314
20
14.999991
30
0.0
40
0.300009
50
66.004713
51
228.187329
0
ARC
8
0
10
21.629289
20
14.552787
30
0.0
40
0.300000
50
0.000000
51
48.187329
0
LINE
8
0
10
21.929289
20
14.552787
30
0.0
11
21.929289
21
10.700000
31
0.0
0
ARC
8
0
10
22.229289
20
10.700000
30
0.0
40
0.300000
50
180.000000
51
270.000000
0
LINE
8
0
10
22.229289
20
10.400000
30
0.0
11
22.450483
21
10.400000
31
0.0
0
ARC
8
0
10
22.450483
20
10.700000
30
0.0
40
0.300000
50
270.000000
51
301.400000
0
LINE
8
0
10
22.606785
20
10.443935
30
0.0
11
24.125087
21
11.370710
31
0.0
0
ARC
8
0
10
24.229289
20
11.200000
30
0.0
40
0.200000
50
0.000000
51
121.400000
0
LINE
8
0
10
24.429289
20
11.200000
30
0.0
11
24.429289
21
7.700000
31
0.0
0
ARC
8
0
10
24.229289
20
7.700000
30
0.0
40
0.200000
50
238.600000
51
0.000000
0
LINE
8
0
10
24.125087
20
7.529290
30
0.0
11
22.606785
21
8.456065
31
0.0
0
ARC
8
0
10
22.450483
20
8.200000
30
0.0
40
0.300000
50
58.600000
51
90.000000
0
LINE
8
0
10
22.450483
20
8.500000
30
0.0
11
22.229289
21
8.500000
31
0.0
0
ARC
8
0
10
22.229289
20
8.200000
30
0.0
40
0.300000
50
90.000000
51
180.000000
0
LINE
8
0
10
21.929289
20
8.200000
30
0.0
11
21.929289
21
4.347214
31
0.0
0
ARC
8
0
10
21.629289
20
4.347214
30
0.0
40
0.300000
50
311.812671
51
0.000000
0
ARC
8
0
10
22.029314
20
3.900010
30
0.0
40
0.300009
50
131.812671
51
293.995287
0
LINE
8
0
10
22.151316
20
3.625927
30
0.0
11
22.334025
21
3.707275
31
0.0
0
LINE
8
0
10
22.334025
20
3.707275
30
0.0
11
23.962782
21
4.831741
31
0.0
0
ARC
8
0
10
23.792340
20
5.078620
30
0.0
40
0.300000
50
304.620541
51
4.620541
0
LINE
8
0
10
24.091365
20
5.102787
30
0.0
11
24.082063
21
5.217882
31
0.0
0
ARC
8
0
10
24.281413
20
5.233993
30
0.0
40
0.200000
50
64.620541
51
184.620541
0
LINE
8
0
10
24.367136
20
5.414691
30
0.0
11
24.874559
21
5.173972
31
0.0
0
ARC
8
0
10
24.745975
20
4.902925
30
0.0
40
0.300000
50
24.254172
51
64.620541
0
LINE
8
0
10
25.019495
20
5.026161
30
0.0
11
25.968145
21
2.920646
31
0.0
0
ARC
8
0
10
25.695419
20
2.795664
30
0.0
40
0.300000
50
270.000000
51
24.620541
0
LINE
8
0
10
25.693432
20
2.495670
30
0.0
11
24.114504
21
2.506127
31
0.0
0
ARC
8
0
10
24.116060
20
2.741122
30
0.0
40
0.235000
50
204.000000
51
270.000000
0
ARC
8
0
10
23.680125
20
2.564708
30
0.0
40
0.235000
50
24.000000
51
109.778171
0
LINE
8
0
10
23.600606
20
2.785846
30
0.0
11
22.298717
21
2.317697
31
0.0
0
ARC
8
0
10
22.197203
20
2.600000
30
0.0
40
0.300000
50
270.000000
51
289.778171
0
LINE
8
0
10
22.197203
20
2.300000
30
0.0
11
21.929289
21
2.300000
31
0.0
0
ARC
8
0
10
21.929289
20
2.000000
30
0.0
40
0.300000
50
90.000000
51
180.000000
0
LINE
8
0
10
21.629289
20
2.000000
30
0.0
11
21.629289
21
0.300000
31
0.0
0
ARC
8
0
10
21.329289
20
0.300000
30
0.0
40
0.300000
50
270.000000
51
0.000000
0
LINE
8
0
10
21.329289
20
0.000000
30
0.0
11
19.429289
21
0.000000
31
0.0
0
ARC
8
0
10
19.429289
20
0.300000
30
0.0
40
0.300000
50
180.000000
51
270.000000
0
LINE
8
0
10
19.129289
20
0.300000
30
0.0
11
19.129289
21
1.200000
31
0.0
0
ARC
8
0
10
19.429289
20
1.200000
30
0.0
40
0.300000
50
90.000000
51
180.000000
0
LINE
8
0
10
19.429289
20
1.500000
30
0.0
11
19.929289
21
1.500000
31
0.0
0
ARC
8
0
10
19.929289
20
1.800000
30
0.0
40
0.300000
50
270.000000
51
0.000000
0
LINE
8
0
10
20.229289
20
1.800000
30
0.0
11
20.229289
21
6.000000
31
0.0
0
ARC
8
0
10
19.729289
20
6.000000
30
0.0
40
0.500000
50
0.000000
51
90.000000
0
LINE
8
0
10
19.729289
20
6.500000
30
0.0
11
10.429289
21
6.500000
31
0.0
0
ARC
8
0
10
10.429289
20
6.000000
30
0.0
40
0.500000
50
90.000000
51
180.000000
0
LINE
8
0
10
9.929289
20
6.000000
30
0.0
11
9.929289
21
1.800000
31
0.0
0
ARC
8
0
10
10.229289
20
1.800000
30
0.0
40
0.300000
50
180.000000
51
270.000000
0
LINE
8
0
10
10.229289
20
1.500000
30
0.0
11
10.729289
21
1.500000
31
0.0
0
ARC
8
0
10
10.729289
20
1.200000
30
0.0
40
0.300000
50
0.000000
51
90.000000
0
LINE
8
0
10
11.029289
20
1.200000
30
0.0
11
11.029289
21
0.300000
31
0.0
0
ARC
8
0
10
10.729289
20
0.300000
30
0.0
40
0.300000
50
270.000000
51
0.000000
0
LINE
8
0
10
10.729289
20
0.000000
30
0.0
11
9.429289
21
0.000000
31
0.0
0
ARC
8
0
10
9.429289
20
1.000000
30
0.0
40
1.000000
50
180.000000
51
270.000000
0
LINE
8
0
10
8.429289
20
1.000000
30
0.0
11
8.429289
21
12.000000
31
0.0
0
ARC
8
0
10
8.129289
20
12.000000
30
0.0
40
0.300000
50
0.000000
51
90.000000
0
LINE
8
0
10
8.129289
20
12.300000
30
0.0
11
4.529289
21
12.300000
31
0.0
0
ARC
8
0
10
4.529289
20
12.600000
30
0.0
40
0.300000
50
180.000000
51
270.000000
0
LINE
8
0
10
4.229289
20
12.600000
30
0.0
11
4.229289
21
15.300000
31
0.0
0
LINE
8
0
10
4.229289
20
15.300000
30
0.0
11
4.129289
21
15.300000
31
0.0
0
ARC
8
0
10
4.129289
20
15.800000
30
0.0
40
0.500000
50
90.000000
51
270.000000
0
LINE
8
0
10
4.129289
20
16.300000
30
0.0
11
4.929289
21
16.300000
31
0.0
0
ARC
8
0
10
4.929289
20
15.800000
30
0.0
40
0.500000
50
0.000000
51
90.000000
0
LINE
8
0
10
5.429289
20
15.800000
30
0.0
11
5.429289
21
13.800000
31
0.0
0
ARC
8
0
10
5.729289
20
13.800000
30
0.0
40
0.300000
50
180.000000
51
270.000000
0
LINE
8
0
10
5.729289
20
13.500000
30
0.0
11
8.129289
21
13.500000
31
0.0
0
ARC
8
0
10
8.129289
20
13.800000
30
0.0
40
0.300000
50
270.000000
51
0.000000
0
LINE
8
0
10
8.429289
20
13.800000
30
0.0
11
8.429289
21
15.300000
31
0.0
0
ARC
8
0
10
8.129289
20
15.300000
30
0.0
40
0.300000
50
0.000000
51
90.000000
0
ARC
8
0
10
53.729289
20
15.900000
30
0.0
40
0.300000
50
270.000000
51
0.000000
0
LINE
8
0
10
54.029289
20
15.900000
30
0.0
11
54.029289
21
16.300000
31
0.0
0
ARC
8
0
10
53.729289
20
16.300000
30
0.0
40
0.300000
50
0.000000
51
90.000000
0
LINE
8
0
10
53.729289
20
16.600000
30
0.0
11
50.229289
21
16.600000
31
0.0
0
ARC
8
0
10
50.229289
20
16.300000
30
0.0
40
0.300000
50
90.000000
51
180.000000
0
LINE
8
0
10
49.929289
20
16.300000
30
0.0
11
49.929289
21
15.400000
31
0.0
0
ARC
8
0
10
50.229289
20
15.400000
30
0.0
40
0.300000
50
180.000000
51
270.000000
0
LINE
8
0
10
50.229289
20
15.100000
30
0.0
11
51.629289
21
15.100000
31
0.0
0
ARC
8
0
10
51.629289
20
14.800000
30
0.0
40
0.300000
50
0.000000
51
90.000000
0
LINE
8
0
10
51.929289
20
14.800000
30
0.0
11
51.929289
21
8.500000
31
0.0
0
ARC
8
0
10
51.629289
20
8.500000
30
0.0
40
0.300000
50
270.000000
51
0.000000
0
LINE
8
0
10
51.629289
20
8.200000
30
0.0
11
41.929289
21
8.200000
31
0.0
0
ARC
8
0
10
41.929289
20
8.500000
30
0.0
40
0.300000
50
180.000000
51
270.000000
0
LINE
8
0
10
41.629289
20
8.500000
30
0.0
11
41.629289
21
14.800000
31
0.0
0
ARC
8
0
10
41.929289
20
14.800000
30
0.0
40
0.300000
50
90.000000
51
180.000000
0
LINE
8
0
10
41.929289
20
15.100000
30
0.0
11
43.329289
21
15.100000
31
0.0
0
ARC
8
0
10
43.329289
20
15.400000
30
0.0
40
0.300000
50
270.000000
51
0.000000
0
LINE
8
0
10
43.629289
20
15.400000
30
0.0
11
43.629289
21
16.300000
31
0.0
0
ARC
8
0
10
43.329289
20
16.300000
30
0.0
40
0.300000
50
0.000000
51
90.000000
0
LINE
8
0
10
43.329289
20
16.600000
30
0.0
11
39.609075
21
16.600000
31
0.0
0
LINE
8
0
10
39.609075
20
16.600000
30
0.0
11
38.257972
21
16.114155
31
0.0
0
ARC
8
0
10
38.178453
20
16.335292
30
0.0
40
0.235000
50
204.000000
51
289.778171
0
ARC
8
0
10
37.742519
20
16.158878
30
0.0
40
0.235000
50
24.000000
51
90.000000
0
LINE
8
0
10
37.744075
20
16.393873
30
0.0
11
36.165147
21
16.404330
31
0.0
0
ARC
8
0
10
36.163160
20
16.104337
30
0.0
40
0.300000
50
90.000000
51
204.620541
0
LINE
8
0
10
35.890434
20
15.979355
30
0.0
11
36.839084
21
13.873840
31
0.0
0
ARC
8
0
10
37.112603
20
13.997075
30
0.0
40
0.300000
50
204.254172
51
244.620541
0
LINE
8
0
10
36.984020
20
13.726028
30
0.0
11
37.491443
21
13.485309
31
0.0
0
ARC
8
0
10
37.577165
20
13.666007
30
0.0
40
0.200000
50
244.620541
51
4.620541
0
LINE
8
0
10
37.776515
20
13.682118
30
0.0
11
37.767213
21
13.797213
31
0.0
0
ARC
8
0
10
38.066238
20
13.821380
30
0.0
40
0.300000
50
124.620541
51
184.620541
0
LINE
8
0
10
37.895797
20
14.068260
30
0.0
11
39.524553
21
15.192726
31
0.0
0
LINE
8
0
10
39.524553
20
15.192726
30
0.0
11
39.707262
21
15.274073
31
0.0
0
ARC
8
0
10
39.829265
20
14.999991
30
0.0
40
0.300009
50
311.812671
51
113.995287
0
ARC
8
0
10
40.229289
20
14.552787
30
0.0
40
0.300000
50
131.812671
51
180.000000
0
LINE
8
0
10
39.929289
20
14.552787
30
0.0
11
39.929289
21
10.700000
31
0.0
0
ARC
8
0
10
39.629289
20
10.700000
30
0.0
40
0.300000
50
270.000000
51
0.000000
0
LINE
8
0
10
39.629289
20
10.400000
30
0.0
11
39.408096
21
10.400000
31
0.0
0
ARC
8
0
10
39.408096
20
10.700000
30
0.0
40
0.300000
50
238.600000
51
270.000000
0
LINE
8
0
10
39.251793
20
10.443935
30
0.0
11
37.733491
21
11.370710
31
0.0
0
ARC
8
0
10
37.629289
20
11.200000
30
0.0
40
0.200000
50
58.600000
51
180.000000
0
LINE
8
0
10
37.429289
20
11.200000
30
0.0
11
37.429289
21
7.700000
31
0.0
0
ARC
8
0
10
37.629289
20
7.700000
30
0.0
40
0.200000
50
180.000000
51
301.400000
0
LINE
8
0
10
37.733491
20
7.529290
30
0.0
11
39.251793
21
8.456065
31
0.0
0
ARC
8
0
10
39.408096
20
8.200000
30
0.0
40
0.300000
50
90.000000
51
121.400000
0
LINE
8
0
10
39.408096
20
8.500000
30
0.0
11
39.629289
21
8.500000
31
0.0
0
ARC
8
0
10
39.629289
20
8.200000
30
0.0
40
0.300000
50
0.000000
51
90.000000
0
LINE
8
0
10
39.929289
20
8.200000
30
0.0
11
39.929289
21
4.347214
31
0.0
0
ARC
8
0
10
40.229289
20
4.347214
30
0.0
40
0.300000
50
180.000000
51
228.187329
0
ARC
8
0
10
39.829265
20
3.900010
30
0.0
40
0.300009
50
246.004713
51
48.187329
0
LINE
8
0
10
39.707262
20
3.625927
30
0.0
11
39.524553
21
3.707275
31
0.0
0
LINE
8
0
10
39.524553
20
3.707275
30
0.0
11
37.895797
21
4.831741
31
0.0
0
ARC
8
0
10
38.066238
20
5.078620
30
0.0
40
0.300000
50
175.379459
51
235.379459
0
LINE
8
0
10
37.767213
20
5.102787
30
0.0
11
37.776515
21
5.217882
31
0.0
0
ARC
8
0
10
37.577165
20
5.233993
30
0.0
40
0.200000
50
355.379459
51
115.379459
0
LINE
8
0
10
37.491443
20
5.414691
30
0.0
11
36.984020
21
5.173972
31
0.0
0
ARC
8
0
10
37.112603
20
4.902925
30
0.0
40
0.300000
50
115.379459
51
155.745828
0
LINE
8
0
10
36.839084
20
5.026161
30
0.0
11
35.890434
21
2.920646
31
0.0
0
ARC
8
0
10
36.163160
20
2.795664
30
0.0
40
0.300000
50
155.379459
51
270.000000
0
LINE
8
0
10
36.165147
20
2.495670
30
0.0
11
37.744075
21
2.506127
31
0.0
0
ARC
8
0
10
37.742519
20
2.741122
30
0.0
40
0.235000
50
270.000000
51
336.000000
0
ARC
8
0
10
38.178453
20
2.564708
30
0.0
40
0.235000
50
70.221829
51
156.000000
0
LINE
8
0
10
38.257972
20
2.785846
30
0.0
11
39.559861
21
2.317697
31
0.0
0
ARC
8
0
10
39.661375
20
2.600000
30
0.0
40
0.300000
50
250.221829
51
270.000000
0
LINE
8
0
10
39.661375
20
2.300000
30
0.0
11
39.929289
21
2.300000
31
0.0
0
ARC
8
0
10
39.929289
20
2.000000
30
0.0
40
0.300000
50
0.000000
51
90.000000
0
LINE
8
0
10
40.229289
20
2.000000
30
0.0
11
40.229289
21
0.300000
31
0.0
0
ARC
8
0
10
40.529289
20
0.300000
30
0.0
40
0.300000
50
180.000000
51
270.000000
0
LINE
8
0
10
40.529289
20
0.000000
30
0.0
11
42.429289
21
0.000000
31
0.0
0
ARC
8
0
10
42.429289
20
0.300000
30
0.0
40
0.300000
50
270.000000
51
0.000000
0
LINE
8
0
10
42.729289
20
0.300000
30
0.0
11
42.729289
21
1.200000
31
0.0
0
ARC
8
0
10
42.429289
20
1.200000
30
0.0
40
0.300000
50
0.000000
51
90.000000
0
LINE
8
0
10
42.429289
20
1.500000
30
0.0
11
41.929289
21
1.500000
31
0.0
0
ARC
8
0
10
41.929289
20
1.800000
30
0.0
40
0.300000
50
180.000000
51
270.000000
0
LINE
8
0
10
41.629289
20
1.800000
30
0.0
11
41.629289
21
6.000000
31
0.0
0
ARC
8
0
10
42.129289
20
6.000000
30
0.0
40
0.500000
50
90.000000
51
180.000000
0
LINE
8
0
10
42.129289
20
6.500000
30
0.0
11
51.429289
21
6.500000
31
0.0
0
ARC
8
0
10
51.429289
20
6.000000
30
0.0
40
0.500000
50
0.000000
51
90.000000
0
LINE
8
0
10
51.929289
20
6.000000
30
0.0
11
51.929289
21
1.800000
31
0.0
0
ARC
8
0
10
51.629289
20
1.800000
30
0.0
40
0.300000
50
270.000000
51
0.000000
0
LINE
8
0
10
51.629289
20
1.500000
30
0.0
11
51.129289
21
1.500000
31
0.0
0
ARC
8
0
10
51.129289
20
1.200000
30
0.0
40
0.300000
50
90.000000
51
180.000000
0
LINE
8
0
10
50.829289
20
1.200000
30
0.0
11
50.829289
21
0.300000
31
0.0
0
ARC
8
0
10
51.129289
20
0.300000
30
0.0
40
0.300000
50
180.000000
51
270.000000
0
LINE
8
0
10
51.129289
20
0.000000
30
0.0
11
52.429289
21
0.000000
31
0.0
0
ARC
8
0
10
52.429289
20
1.000000
30
0.0
40
1.000000
50
270.000000
51
0.000000
0
LINE
8
0
10
53.429289
20
1.000000
30
0.0
11
53.429289
21
12.000000
31
0.0
0
ARC
8
0
10
53.729289
20
12.000000
30
0.0
40
0.300000
50
90.000000
51
180.000000
0
LINE
8
0
10
53.729289
20
12.300000
30
0.0
11
57.329289
21
12.300000
31
0.0
0
ARC
8
0
10
57.329289
20
12.600000
30
0.0
40
0.300000
50
270.000000
51
0.000000
0
LINE
8
0
10
57.629289
20
12.600000
30
0.0
11
57.629289
21
15.300000
31
0.0
0
LINE
8
0
10
57.629289
20
15.300000
30
0.0
11
57.729289
21
15.300000
31
0.0
0
ARC
8
0
10
57.729289
20
15.800000
30
0.0
40
0.500000
50
270.000000
51
90.000000
0
LINE
8
0
10
57.729289
20
16.300000
30
0.0
11
56.929289
21
16.300000
31
0.0
0
ARC
8
0
10
56.929289
20
15.800000
30
0.0
40
0.500000
50
90.000000
51
180.000000
0
LINE
8
0
10
56.429289
20
15.800000
30
0.0
11
56.429289
21
13.800000
31
0.0
0
ARC
8
0
10
56.129289
20
13.800000
30
0.0
40
0.300000
50
270.000000
51
0.000000
0
LINE
8
0
10
56.129289
20
13.500000
30
0.0
11
53.729289
21
13.500000
31
0.0
0
ARC
8
0
10
53.729289
20
13.800000
30
0.0
40
0.300000
50
180.000000
51
270.000000
0
LINE
8
0
10
53.429289
20
13.800000
30
0.0
11
53.429289
21
15.300000
31
0.0
0
ARC
8
0
10
53.729289
20
15.300000
30
0.0
40
0.300000
50
90.000000
51
180.000000
0
ATTDEF
8
0
10
0.000000
20
0.000000
30
0.0
40
3.5
1

3

2
GLASS_MIN:0.000000
70
0
0
ATTDEF
8
0
10
0.000000
20
0.000000
30
0.0
40
3.5
1

3

2
GLASS_MAX:0.000000
70
0
0
ATTDEF
8
0
10
0.000000
20
0.000000
30
0.0
40
3.5
1

3

2
BL01:6500.000000,,1
70
0
0
ATTDEF
8
0
10
0.000000
20
0.000000
30
0.0
40
3.5
1

3

2
HW_START
70
0
0
ATTDEF
8
0
10
62.000000
20
94.300000
30
0.0
40
3.5
1

3

2
HW_END
70
0
0
ATTDEF
8
0
10
0.000000
20
0.000000
30
0.0
40
3.5
1

3

2
FP_LCS_ORIG
70
0
0
ATTDEF
8
0
10
10.000000
20
0.000000
30
0.0
40
3.5
1

3

2
FP_LCS_HOT
70
0
0
ATTDEF
8
0
10
0.000000
20
10.000000
30
0.0
40
3.5
1

3

2
FP_LCS_INTERN
70
0
0
ATTDEF
8
0
10
0.000000
20
0.000000
30
0.0
40
3.5
1

3

2
TDEV3:0
70
0
0
ATTDEF
8
0
10
0.000000
20
0.000000
30
0.0
40
3.5
1

3

2
TDEV4:0
70
0
0
ATTDEF
8
0
10
0.000000
20
0.000000
30
0.0
40
3.5
1

3

2
TDEV5:0
70
0
0
ATTDEF
8
0
10
0.000000
20
0.000000
30
0.0
40
3.5
1

3

2
PANE_WIDTH:57.5
70
0
0
ATTDEF
8
0
10
0.000000
20
0.000000
30
0.0
40
3.5
1

3

2
MIN_VETRO:0
70
0
0
ATTDEF
8
0
10
0.000000
20
0.000000
30
0.0
40
3.5
1

3

2
MAX_VETRO:0
70
0
0
ATTDEF
8
0
10
0.000000
20
0.000000
30
0.0
40
3.5
1

3

2
JX:0
70
0
0
ATTDEF
8
0
10
0.000000
20
0.000000
30
0.0
40
3.5
1

3

2
WX:0
70
0
0
ATTDEF
8
0
10
0.000000
20
0.000000
30
0.0
40
3.5
1

3

2
JY:0
70
0
0
ATTDEF
8
0
10
0.000000
20
0.000000
30
0.0
40
3.5
1

3

2
WY:0
70
0
0
ATTDEF
8
0
10
0.000000
20
0.000000
30
0.0
40
3.5
1

3

2
DESC:U10140 - V31210 - U10601
70
0
0
ATTDEF
8
0
10
0.000000
20
0.000000
30
0.0
40
3.5
1

3

2
DENS:0
70
0
0
ATTDEF
8
0
10
0.000000
20
0.000000
30
0.0
40
3.5
1

3

2
TDEV:0
70
0
0
ATTDEF
8
0
10
0.000000
20
0.000000
30
0.0
40
3.5
1

3

2
TDEV2:0
70
0
0
ATTDEF
8
0
10
0.000000
20
0.000000
30
0.0
40
3.5
1

3

2
TDEV3:0
70
0
0
ATTDEF
8
0
10
0.000000
20
0.000000
30
0.0
40
3.5
1

3

2
TDEV4:0
70
0
0
ATTDEF
8
0
10
0.000000
20
0.000000
30
0.0
40
3.5
1

3

2
TDEV5:0
70
0
0
ATTDEF
8
0
10
0.000000
20
0.000000
30
0.0
40
3.5
1

3

2
PANE_WIDTH:57.5
70
0
0
ATTDEF
8
0
10
0.000000
20
0.000000
30
0.0
40
3.5
1

3

2
MIN_VETRO:0
70
0
0
ATTDEF
8
0
10
0.000000
20
0.000000
30
0.0
40
3.5
1

3

2
MAX_VETRO:0
70
0
0
ATTDEF
8
0
10
0.000000
20
0.000000
30
0.0
40
3.5
1

3

2
JX:0
70
0
0
ATTDEF
8
0
10
0.000000
20
0.000000
30
0.0
40
3.5
1

3

2
WX:0
70
0
0
ATTDEF
8
0
10
0.000000
20
0.000000
30
0.0
40
3.5
1

3

2
JY:0
70
0
0
ATTDEF
8
0
10
0.000000
20
0.000000
30
0.0
40
3.5
1

3

2
WY:0
70
0
0
ENDSEC
0
EOF
