0
SECTION
2
ENTITIES
0
LINE
8
0
10
131.800000
20
63.303432
30
0.0
11
134.000000
21
63.303432
31
0.0
0
ARC
8
0
10
134.000000
20
63.603432
30
0.0
40
0.300000
50
270.000000
51
0.000000
0
LINE
8
0
10
134.300000
20
63.603432
30
0.0
11
134.300000
21
69.502869
31
0.0
0
ARC
8
0
10
134.600000
20
69.502869
30
0.0
40
0.300000
50
90.000000
51
180.000000
0
LINE
8
0
10
134.600000
20
69.802869
30
0.0
11
137.900000
21
69.802869
31
0.0
0
ARC
8
0
10
137.900000
20
69.502869
30
0.0
40
0.300000
50
0.000000
51
90.000000
0
LINE
8
0
10
138.200000
20
69.502869
30
0.0
11
138.200000
21
49.903432
31
0.0
0
ARC
8
0
10
137.900000
20
49.903432
30
0.0
40
0.300000
50
270.000000
51
0.000000
0
LINE
8
0
10
137.900000
20
49.603432
30
0.0
11
129.500000
21
49.603432
31
0.0
0
ARC
8
0
10
129.500000
20
49.903432
30
0.0
40
0.300000
50
180.000000
51
270.000000
0
LINE
8
0
10
129.200000
20
49.903432
30
0.0
11
129.200000
21
63.003432
31
0.0
0
ARC
8
0
10
129.500000
20
63.003432
30
0.0
40
0.300000
50
90.000000
51
180.000000
0
LINE
8
0
10
129.500000
20
63.303432
30
0.0
11
131.200000
21
63.303432
31
0.0
0
LINE
8
0
10
131.200000
20
63.303432
30
0.0
11
131.500000
21
63.603432
31
0.0
0
LINE
8
0
10
131.500000
20
63.603432
30
0.0
11
131.800000
21
63.303432
31
0.0
0
ARC
8
0
10
136.700000
20
38.202869
30
0.0
40
0.300000
50
270.000000
51
0.000000
0
LINE
8
0
10
137.000000
20
38.202869
30
0.0
11
137.000000
21
39.102869
31
0.0
0
ARC
8
0
10
137.300000
20
39.102869
30
0.0
40
0.300000
50
90.000000
51
180.000000
0
LINE
8
0
10
137.300000
20
39.402869
30
0.0
11
137.900000
21
39.402869
31
0.0
0
ARC
8
0
10
137.900000
20
39.102869
30
0.0
40
0.300000
50
0.000000
51
90.000000
0
LINE
8
0
10
138.200000
20
39.102869
30
0.0
11
138.200000
21
22.602869
31
0.0
0
ARC
8
0
10
137.900000
20
22.602869
30
0.0
40
0.300000
50
270.000000
51
0.000000
0
LINE
8
0
10
137.900000
20
22.302869
30
0.0
11
137.300000
21
22.302869
31
0.0
0
ARC
8
0
10
137.300000
20
22.602869
30
0.0
40
0.300000
50
180.000000
51
270.000000
0
LINE
8
0
10
137.000000
20
22.602869
30
0.0
11
137.000000
21
23.502869
31
0.0
0
ARC
8
0
10
136.700000
20
23.502869
30
0.0
40
0.300000
50
0.000000
51
90.000000
0
LINE
8
0
10
136.700000
20
23.802869
30
0.0
11
136.000000
21
23.802869
31
0.0
0
ARC
8
0
10
136.000000
20
23.502869
30
0.0
40
0.300000
50
90.000000
51
180.000000
0
LINE
8
0
10
135.700000
20
23.502869
30
0.0
11
135.700000
21
19.902869
31
0.0
0
ARC
8
0
10
136.000000
20
19.902869
30
0.0
40
0.300000
50
180.000000
51
270.000000
0
LINE
8
0
10
136.000000
20
19.602869
30
0.0
11
136.400000
21
19.602869
31
0.0
0
ARC
8
0
10
136.400000
20
19.902869
30
0.0
40
0.300000
50
270.000000
51
0.000000
0
LINE
8
0
10
136.700000
20
19.902869
30
0.0
11
136.700000
21
20.802869
31
0.0
0
ARC
8
0
10
137.000000
20
20.802869
30
0.0
40
0.300000
50
90.000000
51
180.000000
0
LINE
8
0
10
137.000000
20
21.102869
30
0.0
11
137.697977
21
21.102869
31
0.0
0
ARC
8
0
10
137.697977
20
20.802869
30
0.0
40
0.300000
50
0.000000
51
90.000000
0
LINE
8
0
10
137.997977
20
20.802869
30
0.0
11
137.997977
21
20.052869
31
0.0
0
ARC
8
0
10
138.297977
20
20.052869
30
0.0
40
0.300000
50
180.000000
51
240.000000
0
ARC
8
0
10
137.997977
20
19.533254
30
0.0
40
0.300000
50
0.000000
51
60.000000
0
LINE
8
0
10
138.297977
20
19.533254
30
0.0
11
138.297977
21
15.072485
31
0.0
0
ARC
8
0
10
137.997977
20
15.072485
30
0.0
40
0.300000
50
300.000000
51
0.000000
0
ARC
8
0
10
138.297977
20
14.552869
30
0.0
40
0.300000
50
120.000000
51
180.000000
0
LINE
8
0
10
137.997977
20
14.552869
30
0.0
11
137.997977
21
13.802869
31
0.0
0
ARC
8
0
10
137.697977
20
13.802869
30
0.0
40
0.300000
50
270.000000
51
0.000000
0
LINE
8
0
10
137.697977
20
13.502869
30
0.0
11
137.000000
21
13.502869
31
0.0
0
ARC
8
0
10
137.000000
20
13.802869
30
0.0
40
0.300000
50
180.000000
51
270.000000
0
LINE
8
0
10
136.700000
20
13.802869
30
0.0
11
136.700000
21
14.702869
31
0.0
0
ARC
8
0
10
136.400000
20
14.702869
30
0.0
40
0.300000
50
0.000000
51
90.000000
0
LINE
8
0
10
136.400000
20
15.002869
30
0.0
11
136.000000
21
15.002869
31
0.0
0
ARC
8
0
10
136.000000
20
14.702869
30
0.0
40
0.300000
50
90.000000
51
180.000000
0
LINE
8
0
10
135.700000
20
14.702869
30
0.0
11
135.700000
21
12.602869
31
0.0
0
ARC
8
0
10
136.000000
20
12.602869
30
0.0
40
0.300000
50
180.000000
51
270.000000
0
LINE
8
0
10
136.000000
20
12.302869
30
0.0
11
139.200000
21
12.302869
31
0.0
0
ARC
8
0
10
139.200000
20
12.802869
30
0.0
40
0.500000
50
270.000000
51
0.000000
0
LINE
8
0
10
139.700000
20
12.802869
30
0.0
11
139.700000
21
76.002869
31
0.0
0
ARC
8
0
10
139.400000
20
76.002869
30
0.0
40
0.300000
50
0.000000
51
90.000000
0
LINE
8
0
10
139.400000
20
76.302869
30
0.0
11
136.150555
21
76.302869
31
0.0
0
ARC
8
0
10
136.150555
20
76.002869
30
0.0
40
0.300000
50
90.000000
51
150.000000
0
LINE
8
0
10
135.890748
20
76.152869
30
0.0
11
135.440192
21
75.372485
31
0.0
0
ARC
8
0
10
135.700000
20
75.222485
30
0.0
40
0.300000
50
150.000000
51
180.000000
0
LINE
8
0
10
135.400000
20
75.222485
30
0.0
11
135.400000
21
75.102869
31
0.0
0
ARC
8
0
10
135.700000
20
75.102869
30
0.0
40
0.300000
50
180.000000
51
270.000000
0
LINE
8
0
10
135.700000
20
74.802869
30
0.0
11
137.600000
21
74.802869
31
0.0
0
ARC
8
0
10
137.600000
20
74.502869
30
0.0
40
0.300000
50
0.000000
51
90.000000
0
LINE
8
0
10
137.900000
20
74.502869
30
0.0
11
137.900000
21
71.602869
31
0.0
0
ARC
8
0
10
137.600000
20
71.602869
30
0.0
40
0.300000
50
270.000000
51
0.000000
0
LINE
8
0
10
137.600000
20
71.302869
30
0.0
11
132.430521
21
71.302869
31
0.0
0
ARC
8
0
10
132.430521
20
71.002869
30
0.0
40
0.300000
50
90.000000
51
109.778171
0
LINE
8
0
10
132.329007
20
71.285172
30
0.0
11
131.028683
21
70.817586
31
0.0
0
ARC
8
0
10
130.949164
20
71.038724
30
0.0
40
0.235000
50
204.000000
51
289.778171
0
ARC
8
0
10
130.513229
20
70.862310
30
0.0
40
0.235000
50
24.000000
51
90.000000
0
LINE
8
0
10
130.514786
20
71.097305
30
0.0
11
128.935857
21
71.107762
31
0.0
0
ARC
8
0
10
128.933870
20
70.807769
30
0.0
40
0.300000
50
90.000000
51
204.620541
0
LINE
8
0
10
128.661144
20
70.682787
30
0.0
11
129.609794
21
68.577271
31
0.0
0
ARC
8
0
10
129.883314
20
68.700507
30
0.0
40
0.300000
50
204.254172
51
244.620541
0
LINE
8
0
10
129.754731
20
68.429460
30
0.0
11
130.262153
21
68.188741
31
0.0
0
ARC
8
0
10
130.347876
20
68.369439
30
0.0
40
0.200000
50
244.620541
51
4.620541
0
LINE
8
0
10
130.547226
20
68.385550
30
0.0
11
130.537924
21
68.500645
31
0.0
0
ARC
8
0
10
130.836949
20
68.524812
30
0.0
40
0.300000
50
124.620541
51
184.620541
0
LINE
8
0
10
130.666507
20
68.771692
30
0.0
11
132.295264
21
69.896158
31
0.0
0
LINE
8
0
10
132.295264
20
69.896158
30
0.0
11
132.477973
21
69.977505
31
0.0
0
ARC
8
0
10
132.599975
20
69.703423
30
0.0
40
0.300009
50
311.812671
51
113.995287
0
ARC
8
0
10
133.000000
20
69.256218
30
0.0
40
0.300000
50
131.812671
51
180.000000
0
LINE
8
0
10
132.700000
20
69.256218
30
0.0
11
132.700000
21
65.403432
31
0.0
0
ARC
8
0
10
132.400000
20
65.403432
30
0.0
40
0.300000
50
270.000000
51
0.000000
0
LINE
8
0
10
132.400000
20
65.103432
30
0.0
11
132.178807
21
65.103432
31
0.0
0
ARC
8
0
10
132.178807
20
65.403432
30
0.0
40
0.300000
50
238.600000
51
270.000000
0
LINE
8
0
10
132.022504
20
65.147367
30
0.0
11
130.504202
21
66.074142
31
0.0
0
ARC
8
0
10
130.400000
20
65.903432
30
0.0
40
0.200000
50
58.600000
51
180.000000
0
LINE
8
0
10
130.200000
20
65.903432
30
0.0
11
130.200000
21
65.553432
31
0.0
0
ARC
8
0
10
129.900000
20
65.553432
30
0.0
40
0.300000
50
270.000000
51
0.000000
0
LINE
8
0
10
129.900000
20
65.253432
30
0.0
11
126.486766
21
65.253432
31
0.0
0
ARC
8
0
10
126.486766
20
64.253432
30
0.0
40
1.000000
50
90.000000
51
121.400000
0
LINE
8
0
10
125.965756
20
65.106983
30
0.0
11
125.678990
21
64.931940
31
0.0
0
ARC
8
0
10
126.200000
20
64.078389
30
0.0
40
1.000000
50
121.400000
51
180.000000
0
LINE
8
0
10
125.200000
20
64.078389
30
0.0
11
125.200000
21
62.652806
31
0.0
0
ARC
8
0
10
125.400000
20
62.652806
30
0.0
40
0.200000
50
180.000000
51
301.400000
0
LINE
8
0
10
125.504202
20
62.482096
30
0.0
11
127.022504
21
63.408871
31
0.0
0
ARC
8
0
10
127.178807
20
63.152806
30
0.0
40
0.300000
50
90.000000
51
121.400000
0
LINE
8
0
10
127.178807
20
63.452806
30
0.0
11
127.400000
21
63.452806
31
0.0
0
ARC
8
0
10
127.400000
20
63.152806
30
0.0
40
0.300000
50
0.000000
51
90.000000
0
LINE
8
0
10
127.700000
20
63.152806
30
0.0
11
127.700000
21
59.300020
31
0.0
0
ARC
8
0
10
128.000000
20
59.300020
30
0.0
40
0.300000
50
180.000000
51
228.187329
0
ARC
8
0
10
127.599975
20
58.852815
30
0.0
40
0.300009
50
246.004713
51
48.187329
0
LINE
8
0
10
127.477973
20
58.578733
30
0.0
11
127.295264
21
58.660080
31
0.0
0
LINE
8
0
10
127.295264
20
58.660080
30
0.0
11
125.666507
21
59.784546
31
0.0
0
ARC
8
0
10
125.836949
20
60.031426
30
0.0
40
0.300000
50
175.379459
51
235.379459
0
LINE
8
0
10
125.537924
20
60.055593
30
0.0
11
125.547226
21
60.170688
31
0.0
0
ARC
8
0
10
125.347876
20
60.186799
30
0.0
40
0.200000
50
355.379459
51
115.379459
0
LINE
8
0
10
125.262153
20
60.367497
30
0.0
11
124.754731
21
60.126778
31
0.0
0
ARC
8
0
10
124.883314
20
59.855731
30
0.0
40
0.300000
50
115.379459
51
155.745828
0
LINE
8
0
10
124.609794
20
59.978967
30
0.0
11
123.661144
21
57.873451
31
0.0
0
ARC
8
0
10
123.933870
20
57.748469
30
0.0
40
0.300000
50
155.379459
51
270.000000
0
LINE
8
0
10
123.935857
20
57.448476
30
0.0
11
125.514786
21
57.458933
31
0.0
0
ARC
8
0
10
125.513229
20
57.693928
30
0.0
40
0.235000
50
270.000000
51
336.000000
0
ARC
8
0
10
125.949164
20
57.517514
30
0.0
40
0.235000
50
70.221829
51
156.000000
0
LINE
8
0
10
126.028683
20
57.738652
30
0.0
11
127.501514
21
57.209034
31
0.0
0
ARC
8
0
10
127.400000
20
56.926731
30
0.0
40
0.300000
50
0.000000
51
70.221829
0
LINE
8
0
10
127.700000
20
56.926731
30
0.0
11
127.700000
21
50.103432
31
0.0
0
ARC
8
0
10
127.200000
20
50.103432
30
0.0
40
0.500000
50
270.000000
51
0.000000
0
ARC
8
0
10
127.200000
20
49.103432
30
0.0
40
0.500000
50
90.000000
51
180.000000
0
LINE
8
0
10
126.700000
20
49.103432
30
0.0
11
126.700000
21
48.603432
31
0.0
0
ARC
8
0
10
127.200000
20
48.603432
30
0.0
40
0.500000
50
180.000000
51
270.000000
0
LINE
8
0
10
127.200000
20
48.103432
30
0.0
11
131.200000
21
48.103432
31
0.0
0
LINE
8
0
10
131.200000
20
48.103432
30
0.0
11
131.500000
21
48.403432
31
0.0
0
LINE
8
0
10
131.500000
20
48.403432
30
0.0
11
131.800000
21
48.103432
31
0.0
0
LINE
8
0
10
131.800000
20
48.103432
30
0.0
11
136.946439
21
48.103432
31
0.0
0
ARC
8
0
10
136.946439
20
47.103432
30
0.0
40
1.000000
50
2.628630
51
90.000000
0
LINE
8
0
10
137.945387
20
47.149294
30
0.0
11
138.200000
21
41.603432
31
0.0
0
LINE
8
0
10
138.200000
20
41.603432
30
0.0
11
138.200000
21
40.902869
31
0.0
0
ARC
8
0
10
137.900000
20
40.902869
30
0.0
40
0.300000
50
270.000000
51
0.000000
0
LINE
8
0
10
137.900000
20
40.602869
30
0.0
11
136.000000
21
40.602869
31
0.0
0
ARC
8
0
10
136.000000
20
40.302869
30
0.0
40
0.300000
50
90.000000
51
180.000000
0
LINE
8
0
10
135.700000
20
40.302869
30
0.0
11
135.700000
21
38.202869
31
0.0
0
ARC
8
0
10
136.000000
20
38.202869
30
0.0
40
0.300000
50
180.000000
51
270.000000
0
LINE
8
0
10
136.000000
20
37.902869
30
0.0
11
136.700000
21
37.902869
31
0.0
0
ARC
8
0
10
79.500000
20
69.502869
30
0.0
40
0.300000
50
90.000000
51
180.000000
0
LINE
8
0
10
79.200000
20
69.502869
30
0.0
11
79.200000
21
49.903432
31
0.0
0
ARC
8
0
10
79.500000
20
49.903432
30
0.0
40
0.300000
50
180.000000
51
270.000000
0
LINE
8
0
10
79.500000
20
49.603432
30
0.0
11
87.900000
21
49.603432
31
0.0
0
ARC
8
0
10
87.900000
20
49.903432
30
0.0
40
0.300000
50
270.000000
51
0.000000
0
LINE
8
0
10
88.200000
20
49.903432
30
0.0
11
88.200000
21
63.003432
31
0.0
0
ARC
8
0
10
87.900000
20
63.003432
30
0.0
40
0.300000
50
0.000000
51
90.000000
0
LINE
8
0
10
87.900000
20
63.303432
30
0.0
11
86.200000
21
63.303432
31
0.0
0
LINE
8
0
10
86.200000
20
63.303432
30
0.0
11
85.900000
21
63.603432
31
0.0
0
LINE
8
0
10
85.900000
20
63.603432
30
0.0
11
85.600000
21
63.303432
31
0.0
0
LINE
8
0
10
85.600000
20
63.303432
30
0.0
11
83.400000
21
63.303432
31
0.0
0
ARC
8
0
10
83.400000
20
63.603432
30
0.0
40
0.300000
50
180.000000
51
270.000000
0
LINE
8
0
10
83.100000
20
63.603432
30
0.0
11
83.100000
21
69.502869
31
0.0
0
ARC
8
0
10
82.800000
20
69.502869
30
0.0
40
0.300000
50
0.000000
51
90.000000
0
LINE
8
0
10
82.800000
20
69.802869
30
0.0
11
79.500000
21
69.802869
31
0.0
0
ARC
8
0
10
79.500000
20
39.102869
30
0.0
40
0.300000
50
90.000000
51
180.000000
0
LINE
8
0
10
79.200000
20
39.102869
30
0.0
11
79.200000
21
22.602869
31
0.0
0
ARC
8
0
10
79.500000
20
22.602869
30
0.0
40
0.300000
50
180.000000
51
270.000000
0
LINE
8
0
10
79.500000
20
22.302869
30
0.0
11
80.100000
21
22.302869
31
0.0
0
ARC
8
0
10
80.100000
20
22.602869
30
0.0
40
0.300000
50
270.000000
51
0.000000
0
LINE
8
0
10
80.400000
20
22.602869
30
0.0
11
80.400000
21
23.502869
31
0.0
0
ARC
8
0
10
80.700000
20
23.502869
30
0.0
40
0.300000
50
90.000000
51
180.000000
0
LINE
8
0
10
80.700000
20
23.802869
30
0.0
11
81.400000
21
23.802869
31
0.0
0
ARC
8
0
10
81.400000
20
23.502869
30
0.0
40
0.300000
50
0.000000
51
90.000000
0
LINE
8
0
10
81.700000
20
23.502869
30
0.0
11
81.700000
21
19.902869
31
0.0
0
ARC
8
0
10
81.400000
20
19.902869
30
0.0
40
0.300000
50
270.000000
51
0.000000
0
LINE
8
0
10
81.400000
20
19.602869
30
0.0
11
81.000000
21
19.602869
31
0.0
0
ARC
8
0
10
81.000000
20
19.902869
30
0.0
40
0.300000
50
180.000000
51
270.000000
0
LINE
8
0
10
80.700000
20
19.902869
30
0.0
11
80.700000
21
20.802869
31
0.0
0
ARC
8
0
10
80.400000
20
20.802869
30
0.0
40
0.300000
50
0.000000
51
90.000000
0
LINE
8
0
10
80.400000
20
21.102869
30
0.0
11
79.702022
21
21.102869
31
0.0
0
ARC
8
0
10
79.702022
20
20.802869
30
0.0
40
0.300000
50
90.000000
51
180.000000
0
LINE
8
0
10
79.402022
20
20.802869
30
0.0
11
79.402022
21
20.052869
31
0.0
0
ARC
8
0
10
79.102022
20
20.052869
30
0.0
40
0.300000
50
300.000000
51
0.000000
0
ARC
8
0
10
79.402022
20
19.533254
30
0.0
40
0.300000
50
120.000000
51
180.000000
0
LINE
8
0
10
79.102022
20
19.533254
30
0.0
11
79.102022
21
15.072485
31
0.0
0
ARC
8
0
10
79.402022
20
15.072485
30
0.0
40
0.300000
50
180.000000
51
240.000000
0
ARC
8
0
10
79.102022
20
14.552869
30
0.0
40
0.300000
50
0.000000
51
60.000000
0
LINE
8
0
10
79.402022
20
14.552869
30
0.0
11
79.402022
21
13.802869
31
0.0
0
ARC
8
0
10
79.702022
20
13.802869
30
0.0
40
0.300000
50
180.000000
51
270.000000
0
LINE
8
0
10
79.702022
20
13.502869
30
0.0
11
80.400000
21
13.502869
31
0.0
0
ARC
8
0
10
80.400000
20
13.802869
30
0.0
40
0.300000
50
270.000000
51
0.000000
0
LINE
8
0
10
80.700000
20
13.802869
30
0.0
11
80.700000
21
14.702869
31
0.0
0
ARC
8
0
10
81.000000
20
14.702869
30
0.0
40
0.300000
50
90.000000
51
180.000000
0
LINE
8
0
10
81.000000
20
15.002869
30
0.0
11
81.400000
21
15.002869
31
0.0
0
ARC
8
0
10
81.400000
20
14.702869
30
0.0
40
0.300000
50
0.000000
51
90.000000
0
LINE
8
0
10
81.700000
20
14.702869
30
0.0
11
81.700000
21
12.602869
31
0.0
0
ARC
8
0
10
81.400000
20
12.602869
30
0.0
40
0.300000
50
270.000000
51
0.000000
0
LINE
8
0
10
81.400000
20
12.302869
30
0.0
11
78.200000
21
12.302869
31
0.0
0
ARC
8
0
10
78.200000
20
12.802869
30
0.0
40
0.500000
50
180.000000
51
270.000000
0
LINE
8
0
10
77.700000
20
12.802869
30
0.0
11
77.700000
21
94.002869
31
0.0
0
ARC
8
0
10
78.000000
20
94.002869
30
0.0
40
0.300000
50
90.000000
51
180.000000
0
LINE
8
0
10
78.000000
20
94.302869
30
0.0
11
81.900000
21
94.302869
31
0.0
0
ARC
8
0
10
81.900000
20
94.002869
30
0.0
40
0.300000
50
0.000000
51
90.000000
0
LINE
8
0
10
82.200000
20
94.002869
30
0.0
11
82.200000
21
92.502869
31
0.0
0
ARC
8
0
10
81.500000
20
92.502869
30
0.0
40
0.700000
50
270.000000
51
0.000000
0
ARC
8
0
10
81.500000
20
92.102869
30
0.0
40
0.300000
50
180.000000
51
270.000000
0
LINE
8
0
10
81.200000
20
92.102869
30
0.0
11
81.200000
21
92.802869
31
0.0
0
ARC
8
0
10
80.900000
20
92.802869
30
0.0
40
0.300000
50
0.000000
51
90.000000
0
LINE
8
0
10
80.900000
20
93.102869
30
0.0
11
79.700000
21
93.102869
31
0.0
0
ARC
8
0
10
79.700000
20
92.402869
30
0.0
40
0.700000
50
90.000000
51
180.000000
0
LINE
8
0
10
79.000000
20
92.402869
30
0.0
11
79.000000
21
86.202869
31
0.0
0
ARC
8
0
10
79.700000
20
86.202869
30
0.0
40
0.700000
50
180.000000
51
270.000000
0
LINE
8
0
10
79.700000
20
85.502869
30
0.0
11
80.900000
21
85.502869
31
0.0
0
ARC
8
0
10
80.900000
20
85.802869
30
0.0
40
0.300000
50
270.000000
51
0.000000
0
LINE
8
0
10
81.200000
20
85.802869
30
0.0
11
81.200000
21
86.502869
31
0.0
0
ARC
8
0
10
81.500000
20
86.502869
30
0.0
40
0.300000
50
90.000000
51
180.000000
0
ARC
8
0
10
81.500000
20
86.102869
30
0.0
40
0.700000
50
0.000000
51
90.000000
0
LINE
8
0
10
82.200000
20
86.102869
30
0.0
11
82.200000
21
83.102869
31
0.0
0
ARC
8
0
10
81.900000
20
83.102869
30
0.0
40
0.300000
50
270.000000
51
0.000000
0
LINE
8
0
10
81.900000
20
82.802869
30
0.0
11
81.500000
21
82.802869
31
0.0
0
ARC
8
0
10
81.500000
20
83.102869
30
0.0
40
0.300000
50
180.000000
51
270.000000
0
LINE
8
0
10
81.200000
20
83.102869
30
0.0
11
81.200000
21
84.002869
31
0.0
0
ARC
8
0
10
80.900000
20
84.002869
30
0.0
40
0.300000
50
0.000000
51
90.000000
0
LINE
8
0
10
80.900000
20
84.302869
30
0.0
11
79.500000
21
84.302869
31
0.0
0
ARC
8
0
10
79.500000
20
84.002869
30
0.0
40
0.300000
50
90.000000
51
180.000000
0
LINE
8
0
10
79.200000
20
84.002869
30
0.0
11
79.200000
21
77.802869
31
0.0
0
LINE
8
0
10
79.200000
20
77.802869
30
0.0
11
79.454613
21
72.257007
31
0.0
0
ARC
8
0
10
80.453561
20
72.302869
30
0.0
40
1.000000
50
182.628630
51
270.000000
0
LINE
8
0
10
80.453561
20
71.302869
30
0.0
11
84.969479
21
71.302869
31
0.0
0
ARC
8
0
10
84.969479
20
71.002869
30
0.0
40
0.300000
50
70.221829
51
90.000000
0
LINE
8
0
10
85.070993
20
71.285172
30
0.0
11
86.371317
21
70.817586
31
0.0
0
ARC
8
0
10
86.450836
20
71.038724
30
0.0
40
0.235000
50
250.221829
51
336.000000
0
ARC
8
0
10
86.886771
20
70.862310
30
0.0
40
0.235000
50
90.000000
51
156.000000
0
LINE
8
0
10
86.885214
20
71.097305
30
0.0
11
88.464142
21
71.107762
31
0.0
0
ARC
8
0
10
88.466129
20
70.807769
30
0.0
40
0.300000
50
335.379459
51
90.000000
0
LINE
8
0
10
88.738855
20
70.682787
30
0.0
11
87.790205
21
68.577271
31
0.0
0
ARC
8
0
10
87.516686
20
68.700507
30
0.0
40
0.300000
50
295.379459
51
335.745828
0
LINE
8
0
10
87.645269
20
68.429460
30
0.0
11
87.137846
21
68.188741
31
0.0
0
ARC
8
0
10
87.052124
20
68.369439
30
0.0
40
0.200000
50
175.379459
51
295.379459
0
LINE
8
0
10
86.852774
20
68.385550
30
0.0
11
86.862076
21
68.500645
31
0.0
0
ARC
8
0
10
86.563051
20
68.524812
30
0.0
40
0.300000
50
355.379459
51
55.379459
0
LINE
8
0
10
86.733493
20
68.771692
30
0.0
11
85.104736
21
69.896158
31
0.0
0
LINE
8
0
10
85.104736
20
69.896158
30
0.0
11
84.922027
21
69.977505
31
0.0
0
ARC
8
0
10
84.800025
20
69.703423
30
0.0
40
0.300009
50
66.004713
51
228.187329
0
ARC
8
0
10
84.400000
20
69.256218
30
0.0
40
0.300000
50
0.000000
51
48.187329
0
LINE
8
0
10
84.700000
20
69.256218
30
0.0
11
84.700000
21
65.403432
31
0.0
0
ARC
8
0
10
85.000000
20
65.403432
30
0.0
40
0.300000
50
180.000000
51
270.000000
0
LINE
8
0
10
85.000000
20
65.103432
30
0.0
11
85.221193
21
65.103432
31
0.0
0
ARC
8
0
10
85.221193
20
65.403432
30
0.0
40
0.300000
50
270.000000
51
301.400000
0
LINE
8
0
10
85.377496
20
65.147367
30
0.0
11
86.895798
21
66.074142
31
0.0
0
ARC
8
0
10
87.000000
20
65.903432
30
0.0
40
0.200000
50
0.000000
51
121.400000
0
LINE
8
0
10
87.200000
20
65.903432
30
0.0
11
87.200000
21
65.553432
31
0.0
0
ARC
8
0
10
87.500000
20
65.553432
30
0.0
40
0.300000
50
180.000000
51
270.000000
0
LINE
8
0
10
87.500000
20
65.253432
30
0.0
11
90.913234
21
65.253432
31
0.0
0
ARC
8
0
10
90.913234
20
64.253432
30
0.0
40
1.000000
50
58.600000
51
90.000000
0
LINE
8
0
10
91.434243
20
65.106983
30
0.0
11
91.721010
21
64.931940
31
0.0
0
ARC
8
0
10
91.200000
20
64.078389
30
0.0
40
1.000000
50
0.000000
51
58.600000
0
LINE
8
0
10
92.200000
20
64.078389
30
0.0
11
92.200000
21
62.652806
31
0.0
0
ARC
8
0
10
92.000000
20
62.652806
30
0.0
40
0.200000
50
238.600000
51
0.000000
0
LINE
8
0
10
91.895798
20
62.482096
30
0.0
11
90.377496
21
63.408871
31
0.0
0
ARC
8
0
10
90.221193
20
63.152806
30
0.0
40
0.300000
50
58.600000
51
90.000000
0
LINE
8
0
10
90.221193
20
63.452806
30
0.0
11
90.000000
21
63.452806
31
0.0
0
ARC
8
0
10
90.000000
20
63.152806
30
0.0
40
0.300000
50
90.000000
51
180.000000
0
LINE
8
0
10
89.700000
20
63.152806
30
0.0
11
89.700000
21
59.300020
31
0.0
0
ARC
8
0
10
89.400000
20
59.300020
30
0.0
40
0.300000
50
311.812671
51
0.000000
0
ARC
8
0
10
89.800025
20
58.852815
30
0.0
40
0.300009
50
131.812671
51
293.995287
0
LINE
8
0
10
89.922027
20
58.578733
30
0.0
11
90.104736
21
58.660080
31
0.0
0
LINE
8
0
10
90.104736
20
58.660080
30
0.0
11
91.733493
21
59.784546
31
0.0
0
ARC
8
0
10
91.563051
20
60.031426
30
0.0
40
0.300000
50
304.620541
51
4.620541
0
LINE
8
0
10
91.862076
20
60.055593
30
0.0
11
91.852774
21
60.170688
31
0.0
0
ARC
8
0
10
92.052124
20
60.186799
30
0.0
40
0.200000
50
64.620541
51
184.620541
0
LINE
8
0
10
92.137846
20
60.367497
30
0.0
11
92.645269
21
60.126778
31
0.0
0
ARC
8
0
10
92.516686
20
59.855731
30
0.0
40
0.300000
50
24.254172
51
64.620541
0
LINE
8
0
10
92.790205
20
59.978967
30
0.0
11
93.738855
21
57.873451
31
0.0
0
ARC
8
0
10
93.466129
20
57.748469
30
0.0
40
0.300000
50
270.000000
51
24.620541
0
LINE
8
0
10
93.464142
20
57.448476
30
0.0
11
91.885214
21
57.458933
31
0.0
0
ARC
8
0
10
91.886771
20
57.693928
30
0.0
40
0.235000
50
204.000000
51
270.000000
0
ARC
8
0
10
91.450836
20
57.517514
30
0.0
40
0.235000
50
24.000000
51
109.778171
0
LINE
8
0
10
91.371317
20
57.738652
30
0.0
11
89.898486
21
57.209034
31
0.0
0
ARC
8
0
10
90.000000
20
56.926731
30
0.0
40
0.300000
50
109.778171
51
180.000000
0
LINE
8
0
10
89.700000
20
56.926731
30
0.0
11
89.700000
21
50.103432
31
0.0
0
ARC
8
0
10
90.200000
20
50.103432
30
0.0
40
0.500000
50
180.000000
51
270.000000
0
ARC
8
0
10
90.200000
20
49.103432
30
0.0
40
0.500000
50
0.000000
51
90.000000
0
LINE
8
0
10
90.700000
20
49.103432
30
0.0
11
90.700000
21
48.603432
31
0.0
0
ARC
8
0
10
90.200000
20
48.603432
30
0.0
40
0.500000
50
270.000000
51
0.000000
0
LINE
8
0
10
90.200000
20
48.103432
30
0.0
11
86.200000
21
48.103432
31
0.0
0
LINE
8
0
10
86.200000
20
48.103432
30
0.0
11
85.900000
21
48.403432
31
0.0
0
LINE
8
0
10
85.900000
20
48.403432
30
0.0
11
85.600000
21
48.103432
31
0.0
0
LINE
8
0
10
85.600000
20
48.103432
30
0.0
11
80.453561
21
48.103432
31
0.0
0
ARC
8
0
10
80.453561
20
47.103432
30
0.0
40
1.000000
50
90.000000
51
177.371370
0
LINE
8
0
10
79.454613
20
47.149294
30
0.0
11
79.200000
21
41.603432
31
0.0
0
LINE
8
0
10
79.200000
20
41.603432
30
0.0
11
79.200000
21
40.902869
31
0.0
0
ARC
8
0
10
79.500000
20
40.902869
30
0.0
40
0.300000
50
180.000000
51
270.000000
0
LINE
8
0
10
79.500000
20
40.602869
30
0.0
11
81.400000
21
40.602869
31
0.0
0
ARC
8
0
10
81.400000
20
40.302869
30
0.0
40
0.300000
50
0.000000
51
90.000000
0
LINE
8
0
10
81.700000
20
40.302869
30
0.0
11
81.700000
21
38.202869
31
0.0
0
ARC
8
0
10
81.400000
20
38.202869
30
0.0
40
0.300000
50
270.000000
51
0.000000
0
LINE
8
0
10
81.400000
20
37.902869
30
0.0
11
80.700000
21
37.902869
31
0.0
0
ARC
8
0
10
80.700000
20
38.202869
30
0.0
40
0.300000
50
180.000000
51
270.000000
0
LINE
8
0
10
80.400000
20
38.202869
30
0.0
11
80.400000
21
39.102869
31
0.0
0
ARC
8
0
10
80.100000
20
39.102869
30
0.0
40
0.300000
50
0.000000
51
90.000000
0
LINE
8
0
10
80.100000
20
39.402869
30
0.0
11
79.500000
21
39.402869
31
0.0
0
LINE
8
0
10
86.814999
20
66.042292
30
0.0
11
85.406389
21
65.229632
31
0.0
0
ARC
8
0
10
85.306444
20
65.402869
30
0.0
40
0.200000
50
270.000000
51
299.981639
0
LINE
8
0
10
85.306444
20
65.202869
30
0.0
11
85.100000
21
65.202869
31
0.0
0
ARC
8
0
10
85.100000
20
65.602869
30
0.0
40
0.400000
50
180.000000
51
270.000000
0
LINE
8
0
10
84.700000
20
65.602869
30
0.0
11
84.700000
21
69.002869
31
0.0
0
ARC
8
0
10
85.100000
20
69.002869
30
0.0
40
0.400000
50
90.000000
51
180.000000
0
LINE
8
0
10
85.100000
20
69.402869
30
0.0
11
85.306444
21
69.402869
31
0.0
0
ARC
8
0
10
85.306444
20
69.202869
30
0.0
40
0.200000
50
60.018361
51
90.000000
0
LINE
8
0
10
85.406389
20
69.376106
30
0.0
11
86.814999
21
68.563446
31
0.0
0
ARC
8
0
10
87.414666
20
69.602869
30
0.0
40
1.200000
50
240.018361
51
270.000000
0
LINE
8
0
10
87.414666
20
68.402869
30
0.0
11
88.097368
21
68.402869
31
0.0
0
ARC
8
0
10
88.097368
20
68.702869
30
0.0
40
0.300000
50
270.000000
51
324.745828
0
LINE
8
0
10
88.342348
20
68.529708
30
0.0
11
90.153103
21
71.091471
31
0.0
0
ARC
8
0
10
90.561403
20
70.802869
30
0.0
40
0.500000
50
90.000000
51
144.745828
0
LINE
8
0
10
90.561403
20
71.302869
30
0.0
11
121.200000
21
71.302869
31
0.0
0
ARC
8
0
10
121.200000
20
71.802869
30
0.0
40
0.500000
50
270.000000
51
0.000000
0
LINE
8
0
10
121.700000
20
71.802869
30
0.0
11
121.700000
21
76.002869
31
0.0
0
ARC
8
0
10
122.000000
20
76.002869
30
0.0
40
0.300000
50
90.000000
51
180.000000
0
LINE
8
0
10
122.000000
20
76.302869
30
0.0
11
124.649445
21
76.302869
31
0.0
0
ARC
8
0
10
124.649445
20
76.002869
30
0.0
40
0.300000
50
30.000000
51
90.000000
0
LINE
8
0
10
124.909252
20
76.152869
30
0.0
11
125.359808
21
75.372484
31
0.0
0
ARC
8
0
10
125.100000
20
75.222484
30
0.0
40
0.300000
50
0.000000
51
30.000000
0
LINE
8
0
10
125.400000
20
75.222484
30
0.0
11
125.400000
21
75.102869
31
0.0
0
ARC
8
0
10
125.100000
20
75.102869
30
0.0
40
0.300000
50
270.000000
51
0.000000
0
LINE
8
0
10
125.100000
20
74.802869
30
0.0
11
123.700000
21
74.802869
31
0.0
0
ARC
8
0
10
123.700000
20
74.502869
30
0.0
40
0.300000
50
90.000000
51
180.000000
0
LINE
8
0
10
123.400000
20
74.502869
30
0.0
11
123.400000
21
71.802869
31
0.0
0
ARC
8
0
10
123.900000
20
71.802869
30
0.0
40
0.500000
50
180.000000
51
270.000000
0
LINE
8
0
10
123.900000
20
71.302869
30
0.0
11
126.838597
21
71.302869
31
0.0
0
ARC
8
0
10
126.838597
20
70.802869
30
0.0
40
0.500000
50
35.254172
51
90.000000
0
LINE
8
0
10
127.246897
20
71.091471
30
0.0
11
129.057652
21
68.529708
31
0.0
0
ARC
8
0
10
129.302632
20
68.702869
30
0.0
40
0.300000
50
215.254172
51
270.000000
0
LINE
8
0
10
129.302632
20
68.402869
30
0.0
11
129.985334
21
68.402869
31
0.0
0
ARC
8
0
10
129.985334
20
69.602869
30
0.0
40
1.200000
50
270.000000
51
299.981639
0
LINE
8
0
10
130.585001
20
68.563446
30
0.0
11
131.993611
21
69.376106
31
0.0
0
ARC
8
0
10
132.093555
20
69.202869
30
0.0
40
0.200000
50
90.000000
51
119.981639
0
LINE
8
0
10
132.093555
20
69.402869
30
0.0
11
132.300000
21
69.402869
31
0.0
0
ARC
8
0
10
132.300000
20
69.002869
30
0.0
40
0.400000
50
0.000000
51
90.000000
0
LINE
8
0
10
132.700000
20
69.002869
30
0.0
11
132.700000
21
65.602869
31
0.0
0
ARC
8
0
10
132.300000
20
65.602869
30
0.0
40
0.400000
50
270.000000
51
0.000000
0
LINE
8
0
10
132.300000
20
65.202869
30
0.0
11
132.093555
21
65.202869
31
0.0
0
ARC
8
0
10
132.093555
20
65.402869
30
0.0
40
0.200000
50
240.018361
51
270.000000
0
LINE
8
0
10
131.993611
20
65.229632
30
0.0
11
130.585001
21
66.042292
31
0.0
0
ARC
8
0
10
129.985334
20
65.002869
30
0.0
40
1.200000
50
60.018361
51
90.000000
0
LINE
8
0
10
129.985334
20
66.202869
30
0.0
11
128.526005
21
66.202869
31
0.0
0
ARC
8
0
10
128.526005
20
67.202869
30
0.0
40
1.000000
50
215.254172
51
270.000000
0
LINE
8
0
10
127.709406
20
66.625664
30
0.0
11
126.175671
21
68.795513
31
0.0
0
ARC
8
0
10
125.195752
20
68.102867
30
0.0
40
1.200000
50
35.254172
51
90.000000
0
LINE
8
0
10
125.195752
20
69.302867
30
0.0
11
92.204248
21
69.302867
31
0.0
0
ARC
8
0
10
92.204248
20
68.102867
30
0.0
40
1.200000
50
90.000000
51
144.745828
0
LINE
8
0
10
91.224328
20
68.795513
30
0.0
11
89.690594
21
66.625664
31
0.0
0
ARC
8
0
10
88.873995
20
67.202869
30
0.0
40
1.000000
50
270.000000
51
324.745828
0
LINE
8
0
10
88.873995
20
66.202869
30
0.0
11
87.414666
21
66.202869
31
0.0
0
ARC
8
0
10
87.414666
20
65.002869
30
0.0
40
1.200000
50
90.000000
51
119.981639
0
ARC
8
0
10
108.200000
20
61.326413
30
0.0
40
1.000000
50
180.000000
51
270.000000
0
LINE
8
0
10
107.200000
20
61.326413
30
0.0
11
107.200000
21
68.426413
31
0.0
0
ARC
8
0
10
106.900000
20
68.426413
30
0.0
40
0.300000
50
0.000000
51
90.000000
0
LINE
8
0
10
106.900000
20
68.726413
30
0.0
11
105.300000
21
68.726413
31
0.0
0
ARC
8
0
10
105.300000
20
68.426413
30
0.0
40
0.300000
50
90.000000
51
180.000000
0
LINE
8
0
10
105.000000
20
68.426413
30
0.0
11
105.000000
21
60.226413
31
0.0
0
ARC
8
0
10
104.000000
20
60.226413
30
0.0
40
1.000000
50
270.000000
51
0.000000
0
LINE
8
0
10
104.000000
20
59.226413
30
0.0
11
96.874834
21
59.226413
31
0.0
0
ARC
8
0
10
96.874834
20
60.226413
30
0.0
40
1.000000
50
215.254172
51
270.000000
0
LINE
8
0
10
96.058235
20
59.649208
30
0.0
11
94.535414
21
61.803617
31
0.0
0
ARC
8
0
10
93.718814
20
61.226413
30
0.0
40
1.000000
50
35.254172
51
90.000000
0
LINE
8
0
10
93.718814
20
62.226413
30
0.0
11
92.588000
21
62.226413
31
0.0
0
ARC
8
0
10
92.588000
20
63.426413
30
0.0
40
1.200000
50
240.018361
51
270.000000
0
LINE
8
0
10
91.988333
20
62.386990
30
0.0
11
90.406389
21
63.299650
31
0.0
0
ARC
8
0
10
90.306444
20
63.126413
30
0.0
40
0.200000
50
60.018361
51
90.000000
0
LINE
8
0
10
90.306444
20
63.326413
30
0.0
11
90.100000
21
63.326413
31
0.0
0
ARC
8
0
10
90.100000
20
62.926413
30
0.0
40
0.400000
50
90.000000
51
180.000000
0
LINE
8
0
10
89.700000
20
62.926413
30
0.0
11
89.700000
21
59.526413
31
0.0
0
ARC
8
0
10
90.100000
20
59.526413
30
0.0
40
0.400000
50
180.000000
51
270.000000
0
LINE
8
0
10
90.100000
20
59.126413
30
0.0
11
90.306444
21
59.126413
31
0.0
0
ARC
8
0
10
90.306444
20
59.326413
30
0.0
40
0.200000
50
270.000000
51
299.981639
0
LINE
8
0
10
90.406389
20
59.153176
30
0.0
11
91.988333
21
60.065835
31
0.0
0
ARC
8
0
10
92.588000
20
59.026413
30
0.0
40
1.200000
50
90.000000
51
119.981639
0
LINE
8
0
10
92.588000
20
60.226413
30
0.0
11
93.045738
21
60.226413
31
0.0
0
ARC
8
0
10
93.045738
20
59.926413
30
0.0
40
0.300000
50
35.254172
51
90.000000
0
LINE
8
0
10
93.290718
20
60.099574
30
0.0
11
94.952049
21
57.749208
31
0.0
0
ARC
8
0
10
95.768648
20
58.326413
30
0.0
40
1.000000
50
215.254172
51
270.000000
0
LINE
8
0
10
95.768648
20
57.326413
30
0.0
11
108.317157
21
57.326413
31
0.0
0
LINE
8
0
10
108.317157
20
57.326413
30
0.0
11
108.387868
21
57.355702
31
0.0
0
LINE
8
0
10
108.387868
20
57.355702
30
0.0
11
108.629289
21
57.597123
31
0.0
0
ARC
8
0
10
108.700000
20
57.526413
30
0.0
40
0.100000
50
45.000000
51
135.000000
0
LINE
8
0
10
108.770711
20
57.597123
30
0.0
11
109.012132
21
57.355702
31
0.0
0
LINE
8
0
10
109.012132
20
57.355702
30
0.0
11
109.082843
21
57.326413
31
0.0
0
LINE
8
0
10
109.082843
20
57.326413
30
0.0
11
121.631352
21
57.326413
31
0.0
0
ARC
8
0
10
121.631352
20
58.326413
30
0.0
40
1.000000
50
270.000000
51
324.745828
0
LINE
8
0
10
122.447951
20
57.749208
30
0.0
11
124.109282
21
60.099574
31
0.0
0
ARC
8
0
10
124.354262
20
59.926413
30
0.0
40
0.300000
50
90.000000
51
144.745828
0
LINE
8
0
10
124.354262
20
60.226413
30
0.0
11
124.812000
21
60.226413
31
0.0
0
ARC
8
0
10
124.812000
20
59.026413
30
0.0
40
1.200000
50
60.018361
51
90.000000
0
LINE
8
0
10
125.411667
20
60.065835
30
0.0
11
126.993611
21
59.153176
31
0.0
0
ARC
8
0
10
127.093555
20
59.326413
30
0.0
40
0.200000
50
240.018361
51
270.000000
0
LINE
8
0
10
127.093555
20
59.126413
30
0.0
11
127.300000
21
59.126413
31
0.0
0
ARC
8
0
10
127.300000
20
59.526413
30
0.0
40
0.400000
50
270.000000
51
0.000000
0
LINE
8
0
10
127.700000
20
59.526413
30
0.0
11
127.700000
21
62.926413
31
0.0
0
ARC
8
0
10
127.300000
20
62.926413
30
0.0
40
0.400000
50
0.000000
51
90.000000
0
LINE
8
0
10
127.300000
20
63.326413
30
0.0
11
127.093555
21
63.326413
31
0.0
0
ARC
8
0
10
127.093555
20
63.126413
30
0.0
40
0.200000
50
90.000000
51
119.981639
0
LINE
8
0
10
126.993611
20
63.299650
30
0.0
11
125.411667
21
62.386990
31
0.0
0
ARC
8
0
10
124.812000
20
63.426413
30
0.0
40
1.200000
50
270.000000
51
299.981639
0
LINE
8
0
10
124.812000
20
62.226413
30
0.0
11
123.681186
21
62.226413
31
0.0
0
ARC
8
0
10
123.681186
20
61.226413
30
0.0
40
1.000000
50
90.000000
51
144.745828
0
LINE
8
0
10
122.864586
20
61.803617
30
0.0
11
121.341765
21
59.649208
31
0.0
0
ARC
8
0
10
120.525165
20
60.226413
30
0.0
40
1.000000
50
270.000000
51
324.745828
0
LINE
8
0
10
120.525165
20
59.226413
30
0.0
11
113.400000
21
59.226413
31
0.0
0
ARC
8
0
10
113.400000
20
60.226413
30
0.0
40
1.000000
50
180.000000
51
270.000000
0
LINE
8
0
10
112.400000
20
60.226413
30
0.0
11
112.400000
21
68.426413
31
0.0
0
ARC
8
0
10
112.100000
20
68.426413
30
0.0
40
0.300000
50
0.000000
51
90.000000
0
LINE
8
0
10
112.100000
20
68.726413
30
0.0
11
110.500000
21
68.726413
31
0.0
0
ARC
8
0
10
110.500000
20
68.426413
30
0.0
40
0.300000
50
90.000000
51
180.000000
0
LINE
8
0
10
110.200000
20
68.426413
30
0.0
11
110.200000
21
61.326413
31
0.0
0
ARC
8
0
10
109.200000
20
61.326413
30
0.0
40
1.000000
50
270.000000
51
0.000000
0
LINE
8
0
10
109.200000
20
60.326413
30
0.0
11
108.200000
21
60.326413
31
0.0
0
ATTDEF
8
0
10
136.150555
20
76.302869
30
0.0
40
3.5
1

3

2
VC_START
70
0
0
ATTDEF
8
0
10
127.200000
20
48.103432
30
0.0
40
3.5
1

3

2
VC_END
70
0
0
LINE
8
0
10
5.600316
20
5.900000
30
0.0
11
5.600316
21
0.300000
31
0.0
0
ARC
8
0
10
5.300316
20
0.300000
30
0.0
40
0.300000
50
209.883652
51
0.000000
0
LINE
8
0
10
5.040205
20
0.150528
30
0.0
11
4.089054
21
1.831660
31
0.0
0
ARC
8
0
10
4.698301
20
2.176360
30
0.0
40
0.700000
50
135.000000
51
209.500322
0
LINE
8
0
10
4.203326
20
2.671334
30
0.0
11
4.512448
21
2.980457
31
0.0
0
ARC
8
0
10
4.300316
20
3.192589
30
0.0
40
0.300000
50
315.000000
51
0.000000
0
LINE
8
0
10
4.600316
20
3.192589
30
0.0
11
4.600316
21
4.600000
31
0.0
0
ARC
8
0
10
4.100316
20
4.600000
30
0.0
40
0.500000
50
0.000000
51
90.000000
0
LINE
8
0
10
4.100316
20
5.100000
30
0.0
11
2.000000
21
5.100000
31
0.0
0
LINE
8
0
10
2.000000
20
5.100000
30
0.0
11
2.000000
21
4.900000
31
0.0
0
ARC
8
0
10
1.700000
20
4.900000
30
0.0
40
0.300000
50
270.000000
51
0.000000
0
LINE
8
0
10
1.700000
20
4.600000
30
0.0
11
0.300000
21
4.600000
31
0.0
0
ARC
8
0
10
0.300000
20
4.900000
30
0.0
40
0.300000
50
180.000000
51
270.000000
0
LINE
8
0
10
0.000000
20
4.900000
30
0.0
11
0.000000
21
27.002869
31
0.0
0
ARC
8
0
10
0.300000
20
27.002869
30
0.0
40
0.300000
50
90.000000
51
180.000000
0
LINE
8
0
10
0.300000
20
27.302869
30
0.0
11
72.600000
21
27.302869
31
0.0
0
ARC
8
0
10
72.600000
20
27.002869
30
0.0
40
0.300000
50
0.000000
51
90.000000
0
LINE
8
0
10
72.900000
20
27.002869
30
0.0
11
72.900000
21
24.704570
31
0.0
0
ARC
8
0
10
72.600000
20
24.704570
30
0.0
40
0.300000
50
270.000000
51
0.000000
0
LINE
8
0
10
72.600000
20
24.404570
30
0.0
11
72.000000
21
24.404570
31
0.0
0
ARC
8
0
10
72.000000
20
24.704570
30
0.0
40
0.300000
50
180.000000
51
270.000000
0
LINE
8
0
10
71.700000
20
24.704570
30
0.0
11
71.700000
21
25.604570
31
0.0
0
ARC
8
0
10
71.400000
20
25.604570
30
0.0
40
0.300000
50
0.000000
51
90.000000
0
LINE
8
0
10
71.400000
20
25.904570
30
0.0
11
70.700000
21
25.904570
31
0.0
0
ARC
8
0
10
70.700000
20
25.604570
30
0.0
40
0.300000
50
90.000000
51
180.000000
0
LINE
8
0
10
70.400000
20
25.604570
30
0.0
11
70.400000
21
18.604570
31
0.0
0
ARC
8
0
10
70.700000
20
18.604570
30
0.0
40
0.300000
50
180.000000
51
270.000000
0
LINE
8
0
10
70.700000
20
18.304570
30
0.0
11
71.400000
21
18.304570
31
0.0
0
ARC
8
0
10
71.400000
20
18.604570
30
0.0
40
0.300000
50
270.000000
51
0.000000
0
LINE
8
0
10
71.700000
20
18.604570
30
0.0
11
71.700000
21
19.504570
31
0.0
0
ARC
8
0
10
72.000000
20
19.504570
30
0.0
40
0.300000
50
90.000000
51
180.000000
0
LINE
8
0
10
72.000000
20
19.804570
30
0.0
11
72.600000
21
19.804570
31
0.0
0
ARC
8
0
10
72.600000
20
19.504570
30
0.0
40
0.300000
50
0.000000
51
90.000000
0
LINE
8
0
10
72.900000
20
19.504570
30
0.0
11
72.900000
21
18.104570
31
0.0
0
ARC
8
0
10
71.900000
20
18.104570
30
0.0
40
1.000000
50
270.000000
51
0.000000
0
LINE
8
0
10
71.900000
20
17.104570
30
0.0
11
70.000000
21
17.104570
31
0.0
0
ARC
8
0
10
70.000000
20
18.104570
30
0.0
40
1.000000
50
180.000000
51
270.000000
0
LINE
8
0
10
69.000000
20
18.104570
30
0.0
11
69.000000
21
24.802869
31
0.0
0
ARC
8
0
10
68.500000
20
24.802869
30
0.0
40
0.500000
50
0.000000
51
90.000000
0
LINE
8
0
10
68.500000
20
25.302869
30
0.0
11
51.500015
21
25.302869
31
0.0
0
ARC
8
0
10
51.500015
20
25.002869
30
0.0
40
0.300000
50
90.000000
51
180.000000
0
LINE
8
0
10
51.200015
20
25.002869
30
0.0
11
51.200015
21
23.264887
31
0.0
0
ARC
8
0
10
51.500015
20
23.264887
30
0.0
40
0.300000
50
180.000000
51
255.000000
0
LINE
8
0
10
51.422370
20
22.975109
30
0.0
11
53.477661
21
22.424396
31
0.0
0
ARC
8
0
10
53.400015
20
22.134618
30
0.0
40
0.300000
50
0.000000
51
75.000000
0
LINE
8
0
10
53.700015
20
22.134618
30
0.0
11
53.700015
21
21.202869
31
0.0
0
ARC
8
0
10
53.400015
20
21.202869
30
0.0
40
0.300000
50
255.000000
51
0.000000
0
LINE
8
0
10
53.322370
20
20.913092
30
0.0
11
49.922370
21
21.824119
31
0.0
0
ARC
8
0
10
50.000015
20
22.113897
30
0.0
40
0.300000
50
180.000000
51
255.000000
0
LINE
8
0
10
49.700015
20
22.113897
30
0.0
11
49.700015
21
25.002869
31
0.0
0
ARC
8
0
10
49.400015
20
25.002869
30
0.0
40
0.300000
50
0.000000
51
90.000000
0
LINE
8
0
10
49.400015
20
25.302869
30
0.0
11
18.400000
21
25.302869
31
0.0
0
ARC
8
0
10
18.400000
20
25.002869
30
0.0
40
0.300000
50
90.000000
51
180.000000
0
LINE
8
0
10
18.100000
20
25.002869
30
0.0
11
18.100000
21
4.900000
31
0.0
0
ARC
8
0
10
17.800000
20
4.900000
30
0.0
40
0.300000
50
270.000000
51
0.000000
0
LINE
8
0
10
17.800000
20
4.600000
30
0.0
11
16.400000
21
4.600000
31
0.0
0
ARC
8
0
10
16.400000
20
4.900000
30
0.0
40
0.300000
50
180.000000
51
270.000000
0
LINE
8
0
10
16.100000
20
4.900000
30
0.0
11
16.100000
21
5.100000
31
0.0
0
LINE
8
0
10
16.100000
20
5.100000
30
0.0
11
14.500000
21
5.100000
31
0.0
0
ARC
8
0
10
14.500000
20
4.600000
30
0.0
40
0.500000
50
90.000000
51
180.000000
0
LINE
8
0
10
14.000000
20
4.600000
30
0.0
11
14.000000
21
3.192589
31
0.0
0
ARC
8
0
10
14.300000
20
3.192589
30
0.0
40
0.300000
50
180.000000
51
225.000000
0
LINE
8
0
10
14.087868
20
2.980457
30
0.0
11
14.396990
21
2.671334
31
0.0
0
ARC
8
0
10
13.902015
20
2.176360
30
0.0
40
0.700000
50
330.499678
51
45.000000
0
LINE
8
0
10
14.511262
20
1.831660
30
0.0
11
13.560112
21
0.150528
31
0.0
0
ARC
8
0
10
13.300000
20
0.300000
30
0.0
40
0.300000
50
180.000000
51
330.116348
0
LINE
8
0
10
13.000000
20
0.300000
30
0.0
11
13.000000
21
5.900000
31
0.0
0
ARC
8
0
10
13.500000
20
5.900000
30
0.0
40
0.500000
50
90.000000
51
180.000000
0
LINE
8
0
10
13.500000
20
6.400000
30
0.0
11
16.400000
21
6.400000
31
0.0
0
ARC
8
0
10
16.400000
20
6.700000
30
0.0
40
0.300000
50
270.000000
51
0.000000
0
LINE
8
0
10
16.700000
20
6.700000
30
0.0
11
16.700000
21
25.302869
31
0.0
0
ARC
8
0
10
16.400000
20
25.302869
30
0.0
40
0.300000
50
0.000000
51
90.000000
0
LINE
8
0
10
16.400000
20
25.602869
30
0.0
11
2.000316
21
25.602869
31
0.0
0
ARC
8
0
10
2.000316
20
25.302869
30
0.0
40
0.300000
50
90.000000
51
180.000000
0
LINE
8
0
10
1.700316
20
25.302869
30
0.0
11
1.700316
21
6.700000
31
0.0
0
ARC
8
0
10
2.000316
20
6.700000
30
0.0
40
0.300000
50
180.000000
51
270.000000
0
LINE
8
0
10
2.000316
20
6.400000
30
0.0
11
5.100316
21
6.400000
31
0.0
0
ARC
8
0
10
5.100316
20
5.900000
30
0.0
40
0.500000
50
0.000000
51
90.000000
0
ATTDEF
8
0
10
0.000000
20
0.000000
30
0.0
40
3.5
1

3

2
GLASS_MIN:0.000000
70
0
0
ATTDEF
8
0
10
0.000000
20
0.000000
30
0.0
40
3.5
1

3

2
GLASS_MAX:0.000000
70
0
0
ATTDEF
8
0
10
0.000000
20
0.000000
30
0.0
40
3.5
1

3

2
BL01:6500.000000,,1
70
0
0
ATTDEF
8
0
10
0.000000
20
0.000000
30
0.0
40
3.5
1

3

2
HW_START
70
0
0
ATTDEF
8
0
10
139.700000
20
94.302869
30
0.0
40
3.5
1

3

2
HW_END
70
0
0
ATTDEF
8
0
10
0.000000
20
0.000000
30
0.0
40
3.5
1

3

2
FP_LCS_ORIG
70
0
0
ATTDEF
8
0
10
10.000000
20
0.000000
30
0.0
40
3.5
1

3

2
FP_LCS_HOT
70
0
0
ATTDEF
8
0
10
0.000000
20
10.000000
30
0.0
40
3.5
1

3

2
FP_LCS_INTERN
70
0
0
ATTDEF
8
0
10
0.000000
20
0.000000
30
0.0
40
3.5
1

3

2
TDEV3:0
70
0
0
ATTDEF
8
0
10
0.000000
20
0.000000
30
0.0
40
3.5
1

3

2
TDEV4:0
70
0
0
ATTDEF
8
0
10
0.000000
20
0.000000
30
0.0
40
3.5
1

3

2
TDEV5:0
70
0
0
ATTDEF
8
0
10
0.000000
20
0.000000
30
0.0
40
3.5
1

3

2
PANE_WIDTH:57.5
70
0
0
ATTDEF
8
0
10
0.000000
20
0.000000
30
0.0
40
3.5
1

3

2
MIN_VETRO:0
70
0
0
ATTDEF
8
0
10
0.000000
20
0.000000
30
0.0
40
3.5
1

3

2
MAX_VETRO:0
70
0
0
ATTDEF
8
0
10
0.000000
20
0.000000
30
0.0
40
3.5
1

3

2
JX:0
70
0
0
ATTDEF
8
0
10
0.000000
20
0.000000
30
0.0
40
3.5
1

3

2
WX:0
70
0
0
ATTDEF
8
0
10
0.000000
20
0.000000
30
0.0
40
3.5
1

3

2
JY:0
70
0
0
ATTDEF
8
0
10
0.000000
20
0.000000
30
0.0
40
3.5
1

3

2
WY:0
70
0
0
ATTDEF
8
0
10
0.000000
20
0.000000
30
0.0
40
3.5
1

3

2
DESC:U10140 - N10904
70
0
0
ATTDEF
8
0
10
0.000000
20
0.000000
30
0.0
40
3.5
1

3

2
DENS:0
70
0
0
ATTDEF
8
0
10
0.000000
20
0.000000
30
0.0
40
3.5
1

3

2
TDEV:0
70
0
0
ATTDEF
8
0
10
0.000000
20
0.000000
30
0.0
40
3.5
1

3

2
TDEV2:0
70
0
0
ATTDEF
8
0
10
0.000000
20
0.000000
30
0.0
40
3.5
1

3

2
TDEV3:0
70
0
0
ATTDEF
8
0
10
0.000000
20
0.000000
30
0.0
40
3.5
1

3

2
TDEV4:0
70
0
0
ATTDEF
8
0
10
0.000000
20
0.000000
30
0.0
40
3.5
1

3

2
TDEV5:0
70
0
0
ATTDEF
8
0
10
0.000000
20
0.000000
30
0.0
40
3.5
1

3

2
PANE_WIDTH:57.5
70
0
0
ATTDEF
8
0
10
0.000000
20
0.000000
30
0.0
40
3.5
1

3

2
MIN_VETRO:0
70
0
0
ATTDEF
8
0
10
0.000000
20
0.000000
30
0.0
40
3.5
1

3

2
MAX_VETRO:0
70
0
0
ATTDEF
8
0
10
0.000000
20
0.000000
30
0.0
40
3.5
1

3

2
JX:0
70
0
0
ATTDEF
8
0
10
0.000000
20
0.000000
30
0.0
40
3.5
1

3

2
WX:0
70
0
0
ATTDEF
8
0
10
0.000000
20
0.000000
30
0.0
40
3.5
1

3

2
JY:0
70
0
0
ATTDEF
8
0
10
0.000000
20
0.000000
30
0.0
40
3.5
1

3

2
WY:0
70
0
0
ENDSEC
0
EOF
