0
SECTION
2
ENTITIES
0
LINE
8
0
10
64.970862
20
19.380783
30
0.0
11
64.922622
21
19.353279
31
0.0
0
LINE
8
0
10
64.922622
20
19.353279
30
0.0
11
63.343605
21
18.247640
31
0.0
0
ARC
8
0
10
63.515678
20
18.001894
30
0.0
40
0.300000
50
125.000000
51
185.000000
0
LINE
8
0
10
63.216820
20
17.975747
30
0.0
11
63.227042
21
17.858905
31
0.0
0
ARC
8
0
10
63.027803
20
17.841474
30
0.0
40
0.200000
50
245.000000
51
5.000000
0
LINE
8
0
10
62.943280
20
17.660212
30
0.0
11
62.477053
21
17.877617
31
0.0
0
ARC
8
0
10
62.603838
20
18.149510
30
0.0
40
0.300000
50
205.000000
51
245.000000
0
LINE
8
0
10
62.331946
20
18.022724
30
0.0
11
61.328408
21
20.174817
31
0.0
0
ARC
8
0
10
61.600301
20
20.301603
30
0.0
40
0.300000
50
90.000000
51
205.000000
0
LINE
8
0
10
61.600301
20
20.601603
30
0.0
11
63.101678
21
20.601603
31
0.0
0
ARC
8
0
10
63.101678
20
20.301603
30
0.0
40
0.300000
50
30.904283
51
90.000000
0
ARC
8
0
10
63.616494
20
20.609766
30
0.0
40
0.300000
50
210.904283
51
290.000000
0
LINE
8
0
10
63.719100
20
20.327858
30
0.0
11
65.008181
21
20.801066
31
0.0
0
LINE
8
0
10
65.008181
20
20.801066
30
0.0
11
70.300000
21
20.800000
31
0.0
0
ARC
8
0
10
70.300000
20
21.100000
30
0.0
40
0.300000
50
270.000000
51
0.000000
0
LINE
8
0
10
70.600000
20
21.100000
30
0.0
11
70.600000
21
24.000000
31
0.0
0
ARC
8
0
10
70.300000
20
24.000000
30
0.0
40
0.300000
50
0.000000
51
90.000000
0
LINE
8
0
10
70.300000
20
24.300000
30
0.0
11
68.400000
21
24.300000
31
0.0
0
ARC
8
0
10
68.400000
20
24.600000
30
0.0
40
0.300000
50
180.000000
51
270.000000
0
LINE
8
0
10
68.100000
20
24.600000
30
0.0
11
68.100000
21
24.719616
31
0.0
0
ARC
8
0
10
68.400000
20
24.719616
30
0.0
40
0.300000
50
150.000000
51
180.000000
0
LINE
8
0
10
68.140193
20
24.869616
30
0.0
11
68.590748
21
25.650000
31
0.0
0
ARC
8
0
10
68.850555
20
25.500000
30
0.0
40
0.300000
50
90.000000
51
150.000000
0
LINE
8
0
10
68.850555
20
25.800000
30
0.0
11
72.100000
21
25.800000
31
0.0
0
ARC
8
0
10
72.100000
20
25.500000
30
0.0
40
0.300000
50
0.000000
51
90.000000
0
LINE
8
0
10
72.400000
20
25.500000
30
0.0
11
72.400000
21
7.100000
31
0.0
0
ARC
8
0
10
72.100000
20
7.100000
30
0.0
40
0.300000
50
270.000000
51
0.000000
0
LINE
8
0
10
72.100000
20
6.800000
30
0.0
11
68.900000
21
6.800000
31
0.0
0
ARC
8
0
10
68.900000
20
7.300000
30
0.0
40
0.500000
50
180.000000
51
270.000000
0
LINE
8
0
10
68.400000
20
7.300000
30
0.0
11
68.400000
21
9.200000
31
0.0
0
ARC
8
0
10
68.700000
20
9.200000
30
0.0
40
0.300000
50
90.000000
51
180.000000
0
LINE
8
0
10
68.700000
20
9.500000
30
0.0
11
69.100000
21
9.500000
31
0.0
0
ARC
8
0
10
69.100000
20
9.200000
30
0.0
40
0.300000
50
0.000000
51
90.000000
0
LINE
8
0
10
69.400000
20
9.200000
30
0.0
11
69.400000
21
8.500000
31
0.0
0
ARC
8
0
10
69.700000
20
8.500000
30
0.0
40
0.300000
50
180.000000
51
270.000000
0
LINE
8
0
10
69.700000
20
8.200000
30
0.0
11
70.697978
21
8.200000
31
0.0
0
ARC
8
0
10
70.697978
20
8.500000
30
0.0
40
0.300000
50
270.000000
51
0.000000
0
LINE
8
0
10
70.997978
20
8.500000
30
0.0
11
70.997978
21
10.700004
31
0.0
0
ARC
8
0
10
70.697978
20
10.700004
30
0.0
40
0.300000
50
0.000000
51
90.000000
0
ARC
8
0
10
70.700000
20
11.300000
30
0.0
40
0.300000
50
180.000000
51
270.000000
0
LINE
8
0
10
70.400000
20
11.300000
30
0.0
11
70.400000
21
12.700000
31
0.0
0
ARC
8
0
10
70.100000
20
12.700000
30
0.0
40
0.300000
50
0.000000
51
90.000000
0
LINE
8
0
10
70.100000
20
13.000000
30
0.0
11
67.369445
21
13.000000
31
0.0
0
ARC
8
0
10
67.369445
20
12.700000
30
0.0
40
0.300000
50
90.000000
51
142.857143
0
LINE
8
0
10
67.130305
20
12.881142
30
0.0
11
66.302197
21
11.787888
31
0.0
0
ARC
8
0
10
66.063058
20
11.969029
30
0.0
40
0.300000
50
207.480209
51
322.857143
0
ARC
8
0
10
64.200000
20
11.000000
30
0.0
40
1.800000
50
27.480209
51
52.857143
0
LINE
8
0
10
65.286848
20
12.434839
30
0.0
11
65.467989
21
12.673979
31
0.0
0
ARC
8
0
10
64.200000
20
11.000000
30
0.0
40
2.100000
50
52.857143
51
92.857143
0
LINE
8
0
10
64.095324
20
13.097390
30
0.0
11
64.110278
21
12.797763
31
0.0
0
ARC
8
0
10
64.200000
20
11.000000
30
0.0
40
1.800000
50
92.857143
51
132.857143
0
LINE
8
0
10
62.975689
20
12.319494
30
0.0
11
62.771637
21
12.539409
31
0.0
0
ARC
8
0
10
64.200000
20
11.000000
30
0.0
40
2.100000
50
132.857143
51
172.857143
0
LINE
8
0
10
62.116298
20
11.261122
30
0.0
11
62.413970
21
11.223819
31
0.0
0
ARC
8
0
10
64.200000
20
11.000000
30
0.0
40
1.800000
50
172.857143
51
212.857143
0
LINE
8
0
10
62.687953
20
10.023417
30
0.0
11
62.435946
21
9.860653
31
0.0
0
ARC
8
0
10
64.200000
20
11.000000
30
0.0
40
2.100000
50
212.857143
51
252.857143
0
LINE
8
0
10
63.581014
20
8.993297
30
0.0
11
63.669441
21
9.279969
31
0.0
0
ARC
8
0
10
64.200000
20
11.000000
30
0.0
40
1.800000
50
252.857143
51
272.729851
0
ARC
8
0
10
64.309542
20
8.702610
30
0.0
40
0.500000
50
345.285714
51
92.729851
0
LINE
8
0
10
64.793144
20
8.575611
30
0.0
11
64.718665
21
8.292002
31
0.0
0
ARC
8
0
10
62.784256
20
8.800000
30
0.0
40
2.000000
50
270.000000
51
345.285714
0
LINE
8
0
10
62.784256
20
6.800000
30
0.0
11
59.560820
21
6.800000
31
0.0
0
ARC
8
0
10
59.560820
20
7.100000
30
0.0
40
0.300000
50
249.842370
51
270.000000
0
LINE
8
0
10
59.457438
20
6.818376
30
0.0
11
58.219100
21
7.272956
31
0.0
0
ARC
8
0
10
58.116494
20
6.991049
30
0.0
40
0.300000
50
70.000000
51
149.095717
0
ARC
8
0
10
57.601678
20
7.299212
30
0.0
40
0.300000
50
270.000000
51
329.095717
0
LINE
8
0
10
57.601678
20
6.999212
30
0.0
11
56.100301
21
6.999212
31
0.0
0
ARC
8
0
10
56.100301
20
7.299212
30
0.0
40
0.300000
50
155.000000
51
270.000000
0
LINE
8
0
10
55.828408
20
7.425997
30
0.0
11
56.831946
21
9.578091
31
0.0
0
ARC
8
0
10
57.103838
20
9.451305
30
0.0
40
0.300000
50
115.000000
51
155.000000
0
LINE
8
0
10
56.977053
20
9.723197
30
0.0
11
57.443280
21
9.940603
31
0.0
0
ARC
8
0
10
57.527803
20
9.759341
30
0.0
40
0.200000
50
355.000000
51
115.000000
0
LINE
8
0
10
57.727042
20
9.741910
30
0.0
11
57.716820
21
9.625068
31
0.0
0
ARC
8
0
10
58.015678
20
9.598921
30
0.0
40
0.300000
50
175.000000
51
235.000000
0
LINE
8
0
10
57.843605
20
9.353175
30
0.0
11
59.422622
21
8.247536
31
0.0
0
LINE
8
0
10
59.422622
20
8.247536
30
0.0
11
59.470862
21
8.220032
31
0.0
0
LINE
8
0
10
59.470862
20
8.220032
30
0.0
11
59.676116
21
8.127013
31
0.0
0
ARC
8
0
10
59.799975
20
8.400261
30
0.0
40
0.300009
50
245.615828
51
48.187329
0
ARC
8
0
10
60.200000
20
8.847465
30
0.0
40
0.300000
50
180.000000
51
228.187329
0
LINE
8
0
10
59.900000
20
8.847465
30
0.0
11
59.900000
21
12.700252
31
0.0
0
ARC
8
0
10
59.600000
20
12.700252
30
0.0
40
0.300000
50
0.000000
51
90.000000
0
LINE
8
0
10
59.600000
20
13.000252
30
0.0
11
59.378807
21
13.000252
31
0.0
0
ARC
8
0
10
59.378807
20
12.700252
30
0.0
40
0.300000
50
90.000000
51
121.400000
0
LINE
8
0
10
59.222504
20
12.956317
30
0.0
11
57.704202
21
12.029542
31
0.0
0
ARC
8
0
10
57.600000
20
12.200252
30
0.0
40
0.200000
50
180.000000
51
301.400000
0
LINE
8
0
10
57.400000
20
12.200252
30
0.0
11
57.400000
21
14.100563
31
0.0
0
ARC
8
0
10
57.900000
20
14.100563
30
0.0
40
0.500000
50
90.000000
51
180.000000
0
LINE
8
0
10
57.900000
20
14.600563
30
0.0
11
62.233975
21
14.600563
31
0.0
0
ARC
8
0
10
62.233975
20
14.900563
30
0.0
40
0.300000
50
270.000000
51
330.000000
0
LINE
8
0
10
62.493782
20
14.750563
30
0.0
11
62.926795
21
15.500563
31
0.0
0
ARC
8
0
10
63.100000
20
15.400563
30
0.0
40
0.200000
50
58.600000
51
150.000000
0
LINE
8
0
10
63.204202
20
15.571273
30
0.0
11
64.722504
21
14.644498
31
0.0
0
ARC
8
0
10
64.878807
20
14.900563
30
0.0
40
0.300000
50
238.600000
51
270.000000
0
LINE
8
0
10
64.878807
20
14.600563
30
0.0
11
65.100000
21
14.600563
31
0.0
0
ARC
8
0
10
65.100000
20
14.900563
30
0.0
40
0.300000
50
270.000000
51
0.000000
0
LINE
8
0
10
65.400000
20
14.900563
30
0.0
11
65.400000
21
18.753349
31
0.0
0
ARC
8
0
10
65.700000
20
18.753349
30
0.0
40
0.300000
50
131.812671
51
180.000000
0
ARC
8
0
10
65.299975
20
19.200554
30
0.0
40
0.300009
50
311.812671
51
114.384172
0
LINE
8
0
10
65.176116
20
19.473802
30
0.0
11
64.970862
21
19.380783
31
0.0
0
LINE
8
0
10
67.200063
20
19.000607
30
0.0
11
70.300063
21
18.999938
31
0.0
0
ARC
8
0
10
70.300000
20
18.699938
30
0.0
40
0.300000
50
0.000000
51
90.000000
0
LINE
8
0
10
70.600000
20
18.699938
30
0.0
11
70.600000
21
14.800000
31
0.0
0
ARC
8
0
10
70.300000
20
14.800000
30
0.0
40
0.300000
50
270.000000
51
0.000000
0
LINE
8
0
10
70.300000
20
14.500000
30
0.0
11
67.200000
21
14.500000
31
0.0
0
ARC
8
0
10
67.200000
20
14.800000
30
0.0
40
0.300000
50
180.000000
51
270.000000
0
LINE
8
0
10
66.900000
20
14.800000
30
0.0
11
66.900000
21
18.700607
31
0.0
0
ARC
8
0
10
67.200000
20
18.700607
30
0.0
40
0.300000
50
90.000000
51
180.000000
0
LINE
8
0
10
12.700000
20
18.999938
30
0.0
11
15.400000
21
18.999938
31
0.0
0
ARC
8
0
10
15.400000
20
18.499938
30
0.0
40
0.500000
50
0.000000
51
90.000000
0
LINE
8
0
10
15.900000
20
18.499938
30
0.0
11
15.900000
21
14.800277
31
0.0
0
ARC
8
0
10
15.600000
20
14.800277
30
0.0
40
0.300000
50
270.000000
51
0.000000
0
LINE
8
0
10
15.600031
20
14.500277
30
0.0
11
12.500031
21
14.499724
31
0.0
0
ARC
8
0
10
12.500000
20
14.799724
30
0.0
40
0.300000
50
180.000000
51
270.000000
0
LINE
8
0
10
12.200000
20
14.799724
30
0.0
11
12.200000
21
18.499938
31
0.0
0
ARC
8
0
10
12.700000
20
18.499938
30
0.0
40
0.500000
50
90.000000
51
180.000000
0
LINE
8
0
10
18.704677
20
13.097390
30
0.0
11
18.689723
21
12.797763
31
0.0
0
ARC
8
0
10
18.600000
20
11.000000
30
0.0
40
1.800000
50
47.142857
51
87.142857
0
LINE
8
0
10
19.824311
20
12.319494
30
0.0
11
20.028363
21
12.539409
31
0.0
0
ARC
8
0
10
18.600000
20
11.000000
30
0.0
40
2.100000
50
7.142857
51
47.142857
0
LINE
8
0
10
20.683702
20
11.261122
30
0.0
11
20.386031
21
11.223819
31
0.0
0
ARC
8
0
10
18.600000
20
11.000000
30
0.0
40
1.800000
50
327.142857
51
7.142857
0
LINE
8
0
10
20.112047
20
10.023417
30
0.0
11
20.364055
21
9.860653
31
0.0
0
ARC
8
0
10
18.600000
20
11.000000
30
0.0
40
2.100000
50
287.142857
51
327.142857
0
LINE
8
0
10
19.218986
20
8.993297
30
0.0
11
19.130559
21
9.279969
31
0.0
0
ARC
8
0
10
18.600000
20
11.000000
30
0.0
40
1.800000
50
267.270149
51
287.142857
0
ARC
8
0
10
18.490458
20
8.702610
30
0.0
40
0.500000
50
87.270149
51
194.714286
0
LINE
8
0
10
18.006856
20
8.575611
30
0.0
11
18.081335
21
8.292002
31
0.0
0
ARC
8
0
10
20.015744
20
8.800000
30
0.0
40
2.000000
50
194.714286
51
270.000000
0
LINE
8
0
10
20.015744
20
6.800000
30
0.0
11
23.167215
21
6.800000
31
0.0
0
ARC
8
0
10
23.167215
20
7.100000
30
0.0
40
0.300000
50
270.000000
51
289.778171
0
LINE
8
0
10
23.268729
20
6.817697
30
0.0
11
24.571317
21
7.286097
31
0.0
0
ARC
8
0
10
24.650836
20
7.064960
30
0.0
40
0.235000
50
24.000000
51
109.778171
0
ARC
8
0
10
25.086771
20
7.241374
30
0.0
40
0.235000
50
204.000000
51
270.000000
0
LINE
8
0
10
25.085214
20
7.006379
30
0.0
11
26.664143
21
6.995922
31
0.0
0
ARC
8
0
10
26.666130
20
7.295915
30
0.0
40
0.300000
50
270.000000
51
24.620541
0
LINE
8
0
10
26.938856
20
7.420897
30
0.0
11
25.990206
21
9.526412
31
0.0
0
ARC
8
0
10
25.716686
20
9.403177
30
0.0
40
0.300000
50
24.254172
51
64.620541
0
LINE
8
0
10
25.845269
20
9.674223
30
0.0
11
25.337847
21
9.914943
31
0.0
0
ARC
8
0
10
25.252124
20
9.734245
30
0.0
40
0.200000
50
64.620541
51
184.620541
0
LINE
8
0
10
25.052774
20
9.718134
30
0.0
11
25.062076
21
9.603039
31
0.0
0
ARC
8
0
10
24.763051
20
9.578872
30
0.0
40
0.300000
50
304.620541
51
4.620541
0
LINE
8
0
10
24.933493
20
9.331992
30
0.0
11
23.304736
21
8.207526
31
0.0
0
LINE
8
0
10
23.304736
20
8.207526
30
0.0
11
23.122027
21
8.126179
31
0.0
0
ARC
8
0
10
23.000025
20
8.400261
30
0.0
40
0.300009
50
131.812671
51
293.995287
0
ARC
8
0
10
22.600000
20
8.847465
30
0.0
40
0.300000
50
311.812671
51
0.000000
0
LINE
8
0
10
22.900000
20
8.847465
30
0.0
11
22.900000
21
12.700252
31
0.0
0
ARC
8
0
10
23.200000
20
12.700252
30
0.0
40
0.300000
50
90.000000
51
180.000000
0
LINE
8
0
10
23.200000
20
13.000252
30
0.0
11
23.421193
21
13.000252
31
0.0
0
ARC
8
0
10
23.421193
20
12.700252
30
0.0
40
0.300000
50
58.600000
51
90.000000
0
LINE
8
0
10
23.577496
20
12.956317
30
0.0
11
25.095798
21
12.029542
31
0.0
0
ARC
8
0
10
25.200000
20
12.200252
30
0.0
40
0.200000
50
238.600000
51
0.000000
0
LINE
8
0
10
25.400000
20
12.200252
30
0.0
11
25.400000
21
13.600563
31
0.0
0
ARC
8
0
10
24.400000
20
13.600563
30
0.0
40
1.000000
50
0.000000
51
90.000000
0
LINE
8
0
10
24.400000
20
14.600563
30
0.0
11
20.566026
21
14.600563
31
0.0
0
ARC
8
0
10
20.566026
20
14.900563
30
0.0
40
0.300000
50
210.000000
51
270.000000
0
LINE
8
0
10
20.306218
20
14.750563
30
0.0
11
19.873205
21
15.500563
31
0.0
0
ARC
8
0
10
19.700000
20
15.400563
30
0.0
40
0.200000
50
30.000000
51
121.400000
0
LINE
8
0
10
19.595798
20
15.571273
30
0.0
11
18.077496
21
14.644498
31
0.0
0
ARC
8
0
10
17.921193
20
14.900563
30
0.0
40
0.300000
50
270.000000
51
301.400000
0
LINE
8
0
10
17.921193
20
14.600563
30
0.0
11
17.700000
21
14.600563
31
0.0
0
ARC
8
0
10
17.700000
20
14.900563
30
0.0
40
0.300000
50
180.000000
51
270.000000
0
LINE
8
0
10
17.400000
20
14.900563
30
0.0
11
17.400000
21
18.753349
31
0.0
0
ARC
8
0
10
17.100000
20
18.753349
30
0.0
40
0.300000
50
0.000000
51
48.187329
0
ARC
8
0
10
17.500025
20
19.200554
30
0.0
40
0.300009
50
66.004713
51
228.187329
0
LINE
8
0
10
17.622027
20
19.474636
30
0.0
11
17.804736
21
19.393289
31
0.0
0
LINE
8
0
10
17.804736
20
19.393289
30
0.0
11
19.433493
21
18.268823
31
0.0
0
ARC
8
0
10
19.263051
20
18.021943
30
0.0
40
0.300000
50
355.379459
51
55.379459
0
LINE
8
0
10
19.562076
20
17.997776
30
0.0
11
19.552774
21
17.882681
31
0.0
0
ARC
8
0
10
19.752124
20
17.866570
30
0.0
40
0.200000
50
175.379459
51
295.379459
0
LINE
8
0
10
19.837847
20
17.685872
30
0.0
11
20.345269
21
17.926591
31
0.0
0
ARC
8
0
10
20.216686
20
18.197638
30
0.0
40
0.300000
50
295.379459
51
335.745828
0
LINE
8
0
10
20.490206
20
18.074402
30
0.0
11
21.438856
21
20.179918
31
0.0
0
ARC
8
0
10
21.166130
20
20.304900
30
0.0
40
0.300000
50
335.379459
51
90.000000
0
LINE
8
0
10
21.164143
20
20.604893
30
0.0
11
19.585214
21
20.594436
31
0.0
0
ARC
8
0
10
19.586771
20
20.359441
30
0.0
40
0.235000
50
90.000000
51
156.000000
0
ARC
8
0
10
19.150836
20
20.535855
30
0.0
40
0.235000
50
250.221829
51
336.000000
0
LINE
8
0
10
19.071317
20
20.314717
30
0.0
11
17.770993
21
20.782303
31
0.0
0
ARC
8
0
10
17.669479
20
20.500000
30
0.0
40
0.300000
50
70.221829
51
90.000000
0
LINE
8
0
10
17.669479
20
20.800000
30
0.0
11
13.153561
21
20.800000
31
0.0
0
ARC
8
0
10
13.153561
20
21.800000
30
0.0
40
1.000000
50
182.628630
51
270.000000
0
LINE
8
0
10
12.154613
20
21.754138
30
0.0
11
11.900000
21
27.300000
31
0.0
0
LINE
8
0
10
11.900000
20
27.300000
30
0.0
11
11.900000
21
33.500000
31
0.0
0
ARC
8
0
10
12.200000
20
33.500000
30
0.0
40
0.300000
50
90.000000
51
180.000000
0
LINE
8
0
10
12.200000
20
33.800000
30
0.0
11
13.600000
21
33.800000
31
0.0
0
ARC
8
0
10
13.600000
20
33.500000
30
0.0
40
0.300000
50
0.000000
51
90.000000
0
LINE
8
0
10
13.900000
20
33.500000
30
0.0
11
13.900000
21
32.600000
31
0.0
0
ARC
8
0
10
14.200000
20
32.600000
30
0.0
40
0.300000
50
180.000000
51
270.000000
0
LINE
8
0
10
14.200000
20
32.300000
30
0.0
11
14.600000
21
32.300000
31
0.0
0
ARC
8
0
10
14.600000
20
32.600000
30
0.0
40
0.300000
50
270.000000
51
0.000000
0
LINE
8
0
10
14.900000
20
32.600000
30
0.0
11
14.900000
21
35.600000
31
0.0
0
ARC
8
0
10
14.200000
20
35.600000
30
0.0
40
0.700000
50
0.000000
51
90.000000
0
ARC
8
0
10
14.200000
20
36.000000
30
0.0
40
0.300000
50
90.000000
51
180.000000
0
LINE
8
0
10
13.900000
20
36.000000
30
0.0
11
13.900000
21
35.300000
31
0.0
0
ARC
8
0
10
13.600000
20
35.300000
30
0.0
40
0.300000
50
270.000000
51
0.000000
0
LINE
8
0
10
13.600000
20
35.000000
30
0.0
11
12.400000
21
35.000000
31
0.0
0
ARC
8
0
10
12.400000
20
35.700000
30
0.0
40
0.700000
50
180.000000
51
270.000000
0
LINE
8
0
10
11.700000
20
35.700000
30
0.0
11
11.700000
21
41.900000
31
0.0
0
ARC
8
0
10
12.400000
20
41.900000
30
0.0
40
0.700000
50
90.000000
51
180.000000
0
LINE
8
0
10
12.400000
20
42.600000
30
0.0
11
13.600000
21
42.600000
31
0.0
0
ARC
8
0
10
13.600000
20
42.300000
30
0.0
40
0.300000
50
0.000000
51
90.000000
0
LINE
8
0
10
13.900000
20
42.300000
30
0.0
11
13.900000
21
41.600000
31
0.0
0
ARC
8
0
10
14.200000
20
41.600000
30
0.0
40
0.300000
50
180.000000
51
270.000000
0
ARC
8
0
10
14.200000
20
42.000000
30
0.0
40
0.700000
50
270.000000
51
0.000000
0
LINE
8
0
10
14.900000
20
42.000000
30
0.0
11
14.900000
21
43.500000
31
0.0
0
ARC
8
0
10
14.600000
20
43.500000
30
0.0
40
0.300000
50
0.000000
51
90.000000
0
LINE
8
0
10
14.600000
20
43.800000
30
0.0
11
10.700000
21
43.800000
31
0.0
0
ARC
8
0
10
10.700000
20
43.500000
30
0.0
40
0.300000
50
90.000000
51
180.000000
0
LINE
8
0
10
10.400000
20
43.500000
30
0.0
11
10.400000
21
7.100000
31
0.0
0
ARC
8
0
10
10.700000
20
7.100000
30
0.0
40
0.300000
50
180.000000
51
270.000000
0
LINE
8
0
10
10.700000
20
6.800000
30
0.0
11
13.900000
21
6.800000
31
0.0
0
ARC
8
0
10
13.900000
20
7.300000
30
0.0
40
0.500000
50
270.000000
51
0.000000
0
LINE
8
0
10
14.400000
20
7.300000
30
0.0
11
14.400000
21
9.200000
31
0.0
0
ARC
8
0
10
14.100000
20
9.200000
30
0.0
40
0.300000
50
0.000000
51
90.000000
0
LINE
8
0
10
14.100000
20
9.500000
30
0.0
11
13.700000
21
9.500000
31
0.0
0
ARC
8
0
10
13.700000
20
9.200000
30
0.0
40
0.300000
50
90.000000
51
180.000000
0
LINE
8
0
10
13.400000
20
9.200000
30
0.0
11
13.400000
21
8.500000
31
0.0
0
ARC
8
0
10
13.100000
20
8.500000
30
0.0
40
0.300000
50
270.000000
51
0.000000
0
LINE
8
0
10
13.100000
20
8.200000
30
0.0
11
12.102023
21
8.200000
31
0.0
0
ARC
8
0
10
12.102023
20
8.500000
30
0.0
40
0.300000
50
180.000000
51
270.000000
0
LINE
8
0
10
11.802023
20
8.500000
30
0.0
11
11.802023
21
10.700004
31
0.0
0
ARC
8
0
10
12.102023
20
10.700004
30
0.0
40
0.300000
50
90.000000
51
180.000000
0
ARC
8
0
10
12.100000
20
11.300000
30
0.0
40
0.300000
50
270.000000
51
0.000000
0
LINE
8
0
10
12.400000
20
11.300000
30
0.0
11
12.400000
21
12.700000
31
0.0
0
ARC
8
0
10
12.700000
20
12.700000
30
0.0
40
0.300000
50
90.000000
51
180.000000
0
LINE
8
0
10
12.700000
20
13.000000
30
0.0
11
15.430555
21
13.000000
31
0.0
0
ARC
8
0
10
15.430555
20
12.700000
30
0.0
40
0.300000
50
37.142857
51
90.000000
0
LINE
8
0
10
15.669695
20
12.881142
30
0.0
11
16.497803
21
11.787888
31
0.0
0
ARC
8
0
10
16.736943
20
11.969029
30
0.0
40
0.300000
50
217.142857
51
332.519791
0
ARC
8
0
10
18.600000
20
11.000000
30
0.0
40
1.800000
50
127.142857
51
152.519791
0
LINE
8
0
10
17.513152
20
12.434839
30
0.0
11
17.332011
21
12.673979
31
0.0
0
ARC
8
0
10
18.600000
20
11.000000
30
0.0
40
2.100000
50
87.142857
51
127.142857
0
LINE
8
0
10
59.500000
20
8.711713
30
0.0
11
59.319615
21
8.711713
31
0.0
0
ARC
8
0
10
59.319615
20
9.011713
30
0.0
40
0.300000
50
240.000000
51
270.000000
0
LINE
8
0
10
59.169615
20
8.751905
30
0.0
11
57.785641
21
9.550943
31
0.0
0
ARC
8
0
10
57.185641
20
8.511713
30
0.0
40
1.200000
50
60.000000
51
90.000000
0
LINE
8
0
10
57.185641
20
9.711713
30
0.0
11
56.560284
21
9.711713
31
0.0
0
ARC
8
0
10
56.560284
20
9.211713
30
0.0
40
0.500000
50
90.000000
51
145.000000
0
LINE
8
0
10
56.150708
20
9.498501
30
0.0
11
54.708025
21
7.438136
31
0.0
0
ARC
8
0
10
53.888873
20
8.011713
30
0.0
40
1.000000
50
270.000000
51
325.000000
0
LINE
8
0
10
53.888873
20
7.011713
30
0.0
11
28.920567
21
7.011713
31
0.0
0
ARC
8
0
10
28.920567
20
8.011713
30
0.0
40
1.000000
50
215.000000
51
270.000000
0
LINE
8
0
10
28.101415
20
7.438136
30
0.0
11
26.658732
21
9.498501
31
0.0
0
ARC
8
0
10
26.249156
20
9.211713
30
0.0
40
0.500000
50
35.000000
51
90.000000
0
LINE
8
0
10
26.249156
20
9.711713
30
0.0
11
25.614359
21
9.711713
31
0.0
0
ARC
8
0
10
25.614359
20
8.511713
30
0.0
40
1.200000
50
90.000000
51
120.000000
0
LINE
8
0
10
25.014359
20
9.550943
30
0.0
11
23.630385
21
8.751905
31
0.0
0
ARC
8
0
10
23.480385
20
9.011713
30
0.0
40
0.300000
50
270.000000
51
300.000000
0
LINE
8
0
10
23.480385
20
8.711713
30
0.0
11
23.300000
21
8.711713
31
0.0
0
ARC
8
0
10
23.300000
20
9.111713
30
0.0
40
0.400000
50
180.000000
51
270.000000
0
LINE
8
0
10
22.900000
20
9.111713
30
0.0
11
22.900000
21
12.511713
31
0.0
0
ARC
8
0
10
23.300000
20
12.511713
30
0.0
40
0.400000
50
90.000000
51
180.000000
0
LINE
8
0
10
23.300000
20
12.911713
30
0.0
11
23.480385
21
12.911713
31
0.0
0
ARC
8
0
10
23.480385
20
12.611713
30
0.0
40
0.300000
50
60.000000
51
90.000000
0
LINE
8
0
10
23.630385
20
12.871520
30
0.0
11
25.014359
21
12.072482
31
0.0
0
ARC
8
0
10
25.614359
20
13.111713
30
0.0
40
1.200000
50
240.000000
51
270.000000
0
LINE
8
0
10
25.614359
20
11.911713
30
0.0
11
26.889965
21
11.911713
31
0.0
0
ARC
8
0
10
26.889965
20
10.911713
30
0.0
40
1.000000
50
35.000000
51
90.000000
0
LINE
8
0
10
27.709117
20
11.485289
30
0.0
11
28.984006
21
9.664560
31
0.0
0
ARC
8
0
10
30.622310
20
10.811713
30
0.0
40
2.000000
50
215.000000
51
270.000000
0
LINE
8
0
10
30.622310
20
8.811713
30
0.0
11
52.207414
21
8.811713
31
0.0
0
ARC
8
0
10
52.207414
20
10.811713
30
0.0
40
2.000000
50
270.000000
51
324.745828
0
LINE
8
0
10
53.840613
20
9.657303
30
0.0
11
55.135270
21
11.488917
31
0.0
0
ARC
8
0
10
55.951870
20
10.911713
30
0.0
40
1.000000
50
90.000000
51
144.745828
0
LINE
8
0
10
55.951870
20
11.911713
30
0.0
11
57.185641
21
11.911713
31
0.0
0
ARC
8
0
10
57.185641
20
13.111713
30
0.0
40
1.200000
50
270.000000
51
300.000000
0
LINE
8
0
10
57.785641
20
12.072482
30
0.0
11
59.169615
21
12.871520
31
0.0
0
ARC
8
0
10
59.319615
20
12.611713
30
0.0
40
0.300000
50
90.000000
51
120.000000
0
LINE
8
0
10
59.319615
20
12.911713
30
0.0
11
59.500000
21
12.911713
31
0.0
0
ARC
8
0
10
59.500000
20
12.511713
30
0.0
40
0.400000
50
0.000000
51
90.000000
0
LINE
8
0
10
59.900000
20
12.511713
30
0.0
11
59.900000
21
9.111713
31
0.0
0
ARC
8
0
10
59.500000
20
9.111713
30
0.0
40
0.400000
50
270.000000
51
0.000000
0
LINE
8
0
10
19.514999
20
15.539423
30
0.0
11
18.106389
21
14.726763
31
0.0
0
ARC
8
0
10
18.006445
20
14.900000
30
0.0
40
0.200000
50
270.000000
51
299.981639
0
LINE
8
0
10
18.006445
20
14.700000
30
0.0
11
17.800000
21
14.700000
31
0.0
0
ARC
8
0
10
17.800000
20
15.100000
30
0.0
40
0.400000
50
180.000000
51
270.000000
0
LINE
8
0
10
17.400000
20
15.100000
30
0.0
11
17.400000
21
18.500000
31
0.0
0
ARC
8
0
10
17.800000
20
18.500000
30
0.0
40
0.400000
50
90.000000
51
180.000000
0
LINE
8
0
10
17.800000
20
18.900000
30
0.0
11
18.006445
21
18.900000
31
0.0
0
ARC
8
0
10
18.006445
20
18.700000
30
0.0
40
0.200000
50
60.018361
51
90.000000
0
LINE
8
0
10
18.106389
20
18.873237
30
0.0
11
19.514999
21
18.060578
31
0.0
0
ARC
8
0
10
20.114666
20
19.100000
30
0.0
40
1.200000
50
240.018361
51
270.000000
0
LINE
8
0
10
20.114666
20
17.900000
30
0.0
11
20.797368
21
17.900000
31
0.0
0
ARC
8
0
10
20.797368
20
18.200000
30
0.0
40
0.300000
50
270.000000
51
324.745828
0
LINE
8
0
10
21.042348
20
18.026839
30
0.0
11
22.853103
21
20.588603
31
0.0
0
ARC
8
0
10
23.261403
20
20.300000
30
0.0
40
0.500000
50
90.000000
51
144.745828
0
LINE
8
0
10
23.261403
20
20.800000
30
0.0
11
53.900000
21
20.800001
31
0.0
0
ARC
8
0
10
53.900000
20
21.300001
30
0.0
40
0.500000
50
270.000000
51
0.000000
0
LINE
8
0
10
54.400000
20
21.300001
30
0.0
11
54.400000
21
25.500000
31
0.0
0
ARC
8
0
10
54.700000
20
25.500000
30
0.0
40
0.300000
50
90.000000
51
180.000000
0
LINE
8
0
10
54.700000
20
25.800000
30
0.0
11
57.349445
21
25.800000
31
0.0
0
ARC
8
0
10
57.349445
20
25.500000
30
0.0
40
0.300000
50
30.000000
51
90.000000
0
LINE
8
0
10
57.609252
20
25.650000
30
0.0
11
58.059808
21
24.869616
31
0.0
0
ARC
8
0
10
57.800000
20
24.719616
30
0.0
40
0.300000
50
0.000000
51
30.000000
0
LINE
8
0
10
58.100000
20
24.719616
30
0.0
11
58.100000
21
24.600000
31
0.0
0
ARC
8
0
10
57.800000
20
24.600000
30
0.0
40
0.300000
50
270.000000
51
0.000000
0
LINE
8
0
10
57.800000
20
24.300000
30
0.0
11
56.400000
21
24.300000
31
0.0
0
ARC
8
0
10
56.400000
20
24.000000
30
0.0
40
0.300000
50
90.000000
51
180.000000
0
LINE
8
0
10
56.100000
20
24.000000
30
0.0
11
56.100000
21
21.300000
31
0.0
0
ARC
8
0
10
56.600000
20
21.300000
30
0.0
40
0.500000
50
180.000000
51
270.000000
0
LINE
8
0
10
56.600000
20
20.800000
30
0.0
11
59.538597
21
20.800000
31
0.0
0
ARC
8
0
10
59.538597
20
20.300000
30
0.0
40
0.500000
50
35.254172
51
90.000000
0
LINE
8
0
10
59.946897
20
20.588603
30
0.0
11
61.757652
21
18.026839
31
0.0
0
ARC
8
0
10
62.002632
20
18.200000
30
0.0
40
0.300000
50
215.254172
51
270.000000
0
LINE
8
0
10
62.002632
20
17.900000
30
0.0
11
62.685334
21
17.900000
31
0.0
0
ARC
8
0
10
62.685334
20
19.100000
30
0.0
40
1.200000
50
270.000000
51
299.981639
0
LINE
8
0
10
63.285001
20
18.060578
30
0.0
11
64.693611
21
18.873237
31
0.0
0
ARC
8
0
10
64.793556
20
18.700000
30
0.0
40
0.200000
50
90.000000
51
119.981639
0
LINE
8
0
10
64.793556
20
18.900000
30
0.0
11
65.000000
21
18.900000
31
0.0
0
ARC
8
0
10
65.000000
20
18.500000
30
0.0
40
0.400000
50
0.000000
51
90.000000
0
LINE
8
0
10
65.400000
20
18.500000
30
0.0
11
65.400000
21
15.100000
31
0.0
0
ARC
8
0
10
65.000000
20
15.100000
30
0.0
40
0.400000
50
270.000000
51
0.000000
0
LINE
8
0
10
65.000000
20
14.700000
30
0.0
11
64.793556
21
14.700000
31
0.0
0
ARC
8
0
10
64.793556
20
14.900000
30
0.0
40
0.200000
50
240.018361
51
270.000000
0
LINE
8
0
10
64.693611
20
14.726763
30
0.0
11
63.285001
21
15.539423
31
0.0
0
ARC
8
0
10
62.685334
20
14.500000
30
0.0
40
1.200000
50
60.018361
51
90.000000
0
LINE
8
0
10
62.685334
20
15.700000
30
0.0
11
61.226005
21
15.700000
31
0.0
0
ARC
8
0
10
61.226005
20
16.700000
30
0.0
40
1.000000
50
215.254172
51
270.000000
0
LINE
8
0
10
60.409406
20
16.122796
30
0.0
11
58.875672
21
18.292644
31
0.0
0
ARC
8
0
10
57.895752
20
17.599998
30
0.0
40
1.200000
50
35.254172
51
90.000000
0
LINE
8
0
10
57.895752
20
18.799998
30
0.0
11
24.904248
21
18.799998
31
0.0
0
ARC
8
0
10
24.904248
20
17.599998
30
0.0
40
1.200000
50
90.000000
51
144.745828
0
LINE
8
0
10
23.924329
20
18.292644
30
0.0
11
22.390594
21
16.122796
31
0.0
0
ARC
8
0
10
21.573995
20
16.700000
30
0.0
40
1.000000
50
270.000000
51
324.745828
0
LINE
8
0
10
21.573995
20
15.700000
30
0.0
11
20.114666
21
15.700000
31
0.0
0
ARC
8
0
10
20.114666
20
14.500000
30
0.0
40
1.200000
50
90.000000
51
119.981639
0
ATTDEF
8
0
10
54.700000
20
25.800000
30
0.0
40
3.5
1

3

2
VC_START
70
0
0
ATTDEF
8
0
10
68.900000
20
6.800000
30
0.0
40
3.5
1

3

2
VC_END
70
0
0
ARC
8
0
10
4.336399
20
-4.580571
30
0.0
40
7.300000
50
66.420102
51
80.624176
0
ARC
8
0
10
5.238105
20
3.368449
30
0.0
40
0.800000
50
53.215277
51
291.064476
0
ARC
8
0
10
4.336399
20
-4.580571
30
0.0
40
8.700000
50
70.200794
51
80.868126
0
ARC
8
0
10
6.351812
20
1.017697
30
0.0
40
2.750000
50
19.391231
51
70.200794
0
ARC
8
0
10
9.417451
20
2.096752
30
0.0
40
0.500000
50
199.391231
51
270.000000
0
LINE
8
0
10
9.417451
20
1.596752
30
0.0
11
66.800000
21
1.596752
31
0.0
0
ARC
8
0
10
66.800000
20
1.896752
30
0.0
40
0.300000
50
270.000000
51
0.000000
0
LINE
8
0
10
67.100000
20
1.896752
30
0.0
11
67.100000
21
9.223794
31
0.0
0
ARC
8
0
10
67.600000
20
9.223794
30
0.0
40
0.500000
50
145.000000
51
180.000000
0
LINE
8
0
10
67.190424
20
9.510583
30
0.0
11
67.824971
21
10.416810
31
0.0
0
ARC
8
0
10
67.579225
20
10.588883
30
0.0
40
0.300000
50
325.000000
51
35.000000
0
LINE
8
0
10
67.824971
20
10.760956
30
0.0
11
67.190424
21
11.667183
31
0.0
0
ARC
8
0
10
67.600000
20
11.953971
30
0.0
40
0.500000
50
35.000000
51
215.000000
0
LINE
8
0
10
68.009576
20
12.240759
30
0.0
11
69.045746
21
10.760956
31
0.0
0
ARC
8
0
10
68.800000
20
10.588883
30
0.0
40
0.300000
50
325.000000
51
35.000000
0
LINE
8
0
10
69.045746
20
10.416810
30
0.0
11
68.354254
21
9.429258
31
0.0
0
ARC
8
0
10
68.600000
20
9.257185
30
0.0
40
0.300000
50
145.000000
51
180.000000
0
LINE
8
0
10
68.300000
20
9.257185
30
0.0
11
68.300000
21
1.900000
31
0.0
0
ARC
8
0
10
68.600000
20
1.900000
30
0.0
40
0.300000
50
180.000000
51
270.000000
0
LINE
8
0
10
68.600000
20
1.600000
30
0.0
11
70.400000
21
1.600000
31
0.0
0
ARC
8
0
10
70.400000
20
2.100000
30
0.0
40
0.500000
50
270.000000
51
0.000000
0
LINE
8
0
10
70.900000
20
2.100000
30
0.0
11
70.900000
21
6.500000
31
0.0
0
ARC
8
0
10
71.200000
20
6.500000
30
0.0
40
0.300000
50
90.000000
51
180.000000
0
LINE
8
0
10
71.200000
20
6.800000
30
0.0
11
72.100000
21
6.800000
31
0.0
0
ARC
8
0
10
72.100000
20
6.500000
30
0.0
40
0.300000
50
0.000000
51
90.000000
0
LINE
8
0
10
72.400000
20
6.500000
30
0.0
11
72.400000
21
0.403248
31
0.0
0
ARC
8
0
10
72.094382
20
0.405575
30
0.0
40
0.305627
50
270.000000
51
0.000000
0
LINE
8
0
10
72.100000
20
0.100000
30
0.0
11
7.401812
21
0.100000
31
0.0
0
ARC
8
0
10
7.401812
20
0.400000
30
0.0
40
0.300000
50
180.000000
51
270.000000
0
LINE
8
0
10
7.101812
20
0.400000
30
0.0
11
7.101812
21
1.296752
31
0.0
0
ARC
8
0
10
7.401812
20
1.296752
30
0.0
40
0.300000
50
116.233744
51
180.000000
0
ARC
8
0
10
7.136592
20
1.834950
30
0.0
40
0.300000
50
296.233744
51
66.420102
0
ARC
8
0
10
0.500000
20
15.498465
30
0.0
40
0.500000
50
180.000000
51
270.000000
0
LINE
8
0
10
0.000000
20
15.498465
30
0.0
11
0.000000
21
21.899887
31
0.0
0
ARC
8
0
10
1.000000
20
21.899887
30
0.0
40
1.000000
50
90.000000
51
180.000000
0
LINE
8
0
10
1.000000
20
22.899887
30
0.0
11
1.418101
21
22.899887
31
0.0
0
ARC
8
0
10
1.418101
20
22.399887
30
0.0
40
0.500000
50
15.000000
51
90.000000
0
LINE
8
0
10
1.901063
20
22.529296
30
0.0
11
2.801056
21
19.170477
31
0.0
0
ARC
8
0
10
3.284019
20
19.299887
30
0.0
40
0.500000
50
195.000000
51
270.000000
0
LINE
8
0
10
3.284019
20
18.799887
30
0.0
11
4.400000
21
18.799887
31
0.0
0
ARC
8
0
10
4.400000
20
18.099887
30
0.0
40
0.700000
50
0.000000
51
90.000000
0
ARC
8
0
10
4.800000
20
18.099887
30
0.0
40
0.300000
50
270.000000
51
0.000000
0
LINE
8
0
10
4.800000
20
17.799887
30
0.0
11
4.300000
21
17.799887
31
0.0
0
ARC
8
0
10
4.300000
20
17.499887
30
0.0
40
0.300000
50
90.000000
51
180.000000
0
LINE
8
0
10
4.000000
20
17.499887
30
0.0
11
4.000000
21
17.327237
31
0.0
0
ARC
8
0
10
5.000000
20
17.327237
30
0.0
40
1.000000
50
180.000000
51
240.000000
0
LINE
8
0
10
4.500000
20
16.461212
30
0.0
11
6.222243
21
15.466874
31
0.0
0
ARC
8
0
10
6.472243
20
15.899887
30
0.0
40
0.500000
50
240.000000
51
270.000000
0
LINE
8
0
10
6.472243
20
15.399887
30
0.0
11
6.727757
21
15.399887
31
0.0
0
ARC
8
0
10
6.727757
20
15.899887
30
0.0
40
0.500000
50
270.000000
51
300.000000
0
LINE
8
0
10
6.977757
20
15.466874
30
0.0
11
8.700000
21
16.461212
31
0.0
0
ARC
8
0
10
8.200000
20
17.327237
30
0.0
40
1.000000
50
300.000000
51
0.000000
0
LINE
8
0
10
9.200000
20
17.327237
30
0.0
11
9.200000
21
17.499887
31
0.0
0
ARC
8
0
10
8.900000
20
17.499887
30
0.0
40
0.300000
50
0.000000
51
90.000000
0
LINE
8
0
10
8.900000
20
17.799887
30
0.0
11
8.400000
21
17.799887
31
0.0
0
ARC
8
0
10
8.400000
20
18.099887
30
0.0
40
0.300000
50
180.000000
51
270.000000
0
ARC
8
0
10
8.800000
20
18.099887
30
0.0
40
0.700000
50
90.000000
51
180.000000
0
LINE
8
0
10
8.800000
20
18.799887
30
0.0
11
9.900000
21
18.799887
31
0.0
0
ARC
8
0
10
9.900000
20
18.299887
30
0.0
40
0.500000
50
0.000000
51
90.000000
0
LINE
8
0
10
10.400000
20
18.299887
30
0.0
11
10.400000
21
12.499887
31
0.0
0
ARC
8
0
10
10.100000
20
12.499887
30
0.0
40
0.300000
50
270.000000
51
0.000000
0
LINE
8
0
10
10.100000
20
12.199887
30
0.0
11
9.500000
21
12.199887
31
0.0
0
ARC
8
0
10
9.500000
20
11.899887
30
0.0
40
0.300000
50
90.000000
51
180.000000
0
LINE
8
0
10
9.200000
20
11.899887
30
0.0
11
9.200000
21
8.899887
31
0.0
0
ARC
8
0
10
9.500000
20
8.899887
30
0.0
40
0.300000
50
180.000000
51
270.000000
0
LINE
8
0
10
9.500000
20
8.599887
30
0.0
11
10.100000
21
8.599887
31
0.0
0
ARC
8
0
10
10.100000
20
8.299887
30
0.0
40
0.300000
50
0.000000
51
90.000000
0
LINE
8
0
10
10.400000
20
8.299887
30
0.0
11
10.400000
21
7.100000
31
0.0
0
ARC
8
0
10
10.700000
20
7.100000
30
0.0
40
0.300000
50
180.000000
51
270.000000
0
LINE
8
0
10
10.700000
20
6.800000
30
0.0
11
12.200000
21
6.800000
31
0.0
0
ARC
8
0
10
12.200000
20
6.500000
30
0.0
40
0.300000
50
0.000000
51
90.000000
0
LINE
8
0
10
12.500000
20
6.500000
30
0.0
11
12.500000
21
2.200000
31
0.0
0
ARC
8
0
10
12.000000
20
2.200000
30
0.0
40
0.500000
50
270.000000
51
0.000000
0
LINE
8
0
10
12.000000
20
1.700000
30
0.0
11
11.000000
21
1.700000
31
0.0
0
ARC
8
0
10
11.000000
20
4.200000
30
0.0
40
2.500000
50
215.327914
51
270.000000
0
ARC
8
0
10
6.512792
20
1.019597
30
0.0
40
3.000000
50
35.327914
51
72.414297
0
ARC
8
0
10
4.700000
20
-4.700000
30
0.0
40
9.000000
50
72.414297
51
85.698778
0
ARC
8
0
10
5.300000
20
3.277469
30
0.0
40
1.000000
50
85.698778
51
265.698778
0
ARC
8
0
10
4.700000
20
-4.700000
30
0.0
40
7.000000
50
73.923350
51
85.698778
0
ARC
8
0
10
6.500000
20
1.545799
30
0.0
40
0.500000
50
0.000000
51
73.923350
0
LINE
8
0
10
7.000000
20
1.545799
30
0.0
11
7.000000
21
0.500000
31
0.0
0
ARC
8
0
10
6.500000
20
0.500000
30
0.0
40
0.500000
50
270.000000
51
0.000000
0
LINE
8
0
10
6.500000
20
0.000000
30
0.0
11
0.500000
21
0.000000
31
0.0
0
ARC
8
0
10
0.500000
20
0.500000
30
0.0
40
0.500000
50
180.000000
51
270.000000
0
LINE
8
0
10
0.000000
20
0.500000
30
0.0
11
0.000000
21
5.199887
31
0.0
0
ARC
8
0
10
0.500000
20
5.199887
30
0.0
40
0.500000
50
90.000000
51
180.000000
0
LINE
8
0
10
0.500000
20
5.699887
30
0.0
11
0.800000
21
5.699887
31
0.0
0
ARC
8
0
10
0.800000
20
5.899887
30
0.0
40
0.200000
50
270.000000
51
0.000000
0
LINE
8
0
10
1.000000
20
5.899887
30
0.0
11
1.000000
21
6.349887
31
0.0
0
ARC
8
0
10
1.250000
20
6.349887
30
0.0
40
0.250000
50
90.000000
51
180.000000
0
LINE
8
0
10
1.250000
20
6.599887
30
0.0
11
1.650000
21
6.599887
31
0.0
0
ARC
8
0
10
1.650000
20
6.349887
30
0.0
40
0.250000
50
0.000000
51
90.000000
0
LINE
8
0
10
1.900000
20
6.349887
30
0.0
11
1.900000
21
5.899887
31
0.0
0
ARC
8
0
10
2.100000
20
5.899887
30
0.0
40
0.200000
50
180.000000
51
270.000000
0
LINE
8
0
10
2.100000
20
5.699887
30
0.0
11
3.092893
21
5.699887
31
0.0
0
ARC
8
0
10
3.092893
20
6.199887
30
0.0
40
0.500000
50
270.000000
51
315.000000
0
LINE
8
0
10
3.446447
20
5.846333
30
0.0
11
6.112132
21
8.512019
31
0.0
0
ARC
8
0
10
5.900000
20
8.724151
30
0.0
40
0.300000
50
315.000000
51
0.000000
0
LINE
8
0
10
6.200000
20
8.724151
30
0.0
11
6.200000
21
10.049887
31
0.0
0
LINE
8
0
10
6.200000
20
10.049887
30
0.0
11
6.500000
21
10.349887
31
0.0
0
LINE
8
0
10
6.500000
20
10.349887
30
0.0
11
6.200000
21
10.649887
31
0.0
0
LINE
8
0
10
6.200000
20
10.649887
30
0.0
11
6.200000
21
11.975623
31
0.0
0
ARC
8
0
10
5.900000
20
11.975623
30
0.0
40
0.300000
50
0.000000
51
45.000000
0
LINE
8
0
10
6.112132
20
12.187755
30
0.0
11
3.446447
21
14.853440
31
0.0
0
ARC
8
0
10
3.092893
20
14.499887
30
0.0
40
0.500000
50
45.000000
51
90.000000
0
LINE
8
0
10
3.092893
20
14.999887
30
0.0
11
2.100000
21
14.999887
31
0.0
0
ARC
8
0
10
2.100000
20
14.799887
30
0.0
40
0.200000
50
90.000000
51
180.000000
0
LINE
8
0
10
1.900000
20
14.799887
30
0.0
11
1.900000
21
14.349887
31
0.0
0
ARC
8
0
10
1.650000
20
14.349887
30
0.0
40
0.250000
50
270.000000
51
0.000000
0
LINE
8
0
10
1.650000
20
14.099887
30
0.0
11
1.250000
21
14.099887
31
0.0
0
ARC
8
0
10
1.250000
20
14.349887
30
0.0
40
0.250000
50
180.000000
51
270.000000
0
LINE
8
0
10
1.000000
20
14.349887
30
0.0
11
1.000000
21
14.799887
31
0.0
0
ARC
8
0
10
0.800000
20
14.799887
30
0.0
40
0.200000
50
0.000000
51
90.000000
0
LINE
8
0
10
0.800000
20
14.999887
30
0.0
11
0.500000
21
14.999887
31
0.0
0
ATTDEF
8
0
10
0.000000
20
0.000000
30
0.0
40
3.5
1

3

2
GLASS_MIN:0.000000
70
0
0
ATTDEF
8
0
10
0.000000
20
0.000000
30
0.0
40
3.5
1

3

2
GLASS_MAX:0.000000
70
0
0
ATTDEF
8
0
10
0.000000
20
0.000000
30
0.0
40
3.5
1

3

2
BL01:6500.000000,,1
70
0
0
ATTDEF
8
0
10
0.000000
20
0.000000
30
0.0
40
3.5
1

3

2
HW_START
70
0
0
ATTDEF
8
0
10
72.400009
20
43.800000
30
0.0
40
3.5
1

3

2
HW_END
70
0
0
ATTDEF
8
0
10
0.000000
20
0.000000
30
0.0
40
3.5
1

3

2
FP_LCS_ORIG
70
0
0
ATTDEF
8
0
10
10.000000
20
0.000000
30
0.0
40
3.5
1

3

2
FP_LCS_HOT
70
0
0
ATTDEF
8
0
10
0.000000
20
10.000000
30
0.0
40
3.5
1

3

2
FP_LCS_INTERN
70
0
0
ATTDEF
8
0
10
0.000000
20
0.000000
30
0.0
40
3.5
1

3

2
TDEV3:0
70
0
0
ATTDEF
8
0
10
0.000000
20
0.000000
30
0.0
40
3.5
1

3

2
TDEV4:0
70
0
0
ATTDEF
8
0
10
0.000000
20
0.000000
30
0.0
40
3.5
1

3

2
TDEV5:0
70
0
0
ATTDEF
8
0
10
0.000000
20
0.000000
30
0.0
40
3.5
1

3

2
PANE_WIDTH:57.5
70
0
0
ATTDEF
8
0
10
0.000000
20
0.000000
30
0.0
40
3.5
1

3

2
MIN_VETRO:0
70
0
0
ATTDEF
8
0
10
0.000000
20
0.000000
30
0.0
40
3.5
1

3

2
MAX_VETRO:0
70
0
0
ATTDEF
8
0
10
0.000000
20
0.000000
30
0.0
40
3.5
1

3

2
JX:0
70
0
0
ATTDEF
8
0
10
0.000000
20
0.000000
30
0.0
40
3.5
1

3

2
WX:0
70
0
0
ATTDEF
8
0
10
0.000000
20
0.000000
30
0.0
40
3.5
1

3

2
JY:0
70
0
0
ATTDEF
8
0
10
0.000000
20
0.000000
30
0.0
40
3.5
1

3

2
WY:0
70
0
0
ATTDEF
8
0
10
0.000000
20
0.000000
30
0.0
40
3.5
1

3

2
DESC:U10120 - N10909 - V31015
70
0
0
ATTDEF
8
0
10
0.000000
20
0.000000
30
0.0
40
3.5
1

3

2
DENS:0
70
0
0
ATTDEF
8
0
10
0.000000
20
0.000000
30
0.0
40
3.5
1

3

2
TDEV:0
70
0
0
ATTDEF
8
0
10
0.000000
20
0.000000
30
0.0
40
3.5
1

3

2
TDEV2:0
70
0
0
ATTDEF
8
0
10
0.000000
20
0.000000
30
0.0
40
3.5
1

3

2
TDEV3:0
70
0
0
ATTDEF
8
0
10
0.000000
20
0.000000
30
0.0
40
3.5
1

3

2
TDEV4:0
70
0
0
ATTDEF
8
0
10
0.000000
20
0.000000
30
0.0
40
3.5
1

3

2
TDEV5:0
70
0
0
ATTDEF
8
0
10
0.000000
20
0.000000
30
0.0
40
3.5
1

3

2
PANE_WIDTH:57.5
70
0
0
ATTDEF
8
0
10
0.000000
20
0.000000
30
0.0
40
3.5
1

3

2
MIN_VETRO:0
70
0
0
ATTDEF
8
0
10
0.000000
20
0.000000
30
0.0
40
3.5
1

3

2
MAX_VETRO:0
70
0
0
ATTDEF
8
0
10
0.000000
20
0.000000
30
0.0
40
3.5
1

3

2
JX:0
70
0
0
ATTDEF
8
0
10
0.000000
20
0.000000
30
0.0
40
3.5
1

3

2
WX:0
70
0
0
ATTDEF
8
0
10
0.000000
20
0.000000
30
0.0
40
3.5
1

3

2
JY:0
70
0
0
ATTDEF
8
0
10
0.000000
20
0.000000
30
0.0
40
3.5
1

3

2
WY:0
70
0
0
ENDSEC
0
EOF
