0
SECTION
2
ENTITIES
0
LINE
8
0
10
54.100000
20
57.800563
30
0.0
11
56.300000
21
57.800563
31
0.0
0
ARC
8
0
10
56.300000
20
58.100563
30
0.0
40
0.300000
50
270.000000
51
0.000000
0
LINE
8
0
10
56.600000
20
58.100563
30
0.0
11
56.600000
21
64.000000
31
0.0
0
ARC
8
0
10
56.900000
20
64.000000
30
0.0
40
0.300000
50
90.000000
51
180.000000
0
LINE
8
0
10
56.900000
20
64.300000
30
0.0
11
60.200000
21
64.300000
31
0.0
0
ARC
8
0
10
60.200000
20
64.000000
30
0.0
40
0.300000
50
0.000000
51
90.000000
0
LINE
8
0
10
60.500000
20
64.000000
30
0.0
11
60.500000
21
44.400563
31
0.0
0
ARC
8
0
10
60.200000
20
44.400563
30
0.0
40
0.300000
50
270.000000
51
0.000000
0
LINE
8
0
10
60.200000
20
44.100563
30
0.0
11
51.800000
21
44.100563
31
0.0
0
ARC
8
0
10
51.800000
20
44.400563
30
0.0
40
0.300000
50
180.000000
51
270.000000
0
LINE
8
0
10
51.500000
20
44.400563
30
0.0
11
51.500000
21
57.500563
31
0.0
0
ARC
8
0
10
51.800000
20
57.500563
30
0.0
40
0.300000
50
90.000000
51
180.000000
0
LINE
8
0
10
51.800000
20
57.800563
30
0.0
11
53.500000
21
57.800563
31
0.0
0
LINE
8
0
10
53.500000
20
57.800563
30
0.0
11
53.800000
21
58.100563
31
0.0
0
LINE
8
0
10
53.800000
20
58.100563
30
0.0
11
54.100000
21
57.800563
31
0.0
0
ARC
8
0
10
59.000000
20
32.700000
30
0.0
40
0.300000
50
270.000000
51
0.000000
0
LINE
8
0
10
59.300000
20
32.700000
30
0.0
11
59.300000
21
33.600000
31
0.0
0
ARC
8
0
10
59.600000
20
33.600000
30
0.0
40
0.300000
50
90.000000
51
180.000000
0
LINE
8
0
10
59.600000
20
33.900000
30
0.0
11
60.200000
21
33.900000
31
0.0
0
ARC
8
0
10
60.200000
20
33.600000
30
0.0
40
0.300000
50
0.000000
51
90.000000
0
LINE
8
0
10
60.500000
20
33.600000
30
0.0
11
60.500000
21
17.100000
31
0.0
0
ARC
8
0
10
60.200000
20
17.100000
30
0.0
40
0.300000
50
270.000000
51
0.000000
0
LINE
8
0
10
60.200000
20
16.800000
30
0.0
11
59.600000
21
16.800000
31
0.0
0
ARC
8
0
10
59.600000
20
17.100000
30
0.0
40
0.300000
50
180.000000
51
270.000000
0
LINE
8
0
10
59.300000
20
17.100000
30
0.0
11
59.300000
21
18.000000
31
0.0
0
ARC
8
0
10
59.000000
20
18.000000
30
0.0
40
0.300000
50
0.000000
51
90.000000
0
LINE
8
0
10
59.000000
20
18.300000
30
0.0
11
58.300000
21
18.300000
31
0.0
0
ARC
8
0
10
58.300000
20
18.000000
30
0.0
40
0.300000
50
90.000000
51
180.000000
0
LINE
8
0
10
58.000000
20
18.000000
30
0.0
11
58.000000
21
14.400000
31
0.0
0
ARC
8
0
10
58.300000
20
14.400000
30
0.0
40
0.300000
50
180.000000
51
270.000000
0
LINE
8
0
10
58.300000
20
14.100000
30
0.0
11
58.700000
21
14.100000
31
0.0
0
ARC
8
0
10
58.700000
20
14.400000
30
0.0
40
0.300000
50
270.000000
51
0.000000
0
LINE
8
0
10
59.000000
20
14.400000
30
0.0
11
59.000000
21
15.300000
31
0.0
0
ARC
8
0
10
59.300000
20
15.300000
30
0.0
40
0.300000
50
90.000000
51
180.000000
0
LINE
8
0
10
59.300000
20
15.600000
30
0.0
11
59.997977
21
15.600000
31
0.0
0
ARC
8
0
10
59.997977
20
15.300000
30
0.0
40
0.300000
50
0.000000
51
90.000000
0
LINE
8
0
10
60.297977
20
15.300000
30
0.0
11
60.297977
21
14.550000
31
0.0
0
ARC
8
0
10
60.597977
20
14.550000
30
0.0
40
0.300000
50
180.000000
51
240.000000
0
ARC
8
0
10
60.297977
20
14.030385
30
0.0
40
0.300000
50
0.000000
51
60.000000
0
LINE
8
0
10
60.597977
20
14.030385
30
0.0
11
60.597977
21
9.569616
31
0.0
0
ARC
8
0
10
60.297977
20
9.569616
30
0.0
40
0.300000
50
300.000000
51
0.000000
0
ARC
8
0
10
60.597977
20
9.050000
30
0.0
40
0.300000
50
120.000000
51
180.000000
0
LINE
8
0
10
60.297977
20
9.050000
30
0.0
11
60.297977
21
8.300000
31
0.0
0
ARC
8
0
10
59.997977
20
8.300000
30
0.0
40
0.300000
50
270.000000
51
0.000000
0
LINE
8
0
10
59.997977
20
8.000000
30
0.0
11
59.300000
21
8.000000
31
0.0
0
ARC
8
0
10
59.300000
20
8.300000
30
0.0
40
0.300000
50
180.000000
51
270.000000
0
LINE
8
0
10
59.000000
20
8.300000
30
0.0
11
59.000000
21
9.200000
31
0.0
0
ARC
8
0
10
58.700000
20
9.200000
30
0.0
40
0.300000
50
0.000000
51
90.000000
0
LINE
8
0
10
58.700000
20
9.500000
30
0.0
11
58.300000
21
9.500000
31
0.0
0
ARC
8
0
10
58.300000
20
9.200000
30
0.0
40
0.300000
50
90.000000
51
180.000000
0
LINE
8
0
10
58.000000
20
9.200000
30
0.0
11
58.000000
21
7.100000
31
0.0
0
ARC
8
0
10
58.300000
20
7.100000
30
0.0
40
0.300000
50
180.000000
51
270.000000
0
LINE
8
0
10
58.300000
20
6.800000
30
0.0
11
61.500000
21
6.800000
31
0.0
0
ARC
8
0
10
61.500000
20
7.300000
30
0.0
40
0.500000
50
270.000000
51
0.000000
0
LINE
8
0
10
62.000000
20
7.300000
30
0.0
11
62.000000
21
70.500000
31
0.0
0
ARC
8
0
10
61.700000
20
70.500000
30
0.0
40
0.300000
50
0.000000
51
90.000000
0
LINE
8
0
10
61.700000
20
70.800000
30
0.0
11
58.450555
21
70.800000
31
0.0
0
ARC
8
0
10
58.450555
20
70.500000
30
0.0
40
0.300000
50
90.000000
51
150.000000
0
LINE
8
0
10
58.190748
20
70.650000
30
0.0
11
57.740192
21
69.869616
31
0.0
0
ARC
8
0
10
58.000000
20
69.719616
30
0.0
40
0.300000
50
150.000000
51
180.000000
0
LINE
8
0
10
57.700000
20
69.719616
30
0.0
11
57.700000
21
69.600000
31
0.0
0
ARC
8
0
10
58.000000
20
69.600000
30
0.0
40
0.300000
50
180.000000
51
270.000000
0
LINE
8
0
10
58.000000
20
69.300000
30
0.0
11
59.900000
21
69.300000
31
0.0
0
ARC
8
0
10
59.900000
20
69.000000
30
0.0
40
0.300000
50
0.000000
51
90.000000
0
LINE
8
0
10
60.200000
20
69.000000
30
0.0
11
60.200000
21
66.100000
31
0.0
0
ARC
8
0
10
59.900000
20
66.100000
30
0.0
40
0.300000
50
270.000000
51
0.000000
0
LINE
8
0
10
59.900000
20
65.800000
30
0.0
11
54.730521
21
65.800000
31
0.0
0
ARC
8
0
10
54.730521
20
65.500000
30
0.0
40
0.300000
50
90.000000
51
109.778171
0
LINE
8
0
10
54.629007
20
65.782303
30
0.0
11
53.328683
21
65.314717
31
0.0
0
ARC
8
0
10
53.249164
20
65.535855
30
0.0
40
0.235000
50
204.000000
51
289.778171
0
ARC
8
0
10
52.813229
20
65.359441
30
0.0
40
0.235000
50
24.000000
51
90.000000
0
LINE
8
0
10
52.814786
20
65.594436
30
0.0
11
51.235857
21
65.604893
31
0.0
0
ARC
8
0
10
51.233870
20
65.304900
30
0.0
40
0.300000
50
90.000000
51
204.620541
0
LINE
8
0
10
50.961144
20
65.179918
30
0.0
11
51.909794
21
63.074402
31
0.0
0
ARC
8
0
10
52.183314
20
63.197638
30
0.0
40
0.300000
50
204.254172
51
244.620541
0
LINE
8
0
10
52.054731
20
62.926591
30
0.0
11
52.562153
21
62.685872
31
0.0
0
ARC
8
0
10
52.647876
20
62.866570
30
0.0
40
0.200000
50
244.620541
51
4.620541
0
LINE
8
0
10
52.847226
20
62.882681
30
0.0
11
52.837924
21
62.997776
31
0.0
0
ARC
8
0
10
53.136949
20
63.021943
30
0.0
40
0.300000
50
124.620541
51
184.620541
0
LINE
8
0
10
52.966507
20
63.268823
30
0.0
11
54.595264
21
64.393289
31
0.0
0
LINE
8
0
10
54.595264
20
64.393289
30
0.0
11
54.777973
21
64.474636
31
0.0
0
ARC
8
0
10
54.899975
20
64.200554
30
0.0
40
0.300009
50
311.812671
51
113.995287
0
ARC
8
0
10
55.300000
20
63.753349
30
0.0
40
0.300000
50
131.812671
51
180.000000
0
LINE
8
0
10
55.000000
20
63.753349
30
0.0
11
55.000000
21
59.900563
31
0.0
0
ARC
8
0
10
54.700000
20
59.900563
30
0.0
40
0.300000
50
270.000000
51
0.000000
0
LINE
8
0
10
54.700000
20
59.600563
30
0.0
11
54.478807
21
59.600563
31
0.0
0
ARC
8
0
10
54.478807
20
59.900563
30
0.0
40
0.300000
50
238.600000
51
270.000000
0
LINE
8
0
10
54.322504
20
59.644498
30
0.0
11
52.804202
21
60.571273
31
0.0
0
ARC
8
0
10
52.700000
20
60.400563
30
0.0
40
0.200000
50
58.600000
51
180.000000
0
LINE
8
0
10
52.500000
20
60.400563
30
0.0
11
52.500000
21
60.050563
31
0.0
0
ARC
8
0
10
52.200000
20
60.050563
30
0.0
40
0.300000
50
270.000000
51
0.000000
0
LINE
8
0
10
52.200000
20
59.750563
30
0.0
11
48.786766
21
59.750563
31
0.0
0
ARC
8
0
10
48.786766
20
58.750563
30
0.0
40
1.000000
50
90.000000
51
121.400000
0
LINE
8
0
10
48.265756
20
59.604114
30
0.0
11
47.978990
21
59.429071
31
0.0
0
ARC
8
0
10
48.500000
20
58.575520
30
0.0
40
1.000000
50
121.400000
51
180.000000
0
LINE
8
0
10
47.500000
20
58.575520
30
0.0
11
47.500000
21
57.149937
31
0.0
0
ARC
8
0
10
47.700000
20
57.149937
30
0.0
40
0.200000
50
180.000000
51
301.400000
0
LINE
8
0
10
47.804202
20
56.979227
30
0.0
11
49.322504
21
57.906002
31
0.0
0
ARC
8
0
10
49.478807
20
57.649937
30
0.0
40
0.300000
50
90.000000
51
121.400000
0
LINE
8
0
10
49.478807
20
57.949937
30
0.0
11
49.700000
21
57.949937
31
0.0
0
ARC
8
0
10
49.700000
20
57.649937
30
0.0
40
0.300000
50
0.000000
51
90.000000
0
LINE
8
0
10
50.000000
20
57.649937
30
0.0
11
50.000000
21
53.797151
31
0.0
0
ARC
8
0
10
50.300000
20
53.797151
30
0.0
40
0.300000
50
180.000000
51
228.187329
0
ARC
8
0
10
49.899975
20
53.349946
30
0.0
40
0.300009
50
246.004713
51
48.187329
0
LINE
8
0
10
49.777973
20
53.075864
30
0.0
11
49.595264
21
53.157211
31
0.0
0
LINE
8
0
10
49.595264
20
53.157211
30
0.0
11
47.966507
21
54.281677
31
0.0
0
ARC
8
0
10
48.136949
20
54.528557
30
0.0
40
0.300000
50
175.379459
51
235.379459
0
LINE
8
0
10
47.837924
20
54.552724
30
0.0
11
47.847226
21
54.667819
31
0.0
0
ARC
8
0
10
47.647876
20
54.683930
30
0.0
40
0.200000
50
355.379459
51
115.379459
0
LINE
8
0
10
47.562153
20
54.864628
30
0.0
11
47.054731
21
54.623909
31
0.0
0
ARC
8
0
10
47.183314
20
54.352862
30
0.0
40
0.300000
50
115.379459
51
155.745828
0
LINE
8
0
10
46.909794
20
54.476098
30
0.0
11
45.961144
21
52.370582
31
0.0
0
ARC
8
0
10
46.233870
20
52.245600
30
0.0
40
0.300000
50
155.379459
51
270.000000
0
LINE
8
0
10
46.235857
20
51.945607
30
0.0
11
47.814786
21
51.956064
31
0.0
0
ARC
8
0
10
47.813229
20
52.191059
30
0.0
40
0.235000
50
270.000000
51
336.000000
0
ARC
8
0
10
48.249164
20
52.014645
30
0.0
40
0.235000
50
70.221829
51
156.000000
0
LINE
8
0
10
48.328683
20
52.235783
30
0.0
11
49.801514
21
51.706165
31
0.0
0
ARC
8
0
10
49.700000
20
51.423862
30
0.0
40
0.300000
50
0.000000
51
70.221829
0
LINE
8
0
10
50.000000
20
51.423862
30
0.0
11
50.000000
21
44.600563
31
0.0
0
ARC
8
0
10
49.500000
20
44.600563
30
0.0
40
0.500000
50
270.000000
51
0.000000
0
ARC
8
0
10
49.500000
20
43.600563
30
0.0
40
0.500000
50
90.000000
51
180.000000
0
LINE
8
0
10
49.000000
20
43.600563
30
0.0
11
49.000000
21
43.100563
31
0.0
0
ARC
8
0
10
49.500000
20
43.100563
30
0.0
40
0.500000
50
180.000000
51
270.000000
0
LINE
8
0
10
49.500000
20
42.600563
30
0.0
11
53.500000
21
42.600563
31
0.0
0
LINE
8
0
10
53.500000
20
42.600563
30
0.0
11
53.800000
21
42.900563
31
0.0
0
LINE
8
0
10
53.800000
20
42.900563
30
0.0
11
54.100000
21
42.600563
31
0.0
0
LINE
8
0
10
54.100000
20
42.600563
30
0.0
11
59.246439
21
42.600563
31
0.0
0
ARC
8
0
10
59.246439
20
41.600563
30
0.0
40
1.000000
50
2.628630
51
90.000000
0
LINE
8
0
10
60.245387
20
41.646425
30
0.0
11
60.500000
21
36.100563
31
0.0
0
LINE
8
0
10
60.500000
20
36.100563
30
0.0
11
60.500000
21
35.400000
31
0.0
0
ARC
8
0
10
60.200000
20
35.400000
30
0.0
40
0.300000
50
270.000000
51
0.000000
0
LINE
8
0
10
60.200000
20
35.100000
30
0.0
11
58.300000
21
35.100000
31
0.0
0
ARC
8
0
10
58.300000
20
34.800000
30
0.0
40
0.300000
50
90.000000
51
180.000000
0
LINE
8
0
10
58.000000
20
34.800000
30
0.0
11
58.000000
21
32.700000
31
0.0
0
ARC
8
0
10
58.300000
20
32.700000
30
0.0
40
0.300000
50
180.000000
51
270.000000
0
LINE
8
0
10
58.300000
20
32.400000
30
0.0
11
59.000000
21
32.400000
31
0.0
0
ARC
8
0
10
1.800000
20
64.000000
30
0.0
40
0.300000
50
90.000000
51
180.000000
0
LINE
8
0
10
1.500000
20
64.000000
30
0.0
11
1.500000
21
44.400563
31
0.0
0
ARC
8
0
10
1.800000
20
44.400563
30
0.0
40
0.300000
50
180.000000
51
270.000000
0
LINE
8
0
10
1.800000
20
44.100563
30
0.0
11
10.200000
21
44.100563
31
0.0
0
ARC
8
0
10
10.200000
20
44.400563
30
0.0
40
0.300000
50
270.000000
51
0.000000
0
LINE
8
0
10
10.500000
20
44.400563
30
0.0
11
10.500000
21
57.500563
31
0.0
0
ARC
8
0
10
10.200000
20
57.500563
30
0.0
40
0.300000
50
0.000000
51
90.000000
0
LINE
8
0
10
10.200000
20
57.800563
30
0.0
11
8.500000
21
57.800563
31
0.0
0
LINE
8
0
10
8.500000
20
57.800563
30
0.0
11
8.200000
21
58.100563
31
0.0
0
LINE
8
0
10
8.200000
20
58.100563
30
0.0
11
7.900000
21
57.800563
31
0.0
0
LINE
8
0
10
7.900000
20
57.800563
30
0.0
11
5.700000
21
57.800563
31
0.0
0
ARC
8
0
10
5.700000
20
58.100563
30
0.0
40
0.300000
50
180.000000
51
270.000000
0
LINE
8
0
10
5.400000
20
58.100563
30
0.0
11
5.400000
21
64.000000
31
0.0
0
ARC
8
0
10
5.100000
20
64.000000
30
0.0
40
0.300000
50
0.000000
51
90.000000
0
LINE
8
0
10
5.100000
20
64.300000
30
0.0
11
1.800000
21
64.300000
31
0.0
0
ARC
8
0
10
1.800000
20
33.600000
30
0.0
40
0.300000
50
90.000000
51
180.000000
0
LINE
8
0
10
1.500000
20
33.600000
30
0.0
11
1.500000
21
17.100000
31
0.0
0
ARC
8
0
10
1.800000
20
17.100000
30
0.0
40
0.300000
50
180.000000
51
270.000000
0
LINE
8
0
10
1.800000
20
16.800000
30
0.0
11
2.400000
21
16.800000
31
0.0
0
ARC
8
0
10
2.400000
20
17.100000
30
0.0
40
0.300000
50
270.000000
51
0.000000
0
LINE
8
0
10
2.700000
20
17.100000
30
0.0
11
2.700000
21
18.000000
31
0.0
0
ARC
8
0
10
3.000000
20
18.000000
30
0.0
40
0.300000
50
90.000000
51
180.000000
0
LINE
8
0
10
3.000000
20
18.300000
30
0.0
11
3.700000
21
18.300000
31
0.0
0
ARC
8
0
10
3.700000
20
18.000000
30
0.0
40
0.300000
50
0.000000
51
90.000000
0
LINE
8
0
10
4.000000
20
18.000000
30
0.0
11
4.000000
21
14.400000
31
0.0
0
ARC
8
0
10
3.700000
20
14.400000
30
0.0
40
0.300000
50
270.000000
51
0.000000
0
LINE
8
0
10
3.700000
20
14.100000
30
0.0
11
3.300000
21
14.100000
31
0.0
0
ARC
8
0
10
3.300000
20
14.400000
30
0.0
40
0.300000
50
180.000000
51
270.000000
0
LINE
8
0
10
3.000000
20
14.400000
30
0.0
11
3.000000
21
15.300000
31
0.0
0
ARC
8
0
10
2.700000
20
15.300000
30
0.0
40
0.300000
50
0.000000
51
90.000000
0
LINE
8
0
10
2.700000
20
15.600000
30
0.0
11
2.002022
21
15.600000
31
0.0
0
ARC
8
0
10
2.002022
20
15.300000
30
0.0
40
0.300000
50
90.000000
51
180.000000
0
LINE
8
0
10
1.702022
20
15.300000
30
0.0
11
1.702022
21
14.550000
31
0.0
0
ARC
8
0
10
1.402022
20
14.550000
30
0.0
40
0.300000
50
300.000000
51
0.000000
0
ARC
8
0
10
1.702022
20
14.030385
30
0.0
40
0.300000
50
120.000000
51
180.000000
0
LINE
8
0
10
1.402022
20
14.030385
30
0.0
11
1.402022
21
9.569616
31
0.0
0
ARC
8
0
10
1.702022
20
9.569616
30
0.0
40
0.300000
50
180.000000
51
240.000000
0
ARC
8
0
10
1.402022
20
9.050000
30
0.0
40
0.300000
50
0.000000
51
60.000000
0
LINE
8
0
10
1.702022
20
9.050000
30
0.0
11
1.702022
21
8.300000
31
0.0
0
ARC
8
0
10
2.002022
20
8.300000
30
0.0
40
0.300000
50
180.000000
51
270.000000
0
LINE
8
0
10
2.002022
20
8.000000
30
0.0
11
2.700000
21
8.000000
31
0.0
0
ARC
8
0
10
2.700000
20
8.300000
30
0.0
40
0.300000
50
270.000000
51
0.000000
0
LINE
8
0
10
3.000000
20
8.300000
30
0.0
11
3.000000
21
9.200000
31
0.0
0
ARC
8
0
10
3.300000
20
9.200000
30
0.0
40
0.300000
50
90.000000
51
180.000000
0
LINE
8
0
10
3.300000
20
9.500000
30
0.0
11
3.700000
21
9.500000
31
0.0
0
ARC
8
0
10
3.700000
20
9.200000
30
0.0
40
0.300000
50
0.000000
51
90.000000
0
LINE
8
0
10
4.000000
20
9.200000
30
0.0
11
4.000000
21
7.100000
31
0.0
0
ARC
8
0
10
3.700000
20
7.100000
30
0.0
40
0.300000
50
270.000000
51
0.000000
0
LINE
8
0
10
3.700000
20
6.800000
30
0.0
11
0.500000
21
6.800000
31
0.0
0
ARC
8
0
10
0.500000
20
7.300000
30
0.0
40
0.500000
50
180.000000
51
270.000000
0
LINE
8
0
10
0.000000
20
7.300000
30
0.0
11
0.000000
21
88.500000
31
0.0
0
ARC
8
0
10
0.300000
20
88.500000
30
0.0
40
0.300000
50
90.000000
51
180.000000
0
LINE
8
0
10
0.300000
20
88.800000
30
0.0
11
4.200000
21
88.800000
31
0.0
0
ARC
8
0
10
4.200000
20
88.500000
30
0.0
40
0.300000
50
0.000000
51
90.000000
0
LINE
8
0
10
4.500000
20
88.500000
30
0.0
11
4.500000
21
87.000000
31
0.0
0
ARC
8
0
10
3.800000
20
87.000000
30
0.0
40
0.700000
50
270.000000
51
0.000000
0
ARC
8
0
10
3.800000
20
86.600000
30
0.0
40
0.300000
50
180.000000
51
270.000000
0
LINE
8
0
10
3.500000
20
86.600000
30
0.0
11
3.500000
21
87.300000
31
0.0
0
ARC
8
0
10
3.200000
20
87.300000
30
0.0
40
0.300000
50
0.000000
51
90.000000
0
LINE
8
0
10
3.200000
20
87.600000
30
0.0
11
2.000000
21
87.600000
31
0.0
0
ARC
8
0
10
2.000000
20
86.900000
30
0.0
40
0.700000
50
90.000000
51
180.000000
0
LINE
8
0
10
1.300000
20
86.900000
30
0.0
11
1.300000
21
80.700000
31
0.0
0
ARC
8
0
10
2.000000
20
80.700000
30
0.0
40
0.700000
50
180.000000
51
270.000000
0
LINE
8
0
10
2.000000
20
80.000000
30
0.0
11
3.200000
21
80.000000
31
0.0
0
ARC
8
0
10
3.200000
20
80.300000
30
0.0
40
0.300000
50
270.000000
51
0.000000
0
LINE
8
0
10
3.500000
20
80.300000
30
0.0
11
3.500000
21
81.000000
31
0.0
0
ARC
8
0
10
3.800000
20
81.000000
30
0.0
40
0.300000
50
90.000000
51
180.000000
0
ARC
8
0
10
3.800000
20
80.600000
30
0.0
40
0.700000
50
0.000000
51
90.000000
0
LINE
8
0
10
4.500000
20
80.600000
30
0.0
11
4.500000
21
77.600000
31
0.0
0
ARC
8
0
10
4.200000
20
77.600000
30
0.0
40
0.300000
50
270.000000
51
0.000000
0
LINE
8
0
10
4.200000
20
77.300000
30
0.0
11
3.800000
21
77.300000
31
0.0
0
ARC
8
0
10
3.800000
20
77.600000
30
0.0
40
0.300000
50
180.000000
51
270.000000
0
LINE
8
0
10
3.500000
20
77.600000
30
0.0
11
3.500000
21
78.500000
31
0.0
0
ARC
8
0
10
3.200000
20
78.500000
30
0.0
40
0.300000
50
0.000000
51
90.000000
0
LINE
8
0
10
3.200000
20
78.800000
30
0.0
11
1.800000
21
78.800000
31
0.0
0
ARC
8
0
10
1.800000
20
78.500000
30
0.0
40
0.300000
50
90.000000
51
180.000000
0
LINE
8
0
10
1.500000
20
78.500000
30
0.0
11
1.500000
21
72.300000
31
0.0
0
LINE
8
0
10
1.500000
20
72.300000
30
0.0
11
1.754613
21
66.754138
31
0.0
0
ARC
8
0
10
2.753561
20
66.800000
30
0.0
40
1.000000
50
182.628630
51
270.000000
0
LINE
8
0
10
2.753561
20
65.800000
30
0.0
11
7.269479
21
65.800000
31
0.0
0
ARC
8
0
10
7.269479
20
65.500000
30
0.0
40
0.300000
50
70.221829
51
90.000000
0
LINE
8
0
10
7.370993
20
65.782303
30
0.0
11
8.671317
21
65.314717
31
0.0
0
ARC
8
0
10
8.750836
20
65.535855
30
0.0
40
0.235000
50
250.221829
51
336.000000
0
ARC
8
0
10
9.186771
20
65.359441
30
0.0
40
0.235000
50
90.000000
51
156.000000
0
LINE
8
0
10
9.185214
20
65.594436
30
0.0
11
10.764142
21
65.604893
31
0.0
0
ARC
8
0
10
10.766129
20
65.304900
30
0.0
40
0.300000
50
335.379459
51
90.000000
0
LINE
8
0
10
11.038855
20
65.179918
30
0.0
11
10.090205
21
63.074402
31
0.0
0
ARC
8
0
10
9.816686
20
63.197638
30
0.0
40
0.300000
50
295.379459
51
335.745828
0
LINE
8
0
10
9.945269
20
62.926591
30
0.0
11
9.437846
21
62.685872
31
0.0
0
ARC
8
0
10
9.352124
20
62.866570
30
0.0
40
0.200000
50
175.379459
51
295.379459
0
LINE
8
0
10
9.152774
20
62.882681
30
0.0
11
9.162076
21
62.997776
31
0.0
0
ARC
8
0
10
8.863051
20
63.021943
30
0.0
40
0.300000
50
355.379459
51
55.379459
0
LINE
8
0
10
9.033493
20
63.268823
30
0.0
11
7.404736
21
64.393289
31
0.0
0
LINE
8
0
10
7.404736
20
64.393289
30
0.0
11
7.222027
21
64.474636
31
0.0
0
ARC
8
0
10
7.100025
20
64.200554
30
0.0
40
0.300009
50
66.004713
51
228.187329
0
ARC
8
0
10
6.700000
20
63.753349
30
0.0
40
0.300000
50
0.000000
51
48.187329
0
LINE
8
0
10
7.000000
20
63.753349
30
0.0
11
7.000000
21
59.900563
31
0.0
0
ARC
8
0
10
7.300000
20
59.900563
30
0.0
40
0.300000
50
180.000000
51
270.000000
0
LINE
8
0
10
7.300000
20
59.600563
30
0.0
11
7.521193
21
59.600563
31
0.0
0
ARC
8
0
10
7.521193
20
59.900563
30
0.0
40
0.300000
50
270.000000
51
301.400000
0
LINE
8
0
10
7.677496
20
59.644498
30
0.0
11
9.195798
21
60.571273
31
0.0
0
ARC
8
0
10
9.300000
20
60.400563
30
0.0
40
0.200000
50
0.000000
51
121.400000
0
LINE
8
0
10
9.500000
20
60.400563
30
0.0
11
9.500000
21
60.050563
31
0.0
0
ARC
8
0
10
9.800000
20
60.050563
30
0.0
40
0.300000
50
180.000000
51
270.000000
0
LINE
8
0
10
9.800000
20
59.750563
30
0.0
11
13.213234
21
59.750563
31
0.0
0
ARC
8
0
10
13.213234
20
58.750563
30
0.0
40
1.000000
50
58.600000
51
90.000000
0
LINE
8
0
10
13.734243
20
59.604114
30
0.0
11
14.021010
21
59.429071
31
0.0
0
ARC
8
0
10
13.500000
20
58.575520
30
0.0
40
1.000000
50
0.000000
51
58.600000
0
LINE
8
0
10
14.500000
20
58.575520
30
0.0
11
14.500000
21
57.149937
31
0.0
0
ARC
8
0
10
14.300000
20
57.149937
30
0.0
40
0.200000
50
238.600000
51
0.000000
0
LINE
8
0
10
14.195798
20
56.979227
30
0.0
11
12.677496
21
57.906002
31
0.0
0
ARC
8
0
10
12.521193
20
57.649937
30
0.0
40
0.300000
50
58.600000
51
90.000000
0
LINE
8
0
10
12.521193
20
57.949937
30
0.0
11
12.300000
21
57.949937
31
0.0
0
ARC
8
0
10
12.300000
20
57.649937
30
0.0
40
0.300000
50
90.000000
51
180.000000
0
LINE
8
0
10
12.000000
20
57.649937
30
0.0
11
12.000000
21
53.797151
31
0.0
0
ARC
8
0
10
11.700000
20
53.797151
30
0.0
40
0.300000
50
311.812671
51
0.000000
0
ARC
8
0
10
12.100025
20
53.349946
30
0.0
40
0.300009
50
131.812671
51
293.995287
0
LINE
8
0
10
12.222027
20
53.075864
30
0.0
11
12.404736
21
53.157211
31
0.0
0
LINE
8
0
10
12.404736
20
53.157211
30
0.0
11
14.033493
21
54.281677
31
0.0
0
ARC
8
0
10
13.863051
20
54.528557
30
0.0
40
0.300000
50
304.620541
51
4.620541
0
LINE
8
0
10
14.162076
20
54.552724
30
0.0
11
14.152774
21
54.667819
31
0.0
0
ARC
8
0
10
14.352124
20
54.683930
30
0.0
40
0.200000
50
64.620541
51
184.620541
0
LINE
8
0
10
14.437846
20
54.864628
30
0.0
11
14.945269
21
54.623909
31
0.0
0
ARC
8
0
10
14.816686
20
54.352862
30
0.0
40
0.300000
50
24.254172
51
64.620541
0
LINE
8
0
10
15.090205
20
54.476098
30
0.0
11
16.038855
21
52.370582
31
0.0
0
ARC
8
0
10
15.766129
20
52.245600
30
0.0
40
0.300000
50
270.000000
51
24.620541
0
LINE
8
0
10
15.764142
20
51.945607
30
0.0
11
14.185214
21
51.956064
31
0.0
0
ARC
8
0
10
14.186771
20
52.191059
30
0.0
40
0.235000
50
204.000000
51
270.000000
0
ARC
8
0
10
13.750836
20
52.014645
30
0.0
40
0.235000
50
24.000000
51
109.778171
0
LINE
8
0
10
13.671317
20
52.235783
30
0.0
11
12.198486
21
51.706165
31
0.0
0
ARC
8
0
10
12.300000
20
51.423862
30
0.0
40
0.300000
50
109.778171
51
180.000000
0
LINE
8
0
10
12.000000
20
51.423862
30
0.0
11
12.000000
21
44.600563
31
0.0
0
ARC
8
0
10
12.500000
20
44.600563
30
0.0
40
0.500000
50
180.000000
51
270.000000
0
ARC
8
0
10
12.500000
20
43.600563
30
0.0
40
0.500000
50
0.000000
51
90.000000
0
LINE
8
0
10
13.000000
20
43.600563
30
0.0
11
13.000000
21
43.100563
31
0.0
0
ARC
8
0
10
12.500000
20
43.100563
30
0.0
40
0.500000
50
270.000000
51
0.000000
0
LINE
8
0
10
12.500000
20
42.600563
30
0.0
11
8.500000
21
42.600563
31
0.0
0
LINE
8
0
10
8.500000
20
42.600563
30
0.0
11
8.200000
21
42.900563
31
0.0
0
LINE
8
0
10
8.200000
20
42.900563
30
0.0
11
7.900000
21
42.600563
31
0.0
0
LINE
8
0
10
7.900000
20
42.600563
30
0.0
11
2.753561
21
42.600563
31
0.0
0
ARC
8
0
10
2.753561
20
41.600563
30
0.0
40
1.000000
50
90.000000
51
177.371370
0
LINE
8
0
10
1.754613
20
41.646425
30
0.0
11
1.500000
21
36.100563
31
0.0
0
LINE
8
0
10
1.500000
20
36.100563
30
0.0
11
1.500000
21
35.400000
31
0.0
0
ARC
8
0
10
1.800000
20
35.400000
30
0.0
40
0.300000
50
180.000000
51
270.000000
0
LINE
8
0
10
1.800000
20
35.100000
30
0.0
11
3.700000
21
35.100000
31
0.0
0
ARC
8
0
10
3.700000
20
34.800000
30
0.0
40
0.300000
50
0.000000
51
90.000000
0
LINE
8
0
10
4.000000
20
34.800000
30
0.0
11
4.000000
21
32.700000
31
0.0
0
ARC
8
0
10
3.700000
20
32.700000
30
0.0
40
0.300000
50
270.000000
51
0.000000
0
LINE
8
0
10
3.700000
20
32.400000
30
0.0
11
3.000000
21
32.400000
31
0.0
0
ARC
8
0
10
3.000000
20
32.700000
30
0.0
40
0.300000
50
180.000000
51
270.000000
0
LINE
8
0
10
2.700000
20
32.700000
30
0.0
11
2.700000
21
33.600000
31
0.0
0
ARC
8
0
10
2.400000
20
33.600000
30
0.0
40
0.300000
50
0.000000
51
90.000000
0
LINE
8
0
10
2.400000
20
33.900000
30
0.0
11
1.800000
21
33.900000
31
0.0
0
LINE
8
0
10
9.114999
20
60.539423
30
0.0
11
7.706389
21
59.726763
31
0.0
0
ARC
8
0
10
7.606444
20
59.900000
30
0.0
40
0.200000
50
270.000000
51
299.981639
0
LINE
8
0
10
7.606444
20
59.700000
30
0.0
11
7.400000
21
59.700000
31
0.0
0
ARC
8
0
10
7.400000
20
60.100000
30
0.0
40
0.400000
50
180.000000
51
270.000000
0
LINE
8
0
10
7.000000
20
60.100000
30
0.0
11
7.000000
21
63.500000
31
0.0
0
ARC
8
0
10
7.400000
20
63.500000
30
0.0
40
0.400000
50
90.000000
51
180.000000
0
LINE
8
0
10
7.400000
20
63.900000
30
0.0
11
7.606444
21
63.900000
31
0.0
0
ARC
8
0
10
7.606444
20
63.700000
30
0.0
40
0.200000
50
60.018361
51
90.000000
0
LINE
8
0
10
7.706389
20
63.873237
30
0.0
11
9.114999
21
63.060577
31
0.0
0
ARC
8
0
10
9.714666
20
64.100000
30
0.0
40
1.200000
50
240.018361
51
270.000000
0
LINE
8
0
10
9.714666
20
62.900000
30
0.0
11
10.397368
21
62.900000
31
0.0
0
ARC
8
0
10
10.397368
20
63.200000
30
0.0
40
0.300000
50
270.000000
51
324.745828
0
LINE
8
0
10
10.642348
20
63.026839
30
0.0
11
12.453103
21
65.588602
31
0.0
0
ARC
8
0
10
12.861403
20
65.300000
30
0.0
40
0.500000
50
90.000000
51
144.745828
0
LINE
8
0
10
12.861403
20
65.800000
30
0.0
11
43.500000
21
65.800000
31
0.0
0
ARC
8
0
10
43.500000
20
66.300000
30
0.0
40
0.500000
50
270.000000
51
0.000000
0
LINE
8
0
10
44.000000
20
66.300000
30
0.0
11
44.000000
21
70.500000
31
0.0
0
ARC
8
0
10
44.300000
20
70.500000
30
0.0
40
0.300000
50
90.000000
51
180.000000
0
LINE
8
0
10
44.300000
20
70.800000
30
0.0
11
46.949445
21
70.800000
31
0.0
0
ARC
8
0
10
46.949445
20
70.500000
30
0.0
40
0.300000
50
30.000000
51
90.000000
0
LINE
8
0
10
47.209252
20
70.650000
30
0.0
11
47.659808
21
69.869615
31
0.0
0
ARC
8
0
10
47.400000
20
69.719615
30
0.0
40
0.300000
50
0.000000
51
30.000000
0
LINE
8
0
10
47.700000
20
69.719615
30
0.0
11
47.700000
21
69.600000
31
0.0
0
ARC
8
0
10
47.400000
20
69.600000
30
0.0
40
0.300000
50
270.000000
51
0.000000
0
LINE
8
0
10
47.400000
20
69.300000
30
0.0
11
46.000000
21
69.300000
31
0.0
0
ARC
8
0
10
46.000000
20
69.000000
30
0.0
40
0.300000
50
90.000000
51
180.000000
0
LINE
8
0
10
45.700000
20
69.000000
30
0.0
11
45.700000
21
66.300000
31
0.0
0
ARC
8
0
10
46.200000
20
66.300000
30
0.0
40
0.500000
50
180.000000
51
270.000000
0
LINE
8
0
10
46.200000
20
65.800000
30
0.0
11
49.138597
21
65.800000
31
0.0
0
ARC
8
0
10
49.138597
20
65.300000
30
0.0
40
0.500000
50
35.254172
51
90.000000
0
LINE
8
0
10
49.546897
20
65.588602
30
0.0
11
51.357652
21
63.026839
31
0.0
0
ARC
8
0
10
51.602632
20
63.200000
30
0.0
40
0.300000
50
215.254172
51
270.000000
0
LINE
8
0
10
51.602632
20
62.900000
30
0.0
11
52.285334
21
62.900000
31
0.0
0
ARC
8
0
10
52.285334
20
64.100000
30
0.0
40
1.200000
50
270.000000
51
299.981639
0
LINE
8
0
10
52.885001
20
63.060577
30
0.0
11
54.293611
21
63.873237
31
0.0
0
ARC
8
0
10
54.393555
20
63.700000
30
0.0
40
0.200000
50
90.000000
51
119.981639
0
LINE
8
0
10
54.393555
20
63.900000
30
0.0
11
54.600000
21
63.900000
31
0.0
0
ARC
8
0
10
54.600000
20
63.500000
30
0.0
40
0.400000
50
0.000000
51
90.000000
0
LINE
8
0
10
55.000000
20
63.500000
30
0.0
11
55.000000
21
60.100000
31
0.0
0
ARC
8
0
10
54.600000
20
60.100000
30
0.0
40
0.400000
50
270.000000
51
0.000000
0
LINE
8
0
10
54.600000
20
59.700000
30
0.0
11
54.393555
21
59.700000
31
0.0
0
ARC
8
0
10
54.393555
20
59.900000
30
0.0
40
0.200000
50
240.018361
51
270.000000
0
LINE
8
0
10
54.293611
20
59.726763
30
0.0
11
52.885001
21
60.539423
31
0.0
0
ARC
8
0
10
52.285334
20
59.500000
30
0.0
40
1.200000
50
60.018361
51
90.000000
0
LINE
8
0
10
52.285334
20
60.700000
30
0.0
11
50.826005
21
60.700000
31
0.0
0
ARC
8
0
10
50.826005
20
61.700000
30
0.0
40
1.000000
50
215.254172
51
270.000000
0
LINE
8
0
10
50.009406
20
61.122795
30
0.0
11
48.475671
21
63.292644
31
0.0
0
ARC
8
0
10
47.495752
20
62.599998
30
0.0
40
1.200000
50
35.254172
51
90.000000
0
LINE
8
0
10
47.495752
20
63.799998
30
0.0
11
14.504248
21
63.799998
31
0.0
0
ARC
8
0
10
14.504248
20
62.599998
30
0.0
40
1.200000
50
90.000000
51
144.745828
0
LINE
8
0
10
13.524328
20
63.292644
30
0.0
11
11.990594
21
61.122795
31
0.0
0
ARC
8
0
10
11.173995
20
61.700000
30
0.0
40
1.000000
50
270.000000
51
324.745828
0
LINE
8
0
10
11.173995
20
60.700000
30
0.0
11
9.714666
21
60.700000
31
0.0
0
ARC
8
0
10
9.714666
20
59.500000
30
0.0
40
1.200000
50
90.000000
51
119.981639
0
ARC
8
0
10
30.500000
20
55.823544
30
0.0
40
1.000000
50
180.000000
51
270.000000
0
LINE
8
0
10
29.500000
20
55.823544
30
0.0
11
29.500000
21
62.923544
31
0.0
0
ARC
8
0
10
29.200000
20
62.923544
30
0.0
40
0.300000
50
0.000000
51
90.000000
0
LINE
8
0
10
29.200000
20
63.223544
30
0.0
11
27.600000
21
63.223544
31
0.0
0
ARC
8
0
10
27.600000
20
62.923544
30
0.0
40
0.300000
50
90.000000
51
180.000000
0
LINE
8
0
10
27.300000
20
62.923544
30
0.0
11
27.300000
21
54.723544
31
0.0
0
ARC
8
0
10
26.300000
20
54.723544
30
0.0
40
1.000000
50
270.000000
51
0.000000
0
LINE
8
0
10
26.300000
20
53.723544
30
0.0
11
19.174834
21
53.723544
31
0.0
0
ARC
8
0
10
19.174834
20
54.723544
30
0.0
40
1.000000
50
215.254172
51
270.000000
0
LINE
8
0
10
18.358235
20
54.146339
30
0.0
11
16.835414
21
56.300748
31
0.0
0
ARC
8
0
10
16.018814
20
55.723544
30
0.0
40
1.000000
50
35.254172
51
90.000000
0
LINE
8
0
10
16.018814
20
56.723544
30
0.0
11
14.888000
21
56.723544
31
0.0
0
ARC
8
0
10
14.888000
20
57.923544
30
0.0
40
1.200000
50
240.018361
51
270.000000
0
LINE
8
0
10
14.288333
20
56.884121
30
0.0
11
12.706389
21
57.796781
31
0.0
0
ARC
8
0
10
12.606444
20
57.623544
30
0.0
40
0.200000
50
60.018361
51
90.000000
0
LINE
8
0
10
12.606444
20
57.823544
30
0.0
11
12.400000
21
57.823544
31
0.0
0
ARC
8
0
10
12.400000
20
57.423544
30
0.0
40
0.400000
50
90.000000
51
180.000000
0
LINE
8
0
10
12.000000
20
57.423544
30
0.0
11
12.000000
21
54.023544
31
0.0
0
ARC
8
0
10
12.400000
20
54.023544
30
0.0
40
0.400000
50
180.000000
51
270.000000
0
LINE
8
0
10
12.400000
20
53.623544
30
0.0
11
12.606444
21
53.623544
31
0.0
0
ARC
8
0
10
12.606444
20
53.823544
30
0.0
40
0.200000
50
270.000000
51
299.981639
0
LINE
8
0
10
12.706389
20
53.650307
30
0.0
11
14.288333
21
54.562966
31
0.0
0
ARC
8
0
10
14.888000
20
53.523544
30
0.0
40
1.200000
50
90.000000
51
119.981639
0
LINE
8
0
10
14.888000
20
54.723544
30
0.0
11
15.345738
21
54.723544
31
0.0
0
ARC
8
0
10
15.345738
20
54.423544
30
0.0
40
0.300000
50
35.254172
51
90.000000
0
LINE
8
0
10
15.590718
20
54.596705
30
0.0
11
17.252049
21
52.246339
31
0.0
0
ARC
8
0
10
18.068648
20
52.823544
30
0.0
40
1.000000
50
215.254172
51
270.000000
0
LINE
8
0
10
18.068648
20
51.823544
30
0.0
11
30.617157
21
51.823544
31
0.0
0
LINE
8
0
10
30.617157
20
51.823544
30
0.0
11
30.687868
21
51.852833
31
0.0
0
LINE
8
0
10
30.687868
20
51.852833
30
0.0
11
30.929289
21
52.094254
31
0.0
0
ARC
8
0
10
31.000000
20
52.023544
30
0.0
40
0.100000
50
45.000000
51
135.000000
0
LINE
8
0
10
31.070711
20
52.094254
30
0.0
11
31.312132
21
51.852833
31
0.0
0
LINE
8
0
10
31.312132
20
51.852833
30
0.0
11
31.382843
21
51.823544
31
0.0
0
LINE
8
0
10
31.382843
20
51.823544
30
0.0
11
43.931352
21
51.823544
31
0.0
0
ARC
8
0
10
43.931352
20
52.823544
30
0.0
40
1.000000
50
270.000000
51
324.745828
0
LINE
8
0
10
44.747951
20
52.246339
30
0.0
11
46.409282
21
54.596705
31
0.0
0
ARC
8
0
10
46.654262
20
54.423544
30
0.0
40
0.300000
50
90.000000
51
144.745828
0
LINE
8
0
10
46.654262
20
54.723544
30
0.0
11
47.112000
21
54.723544
31
0.0
0
ARC
8
0
10
47.112000
20
53.523544
30
0.0
40
1.200000
50
60.018361
51
90.000000
0
LINE
8
0
10
47.711667
20
54.562966
30
0.0
11
49.293611
21
53.650307
31
0.0
0
ARC
8
0
10
49.393555
20
53.823544
30
0.0
40
0.200000
50
240.018361
51
270.000000
0
LINE
8
0
10
49.393555
20
53.623544
30
0.0
11
49.600000
21
53.623544
31
0.0
0
ARC
8
0
10
49.600000
20
54.023544
30
0.0
40
0.400000
50
270.000000
51
0.000000
0
LINE
8
0
10
50.000000
20
54.023544
30
0.0
11
50.000000
21
57.423544
31
0.0
0
ARC
8
0
10
49.600000
20
57.423544
30
0.0
40
0.400000
50
0.000000
51
90.000000
0
LINE
8
0
10
49.600000
20
57.823544
30
0.0
11
49.393555
21
57.823544
31
0.0
0
ARC
8
0
10
49.393555
20
57.623544
30
0.0
40
0.200000
50
90.000000
51
119.981639
0
LINE
8
0
10
49.293611
20
57.796781
30
0.0
11
47.711667
21
56.884121
31
0.0
0
ARC
8
0
10
47.112000
20
57.923544
30
0.0
40
1.200000
50
270.000000
51
299.981639
0
LINE
8
0
10
47.112000
20
56.723544
30
0.0
11
45.981186
21
56.723544
31
0.0
0
ARC
8
0
10
45.981186
20
55.723544
30
0.0
40
1.000000
50
90.000000
51
144.745828
0
LINE
8
0
10
45.164586
20
56.300748
30
0.0
11
43.641765
21
54.146339
31
0.0
0
ARC
8
0
10
42.825165
20
54.723544
30
0.0
40
1.000000
50
270.000000
51
324.745828
0
LINE
8
0
10
42.825165
20
53.723544
30
0.0
11
35.700000
21
53.723544
31
0.0
0
ARC
8
0
10
35.700000
20
54.723544
30
0.0
40
1.000000
50
180.000000
51
270.000000
0
LINE
8
0
10
34.700000
20
54.723544
30
0.0
11
34.700000
21
62.923544
31
0.0
0
ARC
8
0
10
34.400000
20
62.923544
30
0.0
40
0.300000
50
0.000000
51
90.000000
0
LINE
8
0
10
34.400000
20
63.223544
30
0.0
11
32.800000
21
63.223544
31
0.0
0
ARC
8
0
10
32.800000
20
62.923544
30
0.0
40
0.300000
50
90.000000
51
180.000000
0
LINE
8
0
10
32.500000
20
62.923544
30
0.0
11
32.500000
21
55.823544
31
0.0
0
ARC
8
0
10
31.500000
20
55.823544
30
0.0
40
1.000000
50
270.000000
51
0.000000
0
LINE
8
0
10
31.500000
20
54.823544
30
0.0
11
30.500000
21
54.823544
31
0.0
0
ATTDEF
8
0
10
58.450555
20
70.800000
30
0.0
40
3.5
1

3

2
VC_START
70
0
0
ATTDEF
8
0
10
49.500000
20
42.600563
30
0.0
40
3.5
1

3

2
VC_END
70
0
0
ARC
8
0
10
68.063601
20
-4.580571
30
0.0
40
7.300000
50
99.375824
51
113.579898
0
ARC
8
0
10
67.161895
20
3.368449
30
0.0
40
0.800000
50
248.935524
51
126.784723
0
ARC
8
0
10
68.063601
20
-4.580571
30
0.0
40
8.700000
50
99.131874
51
109.799206
0
ARC
8
0
10
66.048188
20
1.017697
30
0.0
40
2.750000
50
109.799206
51
160.608769
0
ARC
8
0
10
62.982549
20
2.096752
30
0.0
40
0.500000
50
270.000000
51
340.608769
0
LINE
8
0
10
62.982549
20
1.596752
30
0.0
11
5.600000
21
1.596752
31
0.0
0
ARC
8
0
10
5.600000
20
1.896752
30
0.0
40
0.300000
50
180.000000
51
270.000000
0
LINE
8
0
10
5.300000
20
1.896752
30
0.0
11
5.300000
21
9.223794
31
0.0
0
ARC
8
0
10
4.800000
20
9.223794
30
0.0
40
0.500000
50
0.000000
51
35.000000
0
LINE
8
0
10
5.209576
20
9.510583
30
0.0
11
4.575029
21
10.416810
31
0.0
0
ARC
8
0
10
4.820775
20
10.588883
30
0.0
40
0.300000
50
145.000000
51
215.000000
0
LINE
8
0
10
4.575029
20
10.760956
30
0.0
11
5.209576
21
11.667183
31
0.0
0
ARC
8
0
10
4.800000
20
11.953971
30
0.0
40
0.500000
50
325.000000
51
145.000000
0
LINE
8
0
10
4.390424
20
12.240759
30
0.0
11
3.354254
21
10.760956
31
0.0
0
ARC
8
0
10
3.600000
20
10.588883
30
0.0
40
0.300000
50
145.000000
51
215.000000
0
LINE
8
0
10
3.354254
20
10.416810
30
0.0
11
4.045746
21
9.429258
31
0.0
0
ARC
8
0
10
3.800000
20
9.257185
30
0.0
40
0.300000
50
0.000000
51
35.000000
0
LINE
8
0
10
4.100000
20
9.257185
30
0.0
11
4.100000
21
1.900000
31
0.0
0
ARC
8
0
10
3.800000
20
1.900000
30
0.0
40
0.300000
50
270.000000
51
0.000000
0
LINE
8
0
10
3.800000
20
1.600000
30
0.0
11
2.000000
21
1.600000
31
0.0
0
ARC
8
0
10
2.000000
20
2.100000
30
0.0
40
0.500000
50
180.000000
51
270.000000
0
LINE
8
0
10
1.500000
20
2.100000
30
0.0
11
1.500000
21
6.500000
31
0.0
0
ARC
8
0
10
1.200000
20
6.500000
30
0.0
40
0.300000
50
0.000000
51
90.000000
0
LINE
8
0
10
1.200000
20
6.800000
30
0.0
11
0.300000
21
6.800000
31
0.0
0
ARC
8
0
10
0.300000
20
6.500000
30
0.0
40
0.300000
50
90.000000
51
180.000000
0
LINE
8
0
10
0.000000
20
6.500000
30
0.0
11
0.000000
21
0.403248
31
0.0
0
ARC
8
0
10
0.305618
20
0.405575
30
0.0
40
0.305627
50
180.000000
51
270.000000
0
LINE
8
0
10
0.300000
20
0.100000
30
0.0
11
64.998188
21
0.100000
31
0.0
0
ARC
8
0
10
64.998188
20
0.400000
30
0.0
40
0.300000
50
270.000000
51
0.000000
0
LINE
8
0
10
65.298188
20
0.400000
30
0.0
11
65.298188
21
1.296752
31
0.0
0
ARC
8
0
10
64.998188
20
1.296752
30
0.0
40
0.300000
50
0.000000
51
63.766256
0
ARC
8
0
10
65.263408
20
1.834950
30
0.0
40
0.300000
50
113.579898
51
243.766256
0
ARC
8
0
10
56.543783
20
12.590193
30
0.0
40
0.300000
50
120.000000
51
210.000000
0
LINE
8
0
10
56.283975
20
12.440193
30
0.0
11
56.340193
21
12.342820
31
0.0
0
ARC
8
0
10
54.014360
20
11.000000
30
0.0
40
2.685641
50
321.284751
51
30.000000
0
ARC
8
0
10
56.500000
20
9.007540
30
0.0
40
0.500000
50
141.284751
51
180.000000
0
LINE
8
0
10
56.000000
20
9.007540
30
0.0
11
56.000000
21
6.400000
31
0.0
0
ARC
8
0
10
57.000000
20
6.400000
30
0.0
40
1.000000
50
180.000000
51
270.000000
0
LINE
8
0
10
57.000000
20
5.400000
30
0.0
11
59.400000
21
5.400000
31
0.0
0
ARC
8
0
10
59.400000
20
4.900000
30
0.0
40
0.500000
50
0.000000
51
90.000000
0
LINE
8
0
10
59.900000
20
4.900000
30
0.0
11
59.900000
21
2.200000
31
0.0
0
ARC
8
0
10
60.400000
20
2.200000
30
0.0
40
0.500000
50
180.000000
51
270.000000
0
LINE
8
0
10
60.400000
20
1.700000
30
0.0
11
61.400000
21
1.700000
31
0.0
0
ARC
8
0
10
61.400000
20
4.200000
30
0.0
40
2.500000
50
270.000000
51
324.672086
0
ARC
8
0
10
65.887208
20
1.019597
30
0.0
40
3.000000
50
107.585703
51
144.672086
0
ARC
8
0
10
67.700000
20
-4.700000
30
0.0
40
9.000000
50
94.301222
51
107.585703
0
ARC
8
0
10
67.100000
20
3.277468
30
0.0
40
1.000000
50
274.301222
51
94.301222
0
ARC
8
0
10
67.700000
20
-4.700000
30
0.0
40
7.000000
50
94.301222
51
106.076650
0
ARC
8
0
10
65.900000
20
1.545799
30
0.0
40
0.500000
50
106.076650
51
180.000000
0
LINE
8
0
10
65.400000
20
1.545799
30
0.0
11
65.400000
21
0.500000
31
0.0
0
ARC
8
0
10
65.900000
20
0.500000
30
0.0
40
0.500000
50
180.000000
51
270.000000
0
LINE
8
0
10
65.900000
20
0.000000
30
0.0
11
71.900000
21
0.000000
31
0.0
0
ARC
8
0
10
71.900000
20
0.500000
30
0.0
40
0.500000
50
270.000000
51
0.000000
0
LINE
8
0
10
72.400000
20
0.500000
30
0.0
11
72.400000
21
2.700000
31
0.0
0
ARC
8
0
10
72.100000
20
2.700000
30
0.0
40
0.300000
50
0.000000
51
90.000000
0
LINE
8
0
10
72.100000
20
3.000000
30
0.0
11
71.700000
21
3.000000
31
0.0
0
ARC
8
0
10
71.700000
20
2.700000
30
0.0
40
0.300000
50
90.000000
51
180.000000
0
LINE
8
0
10
71.400000
20
2.700000
30
0.0
11
71.400000
21
1.800000
31
0.0
0
ARC
8
0
10
71.100000
20
1.800000
30
0.0
40
0.300000
50
270.000000
51
0.000000
0
LINE
8
0
10
71.100000
20
1.500000
30
0.0
11
70.200000
21
1.500000
31
0.0
0
ARC
8
0
10
70.200000
20
1.800000
30
0.0
40
0.300000
50
180.000000
51
270.000000
0
LINE
8
0
10
69.900000
20
1.800000
30
0.0
11
69.900000
21
8.700000
31
0.0
0
ARC
8
0
10
70.200000
20
8.700000
30
0.0
40
0.300000
50
90.000000
51
180.000000
0
LINE
8
0
10
70.200000
20
9.000000
30
0.0
11
71.100000
21
9.000000
31
0.0
0
ARC
8
0
10
71.100000
20
8.700000
30
0.0
40
0.300000
50
0.000000
51
90.000000
0
LINE
8
0
10
71.400000
20
8.700000
30
0.0
11
71.400000
21
7.800000
31
0.0
0
ARC
8
0
10
71.700000
20
7.800000
30
0.0
40
0.300000
50
180.000000
51
270.000000
0
LINE
8
0
10
71.700000
20
7.500000
30
0.0
11
72.100000
21
7.500000
31
0.0
0
ARC
8
0
10
72.100000
20
7.800000
30
0.0
40
0.300000
50
270.000000
51
0.000000
0
LINE
8
0
10
72.400000
20
7.800000
30
0.0
11
72.400000
21
25.300000
31
0.0
0
ARC
8
0
10
71.900000
20
25.300000
30
0.0
40
0.500000
50
0.000000
51
90.000000
0
LINE
8
0
10
71.900000
20
25.800000
30
0.0
11
71.600000
21
25.800000
31
0.0
0
ARC
8
0
10
71.600000
20
26.000000
30
0.0
40
0.200000
50
180.000000
51
270.000000
0
LINE
8
0
10
71.400000
20
26.000000
30
0.0
11
71.400000
21
26.450000
31
0.0
0
ARC
8
0
10
71.150000
20
26.450000
30
0.0
40
0.250000
50
0.000000
51
90.000000
0
LINE
8
0
10
71.150000
20
26.700000
30
0.0
11
70.750000
21
26.700000
31
0.0
0
ARC
8
0
10
70.750000
20
26.450000
30
0.0
40
0.250000
50
90.000000
51
180.000000
0
LINE
8
0
10
70.500000
20
26.450000
30
0.0
11
70.500000
21
26.000000
31
0.0
0
ARC
8
0
10
70.300000
20
26.000000
30
0.0
40
0.200000
50
270.000000
51
0.000000
0
LINE
8
0
10
70.300000
20
25.800000
30
0.0
11
69.307107
21
25.800000
31
0.0
0
ARC
8
0
10
69.307107
20
26.300000
30
0.0
40
0.500000
50
225.000000
51
270.000000
0
LINE
8
0
10
68.953554
20
25.946447
30
0.0
11
66.287868
21
28.612132
31
0.0
0
ARC
8
0
10
66.500000
20
28.824264
30
0.0
40
0.300000
50
180.000000
51
225.000000
0
LINE
8
0
10
66.200000
20
28.824264
30
0.0
11
66.200000
21
30.150000
31
0.0
0
LINE
8
0
10
66.200000
20
30.150000
30
0.0
11
65.900000
21
30.450000
31
0.0
0
LINE
8
0
10
65.900000
20
30.450000
30
0.0
11
66.200000
21
30.750000
31
0.0
0
LINE
8
0
10
66.200000
20
30.750000
30
0.0
11
66.200000
21
32.075736
31
0.0
0
ARC
8
0
10
66.500000
20
32.075736
30
0.0
40
0.300000
50
135.000000
51
180.000000
0
LINE
8
0
10
66.287868
20
32.287868
30
0.0
11
68.953554
21
34.953554
31
0.0
0
ARC
8
0
10
69.307107
20
34.600000
30
0.0
40
0.500000
50
90.000000
51
135.000000
0
LINE
8
0
10
69.307107
20
35.100000
30
0.0
11
70.300000
21
35.100000
31
0.0
0
ARC
8
0
10
70.300000
20
34.900000
30
0.0
40
0.200000
50
0.000000
51
90.000000
0
LINE
8
0
10
70.500000
20
34.900000
30
0.0
11
70.500000
21
34.450000
31
0.0
0
ARC
8
0
10
70.750000
20
34.450000
30
0.0
40
0.250000
50
180.000000
51
270.000000
0
LINE
8
0
10
70.750000
20
34.200000
30
0.0
11
71.150000
21
34.200000
31
0.0
0
ARC
8
0
10
71.150000
20
34.450000
30
0.0
40
0.250000
50
270.000000
51
0.000000
0
LINE
8
0
10
71.400000
20
34.450000
30
0.0
11
71.400000
21
34.900000
31
0.0
0
ARC
8
0
10
71.600000
20
34.900000
30
0.0
40
0.200000
50
90.000000
51
180.000000
0
LINE
8
0
10
71.600000
20
35.100000
30
0.0
11
71.900000
21
35.100000
31
0.0
0
ARC
8
0
10
71.900000
20
35.600000
30
0.0
40
0.500000
50
270.000000
51
0.000000
0
LINE
8
0
10
72.400000
20
35.600000
30
0.0
11
72.400000
21
44.300000
31
0.0
0
ARC
8
0
10
71.400000
20
44.300000
30
0.0
40
1.000000
50
0.000000
51
90.000000
0
LINE
8
0
10
71.400000
20
45.300000
30
0.0
11
70.981900
21
45.300000
31
0.0
0
ARC
8
0
10
70.981900
20
44.800000
30
0.0
40
0.500000
50
90.000000
51
165.000000
0
LINE
8
0
10
70.498937
20
44.929410
30
0.0
11
69.598944
21
41.570591
31
0.0
0
ARC
8
0
10
69.115981
20
41.700000
30
0.0
40
0.500000
50
270.000000
51
345.000000
0
LINE
8
0
10
69.115981
20
41.200000
30
0.0
11
68.000000
21
41.200000
31
0.0
0
ARC
8
0
10
68.000000
20
40.500000
30
0.0
40
0.700000
50
90.000000
51
180.000000
0
ARC
8
0
10
67.600000
20
40.500000
30
0.0
40
0.300000
50
180.000000
51
270.000000
0
LINE
8
0
10
67.600000
20
40.200000
30
0.0
11
68.100000
21
40.200000
31
0.0
0
ARC
8
0
10
68.100000
20
39.900000
30
0.0
40
0.300000
50
0.000000
51
90.000000
0
LINE
8
0
10
68.400000
20
39.900000
30
0.0
11
68.400000
21
39.727350
31
0.0
0
ARC
8
0
10
67.400000
20
39.727350
30
0.0
40
1.000000
50
300.000000
51
0.000000
0
LINE
8
0
10
67.900000
20
38.861325
30
0.0
11
66.177757
21
37.866987
31
0.0
0
ARC
8
0
10
65.927757
20
38.300000
30
0.0
40
0.500000
50
270.000000
51
300.000000
0
LINE
8
0
10
65.927757
20
37.800000
30
0.0
11
65.672244
21
37.800000
31
0.0
0
ARC
8
0
10
65.672244
20
38.300000
30
0.0
40
0.500000
50
240.000000
51
270.000000
0
LINE
8
0
10
65.422244
20
37.866987
30
0.0
11
63.700000
21
38.861325
31
0.0
0
ARC
8
0
10
64.200000
20
39.727350
30
0.0
40
1.000000
50
180.000000
51
240.000000
0
LINE
8
0
10
63.200000
20
39.727350
30
0.0
11
63.200000
21
39.900000
31
0.0
0
ARC
8
0
10
63.500000
20
39.900000
30
0.0
40
0.300000
50
90.000000
51
180.000000
0
LINE
8
0
10
63.500000
20
40.200000
30
0.0
11
64.000000
21
40.200000
31
0.0
0
ARC
8
0
10
64.000000
20
40.500000
30
0.0
40
0.300000
50
270.000000
51
0.000000
0
ARC
8
0
10
63.600000
20
40.500000
30
0.0
40
0.700000
50
0.000000
51
90.000000
0
LINE
8
0
10
63.600000
20
41.200000
30
0.0
11
62.500000
21
41.200000
31
0.0
0
ARC
8
0
10
62.500000
20
40.700000
30
0.0
40
0.500000
50
90.000000
51
180.000000
0
LINE
8
0
10
62.000000
20
40.700000
30
0.0
11
62.000000
21
7.300000
31
0.0
0
ARC
8
0
10
61.500000
20
7.300000
30
0.0
40
0.500000
50
270.000000
51
0.000000
0
LINE
8
0
10
61.500000
20
6.800000
30
0.0
11
57.300000
21
6.800000
31
0.0
0
ARC
8
0
10
57.300000
20
7.100000
30
0.0
40
0.300000
50
180.000000
51
270.000000
0
LINE
8
0
10
57.000000
20
7.100000
30
0.0
11
57.000000
21
8.743920
31
0.0
0
ARC
8
0
10
57.300000
20
8.743920
30
0.0
40
0.300000
50
145.524622
51
180.000000
0
ARC
8
0
10
54.014360
20
11.000000
30
0.0
40
3.685641
50
325.524622
51
30.000000
0
LINE
8
0
10
57.206218
20
12.842820
30
0.0
11
57.150000
21
12.940193
31
0.0
0
ARC
8
0
10
56.890193
20
12.790193
30
0.0
40
0.300000
50
30.000000
51
120.000000
0
LINE
8
0
10
56.740193
20
13.050000
30
0.0
11
56.393783
21
12.850000
31
0.0
0
ARC
8
0
10
64.100000
20
27.405888
30
0.0
40
0.600000
50
45.000000
51
180.000000
0
LINE
8
0
10
63.500000
20
27.405888
30
0.0
11
63.500000
21
17.300000
31
0.0
0
ARC
8
0
10
64.000000
20
17.300000
30
0.0
40
0.500000
50
180.000000
51
270.000000
0
LINE
8
0
10
64.000000
20
16.800000
30
0.0
11
70.100000
21
16.800000
31
0.0
0
ARC
8
0
10
70.100000
20
17.300000
30
0.0
40
0.500000
50
270.000000
51
0.000000
0
LINE
8
0
10
70.600000
20
17.300000
30
0.0
11
70.600000
21
23.500000
31
0.0
0
ARC
8
0
10
70.100000
20
23.500000
30
0.0
40
0.500000
50
0.000000
51
90.000000
0
LINE
8
0
10
70.100000
20
24.000000
30
0.0
11
68.561523
21
24.000000
31
0.0
0
ARC
8
0
10
68.561523
20
24.500000
30
0.0
40
0.500000
50
225.000000
51
270.000000
0
LINE
8
0
10
68.207969
20
24.146447
30
0.0
11
64.524265
21
27.830152
31
0.0
0
ARC
8
0
10
64.000000
20
6.700000
30
0.0
40
0.500000
50
180.000000
51
270.000000
0
LINE
8
0
10
64.000000
20
6.200000
30
0.0
11
67.900000
21
6.200000
31
0.0
0
ARC
8
0
10
67.900000
20
6.700000
30
0.0
40
0.500000
50
270.000000
51
0.000000
0
LINE
8
0
10
68.400000
20
6.700000
30
0.0
11
68.400000
21
10.000000
31
0.0
0
ARC
8
0
10
68.900000
20
10.000000
30
0.0
40
0.500000
50
90.000000
51
180.000000
0
LINE
8
0
10
68.900000
20
10.500000
30
0.0
11
70.100000
21
10.500000
31
0.0
0
ARC
8
0
10
70.100000
20
11.000000
30
0.0
40
0.500000
50
270.000000
51
0.000000
0
LINE
8
0
10
70.600000
20
11.000000
30
0.0
11
70.600000
21
15.100000
31
0.0
0
ARC
8
0
10
70.100000
20
15.100000
30
0.0
40
0.500000
50
0.000000
51
90.000000
0
LINE
8
0
10
70.100000
20
15.600000
30
0.0
11
64.000000
21
15.600000
31
0.0
0
ARC
8
0
10
64.000000
20
15.100000
30
0.0
40
0.500000
50
90.000000
51
180.000000
0
LINE
8
0
10
63.500000
20
15.100000
30
0.0
11
63.500000
21
6.700000
31
0.0
0
LINE
8
0
10
69.621321
20
37.776669
30
0.0
11
68.852886
21
37.333013
31
0.0
0
ARC
8
0
10
69.102886
20
36.900000
30
0.0
40
0.500000
50
120.000000
51
270.000000
0
LINE
8
0
10
69.102886
20
36.400000
30
0.0
11
70.800000
21
36.400000
31
0.0
0
ARC
8
0
10
70.800000
20
36.700000
30
0.0
40
0.300000
50
270.000000
51
0.000000
0
LINE
8
0
10
71.100000
20
36.700000
30
0.0
11
71.100000
21
39.700000
31
0.0
0
ARC
8
0
10
70.800000
20
39.700000
30
0.0
40
0.300000
50
0.000000
51
90.000000
0
LINE
8
0
10
70.800000
20
40.000000
30
0.0
11
70.598872
21
40.000000
31
0.0
0
ARC
8
0
10
70.598872
20
39.700000
30
0.0
40
0.300000
50
90.000000
51
165.000000
0
LINE
8
0
10
70.309094
20
39.777646
30
0.0
11
69.854284
21
38.080272
31
0.0
0
ARC
8
0
10
69.371321
20
38.209682
30
0.0
40
0.500000
50
300.000000
51
345.000000
0
LINE
8
0
10
63.500000
20
33.494113
30
0.0
11
63.500000
21
36.032309
31
0.0
0
ARC
8
0
10
64.000000
20
36.032309
30
0.0
40
0.500000
50
60.000000
51
180.000000
0
LINE
8
0
10
64.250000
20
36.465321
30
0.0
11
66.012207
21
35.447911
31
0.0
0
ARC
8
0
10
65.762207
20
35.014898
30
0.0
40
0.500000
50
315.000000
51
60.000000
0
LINE
8
0
10
66.115761
20
34.661345
30
0.0
11
64.524265
21
33.069849
31
0.0
0
ARC
8
0
10
64.100000
20
33.494113
30
0.0
40
0.600000
50
180.000000
51
315.000000
0
LINE
8
0
10
71.191000
20
33.400557
30
0.0
11
70.010500
21
33.400557
31
0.0
0
ARC
8
0
10
70.010500
20
33.606557
30
0.0
40
0.206000
50
180.000000
51
270.000000
0
LINE
8
0
10
69.804500
20
33.606557
30
0.0
11
69.804500
21
33.989605
31
0.0
0
ARC
8
0
10
70.054500
20
33.989605
30
0.0
40
0.250000
50
143.257096
51
180.000000
0
LINE
8
0
10
69.854168
20
34.139161
30
0.0
11
70.096279
21
34.431342
31
0.0
0
ARC
8
0
10
70.273379
20
34.284592
30
0.0
40
0.230000
50
4.933670
51
140.353726
0
ARC
8
0
10
70.701786
20
34.321573
30
0.0
40
0.200000
50
184.933670
51
270.000000
0
LINE
8
0
10
70.701696
20
34.121573
30
0.0
11
71.191000
21
34.121354
31
0.0
0
ARC
8
0
10
71.191000
20
34.327354
30
0.0
40
0.206000
50
270.000000
51
0.000000
0
LINE
8
0
10
71.397000
20
34.327354
30
0.0
11
71.397000
21
34.744000
31
0.0
0
ARC
8
0
10
71.603000
20
34.744000
30
0.0
40
0.206000
50
90.000000
51
180.000000
0
LINE
8
0
10
71.603000
20
34.950000
30
0.0
11
72.000000
21
34.950000
31
0.0
0
ARC
8
0
10
72.000000
20
34.550000
30
0.0
40
0.400000
50
0.000000
51
90.000000
0
LINE
8
0
10
72.400000
20
34.550000
30
0.0
11
72.400000
21
26.350000
31
0.0
0
ARC
8
0
10
72.000000
20
26.350000
30
0.0
40
0.400000
50
270.000000
51
0.000000
0
LINE
8
0
10
72.000000
20
25.950000
30
0.0
11
71.603000
21
25.950000
31
0.0
0
ARC
8
0
10
71.603000
20
26.156000
30
0.0
40
0.206000
50
180.000000
51
270.000000
0
LINE
8
0
10
71.397000
20
26.156000
30
0.0
11
71.397000
21
26.572645
31
0.0
0
ARC
8
0
10
71.191000
20
26.572645
30
0.0
40
0.206000
50
0.000000
51
90.000000
0
LINE
8
0
10
71.191000
20
26.778645
30
0.0
11
70.701696
21
26.778427
31
0.0
0
ARC
8
0
10
70.701786
20
26.578427
30
0.0
40
0.200000
50
90.000000
51
175.066330
0
ARC
8
0
10
70.273379
20
26.615408
30
0.0
40
0.230000
50
219.646274
51
355.066330
0
LINE
8
0
10
70.096279
20
26.468657
30
0.0
11
69.854168
21
26.760838
31
0.0
0
ARC
8
0
10
70.054500
20
26.910395
30
0.0
40
0.250000
50
180.000000
51
216.742904
0
LINE
8
0
10
69.804500
20
26.910395
30
0.0
11
69.804500
21
27.293442
31
0.0
0
ARC
8
0
10
70.010500
20
27.293442
30
0.0
40
0.206000
50
90.000000
51
180.000000
0
LINE
8
0
10
70.010500
20
27.499442
30
0.0
11
71.191000
21
27.499442
31
0.0
0
ARC
8
0
10
71.191000
20
27.705442
30
0.0
40
0.206000
50
270.000000
51
0.000000
0
LINE
8
0
10
71.397000
20
27.705442
30
0.0
11
71.397000
21
30.450000
31
0.0
0
LINE
8
0
10
71.397000
20
30.450000
30
0.0
11
71.397000
21
33.194557
31
0.0
0
ARC
8
0
10
71.191000
20
33.194557
30
0.0
40
0.206000
50
0.000000
51
90.000000
0
ATTDEF
8
0
10
0.000000
20
0.000000
30
0.0
40
3.5
1

3

2
GLASS_MIN:0.000000
70
0
0
ATTDEF
8
0
10
0.000000
20
0.000000
30
0.0
40
3.5
1

3

2
GLASS_MAX:0.000000
70
0
0
ATTDEF
8
0
10
0.000000
20
0.000000
30
0.0
40
3.5
1

3

2
BL01:6500.000000,,1
70
0
0
ATTDEF
8
0
10
0.000000
20
0.000000
30
0.0
40
3.5
1

3

2
HW_START
70
0
0
ATTDEF
8
0
10
72.400000
20
88.800000
30
0.0
40
3.5
1

3

2
HW_END
70
0
0
ATTDEF
8
0
10
0.000000
20
0.000000
30
0.0
40
3.5
1

3

2
FP_LCS_ORIG
70
0
0
ATTDEF
8
0
10
10.000000
20
0.000000
30
0.0
40
3.5
1

3

2
FP_LCS_HOT
70
0
0
ATTDEF
8
0
10
0.000000
20
10.000000
30
0.0
40
3.5
1

3

2
FP_LCS_INTERN
70
0
0
ATTDEF
8
0
10
0.000000
20
0.000000
30
0.0
40
3.5
1

3

2
TDEV3:0
70
0
0
ATTDEF
8
0
10
0.000000
20
0.000000
30
0.0
40
3.5
1

3

2
TDEV4:0
70
0
0
ATTDEF
8
0
10
0.000000
20
0.000000
30
0.0
40
3.5
1

3

2
TDEV5:0
70
0
0
ATTDEF
8
0
10
0.000000
20
0.000000
30
0.0
40
3.5
1

3

2
PANE_WIDTH:57.5
70
0
0
ATTDEF
8
0
10
0.000000
20
0.000000
30
0.0
40
3.5
1

3

2
MIN_VETRO:0
70
0
0
ATTDEF
8
0
10
0.000000
20
0.000000
30
0.0
40
3.5
1

3

2
MAX_VETRO:0
70
0
0
ATTDEF
8
0
10
0.000000
20
0.000000
30
0.0
40
3.5
1

3

2
JX:0
70
0
0
ATTDEF
8
0
10
0.000000
20
0.000000
30
0.0
40
3.5
1

3

2
WX:0
70
0
0
ATTDEF
8
0
10
0.000000
20
0.000000
30
0.0
40
3.5
1

3

2
JY:0
70
0
0
ATTDEF
8
0
10
0.000000
20
0.000000
30
0.0
40
3.5
1

3

2
WY:0
70
0
0
ATTDEF
8
0
10
0.000000
20
0.000000
30
0.0
40
3.5
1

3

2
DESC:U10140 - N10909 - V31013 - 800167
70
0
0
ATTDEF
8
0
10
0.000000
20
0.000000
30
0.0
40
3.5
1

3

2
DENS:0
70
0
0
ATTDEF
8
0
10
0.000000
20
0.000000
30
0.0
40
3.5
1

3

2
TDEV:0
70
0
0
ATTDEF
8
0
10
0.000000
20
0.000000
30
0.0
40
3.5
1

3

2
TDEV2:0
70
0
0
ATTDEF
8
0
10
0.000000
20
0.000000
30
0.0
40
3.5
1

3

2
TDEV3:0
70
0
0
ATTDEF
8
0
10
0.000000
20
0.000000
30
0.0
40
3.5
1

3

2
TDEV4:0
70
0
0
ATTDEF
8
0
10
0.000000
20
0.000000
30
0.0
40
3.5
1

3

2
TDEV5:0
70
0
0
ATTDEF
8
0
10
0.000000
20
0.000000
30
0.0
40
3.5
1

3

2
PANE_WIDTH:57.5
70
0
0
ATTDEF
8
0
10
0.000000
20
0.000000
30
0.0
40
3.5
1

3

2
MIN_VETRO:0
70
0
0
ATTDEF
8
0
10
0.000000
20
0.000000
30
0.0
40
3.5
1

3

2
MAX_VETRO:0
70
0
0
ATTDEF
8
0
10
0.000000
20
0.000000
30
0.0
40
3.5
1

3

2
JX:0
70
0
0
ATTDEF
8
0
10
0.000000
20
0.000000
30
0.0
40
3.5
1

3

2
WX:0
70
0
0
ATTDEF
8
0
10
0.000000
20
0.000000
30
0.0
40
3.5
1

3

2
JY:0
70
0
0
ATTDEF
8
0
10
0.000000
20
0.000000
30
0.0
40
3.5
1

3

2
WY:0
70
0
0
ENDSEC
0
EOF
