0
SECTION
2
ENTITIES
0
LINE
8
0
10
64.500000
20
57.800563
30
0.0
11
66.700000
21
57.800563
31
0.0
0
ARC
8
0
10
66.700000
20
58.100563
30
0.0
40
0.300000
50
270.000000
51
0.000000
0
LINE
8
0
10
67.000000
20
58.100563
30
0.0
11
67.000000
21
64.000000
31
0.0
0
ARC
8
0
10
67.300000
20
64.000000
30
0.0
40
0.300000
50
90.000000
51
180.000000
0
LINE
8
0
10
67.300000
20
64.300000
30
0.0
11
70.600000
21
64.300000
31
0.0
0
ARC
8
0
10
70.600000
20
64.000000
30
0.0
40
0.300000
50
0.000000
51
90.000000
0
LINE
8
0
10
70.900000
20
64.000000
30
0.0
11
70.900000
21
44.400563
31
0.0
0
ARC
8
0
10
70.600000
20
44.400563
30
0.0
40
0.300000
50
270.000000
51
0.000000
0
LINE
8
0
10
70.600000
20
44.100563
30
0.0
11
62.200000
21
44.100563
31
0.0
0
ARC
8
0
10
62.200000
20
44.400563
30
0.0
40
0.300000
50
180.000000
51
270.000000
0
LINE
8
0
10
61.900000
20
44.400563
30
0.0
11
61.900000
21
57.500563
31
0.0
0
ARC
8
0
10
62.200000
20
57.500563
30
0.0
40
0.300000
50
90.000000
51
180.000000
0
LINE
8
0
10
62.200000
20
57.800563
30
0.0
11
63.900000
21
57.800563
31
0.0
0
LINE
8
0
10
63.900000
20
57.800563
30
0.0
11
64.200000
21
58.100563
31
0.0
0
LINE
8
0
10
64.200000
20
58.100563
30
0.0
11
64.500000
21
57.800563
31
0.0
0
ARC
8
0
10
69.400000
20
32.700000
30
0.0
40
0.300000
50
270.000000
51
0.000000
0
LINE
8
0
10
69.700000
20
32.700000
30
0.0
11
69.700000
21
33.600000
31
0.0
0
ARC
8
0
10
70.000000
20
33.600000
30
0.0
40
0.300000
50
90.000000
51
180.000000
0
LINE
8
0
10
70.000000
20
33.900000
30
0.0
11
70.600000
21
33.900000
31
0.0
0
ARC
8
0
10
70.600000
20
33.600000
30
0.0
40
0.300000
50
0.000000
51
90.000000
0
LINE
8
0
10
70.900000
20
33.600000
30
0.0
11
70.900000
21
17.100000
31
0.0
0
ARC
8
0
10
70.600000
20
17.100000
30
0.0
40
0.300000
50
270.000000
51
0.000000
0
LINE
8
0
10
70.600000
20
16.800000
30
0.0
11
70.000000
21
16.800000
31
0.0
0
ARC
8
0
10
70.000000
20
17.100000
30
0.0
40
0.300000
50
180.000000
51
270.000000
0
LINE
8
0
10
69.700000
20
17.100000
30
0.0
11
69.700000
21
18.000000
31
0.0
0
ARC
8
0
10
69.400000
20
18.000000
30
0.0
40
0.300000
50
0.000000
51
90.000000
0
LINE
8
0
10
69.400000
20
18.300000
30
0.0
11
68.700000
21
18.300000
31
0.0
0
ARC
8
0
10
68.700000
20
18.000000
30
0.0
40
0.300000
50
90.000000
51
180.000000
0
LINE
8
0
10
68.400000
20
18.000000
30
0.0
11
68.400000
21
14.400000
31
0.0
0
ARC
8
0
10
68.700000
20
14.400000
30
0.0
40
0.300000
50
180.000000
51
270.000000
0
LINE
8
0
10
68.700000
20
14.100000
30
0.0
11
69.100000
21
14.100000
31
0.0
0
ARC
8
0
10
69.100000
20
14.400000
30
0.0
40
0.300000
50
270.000000
51
0.000000
0
LINE
8
0
10
69.400000
20
14.400000
30
0.0
11
69.400000
21
15.300000
31
0.0
0
ARC
8
0
10
69.700000
20
15.300000
30
0.0
40
0.300000
50
90.000000
51
180.000000
0
LINE
8
0
10
69.700000
20
15.600000
30
0.0
11
70.397977
21
15.600000
31
0.0
0
ARC
8
0
10
70.397977
20
15.300000
30
0.0
40
0.300000
50
0.000000
51
90.000000
0
LINE
8
0
10
70.697977
20
15.300000
30
0.0
11
70.697977
21
14.550000
31
0.0
0
ARC
8
0
10
70.997977
20
14.550000
30
0.0
40
0.300000
50
180.000000
51
240.000000
0
ARC
8
0
10
70.697977
20
14.030385
30
0.0
40
0.300000
50
0.000000
51
60.000000
0
LINE
8
0
10
70.997977
20
14.030385
30
0.0
11
70.997977
21
9.569616
31
0.0
0
ARC
8
0
10
70.697977
20
9.569616
30
0.0
40
0.300000
50
300.000000
51
0.000000
0
ARC
8
0
10
70.997977
20
9.050000
30
0.0
40
0.300000
50
120.000000
51
180.000000
0
LINE
8
0
10
70.697977
20
9.050000
30
0.0
11
70.697977
21
8.300000
31
0.0
0
ARC
8
0
10
70.397977
20
8.300000
30
0.0
40
0.300000
50
270.000000
51
0.000000
0
LINE
8
0
10
70.397977
20
8.000000
30
0.0
11
69.700000
21
8.000000
31
0.0
0
ARC
8
0
10
69.700000
20
8.300000
30
0.0
40
0.300000
50
180.000000
51
270.000000
0
LINE
8
0
10
69.400000
20
8.300000
30
0.0
11
69.400000
21
9.200000
31
0.0
0
ARC
8
0
10
69.100000
20
9.200000
30
0.0
40
0.300000
50
0.000000
51
90.000000
0
LINE
8
0
10
69.100000
20
9.500000
30
0.0
11
68.700000
21
9.500000
31
0.0
0
ARC
8
0
10
68.700000
20
9.200000
30
0.0
40
0.300000
50
90.000000
51
180.000000
0
LINE
8
0
10
68.400000
20
9.200000
30
0.0
11
68.400000
21
7.100000
31
0.0
0
ARC
8
0
10
68.700000
20
7.100000
30
0.0
40
0.300000
50
180.000000
51
270.000000
0
LINE
8
0
10
68.700000
20
6.800000
30
0.0
11
71.900000
21
6.800000
31
0.0
0
ARC
8
0
10
71.900000
20
7.300000
30
0.0
40
0.500000
50
270.000000
51
0.000000
0
LINE
8
0
10
72.400000
20
7.300000
30
0.0
11
72.400000
21
70.500000
31
0.0
0
ARC
8
0
10
72.100000
20
70.500000
30
0.0
40
0.300000
50
0.000000
51
90.000000
0
LINE
8
0
10
72.100000
20
70.800000
30
0.0
11
68.850555
21
70.800000
31
0.0
0
ARC
8
0
10
68.850555
20
70.500000
30
0.0
40
0.300000
50
90.000000
51
150.000000
0
LINE
8
0
10
68.590748
20
70.650000
30
0.0
11
68.140192
21
69.869616
31
0.0
0
ARC
8
0
10
68.400000
20
69.719616
30
0.0
40
0.300000
50
150.000000
51
180.000000
0
LINE
8
0
10
68.100000
20
69.719616
30
0.0
11
68.100000
21
69.600000
31
0.0
0
ARC
8
0
10
68.400000
20
69.600000
30
0.0
40
0.300000
50
180.000000
51
270.000000
0
LINE
8
0
10
68.400000
20
69.300000
30
0.0
11
70.300000
21
69.300000
31
0.0
0
ARC
8
0
10
70.300000
20
69.000000
30
0.0
40
0.300000
50
0.000000
51
90.000000
0
LINE
8
0
10
70.600000
20
69.000000
30
0.0
11
70.600000
21
66.100000
31
0.0
0
ARC
8
0
10
70.300000
20
66.100000
30
0.0
40
0.300000
50
270.000000
51
0.000000
0
LINE
8
0
10
70.300000
20
65.800000
30
0.0
11
65.130521
21
65.800000
31
0.0
0
ARC
8
0
10
65.130521
20
65.500000
30
0.0
40
0.300000
50
90.000000
51
109.778171
0
LINE
8
0
10
65.029007
20
65.782303
30
0.0
11
63.728683
21
65.314717
31
0.0
0
ARC
8
0
10
63.649164
20
65.535855
30
0.0
40
0.235000
50
204.000000
51
289.778171
0
ARC
8
0
10
63.213229
20
65.359441
30
0.0
40
0.235000
50
24.000000
51
90.000000
0
LINE
8
0
10
63.214786
20
65.594436
30
0.0
11
61.635857
21
65.604893
31
0.0
0
ARC
8
0
10
61.633870
20
65.304900
30
0.0
40
0.300000
50
90.000000
51
204.620541
0
LINE
8
0
10
61.361144
20
65.179918
30
0.0
11
62.309794
21
63.074402
31
0.0
0
ARC
8
0
10
62.583314
20
63.197638
30
0.0
40
0.300000
50
204.254172
51
244.620541
0
LINE
8
0
10
62.454731
20
62.926591
30
0.0
11
62.962153
21
62.685872
31
0.0
0
ARC
8
0
10
63.047876
20
62.866570
30
0.0
40
0.200000
50
244.620541
51
4.620541
0
LINE
8
0
10
63.247226
20
62.882681
30
0.0
11
63.237924
21
62.997776
31
0.0
0
ARC
8
0
10
63.536949
20
63.021943
30
0.0
40
0.300000
50
124.620541
51
184.620541
0
LINE
8
0
10
63.366507
20
63.268823
30
0.0
11
64.995264
21
64.393289
31
0.0
0
LINE
8
0
10
64.995264
20
64.393289
30
0.0
11
65.177973
21
64.474636
31
0.0
0
ARC
8
0
10
65.299975
20
64.200554
30
0.0
40
0.300009
50
311.812671
51
113.995287
0
ARC
8
0
10
65.700000
20
63.753349
30
0.0
40
0.300000
50
131.812671
51
180.000000
0
LINE
8
0
10
65.400000
20
63.753349
30
0.0
11
65.400000
21
59.900563
31
0.0
0
ARC
8
0
10
65.100000
20
59.900563
30
0.0
40
0.300000
50
270.000000
51
0.000000
0
LINE
8
0
10
65.100000
20
59.600563
30
0.0
11
64.878807
21
59.600563
31
0.0
0
ARC
8
0
10
64.878807
20
59.900563
30
0.0
40
0.300000
50
238.600000
51
270.000000
0
LINE
8
0
10
64.722504
20
59.644498
30
0.0
11
63.204202
21
60.571273
31
0.0
0
ARC
8
0
10
63.100000
20
60.400563
30
0.0
40
0.200000
50
58.600000
51
180.000000
0
LINE
8
0
10
62.900000
20
60.400563
30
0.0
11
62.900000
21
60.050563
31
0.0
0
ARC
8
0
10
62.600000
20
60.050563
30
0.0
40
0.300000
50
270.000000
51
0.000000
0
LINE
8
0
10
62.600000
20
59.750563
30
0.0
11
59.186766
21
59.750563
31
0.0
0
ARC
8
0
10
59.186766
20
58.750563
30
0.0
40
1.000000
50
90.000000
51
121.400000
0
LINE
8
0
10
58.665756
20
59.604114
30
0.0
11
58.378990
21
59.429071
31
0.0
0
ARC
8
0
10
58.900000
20
58.575520
30
0.0
40
1.000000
50
121.400000
51
180.000000
0
LINE
8
0
10
57.900000
20
58.575520
30
0.0
11
57.900000
21
57.149937
31
0.0
0
ARC
8
0
10
58.100000
20
57.149937
30
0.0
40
0.200000
50
180.000000
51
301.400000
0
LINE
8
0
10
58.204202
20
56.979227
30
0.0
11
59.722504
21
57.906002
31
0.0
0
ARC
8
0
10
59.878807
20
57.649937
30
0.0
40
0.300000
50
90.000000
51
121.400000
0
LINE
8
0
10
59.878807
20
57.949937
30
0.0
11
60.100000
21
57.949937
31
0.0
0
ARC
8
0
10
60.100000
20
57.649937
30
0.0
40
0.300000
50
0.000000
51
90.000000
0
LINE
8
0
10
60.400000
20
57.649937
30
0.0
11
60.400000
21
53.797151
31
0.0
0
ARC
8
0
10
60.700000
20
53.797151
30
0.0
40
0.300000
50
180.000000
51
228.187329
0
ARC
8
0
10
60.299975
20
53.349946
30
0.0
40
0.300009
50
246.004713
51
48.187329
0
LINE
8
0
10
60.177973
20
53.075864
30
0.0
11
59.995264
21
53.157211
31
0.0
0
LINE
8
0
10
59.995264
20
53.157211
30
0.0
11
58.366507
21
54.281677
31
0.0
0
ARC
8
0
10
58.536949
20
54.528557
30
0.0
40
0.300000
50
175.379459
51
235.379459
0
LINE
8
0
10
58.237924
20
54.552724
30
0.0
11
58.247226
21
54.667819
31
0.0
0
ARC
8
0
10
58.047876
20
54.683930
30
0.0
40
0.200000
50
355.379459
51
115.379459
0
LINE
8
0
10
57.962153
20
54.864628
30
0.0
11
57.454731
21
54.623909
31
0.0
0
ARC
8
0
10
57.583314
20
54.352862
30
0.0
40
0.300000
50
115.379459
51
155.745828
0
LINE
8
0
10
57.309794
20
54.476098
30
0.0
11
56.361144
21
52.370582
31
0.0
0
ARC
8
0
10
56.633870
20
52.245600
30
0.0
40
0.300000
50
155.379459
51
270.000000
0
LINE
8
0
10
56.635857
20
51.945607
30
0.0
11
58.214786
21
51.956064
31
0.0
0
ARC
8
0
10
58.213229
20
52.191059
30
0.0
40
0.235000
50
270.000000
51
336.000000
0
ARC
8
0
10
58.649164
20
52.014645
30
0.0
40
0.235000
50
70.221829
51
156.000000
0
LINE
8
0
10
58.728683
20
52.235783
30
0.0
11
60.201514
21
51.706165
31
0.0
0
ARC
8
0
10
60.100000
20
51.423862
30
0.0
40
0.300000
50
0.000000
51
70.221829
0
LINE
8
0
10
60.400000
20
51.423862
30
0.0
11
60.400000
21
44.600563
31
0.0
0
ARC
8
0
10
59.900000
20
44.600563
30
0.0
40
0.500000
50
270.000000
51
0.000000
0
ARC
8
0
10
59.900000
20
43.600563
30
0.0
40
0.500000
50
90.000000
51
180.000000
0
LINE
8
0
10
59.400000
20
43.600563
30
0.0
11
59.400000
21
43.100563
31
0.0
0
ARC
8
0
10
59.900000
20
43.100563
30
0.0
40
0.500000
50
180.000000
51
270.000000
0
LINE
8
0
10
59.900000
20
42.600563
30
0.0
11
63.900000
21
42.600563
31
0.0
0
LINE
8
0
10
63.900000
20
42.600563
30
0.0
11
64.200000
21
42.900563
31
0.0
0
LINE
8
0
10
64.200000
20
42.900563
30
0.0
11
64.500000
21
42.600563
31
0.0
0
LINE
8
0
10
64.500000
20
42.600563
30
0.0
11
69.646439
21
42.600563
31
0.0
0
ARC
8
0
10
69.646439
20
41.600563
30
0.0
40
1.000000
50
2.628630
51
90.000000
0
LINE
8
0
10
70.645387
20
41.646425
30
0.0
11
70.900000
21
36.100563
31
0.0
0
LINE
8
0
10
70.900000
20
36.100563
30
0.0
11
70.900000
21
35.400000
31
0.0
0
ARC
8
0
10
70.600000
20
35.400000
30
0.0
40
0.300000
50
270.000000
51
0.000000
0
LINE
8
0
10
70.600000
20
35.100000
30
0.0
11
68.700000
21
35.100000
31
0.0
0
ARC
8
0
10
68.700000
20
34.800000
30
0.0
40
0.300000
50
90.000000
51
180.000000
0
LINE
8
0
10
68.400000
20
34.800000
30
0.0
11
68.400000
21
32.700000
31
0.0
0
ARC
8
0
10
68.700000
20
32.700000
30
0.0
40
0.300000
50
180.000000
51
270.000000
0
LINE
8
0
10
68.700000
20
32.400000
30
0.0
11
69.400000
21
32.400000
31
0.0
0
ARC
8
0
10
12.200000
20
64.000000
30
0.0
40
0.300000
50
90.000000
51
180.000000
0
LINE
8
0
10
11.900000
20
64.000000
30
0.0
11
11.900000
21
44.400563
31
0.0
0
ARC
8
0
10
12.200000
20
44.400563
30
0.0
40
0.300000
50
180.000000
51
270.000000
0
LINE
8
0
10
12.200000
20
44.100563
30
0.0
11
20.600000
21
44.100563
31
0.0
0
ARC
8
0
10
20.600000
20
44.400563
30
0.0
40
0.300000
50
270.000000
51
0.000000
0
LINE
8
0
10
20.900000
20
44.400563
30
0.0
11
20.900000
21
57.500563
31
0.0
0
ARC
8
0
10
20.600000
20
57.500563
30
0.0
40
0.300000
50
0.000000
51
90.000000
0
LINE
8
0
10
20.600000
20
57.800563
30
0.0
11
18.900000
21
57.800563
31
0.0
0
LINE
8
0
10
18.900000
20
57.800563
30
0.0
11
18.600000
21
58.100563
31
0.0
0
LINE
8
0
10
18.600000
20
58.100563
30
0.0
11
18.300000
21
57.800563
31
0.0
0
LINE
8
0
10
18.300000
20
57.800563
30
0.0
11
16.100000
21
57.800563
31
0.0
0
ARC
8
0
10
16.100000
20
58.100563
30
0.0
40
0.300000
50
180.000000
51
270.000000
0
LINE
8
0
10
15.800000
20
58.100563
30
0.0
11
15.800000
21
64.000000
31
0.0
0
ARC
8
0
10
15.500000
20
64.000000
30
0.0
40
0.300000
50
0.000000
51
90.000000
0
LINE
8
0
10
15.500000
20
64.300000
30
0.0
11
12.200000
21
64.300000
31
0.0
0
ARC
8
0
10
12.200000
20
33.600000
30
0.0
40
0.300000
50
90.000000
51
180.000000
0
LINE
8
0
10
11.900000
20
33.600000
30
0.0
11
11.900000
21
17.100000
31
0.0
0
ARC
8
0
10
12.200000
20
17.100000
30
0.0
40
0.300000
50
180.000000
51
270.000000
0
LINE
8
0
10
12.200000
20
16.800000
30
0.0
11
12.800000
21
16.800000
31
0.0
0
ARC
8
0
10
12.800000
20
17.100000
30
0.0
40
0.300000
50
270.000000
51
0.000000
0
LINE
8
0
10
13.100000
20
17.100000
30
0.0
11
13.100000
21
18.000000
31
0.0
0
ARC
8
0
10
13.400000
20
18.000000
30
0.0
40
0.300000
50
90.000000
51
180.000000
0
LINE
8
0
10
13.400000
20
18.300000
30
0.0
11
14.100000
21
18.300000
31
0.0
0
ARC
8
0
10
14.100000
20
18.000000
30
0.0
40
0.300000
50
0.000000
51
90.000000
0
LINE
8
0
10
14.400000
20
18.000000
30
0.0
11
14.400000
21
14.400000
31
0.0
0
ARC
8
0
10
14.100000
20
14.400000
30
0.0
40
0.300000
50
270.000000
51
0.000000
0
LINE
8
0
10
14.100000
20
14.100000
30
0.0
11
13.700000
21
14.100000
31
0.0
0
ARC
8
0
10
13.700000
20
14.400000
30
0.0
40
0.300000
50
180.000000
51
270.000000
0
LINE
8
0
10
13.400000
20
14.400000
30
0.0
11
13.400000
21
15.300000
31
0.0
0
ARC
8
0
10
13.100000
20
15.300000
30
0.0
40
0.300000
50
0.000000
51
90.000000
0
LINE
8
0
10
13.100000
20
15.600000
30
0.0
11
12.402022
21
15.600000
31
0.0
0
ARC
8
0
10
12.402022
20
15.300000
30
0.0
40
0.300000
50
90.000000
51
180.000000
0
LINE
8
0
10
12.102022
20
15.300000
30
0.0
11
12.102022
21
14.550000
31
0.0
0
ARC
8
0
10
11.802022
20
14.550000
30
0.0
40
0.300000
50
300.000000
51
0.000000
0
ARC
8
0
10
12.102022
20
14.030385
30
0.0
40
0.300000
50
120.000000
51
180.000000
0
LINE
8
0
10
11.802022
20
14.030385
30
0.0
11
11.802022
21
9.569616
31
0.0
0
ARC
8
0
10
12.102022
20
9.569616
30
0.0
40
0.300000
50
180.000000
51
240.000000
0
ARC
8
0
10
11.802022
20
9.050000
30
0.0
40
0.300000
50
0.000000
51
60.000000
0
LINE
8
0
10
12.102022
20
9.050000
30
0.0
11
12.102022
21
8.300000
31
0.0
0
ARC
8
0
10
12.402022
20
8.300000
30
0.0
40
0.300000
50
180.000000
51
270.000000
0
LINE
8
0
10
12.402022
20
8.000000
30
0.0
11
13.100000
21
8.000000
31
0.0
0
ARC
8
0
10
13.100000
20
8.300000
30
0.0
40
0.300000
50
270.000000
51
0.000000
0
LINE
8
0
10
13.400000
20
8.300000
30
0.0
11
13.400000
21
9.200000
31
0.0
0
ARC
8
0
10
13.700000
20
9.200000
30
0.0
40
0.300000
50
90.000000
51
180.000000
0
LINE
8
0
10
13.700000
20
9.500000
30
0.0
11
14.100000
21
9.500000
31
0.0
0
ARC
8
0
10
14.100000
20
9.200000
30
0.0
40
0.300000
50
0.000000
51
90.000000
0
LINE
8
0
10
14.400000
20
9.200000
30
0.0
11
14.400000
21
7.100000
31
0.0
0
ARC
8
0
10
14.100000
20
7.100000
30
0.0
40
0.300000
50
270.000000
51
0.000000
0
LINE
8
0
10
14.100000
20
6.800000
30
0.0
11
10.900000
21
6.800000
31
0.0
0
ARC
8
0
10
10.900000
20
7.300000
30
0.0
40
0.500000
50
180.000000
51
270.000000
0
LINE
8
0
10
10.400000
20
7.300000
30
0.0
11
10.400000
21
88.500000
31
0.0
0
ARC
8
0
10
10.700000
20
88.500000
30
0.0
40
0.300000
50
90.000000
51
180.000000
0
LINE
8
0
10
10.700000
20
88.800000
30
0.0
11
14.600000
21
88.800000
31
0.0
0
ARC
8
0
10
14.600000
20
88.500000
30
0.0
40
0.300000
50
0.000000
51
90.000000
0
LINE
8
0
10
14.900000
20
88.500000
30
0.0
11
14.900000
21
87.000000
31
0.0
0
ARC
8
0
10
14.200000
20
87.000000
30
0.0
40
0.700000
50
270.000000
51
0.000000
0
ARC
8
0
10
14.200000
20
86.600000
30
0.0
40
0.300000
50
180.000000
51
270.000000
0
LINE
8
0
10
13.900000
20
86.600000
30
0.0
11
13.900000
21
87.300000
31
0.0
0
ARC
8
0
10
13.600000
20
87.300000
30
0.0
40
0.300000
50
0.000000
51
90.000000
0
LINE
8
0
10
13.600000
20
87.600000
30
0.0
11
12.400000
21
87.600000
31
0.0
0
ARC
8
0
10
12.400000
20
86.900000
30
0.0
40
0.700000
50
90.000000
51
180.000000
0
LINE
8
0
10
11.700000
20
86.900000
30
0.0
11
11.700000
21
80.700000
31
0.0
0
ARC
8
0
10
12.400000
20
80.700000
30
0.0
40
0.700000
50
180.000000
51
270.000000
0
LINE
8
0
10
12.400000
20
80.000000
30
0.0
11
13.600000
21
80.000000
31
0.0
0
ARC
8
0
10
13.600000
20
80.300000
30
0.0
40
0.300000
50
270.000000
51
0.000000
0
LINE
8
0
10
13.900000
20
80.300000
30
0.0
11
13.900000
21
81.000000
31
0.0
0
ARC
8
0
10
14.200000
20
81.000000
30
0.0
40
0.300000
50
90.000000
51
180.000000
0
ARC
8
0
10
14.200000
20
80.600000
30
0.0
40
0.700000
50
0.000000
51
90.000000
0
LINE
8
0
10
14.900000
20
80.600000
30
0.0
11
14.900000
21
77.600000
31
0.0
0
ARC
8
0
10
14.600000
20
77.600000
30
0.0
40
0.300000
50
270.000000
51
0.000000
0
LINE
8
0
10
14.600000
20
77.300000
30
0.0
11
14.200000
21
77.300000
31
0.0
0
ARC
8
0
10
14.200000
20
77.600000
30
0.0
40
0.300000
50
180.000000
51
270.000000
0
LINE
8
0
10
13.900000
20
77.600000
30
0.0
11
13.900000
21
78.500000
31
0.0
0
ARC
8
0
10
13.600000
20
78.500000
30
0.0
40
0.300000
50
0.000000
51
90.000000
0
LINE
8
0
10
13.600000
20
78.800000
30
0.0
11
12.200000
21
78.800000
31
0.0
0
ARC
8
0
10
12.200000
20
78.500000
30
0.0
40
0.300000
50
90.000000
51
180.000000
0
LINE
8
0
10
11.900000
20
78.500000
30
0.0
11
11.900000
21
72.300000
31
0.0
0
LINE
8
0
10
11.900000
20
72.300000
30
0.0
11
12.154613
21
66.754138
31
0.0
0
ARC
8
0
10
13.153561
20
66.800000
30
0.0
40
1.000000
50
182.628630
51
270.000000
0
LINE
8
0
10
13.153561
20
65.800000
30
0.0
11
17.669479
21
65.800000
31
0.0
0
ARC
8
0
10
17.669479
20
65.500000
30
0.0
40
0.300000
50
70.221829
51
90.000000
0
LINE
8
0
10
17.770993
20
65.782303
30
0.0
11
19.071317
21
65.314717
31
0.0
0
ARC
8
0
10
19.150836
20
65.535855
30
0.0
40
0.235000
50
250.221829
51
336.000000
0
ARC
8
0
10
19.586771
20
65.359441
30
0.0
40
0.235000
50
90.000000
51
156.000000
0
LINE
8
0
10
19.585214
20
65.594436
30
0.0
11
21.164142
21
65.604893
31
0.0
0
ARC
8
0
10
21.166129
20
65.304900
30
0.0
40
0.300000
50
335.379459
51
90.000000
0
LINE
8
0
10
21.438855
20
65.179918
30
0.0
11
20.490205
21
63.074402
31
0.0
0
ARC
8
0
10
20.216686
20
63.197638
30
0.0
40
0.300000
50
295.379459
51
335.745828
0
LINE
8
0
10
20.345269
20
62.926591
30
0.0
11
19.837846
21
62.685872
31
0.0
0
ARC
8
0
10
19.752124
20
62.866570
30
0.0
40
0.200000
50
175.379459
51
295.379459
0
LINE
8
0
10
19.552774
20
62.882681
30
0.0
11
19.562076
21
62.997776
31
0.0
0
ARC
8
0
10
19.263051
20
63.021943
30
0.0
40
0.300000
50
355.379459
51
55.379459
0
LINE
8
0
10
19.433493
20
63.268823
30
0.0
11
17.804736
21
64.393289
31
0.0
0
LINE
8
0
10
17.804736
20
64.393289
30
0.0
11
17.622027
21
64.474636
31
0.0
0
ARC
8
0
10
17.500025
20
64.200554
30
0.0
40
0.300009
50
66.004713
51
228.187329
0
ARC
8
0
10
17.100000
20
63.753349
30
0.0
40
0.300000
50
0.000000
51
48.187329
0
LINE
8
0
10
17.400000
20
63.753349
30
0.0
11
17.400000
21
59.900563
31
0.0
0
ARC
8
0
10
17.700000
20
59.900563
30
0.0
40
0.300000
50
180.000000
51
270.000000
0
LINE
8
0
10
17.700000
20
59.600563
30
0.0
11
17.921193
21
59.600563
31
0.0
0
ARC
8
0
10
17.921193
20
59.900563
30
0.0
40
0.300000
50
270.000000
51
301.400000
0
LINE
8
0
10
18.077496
20
59.644498
30
0.0
11
19.595798
21
60.571273
31
0.0
0
ARC
8
0
10
19.700000
20
60.400563
30
0.0
40
0.200000
50
0.000000
51
121.400000
0
LINE
8
0
10
19.900000
20
60.400563
30
0.0
11
19.900000
21
60.050563
31
0.0
0
ARC
8
0
10
20.200000
20
60.050563
30
0.0
40
0.300000
50
180.000000
51
270.000000
0
LINE
8
0
10
20.200000
20
59.750563
30
0.0
11
23.613234
21
59.750563
31
0.0
0
ARC
8
0
10
23.613234
20
58.750563
30
0.0
40
1.000000
50
58.600000
51
90.000000
0
LINE
8
0
10
24.134243
20
59.604114
30
0.0
11
24.421010
21
59.429071
31
0.0
0
ARC
8
0
10
23.900000
20
58.575520
30
0.0
40
1.000000
50
0.000000
51
58.600000
0
LINE
8
0
10
24.900000
20
58.575520
30
0.0
11
24.900000
21
57.149937
31
0.0
0
ARC
8
0
10
24.700000
20
57.149937
30
0.0
40
0.200000
50
238.600000
51
0.000000
0
LINE
8
0
10
24.595798
20
56.979227
30
0.0
11
23.077496
21
57.906002
31
0.0
0
ARC
8
0
10
22.921193
20
57.649937
30
0.0
40
0.300000
50
58.600000
51
90.000000
0
LINE
8
0
10
22.921193
20
57.949937
30
0.0
11
22.700000
21
57.949937
31
0.0
0
ARC
8
0
10
22.700000
20
57.649937
30
0.0
40
0.300000
50
90.000000
51
180.000000
0
LINE
8
0
10
22.400000
20
57.649937
30
0.0
11
22.400000
21
53.797151
31
0.0
0
ARC
8
0
10
22.100000
20
53.797151
30
0.0
40
0.300000
50
311.812671
51
0.000000
0
ARC
8
0
10
22.500025
20
53.349946
30
0.0
40
0.300009
50
131.812671
51
293.995287
0
LINE
8
0
10
22.622027
20
53.075864
30
0.0
11
22.804736
21
53.157211
31
0.0
0
LINE
8
0
10
22.804736
20
53.157211
30
0.0
11
24.433493
21
54.281677
31
0.0
0
ARC
8
0
10
24.263051
20
54.528557
30
0.0
40
0.300000
50
304.620541
51
4.620541
0
LINE
8
0
10
24.562076
20
54.552724
30
0.0
11
24.552774
21
54.667819
31
0.0
0
ARC
8
0
10
24.752124
20
54.683930
30
0.0
40
0.200000
50
64.620541
51
184.620541
0
LINE
8
0
10
24.837846
20
54.864628
30
0.0
11
25.345269
21
54.623909
31
0.0
0
ARC
8
0
10
25.216686
20
54.352862
30
0.0
40
0.300000
50
24.254172
51
64.620541
0
LINE
8
0
10
25.490205
20
54.476098
30
0.0
11
26.438855
21
52.370582
31
0.0
0
ARC
8
0
10
26.166129
20
52.245600
30
0.0
40
0.300000
50
270.000000
51
24.620541
0
LINE
8
0
10
26.164142
20
51.945607
30
0.0
11
24.585214
21
51.956064
31
0.0
0
ARC
8
0
10
24.586771
20
52.191059
30
0.0
40
0.235000
50
204.000000
51
270.000000
0
ARC
8
0
10
24.150836
20
52.014645
30
0.0
40
0.235000
50
24.000000
51
109.778171
0
LINE
8
0
10
24.071317
20
52.235783
30
0.0
11
22.598486
21
51.706165
31
0.0
0
ARC
8
0
10
22.700000
20
51.423862
30
0.0
40
0.300000
50
109.778171
51
180.000000
0
LINE
8
0
10
22.400000
20
51.423862
30
0.0
11
22.400000
21
44.600563
31
0.0
0
ARC
8
0
10
22.900000
20
44.600563
30
0.0
40
0.500000
50
180.000000
51
270.000000
0
ARC
8
0
10
22.900000
20
43.600563
30
0.0
40
0.500000
50
0.000000
51
90.000000
0
LINE
8
0
10
23.400000
20
43.600563
30
0.0
11
23.400000
21
43.100563
31
0.0
0
ARC
8
0
10
22.900000
20
43.100563
30
0.0
40
0.500000
50
270.000000
51
0.000000
0
LINE
8
0
10
22.900000
20
42.600563
30
0.0
11
18.900000
21
42.600563
31
0.0
0
LINE
8
0
10
18.900000
20
42.600563
30
0.0
11
18.600000
21
42.900563
31
0.0
0
LINE
8
0
10
18.600000
20
42.900563
30
0.0
11
18.300000
21
42.600563
31
0.0
0
LINE
8
0
10
18.300000
20
42.600563
30
0.0
11
13.153561
21
42.600563
31
0.0
0
ARC
8
0
10
13.153561
20
41.600563
30
0.0
40
1.000000
50
90.000000
51
177.371370
0
LINE
8
0
10
12.154613
20
41.646425
30
0.0
11
11.900000
21
36.100563
31
0.0
0
LINE
8
0
10
11.900000
20
36.100563
30
0.0
11
11.900000
21
35.400000
31
0.0
0
ARC
8
0
10
12.200000
20
35.400000
30
0.0
40
0.300000
50
180.000000
51
270.000000
0
LINE
8
0
10
12.200000
20
35.100000
30
0.0
11
14.100000
21
35.100000
31
0.0
0
ARC
8
0
10
14.100000
20
34.800000
30
0.0
40
0.300000
50
0.000000
51
90.000000
0
LINE
8
0
10
14.400000
20
34.800000
30
0.0
11
14.400000
21
32.700000
31
0.0
0
ARC
8
0
10
14.100000
20
32.700000
30
0.0
40
0.300000
50
270.000000
51
0.000000
0
LINE
8
0
10
14.100000
20
32.400000
30
0.0
11
13.400000
21
32.400000
31
0.0
0
ARC
8
0
10
13.400000
20
32.700000
30
0.0
40
0.300000
50
180.000000
51
270.000000
0
LINE
8
0
10
13.100000
20
32.700000
30
0.0
11
13.100000
21
33.600000
31
0.0
0
ARC
8
0
10
12.800000
20
33.600000
30
0.0
40
0.300000
50
0.000000
51
90.000000
0
LINE
8
0
10
12.800000
20
33.900000
30
0.0
11
12.200000
21
33.900000
31
0.0
0
LINE
8
0
10
19.514999
20
60.539423
30
0.0
11
18.106389
21
59.726763
31
0.0
0
ARC
8
0
10
18.006444
20
59.900000
30
0.0
40
0.200000
50
270.000000
51
299.981639
0
LINE
8
0
10
18.006444
20
59.700000
30
0.0
11
17.800000
21
59.700000
31
0.0
0
ARC
8
0
10
17.800000
20
60.100000
30
0.0
40
0.400000
50
180.000000
51
270.000000
0
LINE
8
0
10
17.400000
20
60.100000
30
0.0
11
17.400000
21
63.500000
31
0.0
0
ARC
8
0
10
17.800000
20
63.500000
30
0.0
40
0.400000
50
90.000000
51
180.000000
0
LINE
8
0
10
17.800000
20
63.900000
30
0.0
11
18.006444
21
63.900000
31
0.0
0
ARC
8
0
10
18.006444
20
63.700000
30
0.0
40
0.200000
50
60.018361
51
90.000000
0
LINE
8
0
10
18.106389
20
63.873237
30
0.0
11
19.514999
21
63.060577
31
0.0
0
ARC
8
0
10
20.114666
20
64.100000
30
0.0
40
1.200000
50
240.018361
51
270.000000
0
LINE
8
0
10
20.114666
20
62.900000
30
0.0
11
20.797368
21
62.900000
31
0.0
0
ARC
8
0
10
20.797368
20
63.200000
30
0.0
40
0.300000
50
270.000000
51
324.745828
0
LINE
8
0
10
21.042348
20
63.026839
30
0.0
11
22.853103
21
65.588602
31
0.0
0
ARC
8
0
10
23.261403
20
65.300000
30
0.0
40
0.500000
50
90.000000
51
144.745828
0
LINE
8
0
10
23.261403
20
65.800000
30
0.0
11
53.900000
21
65.800000
31
0.0
0
ARC
8
0
10
53.900000
20
66.300000
30
0.0
40
0.500000
50
270.000000
51
0.000000
0
LINE
8
0
10
54.400000
20
66.300000
30
0.0
11
54.400000
21
70.500000
31
0.0
0
ARC
8
0
10
54.700000
20
70.500000
30
0.0
40
0.300000
50
90.000000
51
180.000000
0
LINE
8
0
10
54.700000
20
70.800000
30
0.0
11
57.349445
21
70.800000
31
0.0
0
ARC
8
0
10
57.349445
20
70.500000
30
0.0
40
0.300000
50
30.000000
51
90.000000
0
LINE
8
0
10
57.609252
20
70.650000
30
0.0
11
58.059808
21
69.869615
31
0.0
0
ARC
8
0
10
57.800000
20
69.719615
30
0.0
40
0.300000
50
0.000000
51
30.000000
0
LINE
8
0
10
58.100000
20
69.719615
30
0.0
11
58.100000
21
69.600000
31
0.0
0
ARC
8
0
10
57.800000
20
69.600000
30
0.0
40
0.300000
50
270.000000
51
0.000000
0
LINE
8
0
10
57.800000
20
69.300000
30
0.0
11
56.400000
21
69.300000
31
0.0
0
ARC
8
0
10
56.400000
20
69.000000
30
0.0
40
0.300000
50
90.000000
51
180.000000
0
LINE
8
0
10
56.100000
20
69.000000
30
0.0
11
56.100000
21
66.300000
31
0.0
0
ARC
8
0
10
56.600000
20
66.300000
30
0.0
40
0.500000
50
180.000000
51
270.000000
0
LINE
8
0
10
56.600000
20
65.800000
30
0.0
11
59.538597
21
65.800000
31
0.0
0
ARC
8
0
10
59.538597
20
65.300000
30
0.0
40
0.500000
50
35.254172
51
90.000000
0
LINE
8
0
10
59.946897
20
65.588602
30
0.0
11
61.757652
21
63.026839
31
0.0
0
ARC
8
0
10
62.002632
20
63.200000
30
0.0
40
0.300000
50
215.254172
51
270.000000
0
LINE
8
0
10
62.002632
20
62.900000
30
0.0
11
62.685334
21
62.900000
31
0.0
0
ARC
8
0
10
62.685334
20
64.100000
30
0.0
40
1.200000
50
270.000000
51
299.981639
0
LINE
8
0
10
63.285001
20
63.060577
30
0.0
11
64.693611
21
63.873237
31
0.0
0
ARC
8
0
10
64.793555
20
63.700000
30
0.0
40
0.200000
50
90.000000
51
119.981639
0
LINE
8
0
10
64.793555
20
63.900000
30
0.0
11
65.000000
21
63.900000
31
0.0
0
ARC
8
0
10
65.000000
20
63.500000
30
0.0
40
0.400000
50
0.000000
51
90.000000
0
LINE
8
0
10
65.400000
20
63.500000
30
0.0
11
65.400000
21
60.100000
31
0.0
0
ARC
8
0
10
65.000000
20
60.100000
30
0.0
40
0.400000
50
270.000000
51
0.000000
0
LINE
8
0
10
65.000000
20
59.700000
30
0.0
11
64.793555
21
59.700000
31
0.0
0
ARC
8
0
10
64.793555
20
59.900000
30
0.0
40
0.200000
50
240.018361
51
270.000000
0
LINE
8
0
10
64.693611
20
59.726763
30
0.0
11
63.285001
21
60.539423
31
0.0
0
ARC
8
0
10
62.685334
20
59.500000
30
0.0
40
1.200000
50
60.018361
51
90.000000
0
LINE
8
0
10
62.685334
20
60.700000
30
0.0
11
61.226005
21
60.700000
31
0.0
0
ARC
8
0
10
61.226005
20
61.700000
30
0.0
40
1.000000
50
215.254172
51
270.000000
0
LINE
8
0
10
60.409406
20
61.122795
30
0.0
11
58.875671
21
63.292644
31
0.0
0
ARC
8
0
10
57.895752
20
62.599998
30
0.0
40
1.200000
50
35.254172
51
90.000000
0
LINE
8
0
10
57.895752
20
63.799998
30
0.0
11
24.904248
21
63.799998
31
0.0
0
ARC
8
0
10
24.904248
20
62.599998
30
0.0
40
1.200000
50
90.000000
51
144.745828
0
LINE
8
0
10
23.924328
20
63.292644
30
0.0
11
22.390594
21
61.122795
31
0.0
0
ARC
8
0
10
21.573995
20
61.700000
30
0.0
40
1.000000
50
270.000000
51
324.745828
0
LINE
8
0
10
21.573995
20
60.700000
30
0.0
11
20.114666
21
60.700000
31
0.0
0
ARC
8
0
10
20.114666
20
59.500000
30
0.0
40
1.200000
50
90.000000
51
119.981639
0
ARC
8
0
10
40.900000
20
55.823544
30
0.0
40
1.000000
50
180.000000
51
270.000000
0
LINE
8
0
10
39.900000
20
55.823544
30
0.0
11
39.900000
21
62.923544
31
0.0
0
ARC
8
0
10
39.600000
20
62.923544
30
0.0
40
0.300000
50
0.000000
51
90.000000
0
LINE
8
0
10
39.600000
20
63.223544
30
0.0
11
38.000000
21
63.223544
31
0.0
0
ARC
8
0
10
38.000000
20
62.923544
30
0.0
40
0.300000
50
90.000000
51
180.000000
0
LINE
8
0
10
37.700000
20
62.923544
30
0.0
11
37.700000
21
54.723544
31
0.0
0
ARC
8
0
10
36.700000
20
54.723544
30
0.0
40
1.000000
50
270.000000
51
0.000000
0
LINE
8
0
10
36.700000
20
53.723544
30
0.0
11
29.574834
21
53.723544
31
0.0
0
ARC
8
0
10
29.574834
20
54.723544
30
0.0
40
1.000000
50
215.254172
51
270.000000
0
LINE
8
0
10
28.758235
20
54.146339
30
0.0
11
27.235414
21
56.300748
31
0.0
0
ARC
8
0
10
26.418814
20
55.723544
30
0.0
40
1.000000
50
35.254172
51
90.000000
0
LINE
8
0
10
26.418814
20
56.723544
30
0.0
11
25.288000
21
56.723544
31
0.0
0
ARC
8
0
10
25.288000
20
57.923544
30
0.0
40
1.200000
50
240.018361
51
270.000000
0
LINE
8
0
10
24.688333
20
56.884121
30
0.0
11
23.106389
21
57.796781
31
0.0
0
ARC
8
0
10
23.006444
20
57.623544
30
0.0
40
0.200000
50
60.018361
51
90.000000
0
LINE
8
0
10
23.006444
20
57.823544
30
0.0
11
22.800000
21
57.823544
31
0.0
0
ARC
8
0
10
22.800000
20
57.423544
30
0.0
40
0.400000
50
90.000000
51
180.000000
0
LINE
8
0
10
22.400000
20
57.423544
30
0.0
11
22.400000
21
54.023544
31
0.0
0
ARC
8
0
10
22.800000
20
54.023544
30
0.0
40
0.400000
50
180.000000
51
270.000000
0
LINE
8
0
10
22.800000
20
53.623544
30
0.0
11
23.006444
21
53.623544
31
0.0
0
ARC
8
0
10
23.006444
20
53.823544
30
0.0
40
0.200000
50
270.000000
51
299.981639
0
LINE
8
0
10
23.106389
20
53.650307
30
0.0
11
24.688333
21
54.562966
31
0.0
0
ARC
8
0
10
25.288000
20
53.523544
30
0.0
40
1.200000
50
90.000000
51
119.981639
0
LINE
8
0
10
25.288000
20
54.723544
30
0.0
11
25.745738
21
54.723544
31
0.0
0
ARC
8
0
10
25.745738
20
54.423544
30
0.0
40
0.300000
50
35.254172
51
90.000000
0
LINE
8
0
10
25.990718
20
54.596705
30
0.0
11
27.652049
21
52.246339
31
0.0
0
ARC
8
0
10
28.468648
20
52.823544
30
0.0
40
1.000000
50
215.254172
51
270.000000
0
LINE
8
0
10
28.468648
20
51.823544
30
0.0
11
41.017157
21
51.823544
31
0.0
0
LINE
8
0
10
41.017157
20
51.823544
30
0.0
11
41.087868
21
51.852833
31
0.0
0
LINE
8
0
10
41.087868
20
51.852833
30
0.0
11
41.329289
21
52.094254
31
0.0
0
ARC
8
0
10
41.400000
20
52.023544
30
0.0
40
0.100000
50
45.000000
51
135.000000
0
LINE
8
0
10
41.470711
20
52.094254
30
0.0
11
41.712132
21
51.852833
31
0.0
0
LINE
8
0
10
41.712132
20
51.852833
30
0.0
11
41.782843
21
51.823544
31
0.0
0
LINE
8
0
10
41.782843
20
51.823544
30
0.0
11
54.331352
21
51.823544
31
0.0
0
ARC
8
0
10
54.331352
20
52.823544
30
0.0
40
1.000000
50
270.000000
51
324.745828
0
LINE
8
0
10
55.147951
20
52.246339
30
0.0
11
56.809282
21
54.596705
31
0.0
0
ARC
8
0
10
57.054262
20
54.423544
30
0.0
40
0.300000
50
90.000000
51
144.745828
0
LINE
8
0
10
57.054262
20
54.723544
30
0.0
11
57.512000
21
54.723544
31
0.0
0
ARC
8
0
10
57.512000
20
53.523544
30
0.0
40
1.200000
50
60.018361
51
90.000000
0
LINE
8
0
10
58.111667
20
54.562966
30
0.0
11
59.693611
21
53.650307
31
0.0
0
ARC
8
0
10
59.793555
20
53.823544
30
0.0
40
0.200000
50
240.018361
51
270.000000
0
LINE
8
0
10
59.793555
20
53.623544
30
0.0
11
60.000000
21
53.623544
31
0.0
0
ARC
8
0
10
60.000000
20
54.023544
30
0.0
40
0.400000
50
270.000000
51
0.000000
0
LINE
8
0
10
60.400000
20
54.023544
30
0.0
11
60.400000
21
57.423544
31
0.0
0
ARC
8
0
10
60.000000
20
57.423544
30
0.0
40
0.400000
50
0.000000
51
90.000000
0
LINE
8
0
10
60.000000
20
57.823544
30
0.0
11
59.793555
21
57.823544
31
0.0
0
ARC
8
0
10
59.793555
20
57.623544
30
0.0
40
0.200000
50
90.000000
51
119.981639
0
LINE
8
0
10
59.693611
20
57.796781
30
0.0
11
58.111667
21
56.884121
31
0.0
0
ARC
8
0
10
57.512000
20
57.923544
30
0.0
40
1.200000
50
270.000000
51
299.981639
0
LINE
8
0
10
57.512000
20
56.723544
30
0.0
11
56.381186
21
56.723544
31
0.0
0
ARC
8
0
10
56.381186
20
55.723544
30
0.0
40
1.000000
50
90.000000
51
144.745828
0
LINE
8
0
10
55.564586
20
56.300748
30
0.0
11
54.041765
21
54.146339
31
0.0
0
ARC
8
0
10
53.225165
20
54.723544
30
0.0
40
1.000000
50
270.000000
51
324.745828
0
LINE
8
0
10
53.225165
20
53.723544
30
0.0
11
46.100000
21
53.723544
31
0.0
0
ARC
8
0
10
46.100000
20
54.723544
30
0.0
40
1.000000
50
180.000000
51
270.000000
0
LINE
8
0
10
45.100000
20
54.723544
30
0.0
11
45.100000
21
62.923544
31
0.0
0
ARC
8
0
10
44.800000
20
62.923544
30
0.0
40
0.300000
50
0.000000
51
90.000000
0
LINE
8
0
10
44.800000
20
63.223544
30
0.0
11
43.200000
21
63.223544
31
0.0
0
ARC
8
0
10
43.200000
20
62.923544
30
0.0
40
0.300000
50
90.000000
51
180.000000
0
LINE
8
0
10
42.900000
20
62.923544
30
0.0
11
42.900000
21
55.823544
31
0.0
0
ARC
8
0
10
41.900000
20
55.823544
30
0.0
40
1.000000
50
270.000000
51
0.000000
0
LINE
8
0
10
41.900000
20
54.823544
30
0.0
11
40.900000
21
54.823544
31
0.0
0
ATTDEF
8
0
10
68.850555
20
70.800000
30
0.0
40
3.5
1

3

2
VC_START
70
0
0
ATTDEF
8
0
10
59.900000
20
42.600563
30
0.0
40
3.5
1

3

2
VC_END
70
0
0
ARC
8
0
10
4.336399
20
-4.580571
30
0.0
40
7.300000
50
66.420102
51
80.624176
0
ARC
8
0
10
5.238105
20
3.368449
30
0.0
40
0.800000
50
53.215277
51
291.064476
0
ARC
8
0
10
4.336399
20
-4.580571
30
0.0
40
8.700000
50
70.200794
51
80.868126
0
ARC
8
0
10
6.351812
20
1.017697
30
0.0
40
2.750000
50
19.391231
51
70.200794
0
ARC
8
0
10
9.417451
20
2.096752
30
0.0
40
0.500000
50
199.391231
51
270.000000
0
LINE
8
0
10
9.417451
20
1.596752
30
0.0
11
66.800000
21
1.596752
31
0.0
0
ARC
8
0
10
66.800000
20
1.896752
30
0.0
40
0.300000
50
270.000000
51
0.000000
0
LINE
8
0
10
67.100000
20
1.896752
30
0.0
11
67.100000
21
9.223794
31
0.0
0
ARC
8
0
10
67.600000
20
9.223794
30
0.0
40
0.500000
50
145.000000
51
180.000000
0
LINE
8
0
10
67.190424
20
9.510583
30
0.0
11
67.824971
21
10.416810
31
0.0
0
ARC
8
0
10
67.579225
20
10.588883
30
0.0
40
0.300000
50
325.000000
51
35.000000
0
LINE
8
0
10
67.824971
20
10.760956
30
0.0
11
67.190424
21
11.667183
31
0.0
0
ARC
8
0
10
67.600000
20
11.953971
30
0.0
40
0.500000
50
35.000000
51
215.000000
0
LINE
8
0
10
68.009576
20
12.240759
30
0.0
11
69.045746
21
10.760956
31
0.0
0
ARC
8
0
10
68.800000
20
10.588883
30
0.0
40
0.300000
50
325.000000
51
35.000000
0
LINE
8
0
10
69.045746
20
10.416810
30
0.0
11
68.354254
21
9.429258
31
0.0
0
ARC
8
0
10
68.600000
20
9.257185
30
0.0
40
0.300000
50
145.000000
51
180.000000
0
LINE
8
0
10
68.300000
20
9.257185
30
0.0
11
68.300000
21
1.900000
31
0.0
0
ARC
8
0
10
68.600000
20
1.900000
30
0.0
40
0.300000
50
180.000000
51
270.000000
0
LINE
8
0
10
68.600000
20
1.600000
30
0.0
11
70.400000
21
1.600000
31
0.0
0
ARC
8
0
10
70.400000
20
2.100000
30
0.0
40
0.500000
50
270.000000
51
0.000000
0
LINE
8
0
10
70.900000
20
2.100000
30
0.0
11
70.900000
21
6.500000
31
0.0
0
ARC
8
0
10
71.200000
20
6.500000
30
0.0
40
0.300000
50
90.000000
51
180.000000
0
LINE
8
0
10
71.200000
20
6.800000
30
0.0
11
72.100000
21
6.800000
31
0.0
0
ARC
8
0
10
72.100000
20
6.500000
30
0.0
40
0.300000
50
0.000000
51
90.000000
0
LINE
8
0
10
72.400000
20
6.500000
30
0.0
11
72.400000
21
0.403248
31
0.0
0
ARC
8
0
10
72.094382
20
0.405575
30
0.0
40
0.305627
50
270.000000
51
0.000000
0
LINE
8
0
10
72.100000
20
0.100000
30
0.0
11
7.401812
21
0.100000
31
0.0
0
ARC
8
0
10
7.401812
20
0.400000
30
0.0
40
0.300000
50
180.000000
51
270.000000
0
LINE
8
0
10
7.101812
20
0.400000
30
0.0
11
7.101812
21
1.296752
31
0.0
0
ARC
8
0
10
7.401812
20
1.296752
30
0.0
40
0.300000
50
116.233744
51
180.000000
0
ARC
8
0
10
7.136592
20
1.834950
30
0.0
40
0.300000
50
296.233744
51
66.420102
0
LINE
8
0
10
1.209000
20
33.400557
30
0.0
11
2.389500
21
33.400557
31
0.0
0
ARC
8
0
10
2.389500
20
33.606557
30
0.0
40
0.206000
50
270.000000
51
0.000000
0
LINE
8
0
10
2.595500
20
33.606557
30
0.0
11
2.595500
21
33.989605
31
0.0
0
ARC
8
0
10
2.345500
20
33.989605
30
0.0
40
0.250000
50
0.000000
51
36.742904
0
LINE
8
0
10
2.545832
20
34.139161
30
0.0
11
2.303721
21
34.431342
31
0.0
0
ARC
8
0
10
2.126621
20
34.284592
30
0.0
40
0.230000
50
39.646274
51
175.066330
0
ARC
8
0
10
1.698214
20
34.321573
30
0.0
40
0.200000
50
270.000000
51
355.066330
0
LINE
8
0
10
1.698304
20
34.121573
30
0.0
11
1.209000
21
34.121354
31
0.0
0
ARC
8
0
10
1.209000
20
34.327354
30
0.0
40
0.206000
50
180.000000
51
270.000000
0
LINE
8
0
10
1.003000
20
34.327354
30
0.0
11
1.003000
21
34.744000
31
0.0
0
ARC
8
0
10
0.797000
20
34.744000
30
0.0
40
0.206000
50
0.000000
51
90.000000
0
LINE
8
0
10
0.797000
20
34.950000
30
0.0
11
0.400000
21
34.950000
31
0.0
0
ARC
8
0
10
0.400000
20
34.550000
30
0.0
40
0.400000
50
90.000000
51
180.000000
0
LINE
8
0
10
0.000000
20
34.550000
30
0.0
11
0.000000
21
26.350000
31
0.0
0
ARC
8
0
10
0.400000
20
26.350000
30
0.0
40
0.400000
50
180.000000
51
270.000000
0
LINE
8
0
10
0.400000
20
25.950000
30
0.0
11
0.797000
21
25.950000
31
0.0
0
ARC
8
0
10
0.797000
20
26.156000
30
0.0
40
0.206000
50
270.000000
51
0.000000
0
LINE
8
0
10
1.003000
20
26.156000
30
0.0
11
1.003000
21
26.572645
31
0.0
0
ARC
8
0
10
1.209000
20
26.572645
30
0.0
40
0.206000
50
90.000000
51
180.000000
0
LINE
8
0
10
1.209000
20
26.778645
30
0.0
11
1.698304
21
26.778427
31
0.0
0
ARC
8
0
10
1.698214
20
26.578427
30
0.0
40
0.200000
50
4.933670
51
90.000000
0
ARC
8
0
10
2.126621
20
26.615408
30
0.0
40
0.230000
50
184.933670
51
320.353726
0
LINE
8
0
10
2.303721
20
26.468657
30
0.0
11
2.545832
21
26.760838
31
0.0
0
ARC
8
0
10
2.345500
20
26.910395
30
0.0
40
0.250000
50
323.257096
51
0.000000
0
LINE
8
0
10
2.595500
20
26.910395
30
0.0
11
2.595500
21
27.293442
31
0.0
0
ARC
8
0
10
2.389500
20
27.293442
30
0.0
40
0.206000
50
0.000000
51
90.000000
0
LINE
8
0
10
2.389500
20
27.499442
30
0.0
11
1.209000
21
27.499442
31
0.0
0
ARC
8
0
10
1.209000
20
27.705442
30
0.0
40
0.206000
50
180.000000
51
270.000000
0
LINE
8
0
10
1.003000
20
27.705442
30
0.0
11
1.003000
21
30.450000
31
0.0
0
LINE
8
0
10
1.003000
20
30.450000
30
0.0
11
1.003000
21
33.194557
31
0.0
0
ARC
8
0
10
1.209000
20
33.194557
30
0.0
40
0.206000
50
90.000000
51
180.000000
0
ARC
8
0
10
15.856217
20
12.590193
30
0.0
40
0.300000
50
330.000000
51
60.000000
0
LINE
8
0
10
16.116025
20
12.440193
30
0.0
11
16.059807
21
12.342820
31
0.0
0
ARC
8
0
10
18.385640
20
11.000000
30
0.0
40
2.685641
50
150.000000
51
218.715249
0
ARC
8
0
10
15.900000
20
9.007540
30
0.0
40
0.500000
50
0.000000
51
38.715249
0
LINE
8
0
10
16.400000
20
9.007540
30
0.0
11
16.400000
21
6.400000
31
0.0
0
ARC
8
0
10
15.400000
20
6.400000
30
0.0
40
1.000000
50
270.000000
51
0.000000
0
LINE
8
0
10
15.400000
20
5.400000
30
0.0
11
13.000000
21
5.400000
31
0.0
0
ARC
8
0
10
13.000000
20
4.900000
30
0.0
40
0.500000
50
90.000000
51
180.000000
0
LINE
8
0
10
12.500000
20
4.900000
30
0.0
11
12.500000
21
2.200000
31
0.0
0
ARC
8
0
10
12.000000
20
2.200000
30
0.0
40
0.500000
50
270.000000
51
0.000000
0
LINE
8
0
10
12.000000
20
1.700000
30
0.0
11
11.000000
21
1.700000
31
0.0
0
ARC
8
0
10
11.000000
20
4.200000
30
0.0
40
2.500000
50
215.327914
51
270.000000
0
ARC
8
0
10
6.512792
20
1.019597
30
0.0
40
3.000000
50
35.327914
51
72.414297
0
ARC
8
0
10
4.700000
20
-4.700000
30
0.0
40
9.000000
50
72.414297
51
85.698778
0
ARC
8
0
10
5.300000
20
3.277468
30
0.0
40
1.000000
50
85.698778
51
265.698778
0
ARC
8
0
10
4.700000
20
-4.700000
30
0.0
40
7.000000
50
73.923350
51
85.698778
0
ARC
8
0
10
6.500000
20
1.545799
30
0.0
40
0.500000
50
0.000000
51
73.923350
0
LINE
8
0
10
7.000000
20
1.545799
30
0.0
11
7.000000
21
0.500000
31
0.0
0
ARC
8
0
10
6.500000
20
0.500000
30
0.0
40
0.500000
50
270.000000
51
0.000000
0
LINE
8
0
10
6.500000
20
0.000000
30
0.0
11
0.500000
21
0.000000
31
0.0
0
ARC
8
0
10
0.500000
20
0.500000
30
0.0
40
0.500000
50
180.000000
51
270.000000
0
LINE
8
0
10
0.000000
20
0.500000
30
0.0
11
0.000000
21
2.700000
31
0.0
0
ARC
8
0
10
0.300000
20
2.700000
30
0.0
40
0.300000
50
90.000000
51
180.000000
0
LINE
8
0
10
0.300000
20
3.000000
30
0.0
11
0.700000
21
3.000000
31
0.0
0
ARC
8
0
10
0.700000
20
2.700000
30
0.0
40
0.300000
50
0.000000
51
90.000000
0
LINE
8
0
10
1.000000
20
2.700000
30
0.0
11
1.000000
21
1.800000
31
0.0
0
ARC
8
0
10
1.300000
20
1.800000
30
0.0
40
0.300000
50
180.000000
51
270.000000
0
LINE
8
0
10
1.300000
20
1.500000
30
0.0
11
2.200000
21
1.500000
31
0.0
0
ARC
8
0
10
2.200000
20
1.800000
30
0.0
40
0.300000
50
270.000000
51
0.000000
0
LINE
8
0
10
2.500000
20
1.800000
30
0.0
11
2.500000
21
8.700000
31
0.0
0
ARC
8
0
10
2.200000
20
8.700000
30
0.0
40
0.300000
50
0.000000
51
90.000000
0
LINE
8
0
10
2.200000
20
9.000000
30
0.0
11
1.300000
21
9.000000
31
0.0
0
ARC
8
0
10
1.300000
20
8.700000
30
0.0
40
0.300000
50
90.000000
51
180.000000
0
LINE
8
0
10
1.000000
20
8.700000
30
0.0
11
1.000000
21
7.800000
31
0.0
0
ARC
8
0
10
0.700000
20
7.800000
30
0.0
40
0.300000
50
270.000000
51
0.000000
0
LINE
8
0
10
0.700000
20
7.500000
30
0.0
11
0.300000
21
7.500000
31
0.0
0
ARC
8
0
10
0.300000
20
7.800000
30
0.0
40
0.300000
50
180.000000
51
270.000000
0
LINE
8
0
10
0.000000
20
7.800000
30
0.0
11
0.000000
21
25.300000
31
0.0
0
ARC
8
0
10
0.500000
20
25.300000
30
0.0
40
0.500000
50
90.000000
51
180.000000
0
LINE
8
0
10
0.500000
20
25.800000
30
0.0
11
0.800000
21
25.800000
31
0.0
0
ARC
8
0
10
0.800000
20
26.000000
30
0.0
40
0.200000
50
270.000000
51
0.000000
0
LINE
8
0
10
1.000000
20
26.000000
30
0.0
11
1.000000
21
26.450000
31
0.0
0
ARC
8
0
10
1.250000
20
26.450000
30
0.0
40
0.250000
50
90.000000
51
180.000000
0
LINE
8
0
10
1.250000
20
26.700000
30
0.0
11
1.650000
21
26.700000
31
0.0
0
ARC
8
0
10
1.650000
20
26.450000
30
0.0
40
0.250000
50
0.000000
51
90.000000
0
LINE
8
0
10
1.900000
20
26.450000
30
0.0
11
1.900000
21
26.000000
31
0.0
0
ARC
8
0
10
2.100000
20
26.000000
30
0.0
40
0.200000
50
180.000000
51
270.000000
0
LINE
8
0
10
2.100000
20
25.800000
30
0.0
11
3.092893
21
25.800000
31
0.0
0
ARC
8
0
10
3.092893
20
26.300000
30
0.0
40
0.500000
50
270.000000
51
315.000000
0
LINE
8
0
10
3.446446
20
25.946447
30
0.0
11
6.112132
21
28.612132
31
0.0
0
ARC
8
0
10
5.900000
20
28.824264
30
0.0
40
0.300000
50
315.000000
51
0.000000
0
LINE
8
0
10
6.200000
20
28.824264
30
0.0
11
6.200000
21
30.150000
31
0.0
0
LINE
8
0
10
6.200000
20
30.150000
30
0.0
11
6.500000
21
30.450000
31
0.0
0
LINE
8
0
10
6.500000
20
30.450000
30
0.0
11
6.200000
21
30.750000
31
0.0
0
LINE
8
0
10
6.200000
20
30.750000
30
0.0
11
6.200000
21
32.075736
31
0.0
0
ARC
8
0
10
5.900000
20
32.075736
30
0.0
40
0.300000
50
0.000000
51
45.000000
0
LINE
8
0
10
6.112132
20
32.287868
30
0.0
11
3.446446
21
34.953554
31
0.0
0
ARC
8
0
10
3.092893
20
34.600000
30
0.0
40
0.500000
50
45.000000
51
90.000000
0
LINE
8
0
10
3.092893
20
35.100000
30
0.0
11
2.100000
21
35.100000
31
0.0
0
ARC
8
0
10
2.100000
20
34.900000
30
0.0
40
0.200000
50
90.000000
51
180.000000
0
LINE
8
0
10
1.900000
20
34.900000
30
0.0
11
1.900000
21
34.450000
31
0.0
0
ARC
8
0
10
1.650000
20
34.450000
30
0.0
40
0.250000
50
270.000000
51
0.000000
0
LINE
8
0
10
1.650000
20
34.200000
30
0.0
11
1.250000
21
34.200000
31
0.0
0
ARC
8
0
10
1.250000
20
34.450000
30
0.0
40
0.250000
50
180.000000
51
270.000000
0
LINE
8
0
10
1.000000
20
34.450000
30
0.0
11
1.000000
21
34.900000
31
0.0
0
ARC
8
0
10
0.800000
20
34.900000
30
0.0
40
0.200000
50
0.000000
51
90.000000
0
LINE
8
0
10
0.800000
20
35.100000
30
0.0
11
0.500000
21
35.100000
31
0.0
0
ARC
8
0
10
0.500000
20
35.600000
30
0.0
40
0.500000
50
180.000000
51
270.000000
0
LINE
8
0
10
0.000000
20
35.600000
30
0.0
11
0.000000
21
44.300000
31
0.0
0
ARC
8
0
10
1.000000
20
44.300000
30
0.0
40
1.000000
50
90.000000
51
180.000000
0
LINE
8
0
10
1.000000
20
45.300000
30
0.0
11
1.418100
21
45.300000
31
0.0
0
ARC
8
0
10
1.418100
20
44.800000
30
0.0
40
0.500000
50
15.000000
51
90.000000
0
LINE
8
0
10
1.901063
20
44.929410
30
0.0
11
2.801056
21
41.570591
31
0.0
0
ARC
8
0
10
3.284019
20
41.700000
30
0.0
40
0.500000
50
195.000000
51
270.000000
0
LINE
8
0
10
3.284019
20
41.200000
30
0.0
11
4.400000
21
41.200000
31
0.0
0
ARC
8
0
10
4.400000
20
40.500000
30
0.0
40
0.700000
50
0.000000
51
90.000000
0
ARC
8
0
10
4.800000
20
40.500000
30
0.0
40
0.300000
50
270.000000
51
0.000000
0
LINE
8
0
10
4.800000
20
40.200000
30
0.0
11
4.300000
21
40.200000
31
0.0
0
ARC
8
0
10
4.300000
20
39.900000
30
0.0
40
0.300000
50
90.000000
51
180.000000
0
LINE
8
0
10
4.000000
20
39.900000
30
0.0
11
4.000000
21
39.727350
31
0.0
0
ARC
8
0
10
5.000000
20
39.727350
30
0.0
40
1.000000
50
180.000000
51
240.000000
0
LINE
8
0
10
4.500000
20
38.861325
30
0.0
11
6.222243
21
37.866987
31
0.0
0
ARC
8
0
10
6.472243
20
38.300000
30
0.0
40
0.500000
50
240.000000
51
270.000000
0
LINE
8
0
10
6.472243
20
37.800000
30
0.0
11
6.727756
21
37.800000
31
0.0
0
ARC
8
0
10
6.727756
20
38.300000
30
0.0
40
0.500000
50
270.000000
51
300.000000
0
LINE
8
0
10
6.977756
20
37.866987
30
0.0
11
8.700000
21
38.861325
31
0.0
0
ARC
8
0
10
8.200000
20
39.727350
30
0.0
40
1.000000
50
300.000000
51
0.000000
0
LINE
8
0
10
9.200000
20
39.727350
30
0.0
11
9.200000
21
39.900000
31
0.0
0
ARC
8
0
10
8.900000
20
39.900000
30
0.0
40
0.300000
50
0.000000
51
90.000000
0
LINE
8
0
10
8.900000
20
40.200000
30
0.0
11
8.400000
21
40.200000
31
0.0
0
ARC
8
0
10
8.400000
20
40.500000
30
0.0
40
0.300000
50
180.000000
51
270.000000
0
ARC
8
0
10
8.800000
20
40.500000
30
0.0
40
0.700000
50
90.000000
51
180.000000
0
LINE
8
0
10
8.800000
20
41.200000
30
0.0
11
9.900000
21
41.200000
31
0.0
0
ARC
8
0
10
9.900000
20
40.700000
30
0.0
40
0.500000
50
0.000000
51
90.000000
0
LINE
8
0
10
10.400000
20
40.700000
30
0.0
11
10.400000
21
7.300000
31
0.0
0
ARC
8
0
10
10.900000
20
7.300000
30
0.0
40
0.500000
50
180.000000
51
270.000000
0
LINE
8
0
10
10.900000
20
6.800000
30
0.0
11
15.100000
21
6.800000
31
0.0
0
ARC
8
0
10
15.100000
20
7.100000
30
0.0
40
0.300000
50
270.000000
51
0.000000
0
LINE
8
0
10
15.400000
20
7.100000
30
0.0
11
15.400000
21
8.743920
31
0.0
0
ARC
8
0
10
15.100000
20
8.743920
30
0.0
40
0.300000
50
0.000000
51
34.475378
0
ARC
8
0
10
18.385640
20
11.000000
30
0.0
40
3.685641
50
150.000000
51
214.475378
0
LINE
8
0
10
15.193782
20
12.842820
30
0.0
11
15.250000
21
12.940193
31
0.0
0
ARC
8
0
10
15.509807
20
12.790193
30
0.0
40
0.300000
50
60.000000
51
150.000000
0
LINE
8
0
10
15.659807
20
13.050000
30
0.0
11
16.006217
21
12.850000
31
0.0
0
ARC
8
0
10
8.300000
20
27.405888
30
0.0
40
0.600000
50
0.000000
51
135.000000
0
LINE
8
0
10
8.900000
20
27.405888
30
0.0
11
8.900000
21
17.300000
31
0.0
0
ARC
8
0
10
8.400000
20
17.300000
30
0.0
40
0.500000
50
270.000000
51
0.000000
0
LINE
8
0
10
8.400000
20
16.800000
30
0.0
11
2.300000
21
16.800000
31
0.0
0
ARC
8
0
10
2.300000
20
17.300000
30
0.0
40
0.500000
50
180.000000
51
270.000000
0
LINE
8
0
10
1.800000
20
17.300000
30
0.0
11
1.800000
21
23.500000
31
0.0
0
ARC
8
0
10
2.300000
20
23.500000
30
0.0
40
0.500000
50
90.000000
51
180.000000
0
LINE
8
0
10
2.300000
20
24.000000
30
0.0
11
3.838477
21
24.000000
31
0.0
0
ARC
8
0
10
3.838477
20
24.500000
30
0.0
40
0.500000
50
270.000000
51
315.000000
0
LINE
8
0
10
4.192031
20
24.146447
30
0.0
11
7.875735
21
27.830152
31
0.0
0
ARC
8
0
10
8.400000
20
6.700000
30
0.0
40
0.500000
50
270.000000
51
0.000000
0
LINE
8
0
10
8.400000
20
6.200000
30
0.0
11
4.500000
21
6.200000
31
0.0
0
ARC
8
0
10
4.500000
20
6.700000
30
0.0
40
0.500000
50
180.000000
51
270.000000
0
LINE
8
0
10
4.000000
20
6.700000
30
0.0
11
4.000000
21
10.000000
31
0.0
0
ARC
8
0
10
3.500000
20
10.000000
30
0.0
40
0.500000
50
0.000000
51
90.000000
0
LINE
8
0
10
3.500000
20
10.500000
30
0.0
11
2.300000
21
10.500000
31
0.0
0
ARC
8
0
10
2.300000
20
11.000000
30
0.0
40
0.500000
50
180.000000
51
270.000000
0
LINE
8
0
10
1.800000
20
11.000000
30
0.0
11
1.800000
21
15.100000
31
0.0
0
ARC
8
0
10
2.300000
20
15.100000
30
0.0
40
0.500000
50
90.000000
51
180.000000
0
LINE
8
0
10
2.300000
20
15.600000
30
0.0
11
8.400000
21
15.600000
31
0.0
0
ARC
8
0
10
8.400000
20
15.100000
30
0.0
40
0.500000
50
0.000000
51
90.000000
0
LINE
8
0
10
8.900000
20
15.100000
30
0.0
11
8.900000
21
6.700000
31
0.0
0
LINE
8
0
10
2.778679
20
37.776669
30
0.0
11
3.547114
21
37.333013
31
0.0
0
ARC
8
0
10
3.297114
20
36.900000
30
0.0
40
0.500000
50
270.000000
51
60.000000
0
LINE
8
0
10
3.297114
20
36.400000
30
0.0
11
1.600000
21
36.400000
31
0.0
0
ARC
8
0
10
1.600000
20
36.700000
30
0.0
40
0.300000
50
180.000000
51
270.000000
0
LINE
8
0
10
1.300000
20
36.700000
30
0.0
11
1.300000
21
39.700000
31
0.0
0
ARC
8
0
10
1.600000
20
39.700000
30
0.0
40
0.300000
50
90.000000
51
180.000000
0
LINE
8
0
10
1.600000
20
40.000000
30
0.0
11
1.801128
21
40.000000
31
0.0
0
ARC
8
0
10
1.801128
20
39.700000
30
0.0
40
0.300000
50
15.000000
51
90.000000
0
LINE
8
0
10
2.090906
20
39.777646
30
0.0
11
2.545716
21
38.080272
31
0.0
0
ARC
8
0
10
3.028679
20
38.209682
30
0.0
40
0.500000
50
195.000000
51
240.000000
0
LINE
8
0
10
8.900000
20
33.494113
30
0.0
11
8.900000
21
36.032309
31
0.0
0
ARC
8
0
10
8.400000
20
36.032309
30
0.0
40
0.500000
50
0.000000
51
120.000000
0
LINE
8
0
10
8.150000
20
36.465321
30
0.0
11
6.387793
21
35.447911
31
0.0
0
ARC
8
0
10
6.637793
20
35.014898
30
0.0
40
0.500000
50
120.000000
51
225.000000
0
LINE
8
0
10
6.284239
20
34.661345
30
0.0
11
7.875735
21
33.069849
31
0.0
0
ARC
8
0
10
8.300000
20
33.494113
30
0.0
40
0.600000
50
225.000000
51
0.000000
0
ATTDEF
8
0
10
0.000000
20
0.000000
30
0.0
40
3.5
1

3

2
GLASS_MIN:0.000000
70
0
0
ATTDEF
8
0
10
0.000000
20
0.000000
30
0.0
40
3.5
1

3

2
GLASS_MAX:0.000000
70
0
0
ATTDEF
8
0
10
0.000000
20
0.000000
30
0.0
40
3.5
1

3

2
BL01:6500.000000,,1
70
0
0
ATTDEF
8
0
10
0.000000
20
0.000000
30
0.0
40
3.5
1

3

2
HW_START
70
0
0
ATTDEF
8
0
10
72.400009
20
88.800000
30
0.0
40
3.5
1

3

2
HW_END
70
0
0
ATTDEF
8
0
10
0.000000
20
0.000000
30
0.0
40
3.5
1

3

2
FP_LCS_ORIG
70
0
0
ATTDEF
8
0
10
10.000000
20
0.000000
30
0.0
40
3.5
1

3

2
FP_LCS_HOT
70
0
0
ATTDEF
8
0
10
0.000000
20
10.000000
30
0.0
40
3.5
1

3

2
FP_LCS_INTERN
70
0
0
ATTDEF
8
0
10
0.000000
20
0.000000
30
0.0
40
3.5
1

3

2
TDEV3:0
70
0
0
ATTDEF
8
0
10
0.000000
20
0.000000
30
0.0
40
3.5
1

3

2
TDEV4:0
70
0
0
ATTDEF
8
0
10
0.000000
20
0.000000
30
0.0
40
3.5
1

3

2
TDEV5:0
70
0
0
ATTDEF
8
0
10
0.000000
20
0.000000
30
0.0
40
3.5
1

3

2
PANE_WIDTH:57.5
70
0
0
ATTDEF
8
0
10
0.000000
20
0.000000
30
0.0
40
3.5
1

3

2
MIN_VETRO:0
70
0
0
ATTDEF
8
0
10
0.000000
20
0.000000
30
0.0
40
3.5
1

3

2
MAX_VETRO:0
70
0
0
ATTDEF
8
0
10
0.000000
20
0.000000
30
0.0
40
3.5
1

3

2
JX:0
70
0
0
ATTDEF
8
0
10
0.000000
20
0.000000
30
0.0
40
3.5
1

3

2
WX:0
70
0
0
ATTDEF
8
0
10
0.000000
20
0.000000
30
0.0
40
3.5
1

3

2
JY:0
70
0
0
ATTDEF
8
0
10
0.000000
20
0.000000
30
0.0
40
3.5
1

3

2
WY:0
70
0
0
ATTDEF
8
0
10
0.000000
20
0.000000
30
0.0
40
3.5
1

3

2
DESC:U10140 - N10909 - 800167 - V31013
70
0
0
ATTDEF
8
0
10
0.000000
20
0.000000
30
0.0
40
3.5
1

3

2
DENS:0
70
0
0
ATTDEF
8
0
10
0.000000
20
0.000000
30
0.0
40
3.5
1

3

2
TDEV:0
70
0
0
ATTDEF
8
0
10
0.000000
20
0.000000
30
0.0
40
3.5
1

3

2
TDEV2:0
70
0
0
ATTDEF
8
0
10
0.000000
20
0.000000
30
0.0
40
3.5
1

3

2
TDEV3:0
70
0
0
ATTDEF
8
0
10
0.000000
20
0.000000
30
0.0
40
3.5
1

3

2
TDEV4:0
70
0
0
ATTDEF
8
0
10
0.000000
20
0.000000
30
0.0
40
3.5
1

3

2
TDEV5:0
70
0
0
ATTDEF
8
0
10
0.000000
20
0.000000
30
0.0
40
3.5
1

3

2
PANE_WIDTH:57.5
70
0
0
ATTDEF
8
0
10
0.000000
20
0.000000
30
0.0
40
3.5
1

3

2
MIN_VETRO:0
70
0
0
ATTDEF
8
0
10
0.000000
20
0.000000
30
0.0
40
3.5
1

3

2
MAX_VETRO:0
70
0
0
ATTDEF
8
0
10
0.000000
20
0.000000
30
0.0
40
3.5
1

3

2
JX:0
70
0
0
ATTDEF
8
0
10
0.000000
20
0.000000
30
0.0
40
3.5
1

3

2
WX:0
70
0
0
ATTDEF
8
0
10
0.000000
20
0.000000
30
0.0
40
3.5
1

3

2
JY:0
70
0
0
ATTDEF
8
0
10
0.000000
20
0.000000
30
0.0
40
3.5
1

3

2
WY:0
70
0
0
ENDSEC
0
EOF
