0
SECTION
2
ENTITIES
0
LINE
8
0
10
25.471848
20
170.242505
30
0.0
11
15.571848
21
170.242505
31
0.0
0
ARC
8
0
10
15.571848
20
169.942505
30
0.0
40
0.300000
50
90.000000
51
180.000000
0
LINE
8
0
10
15.271848
20
169.942505
30
0.0
11
15.271848
21
166.142505
31
0.0
0
ARC
8
0
10
14.771848
20
166.142505
30
0.0
40
0.500000
50
180.000000
51
0.000000
0
LINE
8
0
10
14.271848
20
166.142505
30
0.0
11
14.271848
21
169.942505
31
0.0
0
ARC
8
0
10
13.971848
20
169.942505
30
0.0
40
0.300000
50
0.000000
51
90.000000
0
LINE
8
0
10
13.971848
20
170.242505
30
0.0
11
4.071848
21
170.242505
31
0.0
0
ARC
8
0
10
4.071848
20
169.942505
30
0.0
40
0.300000
50
90.000000
51
180.000000
0
LINE
8
0
10
3.771848
20
169.942505
30
0.0
11
3.771848
21
166.142505
31
0.0
0
ARC
8
0
10
3.271848
20
166.142505
30
0.0
40
0.500000
50
180.000000
51
0.000000
0
LINE
8
0
10
2.771848
20
166.142505
30
0.0
11
2.771848
21
169.942505
31
0.0
0
ARC
8
0
10
2.471848
20
169.942505
30
0.0
40
0.300000
50
0.000000
51
90.000000
0
LINE
8
0
10
2.471848
20
170.242505
30
0.0
11
0.167179
21
170.242505
31
0.0
0
ARC
8
0
10
0.167179
20
169.242505
30
0.0
40
1.000000
50
90.000000
51
144.745828
0
LINE
8
0
10
-0.649421
20
169.819710
30
0.0
11
-2.172242
21
167.665301
31
0.0
0
ARC
8
0
10
-2.988841
20
168.242505
30
0.0
40
1.000000
50
270.000000
51
324.745828
0
LINE
8
0
10
-2.988841
20
167.242505
30
0.0
11
-4.090152
21
167.242505
31
0.0
0
ARC
8
0
10
-4.090152
20
166.042505
30
0.0
40
1.200000
50
90.000000
51
119.981639
0
LINE
8
0
10
-4.689819
20
167.081928
30
0.0
11
-6.271763
21
166.169268
31
0.0
0
ARC
8
0
10
-6.371707
20
166.342505
30
0.0
40
0.200000
50
270.000000
51
299.981639
0
LINE
8
0
10
-6.371707
20
166.142505
30
0.0
11
-6.578152
21
166.142505
31
0.0
0
ARC
8
0
10
-6.578152
20
166.542505
30
0.0
40
0.400000
50
180.000000
51
270.000000
0
LINE
8
0
10
-6.978152
20
166.542505
30
0.0
11
-6.978152
21
169.942505
31
0.0
0
ARC
8
0
10
-6.578152
20
169.942505
30
0.0
40
0.400000
50
90.000000
51
180.000000
0
LINE
8
0
10
-6.578152
20
170.342505
30
0.0
11
-6.371707
21
170.342505
31
0.0
0
ARC
8
0
10
-6.371707
20
170.142505
30
0.0
40
0.200000
50
60.018361
51
90.000000
0
LINE
8
0
10
-6.271763
20
170.315742
30
0.0
11
-4.689819
21
169.403083
31
0.0
0
ARC
8
0
10
-4.090152
20
170.442505
30
0.0
40
1.200000
50
240.018361
51
270.000000
0
LINE
8
0
10
-4.090152
20
169.242505
30
0.0
11
-3.661918
21
169.242505
31
0.0
0
ARC
8
0
10
-3.661918
20
169.542505
30
0.0
40
0.300000
50
270.000000
51
324.745828
0
LINE
8
0
10
-3.416938
20
169.369344
30
0.0
11
-1.535499
21
172.031108
31
0.0
0
ARC
8
0
10
-1.127199
20
171.742505
30
0.0
40
0.500000
50
90.000000
51
144.745828
0
LINE
8
0
10
-1.127199
20
172.242505
30
0.0
11
42.170896
21
172.242505
31
0.0
0
ARC
8
0
10
42.170896
20
171.742505
30
0.0
40
0.500000
50
35.254172
51
90.000000
0
LINE
8
0
10
42.579196
20
172.031108
30
0.0
11
44.460635
21
169.369344
31
0.0
0
ARC
8
0
10
44.705615
20
169.542505
30
0.0
40
0.300000
50
215.254172
51
270.000000
0
LINE
8
0
10
44.705615
20
169.242505
30
0.0
11
45.133849
21
169.242505
31
0.0
0
ARC
8
0
10
45.133849
20
170.442505
30
0.0
40
1.200000
50
270.000000
51
299.981639
0
LINE
8
0
10
45.733516
20
169.403083
30
0.0
11
47.315459
21
170.315742
31
0.0
0
ARC
8
0
10
47.415404
20
170.142505
30
0.0
40
0.200000
50
90.000000
51
119.981639
0
LINE
8
0
10
47.415404
20
170.342505
30
0.0
11
47.621848
21
170.342505
31
0.0
0
ARC
8
0
10
47.621848
20
169.942505
30
0.0
40
0.400000
50
0.000000
51
90.000000
0
LINE
8
0
10
48.021848
20
169.942505
30
0.0
11
48.021848
21
166.542505
31
0.0
0
ARC
8
0
10
47.621848
20
166.542505
30
0.0
40
0.400000
50
270.000000
51
0.000000
0
LINE
8
0
10
47.621848
20
166.142505
30
0.0
11
47.415404
21
166.142505
31
0.0
0
ARC
8
0
10
47.415404
20
166.342505
30
0.0
40
0.200000
50
240.018361
51
270.000000
0
LINE
8
0
10
47.315459
20
166.169268
30
0.0
11
45.733516
21
167.081928
31
0.0
0
ARC
8
0
10
45.133849
20
166.042505
30
0.0
40
1.200000
50
60.018361
51
90.000000
0
LINE
8
0
10
45.133849
20
167.242505
30
0.0
11
44.032538
21
167.242505
31
0.0
0
ARC
8
0
10
44.032538
20
168.242505
30
0.0
40
1.000000
50
215.254172
51
270.000000
0
LINE
8
0
10
43.215939
20
167.665301
30
0.0
11
41.693118
21
169.819710
31
0.0
0
ARC
8
0
10
40.876518
20
169.242505
30
0.0
40
1.000000
50
35.254172
51
90.000000
0
LINE
8
0
10
40.876518
20
170.242505
30
0.0
11
38.571848
21
170.242505
31
0.0
0
ARC
8
0
10
38.571848
20
169.942505
30
0.0
40
0.300000
50
90.000000
51
180.000000
0
LINE
8
0
10
38.271848
20
169.942505
30
0.0
11
38.271848
21
166.142505
31
0.0
0
ARC
8
0
10
37.771848
20
166.142505
30
0.0
40
0.500000
50
180.000000
51
0.000000
0
LINE
8
0
10
37.271848
20
166.142505
30
0.0
11
37.271848
21
169.942505
31
0.0
0
ARC
8
0
10
36.971848
20
169.942505
30
0.0
40
0.300000
50
0.000000
51
90.000000
0
LINE
8
0
10
36.971848
20
170.242505
30
0.0
11
27.071848
21
170.242505
31
0.0
0
ARC
8
0
10
27.071848
20
169.942505
30
0.0
40
0.300000
50
90.000000
51
180.000000
0
LINE
8
0
10
26.771848
20
169.942505
30
0.0
11
26.771848
21
166.142505
31
0.0
0
ARC
8
0
10
26.271848
20
166.142505
30
0.0
40
0.500000
50
180.000000
51
0.000000
0
LINE
8
0
10
25.771848
20
166.142505
30
0.0
11
25.771848
21
169.942505
31
0.0
0
ARC
8
0
10
25.471848
20
169.942505
30
0.0
40
0.300000
50
0.000000
51
90.000000
0
ARC
8
0
10
52.633732
20
185.177385
30
0.0
40
0.300000
50
2.000000
51
90.000000
0
LINE
8
0
10
52.933549
20
185.187855
30
0.0
11
53.079973
21
180.994835
31
0.0
0
ARC
8
0
10
52.580277
20
180.977385
30
0.0
40
0.500000
50
270.000000
51
2.000000
0
LINE
8
0
10
52.580277
20
180.477385
30
0.0
11
52.364068
21
180.477385
31
0.0
0
ARC
8
0
10
52.364068
20
179.977385
30
0.0
40
0.500000
50
90.000000
51
210.000000
0
LINE
8
0
10
51.931055
20
179.727385
30
0.0
11
53.085756
21
177.727385
31
0.0
0
ARC
8
0
10
53.518769
20
177.977385
30
0.0
40
0.500000
50
210.000000
51
270.000000
0
LINE
8
0
10
53.518769
20
177.477385
30
0.0
11
58.915416
21
177.477385
31
0.0
0
LINE
8
0
10
58.915416
20
177.477385
30
0.0
11
59.215416
21
177.177385
31
0.0
0
LINE
8
0
10
59.215416
20
177.177385
30
0.0
11
59.515416
21
177.477385
31
0.0
0
LINE
8
0
10
59.515416
20
177.477385
30
0.0
11
64.928109
21
177.477385
31
0.0
0
ARC
8
0
10
64.928109
20
177.977385
30
0.0
40
0.500000
50
270.000000
51
330.000000
0
LINE
8
0
10
65.361122
20
177.727385
30
0.0
11
66.515822
21
179.727385
31
0.0
0
ARC
8
0
10
66.082810
20
179.977385
30
0.0
40
0.500000
50
330.000000
51
90.000000
0
LINE
8
0
10
66.082810
20
180.477385
30
0.0
11
65.866600
21
180.477385
31
0.0
0
ARC
8
0
10
65.866600
20
180.977385
30
0.0
40
0.500000
50
178.000000
51
270.000000
0
LINE
8
0
10
65.366905
20
180.994835
30
0.0
11
65.513328
21
185.187855
31
0.0
0
ARC
8
0
10
65.813145
20
185.177385
30
0.0
40
0.300000
50
90.000000
51
178.000000
0
LINE
8
0
10
65.813145
20
185.477385
30
0.0
11
68.223439
21
185.477385
31
0.0
0
ARC
8
0
10
68.223439
20
185.777385
30
0.0
40
0.300000
50
270.000000
51
0.000000
0
LINE
8
0
10
68.523439
20
185.777385
30
0.0
11
68.523439
21
189.077385
31
0.0
0
ARC
8
0
10
68.823439
20
189.077385
30
0.0
40
0.300000
50
90.000000
51
180.000000
0
LINE
8
0
10
68.823439
20
189.377385
30
0.0
11
80.723439
21
189.377385
31
0.0
0
ARC
8
0
10
80.723439
20
188.377385
30
0.0
40
1.000000
50
0.000000
51
90.000000
0
LINE
8
0
10
81.723439
20
188.377385
30
0.0
11
81.723439
21
164.677385
31
0.0
0
ARC
8
0
10
81.423439
20
164.677385
30
0.0
40
0.300000
50
270.000000
51
0.000000
0
LINE
8
0
10
81.423439
20
164.377385
30
0.0
11
80.423439
21
164.377385
31
0.0
0
ARC
8
0
10
80.423439
20
164.677385
30
0.0
40
0.300000
50
180.000000
51
270.000000
0
LINE
8
0
10
80.123439
20
164.677385
30
0.0
11
80.123439
21
165.077385
31
0.0
0
ARC
8
0
10
79.823439
20
165.077385
30
0.0
40
0.300000
50
0.000000
51
90.000000
0
LINE
8
0
10
79.823439
20
165.377385
30
0.0
11
64.423439
21
165.377385
31
0.0
0
ARC
8
0
10
64.423439
20
165.077385
30
0.0
40
0.300000
50
90.000000
51
180.000000
0
LINE
8
0
10
64.123439
20
165.077385
30
0.0
11
64.123439
21
164.677385
31
0.0
0
ARC
8
0
10
63.823439
20
164.677385
30
0.0
40
0.300000
50
270.000000
51
0.000000
0
LINE
8
0
10
63.823439
20
164.377385
30
0.0
11
62.823439
21
164.377385
31
0.0
0
ARC
8
0
10
62.823439
20
164.677385
30
0.0
40
0.300000
50
180.000000
51
270.000000
0
LINE
8
0
10
62.523439
20
164.677385
30
0.0
11
62.523439
21
165.077385
31
0.0
0
ARC
8
0
10
62.223439
20
165.077385
30
0.0
40
0.300000
50
0.000000
51
90.000000
0
LINE
8
0
10
62.223439
20
165.377385
30
0.0
11
49.823439
21
165.377385
31
0.0
0
ARC
8
0
10
49.823439
20
165.077385
30
0.0
40
0.300000
50
90.000000
51
180.000000
0
LINE
8
0
10
49.523439
20
165.077385
30
0.0
11
49.523439
21
164.677385
31
0.0
0
ARC
8
0
10
49.223439
20
164.677385
30
0.0
40
0.300000
50
270.000000
51
0.000000
0
LINE
8
0
10
49.223439
20
164.377385
30
0.0
11
47.755498
21
164.377385
31
0.0
0
ARC
8
0
10
47.755498
20
164.677385
30
0.0
40
0.300000
50
250.221829
51
270.000000
0
LINE
8
0
10
47.653984
20
164.395082
30
0.0
11
46.352122
21
164.863222
31
0.0
0
ARC
8
0
10
46.272603
20
164.642084
30
0.0
40
0.235000
50
70.221829
51
156.000000
0
ARC
8
0
10
45.836668
20
164.818498
30
0.0
40
0.235000
50
270.000000
51
336.000000
0
LINE
8
0
10
45.838224
20
164.583503
30
0.0
11
44.259296
21
164.573046
31
0.0
0
ARC
8
0
10
44.257309
20
164.873039
30
0.0
40
0.300000
50
155.379459
51
270.000000
0
LINE
8
0
10
43.984583
20
164.998021
30
0.0
11
44.933233
21
167.103537
31
0.0
0
ARC
8
0
10
45.206753
20
166.980301
30
0.0
40
0.300000
50
115.379459
51
155.745828
0
LINE
8
0
10
45.078169
20
167.251348
30
0.0
11
45.585592
21
167.492067
31
0.0
0
ARC
8
0
10
45.671315
20
167.311369
30
0.0
40
0.200000
50
355.379459
51
115.379459
0
LINE
8
0
10
45.870665
20
167.295258
30
0.0
11
45.861363
21
167.180163
31
0.0
0
ARC
8
0
10
46.160388
20
167.155996
30
0.0
40
0.300000
50
175.379459
51
235.379459
0
LINE
8
0
10
45.989946
20
166.909116
30
0.0
11
47.618703
21
165.784650
31
0.0
0
LINE
8
0
10
47.618703
20
165.784650
30
0.0
11
47.801412
21
165.703303
31
0.0
0
ARC
8
0
10
47.923414
20
165.977385
30
0.0
40
0.300009
50
246.004713
51
48.187329
0
ARC
8
0
10
48.323439
20
166.424590
30
0.0
40
0.300000
50
180.000000
51
228.187329
0
LINE
8
0
10
48.023439
20
166.424590
30
0.0
11
48.023439
21
170.177376
31
0.0
0
ARC
8
0
10
47.722090
20
170.176025
30
0.0
40
0.301352
50
0.000000
51
90.000000
0
LINE
8
0
10
47.722650
20
170.477376
30
0.0
11
47.676240
21
170.477376
31
0.0
0
ARC
8
0
10
47.676240
20
170.177376
30
0.0
40
0.300000
50
90.000000
51
120.000000
0
LINE
8
0
10
47.526240
20
170.437184
30
0.0
11
45.759252
21
169.417013
31
0.0
0
ARC
8
0
10
45.609252
20
169.676821
30
0.0
40
0.300000
50
270.000000
51
300.000000
0
LINE
8
0
10
45.609252
20
169.376821
30
0.0
11
45.244900
21
169.376821
31
0.0
0
ARC
8
0
10
45.244900
20
170.376821
30
0.0
40
1.000000
50
214.261170
51
270.000000
0
LINE
8
0
10
44.418420
20
169.813855
30
0.0
11
43.376904
21
171.342885
31
0.0
0
ARC
8
0
10
43.622650
20
171.514958
30
0.0
40
0.300000
50
180.000000
51
215.000010
0
LINE
8
0
10
43.322650
20
171.514958
30
0.0
11
43.322650
21
171.877380
31
0.0
0
ARC
8
0
10
43.622650
20
171.877380
30
0.0
40
0.300000
50
90.000000
51
180.000000
0
LINE
8
0
10
43.622650
20
172.177380
30
0.0
11
51.223463
21
172.177380
31
0.0
0
ARC
8
0
10
51.223463
20
172.477380
30
0.0
40
0.300000
50
270.000000
51
0.000000
0
LINE
8
0
10
51.523463
20
172.477380
30
0.0
11
51.523463
21
177.352970
31
0.0
0
ARC
8
0
10
51.223463
20
177.352970
30
0.0
40
0.300000
50
0.000000
51
30.000000
0
LINE
8
0
10
51.483271
20
177.502970
30
0.0
11
50.632017
21
178.977385
31
0.0
0
ARC
8
0
10
52.364068
20
179.977385
30
0.0
40
2.000000
50
122.643077
51
210.000000
0
ARC
8
0
10
51.123439
20
181.914094
30
0.0
40
0.300000
50
302.643077
51
0.000000
0
LINE
8
0
10
51.423439
20
181.914094
30
0.0
11
51.423439
21
183.677385
31
0.0
0
ARC
8
0
10
51.123439
20
183.677385
30
0.0
40
0.300000
50
0.000000
51
90.000000
0
LINE
8
0
10
51.123439
20
183.977385
30
0.0
11
48.723439
21
183.977385
31
0.0
0
ARC
8
0
10
48.723439
20
184.277385
30
0.0
40
0.300000
50
180.000000
51
270.000000
0
LINE
8
0
10
48.423439
20
184.277385
30
0.0
11
48.423439
21
186.153121
31
0.0
0
ARC
8
0
10
48.723439
20
186.153121
30
0.0
40
0.300000
50
135.000000
51
180.000000
0
LINE
8
0
10
48.511307
20
186.365253
30
0.0
11
48.735571
21
186.589517
31
0.0
0
ARC
8
0
10
48.947703
20
186.377385
30
0.0
40
0.300000
50
90.000000
51
135.000000
0
LINE
8
0
10
48.947703
20
186.677385
30
0.0
11
49.623439
21
186.677385
31
0.0
0
ARC
8
0
10
49.623439
20
186.377385
30
0.0
40
0.300000
50
0.000000
51
90.000000
0
LINE
8
0
10
49.923439
20
186.377385
30
0.0
11
49.923439
21
185.777385
31
0.0
0
ARC
8
0
10
50.223439
20
185.777385
30
0.0
40
0.300000
50
180.000000
51
270.000000
0
LINE
8
0
10
50.223439
20
185.477385
30
0.0
11
52.633732
21
185.477385
31
0.0
0
LINE
8
0
10
61.115473
20
174.788536
30
0.0
11
60.845183
21
174.658371
31
0.0
0
ARC
8
0
10
59.223439
20
173.877380
30
0.0
40
1.800000
50
25.714286
51
68.571429
0
LINE
8
0
10
59.881053
20
175.552953
30
0.0
11
59.990655
21
175.832215
31
0.0
0
ARC
8
0
10
59.223439
20
173.877380
30
0.0
40
2.100000
50
68.571429
51
111.428571
0
LINE
8
0
10
58.456223
20
175.832215
30
0.0
11
58.565825
21
175.552953
31
0.0
0
ARC
8
0
10
59.223439
20
173.877380
30
0.0
40
1.800000
50
111.428571
51
154.285714
0
LINE
8
0
10
57.601695
20
174.658371
30
0.0
11
57.331404
21
174.788536
31
0.0
0
ARC
8
0
10
59.223439
20
173.877380
30
0.0
40
2.100000
50
154.285714
51
197.142857
0
LINE
8
0
10
57.216736
20
173.258394
30
0.0
11
57.503408
21
173.346820
31
0.0
0
ARC
8
0
10
59.223439
20
173.877380
30
0.0
40
1.800000
50
197.142857
51
224.728071
0
ARC
8
0
10
57.731484
20
172.399520
30
0.0
40
0.300000
50
270.000000
51
44.728071
0
LINE
8
0
10
57.731484
20
172.099520
30
0.0
11
56.952991
21
172.099520
31
0.0
0
ARC
8
0
10
56.952991
20
173.099520
30
0.0
40
1.000000
50
198.911563
51
270.000000
0
ARC
8
0
10
59.223439
20
173.877380
30
0.0
40
3.400000
50
154.377876
51
198.911563
0
ARC
8
0
10
55.887276
20
175.477385
30
0.0
40
0.300000
50
334.377876
51
90.000000
0
LINE
8
0
10
55.887276
20
175.777385
30
0.0
11
53.463030
21
175.777385
31
0.0
0
ARC
8
0
10
53.463030
20
175.277385
30
0.0
40
0.500000
50
90.000000
51
180.000000
0
LINE
8
0
10
52.963030
20
175.277385
30
0.0
11
52.963030
21
171.677380
31
0.0
0
ARC
8
0
10
51.963030
20
171.677380
30
0.0
40
1.000000
50
270.000000
51
0.000000
0
LINE
8
0
10
51.963030
20
170.677380
30
0.0
11
49.823439
21
170.677380
31
0.0
0
ARC
8
0
10
49.823439
20
170.377380
30
0.0
40
0.300000
50
90.000000
51
180.000000
0
LINE
8
0
10
49.523439
20
170.377380
30
0.0
11
49.523439
21
167.177385
31
0.0
0
ARC
8
0
10
49.823439
20
167.177385
30
0.0
40
0.300000
50
180.000000
51
270.000000
0
LINE
8
0
10
49.823439
20
166.877385
30
0.0
11
79.923439
21
166.877385
31
0.0
0
ARC
8
0
10
79.923439
20
167.177385
30
0.0
40
0.300000
50
270.000000
51
0.000000
0
LINE
8
0
10
80.223439
20
167.177385
30
0.0
11
80.223439
21
187.577385
31
0.0
0
ARC
8
0
10
79.923439
20
187.577385
30
0.0
40
0.300000
50
0.000000
51
90.000000
0
LINE
8
0
10
79.923439
20
187.877385
30
0.0
11
70.323439
21
187.877385
31
0.0
0
ARC
8
0
10
70.323439
20
187.577385
30
0.0
40
0.300000
50
90.000000
51
180.000000
0
LINE
8
0
10
70.023439
20
187.577385
30
0.0
11
70.023439
21
184.477385
31
0.0
0
ARC
8
0
10
69.523439
20
184.477385
30
0.0
40
0.500000
50
270.000000
51
0.000000
0
LINE
8
0
10
69.523439
20
183.977385
30
0.0
11
67.323439
21
183.977385
31
0.0
0
ARC
8
0
10
67.323439
20
183.677385
30
0.0
40
0.300000
50
90.000000
51
180.000000
0
LINE
8
0
10
67.023439
20
183.677385
30
0.0
11
67.023439
21
181.914094
31
0.0
0
ARC
8
0
10
67.323439
20
181.914094
30
0.0
40
0.300000
50
180.000000
51
237.356923
0
ARC
8
0
10
66.082810
20
179.977385
30
0.0
40
2.000000
50
330.000000
51
57.356923
0
LINE
8
0
10
67.814860
20
178.977385
30
0.0
11
66.256015
21
176.277385
31
0.0
0
ARC
8
0
10
65.389989
20
176.777385
30
0.0
40
1.000000
50
270.000000
51
330.000000
0
LINE
8
0
10
65.389989
20
175.777385
30
0.0
11
62.559602
21
175.777385
31
0.0
0
ARC
8
0
10
62.559602
20
175.477385
30
0.0
40
0.300000
50
90.000000
51
205.622124
0
ARC
8
0
10
59.223439
20
173.877380
30
0.0
40
3.400000
50
341.088437
51
25.622124
0
ARC
8
0
10
61.493887
20
173.099520
30
0.0
40
1.000000
50
270.000000
51
341.088437
0
LINE
8
0
10
61.493887
20
172.099520
30
0.0
11
60.715394
21
172.099520
31
0.0
0
ARC
8
0
10
60.715394
20
172.399520
30
0.0
40
0.300000
50
135.271929
51
270.000000
0
ARC
8
0
10
59.223439
20
173.877380
30
0.0
40
1.800000
50
315.271929
51
342.857143
0
LINE
8
0
10
60.943470
20
173.346820
30
0.0
11
61.230142
21
173.258394
31
0.0
0
ARC
8
0
10
59.223439
20
173.877380
30
0.0
40
2.100000
50
342.857143
51
25.714286
0
LINE
8
0
10
-13.726819
20
170.177380
30
0.0
11
-25.175746
21
170.177380
31
0.0
0
ARC
8
0
10
-25.175746
20
169.877380
30
0.0
40
0.300000
50
90.000000
51
180.000000
0
LINE
8
0
10
-25.475746
20
169.877380
30
0.0
11
-25.475746
21
168.977380
31
0.0
0
ARC
8
0
10
-25.175746
20
168.977380
30
0.0
40
0.300000
50
180.000000
51
270.000000
0
LINE
8
0
10
-25.175746
20
168.677380
30
0.0
11
-15.226819
21
168.677380
31
0.0
0
ARC
8
0
10
-15.226819
20
168.177380
30
0.0
40
0.500000
50
0.000000
51
90.000000
0
LINE
8
0
10
-14.726819
20
168.177380
30
0.0
11
-14.726819
21
166.377380
31
0.0
0
ARC
8
0
10
-12.726819
20
166.377380
30
0.0
40
2.000000
50
180.000000
51
270.000000
0
LINE
8
0
10
-12.726819
20
164.377380
30
0.0
11
-6.754246
21
164.377380
31
0.0
0
LINE
8
0
10
-6.754246
20
164.377380
30
0.0
11
-6.677782
21
164.387288
31
0.0
0
LINE
8
0
10
-6.677782
20
164.387288
30
0.0
11
-5.715579
21
164.640911
31
0.0
0
ARC
8
0
10
-5.625858
20
164.354641
30
0.0
40
0.300000
50
29.632658
51
107.401721
0
ARC
8
0
10
-5.191252
20
164.601860
30
0.0
40
0.200000
50
209.632658
51
270.000000
0
LINE
8
0
10
-5.189849
20
164.401865
30
0.0
11
-3.638755
21
164.401865
31
0.0
0
ARC
8
0
10
-3.638755
20
164.701865
30
0.0
40
0.300000
50
270.000000
51
17.401721
0
LINE
8
0
10
-3.352486
20
164.791586
30
0.0
11
-3.954450
21
166.712254
31
0.0
0
ARC
8
0
10
-4.717835
20
166.472999
30
0.0
40
0.800000
50
17.401721
51
62.401721
0
LINE
8
0
10
-4.347220
20
167.181973
30
0.0
11
-4.628290
21
167.328902
31
0.0
0
ARC
8
0
10
-4.720944
20
167.151659
30
0.0
40
0.200000
50
62.401721
51
180.000000
0
LINE
8
0
10
-4.920768
20
167.143277
30
0.0
11
-4.908671
21
166.854856
31
0.0
0
LINE
8
0
10
-4.908671
20
166.854856
30
0.0
11
-6.616768
21
165.770793
31
0.0
0
ARC
8
0
10
-6.938279
20
166.277380
30
0.0
40
0.600000
50
270.000000
51
302.401721
0
LINE
8
0
10
-6.938279
20
165.677380
30
0.0
11
-6.976561
21
165.677380
31
0.0
0
ARC
8
0
10
-6.876561
20
165.960222
30
0.0
40
0.300000
50
109.471221
51
250.528779
0
LINE
8
0
10
-6.976561
20
166.243065
30
0.0
11
-6.976561
21
170.277380
31
0.0
0
ARC
8
0
10
-6.676561
20
170.277380
30
0.0
40
0.300000
50
90.000000
51
180.000000
0
LINE
8
0
10
-6.676561
20
170.577380
30
0.0
11
-6.456946
21
170.577380
31
0.0
0
ARC
8
0
10
-6.456946
20
170.277380
30
0.0
40
0.300000
50
60.000000
51
90.000000
0
LINE
8
0
10
-6.306946
20
170.537187
30
0.0
11
-4.776561
21
169.603619
31
0.0
0
ARC
8
0
10
-4.676561
20
169.776824
30
0.0
40
0.200000
50
240.000000
51
270.000000
0
LINE
8
0
10
-4.676561
20
169.576824
30
0.0
11
-3.932742
21
169.576824
31
0.0
0
ARC
8
0
10
-3.932742
20
170.076824
30
0.0
40
0.500000
50
270.000000
51
324.999990
0
LINE
8
0
10
-3.523166
20
169.790036
30
0.0
11
-2.330816
21
171.542889
31
0.0
0
ARC
8
0
10
-2.576561
20
171.714962
30
0.0
40
0.300000
50
324.999990
51
0.000000
0
LINE
8
0
10
-2.276561
20
171.714962
30
0.0
11
-2.276561
21
171.877380
31
0.0
0
ARC
8
0
10
-2.576561
20
171.877380
30
0.0
40
0.300000
50
0.000000
51
90.000000
0
LINE
8
0
10
-2.576561
20
172.177380
30
0.0
11
-8.276819
21
172.177380
31
0.0
0
ARC
8
0
10
-8.276819
20
171.677380
30
0.0
40
0.500000
50
90.000000
51
180.000000
0
LINE
8
0
10
-8.776819
20
171.677380
30
0.0
11
-8.776819
21
166.377380
31
0.0
0
ARC
8
0
10
-9.276819
20
166.377380
30
0.0
40
0.500000
50
270.000000
51
0.000000
0
LINE
8
0
10
-9.276819
20
165.877380
30
0.0
11
-12.726819
21
165.877380
31
0.0
0
ARC
8
0
10
-12.726819
20
166.377380
30
0.0
40
0.500000
50
180.000000
51
270.000000
0
LINE
8
0
10
-13.226819
20
166.377380
30
0.0
11
-13.226819
21
169.677380
31
0.0
0
ARC
8
0
10
-13.726819
20
169.677380
30
0.0
40
0.500000
50
0.000000
51
90.000000
0
ATTDEF
8
0
10
74.773439
20
189.377385
30
0.0
40
3.5
1

3

2
VC_START
70
0
0
ATTDEF
8
0
10
80.923439
20
164.377385
30
0.0
40
3.5
1

3

2
VC_END
70
0
0
ATTDEF
8
0
10
-25.475746
20
164.377380
30
0.0
40
3.5
1

3

2
FRONT_VIEW
70
0
0
ATTDEF
8
0
10
-25.475746
20
164.377380
30
0.0
40
3.5
1

3

2
BL01:6800.000000,,1
70
0
0
ATTDEF
8
0
10
-25.475746
20
164.377380
30
0.0
40
3.5
1

3

2
OPTI:500.000000,1,0,3000.000000,6500.000000,500.000000,0,0.000000,0
70
0
0
ATTDEF
8
0
10
-25.475746
20
164.377380
30
0.0
40
3.5
1

3

2
GLASS_MIN:0.000000
70
0
0
ATTDEF
8
0
10
-25.475746
20
164.377380
30
0.0
40
3.5
1

3

2
GLASS_MAX:0.000000
70
0
0
ATTDEF
8
0
10
-25.475746
20
164.377380
30
0.0
40
3.5
1

3

2
FP_LCS_ORIG
70
0
0
ATTDEF
8
0
10
-15.475746
20
164.377380
30
0.0
40
3.5
1

3

2
FP_LCS_HOT
70
0
0
ATTDEF
8
0
10
-25.475746
20
174.377380
30
0.0
40
3.5
1

3

2
FP_LCS_INTERN
70
0
0
ATTDEF
8
0
10
0.000000
20
0.000000
30
0.0
40
3.5
1

3

2
TDEV2:0
70
0
0
ATTDEF
8
0
10
0.000000
20
0.000000
30
0.0
40
3.5
1

3

2
TDEV3:0
70
0
0
ATTDEF
8
0
10
0.000000
20
0.000000
30
0.0
40
3.5
1

3

2
TDEV4:0
70
0
0
ATTDEF
8
0
10
0.000000
20
0.000000
30
0.0
40
3.5
1

3

2
TDEV5:0
70
0
0
ATTDEF
8
0
10
0.000000
20
0.000000
30
0.0
40
3.5
1

3

2
PANE_WIDTH:0
70
0
0
ATTDEF
8
0
10
0.000000
20
0.000000
30
0.0
40
3.5
1

3

2
MIN_VETRO:0
70
0
0
ATTDEF
8
0
10
0.000000
20
0.000000
30
0.0
40
3.5
1

3

2
MAX_VETRO:0
70
0
0
ATTDEF
8
0
10
0.000000
20
0.000000
30
0.0
40
3.5
1

3

2
JX:0
70
0
0
ATTDEF
8
0
10
0.000000
20
0.000000
30
0.0
40
3.5
1

3

2
WX:0
70
0
0
ATTDEF
8
0
10
0.000000
20
0.000000
30
0.0
40
3.5
1

3

2
JY:0
70
0
0
ATTDEF
8
0
10
0.000000
20
0.000000
30
0.0
40
3.5
1

3

2
WY:0
70
0
0
ATTDEF
8
0
10
0.000000
20
0.000000
30
0.0
40
3.5
1

3

2
DESC:Soglia bassa composita 3ante 3vie
70
0
0
ATTDEF
8
0
10
0.000000
20
0.000000
30
0.0
40
3.5
1

3

2
DENS:0.95
70
0
0
ATTDEF
8
0
10
0.000000
20
0.000000
30
0.0
40
3.5
1

3

2
TDEV:0
70
0
0
ATTDEF
8
0
10
0.000000
20
0.000000
30
0.0
40
3.5
1

3

2
TDEV2:0
70
0
0
ATTDEF
8
0
10
0.000000
20
0.000000
30
0.0
40
3.5
1

3

2
TDEV3:0
70
0
0
ATTDEF
8
0
10
0.000000
20
0.000000
30
0.0
40
3.5
1

3

2
TDEV4:0
70
0
0
ATTDEF
8
0
10
0.000000
20
0.000000
30
0.0
40
3.5
1

3

2
TDEV5:0
70
0
0
ATTDEF
8
0
10
0.000000
20
0.000000
30
0.0
40
3.5
1

3

2
PANE_WIDTH:0
70
0
0
ATTDEF
8
0
10
0.000000
20
0.000000
30
0.0
40
3.5
1

3

2
MIN_VETRO:0
70
0
0
ATTDEF
8
0
10
0.000000
20
0.000000
30
0.0
40
3.5
1

3

2
MAX_VETRO:0
70
0
0
ATTDEF
8
0
10
0.000000
20
0.000000
30
0.0
40
3.5
1

3

2
JX:0
70
0
0
ATTDEF
8
0
10
0.000000
20
0.000000
30
0.0
40
3.5
1

3

2
WX:0
70
0
0
ATTDEF
8
0
10
0.000000
20
0.000000
30
0.0
40
3.5
1

3

2
JY:0
70
0
0
ATTDEF
8
0
10
0.000000
20
0.000000
30
0.0
40
3.5
1

3

2
WY:0
70
0
0
ENDSEC
0
EOF
