0
SECTION
2
ENTITIES
0
ARC
8
0
10
41.018775
20
190.583582
30
0.0
40
0.300000
50
90.000000
51
178.000000
0
LINE
8
0
10
40.718958
20
190.594052
30
0.0
11
40.572534
21
186.401032
31
0.0
0
ARC
8
0
10
41.072230
20
186.383582
30
0.0
40
0.500000
50
178.000000
51
270.000000
0
LINE
8
0
10
41.072230
20
185.883582
30
0.0
11
41.288439
21
185.883582
31
0.0
0
ARC
8
0
10
41.288439
20
185.383582
30
0.0
40
0.500000
50
330.000000
51
90.000000
0
LINE
8
0
10
41.721452
20
185.133582
30
0.0
11
40.566751
21
183.133582
31
0.0
0
ARC
8
0
10
40.133739
20
183.383582
30
0.0
40
0.500000
50
270.000000
51
330.000000
0
LINE
8
0
10
40.133739
20
182.883582
30
0.0
11
34.737091
21
182.883582
31
0.0
0
LINE
8
0
10
34.737091
20
182.883582
30
0.0
11
34.437091
21
182.583582
31
0.0
0
LINE
8
0
10
34.437091
20
182.583582
30
0.0
11
34.137091
21
182.883582
31
0.0
0
LINE
8
0
10
34.137091
20
182.883582
30
0.0
11
28.724398
21
182.883582
31
0.0
0
ARC
8
0
10
28.724398
20
183.383582
30
0.0
40
0.500000
50
210.000000
51
270.000000
0
LINE
8
0
10
28.291385
20
183.133582
30
0.0
11
27.136685
21
185.133582
31
0.0
0
ARC
8
0
10
27.569698
20
185.383582
30
0.0
40
0.500000
50
90.000000
51
210.000000
0
LINE
8
0
10
27.569698
20
185.883582
30
0.0
11
27.785907
21
185.883582
31
0.0
0
ARC
8
0
10
27.785907
20
186.383582
30
0.0
40
0.500000
50
270.000000
51
2.000000
0
LINE
8
0
10
28.285602
20
186.401032
30
0.0
11
28.139179
21
190.594052
31
0.0
0
ARC
8
0
10
27.839362
20
190.583582
30
0.0
40
0.300000
50
2.000000
51
90.000000
0
LINE
8
0
10
27.839362
20
190.883582
30
0.0
11
25.429068
21
190.883582
31
0.0
0
ARC
8
0
10
25.429068
20
191.183582
30
0.0
40
0.300000
50
180.000000
51
270.000000
0
LINE
8
0
10
25.129068
20
191.183582
30
0.0
11
25.129068
21
194.483582
31
0.0
0
ARC
8
0
10
24.829068
20
194.483582
30
0.0
40
0.300000
50
0.000000
51
90.000000
0
LINE
8
0
10
24.829068
20
194.783582
30
0.0
11
12.929068
21
194.783582
31
0.0
0
ARC
8
0
10
12.929068
20
193.783582
30
0.0
40
1.000000
50
90.000000
51
180.000000
0
LINE
8
0
10
11.929068
20
193.783582
30
0.0
11
11.929068
21
170.083582
31
0.0
0
ARC
8
0
10
12.229068
20
170.083582
30
0.0
40
0.300000
50
180.000000
51
270.000000
0
LINE
8
0
10
12.229068
20
169.783582
30
0.0
11
13.229068
21
169.783582
31
0.0
0
ARC
8
0
10
13.229068
20
170.083582
30
0.0
40
0.300000
50
270.000000
51
0.000000
0
LINE
8
0
10
13.529068
20
170.083582
30
0.0
11
13.529068
21
170.483582
31
0.0
0
ARC
8
0
10
13.829068
20
170.483582
30
0.0
40
0.300000
50
90.000000
51
180.000000
0
LINE
8
0
10
13.829068
20
170.783582
30
0.0
11
29.229068
21
170.783582
31
0.0
0
ARC
8
0
10
29.229068
20
170.483582
30
0.0
40
0.300000
50
0.000000
51
90.000000
0
LINE
8
0
10
29.529068
20
170.483582
30
0.0
11
29.529068
21
170.083582
31
0.0
0
ARC
8
0
10
29.829068
20
170.083582
30
0.0
40
0.300000
50
180.000000
51
270.000000
0
LINE
8
0
10
29.829068
20
169.783582
30
0.0
11
30.829068
21
169.783582
31
0.0
0
ARC
8
0
10
30.829068
20
170.083582
30
0.0
40
0.300000
50
270.000000
51
0.000000
0
LINE
8
0
10
31.129068
20
170.083582
30
0.0
11
31.129068
21
170.483582
31
0.0
0
ARC
8
0
10
31.429068
20
170.483582
30
0.0
40
0.300000
50
90.000000
51
180.000000
0
LINE
8
0
10
31.429068
20
170.783582
30
0.0
11
43.829068
21
170.783582
31
0.0
0
ARC
8
0
10
43.829068
20
170.483582
30
0.0
40
0.300000
50
0.000000
51
90.000000
0
LINE
8
0
10
44.129068
20
170.483582
30
0.0
11
44.129068
21
170.083582
31
0.0
0
ARC
8
0
10
44.429068
20
170.083582
30
0.0
40
0.300000
50
180.000000
51
270.000000
0
LINE
8
0
10
44.429068
20
169.783582
30
0.0
11
45.897009
21
169.783582
31
0.0
0
ARC
8
0
10
45.897009
20
170.083582
30
0.0
40
0.300000
50
270.000000
51
289.778171
0
LINE
8
0
10
45.998523
20
169.801279
30
0.0
11
47.300385
21
170.269418
31
0.0
0
ARC
8
0
10
47.379904
20
170.048281
30
0.0
40
0.235000
50
24.000000
51
109.778171
0
ARC
8
0
10
47.815839
20
170.224695
30
0.0
40
0.235000
50
204.000000
51
270.000000
0
LINE
8
0
10
47.814283
20
169.989700
30
0.0
11
49.393211
21
169.979243
31
0.0
0
ARC
8
0
10
49.395198
20
170.279236
30
0.0
40
0.300000
50
270.000000
51
24.620541
0
LINE
8
0
10
49.667924
20
170.404218
30
0.0
11
48.719274
21
172.509733
31
0.0
0
ARC
8
0
10
48.445754
20
172.386498
30
0.0
40
0.300000
50
24.254172
51
64.620541
0
LINE
8
0
10
48.574338
20
172.657545
30
0.0
11
48.066915
21
172.898264
31
0.0
0
ARC
8
0
10
47.981193
20
172.717566
30
0.0
40
0.200000
50
64.620541
51
184.620541
0
LINE
8
0
10
47.781843
20
172.701455
30
0.0
11
47.791144
21
172.586360
31
0.0
0
ARC
8
0
10
47.492119
20
172.562193
30
0.0
40
0.300000
50
304.620541
51
4.620541
0
LINE
8
0
10
47.662561
20
172.315313
30
0.0
11
46.033804
21
171.190847
31
0.0
0
LINE
8
0
10
46.033804
20
171.190847
30
0.0
11
45.851095
21
171.109500
31
0.0
0
ARC
8
0
10
45.729093
20
171.383582
30
0.0
40
0.300009
50
131.812671
51
293.995287
0
ARC
8
0
10
45.329068
20
171.830786
30
0.0
40
0.300000
50
311.812671
51
0.000000
0
LINE
8
0
10
45.629068
20
171.830786
30
0.0
11
45.629068
21
175.583573
31
0.0
0
ARC
8
0
10
45.930417
20
175.582222
30
0.0
40
0.301352
50
90.000000
51
180.000000
0
LINE
8
0
10
45.929857
20
175.883573
30
0.0
11
45.976268
21
175.883573
31
0.0
0
ARC
8
0
10
45.976268
20
175.583573
30
0.0
40
0.300000
50
60.000000
51
90.000000
0
LINE
8
0
10
46.126268
20
175.843380
30
0.0
11
47.893255
21
174.823210
31
0.0
0
ARC
8
0
10
48.043255
20
175.083017
30
0.0
40
0.300000
50
240.000000
51
270.000000
0
LINE
8
0
10
48.043255
20
174.783017
30
0.0
11
48.407607
21
174.783017
31
0.0
0
ARC
8
0
10
48.407607
20
175.783017
30
0.0
40
1.000000
50
270.000000
51
325.738830
0
LINE
8
0
10
49.234087
20
175.220051
30
0.0
11
50.275603
21
176.749082
31
0.0
0
ARC
8
0
10
50.029857
20
176.921155
30
0.0
40
0.300000
50
324.999990
51
0.000000
0
LINE
8
0
10
50.329857
20
176.921155
30
0.0
11
50.329857
21
177.283577
31
0.0
0
ARC
8
0
10
50.029857
20
177.283577
30
0.0
40
0.300000
50
0.000000
51
90.000000
0
LINE
8
0
10
50.029857
20
177.583577
30
0.0
11
42.429044
21
177.583577
31
0.0
0
ARC
8
0
10
42.429044
20
177.883577
30
0.0
40
0.300000
50
180.000000
51
270.000000
0
LINE
8
0
10
42.129044
20
177.883577
30
0.0
11
42.129044
21
182.759167
31
0.0
0
ARC
8
0
10
42.429044
20
182.759167
30
0.0
40
0.300000
50
150.000000
51
180.000000
0
LINE
8
0
10
42.169236
20
182.909167
30
0.0
11
43.020490
21
184.383582
31
0.0
0
ARC
8
0
10
41.288439
20
185.383582
30
0.0
40
2.000000
50
330.000000
51
57.356923
0
ARC
8
0
10
42.529068
20
187.320291
30
0.0
40
0.300000
50
180.000000
51
237.356923
0
LINE
8
0
10
42.229068
20
187.320291
30
0.0
11
42.229068
21
189.083582
31
0.0
0
ARC
8
0
10
42.529068
20
189.083582
30
0.0
40
0.300000
50
90.000000
51
180.000000
0
LINE
8
0
10
42.529068
20
189.383582
30
0.0
11
44.929068
21
189.383582
31
0.0
0
ARC
8
0
10
44.929068
20
189.683582
30
0.0
40
0.300000
50
270.000000
51
0.000000
0
LINE
8
0
10
45.229068
20
189.683582
30
0.0
11
45.229068
21
191.559318
31
0.0
0
ARC
8
0
10
44.929068
20
191.559318
30
0.0
40
0.300000
50
0.000000
51
45.000000
0
LINE
8
0
10
45.141200
20
191.771450
30
0.0
11
44.916936
21
191.995714
31
0.0
0
ARC
8
0
10
44.704804
20
191.783582
30
0.0
40
0.300000
50
45.000000
51
90.000000
0
LINE
8
0
10
44.704804
20
192.083582
30
0.0
11
44.029068
21
192.083582
31
0.0
0
ARC
8
0
10
44.029068
20
191.783582
30
0.0
40
0.300000
50
90.000000
51
180.000000
0
LINE
8
0
10
43.729068
20
191.783582
30
0.0
11
43.729068
21
191.183582
31
0.0
0
ARC
8
0
10
43.429068
20
191.183582
30
0.0
40
0.300000
50
270.000000
51
0.000000
0
LINE
8
0
10
43.429068
20
190.883582
30
0.0
11
41.018775
21
190.883582
31
0.0
0
LINE
8
0
10
32.537034
20
180.194732
30
0.0
11
32.807324
21
180.064567
31
0.0
0
ARC
8
0
10
34.429068
20
179.283577
30
0.0
40
1.800000
50
111.428571
51
154.285714
0
LINE
8
0
10
33.771454
20
180.959149
30
0.0
11
33.661852
21
181.238411
31
0.0
0
ARC
8
0
10
34.429068
20
179.283577
30
0.0
40
2.100000
50
68.571429
51
111.428571
0
LINE
8
0
10
35.196284
20
181.238411
30
0.0
11
35.086682
21
180.959149
31
0.0
0
ARC
8
0
10
34.429068
20
179.283577
30
0.0
40
1.800000
50
25.714286
51
68.571429
0
LINE
8
0
10
36.050812
20
180.064567
30
0.0
11
36.321103
21
180.194732
31
0.0
0
ARC
8
0
10
34.429068
20
179.283577
30
0.0
40
2.100000
50
342.857143
51
25.714286
0
LINE
8
0
10
36.435771
20
178.664591
30
0.0
11
36.149099
21
178.753017
31
0.0
0
ARC
8
0
10
34.429068
20
179.283577
30
0.0
40
1.800000
50
315.271929
51
342.857143
0
ARC
8
0
10
35.921023
20
177.805717
30
0.0
40
0.300000
50
135.271929
51
270.000000
0
LINE
8
0
10
35.921023
20
177.505717
30
0.0
11
36.699516
21
177.505717
31
0.0
0
ARC
8
0
10
36.699516
20
178.505717
30
0.0
40
1.000000
50
270.000000
51
341.088437
0
ARC
8
0
10
34.429068
20
179.283577
30
0.0
40
3.400000
50
341.088437
51
25.622124
0
ARC
8
0
10
37.765231
20
180.883582
30
0.0
40
0.300000
50
90.000000
51
205.622124
0
LINE
8
0
10
37.765231
20
181.183582
30
0.0
11
40.189477
21
181.183582
31
0.0
0
ARC
8
0
10
40.189477
20
180.683582
30
0.0
40
0.500000
50
0.000000
51
90.000000
0
LINE
8
0
10
40.689477
20
180.683582
30
0.0
11
40.689477
21
177.083577
31
0.0
0
ARC
8
0
10
41.689477
20
177.083577
30
0.0
40
1.000000
50
180.000000
51
270.000000
0
LINE
8
0
10
41.689477
20
176.083577
30
0.0
11
43.829068
21
176.083577
31
0.0
0
ARC
8
0
10
43.829068
20
175.783577
30
0.0
40
0.300000
50
0.000000
51
90.000000
0
LINE
8
0
10
44.129068
20
175.783577
30
0.0
11
44.129068
21
172.583582
31
0.0
0
ARC
8
0
10
43.829068
20
172.583582
30
0.0
40
0.300000
50
270.000000
51
0.000000
0
LINE
8
0
10
43.829068
20
172.283582
30
0.0
11
13.729068
21
172.283582
31
0.0
0
ARC
8
0
10
13.729068
20
172.583582
30
0.0
40
0.300000
50
180.000000
51
270.000000
0
LINE
8
0
10
13.429068
20
172.583582
30
0.0
11
13.429068
21
192.983582
31
0.0
0
ARC
8
0
10
13.729068
20
192.983582
30
0.0
40
0.300000
50
90.000000
51
180.000000
0
LINE
8
0
10
13.729068
20
193.283582
30
0.0
11
23.329068
21
193.283582
31
0.0
0
ARC
8
0
10
23.329068
20
192.983582
30
0.0
40
0.300000
50
0.000000
51
90.000000
0
LINE
8
0
10
23.629068
20
192.983582
30
0.0
11
23.629068
21
189.883582
31
0.0
0
ARC
8
0
10
24.129068
20
189.883582
30
0.0
40
0.500000
50
180.000000
51
270.000000
0
LINE
8
0
10
24.129068
20
189.383582
30
0.0
11
26.329068
21
189.383582
31
0.0
0
ARC
8
0
10
26.329068
20
189.083582
30
0.0
40
0.300000
50
0.000000
51
90.000000
0
LINE
8
0
10
26.629068
20
189.083582
30
0.0
11
26.629068
21
187.320291
31
0.0
0
ARC
8
0
10
26.329068
20
187.320291
30
0.0
40
0.300000
50
302.643077
51
0.000000
0
ARC
8
0
10
27.569698
20
185.383582
30
0.0
40
2.000000
50
122.643077
51
210.000000
0
LINE
8
0
10
25.837647
20
184.383582
30
0.0
11
27.396493
21
181.683582
31
0.0
0
ARC
8
0
10
28.262518
20
182.183582
30
0.0
40
1.000000
50
210.000000
51
270.000000
0
LINE
8
0
10
28.262518
20
181.183582
30
0.0
11
31.092906
21
181.183582
31
0.0
0
ARC
8
0
10
31.092906
20
180.883582
30
0.0
40
0.300000
50
334.377876
51
90.000000
0
ARC
8
0
10
34.429068
20
179.283577
30
0.0
40
3.400000
50
154.377876
51
198.911563
0
ARC
8
0
10
32.158620
20
178.505717
30
0.0
40
1.000000
50
198.911563
51
270.000000
0
LINE
8
0
10
32.158620
20
177.505717
30
0.0
11
32.937113
21
177.505717
31
0.0
0
ARC
8
0
10
32.937113
20
177.805717
30
0.0
40
0.300000
50
270.000000
51
44.728071
0
ARC
8
0
10
34.429068
20
179.283577
30
0.0
40
1.800000
50
197.142857
51
224.728071
0
LINE
8
0
10
32.709037
20
178.753017
30
0.0
11
32.422365
21
178.664591
31
0.0
0
ARC
8
0
10
34.429068
20
179.283577
30
0.0
40
2.100000
50
154.285714
51
197.142857
0
LINE
8
0
10
109.376479
20
170.478218
30
0.0
11
103.684237
21
170.478218
31
0.0
0
ARC
8
0
10
103.684237
20
171.478218
30
0.0
40
1.000000
50
210.000327
51
270.000000
0
LINE
8
0
10
102.818215
20
170.978213
30
0.0
11
101.894447
21
172.578205
31
0.0
0
ARC
8
0
10
103.626492
20
173.578215
30
0.0
40
2.000000
50
149.999842
51
210.000327
0
LINE
8
0
10
101.894444
20
174.578220
30
0.0
11
102.818211
21
176.178222
31
0.0
0
ARC
8
0
10
103.684235
20
175.678220
30
0.0
40
1.000000
50
90.000000
51
149.999842
0
LINE
8
0
10
103.684235
20
176.678220
30
0.0
11
109.376479
21
176.678220
31
0.0
0
ARC
8
0
10
109.376479
20
175.678220
30
0.0
40
1.000000
50
0.000000
51
90.000000
0
LINE
8
0
10
110.376479
20
175.678220
30
0.0
11
110.376479
21
171.478218
31
0.0
0
ARC
8
0
10
109.376479
20
171.478218
30
0.0
40
1.000000
50
270.000000
51
0.000000
0
ARC
8
0
10
118.126481
20
173.578215
30
0.0
40
2.000000
50
329.999955
51
30.000209
0
LINE
8
0
10
119.858531
20
172.578214
30
0.0
11
118.934771
21
170.978217
31
0.0
0
ARC
8
0
10
118.068746
20
171.478218
30
0.0
40
1.000000
50
270.000000
51
329.999955
0
LINE
8
0
10
118.068746
20
170.478218
30
0.0
11
112.376482
21
170.478218
31
0.0
0
ARC
8
0
10
112.376482
20
171.478218
30
0.0
40
1.000000
50
180.000000
51
270.000000
0
LINE
8
0
10
111.376482
20
171.478218
30
0.0
11
111.376482
21
175.678220
31
0.0
0
ARC
8
0
10
112.376482
20
175.678220
30
0.0
40
1.000000
50
90.000000
51
180.000000
0
LINE
8
0
10
112.376482
20
176.678220
30
0.0
11
118.068736
21
176.678220
31
0.0
0
ARC
8
0
10
118.068736
20
175.678220
30
0.0
40
1.000000
50
30.000209
51
90.000000
0
LINE
8
0
10
118.934759
20
176.178223
30
0.0
11
119.858528
21
174.578221
31
0.0
0
LINE
8
0
10
122.370500
20
172.378223
30
0.0
11
122.733333
21
172.378223
31
0.0
0
ARC
8
0
10
122.733333
20
172.178223
30
0.0
40
0.200000
50
60.000014
51
90.000000
0
LINE
8
0
10
122.833333
20
172.351428
30
0.0
11
124.342668
21
171.480014
31
0.0
0
ARC
8
0
10
124.442668
20
171.653219
30
0.0
40
0.200000
50
240.000014
51
270.000000
0
LINE
8
0
10
124.442668
20
171.453219
30
0.0
11
124.829068
21
171.453219
31
0.0
0
ARC
8
0
10
124.829068
20
171.753219
30
0.0
40
0.300000
50
270.000000
51
0.000000
0
LINE
8
0
10
125.129068
20
171.753219
30
0.0
11
125.129068
21
172.753213
31
0.0
0
ARC
8
0
10
124.829068
20
172.753213
30
0.0
40
0.300000
50
0.000000
51
90.000000
0
LINE
8
0
10
124.829068
20
173.053213
30
0.0
11
124.708863
21
173.053213
31
0.0
0
ARC
8
0
10
124.379068
20
173.578223
30
0.0
40
0.620000
50
57.861450
51
302.135874
0
LINE
8
0
10
124.708888
20
174.103216
30
0.0
11
124.829068
21
174.103216
31
0.0
0
ARC
8
0
10
124.829066
20
174.403218
30
0.0
40
0.300002
50
270.000000
51
0.000000
0
LINE
8
0
10
125.129068
20
174.403220
30
0.0
11
125.129068
21
175.403223
31
0.0
0
ARC
8
0
10
124.829058
20
175.403214
30
0.0
40
0.300009
50
0.000000
51
90.000000
0
LINE
8
0
10
124.829049
20
175.703223
30
0.0
11
124.442694
21
175.703223
31
0.0
0
ARC
8
0
10
124.442678
20
175.503281
30
0.0
40
0.199942
50
90.000000
51
119.995468
0
LINE
8
0
10
124.342721
20
175.676443
30
0.0
11
122.833364
21
174.805018
31
0.0
0
ARC
8
0
10
122.733364
20
174.978223
30
0.0
40
0.200000
50
270.000000
51
299.999916
0
LINE
8
0
10
122.733364
20
174.778223
30
0.0
11
122.370500
21
174.778223
31
0.0
0
ARC
8
0
10
122.370500
20
176.278223
30
0.0
40
1.500000
50
215.000010
51
270.000000
0
LINE
8
0
10
121.141772
20
175.417858
30
0.0
11
119.997674
21
177.051799
31
0.0
0
ARC
8
0
10
119.178522
20
176.478223
30
0.0
40
1.000000
50
35.000010
51
90.000000
0
LINE
8
0
10
119.178522
20
177.478223
30
0.0
11
102.579584
21
177.478223
31
0.0
0
ARC
8
0
10
102.579584
20
176.478223
30
0.0
40
1.000000
50
90.000000
51
144.999990
0
LINE
8
0
10
101.760432
20
177.051799
30
0.0
11
100.616333
21
175.417858
31
0.0
0
ARC
8
0
10
99.387605
20
176.278223
30
0.0
40
1.500000
50
270.000000
51
324.999990
0
LINE
8
0
10
99.387605
20
174.778223
30
0.0
11
99.024741
21
174.778223
31
0.0
0
ARC
8
0
10
99.024749
20
174.978194
30
0.0
40
0.199972
50
239.997627
51
270.000000
0
LINE
8
0
10
98.924755
20
174.805018
30
0.0
11
97.415415
21
175.676443
31
0.0
0
ARC
8
0
10
97.315458
20
175.503283
30
0.0
40
0.199940
50
60.004401
51
90.000000
0
LINE
8
0
10
97.315442
20
175.703223
30
0.0
11
96.929056
21
175.703223
31
0.0
0
ARC
8
0
10
96.929062
20
175.403229
30
0.0
40
0.299994
50
90.000000
51
180.000000
0
LINE
8
0
10
96.629068
20
175.403223
30
0.0
11
96.629068
21
174.403220
31
0.0
0
ARC
8
0
10
96.929070
20
174.403218
30
0.0
40
0.300002
50
180.000000
51
270.000000
0
LINE
8
0
10
96.929070
20
174.103216
30
0.0
11
97.049217
21
174.103216
31
0.0
0
ARC
8
0
10
97.379038
20
173.578223
30
0.0
40
0.620000
50
237.864126
51
122.138550
0
LINE
8
0
10
97.049242
20
173.053213
30
0.0
11
96.929068
21
173.053213
31
0.0
0
ARC
8
0
10
96.929068
20
172.753213
30
0.0
40
0.300000
50
90.000000
51
180.000000
0
LINE
8
0
10
96.629068
20
172.753213
30
0.0
11
96.629068
21
171.753219
31
0.0
0
ARC
8
0
10
96.929068
20
171.753219
30
0.0
40
0.300000
50
180.000000
51
270.000000
0
LINE
8
0
10
96.929068
20
171.453219
30
0.0
11
97.315468
21
171.453219
31
0.0
0
ARC
8
0
10
97.315468
20
171.653219
30
0.0
40
0.200000
50
270.000000
51
300.000488
0
LINE
8
0
10
97.415470
20
171.480015
30
0.0
11
98.924770
21
172.351427
31
0.0
0
ARC
8
0
10
99.024772
20
172.178223
30
0.0
40
0.200000
50
90.000000
51
120.000488
0
LINE
8
0
10
99.024772
20
172.378223
30
0.0
11
99.387605
21
172.378223
31
0.0
0
ARC
8
0
10
99.387605
20
170.878223
30
0.0
40
1.500000
50
35.000010
51
90.000000
0
LINE
8
0
10
100.616333
20
171.738588
30
0.0
11
101.760434
21
170.104642
31
0.0
0
ARC
8
0
10
102.461898
20
170.688835
30
0.0
40
0.912871
50
219.788157
51
277.407200
0
LINE
8
0
10
102.579586
20
169.783582
30
0.0
11
119.178519
21
169.783582
31
0.0
0
ARC
8
0
10
119.296207
20
170.688835
30
0.0
40
0.912871
50
262.592800
51
320.211843
0
LINE
8
0
10
119.997671
20
170.104642
30
0.0
11
121.141772
21
171.738588
31
0.0
0
ARC
8
0
10
122.370500
20
170.878223
30
0.0
40
1.500000
50
90.000000
51
144.999990
0
LINE
8
0
10
58.379053
20
170.478218
30
0.0
11
52.686812
21
170.478218
31
0.0
0
ARC
8
0
10
52.686812
20
171.478218
30
0.0
40
1.000000
50
210.000327
51
270.000000
0
LINE
8
0
10
51.820789
20
170.978213
30
0.0
11
50.897021
21
172.578205
31
0.0
0
ARC
8
0
10
52.629066
20
173.578215
30
0.0
40
2.000000
50
149.999842
51
210.000327
0
LINE
8
0
10
50.897018
20
174.578220
30
0.0
11
51.820786
21
176.178222
31
0.0
0
ARC
8
0
10
52.686810
20
175.678220
30
0.0
40
1.000000
50
90.000000
51
149.999842
0
LINE
8
0
10
52.686810
20
176.678220
30
0.0
11
58.379053
21
176.678220
31
0.0
0
ARC
8
0
10
58.379053
20
175.678220
30
0.0
40
1.000000
50
0.000000
51
90.000000
0
LINE
8
0
10
59.379053
20
175.678220
30
0.0
11
59.379053
21
171.478218
31
0.0
0
ARC
8
0
10
58.379053
20
171.478218
30
0.0
40
1.000000
50
270.000000
51
0.000000
0
ARC
8
0
10
67.129056
20
173.578215
30
0.0
40
2.000000
50
329.999955
51
30.000209
0
LINE
8
0
10
68.861106
20
172.578214
30
0.0
11
67.937346
21
170.978217
31
0.0
0
ARC
8
0
10
67.071321
20
171.478218
30
0.0
40
1.000000
50
270.000000
51
329.999955
0
LINE
8
0
10
67.071321
20
170.478218
30
0.0
11
61.379056
21
170.478218
31
0.0
0
ARC
8
0
10
61.379056
20
171.478218
30
0.0
40
1.000000
50
180.000000
51
270.000000
0
LINE
8
0
10
60.379056
20
171.478218
30
0.0
11
60.379056
21
175.678220
31
0.0
0
ARC
8
0
10
61.379056
20
175.678220
30
0.0
40
1.000000
50
90.000000
51
180.000000
0
LINE
8
0
10
61.379056
20
176.678220
30
0.0
11
67.071310
21
176.678220
31
0.0
0
ARC
8
0
10
67.071310
20
175.678220
30
0.0
40
1.000000
50
30.000209
51
90.000000
0
LINE
8
0
10
67.937334
20
176.178223
30
0.0
11
68.861103
21
174.578221
31
0.0
0
LINE
8
0
10
71.370501
20
172.378223
30
0.0
11
71.733334
21
172.378223
31
0.0
0
ARC
8
0
10
71.733334
20
172.178223
30
0.0
40
0.200000
50
60.000014
51
90.000000
0
LINE
8
0
10
71.833334
20
172.351428
30
0.0
11
73.342668
21
171.480014
31
0.0
0
ARC
8
0
10
73.442668
20
171.653219
30
0.0
40
0.200000
50
240.000014
51
270.000000
0
LINE
8
0
10
73.442668
20
171.453219
30
0.0
11
73.829068
21
171.453219
31
0.0
0
ARC
8
0
10
73.829068
20
171.753219
30
0.0
40
0.300000
50
270.000000
51
0.000000
0
LINE
8
0
10
74.129068
20
171.753219
30
0.0
11
74.129068
21
172.753213
31
0.0
0
ARC
8
0
10
73.829068
20
172.753213
30
0.0
40
0.300000
50
0.000000
51
90.000000
0
LINE
8
0
10
73.829068
20
173.053213
30
0.0
11
73.708864
21
173.053213
31
0.0
0
ARC
8
0
10
73.379068
20
173.578223
30
0.0
40
0.620000
50
57.861450
51
302.135874
0
LINE
8
0
10
73.708889
20
174.103216
30
0.0
11
73.829068
21
174.103216
31
0.0
0
ARC
8
0
10
73.829067
20
174.403218
30
0.0
40
0.300002
50
270.000000
51
0.000000
0
LINE
8
0
10
74.129068
20
174.403220
30
0.0
11
74.129068
21
175.403223
31
0.0
0
ARC
8
0
10
73.829059
20
175.403214
30
0.0
40
0.300009
50
0.000000
51
90.000000
0
LINE
8
0
10
73.829050
20
175.703223
30
0.0
11
73.442695
21
175.703223
31
0.0
0
ARC
8
0
10
73.442679
20
175.503281
30
0.0
40
0.199942
50
90.000000
51
119.995468
0
LINE
8
0
10
73.342722
20
175.676443
30
0.0
11
71.833365
21
174.805018
31
0.0
0
ARC
8
0
10
71.733365
20
174.978223
30
0.0
40
0.200000
50
270.000000
51
299.999916
0
LINE
8
0
10
71.733365
20
174.778223
30
0.0
11
71.370501
21
174.778223
31
0.0
0
ARC
8
0
10
71.370501
20
176.278223
30
0.0
40
1.500000
50
215.000010
51
270.000000
0
LINE
8
0
10
70.141773
20
175.417858
30
0.0
11
68.997675
21
177.051799
31
0.0
0
ARC
8
0
10
68.178523
20
176.478223
30
0.0
40
1.000000
50
35.000010
51
90.000000
0
LINE
8
0
10
68.178523
20
177.478223
30
0.0
11
51.579584
21
177.478223
31
0.0
0
ARC
8
0
10
51.579584
20
176.478223
30
0.0
40
1.000000
50
90.000000
51
144.999990
0
LINE
8
0
10
50.760432
20
177.051799
30
0.0
11
49.616334
21
175.417858
31
0.0
0
ARC
8
0
10
48.387606
20
176.278223
30
0.0
40
1.500000
50
270.000000
51
324.999990
0
LINE
8
0
10
48.387606
20
174.778223
30
0.0
11
48.024742
21
174.778223
31
0.0
0
ARC
8
0
10
48.024749
20
174.978194
30
0.0
40
0.199972
50
239.997627
51
270.000000
0
LINE
8
0
10
47.924756
20
174.805018
30
0.0
11
46.415416
21
175.676443
31
0.0
0
ARC
8
0
10
46.315459
20
175.503283
30
0.0
40
0.199940
50
60.004401
51
90.000000
0
LINE
8
0
10
46.315443
20
175.703223
30
0.0
11
45.929057
21
175.703223
31
0.0
0
ARC
8
0
10
45.929063
20
175.403229
30
0.0
40
0.299994
50
90.000000
51
180.000000
0
LINE
8
0
10
45.629069
20
175.403223
30
0.0
11
45.629069
21
174.403220
31
0.0
0
ARC
8
0
10
45.929071
20
174.403218
30
0.0
40
0.300002
50
180.000000
51
270.000000
0
LINE
8
0
10
45.929071
20
174.103216
30
0.0
11
46.049218
21
174.103216
31
0.0
0
ARC
8
0
10
46.379039
20
173.578223
30
0.0
40
0.620000
50
237.864126
51
122.138550
0
LINE
8
0
10
46.049243
20
173.053213
30
0.0
11
45.929069
21
173.053213
31
0.0
0
ARC
8
0
10
45.929069
20
172.753213
30
0.0
40
0.300000
50
90.000000
51
180.000000
0
LINE
8
0
10
45.629069
20
172.753213
30
0.0
11
45.629069
21
171.753219
31
0.0
0
ARC
8
0
10
45.929069
20
171.753219
30
0.0
40
0.300000
50
180.000000
51
270.000000
0
LINE
8
0
10
45.929069
20
171.453219
30
0.0
11
46.315469
21
171.453219
31
0.0
0
ARC
8
0
10
46.315469
20
171.653219
30
0.0
40
0.200000
50
270.000000
51
300.000488
0
LINE
8
0
10
46.415471
20
171.480015
30
0.0
11
47.924771
21
172.351427
31
0.0
0
ARC
8
0
10
48.024773
20
172.178223
30
0.0
40
0.200000
50
90.000000
51
120.000488
0
LINE
8
0
10
48.024773
20
172.378223
30
0.0
11
48.387606
21
172.378223
31
0.0
0
ARC
8
0
10
48.387606
20
170.878223
30
0.0
40
1.500000
50
35.000010
51
90.000000
0
LINE
8
0
10
49.616334
20
171.738588
30
0.0
11
50.760435
21
170.104642
31
0.0
0
ARC
8
0
10
51.461899
20
170.688835
30
0.0
40
0.912871
50
219.788157
51
277.407200
0
LINE
8
0
10
51.579587
20
169.783582
30
0.0
11
68.178520
21
169.783582
31
0.0
0
ARC
8
0
10
68.296208
20
170.688835
30
0.0
40
0.912871
50
262.592800
51
320.211843
0
LINE
8
0
10
68.997672
20
170.104642
30
0.0
11
70.141773
21
171.738588
31
0.0
0
ARC
8
0
10
71.370501
20
170.878223
30
0.0
40
1.500000
50
90.000000
51
144.999990
0
LINE
8
0
10
126.528957
20
169.783582
30
0.0
11
124.861016
21
169.783582
31
0.0
0
ARC
8
0
10
124.861016
20
170.083582
30
0.0
40
0.300000
50
250.221829
51
270.000000
0
LINE
8
0
10
124.759502
20
169.801279
30
0.0
11
123.457640
21
170.269418
31
0.0
0
ARC
8
0
10
123.378121
20
170.048281
30
0.0
40
0.235000
50
70.221829
51
156.000000
0
ARC
8
0
10
122.942186
20
170.224695
30
0.0
40
0.235000
50
270.000000
51
336.000000
0
LINE
8
0
10
122.943742
20
169.989700
30
0.0
11
121.364814
21
169.979243
31
0.0
0
ARC
8
0
10
121.362827
20
170.279236
30
0.0
40
0.300000
50
155.379459
51
270.000000
0
LINE
8
0
10
121.090101
20
170.404218
30
0.0
11
122.038751
21
172.509733
31
0.0
0
ARC
8
0
10
122.312271
20
172.386498
30
0.0
40
0.300000
50
115.379459
51
155.745828
0
LINE
8
0
10
122.183687
20
172.657545
30
0.0
11
122.691110
21
172.898264
31
0.0
0
ARC
8
0
10
122.776832
20
172.717566
30
0.0
40
0.200000
50
355.379459
51
115.379459
0
LINE
8
0
10
122.976182
20
172.701455
30
0.0
11
122.966881
21
172.586360
31
0.0
0
ARC
8
0
10
123.265906
20
172.562193
30
0.0
40
0.300000
50
175.379459
51
235.379459
0
LINE
8
0
10
123.095464
20
172.315313
30
0.0
11
124.724221
21
171.190847
31
0.0
0
LINE
8
0
10
124.724221
20
171.190847
30
0.0
11
124.906930
21
171.109500
31
0.0
0
ARC
8
0
10
125.028932
20
171.383582
30
0.0
40
0.300009
50
246.004713
51
48.187329
0
ARC
8
0
10
125.428957
20
171.830786
30
0.0
40
0.300000
50
180.000000
51
228.187329
0
LINE
8
0
10
125.128957
20
171.830786
30
0.0
11
125.128957
21
175.583573
31
0.0
0
ARC
8
0
10
124.827608
20
175.582222
30
0.0
40
0.301352
50
0.000000
51
90.000000
0
LINE
8
0
10
124.828168
20
175.883573
30
0.0
11
124.781757
21
175.883573
31
0.0
0
ARC
8
0
10
124.781757
20
175.583573
30
0.0
40
0.300000
50
90.000000
51
120.000000
0
LINE
8
0
10
124.631757
20
175.843380
30
0.0
11
122.864770
21
174.823210
31
0.0
0
ARC
8
0
10
122.714770
20
175.083017
30
0.0
40
0.300000
50
270.000000
51
300.000000
0
LINE
8
0
10
122.714770
20
174.783017
30
0.0
11
122.350418
21
174.783017
31
0.0
0
ARC
8
0
10
122.350418
20
175.783017
30
0.0
40
1.000000
50
214.261170
51
270.000000
0
LINE
8
0
10
121.523938
20
175.220051
30
0.0
11
120.482422
21
176.749082
31
0.0
0
ARC
8
0
10
120.728168
20
176.921155
30
0.0
40
0.300000
50
180.000000
51
215.000010
0
LINE
8
0
10
120.428168
20
176.921155
30
0.0
11
120.428168
21
177.283577
31
0.0
0
ARC
8
0
10
120.728168
20
177.283577
30
0.0
40
0.300000
50
90.000000
51
180.000000
0
LINE
8
0
10
120.728168
20
177.583577
30
0.0
11
128.078401
21
177.583577
31
0.0
0
ARC
8
0
10
128.078401
20
177.283577
30
0.0
40
0.300000
50
30.000000
51
90.000000
0
LINE
8
0
10
128.338209
20
177.433577
30
0.0
11
128.788764
21
176.653192
31
0.0
0
ARC
8
0
10
128.528957
20
176.503192
30
0.0
40
0.300000
50
0.000000
51
30.000000
0
LINE
8
0
10
128.828957
20
176.503192
30
0.0
11
128.828957
21
176.383577
31
0.0
0
ARC
8
0
10
128.528957
20
176.383577
30
0.0
40
0.300000
50
270.000000
51
0.000000
0
LINE
8
0
10
128.528957
20
176.083577
30
0.0
11
127.128957
21
176.083577
31
0.0
0
ARC
8
0
10
127.128957
20
175.783577
30
0.0
40
0.300000
50
90.000000
51
180.000000
0
LINE
8
0
10
126.828957
20
175.783577
30
0.0
11
126.828957
21
172.883577
31
0.0
0
ARC
8
0
10
127.128957
20
172.883577
30
0.0
40
0.300000
50
180.000000
51
270.000000
0
LINE
8
0
10
127.128957
20
172.583577
30
0.0
11
141.028957
21
172.583577
31
0.0
0
ARC
8
0
10
141.028957
20
172.883577
30
0.0
40
0.300000
50
270.000000
51
0.000000
0
LINE
8
0
10
141.328957
20
172.883577
30
0.0
11
141.328957
21
175.783577
31
0.0
0
ARC
8
0
10
141.028957
20
175.783577
30
0.0
40
0.300000
50
0.000000
51
90.000000
0
LINE
8
0
10
141.028957
20
176.083577
30
0.0
11
139.128957
21
176.083577
31
0.0
0
ARC
8
0
10
139.128957
20
176.383577
30
0.0
40
0.300000
50
180.000000
51
270.000000
0
LINE
8
0
10
138.828957
20
176.383577
30
0.0
11
138.828957
21
176.503192
31
0.0
0
ARC
8
0
10
139.128957
20
176.503192
30
0.0
40
0.300000
50
150.000000
51
180.000000
0
LINE
8
0
10
138.869149
20
176.653192
30
0.0
11
139.319704
21
177.433577
31
0.0
0
ARC
8
0
10
139.579512
20
177.283577
30
0.0
40
0.300000
50
90.000000
51
150.000000
0
LINE
8
0
10
139.579512
20
177.583577
30
0.0
11
142.828957
21
177.583577
31
0.0
0
ARC
8
0
10
142.828957
20
177.283577
30
0.0
40
0.300000
50
0.000000
51
90.000000
0
LINE
8
0
10
143.128957
20
177.283577
30
0.0
11
143.128957
21
170.083582
31
0.0
0
ARC
8
0
10
142.828957
20
170.083582
30
0.0
40
0.300000
50
270.000000
51
0.000000
0
LINE
8
0
10
142.828957
20
169.783582
30
0.0
11
141.628957
21
169.783582
31
0.0
0
ARC
8
0
10
141.628957
20
170.083582
30
0.0
40
0.300000
50
180.000000
51
270.000000
0
LINE
8
0
10
141.328957
20
170.083582
30
0.0
11
141.328957
21
170.283577
31
0.0
0
ARC
8
0
10
141.028957
20
170.283577
30
0.0
40
0.300000
50
0.000000
51
90.000000
0
LINE
8
0
10
141.028957
20
170.583577
30
0.0
11
127.128957
21
170.583577
31
0.0
0
ARC
8
0
10
127.128957
20
170.283577
30
0.0
40
0.300000
50
90.000000
51
180.000000
0
LINE
8
0
10
126.828957
20
170.283577
30
0.0
11
126.828957
21
170.083582
31
0.0
0
ARC
8
0
10
126.528957
20
170.083582
30
0.0
40
0.300000
50
270.000000
51
0.000000
0
LINE
8
0
10
94.929068
20
169.783582
30
0.0
11
96.897009
21
169.783582
31
0.0
0
ARC
8
0
10
96.897009
20
170.083582
30
0.0
40
0.300000
50
270.000000
51
289.778171
0
LINE
8
0
10
96.998523
20
169.801279
30
0.0
11
98.300385
21
170.269418
31
0.0
0
ARC
8
0
10
98.379904
20
170.048281
30
0.0
40
0.235000
50
24.000000
51
109.778171
0
ARC
8
0
10
98.815839
20
170.224695
30
0.0
40
0.235000
50
204.000000
51
270.000000
0
LINE
8
0
10
98.814283
20
169.989700
30
0.0
11
100.393211
21
169.979243
31
0.0
0
ARC
8
0
10
100.395198
20
170.279236
30
0.0
40
0.300000
50
270.000000
51
24.620541
0
LINE
8
0
10
100.667924
20
170.404218
30
0.0
11
99.719274
21
172.509733
31
0.0
0
ARC
8
0
10
99.445754
20
172.386498
30
0.0
40
0.300000
50
24.254172
51
64.620541
0
LINE
8
0
10
99.574338
20
172.657545
30
0.0
11
99.066915
21
172.898264
31
0.0
0
ARC
8
0
10
98.981193
20
172.717566
30
0.0
40
0.200000
50
64.620541
51
184.620541
0
LINE
8
0
10
98.781843
20
172.701455
30
0.0
11
98.791144
21
172.586360
31
0.0
0
ARC
8
0
10
98.492119
20
172.562193
30
0.0
40
0.300000
50
304.620541
51
4.620541
0
LINE
8
0
10
98.662561
20
172.315313
30
0.0
11
97.033804
21
171.190847
31
0.0
0
LINE
8
0
10
97.033804
20
171.190847
30
0.0
11
96.851095
21
171.109500
31
0.0
0
ARC
8
0
10
96.729093
20
171.383582
30
0.0
40
0.300009
50
131.812671
51
293.995287
0
ARC
8
0
10
96.329068
20
171.830786
30
0.0
40
0.300000
50
311.812671
51
0.000000
0
LINE
8
0
10
96.629068
20
171.830786
30
0.0
11
96.629068
21
175.583573
31
0.0
0
ARC
8
0
10
96.930417
20
175.582222
30
0.0
40
0.301352
50
90.000000
51
180.000000
0
LINE
8
0
10
96.929857
20
175.883573
30
0.0
11
96.976268
21
175.883573
31
0.0
0
ARC
8
0
10
96.976268
20
175.583573
30
0.0
40
0.300000
50
60.000000
51
90.000000
0
LINE
8
0
10
97.126268
20
175.843380
30
0.0
11
98.893255
21
174.823210
31
0.0
0
ARC
8
0
10
99.043255
20
175.083017
30
0.0
40
0.300000
50
240.000000
51
270.000000
0
LINE
8
0
10
99.043255
20
174.783017
30
0.0
11
99.407607
21
174.783017
31
0.0
0
ARC
8
0
10
99.407607
20
175.783017
30
0.0
40
1.000000
50
270.000000
51
325.738830
0
LINE
8
0
10
100.234087
20
175.220051
30
0.0
11
101.275603
21
176.749082
31
0.0
0
ARC
8
0
10
101.029857
20
176.921155
30
0.0
40
0.300000
50
324.999990
51
0.000000
0
LINE
8
0
10
101.329857
20
176.921155
30
0.0
11
101.329857
21
177.283577
31
0.0
0
ARC
8
0
10
101.029857
20
177.283577
30
0.0
40
0.300000
50
0.000000
51
90.000000
0
LINE
8
0
10
101.029857
20
177.583577
30
0.0
11
93.139863
21
177.583577
31
0.0
0
ARC
8
0
10
93.139863
20
178.083577
30
0.0
40
0.500000
50
162.079787
51
270.000000
0
ARC
8
0
10
89.429068
20
179.283577
30
0.0
40
3.400000
50
342.079787
51
19.471221
0
ARC
8
0
10
91.691810
20
180.083577
30
0.0
40
1.000000
50
19.471221
51
90.000000
0
LINE
8
0
10
91.691810
20
181.083577
30
0.0
11
90.898762
21
181.083577
31
0.0
0
ARC
8
0
10
90.898762
20
180.783577
30
0.0
40
0.300000
50
90.000000
51
225.584691
0
ARC
8
0
10
89.429068
20
179.283577
30
0.0
40
1.800000
50
17.142857
51
45.584691
0
LINE
8
0
10
91.149099
20
179.814136
30
0.0
11
91.435771
21
179.902562
31
0.0
0
ARC
8
0
10
89.429068
20
179.283577
30
0.0
40
2.100000
50
334.285714
51
17.142857
0
LINE
8
0
10
91.321103
20
178.372421
30
0.0
11
91.050812
21
178.502586
31
0.0
0
ARC
8
0
10
89.429068
20
179.283577
30
0.0
40
1.800000
50
291.428571
51
334.285714
0
LINE
8
0
10
90.086682
20
177.608004
30
0.0
11
90.196284
21
177.328742
31
0.0
0
ARC
8
0
10
89.429068
20
179.283577
30
0.0
40
2.100000
50
248.571429
51
291.428571
0
LINE
8
0
10
88.661852
20
177.328742
30
0.0
11
88.771454
21
177.608004
31
0.0
0
ARC
8
0
10
89.429068
20
179.283577
30
0.0
40
1.800000
50
205.714286
51
248.571429
0
LINE
8
0
10
87.807324
20
178.502586
30
0.0
11
87.537034
21
178.372421
31
0.0
0
ARC
8
0
10
89.429068
20
179.283577
30
0.0
40
2.100000
50
162.857143
51
205.714286
0
LINE
8
0
10
87.422365
20
179.902562
30
0.0
11
87.709037
21
179.814136
31
0.0
0
ARC
8
0
10
89.429068
20
179.283577
30
0.0
40
1.800000
50
134.415309
51
162.857143
0
ARC
8
0
10
87.959374
20
180.783577
30
0.0
40
0.300000
50
314.415309
51
90.000000
0
LINE
8
0
10
87.959374
20
181.083577
30
0.0
11
87.166327
21
181.083577
31
0.0
0
ARC
8
0
10
87.166327
20
180.083577
30
0.0
40
1.000000
50
90.000000
51
160.528779
0
ARC
8
0
10
89.429068
20
179.283577
30
0.0
40
3.400000
50
160.528779
51
197.920213
0
ARC
8
0
10
85.718273
20
178.083577
30
0.0
40
0.500000
50
270.000000
51
17.920213
0
LINE
8
0
10
85.718273
20
177.583577
30
0.0
11
83.328957
21
177.583577
31
0.0
0
ARC
8
0
10
83.328957
20
178.583577
30
0.0
40
1.000000
50
180.000000
51
270.000000
0
LINE
8
0
10
82.328957
20
178.583577
30
0.0
11
82.328957
21
185.283582
31
0.0
0
ARC
8
0
10
82.628957
20
185.283582
30
0.0
40
0.300000
50
90.000000
51
180.000000
0
LINE
8
0
10
82.628957
20
185.583582
30
0.0
11
84.828957
21
185.583582
31
0.0
0
ARC
8
0
10
84.828957
20
186.083582
30
0.0
40
0.500000
50
270.000000
51
0.000000
0
LINE
8
0
10
85.328957
20
186.083582
30
0.0
11
85.328957
21
187.383582
31
0.0
0
ARC
8
0
10
84.628957
20
187.383582
30
0.0
40
0.700000
50
0.000000
51
90.000000
0
ARC
8
0
10
84.628957
20
187.783582
30
0.0
40
0.300000
50
90.000000
51
180.000000
0
LINE
8
0
10
84.328957
20
187.783582
30
0.0
11
84.328957
21
187.083582
31
0.0
0
ARC
8
0
10
84.028957
20
187.083582
30
0.0
40
0.300000
50
270.000000
51
0.000000
0
LINE
8
0
10
84.028957
20
186.783582
30
0.0
11
82.828957
21
186.783582
31
0.0
0
ARC
8
0
10
82.828957
20
187.483582
30
0.0
40
0.700000
50
180.000000
51
270.000000
0
LINE
8
0
10
82.128957
20
187.483582
30
0.0
11
82.128957
21
193.683582
31
0.0
0
ARC
8
0
10
82.828957
20
193.683582
30
0.0
40
0.700000
50
90.000000
51
180.000000
0
LINE
8
0
10
82.828957
20
194.383582
30
0.0
11
84.028957
21
194.383582
31
0.0
0
ARC
8
0
10
84.028957
20
194.083582
30
0.0
40
0.300000
50
0.000000
51
90.000000
0
LINE
8
0
10
84.328957
20
194.083582
30
0.0
11
84.328957
21
193.383582
31
0.0
0
ARC
8
0
10
84.628957
20
193.383582
30
0.0
40
0.300000
50
180.000000
51
270.000000
0
ARC
8
0
10
84.628957
20
193.783582
30
0.0
40
0.700000
50
270.000000
51
0.000000
0
LINE
8
0
10
85.328957
20
193.783582
30
0.0
11
85.328957
21
195.283582
31
0.0
0
ARC
8
0
10
85.028957
20
195.283582
30
0.0
40
0.300000
50
0.000000
51
90.000000
0
LINE
8
0
10
85.028957
20
195.583582
30
0.0
11
81.128957
21
195.583582
31
0.0
0
ARC
8
0
10
81.128957
20
195.283582
30
0.0
40
0.300000
50
90.000000
51
180.000000
0
LINE
8
0
10
80.828957
20
195.283582
30
0.0
11
80.828957
21
185.167013
31
0.0
0
ARC
8
0
10
80.528957
20
185.167013
30
0.0
40
0.300000
50
270.000000
51
0.000000
0
LINE
8
0
10
80.528957
20
184.867013
30
0.0
11
80.252342
21
184.867013
31
0.0
0
ARC
8
0
10
80.329265
20
183.869976
30
0.0
40
1.000000
50
94.411726
51
180.000000
0
LINE
8
0
10
79.329265
20
183.869976
30
0.0
11
79.329265
21
183.669976
31
0.0
0
ARC
8
0
10
79.629265
20
183.669976
30
0.0
40
0.300000
50
180.000000
51
270.000000
0
LINE
8
0
10
79.629265
20
183.369976
30
0.0
11
80.528957
21
183.383577
31
0.0
0
ARC
8
0
10
80.528957
20
183.083577
30
0.0
40
0.300000
50
0.000000
51
90.000000
0
LINE
8
0
10
80.828957
20
183.083577
30
0.0
11
80.828957
21
178.083577
31
0.0
0
ARC
8
0
10
80.328957
20
178.083577
30
0.0
40
0.500000
50
270.000000
51
0.000000
0
LINE
8
0
10
80.328957
20
177.583577
30
0.0
11
69.728279
21
177.583577
31
0.0
0
ARC
8
0
10
69.728279
20
177.283577
30
0.0
40
0.300000
50
90.000000
51
180.000000
0
LINE
8
0
10
69.428279
20
177.283577
30
0.0
11
69.428279
21
176.921155
31
0.0
0
ARC
8
0
10
69.728279
20
176.921155
30
0.0
40
0.300000
50
180.000000
51
215.000010
0
LINE
8
0
10
69.482534
20
176.749082
30
0.0
11
70.524050
21
175.220051
31
0.0
0
ARC
8
0
10
71.350530
20
175.783017
30
0.0
40
1.000000
50
214.261170
51
270.000000
0
LINE
8
0
10
71.350530
20
174.783017
30
0.0
11
71.714882
21
174.783017
31
0.0
0
ARC
8
0
10
71.714882
20
175.083017
30
0.0
40
0.300000
50
270.000000
51
300.000000
0
LINE
8
0
10
71.864882
20
174.823210
30
0.0
11
73.631869
21
175.843380
31
0.0
0
ARC
8
0
10
73.781869
20
175.583573
30
0.0
40
0.300000
50
90.000000
51
120.000000
0
LINE
8
0
10
73.781869
20
175.883573
30
0.0
11
73.828279
21
175.883573
31
0.0
0
ARC
8
0
10
73.827720
20
175.582222
30
0.0
40
0.301352
50
0.000000
51
90.000000
0
LINE
8
0
10
74.129068
20
175.583573
30
0.0
11
74.129068
21
171.830786
31
0.0
0
ARC
8
0
10
74.429068
20
171.830786
30
0.0
40
0.300000
50
180.000000
51
228.187329
0
ARC
8
0
10
74.029044
20
171.383582
30
0.0
40
0.300009
50
246.004713
51
48.187329
0
LINE
8
0
10
73.907041
20
171.109500
30
0.0
11
73.724332
21
171.190847
31
0.0
0
LINE
8
0
10
73.724332
20
171.190847
30
0.0
11
72.095576
21
172.315313
31
0.0
0
ARC
8
0
10
72.266017
20
172.562193
30
0.0
40
0.300000
50
175.379459
51
235.379459
0
LINE
8
0
10
71.966992
20
172.586360
30
0.0
11
71.976294
21
172.701455
31
0.0
0
ARC
8
0
10
71.776944
20
172.717566
30
0.0
40
0.200000
50
355.379459
51
115.379459
0
LINE
8
0
10
71.691222
20
172.898264
30
0.0
11
71.183799
21
172.657545
31
0.0
0
ARC
8
0
10
71.312382
20
172.386498
30
0.0
40
0.300000
50
115.379459
51
155.745828
0
LINE
8
0
10
71.038863
20
172.509733
30
0.0
11
70.090213
21
170.404218
31
0.0
0
ARC
8
0
10
70.362939
20
170.279236
30
0.0
40
0.300000
50
155.379459
51
270.000000
0
LINE
8
0
10
70.364926
20
169.979243
30
0.0
11
71.943854
21
169.989700
31
0.0
0
ARC
8
0
10
71.942298
20
170.224695
30
0.0
40
0.235000
50
270.000000
51
336.000000
0
ARC
8
0
10
72.378232
20
170.048281
30
0.0
40
0.235000
50
70.221829
51
156.000000
0
LINE
8
0
10
72.457751
20
170.269418
30
0.0
11
73.759614
21
169.801279
31
0.0
0
ARC
8
0
10
73.861128
20
170.083582
30
0.0
40
0.300000
50
250.221829
51
270.000000
0
LINE
8
0
10
73.861128
20
169.783582
30
0.0
11
75.829068
21
169.783582
31
0.0
0
ARC
8
0
10
75.829068
20
170.283582
30
0.0
40
0.500000
50
270.000000
51
0.000000
0
LINE
8
0
10
76.329068
20
170.283582
30
0.0
11
76.329068
21
174.583577
31
0.0
0
ARC
8
0
10
76.829068
20
174.583577
30
0.0
40
0.500000
50
90.000000
51
180.000000
0
LINE
8
0
10
76.829068
20
175.083577
30
0.0
11
93.929068
21
175.083577
31
0.0
0
ARC
8
0
10
93.929068
20
174.583577
30
0.0
40
0.500000
50
0.000000
51
90.000000
0
LINE
8
0
10
94.429068
20
174.583577
30
0.0
11
94.429068
21
170.283582
31
0.0
0
ARC
8
0
10
94.929068
20
170.283582
30
0.0
40
0.500000
50
180.000000
51
270.000000
0
ATTDEF
8
0
10
11.929068
20
169.678219
30
0.0
40
3.5
1

3

2
FRONT_VIEW
70
0
0
ATTDEF
8
0
10
11.929068
20
169.678219
30
0.0
40
3.5
1

3

2
BL01:6800.000000,,1
70
0
0
ATTDEF
8
0
10
11.929068
20
169.678219
30
0.0
40
3.5
1

3

2
OPTI:500.000000,1,0,3000.000000,6500.000000,500.000000,0,0.000000,0
70
0
0
ATTDEF
8
0
10
11.929068
20
169.678219
30
0.0
40
3.5
1

3

2
GLASS_MIN:0.000000
70
0
0
ATTDEF
8
0
10
11.929068
20
169.678219
30
0.0
40
3.5
1

3

2
GLASS_MAX:0.000000
70
0
0
ATTDEF
8
0
10
141.204235
20
177.583577
30
0.0
40
3.5
1

3

2
VC_START
70
0
0
ATTDEF
8
0
10
102.579586
20
169.783582
30
0.0
40
3.5
1

3

2
VC_END
70
0
0
ATTDEF
8
0
10
11.929068
20
169.783582
30
0.0
40
3.5
1

3

2
FP_LCS_ORIG
70
0
0
ATTDEF
8
0
10
21.929068
20
169.783582
30
0.0
40
3.5
1

3

2
FP_LCS_HOT
70
0
0
ATTDEF
8
0
10
11.929068
20
179.783582
30
0.0
40
3.5
1

3

2
FP_LCS_INTERN
70
0
0
ATTDEF
8
0
10
0.000000
20
0.000000
30
0.0
40
3.5
1

3

2
TDEV2:0
70
0
0
ATTDEF
8
0
10
0.000000
20
0.000000
30
0.0
40
3.5
1

3

2
TDEV3:0
70
0
0
ATTDEF
8
0
10
0.000000
20
0.000000
30
0.0
40
3.5
1

3

2
TDEV4:0
70
0
0
ATTDEF
8
0
10
0.000000
20
0.000000
30
0.0
40
3.5
1

3

2
TDEV5:0
70
0
0
ATTDEF
8
0
10
0.000000
20
0.000000
30
0.0
40
3.5
1

3

2
PANE_WIDTH:0
70
0
0
ATTDEF
8
0
10
0.000000
20
0.000000
30
0.0
40
3.5
1

3

2
MIN_VETRO:0
70
0
0
ATTDEF
8
0
10
0.000000
20
0.000000
30
0.0
40
3.5
1

3

2
MAX_VETRO:0
70
0
0
ATTDEF
8
0
10
0.000000
20
0.000000
30
0.0
40
3.5
1

3

2
JX:0
70
0
0
ATTDEF
8
0
10
0.000000
20
0.000000
30
0.0
40
3.5
1

3

2
WX:0
70
0
0
ATTDEF
8
0
10
0.000000
20
0.000000
30
0.0
40
3.5
1

3

2
JY:0
70
0
0
ATTDEF
8
0
10
0.000000
20
0.000000
30
0.0
40
3.5
1

3

2
WY:0
70
0
0
ATTDEF
8
0
10
0.000000
20
0.000000
30
0.0
40
3.5
1

3

2
DESC:Soglia bassa OX
70
0
0
ATTDEF
8
0
10
0.000000
20
0.000000
30
0.0
40
3.5
1

3

2
DENS:1.52
70
0
0
ATTDEF
8
0
10
0.000000
20
0.000000
30
0.0
40
3.5
1

3

2
TDEV:0
70
0
0
ATTDEF
8
0
10
0.000000
20
0.000000
30
0.0
40
3.5
1

3

2
TDEV2:0
70
0
0
ATTDEF
8
0
10
0.000000
20
0.000000
30
0.0
40
3.5
1

3

2
TDEV3:0
70
0
0
ATTDEF
8
0
10
0.000000
20
0.000000
30
0.0
40
3.5
1

3

2
TDEV4:0
70
0
0
ATTDEF
8
0
10
0.000000
20
0.000000
30
0.0
40
3.5
1

3

2
TDEV5:0
70
0
0
ATTDEF
8
0
10
0.000000
20
0.000000
30
0.0
40
3.5
1

3

2
PANE_WIDTH:0
70
0
0
ATTDEF
8
0
10
0.000000
20
0.000000
30
0.0
40
3.5
1

3

2
MIN_VETRO:0
70
0
0
ATTDEF
8
0
10
0.000000
20
0.000000
30
0.0
40
3.5
1

3

2
MAX_VETRO:0
70
0
0
ATTDEF
8
0
10
0.000000
20
0.000000
30
0.0
40
3.5
1

3

2
JX:0
70
0
0
ATTDEF
8
0
10
0.000000
20
0.000000
30
0.0
40
3.5
1

3

2
WX:0
70
0
0
ATTDEF
8
0
10
0.000000
20
0.000000
30
0.0
40
3.5
1

3

2
JY:0
70
0
0
ATTDEF
8
0
10
0.000000
20
0.000000
30
0.0
40
3.5
1

3

2
WY:0
70
0
0
ENDSEC
0
EOF
