0
SECTION
2
ENTITIES
0
ARC
8
0
10
31.185342
20
128.302047
30
0.0
40
0.300000
50
2.000000
51
90.000000
0
LINE
8
0
10
31.485159
20
128.312517
30
0.0
11
31.631583
21
124.119497
31
0.0
0
ARC
8
0
10
31.131887
20
124.102047
30
0.0
40
0.500000
50
270.000000
51
2.000000
0
LINE
8
0
10
31.131887
20
123.602047
30
0.0
11
30.915678
21
123.602047
31
0.0
0
ARC
8
0
10
30.915678
20
123.102047
30
0.0
40
0.500000
50
90.000000
51
210.000000
0
LINE
8
0
10
30.482665
20
122.852047
30
0.0
11
31.637366
21
120.852047
31
0.0
0
ARC
8
0
10
32.070378
20
121.102047
30
0.0
40
0.500000
50
210.000000
51
270.000000
0
LINE
8
0
10
32.070378
20
120.602047
30
0.0
11
37.467025
21
120.602047
31
0.0
0
LINE
8
0
10
37.467025
20
120.602047
30
0.0
11
37.767025
21
120.302047
31
0.0
0
LINE
8
0
10
37.767025
20
120.302047
30
0.0
11
38.067025
21
120.602047
31
0.0
0
LINE
8
0
10
38.067025
20
120.602047
30
0.0
11
43.479719
21
120.602047
31
0.0
0
ARC
8
0
10
43.479719
20
121.102047
30
0.0
40
0.500000
50
270.000000
51
330.000000
0
LINE
8
0
10
43.912731
20
120.852047
30
0.0
11
45.067432
21
122.852047
31
0.0
0
ARC
8
0
10
44.634419
20
123.102047
30
0.0
40
0.500000
50
330.000000
51
90.000000
0
LINE
8
0
10
44.634419
20
123.602047
30
0.0
11
44.418210
21
123.602047
31
0.0
0
ARC
8
0
10
44.418210
20
124.102047
30
0.0
40
0.500000
50
178.000000
51
270.000000
0
LINE
8
0
10
43.918514
20
124.119497
30
0.0
11
44.064938
21
128.312517
31
0.0
0
ARC
8
0
10
44.364755
20
128.302047
30
0.0
40
0.300000
50
90.000000
51
178.000000
0
LINE
8
0
10
44.364755
20
128.602047
30
0.0
11
46.775048
21
128.602047
31
0.0
0
ARC
8
0
10
46.775048
20
128.902047
30
0.0
40
0.300000
50
270.000000
51
0.000000
0
LINE
8
0
10
47.075048
20
128.902047
30
0.0
11
47.075048
21
132.202047
31
0.0
0
ARC
8
0
10
47.375048
20
132.202047
30
0.0
40
0.300000
50
90.000000
51
180.000000
0
LINE
8
0
10
47.375048
20
132.502047
30
0.0
11
59.275048
21
132.502047
31
0.0
0
ARC
8
0
10
59.275048
20
131.502047
30
0.0
40
1.000000
50
0.000000
51
90.000000
0
LINE
8
0
10
60.275048
20
131.502047
30
0.0
11
60.275048
21
107.802047
31
0.0
0
ARC
8
0
10
59.975048
20
107.802047
30
0.0
40
0.300000
50
270.000000
51
0.000000
0
LINE
8
0
10
59.975048
20
107.502047
30
0.0
11
58.975048
21
107.502047
31
0.0
0
ARC
8
0
10
58.975048
20
107.802047
30
0.0
40
0.300000
50
180.000000
51
270.000000
0
LINE
8
0
10
58.675048
20
107.802047
30
0.0
11
58.675048
21
108.202047
31
0.0
0
ARC
8
0
10
58.375048
20
108.202047
30
0.0
40
0.300000
50
0.000000
51
90.000000
0
LINE
8
0
10
58.375048
20
108.502047
30
0.0
11
42.975048
21
108.502047
31
0.0
0
ARC
8
0
10
42.975048
20
108.202047
30
0.0
40
0.300000
50
90.000000
51
180.000000
0
LINE
8
0
10
42.675048
20
108.202047
30
0.0
11
42.675048
21
107.802047
31
0.0
0
ARC
8
0
10
42.375048
20
107.802047
30
0.0
40
0.300000
50
270.000000
51
0.000000
0
LINE
8
0
10
42.375048
20
107.502047
30
0.0
11
41.375048
21
107.502047
31
0.0
0
ARC
8
0
10
41.375048
20
107.802047
30
0.0
40
0.300000
50
180.000000
51
270.000000
0
LINE
8
0
10
41.075048
20
107.802047
30
0.0
11
41.075048
21
108.202047
31
0.0
0
ARC
8
0
10
40.775048
20
108.202047
30
0.0
40
0.300000
50
0.000000
51
90.000000
0
LINE
8
0
10
40.775048
20
108.502047
30
0.0
11
28.375048
21
108.502047
31
0.0
0
ARC
8
0
10
28.375048
20
108.202047
30
0.0
40
0.300000
50
90.000000
51
180.000000
0
LINE
8
0
10
28.075048
20
108.202047
30
0.0
11
28.075048
21
107.802047
31
0.0
0
ARC
8
0
10
27.775048
20
107.802047
30
0.0
40
0.300000
50
270.000000
51
0.000000
0
LINE
8
0
10
27.775048
20
107.502047
30
0.0
11
26.307108
21
107.502047
31
0.0
0
ARC
8
0
10
26.307108
20
107.802047
30
0.0
40
0.300000
50
250.221829
51
270.000000
0
LINE
8
0
10
26.205594
20
107.519744
30
0.0
11
24.903732
21
107.987883
31
0.0
0
ARC
8
0
10
24.824212
20
107.766746
30
0.0
40
0.235000
50
70.221829
51
156.000000
0
ARC
8
0
10
24.388278
20
107.943160
30
0.0
40
0.235000
50
270.000000
51
336.000000
0
LINE
8
0
10
24.389834
20
107.708165
30
0.0
11
22.810906
21
107.697708
31
0.0
0
ARC
8
0
10
22.808919
20
107.997701
30
0.0
40
0.300000
50
155.379459
51
270.000000
0
LINE
8
0
10
22.536193
20
108.122683
30
0.0
11
23.484843
21
110.228198
31
0.0
0
ARC
8
0
10
23.758363
20
110.104963
30
0.0
40
0.300000
50
115.379459
51
155.745828
0
LINE
8
0
10
23.629779
20
110.376009
30
0.0
11
24.137202
21
110.616729
31
0.0
0
ARC
8
0
10
24.222924
20
110.436031
30
0.0
40
0.200000
50
355.379459
51
115.379459
0
LINE
8
0
10
24.422274
20
110.419920
30
0.0
11
24.412972
21
110.304825
31
0.0
0
ARC
8
0
10
24.711997
20
110.280658
30
0.0
40
0.300000
50
175.379459
51
235.379459
0
LINE
8
0
10
24.541556
20
110.033778
30
0.0
11
26.170312
21
108.909312
31
0.0
0
LINE
8
0
10
26.170312
20
108.909312
30
0.0
11
26.353022
21
108.827965
31
0.0
0
ARC
8
0
10
26.475024
20
109.102047
30
0.0
40
0.300009
50
246.004713
51
48.187329
0
ARC
8
0
10
26.875048
20
109.549251
30
0.0
40
0.300000
50
180.000000
51
228.187329
0
LINE
8
0
10
26.575048
20
109.549251
30
0.0
11
26.575048
21
113.302038
31
0.0
0
ARC
8
0
10
26.273700
20
113.300686
30
0.0
40
0.301352
50
0.000000
51
90.000000
0
LINE
8
0
10
26.274259
20
113.602038
30
0.0
11
26.227849
21
113.602038
31
0.0
0
ARC
8
0
10
26.227849
20
113.302038
30
0.0
40
0.300000
50
90.000000
51
120.000000
0
LINE
8
0
10
26.077849
20
113.561845
30
0.0
11
24.310862
21
112.541675
31
0.0
0
ARC
8
0
10
24.160862
20
112.801482
30
0.0
40
0.300000
50
270.000000
51
300.000000
0
LINE
8
0
10
24.160862
20
112.501482
30
0.0
11
23.796510
21
112.501482
31
0.0
0
ARC
8
0
10
23.796510
20
113.501482
30
0.0
40
1.000000
50
214.261170
51
270.000000
0
LINE
8
0
10
22.970030
20
112.938516
30
0.0
11
21.928514
21
114.467547
31
0.0
0
ARC
8
0
10
22.174259
20
114.639620
30
0.0
40
0.300000
50
180.000000
51
215.000010
0
LINE
8
0
10
21.874259
20
114.639620
30
0.0
11
21.874259
21
115.002042
31
0.0
0
ARC
8
0
10
22.174259
20
115.002042
30
0.0
40
0.300000
50
90.000000
51
180.000000
0
LINE
8
0
10
22.174259
20
115.302042
30
0.0
11
29.775073
21
115.302042
31
0.0
0
ARC
8
0
10
29.775073
20
115.602042
30
0.0
40
0.300000
50
270.000000
51
0.000000
0
LINE
8
0
10
30.075073
20
115.602042
30
0.0
11
30.075073
21
120.477632
31
0.0
0
ARC
8
0
10
29.775073
20
120.477632
30
0.0
40
0.300000
50
0.000000
51
30.000000
0
LINE
8
0
10
30.034881
20
120.627632
30
0.0
11
29.183627
21
122.102047
31
0.0
0
ARC
8
0
10
30.915678
20
123.102047
30
0.0
40
2.000000
50
122.643077
51
210.000000
0
ARC
8
0
10
29.675048
20
125.038755
30
0.0
40
0.300000
50
302.643077
51
0.000000
0
LINE
8
0
10
29.975048
20
125.038755
30
0.0
11
29.975048
21
126.802047
31
0.0
0
ARC
8
0
10
29.675048
20
126.802047
30
0.0
40
0.300000
50
0.000000
51
90.000000
0
LINE
8
0
10
29.675048
20
127.102047
30
0.0
11
27.275048
21
127.102047
31
0.0
0
ARC
8
0
10
27.275048
20
127.402047
30
0.0
40
0.300000
50
180.000000
51
270.000000
0
LINE
8
0
10
26.975048
20
127.402047
30
0.0
11
26.975048
21
129.277783
31
0.0
0
ARC
8
0
10
27.275048
20
129.277783
30
0.0
40
0.300000
50
135.000000
51
180.000000
0
LINE
8
0
10
27.062916
20
129.489915
30
0.0
11
27.287181
21
129.714179
31
0.0
0
ARC
8
0
10
27.499313
20
129.502047
30
0.0
40
0.300000
50
90.000000
51
135.000000
0
LINE
8
0
10
27.499313
20
129.802047
30
0.0
11
28.175048
21
129.802047
31
0.0
0
ARC
8
0
10
28.175048
20
129.502047
30
0.0
40
0.300000
50
0.000000
51
90.000000
0
LINE
8
0
10
28.475048
20
129.502047
30
0.0
11
28.475048
21
128.902047
31
0.0
0
ARC
8
0
10
28.775048
20
128.902047
30
0.0
40
0.300000
50
180.000000
51
270.000000
0
LINE
8
0
10
28.775048
20
128.602047
30
0.0
11
31.185342
21
128.602047
31
0.0
0
LINE
8
0
10
39.667083
20
117.913197
30
0.0
11
39.396792
21
117.783032
31
0.0
0
ARC
8
0
10
37.775048
20
117.002042
30
0.0
40
1.800000
50
25.714286
51
68.571429
0
LINE
8
0
10
38.432662
20
118.677614
30
0.0
11
38.542265
21
118.956876
31
0.0
0
ARC
8
0
10
37.775048
20
117.002042
30
0.0
40
2.100000
50
68.571429
51
111.428571
0
LINE
8
0
10
37.007832
20
118.956876
30
0.0
11
37.117435
21
118.677614
31
0.0
0
ARC
8
0
10
37.775048
20
117.002042
30
0.0
40
1.800000
50
111.428571
51
154.285714
0
LINE
8
0
10
36.153305
20
117.783032
30
0.0
11
35.883014
21
117.913197
31
0.0
0
ARC
8
0
10
37.775048
20
117.002042
30
0.0
40
2.100000
50
154.285714
51
197.142857
0
LINE
8
0
10
35.768346
20
116.383056
30
0.0
11
36.055017
21
116.471482
31
0.0
0
ARC
8
0
10
37.775048
20
117.002042
30
0.0
40
1.800000
50
197.142857
51
224.728071
0
ARC
8
0
10
36.283093
20
115.524182
30
0.0
40
0.300000
50
270.000000
51
44.728071
0
LINE
8
0
10
36.283093
20
115.224182
30
0.0
11
35.504601
21
115.224182
31
0.0
0
ARC
8
0
10
35.504601
20
116.224182
30
0.0
40
1.000000
50
198.911563
51
270.000000
0
ARC
8
0
10
37.775048
20
117.002042
30
0.0
40
3.400000
50
154.377876
51
198.911563
0
ARC
8
0
10
34.438886
20
118.602047
30
0.0
40
0.300000
50
334.377876
51
90.000000
0
LINE
8
0
10
34.438886
20
118.902047
30
0.0
11
32.014639
21
118.902047
31
0.0
0
ARC
8
0
10
32.014639
20
118.402047
30
0.0
40
0.500000
50
90.000000
51
180.000000
0
LINE
8
0
10
31.514639
20
118.402047
30
0.0
11
31.514639
21
114.802042
31
0.0
0
ARC
8
0
10
30.514639
20
114.802042
30
0.0
40
1.000000
50
270.000000
51
0.000000
0
LINE
8
0
10
30.514639
20
113.802042
30
0.0
11
28.375048
21
113.802042
31
0.0
0
ARC
8
0
10
28.375048
20
113.502042
30
0.0
40
0.300000
50
90.000000
51
180.000000
0
LINE
8
0
10
28.075048
20
113.502042
30
0.0
11
28.075048
21
110.302047
31
0.0
0
ARC
8
0
10
28.375048
20
110.302047
30
0.0
40
0.300000
50
180.000000
51
270.000000
0
LINE
8
0
10
28.375048
20
110.002047
30
0.0
11
58.475048
21
110.002047
31
0.0
0
ARC
8
0
10
58.475048
20
110.302047
30
0.0
40
0.300000
50
270.000000
51
0.000000
0
LINE
8
0
10
58.775048
20
110.302047
30
0.0
11
58.775048
21
130.702047
31
0.0
0
ARC
8
0
10
58.475048
20
130.702047
30
0.0
40
0.300000
50
0.000000
51
90.000000
0
LINE
8
0
10
58.475048
20
131.002047
30
0.0
11
48.875048
21
131.002047
31
0.0
0
ARC
8
0
10
48.875048
20
130.702047
30
0.0
40
0.300000
50
90.000000
51
180.000000
0
LINE
8
0
10
48.575048
20
130.702047
30
0.0
11
48.575048
21
127.602047
31
0.0
0
ARC
8
0
10
48.075048
20
127.602047
30
0.0
40
0.500000
50
270.000000
51
0.000000
0
LINE
8
0
10
48.075048
20
127.102047
30
0.0
11
45.875048
21
127.102047
31
0.0
0
ARC
8
0
10
45.875048
20
126.802047
30
0.0
40
0.300000
50
90.000000
51
180.000000
0
LINE
8
0
10
45.575048
20
126.802047
30
0.0
11
45.575048
21
125.038755
31
0.0
0
ARC
8
0
10
45.875048
20
125.038755
30
0.0
40
0.300000
50
180.000000
51
237.356923
0
ARC
8
0
10
44.634419
20
123.102047
30
0.0
40
2.000000
50
330.000000
51
57.356923
0
LINE
8
0
10
46.366470
20
122.102047
30
0.0
11
44.807624
21
119.402047
31
0.0
0
ARC
8
0
10
43.941599
20
119.902047
30
0.0
40
1.000000
50
270.000000
51
330.000000
0
LINE
8
0
10
43.941599
20
118.902047
30
0.0
11
41.111211
21
118.902047
31
0.0
0
ARC
8
0
10
41.111211
20
118.602047
30
0.0
40
0.300000
50
90.000000
51
205.622124
0
ARC
8
0
10
37.775048
20
117.002042
30
0.0
40
3.400000
50
341.088437
51
25.622124
0
ARC
8
0
10
40.045496
20
116.224182
30
0.0
40
1.000000
50
270.000000
51
341.088437
0
LINE
8
0
10
40.045496
20
115.224182
30
0.0
11
39.267003
21
115.224182
31
0.0
0
ARC
8
0
10
39.267003
20
115.524182
30
0.0
40
0.300000
50
135.271929
51
270.000000
0
ARC
8
0
10
37.775048
20
117.002042
30
0.0
40
1.800000
50
315.271929
51
342.857143
0
LINE
8
0
10
39.495080
20
116.471482
30
0.0
11
39.781751
21
116.383056
31
0.0
0
ARC
8
0
10
37.775048
20
117.002042
30
0.0
40
2.100000
50
342.857143
51
25.714286
0
ARC
8
0
10
-33.035245
20
128.302047
30
0.0
40
0.300000
50
90.000000
51
178.000000
0
LINE
8
0
10
-33.335062
20
128.312517
30
0.0
11
-33.481486
21
124.119497
31
0.0
0
ARC
8
0
10
-32.981790
20
124.102047
30
0.0
40
0.500000
50
178.000000
51
270.000000
0
LINE
8
0
10
-32.981790
20
123.602047
30
0.0
11
-32.765581
21
123.602047
31
0.0
0
ARC
8
0
10
-32.765581
20
123.102047
30
0.0
40
0.500000
50
330.000000
51
90.000000
0
LINE
8
0
10
-32.332568
20
122.852047
30
0.0
11
-33.487269
21
120.852047
31
0.0
0
ARC
8
0
10
-33.920281
20
121.102047
30
0.0
40
0.500000
50
270.000000
51
330.000000
0
LINE
8
0
10
-33.920281
20
120.602047
30
0.0
11
-39.316928
21
120.602047
31
0.0
0
LINE
8
0
10
-39.316928
20
120.602047
30
0.0
11
-39.616928
21
120.302047
31
0.0
0
LINE
8
0
10
-39.616928
20
120.302047
30
0.0
11
-39.916928
21
120.602047
31
0.0
0
LINE
8
0
10
-39.916928
20
120.602047
30
0.0
11
-45.329622
21
120.602047
31
0.0
0
ARC
8
0
10
-45.329622
20
121.102047
30
0.0
40
0.500000
50
210.000000
51
270.000000
0
LINE
8
0
10
-45.762634
20
120.852047
30
0.0
11
-46.917335
21
122.852047
31
0.0
0
ARC
8
0
10
-46.484322
20
123.102047
30
0.0
40
0.500000
50
90.000000
51
210.000000
0
LINE
8
0
10
-46.484322
20
123.602047
30
0.0
11
-46.268113
21
123.602047
31
0.0
0
ARC
8
0
10
-46.268113
20
124.102047
30
0.0
40
0.500000
50
270.000000
51
2.000000
0
LINE
8
0
10
-45.768417
20
124.119497
30
0.0
11
-45.914841
21
128.312517
31
0.0
0
ARC
8
0
10
-46.214658
20
128.302047
30
0.0
40
0.300000
50
2.000000
51
90.000000
0
LINE
8
0
10
-46.214658
20
128.602047
30
0.0
11
-48.624952
21
128.602047
31
0.0
0
ARC
8
0
10
-48.624952
20
128.902047
30
0.0
40
0.300000
50
180.000000
51
270.000000
0
LINE
8
0
10
-48.924952
20
128.902047
30
0.0
11
-48.924952
21
132.202047
31
0.0
0
ARC
8
0
10
-49.224952
20
132.202047
30
0.0
40
0.300000
50
0.000000
51
90.000000
0
LINE
8
0
10
-49.224952
20
132.502047
30
0.0
11
-61.124952
21
132.502047
31
0.0
0
ARC
8
0
10
-61.124952
20
131.502047
30
0.0
40
1.000000
50
90.000000
51
180.000000
0
LINE
8
0
10
-62.124952
20
131.502047
30
0.0
11
-62.124952
21
107.802047
31
0.0
0
ARC
8
0
10
-61.824952
20
107.802047
30
0.0
40
0.300000
50
180.000000
51
270.000000
0
LINE
8
0
10
-61.824952
20
107.502047
30
0.0
11
-60.824952
21
107.502047
31
0.0
0
ARC
8
0
10
-60.824952
20
107.802047
30
0.0
40
0.300000
50
270.000000
51
0.000000
0
LINE
8
0
10
-60.524952
20
107.802047
30
0.0
11
-60.524952
21
108.202047
31
0.0
0
ARC
8
0
10
-60.224952
20
108.202047
30
0.0
40
0.300000
50
90.000000
51
180.000000
0
LINE
8
0
10
-60.224952
20
108.502047
30
0.0
11
-44.824952
21
108.502047
31
0.0
0
ARC
8
0
10
-44.824952
20
108.202047
30
0.0
40
0.300000
50
0.000000
51
90.000000
0
LINE
8
0
10
-44.524952
20
108.202047
30
0.0
11
-44.524952
21
107.802047
31
0.0
0
ARC
8
0
10
-44.224952
20
107.802047
30
0.0
40
0.300000
50
180.000000
51
270.000000
0
LINE
8
0
10
-44.224952
20
107.502047
30
0.0
11
-43.224952
21
107.502047
31
0.0
0
ARC
8
0
10
-43.224952
20
107.802047
30
0.0
40
0.300000
50
270.000000
51
0.000000
0
LINE
8
0
10
-42.924952
20
107.802047
30
0.0
11
-42.924952
21
108.202047
31
0.0
0
ARC
8
0
10
-42.624952
20
108.202047
30
0.0
40
0.300000
50
90.000000
51
180.000000
0
LINE
8
0
10
-42.624952
20
108.502047
30
0.0
11
-30.224952
21
108.502047
31
0.0
0
ARC
8
0
10
-30.224952
20
108.202047
30
0.0
40
0.300000
50
0.000000
51
90.000000
0
LINE
8
0
10
-29.924952
20
108.202047
30
0.0
11
-29.924952
21
107.802047
31
0.0
0
ARC
8
0
10
-29.624952
20
107.802047
30
0.0
40
0.300000
50
180.000000
51
270.000000
0
LINE
8
0
10
-29.624952
20
107.502047
30
0.0
11
-28.157011
21
107.502047
31
0.0
0
ARC
8
0
10
-28.157011
20
107.802047
30
0.0
40
0.300000
50
270.000000
51
289.778171
0
LINE
8
0
10
-28.055497
20
107.519744
30
0.0
11
-26.753635
21
107.987883
31
0.0
0
ARC
8
0
10
-26.674116
20
107.766746
30
0.0
40
0.235000
50
24.000000
51
109.778171
0
ARC
8
0
10
-26.238181
20
107.943160
30
0.0
40
0.235000
50
204.000000
51
270.000000
0
LINE
8
0
10
-26.239737
20
107.708165
30
0.0
11
-24.660809
21
107.697708
31
0.0
0
ARC
8
0
10
-24.658822
20
107.997701
30
0.0
40
0.300000
50
270.000000
51
24.620541
0
LINE
8
0
10
-24.386096
20
108.122683
30
0.0
11
-25.334746
21
110.228198
31
0.0
0
ARC
8
0
10
-25.608266
20
110.104963
30
0.0
40
0.300000
50
24.254172
51
64.620541
0
LINE
8
0
10
-25.479682
20
110.376009
30
0.0
11
-25.987105
21
110.616729
31
0.0
0
ARC
8
0
10
-26.072827
20
110.436031
30
0.0
40
0.200000
50
64.620541
51
184.620541
0
LINE
8
0
10
-26.272177
20
110.419920
30
0.0
11
-26.262876
21
110.304825
31
0.0
0
ARC
8
0
10
-26.561901
20
110.280658
30
0.0
40
0.300000
50
304.620541
51
4.620541
0
LINE
8
0
10
-26.391459
20
110.033778
30
0.0
11
-28.020215
21
108.909312
31
0.0
0
LINE
8
0
10
-28.020215
20
108.909312
30
0.0
11
-28.202925
21
108.827965
31
0.0
0
ARC
8
0
10
-28.324927
20
109.102047
30
0.0
40
0.300009
50
131.812671
51
293.995287
0
ARC
8
0
10
-28.724952
20
109.549251
30
0.0
40
0.300000
50
311.812671
51
0.000000
0
LINE
8
0
10
-28.424952
20
109.549251
30
0.0
11
-28.424952
21
113.302038
31
0.0
0
ARC
8
0
10
-28.123603
20
113.300686
30
0.0
40
0.301352
50
90.000000
51
180.000000
0
LINE
8
0
10
-28.124162
20
113.602038
30
0.0
11
-28.077752
21
113.602038
31
0.0
0
ARC
8
0
10
-28.077752
20
113.302038
30
0.0
40
0.300000
50
60.000000
51
90.000000
0
LINE
8
0
10
-27.927752
20
113.561845
30
0.0
11
-26.160765
21
112.541675
31
0.0
0
ARC
8
0
10
-26.010765
20
112.801482
30
0.0
40
0.300000
50
240.000000
51
270.000000
0
LINE
8
0
10
-26.010765
20
112.501482
30
0.0
11
-25.646413
21
112.501482
31
0.0
0
ARC
8
0
10
-25.646413
20
113.501482
30
0.0
40
1.000000
50
270.000000
51
325.738830
0
LINE
8
0
10
-24.819933
20
112.938516
30
0.0
11
-23.778417
21
114.467547
31
0.0
0
ARC
8
0
10
-24.024162
20
114.639620
30
0.0
40
0.300000
50
324.999990
51
0.000000
0
LINE
8
0
10
-23.724162
20
114.639620
30
0.0
11
-23.724162
21
115.002042
31
0.0
0
ARC
8
0
10
-24.024162
20
115.002042
30
0.0
40
0.300000
50
0.000000
51
90.000000
0
LINE
8
0
10
-24.024162
20
115.302042
30
0.0
11
-31.624976
21
115.302042
31
0.0
0
ARC
8
0
10
-31.624976
20
115.602042
30
0.0
40
0.300000
50
180.000000
51
270.000000
0
LINE
8
0
10
-31.924976
20
115.602042
30
0.0
11
-31.924976
21
120.477632
31
0.0
0
ARC
8
0
10
-31.624976
20
120.477632
30
0.0
40
0.300000
50
150.000000
51
180.000000
0
LINE
8
0
10
-31.884784
20
120.627632
30
0.0
11
-31.033530
21
122.102047
31
0.0
0
ARC
8
0
10
-32.765581
20
123.102047
30
0.0
40
2.000000
50
330.000000
51
57.356923
0
ARC
8
0
10
-31.524952
20
125.038755
30
0.0
40
0.300000
50
180.000000
51
237.356923
0
LINE
8
0
10
-31.824952
20
125.038755
30
0.0
11
-31.824952
21
126.802047
31
0.0
0
ARC
8
0
10
-31.524952
20
126.802047
30
0.0
40
0.300000
50
90.000000
51
180.000000
0
LINE
8
0
10
-31.524952
20
127.102047
30
0.0
11
-29.124952
21
127.102047
31
0.0
0
ARC
8
0
10
-29.124952
20
127.402047
30
0.0
40
0.300000
50
270.000000
51
0.000000
0
LINE
8
0
10
-28.824952
20
127.402047
30
0.0
11
-28.824952
21
129.277783
31
0.0
0
ARC
8
0
10
-29.124952
20
129.277783
30
0.0
40
0.300000
50
0.000000
51
45.000000
0
LINE
8
0
10
-28.912819
20
129.489915
30
0.0
11
-29.137084
21
129.714179
31
0.0
0
ARC
8
0
10
-29.349216
20
129.502047
30
0.0
40
0.300000
50
45.000000
51
90.000000
0
LINE
8
0
10
-29.349216
20
129.802047
30
0.0
11
-30.024952
21
129.802047
31
0.0
0
ARC
8
0
10
-30.024952
20
129.502047
30
0.0
40
0.300000
50
90.000000
51
180.000000
0
LINE
8
0
10
-30.324952
20
129.502047
30
0.0
11
-30.324952
21
128.902047
31
0.0
0
ARC
8
0
10
-30.624952
20
128.902047
30
0.0
40
0.300000
50
270.000000
51
0.000000
0
LINE
8
0
10
-30.624952
20
128.602047
30
0.0
11
-33.035245
21
128.602047
31
0.0
0
LINE
8
0
10
-41.516986
20
117.913197
30
0.0
11
-41.246695
21
117.783032
31
0.0
0
ARC
8
0
10
-39.624952
20
117.002042
30
0.0
40
1.800000
50
111.428571
51
154.285714
0
LINE
8
0
10
-40.282565
20
118.677614
30
0.0
11
-40.392168
21
118.956876
31
0.0
0
ARC
8
0
10
-39.624952
20
117.002042
30
0.0
40
2.100000
50
68.571429
51
111.428571
0
LINE
8
0
10
-38.857735
20
118.956876
30
0.0
11
-38.967338
21
118.677614
31
0.0
0
ARC
8
0
10
-39.624952
20
117.002042
30
0.0
40
1.800000
50
25.714286
51
68.571429
0
LINE
8
0
10
-38.003208
20
117.783032
30
0.0
11
-37.732917
21
117.913197
31
0.0
0
ARC
8
0
10
-39.624952
20
117.002042
30
0.0
40
2.100000
50
342.857143
51
25.714286
0
LINE
8
0
10
-37.618249
20
116.383056
30
0.0
11
-37.904920
21
116.471482
31
0.0
0
ARC
8
0
10
-39.624952
20
117.002042
30
0.0
40
1.800000
50
315.271929
51
342.857143
0
ARC
8
0
10
-38.132997
20
115.524182
30
0.0
40
0.300000
50
135.271929
51
270.000000
0
LINE
8
0
10
-38.132997
20
115.224182
30
0.0
11
-37.354504
21
115.224182
31
0.0
0
ARC
8
0
10
-37.354504
20
116.224182
30
0.0
40
1.000000
50
270.000000
51
341.088437
0
ARC
8
0
10
-39.624952
20
117.002042
30
0.0
40
3.400000
50
341.088437
51
25.622124
0
ARC
8
0
10
-36.288789
20
118.602047
30
0.0
40
0.300000
50
90.000000
51
205.622124
0
LINE
8
0
10
-36.288789
20
118.902047
30
0.0
11
-33.864542
21
118.902047
31
0.0
0
ARC
8
0
10
-33.864542
20
118.402047
30
0.0
40
0.500000
50
0.000000
51
90.000000
0
LINE
8
0
10
-33.364542
20
118.402047
30
0.0
11
-33.364542
21
114.802042
31
0.0
0
ARC
8
0
10
-32.364542
20
114.802042
30
0.0
40
1.000000
50
180.000000
51
270.000000
0
LINE
8
0
10
-32.364542
20
113.802042
30
0.0
11
-30.224952
21
113.802042
31
0.0
0
ARC
8
0
10
-30.224952
20
113.502042
30
0.0
40
0.300000
50
0.000000
51
90.000000
0
LINE
8
0
10
-29.924952
20
113.502042
30
0.0
11
-29.924952
21
110.302047
31
0.0
0
ARC
8
0
10
-30.224952
20
110.302047
30
0.0
40
0.300000
50
270.000000
51
0.000000
0
LINE
8
0
10
-30.224952
20
110.002047
30
0.0
11
-60.324952
21
110.002047
31
0.0
0
ARC
8
0
10
-60.324952
20
110.302047
30
0.0
40
0.300000
50
180.000000
51
270.000000
0
LINE
8
0
10
-60.624952
20
110.302047
30
0.0
11
-60.624952
21
130.702047
31
0.0
0
ARC
8
0
10
-60.324952
20
130.702047
30
0.0
40
0.300000
50
90.000000
51
180.000000
0
LINE
8
0
10
-60.324952
20
131.002047
30
0.0
11
-50.724952
21
131.002047
31
0.0
0
ARC
8
0
10
-50.724952
20
130.702047
30
0.0
40
0.300000
50
0.000000
51
90.000000
0
LINE
8
0
10
-50.424952
20
130.702047
30
0.0
11
-50.424952
21
127.602047
31
0.0
0
ARC
8
0
10
-49.924952
20
127.602047
30
0.0
40
0.500000
50
180.000000
51
270.000000
0
LINE
8
0
10
-49.924952
20
127.102047
30
0.0
11
-47.724952
21
127.102047
31
0.0
0
ARC
8
0
10
-47.724952
20
126.802047
30
0.0
40
0.300000
50
0.000000
51
90.000000
0
LINE
8
0
10
-47.424952
20
126.802047
30
0.0
11
-47.424952
21
125.038755
31
0.0
0
ARC
8
0
10
-47.724952
20
125.038755
30
0.0
40
0.300000
50
302.643077
51
0.000000
0
ARC
8
0
10
-46.484322
20
123.102047
30
0.0
40
2.000000
50
122.643077
51
210.000000
0
LINE
8
0
10
-48.216373
20
122.102047
30
0.0
11
-46.657527
21
119.402047
31
0.0
0
ARC
8
0
10
-45.791502
20
119.902047
30
0.0
40
1.000000
50
210.000000
51
270.000000
0
LINE
8
0
10
-45.791502
20
118.902047
30
0.0
11
-42.961114
21
118.902047
31
0.0
0
ARC
8
0
10
-42.961114
20
118.602047
30
0.0
40
0.300000
50
334.377876
51
90.000000
0
ARC
8
0
10
-39.624952
20
117.002042
30
0.0
40
3.400000
50
154.377876
51
198.911563
0
ARC
8
0
10
-41.895399
20
116.224182
30
0.0
40
1.000000
50
198.911563
51
270.000000
0
LINE
8
0
10
-41.895399
20
115.224182
30
0.0
11
-41.116907
21
115.224182
31
0.0
0
ARC
8
0
10
-41.116907
20
115.524182
30
0.0
40
0.300000
50
270.000000
51
44.728071
0
ARC
8
0
10
-39.624952
20
117.002042
30
0.0
40
1.800000
50
197.142857
51
224.728071
0
LINE
8
0
10
-41.344983
20
116.471482
30
0.0
11
-41.631654
21
116.383056
31
0.0
0
ARC
8
0
10
-39.624952
20
117.002042
30
0.0
40
2.100000
50
154.285714
51
197.142857
0
LINE
8
0
10
4.025048
20
113.367167
30
0.0
11
-5.874952
21
113.367167
31
0.0
0
ARC
8
0
10
-5.874952
20
113.067167
30
0.0
40
0.300000
50
90.000000
51
180.000000
0
LINE
8
0
10
-6.174952
20
113.067167
30
0.0
11
-6.174952
21
109.267167
31
0.0
0
ARC
8
0
10
-6.674952
20
109.267167
30
0.0
40
0.500000
50
180.000000
51
0.000000
0
LINE
8
0
10
-7.174952
20
109.267167
30
0.0
11
-7.174952
21
113.067167
31
0.0
0
ARC
8
0
10
-7.474952
20
113.067167
30
0.0
40
0.300000
50
0.000000
51
90.000000
0
LINE
8
0
10
-7.474952
20
113.367167
30
0.0
11
-17.374952
21
113.367167
31
0.0
0
ARC
8
0
10
-17.374952
20
113.067167
30
0.0
40
0.300000
50
90.000000
51
180.000000
0
LINE
8
0
10
-17.674952
20
113.067167
30
0.0
11
-17.674952
21
109.267167
31
0.0
0
ARC
8
0
10
-18.174952
20
109.267167
30
0.0
40
0.500000
50
180.000000
51
0.000000
0
LINE
8
0
10
-18.674952
20
109.267167
30
0.0
11
-18.674952
21
113.067167
31
0.0
0
ARC
8
0
10
-18.974952
20
113.067167
30
0.0
40
0.300000
50
0.000000
51
90.000000
0
LINE
8
0
10
-18.974952
20
113.367167
30
0.0
11
-21.279621
21
113.367167
31
0.0
0
ARC
8
0
10
-21.279621
20
112.367167
30
0.0
40
1.000000
50
90.000000
51
144.745828
0
LINE
8
0
10
-22.096221
20
112.944372
30
0.0
11
-23.619042
21
110.789962
31
0.0
0
ARC
8
0
10
-24.435641
20
111.367167
30
0.0
40
1.000000
50
270.000000
51
324.745828
0
LINE
8
0
10
-24.435641
20
110.367167
30
0.0
11
-25.536952
21
110.367167
31
0.0
0
ARC
8
0
10
-25.536952
20
109.167167
30
0.0
40
1.200000
50
90.000000
51
119.981639
0
LINE
8
0
10
-26.136619
20
110.206590
30
0.0
11
-27.718563
21
109.293930
31
0.0
0
ARC
8
0
10
-27.818507
20
109.467167
30
0.0
40
0.200000
50
270.000000
51
299.981639
0
LINE
8
0
10
-27.818507
20
109.267167
30
0.0
11
-28.024952
21
109.267167
31
0.0
0
ARC
8
0
10
-28.024952
20
109.667167
30
0.0
40
0.400000
50
180.000000
51
270.000000
0
LINE
8
0
10
-28.424952
20
109.667167
30
0.0
11
-28.424952
21
113.067167
31
0.0
0
ARC
8
0
10
-28.024952
20
113.067167
30
0.0
40
0.400000
50
90.000000
51
180.000000
0
LINE
8
0
10
-28.024952
20
113.467167
30
0.0
11
-27.818507
21
113.467167
31
0.0
0
ARC
8
0
10
-27.818507
20
113.267167
30
0.0
40
0.200000
50
60.018361
51
90.000000
0
LINE
8
0
10
-27.718563
20
113.440404
30
0.0
11
-26.136619
21
112.527744
31
0.0
0
ARC
8
0
10
-25.536952
20
113.567167
30
0.0
40
1.200000
50
240.018361
51
270.000000
0
LINE
8
0
10
-25.536952
20
112.367167
30
0.0
11
-25.108718
21
112.367167
31
0.0
0
ARC
8
0
10
-25.108718
20
112.667167
30
0.0
40
0.300000
50
270.000000
51
324.745828
0
LINE
8
0
10
-24.863738
20
112.494006
30
0.0
11
-22.982299
21
115.155769
31
0.0
0
ARC
8
0
10
-22.573999
20
114.867167
30
0.0
40
0.500000
50
90.000000
51
144.745828
0
LINE
8
0
10
-22.573999
20
115.367167
30
0.0
11
20.724096
21
115.367167
31
0.0
0
ARC
8
0
10
20.724096
20
114.867167
30
0.0
40
0.500000
50
35.254172
51
90.000000
0
LINE
8
0
10
21.132396
20
115.155769
30
0.0
11
23.013835
21
112.494006
31
0.0
0
ARC
8
0
10
23.258815
20
112.667167
30
0.0
40
0.300000
50
215.254172
51
270.000000
0
LINE
8
0
10
23.258815
20
112.367167
30
0.0
11
23.687049
21
112.367167
31
0.0
0
ARC
8
0
10
23.687049
20
113.567167
30
0.0
40
1.200000
50
270.000000
51
299.981639
0
LINE
8
0
10
24.286716
20
112.527744
30
0.0
11
25.868659
21
113.440404
31
0.0
0
ARC
8
0
10
25.968604
20
113.267167
30
0.0
40
0.200000
50
90.000000
51
119.981639
0
LINE
8
0
10
25.968604
20
113.467167
30
0.0
11
26.175048
21
113.467167
31
0.0
0
ARC
8
0
10
26.175048
20
113.067167
30
0.0
40
0.400000
50
0.000000
51
90.000000
0
LINE
8
0
10
26.575048
20
113.067167
30
0.0
11
26.575048
21
109.667167
31
0.0
0
ARC
8
0
10
26.175048
20
109.667167
30
0.0
40
0.400000
50
270.000000
51
0.000000
0
LINE
8
0
10
26.175048
20
109.267167
30
0.0
11
25.968604
21
109.267167
31
0.0
0
ARC
8
0
10
25.968604
20
109.467167
30
0.0
40
0.200000
50
240.018361
51
270.000000
0
LINE
8
0
10
25.868659
20
109.293930
30
0.0
11
24.286716
21
110.206590
31
0.0
0
ARC
8
0
10
23.687049
20
109.167167
30
0.0
40
1.200000
50
60.018361
51
90.000000
0
LINE
8
0
10
23.687049
20
110.367167
30
0.0
11
22.585738
21
110.367167
31
0.0
0
ARC
8
0
10
22.585738
20
111.367167
30
0.0
40
1.000000
50
215.254172
51
270.000000
0
LINE
8
0
10
21.769139
20
110.789962
30
0.0
11
20.246318
21
112.944372
31
0.0
0
ARC
8
0
10
19.429718
20
112.367167
30
0.0
40
1.000000
50
35.254172
51
90.000000
0
LINE
8
0
10
19.429718
20
113.367167
30
0.0
11
17.125048
21
113.367167
31
0.0
0
ARC
8
0
10
17.125048
20
113.067167
30
0.0
40
0.300000
50
90.000000
51
180.000000
0
LINE
8
0
10
16.825048
20
113.067167
30
0.0
11
16.825048
21
109.267167
31
0.0
0
ARC
8
0
10
16.325048
20
109.267167
30
0.0
40
0.500000
50
180.000000
51
0.000000
0
LINE
8
0
10
15.825048
20
109.267167
30
0.0
11
15.825048
21
113.067167
31
0.0
0
ARC
8
0
10
15.525048
20
113.067167
30
0.0
40
0.300000
50
0.000000
51
90.000000
0
LINE
8
0
10
15.525048
20
113.367167
30
0.0
11
5.625048
21
113.367167
31
0.0
0
ARC
8
0
10
5.625048
20
113.067167
30
0.0
40
0.300000
50
90.000000
51
180.000000
0
LINE
8
0
10
5.325048
20
113.067167
30
0.0
11
5.325048
21
109.267167
31
0.0
0
ARC
8
0
10
4.825048
20
109.267167
30
0.0
40
0.500000
50
180.000000
51
0.000000
0
LINE
8
0
10
4.325048
20
109.267167
30
0.0
11
4.325048
21
113.067167
31
0.0
0
ARC
8
0
10
4.025048
20
113.067167
30
0.0
40
0.300000
50
0.000000
51
90.000000
0
ATTDEF
8
0
10
-61.124952
20
132.502047
30
0.0
40
3.5
1

3

2
VC_START
70
0
0
ATTDEF
8
0
10
-61.324952
20
107.502047
30
0.0
40
3.5
1

3

2
VC_END
70
0
0
ATTDEF
8
0
10
-62.124952
20
107.502047
30
0.0
40
3.5
1

3

2
FRONT_VIEW
70
0
0
ATTDEF
8
0
10
-62.124952
20
107.502047
30
0.0
40
3.5
1

3

2
BL01:6800.000000,,1
70
0
0
ATTDEF
8
0
10
-62.124952
20
107.502047
30
0.0
40
3.5
1

3

2
OPTI:500.000000,1,0,3000.000000,6500.000000,500.000000,0,0.000000,0
70
0
0
ATTDEF
8
0
10
-62.124952
20
107.502047
30
0.0
40
3.5
1

3

2
GLASS_MIN:0.000000
70
0
0
ATTDEF
8
0
10
-62.124952
20
107.502047
30
0.0
40
3.5
1

3

2
GLASS_MAX:0.000000
70
0
0
ATTDEF
8
0
10
-62.124952
20
107.502047
30
0.0
40
3.5
1

3

2
FP_LCS_ORIG
70
0
0
ATTDEF
8
0
10
-52.124952
20
107.502047
30
0.0
40
3.5
1

3

2
FP_LCS_HOT
70
0
0
ATTDEF
8
0
10
-62.124952
20
117.502047
30
0.0
40
3.5
1

3

2
FP_LCS_INTERN
70
0
0
ATTDEF
8
0
10
0.000000
20
0.000000
30
0.0
40
3.5
1

3

2
TDEV2:0.000000
70
0
0
ATTDEF
8
0
10
0.000000
20
0.000000
30
0.0
40
3.5
1

3

2
TDEV3:0.000000
70
0
0
ATTDEF
8
0
10
0.000000
20
0.000000
30
0.0
40
3.5
1

3

2
TDEV4:0.000000
70
0
0
ATTDEF
8
0
10
0.000000
20
0.000000
30
0.0
40
3.5
1

3

2
TDEV5:0.000000
70
0
0
ATTDEF
8
0
10
0.000000
20
0.000000
30
0.0
40
3.5
1

3

2
PANE_WIDTH:0
70
0
0
ATTDEF
8
0
10
0.000000
20
0.000000
30
0.0
40
3.5
1

3

2
MIN_VETRO:0
70
0
0
ATTDEF
8
0
10
0.000000
20
0.000000
30
0.0
40
3.5
1

3

2
MAX_VETRO:0
70
0
0
ATTDEF
8
0
10
0.000000
20
0.000000
30
0.0
40
3.5
1

3

2
JX:0
70
0
0
ATTDEF
8
0
10
0.000000
20
0.000000
30
0.0
40
3.5
1

3

2
WX:0
70
0
0
ATTDEF
8
0
10
0.000000
20
0.000000
30
0.0
40
3.5
1

3

2
JY:0
70
0
0
ATTDEF
8
0
10
0.000000
20
0.000000
30
0.0
40
3.5
1

3

2
WY:0
70
0
0
ATTDEF
8
0
10
0.000000
20
0.000000
30
0.0
40
3.5
1

3

2
DESC:Soglia ribassata
70
0
0
ATTDEF
8
0
10
0.000000
20
0.000000
30
0.0
40
3.5
1

3

2
DENS:1.400000
70
0
0
ATTDEF
8
0
10
0.000000
20
0.000000
30
0.0
40
3.5
1

3

2
TDEV:0.000000
70
0
0
ATTDEF
8
0
10
0.000000
20
0.000000
30
0.0
40
3.5
1

3

2
TDEV2:0.000000
70
0
0
ATTDEF
8
0
10
0.000000
20
0.000000
30
0.0
40
3.5
1

3

2
TDEV3:0.000000
70
0
0
ATTDEF
8
0
10
0.000000
20
0.000000
30
0.0
40
3.5
1

3

2
TDEV4:0.000000
70
0
0
ATTDEF
8
0
10
0.000000
20
0.000000
30
0.0
40
3.5
1

3

2
TDEV5:0.000000
70
0
0
ATTDEF
8
0
10
0.000000
20
0.000000
30
0.0
40
3.5
1

3

2
PANE_WIDTH:0
70
0
0
ATTDEF
8
0
10
0.000000
20
0.000000
30
0.0
40
3.5
1

3

2
MIN_VETRO:0
70
0
0
ATTDEF
8
0
10
0.000000
20
0.000000
30
0.0
40
3.5
1

3

2
MAX_VETRO:0
70
0
0
ATTDEF
8
0
10
0.000000
20
0.000000
30
0.0
40
3.5
1

3

2
JX:0
70
0
0
ATTDEF
8
0
10
0.000000
20
0.000000
30
0.0
40
3.5
1

3

2
WX:0
70
0
0
ATTDEF
8
0
10
0.000000
20
0.000000
30
0.0
40
3.5
1

3

2
JY:0
70
0
0
ATTDEF
8
0
10
0.000000
20
0.000000
30
0.0
40
3.5
1

3

2
WY:0
70
0
0
ENDSEC
0
EOF
