0
SECTION
2
ENTITIES
0
ARC
8
0
10
93.310294
20
20.800000
30
0.0
40
0.300000
50
2.000000
51
90.000000
0
LINE
8
0
10
93.610111
20
20.810470
30
0.0
11
93.756535
21
16.617450
31
0.0
0
ARC
8
0
10
93.256839
20
16.600000
30
0.0
40
0.500000
50
270.000000
51
2.000000
0
LINE
8
0
10
93.256839
20
16.100000
30
0.0
11
93.040630
21
16.100000
31
0.0
0
ARC
8
0
10
93.040630
20
15.600000
30
0.0
40
0.500000
50
90.000000
51
210.000000
0
LINE
8
0
10
92.607617
20
15.350000
30
0.0
11
93.762318
21
13.350000
31
0.0
0
ARC
8
0
10
94.195330
20
13.600000
30
0.0
40
0.500000
50
210.000000
51
270.000000
0
LINE
8
0
10
94.195330
20
13.100000
30
0.0
11
99.591977
21
13.100000
31
0.0
0
LINE
8
0
10
99.591977
20
13.100000
30
0.0
11
99.891977
21
12.800000
31
0.0
0
LINE
8
0
10
99.891977
20
12.800000
30
0.0
11
100.191977
21
13.100000
31
0.0
0
LINE
8
0
10
100.191977
20
13.100000
30
0.0
11
105.604671
21
13.100000
31
0.0
0
ARC
8
0
10
105.604671
20
13.600000
30
0.0
40
0.500000
50
270.000000
51
330.000000
0
LINE
8
0
10
106.037683
20
13.350000
30
0.0
11
107.192384
21
15.350000
31
0.0
0
ARC
8
0
10
106.759371
20
15.600000
30
0.0
40
0.500000
50
330.000000
51
90.000000
0
LINE
8
0
10
106.759371
20
16.100000
30
0.0
11
106.543162
21
16.100000
31
0.0
0
ARC
8
0
10
106.543162
20
16.600000
30
0.0
40
0.500000
50
178.000000
51
270.000000
0
LINE
8
0
10
106.043466
20
16.617450
30
0.0
11
106.189890
21
20.810470
31
0.0
0
ARC
8
0
10
106.489707
20
20.800000
30
0.0
40
0.300000
50
90.000000
51
178.000000
0
LINE
8
0
10
106.489707
20
21.100000
30
0.0
11
108.900000
21
21.100000
31
0.0
0
ARC
8
0
10
108.900000
20
21.400000
30
0.0
40
0.300000
50
270.000000
51
0.000000
0
LINE
8
0
10
109.200000
20
21.400000
30
0.0
11
109.200000
21
24.700000
31
0.0
0
ARC
8
0
10
109.500000
20
24.700000
30
0.0
40
0.300000
50
90.000000
51
180.000000
0
LINE
8
0
10
109.500000
20
25.000000
30
0.0
11
121.400000
21
25.000000
31
0.0
0
ARC
8
0
10
121.400000
20
24.000000
30
0.0
40
1.000000
50
0.000000
51
90.000000
0
LINE
8
0
10
122.400000
20
24.000000
30
0.0
11
122.400000
21
0.300000
31
0.0
0
ARC
8
0
10
122.100000
20
0.300000
30
0.0
40
0.300000
50
270.000000
51
0.000000
0
LINE
8
0
10
122.100000
20
0.000000
30
0.0
11
121.100000
21
0.000000
31
0.0
0
ARC
8
0
10
121.100000
20
0.300000
30
0.0
40
0.300000
50
180.000000
51
270.000000
0
LINE
8
0
10
120.800000
20
0.300000
30
0.0
11
120.800000
21
0.700000
31
0.0
0
ARC
8
0
10
120.500000
20
0.700000
30
0.0
40
0.300000
50
0.000000
51
90.000000
0
LINE
8
0
10
120.500000
20
1.000000
30
0.0
11
105.100000
21
1.000000
31
0.0
0
ARC
8
0
10
105.100000
20
0.700000
30
0.0
40
0.300000
50
90.000000
51
180.000000
0
LINE
8
0
10
104.800000
20
0.700000
30
0.0
11
104.800000
21
0.300000
31
0.0
0
ARC
8
0
10
104.500000
20
0.300000
30
0.0
40
0.300000
50
270.000000
51
0.000000
0
LINE
8
0
10
104.500000
20
0.000000
30
0.0
11
103.500000
21
0.000000
31
0.0
0
ARC
8
0
10
103.500000
20
0.300000
30
0.0
40
0.300000
50
180.000000
51
270.000000
0
LINE
8
0
10
103.200000
20
0.300000
30
0.0
11
103.200000
21
0.700000
31
0.0
0
ARC
8
0
10
102.900000
20
0.700000
30
0.0
40
0.300000
50
0.000000
51
90.000000
0
LINE
8
0
10
102.900000
20
1.000000
30
0.0
11
90.500000
21
1.000000
31
0.0
0
ARC
8
0
10
90.500000
20
0.700000
30
0.0
40
0.300000
50
90.000000
51
180.000000
0
LINE
8
0
10
90.200000
20
0.700000
30
0.0
11
90.200000
21
0.300000
31
0.0
0
ARC
8
0
10
89.900000
20
0.300000
30
0.0
40
0.300000
50
270.000000
51
0.000000
0
LINE
8
0
10
89.900000
20
0.000000
30
0.0
11
88.432060
21
0.000000
31
0.0
0
ARC
8
0
10
88.432060
20
0.300000
30
0.0
40
0.300000
50
250.221829
51
270.000000
0
LINE
8
0
10
88.330546
20
0.017697
30
0.0
11
87.028684
21
0.485836
31
0.0
0
ARC
8
0
10
86.949164
20
0.264699
30
0.0
40
0.235000
50
70.221829
51
156.000000
0
ARC
8
0
10
86.513230
20
0.441113
30
0.0
40
0.235000
50
270.000000
51
336.000000
0
LINE
8
0
10
86.514786
20
0.206118
30
0.0
11
84.935858
21
0.195661
31
0.0
0
ARC
8
0
10
84.933871
20
0.495654
30
0.0
40
0.300000
50
155.379459
51
270.000000
0
LINE
8
0
10
84.661145
20
0.620636
30
0.0
11
85.609795
21
2.726151
31
0.0
0
ARC
8
0
10
85.883315
20
2.602916
30
0.0
40
0.300000
50
115.379459
51
155.745828
0
LINE
8
0
10
85.754731
20
2.873962
30
0.0
11
86.262154
21
3.114682
31
0.0
0
ARC
8
0
10
86.347876
20
2.933984
30
0.0
40
0.200000
50
355.379459
51
115.379459
0
LINE
8
0
10
86.547226
20
2.917873
30
0.0
11
86.537924
21
2.802778
31
0.0
0
ARC
8
0
10
86.836949
20
2.778611
30
0.0
40
0.300000
50
175.379459
51
235.379459
0
LINE
8
0
10
86.666508
20
2.531731
30
0.0
11
88.295264
21
1.407265
31
0.0
0
LINE
8
0
10
88.295264
20
1.407265
30
0.0
11
88.477974
21
1.325918
31
0.0
0
ARC
8
0
10
88.599976
20
1.600000
30
0.0
40
0.300009
50
246.004713
51
48.187329
0
ARC
8
0
10
89.000000
20
2.047204
30
0.0
40
0.300000
50
180.000000
51
228.187329
0
LINE
8
0
10
88.700000
20
2.047204
30
0.0
11
88.700000
21
5.799991
31
0.0
0
ARC
8
0
10
88.398652
20
5.798639
30
0.0
40
0.301352
50
0.000000
51
90.000000
0
LINE
8
0
10
88.399211
20
6.099991
30
0.0
11
88.352801
21
6.099991
31
0.0
0
ARC
8
0
10
88.352801
20
5.799991
30
0.0
40
0.300000
50
90.000000
51
120.000000
0
LINE
8
0
10
88.202801
20
6.059798
30
0.0
11
86.435814
21
5.039628
31
0.0
0
ARC
8
0
10
86.285814
20
5.299435
30
0.0
40
0.300000
50
270.000000
51
300.000000
0
LINE
8
0
10
86.285814
20
4.999435
30
0.0
11
85.921462
21
4.999435
31
0.0
0
ARC
8
0
10
85.921462
20
5.999435
30
0.0
40
1.000000
50
214.261170
51
270.000000
0
LINE
8
0
10
85.094982
20
5.436469
30
0.0
11
84.053466
21
6.965500
31
0.0
0
ARC
8
0
10
84.299211
20
7.137573
30
0.0
40
0.300000
50
180.000000
51
215.000010
0
LINE
8
0
10
83.999211
20
7.137573
30
0.0
11
83.999211
21
7.499995
31
0.0
0
ARC
8
0
10
84.299211
20
7.499995
30
0.0
40
0.300000
50
90.000000
51
180.000000
0
LINE
8
0
10
84.299211
20
7.799995
30
0.0
11
91.900025
21
7.799995
31
0.0
0
ARC
8
0
10
91.900025
20
8.099995
30
0.0
40
0.300000
50
270.000000
51
0.000000
0
LINE
8
0
10
92.200025
20
8.099995
30
0.0
11
92.200025
21
12.975585
31
0.0
0
ARC
8
0
10
91.900025
20
12.975585
30
0.0
40
0.300000
50
0.000000
51
30.000000
0
LINE
8
0
10
92.159833
20
13.125585
30
0.0
11
91.308579
21
14.600000
31
0.0
0
ARC
8
0
10
93.040630
20
15.600000
30
0.0
40
2.000000
50
122.643077
51
210.000000
0
ARC
8
0
10
91.800000
20
17.536708
30
0.0
40
0.300000
50
302.643077
51
0.000000
0
LINE
8
0
10
92.100000
20
17.536708
30
0.0
11
92.100000
21
19.300000
31
0.0
0
ARC
8
0
10
91.800000
20
19.300000
30
0.0
40
0.300000
50
0.000000
51
90.000000
0
LINE
8
0
10
91.800000
20
19.600000
30
0.0
11
89.400000
21
19.600000
31
0.0
0
ARC
8
0
10
89.400000
20
19.900000
30
0.0
40
0.300000
50
180.000000
51
270.000000
0
LINE
8
0
10
89.100000
20
19.900000
30
0.0
11
89.100000
21
21.775736
31
0.0
0
ARC
8
0
10
89.400000
20
21.775736
30
0.0
40
0.300000
50
135.000000
51
180.000000
0
LINE
8
0
10
89.187868
20
21.987868
30
0.0
11
89.412133
21
22.212132
31
0.0
0
ARC
8
0
10
89.624265
20
22.000000
30
0.0
40
0.300000
50
90.000000
51
135.000000
0
LINE
8
0
10
89.624265
20
22.300000
30
0.0
11
90.300000
21
22.300000
31
0.0
0
ARC
8
0
10
90.300000
20
22.000000
30
0.0
40
0.300000
50
0.000000
51
90.000000
0
LINE
8
0
10
90.600000
20
22.000000
30
0.0
11
90.600000
21
21.400000
31
0.0
0
ARC
8
0
10
90.900000
20
21.400000
30
0.0
40
0.300000
50
180.000000
51
270.000000
0
LINE
8
0
10
90.900000
20
21.100000
30
0.0
11
93.310294
21
21.100000
31
0.0
0
LINE
8
0
10
101.792035
20
10.411150
30
0.0
11
101.521744
21
10.280985
31
0.0
0
ARC
8
0
10
99.900000
20
9.499995
30
0.0
40
1.800000
50
25.714286
51
68.571429
0
LINE
8
0
10
100.557614
20
11.175567
30
0.0
11
100.667217
21
11.454829
31
0.0
0
ARC
8
0
10
99.900000
20
9.499995
30
0.0
40
2.100000
50
68.571429
51
111.428571
0
LINE
8
0
10
99.132784
20
11.454829
30
0.0
11
99.242387
21
11.175567
31
0.0
0
ARC
8
0
10
99.900000
20
9.499995
30
0.0
40
1.800000
50
111.428571
51
154.285714
0
LINE
8
0
10
98.278257
20
10.280985
30
0.0
11
98.007966
21
10.411150
31
0.0
0
ARC
8
0
10
99.900000
20
9.499995
30
0.0
40
2.100000
50
154.285714
51
197.142857
0
LINE
8
0
10
97.893298
20
8.881009
30
0.0
11
98.179969
21
8.969435
31
0.0
0
ARC
8
0
10
99.900000
20
9.499995
30
0.0
40
1.800000
50
197.142857
51
224.728071
0
ARC
8
0
10
98.408045
20
8.022135
30
0.0
40
0.300000
50
270.000000
51
44.728071
0
LINE
8
0
10
98.408045
20
7.722135
30
0.0
11
97.629553
21
7.722135
31
0.0
0
ARC
8
0
10
97.629553
20
8.722135
30
0.0
40
1.000000
50
198.911563
51
270.000000
0
ARC
8
0
10
99.900000
20
9.499995
30
0.0
40
3.400000
50
154.377876
51
198.911563
0
ARC
8
0
10
96.563838
20
11.100000
30
0.0
40
0.300000
50
334.377876
51
90.000000
0
LINE
8
0
10
96.563838
20
11.400000
30
0.0
11
94.139591
21
11.400000
31
0.0
0
ARC
8
0
10
94.139591
20
10.900000
30
0.0
40
0.500000
50
90.000000
51
180.000000
0
LINE
8
0
10
93.639591
20
10.900000
30
0.0
11
93.639591
21
7.299995
31
0.0
0
ARC
8
0
10
92.639591
20
7.299995
30
0.0
40
1.000000
50
270.000000
51
0.000000
0
LINE
8
0
10
92.639591
20
6.299995
30
0.0
11
90.500000
21
6.299995
31
0.0
0
ARC
8
0
10
90.500000
20
5.999995
30
0.0
40
0.300000
50
90.000000
51
180.000000
0
LINE
8
0
10
90.200000
20
5.999995
30
0.0
11
90.200000
21
2.800000
31
0.0
0
ARC
8
0
10
90.500000
20
2.800000
30
0.0
40
0.300000
50
180.000000
51
270.000000
0
LINE
8
0
10
90.500000
20
2.500000
30
0.0
11
120.600000
21
2.500000
31
0.0
0
ARC
8
0
10
120.600000
20
2.800000
30
0.0
40
0.300000
50
270.000000
51
0.000000
0
LINE
8
0
10
120.900000
20
2.800000
30
0.0
11
120.900000
21
23.200000
31
0.0
0
ARC
8
0
10
120.600000
20
23.200000
30
0.0
40
0.300000
50
0.000000
51
90.000000
0
LINE
8
0
10
120.600000
20
23.500000
30
0.0
11
111.000000
21
23.500000
31
0.0
0
ARC
8
0
10
111.000000
20
23.200000
30
0.0
40
0.300000
50
90.000000
51
180.000000
0
LINE
8
0
10
110.700000
20
23.200000
30
0.0
11
110.700000
21
20.100000
31
0.0
0
ARC
8
0
10
110.200000
20
20.100000
30
0.0
40
0.500000
50
270.000000
51
0.000000
0
LINE
8
0
10
110.200000
20
19.600000
30
0.0
11
108.000000
21
19.600000
31
0.0
0
ARC
8
0
10
108.000000
20
19.300000
30
0.0
40
0.300000
50
90.000000
51
180.000000
0
LINE
8
0
10
107.700000
20
19.300000
30
0.0
11
107.700000
21
17.536708
31
0.0
0
ARC
8
0
10
108.000000
20
17.536708
30
0.0
40
0.300000
50
180.000000
51
237.356923
0
ARC
8
0
10
106.759371
20
15.600000
30
0.0
40
2.000000
50
330.000000
51
57.356923
0
LINE
8
0
10
108.491422
20
14.600000
30
0.0
11
106.932576
21
11.900000
31
0.0
0
ARC
8
0
10
106.066551
20
12.400000
30
0.0
40
1.000000
50
270.000000
51
330.000000
0
LINE
8
0
10
106.066551
20
11.400000
30
0.0
11
103.236163
21
11.400000
31
0.0
0
ARC
8
0
10
103.236163
20
11.100000
30
0.0
40
0.300000
50
90.000000
51
205.622124
0
ARC
8
0
10
99.900000
20
9.499995
30
0.0
40
3.400000
50
341.088437
51
25.622124
0
ARC
8
0
10
102.170448
20
8.722135
30
0.0
40
1.000000
50
270.000000
51
341.088437
0
LINE
8
0
10
102.170448
20
7.722135
30
0.0
11
101.391955
21
7.722135
31
0.0
0
ARC
8
0
10
101.391955
20
8.022135
30
0.0
40
0.300000
50
135.271929
51
270.000000
0
ARC
8
0
10
99.900000
20
9.499995
30
0.0
40
1.800000
50
315.271929
51
342.857143
0
LINE
8
0
10
101.620032
20
8.969435
30
0.0
11
101.906703
21
8.881009
31
0.0
0
ARC
8
0
10
99.900000
20
9.499995
30
0.0
40
2.100000
50
342.857143
51
25.714286
0
ARC
8
0
10
29.089707
20
20.800000
30
0.0
40
0.300000
50
90.000000
51
178.000000
0
LINE
8
0
10
28.789890
20
20.810470
30
0.0
11
28.643466
21
16.617450
31
0.0
0
ARC
8
0
10
29.143162
20
16.600000
30
0.0
40
0.500000
50
178.000000
51
270.000000
0
LINE
8
0
10
29.143162
20
16.100000
30
0.0
11
29.359371
21
16.100000
31
0.0
0
ARC
8
0
10
29.359371
20
15.600000
30
0.0
40
0.500000
50
330.000000
51
90.000000
0
LINE
8
0
10
29.792384
20
15.350000
30
0.0
11
28.637683
21
13.350000
31
0.0
0
ARC
8
0
10
28.204671
20
13.600000
30
0.0
40
0.500000
50
270.000000
51
330.000000
0
LINE
8
0
10
28.204671
20
13.100000
30
0.0
11
22.808024
21
13.100000
31
0.0
0
LINE
8
0
10
22.808024
20
13.100000
30
0.0
11
22.508024
21
12.800000
31
0.0
0
LINE
8
0
10
22.508024
20
12.800000
30
0.0
11
22.208024
21
13.100000
31
0.0
0
LINE
8
0
10
22.208024
20
13.100000
30
0.0
11
16.795330
21
13.100000
31
0.0
0
ARC
8
0
10
16.795330
20
13.600000
30
0.0
40
0.500000
50
210.000000
51
270.000000
0
LINE
8
0
10
16.362318
20
13.350000
30
0.0
11
15.207617
21
15.350000
31
0.0
0
ARC
8
0
10
15.640630
20
15.600000
30
0.0
40
0.500000
50
90.000000
51
210.000000
0
LINE
8
0
10
15.640630
20
16.100000
30
0.0
11
15.856839
21
16.100000
31
0.0
0
ARC
8
0
10
15.856839
20
16.600000
30
0.0
40
0.500000
50
270.000000
51
2.000000
0
LINE
8
0
10
16.356535
20
16.617450
30
0.0
11
16.210111
21
20.810470
31
0.0
0
ARC
8
0
10
15.910294
20
20.800000
30
0.0
40
0.300000
50
2.000000
51
90.000000
0
LINE
8
0
10
15.910294
20
21.100000
30
0.0
11
13.500000
21
21.100000
31
0.0
0
ARC
8
0
10
13.500000
20
21.400000
30
0.0
40
0.300000
50
180.000000
51
270.000000
0
LINE
8
0
10
13.200000
20
21.400000
30
0.0
11
13.200000
21
24.700000
31
0.0
0
ARC
8
0
10
12.900000
20
24.700000
30
0.0
40
0.300000
50
0.000000
51
90.000000
0
LINE
8
0
10
12.900000
20
25.000000
30
0.0
11
1.000000
21
25.000000
31
0.0
0
ARC
8
0
10
1.000000
20
24.000000
30
0.0
40
1.000000
50
90.000000
51
180.000000
0
LINE
8
0
10
0.000000
20
24.000000
30
0.0
11
0.000000
21
0.300000
31
0.0
0
ARC
8
0
10
0.300000
20
0.300000
30
0.0
40
0.300000
50
180.000000
51
270.000000
0
LINE
8
0
10
0.300000
20
0.000000
30
0.0
11
1.300000
21
0.000000
31
0.0
0
ARC
8
0
10
1.300000
20
0.300000
30
0.0
40
0.300000
50
270.000000
51
0.000000
0
LINE
8
0
10
1.600000
20
0.300000
30
0.0
11
1.600000
21
0.700000
31
0.0
0
ARC
8
0
10
1.900000
20
0.700000
30
0.0
40
0.300000
50
90.000000
51
180.000000
0
LINE
8
0
10
1.900000
20
1.000000
30
0.0
11
17.300000
21
1.000000
31
0.0
0
ARC
8
0
10
17.300000
20
0.700000
30
0.0
40
0.300000
50
0.000000
51
90.000000
0
LINE
8
0
10
17.600000
20
0.700000
30
0.0
11
17.600000
21
0.300000
31
0.0
0
ARC
8
0
10
17.900000
20
0.300000
30
0.0
40
0.300000
50
180.000000
51
270.000000
0
LINE
8
0
10
17.900000
20
0.000000
30
0.0
11
18.900000
21
0.000000
31
0.0
0
ARC
8
0
10
18.900000
20
0.300000
30
0.0
40
0.300000
50
270.000000
51
0.000000
0
LINE
8
0
10
19.200000
20
0.300000
30
0.0
11
19.200000
21
0.700000
31
0.0
0
ARC
8
0
10
19.500000
20
0.700000
30
0.0
40
0.300000
50
90.000000
51
180.000000
0
LINE
8
0
10
19.500000
20
1.000000
30
0.0
11
31.900000
21
1.000000
31
0.0
0
ARC
8
0
10
31.900000
20
0.700000
30
0.0
40
0.300000
50
0.000000
51
90.000000
0
LINE
8
0
10
32.200000
20
0.700000
30
0.0
11
32.200000
21
0.300000
31
0.0
0
ARC
8
0
10
32.500000
20
0.300000
30
0.0
40
0.300000
50
180.000000
51
270.000000
0
LINE
8
0
10
32.500000
20
0.000000
30
0.0
11
33.967941
21
0.000000
31
0.0
0
ARC
8
0
10
33.967941
20
0.300000
30
0.0
40
0.300000
50
270.000000
51
289.778171
0
LINE
8
0
10
34.069455
20
0.017697
30
0.0
11
35.371317
21
0.485836
31
0.0
0
ARC
8
0
10
35.450836
20
0.264699
30
0.0
40
0.235000
50
24.000000
51
109.778171
0
ARC
8
0
10
35.886771
20
0.441113
30
0.0
40
0.235000
50
204.000000
51
270.000000
0
LINE
8
0
10
35.885215
20
0.206118
30
0.0
11
37.464143
21
0.195661
31
0.0
0
ARC
8
0
10
37.466130
20
0.495654
30
0.0
40
0.300000
50
270.000000
51
24.620541
0
LINE
8
0
10
37.738856
20
0.620636
30
0.0
11
36.790206
21
2.726151
31
0.0
0
ARC
8
0
10
36.516686
20
2.602916
30
0.0
40
0.300000
50
24.254172
51
64.620541
0
LINE
8
0
10
36.645270
20
2.873962
30
0.0
11
36.137847
21
3.114682
31
0.0
0
ARC
8
0
10
36.052125
20
2.933984
30
0.0
40
0.200000
50
64.620541
51
184.620541
0
LINE
8
0
10
35.852775
20
2.917873
30
0.0
11
35.862076
21
2.802778
31
0.0
0
ARC
8
0
10
35.563051
20
2.778611
30
0.0
40
0.300000
50
304.620541
51
4.620541
0
LINE
8
0
10
35.733493
20
2.531731
30
0.0
11
34.104737
21
1.407265
31
0.0
0
LINE
8
0
10
34.104737
20
1.407265
30
0.0
11
33.922027
21
1.325918
31
0.0
0
ARC
8
0
10
33.800025
20
1.600000
30
0.0
40
0.300009
50
131.812671
51
293.995287
0
ARC
8
0
10
33.400000
20
2.047204
30
0.0
40
0.300000
50
311.812671
51
0.000000
0
LINE
8
0
10
33.700000
20
2.047204
30
0.0
11
33.700000
21
5.799991
31
0.0
0
ARC
8
0
10
34.001349
20
5.798639
30
0.0
40
0.301352
50
90.000000
51
180.000000
0
LINE
8
0
10
34.000790
20
6.099991
30
0.0
11
34.047200
21
6.099991
31
0.0
0
ARC
8
0
10
34.047200
20
5.799991
30
0.0
40
0.300000
50
60.000000
51
90.000000
0
LINE
8
0
10
34.197200
20
6.059798
30
0.0
11
35.964187
21
5.039628
31
0.0
0
ARC
8
0
10
36.114187
20
5.299435
30
0.0
40
0.300000
50
240.000000
51
270.000000
0
LINE
8
0
10
36.114187
20
4.999435
30
0.0
11
36.478539
21
4.999435
31
0.0
0
ARC
8
0
10
36.478539
20
5.999435
30
0.0
40
1.000000
50
270.000000
51
325.738830
0
LINE
8
0
10
37.305019
20
5.436469
30
0.0
11
38.346535
21
6.965500
31
0.0
0
ARC
8
0
10
38.100790
20
7.137573
30
0.0
40
0.300000
50
324.999990
51
0.000000
0
LINE
8
0
10
38.400790
20
7.137573
30
0.0
11
38.400790
21
7.499995
31
0.0
0
ARC
8
0
10
38.100790
20
7.499995
30
0.0
40
0.300000
50
0.000000
51
90.000000
0
LINE
8
0
10
38.100790
20
7.799995
30
0.0
11
30.499976
21
7.799995
31
0.0
0
ARC
8
0
10
30.499976
20
8.099995
30
0.0
40
0.300000
50
180.000000
51
270.000000
0
LINE
8
0
10
30.199976
20
8.099995
30
0.0
11
30.199976
21
12.975585
31
0.0
0
ARC
8
0
10
30.499976
20
12.975585
30
0.0
40
0.300000
50
150.000000
51
180.000000
0
LINE
8
0
10
30.240168
20
13.125585
30
0.0
11
31.091422
21
14.600000
31
0.0
0
ARC
8
0
10
29.359371
20
15.600000
30
0.0
40
2.000000
50
330.000000
51
57.356923
0
ARC
8
0
10
30.600000
20
17.536708
30
0.0
40
0.300000
50
180.000000
51
237.356923
0
LINE
8
0
10
30.300000
20
17.536708
30
0.0
11
30.300000
21
19.300000
31
0.0
0
ARC
8
0
10
30.600000
20
19.300000
30
0.0
40
0.300000
50
90.000000
51
180.000000
0
LINE
8
0
10
30.600000
20
19.600000
30
0.0
11
33.000000
21
19.600000
31
0.0
0
ARC
8
0
10
33.000000
20
19.900000
30
0.0
40
0.300000
50
270.000000
51
0.000000
0
LINE
8
0
10
33.300000
20
19.900000
30
0.0
11
33.300000
21
21.775736
31
0.0
0
ARC
8
0
10
33.000000
20
21.775736
30
0.0
40
0.300000
50
0.000000
51
45.000000
0
LINE
8
0
10
33.212133
20
21.987868
30
0.0
11
32.987868
21
22.212132
31
0.0
0
ARC
8
0
10
32.775736
20
22.000000
30
0.0
40
0.300000
50
45.000000
51
90.000000
0
LINE
8
0
10
32.775736
20
22.300000
30
0.0
11
32.100000
21
22.300000
31
0.0
0
ARC
8
0
10
32.100000
20
22.000000
30
0.0
40
0.300000
50
90.000000
51
180.000000
0
LINE
8
0
10
31.800000
20
22.000000
30
0.0
11
31.800000
21
21.400000
31
0.0
0
ARC
8
0
10
31.500000
20
21.400000
30
0.0
40
0.300000
50
270.000000
51
0.000000
0
LINE
8
0
10
31.500000
20
21.100000
30
0.0
11
29.089707
21
21.100000
31
0.0
0
LINE
8
0
10
20.607966
20
10.411150
30
0.0
11
20.878257
21
10.280985
31
0.0
0
ARC
8
0
10
22.500000
20
9.499995
30
0.0
40
1.800000
50
111.428571
51
154.285714
0
LINE
8
0
10
21.842387
20
11.175567
30
0.0
11
21.732784
21
11.454829
31
0.0
0
ARC
8
0
10
22.500000
20
9.499995
30
0.0
40
2.100000
50
68.571429
51
111.428571
0
LINE
8
0
10
23.267217
20
11.454829
30
0.0
11
23.157614
21
11.175567
31
0.0
0
ARC
8
0
10
22.500000
20
9.499995
30
0.0
40
1.800000
50
25.714286
51
68.571429
0
LINE
8
0
10
24.121744
20
10.280985
30
0.0
11
24.392035
21
10.411150
31
0.0
0
ARC
8
0
10
22.500000
20
9.499995
30
0.0
40
2.100000
50
342.857143
51
25.714286
0
LINE
8
0
10
24.506703
20
8.881009
30
0.0
11
24.220032
21
8.969435
31
0.0
0
ARC
8
0
10
22.500000
20
9.499995
30
0.0
40
1.800000
50
315.271929
51
342.857143
0
ARC
8
0
10
23.991955
20
8.022135
30
0.0
40
0.300000
50
135.271929
51
270.000000
0
LINE
8
0
10
23.991955
20
7.722135
30
0.0
11
24.770448
21
7.722135
31
0.0
0
ARC
8
0
10
24.770448
20
8.722135
30
0.0
40
1.000000
50
270.000000
51
341.088437
0
ARC
8
0
10
22.500000
20
9.499995
30
0.0
40
3.400000
50
341.088437
51
25.622124
0
ARC
8
0
10
25.836163
20
11.100000
30
0.0
40
0.300000
50
90.000000
51
205.622124
0
LINE
8
0
10
25.836163
20
11.400000
30
0.0
11
28.260410
21
11.400000
31
0.0
0
ARC
8
0
10
28.260410
20
10.900000
30
0.0
40
0.500000
50
0.000000
51
90.000000
0
LINE
8
0
10
28.760410
20
10.900000
30
0.0
11
28.760410
21
7.299995
31
0.0
0
ARC
8
0
10
29.760410
20
7.299995
30
0.0
40
1.000000
50
180.000000
51
270.000000
0
LINE
8
0
10
29.760410
20
6.299995
30
0.0
11
31.900000
21
6.299995
31
0.0
0
ARC
8
0
10
31.900000
20
5.999995
30
0.0
40
0.300000
50
0.000000
51
90.000000
0
LINE
8
0
10
32.200000
20
5.999995
30
0.0
11
32.200000
21
2.800000
31
0.0
0
ARC
8
0
10
31.900000
20
2.800000
30
0.0
40
0.300000
50
270.000000
51
0.000000
0
LINE
8
0
10
31.900000
20
2.500000
30
0.0
11
1.800000
21
2.500000
31
0.0
0
ARC
8
0
10
1.800000
20
2.800000
30
0.0
40
0.300000
50
180.000000
51
270.000000
0
LINE
8
0
10
1.500000
20
2.800000
30
0.0
11
1.500000
21
23.200000
31
0.0
0
ARC
8
0
10
1.800000
20
23.200000
30
0.0
40
0.300000
50
90.000000
51
180.000000
0
LINE
8
0
10
1.800000
20
23.500000
30
0.0
11
11.400000
21
23.500000
31
0.0
0
ARC
8
0
10
11.400000
20
23.200000
30
0.0
40
0.300000
50
0.000000
51
90.000000
0
LINE
8
0
10
11.700000
20
23.200000
30
0.0
11
11.700000
21
20.100000
31
0.0
0
ARC
8
0
10
12.200000
20
20.100000
30
0.0
40
0.500000
50
180.000000
51
270.000000
0
LINE
8
0
10
12.200000
20
19.600000
30
0.0
11
14.400000
21
19.600000
31
0.0
0
ARC
8
0
10
14.400000
20
19.300000
30
0.0
40
0.300000
50
0.000000
51
90.000000
0
LINE
8
0
10
14.700000
20
19.300000
30
0.0
11
14.700000
21
17.536708
31
0.0
0
ARC
8
0
10
14.400000
20
17.536708
30
0.0
40
0.300000
50
302.643077
51
0.000000
0
ARC
8
0
10
15.640630
20
15.600000
30
0.0
40
2.000000
50
122.643077
51
210.000000
0
LINE
8
0
10
13.908579
20
14.600000
30
0.0
11
15.467425
21
11.900000
31
0.0
0
ARC
8
0
10
16.333450
20
12.400000
30
0.0
40
1.000000
50
210.000000
51
270.000000
0
LINE
8
0
10
16.333450
20
11.400000
30
0.0
11
19.163838
21
11.400000
31
0.0
0
ARC
8
0
10
19.163838
20
11.100000
30
0.0
40
0.300000
50
334.377876
51
90.000000
0
ARC
8
0
10
22.500000
20
9.499995
30
0.0
40
3.400000
50
154.377876
51
198.911563
0
ARC
8
0
10
20.229553
20
8.722135
30
0.0
40
1.000000
50
198.911563
51
270.000000
0
LINE
8
0
10
20.229553
20
7.722135
30
0.0
11
21.008045
21
7.722135
31
0.0
0
ARC
8
0
10
21.008045
20
8.022135
30
0.0
40
0.300000
50
270.000000
51
44.728071
0
ARC
8
0
10
22.500000
20
9.499995
30
0.0
40
1.800000
50
197.142857
51
224.728071
0
LINE
8
0
10
20.779969
20
8.969435
30
0.0
11
20.493298
21
8.881009
31
0.0
0
ARC
8
0
10
22.500000
20
9.499995
30
0.0
40
2.100000
50
154.285714
51
197.142857
0
LINE
8
0
10
66.150000
20
5.865120
30
0.0
11
56.250000
21
5.865120
31
0.0
0
ARC
8
0
10
56.250000
20
5.565120
30
0.0
40
0.300000
50
90.000000
51
180.000000
0
LINE
8
0
10
55.950000
20
5.565120
30
0.0
11
55.950000
21
1.765120
31
0.0
0
ARC
8
0
10
55.450000
20
1.765120
30
0.0
40
0.500000
50
180.000000
51
0.000000
0
LINE
8
0
10
54.950000
20
1.765120
30
0.0
11
54.950000
21
5.565120
31
0.0
0
ARC
8
0
10
54.650000
20
5.565120
30
0.0
40
0.300000
50
0.000000
51
90.000000
0
LINE
8
0
10
54.650000
20
5.865120
30
0.0
11
44.750000
21
5.865120
31
0.0
0
ARC
8
0
10
44.750000
20
5.565120
30
0.0
40
0.300000
50
90.000000
51
180.000000
0
LINE
8
0
10
44.450000
20
5.565120
30
0.0
11
44.450000
21
1.765120
31
0.0
0
ARC
8
0
10
43.950000
20
1.765120
30
0.0
40
0.500000
50
180.000000
51
0.000000
0
LINE
8
0
10
43.450000
20
1.765120
30
0.0
11
43.450000
21
5.565120
31
0.0
0
ARC
8
0
10
43.150000
20
5.565120
30
0.0
40
0.300000
50
0.000000
51
90.000000
0
LINE
8
0
10
43.150000
20
5.865120
30
0.0
11
40.845331
21
5.865120
31
0.0
0
ARC
8
0
10
40.845331
20
4.865120
30
0.0
40
1.000000
50
90.000000
51
144.745828
0
LINE
8
0
10
40.028731
20
5.442325
30
0.0
11
38.505910
21
3.287915
31
0.0
0
ARC
8
0
10
37.689311
20
3.865120
30
0.0
40
1.000000
50
270.000000
51
324.745828
0
LINE
8
0
10
37.689311
20
2.865120
30
0.0
11
36.588000
21
2.865120
31
0.0
0
ARC
8
0
10
36.588000
20
1.665120
30
0.0
40
1.200000
50
90.000000
51
119.981639
0
LINE
8
0
10
35.988333
20
2.704543
30
0.0
11
34.406389
21
1.791883
31
0.0
0
ARC
8
0
10
34.306445
20
1.965120
30
0.0
40
0.200000
50
270.000000
51
299.981639
0
LINE
8
0
10
34.306445
20
1.765120
30
0.0
11
34.100000
21
1.765120
31
0.0
0
ARC
8
0
10
34.100000
20
2.165120
30
0.0
40
0.400000
50
180.000000
51
270.000000
0
LINE
8
0
10
33.700000
20
2.165120
30
0.0
11
33.700000
21
5.565120
31
0.0
0
ARC
8
0
10
34.100000
20
5.565120
30
0.0
40
0.400000
50
90.000000
51
180.000000
0
LINE
8
0
10
34.100000
20
5.965120
30
0.0
11
34.306445
21
5.965120
31
0.0
0
ARC
8
0
10
34.306445
20
5.765120
30
0.0
40
0.200000
50
60.018361
51
90.000000
0
LINE
8
0
10
34.406389
20
5.938357
30
0.0
11
35.988333
21
5.025697
31
0.0
0
ARC
8
0
10
36.588000
20
6.065120
30
0.0
40
1.200000
50
240.018361
51
270.000000
0
LINE
8
0
10
36.588000
20
4.865120
30
0.0
11
37.016234
21
4.865120
31
0.0
0
ARC
8
0
10
37.016234
20
5.165120
30
0.0
40
0.300000
50
270.000000
51
324.745828
0
LINE
8
0
10
37.261214
20
4.991959
30
0.0
11
39.142653
21
7.653722
31
0.0
0
ARC
8
0
10
39.550953
20
7.365120
30
0.0
40
0.500000
50
90.000000
51
144.745828
0
LINE
8
0
10
39.550953
20
7.865120
30
0.0
11
82.849048
21
7.865120
31
0.0
0
ARC
8
0
10
82.849048
20
7.365120
30
0.0
40
0.500000
50
35.254172
51
90.000000
0
LINE
8
0
10
83.257348
20
7.653722
30
0.0
11
85.138787
21
4.991959
31
0.0
0
ARC
8
0
10
85.383767
20
5.165120
30
0.0
40
0.300000
50
215.254172
51
270.000000
0
LINE
8
0
10
85.383767
20
4.865120
30
0.0
11
85.812001
21
4.865120
31
0.0
0
ARC
8
0
10
85.812001
20
6.065120
30
0.0
40
1.200000
50
270.000000
51
299.981639
0
LINE
8
0
10
86.411668
20
5.025697
30
0.0
11
87.993611
21
5.938357
31
0.0
0
ARC
8
0
10
88.093556
20
5.765120
30
0.0
40
0.200000
50
90.000000
51
119.981639
0
LINE
8
0
10
88.093556
20
5.965120
30
0.0
11
88.300000
21
5.965120
31
0.0
0
ARC
8
0
10
88.300000
20
5.565120
30
0.0
40
0.400000
50
0.000000
51
90.000000
0
LINE
8
0
10
88.700000
20
5.565120
30
0.0
11
88.700000
21
2.165120
31
0.0
0
ARC
8
0
10
88.300000
20
2.165120
30
0.0
40
0.400000
50
270.000000
51
0.000000
0
LINE
8
0
10
88.300000
20
1.765120
30
0.0
11
88.093556
21
1.765120
31
0.0
0
ARC
8
0
10
88.093556
20
1.965120
30
0.0
40
0.200000
50
240.018361
51
270.000000
0
LINE
8
0
10
87.993611
20
1.791883
30
0.0
11
86.411668
21
2.704543
31
0.0
0
ARC
8
0
10
85.812001
20
1.665120
30
0.0
40
1.200000
50
60.018361
51
90.000000
0
LINE
8
0
10
85.812001
20
2.865120
30
0.0
11
84.710690
21
2.865120
31
0.0
0
ARC
8
0
10
84.710690
20
3.865120
30
0.0
40
1.000000
50
215.254172
51
270.000000
0
LINE
8
0
10
83.894091
20
3.287915
30
0.0
11
82.371270
21
5.442325
31
0.0
0
ARC
8
0
10
81.554670
20
4.865120
30
0.0
40
1.000000
50
35.254172
51
90.000000
0
LINE
8
0
10
81.554670
20
5.865120
30
0.0
11
79.250000
21
5.865120
31
0.0
0
ARC
8
0
10
79.250000
20
5.565120
30
0.0
40
0.300000
50
90.000000
51
180.000000
0
LINE
8
0
10
78.950000
20
5.565120
30
0.0
11
78.950000
21
1.765120
31
0.0
0
ARC
8
0
10
78.450000
20
1.765120
30
0.0
40
0.500000
50
180.000000
51
0.000000
0
LINE
8
0
10
77.950000
20
1.765120
30
0.0
11
77.950000
21
5.565120
31
0.0
0
ARC
8
0
10
77.650000
20
5.565120
30
0.0
40
0.300000
50
0.000000
51
90.000000
0
LINE
8
0
10
77.650000
20
5.865120
30
0.0
11
67.750000
21
5.865120
31
0.0
0
ARC
8
0
10
67.750000
20
5.565120
30
0.0
40
0.300000
50
90.000000
51
180.000000
0
LINE
8
0
10
67.450000
20
5.565120
30
0.0
11
67.450000
21
1.765120
31
0.0
0
ARC
8
0
10
66.950000
20
1.765120
30
0.0
40
0.500000
50
180.000000
51
0.000000
0
LINE
8
0
10
66.450000
20
1.765120
30
0.0
11
66.450000
21
5.565120
31
0.0
0
ARC
8
0
10
66.150000
20
5.565120
30
0.0
40
0.300000
50
0.000000
51
90.000000
0
ATTDEF
8
0
10
1.000000
20
25.000000
30
0.0
40
3.5
1

3

2
VC_START
70
0
0
ATTDEF
8
0
10
0.800000
20
0.000000
30
0.0
40
3.5
1

3

2
VC_END
70
0
0
LINE
8
0
10
16.308024
20
22.900000
30
0.0
11
17.008024
21
22.900000
31
0.0
0
ARC
8
0
10
17.008024
20
22.600000
30
0.0
40
0.300000
50
0.000000
51
90.000000
0
LINE
8
0
10
17.308024
20
22.600000
30
0.0
11
17.308024
21
17.424264
31
0.0
0
ARC
8
0
10
17.008024
20
17.424264
30
0.0
40
0.300000
50
315.000000
51
0.000000
0
LINE
8
0
10
17.220157
20
17.212132
30
0.0
11
16.022973
21
16.014949
31
0.0
0
ARC
8
0
10
16.376527
20
15.661396
30
0.0
40
0.500000
50
135.000000
51
210.000000
0
LINE
8
0
10
15.943514
20
15.411396
30
0.0
11
16.527625
21
14.399686
31
0.0
0
ARC
8
0
10
16.874035
20
14.599686
30
0.0
40
0.400000
50
210.000000
51
30.000000
0
LINE
8
0
10
17.220445
20
14.799686
30
0.0
11
16.866532
21
15.412681
31
0.0
0
ARC
8
0
10
17.126340
20
15.562681
30
0.0
40
0.300000
50
135.000000
51
210.000000
0
LINE
8
0
10
16.914208
20
15.774813
30
0.0
11
18.020157
21
16.880761
31
0.0
0
ARC
8
0
10
17.808024
20
17.092893
30
0.0
40
0.300000
50
315.000000
51
0.000000
0
LINE
8
0
10
18.108024
20
17.092893
30
0.0
11
18.108024
21
22.600000
31
0.0
0
ARC
8
0
10
18.408024
20
22.600000
30
0.0
40
0.300000
50
90.000000
51
180.000000
0
LINE
8
0
10
18.408024
20
22.900000
30
0.0
11
26.608024
21
22.900000
31
0.0
0
ARC
8
0
10
26.608024
20
22.600000
30
0.0
40
0.300000
50
0.000000
51
90.000000
0
LINE
8
0
10
26.908024
20
22.600000
30
0.0
11
26.908024
21
17.092893
31
0.0
0
ARC
8
0
10
27.208024
20
17.092893
30
0.0
40
0.300000
50
180.000000
51
225.000000
0
LINE
8
0
10
26.995892
20
16.880761
30
0.0
11
28.101841
21
15.774813
31
0.0
0
ARC
8
0
10
27.889709
20
15.562681
30
0.0
40
0.300000
50
330.000000
51
45.000000
0
LINE
8
0
10
28.149517
20
15.412681
30
0.0
11
27.795604
21
14.799686
31
0.0
0
ARC
8
0
10
28.142014
20
14.599686
30
0.0
40
0.400000
50
150.000000
51
330.000000
0
LINE
8
0
10
28.488424
20
14.399686
30
0.0
11
29.072535
21
15.411396
31
0.0
0
ARC
8
0
10
28.639522
20
15.661396
30
0.0
40
0.500000
50
330.000000
51
45.000000
0
LINE
8
0
10
28.993076
20
16.014949
30
0.0
11
27.795892
21
17.212132
31
0.0
0
ARC
8
0
10
28.008024
20
17.424264
30
0.0
40
0.300000
50
180.000000
51
225.000000
0
LINE
8
0
10
27.708024
20
17.424264
30
0.0
11
27.708024
21
22.600000
31
0.0
0
ARC
8
0
10
28.008024
20
22.600000
30
0.0
40
0.300000
50
90.000000
51
180.000000
0
LINE
8
0
10
28.008024
20
22.900000
30
0.0
11
28.708024
21
22.900000
31
0.0
0
ARC
8
0
10
28.708024
20
21.900000
30
0.0
40
1.000000
50
337.380135
51
90.000000
0
ARC
8
0
10
29.908024
20
21.400000
30
0.0
40
0.300000
50
157.380135
51
270.000000
0
LINE
8
0
10
29.908024
20
21.100000
30
0.0
11
31.208024
21
21.100000
31
0.0
0
ARC
8
0
10
31.208024
20
21.400000
30
0.0
40
0.300000
50
270.000000
51
0.000000
0
LINE
8
0
10
31.508024
20
21.400000
30
0.0
11
31.508024
21
24.700000
31
0.0
0
ARC
8
0
10
31.208024
20
24.700000
30
0.0
40
0.300000
50
0.000000
51
90.000000
0
LINE
8
0
10
31.208024
20
25.000000
30
0.0
11
25.508024
21
25.000000
31
0.0
0
ARC
8
0
10
25.508024
20
25.500000
30
0.0
40
0.500000
50
180.000000
51
270.000000
0
LINE
8
0
10
25.008024
20
25.500000
30
0.0
11
25.008024
21
25.800000
31
0.0
0
ARC
8
0
10
22.508024
20
25.800000
30
0.0
40
2.500000
50
0.000000
51
180.000000
0
LINE
8
0
10
20.008024
20
25.800000
30
0.0
11
20.008024
21
25.500000
31
0.0
0
ARC
8
0
10
19.508024
20
25.500000
30
0.0
40
0.500000
50
270.000000
51
0.000000
0
LINE
8
0
10
19.508024
20
25.000000
30
0.0
11
13.808024
21
25.000000
31
0.0
0
ARC
8
0
10
13.808024
20
24.700000
30
0.0
40
0.300000
50
90.000000
51
180.000000
0
LINE
8
0
10
13.508024
20
24.700000
30
0.0
11
13.508024
21
21.400000
31
0.0
0
ARC
8
0
10
13.808024
20
21.400000
30
0.0
40
0.300000
50
180.000000
51
270.000000
0
LINE
8
0
10
13.808024
20
21.100000
30
0.0
11
15.108024
21
21.100000
31
0.0
0
ARC
8
0
10
15.108024
20
21.400000
30
0.0
40
0.300000
50
270.000000
51
22.619865
0
ARC
8
0
10
16.308024
20
21.900000
30
0.0
40
1.000000
50
90.000000
51
202.619865
0
LINE
8
0
10
93.691977
20
22.900000
30
0.0
11
94.391977
21
22.900000
31
0.0
0
ARC
8
0
10
94.391977
20
22.600000
30
0.0
40
0.300000
50
0.000000
51
90.000000
0
LINE
8
0
10
94.691977
20
22.600000
30
0.0
11
94.691977
21
17.424264
31
0.0
0
ARC
8
0
10
94.391977
20
17.424264
30
0.0
40
0.300000
50
315.000000
51
0.000000
0
LINE
8
0
10
94.604110
20
17.212132
30
0.0
11
93.406926
21
16.014949
31
0.0
0
ARC
8
0
10
93.760480
20
15.661396
30
0.0
40
0.500000
50
135.000000
51
210.000000
0
LINE
8
0
10
93.327467
20
15.411396
30
0.0
11
93.911578
21
14.399686
31
0.0
0
ARC
8
0
10
94.257988
20
14.599686
30
0.0
40
0.400000
50
210.000000
51
30.000000
0
LINE
8
0
10
94.604398
20
14.799686
30
0.0
11
94.250485
21
15.412681
31
0.0
0
ARC
8
0
10
94.510293
20
15.562681
30
0.0
40
0.300000
50
135.000000
51
210.000000
0
LINE
8
0
10
94.298161
20
15.774813
30
0.0
11
95.404110
21
16.880761
31
0.0
0
ARC
8
0
10
95.191977
20
17.092893
30
0.0
40
0.300000
50
315.000000
51
0.000000
0
LINE
8
0
10
95.491977
20
17.092893
30
0.0
11
95.491977
21
22.600000
31
0.0
0
ARC
8
0
10
95.791977
20
22.600000
30
0.0
40
0.300000
50
90.000000
51
180.000000
0
LINE
8
0
10
95.791977
20
22.900000
30
0.0
11
103.991977
21
22.900000
31
0.0
0
ARC
8
0
10
103.991977
20
22.600000
30
0.0
40
0.300000
50
0.000000
51
90.000000
0
LINE
8
0
10
104.291977
20
22.600000
30
0.0
11
104.291977
21
17.092893
31
0.0
0
ARC
8
0
10
104.591977
20
17.092893
30
0.0
40
0.300000
50
180.000000
51
225.000000
0
LINE
8
0
10
104.379845
20
16.880761
30
0.0
11
105.485794
21
15.774813
31
0.0
0
ARC
8
0
10
105.273662
20
15.562681
30
0.0
40
0.300000
50
330.000000
51
45.000000
0
LINE
8
0
10
105.533470
20
15.412681
30
0.0
11
105.179557
21
14.799686
31
0.0
0
ARC
8
0
10
105.525967
20
14.599686
30
0.0
40
0.400000
50
150.000000
51
330.000000
0
LINE
8
0
10
105.872377
20
14.399686
30
0.0
11
106.456488
21
15.411396
31
0.0
0
ARC
8
0
10
106.023475
20
15.661396
30
0.0
40
0.500000
50
330.000000
51
45.000000
0
LINE
8
0
10
106.377029
20
16.014949
30
0.0
11
105.179845
21
17.212132
31
0.0
0
ARC
8
0
10
105.391977
20
17.424264
30
0.0
40
0.300000
50
180.000000
51
225.000000
0
LINE
8
0
10
105.091977
20
17.424264
30
0.0
11
105.091977
21
22.600000
31
0.0
0
ARC
8
0
10
105.391977
20
22.600000
30
0.0
40
0.300000
50
90.000000
51
180.000000
0
LINE
8
0
10
105.391977
20
22.900000
30
0.0
11
106.091977
21
22.900000
31
0.0
0
ARC
8
0
10
106.091977
20
21.900000
30
0.0
40
1.000000
50
337.380135
51
90.000000
0
ARC
8
0
10
107.291977
20
21.400000
30
0.0
40
0.300000
50
157.380135
51
270.000000
0
LINE
8
0
10
107.291977
20
21.100000
30
0.0
11
108.591977
21
21.100000
31
0.0
0
ARC
8
0
10
108.591977
20
21.400000
30
0.0
40
0.300000
50
270.000000
51
0.000000
0
LINE
8
0
10
108.891977
20
21.400000
30
0.0
11
108.891977
21
24.700000
31
0.0
0
ARC
8
0
10
108.591977
20
24.700000
30
0.0
40
0.300000
50
0.000000
51
90.000000
0
LINE
8
0
10
108.591977
20
25.000000
30
0.0
11
102.891977
21
25.000000
31
0.0
0
ARC
8
0
10
102.891977
20
25.500000
30
0.0
40
0.500000
50
180.000000
51
270.000000
0
LINE
8
0
10
102.391977
20
25.500000
30
0.0
11
102.391977
21
25.800000
31
0.0
0
ARC
8
0
10
99.891977
20
25.800000
30
0.0
40
2.500000
50
0.000000
51
180.000000
0
LINE
8
0
10
97.391977
20
25.800000
30
0.0
11
97.391977
21
25.500000
31
0.0
0
ARC
8
0
10
96.891977
20
25.500000
30
0.0
40
0.500000
50
270.000000
51
0.000000
0
LINE
8
0
10
96.891977
20
25.000000
30
0.0
11
91.191977
21
25.000000
31
0.0
0
ARC
8
0
10
91.191977
20
24.700000
30
0.0
40
0.300000
50
90.000000
51
180.000000
0
LINE
8
0
10
90.891977
20
24.700000
30
0.0
11
90.891977
21
21.400000
31
0.0
0
ARC
8
0
10
91.191977
20
21.400000
30
0.0
40
0.300000
50
180.000000
51
270.000000
0
LINE
8
0
10
91.191977
20
21.100000
30
0.0
11
92.491977
21
21.100000
31
0.0
0
ARC
8
0
10
92.491977
20
21.400000
30
0.0
40
0.300000
50
270.000000
51
22.619865
0
ARC
8
0
10
93.691977
20
21.900000
30
0.0
40
1.000000
50
90.000000
51
202.619865
0
LINE
8
0
10
43.503808
20
11.000000
30
0.0
11
43.503808
21
8.400000
31
0.0
0
ARC
8
0
10
43.203808
20
8.400000
30
0.0
40
0.300000
50
270.000000
51
0.000000
0
LINE
8
0
10
43.203808
20
8.100000
30
0.0
11
42.003808
21
8.100000
31
0.0
0
ARC
8
0
10
42.003808
20
8.400000
30
0.0
40
0.300000
50
180.000000
51
270.000000
0
LINE
8
0
10
41.703808
20
8.400000
30
0.0
11
41.703808
21
19.598761
31
0.0
0
ARC
8
0
10
42.203808
20
19.598761
30
0.0
40
0.500000
50
104.931417
51
180.000000
0
LINE
8
0
10
42.074977
20
20.081879
30
0.0
11
42.832639
21
20.283922
31
0.0
0
ARC
8
0
10
42.703808
20
20.767040
30
0.0
40
0.500000
50
284.931417
51
0.000000
0
LINE
8
0
10
43.203808
20
20.767040
30
0.0
11
43.203808
21
22.700000
31
0.0
0
ARC
8
0
10
42.703808
20
22.700000
30
0.0
40
0.500000
50
0.000000
51
90.000000
0
LINE
8
0
10
42.703808
20
23.200000
30
0.0
11
35.648711
21
23.200000
31
0.0
0
ARC
8
0
10
35.648711
20
23.500000
30
0.0
40
0.300000
50
213.748989
51
270.000000
0
ARC
8
0
10
34.900380
20
23.000000
30
0.0
40
0.600000
50
33.748989
51
236.251011
0
ARC
8
0
10
34.400380
20
22.251668
30
0.0
40
0.300000
50
0.000000
51
56.251011
0
LINE
8
0
10
34.700380
20
22.251668
30
0.0
11
34.700380
21
18.910073
31
0.0
0
ARC
8
0
10
34.400380
20
18.910073
30
0.0
40
0.300000
50
291.720848
51
0.000000
0
LINE
8
0
10
34.511405
20
18.631373
30
0.0
11
34.247115
21
18.526088
31
0.0
0
ARC
8
0
10
34.358140
20
18.247388
30
0.0
40
0.300000
50
111.720848
51
200.000000
0
LINE
8
0
10
34.076232
20
18.144782
30
0.0
11
35.073361
21
15.405194
31
0.0
0
ARC
8
0
10
34.509557
20
15.199987
30
0.0
40
0.599987
50
200.077726
51
20.000000
0
LINE
8
0
10
33.946032
20
14.994014
30
0.0
11
32.712135
21
18.369862
31
0.0
0
ARC
8
0
10
33.463518
20
18.644498
30
0.0
40
0.800000
50
111.720848
51
200.077726
0
LINE
8
0
10
33.167450
20
19.387696
30
0.0
11
33.311405
21
19.445044
31
0.0
0
ARC
8
0
10
33.200380
20
19.723743
30
0.0
40
0.300000
50
291.720848
51
0.000000
0
LINE
8
0
10
33.500380
20
19.723743
30
0.0
11
33.500380
21
21.875735
31
0.0
0
ARC
8
0
10
33.200380
20
21.875735
30
0.0
40
0.300000
50
0.000000
51
45.000000
0
LINE
8
0
10
33.412512
20
22.087867
30
0.0
11
32.988248
21
22.512132
31
0.0
0
ARC
8
0
10
32.776116
20
22.300000
30
0.0
40
0.300000
50
45.000000
51
90.000000
0
LINE
8
0
10
32.776116
20
22.600000
30
0.0
11
32.103808
21
22.600000
31
0.0
0
ARC
8
0
10
32.103808
20
22.900000
30
0.0
40
0.300000
50
180.000000
51
270.000000
0
LINE
8
0
10
31.803808
20
22.900000
30
0.0
11
31.803808
21
24.700000
31
0.0
0
ARC
8
0
10
32.103808
20
24.700000
30
0.0
40
0.300000
50
90.000000
51
180.000000
0
LINE
8
0
10
32.103808
20
25.000000
30
0.0
11
44.003808
21
25.000000
31
0.0
0
ARC
8
0
10
44.003808
20
24.000000
30
0.0
40
1.000000
50
0.000000
51
90.000000
0
LINE
8
0
10
45.003808
20
24.000000
30
0.0
11
45.003808
21
19.614622
31
0.0
0
ARC
8
0
10
44.203808
20
19.614622
30
0.0
40
0.800000
50
284.931417
51
0.000000
0
LINE
8
0
10
44.409938
20
18.841634
30
0.0
11
43.726509
21
18.659386
31
0.0
0
ARC
8
0
10
43.803808
20
18.369516
30
0.0
40
0.300000
50
104.931417
51
180.000000
0
LINE
8
0
10
43.503808
20
18.369516
30
0.0
11
43.503808
21
13.800000
31
0.0
0
ARC
8
0
10
44.003808
20
13.800000
30
0.0
40
0.500000
50
180.000000
51
270.000000
0
LINE
8
0
10
44.003808
20
13.300000
30
0.0
11
78.396193
21
13.300000
31
0.0
0
ARC
8
0
10
78.396193
20
13.800000
30
0.0
40
0.500000
50
270.000000
51
0.000000
0
LINE
8
0
10
78.896193
20
13.800000
30
0.0
11
78.896193
21
18.369516
31
0.0
0
ARC
8
0
10
78.596193
20
18.369516
30
0.0
40
0.300000
50
0.000000
51
75.068583
0
LINE
8
0
10
78.673492
20
18.659386
30
0.0
11
77.990063
21
18.841634
31
0.0
0
ARC
8
0
10
78.196193
20
19.614622
30
0.0
40
0.800000
50
180.000000
51
255.068583
0
LINE
8
0
10
77.396193
20
19.614622
30
0.0
11
77.396193
21
24.000000
31
0.0
0
ARC
8
0
10
78.396193
20
24.000000
30
0.0
40
1.000000
50
90.000000
51
180.000000
0
LINE
8
0
10
78.396193
20
25.000000
30
0.0
11
90.296193
21
25.000000
31
0.0
0
ARC
8
0
10
90.296193
20
24.700000
30
0.0
40
0.300000
50
0.000000
51
90.000000
0
LINE
8
0
10
90.596193
20
24.700000
30
0.0
11
90.596193
21
22.900000
31
0.0
0
ARC
8
0
10
90.296193
20
22.900000
30
0.0
40
0.300000
50
270.000000
51
0.000000
0
LINE
8
0
10
90.296193
20
22.600000
30
0.0
11
89.623886
21
22.600000
31
0.0
0
ARC
8
0
10
89.623886
20
22.300000
30
0.0
40
0.300000
50
90.000000
51
135.000000
0
LINE
8
0
10
89.411754
20
22.512132
30
0.0
11
88.987490
21
22.087867
31
0.0
0
ARC
8
0
10
89.199622
20
21.875735
30
0.0
40
0.300000
50
135.000000
51
180.000000
0
LINE
8
0
10
88.899622
20
21.875735
30
0.0
11
88.899622
21
19.723743
31
0.0
0
ARC
8
0
10
89.199622
20
19.723743
30
0.0
40
0.300000
50
180.000000
51
248.279152
0
LINE
8
0
10
89.088596
20
19.445044
30
0.0
11
89.232552
21
19.387696
31
0.0
0
ARC
8
0
10
88.936484
20
18.644498
30
0.0
40
0.800000
50
339.922274
51
68.279152
0
LINE
8
0
10
89.687866
20
18.369862
30
0.0
11
88.453969
21
14.994014
31
0.0
0
ARC
8
0
10
87.890444
20
15.199987
30
0.0
40
0.599987
50
160.000000
51
339.922274
0
LINE
8
0
10
87.326641
20
15.405194
30
0.0
11
88.323769
21
18.144782
31
0.0
0
ARC
8
0
10
88.041862
20
18.247388
30
0.0
40
0.300000
50
340.000000
51
68.279152
0
LINE
8
0
10
88.152887
20
18.526088
30
0.0
11
87.888596
21
18.631373
31
0.0
0
ARC
8
0
10
87.999622
20
18.910073
30
0.0
40
0.300000
50
180.000000
51
248.279152
0
LINE
8
0
10
87.699622
20
18.910073
30
0.0
11
87.699622
21
22.251668
31
0.0
0
ARC
8
0
10
87.999622
20
22.251668
30
0.0
40
0.300000
50
123.748989
51
180.000000
0
ARC
8
0
10
87.499622
20
23.000000
30
0.0
40
0.600000
50
303.748989
51
146.251011
0
ARC
8
0
10
86.751290
20
23.500000
30
0.0
40
0.300000
50
270.000000
51
326.251011
0
LINE
8
0
10
86.751290
20
23.200000
30
0.0
11
79.696193
21
23.200000
31
0.0
0
ARC
8
0
10
79.696193
20
22.700000
30
0.0
40
0.500000
50
90.000000
51
180.000000
0
LINE
8
0
10
79.196193
20
22.700000
30
0.0
11
79.196193
21
20.767040
31
0.0
0
ARC
8
0
10
79.696193
20
20.767040
30
0.0
40
0.500000
50
180.000000
51
255.068583
0
LINE
8
0
10
79.567362
20
20.283922
30
0.0
11
80.325025
21
20.081879
31
0.0
0
ARC
8
0
10
80.196193
20
19.598761
30
0.0
40
0.500000
50
0.000000
51
75.068583
0
LINE
8
0
10
80.696193
20
19.598761
30
0.0
11
80.696193
21
8.400000
31
0.0
0
ARC
8
0
10
80.396193
20
8.400000
30
0.0
40
0.300000
50
270.000000
51
0.000000
0
LINE
8
0
10
80.396193
20
8.100000
30
0.0
11
79.196193
21
8.100000
31
0.0
0
ARC
8
0
10
79.196193
20
8.400000
30
0.0
40
0.300000
50
180.000000
51
270.000000
0
LINE
8
0
10
78.896193
20
8.400000
30
0.0
11
78.896193
21
11.000000
31
0.0
0
ARC
8
0
10
78.396193
20
11.000000
30
0.0
40
0.500000
50
0.000000
51
90.000000
0
LINE
8
0
10
78.396193
20
11.500000
30
0.0
11
62.502607
21
11.500000
31
0.0
0
ARC
8
0
10
62.502607
20
11.000000
30
0.0
40
0.500000
50
90.000000
51
180.000000
0
LINE
8
0
10
62.002607
20
11.000000
30
0.0
11
62.002607
21
8.400000
31
0.0
0
ARC
8
0
10
61.702607
20
8.400000
30
0.0
40
0.300000
50
270.000000
51
0.000000
0
LINE
8
0
10
61.702607
20
8.100000
30
0.0
11
60.702607
21
8.100000
31
0.0
0
ARC
8
0
10
60.702607
20
8.400000
30
0.0
40
0.300000
50
180.000000
51
270.000000
0
LINE
8
0
10
60.402607
20
8.400000
30
0.0
11
60.402607
21
11.000000
31
0.0
0
ARC
8
0
10
59.902607
20
11.000000
30
0.0
40
0.500000
50
0.000000
51
90.000000
0
LINE
8
0
10
59.902607
20
11.500000
30
0.0
11
44.003808
21
11.500000
31
0.0
0
ARC
8
0
10
44.003808
20
11.000000
30
0.0
40
0.500000
50
90.000000
51
180.000000
0
ATTDEF
8
0
10
0.000000
20
0.000000
30
0.0
40
3.5
1

3

2
GLASS_MIN:0.000000
70
0
0
ATTDEF
8
0
10
0.000000
20
0.000000
30
0.0
40
3.5
1

3

2
GLASS_MAX:0.000000
70
0
0
ATTDEF
8
0
10
0.000000
20
0.000000
30
0.0
40
3.5
1

3

2
BL01:6500.000000,,1
70
0
0
ATTDEF
8
0
10
0.000000
20
0.000000
30
0.0
40
3.5
1

3

2
HW_START
70
0
0
ATTDEF
8
0
10
122.400000
20
28.300000
30
0.0
40
3.5
1

3

2
HW_END
70
0
0
ATTDEF
8
0
10
0.000000
20
0.000000
30
0.0
40
3.5
1

3

2
FP_LCS_ORIG
70
0
0
ATTDEF
8
0
10
10.000000
20
0.000000
30
0.0
40
3.5
1

3

2
FP_LCS_HOT
70
0
0
ATTDEF
8
0
10
0.000000
20
10.000000
30
0.0
40
3.5
1

3

2
FP_LCS_INTERN
70
0
0
ATTDEF
8
0
10
0.000000
20
0.000000
30
0.0
40
3.5
1

3

2
TDEV3:0.000000
70
0
0
ATTDEF
8
0
10
0.000000
20
0.000000
30
0.0
40
3.5
1

3

2
TDEV4:0.000000
70
0
0
ATTDEF
8
0
10
0.000000
20
0.000000
30
0.0
40
3.5
1

3

2
TDEV5:0.000000
70
0
0
ATTDEF
8
0
10
0.000000
20
0.000000
30
0.0
40
3.5
1

3

2
PANE_WIDTH:0
70
0
0
ATTDEF
8
0
10
0.000000
20
0.000000
30
0.0
40
3.5
1

3

2
MIN_VETRO:0
70
0
0
ATTDEF
8
0
10
0.000000
20
0.000000
30
0.0
40
3.5
1

3

2
MAX_VETRO:0
70
0
0
ATTDEF
8
0
10
0.000000
20
0.000000
30
0.0
40
3.5
1

3

2
JX:0
70
0
0
ATTDEF
8
0
10
0.000000
20
0.000000
30
0.0
40
3.5
1

3

2
WX:0
70
0
0
ATTDEF
8
0
10
0.000000
20
0.000000
30
0.0
40
3.5
1

3

2
JY:0
70
0
0
ATTDEF
8
0
10
0.000000
20
0.000000
30
0.0
40
3.5
1

3

2
WY:0
70
0
0
ATTDEF
8
0
10
0.000000
20
0.000000
30
0.0
40
3.5
1

3

2
DESC:U10400 - N10630 - N10630 - V31209
70
0
0
ATTDEF
8
0
10
0.000000
20
0.000000
30
0.0
40
3.5
1

3

2
DENS:0.000000
70
0
0
ATTDEF
8
0
10
0.000000
20
0.000000
30
0.0
40
3.5
1

3

2
TDEV:0.000000
70
0
0
ATTDEF
8
0
10
0.000000
20
0.000000
30
0.0
40
3.5
1

3

2
TDEV2:0.000000
70
0
0
ATTDEF
8
0
10
0.000000
20
0.000000
30
0.0
40
3.5
1

3

2
TDEV3:0.000000
70
0
0
ATTDEF
8
0
10
0.000000
20
0.000000
30
0.0
40
3.5
1

3

2
TDEV4:0.000000
70
0
0
ATTDEF
8
0
10
0.000000
20
0.000000
30
0.0
40
3.5
1

3

2
TDEV5:0.000000
70
0
0
ATTDEF
8
0
10
0.000000
20
0.000000
30
0.0
40
3.5
1

3

2
PANE_WIDTH:0
70
0
0
ATTDEF
8
0
10
0.000000
20
0.000000
30
0.0
40
3.5
1

3

2
MIN_VETRO:0
70
0
0
ATTDEF
8
0
10
0.000000
20
0.000000
30
0.0
40
3.5
1

3

2
MAX_VETRO:0
70
0
0
ATTDEF
8
0
10
0.000000
20
0.000000
30
0.0
40
3.5
1

3

2
JX:0
70
0
0
ATTDEF
8
0
10
0.000000
20
0.000000
30
0.0
40
3.5
1

3

2
WX:0
70
0
0
ATTDEF
8
0
10
0.000000
20
0.000000
30
0.0
40
3.5
1

3

2
JY:0
70
0
0
ATTDEF
8
0
10
0.000000
20
0.000000
30
0.0
40
3.5
1

3

2
WY:0
70
0
0
ENDSEC
0
EOF
