0
SECTION
2
ENTITIES
0
LINE
8
0
10
102.799889
20
23.005363
30
0.0
11
103.499889
21
23.005363
31
0.0
0
ARC
8
0
10
103.499889
20
22.705363
30
0.0
40
0.300000
50
360.000000
51
90.000000
0
LINE
8
0
10
103.799889
20
22.705363
30
0.0
11
103.799889
21
17.529627
31
0.0
0
ARC
8
0
10
103.499889
20
17.529627
30
0.0
40
0.300000
50
315.000000
51
360.000000
0
LINE
8
0
10
103.712022
20
17.317495
30
0.0
11
102.514838
21
16.120312
31
0.0
0
ARC
8
0
10
102.868392
20
15.766759
30
0.0
40
0.500000
50
135.000000
51
210.000000
0
LINE
8
0
10
102.435379
20
15.516759
30
0.0
11
103.019490
21
14.505049
31
0.0
0
ARC
8
0
10
103.365900
20
14.705049
30
0.0
40
0.400000
50
210.000000
51
30.000000
0
LINE
8
0
10
103.712310
20
14.905049
30
0.0
11
103.358397
21
15.518044
31
0.0
0
ARC
8
0
10
103.618205
20
15.668044
30
0.0
40
0.300000
50
135.000000
51
210.000000
0
LINE
8
0
10
103.406073
20
15.880176
30
0.0
11
104.512022
21
16.986124
31
0.0
0
ARC
8
0
10
104.299889
20
17.198256
30
0.0
40
0.300000
50
315.000000
51
360.000000
0
LINE
8
0
10
104.599889
20
17.198256
30
0.0
11
104.599889
21
22.705363
31
0.0
0
ARC
8
0
10
104.899889
20
22.705363
30
0.0
40
0.300000
50
90.000000
51
180.000000
0
LINE
8
0
10
104.899889
20
23.005363
30
0.0
11
113.099889
21
23.005363
31
0.0
0
ARC
8
0
10
113.099889
20
22.705363
30
0.0
40
0.300000
50
360.000000
51
90.000000
0
LINE
8
0
10
113.399889
20
22.705363
30
0.0
11
113.399889
21
17.198256
31
0.0
0
ARC
8
0
10
113.699889
20
17.198256
30
0.0
40
0.300000
50
180.000000
51
225.000000
0
LINE
8
0
10
113.487757
20
16.986124
30
0.0
11
114.593706
21
15.880176
31
0.0
0
ARC
8
0
10
114.381574
20
15.668044
30
0.0
40
0.300000
50
330.000000
51
45.000000
0
LINE
8
0
10
114.641382
20
15.518044
30
0.0
11
114.287469
21
14.905049
31
0.0
0
ARC
8
0
10
114.633879
20
14.705049
30
0.0
40
0.400000
50
150.000000
51
330.000000
0
LINE
8
0
10
114.980289
20
14.505049
30
0.0
11
115.564400
21
15.516759
31
0.0
0
ARC
8
0
10
115.131387
20
15.766759
30
0.0
40
0.500000
50
330.000000
51
45.000000
0
LINE
8
0
10
115.484941
20
16.120312
30
0.0
11
114.287757
21
17.317495
31
0.0
0
ARC
8
0
10
114.499889
20
17.529627
30
0.0
40
0.300000
50
180.000000
51
225.000000
0
LINE
8
0
10
114.199889
20
17.529627
30
0.0
11
114.199889
21
22.705363
31
0.0
0
ARC
8
0
10
114.499889
20
22.705363
30
0.0
40
0.300000
50
90.000000
51
180.000000
0
LINE
8
0
10
114.499889
20
23.005363
30
0.0
11
115.199889
21
23.005363
31
0.0
0
ARC
8
0
10
115.199889
20
22.005363
30
0.0
40
1.000000
50
337.380135
51
90.000000
0
ARC
8
0
10
116.399889
20
21.505363
30
0.0
40
0.300000
50
157.380135
51
270.000000
0
LINE
8
0
10
116.399889
20
21.205363
30
0.0
11
117.699889
21
21.205363
31
0.0
0
ARC
8
0
10
117.699889
20
21.505363
30
0.0
40
0.300000
50
270.000000
51
360.000000
0
LINE
8
0
10
117.999889
20
21.505363
30
0.0
11
117.999889
21
24.805363
31
0.0
0
ARC
8
0
10
117.699889
20
24.805363
30
0.0
40
0.300000
50
360.000000
51
90.000000
0
LINE
8
0
10
117.699889
20
25.105363
30
0.0
11
111.999889
21
25.105363
31
0.0
0
ARC
8
0
10
111.999889
20
25.605363
30
0.0
40
0.500000
50
180.000000
51
270.000000
0
LINE
8
0
10
111.499889
20
25.605363
30
0.0
11
111.499889
21
25.905363
31
0.0
0
ARC
8
0
10
108.999889
20
25.905363
30
0.0
40
2.500000
50
360.000000
51
180.000000
0
LINE
8
0
10
106.499889
20
25.905363
30
0.0
11
106.499889
21
25.605363
31
0.0
0
ARC
8
0
10
105.999889
20
25.605363
30
0.0
40
0.500000
50
270.000000
51
360.000000
0
LINE
8
0
10
105.999889
20
25.105363
30
0.0
11
100.299889
21
25.105363
31
0.0
0
ARC
8
0
10
100.299889
20
24.805363
30
0.0
40
0.300000
50
90.000000
51
180.000000
0
LINE
8
0
10
99.999889
20
24.805363
30
0.0
11
99.999889
21
21.505363
31
0.0
0
ARC
8
0
10
100.299889
20
21.505363
30
0.0
40
0.300000
50
180.000000
51
270.000000
0
LINE
8
0
10
100.299889
20
21.205363
30
0.0
11
101.599889
21
21.205363
31
0.0
0
ARC
8
0
10
101.599889
20
21.505363
30
0.0
40
0.300000
50
270.000000
51
22.619865
0
ARC
8
0
10
102.799889
20
22.005363
30
0.0
40
1.000000
50
90.000000
51
202.619865
0
ARC
8
0
10
99.296461
20
24.805363
30
0.0
40
0.300000
50
360.000000
51
90.000000
0
LINE
8
0
10
99.296461
20
25.105363
30
0.0
11
87.396461
21
25.105363
31
0.0
0
ARC
8
0
10
87.396461
20
24.105363
30
0.0
40
1.000000
50
90.000000
51
180.000000
0
LINE
8
0
10
86.396461
20
24.105363
30
0.0
11
86.396461
21
19.719985
31
0.0
0
ARC
8
0
10
87.196461
20
19.719985
30
0.0
40
0.800000
50
180.000000
51
255.068583
0
LINE
8
0
10
86.990331
20
18.946997
30
0.0
11
87.673760
21
18.764750
31
0.0
0
ARC
8
0
10
87.596461
20
18.474879
30
0.0
40
0.300000
50
360.000000
51
75.068583
0
LINE
8
0
10
87.896461
20
18.474879
30
0.0
11
87.896461
21
13.905363
31
0.0
0
ARC
8
0
10
87.396461
20
13.905363
30
0.0
40
0.500000
50
270.000000
51
360.000000
0
LINE
8
0
10
87.396461
20
13.405363
30
0.0
11
62.804076
21
13.405363
31
0.0
0
LINE
8
0
10
62.804076
20
13.405363
30
0.0
11
62.804076
21
11.605363
31
0.0
0
LINE
8
0
10
62.804076
20
11.605363
30
0.0
11
68.897662
21
11.605363
31
0.0
0
ARC
8
0
10
68.897662
20
11.105363
30
0.0
40
0.500000
50
360.000000
51
90.000000
0
LINE
8
0
10
69.397662
20
11.105363
30
0.0
11
69.397662
21
8.505363
31
0.0
0
ARC
8
0
10
69.697662
20
8.505363
30
0.0
40
0.300000
50
180.000000
51
270.000000
0
LINE
8
0
10
69.697662
20
8.205363
30
0.0
11
70.697662
21
8.205363
31
0.0
0
ARC
8
0
10
70.697662
20
8.505363
30
0.0
40
0.300000
50
270.000000
51
360.000000
0
LINE
8
0
10
70.997662
20
8.505363
30
0.0
11
70.997662
21
11.105363
31
0.0
0
ARC
8
0
10
71.497662
20
11.105363
30
0.0
40
0.500000
50
90.000000
51
180.000000
0
LINE
8
0
10
71.497662
20
11.605363
30
0.0
11
87.396461
21
11.605363
31
0.0
0
ARC
8
0
10
87.396461
20
11.105363
30
0.0
40
0.500000
50
360.000000
51
90.000000
0
LINE
8
0
10
87.896461
20
11.105363
30
0.0
11
87.896461
21
8.505363
31
0.0
0
ARC
8
0
10
88.196461
20
8.505363
30
0.0
40
0.300000
50
180.000000
51
270.000000
0
LINE
8
0
10
88.196461
20
8.205363
30
0.0
11
89.396461
21
8.205363
31
0.0
0
ARC
8
0
10
89.396461
20
8.505363
30
0.0
40
0.300000
50
270.000000
51
360.000000
0
LINE
8
0
10
89.696461
20
8.505363
30
0.0
11
89.696461
21
19.704124
31
0.0
0
ARC
8
0
10
89.196461
20
19.704124
30
0.0
40
0.500000
50
360.000000
51
75.068583
0
LINE
8
0
10
89.325292
20
20.187242
30
0.0
11
88.567630
21
20.389285
31
0.0
0
ARC
8
0
10
88.696461
20
20.872403
30
0.0
40
0.500000
50
180.000000
51
255.068583
0
LINE
8
0
10
88.196461
20
20.872403
30
0.0
11
88.196461
21
22.805363
31
0.0
0
ARC
8
0
10
88.696461
20
22.805363
30
0.0
40
0.500000
50
90.000000
51
180.000000
0
LINE
8
0
10
88.696461
20
23.305363
30
0.0
11
95.751558
21
23.305363
31
0.0
0
ARC
8
0
10
95.751558
20
23.605363
30
0.0
40
0.300000
50
270.000000
51
326.251011
0
ARC
8
0
10
96.499889
20
23.105363
30
0.0
40
0.600000
50
303.748989
51
146.251011
0
ARC
8
0
10
96.999889
20
22.357031
30
0.0
40
0.300000
50
123.748989
51
180.000000
0
LINE
8
0
10
96.699889
20
22.357031
30
0.0
11
96.699889
21
19.015436
31
0.0
0
ARC
8
0
10
96.999889
20
19.015436
30
0.0
40
0.300000
50
180.000000
51
248.279152
0
LINE
8
0
10
96.888864
20
18.736736
30
0.0
11
97.153155
21
18.631451
31
0.0
0
ARC
8
0
10
97.042129
20
18.352751
30
0.0
40
0.300000
50
340.000000
51
68.279152
0
LINE
8
0
10
97.324037
20
18.250145
30
0.0
11
96.326908
21
15.510558
31
0.0
0
ARC
8
0
10
96.890712
20
15.305350
30
0.0
40
0.599987
50
160.000000
51
339.922274
0
LINE
8
0
10
97.454237
20
15.099377
30
0.0
11
98.688134
21
18.475225
31
0.0
0
ARC
8
0
10
97.936751
20
18.749861
30
0.0
40
0.800000
50
339.922274
51
68.279152
0
LINE
8
0
10
98.232819
20
19.493059
30
0.0
11
98.088864
21
19.550407
31
0.0
0
ARC
8
0
10
98.199889
20
19.829106
30
0.0
40
0.300000
50
180.000000
51
248.279152
0
LINE
8
0
10
97.899889
20
19.829106
30
0.0
11
97.899889
21
21.981098
31
0.0
0
ARC
8
0
10
98.199889
20
21.981098
30
0.0
40
0.300000
50
135.000000
51
180.000000
0
LINE
8
0
10
97.987757
20
22.193231
30
0.0
11
98.412021
21
22.617495
31
0.0
0
ARC
8
0
10
98.624153
20
22.405363
30
0.0
40
0.300000
50
90.000000
51
135.000000
0
LINE
8
0
10
98.624153
20
22.705363
30
0.0
11
99.296461
21
22.705363
31
0.0
0
ARC
8
0
10
99.296461
20
23.005363
30
0.0
40
0.300000
50
270.000000
51
360.000000
0
LINE
8
0
10
99.596461
20
23.005363
30
0.0
11
99.596461
21
24.805363
31
0.0
0
ARC
8
0
10
102.110182
20
20.800000
30
0.0
40
0.300000
50
2.000000
51
90.000000
0
LINE
8
0
10
102.409999
20
20.810470
30
0.0
11
102.556423
21
16.617450
31
0.0
0
ARC
8
0
10
102.056727
20
16.600000
30
0.0
40
0.500000
50
270.000000
51
2.000000
0
LINE
8
0
10
102.056727
20
16.100000
30
0.0
11
101.840518
21
16.100000
31
0.0
0
ARC
8
0
10
101.840518
20
15.600000
30
0.0
40
0.500000
50
90.000000
51
210.000000
0
LINE
8
0
10
101.407505
20
15.350000
30
0.0
11
102.562206
21
13.350000
31
0.0
0
ARC
8
0
10
102.995218
20
13.600000
30
0.0
40
0.500000
50
210.000000
51
270.000000
0
LINE
8
0
10
102.995218
20
13.100000
30
0.0
11
108.391866
21
13.100000
31
0.0
0
LINE
8
0
10
108.391866
20
13.100000
30
0.0
11
108.691866
21
12.800000
31
0.0
0
LINE
8
0
10
108.691866
20
12.800000
30
0.0
11
108.991866
21
13.100000
31
0.0
0
LINE
8
0
10
108.991866
20
13.100000
30
0.0
11
114.404559
21
13.100000
31
0.0
0
ARC
8
0
10
114.404559
20
13.600000
30
0.0
40
0.500000
50
270.000000
51
330.000000
0
LINE
8
0
10
114.837572
20
13.350000
30
0.0
11
115.992272
21
15.350000
31
0.0
0
ARC
8
0
10
115.559259
20
15.600000
30
0.0
40
0.500000
50
330.000000
51
90.000000
0
LINE
8
0
10
115.559259
20
16.100000
30
0.0
11
115.343050
21
16.100000
31
0.0
0
ARC
8
0
10
115.343050
20
16.600000
30
0.0
40
0.500000
50
178.000000
51
270.000000
0
LINE
8
0
10
114.843355
20
16.617450
30
0.0
11
114.989778
21
20.810470
31
0.0
0
ARC
8
0
10
115.289595
20
20.800000
30
0.0
40
0.300000
50
90.000000
51
178.000000
0
LINE
8
0
10
115.289595
20
21.100000
30
0.0
11
117.699889
21
21.100000
31
0.0
0
ARC
8
0
10
117.699889
20
21.400000
30
0.0
40
0.300000
50
270.000000
51
360.000000
0
LINE
8
0
10
117.999889
20
21.400000
30
0.0
11
117.999889
21
24.700000
31
0.0
0
ARC
8
0
10
118.299889
20
24.700000
30
0.0
40
0.300000
50
90.000000
51
180.000000
0
LINE
8
0
10
118.299889
20
25.000000
30
0.0
11
130.199889
21
25.000000
31
0.0
0
ARC
8
0
10
130.199889
20
24.000000
30
0.0
40
1.000000
50
360.000000
51
90.000000
0
LINE
8
0
10
131.199889
20
24.000000
30
0.0
11
131.199889
21
0.300000
31
0.0
0
ARC
8
0
10
130.899889
20
0.300000
30
0.0
40
0.300000
50
270.000000
51
360.000000
0
LINE
8
0
10
130.899889
20
0.000000
30
0.0
11
129.899889
21
0.000000
31
0.0
0
ARC
8
0
10
129.899889
20
0.300000
30
0.0
40
0.300000
50
180.000000
51
270.000000
0
LINE
8
0
10
129.599889
20
0.300000
30
0.0
11
129.599889
21
0.700000
31
0.0
0
ARC
8
0
10
129.299889
20
0.700000
30
0.0
40
0.300000
50
360.000000
51
90.000000
0
LINE
8
0
10
129.299889
20
1.000000
30
0.0
11
113.899889
21
1.000000
31
0.0
0
ARC
8
0
10
113.899889
20
0.700000
30
0.0
40
0.300000
50
90.000000
51
180.000000
0
LINE
8
0
10
113.599889
20
0.700000
30
0.0
11
113.599889
21
0.300000
31
0.0
0
ARC
8
0
10
113.299889
20
0.300000
30
0.0
40
0.300000
50
270.000000
51
360.000000
0
LINE
8
0
10
113.299889
20
0.000000
30
0.0
11
112.299889
21
0.000000
31
0.0
0
ARC
8
0
10
112.299889
20
0.300000
30
0.0
40
0.300000
50
180.000000
51
270.000000
0
LINE
8
0
10
111.999889
20
0.300000
30
0.0
11
111.999889
21
0.700000
31
0.0
0
ARC
8
0
10
111.699889
20
0.700000
30
0.0
40
0.300000
50
360.000000
51
90.000000
0
LINE
8
0
10
111.699889
20
1.000000
30
0.0
11
99.299889
21
1.000000
31
0.0
0
ARC
8
0
10
99.299889
20
0.700000
30
0.0
40
0.300000
50
90.000000
51
180.000000
0
LINE
8
0
10
98.999889
20
0.700000
30
0.0
11
98.999889
21
0.300000
31
0.0
0
ARC
8
0
10
98.699889
20
0.300000
30
0.0
40
0.300000
50
270.000000
51
360.000000
0
LINE
8
0
10
98.699889
20
0.000000
30
0.0
11
97.231948
21
0.000000
31
0.0
0
ARC
8
0
10
97.231948
20
0.300000
30
0.0
40
0.300000
50
250.221829
51
270.000000
0
LINE
8
0
10
97.130434
20
0.017697
30
0.0
11
95.828572
21
0.485836
31
0.0
0
ARC
8
0
10
95.749053
20
0.264699
30
0.0
40
0.235000
50
70.221829
51
156.000000
0
ARC
8
0
10
95.313118
20
0.441113
30
0.0
40
0.235000
50
270.000000
51
336.000000
0
LINE
8
0
10
95.314674
20
0.206118
30
0.0
11
93.735746
21
0.195661
31
0.0
0
ARC
8
0
10
93.733759
20
0.495654
30
0.0
40
0.300000
50
155.379459
51
270.000000
0
LINE
8
0
10
93.461033
20
0.620636
30
0.0
11
94.409683
21
2.726151
31
0.0
0
ARC
8
0
10
94.683203
20
2.602916
30
0.0
40
0.300000
50
115.379459
51
155.745828
0
LINE
8
0
10
94.554619
20
2.873963
30
0.0
11
95.062042
21
3.114682
31
0.0
0
ARC
8
0
10
95.147764
20
2.933984
30
0.0
40
0.200000
50
355.379459
51
115.379459
0
LINE
8
0
10
95.347114
20
2.917873
30
0.0
11
95.337813
21
2.802778
31
0.0
0
ARC
8
0
10
95.636838
20
2.778611
30
0.0
40
0.300000
50
175.379459
51
235.379459
0
LINE
8
0
10
95.466396
20
2.531731
30
0.0
11
97.095153
21
1.407265
31
0.0
0
LINE
8
0
10
97.095153
20
1.407265
30
0.0
11
97.277862
21
1.325918
31
0.0
0
ARC
8
0
10
97.399864
20
1.600000
30
0.0
40
0.300009
50
246.004713
51
48.187329
0
ARC
8
0
10
97.799889
20
2.047204
30
0.0
40
0.300000
50
180.000000
51
228.187329
0
LINE
8
0
10
97.499889
20
2.047204
30
0.0
11
97.499889
21
5.799991
31
0.0
0
ARC
8
0
10
97.198540
20
5.798640
30
0.0
40
0.301352
50
360.000000
51
90.000000
0
LINE
8
0
10
97.199100
20
6.099991
30
0.0
11
97.152689
21
6.099991
31
0.0
0
ARC
8
0
10
97.152689
20
5.799991
30
0.0
40
0.300000
50
90.000000
51
120.000000
0
LINE
8
0
10
97.002689
20
6.059798
30
0.0
11
95.235702
21
5.039628
31
0.0
0
ARC
8
0
10
95.085702
20
5.299435
30
0.0
40
0.300000
50
270.000000
51
300.000000
0
LINE
8
0
10
95.085702
20
4.999435
30
0.0
11
94.721350
21
4.999435
31
0.0
0
ARC
8
0
10
94.721350
20
5.999435
30
0.0
40
1.000000
50
214.261170
51
270.000000
0
LINE
8
0
10
93.894870
20
5.436469
30
0.0
11
92.853354
21
6.965500
31
0.0
0
ARC
8
0
10
93.099100
20
7.137573
30
0.0
40
0.300000
50
180.000000
51
215.000010
0
LINE
8
0
10
92.799100
20
7.137573
30
0.0
11
92.799100
21
7.499995
31
0.0
0
ARC
8
0
10
93.099100
20
7.499995
30
0.0
40
0.300000
50
90.000000
51
180.000000
0
LINE
8
0
10
93.099100
20
7.799995
30
0.0
11
100.699913
21
7.799995
31
0.0
0
ARC
8
0
10
100.699913
20
8.099995
30
0.0
40
0.300000
50
270.000000
51
360.000000
0
LINE
8
0
10
100.999913
20
8.099995
30
0.0
11
100.999913
21
12.975585
31
0.0
0
ARC
8
0
10
100.699913
20
12.975585
30
0.0
40
0.300000
50
360.000000
51
30.000000
0
LINE
8
0
10
100.959721
20
13.125585
30
0.0
11
100.108467
21
14.600000
31
0.0
0
ARC
8
0
10
101.840518
20
15.600000
30
0.0
40
2.000000
50
122.643077
51
210.000000
0
ARC
8
0
10
100.599889
20
17.536709
30
0.0
40
0.300000
50
302.643077
51
360.000000
0
LINE
8
0
10
100.899889
20
17.536709
30
0.0
11
100.899889
21
19.300000
31
0.0
0
ARC
8
0
10
100.599889
20
19.300000
30
0.0
40
0.300000
50
360.000000
51
90.000000
0
LINE
8
0
10
100.599889
20
19.600000
30
0.0
11
98.199889
21
19.600000
31
0.0
0
ARC
8
0
10
98.199889
20
19.900000
30
0.0
40
0.300000
50
180.000000
51
270.000000
0
LINE
8
0
10
97.899889
20
19.900000
30
0.0
11
97.899889
21
21.775736
31
0.0
0
ARC
8
0
10
98.199889
20
21.775736
30
0.0
40
0.300000
50
135.000000
51
180.000000
0
LINE
8
0
10
97.987757
20
21.987868
30
0.0
11
98.212021
21
22.212132
31
0.0
0
ARC
8
0
10
98.424153
20
22.000000
30
0.0
40
0.300000
50
90.000000
51
135.000000
0
LINE
8
0
10
98.424153
20
22.300000
30
0.0
11
99.099889
21
22.300000
31
0.0
0
ARC
8
0
10
99.099889
20
22.000000
30
0.0
40
0.300000
50
360.000000
51
90.000000
0
LINE
8
0
10
99.399889
20
22.000000
30
0.0
11
99.399889
21
21.400000
31
0.0
0
ARC
8
0
10
99.699889
20
21.400000
30
0.0
40
0.300000
50
180.000000
51
270.000000
0
LINE
8
0
10
99.699889
20
21.100000
30
0.0
11
102.110182
21
21.100000
31
0.0
0
LINE
8
0
10
110.591923
20
10.411150
30
0.0
11
110.321633
21
10.280985
31
0.0
0
ARC
8
0
10
108.699889
20
9.499995
30
0.0
40
1.800000
50
25.714286
51
68.571429
0
LINE
8
0
10
109.357503
20
11.175567
30
0.0
11
109.467105
21
11.454829
31
0.0
0
ARC
8
0
10
108.699889
20
9.499995
30
0.0
40
2.100000
50
68.571429
51
111.428571
0
LINE
8
0
10
107.932673
20
11.454829
30
0.0
11
108.042275
21
11.175567
31
0.0
0
ARC
8
0
10
108.699889
20
9.499995
30
0.0
40
1.800000
50
111.428571
51
154.285714
0
LINE
8
0
10
107.078145
20
10.280985
30
0.0
11
106.807854
21
10.411150
31
0.0
0
ARC
8
0
10
108.699889
20
9.499995
30
0.0
40
2.100000
50
154.285714
51
197.142857
0
LINE
8
0
10
106.693186
20
8.881009
30
0.0
11
106.979858
21
8.969435
31
0.0
0
ARC
8
0
10
108.699889
20
9.499995
30
0.0
40
1.800000
50
197.142857
51
224.728071
0
ARC
8
0
10
107.207934
20
8.022135
30
0.0
40
0.300000
50
270.000000
51
44.728071
0
LINE
8
0
10
107.207934
20
7.722135
30
0.0
11
106.429441
21
7.722135
31
0.0
0
ARC
8
0
10
106.429441
20
8.722135
30
0.0
40
1.000000
50
198.911563
51
270.000000
0
ARC
8
0
10
108.699889
20
9.499995
30
0.0
40
3.400000
50
154.377876
51
198.911563
0
ARC
8
0
10
105.363726
20
11.100000
30
0.0
40
0.300000
50
334.377876
51
90.000000
0
LINE
8
0
10
105.363726
20
11.400000
30
0.0
11
102.939480
21
11.400000
31
0.0
0
ARC
8
0
10
102.939480
20
10.900000
30
0.0
40
0.500000
50
90.000000
51
180.000000
0
LINE
8
0
10
102.439480
20
10.900000
30
0.0
11
102.439480
21
7.299995
31
0.0
0
ARC
8
0
10
101.439480
20
7.299995
30
0.0
40
1.000000
50
270.000000
51
360.000000
0
LINE
8
0
10
101.439480
20
6.299995
30
0.0
11
99.299889
21
6.299995
31
0.0
0
ARC
8
0
10
99.299889
20
5.999995
30
0.0
40
0.300000
50
90.000000
51
180.000000
0
LINE
8
0
10
98.999889
20
5.999995
30
0.0
11
98.999889
21
2.800000
31
0.0
0
ARC
8
0
10
99.299889
20
2.800000
30
0.0
40
0.300000
50
180.000000
51
270.000000
0
LINE
8
0
10
99.299889
20
2.500000
30
0.0
11
129.399889
21
2.500000
31
0.0
0
ARC
8
0
10
129.399889
20
2.800000
30
0.0
40
0.300000
50
270.000000
51
360.000000
0
LINE
8
0
10
129.699889
20
2.800000
30
0.0
11
129.699889
21
23.200000
31
0.0
0
ARC
8
0
10
129.399889
20
23.200000
30
0.0
40
0.300000
50
360.000000
51
90.000000
0
LINE
8
0
10
129.399889
20
23.500000
30
0.0
11
119.799889
21
23.500000
31
0.0
0
ARC
8
0
10
119.799889
20
23.200000
30
0.0
40
0.300000
50
90.000000
51
180.000000
0
LINE
8
0
10
119.499889
20
23.200000
30
0.0
11
119.499889
21
20.100000
31
0.0
0
ARC
8
0
10
118.999889
20
20.100000
30
0.0
40
0.500000
50
270.000000
51
360.000000
0
LINE
8
0
10
118.999889
20
19.600000
30
0.0
11
116.799889
21
19.600000
31
0.0
0
ARC
8
0
10
116.799889
20
19.300000
30
0.0
40
0.300000
50
90.000000
51
180.000000
0
LINE
8
0
10
116.499889
20
19.300000
30
0.0
11
116.499889
21
17.536709
31
0.0
0
ARC
8
0
10
116.799889
20
17.536709
30
0.0
40
0.300000
50
180.000000
51
237.356923
0
ARC
8
0
10
115.559259
20
15.600000
30
0.0
40
2.000000
50
330.000000
51
57.356923
0
LINE
8
0
10
117.291310
20
14.600000
30
0.0
11
115.732464
21
11.900000
31
0.0
0
ARC
8
0
10
114.866439
20
12.400000
30
0.0
40
1.000000
50
270.000000
51
330.000000
0
LINE
8
0
10
114.866439
20
11.400000
30
0.0
11
112.036051
21
11.400000
31
0.0
0
ARC
8
0
10
112.036051
20
11.100000
30
0.0
40
0.300000
50
90.000000
51
205.622124
0
ARC
8
0
10
108.699889
20
9.499995
30
0.0
40
3.400000
50
341.088437
51
25.622124
0
ARC
8
0
10
110.970337
20
8.722135
30
0.0
40
1.000000
50
270.000000
51
341.088437
0
LINE
8
0
10
110.970337
20
7.722135
30
0.0
11
110.191844
21
7.722135
31
0.0
0
ARC
8
0
10
110.191844
20
8.022135
30
0.0
40
0.300000
50
135.271929
51
270.000000
0
ARC
8
0
10
108.699889
20
9.499995
30
0.0
40
1.800000
50
315.271929
51
342.857143
0
LINE
8
0
10
110.419920
20
8.969435
30
0.0
11
110.706592
21
8.881009
31
0.0
0
ARC
8
0
10
108.699889
20
9.499995
30
0.0
40
2.100000
50
342.857143
51
25.714286
0
LINE
8
0
10
33.752478
20
0.694636
30
0.0
11
39.444720
21
0.694636
31
0.0
0
ARC
8
0
10
39.444720
20
1.694636
30
0.0
40
1.000000
50
270.000000
51
329.999673
0
LINE
8
0
10
40.310742
20
1.194631
30
0.0
11
41.234510
21
2.794623
31
0.0
0
ARC
8
0
10
39.502465
20
3.794633
30
0.0
40
2.000000
50
329.999673
51
30.000158
0
LINE
8
0
10
41.234513
20
4.794638
30
0.0
11
40.310746
21
6.394640
31
0.0
0
ARC
8
0
10
39.444722
20
5.894638
30
0.0
40
1.000000
50
30.000158
51
90.000000
0
LINE
8
0
10
39.444722
20
6.894638
30
0.0
11
33.752478
21
6.894638
31
0.0
0
ARC
8
0
10
33.752478
20
5.894638
30
0.0
40
1.000000
50
90.000000
51
180.000000
0
LINE
8
0
10
32.752478
20
5.894638
30
0.0
11
32.752478
21
1.694636
31
0.0
0
ARC
8
0
10
33.752478
20
1.694636
30
0.0
40
1.000000
50
180.000000
51
270.000000
0
ARC
8
0
10
25.002476
20
3.794633
30
0.0
40
2.000000
50
149.999791
51
210.000045
0
LINE
8
0
10
23.270426
20
2.794632
30
0.0
11
24.194186
21
1.194635
31
0.0
0
ARC
8
0
10
25.060211
20
1.694636
30
0.0
40
1.000000
50
210.000045
51
270.000000
0
LINE
8
0
10
25.060211
20
0.694636
30
0.0
11
30.752475
21
0.694636
31
0.0
0
ARC
8
0
10
30.752475
20
1.694636
30
0.0
40
1.000000
50
270.000000
51
360.000000
0
LINE
8
0
10
31.752475
20
1.694636
30
0.0
11
31.752475
21
5.894638
31
0.0
0
ARC
8
0
10
30.752475
20
5.894638
30
0.0
40
1.000000
50
360.000000
51
90.000000
0
LINE
8
0
10
30.752475
20
6.894638
30
0.0
11
25.060221
21
6.894638
31
0.0
0
ARC
8
0
10
25.060221
20
5.894638
30
0.0
40
1.000000
50
90.000000
51
149.999791
0
LINE
8
0
10
24.194198
20
6.394641
30
0.0
11
23.270429
21
4.794639
31
0.0
0
LINE
8
0
10
20.758457
20
2.594641
30
0.0
11
20.395624
21
2.594641
31
0.0
0
ARC
8
0
10
20.395624
20
2.394641
30
0.0
40
0.200000
50
90.000000
51
119.999986
0
LINE
8
0
10
20.295624
20
2.567846
30
0.0
11
18.786289
21
1.696432
31
0.0
0
ARC
8
0
10
18.686289
20
1.869637
30
0.0
40
0.200000
50
270.000000
51
299.999986
0
LINE
8
0
10
18.686289
20
1.669637
30
0.0
11
18.299889
21
1.669637
31
0.0
0
ARC
8
0
10
18.299889
20
1.969637
30
0.0
40
0.300000
50
180.000000
51
270.000000
0
LINE
8
0
10
17.999889
20
1.969637
30
0.0
11
17.999889
21
2.969631
31
0.0
0
ARC
8
0
10
18.299889
20
2.969631
30
0.0
40
0.300000
50
90.000000
51
180.000000
0
LINE
8
0
10
18.299889
20
3.269631
30
0.0
11
18.420094
21
3.269631
31
0.0
0
ARC
8
0
10
18.749889
20
3.794641
30
0.0
40
0.620000
50
237.864126
51
122.138550
0
LINE
8
0
10
18.420069
20
4.319634
30
0.0
11
18.299889
21
4.319634
31
0.0
0
ARC
8
0
10
18.299891
20
4.619636
30
0.0
40
0.300002
50
180.000000
51
270.000000
0
LINE
8
0
10
17.999889
20
4.619638
30
0.0
11
17.999889
21
5.619641
31
0.0
0
ARC
8
0
10
18.299899
20
5.619632
30
0.0
40
0.300009
50
90.000000
51
180.000000
0
LINE
8
0
10
18.299908
20
5.919641
30
0.0
11
18.686263
21
5.919641
31
0.0
0
ARC
8
0
10
18.686279
20
5.719699
30
0.0
40
0.199942
50
60.004532
51
90.000000
0
LINE
8
0
10
18.786236
20
5.892861
30
0.0
11
20.295593
21
5.021436
31
0.0
0
ARC
8
0
10
20.395593
20
5.194641
30
0.0
40
0.200000
50
240.000084
51
270.000000
0
LINE
8
0
10
20.395593
20
4.994641
30
0.0
11
20.758457
21
4.994641
31
0.0
0
ARC
8
0
10
20.758457
20
6.494641
30
0.0
40
1.500000
50
270.000000
51
324.999990
0
LINE
8
0
10
21.987185
20
5.634276
30
0.0
11
23.131283
21
7.268217
31
0.0
0
ARC
8
0
10
23.950435
20
6.694641
30
0.0
40
1.000000
50
90.000000
51
144.999990
0
LINE
8
0
10
23.950435
20
7.694641
30
0.0
11
40.549373
21
7.694641
31
0.0
0
ARC
8
0
10
40.549373
20
6.694641
30
0.0
40
1.000000
50
35.000010
51
90.000000
0
LINE
8
0
10
41.368525
20
7.268217
30
0.0
11
42.512624
21
5.634276
31
0.0
0
ARC
8
0
10
43.741352
20
6.494641
30
0.0
40
1.500000
50
215.000010
51
270.000000
0
LINE
8
0
10
43.741352
20
4.994641
30
0.0
11
44.104216
21
4.994641
31
0.0
0
ARC
8
0
10
44.104208
20
5.194612
30
0.0
40
0.199972
50
270.000000
51
300.002373
0
LINE
8
0
10
44.204202
20
5.021436
30
0.0
11
45.713542
21
5.892861
31
0.0
0
ARC
8
0
10
45.813499
20
5.719701
30
0.0
40
0.199940
50
90.000000
51
119.995599
0
LINE
8
0
10
45.813515
20
5.919641
30
0.0
11
46.199901
21
5.919641
31
0.0
0
ARC
8
0
10
46.199895
20
5.619647
30
0.0
40
0.299994
50
360.000000
51
90.000000
0
LINE
8
0
10
46.499889
20
5.619641
30
0.0
11
46.499889
21
4.619638
31
0.0
0
ARC
8
0
10
46.199887
20
4.619636
30
0.0
40
0.300002
50
270.000000
51
360.000000
0
LINE
8
0
10
46.199887
20
4.319634
30
0.0
11
46.079740
21
4.319634
31
0.0
0
ARC
8
0
10
45.749919
20
3.794641
30
0.0
40
0.620000
50
57.861450
51
302.135874
0
LINE
8
0
10
46.079715
20
3.269631
30
0.0
11
46.199889
21
3.269631
31
0.0
0
ARC
8
0
10
46.199889
20
2.969631
30
0.0
40
0.300000
50
360.000000
51
90.000000
0
LINE
8
0
10
46.499889
20
2.969631
30
0.0
11
46.499889
21
1.969637
31
0.0
0
ARC
8
0
10
46.199889
20
1.969637
30
0.0
40
0.300000
50
270.000000
51
360.000000
0
LINE
8
0
10
46.199889
20
1.669637
30
0.0
11
45.813489
21
1.669637
31
0.0
0
ARC
8
0
10
45.813489
20
1.869637
30
0.0
40
0.200000
50
239.999512
51
270.000000
0
LINE
8
0
10
45.713487
20
1.696433
30
0.0
11
44.204187
21
2.567845
31
0.0
0
ARC
8
0
10
44.104185
20
2.394641
30
0.0
40
0.200000
50
59.999512
51
90.000000
0
LINE
8
0
10
44.104185
20
2.594641
30
0.0
11
43.741352
21
2.594641
31
0.0
0
ARC
8
0
10
43.741352
20
1.094641
30
0.0
40
1.500000
50
90.000000
51
144.999990
0
LINE
8
0
10
42.512624
20
1.955006
30
0.0
11
41.368523
21
0.321060
31
0.0
0
ARC
8
0
10
40.667059
20
0.905253
30
0.0
40
0.912871
50
262.592800
51
320.211843
0
LINE
8
0
10
40.549371
20
0.000000
30
0.0
11
23.950438
21
0.000000
31
0.0
0
ARC
8
0
10
23.832750
20
0.905253
30
0.0
40
0.912871
50
219.788157
51
277.407200
0
LINE
8
0
10
23.131286
20
0.321060
30
0.0
11
21.987185
21
1.955006
31
0.0
0
ARC
8
0
10
20.758457
20
1.094641
30
0.0
40
1.500000
50
35.000010
51
90.000000
0
LINE
8
0
10
84.749904
20
0.694636
30
0.0
11
90.442145
21
0.694636
31
0.0
0
ARC
8
0
10
90.442145
20
1.694636
30
0.0
40
1.000000
50
270.000000
51
329.999673
0
LINE
8
0
10
91.308168
20
1.194631
30
0.0
11
92.231936
21
2.794623
31
0.0
0
ARC
8
0
10
90.499891
20
3.794633
30
0.0
40
2.000000
50
329.999673
51
30.000158
0
LINE
8
0
10
92.231939
20
4.794638
30
0.0
11
91.308171
21
6.394640
31
0.0
0
ARC
8
0
10
90.442147
20
5.894638
30
0.0
40
1.000000
50
30.000158
51
90.000000
0
LINE
8
0
10
90.442147
20
6.894638
30
0.0
11
84.749904
21
6.894638
31
0.0
0
ARC
8
0
10
84.749904
20
5.894638
30
0.0
40
1.000000
50
90.000000
51
180.000000
0
LINE
8
0
10
83.749904
20
5.894638
30
0.0
11
83.749904
21
1.694636
31
0.0
0
ARC
8
0
10
84.749904
20
1.694636
30
0.0
40
1.000000
50
180.000000
51
270.000000
0
ARC
8
0
10
75.999901
20
3.794633
30
0.0
40
2.000000
50
149.999791
51
210.000045
0
LINE
8
0
10
74.267851
20
2.794632
30
0.0
11
75.191611
21
1.194635
31
0.0
0
ARC
8
0
10
76.057636
20
1.694636
30
0.0
40
1.000000
50
210.000045
51
270.000000
0
LINE
8
0
10
76.057636
20
0.694636
30
0.0
11
81.749901
21
0.694636
31
0.0
0
ARC
8
0
10
81.749901
20
1.694636
30
0.0
40
1.000000
50
270.000000
51
360.000000
0
LINE
8
0
10
82.749901
20
1.694636
30
0.0
11
82.749901
21
5.894638
31
0.0
0
ARC
8
0
10
81.749901
20
5.894638
30
0.0
40
1.000000
50
360.000000
51
90.000000
0
LINE
8
0
10
81.749901
20
6.894638
30
0.0
11
76.057647
21
6.894638
31
0.0
0
ARC
8
0
10
76.057647
20
5.894638
30
0.0
40
1.000000
50
90.000000
51
149.999791
0
LINE
8
0
10
75.191623
20
6.394641
30
0.0
11
74.267854
21
4.794639
31
0.0
0
LINE
8
0
10
71.758456
20
2.594641
30
0.0
11
71.395623
21
2.594641
31
0.0
0
ARC
8
0
10
71.395623
20
2.394641
30
0.0
40
0.200000
50
90.000000
51
119.999986
0
LINE
8
0
10
71.295623
20
2.567846
30
0.0
11
69.786289
21
1.696432
31
0.0
0
ARC
8
0
10
69.686289
20
1.869637
30
0.0
40
0.200000
50
270.000000
51
299.999986
0
LINE
8
0
10
69.686289
20
1.669637
30
0.0
11
69.299889
21
1.669637
31
0.0
0
ARC
8
0
10
69.299889
20
1.969637
30
0.0
40
0.300000
50
180.000000
51
270.000000
0
LINE
8
0
10
68.999889
20
1.969637
30
0.0
11
68.999889
21
2.969631
31
0.0
0
ARC
8
0
10
69.299889
20
2.969631
30
0.0
40
0.300000
50
90.000000
51
180.000000
0
LINE
8
0
10
69.299889
20
3.269631
30
0.0
11
69.420093
21
3.269631
31
0.0
0
ARC
8
0
10
69.749889
20
3.794641
30
0.0
40
0.620000
50
237.864126
51
122.138550
0
LINE
8
0
10
69.420068
20
4.319634
30
0.0
11
69.299889
21
4.319634
31
0.0
0
ARC
8
0
10
69.299890
20
4.619636
30
0.0
40
0.300002
50
180.000000
51
270.000000
0
LINE
8
0
10
68.999889
20
4.619638
30
0.0
11
68.999889
21
5.619641
31
0.0
0
ARC
8
0
10
69.299898
20
5.619632
30
0.0
40
0.300009
50
90.000000
51
180.000000
0
LINE
8
0
10
69.299907
20
5.919641
30
0.0
11
69.686262
21
5.919641
31
0.0
0
ARC
8
0
10
69.686278
20
5.719699
30
0.0
40
0.199942
50
60.004532
51
90.000000
0
LINE
8
0
10
69.786235
20
5.892861
30
0.0
11
71.295592
21
5.021436
31
0.0
0
ARC
8
0
10
71.395592
20
5.194641
30
0.0
40
0.200000
50
240.000084
51
270.000000
0
LINE
8
0
10
71.395592
20
4.994641
30
0.0
11
71.758456
21
4.994641
31
0.0
0
ARC
8
0
10
71.758456
20
6.494641
30
0.0
40
1.500000
50
270.000000
51
324.999990
0
LINE
8
0
10
72.987184
20
5.634276
30
0.0
11
74.131282
21
7.268217
31
0.0
0
ARC
8
0
10
74.950434
20
6.694641
30
0.0
40
1.000000
50
90.000000
51
144.999990
0
LINE
8
0
10
74.950434
20
7.694641
30
0.0
11
91.549373
21
7.694641
31
0.0
0
ARC
8
0
10
91.549373
20
6.694641
30
0.0
40
1.000000
50
35.000010
51
90.000000
0
LINE
8
0
10
92.368525
20
7.268217
30
0.0
11
93.512623
21
5.634276
31
0.0
0
ARC
8
0
10
94.741351
20
6.494641
30
0.0
40
1.500000
50
215.000010
51
270.000000
0
LINE
8
0
10
94.741351
20
4.994641
30
0.0
11
95.104215
21
4.994641
31
0.0
0
ARC
8
0
10
95.104208
20
5.194612
30
0.0
40
0.199972
50
270.000000
51
300.002373
0
LINE
8
0
10
95.204201
20
5.021436
30
0.0
11
96.713541
21
5.892861
31
0.0
0
ARC
8
0
10
96.813498
20
5.719701
30
0.0
40
0.199940
50
90.000000
51
119.995599
0
LINE
8
0
10
96.813514
20
5.919641
30
0.0
11
97.199900
21
5.919641
31
0.0
0
ARC
8
0
10
97.199894
20
5.619647
30
0.0
40
0.299994
50
360.000000
51
90.000000
0
LINE
8
0
10
97.499888
20
5.619641
30
0.0
11
97.499888
21
4.619638
31
0.0
0
ARC
8
0
10
97.199886
20
4.619636
30
0.0
40
0.300002
50
270.000000
51
360.000000
0
LINE
8
0
10
97.199886
20
4.319634
30
0.0
11
97.079739
21
4.319634
31
0.0
0
ARC
8
0
10
96.749918
20
3.794641
30
0.0
40
0.620000
50
57.861450
51
302.135874
0
LINE
8
0
10
97.079714
20
3.269631
30
0.0
11
97.199888
21
3.269631
31
0.0
0
ARC
8
0
10
97.199888
20
2.969631
30
0.0
40
0.300000
50
360.000000
51
90.000000
0
LINE
8
0
10
97.499888
20
2.969631
30
0.0
11
97.499888
21
1.969637
31
0.0
0
ARC
8
0
10
97.199888
20
1.969637
30
0.0
40
0.300000
50
270.000000
51
360.000000
0
LINE
8
0
10
97.199888
20
1.669637
30
0.0
11
96.813488
21
1.669637
31
0.0
0
ARC
8
0
10
96.813488
20
1.869637
30
0.0
40
0.200000
50
239.999512
51
270.000000
0
LINE
8
0
10
96.713486
20
1.696433
30
0.0
11
95.204186
21
2.567845
31
0.0
0
ARC
8
0
10
95.104184
20
2.394641
30
0.0
40
0.200000
50
59.999512
51
90.000000
0
LINE
8
0
10
95.104184
20
2.594641
30
0.0
11
94.741351
21
2.594641
31
0.0
0
ARC
8
0
10
94.741351
20
1.094641
30
0.0
40
1.500000
50
90.000000
51
144.999990
0
LINE
8
0
10
93.512623
20
1.955006
30
0.0
11
92.368522
21
0.321060
31
0.0
0
ARC
8
0
10
91.667058
20
0.905253
30
0.0
40
0.912871
50
262.592800
51
320.211843
0
LINE
8
0
10
91.549370
20
0.000000
30
0.0
11
74.950437
21
0.000000
31
0.0
0
ARC
8
0
10
74.832749
20
0.905253
30
0.0
40
0.912871
50
219.788157
51
277.407200
0
LINE
8
0
10
74.131285
20
0.321060
30
0.0
11
72.987184
21
1.955006
31
0.0
0
ARC
8
0
10
71.758456
20
1.094641
30
0.0
40
1.500000
50
35.000010
51
90.000000
0
LINE
8
0
10
16.600000
20
0.000000
30
0.0
11
18.267941
21
0.000000
31
0.0
0
ARC
8
0
10
18.267941
20
0.300000
30
0.0
40
0.300000
50
270.000000
51
289.778171
0
LINE
8
0
10
18.369455
20
0.017697
30
0.0
11
19.671317
21
0.485836
31
0.0
0
ARC
8
0
10
19.750836
20
0.264699
30
0.0
40
0.235000
50
24.000000
51
109.778171
0
ARC
8
0
10
20.186771
20
0.441113
30
0.0
40
0.235000
50
204.000000
51
270.000000
0
LINE
8
0
10
20.185215
20
0.206118
30
0.0
11
21.764143
21
0.195661
31
0.0
0
ARC
8
0
10
21.766130
20
0.495654
30
0.0
40
0.300000
50
270.000000
51
24.620541
0
LINE
8
0
10
22.038856
20
0.620636
30
0.0
11
21.090206
21
2.726151
31
0.0
0
ARC
8
0
10
20.816686
20
2.602916
30
0.0
40
0.300000
50
24.254172
51
64.620541
0
LINE
8
0
10
20.945270
20
2.873963
30
0.0
11
20.437847
21
3.114682
31
0.0
0
ARC
8
0
10
20.352125
20
2.933984
30
0.0
40
0.200000
50
64.620541
51
184.620541
0
LINE
8
0
10
20.152775
20
2.917873
30
0.0
11
20.162076
21
2.802778
31
0.0
0
ARC
8
0
10
19.863051
20
2.778611
30
0.0
40
0.300000
50
304.620541
51
4.620541
0
LINE
8
0
10
20.033493
20
2.531731
30
0.0
11
18.404736
21
1.407265
31
0.0
0
LINE
8
0
10
18.404736
20
1.407265
30
0.0
11
18.222027
21
1.325918
31
0.0
0
ARC
8
0
10
18.100025
20
1.600000
30
0.0
40
0.300009
50
131.812671
51
293.995287
0
ARC
8
0
10
17.700000
20
2.047204
30
0.0
40
0.300000
50
311.812671
51
360.000000
0
LINE
8
0
10
18.000000
20
2.047204
30
0.0
11
18.000000
21
5.799991
31
0.0
0
ARC
8
0
10
18.301349
20
5.798640
30
0.0
40
0.301352
50
90.000000
51
180.000000
0
LINE
8
0
10
18.300789
20
6.099991
30
0.0
11
18.347200
21
6.099991
31
0.0
0
ARC
8
0
10
18.347200
20
5.799991
30
0.0
40
0.300000
50
60.000000
51
90.000000
0
LINE
8
0
10
18.497200
20
6.059798
30
0.0
11
20.264187
21
5.039628
31
0.0
0
ARC
8
0
10
20.414187
20
5.299435
30
0.0
40
0.300000
50
240.000000
51
270.000000
0
LINE
8
0
10
20.414187
20
4.999435
30
0.0
11
20.778539
21
4.999435
31
0.0
0
ARC
8
0
10
20.778539
20
5.999435
30
0.0
40
1.000000
50
270.000000
51
325.738830
0
LINE
8
0
10
21.605019
20
5.436469
30
0.0
11
22.646535
21
6.965500
31
0.0
0
ARC
8
0
10
22.400789
20
7.137573
30
0.0
40
0.300000
50
324.999990
51
360.000000
0
LINE
8
0
10
22.700789
20
7.137573
30
0.0
11
22.700789
21
7.499995
31
0.0
0
ARC
8
0
10
22.400789
20
7.499995
30
0.0
40
0.300000
50
360.000000
51
90.000000
0
LINE
8
0
10
22.400789
20
7.799995
30
0.0
11
15.050556
21
7.799995
31
0.0
0
ARC
8
0
10
15.050556
20
7.499995
30
0.0
40
0.300000
50
90.000000
51
150.000000
0
LINE
8
0
10
14.790748
20
7.649995
30
0.0
11
14.340193
21
6.869610
31
0.0
0
ARC
8
0
10
14.600000
20
6.719610
30
0.0
40
0.300000
50
150.000000
51
180.000000
0
LINE
8
0
10
14.300000
20
6.719610
30
0.0
11
14.300000
21
6.599995
31
0.0
0
ARC
8
0
10
14.600000
20
6.599995
30
0.0
40
0.300000
50
180.000000
51
270.000000
0
LINE
8
0
10
14.600000
20
6.299995
30
0.0
11
16.000000
21
6.299995
31
0.0
0
ARC
8
0
10
16.000000
20
5.999995
30
0.0
40
0.300000
50
360.000000
51
90.000000
0
LINE
8
0
10
16.300000
20
5.999995
30
0.0
11
16.300000
21
3.099995
31
0.0
0
ARC
8
0
10
16.000000
20
3.099995
30
0.0
40
0.300000
50
270.000000
51
360.000000
0
LINE
8
0
10
16.000000
20
2.799995
30
0.0
11
2.100000
21
2.799995
31
0.0
0
ARC
8
0
10
2.100000
20
3.099995
30
0.0
40
0.300000
50
180.000000
51
270.000000
0
LINE
8
0
10
1.800000
20
3.099995
30
0.0
11
1.800000
21
5.999995
31
0.0
0
ARC
8
0
10
2.100000
20
5.999995
30
0.0
40
0.300000
50
90.000000
51
180.000000
0
LINE
8
0
10
2.100000
20
6.299995
30
0.0
11
4.000000
21
6.299995
31
0.0
0
ARC
8
0
10
4.000000
20
6.599995
30
0.0
40
0.300000
50
270.000000
51
360.000000
0
LINE
8
0
10
4.300000
20
6.599995
30
0.0
11
4.300000
21
6.719610
31
0.0
0
ARC
8
0
10
4.000000
20
6.719610
30
0.0
40
0.300000
50
360.000000
51
30.000000
0
LINE
8
0
10
4.259808
20
6.869610
30
0.0
11
3.809253
21
7.649995
31
0.0
0
ARC
8
0
10
3.549445
20
7.499995
30
0.0
40
0.300000
50
30.000000
51
90.000000
0
LINE
8
0
10
3.549445
20
7.799995
30
0.0
11
0.300000
21
7.799995
31
0.0
0
ARC
8
0
10
0.300000
20
7.499995
30
0.0
40
0.300000
50
90.000000
51
180.000000
0
LINE
8
0
10
0.000000
20
7.499995
30
0.0
11
0.000000
21
0.300000
31
0.0
0
ARC
8
0
10
0.300000
20
0.300000
30
0.0
40
0.300000
50
180.000000
51
270.000000
0
LINE
8
0
10
0.300000
20
0.000000
30
0.0
11
1.500000
21
0.000000
31
0.0
0
ARC
8
0
10
1.500000
20
0.300000
30
0.0
40
0.300000
50
270.000000
51
360.000000
0
LINE
8
0
10
1.800000
20
0.300000
30
0.0
11
1.800000
21
0.499995
31
0.0
0
ARC
8
0
10
2.100000
20
0.499995
30
0.0
40
0.300000
50
90.000000
51
180.000000
0
LINE
8
0
10
2.100000
20
0.799995
30
0.0
11
16.000000
21
0.799995
31
0.0
0
ARC
8
0
10
16.000000
20
0.499995
30
0.0
40
0.300000
50
360.000000
51
90.000000
0
LINE
8
0
10
16.300000
20
0.499995
30
0.0
11
16.300000
21
0.300000
31
0.0
0
ARC
8
0
10
16.600000
20
0.300000
30
0.0
40
0.300000
50
180.000000
51
270.000000
0
LINE
8
0
10
48.199889
20
0.000000
30
0.0
11
46.231948
21
0.000000
31
0.0
0
ARC
8
0
10
46.231948
20
0.300000
30
0.0
40
0.300000
50
250.221829
51
270.000000
0
LINE
8
0
10
46.130434
20
0.017697
30
0.0
11
44.828572
21
0.485836
31
0.0
0
ARC
8
0
10
44.749053
20
0.264699
30
0.0
40
0.235000
50
70.221829
51
156.000000
0
ARC
8
0
10
44.313118
20
0.441113
30
0.0
40
0.235000
50
270.000000
51
336.000000
0
LINE
8
0
10
44.314674
20
0.206118
30
0.0
11
42.735746
21
0.195661
31
0.0
0
ARC
8
0
10
42.733759
20
0.495654
30
0.0
40
0.300000
50
155.379459
51
270.000000
0
LINE
8
0
10
42.461033
20
0.620636
30
0.0
11
43.409683
21
2.726151
31
0.0
0
ARC
8
0
10
43.683203
20
2.602916
30
0.0
40
0.300000
50
115.379459
51
155.745828
0
LINE
8
0
10
43.554619
20
2.873963
30
0.0
11
44.062042
21
3.114682
31
0.0
0
ARC
8
0
10
44.147764
20
2.933984
30
0.0
40
0.200000
50
355.379459
51
115.379459
0
LINE
8
0
10
44.347114
20
2.917873
30
0.0
11
44.337813
21
2.802778
31
0.0
0
ARC
8
0
10
44.636838
20
2.778611
30
0.0
40
0.300000
50
175.379459
51
235.379459
0
LINE
8
0
10
44.466396
20
2.531731
30
0.0
11
46.095153
21
1.407265
31
0.0
0
LINE
8
0
10
46.095153
20
1.407265
30
0.0
11
46.277862
21
1.325918
31
0.0
0
ARC
8
0
10
46.399864
20
1.600000
30
0.0
40
0.300009
50
246.004713
51
48.187329
0
ARC
8
0
10
46.799889
20
2.047204
30
0.0
40
0.300000
50
180.000000
51
228.187329
0
LINE
8
0
10
46.499889
20
2.047204
30
0.0
11
46.499889
21
5.799991
31
0.0
0
ARC
8
0
10
46.198540
20
5.798640
30
0.0
40
0.301352
50
360.000000
51
90.000000
0
LINE
8
0
10
46.199100
20
6.099991
30
0.0
11
46.152689
21
6.099991
31
0.0
0
ARC
8
0
10
46.152689
20
5.799991
30
0.0
40
0.300000
50
90.000000
51
120.000000
0
LINE
8
0
10
46.002689
20
6.059798
30
0.0
11
44.235702
21
5.039628
31
0.0
0
ARC
8
0
10
44.085702
20
5.299435
30
0.0
40
0.300000
50
270.000000
51
300.000000
0
LINE
8
0
10
44.085702
20
4.999435
30
0.0
11
43.721350
21
4.999435
31
0.0
0
ARC
8
0
10
43.721350
20
5.999435
30
0.0
40
1.000000
50
214.261170
51
270.000000
0
LINE
8
0
10
42.894870
20
5.436469
30
0.0
11
41.853354
21
6.965500
31
0.0
0
ARC
8
0
10
42.099100
20
7.137573
30
0.0
40
0.300000
50
180.000000
51
215.000010
0
LINE
8
0
10
41.799100
20
7.137573
30
0.0
11
41.799100
21
7.499995
31
0.0
0
ARC
8
0
10
42.099100
20
7.499995
30
0.0
40
0.300000
50
90.000000
51
180.000000
0
LINE
8
0
10
42.099100
20
7.799995
30
0.0
11
49.989094
21
7.799995
31
0.0
0
ARC
8
0
10
49.989094
20
8.299995
30
0.0
40
0.500000
50
270.000000
51
17.920213
0
ARC
8
0
10
53.699889
20
9.499995
30
0.0
40
3.400000
50
160.528779
51
197.920213
0
ARC
8
0
10
51.437147
20
10.299995
30
0.0
40
1.000000
50
90.000000
51
160.528779
0
LINE
8
0
10
51.437147
20
11.299995
30
0.0
11
52.230195
21
11.299995
31
0.0
0
ARC
8
0
10
52.230195
20
10.999995
30
0.0
40
0.300000
50
314.415309
51
90.000000
0
ARC
8
0
10
53.699889
20
9.499995
30
0.0
40
1.800000
50
134.415309
51
162.857143
0
LINE
8
0
10
51.979858
20
10.030554
30
0.0
11
51.693186
21
10.118980
31
0.0
0
ARC
8
0
10
53.699889
20
9.499995
30
0.0
40
2.100000
50
162.857143
51
205.714286
0
LINE
8
0
10
51.807854
20
8.588839
30
0.0
11
52.078145
21
8.719004
31
0.0
0
ARC
8
0
10
53.699889
20
9.499995
30
0.0
40
1.800000
50
205.714286
51
248.571429
0
LINE
8
0
10
53.042275
20
7.824422
30
0.0
11
52.932673
21
7.545160
31
0.0
0
ARC
8
0
10
53.699889
20
9.499995
30
0.0
40
2.100000
50
248.571429
51
291.428571
0
LINE
8
0
10
54.467105
20
7.545160
30
0.0
11
54.357503
21
7.824422
31
0.0
0
ARC
8
0
10
53.699889
20
9.499995
30
0.0
40
1.800000
50
291.428571
51
334.285714
0
LINE
8
0
10
55.321633
20
8.719004
30
0.0
11
55.591923
21
8.588839
31
0.0
0
ARC
8
0
10
53.699889
20
9.499995
30
0.0
40
2.100000
50
334.285714
51
17.142857
0
LINE
8
0
10
55.706592
20
10.118980
30
0.0
11
55.419920
21
10.030554
31
0.0
0
ARC
8
0
10
53.699889
20
9.499995
30
0.0
40
1.800000
50
17.142857
51
45.584691
0
ARC
8
0
10
55.169583
20
10.999995
30
0.0
40
0.300000
50
90.000000
51
225.584691
0
LINE
8
0
10
55.169583
20
11.299995
30
0.0
11
55.962630
21
11.299995
31
0.0
0
ARC
8
0
10
55.962630
20
10.299995
30
0.0
40
1.000000
50
19.471221
51
90.000000
0
ARC
8
0
10
53.699889
20
9.499995
30
0.0
40
3.400000
50
342.079787
51
19.471221
0
ARC
8
0
10
57.410684
20
8.299995
30
0.0
40
0.500000
50
162.079787
51
270.000000
0
LINE
8
0
10
57.410684
20
7.799995
30
0.0
11
59.800000
21
7.799995
31
0.0
0
ARC
8
0
10
59.800000
20
8.799995
30
0.0
40
1.000000
50
270.000000
51
360.000000
0
LINE
8
0
10
60.800000
20
8.799995
30
0.0
11
60.800000
21
15.500000
31
0.0
0
ARC
8
0
10
60.500000
20
15.500000
30
0.0
40
0.300000
50
360.000000
51
90.000000
0
LINE
8
0
10
60.500000
20
15.800000
30
0.0
11
58.300000
21
15.800000
31
0.0
0
ARC
8
0
10
58.300000
20
16.300000
30
0.0
40
0.500000
50
180.000000
51
270.000000
0
LINE
8
0
10
57.800000
20
16.300000
30
0.0
11
57.800000
21
17.600000
31
0.0
0
ARC
8
0
10
58.500000
20
17.600000
30
0.0
40
0.700000
50
90.000000
51
180.000000
0
ARC
8
0
10
58.500000
20
18.000000
30
0.0
40
0.300000
50
360.000000
51
90.000000
0
LINE
8
0
10
58.800000
20
18.000000
30
0.0
11
58.800000
21
17.300000
31
0.0
0
ARC
8
0
10
59.100000
20
17.300000
30
0.0
40
0.300000
50
180.000000
51
270.000000
0
LINE
8
0
10
59.100000
20
17.000000
30
0.0
11
60.300000
21
17.000000
31
0.0
0
ARC
8
0
10
60.300000
20
17.700000
30
0.0
40
0.700000
50
270.000000
51
360.000000
0
LINE
8
0
10
61.000000
20
17.700000
30
0.0
11
61.000000
21
23.900000
31
0.0
0
ARC
8
0
10
60.300000
20
23.900000
30
0.0
40
0.700000
50
360.000000
51
90.000000
0
LINE
8
0
10
60.300000
20
24.600000
30
0.0
11
59.100000
21
24.600000
31
0.0
0
ARC
8
0
10
59.100000
20
24.300000
30
0.0
40
0.300000
50
90.000000
51
180.000000
0
LINE
8
0
10
58.800000
20
24.300000
30
0.0
11
58.800000
21
23.600000
31
0.0
0
ARC
8
0
10
58.500000
20
23.600000
30
0.0
40
0.300000
50
270.000000
51
360.000000
0
ARC
8
0
10
58.500000
20
24.000000
30
0.0
40
0.700000
50
180.000000
51
270.000000
0
LINE
8
0
10
57.800000
20
24.000000
30
0.0
11
57.800000
21
25.500000
31
0.0
0
ARC
8
0
10
58.100000
20
25.500000
30
0.0
40
0.300000
50
90.000000
51
180.000000
0
LINE
8
0
10
58.100000
20
25.800000
30
0.0
11
62.000000
21
25.800000
31
0.0
0
ARC
8
0
10
62.000000
20
25.500000
30
0.0
40
0.300000
50
360.000000
51
90.000000
0
LINE
8
0
10
62.300000
20
25.500000
30
0.0
11
62.300000
21
15.383431
31
0.0
0
ARC
8
0
10
62.600000
20
15.383431
30
0.0
40
0.300000
50
180.000000
51
270.000000
0
LINE
8
0
10
62.600000
20
15.083431
30
0.0
11
62.876615
21
15.083431
31
0.0
0
ARC
8
0
10
62.799692
20
14.086394
30
0.0
40
1.000000
50
360.000000
51
85.588274
0
LINE
8
0
10
63.799692
20
14.086394
30
0.0
11
63.799692
21
13.886394
31
0.0
0
ARC
8
0
10
63.499692
20
13.886394
30
0.0
40
0.300000
50
270.000000
51
360.000000
0
LINE
8
0
10
63.499692
20
13.586394
30
0.0
11
62.600000
21
13.599995
31
0.0
0
ARC
8
0
10
62.600000
20
13.299995
30
0.0
40
0.300000
50
90.000000
51
180.000000
0
LINE
8
0
10
62.300000
20
13.299995
30
0.0
11
62.300000
21
8.299995
31
0.0
0
ARC
8
0
10
62.800000
20
8.299995
30
0.0
40
0.500000
50
180.000000
51
270.000000
0
LINE
8
0
10
62.800000
20
7.799995
30
0.0
11
73.400678
21
7.799995
31
0.0
0
ARC
8
0
10
73.400678
20
7.499995
30
0.0
40
0.300000
50
360.000000
51
90.000000
0
LINE
8
0
10
73.700678
20
7.499995
30
0.0
11
73.700678
21
7.137573
31
0.0
0
ARC
8
0
10
73.400678
20
7.137573
30
0.0
40
0.300000
50
324.999990
51
360.000000
0
LINE
8
0
10
73.646423
20
6.965500
30
0.0
11
72.604907
21
5.436469
31
0.0
0
ARC
8
0
10
71.778427
20
5.999435
30
0.0
40
1.000000
50
270.000000
51
325.738830
0
LINE
8
0
10
71.778427
20
4.999435
30
0.0
11
71.414075
21
4.999435
31
0.0
0
ARC
8
0
10
71.414075
20
5.299435
30
0.0
40
0.300000
50
240.000000
51
270.000000
0
LINE
8
0
10
71.264075
20
5.039628
30
0.0
11
69.497088
21
6.059798
31
0.0
0
ARC
8
0
10
69.347088
20
5.799991
30
0.0
40
0.300000
50
60.000000
51
90.000000
0
LINE
8
0
10
69.347088
20
6.099991
30
0.0
11
69.300678
21
6.099991
31
0.0
0
ARC
8
0
10
69.301237
20
5.798640
30
0.0
40
0.301352
50
90.000000
51
180.000000
0
LINE
8
0
10
68.999889
20
5.799991
30
0.0
11
68.999889
21
2.047204
31
0.0
0
ARC
8
0
10
68.699889
20
2.047204
30
0.0
40
0.300000
50
311.812671
51
360.000000
0
ARC
8
0
10
69.099913
20
1.600000
30
0.0
40
0.300009
50
131.812671
51
293.995287
0
LINE
8
0
10
69.221916
20
1.325918
30
0.0
11
69.404625
21
1.407265
31
0.0
0
LINE
8
0
10
69.404625
20
1.407265
30
0.0
11
71.033381
21
2.531731
31
0.0
0
ARC
8
0
10
70.862940
20
2.778611
30
0.0
40
0.300000
50
304.620541
51
4.620541
0
LINE
8
0
10
71.161965
20
2.802778
30
0.0
11
71.152663
21
2.917873
31
0.0
0
ARC
8
0
10
71.352013
20
2.933984
30
0.0
40
0.200000
50
64.620541
51
184.620541
0
LINE
8
0
10
71.437735
20
3.114682
30
0.0
11
71.945158
21
2.873963
31
0.0
0
ARC
8
0
10
71.816575
20
2.602916
30
0.0
40
0.300000
50
24.254172
51
64.620541
0
LINE
8
0
10
72.090094
20
2.726151
30
0.0
11
73.038744
21
0.620636
31
0.0
0
ARC
8
0
10
72.766018
20
0.495654
30
0.0
40
0.300000
50
270.000000
51
24.620541
0
LINE
8
0
10
72.764031
20
0.195661
30
0.0
11
71.185103
21
0.206118
31
0.0
0
ARC
8
0
10
71.186659
20
0.441113
30
0.0
40
0.235000
50
204.000000
51
270.000000
0
ARC
8
0
10
70.750725
20
0.264699
30
0.0
40
0.235000
50
24.000000
51
109.778171
0
LINE
8
0
10
70.671206
20
0.485836
30
0.0
11
69.369343
21
0.017697
31
0.0
0
ARC
8
0
10
69.267829
20
0.300000
30
0.0
40
0.300000
50
270.000000
51
289.778171
0
LINE
8
0
10
69.267829
20
0.000000
30
0.0
11
67.299889
21
0.000000
31
0.0
0
ARC
8
0
10
67.299889
20
0.500000
30
0.0
40
0.500000
50
180.000000
51
270.000000
0
LINE
8
0
10
66.799889
20
0.500000
30
0.0
11
66.799889
21
4.799995
31
0.0
0
ARC
8
0
10
66.299889
20
4.799995
30
0.0
40
0.500000
50
360.000000
51
90.000000
0
LINE
8
0
10
66.299889
20
5.299995
30
0.0
11
49.199889
21
5.299995
31
0.0
0
ARC
8
0
10
49.199889
20
4.799995
30
0.0
40
0.500000
50
90.000000
51
180.000000
0
LINE
8
0
10
48.699889
20
4.799995
30
0.0
11
48.699889
21
0.500000
31
0.0
0
ARC
8
0
10
48.199889
20
0.500000
30
0.0
40
0.500000
50
270.000000
51
360.000000
0
ATTDEF
8
0
10
0.000000
20
0.000000
30
0.0
40
3.5
1

3

2
GLASS_MIN:0.000000
70
0
0
ATTDEF
8
0
10
0.000000
20
0.000000
30
0.0
40
3.5
1

3

2
GLASS_MAX:0.000000
70
0
0
ATTDEF
8
0
10
0.000000
20
0.000000
30
0.0
40
3.5
1

3

2
BL01:6500.000000,,1
70
0
0
ATTDEF
8
0
10
0.000000
20
0.000000
30
0.0
40
3.5
1

3

2
HW_START
70
0
0
ATTDEF
8
0
10
131.199889
20
28.405363
30
0.0
40
3.5
1

3

2
HW_END
70
0
0
ATTDEF
8
0
10
1.924723
20
7.799995
30
0.0
40
3.5
1

3

2
VC_START
70
0
0
ATTDEF
8
0
10
0.900000
20
0.000000
30
0.0
40
3.5
1

3

2
VC_END
70
0
0
ATTDEF
8
0
10
0.000000
20
0.000000
30
0.0
40
3.5
1

3

2
FP_LCS_ORIG
70
0
0
ATTDEF
8
0
10
10.000000
20
0.000000
30
0.0
40
3.5
1

3

2
FP_LCS_HOT
70
0
0
ATTDEF
8
0
10
0.000000
20
10.000000
30
0.0
40
3.5
1

3

2
FP_LCS_INTERN
70
0
0
ATTDEF
8
0
10
0.000000
20
0.000000
30
0.0
40
3.5
1

3

2
TDEV3:0
70
0
0
ATTDEF
8
0
10
0.000000
20
0.000000
30
0.0
40
3.5
1

3

2
TDEV4:0
70
0
0
ATTDEF
8
0
10
0.000000
20
0.000000
30
0.0
40
3.5
1

3

2
TDEV5:0
70
0
0
ATTDEF
8
0
10
0.000000
20
0.000000
30
0.0
40
3.5
1

3

2
MIN_VETRO:0
70
0
0
ATTDEF
8
0
10
0.000000
20
0.000000
30
0.0
40
3.5
1

3

2
MAX_VETRO:0
70
0
0
ATTDEF
8
0
10
0.000000
20
0.000000
30
0.0
40
3.5
1

3

2
JX:0
70
0
0
ATTDEF
8
0
10
0.000000
20
0.000000
30
0.0
40
3.5
1

3

2
WX:0
70
0
0
ATTDEF
8
0
10
0.000000
20
0.000000
30
0.0
40
3.5
1

3

2
JY:0
70
0
0
ATTDEF
8
0
10
0.000000
20
0.000000
30
0.0
40
3.5
1

3

2
WY:0
70
0
0
ATTDEF
8
0
10
0.000000
20
0.000000
30
0.0
40
3.5
1

3

2
DESC:N10630 - V31211 - U10401
70
0
0
ATTDEF
8
0
10
0.000000
20
0.000000
30
0.0
40
3.5
1

3

2
DENS:0
70
0
0
ATTDEF
8
0
10
0.000000
20
0.000000
30
0.0
40
3.5
1

3

2
TDEV:0
70
0
0
ATTDEF
8
0
10
0.000000
20
0.000000
30
0.0
40
3.5
1

3

2
TDEV2:0
70
0
0
ATTDEF
8
0
10
0.000000
20
0.000000
30
0.0
40
3.5
1

3

2
TDEV3:0
70
0
0
ATTDEF
8
0
10
0.000000
20
0.000000
30
0.0
40
3.5
1

3

2
TDEV4:0
70
0
0
ATTDEF
8
0
10
0.000000
20
0.000000
30
0.0
40
3.5
1

3

2
TDEV5:0
70
0
0
ATTDEF
8
0
10
0.000000
20
0.000000
30
0.0
40
3.5
1

3

2
MIN_VETRO:0
70
0
0
ATTDEF
8
0
10
0.000000
20
0.000000
30
0.0
40
3.5
1

3

2
MAX_VETRO:0
70
0
0
ATTDEF
8
0
10
0.000000
20
0.000000
30
0.0
40
3.5
1

3

2
JX:0
70
0
0
ATTDEF
8
0
10
0.000000
20
0.000000
30
0.0
40
3.5
1

3

2
WX:0
70
0
0
ATTDEF
8
0
10
0.000000
20
0.000000
30
0.0
40
3.5
1

3

2
JY:0
70
0
0
ATTDEF
8
0
10
0.000000
20
0.000000
30
0.0
40
3.5
1

3

2
WY:0
70
0
0
ATTDEF
8
0
10
0.000000
20
0.000000
30
0.0
40
3.5
1

3

2
PANE_WIDTH:57.500000
70
0
0
ENDSEC
0
EOF
