0
SECTION
2
ENTITIES
0
LINE
8
0
10
143.744497
20
5.865125
30
0.0
11
133.844497
21
5.865125
31
0.0
0
ARC
8
0
10
133.844497
20
5.565125
30
0.0
40
0.300000
50
90.000000
51
180.000000
0
LINE
8
0
10
133.544497
20
5.565125
30
0.0
11
133.544497
21
1.765125
31
0.0
0
ARC
8
0
10
133.044497
20
1.765125
30
0.0
40
0.500000
50
180.000000
51
0.000000
0
LINE
8
0
10
132.544497
20
1.765125
30
0.0
11
132.544497
21
5.565125
31
0.0
0
ARC
8
0
10
132.244497
20
5.565125
30
0.0
40
0.300000
50
0.000000
51
90.000000
0
LINE
8
0
10
132.244497
20
5.865125
30
0.0
11
122.344497
21
5.865125
31
0.0
0
ARC
8
0
10
122.344497
20
5.565125
30
0.0
40
0.300000
50
90.000000
51
180.000000
0
LINE
8
0
10
122.044497
20
5.565125
30
0.0
11
122.044497
21
1.765125
31
0.0
0
ARC
8
0
10
121.544497
20
1.765125
30
0.0
40
0.500000
50
180.000000
51
0.000000
0
LINE
8
0
10
121.044497
20
1.765125
30
0.0
11
121.044497
21
5.565125
31
0.0
0
ARC
8
0
10
120.744497
20
5.565125
30
0.0
40
0.300000
50
0.000000
51
90.000000
0
LINE
8
0
10
120.744497
20
5.865125
30
0.0
11
118.439828
21
5.865125
31
0.0
0
ARC
8
0
10
118.439828
20
4.865125
30
0.0
40
1.000000
50
90.000000
51
144.745828
0
LINE
8
0
10
117.623228
20
5.442330
30
0.0
11
116.100407
21
3.287921
31
0.0
0
ARC
8
0
10
115.283808
20
3.865125
30
0.0
40
1.000000
50
270.000000
51
324.745828
0
LINE
8
0
10
115.283808
20
2.865125
30
0.0
11
114.182497
21
2.865125
31
0.0
0
ARC
8
0
10
114.182497
20
1.665125
30
0.0
40
1.200000
50
90.000000
51
119.981639
0
LINE
8
0
10
113.582830
20
2.704548
30
0.0
11
112.000886
21
1.791888
31
0.0
0
ARC
8
0
10
111.900942
20
1.965125
30
0.0
40
0.200000
50
270.000000
51
299.981639
0
LINE
8
0
10
111.900942
20
1.765125
30
0.0
11
111.694497
21
1.765125
31
0.0
0
ARC
8
0
10
111.694497
20
2.165125
30
0.0
40
0.400000
50
180.000000
51
270.000000
0
LINE
8
0
10
111.294497
20
2.165125
30
0.0
11
111.294497
21
5.565125
31
0.0
0
ARC
8
0
10
111.694497
20
5.565125
30
0.0
40
0.400000
50
90.000000
51
180.000000
0
LINE
8
0
10
111.694497
20
5.965125
30
0.0
11
111.900942
21
5.965125
31
0.0
0
ARC
8
0
10
111.900942
20
5.765125
30
0.0
40
0.200000
50
60.018361
51
90.000000
0
LINE
8
0
10
112.000886
20
5.938362
30
0.0
11
113.582830
21
5.025703
31
0.0
0
ARC
8
0
10
114.182497
20
6.065125
30
0.0
40
1.200000
50
240.018361
51
270.000000
0
LINE
8
0
10
114.182497
20
4.865125
30
0.0
11
114.610731
21
4.865125
31
0.0
0
ARC
8
0
10
114.610731
20
5.165125
30
0.0
40
0.300000
50
270.000000
51
324.745828
0
LINE
8
0
10
114.855711
20
4.991964
30
0.0
11
116.737150
21
7.653728
31
0.0
0
ARC
8
0
10
117.145450
20
7.365125
30
0.0
40
0.500000
50
90.000000
51
144.745828
0
LINE
8
0
10
117.145450
20
7.865125
30
0.0
11
160.443545
21
7.865125
31
0.0
0
ARC
8
0
10
160.443545
20
7.365125
30
0.0
40
0.500000
50
35.254172
51
90.000000
0
LINE
8
0
10
160.851845
20
7.653728
30
0.0
11
162.733284
21
4.991964
31
0.0
0
ARC
8
0
10
162.978264
20
5.165125
30
0.0
40
0.300000
50
215.254172
51
270.000000
0
LINE
8
0
10
162.978264
20
4.865125
30
0.0
11
163.406498
21
4.865125
31
0.0
0
ARC
8
0
10
163.406498
20
6.065125
30
0.0
40
1.200000
50
270.000000
51
299.981639
0
LINE
8
0
10
164.006165
20
5.025703
30
0.0
11
165.588108
21
5.938362
31
0.0
0
ARC
8
0
10
165.688053
20
5.765125
30
0.0
40
0.200000
50
90.000000
51
119.981639
0
LINE
8
0
10
165.688053
20
5.965125
30
0.0
11
165.894497
21
5.965125
31
0.0
0
ARC
8
0
10
165.894497
20
5.565125
30
0.0
40
0.400000
50
0.000000
51
90.000000
0
LINE
8
0
10
166.294497
20
5.565125
30
0.0
11
166.294497
21
2.165125
31
0.0
0
ARC
8
0
10
165.894497
20
2.165125
30
0.0
40
0.400000
50
270.000000
51
0.000000
0
LINE
8
0
10
165.894497
20
1.765125
30
0.0
11
165.688053
21
1.765125
31
0.0
0
ARC
8
0
10
165.688053
20
1.965125
30
0.0
40
0.200000
50
240.018361
51
270.000000
0
LINE
8
0
10
165.588108
20
1.791888
30
0.0
11
164.006165
21
2.704548
31
0.0
0
ARC
8
0
10
163.406498
20
1.665125
30
0.0
40
1.200000
50
60.018361
51
90.000000
0
LINE
8
0
10
163.406498
20
2.865125
30
0.0
11
162.305187
21
2.865125
31
0.0
0
ARC
8
0
10
162.305187
20
3.865125
30
0.0
40
1.000000
50
215.254172
51
270.000000
0
LINE
8
0
10
161.488588
20
3.287921
30
0.0
11
159.965767
21
5.442330
31
0.0
0
ARC
8
0
10
159.149167
20
4.865125
30
0.0
40
1.000000
50
35.254172
51
90.000000
0
LINE
8
0
10
159.149167
20
5.865125
30
0.0
11
156.844497
21
5.865125
31
0.0
0
ARC
8
0
10
156.844497
20
5.565125
30
0.0
40
0.300000
50
90.000000
51
180.000000
0
LINE
8
0
10
156.544497
20
5.565125
30
0.0
11
156.544497
21
1.765125
31
0.0
0
ARC
8
0
10
156.044497
20
1.765125
30
0.0
40
0.500000
50
180.000000
51
0.000000
0
LINE
8
0
10
155.544497
20
1.765125
30
0.0
11
155.544497
21
5.565125
31
0.0
0
ARC
8
0
10
155.244497
20
5.565125
30
0.0
40
0.300000
50
0.000000
51
90.000000
0
LINE
8
0
10
155.244497
20
5.865125
30
0.0
11
145.344497
21
5.865125
31
0.0
0
ARC
8
0
10
145.344497
20
5.565125
30
0.0
40
0.300000
50
90.000000
51
180.000000
0
LINE
8
0
10
145.044497
20
5.565125
30
0.0
11
145.044497
21
1.765125
31
0.0
0
ARC
8
0
10
144.544497
20
1.765125
30
0.0
40
0.500000
50
180.000000
51
0.000000
0
LINE
8
0
10
144.044497
20
1.765125
30
0.0
11
144.044497
21
5.565125
31
0.0
0
ARC
8
0
10
143.744497
20
5.565125
30
0.0
40
0.300000
50
0.000000
51
90.000000
0
ARC
8
0
10
170.906381
20
20.800005
30
0.0
40
0.300000
50
2.000000
51
90.000000
0
LINE
8
0
10
171.206198
20
20.810475
30
0.0
11
171.352622
21
16.617455
31
0.0
0
ARC
8
0
10
170.852926
20
16.600005
30
0.0
40
0.500000
50
270.000000
51
2.000000
0
LINE
8
0
10
170.852926
20
16.100005
30
0.0
11
170.636717
21
16.100005
31
0.0
0
ARC
8
0
10
170.636717
20
15.600005
30
0.0
40
0.500000
50
90.000000
51
210.000000
0
LINE
8
0
10
170.203704
20
15.350005
30
0.0
11
171.358405
21
13.350005
31
0.0
0
ARC
8
0
10
171.791418
20
13.600005
30
0.0
40
0.500000
50
210.000000
51
270.000000
0
LINE
8
0
10
171.791418
20
13.100005
30
0.0
11
177.188065
21
13.100005
31
0.0
0
LINE
8
0
10
177.188065
20
13.100005
30
0.0
11
177.488065
21
12.800005
31
0.0
0
LINE
8
0
10
177.488065
20
12.800005
30
0.0
11
177.788065
21
13.100005
31
0.0
0
LINE
8
0
10
177.788065
20
13.100005
30
0.0
11
183.200758
21
13.100005
31
0.0
0
ARC
8
0
10
183.200758
20
13.600005
30
0.0
40
0.500000
50
270.000000
51
330.000000
0
LINE
8
0
10
183.633771
20
13.350005
30
0.0
11
184.788471
21
15.350005
31
0.0
0
ARC
8
0
10
184.355459
20
15.600005
30
0.0
40
0.500000
50
330.000000
51
90.000000
0
LINE
8
0
10
184.355459
20
16.100005
30
0.0
11
184.139249
21
16.100005
31
0.0
0
ARC
8
0
10
184.139249
20
16.600005
30
0.0
40
0.500000
50
178.000000
51
270.000000
0
LINE
8
0
10
183.639554
20
16.617455
30
0.0
11
183.785977
21
20.810475
31
0.0
0
ARC
8
0
10
184.085794
20
20.800005
30
0.0
40
0.300000
50
90.000000
51
178.000000
0
LINE
8
0
10
184.085794
20
21.100005
30
0.0
11
186.496088
21
21.100005
31
0.0
0
ARC
8
0
10
186.496088
20
21.400005
30
0.0
40
0.300000
50
270.000000
51
0.000000
0
LINE
8
0
10
186.796088
20
21.400005
30
0.0
11
186.796088
21
24.700005
31
0.0
0
ARC
8
0
10
187.096088
20
24.700005
30
0.0
40
0.300000
50
90.000000
51
180.000000
0
LINE
8
0
10
187.096088
20
25.000005
30
0.0
11
198.996088
21
25.000005
31
0.0
0
ARC
8
0
10
198.996088
20
24.000005
30
0.0
40
1.000000
50
0.000000
51
90.000000
0
LINE
8
0
10
199.996088
20
24.000005
30
0.0
11
199.996088
21
0.300005
31
0.0
0
ARC
8
0
10
199.696088
20
0.300005
30
0.0
40
0.300000
50
270.000000
51
0.000000
0
LINE
8
0
10
199.696088
20
0.000005
30
0.0
11
198.696088
21
0.000005
31
0.0
0
ARC
8
0
10
198.696088
20
0.300005
30
0.0
40
0.300000
50
180.000000
51
270.000000
0
LINE
8
0
10
198.396088
20
0.300005
30
0.0
11
198.396088
21
0.700005
31
0.0
0
ARC
8
0
10
198.096088
20
0.700005
30
0.0
40
0.300000
50
0.000000
51
90.000000
0
LINE
8
0
10
198.096088
20
1.000005
30
0.0
11
182.696088
21
1.000005
31
0.0
0
ARC
8
0
10
182.696088
20
0.700005
30
0.0
40
0.300000
50
90.000000
51
180.000000
0
LINE
8
0
10
182.396088
20
0.700005
30
0.0
11
182.396088
21
0.300005
31
0.0
0
ARC
8
0
10
182.096088
20
0.300005
30
0.0
40
0.300000
50
270.000000
51
0.000000
0
LINE
8
0
10
182.096088
20
0.000005
30
0.0
11
181.096088
21
0.000005
31
0.0
0
ARC
8
0
10
181.096088
20
0.300005
30
0.0
40
0.300000
50
180.000000
51
270.000000
0
LINE
8
0
10
180.796088
20
0.300005
30
0.0
11
180.796088
21
0.700005
31
0.0
0
ARC
8
0
10
180.496088
20
0.700005
30
0.0
40
0.300000
50
0.000000
51
90.000000
0
LINE
8
0
10
180.496088
20
1.000005
30
0.0
11
168.096088
21
1.000005
31
0.0
0
ARC
8
0
10
168.096088
20
0.700005
30
0.0
40
0.300000
50
90.000000
51
180.000000
0
LINE
8
0
10
167.796088
20
0.700005
30
0.0
11
167.796088
21
0.300005
31
0.0
0
ARC
8
0
10
167.496088
20
0.300005
30
0.0
40
0.300000
50
270.000000
51
0.000000
0
LINE
8
0
10
167.496088
20
0.000005
30
0.0
11
166.028147
21
0.000005
31
0.0
0
ARC
8
0
10
166.028147
20
0.300005
30
0.0
40
0.300000
50
250.221829
51
270.000000
0
LINE
8
0
10
165.926633
20
0.017702
30
0.0
11
164.624771
21
0.485842
31
0.0
0
ARC
8
0
10
164.545252
20
0.264704
30
0.0
40
0.235000
50
70.221829
51
156.000000
0
ARC
8
0
10
164.109317
20
0.441118
30
0.0
40
0.235000
50
270.000000
51
336.000000
0
LINE
8
0
10
164.110873
20
0.206123
30
0.0
11
162.531945
21
0.195666
31
0.0
0
ARC
8
0
10
162.529958
20
0.495659
30
0.0
40
0.300000
50
155.379459
51
270.000000
0
LINE
8
0
10
162.257232
20
0.620641
30
0.0
11
163.205882
21
2.726157
31
0.0
0
ARC
8
0
10
163.479402
20
2.602921
30
0.0
40
0.300000
50
115.379459
51
155.745828
0
LINE
8
0
10
163.350818
20
2.873968
30
0.0
11
163.858241
21
3.114687
31
0.0
0
ARC
8
0
10
163.943964
20
2.933989
30
0.0
40
0.200000
50
355.379459
51
115.379459
0
LINE
8
0
10
164.143314
20
2.917878
30
0.0
11
164.134012
21
2.802783
31
0.0
0
ARC
8
0
10
164.433037
20
2.778616
30
0.0
40
0.300000
50
175.379459
51
235.379459
0
LINE
8
0
10
164.262595
20
2.531736
30
0.0
11
165.891352
21
1.407270
31
0.0
0
LINE
8
0
10
165.891352
20
1.407270
30
0.0
11
166.074061
21
1.325923
31
0.0
0
ARC
8
0
10
166.196063
20
1.600005
30
0.0
40
0.300009
50
246.004713
51
48.187329
0
ARC
8
0
10
166.596088
20
2.047210
30
0.0
40
0.300000
50
180.000000
51
228.187329
0
LINE
8
0
10
166.296088
20
2.047210
30
0.0
11
166.296088
21
5.799996
31
0.0
0
ARC
8
0
10
165.994739
20
5.798645
30
0.0
40
0.301352
50
0.000000
51
90.000000
0
LINE
8
0
10
165.995299
20
6.099996
30
0.0
11
165.948889
21
6.099996
31
0.0
0
ARC
8
0
10
165.948889
20
5.799996
30
0.0
40
0.300000
50
90.000000
51
120.000000
0
LINE
8
0
10
165.798889
20
6.059804
30
0.0
11
164.031901
21
5.039633
31
0.0
0
ARC
8
0
10
163.881901
20
5.299441
30
0.0
40
0.300000
50
270.000000
51
300.000000
0
LINE
8
0
10
163.881901
20
4.999441
30
0.0
11
163.517549
21
4.999441
31
0.0
0
ARC
8
0
10
163.517549
20
5.999441
30
0.0
40
1.000000
50
214.261170
51
270.000000
0
LINE
8
0
10
162.691069
20
5.436475
30
0.0
11
161.649553
21
6.965505
31
0.0
0
ARC
8
0
10
161.895299
20
7.137578
30
0.0
40
0.300000
50
180.000000
51
215.000010
0
LINE
8
0
10
161.595299
20
7.137578
30
0.0
11
161.595299
21
7.500000
31
0.0
0
ARC
8
0
10
161.895299
20
7.500000
30
0.0
40
0.300000
50
90.000000
51
180.000000
0
LINE
8
0
10
161.895299
20
7.800000
30
0.0
11
169.496112
21
7.800000
31
0.0
0
ARC
8
0
10
169.496112
20
8.100000
30
0.0
40
0.300000
50
270.000000
51
0.000000
0
LINE
8
0
10
169.796112
20
8.100000
30
0.0
11
169.796112
21
12.975590
31
0.0
0
ARC
8
0
10
169.496112
20
12.975590
30
0.0
40
0.300000
50
0.000000
51
30.000000
0
LINE
8
0
10
169.755920
20
13.125590
30
0.0
11
168.904666
21
14.600005
31
0.0
0
ARC
8
0
10
170.636717
20
15.600005
30
0.0
40
2.000000
50
122.643077
51
210.000000
0
ARC
8
0
10
169.396088
20
17.536714
30
0.0
40
0.300000
50
302.643077
51
0.000000
0
LINE
8
0
10
169.696088
20
17.536714
30
0.0
11
169.696088
21
19.300005
31
0.0
0
ARC
8
0
10
169.396088
20
19.300005
30
0.0
40
0.300000
50
0.000000
51
90.000000
0
LINE
8
0
10
169.396088
20
19.600005
30
0.0
11
166.996088
21
19.600005
31
0.0
0
ARC
8
0
10
166.996088
20
19.900005
30
0.0
40
0.300000
50
180.000000
51
270.000000
0
LINE
8
0
10
166.696088
20
19.900005
30
0.0
11
166.696088
21
21.775741
31
0.0
0
ARC
8
0
10
166.996088
20
21.775741
30
0.0
40
0.300000
50
135.000000
51
180.000000
0
LINE
8
0
10
166.783956
20
21.987873
30
0.0
11
167.008220
21
22.212137
31
0.0
0
ARC
8
0
10
167.220352
20
22.000005
30
0.0
40
0.300000
50
90.000000
51
135.000000
0
LINE
8
0
10
167.220352
20
22.300005
30
0.0
11
167.896088
21
22.300005
31
0.0
0
ARC
8
0
10
167.896088
20
22.000005
30
0.0
40
0.300000
50
0.000000
51
90.000000
0
LINE
8
0
10
168.196088
20
22.000005
30
0.0
11
168.196088
21
21.400005
31
0.0
0
ARC
8
0
10
168.496088
20
21.400005
30
0.0
40
0.300000
50
180.000000
51
270.000000
0
LINE
8
0
10
168.496088
20
21.100005
30
0.0
11
170.906381
21
21.100005
31
0.0
0
LINE
8
0
10
179.388122
20
10.411156
30
0.0
11
179.117832
21
10.280991
31
0.0
0
ARC
8
0
10
177.496088
20
9.500000
30
0.0
40
1.800000
50
25.714286
51
68.571429
0
LINE
8
0
10
178.153702
20
11.175573
30
0.0
11
178.263304
21
11.454835
31
0.0
0
ARC
8
0
10
177.496088
20
9.500000
30
0.0
40
2.100000
50
68.571429
51
111.428571
0
LINE
8
0
10
176.728872
20
11.454835
30
0.0
11
176.838474
21
11.175573
31
0.0
0
ARC
8
0
10
177.496088
20
9.500000
30
0.0
40
1.800000
50
111.428571
51
154.285714
0
LINE
8
0
10
175.874344
20
10.280991
30
0.0
11
175.604053
21
10.411156
31
0.0
0
ARC
8
0
10
177.496088
20
9.500000
30
0.0
40
2.100000
50
154.285714
51
197.142857
0
LINE
8
0
10
175.489385
20
8.881014
30
0.0
11
175.776057
21
8.969440
31
0.0
0
ARC
8
0
10
177.496088
20
9.500000
30
0.0
40
1.800000
50
197.142857
51
224.728071
0
ARC
8
0
10
176.004133
20
8.022140
30
0.0
40
0.300000
50
270.000000
51
44.728071
0
LINE
8
0
10
176.004133
20
7.722140
30
0.0
11
175.225640
21
7.722140
31
0.0
0
ARC
8
0
10
175.225640
20
8.722140
30
0.0
40
1.000000
50
198.911563
51
270.000000
0
ARC
8
0
10
177.496088
20
9.500000
30
0.0
40
3.400000
50
154.377876
51
198.911563
0
ARC
8
0
10
174.159925
20
11.100005
30
0.0
40
0.300000
50
334.377876
51
90.000000
0
LINE
8
0
10
174.159925
20
11.400005
30
0.0
11
171.735679
21
11.400005
31
0.0
0
ARC
8
0
10
171.735679
20
10.900005
30
0.0
40
0.500000
50
90.000000
51
180.000000
0
LINE
8
0
10
171.235679
20
10.900005
30
0.0
11
171.235679
21
7.300000
31
0.0
0
ARC
8
0
10
170.235679
20
7.300000
30
0.0
40
1.000000
50
270.000000
51
0.000000
0
LINE
8
0
10
170.235679
20
6.300000
30
0.0
11
168.096088
21
6.300000
31
0.0
0
ARC
8
0
10
168.096088
20
6.000000
30
0.0
40
0.300000
50
90.000000
51
180.000000
0
LINE
8
0
10
167.796088
20
6.000000
30
0.0
11
167.796088
21
2.800005
31
0.0
0
ARC
8
0
10
168.096088
20
2.800005
30
0.0
40
0.300000
50
180.000000
51
270.000000
0
LINE
8
0
10
168.096088
20
2.500005
30
0.0
11
198.196088
21
2.500005
31
0.0
0
ARC
8
0
10
198.196088
20
2.800005
30
0.0
40
0.300000
50
270.000000
51
0.000000
0
LINE
8
0
10
198.496088
20
2.800005
30
0.0
11
198.496088
21
23.200005
31
0.0
0
ARC
8
0
10
198.196088
20
23.200005
30
0.0
40
0.300000
50
0.000000
51
90.000000
0
LINE
8
0
10
198.196088
20
23.500005
30
0.0
11
188.596088
21
23.500005
31
0.0
0
ARC
8
0
10
188.596088
20
23.200005
30
0.0
40
0.300000
50
90.000000
51
180.000000
0
LINE
8
0
10
188.296088
20
23.200005
30
0.0
11
188.296088
21
20.100005
31
0.0
0
ARC
8
0
10
187.796088
20
20.100005
30
0.0
40
0.500000
50
270.000000
51
0.000000
0
LINE
8
0
10
187.796088
20
19.600005
30
0.0
11
185.596088
21
19.600005
31
0.0
0
ARC
8
0
10
185.596088
20
19.300005
30
0.0
40
0.300000
50
90.000000
51
180.000000
0
LINE
8
0
10
185.296088
20
19.300005
30
0.0
11
185.296088
21
17.536714
31
0.0
0
ARC
8
0
10
185.596088
20
17.536714
30
0.0
40
0.300000
50
180.000000
51
237.356923
0
ARC
8
0
10
184.355459
20
15.600005
30
0.0
40
2.000000
50
330.000000
51
57.356923
0
LINE
8
0
10
186.087509
20
14.600005
30
0.0
11
184.528664
21
11.900005
31
0.0
0
ARC
8
0
10
183.662638
20
12.400005
30
0.0
40
1.000000
50
270.000000
51
330.000000
0
LINE
8
0
10
183.662638
20
11.400005
30
0.0
11
180.832251
21
11.400005
31
0.0
0
ARC
8
0
10
180.832251
20
11.100005
30
0.0
40
0.300000
50
90.000000
51
205.622124
0
ARC
8
0
10
177.496088
20
9.500000
30
0.0
40
3.400000
50
341.088437
51
25.622124
0
ARC
8
0
10
179.766536
20
8.722140
30
0.0
40
1.000000
50
270.000000
51
341.088437
0
LINE
8
0
10
179.766536
20
7.722140
30
0.0
11
178.988043
21
7.722140
31
0.0
0
ARC
8
0
10
178.988043
20
8.022140
30
0.0
40
0.300000
50
135.271929
51
270.000000
0
ARC
8
0
10
177.496088
20
9.500000
30
0.0
40
1.800000
50
315.271929
51
342.857143
0
LINE
8
0
10
179.216119
20
8.969440
30
0.0
11
179.502791
21
8.881014
31
0.0
0
ARC
8
0
10
177.496088
20
9.500000
30
0.0
40
2.100000
50
342.857143
51
25.714286
0
LINE
8
0
10
104.545830
20
5.800000
30
0.0
11
93.096903
21
5.800000
31
0.0
0
ARC
8
0
10
93.096903
20
5.500000
30
0.0
40
0.300000
50
90.000000
51
180.000000
0
LINE
8
0
10
92.796903
20
5.500000
30
0.0
11
92.796903
21
4.600000
31
0.0
0
ARC
8
0
10
93.096903
20
4.600000
30
0.0
40
0.300000
50
180.000000
51
270.000000
0
LINE
8
0
10
93.096903
20
4.300000
30
0.0
11
103.045830
21
4.300000
31
0.0
0
ARC
8
0
10
103.045830
20
3.800000
30
0.0
40
0.500000
50
0.000000
51
90.000000
0
LINE
8
0
10
103.545830
20
3.800000
30
0.0
11
103.545830
21
2.000000
31
0.0
0
ARC
8
0
10
105.545830
20
2.000000
30
0.0
40
2.000000
50
180.000000
51
270.000000
0
LINE
8
0
10
105.545830
20
0.000000
30
0.0
11
111.518403
21
0.000000
31
0.0
0
LINE
8
0
10
111.518403
20
0.000000
30
0.0
11
111.594867
21
0.009908
31
0.0
0
LINE
8
0
10
111.594867
20
0.009908
30
0.0
11
112.557070
21
0.263531
31
0.0
0
ARC
8
0
10
112.646791
20
-0.022739
30
0.0
40
0.300000
50
29.632658
51
107.401721
0
ARC
8
0
10
113.081397
20
0.224480
30
0.0
40
0.200000
50
209.632658
51
270.000000
0
LINE
8
0
10
113.082800
20
0.024485
30
0.0
11
114.633894
21
0.024485
31
0.0
0
ARC
8
0
10
114.633894
20
0.324485
30
0.0
40
0.300000
50
270.000000
51
17.401721
0
LINE
8
0
10
114.920163
20
0.414206
30
0.0
11
114.318199
21
2.334874
31
0.0
0
ARC
8
0
10
113.554814
20
2.095619
30
0.0
40
0.800000
50
17.401721
51
62.401721
0
LINE
8
0
10
113.925429
20
2.804593
30
0.0
11
113.644359
21
2.951522
31
0.0
0
ARC
8
0
10
113.551705
20
2.774279
30
0.0
40
0.200000
50
62.401721
51
180.000000
0
LINE
8
0
10
113.351881
20
2.765897
30
0.0
11
113.363978
21
2.477476
31
0.0
0
LINE
8
0
10
113.363978
20
2.477476
30
0.0
11
111.655881
21
1.393413
31
0.0
0
ARC
8
0
10
111.334370
20
1.900000
30
0.0
40
0.600000
50
270.000000
51
302.401721
0
LINE
8
0
10
111.334370
20
1.300000
30
0.0
11
111.296088
21
1.300000
31
0.0
0
ARC
8
0
10
111.396088
20
1.582842
30
0.0
40
0.300000
50
109.471221
51
250.528779
0
LINE
8
0
10
111.296088
20
1.865685
30
0.0
11
111.296088
21
5.900000
31
0.0
0
ARC
8
0
10
111.596088
20
5.900000
30
0.0
40
0.300000
50
90.000000
51
180.000000
0
LINE
8
0
10
111.596088
20
6.200000
30
0.0
11
111.815703
21
6.200000
31
0.0
0
ARC
8
0
10
111.815703
20
5.900000
30
0.0
40
0.300000
50
60.000000
51
90.000000
0
LINE
8
0
10
111.965703
20
6.159807
30
0.0
11
113.496088
21
5.226239
31
0.0
0
ARC
8
0
10
113.596088
20
5.399444
30
0.0
40
0.200000
50
240.000000
51
270.000000
0
LINE
8
0
10
113.596088
20
5.199444
30
0.0
11
114.339907
21
5.199444
31
0.0
0
ARC
8
0
10
114.339907
20
5.699444
30
0.0
40
0.500000
50
270.000000
51
324.999990
0
LINE
8
0
10
114.749483
20
5.412656
30
0.0
11
115.941833
21
7.165509
31
0.0
0
ARC
8
0
10
115.696088
20
7.337582
30
0.0
40
0.300000
50
324.999990
51
0.000000
0
LINE
8
0
10
115.996088
20
7.337582
30
0.0
11
115.996088
21
7.500000
31
0.0
0
ARC
8
0
10
115.696088
20
7.500000
30
0.0
40
0.300000
50
0.000000
51
90.000000
0
LINE
8
0
10
115.696088
20
7.800000
30
0.0
11
109.995830
21
7.800000
31
0.0
0
ARC
8
0
10
109.995830
20
7.300000
30
0.0
40
0.500000
50
90.000000
51
180.000000
0
LINE
8
0
10
109.495830
20
7.300000
30
0.0
11
109.495830
21
2.000000
31
0.0
0
ARC
8
0
10
108.995830
20
2.000000
30
0.0
40
0.500000
50
270.000000
51
0.000000
0
LINE
8
0
10
108.995830
20
1.500000
30
0.0
11
105.545830
21
1.500000
31
0.0
0
ARC
8
0
10
105.545830
20
2.000000
30
0.0
40
0.500000
50
180.000000
51
270.000000
0
LINE
8
0
10
105.045830
20
2.000000
30
0.0
11
105.045830
21
5.300000
31
0.0
0
ARC
8
0
10
104.545830
20
5.300000
30
0.0
40
0.500000
50
0.000000
51
90.000000
0
LINE
8
0
10
66.150000
20
5.865124
30
0.0
11
56.250000
21
5.865124
31
0.0
0
ARC
8
0
10
56.250000
20
5.565124
30
0.0
40
0.300000
50
90.000000
51
180.000000
0
LINE
8
0
10
55.950000
20
5.565124
30
0.0
11
55.950000
21
1.765124
31
0.0
0
ARC
8
0
10
55.450000
20
1.765124
30
0.0
40
0.500000
50
180.000000
51
0.000000
0
LINE
8
0
10
54.950000
20
1.765124
30
0.0
11
54.950000
21
5.565124
31
0.0
0
ARC
8
0
10
54.650000
20
5.565124
30
0.0
40
0.300000
50
0.000000
51
90.000000
0
LINE
8
0
10
54.650000
20
5.865124
30
0.0
11
44.750000
21
5.865124
31
0.0
0
ARC
8
0
10
44.750000
20
5.565124
30
0.0
40
0.300000
50
90.000000
51
180.000000
0
LINE
8
0
10
44.450000
20
5.565124
30
0.0
11
44.450000
21
1.765124
31
0.0
0
ARC
8
0
10
43.950000
20
1.765124
30
0.0
40
0.500000
50
180.000000
51
0.000000
0
LINE
8
0
10
43.450000
20
1.765124
30
0.0
11
43.450000
21
5.565124
31
0.0
0
ARC
8
0
10
43.150000
20
5.565124
30
0.0
40
0.300000
50
0.000000
51
90.000000
0
LINE
8
0
10
43.150000
20
5.865124
30
0.0
11
40.845330
21
5.865124
31
0.0
0
ARC
8
0
10
40.845330
20
4.865124
30
0.0
40
1.000000
50
90.000000
51
144.745828
0
LINE
8
0
10
40.028731
20
5.442329
30
0.0
11
38.505910
21
3.287920
31
0.0
0
ARC
8
0
10
37.689310
20
3.865124
30
0.0
40
1.000000
50
270.000000
51
324.745828
0
LINE
8
0
10
37.689310
20
2.865124
30
0.0
11
36.588000
21
2.865124
31
0.0
0
ARC
8
0
10
36.588000
20
1.665124
30
0.0
40
1.200000
50
90.000000
51
119.981639
0
LINE
8
0
10
35.988333
20
2.704547
30
0.0
11
34.406389
21
1.791887
31
0.0
0
ARC
8
0
10
34.306445
20
1.965124
30
0.0
40
0.200000
50
270.000000
51
299.981639
0
LINE
8
0
10
34.306445
20
1.765124
30
0.0
11
34.100000
21
1.765124
31
0.0
0
ARC
8
0
10
34.100000
20
2.165124
30
0.0
40
0.400000
50
180.000000
51
270.000000
0
LINE
8
0
10
33.700000
20
2.165124
30
0.0
11
33.700000
21
5.565124
31
0.0
0
ARC
8
0
10
34.100000
20
5.565124
30
0.0
40
0.400000
50
90.000000
51
180.000000
0
LINE
8
0
10
34.100000
20
5.965124
30
0.0
11
34.306445
21
5.965124
31
0.0
0
ARC
8
0
10
34.306445
20
5.765124
30
0.0
40
0.200000
50
60.018361
51
90.000000
0
LINE
8
0
10
34.406389
20
5.938361
30
0.0
11
35.988333
21
5.025702
31
0.0
0
ARC
8
0
10
36.588000
20
6.065124
30
0.0
40
1.200000
50
240.018361
51
270.000000
0
LINE
8
0
10
36.588000
20
4.865124
30
0.0
11
37.016234
21
4.865124
31
0.0
0
ARC
8
0
10
37.016234
20
5.165124
30
0.0
40
0.300000
50
270.000000
51
324.745828
0
LINE
8
0
10
37.261214
20
4.991963
30
0.0
11
39.142653
21
7.653727
31
0.0
0
ARC
8
0
10
39.550953
20
7.365124
30
0.0
40
0.500000
50
90.000000
51
144.745828
0
LINE
8
0
10
39.550953
20
7.865124
30
0.0
11
82.849048
21
7.865124
31
0.0
0
ARC
8
0
10
82.849048
20
7.365124
30
0.0
40
0.500000
50
35.254172
51
90.000000
0
LINE
8
0
10
83.257347
20
7.653727
30
0.0
11
85.138787
21
4.991963
31
0.0
0
ARC
8
0
10
85.383767
20
5.165124
30
0.0
40
0.300000
50
215.254172
51
270.000000
0
LINE
8
0
10
85.383767
20
4.865124
30
0.0
11
85.812001
21
4.865124
31
0.0
0
ARC
8
0
10
85.812001
20
6.065124
30
0.0
40
1.200000
50
270.000000
51
299.981639
0
LINE
8
0
10
86.411667
20
5.025702
30
0.0
11
87.993611
21
5.938361
31
0.0
0
ARC
8
0
10
88.093556
20
5.765124
30
0.0
40
0.200000
50
90.000000
51
119.981639
0
LINE
8
0
10
88.093556
20
5.965124
30
0.0
11
88.300000
21
5.965124
31
0.0
0
ARC
8
0
10
88.300000
20
5.565124
30
0.0
40
0.400000
50
0.000000
51
90.000000
0
LINE
8
0
10
88.700000
20
5.565124
30
0.0
11
88.700000
21
2.165124
31
0.0
0
ARC
8
0
10
88.300000
20
2.165124
30
0.0
40
0.400000
50
270.000000
51
0.000000
0
LINE
8
0
10
88.300000
20
1.765124
30
0.0
11
88.093556
21
1.765124
31
0.0
0
ARC
8
0
10
88.093556
20
1.965124
30
0.0
40
0.200000
50
240.018361
51
270.000000
0
LINE
8
0
10
87.993611
20
1.791887
30
0.0
11
86.411667
21
2.704547
31
0.0
0
ARC
8
0
10
85.812001
20
1.665124
30
0.0
40
1.200000
50
60.018361
51
90.000000
0
LINE
8
0
10
85.812001
20
2.865124
30
0.0
11
84.710690
21
2.865124
31
0.0
0
ARC
8
0
10
84.710690
20
3.865124
30
0.0
40
1.000000
50
215.254172
51
270.000000
0
LINE
8
0
10
83.894091
20
3.287920
30
0.0
11
82.371269
21
5.442329
31
0.0
0
ARC
8
0
10
81.554670
20
4.865124
30
0.0
40
1.000000
50
35.254172
51
90.000000
0
LINE
8
0
10
81.554670
20
5.865124
30
0.0
11
79.250000
21
5.865124
31
0.0
0
ARC
8
0
10
79.250000
20
5.565124
30
0.0
40
0.300000
50
90.000000
51
180.000000
0
LINE
8
0
10
78.950000
20
5.565124
30
0.0
11
78.950000
21
1.765124
31
0.0
0
ARC
8
0
10
78.450000
20
1.765124
30
0.0
40
0.500000
50
180.000000
51
0.000000
0
LINE
8
0
10
77.950000
20
1.765124
30
0.0
11
77.950000
21
5.565124
31
0.0
0
ARC
8
0
10
77.650000
20
5.565124
30
0.0
40
0.300000
50
0.000000
51
90.000000
0
LINE
8
0
10
77.650000
20
5.865124
30
0.0
11
67.750000
21
5.865124
31
0.0
0
ARC
8
0
10
67.750000
20
5.565124
30
0.0
40
0.300000
50
90.000000
51
180.000000
0
LINE
8
0
10
67.450000
20
5.565124
30
0.0
11
67.450000
21
1.765124
31
0.0
0
ARC
8
0
10
66.950000
20
1.765124
30
0.0
40
0.500000
50
180.000000
51
0.000000
0
LINE
8
0
10
66.450000
20
1.765124
30
0.0
11
66.450000
21
5.565124
31
0.0
0
ARC
8
0
10
66.150000
20
5.565124
30
0.0
40
0.300000
50
0.000000
51
90.000000
0
ARC
8
0
10
29.089707
20
20.800005
30
0.0
40
0.300000
50
90.000000
51
178.000000
0
LINE
8
0
10
28.789890
20
20.810474
30
0.0
11
28.643466
21
16.617454
31
0.0
0
ARC
8
0
10
29.143161
20
16.600005
30
0.0
40
0.500000
50
178.000000
51
270.000000
0
LINE
8
0
10
29.143161
20
16.100005
30
0.0
11
29.359371
21
16.100005
31
0.0
0
ARC
8
0
10
29.359371
20
15.600005
30
0.0
40
0.500000
50
330.000000
51
90.000000
0
LINE
8
0
10
29.792384
20
15.350005
30
0.0
11
28.637683
21
13.350005
31
0.0
0
ARC
8
0
10
28.204670
20
13.600005
30
0.0
40
0.500000
50
270.000000
51
330.000000
0
LINE
8
0
10
28.204670
20
13.100005
30
0.0
11
22.808023
21
13.100005
31
0.0
0
LINE
8
0
10
22.808023
20
13.100005
30
0.0
11
22.508023
21
12.800005
31
0.0
0
LINE
8
0
10
22.508023
20
12.800005
30
0.0
11
22.208023
21
13.100005
31
0.0
0
LINE
8
0
10
22.208023
20
13.100005
30
0.0
11
16.795330
21
13.100005
31
0.0
0
ARC
8
0
10
16.795330
20
13.600005
30
0.0
40
0.500000
50
210.000000
51
270.000000
0
LINE
8
0
10
16.362317
20
13.350005
30
0.0
11
15.207617
21
15.350005
31
0.0
0
ARC
8
0
10
15.640629
20
15.600005
30
0.0
40
0.500000
50
90.000000
51
210.000000
0
LINE
8
0
10
15.640629
20
16.100005
30
0.0
11
15.856839
21
16.100005
31
0.0
0
ARC
8
0
10
15.856839
20
16.600005
30
0.0
40
0.500000
50
270.000000
51
2.000000
0
LINE
8
0
10
16.356534
20
16.617454
30
0.0
11
16.210111
21
20.810474
31
0.0
0
ARC
8
0
10
15.910293
20
20.800005
30
0.0
40
0.300000
50
2.000000
51
90.000000
0
LINE
8
0
10
15.910293
20
21.100005
30
0.0
11
13.500000
21
21.100005
31
0.0
0
ARC
8
0
10
13.500000
20
21.400005
30
0.0
40
0.300000
50
180.000000
51
270.000000
0
LINE
8
0
10
13.200000
20
21.400005
30
0.0
11
13.200000
21
24.700005
31
0.0
0
ARC
8
0
10
12.900000
20
24.700005
30
0.0
40
0.300000
50
0.000000
51
90.000000
0
LINE
8
0
10
12.900000
20
25.000005
30
0.0
11
1.000000
21
25.000005
31
0.0
0
ARC
8
0
10
1.000000
20
24.000005
30
0.0
40
1.000000
50
90.000000
51
180.000000
0
LINE
8
0
10
0.000000
20
24.000005
30
0.0
11
0.000000
21
0.300005
31
0.0
0
ARC
8
0
10
0.300000
20
0.300005
30
0.0
40
0.300000
50
180.000000
51
270.000000
0
LINE
8
0
10
0.300000
20
0.000005
30
0.0
11
1.300000
21
0.000005
31
0.0
0
ARC
8
0
10
1.300000
20
0.300005
30
0.0
40
0.300000
50
270.000000
51
0.000000
0
LINE
8
0
10
1.600000
20
0.300005
30
0.0
11
1.600000
21
0.700005
31
0.0
0
ARC
8
0
10
1.900000
20
0.700005
30
0.0
40
0.300000
50
90.000000
51
180.000000
0
LINE
8
0
10
1.900000
20
1.000005
30
0.0
11
17.300000
21
1.000005
31
0.0
0
ARC
8
0
10
17.300000
20
0.700005
30
0.0
40
0.300000
50
0.000000
51
90.000000
0
LINE
8
0
10
17.600000
20
0.700005
30
0.0
11
17.600000
21
0.300005
31
0.0
0
ARC
8
0
10
17.900000
20
0.300005
30
0.0
40
0.300000
50
180.000000
51
270.000000
0
LINE
8
0
10
17.900000
20
0.000005
30
0.0
11
18.900000
21
0.000005
31
0.0
0
ARC
8
0
10
18.900000
20
0.300005
30
0.0
40
0.300000
50
270.000000
51
0.000000
0
LINE
8
0
10
19.200000
20
0.300005
30
0.0
11
19.200000
21
0.700005
31
0.0
0
ARC
8
0
10
19.500000
20
0.700005
30
0.0
40
0.300000
50
90.000000
51
180.000000
0
LINE
8
0
10
19.500000
20
1.000005
30
0.0
11
31.900000
21
1.000005
31
0.0
0
ARC
8
0
10
31.900000
20
0.700005
30
0.0
40
0.300000
50
0.000000
51
90.000000
0
LINE
8
0
10
32.200000
20
0.700005
30
0.0
11
32.200000
21
0.300005
31
0.0
0
ARC
8
0
10
32.500000
20
0.300005
30
0.0
40
0.300000
50
180.000000
51
270.000000
0
LINE
8
0
10
32.500000
20
0.000005
30
0.0
11
33.967941
21
0.000005
31
0.0
0
ARC
8
0
10
33.967941
20
0.300005
30
0.0
40
0.300000
50
270.000000
51
289.778171
0
LINE
8
0
10
34.069454
20
0.017702
30
0.0
11
35.371317
21
0.485841
31
0.0
0
ARC
8
0
10
35.450836
20
0.264703
30
0.0
40
0.235000
50
24.000000
51
109.778171
0
ARC
8
0
10
35.886771
20
0.441117
30
0.0
40
0.235000
50
204.000000
51
270.000000
0
LINE
8
0
10
35.885214
20
0.206122
30
0.0
11
37.464143
21
0.195665
31
0.0
0
ARC
8
0
10
37.466130
20
0.495659
30
0.0
40
0.300000
50
270.000000
51
24.620541
0
LINE
8
0
10
37.738856
20
0.620641
30
0.0
11
36.790206
21
2.726156
31
0.0
0
ARC
8
0
10
36.516686
20
2.602920
30
0.0
40
0.300000
50
24.254172
51
64.620541
0
LINE
8
0
10
36.645269
20
2.873967
30
0.0
11
36.137847
21
3.114686
31
0.0
0
ARC
8
0
10
36.052124
20
2.933988
30
0.0
40
0.200000
50
64.620541
51
184.620541
0
LINE
8
0
10
35.852774
20
2.917877
30
0.0
11
35.862076
21
2.802782
31
0.0
0
ARC
8
0
10
35.563051
20
2.778615
30
0.0
40
0.300000
50
304.620541
51
4.620541
0
LINE
8
0
10
35.733493
20
2.531736
30
0.0
11
34.104736
21
1.407270
31
0.0
0
LINE
8
0
10
34.104736
20
1.407270
30
0.0
11
33.922027
21
1.325922
31
0.0
0
ARC
8
0
10
33.800025
20
1.600005
30
0.0
40
0.300009
50
131.812671
51
293.995287
0
ARC
8
0
10
33.400000
20
2.047209
30
0.0
40
0.300000
50
311.812671
51
0.000000
0
LINE
8
0
10
33.700000
20
2.047209
30
0.0
11
33.700000
21
5.799995
31
0.0
0
ARC
8
0
10
34.001349
20
5.798644
30
0.0
40
0.301352
50
90.000000
51
180.000000
0
LINE
8
0
10
34.000789
20
6.099995
30
0.0
11
34.047199
21
6.099995
31
0.0
0
ARC
8
0
10
34.047199
20
5.799995
30
0.0
40
0.300000
50
60.000000
51
90.000000
0
LINE
8
0
10
34.197199
20
6.059803
30
0.0
11
35.964187
21
5.039632
31
0.0
0
ARC
8
0
10
36.114187
20
5.299440
30
0.0
40
0.300000
50
240.000000
51
270.000000
0
LINE
8
0
10
36.114187
20
4.999440
30
0.0
11
36.478539
21
4.999440
31
0.0
0
ARC
8
0
10
36.478539
20
5.999440
30
0.0
40
1.000000
50
270.000000
51
325.738830
0
LINE
8
0
10
37.305019
20
5.436474
30
0.0
11
38.346535
21
6.965504
31
0.0
0
ARC
8
0
10
38.100789
20
7.137577
30
0.0
40
0.300000
50
324.999990
51
0.000000
0
LINE
8
0
10
38.400789
20
7.137577
30
0.0
11
38.400789
21
7.499999
31
0.0
0
ARC
8
0
10
38.100789
20
7.499999
30
0.0
40
0.300000
50
0.000000
51
90.000000
0
LINE
8
0
10
38.100789
20
7.799999
30
0.0
11
30.499975
21
7.799999
31
0.0
0
ARC
8
0
10
30.499975
20
8.099999
30
0.0
40
0.300000
50
180.000000
51
270.000000
0
LINE
8
0
10
30.199975
20
8.099999
30
0.0
11
30.199975
21
12.975590
31
0.0
0
ARC
8
0
10
30.499975
20
12.975590
30
0.0
40
0.300000
50
150.000000
51
180.000000
0
LINE
8
0
10
30.240168
20
13.125590
30
0.0
11
31.091422
21
14.600005
31
0.0
0
ARC
8
0
10
29.359371
20
15.600005
30
0.0
40
2.000000
50
330.000000
51
57.356923
0
ARC
8
0
10
30.600000
20
17.536713
30
0.0
40
0.300000
50
180.000000
51
237.356923
0
LINE
8
0
10
30.300000
20
17.536713
30
0.0
11
30.300000
21
19.300005
31
0.0
0
ARC
8
0
10
30.600000
20
19.300005
30
0.0
40
0.300000
50
90.000000
51
180.000000
0
LINE
8
0
10
30.600000
20
19.600005
30
0.0
11
33.000000
21
19.600005
31
0.0
0
ARC
8
0
10
33.000000
20
19.900005
30
0.0
40
0.300000
50
270.000000
51
0.000000
0
LINE
8
0
10
33.300000
20
19.900005
30
0.0
11
33.300000
21
21.775740
31
0.0
0
ARC
8
0
10
33.000000
20
21.775740
30
0.0
40
0.300000
50
0.000000
51
45.000000
0
LINE
8
0
10
33.212132
20
21.987873
30
0.0
11
32.987868
21
22.212137
31
0.0
0
ARC
8
0
10
32.775736
20
22.000005
30
0.0
40
0.300000
50
45.000000
51
90.000000
0
LINE
8
0
10
32.775736
20
22.300005
30
0.0
11
32.100000
21
22.300005
31
0.0
0
ARC
8
0
10
32.100000
20
22.000005
30
0.0
40
0.300000
50
90.000000
51
180.000000
0
LINE
8
0
10
31.800000
20
22.000005
30
0.0
11
31.800000
21
21.400005
31
0.0
0
ARC
8
0
10
31.500000
20
21.400005
30
0.0
40
0.300000
50
270.000000
51
0.000000
0
LINE
8
0
10
31.500000
20
21.100005
30
0.0
11
29.089707
21
21.100005
31
0.0
0
LINE
8
0
10
20.607966
20
10.411155
30
0.0
11
20.878256
21
10.280990
31
0.0
0
ARC
8
0
10
22.500000
20
9.499999
30
0.0
40
1.800000
50
111.428571
51
154.285714
0
LINE
8
0
10
21.842386
20
11.175572
30
0.0
11
21.732784
21
11.454834
31
0.0
0
ARC
8
0
10
22.500000
20
9.499999
30
0.0
40
2.100000
50
68.571429
51
111.428571
0
LINE
8
0
10
23.267216
20
11.454834
30
0.0
11
23.157614
21
11.175572
31
0.0
0
ARC
8
0
10
22.500000
20
9.499999
30
0.0
40
1.800000
50
25.714286
51
68.571429
0
LINE
8
0
10
24.121744
20
10.280990
30
0.0
11
24.392035
21
10.411155
31
0.0
0
ARC
8
0
10
22.500000
20
9.499999
30
0.0
40
2.100000
50
342.857143
51
25.714286
0
LINE
8
0
10
24.506703
20
8.881013
30
0.0
11
24.220031
21
8.969440
31
0.0
0
ARC
8
0
10
22.500000
20
9.499999
30
0.0
40
1.800000
50
315.271929
51
342.857143
0
ARC
8
0
10
23.991955
20
8.022139
30
0.0
40
0.300000
50
135.271929
51
270.000000
0
LINE
8
0
10
23.991955
20
7.722139
30
0.0
11
24.770448
21
7.722139
31
0.0
0
ARC
8
0
10
24.770448
20
8.722139
30
0.0
40
1.000000
50
270.000000
51
341.088437
0
ARC
8
0
10
22.500000
20
9.499999
30
0.0
40
3.400000
50
341.088437
51
25.622124
0
ARC
8
0
10
25.836163
20
11.100005
30
0.0
40
0.300000
50
90.000000
51
205.622124
0
LINE
8
0
10
25.836163
20
11.400005
30
0.0
11
28.260409
21
11.400005
31
0.0
0
ARC
8
0
10
28.260409
20
10.900005
30
0.0
40
0.500000
50
0.000000
51
90.000000
0
LINE
8
0
10
28.760409
20
10.900005
30
0.0
11
28.760409
21
7.299999
31
0.0
0
ARC
8
0
10
29.760409
20
7.299999
30
0.0
40
1.000000
50
180.000000
51
270.000000
0
LINE
8
0
10
29.760409
20
6.299999
30
0.0
11
31.900000
21
6.299999
31
0.0
0
ARC
8
0
10
31.900000
20
5.999999
30
0.0
40
0.300000
50
0.000000
51
90.000000
0
LINE
8
0
10
32.200000
20
5.999999
30
0.0
11
32.200000
21
2.800005
31
0.0
0
ARC
8
0
10
31.900000
20
2.800005
30
0.0
40
0.300000
50
270.000000
51
0.000000
0
LINE
8
0
10
31.900000
20
2.500005
30
0.0
11
1.800000
21
2.500005
31
0.0
0
ARC
8
0
10
1.800000
20
2.800005
30
0.0
40
0.300000
50
180.000000
51
270.000000
0
LINE
8
0
10
1.500000
20
2.800005
30
0.0
11
1.500000
21
23.200005
31
0.0
0
ARC
8
0
10
1.800000
20
23.200005
30
0.0
40
0.300000
50
90.000000
51
180.000000
0
LINE
8
0
10
1.800000
20
23.500005
30
0.0
11
11.400000
21
23.500005
31
0.0
0
ARC
8
0
10
11.400000
20
23.200005
30
0.0
40
0.300000
50
0.000000
51
90.000000
0
LINE
8
0
10
11.700000
20
23.200005
30
0.0
11
11.700000
21
20.100005
31
0.0
0
ARC
8
0
10
12.200000
20
20.100005
30
0.0
40
0.500000
50
180.000000
51
270.000000
0
LINE
8
0
10
12.200000
20
19.600005
30
0.0
11
14.400000
21
19.600005
31
0.0
0
ARC
8
0
10
14.400000
20
19.300005
30
0.0
40
0.300000
50
0.000000
51
90.000000
0
LINE
8
0
10
14.700000
20
19.300005
30
0.0
11
14.700000
21
17.536713
31
0.0
0
ARC
8
0
10
14.400000
20
17.536713
30
0.0
40
0.300000
50
302.643077
51
0.000000
0
ARC
8
0
10
15.640629
20
15.600005
30
0.0
40
2.000000
50
122.643077
51
210.000000
0
LINE
8
0
10
13.908579
20
14.600005
30
0.0
11
15.467424
21
11.900005
31
0.0
0
ARC
8
0
10
16.333450
20
12.400005
30
0.0
40
1.000000
50
210.000000
51
270.000000
0
LINE
8
0
10
16.333450
20
11.400005
30
0.0
11
19.163837
21
11.400005
31
0.0
0
ARC
8
0
10
19.163837
20
11.100005
30
0.0
40
0.300000
50
334.377876
51
90.000000
0
ARC
8
0
10
22.500000
20
9.499999
30
0.0
40
3.400000
50
154.377876
51
198.911563
0
ARC
8
0
10
20.229552
20
8.722139
30
0.0
40
1.000000
50
198.911563
51
270.000000
0
LINE
8
0
10
20.229552
20
7.722139
30
0.0
11
21.008045
21
7.722139
31
0.0
0
ARC
8
0
10
21.008045
20
8.022139
30
0.0
40
0.300000
50
270.000000
51
44.728071
0
ARC
8
0
10
22.500000
20
9.499999
30
0.0
40
1.800000
50
197.142857
51
224.728071
0
LINE
8
0
10
20.779969
20
8.969440
30
0.0
11
20.493297
21
8.881013
31
0.0
0
ARC
8
0
10
22.500000
20
9.499999
30
0.0
40
2.100000
50
154.285714
51
197.142857
0
LINE
8
0
10
96.182964
20
7.799999
30
0.0
11
94.591974
21
7.799999
31
0.0
0
ARC
8
0
10
94.591974
20
8.299999
30
0.0
40
0.500000
50
180.000000
51
270.000000
0
LINE
8
0
10
94.091974
20
8.299999
30
0.0
11
94.091974
21
12.646625
31
0.0
0
ARC
8
0
10
93.591974
20
12.646625
30
0.0
40
0.500000
50
0.000000
51
30.000000
0
LINE
8
0
10
94.024987
20
12.896625
30
0.0
11
92.608533
21
15.349995
31
0.0
0
ARC
8
0
10
93.041545
20
15.599995
30
0.0
40
0.500000
50
90.000000
51
210.000000
0
LINE
8
0
10
93.041545
20
16.099995
30
0.0
11
93.257755
21
16.099995
31
0.0
0
ARC
8
0
10
93.257755
20
16.599995
30
0.0
40
0.500000
50
270.000000
51
2.000000
0
LINE
8
0
10
93.757450
20
16.617445
30
0.0
11
93.611027
21
20.810465
31
0.0
0
ARC
8
0
10
93.311210
20
20.799995
30
0.0
40
0.300000
50
2.000000
51
90.000000
0
LINE
8
0
10
93.311210
20
21.099995
30
0.0
11
90.900916
21
21.099995
31
0.0
0
ARC
8
0
10
90.900916
20
21.399995
30
0.0
40
0.300000
50
180.000000
51
270.000000
0
LINE
8
0
10
90.600916
20
21.399995
30
0.0
11
90.600916
21
21.999995
31
0.0
0
ARC
8
0
10
90.300916
20
21.999995
30
0.0
40
0.300000
50
0.000000
51
90.000000
0
LINE
8
0
10
90.300916
20
22.299995
30
0.0
11
89.625180
21
22.299995
31
0.0
0
ARC
8
0
10
89.625180
20
21.999995
30
0.0
40
0.300000
50
90.000000
51
135.000000
0
LINE
8
0
10
89.413048
20
22.212127
30
0.0
11
89.188784
21
21.987863
31
0.0
0
ARC
8
0
10
89.400916
20
21.775731
30
0.0
40
0.300000
50
135.000000
51
180.000000
0
LINE
8
0
10
89.100916
20
21.775731
30
0.0
11
89.100916
21
19.899995
31
0.0
0
ARC
8
0
10
89.400916
20
19.899995
30
0.0
40
0.300000
50
180.000000
51
270.000000
0
LINE
8
0
10
89.400916
20
19.599995
30
0.0
11
91.800916
21
19.599995
31
0.0
0
ARC
8
0
10
91.800916
20
19.299995
30
0.0
40
0.300000
50
0.000000
51
90.000000
0
LINE
8
0
10
92.100916
20
19.299995
30
0.0
11
92.100916
21
17.536703
31
0.0
0
ARC
8
0
10
91.800916
20
17.536703
30
0.0
40
0.300000
50
302.643077
51
0.000000
0
ARC
8
0
10
93.041545
20
15.599995
30
0.0
40
2.000000
50
122.643077
51
210.000000
0
LINE
8
0
10
91.309495
20
14.599995
30
0.0
11
92.124987
21
13.187522
31
0.0
0
ARC
8
0
10
91.691974
20
12.937522
30
0.0
40
0.500000
50
0.000000
51
30.000000
0
LINE
8
0
10
92.191974
20
12.937522
30
0.0
11
92.191974
21
8.299999
31
0.0
0
ARC
8
0
10
91.691974
20
8.299999
30
0.0
40
0.500000
50
270.000000
51
0.000000
0
LINE
8
0
10
91.691974
20
7.799999
30
0.0
11
84.299211
21
7.799999
31
0.0
0
ARC
8
0
10
84.299211
20
7.499999
30
0.0
40
0.300000
50
90.000000
51
180.000000
0
LINE
8
0
10
83.999211
20
7.499999
30
0.0
11
83.999211
21
7.137577
31
0.0
0
ARC
8
0
10
84.299211
20
7.137577
30
0.0
40
0.300000
50
180.000000
51
215.000010
0
LINE
8
0
10
84.053465
20
6.965504
30
0.0
11
85.094981
21
5.436474
31
0.0
0
ARC
8
0
10
85.921461
20
5.999440
30
0.0
40
1.000000
50
214.261170
51
270.000000
0
LINE
8
0
10
85.921461
20
4.999440
30
0.0
11
86.285814
21
4.999440
31
0.0
0
ARC
8
0
10
86.285814
20
5.299440
30
0.0
40
0.300000
50
270.000000
51
300.000000
0
LINE
8
0
10
86.435814
20
5.039632
30
0.0
11
88.202801
21
6.059803
31
0.0
0
ARC
8
0
10
88.352801
20
5.799995
30
0.0
40
0.300000
50
90.000000
51
120.000000
0
LINE
8
0
10
88.352801
20
6.099995
30
0.0
11
88.399211
21
6.099995
31
0.0
0
ARC
8
0
10
88.398651
20
5.798644
30
0.0
40
0.301352
50
0.000000
51
90.000000
0
LINE
8
0
10
88.700000
20
5.799995
30
0.0
11
88.700000
21
2.047209
31
0.0
0
ARC
8
0
10
89.000000
20
2.047209
30
0.0
40
0.300000
50
180.000000
51
228.187329
0
ARC
8
0
10
88.599975
20
1.600005
30
0.0
40
0.300009
50
246.004713
51
48.187329
0
LINE
8
0
10
88.477973
20
1.325922
30
0.0
11
88.295264
21
1.407270
31
0.0
0
LINE
8
0
10
88.295264
20
1.407270
30
0.0
11
86.666508
21
2.531736
31
0.0
0
ARC
8
0
10
86.836949
20
2.778615
30
0.0
40
0.300000
50
175.379459
51
235.379459
0
LINE
8
0
10
86.537924
20
2.802782
30
0.0
11
86.547226
21
2.917877
31
0.0
0
ARC
8
0
10
86.347876
20
2.933988
30
0.0
40
0.200000
50
355.379459
51
115.379459
0
LINE
8
0
10
86.262154
20
3.114686
30
0.0
11
85.754731
21
2.873967
31
0.0
0
ARC
8
0
10
85.883314
20
2.602920
30
0.0
40
0.300000
50
115.379459
51
155.745828
0
LINE
8
0
10
85.609795
20
2.726156
30
0.0
11
84.661145
21
0.620641
31
0.0
0
ARC
8
0
10
84.933871
20
0.495659
30
0.0
40
0.300000
50
155.379459
51
270.000000
0
LINE
8
0
10
84.935858
20
0.195665
30
0.0
11
86.514786
21
0.206122
31
0.0
0
ARC
8
0
10
86.513229
20
0.441117
30
0.0
40
0.235000
50
270.000000
51
336.000000
0
ARC
8
0
10
86.949164
20
0.264703
30
0.0
40
0.235000
50
70.221829
51
156.000000
0
LINE
8
0
10
87.028683
20
0.485841
30
0.0
11
88.330546
21
0.017702
31
0.0
0
ARC
8
0
10
88.432060
20
0.300005
30
0.0
40
0.300000
50
250.221829
51
270.000000
0
LINE
8
0
10
88.432060
20
0.000005
30
0.0
11
90.200000
21
0.000005
31
0.0
0
ARC
8
0
10
90.200000
20
0.300005
30
0.0
40
0.300000
50
270.000000
51
0.000000
0
LINE
8
0
10
90.500000
20
0.300005
30
0.0
11
90.500000
21
4.799999
31
0.0
0
ARC
8
0
10
91.500000
20
4.799999
30
0.0
40
1.000000
50
90.000000
51
180.000000
0
LINE
8
0
10
91.500000
20
5.799999
30
0.0
11
104.720293
21
5.799999
31
0.0
0
ARC
8
0
10
104.720293
20
5.499999
30
0.0
40
0.300000
50
0.000000
51
90.000000
0
LINE
8
0
10
105.020293
20
5.499999
30
0.0
11
105.020293
21
3.799999
31
0.0
0
ARC
8
0
10
105.320293
20
3.799999
30
0.0
40
0.300000
50
180.000000
51
270.000000
0
LINE
8
0
10
105.320293
20
3.499999
30
0.0
11
108.770293
21
3.499999
31
0.0
0
ARC
8
0
10
108.770293
20
3.799999
30
0.0
40
0.300000
50
270.000000
51
0.000000
0
LINE
8
0
10
109.070293
20
3.799999
30
0.0
11
109.070293
21
7.299999
31
0.0
0
ARC
8
0
10
108.570293
20
7.299999
30
0.0
40
0.500000
50
0.000000
51
90.000000
0
LINE
8
0
10
108.570293
20
7.799999
30
0.0
11
108.095544
21
7.799999
31
0.0
0
ARC
8
0
10
108.095544
20
8.299999
30
0.0
40
0.500000
50
180.000000
51
270.000000
0
LINE
8
0
10
107.595544
20
8.299999
30
0.0
11
107.595544
21
12.912729
31
0.0
0
ARC
8
0
10
108.095544
20
12.912729
30
0.0
40
0.500000
50
150.000000
51
180.000000
0
LINE
8
0
10
107.662532
20
13.162729
30
0.0
11
108.492338
21
14.599995
31
0.0
0
ARC
8
0
10
106.760287
20
15.599995
30
0.0
40
2.000000
50
330.000000
51
57.356923
0
ARC
8
0
10
108.000916
20
17.536703
30
0.0
40
0.300000
50
180.000000
51
237.356923
0
LINE
8
0
10
107.700916
20
17.536703
30
0.0
11
107.700916
21
19.299995
31
0.0
0
ARC
8
0
10
108.000916
20
19.299995
30
0.0
40
0.300000
50
90.000000
51
180.000000
0
LINE
8
0
10
108.000916
20
19.599995
30
0.0
11
110.400916
21
19.599995
31
0.0
0
ARC
8
0
10
110.400916
20
19.899995
30
0.0
40
0.300000
50
270.000000
51
0.000000
0
LINE
8
0
10
110.700916
20
19.899995
30
0.0
11
110.700916
21
21.775731
31
0.0
0
ARC
8
0
10
110.400916
20
21.775731
30
0.0
40
0.300000
50
0.000000
51
45.000000
0
LINE
8
0
10
110.613048
20
21.987863
30
0.0
11
110.388784
21
22.212127
31
0.0
0
ARC
8
0
10
110.176652
20
21.999995
30
0.0
40
0.300000
50
45.000000
51
90.000000
0
LINE
8
0
10
110.176652
20
22.299995
30
0.0
11
109.500916
21
22.299995
31
0.0
0
ARC
8
0
10
109.500916
20
21.999995
30
0.0
40
0.300000
50
90.000000
51
180.000000
0
LINE
8
0
10
109.200916
20
21.999995
30
0.0
11
109.200916
21
21.399995
31
0.0
0
ARC
8
0
10
108.900916
20
21.399995
30
0.0
40
0.300000
50
270.000000
51
0.000000
0
LINE
8
0
10
108.900916
20
21.099995
30
0.0
11
106.490623
21
21.099995
31
0.0
0
ARC
8
0
10
106.490623
20
20.799995
30
0.0
40
0.300000
50
90.000000
51
178.000000
0
LINE
8
0
10
106.190806
20
20.810465
30
0.0
11
106.044382
21
16.617445
31
0.0
0
ARC
8
0
10
106.544077
20
16.599995
30
0.0
40
0.500000
50
178.000000
51
270.000000
0
LINE
8
0
10
106.544077
20
16.099995
30
0.0
11
106.760287
21
16.099995
31
0.0
0
ARC
8
0
10
106.760287
20
15.599995
30
0.0
40
0.500000
50
330.000000
51
90.000000
0
LINE
8
0
10
107.193300
20
15.349995
30
0.0
11
105.762532
21
12.871832
31
0.0
0
ARC
8
0
10
106.195544
20
12.621832
30
0.0
40
0.500000
50
150.000000
51
180.000000
0
LINE
8
0
10
105.695544
20
12.621832
30
0.0
11
105.695544
21
8.299999
31
0.0
0
ARC
8
0
10
105.195544
20
8.299999
30
0.0
40
0.500000
50
270.000000
51
0.000000
0
LINE
8
0
10
105.195544
20
7.799999
30
0.0
11
103.604554
21
7.799999
31
0.0
0
ARC
8
0
10
103.604554
20
8.299999
30
0.0
40
0.500000
50
162.079787
51
270.000000
0
ARC
8
0
10
99.893759
20
9.499999
30
0.0
40
3.400000
50
342.079787
51
18.911563
0
ARC
8
0
10
102.164207
20
10.277859
30
0.0
40
1.000000
50
18.911563
51
90.000000
0
LINE
8
0
10
102.164207
20
11.277859
30
0.0
11
101.385714
21
11.277859
31
0.0
0
ARC
8
0
10
101.385714
20
10.977859
30
0.0
40
0.300000
50
90.000000
51
224.728071
0
ARC
8
0
10
99.893759
20
9.499999
30
0.0
40
1.800000
50
17.142857
51
44.728071
0
LINE
8
0
10
101.613790
20
10.030558
30
0.0
11
101.900462
21
10.118985
31
0.0
0
ARC
8
0
10
99.893759
20
9.499999
30
0.0
40
2.100000
50
334.285714
51
17.142857
0
LINE
8
0
10
101.785794
20
8.588843
30
0.0
11
101.515503
21
8.719008
31
0.0
0
ARC
8
0
10
99.893759
20
9.499999
30
0.0
40
1.800000
50
291.428571
51
334.285714
0
LINE
8
0
10
100.551373
20
7.824426
30
0.0
11
100.660975
21
7.545164
31
0.0
0
ARC
8
0
10
99.893759
20
9.499999
30
0.0
40
2.100000
50
248.571429
51
291.428571
0
LINE
8
0
10
99.126543
20
7.545164
30
0.0
11
99.236145
21
7.824426
31
0.0
0
ARC
8
0
10
99.893759
20
9.499999
30
0.0
40
1.800000
50
205.714286
51
248.571429
0
LINE
8
0
10
98.272015
20
8.719008
30
0.0
11
98.001724
21
8.588843
31
0.0
0
ARC
8
0
10
99.893759
20
9.499999
30
0.0
40
2.100000
50
162.857143
51
205.714286
0
LINE
8
0
10
97.887056
20
10.118985
30
0.0
11
98.173728
21
10.030558
31
0.0
0
ARC
8
0
10
99.893759
20
9.499999
30
0.0
40
1.800000
50
135.271929
51
162.857143
0
ARC
8
0
10
98.401804
20
10.977859
30
0.0
40
0.300000
50
315.271929
51
90.000000
0
LINE
8
0
10
98.401804
20
11.277859
30
0.0
11
97.623311
21
11.277859
31
0.0
0
ARC
8
0
10
97.623311
20
10.277859
30
0.0
40
1.000000
50
90.000000
51
161.088437
0
ARC
8
0
10
99.893759
20
9.499999
30
0.0
40
3.400000
50
161.088437
51
197.920213
0
ARC
8
0
10
96.182964
20
8.299999
30
0.0
40
0.500000
50
270.000000
51
17.920213
0
LINE
8
0
10
121.095698
20
11.000005
30
0.0
11
121.095698
21
8.400005
31
0.0
0
ARC
8
0
10
120.795698
20
8.400005
30
0.0
40
0.300000
50
270.000000
51
0.000000
0
LINE
8
0
10
120.795698
20
8.100005
30
0.0
11
119.595698
21
8.100005
31
0.0
0
ARC
8
0
10
119.595698
20
8.400005
30
0.0
40
0.300000
50
180.000000
51
270.000000
0
LINE
8
0
10
119.295698
20
8.400005
30
0.0
11
119.295698
21
19.598766
31
0.0
0
ARC
8
0
10
119.795698
20
19.598766
30
0.0
40
0.500000
50
104.931417
51
180.000000
0
LINE
8
0
10
119.666867
20
20.081884
30
0.0
11
120.424529
21
20.283927
31
0.0
0
ARC
8
0
10
120.295698
20
20.767045
30
0.0
40
0.500000
50
284.931417
51
0.000000
0
LINE
8
0
10
120.795698
20
20.767045
30
0.0
11
120.795698
21
22.700005
31
0.0
0
ARC
8
0
10
120.295698
20
22.700005
30
0.0
40
0.500000
50
0.000000
51
90.000000
0
LINE
8
0
10
120.295698
20
23.200005
30
0.0
11
113.240601
21
23.200005
31
0.0
0
ARC
8
0
10
113.240601
20
23.500005
30
0.0
40
0.300000
50
213.748989
51
270.000000
0
ARC
8
0
10
112.492270
20
23.000005
30
0.0
40
0.600000
50
33.748989
51
236.251011
0
ARC
8
0
10
111.992270
20
22.251673
30
0.0
40
0.300000
50
0.000000
51
56.251011
0
LINE
8
0
10
112.292270
20
22.251673
30
0.0
11
112.292270
21
18.910078
31
0.0
0
ARC
8
0
10
111.992270
20
18.910078
30
0.0
40
0.300000
50
291.720848
51
0.000000
0
LINE
8
0
10
112.103295
20
18.631378
30
0.0
11
111.839005
21
18.526093
31
0.0
0
ARC
8
0
10
111.950030
20
18.247393
30
0.0
40
0.300000
50
111.720848
51
200.000000
0
LINE
8
0
10
111.668122
20
18.144787
30
0.0
11
112.665251
21
15.405199
31
0.0
0
ARC
8
0
10
112.101447
20
15.199992
30
0.0
40
0.599987
50
200.077726
51
20.000000
0
LINE
8
0
10
111.537922
20
14.994019
30
0.0
11
110.304025
21
18.369867
31
0.0
0
ARC
8
0
10
111.055408
20
18.644503
30
0.0
40
0.800000
50
111.720848
51
200.077726
0
LINE
8
0
10
110.759340
20
19.387701
30
0.0
11
110.903295
21
19.445049
31
0.0
0
ARC
8
0
10
110.792270
20
19.723748
30
0.0
40
0.300000
50
291.720848
51
0.000000
0
LINE
8
0
10
111.092270
20
19.723748
30
0.0
11
111.092270
21
21.875740
31
0.0
0
ARC
8
0
10
110.792270
20
21.875740
30
0.0
40
0.300000
50
0.000000
51
45.000000
0
LINE
8
0
10
111.004402
20
22.087872
30
0.0
11
110.580138
21
22.512137
31
0.0
0
ARC
8
0
10
110.368006
20
22.300005
30
0.0
40
0.300000
50
45.000000
51
90.000000
0
LINE
8
0
10
110.368006
20
22.600005
30
0.0
11
109.695698
21
22.600005
31
0.0
0
ARC
8
0
10
109.695698
20
22.900005
30
0.0
40
0.300000
50
180.000000
51
270.000000
0
LINE
8
0
10
109.395698
20
22.900005
30
0.0
11
109.395698
21
24.700005
31
0.0
0
ARC
8
0
10
109.695698
20
24.700005
30
0.0
40
0.300000
50
90.000000
51
180.000000
0
LINE
8
0
10
109.695698
20
25.000005
30
0.0
11
121.595698
21
25.000005
31
0.0
0
ARC
8
0
10
121.595698
20
24.000005
30
0.0
40
1.000000
50
0.000000
51
90.000000
0
LINE
8
0
10
122.595698
20
24.000005
30
0.0
11
122.595698
21
19.614627
31
0.0
0
ARC
8
0
10
121.795698
20
19.614627
30
0.0
40
0.800000
50
284.931417
51
0.000000
0
LINE
8
0
10
122.001828
20
18.841639
30
0.0
11
121.318399
21
18.659391
31
0.0
0
ARC
8
0
10
121.395698
20
18.369521
30
0.0
40
0.300000
50
104.931417
51
180.000000
0
LINE
8
0
10
121.095698
20
18.369521
30
0.0
11
121.095698
21
13.800005
31
0.0
0
ARC
8
0
10
121.595698
20
13.800005
30
0.0
40
0.500000
50
180.000000
51
270.000000
0
LINE
8
0
10
121.595698
20
13.300005
30
0.0
11
155.988083
21
13.300005
31
0.0
0
ARC
8
0
10
155.988083
20
13.800005
30
0.0
40
0.500000
50
270.000000
51
0.000000
0
LINE
8
0
10
156.488083
20
13.800005
30
0.0
11
156.488083
21
18.369521
31
0.0
0
ARC
8
0
10
156.188083
20
18.369521
30
0.0
40
0.300000
50
0.000000
51
75.068583
0
LINE
8
0
10
156.265382
20
18.659391
30
0.0
11
155.581953
21
18.841639
31
0.0
0
ARC
8
0
10
155.788083
20
19.614627
30
0.0
40
0.800000
50
180.000000
51
255.068583
0
LINE
8
0
10
154.988083
20
19.614627
30
0.0
11
154.988083
21
24.000005
31
0.0
0
ARC
8
0
10
155.988083
20
24.000005
30
0.0
40
1.000000
50
90.000000
51
180.000000
0
LINE
8
0
10
155.988083
20
25.000005
30
0.0
11
167.888083
21
25.000005
31
0.0
0
ARC
8
0
10
167.888083
20
24.700005
30
0.0
40
0.300000
50
0.000000
51
90.000000
0
LINE
8
0
10
168.188083
20
24.700005
30
0.0
11
168.188083
21
22.900005
31
0.0
0
ARC
8
0
10
167.888083
20
22.900005
30
0.0
40
0.300000
50
270.000000
51
0.000000
0
LINE
8
0
10
167.888083
20
22.600005
30
0.0
11
167.215776
21
22.600005
31
0.0
0
ARC
8
0
10
167.215776
20
22.300005
30
0.0
40
0.300000
50
90.000000
51
135.000000
0
LINE
8
0
10
167.003644
20
22.512137
30
0.0
11
166.579380
21
22.087872
31
0.0
0
ARC
8
0
10
166.791512
20
21.875740
30
0.0
40
0.300000
50
135.000000
51
180.000000
0
LINE
8
0
10
166.491512
20
21.875740
30
0.0
11
166.491512
21
19.723748
31
0.0
0
ARC
8
0
10
166.791512
20
19.723748
30
0.0
40
0.300000
50
180.000000
51
248.279152
0
LINE
8
0
10
166.680486
20
19.445049
30
0.0
11
166.824442
21
19.387701
31
0.0
0
ARC
8
0
10
166.528374
20
18.644503
30
0.0
40
0.800000
50
339.922274
51
68.279152
0
LINE
8
0
10
167.279756
20
18.369867
30
0.0
11
166.045859
21
14.994019
31
0.0
0
ARC
8
0
10
165.482334
20
15.199992
30
0.0
40
0.599987
50
160.000000
51
339.922274
0
LINE
8
0
10
164.918531
20
15.405199
30
0.0
11
165.915659
21
18.144787
31
0.0
0
ARC
8
0
10
165.633752
20
18.247393
30
0.0
40
0.300000
50
340.000000
51
68.279152
0
LINE
8
0
10
165.744777
20
18.526093
30
0.0
11
165.480486
21
18.631378
31
0.0
0
ARC
8
0
10
165.591512
20
18.910078
30
0.0
40
0.300000
50
180.000000
51
248.279152
0
LINE
8
0
10
165.291512
20
18.910078
30
0.0
11
165.291512
21
22.251673
31
0.0
0
ARC
8
0
10
165.591512
20
22.251673
30
0.0
40
0.300000
50
123.748989
51
180.000000
0
ARC
8
0
10
165.091512
20
23.000005
30
0.0
40
0.600000
50
303.748989
51
146.251011
0
ARC
8
0
10
164.343180
20
23.500005
30
0.0
40
0.300000
50
270.000000
51
326.251011
0
LINE
8
0
10
164.343180
20
23.200005
30
0.0
11
157.288083
21
23.200005
31
0.0
0
ARC
8
0
10
157.288083
20
22.700005
30
0.0
40
0.500000
50
90.000000
51
180.000000
0
LINE
8
0
10
156.788083
20
22.700005
30
0.0
11
156.788083
21
20.767045
31
0.0
0
ARC
8
0
10
157.288083
20
20.767045
30
0.0
40
0.500000
50
180.000000
51
255.068583
0
LINE
8
0
10
157.159252
20
20.283927
30
0.0
11
157.916915
21
20.081884
31
0.0
0
ARC
8
0
10
157.788083
20
19.598766
30
0.0
40
0.500000
50
0.000000
51
75.068583
0
LINE
8
0
10
158.288083
20
19.598766
30
0.0
11
158.288083
21
8.400005
31
0.0
0
ARC
8
0
10
157.988083
20
8.400005
30
0.0
40
0.300000
50
270.000000
51
0.000000
0
LINE
8
0
10
157.988083
20
8.100005
30
0.0
11
156.788083
21
8.100005
31
0.0
0
ARC
8
0
10
156.788083
20
8.400005
30
0.0
40
0.300000
50
180.000000
51
270.000000
0
LINE
8
0
10
156.488083
20
8.400005
30
0.0
11
156.488083
21
11.000005
31
0.0
0
ARC
8
0
10
155.988083
20
11.000005
30
0.0
40
0.500000
50
0.000000
51
90.000000
0
LINE
8
0
10
155.988083
20
11.500005
30
0.0
11
140.094497
21
11.500005
31
0.0
0
ARC
8
0
10
140.094497
20
11.000005
30
0.0
40
0.500000
50
90.000000
51
180.000000
0
LINE
8
0
10
139.594497
20
11.000005
30
0.0
11
139.594497
21
8.400005
31
0.0
0
ARC
8
0
10
139.294497
20
8.400005
30
0.0
40
0.300000
50
270.000000
51
0.000000
0
LINE
8
0
10
139.294497
20
8.100005
30
0.0
11
138.294497
21
8.100005
31
0.0
0
ARC
8
0
10
138.294497
20
8.400005
30
0.0
40
0.300000
50
180.000000
51
270.000000
0
LINE
8
0
10
137.994497
20
8.400005
30
0.0
11
137.994497
21
11.000005
31
0.0
0
ARC
8
0
10
137.494497
20
11.000005
30
0.0
40
0.500000
50
0.000000
51
90.000000
0
LINE
8
0
10
137.494497
20
11.500005
30
0.0
11
121.595698
21
11.500005
31
0.0
0
ARC
8
0
10
121.595698
20
11.000005
30
0.0
40
0.500000
50
90.000000
51
180.000000
0
LINE
8
0
10
43.501201
20
11.000005
30
0.0
11
43.501201
21
8.400005
31
0.0
0
ARC
8
0
10
43.201201
20
8.400005
30
0.0
40
0.300000
50
270.000000
51
0.000000
0
LINE
8
0
10
43.201201
20
8.100005
30
0.0
11
42.001201
21
8.100005
31
0.0
0
ARC
8
0
10
42.001201
20
8.400005
30
0.0
40
0.300000
50
180.000000
51
270.000000
0
LINE
8
0
10
41.701201
20
8.400005
30
0.0
11
41.701201
21
19.598766
31
0.0
0
ARC
8
0
10
42.201201
20
19.598766
30
0.0
40
0.500000
50
104.931417
51
180.000000
0
LINE
8
0
10
42.072370
20
20.081884
30
0.0
11
42.830032
21
20.283927
31
0.0
0
ARC
8
0
10
42.701201
20
20.767045
30
0.0
40
0.500000
50
284.931417
51
0.000000
0
LINE
8
0
10
43.201201
20
20.767045
30
0.0
11
43.201201
21
22.700005
31
0.0
0
ARC
8
0
10
42.701201
20
22.700005
30
0.0
40
0.500000
50
0.000000
51
90.000000
0
LINE
8
0
10
42.701201
20
23.200005
30
0.0
11
35.646104
21
23.200005
31
0.0
0
ARC
8
0
10
35.646104
20
23.500005
30
0.0
40
0.300000
50
213.748989
51
270.000000
0
ARC
8
0
10
34.897773
20
23.000005
30
0.0
40
0.600000
50
33.748989
51
236.251011
0
ARC
8
0
10
34.397773
20
22.251673
30
0.0
40
0.300000
50
0.000000
51
56.251011
0
LINE
8
0
10
34.697773
20
22.251673
30
0.0
11
34.697773
21
18.910078
31
0.0
0
ARC
8
0
10
34.397773
20
18.910078
30
0.0
40
0.300000
50
291.720848
51
0.000000
0
LINE
8
0
10
34.508798
20
18.631378
30
0.0
11
34.244508
21
18.526093
31
0.0
0
ARC
8
0
10
34.355533
20
18.247393
30
0.0
40
0.300000
50
111.720848
51
200.000000
0
LINE
8
0
10
34.073625
20
18.144787
30
0.0
11
35.070754
21
15.405199
31
0.0
0
ARC
8
0
10
34.506950
20
15.199992
30
0.0
40
0.599987
50
200.077726
51
20.000000
0
LINE
8
0
10
33.943425
20
14.994019
30
0.0
11
32.709528
21
18.369867
31
0.0
0
ARC
8
0
10
33.460912
20
18.644503
30
0.0
40
0.800000
50
111.720848
51
200.077726
0
LINE
8
0
10
33.164843
20
19.387701
30
0.0
11
33.308798
21
19.445049
31
0.0
0
ARC
8
0
10
33.197773
20
19.723748
30
0.0
40
0.300000
50
291.720848
51
0.000000
0
LINE
8
0
10
33.497773
20
19.723748
30
0.0
11
33.497773
21
21.875740
31
0.0
0
ARC
8
0
10
33.197773
20
21.875740
30
0.0
40
0.300000
50
0.000000
51
45.000000
0
LINE
8
0
10
33.409905
20
22.087872
30
0.0
11
32.985641
21
22.512137
31
0.0
0
ARC
8
0
10
32.773509
20
22.300005
30
0.0
40
0.300000
50
45.000000
51
90.000000
0
LINE
8
0
10
32.773509
20
22.600005
30
0.0
11
32.101202
21
22.600005
31
0.0
0
ARC
8
0
10
32.101202
20
22.900005
30
0.0
40
0.300000
50
180.000000
51
270.000000
0
LINE
8
0
10
31.801201
20
22.900005
30
0.0
11
31.801201
21
24.700005
31
0.0
0
ARC
8
0
10
32.101202
20
24.700005
30
0.0
40
0.300000
50
90.000000
51
180.000000
0
LINE
8
0
10
32.101202
20
25.000005
30
0.0
11
44.001201
21
25.000005
31
0.0
0
ARC
8
0
10
44.001201
20
24.000005
30
0.0
40
1.000000
50
0.000000
51
90.000000
0
LINE
8
0
10
45.001201
20
24.000005
30
0.0
11
45.001201
21
19.614627
31
0.0
0
ARC
8
0
10
44.201201
20
19.614627
30
0.0
40
0.800000
50
284.931417
51
0.000000
0
LINE
8
0
10
44.407331
20
18.841639
30
0.0
11
43.723903
21
18.659391
31
0.0
0
ARC
8
0
10
43.801201
20
18.369521
30
0.0
40
0.300000
50
104.931417
51
180.000000
0
LINE
8
0
10
43.501201
20
18.369521
30
0.0
11
43.501201
21
13.800005
31
0.0
0
ARC
8
0
10
44.001201
20
13.800005
30
0.0
40
0.500000
50
180.000000
51
270.000000
0
LINE
8
0
10
44.001201
20
13.300005
30
0.0
11
78.393586
21
13.300005
31
0.0
0
ARC
8
0
10
78.393586
20
13.800005
30
0.0
40
0.500000
50
270.000000
51
0.000000
0
LINE
8
0
10
78.893586
20
13.800005
30
0.0
11
78.893586
21
18.369521
31
0.0
0
ARC
8
0
10
78.593586
20
18.369521
30
0.0
40
0.300000
50
0.000000
51
75.068583
0
LINE
8
0
10
78.670885
20
18.659391
30
0.0
11
77.987457
21
18.841639
31
0.0
0
ARC
8
0
10
78.193586
20
19.614627
30
0.0
40
0.800000
50
180.000000
51
255.068583
0
LINE
8
0
10
77.393586
20
19.614627
30
0.0
11
77.393586
21
24.000005
31
0.0
0
ARC
8
0
10
78.393586
20
24.000005
30
0.0
40
1.000000
50
90.000000
51
180.000000
0
LINE
8
0
10
78.393586
20
25.000005
30
0.0
11
90.293587
21
25.000005
31
0.0
0
ARC
8
0
10
90.293587
20
24.700005
30
0.0
40
0.300000
50
0.000000
51
90.000000
0
LINE
8
0
10
90.593587
20
24.700005
30
0.0
11
90.593587
21
22.900005
31
0.0
0
ARC
8
0
10
90.293587
20
22.900005
30
0.0
40
0.300000
50
270.000000
51
0.000000
0
LINE
8
0
10
90.293587
20
22.600005
30
0.0
11
89.621280
21
22.600005
31
0.0
0
ARC
8
0
10
89.621280
20
22.300005
30
0.0
40
0.300000
50
90.000000
51
135.000000
0
LINE
8
0
10
89.409148
20
22.512137
30
0.0
11
88.984884
21
22.087872
31
0.0
0
ARC
8
0
10
89.197016
20
21.875740
30
0.0
40
0.300000
50
135.000000
51
180.000000
0
LINE
8
0
10
88.897016
20
21.875740
30
0.0
11
88.897016
21
19.723748
31
0.0
0
ARC
8
0
10
89.197016
20
19.723748
30
0.0
40
0.300000
50
180.000000
51
248.279152
0
LINE
8
0
10
89.085989
20
19.445049
30
0.0
11
89.229945
21
19.387701
31
0.0
0
ARC
8
0
10
88.933877
20
18.644503
30
0.0
40
0.800000
50
339.922274
51
68.279152
0
LINE
8
0
10
89.685259
20
18.369867
30
0.0
11
88.451362
21
14.994019
31
0.0
0
ARC
8
0
10
87.887837
20
15.199992
30
0.0
40
0.599987
50
160.000000
51
339.922274
0
LINE
8
0
10
87.324034
20
15.405199
30
0.0
11
88.321163
21
18.144787
31
0.0
0
ARC
8
0
10
88.039255
20
18.247393
30
0.0
40
0.300000
50
340.000000
51
68.279152
0
LINE
8
0
10
88.150281
20
18.526093
30
0.0
11
87.885989
21
18.631378
31
0.0
0
ARC
8
0
10
87.997015
20
18.910078
30
0.0
40
0.300000
50
180.000000
51
248.279152
0
LINE
8
0
10
87.697016
20
18.910078
30
0.0
11
87.697016
21
22.251673
31
0.0
0
ARC
8
0
10
87.997015
20
22.251673
30
0.0
40
0.300000
50
123.748989
51
180.000000
0
ARC
8
0
10
87.497015
20
23.000005
30
0.0
40
0.600000
50
303.748989
51
146.251011
0
ARC
8
0
10
86.748683
20
23.500005
30
0.0
40
0.300000
50
270.000000
51
326.251011
0
LINE
8
0
10
86.748683
20
23.200005
30
0.0
11
79.693586
21
23.200005
31
0.0
0
ARC
8
0
10
79.693586
20
22.700005
30
0.0
40
0.500000
50
90.000000
51
180.000000
0
LINE
8
0
10
79.193586
20
22.700005
30
0.0
11
79.193586
21
20.767045
31
0.0
0
ARC
8
0
10
79.693586
20
20.767045
30
0.0
40
0.500000
50
180.000000
51
255.068583
0
LINE
8
0
10
79.564755
20
20.283927
30
0.0
11
80.322418
21
20.081884
31
0.0
0
ARC
8
0
10
80.193586
20
19.598766
30
0.0
40
0.500000
50
0.000000
51
75.068583
0
LINE
8
0
10
80.693586
20
19.598766
30
0.0
11
80.693586
21
8.400005
31
0.0
0
ARC
8
0
10
80.393586
20
8.400005
30
0.0
40
0.300000
50
270.000000
51
0.000000
0
LINE
8
0
10
80.393586
20
8.100005
30
0.0
11
79.193586
21
8.100005
31
0.0
0
ARC
8
0
10
79.193586
20
8.400005
30
0.0
40
0.300000
50
180.000000
51
270.000000
0
LINE
8
0
10
78.893586
20
8.400005
30
0.0
11
78.893586
21
11.000005
31
0.0
0
ARC
8
0
10
78.393586
20
11.000005
30
0.0
40
0.500000
50
0.000000
51
90.000000
0
LINE
8
0
10
78.393586
20
11.500005
30
0.0
11
62.500000
21
11.500005
31
0.0
0
ARC
8
0
10
62.500000
20
11.000005
30
0.0
40
0.500000
50
90.000000
51
180.000000
0
LINE
8
0
10
62.000000
20
11.000005
30
0.0
11
62.000000
21
8.400005
31
0.0
0
ARC
8
0
10
61.700000
20
8.400005
30
0.0
40
0.300000
50
270.000000
51
0.000000
0
LINE
8
0
10
61.700000
20
8.100005
30
0.0
11
60.700000
21
8.100005
31
0.0
0
ARC
8
0
10
60.700000
20
8.400005
30
0.0
40
0.300000
50
180.000000
51
270.000000
0
LINE
8
0
10
60.400000
20
8.400005
30
0.0
11
60.400000
21
11.000005
31
0.0
0
ARC
8
0
10
59.900000
20
11.000005
30
0.0
40
0.500000
50
0.000000
51
90.000000
0
LINE
8
0
10
59.900000
20
11.500005
30
0.0
11
44.001201
21
11.500005
31
0.0
0
ARC
8
0
10
44.001201
20
11.000005
30
0.0
40
0.500000
50
90.000000
51
180.000000
0
LINE
8
0
10
16.308023
20
22.900005
30
0.0
11
17.008023
21
22.900005
31
0.0
0
ARC
8
0
10
17.008023
20
22.600005
30
0.0
40
0.300000
50
0.000000
51
90.000000
0
LINE
8
0
10
17.308023
20
22.600005
30
0.0
11
17.308023
21
17.424269
31
0.0
0
ARC
8
0
10
17.008023
20
17.424269
30
0.0
40
0.300000
50
315.000000
51
0.000000
0
LINE
8
0
10
17.220156
20
17.212137
30
0.0
11
16.022972
21
16.014954
31
0.0
0
ARC
8
0
10
16.376526
20
15.661401
30
0.0
40
0.500000
50
135.000000
51
210.000000
0
LINE
8
0
10
15.943513
20
15.411401
30
0.0
11
16.527624
21
14.399691
31
0.0
0
ARC
8
0
10
16.874034
20
14.599691
30
0.0
40
0.400000
50
210.000000
51
30.000000
0
LINE
8
0
10
17.220444
20
14.799691
30
0.0
11
16.866531
21
15.412686
31
0.0
0
ARC
8
0
10
17.126339
20
15.562686
30
0.0
40
0.300000
50
135.000000
51
210.000000
0
LINE
8
0
10
16.914207
20
15.774818
30
0.0
11
18.020156
21
16.880766
31
0.0
0
ARC
8
0
10
17.808023
20
17.092898
30
0.0
40
0.300000
50
315.000000
51
0.000000
0
LINE
8
0
10
18.108023
20
17.092898
30
0.0
11
18.108023
21
22.600005
31
0.0
0
ARC
8
0
10
18.408023
20
22.600005
30
0.0
40
0.300000
50
90.000000
51
180.000000
0
LINE
8
0
10
18.408023
20
22.900005
30
0.0
11
26.608023
21
22.900005
31
0.0
0
ARC
8
0
10
26.608023
20
22.600005
30
0.0
40
0.300000
50
0.000000
51
90.000000
0
LINE
8
0
10
26.908023
20
22.600005
30
0.0
11
26.908023
21
17.092898
31
0.0
0
ARC
8
0
10
27.208023
20
17.092898
30
0.0
40
0.300000
50
180.000000
51
225.000000
0
LINE
8
0
10
26.995891
20
16.880766
30
0.0
11
28.101840
21
15.774818
31
0.0
0
ARC
8
0
10
27.889708
20
15.562686
30
0.0
40
0.300000
50
330.000000
51
45.000000
0
LINE
8
0
10
28.149516
20
15.412686
30
0.0
11
27.795603
21
14.799691
31
0.0
0
ARC
8
0
10
28.142013
20
14.599691
30
0.0
40
0.400000
50
150.000000
51
330.000000
0
LINE
8
0
10
28.488423
20
14.399691
30
0.0
11
29.072534
21
15.411401
31
0.0
0
ARC
8
0
10
28.639521
20
15.661401
30
0.0
40
0.500000
50
330.000000
51
45.000000
0
LINE
8
0
10
28.993075
20
16.014954
30
0.0
11
27.795891
21
17.212137
31
0.0
0
ARC
8
0
10
28.008023
20
17.424269
30
0.0
40
0.300000
50
180.000000
51
225.000000
0
LINE
8
0
10
27.708023
20
17.424269
30
0.0
11
27.708023
21
22.600005
31
0.0
0
ARC
8
0
10
28.008023
20
22.600005
30
0.0
40
0.300000
50
90.000000
51
180.000000
0
LINE
8
0
10
28.008023
20
22.900005
30
0.0
11
28.708023
21
22.900005
31
0.0
0
ARC
8
0
10
28.708023
20
21.900005
30
0.0
40
1.000000
50
337.380135
51
90.000000
0
ARC
8
0
10
29.908023
20
21.400005
30
0.0
40
0.300000
50
157.380135
51
270.000000
0
LINE
8
0
10
29.908023
20
21.100005
30
0.0
11
31.208023
21
21.100005
31
0.0
0
ARC
8
0
10
31.208023
20
21.400005
30
0.0
40
0.300000
50
270.000000
51
0.000000
0
LINE
8
0
10
31.508023
20
21.400005
30
0.0
11
31.508023
21
24.700005
31
0.0
0
ARC
8
0
10
31.208023
20
24.700005
30
0.0
40
0.300000
50
0.000000
51
90.000000
0
LINE
8
0
10
31.208023
20
25.000005
30
0.0
11
25.508023
21
25.000005
31
0.0
0
ARC
8
0
10
25.508023
20
25.500005
30
0.0
40
0.500000
50
180.000000
51
270.000000
0
LINE
8
0
10
25.008023
20
25.500005
30
0.0
11
25.008023
21
25.800005
31
0.0
0
ARC
8
0
10
22.508023
20
25.800005
30
0.0
40
2.500000
50
0.000000
51
180.000000
0
LINE
8
0
10
20.008023
20
25.800005
30
0.0
11
20.008023
21
25.500005
31
0.0
0
ARC
8
0
10
19.508023
20
25.500005
30
0.0
40
0.500000
50
270.000000
51
0.000000
0
LINE
8
0
10
19.508023
20
25.000005
30
0.0
11
13.808023
21
25.000005
31
0.0
0
ARC
8
0
10
13.808023
20
24.700005
30
0.0
40
0.300000
50
90.000000
51
180.000000
0
LINE
8
0
10
13.508023
20
24.700005
30
0.0
11
13.508023
21
21.400005
31
0.0
0
ARC
8
0
10
13.808023
20
21.400005
30
0.0
40
0.300000
50
180.000000
51
270.000000
0
LINE
8
0
10
13.808023
20
21.100005
30
0.0
11
15.108023
21
21.100005
31
0.0
0
ARC
8
0
10
15.108023
20
21.400005
30
0.0
40
0.300000
50
270.000000
51
22.619865
0
ARC
8
0
10
16.308023
20
21.900005
30
0.0
40
1.000000
50
90.000000
51
202.619865
0
LINE
8
0
10
93.793587
20
22.900005
30
0.0
11
94.493587
21
22.900005
31
0.0
0
ARC
8
0
10
94.493587
20
22.600005
30
0.0
40
0.300000
50
0.000000
51
90.000000
0
LINE
8
0
10
94.793587
20
22.600005
30
0.0
11
94.793587
21
17.424269
31
0.0
0
ARC
8
0
10
94.493587
20
17.424269
30
0.0
40
0.300000
50
315.000000
51
0.000000
0
LINE
8
0
10
94.705720
20
17.212137
30
0.0
11
93.508536
21
16.014954
31
0.0
0
ARC
8
0
10
93.862090
20
15.661401
30
0.0
40
0.500000
50
135.000000
51
210.000000
0
LINE
8
0
10
93.429077
20
15.411401
30
0.0
11
94.013188
21
14.399691
31
0.0
0
ARC
8
0
10
94.359598
20
14.599691
30
0.0
40
0.400000
50
210.000000
51
30.000000
0
LINE
8
0
10
94.706008
20
14.799691
30
0.0
11
94.352095
21
15.412686
31
0.0
0
ARC
8
0
10
94.611903
20
15.562686
30
0.0
40
0.300000
50
135.000000
51
210.000000
0
LINE
8
0
10
94.399771
20
15.774818
30
0.0
11
95.505720
21
16.880766
31
0.0
0
ARC
8
0
10
95.293587
20
17.092898
30
0.0
40
0.300000
50
315.000000
51
0.000000
0
LINE
8
0
10
95.593587
20
17.092898
30
0.0
11
95.593587
21
22.600005
31
0.0
0
ARC
8
0
10
95.893587
20
22.600005
30
0.0
40
0.300000
50
90.000000
51
180.000000
0
LINE
8
0
10
95.893587
20
22.900005
30
0.0
11
104.093587
21
22.900005
31
0.0
0
ARC
8
0
10
104.093587
20
22.600005
30
0.0
40
0.300000
50
0.000000
51
90.000000
0
LINE
8
0
10
104.393587
20
22.600005
30
0.0
11
104.393587
21
17.092898
31
0.0
0
ARC
8
0
10
104.693587
20
17.092898
30
0.0
40
0.300000
50
180.000000
51
225.000000
0
LINE
8
0
10
104.481455
20
16.880766
30
0.0
11
105.587404
21
15.774818
31
0.0
0
ARC
8
0
10
105.375272
20
15.562686
30
0.0
40
0.300000
50
330.000000
51
45.000000
0
LINE
8
0
10
105.635080
20
15.412686
30
0.0
11
105.281167
21
14.799691
31
0.0
0
ARC
8
0
10
105.627577
20
14.599691
30
0.0
40
0.400000
50
150.000000
51
330.000000
0
LINE
8
0
10
105.973987
20
14.399691
30
0.0
11
106.558098
21
15.411401
31
0.0
0
ARC
8
0
10
106.125085
20
15.661401
30
0.0
40
0.500000
50
330.000000
51
45.000000
0
LINE
8
0
10
106.478639
20
16.014954
30
0.0
11
105.281455
21
17.212137
31
0.0
0
ARC
8
0
10
105.493587
20
17.424269
30
0.0
40
0.300000
50
180.000000
51
225.000000
0
LINE
8
0
10
105.193587
20
17.424269
30
0.0
11
105.193587
21
22.600005
31
0.0
0
ARC
8
0
10
105.493587
20
22.600005
30
0.0
40
0.300000
50
90.000000
51
180.000000
0
LINE
8
0
10
105.493587
20
22.900005
30
0.0
11
106.193587
21
22.900005
31
0.0
0
ARC
8
0
10
106.193587
20
21.900005
30
0.0
40
1.000000
50
337.380135
51
90.000000
0
ARC
8
0
10
107.393587
20
21.400005
30
0.0
40
0.300000
50
157.380135
51
270.000000
0
LINE
8
0
10
107.393587
20
21.100005
30
0.0
11
108.693587
21
21.100005
31
0.0
0
ARC
8
0
10
108.693587
20
21.400005
30
0.0
40
0.300000
50
270.000000
51
0.000000
0
LINE
8
0
10
108.993587
20
21.400005
30
0.0
11
108.993587
21
24.700005
31
0.0
0
ARC
8
0
10
108.693587
20
24.700005
30
0.0
40
0.300000
50
0.000000
51
90.000000
0
LINE
8
0
10
108.693587
20
25.000005
30
0.0
11
102.993587
21
25.000005
31
0.0
0
ARC
8
0
10
102.993587
20
25.500005
30
0.0
40
0.500000
50
180.000000
51
270.000000
0
LINE
8
0
10
102.493587
20
25.500005
30
0.0
11
102.493587
21
25.800005
31
0.0
0
ARC
8
0
10
99.993587
20
25.800005
30
0.0
40
2.500000
50
0.000000
51
180.000000
0
LINE
8
0
10
97.493587
20
25.800005
30
0.0
11
97.493587
21
25.500005
31
0.0
0
ARC
8
0
10
96.993587
20
25.500005
30
0.0
40
0.500000
50
270.000000
51
0.000000
0
LINE
8
0
10
96.993587
20
25.000005
30
0.0
11
91.293587
21
25.000005
31
0.0
0
ARC
8
0
10
91.293587
20
24.700005
30
0.0
40
0.300000
50
90.000000
51
180.000000
0
LINE
8
0
10
90.993587
20
24.700005
30
0.0
11
90.993587
21
21.400005
31
0.0
0
ARC
8
0
10
91.293587
20
21.400005
30
0.0
40
0.300000
50
180.000000
51
270.000000
0
LINE
8
0
10
91.293587
20
21.100005
30
0.0
11
92.593587
21
21.100005
31
0.0
0
ARC
8
0
10
92.593587
20
21.400005
30
0.0
40
0.300000
50
270.000000
51
22.619865
0
ARC
8
0
10
93.793587
20
21.900005
30
0.0
40
1.000000
50
90.000000
51
202.619865
0
LINE
8
0
10
171.288065
20
22.900005
30
0.0
11
171.988065
21
22.900005
31
0.0
0
ARC
8
0
10
171.988065
20
22.600005
30
0.0
40
0.300000
50
0.000000
51
90.000000
0
LINE
8
0
10
172.288065
20
22.600005
30
0.0
11
172.288065
21
17.424269
31
0.0
0
ARC
8
0
10
171.988065
20
17.424269
30
0.0
40
0.300000
50
315.000000
51
0.000000
0
LINE
8
0
10
172.200198
20
17.212137
30
0.0
11
171.003014
21
16.014954
31
0.0
0
ARC
8
0
10
171.356568
20
15.661401
30
0.0
40
0.500000
50
135.000000
51
210.000000
0
LINE
8
0
10
170.923555
20
15.411401
30
0.0
11
171.507666
21
14.399691
31
0.0
0
ARC
8
0
10
171.854076
20
14.599691
30
0.0
40
0.400000
50
210.000000
51
30.000000
0
LINE
8
0
10
172.200486
20
14.799691
30
0.0
11
171.846573
21
15.412686
31
0.0
0
ARC
8
0
10
172.106381
20
15.562686
30
0.0
40
0.300000
50
135.000000
51
210.000000
0
LINE
8
0
10
171.894249
20
15.774818
30
0.0
11
173.000198
21
16.880766
31
0.0
0
ARC
8
0
10
172.788065
20
17.092898
30
0.0
40
0.300000
50
315.000000
51
0.000000
0
LINE
8
0
10
173.088065
20
17.092898
30
0.0
11
173.088065
21
22.600005
31
0.0
0
ARC
8
0
10
173.388065
20
22.600005
30
0.0
40
0.300000
50
90.000000
51
180.000000
0
LINE
8
0
10
173.388065
20
22.900005
30
0.0
11
181.588065
21
22.900005
31
0.0
0
ARC
8
0
10
181.588065
20
22.600005
30
0.0
40
0.300000
50
0.000000
51
90.000000
0
LINE
8
0
10
181.888065
20
22.600005
30
0.0
11
181.888065
21
17.092898
31
0.0
0
ARC
8
0
10
182.188064
20
17.092898
30
0.0
40
0.300000
50
180.000000
51
225.000000
0
LINE
8
0
10
181.975932
20
16.880766
30
0.0
11
183.081882
21
15.774818
31
0.0
0
ARC
8
0
10
182.869750
20
15.562686
30
0.0
40
0.300000
50
330.000000
51
45.000000
0
LINE
8
0
10
183.129558
20
15.412686
30
0.0
11
182.775644
21
14.799691
31
0.0
0
ARC
8
0
10
183.122054
20
14.599691
30
0.0
40
0.400000
50
150.000000
51
330.000000
0
LINE
8
0
10
183.468465
20
14.399691
30
0.0
11
184.052576
21
15.411401
31
0.0
0
ARC
8
0
10
183.619563
20
15.661401
30
0.0
40
0.500000
50
330.000000
51
45.000000
0
LINE
8
0
10
183.973117
20
16.014954
30
0.0
11
182.775933
21
17.212137
31
0.0
0
ARC
8
0
10
182.988065
20
17.424269
30
0.0
40
0.300000
50
180.000000
51
225.000000
0
LINE
8
0
10
182.688064
20
17.424269
30
0.0
11
182.688064
21
22.600005
31
0.0
0
ARC
8
0
10
182.988065
20
22.600005
30
0.0
40
0.300000
50
90.000000
51
180.000000
0
LINE
8
0
10
182.988065
20
22.900005
30
0.0
11
183.688064
21
22.900005
31
0.0
0
ARC
8
0
10
183.688064
20
21.900005
30
0.0
40
1.000000
50
337.380135
51
90.000000
0
ARC
8
0
10
184.888065
20
21.400005
30
0.0
40
0.300000
50
157.380135
51
270.000000
0
LINE
8
0
10
184.888065
20
21.100005
30
0.0
11
186.188064
21
21.100005
31
0.0
0
ARC
8
0
10
186.188064
20
21.400005
30
0.0
40
0.300000
50
270.000000
51
0.000000
0
LINE
8
0
10
186.488065
20
21.400005
30
0.0
11
186.488065
21
24.700005
31
0.0
0
ARC
8
0
10
186.188064
20
24.700005
30
0.0
40
0.300000
50
0.000000
51
90.000000
0
LINE
8
0
10
186.188064
20
25.000005
30
0.0
11
180.488065
21
25.000005
31
0.0
0
ARC
8
0
10
180.488065
20
25.500005
30
0.0
40
0.500000
50
180.000000
51
270.000000
0
LINE
8
0
10
179.988065
20
25.500005
30
0.0
11
179.988065
21
25.800005
31
0.0
0
ARC
8
0
10
177.488065
20
25.800005
30
0.0
40
2.500000
50
0.000000
51
180.000000
0
LINE
8
0
10
174.988065
20
25.800005
30
0.0
11
174.988065
21
25.500005
31
0.0
0
ARC
8
0
10
174.488065
20
25.500005
30
0.0
40
0.500000
50
270.000000
51
0.000000
0
LINE
8
0
10
174.488065
20
25.000005
30
0.0
11
168.788065
21
25.000005
31
0.0
0
ARC
8
0
10
168.788065
20
24.700005
30
0.0
40
0.300000
50
90.000000
51
180.000000
0
LINE
8
0
10
168.488065
20
24.700005
30
0.0
11
168.488065
21
21.400005
31
0.0
0
ARC
8
0
10
168.788065
20
21.400005
30
0.0
40
0.300000
50
180.000000
51
270.000000
0
LINE
8
0
10
168.788065
20
21.100005
30
0.0
11
170.088065
21
21.100005
31
0.0
0
ARC
8
0
10
170.088065
20
21.400005
30
0.0
40
0.300000
50
270.000000
51
22.619865
0
ARC
8
0
10
171.288065
20
21.900005
30
0.0
40
1.000000
50
90.000000
51
202.619865
0
ATTDEF
8
0
10
0.000000
20
0.000000
30
0.0
40
3.5
1

3

2
GLASS_MIN:0.000000
70
0
0
ATTDEF
8
0
10
0.000000
20
0.000000
30
0.0
40
3.5
1

3

2
GLASS_MAX:0.000000
70
0
0
ATTDEF
8
0
10
0.000000
20
0.000000
30
0.0
40
3.5
1

3

2
BL01:6500.000000,,1
70
0
0
ATTDEF
8
0
10
0.000000
20
0.000000
30
0.0
40
3.5
1

3

2
HW_START
70
0
0
ATTDEF
8
0
10
199.996088
20
28.300005
30
0.0
40
3.5
1

3

2
HW_END
70
0
0
ATTDEF
8
0
10
6.950000
20
25.000005
30
0.0
40
3.5
1

3

2
VC_START
70
0
0
ATTDEF
8
0
10
0.300000
20
0.000005
30
0.0
40
3.5
1

3

2
VC_END
70
0
0
ATTDEF
8
0
10
0.000000
20
0.000000
30
0.0
40
3.5
1

3

2
FP_LCS_ORIG
70
0
0
ATTDEF
8
0
10
10.000000
20
0.000000
30
0.0
40
3.5
1

3

2
FP_LCS_HOT
70
0
0
ATTDEF
8
0
10
0.000000
20
10.000000
30
0.0
40
3.5
1

3

2
FP_LCS_INTERN
70
0
0
ATTDEF
8
0
10
0.000000
20
0.000000
30
0.0
40
3.5
1

3

2
TDEV3:0
70
0
0
ATTDEF
8
0
10
0.000000
20
0.000000
30
0.0
40
3.5
1

3

2
TDEV4:0
70
0
0
ATTDEF
8
0
10
0.000000
20
0.000000
30
0.0
40
3.5
1

3

2
TDEV5:0
70
0
0
ATTDEF
8
0
10
0.000000
20
0.000000
30
0.0
40
3.5
1

3

2
PANE_WIDTH:0
70
0
0
ATTDEF
8
0
10
0.000000
20
0.000000
30
0.0
40
3.5
1

3

2
MIN_VETRO:0
70
0
0
ATTDEF
8
0
10
0.000000
20
0.000000
30
0.0
40
3.5
1

3

2
MAX_VETRO:0
70
0
0
ATTDEF
8
0
10
0.000000
20
0.000000
30
0.0
40
3.5
1

3

2
JX:0
70
0
0
ATTDEF
8
0
10
0.000000
20
0.000000
30
0.0
40
3.5
1

3

2
WX:0
70
0
0
ATTDEF
8
0
10
0.000000
20
0.000000
30
0.0
40
3.5
1

3

2
JY:0
70
0
0
ATTDEF
8
0
10
0.000000
20
0.000000
30
0.0
40
3.5
1

3

2
WY:0
70
0
0
ATTDEF
8
0
10
0.000000
20
0.000000
30
0.0
40
3.5
1

3

2
DESC:U10402 - U10403 - V31209 - V31209 - N10630 - N10630 - N10630
70
0
0
ATTDEF
8
0
10
0.000000
20
0.000000
30
0.0
40
3.5
1

3

2
DENS:0
70
0
0
ATTDEF
8
0
10
0.000000
20
0.000000
30
0.0
40
3.5
1

3

2
TDEV:0
70
0
0
ATTDEF
8
0
10
0.000000
20
0.000000
30
0.0
40
3.5
1

3

2
TDEV2:0
70
0
0
ATTDEF
8
0
10
0.000000
20
0.000000
30
0.0
40
3.5
1

3

2
TDEV3:0
70
0
0
ATTDEF
8
0
10
0.000000
20
0.000000
30
0.0
40
3.5
1

3

2
TDEV4:0
70
0
0
ATTDEF
8
0
10
0.000000
20
0.000000
30
0.0
40
3.5
1

3

2
TDEV5:0
70
0
0
ATTDEF
8
0
10
0.000000
20
0.000000
30
0.0
40
3.5
1

3

2
PANE_WIDTH:0
70
0
0
ATTDEF
8
0
10
0.000000
20
0.000000
30
0.0
40
3.5
1

3

2
MIN_VETRO:0
70
0
0
ATTDEF
8
0
10
0.000000
20
0.000000
30
0.0
40
3.5
1

3

2
MAX_VETRO:0
70
0
0
ATTDEF
8
0
10
0.000000
20
0.000000
30
0.0
40
3.5
1

3

2
JX:0
70
0
0
ATTDEF
8
0
10
0.000000
20
0.000000
30
0.0
40
3.5
1

3

2
WX:0
70
0
0
ATTDEF
8
0
10
0.000000
20
0.000000
30
0.0
40
3.5
1

3

2
JY:0
70
0
0
ATTDEF
8
0
10
0.000000
20
0.000000
30
0.0
40
3.5
1

3

2
WY:0
70
0
0
ENDSEC
0
EOF
