0
SECTION
2
ENTITIES
0
LINE
8
0
10
45.188767
20
178.558517
30
0.0
11
35.288767
21
178.558517
31
0.0
0
ARC
8
0
10
35.288767
20
178.258517
30
0.0
40
0.300000
50
90.000000
51
180.000000
0
LINE
8
0
10
34.988767
20
178.258517
30
0.0
11
34.988767
21
174.458517
31
0.0
0
ARC
8
0
10
34.488767
20
174.458517
30
0.0
40
0.500000
50
180.000000
51
0.000000
0
LINE
8
0
10
33.988767
20
174.458517
30
0.0
11
33.988767
21
178.258517
31
0.0
0
ARC
8
0
10
33.688767
20
178.258517
30
0.0
40
0.300000
50
0.000000
51
90.000000
0
LINE
8
0
10
33.688767
20
178.558517
30
0.0
11
23.788767
21
178.558517
31
0.0
0
ARC
8
0
10
23.788767
20
178.258517
30
0.0
40
0.300000
50
90.000000
51
180.000000
0
LINE
8
0
10
23.488767
20
178.258517
30
0.0
11
23.488767
21
174.458517
31
0.0
0
ARC
8
0
10
22.988767
20
174.458517
30
0.0
40
0.500000
50
180.000000
51
0.000000
0
LINE
8
0
10
22.488767
20
174.458517
30
0.0
11
22.488767
21
178.258517
31
0.0
0
ARC
8
0
10
22.188767
20
178.258517
30
0.0
40
0.300000
50
0.000000
51
90.000000
0
LINE
8
0
10
22.188767
20
178.558517
30
0.0
11
19.884097
21
178.558517
31
0.0
0
ARC
8
0
10
19.884097
20
177.558517
30
0.0
40
1.000000
50
90.000000
51
144.745828
0
LINE
8
0
10
19.067498
20
178.135722
30
0.0
11
17.544677
21
175.981313
31
0.0
0
ARC
8
0
10
16.728077
20
176.558517
30
0.0
40
1.000000
50
270.000000
51
324.745828
0
LINE
8
0
10
16.728077
20
175.558517
30
0.0
11
15.626767
21
175.558517
31
0.0
0
ARC
8
0
10
15.626767
20
174.358517
30
0.0
40
1.200000
50
90.000000
51
119.981639
0
LINE
8
0
10
15.027100
20
175.397940
30
0.0
11
13.445156
21
174.485280
31
0.0
0
ARC
8
0
10
13.345212
20
174.658517
30
0.0
40
0.200000
50
270.000000
51
299.981639
0
LINE
8
0
10
13.345212
20
174.458517
30
0.0
11
13.138767
21
174.458517
31
0.0
0
ARC
8
0
10
13.138767
20
174.858517
30
0.0
40
0.400000
50
180.000000
51
270.000000
0
LINE
8
0
10
12.738767
20
174.858517
30
0.0
11
12.738767
21
178.258517
31
0.0
0
ARC
8
0
10
13.138767
20
178.258517
30
0.0
40
0.400000
50
90.000000
51
180.000000
0
LINE
8
0
10
13.138767
20
178.658517
30
0.0
11
13.345212
21
178.658517
31
0.0
0
ARC
8
0
10
13.345212
20
178.458517
30
0.0
40
0.200000
50
60.018361
51
90.000000
0
LINE
8
0
10
13.445156
20
178.631754
30
0.0
11
15.027100
21
177.719095
31
0.0
0
ARC
8
0
10
15.626767
20
178.758517
30
0.0
40
1.200000
50
240.018361
51
270.000000
0
LINE
8
0
10
15.626767
20
177.558517
30
0.0
11
16.055001
21
177.558517
31
0.0
0
ARC
8
0
10
16.055001
20
177.858517
30
0.0
40
0.300000
50
270.000000
51
324.745828
0
LINE
8
0
10
16.299981
20
177.685356
30
0.0
11
18.181420
21
180.347120
31
0.0
0
ARC
8
0
10
18.589720
20
180.058517
30
0.0
40
0.500000
50
90.000000
51
144.745828
0
LINE
8
0
10
18.589720
20
180.558517
30
0.0
11
61.887815
21
180.558517
31
0.0
0
ARC
8
0
10
61.887815
20
180.058517
30
0.0
40
0.500000
50
35.254172
51
90.000000
0
LINE
8
0
10
62.296114
20
180.347120
30
0.0
11
64.177554
21
177.685356
31
0.0
0
ARC
8
0
10
64.422534
20
177.858517
30
0.0
40
0.300000
50
215.254172
51
270.000000
0
LINE
8
0
10
64.422534
20
177.558517
30
0.0
11
64.850768
21
177.558517
31
0.0
0
ARC
8
0
10
64.850768
20
178.758517
30
0.0
40
1.200000
50
270.000000
51
299.981639
0
LINE
8
0
10
65.450434
20
177.719095
30
0.0
11
67.032378
21
178.631754
31
0.0
0
ARC
8
0
10
67.132323
20
178.458517
30
0.0
40
0.200000
50
90.000000
51
119.981639
0
LINE
8
0
10
67.132323
20
178.658517
30
0.0
11
67.338767
21
178.658517
31
0.0
0
ARC
8
0
10
67.338767
20
178.258517
30
0.0
40
0.400000
50
0.000000
51
90.000000
0
LINE
8
0
10
67.738767
20
178.258517
30
0.0
11
67.738767
21
174.858517
31
0.0
0
ARC
8
0
10
67.338767
20
174.858517
30
0.0
40
0.400000
50
270.000000
51
0.000000
0
LINE
8
0
10
67.338767
20
174.458517
30
0.0
11
67.132323
21
174.458517
31
0.0
0
ARC
8
0
10
67.132323
20
174.658517
30
0.0
40
0.200000
50
240.018361
51
270.000000
0
LINE
8
0
10
67.032378
20
174.485280
30
0.0
11
65.450434
21
175.397940
31
0.0
0
ARC
8
0
10
64.850768
20
174.358517
30
0.0
40
1.200000
50
60.018361
51
90.000000
0
LINE
8
0
10
64.850768
20
175.558517
30
0.0
11
63.749457
21
175.558517
31
0.0
0
ARC
8
0
10
63.749457
20
176.558517
30
0.0
40
1.000000
50
215.254172
51
270.000000
0
LINE
8
0
10
62.932858
20
175.981313
30
0.0
11
61.410036
21
178.135722
31
0.0
0
ARC
8
0
10
60.593437
20
177.558517
30
0.0
40
1.000000
50
35.254172
51
90.000000
0
LINE
8
0
10
60.593437
20
178.558517
30
0.0
11
58.288767
21
178.558517
31
0.0
0
ARC
8
0
10
58.288767
20
178.258517
30
0.0
40
0.300000
50
90.000000
51
180.000000
0
LINE
8
0
10
57.988767
20
178.258517
30
0.0
11
57.988767
21
174.458517
31
0.0
0
ARC
8
0
10
57.488767
20
174.458517
30
0.0
40
0.500000
50
180.000000
51
0.000000
0
LINE
8
0
10
56.988767
20
174.458517
30
0.0
11
56.988767
21
178.258517
31
0.0
0
ARC
8
0
10
56.688767
20
178.258517
30
0.0
40
0.300000
50
0.000000
51
90.000000
0
LINE
8
0
10
56.688767
20
178.558517
30
0.0
11
46.788767
21
178.558517
31
0.0
0
ARC
8
0
10
46.788767
20
178.258517
30
0.0
40
0.300000
50
90.000000
51
180.000000
0
LINE
8
0
10
46.488767
20
178.258517
30
0.0
11
46.488767
21
174.458517
31
0.0
0
ARC
8
0
10
45.988767
20
174.458517
30
0.0
40
0.500000
50
180.000000
51
0.000000
0
LINE
8
0
10
45.488767
20
174.458517
30
0.0
11
45.488767
21
178.258517
31
0.0
0
ARC
8
0
10
45.188767
20
178.258517
30
0.0
40
0.300000
50
0.000000
51
90.000000
0
ARC
8
0
10
8.128474
20
193.493398
30
0.0
40
0.300000
50
90.000000
51
178.000000
0
LINE
8
0
10
7.828657
20
193.503867
30
0.0
11
7.682233
21
189.310847
31
0.0
0
ARC
8
0
10
8.181928
20
189.293398
30
0.0
40
0.500000
50
178.000000
51
270.000000
0
LINE
8
0
10
8.181928
20
188.793398
30
0.0
11
8.398138
21
188.793398
31
0.0
0
ARC
8
0
10
8.398138
20
188.293398
30
0.0
40
0.500000
50
330.000000
51
90.000000
0
LINE
8
0
10
8.831151
20
188.043398
30
0.0
11
7.676450
21
186.043398
31
0.0
0
ARC
8
0
10
7.243437
20
186.293398
30
0.0
40
0.500000
50
270.000000
51
330.000000
0
LINE
8
0
10
7.243437
20
185.793398
30
0.0
11
1.846790
21
185.793398
31
0.0
0
LINE
8
0
10
1.846790
20
185.793398
30
0.0
11
1.546790
21
185.493398
31
0.0
0
LINE
8
0
10
1.546790
20
185.493398
30
0.0
11
1.246790
21
185.793398
31
0.0
0
LINE
8
0
10
1.246790
20
185.793398
30
0.0
11
-4.165903
21
185.793398
31
0.0
0
ARC
8
0
10
-4.165903
20
186.293398
30
0.0
40
0.500000
50
210.000000
51
270.000000
0
LINE
8
0
10
-4.598916
20
186.043398
30
0.0
11
-5.753616
21
188.043398
31
0.0
0
ARC
8
0
10
-5.320604
20
188.293398
30
0.0
40
0.500000
50
90.000000
51
210.000000
0
LINE
8
0
10
-5.320604
20
188.793398
30
0.0
11
-5.104394
21
188.793398
31
0.0
0
ARC
8
0
10
-5.104394
20
189.293398
30
0.0
40
0.500000
50
270.000000
51
2.000000
0
LINE
8
0
10
-4.604699
20
189.310847
30
0.0
11
-4.751122
21
193.503867
31
0.0
0
ARC
8
0
10
-5.050940
20
193.493398
30
0.0
40
0.300000
50
2.000000
51
90.000000
0
LINE
8
0
10
-5.050940
20
193.793398
30
0.0
11
-7.461233
21
193.793398
31
0.0
0
ARC
8
0
10
-7.461233
20
194.093398
30
0.0
40
0.300000
50
180.000000
51
270.000000
0
LINE
8
0
10
-7.761233
20
194.093398
30
0.0
11
-7.761233
21
197.393398
31
0.0
0
ARC
8
0
10
-8.061233
20
197.393398
30
0.0
40
0.300000
50
0.000000
51
90.000000
0
LINE
8
0
10
-8.061233
20
197.693398
30
0.0
11
-19.961233
21
197.693398
31
0.0
0
ARC
8
0
10
-19.961233
20
196.693398
30
0.0
40
1.000000
50
90.000000
51
180.000000
0
LINE
8
0
10
-20.961233
20
196.693398
30
0.0
11
-20.961233
21
172.993398
31
0.0
0
ARC
8
0
10
-20.661233
20
172.993398
30
0.0
40
0.300000
50
180.000000
51
270.000000
0
LINE
8
0
10
-20.661233
20
172.693398
30
0.0
11
-19.661233
21
172.693398
31
0.0
0
ARC
8
0
10
-19.661233
20
172.993398
30
0.0
40
0.300000
50
270.000000
51
0.000000
0
LINE
8
0
10
-19.361233
20
172.993398
30
0.0
11
-19.361233
21
173.393398
31
0.0
0
ARC
8
0
10
-19.061233
20
173.393398
30
0.0
40
0.300000
50
90.000000
51
180.000000
0
LINE
8
0
10
-19.061233
20
173.693398
30
0.0
11
-3.661233
21
173.693398
31
0.0
0
ARC
8
0
10
-3.661233
20
173.393398
30
0.0
40
0.300000
50
0.000000
51
90.000000
0
LINE
8
0
10
-3.361233
20
173.393398
30
0.0
11
-3.361233
21
172.993398
31
0.0
0
ARC
8
0
10
-3.061233
20
172.993398
30
0.0
40
0.300000
50
180.000000
51
270.000000
0
LINE
8
0
10
-3.061233
20
172.693398
30
0.0
11
-2.061233
21
172.693398
31
0.0
0
ARC
8
0
10
-2.061233
20
172.993398
30
0.0
40
0.300000
50
270.000000
51
0.000000
0
LINE
8
0
10
-1.761233
20
172.993398
30
0.0
11
-1.761233
21
173.393398
31
0.0
0
ARC
8
0
10
-1.461233
20
173.393398
30
0.0
40
0.300000
50
90.000000
51
180.000000
0
LINE
8
0
10
-1.461233
20
173.693398
30
0.0
11
10.938767
21
173.693398
31
0.0
0
ARC
8
0
10
10.938767
20
173.393398
30
0.0
40
0.300000
50
0.000000
51
90.000000
0
LINE
8
0
10
11.238767
20
173.393398
30
0.0
11
11.238767
21
172.993398
31
0.0
0
ARC
8
0
10
11.538767
20
172.993398
30
0.0
40
0.300000
50
180.000000
51
270.000000
0
LINE
8
0
10
11.538767
20
172.693398
30
0.0
11
13.006708
21
172.693398
31
0.0
0
ARC
8
0
10
13.006708
20
172.993398
30
0.0
40
0.300000
50
270.000000
51
289.778171
0
LINE
8
0
10
13.108221
20
172.711095
30
0.0
11
14.410084
21
173.179234
31
0.0
0
ARC
8
0
10
14.489603
20
172.958096
30
0.0
40
0.235000
50
24.000000
51
109.778171
0
ARC
8
0
10
14.925538
20
173.134510
30
0.0
40
0.235000
50
204.000000
51
270.000000
0
LINE
8
0
10
14.923981
20
172.899515
30
0.0
11
16.502910
21
172.889058
31
0.0
0
ARC
8
0
10
16.504897
20
173.189052
30
0.0
40
0.300000
50
270.000000
51
24.620541
0
LINE
8
0
10
16.777623
20
173.314034
30
0.0
11
15.828973
21
175.419549
31
0.0
0
ARC
8
0
10
15.555453
20
175.296313
30
0.0
40
0.300000
50
24.254172
51
64.620541
0
LINE
8
0
10
15.684036
20
175.567360
30
0.0
11
15.176614
21
175.808079
31
0.0
0
ARC
8
0
10
15.090891
20
175.627381
30
0.0
40
0.200000
50
64.620541
51
184.620541
0
LINE
8
0
10
14.891541
20
175.611270
30
0.0
11
14.900843
21
175.496175
31
0.0
0
ARC
8
0
10
14.601818
20
175.472008
30
0.0
40
0.300000
50
304.620541
51
4.620541
0
LINE
8
0
10
14.772260
20
175.225129
30
0.0
11
13.143503
21
174.100663
31
0.0
0
LINE
8
0
10
13.143503
20
174.100663
30
0.0
11
12.960794
21
174.019315
31
0.0
0
ARC
8
0
10
12.838792
20
174.293398
30
0.0
40
0.300009
50
131.812671
51
293.995287
0
ARC
8
0
10
12.438767
20
174.740602
30
0.0
40
0.300000
50
311.812671
51
0.000000
0
LINE
8
0
10
12.738767
20
174.740602
30
0.0
11
12.738767
21
178.493388
31
0.0
0
ARC
8
0
10
13.040116
20
178.492037
30
0.0
40
0.301352
50
90.000000
51
180.000000
0
LINE
8
0
10
13.039556
20
178.793388
30
0.0
11
13.085966
21
178.793388
31
0.0
0
ARC
8
0
10
13.085966
20
178.493388
30
0.0
40
0.300000
50
60.000000
51
90.000000
0
LINE
8
0
10
13.235966
20
178.753196
30
0.0
11
15.002954
21
177.733025
31
0.0
0
ARC
8
0
10
15.152954
20
177.992833
30
0.0
40
0.300000
50
240.000000
51
270.000000
0
LINE
8
0
10
15.152954
20
177.692833
30
0.0
11
15.517306
21
177.692833
31
0.0
0
ARC
8
0
10
15.517306
20
178.692833
30
0.0
40
1.000000
50
270.000000
51
325.738830
0
LINE
8
0
10
16.343786
20
178.129867
30
0.0
11
17.385302
21
179.658897
31
0.0
0
ARC
8
0
10
17.139556
20
179.830970
30
0.0
40
0.300000
50
324.999990
51
0.000000
0
LINE
8
0
10
17.439556
20
179.830970
30
0.0
11
17.439556
21
180.193392
31
0.0
0
ARC
8
0
10
17.139556
20
180.193392
30
0.0
40
0.300000
50
0.000000
51
90.000000
0
LINE
8
0
10
17.139556
20
180.493392
30
0.0
11
9.538742
21
180.493392
31
0.0
0
ARC
8
0
10
9.538742
20
180.793392
30
0.0
40
0.300000
50
180.000000
51
270.000000
0
LINE
8
0
10
9.238742
20
180.793392
30
0.0
11
9.238742
21
185.668983
31
0.0
0
ARC
8
0
10
9.538742
20
185.668983
30
0.0
40
0.300000
50
150.000000
51
180.000000
0
LINE
8
0
10
9.278935
20
185.818983
30
0.0
11
10.130189
21
187.293398
31
0.0
0
ARC
8
0
10
8.398138
20
188.293398
30
0.0
40
2.000000
50
330.000000
51
57.356923
0
ARC
8
0
10
9.638767
20
190.230106
30
0.0
40
0.300000
50
180.000000
51
237.356923
0
LINE
8
0
10
9.338767
20
190.230106
30
0.0
11
9.338767
21
191.993398
31
0.0
0
ARC
8
0
10
9.638767
20
191.993398
30
0.0
40
0.300000
50
90.000000
51
180.000000
0
LINE
8
0
10
9.638767
20
192.293398
30
0.0
11
12.038767
21
192.293398
31
0.0
0
ARC
8
0
10
12.038767
20
192.593398
30
0.0
40
0.300000
50
270.000000
51
0.000000
0
LINE
8
0
10
12.338767
20
192.593398
30
0.0
11
12.338767
21
194.469133
31
0.0
0
ARC
8
0
10
12.038767
20
194.469133
30
0.0
40
0.300000
50
0.000000
51
45.000000
0
LINE
8
0
10
12.250899
20
194.681266
30
0.0
11
12.026635
21
194.905530
31
0.0
0
ARC
8
0
10
11.814503
20
194.693398
30
0.0
40
0.300000
50
45.000000
51
90.000000
0
LINE
8
0
10
11.814503
20
194.993398
30
0.0
11
11.138767
21
194.993398
31
0.0
0
ARC
8
0
10
11.138767
20
194.693398
30
0.0
40
0.300000
50
90.000000
51
180.000000
0
LINE
8
0
10
10.838767
20
194.693398
30
0.0
11
10.838767
21
194.093398
31
0.0
0
ARC
8
0
10
10.538767
20
194.093398
30
0.0
40
0.300000
50
270.000000
51
0.000000
0
LINE
8
0
10
10.538767
20
193.793398
30
0.0
11
8.128474
21
193.793398
31
0.0
0
LINE
8
0
10
-0.353267
20
183.104548
30
0.0
11
-0.082977
21
182.974383
31
0.0
0
ARC
8
0
10
1.538767
20
182.193392
30
0.0
40
1.800000
50
111.428571
51
154.285714
0
LINE
8
0
10
0.881153
20
183.868965
30
0.0
11
0.771551
21
184.148227
31
0.0
0
ARC
8
0
10
1.538767
20
182.193392
30
0.0
40
2.100000
50
68.571429
51
111.428571
0
LINE
8
0
10
2.305983
20
184.148227
30
0.0
11
2.196381
21
183.868965
31
0.0
0
ARC
8
0
10
1.538767
20
182.193392
30
0.0
40
1.800000
50
25.714286
51
68.571429
0
LINE
8
0
10
3.160511
20
182.974383
30
0.0
11
3.430802
21
183.104548
31
0.0
0
ARC
8
0
10
1.538767
20
182.193392
30
0.0
40
2.100000
50
342.857143
51
25.714286
0
LINE
8
0
10
3.545470
20
181.574406
30
0.0
11
3.258798
21
181.662833
31
0.0
0
ARC
8
0
10
1.538767
20
182.193392
30
0.0
40
1.800000
50
315.271929
51
342.857143
0
ARC
8
0
10
3.030722
20
180.715532
30
0.0
40
0.300000
50
135.271929
51
270.000000
0
LINE
8
0
10
3.030722
20
180.415532
30
0.0
11
3.809215
21
180.415532
31
0.0
0
ARC
8
0
10
3.809215
20
181.415532
30
0.0
40
1.000000
50
270.000000
51
341.088437
0
ARC
8
0
10
1.538767
20
182.193392
30
0.0
40
3.400000
50
341.088437
51
25.622124
0
ARC
8
0
10
4.874930
20
183.793398
30
0.0
40
0.300000
50
90.000000
51
205.622124
0
LINE
8
0
10
4.874930
20
184.093398
30
0.0
11
7.299176
21
184.093398
31
0.0
0
ARC
8
0
10
7.299176
20
183.593398
30
0.0
40
0.500000
50
0.000000
51
90.000000
0
LINE
8
0
10
7.799176
20
183.593398
30
0.0
11
7.799176
21
179.993392
31
0.0
0
ARC
8
0
10
8.799176
20
179.993392
30
0.0
40
1.000000
50
180.000000
51
270.000000
0
LINE
8
0
10
8.799176
20
178.993392
30
0.0
11
10.938767
21
178.993392
31
0.0
0
ARC
8
0
10
10.938767
20
178.693392
30
0.0
40
0.300000
50
0.000000
51
90.000000
0
LINE
8
0
10
11.238767
20
178.693392
30
0.0
11
11.238767
21
175.493398
31
0.0
0
ARC
8
0
10
10.938767
20
175.493398
30
0.0
40
0.300000
50
270.000000
51
0.000000
0
LINE
8
0
10
10.938767
20
175.193398
30
0.0
11
-19.161233
21
175.193398
31
0.0
0
ARC
8
0
10
-19.161233
20
175.493398
30
0.0
40
0.300000
50
180.000000
51
270.000000
0
LINE
8
0
10
-19.461233
20
175.493398
30
0.0
11
-19.461233
21
195.893398
31
0.0
0
ARC
8
0
10
-19.161233
20
195.893398
30
0.0
40
0.300000
50
90.000000
51
180.000000
0
LINE
8
0
10
-19.161233
20
196.193398
30
0.0
11
-9.561233
21
196.193398
31
0.0
0
ARC
8
0
10
-9.561233
20
195.893398
30
0.0
40
0.300000
50
0.000000
51
90.000000
0
LINE
8
0
10
-9.261233
20
195.893398
30
0.0
11
-9.261233
21
192.793398
31
0.0
0
ARC
8
0
10
-8.761233
20
192.793398
30
0.0
40
0.500000
50
180.000000
51
270.000000
0
LINE
8
0
10
-8.761233
20
192.293398
30
0.0
11
-6.561233
21
192.293398
31
0.0
0
ARC
8
0
10
-6.561233
20
191.993398
30
0.0
40
0.300000
50
0.000000
51
90.000000
0
LINE
8
0
10
-6.261233
20
191.993398
30
0.0
11
-6.261233
21
190.230106
31
0.0
0
ARC
8
0
10
-6.561233
20
190.230106
30
0.0
40
0.300000
50
302.643077
51
0.000000
0
ARC
8
0
10
-5.320604
20
188.293398
30
0.0
40
2.000000
50
122.643077
51
210.000000
0
LINE
8
0
10
-7.052654
20
187.293398
30
0.0
11
-5.493809
21
184.593398
31
0.0
0
ARC
8
0
10
-4.627783
20
185.093398
30
0.0
40
1.000000
50
210.000000
51
270.000000
0
LINE
8
0
10
-4.627783
20
184.093398
30
0.0
11
-1.797396
21
184.093398
31
0.0
0
ARC
8
0
10
-1.797396
20
183.793398
30
0.0
40
0.300000
50
334.377876
51
90.000000
0
ARC
8
0
10
1.538767
20
182.193392
30
0.0
40
3.400000
50
154.377876
51
198.911563
0
ARC
8
0
10
-0.731681
20
181.415532
30
0.0
40
1.000000
50
198.911563
51
270.000000
0
LINE
8
0
10
-0.731681
20
180.415532
30
0.0
11
0.046812
21
180.415532
31
0.0
0
ARC
8
0
10
0.046812
20
180.715532
30
0.0
40
0.300000
50
270.000000
51
44.728071
0
ARC
8
0
10
1.538767
20
182.193392
30
0.0
40
1.800000
50
197.142857
51
224.728071
0
LINE
8
0
10
-0.181264
20
181.662833
30
0.0
11
-0.467936
21
181.574406
31
0.0
0
ARC
8
0
10
1.538767
20
182.193392
30
0.0
40
2.100000
50
154.285714
51
197.142857
0
LINE
8
0
10
75.221731
20
180.493392
30
0.0
11
73.630741
21
180.493392
31
0.0
0
ARC
8
0
10
73.630741
20
180.993392
30
0.0
40
0.500000
50
180.000000
51
270.000000
0
LINE
8
0
10
73.130741
20
180.993392
30
0.0
11
73.130741
21
185.340018
31
0.0
0
ARC
8
0
10
72.630741
20
185.340018
30
0.0
40
0.500000
50
0.000000
51
30.000000
0
LINE
8
0
10
73.063754
20
185.590018
30
0.0
11
71.647300
21
188.043388
31
0.0
0
ARC
8
0
10
72.080312
20
188.293388
30
0.0
40
0.500000
50
90.000000
51
210.000000
0
LINE
8
0
10
72.080312
20
188.793388
30
0.0
11
72.296522
21
188.793388
31
0.0
0
ARC
8
0
10
72.296522
20
189.293388
30
0.0
40
0.500000
50
270.000000
51
2.000000
0
LINE
8
0
10
72.796217
20
189.310838
30
0.0
11
72.649794
21
193.503858
31
0.0
0
ARC
8
0
10
72.349977
20
193.493388
30
0.0
40
0.300000
50
2.000000
51
90.000000
0
LINE
8
0
10
72.349977
20
193.793388
30
0.0
11
69.939683
21
193.793388
31
0.0
0
ARC
8
0
10
69.939683
20
194.093388
30
0.0
40
0.300000
50
180.000000
51
270.000000
0
LINE
8
0
10
69.639683
20
194.093388
30
0.0
11
69.639683
21
194.693388
31
0.0
0
ARC
8
0
10
69.339683
20
194.693388
30
0.0
40
0.300000
50
0.000000
51
90.000000
0
LINE
8
0
10
69.339683
20
194.993388
30
0.0
11
68.663947
21
194.993388
31
0.0
0
ARC
8
0
10
68.663947
20
194.693388
30
0.0
40
0.300000
50
90.000000
51
135.000000
0
LINE
8
0
10
68.451815
20
194.905520
30
0.0
11
68.227551
21
194.681256
31
0.0
0
ARC
8
0
10
68.439683
20
194.469124
30
0.0
40
0.300000
50
135.000000
51
180.000000
0
LINE
8
0
10
68.139683
20
194.469124
30
0.0
11
68.139683
21
192.593388
31
0.0
0
ARC
8
0
10
68.439683
20
192.593388
30
0.0
40
0.300000
50
180.000000
51
270.000000
0
LINE
8
0
10
68.439683
20
192.293388
30
0.0
11
70.839683
21
192.293388
31
0.0
0
ARC
8
0
10
70.839683
20
191.993388
30
0.0
40
0.300000
50
0.000000
51
90.000000
0
LINE
8
0
10
71.139683
20
191.993388
30
0.0
11
71.139683
21
190.230096
31
0.0
0
ARC
8
0
10
70.839683
20
190.230096
30
0.0
40
0.300000
50
302.643077
51
0.000000
0
ARC
8
0
10
72.080312
20
188.293388
30
0.0
40
2.000000
50
122.643077
51
210.000000
0
LINE
8
0
10
70.348262
20
187.293388
30
0.0
11
71.163754
21
185.880915
31
0.0
0
ARC
8
0
10
70.730741
20
185.630915
30
0.0
40
0.500000
50
0.000000
51
30.000000
0
LINE
8
0
10
71.230741
20
185.630915
30
0.0
11
71.230741
21
180.993392
31
0.0
0
ARC
8
0
10
70.730741
20
180.993392
30
0.0
40
0.500000
50
270.000000
51
0.000000
0
LINE
8
0
10
70.730741
20
180.493392
30
0.0
11
63.337978
21
180.493392
31
0.0
0
ARC
8
0
10
63.337978
20
180.193392
30
0.0
40
0.300000
50
90.000000
51
180.000000
0
LINE
8
0
10
63.037978
20
180.193392
30
0.0
11
63.037978
21
179.830970
31
0.0
0
ARC
8
0
10
63.337978
20
179.830970
30
0.0
40
0.300000
50
180.000000
51
215.000010
0
LINE
8
0
10
63.092232
20
179.658897
30
0.0
11
64.133748
21
178.129867
31
0.0
0
ARC
8
0
10
64.960228
20
178.692833
30
0.0
40
1.000000
50
214.261170
51
270.000000
0
LINE
8
0
10
64.960228
20
177.692833
30
0.0
11
65.324581
21
177.692833
31
0.0
0
ARC
8
0
10
65.324581
20
177.992833
30
0.0
40
0.300000
50
270.000000
51
300.000000
0
LINE
8
0
10
65.474581
20
177.733025
30
0.0
11
67.241568
21
178.753196
31
0.0
0
ARC
8
0
10
67.391568
20
178.493388
30
0.0
40
0.300000
50
90.000000
51
120.000000
0
LINE
8
0
10
67.391568
20
178.793388
30
0.0
11
67.437978
21
178.793388
31
0.0
0
ARC
8
0
10
67.437418
20
178.492037
30
0.0
40
0.301352
50
0.000000
51
90.000000
0
LINE
8
0
10
67.738767
20
178.493388
30
0.0
11
67.738767
21
174.740602
31
0.0
0
ARC
8
0
10
68.038767
20
174.740602
30
0.0
40
0.300000
50
180.000000
51
228.187329
0
ARC
8
0
10
67.638742
20
174.293398
30
0.0
40
0.300009
50
246.004713
51
48.187329
0
LINE
8
0
10
67.516740
20
174.019315
30
0.0
11
67.334031
21
174.100663
31
0.0
0
LINE
8
0
10
67.334031
20
174.100663
30
0.0
11
65.705275
21
175.225129
31
0.0
0
ARC
8
0
10
65.875716
20
175.472008
30
0.0
40
0.300000
50
175.379459
51
235.379459
0
LINE
8
0
10
65.576691
20
175.496175
30
0.0
11
65.585993
21
175.611270
31
0.0
0
ARC
8
0
10
65.386643
20
175.627381
30
0.0
40
0.200000
50
355.379459
51
115.379459
0
LINE
8
0
10
65.300921
20
175.808079
30
0.0
11
64.793498
21
175.567360
31
0.0
0
ARC
8
0
10
64.922081
20
175.296313
30
0.0
40
0.300000
50
115.379459
51
155.745828
0
LINE
8
0
10
64.648562
20
175.419549
30
0.0
11
63.699912
21
173.314034
31
0.0
0
ARC
8
0
10
63.972638
20
173.189052
30
0.0
40
0.300000
50
155.379459
51
270.000000
0
LINE
8
0
10
63.974625
20
172.889058
30
0.0
11
65.553553
21
172.899515
31
0.0
0
ARC
8
0
10
65.551996
20
173.134510
30
0.0
40
0.235000
50
270.000000
51
336.000000
0
ARC
8
0
10
65.987931
20
172.958096
30
0.0
40
0.235000
50
70.221829
51
156.000000
0
LINE
8
0
10
66.067450
20
173.179234
30
0.0
11
67.369313
21
172.711095
31
0.0
0
ARC
8
0
10
67.470827
20
172.993398
30
0.0
40
0.300000
50
250.221829
51
270.000000
0
LINE
8
0
10
67.470827
20
172.693398
30
0.0
11
69.238767
21
172.693398
31
0.0
0
ARC
8
0
10
69.238767
20
172.993398
30
0.0
40
0.300000
50
270.000000
51
0.000000
0
LINE
8
0
10
69.538767
20
172.993398
30
0.0
11
69.538767
21
177.493392
31
0.0
0
ARC
8
0
10
70.538767
20
177.493392
30
0.0
40
1.000000
50
90.000000
51
180.000000
0
LINE
8
0
10
70.538767
20
178.493392
30
0.0
11
83.759060
21
178.493392
31
0.0
0
ARC
8
0
10
83.759060
20
178.193392
30
0.0
40
0.300000
50
0.000000
51
90.000000
0
LINE
8
0
10
84.059060
20
178.193392
30
0.0
11
84.059060
21
176.493392
31
0.0
0
ARC
8
0
10
84.359060
20
176.493392
30
0.0
40
0.300000
50
180.000000
51
270.000000
0
LINE
8
0
10
84.359060
20
176.193392
30
0.0
11
87.809060
21
176.193392
31
0.0
0
ARC
8
0
10
87.809060
20
176.493392
30
0.0
40
0.300000
50
270.000000
51
0.000000
0
LINE
8
0
10
88.109060
20
176.493392
30
0.0
11
88.109060
21
179.993392
31
0.0
0
ARC
8
0
10
87.609060
20
179.993392
30
0.0
40
0.500000
50
0.000000
51
90.000000
0
LINE
8
0
10
87.609060
20
180.493392
30
0.0
11
87.134311
21
180.493392
31
0.0
0
ARC
8
0
10
87.134311
20
180.993392
30
0.0
40
0.500000
50
180.000000
51
270.000000
0
LINE
8
0
10
86.634311
20
180.993392
30
0.0
11
86.634311
21
185.606122
31
0.0
0
ARC
8
0
10
87.134311
20
185.606122
30
0.0
40
0.500000
50
150.000000
51
180.000000
0
LINE
8
0
10
86.701299
20
185.856122
30
0.0
11
87.531105
21
187.293388
31
0.0
0
ARC
8
0
10
85.799054
20
188.293388
30
0.0
40
2.000000
50
330.000000
51
57.356923
0
ARC
8
0
10
87.039683
20
190.230096
30
0.0
40
0.300000
50
180.000000
51
237.356923
0
LINE
8
0
10
86.739683
20
190.230096
30
0.0
11
86.739683
21
191.993388
31
0.0
0
ARC
8
0
10
87.039683
20
191.993388
30
0.0
40
0.300000
50
90.000000
51
180.000000
0
LINE
8
0
10
87.039683
20
192.293388
30
0.0
11
89.439683
21
192.293388
31
0.0
0
ARC
8
0
10
89.439683
20
192.593388
30
0.0
40
0.300000
50
270.000000
51
0.000000
0
LINE
8
0
10
89.739683
20
192.593388
30
0.0
11
89.739683
21
194.469124
31
0.0
0
ARC
8
0
10
89.439683
20
194.469124
30
0.0
40
0.300000
50
0.000000
51
45.000000
0
LINE
8
0
10
89.651815
20
194.681256
30
0.0
11
89.427551
21
194.905520
31
0.0
0
ARC
8
0
10
89.215419
20
194.693388
30
0.0
40
0.300000
50
45.000000
51
90.000000
0
LINE
8
0
10
89.215419
20
194.993388
30
0.0
11
88.539683
21
194.993388
31
0.0
0
ARC
8
0
10
88.539683
20
194.693388
30
0.0
40
0.300000
50
90.000000
51
180.000000
0
LINE
8
0
10
88.239683
20
194.693388
30
0.0
11
88.239683
21
194.093388
31
0.0
0
ARC
8
0
10
87.939683
20
194.093388
30
0.0
40
0.300000
50
270.000000
51
0.000000
0
LINE
8
0
10
87.939683
20
193.793388
30
0.0
11
85.529390
21
193.793388
31
0.0
0
ARC
8
0
10
85.529390
20
193.493388
30
0.0
40
0.300000
50
90.000000
51
178.000000
0
LINE
8
0
10
85.229573
20
193.503858
30
0.0
11
85.083149
21
189.310838
31
0.0
0
ARC
8
0
10
85.582844
20
189.293388
30
0.0
40
0.500000
50
178.000000
51
270.000000
0
LINE
8
0
10
85.582844
20
188.793388
30
0.0
11
85.799054
21
188.793388
31
0.0
0
ARC
8
0
10
85.799054
20
188.293388
30
0.0
40
0.500000
50
330.000000
51
90.000000
0
LINE
8
0
10
86.232067
20
188.043388
30
0.0
11
84.801299
21
185.565225
31
0.0
0
ARC
8
0
10
85.234311
20
185.315225
30
0.0
40
0.500000
50
150.000000
51
180.000000
0
LINE
8
0
10
84.734311
20
185.315225
30
0.0
11
84.734311
21
180.993392
31
0.0
0
ARC
8
0
10
84.234311
20
180.993392
30
0.0
40
0.500000
50
270.000000
51
0.000000
0
LINE
8
0
10
84.234311
20
180.493392
30
0.0
11
82.643321
21
180.493392
31
0.0
0
ARC
8
0
10
82.643321
20
180.993392
30
0.0
40
0.500000
50
162.079787
51
270.000000
0
ARC
8
0
10
78.932526
20
182.193392
30
0.0
40
3.400000
50
342.079787
51
18.911563
0
ARC
8
0
10
81.202974
20
182.971252
30
0.0
40
1.000000
50
18.911563
51
90.000000
0
LINE
8
0
10
81.202974
20
183.971252
30
0.0
11
80.424481
21
183.971252
31
0.0
0
ARC
8
0
10
80.424481
20
183.671252
30
0.0
40
0.300000
50
90.000000
51
224.728071
0
ARC
8
0
10
78.932526
20
182.193392
30
0.0
40
1.800000
50
17.142857
51
44.728071
0
LINE
8
0
10
80.652557
20
182.723951
30
0.0
11
80.939229
21
182.812378
31
0.0
0
ARC
8
0
10
78.932526
20
182.193392
30
0.0
40
2.100000
50
334.285714
51
17.142857
0
LINE
8
0
10
80.824561
20
181.282236
30
0.0
11
80.554270
21
181.412401
31
0.0
0
ARC
8
0
10
78.932526
20
182.193392
30
0.0
40
1.800000
50
291.428571
51
334.285714
0
LINE
8
0
10
79.590140
20
180.517819
30
0.0
11
79.699742
21
180.238557
31
0.0
0
ARC
8
0
10
78.932526
20
182.193392
30
0.0
40
2.100000
50
248.571429
51
291.428571
0
LINE
8
0
10
78.165310
20
180.238557
30
0.0
11
78.274912
21
180.517819
31
0.0
0
ARC
8
0
10
78.932526
20
182.193392
30
0.0
40
1.800000
50
205.714286
51
248.571429
0
LINE
8
0
10
77.310782
20
181.412401
30
0.0
11
77.040491
21
181.282236
31
0.0
0
ARC
8
0
10
78.932526
20
182.193392
30
0.0
40
2.100000
50
162.857143
51
205.714286
0
LINE
8
0
10
76.925823
20
182.812378
30
0.0
11
77.212495
21
182.723951
31
0.0
0
ARC
8
0
10
78.932526
20
182.193392
30
0.0
40
1.800000
50
135.271929
51
162.857143
0
ARC
8
0
10
77.440571
20
183.671252
30
0.0
40
0.300000
50
315.271929
51
90.000000
0
LINE
8
0
10
77.440571
20
183.971252
30
0.0
11
76.662078
21
183.971252
31
0.0
0
ARC
8
0
10
76.662078
20
182.971252
30
0.0
40
1.000000
50
90.000000
51
161.088437
0
ARC
8
0
10
78.932526
20
182.193392
30
0.0
40
3.400000
50
161.088437
51
197.920213
0
ARC
8
0
10
75.221731
20
180.993392
30
0.0
40
0.500000
50
270.000000
51
17.920213
0
ATTDEF
8
0
10
-14.011233
20
197.693398
30
0.0
40
3.5
1

3

2
VC_START
70
0
0
ATTDEF
8
0
10
-20.661233
20
172.693398
30
0.0
40
3.5
1

3

2
VC_END
70
0
0
ATTDEF
8
0
10
-20.961233
20
172.693398
30
0.0
40
3.5
1

3

2
FRONT_VIEW
70
0
0
ATTDEF
8
0
10
-20.961233
20
172.693398
30
0.0
40
3.5
1

3

2
BL01:6800.000000,,1
70
0
0
ATTDEF
8
0
10
-20.961233
20
172.693398
30
0.0
40
3.5
1

3

2
OPTI:500.000000,1,0,3000.000000,6500.000000,500.000000,0,0.000000,0
70
0
0
ATTDEF
8
0
10
-20.961233
20
172.693398
30
0.0
40
3.5
1

3

2
GLASS_MIN:0.000000
70
0
0
ATTDEF
8
0
10
-20.961233
20
172.693398
30
0.0
40
3.5
1

3

2
GLASS_MAX:0.000000
70
0
0
ATTDEF
8
0
10
-20.961233
20
172.693398
30
0.0
40
3.5
1

3

2
FP_LCS_ORIG
70
0
0
ATTDEF
8
0
10
-10.961233
20
172.693398
30
0.0
40
3.5
1

3

2
FP_LCS_HOT
70
0
0
ATTDEF
8
0
10
-20.961233
20
182.693398
30
0.0
40
3.5
1

3

2
FP_LCS_INTERN
70
0
0
ATTDEF
8
0
10
0.000000
20
0.000000
30
0.0
40
3.5
1

3

2
TDEV2:0
70
0
0
ATTDEF
8
0
10
0.000000
20
0.000000
30
0.0
40
3.5
1

3

2
TDEV3:0
70
0
0
ATTDEF
8
0
10
0.000000
20
0.000000
30
0.0
40
3.5
1

3

2
TDEV4:0
70
0
0
ATTDEF
8
0
10
0.000000
20
0.000000
30
0.0
40
3.5
1

3

2
TDEV5:0
70
0
0
ATTDEF
8
0
10
0.000000
20
0.000000
30
0.0
40
3.5
1

3

2
PANE_WIDTH:0
70
0
0
ATTDEF
8
0
10
0.000000
20
0.000000
30
0.0
40
3.5
1

3

2
MIN_VETRO:0
70
0
0
ATTDEF
8
0
10
0.000000
20
0.000000
30
0.0
40
3.5
1

3

2
MAX_VETRO:0
70
0
0
ATTDEF
8
0
10
0.000000
20
0.000000
30
0.0
40
3.5
1

3

2
JX:0
70
0
0
ATTDEF
8
0
10
0.000000
20
0.000000
30
0.0
40
3.5
1

3

2
WX:0
70
0
0
ATTDEF
8
0
10
0.000000
20
0.000000
30
0.0
40
3.5
1

3

2
JY:0
70
0
0
ATTDEF
8
0
10
0.000000
20
0.000000
30
0.0
40
3.5
1

3

2
WY:0
70
0
0
ATTDEF
8
0
10
0.000000
20
0.000000
30
0.0
40
3.5
1

3

2
DESC:Soglia bassa composita 3ante 3vie
70
0
0
ATTDEF
8
0
10
0.000000
20
0.000000
30
0.0
40
3.5
1

3

2
DENS:1.2
70
0
0
ATTDEF
8
0
10
0.000000
20
0.000000
30
0.0
40
3.5
1

3

2
TDEV:0
70
0
0
ATTDEF
8
0
10
0.000000
20
0.000000
30
0.0
40
3.5
1

3

2
TDEV2:0
70
0
0
ATTDEF
8
0
10
0.000000
20
0.000000
30
0.0
40
3.5
1

3

2
TDEV3:0
70
0
0
ATTDEF
8
0
10
0.000000
20
0.000000
30
0.0
40
3.5
1

3

2
TDEV4:0
70
0
0
ATTDEF
8
0
10
0.000000
20
0.000000
30
0.0
40
3.5
1

3

2
TDEV5:0
70
0
0
ATTDEF
8
0
10
0.000000
20
0.000000
30
0.0
40
3.5
1

3

2
PANE_WIDTH:0
70
0
0
ATTDEF
8
0
10
0.000000
20
0.000000
30
0.0
40
3.5
1

3

2
MIN_VETRO:0
70
0
0
ATTDEF
8
0
10
0.000000
20
0.000000
30
0.0
40
3.5
1

3

2
MAX_VETRO:0
70
0
0
ATTDEF
8
0
10
0.000000
20
0.000000
30
0.0
40
3.5
1

3

2
JX:0
70
0
0
ATTDEF
8
0
10
0.000000
20
0.000000
30
0.0
40
3.5
1

3

2
WX:0
70
0
0
ATTDEF
8
0
10
0.000000
20
0.000000
30
0.0
40
3.5
1

3

2
JY:0
70
0
0
ATTDEF
8
0
10
0.000000
20
0.000000
30
0.0
40
3.5
1

3

2
WY:0
70
0
0
ENDSEC
0
EOF
