0
SECTION
2
ENTITIES
0
ARC
8
0
10
58.500257
20
87.000000
30
0.0
40
0.700000
50
180.000000
51
270.000000
0
ARC
8
0
10
58.500257
20
86.600000
30
0.0
40
0.300000
50
270.000000
51
0.000000
0
LINE
8
0
10
58.800257
20
86.600000
30
0.0
11
58.800257
21
87.300000
31
0.0
0
ARC
8
0
10
59.100257
20
87.300000
30
0.0
40
0.300000
50
90.000000
51
180.000000
0
LINE
8
0
10
59.100257
20
87.600000
30
0.0
11
60.300257
21
87.600000
31
0.0
0
ARC
8
0
10
60.300257
20
86.900000
30
0.0
40
0.700000
50
0.000000
51
90.000000
0
LINE
8
0
10
61.000257
20
86.900000
30
0.0
11
61.000257
21
80.700000
31
0.0
0
ARC
8
0
10
60.300257
20
80.700000
30
0.0
40
0.700000
50
270.000000
51
0.000000
0
LINE
8
0
10
60.300257
20
80.000000
30
0.0
11
59.100257
21
80.000000
31
0.0
0
ARC
8
0
10
59.100257
20
80.300000
30
0.0
40
0.300000
50
180.000000
51
270.000000
0
LINE
8
0
10
58.800257
20
80.300000
30
0.0
11
58.800257
21
81.000000
31
0.0
0
ARC
8
0
10
58.500257
20
81.000000
30
0.0
40
0.300000
50
0.000000
51
90.000000
0
ARC
8
0
10
58.500257
20
80.600000
30
0.0
40
0.700000
50
90.000000
51
180.000000
0
LINE
8
0
10
57.800257
20
80.600000
30
0.0
11
57.800257
21
77.600000
31
0.0
0
ARC
8
0
10
58.100257
20
77.600000
30
0.0
40
0.300000
50
180.000000
51
270.000000
0
LINE
8
0
10
58.100257
20
77.300000
30
0.0
11
58.500257
21
77.300000
31
0.0
0
ARC
8
0
10
58.500257
20
77.600000
30
0.0
40
0.300000
50
270.000000
51
0.000000
0
LINE
8
0
10
58.800257
20
77.600000
30
0.0
11
58.800257
21
78.500000
31
0.0
0
ARC
8
0
10
59.100257
20
78.500000
30
0.0
40
0.300000
50
90.000000
51
180.000000
0
LINE
8
0
10
59.100257
20
78.800000
30
0.0
11
60.500257
21
78.800000
31
0.0
0
ARC
8
0
10
60.500257
20
78.500000
30
0.0
40
0.300000
50
0.000000
51
90.000000
0
LINE
8
0
10
60.800257
20
78.500000
30
0.0
11
60.800257
21
64.300238
31
0.0
0
ARC
8
0
10
59.800257
20
64.300238
30
0.0
40
1.000000
50
270.000000
51
0.000000
0
LINE
8
0
10
59.800257
20
63.300238
30
0.0
11
57.500000
21
63.300238
31
0.0
0
ARC
8
0
10
57.500000
20
64.300238
30
0.0
40
1.000000
50
180.000000
51
270.000000
0
LINE
8
0
10
56.500000
20
64.300238
30
0.0
11
56.500000
21
65.300247
31
0.0
0
ARC
8
0
10
56.000000
20
65.300247
30
0.0
40
0.500000
50
0.000000
51
90.000000
0
LINE
8
0
10
56.000009
20
65.800247
30
0.0
11
54.732069
21
65.800270
31
0.0
0
ARC
8
0
10
54.732063
20
65.500270
30
0.0
40
0.300000
50
90.000000
51
109.778171
0
LINE
8
0
10
54.630549
20
65.782573
30
0.0
11
53.328683
21
65.314432
31
0.0
0
ARC
8
0
10
53.249164
20
65.535570
30
0.0
40
0.235000
50
204.000000
51
289.778171
0
ARC
8
0
10
52.813229
20
65.359156
30
0.0
40
0.235000
50
24.000000
51
90.000000
0
LINE
8
0
10
52.814785
20
65.594151
30
0.0
11
51.235857
21
65.604608
31
0.0
0
ARC
8
0
10
51.233870
20
65.304615
30
0.0
40
0.300000
50
90.000000
51
204.620541
0
LINE
8
0
10
50.961144
20
65.179633
30
0.0
11
51.909794
21
63.074117
31
0.0
0
ARC
8
0
10
52.183314
20
63.197353
30
0.0
40
0.300000
50
204.254172
51
244.620541
0
LINE
8
0
10
52.054730
20
62.926306
30
0.0
11
52.562153
21
62.685587
31
0.0
0
ARC
8
0
10
52.647876
20
62.866285
30
0.0
40
0.200000
50
244.620541
51
4.620541
0
LINE
8
0
10
52.847226
20
62.882396
30
0.0
11
52.837924
21
62.997491
31
0.0
0
ARC
8
0
10
53.136949
20
63.021658
30
0.0
40
0.300000
50
124.620541
51
184.620541
0
LINE
8
0
10
52.966507
20
63.268538
30
0.0
11
54.595264
21
64.393004
31
0.0
0
LINE
8
0
10
54.595264
20
64.393004
30
0.0
11
54.777973
21
64.474351
31
0.0
0
ARC
8
0
10
54.899975
20
64.200269
30
0.0
40
0.300009
50
311.812671
51
113.995287
0
ARC
8
0
10
55.300000
20
63.753064
30
0.0
40
0.300000
50
131.812671
51
180.000000
0
LINE
8
0
10
55.000000
20
63.753064
30
0.0
11
55.000000
21
59.900278
31
0.0
0
ARC
8
0
10
54.700000
20
59.900278
30
0.0
40
0.300000
50
270.000000
51
0.000000
0
LINE
8
0
10
54.700000
20
59.600278
30
0.0
11
54.478806
21
59.600278
31
0.0
0
ARC
8
0
10
54.478806
20
59.900278
30
0.0
40
0.300000
50
238.600000
51
270.000000
0
LINE
8
0
10
54.322503
20
59.644213
30
0.0
11
52.804202
21
60.570988
31
0.0
0
ARC
8
0
10
52.700000
20
60.400278
30
0.0
40
0.200000
50
58.600000
51
180.000000
0
LINE
8
0
10
52.500000
20
60.400278
30
0.0
11
52.500000
21
58.974695
31
0.0
0
ARC
8
0
10
53.500000
20
58.974695
30
0.0
40
1.000000
50
180.000000
51
238.600000
0
LINE
8
0
10
52.978990
20
58.121144
30
0.0
11
53.121009
21
58.034455
31
0.0
0
ARC
8
0
10
52.600000
20
57.180904
30
0.0
40
1.000000
50
0.000000
51
58.600000
0
LINE
8
0
10
53.600000
20
57.180904
30
0.0
11
53.600000
21
51.594734
31
0.0
0
ARC
8
0
10
53.100000
20
51.594734
30
0.0
40
0.500000
50
283.342364
51
0.000000
0
ARC
8
0
10
54.000000
20
47.800000
30
0.0
40
3.400000
50
103.342364
51
121.147390
0
ARC
8
0
10
52.500000
20
50.281935
30
0.0
40
0.500000
50
121.147390
51
180.000000
0
LINE
8
0
10
52.000000
20
50.281935
30
0.0
11
52.000000
21
49.527610
31
0.0
0
ARC
8
0
10
52.300000
20
49.527610
30
0.0
40
0.300000
50
180.000000
51
240.000000
0
LINE
8
0
10
52.150000
20
49.267802
30
0.0
11
52.442654
21
49.098839
31
0.0
0
ARC
8
0
10
52.592654
20
49.358646
30
0.0
40
0.300000
50
240.000000
51
312.079787
0
ARC
8
0
10
54.000000
20
47.800000
30
0.0
40
1.800000
50
107.142857
51
132.079787
0
LINE
8
0
10
53.469440
20
49.520031
30
0.0
11
53.381014
21
49.806703
31
0.0
0
ARC
8
0
10
54.000000
20
47.800000
30
0.0
40
2.100000
50
64.285714
51
107.142857
0
LINE
8
0
10
54.911156
20
49.692035
30
0.0
11
54.780990
21
49.421744
31
0.0
0
ARC
8
0
10
54.000000
20
47.800000
30
0.0
40
1.800000
50
21.428571
51
64.285714
0
LINE
8
0
10
55.675572
20
48.457614
30
0.0
11
55.954835
21
48.567216
31
0.0
0
ARC
8
0
10
54.000000
20
47.800000
30
0.0
40
2.100000
50
338.571429
51
21.428571
0
LINE
8
0
10
55.954835
20
47.032784
30
0.0
11
55.675572
21
47.142386
31
0.0
0
ARC
8
0
10
54.000000
20
47.800000
30
0.0
40
1.800000
50
295.714286
51
338.571429
0
LINE
8
0
10
54.780990
20
46.178256
30
0.0
11
54.911156
21
45.907966
31
0.0
0
ARC
8
0
10
54.000000
20
47.800000
30
0.0
40
2.100000
50
252.857143
51
295.714286
0
LINE
8
0
10
53.381014
20
45.793297
30
0.0
11
53.469440
21
46.079969
31
0.0
0
ARC
8
0
10
54.000000
20
47.800000
30
0.0
40
1.800000
50
227.920213
51
252.857143
0
ARC
8
0
10
52.592654
20
46.241354
30
0.0
40
0.300000
50
47.920213
51
120.000000
0
LINE
8
0
10
52.442654
20
46.501162
30
0.0
11
52.150000
21
46.332198
31
0.0
0
ARC
8
0
10
52.300000
20
46.072391
30
0.0
40
0.300000
50
120.000000
51
180.000000
0
LINE
8
0
10
52.000000
20
46.072391
30
0.0
11
52.000000
21
45.318066
31
0.0
0
ARC
8
0
10
52.500000
20
45.318066
30
0.0
40
0.500000
50
180.000000
51
238.852610
0
ARC
8
0
10
54.000000
20
47.800000
30
0.0
40
3.400000
50
238.852610
51
256.657636
0
ARC
8
0
10
53.100000
20
44.005267
30
0.0
40
0.500000
50
0.000000
51
76.657636
0
LINE
8
0
10
53.600000
20
44.005267
30
0.0
11
53.600000
21
38.419096
31
0.0
0
ARC
8
0
10
52.600000
20
38.419096
30
0.0
40
1.000000
50
301.400000
51
0.000000
0
LINE
8
0
10
53.121009
20
37.565546
30
0.0
11
52.978990
21
37.478857
31
0.0
0
ARC
8
0
10
53.500000
20
36.625306
30
0.0
40
1.000000
50
121.400000
51
180.000000
0
LINE
8
0
10
52.500000
20
36.625306
30
0.0
11
52.500000
21
35.199723
31
0.0
0
ARC
8
0
10
52.700000
20
35.199723
30
0.0
40
0.200000
50
180.000000
51
301.400000
0
LINE
8
0
10
52.804202
20
35.029012
30
0.0
11
54.322503
21
35.955788
31
0.0
0
ARC
8
0
10
54.478806
20
35.699723
30
0.0
40
0.300000
50
90.000000
51
121.400000
0
LINE
8
0
10
54.478806
20
35.999723
30
0.0
11
54.700000
21
35.999723
31
0.0
0
ARC
8
0
10
54.700000
20
35.699723
30
0.0
40
0.300000
50
0.000000
51
90.000000
0
LINE
8
0
10
55.000000
20
35.699723
30
0.0
11
55.000000
21
31.846936
31
0.0
0
ARC
8
0
10
55.300000
20
31.846936
30
0.0
40
0.300000
50
180.000000
51
228.187329
0
ARC
8
0
10
54.899975
20
31.399732
30
0.0
40
0.300009
50
246.004713
51
48.187329
0
LINE
8
0
10
54.777973
20
31.125650
30
0.0
11
54.595264
21
31.206997
31
0.0
0
LINE
8
0
10
54.595264
20
31.206997
30
0.0
11
52.966507
21
32.331463
31
0.0
0
ARC
8
0
10
53.136949
20
32.578343
30
0.0
40
0.300000
50
175.379459
51
235.379459
0
LINE
8
0
10
52.837924
20
32.602510
30
0.0
11
52.847226
21
32.717605
31
0.0
0
ARC
8
0
10
52.647876
20
32.733716
30
0.0
40
0.200000
50
355.379459
51
115.379459
0
LINE
8
0
10
52.562153
20
32.914414
30
0.0
11
52.054730
21
32.673694
31
0.0
0
ARC
8
0
10
52.183314
20
32.402648
30
0.0
40
0.300000
50
115.379459
51
155.745828
0
LINE
8
0
10
51.909794
20
32.525883
30
0.0
11
50.961144
21
30.420368
31
0.0
0
ARC
8
0
10
51.233870
20
30.295386
30
0.0
40
0.300000
50
155.379459
51
270.000000
0
LINE
8
0
10
51.235857
20
29.995393
30
0.0
11
52.814785
21
30.005850
31
0.0
0
ARC
8
0
10
52.813229
20
30.240845
30
0.0
40
0.235000
50
270.000000
51
336.000000
0
ARC
8
0
10
53.249164
20
30.064431
30
0.0
40
0.235000
50
70.221829
51
156.000000
0
LINE
8
0
10
53.328683
20
30.285568
30
0.0
11
54.630549
21
29.817428
31
0.0
0
ARC
8
0
10
54.732063
20
30.099731
30
0.0
40
0.300000
50
250.221829
51
270.000000
0
LINE
8
0
10
54.732069
20
29.799731
30
0.0
11
56.000009
21
29.799753
31
0.0
0
ARC
8
0
10
56.000000
20
30.299753
30
0.0
40
0.500000
50
270.000000
51
0.000000
0
LINE
8
0
10
56.500000
20
30.299753
30
0.0
11
56.500000
21
31.299762
31
0.0
0
ARC
8
0
10
57.500000
20
31.299762
30
0.0
40
1.000000
50
90.000000
51
180.000000
0
LINE
8
0
10
57.500000
20
32.299762
30
0.0
11
59.800257
21
32.299762
31
0.0
0
ARC
8
0
10
59.800257
20
31.299762
30
0.0
40
1.000000
50
0.000000
51
90.000000
0
LINE
8
0
10
60.800257
20
31.299762
30
0.0
11
60.800257
21
17.100000
31
0.0
0
ARC
8
0
10
60.500257
20
17.100000
30
0.0
40
0.300000
50
270.000000
51
0.000000
0
LINE
8
0
10
60.500257
20
16.800000
30
0.0
11
59.100257
21
16.800000
31
0.0
0
ARC
8
0
10
59.100257
20
17.100000
30
0.0
40
0.300000
50
180.000000
51
270.000000
0
LINE
8
0
10
58.800257
20
17.100000
30
0.0
11
58.800257
21
18.000000
31
0.0
0
ARC
8
0
10
58.500257
20
18.000000
30
0.0
40
0.300000
50
0.000000
51
90.000000
0
LINE
8
0
10
58.500257
20
18.300000
30
0.0
11
58.100257
21
18.300000
31
0.0
0
ARC
8
0
10
58.100257
20
18.000000
30
0.0
40
0.300000
50
90.000000
51
180.000000
0
LINE
8
0
10
57.800257
20
18.000000
30
0.0
11
57.800257
21
15.000000
31
0.0
0
ARC
8
0
10
58.500257
20
15.000000
30
0.0
40
0.700000
50
180.000000
51
270.000000
0
ARC
8
0
10
58.500257
20
14.600000
30
0.0
40
0.300000
50
270.000000
51
0.000000
0
LINE
8
0
10
58.800257
20
14.600000
30
0.0
11
58.800257
21
15.300000
31
0.0
0
ARC
8
0
10
59.100257
20
15.300000
30
0.0
40
0.300000
50
90.000000
51
180.000000
0
LINE
8
0
10
59.100257
20
15.600000
30
0.0
11
60.300257
21
15.600000
31
0.0
0
ARC
8
0
10
60.300257
20
14.900000
30
0.0
40
0.700000
50
0.000000
51
90.000000
0
LINE
8
0
10
61.000257
20
14.900000
30
0.0
11
61.000257
21
8.700000
31
0.0
0
ARC
8
0
10
60.300257
20
8.700000
30
0.0
40
0.700000
50
270.000000
51
0.000000
0
LINE
8
0
10
60.300257
20
8.000000
30
0.0
11
59.100257
21
8.000000
31
0.0
0
ARC
8
0
10
59.100257
20
8.300000
30
0.0
40
0.300000
50
180.000000
51
270.000000
0
LINE
8
0
10
58.800257
20
8.300000
30
0.0
11
58.800257
21
9.000000
31
0.0
0
ARC
8
0
10
58.500257
20
9.000000
30
0.0
40
0.300000
50
0.000000
51
90.000000
0
ARC
8
0
10
58.500257
20
8.600000
30
0.0
40
0.700000
50
90.000000
51
180.000000
0
LINE
8
0
10
57.800257
20
8.600000
30
0.0
11
57.800257
21
7.100000
31
0.0
0
ARC
8
0
10
58.100257
20
7.100000
30
0.0
40
0.300000
50
180.000000
51
270.000000
0
LINE
8
0
10
58.100257
20
6.800000
30
0.0
11
62.000257
21
6.800000
31
0.0
0
ARC
8
0
10
62.000257
20
7.100000
30
0.0
40
0.300000
50
270.000000
51
0.000000
0
LINE
8
0
10
62.300257
20
7.100000
30
0.0
11
62.300257
21
88.500000
31
0.0
0
ARC
8
0
10
62.000257
20
88.500000
30
0.0
40
0.300000
50
0.000000
51
90.000000
0
LINE
8
0
10
62.000257
20
88.800000
30
0.0
11
58.100257
21
88.800000
31
0.0
0
ARC
8
0
10
58.100257
20
88.500000
30
0.0
40
0.300000
50
90.000000
51
180.000000
0
LINE
8
0
10
57.800257
20
88.500000
30
0.0
11
57.800257
21
87.000000
31
0.0
0
LINE
8
0
10
56.500000
20
34.899723
30
0.0
11
56.500000
21
36.283956
31
0.0
0
ARC
8
0
10
56.000000
20
36.283956
30
0.0
40
0.500000
50
0.000000
51
35.000000
0
LINE
8
0
10
56.409576
20
36.570744
30
0.0
11
55.290424
21
38.169059
31
0.0
0
ARC
8
0
10
55.700000
20
38.455847
30
0.0
40
0.500000
50
180.000000
51
215.000000
0
LINE
8
0
10
55.200000
20
38.455847
30
0.0
11
55.200000
21
44.290015
31
0.0
0
ARC
8
0
10
55.700000
20
44.290015
30
0.0
40
0.500000
50
115.842413
51
180.000000
0
ARC
8
0
10
54.000000
20
47.800000
30
0.0
40
3.400000
50
295.842413
51
64.157587
0
ARC
8
0
10
55.700000
20
51.309986
30
0.0
40
0.500000
50
180.000000
51
244.157587
0
LINE
8
0
10
55.200000
20
51.309986
30
0.0
11
55.200000
21
57.144154
31
0.0
0
ARC
8
0
10
55.700000
20
57.144154
30
0.0
40
0.500000
50
145.000000
51
180.000000
0
LINE
8
0
10
55.290424
20
57.430942
30
0.0
11
56.409576
21
59.029257
31
0.0
0
ARC
8
0
10
56.000000
20
59.316045
30
0.0
40
0.500000
50
325.000000
51
0.000000
0
LINE
8
0
10
56.500000
20
59.316045
30
0.0
11
56.500000
21
60.700221
31
0.0
0
ARC
8
0
10
57.500000
20
60.700221
30
0.0
40
1.000000
50
90.000000
51
180.000000
0
LINE
8
0
10
57.500000
20
61.700221
30
0.0
11
59.800257
21
61.700221
31
0.0
0
ARC
8
0
10
59.800257
20
60.700221
30
0.0
40
1.000000
50
0.000000
51
90.000000
0
LINE
8
0
10
60.800257
20
60.700221
30
0.0
11
60.800257
21
34.899780
31
0.0
0
ARC
8
0
10
59.800257
20
34.899780
30
0.0
40
1.000000
50
270.000000
51
0.000000
0
LINE
8
0
10
59.800257
20
33.899780
30
0.0
11
57.500000
21
33.899780
31
0.0
0
ARC
8
0
10
57.500000
20
34.899780
30
0.0
40
1.000000
50
180.000000
51
270.000000
0
ARC
8
0
10
8.999742
20
61.800000
30
0.0
40
2.100000
50
25.714286
51
68.571429
0
LINE
8
0
10
10.891777
20
62.711156
30
0.0
11
11.162067
21
62.841321
31
0.0
0
ARC
8
0
10
8.999742
20
61.800000
30
0.0
40
2.400000
50
342.857143
51
25.714286
0
LINE
8
0
10
11.293117
20
61.092588
30
0.0
11
11.006445
21
61.181014
31
0.0
0
ARC
8
0
10
8.999742
20
61.800000
30
0.0
40
2.100000
50
311.087489
51
342.857143
0
ARC
8
0
10
10.708490
20
59.840362
30
0.0
40
0.500000
50
131.087489
51
210.000000
0
LINE
8
0
10
10.275477
20
59.590362
30
0.0
11
10.580090
21
59.062757
31
0.0
0
ARC
8
0
10
11.013103
20
59.312757
30
0.0
40
0.500000
50
210.000000
51
308.989299
0
ARC
8
0
10
8.999742
20
61.800000
30
0.0
40
3.700000
50
308.989299
51
26.896546
0
ARC
8
0
10
12.745406
20
63.700000
30
0.0
40
0.500000
50
90.000000
51
206.896546
0
LINE
8
0
10
12.745406
20
64.200000
30
0.0
11
16.150000
21
64.200000
31
0.0
0
ARC
8
0
10
16.150000
20
63.850000
30
0.0
40
0.350000
50
0.000000
51
90.000000
0
LINE
8
0
10
16.500000
20
63.850000
30
0.0
11
16.500000
21
31.750000
31
0.0
0
ARC
8
0
10
16.150000
20
31.750000
30
0.0
40
0.350000
50
270.000000
51
0.000000
0
LINE
8
0
10
16.150000
20
31.400000
30
0.0
11
12.745406
21
31.400000
31
0.0
0
ARC
8
0
10
12.745406
20
31.900000
30
0.0
40
0.500000
50
153.103454
51
270.000000
0
ARC
8
0
10
8.999742
20
33.800000
30
0.0
40
3.700000
50
333.103454
51
51.010701
0
ARC
8
0
10
11.013103
20
36.287243
30
0.0
40
0.500000
50
51.010701
51
150.000000
0
LINE
8
0
10
10.580090
20
36.537243
30
0.0
11
10.275477
21
36.009638
31
0.0
0
ARC
8
0
10
10.708490
20
35.759638
30
0.0
40
0.500000
50
150.000000
51
228.912511
0
ARC
8
0
10
8.999742
20
33.800000
30
0.0
40
2.100000
50
17.142857
51
48.912511
0
LINE
8
0
10
11.006445
20
34.418986
30
0.0
11
11.293117
21
34.507413
31
0.0
0
ARC
8
0
10
8.999742
20
33.800000
30
0.0
40
2.400000
50
334.285714
51
17.142857
0
LINE
8
0
10
11.162067
20
32.758679
30
0.0
11
10.891777
21
32.888844
31
0.0
0
ARC
8
0
10
8.999742
20
33.800000
30
0.0
40
2.100000
50
291.428571
51
334.285714
0
LINE
8
0
10
9.766958
20
31.845165
30
0.0
11
9.876560
21
31.565903
31
0.0
0
ARC
8
0
10
8.999742
20
33.800000
30
0.0
40
2.400000
50
248.571429
51
291.428571
0
LINE
8
0
10
8.122924
20
31.565903
30
0.0
11
8.232526
21
31.845165
31
0.0
0
ARC
8
0
10
8.999742
20
33.800000
30
0.0
40
2.100000
50
205.714286
51
248.571429
0
LINE
8
0
10
7.107707
20
32.888844
30
0.0
11
6.837417
21
32.758679
31
0.0
0
ARC
8
0
10
8.999742
20
33.800000
30
0.0
40
2.400000
50
162.857143
51
205.714286
0
LINE
8
0
10
6.706367
20
34.507413
30
0.0
11
6.993039
21
34.418986
31
0.0
0
ARC
8
0
10
8.999742
20
33.800000
30
0.0
40
2.100000
50
131.087489
51
162.857143
0
ARC
8
0
10
7.290994
20
35.759638
30
0.0
40
0.500000
50
311.087489
51
30.000000
0
LINE
8
0
10
7.724007
20
36.009638
30
0.0
11
7.419394
21
36.537243
31
0.0
0
ARC
8
0
10
6.986381
20
36.287243
30
0.0
40
0.500000
50
30.000000
51
128.989299
0
ARC
8
0
10
8.999742
20
33.800000
30
0.0
40
3.700000
50
128.989299
51
206.896546
0
ARC
8
0
10
5.254078
20
31.900000
30
0.0
40
0.500000
50
270.000000
51
26.896546
0
LINE
8
0
10
5.254078
20
31.400000
30
0.0
11
1.850000
21
31.400000
31
0.0
0
ARC
8
0
10
1.850000
20
31.750000
30
0.0
40
0.350000
50
180.000000
51
270.000000
0
LINE
8
0
10
1.500000
20
31.750000
30
0.0
11
1.500000
21
63.850000
31
0.0
0
ARC
8
0
10
1.850000
20
63.850000
30
0.0
40
0.350000
50
90.000000
51
180.000000
0
LINE
8
0
10
1.850000
20
64.200000
30
0.0
11
5.254078
21
64.200000
31
0.0
0
ARC
8
0
10
5.254078
20
63.700000
30
0.0
40
0.500000
50
333.103454
51
90.000000
0
ARC
8
0
10
8.999742
20
61.800000
30
0.0
40
3.700000
50
153.103454
51
231.010701
0
ARC
8
0
10
6.986381
20
59.312757
30
0.0
40
0.500000
50
231.010701
51
330.000000
0
LINE
8
0
10
7.419394
20
59.062757
30
0.0
11
7.724007
21
59.590362
31
0.0
0
ARC
8
0
10
7.290994
20
59.840362
30
0.0
40
0.500000
50
330.000000
51
48.912511
0
ARC
8
0
10
8.999742
20
61.800000
30
0.0
40
2.100000
50
197.142857
51
228.912511
0
LINE
8
0
10
6.993039
20
61.181014
30
0.0
11
6.706367
21
61.092588
31
0.0
0
ARC
8
0
10
8.999742
20
61.800000
30
0.0
40
2.400000
50
154.285714
51
197.142857
0
LINE
8
0
10
6.837417
20
62.841321
30
0.0
11
7.107707
21
62.711156
31
0.0
0
ARC
8
0
10
8.999742
20
61.800000
30
0.0
40
2.100000
50
111.428571
51
154.285714
0
LINE
8
0
10
8.232526
20
63.754835
30
0.0
11
8.122924
21
64.034097
31
0.0
0
ARC
8
0
10
8.999742
20
61.800000
30
0.0
40
2.400000
50
68.571429
51
111.428571
0
LINE
8
0
10
9.876560
20
64.034097
30
0.0
11
9.766958
21
63.754835
31
0.0
0
LINE
8
0
10
20.200000
20
60.573760
30
0.0
11
18.669615
21
59.640192
31
0.0
0
ARC
8
0
10
18.519615
20
59.899999
30
0.0
40
0.300000
50
270.000000
51
300.000000
0
LINE
8
0
10
18.519615
20
59.599999
30
0.0
11
18.300000
21
59.599999
31
0.0
0
ARC
8
0
10
18.300000
20
59.899999
30
0.0
40
0.300000
50
180.000000
51
270.000000
0
LINE
8
0
10
18.000000
20
59.899999
30
0.0
11
18.000000
21
63.934314
31
0.0
0
ARC
8
0
10
18.100000
20
64.217157
30
0.0
40
0.300000
50
109.471221
51
250.528779
0
LINE
8
0
10
18.000000
20
64.499999
30
0.0
11
18.038281
21
64.499999
31
0.0
0
ARC
8
0
10
18.038281
20
63.899999
30
0.0
40
0.600000
50
57.598279
51
90.000000
0
LINE
8
0
10
18.359793
20
64.406586
30
0.0
11
20.067890
21
63.322523
31
0.0
0
LINE
8
0
10
20.067890
20
63.322523
30
0.0
11
20.055793
21
63.034102
31
0.0
0
ARC
8
0
10
20.255617
20
63.025721
30
0.0
40
0.200000
50
180.000000
51
297.598279
0
LINE
8
0
10
20.348271
20
62.848477
30
0.0
11
20.629341
21
62.995406
31
0.0
0
ARC
8
0
10
20.258726
20
63.704380
30
0.0
40
0.800000
50
297.598279
51
342.598279
0
LINE
8
0
10
21.022111
20
63.465125
30
0.0
11
21.624075
21
65.385794
31
0.0
0
ARC
8
0
10
21.337806
20
65.475514
30
0.0
40
0.300000
50
342.598279
51
90.000000
0
LINE
8
0
10
21.337806
20
65.775514
30
0.0
11
19.786712
21
65.775514
31
0.0
0
ARC
8
0
10
19.785309
20
65.575519
30
0.0
40
0.200000
50
90.000000
51
150.367342
0
ARC
8
0
10
19.350703
20
65.822738
30
0.0
40
0.300000
50
252.598279
51
330.367342
0
LINE
8
0
10
19.260982
20
65.536469
30
0.0
11
18.223536
21
65.809924
31
0.0
0
ARC
8
0
10
18.300000
20
66.100016
30
0.0
40
0.300000
50
180.000000
51
255.233538
0
LINE
8
0
10
18.000000
20
66.100016
30
0.0
11
18.000000
21
69.000000
31
0.0
0
ARC
8
0
10
18.300000
20
69.000000
30
0.0
40
0.300000
50
90.000000
51
180.000000
0
LINE
8
0
10
18.300000
20
69.300000
30
0.0
11
18.900000
21
69.300000
31
0.0
0
ARC
8
0
10
18.900000
20
69.600000
30
0.0
40
0.300000
50
270.000000
51
0.000000
0
LINE
8
0
10
19.200000
20
69.600000
30
0.0
11
19.200000
21
69.800000
31
0.0
0
ARC
8
0
10
18.200000
20
69.800000
30
0.0
40
1.000000
50
0.000000
51
90.000000
0
LINE
8
0
10
18.200000
20
70.800000
30
0.0
11
15.050555
21
70.800000
31
0.0
0
ARC
8
0
10
15.050555
20
70.500000
30
0.0
40
0.300000
50
90.000000
51
150.000000
0
LINE
8
0
10
14.790747
20
70.650000
30
0.0
11
14.340192
21
69.869616
31
0.0
0
ARC
8
0
10
14.600000
20
69.719616
30
0.0
40
0.300000
50
150.000000
51
180.000000
0
LINE
8
0
10
14.300000
20
69.719616
30
0.0
11
14.300000
21
69.600000
31
0.0
0
ARC
8
0
10
14.600000
20
69.600000
30
0.0
40
0.300000
50
180.000000
51
270.000000
0
LINE
8
0
10
14.600000
20
69.300000
30
0.0
11
16.000000
21
69.300000
31
0.0
0
ARC
8
0
10
16.000000
20
69.000000
30
0.0
40
0.300000
50
0.000000
51
90.000000
0
LINE
8
0
10
16.300000
20
69.000000
30
0.0
11
16.300000
21
66.100000
31
0.0
0
ARC
8
0
10
16.000000
20
66.100000
30
0.0
40
0.300000
50
270.000000
51
0.000000
0
LINE
8
0
10
16.000000
20
65.800000
30
0.0
11
2.100000
21
65.800000
31
0.0
0
ARC
8
0
10
2.100000
20
66.100000
30
0.0
40
0.300000
50
180.000000
51
270.000000
0
LINE
8
0
10
1.800000
20
66.100000
30
0.0
11
1.800000
21
69.000000
31
0.0
0
ARC
8
0
10
2.100000
20
69.000000
30
0.0
40
0.300000
50
90.000000
51
180.000000
0
LINE
8
0
10
2.100000
20
69.300000
30
0.0
11
4.000000
21
69.300000
31
0.0
0
ARC
8
0
10
4.000000
20
69.600000
30
0.0
40
0.300000
50
270.000000
51
0.000000
0
LINE
8
0
10
4.300000
20
69.600000
30
0.0
11
4.300000
21
69.719616
31
0.0
0
ARC
8
0
10
4.000000
20
69.719616
30
0.0
40
0.300000
50
0.000000
51
30.000000
0
LINE
8
0
10
4.259807
20
69.869616
30
0.0
11
3.809252
21
70.650000
31
0.0
0
ARC
8
0
10
3.549444
20
70.500000
30
0.0
40
0.300000
50
30.000000
51
90.000000
0
LINE
8
0
10
3.549444
20
70.800000
30
0.0
11
0.300000
21
70.800000
31
0.0
0
ARC
8
0
10
0.300000
20
70.500000
30
0.0
40
0.300000
50
90.000000
51
180.000000
0
LINE
8
0
10
0.000000
20
70.500000
30
0.0
11
0.000000
21
25.100000
31
0.0
0
ARC
8
0
10
0.300000
20
25.100000
30
0.0
40
0.300000
50
180.000000
51
270.000000
0
LINE
8
0
10
0.300000
20
24.800000
30
0.0
11
3.549444
21
24.800000
31
0.0
0
ARC
8
0
10
3.549444
20
25.100000
30
0.0
40
0.300000
50
270.000000
51
330.000000
0
LINE
8
0
10
3.809252
20
24.950000
30
0.0
11
4.259807
21
25.730385
31
0.0
0
ARC
8
0
10
4.000000
20
25.880385
30
0.0
40
0.300000
50
330.000000
51
0.000000
0
LINE
8
0
10
4.300000
20
25.880385
30
0.0
11
4.300000
21
26.000000
31
0.0
0
ARC
8
0
10
4.000000
20
26.000000
30
0.0
40
0.300000
50
0.000000
51
90.000000
0
LINE
8
0
10
4.000000
20
26.300000
30
0.0
11
2.100000
21
26.300000
31
0.0
0
ARC
8
0
10
2.100000
20
26.600000
30
0.0
40
0.300000
50
180.000000
51
270.000000
0
LINE
8
0
10
1.800000
20
26.600000
30
0.0
11
1.800000
21
29.500000
31
0.0
0
ARC
8
0
10
2.100000
20
29.500000
30
0.0
40
0.300000
50
90.000000
51
180.000000
0
LINE
8
0
10
2.100000
20
29.800000
30
0.0
11
16.000000
21
29.800000
31
0.0
0
ARC
8
0
10
16.000000
20
29.500000
30
0.0
40
0.300000
50
0.000000
51
90.000000
0
LINE
8
0
10
16.300000
20
29.500000
30
0.0
11
16.300000
21
26.600000
31
0.0
0
ARC
8
0
10
16.000000
20
26.600000
30
0.0
40
0.300000
50
270.000000
51
0.000000
0
LINE
8
0
10
16.000000
20
26.300000
30
0.0
11
14.600000
21
26.300000
31
0.0
0
ARC
8
0
10
14.600000
20
26.000000
30
0.0
40
0.300000
50
90.000000
51
180.000000
0
LINE
8
0
10
14.300000
20
26.000000
30
0.0
11
14.300000
21
25.880385
31
0.0
0
ARC
8
0
10
14.600000
20
25.880385
30
0.0
40
0.300000
50
180.000000
51
210.000000
0
LINE
8
0
10
14.340192
20
25.730385
30
0.0
11
14.790747
21
24.950000
31
0.0
0
ARC
8
0
10
15.050555
20
25.100000
30
0.0
40
0.300000
50
210.000000
51
270.000000
0
LINE
8
0
10
15.050555
20
24.800000
30
0.0
11
18.200000
21
24.800000
31
0.0
0
ARC
8
0
10
18.200000
20
25.800000
30
0.0
40
1.000000
50
270.000000
51
0.000000
0
LINE
8
0
10
19.200000
20
25.800000
30
0.0
11
19.200000
21
26.000000
31
0.0
0
ARC
8
0
10
18.900000
20
26.000000
30
0.0
40
0.300000
50
0.000000
51
90.000000
0
LINE
8
0
10
18.900000
20
26.300000
30
0.0
11
18.300000
21
26.300000
31
0.0
0
ARC
8
0
10
18.300000
20
26.600000
30
0.0
40
0.300000
50
180.000000
51
270.000000
0
LINE
8
0
10
18.000000
20
26.600000
30
0.0
11
18.000000
21
29.499985
31
0.0
0
ARC
8
0
10
18.300000
20
29.499985
30
0.0
40
0.300000
50
104.766462
51
180.000000
0
LINE
8
0
10
18.223536
20
29.790076
30
0.0
11
19.260982
21
30.063532
31
0.0
0
ARC
8
0
10
19.350703
20
29.777263
30
0.0
40
0.300000
50
29.632658
51
107.401721
0
ARC
8
0
10
19.785309
20
30.024481
30
0.0
40
0.200000
50
209.632658
51
270.000000
0
LINE
8
0
10
19.786712
20
29.824486
30
0.0
11
21.337806
21
29.824486
31
0.0
0
ARC
8
0
10
21.337806
20
30.124486
30
0.0
40
0.300000
50
270.000000
51
17.401721
0
LINE
8
0
10
21.624075
20
30.214207
30
0.0
11
21.022111
21
32.134876
31
0.0
0
ARC
8
0
10
20.258726
20
31.895620
30
0.0
40
0.800000
50
17.401721
51
62.401721
0
LINE
8
0
10
20.629341
20
32.604594
30
0.0
11
20.348271
21
32.751524
31
0.0
0
ARC
8
0
10
20.255617
20
32.574280
30
0.0
40
0.200000
50
62.401721
51
180.000000
0
LINE
8
0
10
20.055793
20
32.565899
30
0.0
11
20.067890
21
32.277477
31
0.0
0
LINE
8
0
10
20.067890
20
32.277477
30
0.0
11
18.359793
21
31.193414
31
0.0
0
ARC
8
0
10
18.038281
20
31.700001
30
0.0
40
0.600000
50
270.000000
51
302.401721
0
LINE
8
0
10
18.038281
20
31.100001
30
0.0
11
18.000000
21
31.100001
31
0.0
0
ARC
8
0
10
18.100000
20
31.382844
30
0.0
40
0.300000
50
109.471221
51
250.528779
0
LINE
8
0
10
18.000000
20
31.665687
30
0.0
11
18.000000
21
35.700001
31
0.0
0
ARC
8
0
10
18.300000
20
35.700001
30
0.0
40
0.300000
50
90.000000
51
180.000000
0
LINE
8
0
10
18.300000
20
36.000001
30
0.0
11
18.519615
21
36.000001
31
0.0
0
ARC
8
0
10
18.519615
20
35.700001
30
0.0
40
0.300000
50
60.000000
51
90.000000
0
LINE
8
0
10
18.669615
20
35.959809
30
0.0
11
20.200000
21
35.026241
31
0.0
0
ARC
8
0
10
20.300000
20
35.199446
30
0.0
40
0.200000
50
240.000000
51
0.000000
0
LINE
8
0
10
20.500000
20
35.199446
30
0.0
11
20.500000
21
36.624634
31
0.0
0
ARC
8
0
10
19.500000
20
36.624634
30
0.0
40
1.000000
50
0.000000
51
58.615899
0
LINE
8
0
10
20.020772
20
37.478329
30
0.0
11
18.479227
21
38.418706
31
0.0
0
ARC
8
0
10
19.000000
20
39.272401
30
0.0
40
1.000000
50
180.000000
51
238.615899
0
LINE
8
0
10
18.000000
20
39.272401
30
0.0
11
18.000000
21
56.327599
31
0.0
0
ARC
8
0
10
19.000000
20
56.327599
30
0.0
40
1.000000
50
121.384101
51
180.000000
0
LINE
8
0
10
18.479227
20
57.181295
30
0.0
11
20.020772
21
58.121671
31
0.0
0
ARC
8
0
10
19.500000
20
58.975366
30
0.0
40
1.000000
50
301.384101
51
0.000000
0
LINE
8
0
10
20.500000
20
58.975366
30
0.0
11
20.500000
21
60.400555
31
0.0
0
ARC
8
0
10
20.300000
20
60.400555
30
0.0
40
0.200000
50
0.000000
51
120.000000
0
LINE
8
0
10
38.199994
20
44.514702
30
0.0
11
38.034074
21
43.895480
31
0.0
0
ARC
8
0
10
39.000000
20
43.636661
30
0.0
40
1.000000
50
165.000000
51
180.000000
0
LINE
8
0
10
38.000000
20
43.636661
30
0.0
11
38.000000
21
33.460605
31
0.0
0
ARC
8
0
10
39.000000
20
33.460605
30
0.0
40
1.000000
50
180.000000
51
201.739375
0
LINE
8
0
10
38.071121
20
33.090220
30
0.0
11
38.488169
21
32.044317
31
0.0
0
ARC
8
0
10
39.417048
20
32.414702
30
0.0
40
1.000000
50
201.739375
51
270.000000
0
LINE
8
0
10
39.417048
20
31.414702
30
0.0
11
45.500000
21
31.414702
31
0.0
0
ARC
8
0
10
45.500000
20
31.514702
30
0.0
40
0.100000
50
270.000000
51
0.000000
0
ARC
8
0
10
46.000000
20
31.514702
30
0.0
40
0.400000
50
90.000000
51
180.000000
0
ARC
8
0
10
46.000000
20
31.514702
30
0.0
40
0.400000
50
0.000000
51
90.000000
0
ARC
8
0
10
46.500000
20
31.514702
30
0.0
40
0.100000
50
180.000000
51
270.000000
0
LINE
8
0
10
46.500000
20
31.414702
30
0.0
11
48.222217
21
31.414702
31
0.0
0
ARC
8
0
10
48.222217
20
32.614702
30
0.0
40
1.200000
50
270.000000
51
340.000000
0
LINE
8
0
10
49.349848
20
32.204278
30
0.0
11
50.060480
21
34.156722
31
0.0
0
ARC
8
0
10
51.000173
20
33.814702
30
0.0
40
1.000000
50
90.000000
51
160.000000
0
LINE
8
0
10
51.000173
20
34.814702
30
0.0
11
52.112000
21
34.814702
31
0.0
0
ARC
8
0
10
52.112000
20
36.014702
30
0.0
40
1.200000
50
270.000000
51
299.981639
0
LINE
8
0
10
52.711667
20
34.975280
30
0.0
11
54.293611
21
35.887939
31
0.0
0
ARC
8
0
10
54.393555
20
35.714702
30
0.0
40
0.200000
50
90.000000
51
119.981639
0
LINE
8
0
10
54.393555
20
35.914702
30
0.0
11
54.600000
21
35.914702
31
0.0
0
ARC
8
0
10
54.600000
20
35.514702
30
0.0
40
0.400000
50
0.000000
51
90.000000
0
LINE
8
0
10
55.000000
20
35.514702
30
0.0
11
55.000000
21
35.087907
31
0.0
0
ARC
8
0
10
54.800000
20
35.087907
30
0.0
40
0.200000
50
300.000000
51
0.000000
0
LINE
8
0
10
54.900000
20
34.914702
30
0.0
11
54.900000
21
34.539702
31
0.0
0
ARC
8
0
10
54.700000
20
34.539702
30
0.0
40
0.200000
50
270.000000
51
0.000000
0
LINE
8
0
10
54.700000
20
34.339702
30
0.0
11
54.588193
21
34.339702
31
0.0
0
LINE
8
0
10
54.588193
20
34.339702
30
0.0
11
54.503645
21
34.358452
31
0.0
0
ARC
8
0
10
54.250000
20
33.814702
30
0.0
40
0.600000
50
64.992167
51
180.000000
0
ARC
8
0
10
54.250000
20
33.814702
30
0.0
40
0.600000
50
180.000000
51
295.007833
0
LINE
8
0
10
54.503645
20
33.270952
30
0.0
11
54.588193
21
33.289702
31
0.0
0
LINE
8
0
10
54.588193
20
33.289702
30
0.0
11
54.700000
21
33.289702
31
0.0
0
ARC
8
0
10
54.700000
20
33.089702
30
0.0
40
0.200000
50
0.000000
51
90.000000
0
LINE
8
0
10
54.900000
20
33.089702
30
0.0
11
54.900000
21
32.714702
31
0.0
0
ARC
8
0
10
54.800000
20
32.541497
30
0.0
40
0.200000
50
0.000000
51
60.000000
0
LINE
8
0
10
55.000000
20
32.541497
30
0.0
11
55.000000
21
32.114702
31
0.0
0
ARC
8
0
10
54.600000
20
32.114702
30
0.0
40
0.400000
50
270.000000
51
0.000000
0
LINE
8
0
10
54.600000
20
31.714702
30
0.0
11
54.393555
21
31.714702
31
0.0
0
ARC
8
0
10
54.393555
20
31.914702
30
0.0
40
0.200000
50
240.018361
51
270.000000
0
LINE
8
0
10
54.293611
20
31.741465
30
0.0
11
52.711667
21
32.654125
31
0.0
0
ARC
8
0
10
52.112000
20
31.614702
30
0.0
40
1.200000
50
60.018361
51
90.000000
0
LINE
8
0
10
52.112000
20
32.814702
30
0.0
11
52.049937
21
32.814702
31
0.0
0
ARC
8
0
10
52.049937
20
32.314702
30
0.0
40
0.500000
50
90.000000
51
162.598279
0
LINE
8
0
10
51.572821
20
32.464237
30
0.0
11
50.643918
21
29.912096
31
0.0
0
ARC
8
0
10
50.362010
20
30.014702
30
0.0
40
0.300000
50
270.000000
51
340.000000
0
LINE
8
0
10
50.362010
20
29.714702
30
0.0
11
22.637989
21
29.714702
31
0.0
0
ARC
8
0
10
22.637989
20
30.014702
30
0.0
40
0.300000
50
200.000000
51
270.000000
0
LINE
8
0
10
22.356081
20
29.912096
30
0.0
11
21.427178
21
32.464237
31
0.0
0
ARC
8
0
10
20.950063
20
32.314702
30
0.0
40
0.500000
50
17.401721
51
90.000000
0
LINE
8
0
10
20.950063
20
32.814702
30
0.0
11
20.887999
21
32.814702
31
0.0
0
ARC
8
0
10
20.887999
20
31.614702
30
0.0
40
1.200000
50
90.000000
51
119.981639
0
LINE
8
0
10
20.288332
20
32.654125
30
0.0
11
18.706389
21
31.741465
31
0.0
0
ARC
8
0
10
18.606444
20
31.914702
30
0.0
40
0.200000
50
270.000000
51
299.981639
0
LINE
8
0
10
18.606444
20
31.714702
30
0.0
11
18.400000
21
31.714702
31
0.0
0
ARC
8
0
10
18.400000
20
32.114702
30
0.0
40
0.400000
50
180.000000
51
270.000000
0
LINE
8
0
10
18.000000
20
32.114702
30
0.0
11
18.000000
21
32.541497
31
0.0
0
ARC
8
0
10
18.200000
20
32.541497
30
0.0
40
0.200000
50
120.000000
51
180.000000
0
LINE
8
0
10
18.100000
20
32.714702
30
0.0
11
18.100000
21
33.089702
31
0.0
0
ARC
8
0
10
18.300000
20
33.089702
30
0.0
40
0.200000
50
90.000000
51
180.000000
0
LINE
8
0
10
18.300000
20
33.289702
30
0.0
11
18.411806
21
33.289702
31
0.0
0
LINE
8
0
10
18.411806
20
33.289702
30
0.0
11
18.496354
21
33.270952
31
0.0
0
ARC
8
0
10
18.750000
20
33.814702
30
0.0
40
0.600000
50
244.992167
51
0.000000
0
ARC
8
0
10
18.750000
20
33.814702
30
0.0
40
0.600000
50
0.000000
51
115.007833
0
LINE
8
0
10
18.496354
20
34.358452
30
0.0
11
18.411806
21
34.339702
31
0.0
0
LINE
8
0
10
18.411806
20
34.339702
30
0.0
11
18.300000
21
34.339702
31
0.0
0
ARC
8
0
10
18.300000
20
34.539702
30
0.0
40
0.200000
50
180.000000
51
270.000000
0
LINE
8
0
10
18.100000
20
34.539702
30
0.0
11
18.100000
21
34.914702
31
0.0
0
ARC
8
0
10
18.200000
20
35.087907
30
0.0
40
0.200000
50
180.000000
51
240.000000
0
LINE
8
0
10
18.000000
20
35.087907
30
0.0
11
18.000000
21
35.514702
31
0.0
0
ARC
8
0
10
18.400000
20
35.514702
30
0.0
40
0.400000
50
90.000000
51
180.000000
0
LINE
8
0
10
18.400000
20
35.914702
30
0.0
11
18.606444
21
35.914702
31
0.0
0
ARC
8
0
10
18.606444
20
35.714702
30
0.0
40
0.200000
50
60.018361
51
90.000000
0
LINE
8
0
10
18.706389
20
35.887939
30
0.0
11
20.288332
21
34.975280
31
0.0
0
ARC
8
0
10
20.887999
20
36.014702
30
0.0
40
1.200000
50
240.018361
51
270.000000
0
LINE
8
0
10
20.887999
20
34.814702
30
0.0
11
21.999827
21
34.814702
31
0.0
0
ARC
8
0
10
21.999827
20
33.814702
30
0.0
40
1.000000
50
20.000000
51
90.000000
0
LINE
8
0
10
22.939519
20
34.156722
30
0.0
11
23.650151
21
32.204278
31
0.0
0
ARC
8
0
10
24.777782
20
32.614702
30
0.0
40
1.200000
50
200.000000
51
270.000000
0
LINE
8
0
10
24.777782
20
31.414702
30
0.0
11
35.583348
21
31.414702
31
0.0
0
ARC
8
0
10
35.583348
20
32.414702
30
0.0
40
1.000000
50
270.000000
51
338.061531
0
LINE
8
0
10
36.510934
20
32.041092
30
0.0
11
36.927585
21
33.075537
31
0.0
0
ARC
8
0
10
36.000000
20
33.449148
30
0.0
40
1.000000
50
338.061531
51
0.000000
0
LINE
8
0
10
37.000000
20
33.449148
30
0.0
11
37.000000
21
43.636618
31
0.0
0
ARC
8
0
10
36.000000
20
43.636618
30
0.0
40
1.000000
50
0.000000
51
15.000000
0
LINE
8
0
10
36.965926
20
43.895437
30
0.0
11
36.799994
21
44.514702
31
0.0
0
LINE
8
0
10
36.799994
20
44.514702
30
0.0
11
36.799994
21
45.214702
31
0.0
0
ARC
8
0
10
37.099994
20
45.214702
30
0.0
40
0.300000
50
90.000000
51
180.000000
0
LINE
8
0
10
37.099994
20
45.514702
30
0.0
11
37.899994
21
45.514702
31
0.0
0
ARC
8
0
10
37.899994
20
45.214702
30
0.0
40
0.300000
50
0.000000
51
90.000000
0
LINE
8
0
10
38.199994
20
45.214702
30
0.0
11
38.199994
21
44.514702
31
0.0
0
LINE
8
0
10
38.199994
20
51.085298
30
0.0
11
38.034074
21
51.704520
31
0.0
0
ARC
8
0
10
39.000000
20
51.963339
30
0.0
40
1.000000
50
180.000000
51
195.000000
0
LINE
8
0
10
38.000000
20
51.963339
30
0.0
11
38.000000
21
62.139396
31
0.0
0
ARC
8
0
10
39.000000
20
62.139396
30
0.0
40
1.000000
50
158.260625
51
180.000000
0
LINE
8
0
10
38.071121
20
62.509781
30
0.0
11
38.488169
21
63.555683
31
0.0
0
ARC
8
0
10
39.417048
20
63.185298
30
0.0
40
1.000000
50
90.000000
51
158.260625
0
LINE
8
0
10
39.417048
20
64.185298
30
0.0
11
45.500000
21
64.185298
31
0.0
0
ARC
8
0
10
45.500000
20
64.085298
30
0.0
40
0.100000
50
0.000000
51
90.000000
0
ARC
8
0
10
46.000000
20
64.085298
30
0.0
40
0.400000
50
180.000000
51
270.000000
0
ARC
8
0
10
46.000000
20
64.085298
30
0.0
40
0.400000
50
270.000000
51
0.000000
0
ARC
8
0
10
46.500000
20
64.085298
30
0.0
40
0.100000
50
90.000000
51
180.000000
0
LINE
8
0
10
46.500000
20
64.185298
30
0.0
11
48.222217
21
64.185298
31
0.0
0
ARC
8
0
10
48.222217
20
62.985298
30
0.0
40
1.200000
50
20.000000
51
90.000000
0
LINE
8
0
10
49.349848
20
63.395722
30
0.0
11
50.060480
21
61.443278
31
0.0
0
ARC
8
0
10
51.000173
20
61.785298
30
0.0
40
1.000000
50
200.000000
51
270.000000
0
LINE
8
0
10
51.000173
20
60.785298
30
0.0
11
52.112000
21
60.785298
31
0.0
0
ARC
8
0
10
52.112000
20
59.585298
30
0.0
40
1.200000
50
60.018361
51
90.000000
0
LINE
8
0
10
52.711667
20
60.624721
30
0.0
11
54.293611
21
59.712061
31
0.0
0
ARC
8
0
10
54.393555
20
59.885298
30
0.0
40
0.200000
50
240.018361
51
270.000000
0
LINE
8
0
10
54.393555
20
59.685298
30
0.0
11
54.600000
21
59.685298
31
0.0
0
ARC
8
0
10
54.600000
20
60.085298
30
0.0
40
0.400000
50
270.000000
51
0.000000
0
LINE
8
0
10
55.000000
20
60.085298
30
0.0
11
55.000000
21
60.512093
31
0.0
0
ARC
8
0
10
54.800000
20
60.512093
30
0.0
40
0.200000
50
0.000000
51
60.000000
0
LINE
8
0
10
54.900000
20
60.685298
30
0.0
11
54.900000
21
61.060298
31
0.0
0
ARC
8
0
10
54.700000
20
61.060298
30
0.0
40
0.200000
50
0.000000
51
90.000000
0
LINE
8
0
10
54.700000
20
61.260298
30
0.0
11
54.588193
21
61.260298
31
0.0
0
LINE
8
0
10
54.503645
20
61.241548
30
0.0
11
54.588193
21
61.260298
31
0.0
0
ARC
8
0
10
54.250000
20
61.785298
30
0.0
40
0.600000
50
180.000000
51
295.007833
0
ARC
8
0
10
54.250000
20
61.785298
30
0.0
40
0.600000
50
64.992167
51
180.000000
0
LINE
8
0
10
54.588193
20
62.310298
30
0.0
11
54.503645
21
62.329048
31
0.0
0
LINE
8
0
10
54.588193
20
62.310298
30
0.0
11
54.700000
21
62.310298
31
0.0
0
ARC
8
0
10
54.700000
20
62.510298
30
0.0
40
0.200000
50
270.000000
51
0.000000
0
LINE
8
0
10
54.900000
20
62.510298
30
0.0
11
54.900000
21
62.885298
31
0.0
0
ARC
8
0
10
54.800000
20
63.058503
30
0.0
40
0.200000
50
300.000000
51
0.000000
0
LINE
8
0
10
55.000000
20
63.058503
30
0.0
11
55.000000
21
63.485298
31
0.0
0
ARC
8
0
10
54.600000
20
63.485298
30
0.0
40
0.400000
50
0.000000
51
90.000000
0
LINE
8
0
10
54.600000
20
63.885298
30
0.0
11
54.393555
21
63.885298
31
0.0
0
ARC
8
0
10
54.393555
20
63.685298
30
0.0
40
0.200000
50
90.000000
51
119.981639
0
LINE
8
0
10
54.293611
20
63.858535
30
0.0
11
52.711667
21
62.945876
31
0.0
0
ARC
8
0
10
52.112000
20
63.985298
30
0.0
40
1.200000
50
270.000000
51
299.981639
0
LINE
8
0
10
52.112000
20
62.785298
30
0.0
11
52.049937
21
62.785298
31
0.0
0
ARC
8
0
10
52.049937
20
63.285298
30
0.0
40
0.500000
50
197.401721
51
270.000000
0
LINE
8
0
10
51.572821
20
63.135764
30
0.0
11
50.643918
21
65.687904
31
0.0
0
ARC
8
0
10
50.362010
20
65.585298
30
0.0
40
0.300000
50
20.000000
51
90.000000
0
LINE
8
0
10
50.362010
20
65.885298
30
0.0
11
22.637989
21
65.885298
31
0.0
0
ARC
8
0
10
22.637989
20
65.585298
30
0.0
40
0.300000
50
90.000000
51
160.000000
0
LINE
8
0
10
22.356081
20
65.687904
30
0.0
11
21.427178
21
63.135763
31
0.0
0
ARC
8
0
10
20.950063
20
63.285298
30
0.0
40
0.500000
50
270.000000
51
342.598279
0
LINE
8
0
10
20.950063
20
62.785298
30
0.0
11
20.887999
21
62.785298
31
0.0
0
ARC
8
0
10
20.887999
20
63.985298
30
0.0
40
1.200000
50
240.018361
51
270.000000
0
LINE
8
0
10
20.288332
20
62.945876
30
0.0
11
18.706389
21
63.858535
31
0.0
0
ARC
8
0
10
18.606444
20
63.685298
30
0.0
40
0.200000
50
60.018361
51
90.000000
0
LINE
8
0
10
18.606444
20
63.885298
30
0.0
11
18.400000
21
63.885298
31
0.0
0
ARC
8
0
10
18.400000
20
63.485298
30
0.0
40
0.400000
50
90.000000
51
180.000000
0
LINE
8
0
10
18.000000
20
63.485298
30
0.0
11
18.000000
21
63.058503
31
0.0
0
ARC
8
0
10
18.200000
20
63.058503
30
0.0
40
0.200000
50
180.000000
51
240.000000
0
LINE
8
0
10
18.100000
20
62.885298
30
0.0
11
18.100000
21
62.510298
31
0.0
0
ARC
8
0
10
18.300000
20
62.510298
30
0.0
40
0.200000
50
180.000000
51
270.000000
0
LINE
8
0
10
18.300000
20
62.310298
30
0.0
11
18.411806
21
62.310298
31
0.0
0
LINE
8
0
10
18.496354
20
62.329048
30
0.0
11
18.411806
21
62.310298
31
0.0
0
ARC
8
0
10
18.750000
20
61.785298
30
0.0
40
0.600000
50
0.000000
51
115.007833
0
ARC
8
0
10
18.750000
20
61.785298
30
0.0
40
0.600000
50
244.992167
51
0.000000
0
LINE
8
0
10
18.411806
20
61.260298
30
0.0
11
18.496354
21
61.241548
31
0.0
0
LINE
8
0
10
18.411806
20
61.260298
30
0.0
11
18.300000
21
61.260298
31
0.0
0
ARC
8
0
10
18.300000
20
61.060298
30
0.0
40
0.200000
50
90.000000
51
180.000000
0
LINE
8
0
10
18.100000
20
61.060298
30
0.0
11
18.100000
21
60.685298
31
0.0
0
ARC
8
0
10
18.200000
20
60.512093
30
0.0
40
0.200000
50
120.000000
51
180.000000
0
LINE
8
0
10
18.000000
20
60.512093
30
0.0
11
18.000000
21
60.085298
31
0.0
0
ARC
8
0
10
18.400000
20
60.085298
30
0.0
40
0.400000
50
180.000000
51
270.000000
0
LINE
8
0
10
18.400000
20
59.685298
30
0.0
11
18.606444
21
59.685298
31
0.0
0
ARC
8
0
10
18.606444
20
59.885298
30
0.0
40
0.200000
50
270.000000
51
299.981639
0
LINE
8
0
10
18.706389
20
59.712061
30
0.0
11
20.288332
21
60.624721
31
0.0
0
ARC
8
0
10
20.887999
20
59.585298
30
0.0
40
1.200000
50
90.000000
51
119.981639
0
LINE
8
0
10
20.887999
20
60.785298
30
0.0
11
21.999827
21
60.785298
31
0.0
0
ARC
8
0
10
21.999827
20
61.785298
30
0.0
40
1.000000
50
270.000000
51
340.000000
0
LINE
8
0
10
22.939519
20
61.443278
30
0.0
11
23.650151
21
63.395722
31
0.0
0
ARC
8
0
10
24.777782
20
62.985298
30
0.0
40
1.200000
50
90.000000
51
160.000000
0
LINE
8
0
10
24.777782
20
64.185298
30
0.0
11
35.583348
21
64.185298
31
0.0
0
ARC
8
0
10
35.583348
20
63.185298
30
0.0
40
1.000000
50
21.938469
51
90.000000
0
LINE
8
0
10
36.510934
20
63.558909
30
0.0
11
36.927585
21
62.524464
31
0.0
0
ARC
8
0
10
36.000000
20
62.150853
30
0.0
40
1.000000
50
0.000000
51
21.938469
0
LINE
8
0
10
37.000000
20
62.150853
30
0.0
11
37.000000
21
51.963382
31
0.0
0
ARC
8
0
10
36.000000
20
51.963382
30
0.0
40
1.000000
50
345.000000
51
0.000000
0
LINE
8
0
10
36.965926
20
51.704563
30
0.0
11
36.799994
21
51.085298
31
0.0
0
LINE
8
0
10
36.799994
20
51.085298
30
0.0
11
36.799994
21
50.385298
31
0.0
0
ARC
8
0
10
37.099994
20
50.385298
30
0.0
40
0.300000
50
180.000000
51
270.000000
0
LINE
8
0
10
37.099994
20
50.085298
30
0.0
11
37.899994
21
50.085298
31
0.0
0
ARC
8
0
10
37.899994
20
50.385298
30
0.0
40
0.300000
50
270.000000
51
0.000000
0
LINE
8
0
10
38.199994
20
50.385298
30
0.0
11
38.199994
21
51.085298
31
0.0
0
ATTDEF
8
0
10
16.625278
20
70.800000
30
0.0
40
3.5
1

3

2
VC_START
70
0
0
ATTDEF
8
0
10
16.625278
20
24.800000
30
0.0
40
3.5
1

3

2
VC_END
70
0
0
LINE
8
0
10
2.000316
20
23.000000
30
0.0
11
5.100316
21
23.000000
31
0.0
0
ARC
8
0
10
5.100316
20
23.500000
30
0.0
40
0.500000
50
270.000000
51
0.000000
0
LINE
8
0
10
5.600316
20
23.500000
30
0.0
11
5.600316
21
29.100000
31
0.0
0
ARC
8
0
10
5.300316
20
29.100000
30
0.0
40
0.300000
50
0.000000
51
150.116348
0
LINE
8
0
10
5.040205
20
29.249473
30
0.0
11
4.089054
21
27.568341
31
0.0
0
ARC
8
0
10
4.698301
20
27.223641
30
0.0
40
0.700000
50
150.499678
51
225.000000
0
LINE
8
0
10
4.203326
20
26.728666
30
0.0
11
4.512448
21
26.419544
31
0.0
0
ARC
8
0
10
4.300316
20
26.207412
30
0.0
40
0.300000
50
0.000000
51
45.000000
0
LINE
8
0
10
4.600316
20
26.207412
30
0.0
11
4.600316
21
24.800000
31
0.0
0
ARC
8
0
10
4.100316
20
24.800000
30
0.0
40
0.500000
50
270.000000
51
0.000000
0
LINE
8
0
10
4.100316
20
24.300000
30
0.0
11
2.000000
21
24.300000
31
0.0
0
LINE
8
0
10
2.000000
20
24.300000
30
0.0
11
2.000000
21
24.500000
31
0.0
0
ARC
8
0
10
1.700000
20
24.500000
30
0.0
40
0.300000
50
0.000000
51
90.000000
0
LINE
8
0
10
1.700000
20
24.800000
30
0.0
11
0.300000
21
24.800000
31
0.0
0
ARC
8
0
10
0.300000
20
24.500000
30
0.0
40
0.300000
50
90.000000
51
180.000000
0
LINE
8
0
10
0.000000
20
24.500000
30
0.0
11
0.000000
21
0.498405
31
0.0
0
ARC
8
0
10
0.500000
20
0.498405
30
0.0
40
0.500000
50
180.000000
51
270.000000
0
LINE
8
0
10
0.500000
20
-0.001595
30
0.0
11
65.198188
21
-0.001595
31
0.0
0
ARC
8
0
10
65.198188
20
0.298405
30
0.0
40
0.300000
50
270.000000
51
0.000000
0
LINE
8
0
10
65.498188
20
0.298405
30
0.0
11
65.498188
21
1.740104
31
0.0
0
ARC
8
0
10
65.798188
20
1.740104
30
0.0
40
0.300000
50
105.826620
51
180.000000
0
ARC
8
0
10
65.498188
20
2.798405
30
0.0
40
0.800000
50
285.826620
51
140.000000
0
LINE
8
0
10
64.885352
20
3.312635
30
0.0
11
64.068374
21
2.338998
31
0.0
0
ARC
8
0
10
64.298188
20
2.146162
30
0.0
40
0.300000
50
140.000000
51
180.000000
0
LINE
8
0
10
63.998188
20
2.146162
30
0.0
11
63.998188
21
1.795156
31
0.0
0
ARC
8
0
10
63.698188
20
1.795156
30
0.0
40
0.300000
50
270.000000
51
0.000000
0
LINE
8
0
10
63.698188
20
1.495156
30
0.0
11
18.400000
21
1.495156
31
0.0
0
ARC
8
0
10
18.400000
20
1.795156
30
0.0
40
0.300000
50
180.000000
51
270.000000
0
LINE
8
0
10
18.100000
20
1.795156
30
0.0
11
18.100000
21
24.500000
31
0.0
0
ARC
8
0
10
17.800000
20
24.500000
30
0.0
40
0.300000
50
0.000000
51
90.000000
0
LINE
8
0
10
17.800000
20
24.800000
30
0.0
11
16.400000
21
24.800000
31
0.0
0
ARC
8
0
10
16.400000
20
24.500000
30
0.0
40
0.300000
50
90.000000
51
180.000000
0
LINE
8
0
10
16.100000
20
24.500000
30
0.0
11
16.100000
21
24.300000
31
0.0
0
LINE
8
0
10
16.100000
20
24.300000
30
0.0
11
14.500000
21
24.300000
31
0.0
0
ARC
8
0
10
14.500000
20
24.800000
30
0.0
40
0.500000
50
180.000000
51
270.000000
0
LINE
8
0
10
14.000000
20
24.800000
30
0.0
11
14.000000
21
26.207412
31
0.0
0
ARC
8
0
10
14.300000
20
26.207412
30
0.0
40
0.300000
50
135.000000
51
180.000000
0
LINE
8
0
10
14.087868
20
26.419544
30
0.0
11
14.396990
21
26.728666
31
0.0
0
ARC
8
0
10
13.902015
20
27.223641
30
0.0
40
0.700000
50
315.000000
51
29.500322
0
LINE
8
0
10
14.511263
20
27.568341
30
0.0
11
13.560112
21
29.249473
31
0.0
0
ARC
8
0
10
13.300000
20
29.100000
30
0.0
40
0.300000
50
29.883652
51
180.000000
0
LINE
8
0
10
13.000000
20
29.100000
30
0.0
11
13.000000
21
23.500000
31
0.0
0
ARC
8
0
10
13.500000
20
23.500000
30
0.0
40
0.500000
50
180.000000
51
270.000000
0
LINE
8
0
10
13.500000
20
23.000000
30
0.0
11
16.400000
21
23.000000
31
0.0
0
ARC
8
0
10
16.400000
20
22.700000
30
0.0
40
0.300000
50
0.000000
51
90.000000
0
LINE
8
0
10
16.700000
20
22.700000
30
0.0
11
16.700000
21
1.995156
31
0.0
0
ARC
8
0
10
16.400000
20
1.995156
30
0.0
40
0.300000
50
270.000000
51
0.000000
0
LINE
8
0
10
16.400000
20
1.695156
30
0.0
11
2.000316
21
1.695156
31
0.0
0
ARC
8
0
10
2.000316
20
1.995156
30
0.0
40
0.300000
50
180.000000
51
270.000000
0
LINE
8
0
10
1.700316
20
1.995156
30
0.0
11
1.700316
21
22.700000
31
0.0
0
ARC
8
0
10
2.000316
20
22.700000
30
0.0
40
0.300000
50
90.000000
51
180.000000
0
ARC
8
0
10
56.844040
20
12.590193
30
0.0
40
0.300000
50
120.000000
51
210.000000
0
LINE
8
0
10
56.584232
20
12.440193
30
0.0
11
56.640450
21
12.342820
31
0.0
0
ARC
8
0
10
54.314617
20
11.000000
30
0.0
40
2.685641
50
321.284751
51
30.000000
0
ARC
8
0
10
56.800257
20
9.007540
30
0.0
40
0.500000
50
141.284751
51
180.000000
0
LINE
8
0
10
56.300257
20
9.007540
30
0.0
11
56.300257
21
6.400000
31
0.0
0
ARC
8
0
10
57.300257
20
6.400000
30
0.0
40
1.000000
50
180.000000
51
270.000000
0
LINE
8
0
10
57.300257
20
5.400000
30
0.0
11
59.700257
21
5.400000
31
0.0
0
ARC
8
0
10
59.700257
20
4.900000
30
0.0
40
0.500000
50
0.000000
51
90.000000
0
LINE
8
0
10
60.200257
20
4.900000
30
0.0
11
60.200257
21
2.200000
31
0.0
0
ARC
8
0
10
60.700257
20
2.200000
30
0.0
40
0.500000
50
180.000000
51
270.000000
0
LINE
8
0
10
60.700257
20
1.700000
30
0.0
11
61.700257
21
1.700000
31
0.0
0
ARC
8
0
10
61.700257
20
4.200000
30
0.0
40
2.500000
50
270.000000
51
324.672086
0
ARC
8
0
10
66.187465
20
1.019597
30
0.0
40
3.000000
50
107.585703
51
144.672086
0
ARC
8
0
10
68.000257
20
-4.700000
30
0.0
40
9.000000
50
94.301222
51
107.585703
0
ARC
8
0
10
67.400257
20
3.277468
30
0.0
40
1.000000
50
274.301222
51
94.301222
0
ARC
8
0
10
68.000257
20
-4.700000
30
0.0
40
7.000000
50
94.301222
51
106.076650
0
ARC
8
0
10
66.200257
20
1.545799
30
0.0
40
0.500000
50
106.076650
51
180.000000
0
LINE
8
0
10
65.700257
20
1.545799
30
0.0
11
65.700257
21
0.500000
31
0.0
0
ARC
8
0
10
66.200257
20
0.500000
30
0.0
40
0.500000
50
180.000000
51
270.000000
0
LINE
8
0
10
66.200257
20
0.000000
30
0.0
11
72.200257
21
0.000000
31
0.0
0
ARC
8
0
10
72.200257
20
0.500000
30
0.0
40
0.500000
50
270.000000
51
0.000000
0
LINE
8
0
10
72.700257
20
0.500000
30
0.0
11
72.700257
21
2.700000
31
0.0
0
ARC
8
0
10
72.400257
20
2.700000
30
0.0
40
0.300000
50
0.000000
51
90.000000
0
LINE
8
0
10
72.400257
20
3.000000
30
0.0
11
72.000257
21
3.000000
31
0.0
0
ARC
8
0
10
72.000257
20
2.700000
30
0.0
40
0.300000
50
90.000000
51
180.000000
0
LINE
8
0
10
71.700257
20
2.700000
30
0.0
11
71.700257
21
1.800000
31
0.0
0
ARC
8
0
10
71.400257
20
1.800000
30
0.0
40
0.300000
50
270.000000
51
0.000000
0
LINE
8
0
10
71.400257
20
1.500000
30
0.0
11
70.500257
21
1.500000
31
0.0
0
ARC
8
0
10
70.500257
20
1.800000
30
0.0
40
0.300000
50
180.000000
51
270.000000
0
LINE
8
0
10
70.200257
20
1.800000
30
0.0
11
70.200257
21
8.700000
31
0.0
0
ARC
8
0
10
70.500257
20
8.700000
30
0.0
40
0.300000
50
90.000000
51
180.000000
0
LINE
8
0
10
70.500257
20
9.000000
30
0.0
11
71.400257
21
9.000000
31
0.0
0
ARC
8
0
10
71.400257
20
8.700000
30
0.0
40
0.300000
50
0.000000
51
90.000000
0
LINE
8
0
10
71.700257
20
8.700000
30
0.0
11
71.700257
21
7.800000
31
0.0
0
ARC
8
0
10
72.000257
20
7.800000
30
0.0
40
0.300000
50
180.000000
51
270.000000
0
LINE
8
0
10
72.000257
20
7.500000
30
0.0
11
72.400257
21
7.500000
31
0.0
0
ARC
8
0
10
72.400257
20
7.800000
30
0.0
40
0.300000
50
270.000000
51
0.000000
0
LINE
8
0
10
72.700257
20
7.800000
30
0.0
11
72.700257
21
25.300000
31
0.0
0
ARC
8
0
10
72.200257
20
25.300000
30
0.0
40
0.500000
50
0.000000
51
90.000000
0
LINE
8
0
10
72.200257
20
25.800000
30
0.0
11
71.900257
21
25.800000
31
0.0
0
ARC
8
0
10
71.900257
20
26.000000
30
0.0
40
0.200000
50
180.000000
51
270.000000
0
LINE
8
0
10
71.700257
20
26.000000
30
0.0
11
71.700257
21
26.450000
31
0.0
0
ARC
8
0
10
71.450257
20
26.450000
30
0.0
40
0.250000
50
0.000000
51
90.000000
0
LINE
8
0
10
71.450257
20
26.700000
30
0.0
11
71.050257
21
26.700000
31
0.0
0
ARC
8
0
10
71.050257
20
26.450000
30
0.0
40
0.250000
50
90.000000
51
180.000000
0
LINE
8
0
10
70.800257
20
26.450000
30
0.0
11
70.800257
21
26.000000
31
0.0
0
ARC
8
0
10
70.600257
20
26.000000
30
0.0
40
0.200000
50
270.000000
51
0.000000
0
LINE
8
0
10
70.600257
20
25.800000
30
0.0
11
69.607364
21
25.800000
31
0.0
0
ARC
8
0
10
69.607364
20
26.300000
30
0.0
40
0.500000
50
225.000000
51
270.000000
0
LINE
8
0
10
69.253811
20
25.946447
30
0.0
11
66.588125
21
28.612132
31
0.0
0
ARC
8
0
10
66.800257
20
28.824264
30
0.0
40
0.300000
50
180.000000
51
225.000000
0
LINE
8
0
10
66.500257
20
28.824264
30
0.0
11
66.500257
21
30.150000
31
0.0
0
LINE
8
0
10
66.500257
20
30.150000
30
0.0
11
66.200257
21
30.450000
31
0.0
0
LINE
8
0
10
66.200257
20
30.450000
30
0.0
11
66.500257
21
30.750000
31
0.0
0
LINE
8
0
10
66.500257
20
30.750000
30
0.0
11
66.500257
21
32.075736
31
0.0
0
ARC
8
0
10
66.800257
20
32.075736
30
0.0
40
0.300000
50
135.000000
51
180.000000
0
LINE
8
0
10
66.588125
20
32.287868
30
0.0
11
69.253811
21
34.953554
31
0.0
0
ARC
8
0
10
69.607364
20
34.600000
30
0.0
40
0.500000
50
90.000000
51
135.000000
0
LINE
8
0
10
69.607364
20
35.100000
30
0.0
11
70.600257
21
35.100000
31
0.0
0
ARC
8
0
10
70.600257
20
34.900000
30
0.0
40
0.200000
50
0.000000
51
90.000000
0
LINE
8
0
10
70.800257
20
34.900000
30
0.0
11
70.800257
21
34.450000
31
0.0
0
ARC
8
0
10
71.050257
20
34.450000
30
0.0
40
0.250000
50
180.000000
51
270.000000
0
LINE
8
0
10
71.050257
20
34.200000
30
0.0
11
71.450257
21
34.200000
31
0.0
0
ARC
8
0
10
71.450257
20
34.450000
30
0.0
40
0.250000
50
270.000000
51
0.000000
0
LINE
8
0
10
71.700257
20
34.450000
30
0.0
11
71.700257
21
34.900000
31
0.0
0
ARC
8
0
10
71.900257
20
34.900000
30
0.0
40
0.200000
50
90.000000
51
180.000000
0
LINE
8
0
10
71.900257
20
35.100000
30
0.0
11
72.200257
21
35.100000
31
0.0
0
ARC
8
0
10
72.200257
20
35.600000
30
0.0
40
0.500000
50
270.000000
51
0.000000
0
LINE
8
0
10
72.700257
20
35.600000
30
0.0
11
72.700257
21
44.300000
31
0.0
0
ARC
8
0
10
71.700257
20
44.300000
30
0.0
40
1.000000
50
0.000000
51
90.000000
0
LINE
8
0
10
71.700257
20
45.300000
30
0.0
11
71.282157
21
45.300000
31
0.0
0
ARC
8
0
10
71.282157
20
44.800000
30
0.0
40
0.500000
50
90.000000
51
165.000000
0
LINE
8
0
10
70.799194
20
44.929410
30
0.0
11
69.899201
21
41.570591
31
0.0
0
ARC
8
0
10
69.416238
20
41.700000
30
0.0
40
0.500000
50
270.000000
51
345.000000
0
LINE
8
0
10
69.416238
20
41.200000
30
0.0
11
68.300257
21
41.200000
31
0.0
0
ARC
8
0
10
68.300257
20
40.500000
30
0.0
40
0.700000
50
90.000000
51
180.000000
0
ARC
8
0
10
67.900257
20
40.500000
30
0.0
40
0.300000
50
180.000000
51
270.000000
0
LINE
8
0
10
67.900257
20
40.200000
30
0.0
11
68.400257
21
40.200000
31
0.0
0
ARC
8
0
10
68.400257
20
39.900000
30
0.0
40
0.300000
50
0.000000
51
90.000000
0
LINE
8
0
10
68.700257
20
39.900000
30
0.0
11
68.700257
21
39.727350
31
0.0
0
ARC
8
0
10
67.700257
20
39.727350
30
0.0
40
1.000000
50
300.000000
51
0.000000
0
LINE
8
0
10
68.200257
20
38.861325
30
0.0
11
66.478014
21
37.866987
31
0.0
0
ARC
8
0
10
66.228014
20
38.300000
30
0.0
40
0.500000
50
270.000000
51
300.000000
0
LINE
8
0
10
66.228014
20
37.800000
30
0.0
11
65.972501
21
37.800000
31
0.0
0
ARC
8
0
10
65.972501
20
38.300000
30
0.0
40
0.500000
50
240.000000
51
270.000000
0
LINE
8
0
10
65.722501
20
37.866987
30
0.0
11
64.000257
21
38.861325
31
0.0
0
ARC
8
0
10
64.500257
20
39.727350
30
0.0
40
1.000000
50
180.000000
51
240.000000
0
LINE
8
0
10
63.500257
20
39.727350
30
0.0
11
63.500257
21
39.900000
31
0.0
0
ARC
8
0
10
63.800257
20
39.900000
30
0.0
40
0.300000
50
90.000000
51
180.000000
0
LINE
8
0
10
63.800257
20
40.200000
30
0.0
11
64.300257
21
40.200000
31
0.0
0
ARC
8
0
10
64.300257
20
40.500000
30
0.0
40
0.300000
50
270.000000
51
0.000000
0
ARC
8
0
10
63.900257
20
40.500000
30
0.0
40
0.700000
50
0.000000
51
90.000000
0
LINE
8
0
10
63.900257
20
41.200000
30
0.0
11
62.800257
21
41.200000
31
0.0
0
ARC
8
0
10
62.800257
20
40.700000
30
0.0
40
0.500000
50
90.000000
51
180.000000
0
LINE
8
0
10
62.300257
20
40.700000
30
0.0
11
62.300257
21
7.300000
31
0.0
0
ARC
8
0
10
61.800257
20
7.300000
30
0.0
40
0.500000
50
270.000000
51
0.000000
0
LINE
8
0
10
61.800257
20
6.800000
30
0.0
11
57.600257
21
6.800000
31
0.0
0
ARC
8
0
10
57.600257
20
7.100000
30
0.0
40
0.300000
50
180.000000
51
270.000000
0
LINE
8
0
10
57.300257
20
7.100000
30
0.0
11
57.300257
21
8.743920
31
0.0
0
ARC
8
0
10
57.600257
20
8.743920
30
0.0
40
0.300000
50
145.524622
51
180.000000
0
ARC
8
0
10
54.314617
20
11.000000
30
0.0
40
3.685641
50
325.524622
51
30.000000
0
LINE
8
0
10
57.506475
20
12.842820
30
0.0
11
57.450257
21
12.940193
31
0.0
0
ARC
8
0
10
57.190450
20
12.790193
30
0.0
40
0.300000
50
30.000000
51
120.000000
0
LINE
8
0
10
57.040450
20
13.050000
30
0.0
11
56.694040
21
12.850000
31
0.0
0
ARC
8
0
10
64.400257
20
27.405888
30
0.0
40
0.600000
50
45.000000
51
180.000000
0
LINE
8
0
10
63.800257
20
27.405888
30
0.0
11
63.800257
21
17.300000
31
0.0
0
ARC
8
0
10
64.300257
20
17.300000
30
0.0
40
0.500000
50
180.000000
51
270.000000
0
LINE
8
0
10
64.300257
20
16.800000
30
0.0
11
70.400257
21
16.800000
31
0.0
0
ARC
8
0
10
70.400257
20
17.300000
30
0.0
40
0.500000
50
270.000000
51
0.000000
0
LINE
8
0
10
70.900257
20
17.300000
30
0.0
11
70.900257
21
23.500000
31
0.0
0
ARC
8
0
10
70.400257
20
23.500000
30
0.0
40
0.500000
50
0.000000
51
90.000000
0
LINE
8
0
10
70.400257
20
24.000000
30
0.0
11
68.861780
21
24.000000
31
0.0
0
ARC
8
0
10
68.861780
20
24.500000
30
0.0
40
0.500000
50
225.000000
51
270.000000
0
LINE
8
0
10
68.508226
20
24.146447
30
0.0
11
64.824522
21
27.830152
31
0.0
0
ARC
8
0
10
64.300257
20
6.700000
30
0.0
40
0.500000
50
180.000000
51
270.000000
0
LINE
8
0
10
64.300257
20
6.200000
30
0.0
11
68.200257
21
6.200000
31
0.0
0
ARC
8
0
10
68.200257
20
6.700000
30
0.0
40
0.500000
50
270.000000
51
0.000000
0
LINE
8
0
10
68.700257
20
6.700000
30
0.0
11
68.700257
21
10.000000
31
0.0
0
ARC
8
0
10
69.200257
20
10.000000
30
0.0
40
0.500000
50
90.000000
51
180.000000
0
LINE
8
0
10
69.200257
20
10.500000
30
0.0
11
70.400257
21
10.500000
31
0.0
0
ARC
8
0
10
70.400257
20
11.000000
30
0.0
40
0.500000
50
270.000000
51
0.000000
0
LINE
8
0
10
70.900257
20
11.000000
30
0.0
11
70.900257
21
15.100000
31
0.0
0
ARC
8
0
10
70.400257
20
15.100000
30
0.0
40
0.500000
50
0.000000
51
90.000000
0
LINE
8
0
10
70.400257
20
15.600000
30
0.0
11
64.300257
21
15.600000
31
0.0
0
ARC
8
0
10
64.300257
20
15.100000
30
0.0
40
0.500000
50
90.000000
51
180.000000
0
LINE
8
0
10
63.800257
20
15.100000
30
0.0
11
63.800257
21
6.700000
31
0.0
0
LINE
8
0
10
69.921578
20
37.776669
30
0.0
11
69.153143
21
37.333013
31
0.0
0
ARC
8
0
10
69.403143
20
36.900000
30
0.0
40
0.500000
50
120.000000
51
270.000000
0
LINE
8
0
10
69.403143
20
36.400000
30
0.0
11
71.100257
21
36.400000
31
0.0
0
ARC
8
0
10
71.100257
20
36.700000
30
0.0
40
0.300000
50
270.000000
51
0.000000
0
LINE
8
0
10
71.400257
20
36.700000
30
0.0
11
71.400257
21
39.700000
31
0.0
0
ARC
8
0
10
71.100257
20
39.700000
30
0.0
40
0.300000
50
0.000000
51
90.000000
0
LINE
8
0
10
71.100257
20
40.000000
30
0.0
11
70.899129
21
40.000000
31
0.0
0
ARC
8
0
10
70.899129
20
39.700000
30
0.0
40
0.300000
50
90.000000
51
165.000000
0
LINE
8
0
10
70.609351
20
39.777646
30
0.0
11
70.154541
21
38.080272
31
0.0
0
ARC
8
0
10
69.671578
20
38.209682
30
0.0
40
0.500000
50
300.000000
51
345.000000
0
LINE
8
0
10
63.800257
20
33.494113
30
0.0
11
63.800257
21
36.032309
31
0.0
0
ARC
8
0
10
64.300257
20
36.032309
30
0.0
40
0.500000
50
60.000000
51
180.000000
0
LINE
8
0
10
64.550257
20
36.465321
30
0.0
11
66.312464
21
35.447911
31
0.0
0
ARC
8
0
10
66.062464
20
35.014898
30
0.0
40
0.500000
50
315.000000
51
60.000000
0
LINE
8
0
10
66.416018
20
34.661345
30
0.0
11
64.824522
21
33.069849
31
0.0
0
ARC
8
0
10
64.400257
20
33.494113
30
0.0
40
0.600000
50
180.000000
51
315.000000
0
ATTDEF
8
0
10
0.000000
20
0.000000
30
0.0
40
3.5
1

3

2
GLASS_MIN:0.000000
70
0
0
ATTDEF
8
0
10
0.000000
20
0.000000
30
0.0
40
3.5
1

3

2
GLASS_MAX:0.000000
70
0
0
ATTDEF
8
0
10
0.000000
20
0.000000
30
0.0
40
3.5
1

3

2
BL01:6500.000000,,1
70
0
0
ATTDEF
8
0
10
0.000000
20
0.000000
30
0.0
40
3.5
1

3

2
HW_START
70
0
0
ATTDEF
8
0
10
72.700257
20
88.800000
30
0.0
40
3.5
1

3

2
HW_END
70
0
0
ATTDEF
8
0
10
0.000000
20
0.000000
30
0.0
40
3.5
1

3

2
FP_LCS_ORIG
70
0
0
ATTDEF
8
0
10
10.000000
20
0.000000
30
0.0
40
3.5
1

3

2
FP_LCS_HOT
70
0
0
ATTDEF
8
0
10
0.000000
20
10.000000
30
0.0
40
3.5
1

3

2
FP_LCS_INTERN
70
0
0
ATTDEF
8
0
10
0.000000
20
0.000000
30
0.0
40
3.5
1

3

2
TDEV3:0
70
0
0
ATTDEF
8
0
10
0.000000
20
0.000000
30
0.0
40
3.5
1

3

2
TDEV4:0
70
0
0
ATTDEF
8
0
10
0.000000
20
0.000000
30
0.0
40
3.5
1

3

2
TDEV5:0
70
0
0
ATTDEF
8
0
10
0.000000
20
0.000000
30
0.0
40
3.5
1

3

2
PANE_WIDTH:57.5
70
0
0
ATTDEF
8
0
10
0.000000
20
0.000000
30
0.0
40
3.5
1

3

2
MIN_VETRO:0
70
0
0
ATTDEF
8
0
10
0.000000
20
0.000000
30
0.0
40
3.5
1

3

2
MAX_VETRO:0
70
0
0
ATTDEF
8
0
10
0.000000
20
0.000000
30
0.0
40
3.5
1

3

2
JX:0
70
0
0
ATTDEF
8
0
10
0.000000
20
0.000000
30
0.0
40
3.5
1

3

2
WX:0
70
0
0
ATTDEF
8
0
10
0.000000
20
0.000000
30
0.0
40
3.5
1

3

2
JY:0
70
0
0
ATTDEF
8
0
10
0.000000
20
0.000000
30
0.0
40
3.5
1

3

2
WY:0
70
0
0
ATTDEF
8
0
10
0.000000
20
0.000000
30
0.0
40
3.5
1

3

2
DESC:U10600 - N10906 - V31013
70
0
0
ATTDEF
8
0
10
0.000000
20
0.000000
30
0.0
40
3.5
1

3

2
DENS:0
70
0
0
ATTDEF
8
0
10
0.000000
20
0.000000
30
0.0
40
3.5
1

3

2
TDEV:0
70
0
0
ATTDEF
8
0
10
0.000000
20
0.000000
30
0.0
40
3.5
1

3

2
TDEV2:0
70
0
0
ATTDEF
8
0
10
0.000000
20
0.000000
30
0.0
40
3.5
1

3

2
TDEV3:0
70
0
0
ATTDEF
8
0
10
0.000000
20
0.000000
30
0.0
40
3.5
1

3

2
TDEV4:0
70
0
0
ATTDEF
8
0
10
0.000000
20
0.000000
30
0.0
40
3.5
1

3

2
TDEV5:0
70
0
0
ATTDEF
8
0
10
0.000000
20
0.000000
30
0.0
40
3.5
1

3

2
PANE_WIDTH:57.5
70
0
0
ATTDEF
8
0
10
0.000000
20
0.000000
30
0.0
40
3.5
1

3

2
MIN_VETRO:0
70
0
0
ATTDEF
8
0
10
0.000000
20
0.000000
30
0.0
40
3.5
1

3

2
MAX_VETRO:0
70
0
0
ATTDEF
8
0
10
0.000000
20
0.000000
30
0.0
40
3.5
1

3

2
JX:0
70
0
0
ATTDEF
8
0
10
0.000000
20
0.000000
30
0.0
40
3.5
1

3

2
WX:0
70
0
0
ATTDEF
8
0
10
0.000000
20
0.000000
30
0.0
40
3.5
1

3

2
JY:0
70
0
0
ATTDEF
8
0
10
0.000000
20
0.000000
30
0.0
40
3.5
1

3

2
WY:0
70
0
0
ENDSEC
0
EOF
