0
SECTION
2
ENTITIES
0
LINE
8
0
10
-144.339035
20
214.916760
30
0.0
11
-150.277417
21
214.916760
31
0.0
0
ARC
8
0
10
-150.277417
20
215.316760
30
0.0
40
0.400000
50
200.000000
51
270.000000
0
LINE
8
0
10
-150.653295
20
215.179952
30
0.0
11
-151.446323
21
217.358780
31
0.0
0
ARC
8
0
10
-152.386016
20
217.016760
30
0.0
40
1.000000
50
20.000000
51
90.000000
0
LINE
8
0
10
-152.386016
20
218.016760
30
0.0
11
-153.351035
21
218.016760
31
0.0
0
ARC
8
0
10
-153.351035
20
219.216760
30
0.0
40
1.200000
50
240.018361
51
270.000000
0
LINE
8
0
10
-153.950702
20
218.177337
30
0.0
11
-155.532646
21
219.089997
31
0.0
0
ARC
8
0
10
-155.632590
20
218.916760
30
0.0
40
0.200000
50
60.018361
51
90.000000
0
LINE
8
0
10
-155.632590
20
219.116760
30
0.0
11
-155.939035
21
219.116760
31
0.0
0
ARC
8
0
10
-155.939035
20
218.716760
30
0.0
40
0.400000
50
90.000000
51
180.000000
0
LINE
8
0
10
-156.339035
20
218.716760
30
0.0
11
-156.339035
21
218.216760
31
0.0
0
ARC
8
0
10
-156.239035
20
218.216760
30
0.0
40
0.100000
50
180.000000
51
270.000000
0
LINE
8
0
10
-156.239035
20
218.116760
30
0.0
11
-156.239035
21
217.741760
31
0.0
0
ARC
8
0
10
-156.039035
20
217.741760
30
0.0
40
0.200000
50
180.000000
51
270.000000
0
LINE
8
0
10
-156.039035
20
217.541760
30
0.0
11
-156.006617
21
217.541760
31
0.0
0
ARC
8
0
10
-156.006617
20
218.141760
30
0.0
40
0.600000
50
270.000000
51
290.364135
0
ARC
8
0
10
-155.589035
20
217.016760
30
0.0
40
0.600000
50
249.635865
51
110.364135
0
ARC
8
0
10
-156.006617
20
215.891760
30
0.0
40
0.600000
50
69.635865
51
90.000000
0
LINE
8
0
10
-156.006617
20
216.491760
30
0.0
11
-156.039035
21
216.491760
31
0.0
0
ARC
8
0
10
-156.039035
20
216.291760
30
0.0
40
0.200000
50
90.000000
51
180.000000
0
LINE
8
0
10
-156.239035
20
216.291760
30
0.0
11
-156.239035
21
215.916760
31
0.0
0
ARC
8
0
10
-156.239035
20
215.816760
30
0.0
40
0.100000
50
90.000000
51
180.000000
0
LINE
8
0
10
-156.339035
20
215.816760
30
0.0
11
-156.339035
21
215.316760
31
0.0
0
ARC
8
0
10
-155.939035
20
215.316760
30
0.0
40
0.400000
50
180.000000
51
270.000000
0
LINE
8
0
10
-155.939035
20
214.916760
30
0.0
11
-155.579035
21
214.916760
31
0.0
0
LINE
8
0
10
-155.579035
20
214.916760
30
0.0
11
-153.950702
21
215.856182
31
0.0
0
ARC
8
0
10
-153.351035
20
214.816760
30
0.0
40
1.200000
50
90.000000
51
119.981639
0
LINE
8
0
10
-153.351035
20
216.016760
30
0.0
11
-153.296286
21
216.016760
31
0.0
0
ARC
8
0
10
-153.296286
20
215.716760
30
0.0
40
0.300000
50
20.000000
51
90.000000
0
LINE
8
0
10
-153.014378
20
215.819366
30
0.0
11
-152.126504
21
213.379952
31
0.0
0
ARC
8
0
10
-151.750627
20
213.516760
30
0.0
40
0.400000
50
200.000000
51
270.000000
0
LINE
8
0
10
-151.750627
20
213.116760
30
0.0
11
-142.927443
21
213.116760
31
0.0
0
ARC
8
0
10
-142.927443
20
213.516760
30
0.0
40
0.400000
50
270.000000
51
340.000000
0
LINE
8
0
10
-142.551566
20
213.379952
30
0.0
11
-141.663692
21
215.819366
31
0.0
0
ARC
8
0
10
-141.381784
20
215.716760
30
0.0
40
0.300000
50
90.000000
51
160.000000
0
ARC
8
0
10
-141.381784
20
215.716760
30
0.0
40
0.300000
50
90.000000
51
160.000000
0
ARC
8
0
10
-141.381784
20
215.716760
30
0.0
40
0.300000
50
90.000000
51
160.000000
0
LINE
8
0
10
-141.381784
20
216.016760
30
0.0
11
-141.327034
21
216.016760
31
0.0
0
LINE
8
0
10
-141.327034
20
216.016760
30
0.0
11
-141.381784
21
216.016760
31
0.0
0
LINE
8
0
10
-141.381784
20
216.016760
30
0.0
11
-141.327034
21
216.016760
31
0.0
0
ARC
8
0
10
-141.327034
20
214.816760
30
0.0
40
1.200000
50
60.018361
51
90.000000
0
ARC
8
0
10
-141.327034
20
214.816760
30
0.0
40
1.200000
50
60.018361
51
90.000000
0
ARC
8
0
10
-141.327034
20
214.816760
30
0.0
40
1.200000
50
60.018361
51
90.000000
0
LINE
8
0
10
-140.727367
20
215.856182
30
0.0
11
-139.099035
21
214.916760
31
0.0
0
LINE
8
0
10
-139.099035
20
214.916760
30
0.0
11
-140.727367
21
215.856182
31
0.0
0
LINE
8
0
10
-140.727367
20
215.856182
30
0.0
11
-139.099035
21
214.916760
31
0.0
0
LINE
8
0
10
-139.099035
20
214.916760
30
0.0
11
-138.739035
21
214.916760
31
0.0
0
LINE
8
0
10
-138.739035
20
214.916760
30
0.0
11
-139.099035
21
214.916760
31
0.0
0
LINE
8
0
10
-139.099035
20
214.916760
30
0.0
11
-138.739035
21
214.916760
31
0.0
0
ARC
8
0
10
-138.739035
20
215.316760
30
0.0
40
0.400000
50
270.000000
51
360.000000
0
LINE
8
0
10
-138.339035
20
215.316760
30
0.0
11
-138.339035
21
215.816760
31
0.0
0
ARC
8
0
10
-138.439035
20
215.816760
30
0.0
40
0.100000
50
360.000000
51
90.000000
0
LINE
8
0
10
-138.439035
20
215.916760
30
0.0
11
-138.439035
21
216.291760
31
0.0
0
ARC
8
0
10
-138.639035
20
216.291760
30
0.0
40
0.200000
50
360.000000
51
90.000000
0
LINE
8
0
10
-138.639035
20
216.491760
30
0.0
11
-138.671452
21
216.491760
31
0.0
0
ARC
8
0
10
-138.671452
20
215.891760
30
0.0
40
0.600000
50
90.000000
51
110.364135
0
ARC
8
0
10
-139.089035
20
217.016760
30
0.0
40
0.600000
50
69.635865
51
290.364135
0
ARC
8
0
10
-138.671452
20
218.141760
30
0.0
40
0.600000
50
249.635865
51
270.000000
0
LINE
8
0
10
-138.671452
20
217.541760
30
0.0
11
-138.639035
21
217.541760
31
0.0
0
ARC
8
0
10
-138.639035
20
217.741760
30
0.0
40
0.200000
50
270.000000
51
360.000000
0
LINE
8
0
10
-138.439035
20
217.741760
30
0.0
11
-138.439035
21
218.116760
31
0.0
0
ARC
8
0
10
-138.439035
20
218.216760
30
0.0
40
0.100000
50
270.000000
51
360.000000
0
LINE
8
0
10
-138.339035
20
218.216760
30
0.0
11
-138.339035
21
218.716760
31
0.0
0
ARC
8
0
10
-138.739035
20
218.716760
30
0.0
40
0.400000
50
360.000000
51
90.000000
0
LINE
8
0
10
-138.739035
20
219.116760
30
0.0
11
-139.045479
21
219.116760
31
0.0
0
ARC
8
0
10
-139.045479
20
218.916760
30
0.0
40
0.200000
50
90.000000
51
119.981639
0
LINE
8
0
10
-139.145424
20
219.089997
30
0.0
11
-140.727367
21
218.177337
31
0.0
0
ARC
8
0
10
-141.327034
20
219.216760
30
0.0
40
1.200000
50
270.000000
51
299.981639
0
LINE
8
0
10
-141.327034
20
218.016760
30
0.0
11
-142.292054
21
218.016760
31
0.0
0
ARC
8
0
10
-142.292054
20
217.016760
30
0.0
40
1.000000
50
90.000000
51
160.000000
0
LINE
8
0
10
-143.231746
20
217.358780
30
0.0
11
-144.024775
21
215.179952
31
0.0
0
ARC
8
0
10
-144.400652
20
215.316760
30
0.0
40
0.400000
50
270.000000
51
340.000000
0
LINE
8
0
10
-144.400652
20
214.916760
30
0.0
11
-144.339035
21
214.916760
31
0.0
0
LINE
8
0
10
-144.339035
20
225.501490
30
0.0
11
-150.277417
21
225.501490
31
0.0
0
ARC
8
0
10
-150.277417
20
225.101490
30
0.0
40
0.400000
50
90.000000
51
160.000000
0
LINE
8
0
10
-150.653295
20
225.238298
30
0.0
11
-151.446323
21
223.059470
31
0.0
0
ARC
8
0
10
-152.386016
20
223.401490
30
0.0
40
1.000000
50
270.000000
51
340.000000
0
LINE
8
0
10
-152.386016
20
222.401490
30
0.0
11
-153.351035
21
222.401490
31
0.0
0
ARC
8
0
10
-153.351035
20
221.201490
30
0.0
40
1.200000
50
90.000000
51
119.981639
0
LINE
8
0
10
-153.950702
20
222.240913
30
0.0
11
-155.532646
21
221.328253
31
0.0
0
ARC
8
0
10
-155.632590
20
221.501490
30
0.0
40
0.200000
50
270.000000
51
299.981639
0
LINE
8
0
10
-155.632590
20
221.301490
30
0.0
11
-155.939035
21
221.301490
31
0.0
0
ARC
8
0
10
-155.939035
20
221.701490
30
0.0
40
0.400000
50
180.000000
51
270.000000
0
LINE
8
0
10
-156.339035
20
221.701490
30
0.0
11
-156.339035
21
222.201490
31
0.0
0
ARC
8
0
10
-156.239035
20
222.201490
30
0.0
40
0.100000
50
90.000000
51
180.000000
0
LINE
8
0
10
-156.239035
20
222.301490
30
0.0
11
-156.239035
21
222.676490
31
0.0
0
ARC
8
0
10
-156.039035
20
222.676490
30
0.0
40
0.200000
50
90.000000
51
180.000000
0
LINE
8
0
10
-156.039035
20
222.876490
30
0.0
11
-156.006617
21
222.876490
31
0.0
0
ARC
8
0
10
-156.006617
20
222.276490
30
0.0
40
0.600000
50
69.635865
51
90.000000
0
ARC
8
0
10
-155.589035
20
223.401490
30
0.0
40
0.600000
50
249.635865
51
110.364135
0
ARC
8
0
10
-156.006617
20
224.526490
30
0.0
40
0.600000
50
270.000000
51
290.364135
0
LINE
8
0
10
-156.006617
20
223.926490
30
0.0
11
-156.039035
21
223.926490
31
0.0
0
ARC
8
0
10
-156.039035
20
224.126490
30
0.0
40
0.200000
50
180.000000
51
270.000000
0
LINE
8
0
10
-156.239035
20
224.126490
30
0.0
11
-156.239035
21
224.501490
31
0.0
0
ARC
8
0
10
-156.239035
20
224.601490
30
0.0
40
0.100000
50
180.000000
51
270.000000
0
LINE
8
0
10
-156.339035
20
224.601490
30
0.0
11
-156.339035
21
225.101490
31
0.0
0
ARC
8
0
10
-155.939035
20
225.101490
30
0.0
40
0.400000
50
90.000000
51
180.000000
0
LINE
8
0
10
-155.939035
20
225.501490
30
0.0
11
-155.579035
21
225.501490
31
0.0
0
LINE
8
0
10
-155.579035
20
225.501490
30
0.0
11
-153.950702
21
224.562067
31
0.0
0
ARC
8
0
10
-153.351035
20
225.601490
30
0.0
40
1.200000
50
240.018361
51
270.000000
0
LINE
8
0
10
-153.351035
20
224.401490
30
0.0
11
-153.296286
21
224.401490
31
0.0
0
ARC
8
0
10
-153.296286
20
224.701490
30
0.0
40
0.300000
50
270.000000
51
340.000000
0
LINE
8
0
10
-153.014378
20
224.598884
30
0.0
11
-152.126504
21
227.038298
31
0.0
0
ARC
8
0
10
-151.750627
20
226.901490
30
0.0
40
0.400000
50
90.000000
51
160.000000
0
LINE
8
0
10
-151.750627
20
227.301490
30
0.0
11
-142.927443
21
227.301490
31
0.0
0
ARC
8
0
10
-142.927443
20
226.901490
30
0.0
40
0.400000
50
20.000000
51
90.000000
0
LINE
8
0
10
-142.551566
20
227.038298
30
0.0
11
-141.663692
21
224.598884
31
0.0
0
ARC
8
0
10
-141.381784
20
224.701490
30
0.0
40
0.300000
50
200.000000
51
270.000000
0
ARC
8
0
10
-141.381784
20
224.701490
30
0.0
40
0.300000
50
200.000000
51
270.000000
0
ARC
8
0
10
-141.381784
20
224.701490
30
0.0
40
0.300000
50
200.000000
51
270.000000
0
LINE
8
0
10
-141.381784
20
224.401490
30
0.0
11
-141.327034
21
224.401490
31
0.0
0
LINE
8
0
10
-141.327034
20
224.401490
30
0.0
11
-141.381784
21
224.401490
31
0.0
0
LINE
8
0
10
-141.381784
20
224.401490
30
0.0
11
-141.327034
21
224.401490
31
0.0
0
ARC
8
0
10
-141.327034
20
225.601490
30
0.0
40
1.200000
50
270.000000
51
299.981639
0
ARC
8
0
10
-141.327034
20
225.601490
30
0.0
40
1.200000
50
270.000000
51
299.981639
0
ARC
8
0
10
-141.327034
20
225.601490
30
0.0
40
1.200000
50
270.000000
51
299.981639
0
LINE
8
0
10
-140.727367
20
224.562067
30
0.0
11
-139.099035
21
225.501490
31
0.0
0
LINE
8
0
10
-139.099035
20
225.501490
30
0.0
11
-140.727367
21
224.562067
31
0.0
0
LINE
8
0
10
-140.727367
20
224.562067
30
0.0
11
-139.099035
21
225.501490
31
0.0
0
LINE
8
0
10
-139.099035
20
225.501490
30
0.0
11
-138.739035
21
225.501490
31
0.0
0
LINE
8
0
10
-138.739035
20
225.501490
30
0.0
11
-139.099035
21
225.501490
31
0.0
0
LINE
8
0
10
-139.099035
20
225.501490
30
0.0
11
-138.739035
21
225.501490
31
0.0
0
ARC
8
0
10
-138.739035
20
225.101490
30
0.0
40
0.400000
50
360.000000
51
90.000000
0
LINE
8
0
10
-138.339035
20
225.101490
30
0.0
11
-138.339035
21
224.601490
31
0.0
0
ARC
8
0
10
-138.439035
20
224.601490
30
0.0
40
0.100000
50
270.000000
51
360.000000
0
LINE
8
0
10
-138.439035
20
224.501490
30
0.0
11
-138.439035
21
224.126490
31
0.0
0
ARC
8
0
10
-138.639035
20
224.126490
30
0.0
40
0.200000
50
270.000000
51
360.000000
0
LINE
8
0
10
-138.639035
20
223.926490
30
0.0
11
-138.671452
21
223.926490
31
0.0
0
ARC
8
0
10
-138.671452
20
224.526490
30
0.0
40
0.600000
50
249.635865
51
270.000000
0
ARC
8
0
10
-139.089035
20
223.401490
30
0.0
40
0.600000
50
69.635865
51
290.364135
0
ARC
8
0
10
-138.671452
20
222.276490
30
0.0
40
0.600000
50
90.000000
51
110.364135
0
LINE
8
0
10
-138.671452
20
222.876490
30
0.0
11
-138.639035
21
222.876490
31
0.0
0
ARC
8
0
10
-138.639035
20
222.676490
30
0.0
40
0.200000
50
360.000000
51
90.000000
0
LINE
8
0
10
-138.439035
20
222.676490
30
0.0
11
-138.439035
21
222.301490
31
0.0
0
ARC
8
0
10
-138.439035
20
222.201490
30
0.0
40
0.100000
50
360.000000
51
90.000000
0
LINE
8
0
10
-138.339035
20
222.201490
30
0.0
11
-138.339035
21
221.701490
31
0.0
0
ARC
8
0
10
-138.739035
20
221.701490
30
0.0
40
0.400000
50
270.000000
51
360.000000
0
LINE
8
0
10
-138.739035
20
221.301490
30
0.0
11
-139.045479
21
221.301490
31
0.0
0
ARC
8
0
10
-139.045479
20
221.501490
30
0.0
40
0.200000
50
240.018361
51
270.000000
0
LINE
8
0
10
-139.145424
20
221.328253
30
0.0
11
-140.727367
21
222.240913
31
0.0
0
ARC
8
0
10
-141.327034
20
221.201490
30
0.0
40
1.200000
50
60.018361
51
90.000000
0
LINE
8
0
10
-141.327034
20
222.401490
30
0.0
11
-142.292054
21
222.401490
31
0.0
0
ARC
8
0
10
-142.292054
20
223.401490
30
0.0
40
1.000000
50
200.000000
51
270.000000
0
LINE
8
0
10
-143.231746
20
223.059470
30
0.0
11
-144.024775
21
225.238298
31
0.0
0
ARC
8
0
10
-144.400652
20
225.101490
30
0.0
40
0.400000
50
20.000000
51
90.000000
0
LINE
8
0
10
-144.400652
20
225.501490
30
0.0
11
-144.339035
21
225.501490
31
0.0
0
ARC
8
0
10
-170.139035
20
213.759125
30
0.0
40
0.300000
50
90.000000
51
180.000000
0
LINE
8
0
10
-170.439035
20
213.759125
30
0.0
11
-170.439035
21
213.359125
31
0.0
0
ARC
8
0
10
-170.139035
20
213.359125
30
0.0
40
0.300000
50
180.000000
51
270.000000
0
LINE
8
0
10
-170.139035
20
213.059125
30
0.0
11
-166.639035
21
213.059125
31
0.0
0
ARC
8
0
10
-166.639035
20
213.359125
30
0.0
40
0.300000
50
270.000000
51
360.000000
0
LINE
8
0
10
-166.339035
20
213.359125
30
0.0
11
-166.339035
21
214.259125
31
0.0
0
ARC
8
0
10
-166.639035
20
214.259125
30
0.0
40
0.300000
50
360.000000
51
90.000000
0
LINE
8
0
10
-166.639035
20
214.559125
30
0.0
11
-168.039035
21
214.559125
31
0.0
0
ARC
8
0
10
-168.039035
20
214.859125
30
0.0
40
0.300000
50
180.000000
51
270.000000
0
LINE
8
0
10
-168.339035
20
214.859125
30
0.0
11
-168.339035
21
221.159125
31
0.0
0
ARC
8
0
10
-168.039035
20
221.159125
30
0.0
40
0.300000
50
90.000000
51
180.000000
0
LINE
8
0
10
-168.039035
20
221.459125
30
0.0
11
-158.339035
21
221.459125
31
0.0
0
ARC
8
0
10
-158.339035
20
221.159125
30
0.0
40
0.300000
50
360.000000
51
90.000000
0
LINE
8
0
10
-158.039035
20
221.159125
30
0.0
11
-158.039035
21
214.859125
31
0.0
0
ARC
8
0
10
-158.339035
20
214.859125
30
0.0
40
0.300000
50
270.000000
51
360.000000
0
LINE
8
0
10
-158.339035
20
214.559125
30
0.0
11
-159.739035
21
214.559125
31
0.0
0
ARC
8
0
10
-159.739035
20
214.259125
30
0.0
40
0.300000
50
90.000000
51
180.000000
0
LINE
8
0
10
-160.039035
20
214.259125
30
0.0
11
-160.039035
21
213.359125
31
0.0
0
ARC
8
0
10
-159.739035
20
213.359125
30
0.0
40
0.300000
50
180.000000
51
270.000000
0
LINE
8
0
10
-159.739035
20
213.059125
30
0.0
11
-156.018821
21
213.059125
31
0.0
0
LINE
8
0
10
-156.018821
20
213.059125
30
0.0
11
-154.667718
21
213.544970
31
0.0
0
ARC
8
0
10
-154.588199
20
213.323833
30
0.0
40
0.235000
50
24.000000
51
109.778171
0
ARC
8
0
10
-154.152264
20
213.500247
30
0.0
40
0.235000
50
204.000000
51
270.000000
0
LINE
8
0
10
-154.153820
20
213.265252
30
0.0
11
-152.574892
21
213.254795
31
0.0
0
ARC
8
0
10
-152.572905
20
213.554788
30
0.0
40
0.300000
50
270.000000
51
24.620541
0
LINE
8
0
10
-152.300179
20
213.679770
30
0.0
11
-153.248829
21
215.785285
31
0.0
0
ARC
8
0
10
-153.522349
20
215.662050
30
0.0
40
0.300000
50
24.254172
51
64.620541
0
LINE
8
0
10
-153.393765
20
215.933097
30
0.0
11
-153.901188
21
216.173816
31
0.0
0
ARC
8
0
10
-153.986911
20
215.993118
30
0.0
40
0.200000
50
64.620541
51
184.620541
0
LINE
8
0
10
-154.186261
20
215.977007
30
0.0
11
-154.176959
21
215.861912
31
0.0
0
ARC
8
0
10
-154.475984
20
215.837745
30
0.0
40
0.300000
50
304.620541
51
4.620541
0
LINE
8
0
10
-154.305542
20
215.590865
30
0.0
11
-155.934299
21
214.466399
31
0.0
0
LINE
8
0
10
-155.934299
20
214.466399
30
0.0
11
-156.117008
21
214.385052
31
0.0
0
ARC
8
0
10
-156.239010
20
214.659134
30
0.0
40
0.300009
50
131.812671
51
293.995287
0
ARC
8
0
10
-156.639035
20
215.106338
30
0.0
40
0.300000
50
311.812671
51
360.000000
0
LINE
8
0
10
-156.339035
20
215.106338
30
0.0
11
-156.339035
21
218.959125
31
0.0
0
ARC
8
0
10
-156.039035
20
218.959125
30
0.0
40
0.300000
50
90.000000
51
180.000000
0
LINE
8
0
10
-156.039035
20
219.259125
30
0.0
11
-155.817841
21
219.259125
31
0.0
0
ARC
8
0
10
-155.817841
20
218.959125
30
0.0
40
0.300000
50
58.600000
51
90.000000
0
LINE
8
0
10
-155.661539
20
219.215190
30
0.0
11
-154.143237
21
218.288415
31
0.0
0
ARC
8
0
10
-154.039035
20
218.459125
30
0.0
40
0.200000
50
238.600000
51
360.000000
0
LINE
8
0
10
-153.839035
20
218.459125
30
0.0
11
-153.839035
21
221.959125
31
0.0
0
ARC
8
0
10
-154.039035
20
221.959125
30
0.0
40
0.200000
50
360.000000
51
121.400000
0
LINE
8
0
10
-154.143237
20
222.129835
30
0.0
11
-155.661539
21
221.203060
31
0.0
0
ARC
8
0
10
-155.817841
20
221.459125
30
0.0
40
0.300000
50
270.000000
51
301.400000
0
LINE
8
0
10
-155.817841
20
221.159125
30
0.0
11
-156.039035
21
221.159125
31
0.0
0
ARC
8
0
10
-156.039035
20
221.459125
30
0.0
40
0.300000
50
180.000000
51
270.000000
0
LINE
8
0
10
-156.339035
20
221.459125
30
0.0
11
-156.339035
21
225.311911
31
0.0
0
ARC
8
0
10
-156.639035
20
225.311911
30
0.0
40
0.300000
50
360.000000
51
48.187329
0
ARC
8
0
10
-156.239010
20
225.759115
30
0.0
40
0.300009
50
66.004713
51
228.187329
0
LINE
8
0
10
-156.117008
20
226.033198
30
0.0
11
-155.934299
21
225.951850
31
0.0
0
LINE
8
0
10
-155.934299
20
225.951850
30
0.0
11
-154.305542
21
224.827384
31
0.0
0
ARC
8
0
10
-154.475984
20
224.580505
30
0.0
40
0.300000
50
355.379459
51
55.379459
0
LINE
8
0
10
-154.176959
20
224.556338
30
0.0
11
-154.186261
21
224.441243
31
0.0
0
ARC
8
0
10
-153.986911
20
224.425132
30
0.0
40
0.200000
50
175.379459
51
295.379459
0
LINE
8
0
10
-153.901188
20
224.244434
30
0.0
11
-153.393765
21
224.485153
31
0.0
0
ARC
8
0
10
-153.522349
20
224.756200
30
0.0
40
0.300000
50
295.379459
51
335.745828
0
LINE
8
0
10
-153.248829
20
224.632964
30
0.0
11
-152.300179
21
226.738479
31
0.0
0
ARC
8
0
10
-152.572905
20
226.863461
30
0.0
40
0.300000
50
335.379459
51
90.000000
0
LINE
8
0
10
-152.574892
20
227.163455
30
0.0
11
-154.153820
21
227.152998
31
0.0
0
ARC
8
0
10
-154.152264
20
226.918003
30
0.0
40
0.235000
50
90.000000
51
156.000000
0
ARC
8
0
10
-154.588199
20
227.094417
30
0.0
40
0.235000
50
250.221829
51
336.000000
0
LINE
8
0
10
-154.667718
20
226.873279
30
0.0
11
-155.969607
21
227.341428
31
0.0
0
ARC
8
0
10
-156.071121
20
227.059125
30
0.0
40
0.300000
50
70.221829
51
90.000000
0
LINE
8
0
10
-156.071121
20
227.359125
30
0.0
11
-156.339035
21
227.359125
31
0.0
0
ARC
8
0
10
-156.339035
20
227.659125
30
0.0
40
0.300000
50
180.000000
51
270.000000
0
LINE
8
0
10
-156.639035
20
227.659125
30
0.0
11
-156.639035
21
229.359125
31
0.0
0
ARC
8
0
10
-156.939035
20
229.359125
30
0.0
40
0.300000
50
360.000000
51
90.000000
0
LINE
8
0
10
-156.939035
20
229.659125
30
0.0
11
-158.839035
21
229.659125
31
0.0
0
ARC
8
0
10
-158.839035
20
229.359125
30
0.0
40
0.300000
50
90.000000
51
180.000000
0
LINE
8
0
10
-159.139035
20
229.359125
30
0.0
11
-159.139035
21
228.459125
31
0.0
0
ARC
8
0
10
-158.839035
20
228.459125
30
0.0
40
0.300000
50
180.000000
51
270.000000
0
LINE
8
0
10
-158.839035
20
228.159125
30
0.0
11
-158.339035
21
228.159125
31
0.0
0
ARC
8
0
10
-158.339035
20
227.859125
30
0.0
40
0.300000
50
360.000000
51
90.000000
0
LINE
8
0
10
-158.039035
20
227.859125
30
0.0
11
-158.039035
21
223.659125
31
0.0
0
ARC
8
0
10
-158.539035
20
223.659125
30
0.0
40
0.500000
50
270.000000
51
360.000000
0
LINE
8
0
10
-158.539035
20
223.159125
30
0.0
11
-167.839035
21
223.159125
31
0.0
0
ARC
8
0
10
-167.839035
20
223.659125
30
0.0
40
0.500000
50
180.000000
51
270.000000
0
LINE
8
0
10
-168.339035
20
223.659125
30
0.0
11
-168.339035
21
227.859125
31
0.0
0
ARC
8
0
10
-168.039035
20
227.859125
30
0.0
40
0.300000
50
90.000000
51
180.000000
0
LINE
8
0
10
-168.039035
20
228.159125
30
0.0
11
-167.539035
21
228.159125
31
0.0
0
ARC
8
0
10
-167.539035
20
228.459125
30
0.0
40
0.300000
50
270.000000
51
360.000000
0
LINE
8
0
10
-167.239035
20
228.459125
30
0.0
11
-167.239035
21
229.359125
31
0.0
0
ARC
8
0
10
-167.539035
20
229.359125
30
0.0
40
0.300000
50
360.000000
51
90.000000
0
LINE
8
0
10
-167.539035
20
229.659125
30
0.0
11
-168.839035
21
229.659125
31
0.0
0
ARC
8
0
10
-168.839035
20
228.659125
30
0.0
40
1.000000
50
90.000000
51
180.000000
0
LINE
8
0
10
-169.839035
20
228.659125
30
0.0
11
-169.839035
21
217.659125
31
0.0
0
ARC
8
0
10
-170.139035
20
217.659125
30
0.0
40
0.300000
50
270.000000
51
360.000000
0
LINE
8
0
10
-170.139035
20
217.359125
30
0.0
11
-173.739035
21
217.359125
31
0.0
0
ARC
8
0
10
-173.739035
20
217.059125
30
0.0
40
0.300000
50
90.000000
51
180.000000
0
LINE
8
0
10
-174.039035
20
217.059125
30
0.0
11
-174.039035
21
214.359125
31
0.0
0
LINE
8
0
10
-174.039035
20
214.359125
30
0.0
11
-174.139035
21
214.359125
31
0.0
0
ARC
8
0
10
-174.139035
20
213.859125
30
0.0
40
0.500000
50
90.000000
51
270.000000
0
LINE
8
0
10
-174.139035
20
213.359125
30
0.0
11
-173.339035
21
213.359125
31
0.0
0
ARC
8
0
10
-173.339035
20
213.859125
30
0.0
40
0.500000
50
270.000000
51
360.000000
0
LINE
8
0
10
-172.839035
20
213.859125
30
0.0
11
-172.839035
21
215.859125
31
0.0
0
ARC
8
0
10
-172.539035
20
215.859125
30
0.0
40
0.300000
50
90.000000
51
180.000000
0
LINE
8
0
10
-172.539035
20
216.159125
30
0.0
11
-170.139035
21
216.159125
31
0.0
0
ARC
8
0
10
-170.139035
20
215.859125
30
0.0
40
0.300000
50
360.000000
51
90.000000
0
LINE
8
0
10
-169.839035
20
215.859125
30
0.0
11
-169.839035
21
214.359125
31
0.0
0
ARC
8
0
10
-170.139035
20
214.359125
30
0.0
40
0.300000
50
270.000000
51
360.000000
0
ARC
8
0
10
-124.539035
20
213.759125
30
0.0
40
0.300000
50
360.000000
51
90.000000
0
LINE
8
0
10
-124.239035
20
213.759125
30
0.0
11
-124.239035
21
213.359125
31
0.0
0
ARC
8
0
10
-124.539035
20
213.359125
30
0.0
40
0.300000
50
270.000000
51
360.000000
0
LINE
8
0
10
-124.539035
20
213.059125
30
0.0
11
-128.039035
21
213.059125
31
0.0
0
ARC
8
0
10
-128.039035
20
213.359125
30
0.0
40
0.300000
50
180.000000
51
270.000000
0
LINE
8
0
10
-128.339035
20
213.359125
30
0.0
11
-128.339035
21
214.259125
31
0.0
0
ARC
8
0
10
-128.039035
20
214.259125
30
0.0
40
0.300000
50
90.000000
51
180.000000
0
LINE
8
0
10
-128.039035
20
214.559125
30
0.0
11
-126.639035
21
214.559125
31
0.0
0
ARC
8
0
10
-126.639035
20
214.859125
30
0.0
40
0.300000
50
270.000000
51
360.000000
0
LINE
8
0
10
-126.339035
20
214.859125
30
0.0
11
-126.339035
21
221.159125
31
0.0
0
ARC
8
0
10
-126.639035
20
221.159125
30
0.0
40
0.300000
50
360.000000
51
90.000000
0
LINE
8
0
10
-126.639035
20
221.459125
30
0.0
11
-136.339035
21
221.459125
31
0.0
0
ARC
8
0
10
-136.339035
20
221.159125
30
0.0
40
0.300000
50
90.000000
51
180.000000
0
LINE
8
0
10
-136.639035
20
221.159125
30
0.0
11
-136.639035
21
214.859125
31
0.0
0
ARC
8
0
10
-136.339035
20
214.859125
30
0.0
40
0.300000
50
180.000000
51
270.000000
0
LINE
8
0
10
-136.339035
20
214.559125
30
0.0
11
-134.939035
21
214.559125
31
0.0
0
ARC
8
0
10
-134.939035
20
214.259125
30
0.0
40
0.300000
50
360.000000
51
90.000000
0
LINE
8
0
10
-134.639035
20
214.259125
30
0.0
11
-134.639035
21
213.359125
31
0.0
0
ARC
8
0
10
-134.939035
20
213.359125
30
0.0
40
0.300000
50
270.000000
51
360.000000
0
LINE
8
0
10
-134.939035
20
213.059125
30
0.0
11
-138.659249
21
213.059125
31
0.0
0
LINE
8
0
10
-138.659249
20
213.059125
30
0.0
11
-140.010352
21
213.544970
31
0.0
0
ARC
8
0
10
-140.089871
20
213.323833
30
0.0
40
0.235000
50
70.221829
51
156.000000
0
ARC
8
0
10
-140.525805
20
213.500247
30
0.0
40
0.235000
50
270.000000
51
336.000000
0
LINE
8
0
10
-140.524249
20
213.265252
30
0.0
11
-142.103177
21
213.254795
31
0.0
0
ARC
8
0
10
-142.105164
20
213.554788
30
0.0
40
0.300000
50
155.379459
51
270.000000
0
LINE
8
0
10
-142.377890
20
213.679770
30
0.0
11
-141.429240
21
215.785285
31
0.0
0
ARC
8
0
10
-141.155721
20
215.662050
30
0.0
40
0.300000
50
115.379459
51
155.745828
0
LINE
8
0
10
-141.284304
20
215.933097
30
0.0
11
-140.776881
21
216.173816
31
0.0
0
ARC
8
0
10
-140.691159
20
215.993118
30
0.0
40
0.200000
50
355.379459
51
115.379459
0
LINE
8
0
10
-140.491809
20
215.977007
30
0.0
11
-140.501111
21
215.861912
31
0.0
0
ARC
8
0
10
-140.202086
20
215.837745
30
0.0
40
0.300000
50
175.379459
51
235.379459
0
LINE
8
0
10
-140.372527
20
215.590865
30
0.0
11
-138.743771
21
214.466399
31
0.0
0
LINE
8
0
10
-138.743771
20
214.466399
30
0.0
11
-138.561062
21
214.385052
31
0.0
0
ARC
8
0
10
-138.439059
20
214.659134
30
0.0
40
0.300009
50
246.004713
51
48.187329
0
ARC
8
0
10
-138.039035
20
215.106338
30
0.0
40
0.300000
50
180.000000
51
228.187329
0
LINE
8
0
10
-138.339035
20
215.106338
30
0.0
11
-138.339035
21
218.959125
31
0.0
0
ARC
8
0
10
-138.639035
20
218.959125
30
0.0
40
0.300000
50
360.000000
51
90.000000
0
LINE
8
0
10
-138.639035
20
219.259125
30
0.0
11
-138.860228
21
219.259125
31
0.0
0
ARC
8
0
10
-138.860228
20
218.959125
30
0.0
40
0.300000
50
90.000000
51
121.400000
0
LINE
8
0
10
-139.016531
20
219.215190
30
0.0
11
-140.534833
21
218.288415
31
0.0
0
ARC
8
0
10
-140.639035
20
218.459125
30
0.0
40
0.200000
50
180.000000
51
301.400000
0
LINE
8
0
10
-140.839035
20
218.459125
30
0.0
11
-140.839035
21
221.959125
31
0.0
0
ARC
8
0
10
-140.639035
20
221.959125
30
0.0
40
0.200000
50
58.600000
51
180.000000
0
LINE
8
0
10
-140.534833
20
222.129835
30
0.0
11
-139.016531
21
221.203060
31
0.0
0
ARC
8
0
10
-138.860228
20
221.459125
30
0.0
40
0.300000
50
238.600000
51
270.000000
0
LINE
8
0
10
-138.860228
20
221.159125
30
0.0
11
-138.639035
21
221.159125
31
0.0
0
ARC
8
0
10
-138.639035
20
221.459125
30
0.0
40
0.300000
50
270.000000
51
360.000000
0
LINE
8
0
10
-138.339035
20
221.459125
30
0.0
11
-138.339035
21
225.311911
31
0.0
0
ARC
8
0
10
-138.039035
20
225.311911
30
0.0
40
0.300000
50
131.812671
51
180.000000
0
ARC
8
0
10
-138.439059
20
225.759115
30
0.0
40
0.300009
50
311.812671
51
113.995287
0
LINE
8
0
10
-138.561062
20
226.033198
30
0.0
11
-138.743771
21
225.951850
31
0.0
0
LINE
8
0
10
-138.743771
20
225.951850
30
0.0
11
-140.372527
21
224.827384
31
0.0
0
ARC
8
0
10
-140.202086
20
224.580505
30
0.0
40
0.300000
50
124.620541
51
184.620541
0
LINE
8
0
10
-140.501111
20
224.556338
30
0.0
11
-140.491809
21
224.441243
31
0.0
0
ARC
8
0
10
-140.691159
20
224.425132
30
0.0
40
0.200000
50
244.620541
51
4.620541
0
LINE
8
0
10
-140.776881
20
224.244434
30
0.0
11
-141.284304
21
224.485153
31
0.0
0
ARC
8
0
10
-141.155721
20
224.756200
30
0.0
40
0.300000
50
204.254172
51
244.620541
0
LINE
8
0
10
-141.429240
20
224.632964
30
0.0
11
-142.377890
21
226.738479
31
0.0
0
ARC
8
0
10
-142.105164
20
226.863461
30
0.0
40
0.300000
50
90.000000
51
204.620541
0
LINE
8
0
10
-142.103177
20
227.163455
30
0.0
11
-140.524249
21
227.152998
31
0.0
0
ARC
8
0
10
-140.525805
20
226.918003
30
0.0
40
0.235000
50
24.000000
51
90.000000
0
ARC
8
0
10
-140.089871
20
227.094417
30
0.0
40
0.235000
50
204.000000
51
289.778171
0
LINE
8
0
10
-140.010352
20
226.873279
30
0.0
11
-138.708463
21
227.341428
31
0.0
0
ARC
8
0
10
-138.606949
20
227.059125
30
0.0
40
0.300000
50
90.000000
51
109.778171
0
LINE
8
0
10
-138.606949
20
227.359125
30
0.0
11
-138.339035
21
227.359125
31
0.0
0
ARC
8
0
10
-138.339035
20
227.659125
30
0.0
40
0.300000
50
270.000000
51
360.000000
0
LINE
8
0
10
-138.039035
20
227.659125
30
0.0
11
-138.039035
21
229.359125
31
0.0
0
ARC
8
0
10
-137.739035
20
229.359125
30
0.0
40
0.300000
50
90.000000
51
180.000000
0
LINE
8
0
10
-137.739035
20
229.659125
30
0.0
11
-135.839035
21
229.659125
31
0.0
0
ARC
8
0
10
-135.839035
20
229.359125
30
0.0
40
0.300000
50
360.000000
51
90.000000
0
LINE
8
0
10
-135.539035
20
229.359125
30
0.0
11
-135.539035
21
228.459125
31
0.0
0
ARC
8
0
10
-135.839035
20
228.459125
30
0.0
40
0.300000
50
270.000000
51
360.000000
0
LINE
8
0
10
-135.839035
20
228.159125
30
0.0
11
-136.339035
21
228.159125
31
0.0
0
ARC
8
0
10
-136.339035
20
227.859125
30
0.0
40
0.300000
50
90.000000
51
180.000000
0
LINE
8
0
10
-136.639035
20
227.859125
30
0.0
11
-136.639035
21
223.659125
31
0.0
0
ARC
8
0
10
-136.139035
20
223.659125
30
0.0
40
0.500000
50
180.000000
51
270.000000
0
LINE
8
0
10
-136.139035
20
223.159125
30
0.0
11
-126.839035
21
223.159125
31
0.0
0
ARC
8
0
10
-126.839035
20
223.659125
30
0.0
40
0.500000
50
270.000000
51
360.000000
0
LINE
8
0
10
-126.339035
20
223.659125
30
0.0
11
-126.339035
21
227.859125
31
0.0
0
ARC
8
0
10
-126.639035
20
227.859125
30
0.0
40
0.300000
50
360.000000
51
90.000000
0
LINE
8
0
10
-126.639035
20
228.159125
30
0.0
11
-127.139035
21
228.159125
31
0.0
0
ARC
8
0
10
-127.139035
20
228.459125
30
0.0
40
0.300000
50
180.000000
51
270.000000
0
LINE
8
0
10
-127.439035
20
228.459125
30
0.0
11
-127.439035
21
229.359125
31
0.0
0
ARC
8
0
10
-127.139035
20
229.359125
30
0.0
40
0.300000
50
90.000000
51
180.000000
0
LINE
8
0
10
-127.139035
20
229.659125
30
0.0
11
-125.839035
21
229.659125
31
0.0
0
ARC
8
0
10
-125.839035
20
228.659125
30
0.0
40
1.000000
50
360.000000
51
90.000000
0
LINE
8
0
10
-124.839035
20
228.659125
30
0.0
11
-124.839035
21
217.659125
31
0.0
0
ARC
8
0
10
-124.539035
20
217.659125
30
0.0
40
0.300000
50
180.000000
51
270.000000
0
LINE
8
0
10
-124.539035
20
217.359125
30
0.0
11
-120.939035
21
217.359125
31
0.0
0
ARC
8
0
10
-120.939035
20
217.059125
30
0.0
40
0.300000
50
360.000000
51
90.000000
0
LINE
8
0
10
-120.639035
20
217.059125
30
0.0
11
-120.639035
21
214.359125
31
0.0
0
LINE
8
0
10
-120.639035
20
214.359125
30
0.0
11
-120.539035
21
214.359125
31
0.0
0
ARC
8
0
10
-120.539035
20
213.859125
30
0.0
40
0.500000
50
270.000000
51
90.000000
0
LINE
8
0
10
-120.539035
20
213.359125
30
0.0
11
-121.339035
21
213.359125
31
0.0
0
ARC
8
0
10
-121.339035
20
213.859125
30
0.0
40
0.500000
50
180.000000
51
270.000000
0
LINE
8
0
10
-121.839035
20
213.859125
30
0.0
11
-121.839035
21
215.859125
31
0.0
0
ARC
8
0
10
-122.139035
20
215.859125
30
0.0
40
0.300000
50
360.000000
51
90.000000
0
LINE
8
0
10
-122.139035
20
216.159125
30
0.0
11
-124.539035
21
216.159125
31
0.0
0
ARC
8
0
10
-124.539035
20
215.859125
30
0.0
40
0.300000
50
90.000000
51
180.000000
0
LINE
8
0
10
-124.839035
20
215.859125
30
0.0
11
-124.839035
21
214.359125
31
0.0
0
ARC
8
0
10
-124.539035
20
214.359125
30
0.0
40
0.300000
50
180.000000
51
270.000000
0
ATTDEF
8
0
10
-168.189035
20
229.659125
30
0.0
40
3.5
1

3

2
VC_START
70
0
0
ATTDEF
8
0
10
-168.389035
20
213.059125
30
0.0
40
3.5
1

3

2
VC_END
70
0
0
ATTDEF
8
0
10
-174.639035
20
213.059125
30
0.0
40
3.5
1

3

2
DESC:Riporto centrale
70
0
0
ATTDEF
8
0
10
-174.639035
20
213.059125
30
0.0
40
3.5
1

3

2
DENS:0.760000
70
0
0
ATTDEF
8
0
10
-174.639035
20
213.059125
30
0.0
40
3.5
1

3

2
TDEV:0.000000
70
0
0
ATTDEF
8
0
10
-174.639035
20
213.059125
30
0.0
40
3.5
1

3

2
TDEV2:0.000000
70
0
0
ATTDEF
8
0
10
-174.639035
20
213.059125
30
0.0
40
3.5
1

3

2
TDEV3:0.000000
70
0
0
ATTDEF
8
0
10
-174.639035
20
213.059125
30
0.0
40
3.5
1

3

2
TDEV4:0.000000
70
0
0
ATTDEF
8
0
10
-174.639035
20
213.059125
30
0.0
40
3.5
1

3

2
TDEV5:0.000000
70
0
0
ATTDEF
8
0
10
-174.639035
20
213.059125
30
0.0
40
3.5
1

3

2
FRONT_VIEW
70
0
0
ATTDEF
8
0
10
-174.639035
20
213.059125
30
0.0
40
3.5
1

3

2
BL01:6800.000000,,1
70
0
0
ATTDEF
8
0
10
-174.639035
20
213.059125
30
0.0
40
3.5
1

3

2
OPTI:500.000000,1,0,3000.000000,6500.000000,500.000000,0,0.000000,0
70
0
0
ATTDEF
8
0
10
-174.639035
20
213.059125
30
0.0
40
3.5
1

3

2
PANE_WIDTH:0.000000
70
0
0
ATTDEF
8
0
10
-174.639035
20
213.059125
30
0.0
40
3.5
1

3

2
GLASS_MIN:0.000000
70
0
0
ATTDEF
8
0
10
-174.639035
20
213.059125
30
0.0
40
3.5
1

3

2
GLASS_MAX:0.000000
70
0
0
ATTDEF
8
0
10
-174.639035
20
213.059125
30
0.0
40
3.5
1

3

2
JX:0.000000
70
0
0
ATTDEF
8
0
10
-174.639035
20
213.059125
30
0.0
40
3.5
1

3

2
WX:0.000000
70
0
0
ATTDEF
8
0
10
-174.639035
20
213.059125
30
0.0
40
3.5
1

3

2
JY:0.000000
70
0
0
ATTDEF
8
0
10
-174.639035
20
213.059125
30
0.0
40
3.5
1

3

2
WY:0.000000
70
0
0
ATTDEF
8
0
10
-174.639035
20
213.059125
30
0.0
40
3.5
1

3

2
FP_LCS_ORIG
70
0
0
ATTDEF
8
0
10
-164.639035
20
213.059125
30
0.0
40
3.5
1

3

2
FP_LCS_HOT
70
0
0
ATTDEF
8
0
10
-174.639035
20
223.059125
30
0.0
40
3.5
1

3

2
FP_LCS_INTERN
70
0
0
ENDSEC
0
EOF
