0
SECTION
2
ENTITIES
0
ARC
8
0
10
58.500257
20
87.001595
30
0.0
40
0.700000
50
180.000000
51
270.000000
0
ARC
8
0
10
58.500257
20
86.601595
30
0.0
40
0.300000
50
270.000000
51
360.000000
0
LINE
8
0
10
58.800257
20
86.601595
30
0.0
11
58.800257
21
87.301595
31
0.0
0
ARC
8
0
10
59.100257
20
87.301595
30
0.0
40
0.300000
50
90.000000
51
180.000000
0
LINE
8
0
10
59.100257
20
87.601595
30
0.0
11
60.300257
21
87.601595
31
0.0
0
ARC
8
0
10
60.300257
20
86.901595
30
0.0
40
0.700000
50
360.000000
51
90.000000
0
LINE
8
0
10
61.000257
20
86.901595
30
0.0
11
61.000257
21
80.701595
31
0.0
0
ARC
8
0
10
60.300257
20
80.701595
30
0.0
40
0.700000
50
270.000000
51
360.000000
0
LINE
8
0
10
60.300257
20
80.001595
30
0.0
11
59.100257
21
80.001595
31
0.0
0
ARC
8
0
10
59.100257
20
80.301595
30
0.0
40
0.300000
50
180.000000
51
270.000000
0
LINE
8
0
10
58.800257
20
80.301595
30
0.0
11
58.800257
21
81.001595
31
0.0
0
ARC
8
0
10
58.500257
20
81.001595
30
0.0
40
0.300000
50
360.000000
51
90.000000
0
ARC
8
0
10
58.500257
20
80.601595
30
0.0
40
0.700000
50
90.000000
51
180.000000
0
LINE
8
0
10
57.800257
20
80.601595
30
0.0
11
57.800257
21
77.601595
31
0.0
0
ARC
8
0
10
58.100257
20
77.601595
30
0.0
40
0.300000
50
180.000000
51
270.000000
0
LINE
8
0
10
58.100257
20
77.301595
30
0.0
11
58.500257
21
77.301595
31
0.0
0
ARC
8
0
10
58.500257
20
77.601595
30
0.0
40
0.300000
50
270.000000
51
360.000000
0
LINE
8
0
10
58.800257
20
77.601595
30
0.0
11
58.800257
21
78.501595
31
0.0
0
ARC
8
0
10
59.100257
20
78.501595
30
0.0
40
0.300000
50
90.000000
51
180.000000
0
LINE
8
0
10
59.100257
20
78.801595
30
0.0
11
60.500257
21
78.801595
31
0.0
0
ARC
8
0
10
60.500257
20
78.501595
30
0.0
40
0.300000
50
360.000000
51
90.000000
0
LINE
8
0
10
60.800257
20
78.501595
30
0.0
11
60.800257
21
64.301833
31
0.0
0
ARC
8
0
10
59.800257
20
64.301833
30
0.0
40
1.000000
50
270.000000
51
360.000000
0
LINE
8
0
10
59.800257
20
63.301833
30
0.0
11
57.500000
21
63.301833
31
0.0
0
ARC
8
0
10
57.500000
20
64.301833
30
0.0
40
1.000000
50
180.000000
51
270.000000
0
LINE
8
0
10
56.500000
20
64.301833
30
0.0
11
56.500000
21
65.301842
31
0.0
0
ARC
8
0
10
56.000000
20
65.301842
30
0.0
40
0.500000
50
360.000000
51
90.000000
0
LINE
8
0
10
56.000009
20
65.801842
30
0.0
11
54.732069
21
65.801865
31
0.0
0
ARC
8
0
10
54.732063
20
65.501865
30
0.0
40
0.300000
50
90.000000
51
109.778171
0
LINE
8
0
10
54.630549
20
65.784168
30
0.0
11
53.328683
21
65.316027
31
0.0
0
ARC
8
0
10
53.249164
20
65.537165
30
0.0
40
0.235000
50
204.000000
51
289.778171
0
ARC
8
0
10
52.813229
20
65.360751
30
0.0
40
0.235000
50
24.000000
51
90.000000
0
LINE
8
0
10
52.814785
20
65.595746
30
0.0
11
51.235857
21
65.606203
31
0.0
0
ARC
8
0
10
51.233870
20
65.306210
30
0.0
40
0.300000
50
90.000000
51
204.620541
0
LINE
8
0
10
50.961144
20
65.181228
30
0.0
11
51.909794
21
63.075712
31
0.0
0
ARC
8
0
10
52.183314
20
63.198948
30
0.0
40
0.300000
50
204.254172
51
244.620541
0
LINE
8
0
10
52.054730
20
62.927901
30
0.0
11
52.562153
21
62.687182
31
0.0
0
ARC
8
0
10
52.647876
20
62.867880
30
0.0
40
0.200000
50
244.620541
51
4.620541
0
LINE
8
0
10
52.847226
20
62.883991
30
0.0
11
52.837924
21
62.999086
31
0.0
0
ARC
8
0
10
53.136949
20
63.023253
30
0.0
40
0.300000
50
124.620541
51
184.620541
0
LINE
8
0
10
52.966507
20
63.270133
30
0.0
11
54.595264
21
64.394599
31
0.0
0
LINE
8
0
10
54.595264
20
64.394599
30
0.0
11
54.777973
21
64.475946
31
0.0
0
ARC
8
0
10
54.899975
20
64.201864
30
0.0
40
0.300009
50
311.812671
51
113.995287
0
ARC
8
0
10
55.300000
20
63.754659
30
0.0
40
0.300000
50
131.812671
51
180.000000
0
LINE
8
0
10
55.000000
20
63.754659
30
0.0
11
55.000000
21
59.901873
31
0.0
0
ARC
8
0
10
54.700000
20
59.901873
30
0.0
40
0.300000
50
270.000000
51
360.000000
0
LINE
8
0
10
54.700000
20
59.601873
30
0.0
11
54.478806
21
59.601873
31
0.0
0
ARC
8
0
10
54.478806
20
59.901873
30
0.0
40
0.300000
50
238.600000
51
270.000000
0
LINE
8
0
10
54.322503
20
59.645808
30
0.0
11
52.804202
21
60.572583
31
0.0
0
ARC
8
0
10
52.700000
20
60.401873
30
0.0
40
0.200000
50
58.600000
51
180.000000
0
LINE
8
0
10
52.500000
20
60.401873
30
0.0
11
52.500000
21
58.976290
31
0.0
0
ARC
8
0
10
53.500000
20
58.976290
30
0.0
40
1.000000
50
180.000000
51
238.600000
0
LINE
8
0
10
52.978990
20
58.122739
30
0.0
11
53.121009
21
58.036050
31
0.0
0
ARC
8
0
10
52.600000
20
57.182499
30
0.0
40
1.000000
50
360.000000
51
58.600000
0
LINE
8
0
10
53.600000
20
57.182499
30
0.0
11
53.600000
21
51.596329
31
0.0
0
ARC
8
0
10
53.100000
20
51.596329
30
0.0
40
0.500000
50
283.342364
51
360.000000
0
ARC
8
0
10
54.000000
20
47.801595
30
0.0
40
3.400000
50
103.342364
51
121.147390
0
ARC
8
0
10
52.500000
20
50.283530
30
0.0
40
0.500000
50
121.147390
51
180.000000
0
LINE
8
0
10
52.000000
20
50.283530
30
0.0
11
52.000000
21
49.529205
31
0.0
0
ARC
8
0
10
52.300000
20
49.529205
30
0.0
40
0.300000
50
180.000000
51
240.000000
0
LINE
8
0
10
52.150000
20
49.269397
30
0.0
11
52.442654
21
49.100434
31
0.0
0
ARC
8
0
10
52.592654
20
49.360241
30
0.0
40
0.300000
50
240.000000
51
312.079787
0
ARC
8
0
10
54.000000
20
47.801595
30
0.0
40
1.800000
50
107.142857
51
132.079787
0
LINE
8
0
10
53.469440
20
49.521626
30
0.0
11
53.381014
21
49.808298
31
0.0
0
ARC
8
0
10
54.000000
20
47.801595
30
0.0
40
2.100000
50
64.285714
51
107.142857
0
LINE
8
0
10
54.911156
20
49.693630
30
0.0
11
54.780990
21
49.423339
31
0.0
0
ARC
8
0
10
54.000000
20
47.801595
30
0.0
40
1.800000
50
21.428571
51
64.285714
0
LINE
8
0
10
55.675572
20
48.459209
30
0.0
11
55.954835
21
48.568811
31
0.0
0
ARC
8
0
10
54.000000
20
47.801595
30
0.0
40
2.100000
50
338.571429
51
21.428571
0
LINE
8
0
10
55.954835
20
47.034379
30
0.0
11
55.675572
21
47.143981
31
0.0
0
ARC
8
0
10
54.000000
20
47.801595
30
0.0
40
1.800000
50
295.714286
51
338.571429
0
LINE
8
0
10
54.780990
20
46.179851
30
0.0
11
54.911156
21
45.909561
31
0.0
0
ARC
8
0
10
54.000000
20
47.801595
30
0.0
40
2.100000
50
252.857143
51
295.714286
0
LINE
8
0
10
53.381014
20
45.794892
30
0.0
11
53.469440
21
46.081564
31
0.0
0
ARC
8
0
10
54.000000
20
47.801595
30
0.0
40
1.800000
50
227.920213
51
252.857143
0
ARC
8
0
10
52.592654
20
46.242949
30
0.0
40
0.300000
50
47.920213
51
120.000000
0
LINE
8
0
10
52.442654
20
46.502757
30
0.0
11
52.150000
21
46.333793
31
0.0
0
ARC
8
0
10
52.300000
20
46.073986
30
0.0
40
0.300000
50
120.000000
51
180.000000
0
LINE
8
0
10
52.000000
20
46.073986
30
0.0
11
52.000000
21
45.319661
31
0.0
0
ARC
8
0
10
52.500000
20
45.319661
30
0.0
40
0.500000
50
180.000000
51
238.852610
0
ARC
8
0
10
54.000000
20
47.801595
30
0.0
40
3.400000
50
238.852610
51
256.657636
0
ARC
8
0
10
53.100000
20
44.006862
30
0.0
40
0.500000
50
360.000000
51
76.657636
0
LINE
8
0
10
53.600000
20
44.006862
30
0.0
11
53.600000
21
38.420691
31
0.0
0
ARC
8
0
10
52.600000
20
38.420691
30
0.0
40
1.000000
50
301.400000
51
360.000000
0
LINE
8
0
10
53.121009
20
37.567141
30
0.0
11
52.978990
21
37.480452
31
0.0
0
ARC
8
0
10
53.500000
20
36.626901
30
0.0
40
1.000000
50
121.400000
51
180.000000
0
LINE
8
0
10
52.500000
20
36.626901
30
0.0
11
52.500000
21
35.201318
31
0.0
0
ARC
8
0
10
52.700000
20
35.201318
30
0.0
40
0.200000
50
180.000000
51
301.400000
0
LINE
8
0
10
52.804202
20
35.030607
30
0.0
11
54.322503
21
35.957383
31
0.0
0
ARC
8
0
10
54.478806
20
35.701318
30
0.0
40
0.300000
50
90.000000
51
121.400000
0
LINE
8
0
10
54.478806
20
36.001318
30
0.0
11
54.700000
21
36.001318
31
0.0
0
ARC
8
0
10
54.700000
20
35.701318
30
0.0
40
0.300000
50
360.000000
51
90.000000
0
LINE
8
0
10
55.000000
20
35.701318
30
0.0
11
55.000000
21
31.848531
31
0.0
0
ARC
8
0
10
55.300000
20
31.848531
30
0.0
40
0.300000
50
180.000000
51
228.187329
0
ARC
8
0
10
54.899975
20
31.401327
30
0.0
40
0.300009
50
246.004713
51
48.187329
0
LINE
8
0
10
54.777973
20
31.127245
30
0.0
11
54.595264
21
31.208592
31
0.0
0
LINE
8
0
10
54.595264
20
31.208592
30
0.0
11
52.966507
21
32.333058
31
0.0
0
ARC
8
0
10
53.136949
20
32.579938
30
0.0
40
0.300000
50
175.379459
51
235.379459
0
LINE
8
0
10
52.837924
20
32.604105
30
0.0
11
52.847226
21
32.719200
31
0.0
0
ARC
8
0
10
52.647876
20
32.735311
30
0.0
40
0.200000
50
355.379459
51
115.379459
0
LINE
8
0
10
52.562153
20
32.916009
30
0.0
11
52.054730
21
32.675289
31
0.0
0
ARC
8
0
10
52.183314
20
32.404243
30
0.0
40
0.300000
50
115.379459
51
155.745828
0
LINE
8
0
10
51.909794
20
32.527478
30
0.0
11
50.961144
21
30.421963
31
0.0
0
ARC
8
0
10
51.233870
20
30.296981
30
0.0
40
0.300000
50
155.379459
51
270.000000
0
LINE
8
0
10
51.235857
20
29.996988
30
0.0
11
52.814785
21
30.007445
31
0.0
0
ARC
8
0
10
52.813229
20
30.242440
30
0.0
40
0.235000
50
270.000000
51
336.000000
0
ARC
8
0
10
53.249164
20
30.066026
30
0.0
40
0.235000
50
70.221829
51
156.000000
0
LINE
8
0
10
53.328683
20
30.287163
30
0.0
11
54.630549
21
29.819023
31
0.0
0
ARC
8
0
10
54.732063
20
30.101326
30
0.0
40
0.300000
50
250.221829
51
270.000000
0
LINE
8
0
10
54.732069
20
29.801326
30
0.0
11
56.000009
21
29.801348
31
0.0
0
ARC
8
0
10
56.000000
20
30.301348
30
0.0
40
0.500000
50
270.000000
51
360.000000
0
LINE
8
0
10
56.500000
20
30.301348
30
0.0
11
56.500000
21
31.301357
31
0.0
0
ARC
8
0
10
57.500000
20
31.301357
30
0.0
40
1.000000
50
90.000000
51
180.000000
0
LINE
8
0
10
57.500000
20
32.301357
30
0.0
11
59.800257
21
32.301357
31
0.0
0
ARC
8
0
10
59.800257
20
31.301357
30
0.0
40
1.000000
50
360.000000
51
90.000000
0
LINE
8
0
10
60.800257
20
31.301357
30
0.0
11
60.800257
21
17.101595
31
0.0
0
ARC
8
0
10
60.500257
20
17.101595
30
0.0
40
0.300000
50
270.000000
51
360.000000
0
LINE
8
0
10
60.500257
20
16.801595
30
0.0
11
59.100257
21
16.801595
31
0.0
0
ARC
8
0
10
59.100257
20
17.101595
30
0.0
40
0.300000
50
180.000000
51
270.000000
0
LINE
8
0
10
58.800257
20
17.101595
30
0.0
11
58.800257
21
18.001595
31
0.0
0
ARC
8
0
10
58.500257
20
18.001595
30
0.0
40
0.300000
50
360.000000
51
90.000000
0
LINE
8
0
10
58.500257
20
18.301595
30
0.0
11
58.100257
21
18.301595
31
0.0
0
ARC
8
0
10
58.100257
20
18.001595
30
0.0
40
0.300000
50
90.000000
51
180.000000
0
LINE
8
0
10
57.800257
20
18.001595
30
0.0
11
57.800257
21
15.001595
31
0.0
0
ARC
8
0
10
58.500257
20
15.001595
30
0.0
40
0.700000
50
180.000000
51
270.000000
0
ARC
8
0
10
58.500257
20
14.601595
30
0.0
40
0.300000
50
270.000000
51
360.000000
0
LINE
8
0
10
58.800257
20
14.601595
30
0.0
11
58.800257
21
15.301595
31
0.0
0
ARC
8
0
10
59.100257
20
15.301595
30
0.0
40
0.300000
50
90.000000
51
180.000000
0
LINE
8
0
10
59.100257
20
15.601595
30
0.0
11
60.300257
21
15.601595
31
0.0
0
ARC
8
0
10
60.300257
20
14.901595
30
0.0
40
0.700000
50
360.000000
51
90.000000
0
LINE
8
0
10
61.000257
20
14.901595
30
0.0
11
61.000257
21
8.701595
31
0.0
0
ARC
8
0
10
60.300257
20
8.701595
30
0.0
40
0.700000
50
270.000000
51
360.000000
0
LINE
8
0
10
60.300257
20
8.001595
30
0.0
11
59.100257
21
8.001595
31
0.0
0
ARC
8
0
10
59.100257
20
8.301595
30
0.0
40
0.300000
50
180.000000
51
270.000000
0
LINE
8
0
10
58.800257
20
8.301595
30
0.0
11
58.800257
21
9.001595
31
0.0
0
ARC
8
0
10
58.500257
20
9.001595
30
0.0
40
0.300000
50
360.000000
51
90.000000
0
ARC
8
0
10
58.500257
20
8.601595
30
0.0
40
0.700000
50
90.000000
51
180.000000
0
LINE
8
0
10
57.800257
20
8.601595
30
0.0
11
57.800257
21
7.101595
31
0.0
0
ARC
8
0
10
58.100257
20
7.101595
30
0.0
40
0.300000
50
180.000000
51
270.000000
0
LINE
8
0
10
58.100257
20
6.801595
30
0.0
11
62.000257
21
6.801595
31
0.0
0
ARC
8
0
10
62.000257
20
7.101595
30
0.0
40
0.300000
50
270.000000
51
360.000000
0
LINE
8
0
10
62.300257
20
7.101595
30
0.0
11
62.300257
21
88.501595
31
0.0
0
ARC
8
0
10
62.000257
20
88.501595
30
0.0
40
0.300000
50
360.000000
51
90.000000
0
LINE
8
0
10
62.000257
20
88.801595
30
0.0
11
58.100257
21
88.801595
31
0.0
0
ARC
8
0
10
58.100257
20
88.501595
30
0.0
40
0.300000
50
90.000000
51
180.000000
0
LINE
8
0
10
57.800257
20
88.501595
30
0.0
11
57.800257
21
87.001595
31
0.0
0
LINE
8
0
10
56.500000
20
34.901318
30
0.0
11
56.500000
21
36.285551
31
0.0
0
ARC
8
0
10
56.000000
20
36.285551
30
0.0
40
0.500000
50
360.000000
51
35.000000
0
LINE
8
0
10
56.409576
20
36.572339
30
0.0
11
55.290424
21
38.170654
31
0.0
0
ARC
8
0
10
55.700000
20
38.457442
30
0.0
40
0.500000
50
180.000000
51
215.000000
0
LINE
8
0
10
55.200000
20
38.457442
30
0.0
11
55.200000
21
44.291610
31
0.0
0
ARC
8
0
10
55.700000
20
44.291610
30
0.0
40
0.500000
50
115.842413
51
180.000000
0
ARC
8
0
10
54.000000
20
47.801595
30
0.0
40
3.400000
50
295.842413
51
64.157587
0
ARC
8
0
10
55.700000
20
51.311581
30
0.0
40
0.500000
50
180.000000
51
244.157587
0
LINE
8
0
10
55.200000
20
51.311581
30
0.0
11
55.200000
21
57.145749
31
0.0
0
ARC
8
0
10
55.700000
20
57.145749
30
0.0
40
0.500000
50
145.000000
51
180.000000
0
LINE
8
0
10
55.290424
20
57.432537
30
0.0
11
56.409576
21
59.030852
31
0.0
0
ARC
8
0
10
56.000000
20
59.317640
30
0.0
40
0.500000
50
325.000000
51
360.000000
0
LINE
8
0
10
56.500000
20
59.317640
30
0.0
11
56.500000
21
60.701816
31
0.0
0
ARC
8
0
10
57.500000
20
60.701816
30
0.0
40
1.000000
50
90.000000
51
180.000000
0
LINE
8
0
10
57.500000
20
61.701816
30
0.0
11
59.800257
21
61.701816
31
0.0
0
ARC
8
0
10
59.800257
20
60.701816
30
0.0
40
1.000000
50
360.000000
51
90.000000
0
LINE
8
0
10
60.800257
20
60.701816
30
0.0
11
60.800257
21
34.901375
31
0.0
0
ARC
8
0
10
59.800257
20
34.901375
30
0.0
40
1.000000
50
270.000000
51
360.000000
0
LINE
8
0
10
59.800257
20
33.901375
30
0.0
11
57.500000
21
33.901375
31
0.0
0
ARC
8
0
10
57.500000
20
34.901375
30
0.0
40
1.000000
50
180.000000
51
270.000000
0
ARC
8
0
10
8.999742
20
61.801595
30
0.0
40
2.100000
50
25.714286
51
68.571429
0
LINE
8
0
10
10.891777
20
62.712751
30
0.0
11
11.162067
21
62.842916
31
0.0
0
ARC
8
0
10
8.999742
20
61.801595
30
0.0
40
2.400000
50
342.857143
51
25.714286
0
LINE
8
0
10
11.293117
20
61.094183
30
0.0
11
11.006445
21
61.182609
31
0.0
0
ARC
8
0
10
8.999742
20
61.801595
30
0.0
40
2.100000
50
311.087489
51
342.857143
0
ARC
8
0
10
10.708490
20
59.841957
30
0.0
40
0.500000
50
131.087489
51
210.000000
0
LINE
8
0
10
10.275477
20
59.591957
30
0.0
11
10.580090
21
59.064352
31
0.0
0
ARC
8
0
10
11.013103
20
59.314352
30
0.0
40
0.500000
50
210.000000
51
308.989299
0
ARC
8
0
10
8.999742
20
61.801595
30
0.0
40
3.700000
50
308.989299
51
26.896546
0
ARC
8
0
10
12.745406
20
63.701595
30
0.0
40
0.500000
50
90.000000
51
206.896546
0
LINE
8
0
10
12.745406
20
64.201595
30
0.0
11
16.150000
21
64.201595
31
0.0
0
ARC
8
0
10
16.150000
20
63.851595
30
0.0
40
0.350000
50
360.000000
51
90.000000
0
LINE
8
0
10
16.500000
20
63.851595
30
0.0
11
16.500000
21
31.751595
31
0.0
0
ARC
8
0
10
16.150000
20
31.751595
30
0.0
40
0.350000
50
270.000000
51
360.000000
0
LINE
8
0
10
16.150000
20
31.401595
30
0.0
11
12.745406
21
31.401595
31
0.0
0
ARC
8
0
10
12.745406
20
31.901595
30
0.0
40
0.500000
50
153.103454
51
270.000000
0
ARC
8
0
10
8.999742
20
33.801595
30
0.0
40
3.700000
50
333.103454
51
51.010701
0
ARC
8
0
10
11.013103
20
36.288838
30
0.0
40
0.500000
50
51.010701
51
150.000000
0
LINE
8
0
10
10.580090
20
36.538838
30
0.0
11
10.275477
21
36.011233
31
0.0
0
ARC
8
0
10
10.708490
20
35.761233
30
0.0
40
0.500000
50
150.000000
51
228.912511
0
ARC
8
0
10
8.999742
20
33.801595
30
0.0
40
2.100000
50
17.142857
51
48.912511
0
LINE
8
0
10
11.006445
20
34.420581
30
0.0
11
11.293117
21
34.509008
31
0.0
0
ARC
8
0
10
8.999742
20
33.801595
30
0.0
40
2.400000
50
334.285714
51
17.142857
0
LINE
8
0
10
11.162067
20
32.760274
30
0.0
11
10.891777
21
32.890439
31
0.0
0
ARC
8
0
10
8.999742
20
33.801595
30
0.0
40
2.100000
50
291.428571
51
334.285714
0
LINE
8
0
10
9.766958
20
31.846760
30
0.0
11
9.876560
21
31.567498
31
0.0
0
ARC
8
0
10
8.999742
20
33.801595
30
0.0
40
2.400000
50
248.571429
51
291.428571
0
LINE
8
0
10
8.122924
20
31.567498
30
0.0
11
8.232526
21
31.846760
31
0.0
0
ARC
8
0
10
8.999742
20
33.801595
30
0.0
40
2.100000
50
205.714286
51
248.571429
0
LINE
8
0
10
7.107707
20
32.890439
30
0.0
11
6.837417
21
32.760274
31
0.0
0
ARC
8
0
10
8.999742
20
33.801595
30
0.0
40
2.400000
50
162.857143
51
205.714286
0
LINE
8
0
10
6.706367
20
34.509008
30
0.0
11
6.993039
21
34.420581
31
0.0
0
ARC
8
0
10
8.999742
20
33.801595
30
0.0
40
2.100000
50
131.087489
51
162.857143
0
ARC
8
0
10
7.290994
20
35.761233
30
0.0
40
0.500000
50
311.087489
51
30.000000
0
LINE
8
0
10
7.724007
20
36.011233
30
0.0
11
7.419394
21
36.538838
31
0.0
0
ARC
8
0
10
6.986381
20
36.288838
30
0.0
40
0.500000
50
30.000000
51
128.989299
0
ARC
8
0
10
8.999742
20
33.801595
30
0.0
40
3.700000
50
128.989299
51
206.896546
0
ARC
8
0
10
5.254078
20
31.901595
30
0.0
40
0.500000
50
270.000000
51
26.896546
0
LINE
8
0
10
5.254078
20
31.401595
30
0.0
11
1.850000
21
31.401595
31
0.0
0
ARC
8
0
10
1.850000
20
31.751595
30
0.0
40
0.350000
50
180.000000
51
270.000000
0
LINE
8
0
10
1.500000
20
31.751595
30
0.0
11
1.500000
21
63.851595
31
0.0
0
ARC
8
0
10
1.850000
20
63.851595
30
0.0
40
0.350000
50
90.000000
51
180.000000
0
LINE
8
0
10
1.850000
20
64.201595
30
0.0
11
5.254078
21
64.201595
31
0.0
0
ARC
8
0
10
5.254078
20
63.701595
30
0.0
40
0.500000
50
333.103454
51
90.000000
0
ARC
8
0
10
8.999742
20
61.801595
30
0.0
40
3.700000
50
153.103454
51
231.010701
0
ARC
8
0
10
6.986381
20
59.314352
30
0.0
40
0.500000
50
231.010701
51
330.000000
0
LINE
8
0
10
7.419394
20
59.064352
30
0.0
11
7.724007
21
59.591957
31
0.0
0
ARC
8
0
10
7.290994
20
59.841957
30
0.0
40
0.500000
50
330.000000
51
48.912511
0
ARC
8
0
10
8.999742
20
61.801595
30
0.0
40
2.100000
50
197.142857
51
228.912511
0
LINE
8
0
10
6.993039
20
61.182609
30
0.0
11
6.706367
21
61.094183
31
0.0
0
ARC
8
0
10
8.999742
20
61.801595
30
0.0
40
2.400000
50
154.285714
51
197.142857
0
LINE
8
0
10
6.837417
20
62.842916
30
0.0
11
7.107707
21
62.712751
31
0.0
0
ARC
8
0
10
8.999742
20
61.801595
30
0.0
40
2.100000
50
111.428571
51
154.285714
0
LINE
8
0
10
8.232526
20
63.756430
30
0.0
11
8.122924
21
64.035692
31
0.0
0
ARC
8
0
10
8.999742
20
61.801595
30
0.0
40
2.400000
50
68.571429
51
111.428571
0
LINE
8
0
10
9.876560
20
64.035692
30
0.0
11
9.766958
21
63.756430
31
0.0
0
LINE
8
0
10
20.200000
20
60.575355
30
0.0
11
18.669615
21
59.641787
31
0.0
0
ARC
8
0
10
18.519615
20
59.901594
30
0.0
40
0.300000
50
270.000000
51
300.000000
0
LINE
8
0
10
18.519615
20
59.601594
30
0.0
11
18.300000
21
59.601594
31
0.0
0
ARC
8
0
10
18.300000
20
59.901594
30
0.0
40
0.300000
50
180.000000
51
270.000000
0
LINE
8
0
10
18.000000
20
59.901594
30
0.0
11
18.000000
21
63.935909
31
0.0
0
ARC
8
0
10
18.100000
20
64.218752
30
0.0
40
0.300000
50
109.471221
51
250.528779
0
LINE
8
0
10
18.000000
20
64.501594
30
0.0
11
18.038281
21
64.501594
31
0.0
0
ARC
8
0
10
18.038281
20
63.901594
30
0.0
40
0.600000
50
57.598279
51
90.000000
0
LINE
8
0
10
18.359793
20
64.408181
30
0.0
11
20.067890
21
63.324118
31
0.0
0
LINE
8
0
10
20.067890
20
63.324118
30
0.0
11
20.055793
21
63.035697
31
0.0
0
ARC
8
0
10
20.255617
20
63.027316
30
0.0
40
0.200000
50
180.000000
51
297.598279
0
LINE
8
0
10
20.348271
20
62.850072
30
0.0
11
20.629341
21
62.997001
31
0.0
0
ARC
8
0
10
20.258726
20
63.705975
30
0.0
40
0.800000
50
297.598279
51
342.598279
0
LINE
8
0
10
21.022111
20
63.466720
30
0.0
11
21.624075
21
65.387389
31
0.0
0
ARC
8
0
10
21.337806
20
65.477109
30
0.0
40
0.300000
50
342.598279
51
90.000000
0
LINE
8
0
10
21.337806
20
65.777109
30
0.0
11
19.786712
21
65.777109
31
0.0
0
ARC
8
0
10
19.785309
20
65.577114
30
0.0
40
0.200000
50
90.000000
51
150.367342
0
ARC
8
0
10
19.350703
20
65.824333
30
0.0
40
0.300000
50
252.598279
51
330.367342
0
LINE
8
0
10
19.260982
20
65.538064
30
0.0
11
18.223536
21
65.811519
31
0.0
0
ARC
8
0
10
18.300000
20
66.101611
30
0.0
40
0.300000
50
180.000000
51
255.233538
0
LINE
8
0
10
18.000000
20
66.101611
30
0.0
11
18.000000
21
69.001595
31
0.0
0
ARC
8
0
10
18.300000
20
69.001595
30
0.0
40
0.300000
50
90.000000
51
180.000000
0
LINE
8
0
10
18.300000
20
69.301595
30
0.0
11
18.900000
21
69.301595
31
0.0
0
ARC
8
0
10
18.900000
20
69.601595
30
0.0
40
0.300000
50
270.000000
51
360.000000
0
LINE
8
0
10
19.200000
20
69.601595
30
0.0
11
19.200000
21
69.801595
31
0.0
0
ARC
8
0
10
18.200000
20
69.801595
30
0.0
40
1.000000
50
360.000000
51
90.000000
0
LINE
8
0
10
18.200000
20
70.801595
30
0.0
11
15.050555
21
70.801595
31
0.0
0
ARC
8
0
10
15.050555
20
70.501595
30
0.0
40
0.300000
50
90.000000
51
150.000000
0
LINE
8
0
10
14.790747
20
70.651595
30
0.0
11
14.340192
21
69.871211
31
0.0
0
ARC
8
0
10
14.600000
20
69.721211
30
0.0
40
0.300000
50
150.000000
51
180.000000
0
LINE
8
0
10
14.300000
20
69.721211
30
0.0
11
14.300000
21
69.601595
31
0.0
0
ARC
8
0
10
14.600000
20
69.601595
30
0.0
40
0.300000
50
180.000000
51
270.000000
0
LINE
8
0
10
14.600000
20
69.301595
30
0.0
11
16.000000
21
69.301595
31
0.0
0
ARC
8
0
10
16.000000
20
69.001595
30
0.0
40
0.300000
50
360.000000
51
90.000000
0
LINE
8
0
10
16.300000
20
69.001595
30
0.0
11
16.300000
21
66.101595
31
0.0
0
ARC
8
0
10
16.000000
20
66.101595
30
0.0
40
0.300000
50
270.000000
51
360.000000
0
LINE
8
0
10
16.000000
20
65.801595
30
0.0
11
2.100000
21
65.801595
31
0.0
0
ARC
8
0
10
2.100000
20
66.101595
30
0.0
40
0.300000
50
180.000000
51
270.000000
0
LINE
8
0
10
1.800000
20
66.101595
30
0.0
11
1.800000
21
69.001595
31
0.0
0
ARC
8
0
10
2.100000
20
69.001595
30
0.0
40
0.300000
50
90.000000
51
180.000000
0
LINE
8
0
10
2.100000
20
69.301595
30
0.0
11
4.000000
21
69.301595
31
0.0
0
ARC
8
0
10
4.000000
20
69.601595
30
0.0
40
0.300000
50
270.000000
51
360.000000
0
LINE
8
0
10
4.300000
20
69.601595
30
0.0
11
4.300000
21
69.721211
31
0.0
0
ARC
8
0
10
4.000000
20
69.721211
30
0.0
40
0.300000
50
360.000000
51
30.000000
0
LINE
8
0
10
4.259807
20
69.871211
30
0.0
11
3.809252
21
70.651595
31
0.0
0
ARC
8
0
10
3.549444
20
70.501595
30
0.0
40
0.300000
50
30.000000
51
90.000000
0
LINE
8
0
10
3.549444
20
70.801595
30
0.0
11
0.300000
21
70.801595
31
0.0
0
ARC
8
0
10
0.300000
20
70.501595
30
0.0
40
0.300000
50
90.000000
51
180.000000
0
LINE
8
0
10
0.000000
20
70.501595
30
0.0
11
0.000000
21
25.101595
31
0.0
0
ARC
8
0
10
0.300000
20
25.101595
30
0.0
40
0.300000
50
180.000000
51
270.000000
0
LINE
8
0
10
0.300000
20
24.801595
30
0.0
11
3.549444
21
24.801595
31
0.0
0
ARC
8
0
10
3.549444
20
25.101595
30
0.0
40
0.300000
50
270.000000
51
330.000000
0
LINE
8
0
10
3.809252
20
24.951595
30
0.0
11
4.259807
21
25.731980
31
0.0
0
ARC
8
0
10
4.000000
20
25.881980
30
0.0
40
0.300000
50
330.000000
51
360.000000
0
LINE
8
0
10
4.300000
20
25.881980
30
0.0
11
4.300000
21
26.001595
31
0.0
0
ARC
8
0
10
4.000000
20
26.001595
30
0.0
40
0.300000
50
360.000000
51
90.000000
0
LINE
8
0
10
4.000000
20
26.301595
30
0.0
11
2.100000
21
26.301595
31
0.0
0
ARC
8
0
10
2.100000
20
26.601595
30
0.0
40
0.300000
50
180.000000
51
270.000000
0
LINE
8
0
10
1.800000
20
26.601595
30
0.0
11
1.800000
21
29.501595
31
0.0
0
ARC
8
0
10
2.100000
20
29.501595
30
0.0
40
0.300000
50
90.000000
51
180.000000
0
LINE
8
0
10
2.100000
20
29.801595
30
0.0
11
16.000000
21
29.801595
31
0.0
0
ARC
8
0
10
16.000000
20
29.501595
30
0.0
40
0.300000
50
360.000000
51
90.000000
0
LINE
8
0
10
16.300000
20
29.501595
30
0.0
11
16.300000
21
26.601595
31
0.0
0
ARC
8
0
10
16.000000
20
26.601595
30
0.0
40
0.300000
50
270.000000
51
360.000000
0
LINE
8
0
10
16.000000
20
26.301595
30
0.0
11
14.600000
21
26.301595
31
0.0
0
ARC
8
0
10
14.600000
20
26.001595
30
0.0
40
0.300000
50
90.000000
51
180.000000
0
LINE
8
0
10
14.300000
20
26.001595
30
0.0
11
14.300000
21
25.881980
31
0.0
0
ARC
8
0
10
14.600000
20
25.881980
30
0.0
40
0.300000
50
180.000000
51
210.000000
0
LINE
8
0
10
14.340192
20
25.731980
30
0.0
11
14.790747
21
24.951595
31
0.0
0
ARC
8
0
10
15.050555
20
25.101595
30
0.0
40
0.300000
50
210.000000
51
270.000000
0
LINE
8
0
10
15.050555
20
24.801595
30
0.0
11
18.200000
21
24.801595
31
0.0
0
ARC
8
0
10
18.200000
20
25.801595
30
0.0
40
1.000000
50
270.000000
51
360.000000
0
LINE
8
0
10
19.200000
20
25.801595
30
0.0
11
19.200000
21
26.001595
31
0.0
0
ARC
8
0
10
18.900000
20
26.001595
30
0.0
40
0.300000
50
360.000000
51
90.000000
0
LINE
8
0
10
18.900000
20
26.301595
30
0.0
11
18.300000
21
26.301595
31
0.0
0
ARC
8
0
10
18.300000
20
26.601595
30
0.0
40
0.300000
50
180.000000
51
270.000000
0
LINE
8
0
10
18.000000
20
26.601595
30
0.0
11
18.000000
21
29.501580
31
0.0
0
ARC
8
0
10
18.300000
20
29.501580
30
0.0
40
0.300000
50
104.766462
51
180.000000
0
LINE
8
0
10
18.223536
20
29.791671
30
0.0
11
19.260982
21
30.065127
31
0.0
0
ARC
8
0
10
19.350703
20
29.778858
30
0.0
40
0.300000
50
29.632658
51
107.401721
0
ARC
8
0
10
19.785309
20
30.026076
30
0.0
40
0.200000
50
209.632658
51
270.000000
0
LINE
8
0
10
19.786712
20
29.826081
30
0.0
11
21.337806
21
29.826081
31
0.0
0
ARC
8
0
10
21.337806
20
30.126081
30
0.0
40
0.300000
50
270.000000
51
17.401721
0
LINE
8
0
10
21.624075
20
30.215802
30
0.0
11
21.022111
21
32.136471
31
0.0
0
ARC
8
0
10
20.258726
20
31.897215
30
0.0
40
0.800000
50
17.401721
51
62.401721
0
LINE
8
0
10
20.629341
20
32.606189
30
0.0
11
20.348271
21
32.753119
31
0.0
0
ARC
8
0
10
20.255617
20
32.575875
30
0.0
40
0.200000
50
62.401721
51
180.000000
0
LINE
8
0
10
20.055793
20
32.567494
30
0.0
11
20.067890
21
32.279072
31
0.0
0
LINE
8
0
10
20.067890
20
32.279072
30
0.0
11
18.359793
21
31.195009
31
0.0
0
ARC
8
0
10
18.038281
20
31.701596
30
0.0
40
0.600000
50
270.000000
51
302.401721
0
LINE
8
0
10
18.038281
20
31.101596
30
0.0
11
18.000000
21
31.101596
31
0.0
0
ARC
8
0
10
18.100000
20
31.384439
30
0.0
40
0.300000
50
109.471221
51
250.528779
0
LINE
8
0
10
18.000000
20
31.667282
30
0.0
11
18.000000
21
35.701596
31
0.0
0
ARC
8
0
10
18.300000
20
35.701596
30
0.0
40
0.300000
50
90.000000
51
180.000000
0
LINE
8
0
10
18.300000
20
36.001596
30
0.0
11
18.519615
21
36.001596
31
0.0
0
ARC
8
0
10
18.519615
20
35.701596
30
0.0
40
0.300000
50
60.000000
51
90.000000
0
LINE
8
0
10
18.669615
20
35.961404
30
0.0
11
20.200000
21
35.027836
31
0.0
0
ARC
8
0
10
20.300000
20
35.201041
30
0.0
40
0.200000
50
240.000000
51
360.000000
0
LINE
8
0
10
20.500000
20
35.201041
30
0.0
11
20.500000
21
36.626229
31
0.0
0
ARC
8
0
10
19.500000
20
36.626229
30
0.0
40
1.000000
50
360.000000
51
58.615899
0
LINE
8
0
10
20.020772
20
37.479924
30
0.0
11
18.479227
21
38.420301
31
0.0
0
ARC
8
0
10
19.000000
20
39.273996
30
0.0
40
1.000000
50
180.000000
51
238.615899
0
LINE
8
0
10
18.000000
20
39.273996
30
0.0
11
18.000000
21
56.329194
31
0.0
0
ARC
8
0
10
19.000000
20
56.329194
30
0.0
40
1.000000
50
121.384101
51
180.000000
0
LINE
8
0
10
18.479227
20
57.182890
30
0.0
11
20.020772
21
58.123266
31
0.0
0
ARC
8
0
10
19.500000
20
58.976961
30
0.0
40
1.000000
50
301.384101
51
360.000000
0
LINE
8
0
10
20.500000
20
58.976961
30
0.0
11
20.500000
21
60.402150
31
0.0
0
ARC
8
0
10
20.300000
20
60.402150
30
0.0
40
0.200000
50
360.000000
51
120.000000
0
LINE
8
0
10
38.199994
20
44.516297
30
0.0
11
38.034074
21
43.897075
31
0.0
0
ARC
8
0
10
39.000000
20
43.638256
30
0.0
40
1.000000
50
165.000000
51
180.000000
0
LINE
8
0
10
38.000000
20
43.638256
30
0.0
11
38.000000
21
33.462200
31
0.0
0
ARC
8
0
10
39.000000
20
33.462200
30
0.0
40
1.000000
50
180.000000
51
201.739375
0
LINE
8
0
10
38.071121
20
33.091815
30
0.0
11
38.488169
21
32.045912
31
0.0
0
ARC
8
0
10
39.417048
20
32.416297
30
0.0
40
1.000000
50
201.739375
51
270.000000
0
LINE
8
0
10
39.417048
20
31.416297
30
0.0
11
45.500000
21
31.416297
31
0.0
0
ARC
8
0
10
45.500000
20
31.516297
30
0.0
40
0.100000
50
270.000000
51
360.000000
0
ARC
8
0
10
46.000000
20
31.516297
30
0.0
40
0.400000
50
90.000000
51
180.000000
0
ARC
8
0
10
46.000000
20
31.516297
30
0.0
40
0.400000
50
360.000000
51
90.000000
0
ARC
8
0
10
46.500000
20
31.516297
30
0.0
40
0.100000
50
180.000000
51
270.000000
0
LINE
8
0
10
46.500000
20
31.416297
30
0.0
11
48.222217
21
31.416297
31
0.0
0
ARC
8
0
10
48.222217
20
32.616297
30
0.0
40
1.200000
50
270.000000
51
340.000000
0
LINE
8
0
10
49.349848
20
32.205873
30
0.0
11
50.060480
21
34.158317
31
0.0
0
ARC
8
0
10
51.000173
20
33.816297
30
0.0
40
1.000000
50
90.000000
51
160.000000
0
LINE
8
0
10
51.000173
20
34.816297
30
0.0
11
52.112000
21
34.816297
31
0.0
0
ARC
8
0
10
52.112000
20
36.016297
30
0.0
40
1.200000
50
270.000000
51
299.981639
0
LINE
8
0
10
52.711667
20
34.976875
30
0.0
11
54.293611
21
35.889534
31
0.0
0
ARC
8
0
10
54.393555
20
35.716297
30
0.0
40
0.200000
50
90.000000
51
119.981639
0
LINE
8
0
10
54.393555
20
35.916297
30
0.0
11
54.600000
21
35.916297
31
0.0
0
ARC
8
0
10
54.600000
20
35.516297
30
0.0
40
0.400000
50
360.000000
51
90.000000
0
LINE
8
0
10
55.000000
20
35.516297
30
0.0
11
55.000000
21
35.089502
31
0.0
0
ARC
8
0
10
54.800000
20
35.089502
30
0.0
40
0.200000
50
300.000000
51
360.000000
0
LINE
8
0
10
54.900000
20
34.916297
30
0.0
11
54.900000
21
34.541297
31
0.0
0
ARC
8
0
10
54.700000
20
34.541297
30
0.0
40
0.200000
50
270.000000
51
360.000000
0
LINE
8
0
10
54.700000
20
34.341297
30
0.0
11
54.588193
21
34.341297
31
0.0
0
LINE
8
0
10
54.588193
20
34.341297
30
0.0
11
54.503645
21
34.360047
31
0.0
0
ARC
8
0
10
54.250000
20
33.816297
30
0.0
40
0.600000
50
64.992167
51
180.000000
0
ARC
8
0
10
54.250000
20
33.816297
30
0.0
40
0.600000
50
180.000000
51
295.007833
0
LINE
8
0
10
54.503645
20
33.272547
30
0.0
11
54.588193
21
33.291297
31
0.0
0
LINE
8
0
10
54.588193
20
33.291297
30
0.0
11
54.700000
21
33.291297
31
0.0
0
ARC
8
0
10
54.700000
20
33.091297
30
0.0
40
0.200000
50
360.000000
51
90.000000
0
LINE
8
0
10
54.900000
20
33.091297
30
0.0
11
54.900000
21
32.716297
31
0.0
0
ARC
8
0
10
54.800000
20
32.543092
30
0.0
40
0.200000
50
360.000000
51
60.000000
0
LINE
8
0
10
55.000000
20
32.543092
30
0.0
11
55.000000
21
32.116297
31
0.0
0
ARC
8
0
10
54.600000
20
32.116297
30
0.0
40
0.400000
50
270.000000
51
360.000000
0
LINE
8
0
10
54.600000
20
31.716297
30
0.0
11
54.393555
21
31.716297
31
0.0
0
ARC
8
0
10
54.393555
20
31.916297
30
0.0
40
0.200000
50
240.018361
51
270.000000
0
LINE
8
0
10
54.293611
20
31.743060
30
0.0
11
52.711667
21
32.655720
31
0.0
0
ARC
8
0
10
52.112000
20
31.616297
30
0.0
40
1.200000
50
60.018361
51
90.000000
0
LINE
8
0
10
52.112000
20
32.816297
30
0.0
11
52.049937
21
32.816297
31
0.0
0
ARC
8
0
10
52.049937
20
32.316297
30
0.0
40
0.500000
50
90.000000
51
162.598279
0
LINE
8
0
10
51.572821
20
32.465832
30
0.0
11
50.643918
21
29.913691
31
0.0
0
ARC
8
0
10
50.362010
20
30.016297
30
0.0
40
0.300000
50
270.000000
51
340.000000
0
LINE
8
0
10
50.362010
20
29.716297
30
0.0
11
22.637989
21
29.716297
31
0.0
0
ARC
8
0
10
22.637989
20
30.016297
30
0.0
40
0.300000
50
200.000000
51
270.000000
0
LINE
8
0
10
22.356081
20
29.913691
30
0.0
11
21.427178
21
32.465832
31
0.0
0
ARC
8
0
10
20.950063
20
32.316297
30
0.0
40
0.500000
50
17.401721
51
90.000000
0
LINE
8
0
10
20.950063
20
32.816297
30
0.0
11
20.887999
21
32.816297
31
0.0
0
ARC
8
0
10
20.887999
20
31.616297
30
0.0
40
1.200000
50
90.000000
51
119.981639
0
LINE
8
0
10
20.288332
20
32.655720
30
0.0
11
18.706389
21
31.743060
31
0.0
0
ARC
8
0
10
18.606444
20
31.916297
30
0.0
40
0.200000
50
270.000000
51
299.981639
0
LINE
8
0
10
18.606444
20
31.716297
30
0.0
11
18.400000
21
31.716297
31
0.0
0
ARC
8
0
10
18.400000
20
32.116297
30
0.0
40
0.400000
50
180.000000
51
270.000000
0
LINE
8
0
10
18.000000
20
32.116297
30
0.0
11
18.000000
21
32.543092
31
0.0
0
ARC
8
0
10
18.200000
20
32.543092
30
0.0
40
0.200000
50
120.000000
51
180.000000
0
LINE
8
0
10
18.100000
20
32.716297
30
0.0
11
18.100000
21
33.091297
31
0.0
0
ARC
8
0
10
18.300000
20
33.091297
30
0.0
40
0.200000
50
90.000000
51
180.000000
0
LINE
8
0
10
18.300000
20
33.291297
30
0.0
11
18.411806
21
33.291297
31
0.0
0
LINE
8
0
10
18.411806
20
33.291297
30
0.0
11
18.496354
21
33.272547
31
0.0
0
ARC
8
0
10
18.750000
20
33.816297
30
0.0
40
0.600000
50
244.992167
51
360.000000
0
ARC
8
0
10
18.750000
20
33.816297
30
0.0
40
0.600000
50
360.000000
51
115.007833
0
LINE
8
0
10
18.496354
20
34.360047
30
0.0
11
18.411806
21
34.341297
31
0.0
0
LINE
8
0
10
18.411806
20
34.341297
30
0.0
11
18.300000
21
34.341297
31
0.0
0
ARC
8
0
10
18.300000
20
34.541297
30
0.0
40
0.200000
50
180.000000
51
270.000000
0
LINE
8
0
10
18.100000
20
34.541297
30
0.0
11
18.100000
21
34.916297
31
0.0
0
ARC
8
0
10
18.200000
20
35.089502
30
0.0
40
0.200000
50
180.000000
51
240.000000
0
LINE
8
0
10
18.000000
20
35.089502
30
0.0
11
18.000000
21
35.516297
31
0.0
0
ARC
8
0
10
18.400000
20
35.516297
30
0.0
40
0.400000
50
90.000000
51
180.000000
0
LINE
8
0
10
18.400000
20
35.916297
30
0.0
11
18.606444
21
35.916297
31
0.0
0
ARC
8
0
10
18.606444
20
35.716297
30
0.0
40
0.200000
50
60.018361
51
90.000000
0
LINE
8
0
10
18.706389
20
35.889534
30
0.0
11
20.288332
21
34.976875
31
0.0
0
ARC
8
0
10
20.887999
20
36.016297
30
0.0
40
1.200000
50
240.018361
51
270.000000
0
LINE
8
0
10
20.887999
20
34.816297
30
0.0
11
21.999827
21
34.816297
31
0.0
0
ARC
8
0
10
21.999827
20
33.816297
30
0.0
40
1.000000
50
20.000000
51
90.000000
0
LINE
8
0
10
22.939519
20
34.158317
30
0.0
11
23.650151
21
32.205873
31
0.0
0
ARC
8
0
10
24.777782
20
32.616297
30
0.0
40
1.200000
50
200.000000
51
270.000000
0
LINE
8
0
10
24.777782
20
31.416297
30
0.0
11
35.583348
21
31.416297
31
0.0
0
ARC
8
0
10
35.583348
20
32.416297
30
0.0
40
1.000000
50
270.000000
51
338.061531
0
LINE
8
0
10
36.510934
20
32.042687
30
0.0
11
36.927585
21
33.077132
31
0.0
0
ARC
8
0
10
36.000000
20
33.450743
30
0.0
40
1.000000
50
338.061531
51
360.000000
0
LINE
8
0
10
37.000000
20
33.450743
30
0.0
11
37.000000
21
43.638213
31
0.0
0
ARC
8
0
10
36.000000
20
43.638213
30
0.0
40
1.000000
50
360.000000
51
15.000000
0
LINE
8
0
10
36.965926
20
43.897032
30
0.0
11
36.799994
21
44.516297
31
0.0
0
LINE
8
0
10
36.799994
20
44.516297
30
0.0
11
36.799994
21
45.216297
31
0.0
0
ARC
8
0
10
37.099994
20
45.216297
30
0.0
40
0.300000
50
90.000000
51
180.000000
0
LINE
8
0
10
37.099994
20
45.516297
30
0.0
11
37.899994
21
45.516297
31
0.0
0
ARC
8
0
10
37.899994
20
45.216297
30
0.0
40
0.300000
50
360.000000
51
90.000000
0
LINE
8
0
10
38.199994
20
45.216297
30
0.0
11
38.199994
21
44.516297
31
0.0
0
LINE
8
0
10
38.199994
20
51.086893
30
0.0
11
38.034074
21
51.706115
31
0.0
0
ARC
8
0
10
39.000000
20
51.964934
30
0.0
40
1.000000
50
180.000000
51
195.000000
0
LINE
8
0
10
38.000000
20
51.964934
30
0.0
11
38.000000
21
62.140991
31
0.0
0
ARC
8
0
10
39.000000
20
62.140991
30
0.0
40
1.000000
50
158.260625
51
180.000000
0
LINE
8
0
10
38.071121
20
62.511376
30
0.0
11
38.488169
21
63.557278
31
0.0
0
ARC
8
0
10
39.417048
20
63.186893
30
0.0
40
1.000000
50
90.000000
51
158.260625
0
LINE
8
0
10
39.417048
20
64.186893
30
0.0
11
45.500000
21
64.186893
31
0.0
0
ARC
8
0
10
45.500000
20
64.086893
30
0.0
40
0.100000
50
360.000000
51
90.000000
0
ARC
8
0
10
46.000000
20
64.086893
30
0.0
40
0.400000
50
180.000000
51
270.000000
0
ARC
8
0
10
46.000000
20
64.086893
30
0.0
40
0.400000
50
270.000000
51
360.000000
0
ARC
8
0
10
46.500000
20
64.086893
30
0.0
40
0.100000
50
90.000000
51
180.000000
0
LINE
8
0
10
46.500000
20
64.186893
30
0.0
11
48.222217
21
64.186893
31
0.0
0
ARC
8
0
10
48.222217
20
62.986893
30
0.0
40
1.200000
50
20.000000
51
90.000000
0
LINE
8
0
10
49.349848
20
63.397317
30
0.0
11
50.060480
21
61.444873
31
0.0
0
ARC
8
0
10
51.000173
20
61.786893
30
0.0
40
1.000000
50
200.000000
51
270.000000
0
LINE
8
0
10
51.000173
20
60.786893
30
0.0
11
52.112000
21
60.786893
31
0.0
0
ARC
8
0
10
52.112000
20
59.586893
30
0.0
40
1.200000
50
60.018361
51
90.000000
0
LINE
8
0
10
52.711667
20
60.626316
30
0.0
11
54.293611
21
59.713656
31
0.0
0
ARC
8
0
10
54.393555
20
59.886893
30
0.0
40
0.200000
50
240.018361
51
270.000000
0
LINE
8
0
10
54.393555
20
59.686893
30
0.0
11
54.600000
21
59.686893
31
0.0
0
ARC
8
0
10
54.600000
20
60.086893
30
0.0
40
0.400000
50
270.000000
51
360.000000
0
LINE
8
0
10
55.000000
20
60.086893
30
0.0
11
55.000000
21
60.513688
31
0.0
0
ARC
8
0
10
54.800000
20
60.513688
30
0.0
40
0.200000
50
360.000000
51
60.000000
0
LINE
8
0
10
54.900000
20
60.686893
30
0.0
11
54.900000
21
61.061893
31
0.0
0
ARC
8
0
10
54.700000
20
61.061893
30
0.0
40
0.200000
50
360.000000
51
90.000000
0
LINE
8
0
10
54.700000
20
61.261893
30
0.0
11
54.588193
21
61.261893
31
0.0
0
LINE
8
0
10
54.503645
20
61.243143
30
0.0
11
54.588193
21
61.261893
31
0.0
0
ARC
8
0
10
54.250000
20
61.786893
30
0.0
40
0.600000
50
180.000000
51
295.007833
0
ARC
8
0
10
54.250000
20
61.786893
30
0.0
40
0.600000
50
64.992167
51
180.000000
0
LINE
8
0
10
54.588193
20
62.311893
30
0.0
11
54.503645
21
62.330643
31
0.0
0
LINE
8
0
10
54.588193
20
62.311893
30
0.0
11
54.700000
21
62.311893
31
0.0
0
ARC
8
0
10
54.700000
20
62.511893
30
0.0
40
0.200000
50
270.000000
51
360.000000
0
LINE
8
0
10
54.900000
20
62.511893
30
0.0
11
54.900000
21
62.886893
31
0.0
0
ARC
8
0
10
54.800000
20
63.060098
30
0.0
40
0.200000
50
300.000000
51
360.000000
0
LINE
8
0
10
55.000000
20
63.060098
30
0.0
11
55.000000
21
63.486893
31
0.0
0
ARC
8
0
10
54.600000
20
63.486893
30
0.0
40
0.400000
50
360.000000
51
90.000000
0
LINE
8
0
10
54.600000
20
63.886893
30
0.0
11
54.393555
21
63.886893
31
0.0
0
ARC
8
0
10
54.393555
20
63.686893
30
0.0
40
0.200000
50
90.000000
51
119.981639
0
LINE
8
0
10
54.293611
20
63.860130
30
0.0
11
52.711667
21
62.947471
31
0.0
0
ARC
8
0
10
52.112000
20
63.986893
30
0.0
40
1.200000
50
270.000000
51
299.981639
0
LINE
8
0
10
52.112000
20
62.786893
30
0.0
11
52.049937
21
62.786893
31
0.0
0
ARC
8
0
10
52.049937
20
63.286893
30
0.0
40
0.500000
50
197.401721
51
270.000000
0
LINE
8
0
10
51.572821
20
63.137359
30
0.0
11
50.643918
21
65.689499
31
0.0
0
ARC
8
0
10
50.362010
20
65.586893
30
0.0
40
0.300000
50
20.000000
51
90.000000
0
LINE
8
0
10
50.362010
20
65.886893
30
0.0
11
22.637989
21
65.886893
31
0.0
0
ARC
8
0
10
22.637989
20
65.586893
30
0.0
40
0.300000
50
90.000000
51
160.000000
0
LINE
8
0
10
22.356081
20
65.689499
30
0.0
11
21.427178
21
63.137358
31
0.0
0
ARC
8
0
10
20.950063
20
63.286893
30
0.0
40
0.500000
50
270.000000
51
342.598279
0
LINE
8
0
10
20.950063
20
62.786893
30
0.0
11
20.887999
21
62.786893
31
0.0
0
ARC
8
0
10
20.887999
20
63.986893
30
0.0
40
1.200000
50
240.018361
51
270.000000
0
LINE
8
0
10
20.288332
20
62.947471
30
0.0
11
18.706389
21
63.860130
31
0.0
0
ARC
8
0
10
18.606444
20
63.686893
30
0.0
40
0.200000
50
60.018361
51
90.000000
0
LINE
8
0
10
18.606444
20
63.886893
30
0.0
11
18.400000
21
63.886893
31
0.0
0
ARC
8
0
10
18.400000
20
63.486893
30
0.0
40
0.400000
50
90.000000
51
180.000000
0
LINE
8
0
10
18.000000
20
63.486893
30
0.0
11
18.000000
21
63.060098
31
0.0
0
ARC
8
0
10
18.200000
20
63.060098
30
0.0
40
0.200000
50
180.000000
51
240.000000
0
LINE
8
0
10
18.100000
20
62.886893
30
0.0
11
18.100000
21
62.511893
31
0.0
0
ARC
8
0
10
18.300000
20
62.511893
30
0.0
40
0.200000
50
180.000000
51
270.000000
0
LINE
8
0
10
18.300000
20
62.311893
30
0.0
11
18.411806
21
62.311893
31
0.0
0
LINE
8
0
10
18.496354
20
62.330643
30
0.0
11
18.411806
21
62.311893
31
0.0
0
ARC
8
0
10
18.750000
20
61.786893
30
0.0
40
0.600000
50
360.000000
51
115.007833
0
ARC
8
0
10
18.750000
20
61.786893
30
0.0
40
0.600000
50
244.992167
51
360.000000
0
LINE
8
0
10
18.411806
20
61.261893
30
0.0
11
18.496354
21
61.243143
31
0.0
0
LINE
8
0
10
18.411806
20
61.261893
30
0.0
11
18.300000
21
61.261893
31
0.0
0
ARC
8
0
10
18.300000
20
61.061893
30
0.0
40
0.200000
50
90.000000
51
180.000000
0
LINE
8
0
10
18.100000
20
61.061893
30
0.0
11
18.100000
21
60.686893
31
0.0
0
ARC
8
0
10
18.200000
20
60.513688
30
0.0
40
0.200000
50
120.000000
51
180.000000
0
LINE
8
0
10
18.000000
20
60.513688
30
0.0
11
18.000000
21
60.086893
31
0.0
0
ARC
8
0
10
18.400000
20
60.086893
30
0.0
40
0.400000
50
180.000000
51
270.000000
0
LINE
8
0
10
18.400000
20
59.686893
30
0.0
11
18.606444
21
59.686893
31
0.0
0
ARC
8
0
10
18.606444
20
59.886893
30
0.0
40
0.200000
50
270.000000
51
299.981639
0
LINE
8
0
10
18.706389
20
59.713656
30
0.0
11
20.288332
21
60.626316
31
0.0
0
ARC
8
0
10
20.887999
20
59.586893
30
0.0
40
1.200000
50
90.000000
51
119.981639
0
LINE
8
0
10
20.887999
20
60.786893
30
0.0
11
21.999827
21
60.786893
31
0.0
0
ARC
8
0
10
21.999827
20
61.786893
30
0.0
40
1.000000
50
270.000000
51
340.000000
0
LINE
8
0
10
22.939519
20
61.444873
30
0.0
11
23.650151
21
63.397317
31
0.0
0
ARC
8
0
10
24.777782
20
62.986893
30
0.0
40
1.200000
50
90.000000
51
160.000000
0
LINE
8
0
10
24.777782
20
64.186893
30
0.0
11
35.583348
21
64.186893
31
0.0
0
ARC
8
0
10
35.583348
20
63.186893
30
0.0
40
1.000000
50
21.938469
51
90.000000
0
LINE
8
0
10
36.510934
20
63.560504
30
0.0
11
36.927585
21
62.526059
31
0.0
0
ARC
8
0
10
36.000000
20
62.152448
30
0.0
40
1.000000
50
360.000000
51
21.938469
0
LINE
8
0
10
37.000000
20
62.152448
30
0.0
11
37.000000
21
51.964977
31
0.0
0
ARC
8
0
10
36.000000
20
51.964977
30
0.0
40
1.000000
50
345.000000
51
360.000000
0
LINE
8
0
10
36.965926
20
51.706158
30
0.0
11
36.799994
21
51.086893
31
0.0
0
LINE
8
0
10
36.799994
20
51.086893
30
0.0
11
36.799994
21
50.386893
31
0.0
0
ARC
8
0
10
37.099994
20
50.386893
30
0.0
40
0.300000
50
180.000000
51
270.000000
0
LINE
8
0
10
37.099994
20
50.086893
30
0.0
11
37.899994
21
50.086893
31
0.0
0
ARC
8
0
10
37.899994
20
50.386893
30
0.0
40
0.300000
50
270.000000
51
360.000000
0
LINE
8
0
10
38.199994
20
50.386893
30
0.0
11
38.199994
21
51.086893
31
0.0
0
LINE
8
0
10
2.000316
20
23.001595
30
0.0
11
5.100316
21
23.001595
31
0.0
0
ARC
8
0
10
5.100316
20
23.501595
30
0.0
40
0.500000
50
270.000000
51
360.000000
0
LINE
8
0
10
5.600316
20
23.501595
30
0.0
11
5.600316
21
29.101595
31
0.0
0
ARC
8
0
10
5.300316
20
29.101595
30
0.0
40
0.300000
50
360.000000
51
150.116348
0
LINE
8
0
10
5.040205
20
29.251068
30
0.0
11
4.089054
21
27.569936
31
0.0
0
ARC
8
0
10
4.698301
20
27.225236
30
0.0
40
0.700000
50
150.499678
51
225.000000
0
LINE
8
0
10
4.203326
20
26.730261
30
0.0
11
4.512448
21
26.421139
31
0.0
0
ARC
8
0
10
4.300316
20
26.209007
30
0.0
40
0.300000
50
360.000000
51
45.000000
0
LINE
8
0
10
4.600316
20
26.209007
30
0.0
11
4.600316
21
24.801595
31
0.0
0
ARC
8
0
10
4.100316
20
24.801595
30
0.0
40
0.500000
50
270.000000
51
360.000000
0
LINE
8
0
10
4.100316
20
24.301595
30
0.0
11
2.000000
21
24.301595
31
0.0
0
LINE
8
0
10
2.000000
20
24.301595
30
0.0
11
2.000000
21
24.501595
31
0.0
0
ARC
8
0
10
1.700000
20
24.501595
30
0.0
40
0.300000
50
360.000000
51
90.000000
0
LINE
8
0
10
1.700000
20
24.801595
30
0.0
11
0.300000
21
24.801595
31
0.0
0
ARC
8
0
10
0.300000
20
24.501595
30
0.0
40
0.300000
50
90.000000
51
180.000000
0
LINE
8
0
10
0.000000
20
24.501595
30
0.0
11
0.000000
21
0.500000
31
0.0
0
ARC
8
0
10
0.500000
20
0.500000
30
0.0
40
0.500000
50
180.000000
51
270.000000
0
LINE
8
0
10
0.500000
20
0.000000
30
0.0
11
65.198188
21
0.000000
31
0.0
0
ARC
8
0
10
65.198188
20
0.300000
30
0.0
40
0.300000
50
270.000000
51
360.000000
0
LINE
8
0
10
65.498188
20
0.300000
30
0.0
11
65.498188
21
1.741699
31
0.0
0
ARC
8
0
10
65.798188
20
1.741699
30
0.0
40
0.300000
50
105.826620
51
180.000000
0
ARC
8
0
10
65.498188
20
2.800000
30
0.0
40
0.800000
50
285.826620
51
140.000000
0
LINE
8
0
10
64.885352
20
3.314230
30
0.0
11
64.068374
21
2.340593
31
0.0
0
ARC
8
0
10
64.298188
20
2.147757
30
0.0
40
0.300000
50
140.000000
51
180.000000
0
LINE
8
0
10
63.998188
20
2.147757
30
0.0
11
63.998188
21
1.796751
31
0.0
0
ARC
8
0
10
63.698188
20
1.796751
30
0.0
40
0.300000
50
270.000000
51
360.000000
0
LINE
8
0
10
63.698188
20
1.496751
30
0.0
11
18.400000
21
1.496751
31
0.0
0
ARC
8
0
10
18.400000
20
1.796751
30
0.0
40
0.300000
50
180.000000
51
270.000000
0
LINE
8
0
10
18.100000
20
1.796751
30
0.0
11
18.100000
21
24.501595
31
0.0
0
ARC
8
0
10
17.800000
20
24.501595
30
0.0
40
0.300000
50
360.000000
51
90.000000
0
LINE
8
0
10
17.800000
20
24.801595
30
0.0
11
16.400000
21
24.801595
31
0.0
0
ARC
8
0
10
16.400000
20
24.501595
30
0.0
40
0.300000
50
90.000000
51
180.000000
0
LINE
8
0
10
16.100000
20
24.501595
30
0.0
11
16.100000
21
24.301595
31
0.0
0
LINE
8
0
10
16.100000
20
24.301595
30
0.0
11
14.500000
21
24.301595
31
0.0
0
ARC
8
0
10
14.500000
20
24.801595
30
0.0
40
0.500000
50
180.000000
51
270.000000
0
LINE
8
0
10
14.000000
20
24.801595
30
0.0
11
14.000000
21
26.209007
31
0.0
0
ARC
8
0
10
14.300000
20
26.209007
30
0.0
40
0.300000
50
135.000000
51
180.000000
0
LINE
8
0
10
14.087868
20
26.421139
30
0.0
11
14.396990
21
26.730261
31
0.0
0
ARC
8
0
10
13.902015
20
27.225236
30
0.0
40
0.700000
50
315.000000
51
29.500322
0
LINE
8
0
10
14.511263
20
27.569936
30
0.0
11
13.560112
21
29.251068
31
0.0
0
ARC
8
0
10
13.300000
20
29.101595
30
0.0
40
0.300000
50
29.883652
51
180.000000
0
LINE
8
0
10
13.000000
20
29.101595
30
0.0
11
13.000000
21
23.501595
31
0.0
0
ARC
8
0
10
13.500000
20
23.501595
30
0.0
40
0.500000
50
180.000000
51
270.000000
0
LINE
8
0
10
13.500000
20
23.001595
30
0.0
11
16.400000
21
23.001595
31
0.0
0
ARC
8
0
10
16.400000
20
22.701595
30
0.0
40
0.300000
50
360.000000
51
90.000000
0
LINE
8
0
10
16.700000
20
22.701595
30
0.0
11
16.700000
21
1.996751
31
0.0
0
ARC
8
0
10
16.400000
20
1.996751
30
0.0
40
0.300000
50
270.000000
51
360.000000
0
LINE
8
0
10
16.400000
20
1.696751
30
0.0
11
2.000316
21
1.696751
31
0.0
0
ARC
8
0
10
2.000316
20
1.996751
30
0.0
40
0.300000
50
180.000000
51
270.000000
0
LINE
8
0
10
1.700316
20
1.996751
30
0.0
11
1.700316
21
22.701595
31
0.0
0
ARC
8
0
10
2.000316
20
22.701595
30
0.0
40
0.300000
50
90.000000
51
180.000000
0
ARC
8
0
10
56.844040
20
12.591788
30
0.0
40
0.300000
50
120.000000
51
210.000000
0
LINE
8
0
10
56.584232
20
12.441788
30
0.0
11
56.640450
21
12.344415
31
0.0
0
ARC
8
0
10
54.314617
20
11.001595
30
0.0
40
2.685641
50
321.284751
51
30.000000
0
ARC
8
0
10
56.800257
20
9.009135
30
0.0
40
0.500000
50
141.284751
51
180.000000
0
LINE
8
0
10
56.300257
20
9.009135
30
0.0
11
56.300257
21
6.401595
31
0.0
0
ARC
8
0
10
57.300257
20
6.401595
30
0.0
40
1.000000
50
180.000000
51
270.000000
0
LINE
8
0
10
57.300257
20
5.401595
30
0.0
11
59.700257
21
5.401595
31
0.0
0
ARC
8
0
10
59.700257
20
4.901595
30
0.0
40
0.500000
50
360.000000
51
90.000000
0
LINE
8
0
10
60.200257
20
4.901595
30
0.0
11
60.200257
21
2.201595
31
0.0
0
ARC
8
0
10
60.700257
20
2.201595
30
0.0
40
0.500000
50
180.000000
51
270.000000
0
LINE
8
0
10
60.700257
20
1.701595
30
0.0
11
61.700257
21
1.701595
31
0.0
0
ARC
8
0
10
61.700257
20
4.201595
30
0.0
40
2.500000
50
270.000000
51
324.672086
0
ARC
8
0
10
66.187465
20
1.021192
30
0.0
40
3.000000
50
107.585703
51
144.672086
0
ARC
8
0
10
68.000257
20
-4.698405
30
0.0
40
9.000000
50
94.301222
51
107.585703
0
ARC
8
0
10
67.400257
20
3.279063
30
0.0
40
1.000000
50
274.301222
51
94.301222
0
ARC
8
0
10
68.000257
20
-4.698405
30
0.0
40
7.000000
50
94.301222
51
106.076650
0
ARC
8
0
10
66.200257
20
1.547394
30
0.0
40
0.500000
50
106.076650
51
180.000000
0
LINE
8
0
10
65.700257
20
1.547394
30
0.0
11
65.700257
21
0.501595
31
0.0
0
ARC
8
0
10
66.200257
20
0.501595
30
0.0
40
0.500000
50
180.000000
51
270.000000
0
LINE
8
0
10
66.200257
20
0.001595
30
0.0
11
72.200257
21
0.001595
31
0.0
0
ARC
8
0
10
72.200257
20
0.501595
30
0.0
40
0.500000
50
270.000000
51
360.000000
0
LINE
8
0
10
72.700257
20
0.501595
30
0.0
11
72.700257
21
2.701595
31
0.0
0
ARC
8
0
10
72.400257
20
2.701595
30
0.0
40
0.300000
50
360.000000
51
90.000000
0
LINE
8
0
10
72.400257
20
3.001595
30
0.0
11
72.000257
21
3.001595
31
0.0
0
ARC
8
0
10
72.000257
20
2.701595
30
0.0
40
0.300000
50
90.000000
51
180.000000
0
LINE
8
0
10
71.700257
20
2.701595
30
0.0
11
71.700257
21
1.801595
31
0.0
0
ARC
8
0
10
71.400257
20
1.801595
30
0.0
40
0.300000
50
270.000000
51
360.000000
0
LINE
8
0
10
71.400257
20
1.501595
30
0.0
11
70.500257
21
1.501595
31
0.0
0
ARC
8
0
10
70.500257
20
1.801595
30
0.0
40
0.300000
50
180.000000
51
270.000000
0
LINE
8
0
10
70.200257
20
1.801595
30
0.0
11
70.200257
21
8.701595
31
0.0
0
ARC
8
0
10
70.500257
20
8.701595
30
0.0
40
0.300000
50
90.000000
51
180.000000
0
LINE
8
0
10
70.500257
20
9.001595
30
0.0
11
71.400257
21
9.001595
31
0.0
0
ARC
8
0
10
71.400257
20
8.701595
30
0.0
40
0.300000
50
360.000000
51
90.000000
0
LINE
8
0
10
71.700257
20
8.701595
30
0.0
11
71.700257
21
7.801595
31
0.0
0
ARC
8
0
10
72.000257
20
7.801595
30
0.0
40
0.300000
50
180.000000
51
270.000000
0
LINE
8
0
10
72.000257
20
7.501595
30
0.0
11
72.400257
21
7.501595
31
0.0
0
ARC
8
0
10
72.400257
20
7.801595
30
0.0
40
0.300000
50
270.000000
51
360.000000
0
LINE
8
0
10
72.700257
20
7.801595
30
0.0
11
72.700257
21
25.301595
31
0.0
0
ARC
8
0
10
72.200257
20
25.301595
30
0.0
40
0.500000
50
360.000000
51
90.000000
0
LINE
8
0
10
72.200257
20
25.801595
30
0.0
11
71.900257
21
25.801595
31
0.0
0
ARC
8
0
10
71.900257
20
26.001595
30
0.0
40
0.200000
50
180.000000
51
270.000000
0
LINE
8
0
10
71.700257
20
26.001595
30
0.0
11
71.700257
21
26.451595
31
0.0
0
ARC
8
0
10
71.450257
20
26.451595
30
0.0
40
0.250000
50
360.000000
51
90.000000
0
LINE
8
0
10
71.450257
20
26.701595
30
0.0
11
71.050257
21
26.701595
31
0.0
0
ARC
8
0
10
71.050257
20
26.451595
30
0.0
40
0.250000
50
90.000000
51
180.000000
0
LINE
8
0
10
70.800257
20
26.451595
30
0.0
11
70.800257
21
26.001595
31
0.0
0
ARC
8
0
10
70.600257
20
26.001595
30
0.0
40
0.200000
50
270.000000
51
360.000000
0
LINE
8
0
10
70.600257
20
25.801595
30
0.0
11
69.607364
21
25.801595
31
0.0
0
ARC
8
0
10
69.607364
20
26.301595
30
0.0
40
0.500000
50
225.000000
51
270.000000
0
LINE
8
0
10
69.253811
20
25.948042
30
0.0
11
66.588125
21
28.613727
31
0.0
0
ARC
8
0
10
66.800257
20
28.825859
30
0.0
40
0.300000
50
180.000000
51
225.000000
0
LINE
8
0
10
66.500257
20
28.825859
30
0.0
11
66.500257
21
30.151595
31
0.0
0
LINE
8
0
10
66.500257
20
30.151595
30
0.0
11
66.200257
21
30.451595
31
0.0
0
LINE
8
0
10
66.200257
20
30.451595
30
0.0
11
66.500257
21
30.751595
31
0.0
0
LINE
8
0
10
66.500257
20
30.751595
30
0.0
11
66.500257
21
32.077331
31
0.0
0
ARC
8
0
10
66.800257
20
32.077331
30
0.0
40
0.300000
50
135.000000
51
180.000000
0
LINE
8
0
10
66.588125
20
32.289463
30
0.0
11
69.253811
21
34.955149
31
0.0
0
ARC
8
0
10
69.607364
20
34.601595
30
0.0
40
0.500000
50
90.000000
51
135.000000
0
LINE
8
0
10
69.607364
20
35.101595
30
0.0
11
70.600257
21
35.101595
31
0.0
0
ARC
8
0
10
70.600257
20
34.901595
30
0.0
40
0.200000
50
360.000000
51
90.000000
0
LINE
8
0
10
70.800257
20
34.901595
30
0.0
11
70.800257
21
34.451595
31
0.0
0
ARC
8
0
10
71.050257
20
34.451595
30
0.0
40
0.250000
50
180.000000
51
270.000000
0
LINE
8
0
10
71.050257
20
34.201595
30
0.0
11
71.450257
21
34.201595
31
0.0
0
ARC
8
0
10
71.450257
20
34.451595
30
0.0
40
0.250000
50
270.000000
51
360.000000
0
LINE
8
0
10
71.700257
20
34.451595
30
0.0
11
71.700257
21
34.901595
31
0.0
0
ARC
8
0
10
71.900257
20
34.901595
30
0.0
40
0.200000
50
90.000000
51
180.000000
0
LINE
8
0
10
71.900257
20
35.101595
30
0.0
11
72.200257
21
35.101595
31
0.0
0
ARC
8
0
10
72.200257
20
35.601595
30
0.0
40
0.500000
50
270.000000
51
360.000000
0
LINE
8
0
10
72.700257
20
35.601595
30
0.0
11
72.700257
21
44.301595
31
0.0
0
ARC
8
0
10
71.700257
20
44.301595
30
0.0
40
1.000000
50
360.000000
51
90.000000
0
LINE
8
0
10
71.700257
20
45.301595
30
0.0
11
71.282157
21
45.301595
31
0.0
0
ARC
8
0
10
71.282157
20
44.801595
30
0.0
40
0.500000
50
90.000000
51
165.000000
0
LINE
8
0
10
70.799194
20
44.931005
30
0.0
11
69.899201
21
41.572186
31
0.0
0
ARC
8
0
10
69.416238
20
41.701595
30
0.0
40
0.500000
50
270.000000
51
345.000000
0
LINE
8
0
10
69.416238
20
41.201595
30
0.0
11
68.300257
21
41.201595
31
0.0
0
ARC
8
0
10
68.300257
20
40.501595
30
0.0
40
0.700000
50
90.000000
51
180.000000
0
ARC
8
0
10
67.900257
20
40.501595
30
0.0
40
0.300000
50
180.000000
51
270.000000
0
LINE
8
0
10
67.900257
20
40.201595
30
0.0
11
68.400257
21
40.201595
31
0.0
0
ARC
8
0
10
68.400257
20
39.901595
30
0.0
40
0.300000
50
360.000000
51
90.000000
0
LINE
8
0
10
68.700257
20
39.901595
30
0.0
11
68.700257
21
39.728945
31
0.0
0
ARC
8
0
10
67.700257
20
39.728945
30
0.0
40
1.000000
50
300.000000
51
360.000000
0
LINE
8
0
10
68.200257
20
38.862920
30
0.0
11
66.478014
21
37.868582
31
0.0
0
ARC
8
0
10
66.228014
20
38.301595
30
0.0
40
0.500000
50
270.000000
51
300.000000
0
LINE
8
0
10
66.228014
20
37.801595
30
0.0
11
65.972501
21
37.801595
31
0.0
0
ARC
8
0
10
65.972501
20
38.301595
30
0.0
40
0.500000
50
240.000000
51
270.000000
0
LINE
8
0
10
65.722501
20
37.868582
30
0.0
11
64.000257
21
38.862920
31
0.0
0
ARC
8
0
10
64.500257
20
39.728945
30
0.0
40
1.000000
50
180.000000
51
240.000000
0
LINE
8
0
10
63.500257
20
39.728945
30
0.0
11
63.500257
21
39.901595
31
0.0
0
ARC
8
0
10
63.800257
20
39.901595
30
0.0
40
0.300000
50
90.000000
51
180.000000
0
LINE
8
0
10
63.800257
20
40.201595
30
0.0
11
64.300257
21
40.201595
31
0.0
0
ARC
8
0
10
64.300257
20
40.501595
30
0.0
40
0.300000
50
270.000000
51
360.000000
0
ARC
8
0
10
63.900257
20
40.501595
30
0.0
40
0.700000
50
360.000000
51
90.000000
0
LINE
8
0
10
63.900257
20
41.201595
30
0.0
11
62.800257
21
41.201595
31
0.0
0
ARC
8
0
10
62.800257
20
40.701595
30
0.0
40
0.500000
50
90.000000
51
180.000000
0
LINE
8
0
10
62.300257
20
40.701595
30
0.0
11
62.300257
21
7.301595
31
0.0
0
ARC
8
0
10
61.800257
20
7.301595
30
0.0
40
0.500000
50
270.000000
51
360.000000
0
LINE
8
0
10
61.800257
20
6.801595
30
0.0
11
57.600257
21
6.801595
31
0.0
0
ARC
8
0
10
57.600257
20
7.101595
30
0.0
40
0.300000
50
180.000000
51
270.000000
0
LINE
8
0
10
57.300257
20
7.101595
30
0.0
11
57.300257
21
8.745515
31
0.0
0
ARC
8
0
10
57.600257
20
8.745515
30
0.0
40
0.300000
50
145.524622
51
180.000000
0
ARC
8
0
10
54.314617
20
11.001595
30
0.0
40
3.685641
50
325.524622
51
30.000000
0
LINE
8
0
10
57.506475
20
12.844415
30
0.0
11
57.450257
21
12.941788
31
0.0
0
ARC
8
0
10
57.190450
20
12.791788
30
0.0
40
0.300000
50
30.000000
51
120.000000
0
LINE
8
0
10
57.040450
20
13.051595
30
0.0
11
56.694040
21
12.851595
31
0.0
0
ARC
8
0
10
64.400257
20
27.407483
30
0.0
40
0.600000
50
45.000000
51
180.000000
0
LINE
8
0
10
63.800257
20
27.407483
30
0.0
11
63.800257
21
17.301595
31
0.0
0
ARC
8
0
10
64.300257
20
17.301595
30
0.0
40
0.500000
50
180.000000
51
270.000000
0
LINE
8
0
10
64.300257
20
16.801595
30
0.0
11
70.400257
21
16.801595
31
0.0
0
ARC
8
0
10
70.400257
20
17.301595
30
0.0
40
0.500000
50
270.000000
51
360.000000
0
LINE
8
0
10
70.900257
20
17.301595
30
0.0
11
70.900257
21
23.501595
31
0.0
0
ARC
8
0
10
70.400257
20
23.501595
30
0.0
40
0.500000
50
360.000000
51
90.000000
0
LINE
8
0
10
70.400257
20
24.001595
30
0.0
11
68.861780
21
24.001595
31
0.0
0
ARC
8
0
10
68.861780
20
24.501595
30
0.0
40
0.500000
50
225.000000
51
270.000000
0
LINE
8
0
10
68.508226
20
24.148042
30
0.0
11
64.824522
21
27.831747
31
0.0
0
ARC
8
0
10
64.300257
20
6.701595
30
0.0
40
0.500000
50
180.000000
51
270.000000
0
LINE
8
0
10
64.300257
20
6.201595
30
0.0
11
68.200257
21
6.201595
31
0.0
0
ARC
8
0
10
68.200257
20
6.701595
30
0.0
40
0.500000
50
270.000000
51
360.000000
0
LINE
8
0
10
68.700257
20
6.701595
30
0.0
11
68.700257
21
10.001595
31
0.0
0
ARC
8
0
10
69.200257
20
10.001595
30
0.0
40
0.500000
50
90.000000
51
180.000000
0
LINE
8
0
10
69.200257
20
10.501595
30
0.0
11
70.400257
21
10.501595
31
0.0
0
ARC
8
0
10
70.400257
20
11.001595
30
0.0
40
0.500000
50
270.000000
51
360.000000
0
LINE
8
0
10
70.900257
20
11.001595
30
0.0
11
70.900257
21
15.101595
31
0.0
0
ARC
8
0
10
70.400257
20
15.101595
30
0.0
40
0.500000
50
360.000000
51
90.000000
0
LINE
8
0
10
70.400257
20
15.601595
30
0.0
11
64.300257
21
15.601595
31
0.0
0
ARC
8
0
10
64.300257
20
15.101595
30
0.0
40
0.500000
50
90.000000
51
180.000000
0
LINE
8
0
10
63.800257
20
15.101595
30
0.0
11
63.800257
21
6.701595
31
0.0
0
LINE
8
0
10
69.921578
20
37.778264
30
0.0
11
69.153143
21
37.334608
31
0.0
0
ARC
8
0
10
69.403143
20
36.901595
30
0.0
40
0.500000
50
120.000000
51
270.000000
0
LINE
8
0
10
69.403143
20
36.401595
30
0.0
11
71.100257
21
36.401595
31
0.0
0
ARC
8
0
10
71.100257
20
36.701595
30
0.0
40
0.300000
50
270.000000
51
360.000000
0
LINE
8
0
10
71.400257
20
36.701595
30
0.0
11
71.400257
21
39.701595
31
0.0
0
ARC
8
0
10
71.100257
20
39.701595
30
0.0
40
0.300000
50
360.000000
51
90.000000
0
LINE
8
0
10
71.100257
20
40.001595
30
0.0
11
70.899129
21
40.001595
31
0.0
0
ARC
8
0
10
70.899129
20
39.701595
30
0.0
40
0.300000
50
90.000000
51
165.000000
0
LINE
8
0
10
70.609351
20
39.779241
30
0.0
11
70.154541
21
38.081867
31
0.0
0
ARC
8
0
10
69.671578
20
38.211277
30
0.0
40
0.500000
50
300.000000
51
345.000000
0
LINE
8
0
10
63.800257
20
33.495708
30
0.0
11
63.800257
21
36.033904
31
0.0
0
ARC
8
0
10
64.300257
20
36.033904
30
0.0
40
0.500000
50
60.000000
51
180.000000
0
LINE
8
0
10
64.550257
20
36.466916
30
0.0
11
66.312464
21
35.449506
31
0.0
0
ARC
8
0
10
66.062464
20
35.016493
30
0.0
40
0.500000
50
315.000000
51
60.000000
0
LINE
8
0
10
66.416018
20
34.662940
30
0.0
11
64.824522
21
33.071444
31
0.0
0
ARC
8
0
10
64.400257
20
33.495708
30
0.0
40
0.600000
50
180.000000
51
315.000000
0
LINE
8
0
10
69.472160
20
45.367883
30
0.0
11
69.703432
21
46.231004
31
0.0
0
ARC
8
0
10
70.186395
20
46.101595
30
0.0
40
0.500000
50
90.000000
51
165.000000
0
LINE
8
0
10
70.186395
20
46.601595
30
0.0
11
70.475757
21
46.601595
31
0.0
0
ARC
8
0
10
70.475757
20
46.301595
30
0.0
40
0.300000
50
38.682187
51
90.000000
0
ARC
8
0
10
71.100257
20
46.801595
30
0.0
40
0.500000
50
218.682187
51
51.317813
0
ARC
8
0
10
71.600257
20
47.426095
30
0.0
40
0.300000
50
180.000000
51
231.317813
0
LINE
8
0
10
71.300257
20
47.426095
30
0.0
11
71.300257
21
79.201595
31
0.0
0
ARC
8
0
10
70.800257
20
79.201595
30
0.0
40
0.500000
50
360.000000
51
90.000000
0
LINE
8
0
10
70.800257
20
79.701595
30
0.0
11
66.100257
21
79.701595
31
0.0
0
ARC
8
0
10
66.100257
20
80.201595
30
0.0
40
0.500000
50
180.000000
51
270.000000
0
LINE
8
0
10
65.600257
20
80.201595
30
0.0
11
65.600257
21
80.501595
31
0.0
0
ARC
8
0
10
66.100257
20
80.501595
30
0.0
40
0.500000
50
90.000000
51
180.000000
0
LINE
8
0
10
66.100257
20
81.001595
30
0.0
11
70.800257
21
81.001595
31
0.0
0
ARC
8
0
10
70.800257
20
81.501595
30
0.0
40
0.500000
50
270.000000
51
360.000000
0
LINE
8
0
10
71.300257
20
81.501595
30
0.0
11
71.300257
21
85.501595
31
0.0
0
ARC
8
0
10
71.800257
20
85.501595
30
0.0
40
0.500000
50
90.000000
51
180.000000
0
LINE
8
0
10
71.800257
20
86.001595
30
0.0
11
71.900257
21
86.001595
31
0.0
0
ARC
8
0
10
71.900257
20
85.201595
30
0.0
40
0.800000
50
360.000000
51
90.000000
0
LINE
8
0
10
72.700257
20
85.201595
30
0.0
11
72.700257
21
45.801595
31
0.0
0
ARC
8
0
10
72.200257
20
45.801595
30
0.0
40
0.500000
50
270.000000
51
360.000000
0
LINE
8
0
10
72.200257
20
45.301595
30
0.0
11
71.030455
21
45.301595
31
0.0
0
ARC
8
0
10
71.030455
20
45.001595
30
0.0
40
0.300000
50
90.000000
51
165.000000
0
LINE
8
0
10
70.740677
20
45.079241
30
0.0
11
70.492636
21
44.153539
31
0.0
0
ARC
8
0
10
70.009673
20
44.282949
30
0.0
40
0.500000
50
249.537191
51
345.000000
0
LINE
8
0
10
69.834874
20
43.814499
30
0.0
11
65.795377
21
45.321817
31
0.0
0
ARC
8
0
10
65.900257
20
45.602887
30
0.0
40
0.300000
50
180.000000
51
249.537191
0
LINE
8
0
10
65.600257
20
45.602887
30
0.0
11
65.600257
21
46.029827
31
0.0
0
ARC
8
0
10
65.900257
20
46.029827
30
0.0
40
0.300000
50
69.537191
51
180.000000
0
LINE
8
0
10
66.005137
20
46.310897
30
0.0
11
69.077502
21
45.164459
31
0.0
0
ARC
8
0
10
69.182382
20
45.445529
30
0.0
40
0.300000
50
249.537191
51
345.000000
0
ATTDEF
8
0
10
72.700257
20
86.001595
30
0.0
40
3.5
1

3

2
VW_START
70
0
0
ATTDEF
8
0
10
72.700257
20
43.782949
30
0.0
40
3.5
1

3

2
VW_END
70
0
0
LINE
8
0
10
62.300257
20
47.801165
30
0.0
11
62.800257
21
47.801165
31
0.0
0
LINE
8
0
10
62.800257
20
47.801165
30
0.0
11
62.800257
21
58.797647
31
0.0
0
LINE
8
0
10
62.800257
20
58.797647
30
0.0
11
62.300257
21
58.797647
31
0.0
0
LINE
8
0
10
62.300257
20
58.797647
30
0.0
11
62.300257
21
60.797647
31
0.0
0
LINE
8
0
10
62.300257
20
60.797647
30
0.0
11
62.800257
21
60.797647
31
0.0
0
LINE
8
0
10
62.800257
20
60.797647
30
0.0
11
62.800257
21
71.801883
31
0.0
0
LINE
8
0
10
62.800257
20
71.801883
30
0.0
11
62.300257
21
71.801165
31
0.0
0
LINE
8
0
10
62.300257
20
71.801165
30
0.0
11
62.300257
21
73.801165
31
0.0
0
LINE
8
0
10
62.300257
20
73.801165
30
0.0
11
62.800257
21
73.801883
31
0.0
0
LINE
8
0
10
62.800257
20
73.801883
30
0.0
11
62.800257
21
84.801883
31
0.0
0
LINE
8
0
10
62.800257
20
84.801883
30
0.0
11
62.300257
21
84.801165
31
0.0
0
LINE
8
0
10
62.300257
20
84.801165
30
0.0
11
62.300257
21
88.501595
31
0.0
0
ARC
8
0
10
62.600257
20
88.501595
30
0.0
40
0.300000
50
90.000000
51
180.000000
0
LINE
8
0
10
62.599826
20
88.801595
30
0.0
11
130.501157
21
88.801595
31
0.0
0
ARC
8
0
10
130.501157
20
88.301595
30
0.0
40
0.500000
50
360.000000
51
90.000000
0
LINE
8
0
10
131.001157
20
88.301595
30
0.0
11
131.001157
21
74.997662
31
0.0
0
ARC
8
0
10
130.001157
20
74.997662
30
0.0
40
1.000000
50
270.000000
51
360.000000
0
LINE
8
0
10
130.001157
20
73.997662
30
0.0
11
118.101157
21
73.997662
31
0.0
0
ARC
8
0
10
118.101157
20
74.297662
30
0.0
40
0.300000
50
180.000000
51
270.000000
0
LINE
8
0
10
117.801157
20
74.297662
30
0.0
11
117.801157
21
77.597662
31
0.0
0
ARC
8
0
10
117.501157
20
77.597662
30
0.0
40
0.300000
50
360.000000
51
90.000000
0
LINE
8
0
10
117.501157
20
77.897662
30
0.0
11
99.499356
21
77.897662
31
0.0
0
ARC
8
0
10
99.499356
20
77.597662
30
0.0
40
0.300000
50
90.000000
51
180.000000
0
LINE
8
0
10
99.199356
20
77.597662
30
0.0
11
99.199356
21
74.297662
31
0.0
0
ARC
8
0
10
98.899356
20
74.297662
30
0.0
40
0.300000
50
270.000000
51
360.000000
0
LINE
8
0
10
98.899356
20
73.997662
30
0.0
11
86.999356
21
73.997662
31
0.0
0
ARC
8
0
10
86.999356
20
74.997662
30
0.0
40
1.000000
50
180.000000
51
270.000000
0
LINE
8
0
10
85.999356
20
74.997662
30
0.0
11
85.999356
21
84.801595
31
0.0
0
ARC
8
0
10
85.499356
20
84.801595
30
0.0
40
0.500000
50
360.000000
51
90.000000
0
LINE
8
0
10
85.499356
20
85.301595
30
0.0
11
73.300257
21
85.301595
31
0.0
0
ARC
8
0
10
73.300257
20
85.601595
30
0.0
40
0.300000
50
180.000000
51
270.000000
0
LINE
8
0
10
73.000257
20
85.601595
30
0.0
11
73.000257
21
85.800935
31
0.0
0
ARC
8
0
10
72.500257
20
85.800935
30
0.0
40
0.500000
50
360.000000
51
90.000000
0
LINE
8
0
10
72.499597
20
86.300935
30
0.0
11
71.399467
21
86.302384
31
0.0
0
ARC
8
0
10
71.400257
20
85.802384
30
0.0
40
0.500000
50
90.000000
51
180.000000
0
LINE
8
0
10
70.900257
20
85.802384
30
0.0
11
70.900257
21
85.601595
31
0.0
0
ARC
8
0
10
70.600257
20
85.601595
30
0.0
40
0.300000
50
270.000000
51
360.000000
0
LINE
8
0
10
70.600257
20
85.301595
30
0.0
11
67.300257
21
85.301595
31
0.0
0
ARC
8
0
10
67.300257
20
83.301595
30
0.0
40
2.000000
50
90.000000
51
180.000000
0
LINE
8
0
10
65.300257
20
83.301595
30
0.0
11
65.300257
21
69.451200
31
0.0
0
LINE
8
0
10
65.300257
20
69.451200
30
0.0
11
64.946703
21
69.097647
31
0.0
0
LINE
8
0
10
64.946703
20
69.097647
30
0.0
11
65.300257
21
68.744093
31
0.0
0
LINE
8
0
10
65.300257
20
68.744093
30
0.0
11
65.300257
21
53.151200
31
0.0
0
LINE
8
0
10
65.300257
20
53.151200
30
0.0
11
64.946703
21
52.797647
31
0.0
0
LINE
8
0
10
64.946703
20
52.797647
30
0.0
11
65.300257
21
52.444093
31
0.0
0
LINE
8
0
10
65.300257
20
52.444093
30
0.0
11
65.300257
21
44.301165
31
0.0
0
ARC
8
0
10
64.800257
20
44.301165
30
0.0
40
0.500000
50
270.000000
51
360.000000
0
LINE
8
0
10
64.800257
20
43.801165
30
0.0
11
62.800257
21
43.801165
31
0.0
0
ARC
8
0
10
62.800257
20
44.301165
30
0.0
40
0.500000
50
180.000000
51
270.000000
0
LINE
8
0
10
62.300257
20
44.301165
30
0.0
11
62.300257
21
47.801165
31
0.0
0
LINE
8
0
10
109.377075
20
79.563565
30
0.0
11
109.267473
21
79.842827
31
0.0
0
ARC
8
0
10
108.500257
20
81.797662
30
0.0
40
2.100000
50
291.428571
51
334.285714
0
LINE
8
0
10
110.392291
20
80.886506
30
0.0
11
110.662582
21
80.756341
31
0.0
0
ARC
8
0
10
108.500257
20
81.797662
30
0.0
40
2.400000
50
334.285714
51
17.142857
0
LINE
8
0
10
110.793631
20
82.505074
30
0.0
11
110.506960
21
82.416648
31
0.0
0
ARC
8
0
10
108.500257
20
81.797662
30
0.0
40
2.100000
50
17.142857
51
48.912511
0
ARC
8
0
10
110.209004
20
83.757300
30
0.0
40
0.500000
50
150.000000
51
228.912511
0
LINE
8
0
10
109.775992
20
84.007300
30
0.0
11
109.791930
21
84.034905
31
0.0
0
ARC
8
0
10
110.224942
20
83.784905
30
0.0
40
0.500000
50
90.000000
51
150.000000
0
LINE
8
0
10
110.224942
20
84.284905
30
0.0
11
110.753722
21
84.284905
31
0.0
0
ARC
8
0
10
110.753722
20
83.284905
30
0.0
40
1.000000
50
33.424027
51
90.000000
0
ARC
8
0
10
108.500257
20
81.797662
30
0.0
40
3.700000
50
333.103454
51
33.424027
0
ARC
8
0
10
112.245921
20
79.897662
30
0.0
40
0.500000
50
153.103454
51
270.000000
0
LINE
8
0
10
112.245921
20
79.397662
30
0.0
11
118.801157
21
79.397662
31
0.0
0
ARC
8
0
10
118.801157
20
78.897662
30
0.0
40
0.500000
50
360.000000
51
90.000000
0
LINE
8
0
10
119.301157
20
78.897662
30
0.0
11
119.301157
21
75.997662
31
0.0
0
ARC
8
0
10
119.801157
20
75.997662
30
0.0
40
0.500000
50
180.000000
51
270.000000
0
LINE
8
0
10
119.801157
20
75.497662
30
0.0
11
128.201157
21
75.497662
31
0.0
0
ARC
8
0
10
128.201157
20
75.797662
30
0.0
40
0.300000
50
270.000000
51
360.000000
0
LINE
8
0
10
128.501157
20
75.797662
30
0.0
11
128.501157
21
84.887381
31
0.0
0
ARC
8
0
10
127.501157
20
84.887381
30
0.0
40
1.000000
50
360.000000
51
45.000000
0
LINE
8
0
10
128.208264
20
85.594488
30
0.0
11
126.794050
21
87.008702
31
0.0
0
ARC
8
0
10
126.086943
20
86.301595
30
0.0
40
1.000000
50
45.000000
51
90.000000
0
LINE
8
0
10
126.086943
20
87.301595
30
0.0
11
90.913570
21
87.301595
31
0.0
0
ARC
8
0
10
90.913570
20
86.301595
30
0.0
40
1.000000
50
90.000000
51
135.000000
0
LINE
8
0
10
90.206463
20
87.008702
30
0.0
11
88.792250
21
85.594488
31
0.0
0
ARC
8
0
10
89.499356
20
84.887381
30
0.0
40
1.000000
50
135.000000
51
180.000000
0
LINE
8
0
10
88.499356
20
84.887381
30
0.0
11
88.499356
21
75.797662
31
0.0
0
ARC
8
0
10
88.799356
20
75.797662
30
0.0
40
0.300000
50
180.000000
51
270.000000
0
LINE
8
0
10
88.799356
20
75.497662
30
0.0
11
97.199356
21
75.497662
31
0.0
0
ARC
8
0
10
97.199356
20
75.997662
30
0.0
40
0.500000
50
270.000000
51
360.000000
0
LINE
8
0
10
97.699356
20
75.997662
30
0.0
11
97.699356
21
78.897662
31
0.0
0
ARC
8
0
10
98.199356
20
78.897662
30
0.0
40
0.500000
50
90.000000
51
180.000000
0
LINE
8
0
10
98.199356
20
79.397662
30
0.0
11
104.754592
21
79.397662
31
0.0
0
ARC
8
0
10
104.754592
20
79.897662
30
0.0
40
0.500000
50
270.000000
51
26.896546
0
ARC
8
0
10
108.500257
20
81.797662
30
0.0
40
3.700000
50
146.575973
51
206.896546
0
ARC
8
0
10
106.246791
20
83.284905
30
0.0
40
1.000000
50
90.000000
51
146.575973
0
LINE
8
0
10
106.246791
20
84.284905
30
0.0
11
106.775571
21
84.284905
31
0.0
0
ARC
8
0
10
106.775571
20
83.784905
30
0.0
40
0.500000
50
30.000000
51
90.000000
0
LINE
8
0
10
107.208584
20
84.034905
30
0.0
11
107.224522
21
84.007300
31
0.0
0
ARC
8
0
10
106.791509
20
83.757300
30
0.0
40
0.500000
50
311.087489
51
30.000000
0
ARC
8
0
10
108.500257
20
81.797662
30
0.0
40
2.100000
50
131.087489
51
162.857143
0
LINE
8
0
10
106.493554
20
82.416648
30
0.0
11
106.206882
21
82.505074
31
0.0
0
ARC
8
0
10
108.500257
20
81.797662
30
0.0
40
2.400000
50
162.857143
51
205.714286
0
LINE
8
0
10
106.337931
20
80.756341
30
0.0
11
106.608222
21
80.886506
31
0.0
0
ARC
8
0
10
108.500257
20
81.797662
30
0.0
40
2.100000
50
205.714286
51
248.571429
0
LINE
8
0
10
107.733040
20
79.842827
30
0.0
11
107.623438
21
79.563565
31
0.0
0
ARC
8
0
10
108.500257
20
81.797662
30
0.0
40
2.400000
50
248.571429
51
291.428571
0
ATTDEF
8
0
10
0.000000
20
0.000000
30
0.0
40
3.5
1

3

2
DENS:0.000000
70
0
0
ATTDEF
8
0
10
0.000000
20
0.000000
30
0.0
40
3.5
1

3

2
GLASS_MIN:0.000000
70
0
0
ATTDEF
8
0
10
0.000000
20
0.000000
30
0.0
40
3.5
1

3

2
GLASS_MAX:0.000000
70
0
0
ATTDEF
8
0
10
0.000000
20
0.000000
30
0.0
40
3.5
1

3

2
DESC:U10600 - N10906 - V31013 - N10911 - N10602
70
0
0
ATTDEF
8
0
10
0.000000
20
0.000000
30
0.0
40
3.5
1

3

2
BL01:6500.000000,,1
70
0
0
ATTDEF
8
0
10
0.000000
20
0.000000
30
0.0
40
3.5
1

3

2
HW_START
70
0
0
ATTDEF
8
0
10
131.001157
20
88.801595
30
0.0
40
3.5
1

3

2
HW_END
70
0
0
ATTDEF
8
0
10
1.924722
20
70.801595
30
0.0
40
3.5
1

3

2
VC_START
70
0
0
ATTDEF
8
0
10
1.924722
20
24.801595
30
0.0
40
3.5
1

3

2
VC_END
70
0
0
ATTDEF
8
0
10
0.000000
20
0.000000
30
0.0
40
3.5
1

3

2
FP_LCS_ORIG
70
0
0
ATTDEF
8
0
10
10.000000
20
0.000000
30
0.0
40
3.5
1

3

2
FP_LCS_HOT
70
0
0
ATTDEF
8
0
10
0.000000
20
10.000000
30
0.0
40
3.5
1

3

2
FP_LCS_INTERN
70
0
0
ATTDEF
8
0
10
0.000000
20
0.000000
30
0.0
40
3.5
1

3

2
PANE_WIDTH:57.500000
70
0
0
ENDSEC
0
EOF
