0
SECTION
2
ENTITIES
0
ARC
8
0
10
28.377257
20
261.061642
30
0.0
40
0.700000
50
270.000000
51
360.000000
0
ARC
8
0
10
28.377257
20
260.661642
30
0.0
40
0.300000
50
180.000000
51
270.000000
0
LINE
8
0
10
28.077257
20
260.661642
30
0.0
11
28.077257
21
261.361642
31
0.0
0
ARC
8
0
10
27.777257
20
261.361642
30
0.0
40
0.300000
50
360.000000
51
90.000000
0
LINE
8
0
10
27.777257
20
261.661642
30
0.0
11
26.577257
21
261.661642
31
0.0
0
ARC
8
0
10
26.577257
20
260.961642
30
0.0
40
0.700000
50
90.000000
51
180.000000
0
LINE
8
0
10
25.877257
20
260.961642
30
0.0
11
25.877257
21
254.761642
31
0.0
0
ARC
8
0
10
26.577257
20
254.761642
30
0.0
40
0.700000
50
180.000000
51
270.000000
0
LINE
8
0
10
26.577257
20
254.061642
30
0.0
11
27.777257
21
254.061642
31
0.0
0
ARC
8
0
10
27.777257
20
254.361642
30
0.0
40
0.300000
50
270.000000
51
360.000000
0
LINE
8
0
10
28.077257
20
254.361642
30
0.0
11
28.077257
21
255.061642
31
0.0
0
ARC
8
0
10
28.377257
20
255.061642
30
0.0
40
0.300000
50
90.000000
51
180.000000
0
ARC
8
0
10
28.377257
20
254.661642
30
0.0
40
0.700000
50
360.000000
51
90.000000
0
LINE
8
0
10
29.077257
20
254.661642
30
0.0
11
29.077257
21
251.661642
31
0.0
0
ARC
8
0
10
28.777257
20
251.661642
30
0.0
40
0.300000
50
270.000000
51
360.000000
0
LINE
8
0
10
28.777257
20
251.361642
30
0.0
11
28.377257
21
251.361642
31
0.0
0
ARC
8
0
10
28.377257
20
251.661642
30
0.0
40
0.300000
50
180.000000
51
270.000000
0
LINE
8
0
10
28.077257
20
251.661642
30
0.0
11
28.077257
21
252.561642
31
0.0
0
ARC
8
0
10
27.777257
20
252.561642
30
0.0
40
0.300000
50
360.000000
51
90.000000
0
LINE
8
0
10
27.777257
20
252.861642
30
0.0
11
26.377257
21
252.861642
31
0.0
0
ARC
8
0
10
26.377257
20
252.561642
30
0.0
40
0.300000
50
90.000000
51
180.000000
0
LINE
8
0
10
26.077257
20
252.561642
30
0.0
11
26.077257
21
238.361880
31
0.0
0
ARC
8
0
10
27.077257
20
238.361880
30
0.0
40
1.000000
50
180.000000
51
270.000000
0
LINE
8
0
10
27.077257
20
237.361880
30
0.0
11
29.377514
21
237.361880
31
0.0
0
ARC
8
0
10
29.377514
20
238.361880
30
0.0
40
1.000000
50
270.000000
51
360.000000
0
LINE
8
0
10
30.377514
20
238.361880
30
0.0
11
30.377514
21
239.361889
31
0.0
0
ARC
8
0
10
30.877514
20
239.361889
30
0.0
40
0.500000
50
90.000000
51
180.000000
0
LINE
8
0
10
30.877505
20
239.861889
30
0.0
11
32.145445
21
239.861912
31
0.0
0
ARC
8
0
10
32.145451
20
239.561912
30
0.0
40
0.300000
50
70.221829
51
90.000000
0
LINE
8
0
10
32.246965
20
239.844215
30
0.0
11
33.548831
21
239.376074
31
0.0
0
ARC
8
0
10
33.628350
20
239.597212
30
0.0
40
0.235000
50
250.221829
51
336.000000
0
ARC
8
0
10
34.064285
20
239.420798
30
0.0
40
0.235000
50
90.000000
51
156.000000
0
LINE
8
0
10
34.062729
20
239.655793
30
0.0
11
35.641657
21
239.666250
31
0.0
0
ARC
8
0
10
35.643644
20
239.366257
30
0.0
40
0.300000
50
335.379459
51
90.000000
0
LINE
8
0
10
35.916370
20
239.241275
30
0.0
11
34.967720
21
237.135759
31
0.0
0
ARC
8
0
10
34.694200
20
237.258995
30
0.0
40
0.300000
50
295.379459
51
335.745828
0
LINE
8
0
10
34.822784
20
236.987948
30
0.0
11
34.315361
21
236.747229
31
0.0
0
ARC
8
0
10
34.229638
20
236.927927
30
0.0
40
0.200000
50
175.379459
51
295.379459
0
LINE
8
0
10
34.030288
20
236.944038
30
0.0
11
34.039590
21
237.059133
31
0.0
0
ARC
8
0
10
33.740565
20
237.083300
30
0.0
40
0.300000
50
355.379459
51
55.379459
0
LINE
8
0
10
33.911007
20
237.330180
30
0.0
11
32.282250
21
238.454646
31
0.0
0
LINE
8
0
10
32.282250
20
238.454646
30
0.0
11
32.099541
21
238.535993
31
0.0
0
ARC
8
0
10
31.977539
20
238.261911
30
0.0
40
0.300009
50
66.004713
51
228.187329
0
ARC
8
0
10
31.577514
20
237.814706
30
0.0
40
0.300000
50
360.000000
51
48.187329
0
LINE
8
0
10
31.877514
20
237.814706
30
0.0
11
31.877514
21
233.961920
31
0.0
0
ARC
8
0
10
32.177514
20
233.961920
30
0.0
40
0.300000
50
180.000000
51
270.000000
0
LINE
8
0
10
32.177514
20
233.661920
30
0.0
11
32.398708
21
233.661920
31
0.0
0
ARC
8
0
10
32.398708
20
233.961920
30
0.0
40
0.300000
50
270.000000
51
301.400000
0
LINE
8
0
10
32.555011
20
233.705855
30
0.0
11
34.073312
21
234.632630
31
0.0
0
ARC
8
0
10
34.177514
20
234.461920
30
0.0
40
0.200000
50
360.000000
51
121.400000
0
LINE
8
0
10
34.377514
20
234.461920
30
0.0
11
34.377514
21
233.036337
31
0.0
0
ARC
8
0
10
33.377514
20
233.036337
30
0.0
40
1.000000
50
301.400000
51
360.000000
0
LINE
8
0
10
33.898524
20
232.182786
30
0.0
11
33.756505
21
232.096097
31
0.0
0
ARC
8
0
10
34.277514
20
231.242546
30
0.0
40
1.000000
50
121.400000
51
180.000000
0
LINE
8
0
10
33.277514
20
231.242546
30
0.0
11
33.277514
21
225.656376
31
0.0
0
ARC
8
0
10
33.777514
20
225.656376
30
0.0
40
0.500000
50
180.000000
51
256.657636
0
ARC
8
0
10
32.877514
20
221.861642
30
0.0
40
3.400000
50
58.852610
51
76.657636
0
ARC
8
0
10
34.377514
20
224.343577
30
0.0
40
0.500000
50
360.000000
51
58.852610
0
LINE
8
0
10
34.877514
20
224.343577
30
0.0
11
34.877514
21
223.589252
31
0.0
0
ARC
8
0
10
34.577514
20
223.589252
30
0.0
40
0.300000
50
300.000000
51
360.000000
0
LINE
8
0
10
34.727514
20
223.329444
30
0.0
11
34.434860
21
223.160481
31
0.0
0
ARC
8
0
10
34.284860
20
223.420288
30
0.0
40
0.300000
50
227.920213
51
300.000000
0
ARC
8
0
10
32.877514
20
221.861642
30
0.0
40
1.800000
50
47.920213
51
72.857143
0
LINE
8
0
10
33.408074
20
223.581673
30
0.0
11
33.496500
21
223.868345
31
0.0
0
ARC
8
0
10
32.877514
20
221.861642
30
0.0
40
2.100000
50
72.857143
51
115.714286
0
LINE
8
0
10
31.966358
20
223.753677
30
0.0
11
32.096524
21
223.483386
31
0.0
0
ARC
8
0
10
32.877514
20
221.861642
30
0.0
40
1.800000
50
115.714286
51
158.571429
0
LINE
8
0
10
31.201942
20
222.519256
30
0.0
11
30.922679
21
222.628858
31
0.0
0
ARC
8
0
10
32.877514
20
221.861642
30
0.0
40
2.100000
50
158.571429
51
201.428571
0
LINE
8
0
10
30.922679
20
221.094426
30
0.0
11
31.201942
21
221.204028
31
0.0
0
ARC
8
0
10
32.877514
20
221.861642
30
0.0
40
1.800000
50
201.428571
51
244.285714
0
LINE
8
0
10
32.096524
20
220.239898
30
0.0
11
31.966358
21
219.969608
31
0.0
0
ARC
8
0
10
32.877514
20
221.861642
30
0.0
40
2.100000
50
244.285714
51
287.142857
0
LINE
8
0
10
33.496500
20
219.854939
30
0.0
11
33.408074
21
220.141611
31
0.0
0
ARC
8
0
10
32.877514
20
221.861642
30
0.0
40
1.800000
50
287.142857
51
312.079787
0
ARC
8
0
10
34.284860
20
220.302996
30
0.0
40
0.300000
50
60.000000
51
132.079787
0
LINE
8
0
10
34.434860
20
220.562804
30
0.0
11
34.727514
21
220.393840
31
0.0
0
ARC
8
0
10
34.577514
20
220.134033
30
0.0
40
0.300000
50
360.000000
51
60.000000
0
LINE
8
0
10
34.877514
20
220.134033
30
0.0
11
34.877514
21
219.379708
31
0.0
0
ARC
8
0
10
34.377514
20
219.379708
30
0.0
40
0.500000
50
301.147390
51
360.000000
0
ARC
8
0
10
32.877514
20
221.861642
30
0.0
40
3.400000
50
283.342364
51
301.147390
0
ARC
8
0
10
33.777514
20
218.066909
30
0.0
40
0.500000
50
103.342364
51
180.000000
0
LINE
8
0
10
33.277514
20
218.066909
30
0.0
11
33.277514
21
212.480738
31
0.0
0
ARC
8
0
10
34.277514
20
212.480738
30
0.0
40
1.000000
50
180.000000
51
238.600000
0
LINE
8
0
10
33.756505
20
211.627188
30
0.0
11
33.898524
21
211.540499
31
0.0
0
ARC
8
0
10
33.377514
20
210.686948
30
0.0
40
1.000000
50
360.000000
51
58.600000
0
LINE
8
0
10
34.377514
20
210.686948
30
0.0
11
34.377514
21
209.261365
31
0.0
0
ARC
8
0
10
34.177514
20
209.261365
30
0.0
40
0.200000
50
238.600000
51
360.000000
0
LINE
8
0
10
34.073312
20
209.090654
30
0.0
11
32.555011
21
210.017430
31
0.0
0
ARC
8
0
10
32.398708
20
209.761365
30
0.0
40
0.300000
50
58.600000
51
90.000000
0
LINE
8
0
10
32.398708
20
210.061365
30
0.0
11
32.177514
21
210.061365
31
0.0
0
ARC
8
0
10
32.177514
20
209.761365
30
0.0
40
0.300000
50
90.000000
51
180.000000
0
LINE
8
0
10
31.877514
20
209.761365
30
0.0
11
31.877514
21
205.908578
31
0.0
0
ARC
8
0
10
31.577514
20
205.908578
30
0.0
40
0.300000
50
311.812671
51
360.000000
0
ARC
8
0
10
31.977539
20
205.461374
30
0.0
40
0.300009
50
131.812671
51
293.995287
0
LINE
8
0
10
32.099541
20
205.187292
30
0.0
11
32.282250
21
205.268639
31
0.0
0
LINE
8
0
10
32.282250
20
205.268639
30
0.0
11
33.911007
21
206.393105
31
0.0
0
ARC
8
0
10
33.740565
20
206.639985
30
0.0
40
0.300000
50
304.620541
51
4.620541
0
LINE
8
0
10
34.039590
20
206.664152
30
0.0
11
34.030288
21
206.779247
31
0.0
0
ARC
8
0
10
34.229638
20
206.795358
30
0.0
40
0.200000
50
64.620541
51
184.620541
0
LINE
8
0
10
34.315361
20
206.976056
30
0.0
11
34.822784
21
206.735336
31
0.0
0
ARC
8
0
10
34.694200
20
206.464290
30
0.0
40
0.300000
50
24.254172
51
64.620541
0
LINE
8
0
10
34.967720
20
206.587525
30
0.0
11
35.916370
21
204.482010
31
0.0
0
ARC
8
0
10
35.643644
20
204.357028
30
0.0
40
0.300000
50
270.000000
51
24.620541
0
LINE
8
0
10
35.641657
20
204.057035
30
0.0
11
34.062729
21
204.067492
31
0.0
0
ARC
8
0
10
34.064285
20
204.302487
30
0.0
40
0.235000
50
204.000000
51
270.000000
0
ARC
8
0
10
33.628350
20
204.126073
30
0.0
40
0.235000
50
24.000000
51
109.778171
0
LINE
8
0
10
33.548831
20
204.347210
30
0.0
11
32.246965
21
203.879070
31
0.0
0
ARC
8
0
10
32.145451
20
204.161373
30
0.0
40
0.300000
50
270.000000
51
289.778171
0
LINE
8
0
10
32.145445
20
203.861373
30
0.0
11
30.877505
21
203.861395
31
0.0
0
ARC
8
0
10
30.877514
20
204.361395
30
0.0
40
0.500000
50
180.000000
51
270.000000
0
LINE
8
0
10
30.377514
20
204.361395
30
0.0
11
30.377514
21
205.361404
31
0.0
0
ARC
8
0
10
29.377514
20
205.361404
30
0.0
40
1.000000
50
360.000000
51
90.000000
0
LINE
8
0
10
29.377514
20
206.361404
30
0.0
11
27.077257
21
206.361404
31
0.0
0
ARC
8
0
10
27.077257
20
205.361404
30
0.0
40
1.000000
50
90.000000
51
180.000000
0
LINE
8
0
10
26.077257
20
205.361404
30
0.0
11
26.077257
21
191.161642
31
0.0
0
ARC
8
0
10
26.377257
20
191.161642
30
0.0
40
0.300000
50
180.000000
51
270.000000
0
LINE
8
0
10
26.377257
20
190.861642
30
0.0
11
27.777257
21
190.861642
31
0.0
0
ARC
8
0
10
27.777257
20
191.161642
30
0.0
40
0.300000
50
270.000000
51
360.000000
0
LINE
8
0
10
28.077257
20
191.161642
30
0.0
11
28.077257
21
192.061642
31
0.0
0
ARC
8
0
10
28.377257
20
192.061642
30
0.0
40
0.300000
50
90.000000
51
180.000000
0
LINE
8
0
10
28.377257
20
192.361642
30
0.0
11
28.777257
21
192.361642
31
0.0
0
ARC
8
0
10
28.777257
20
192.061642
30
0.0
40
0.300000
50
360.000000
51
90.000000
0
LINE
8
0
10
29.077257
20
192.061642
30
0.0
11
29.077257
21
189.061642
31
0.0
0
ARC
8
0
10
28.377257
20
189.061642
30
0.0
40
0.700000
50
270.000000
51
360.000000
0
ARC
8
0
10
28.377257
20
188.661642
30
0.0
40
0.300000
50
180.000000
51
270.000000
0
LINE
8
0
10
28.077257
20
188.661642
30
0.0
11
28.077257
21
189.361642
31
0.0
0
ARC
8
0
10
27.777257
20
189.361642
30
0.0
40
0.300000
50
360.000000
51
90.000000
0
LINE
8
0
10
27.777257
20
189.661642
30
0.0
11
26.577257
21
189.661642
31
0.0
0
ARC
8
0
10
26.577257
20
188.961642
30
0.0
40
0.700000
50
90.000000
51
180.000000
0
LINE
8
0
10
25.877257
20
188.961642
30
0.0
11
25.877257
21
182.761642
31
0.0
0
ARC
8
0
10
26.577257
20
182.761642
30
0.0
40
0.700000
50
180.000000
51
270.000000
0
LINE
8
0
10
26.577257
20
182.061642
30
0.0
11
27.777257
21
182.061642
31
0.0
0
ARC
8
0
10
27.777257
20
182.361642
30
0.0
40
0.300000
50
270.000000
51
360.000000
0
LINE
8
0
10
28.077257
20
182.361642
30
0.0
11
28.077257
21
183.061642
31
0.0
0
ARC
8
0
10
28.377257
20
183.061642
30
0.0
40
0.300000
50
90.000000
51
180.000000
0
ARC
8
0
10
28.377257
20
182.661642
30
0.0
40
0.700000
50
360.000000
51
90.000000
0
LINE
8
0
10
29.077257
20
182.661642
30
0.0
11
29.077257
21
181.161642
31
0.0
0
ARC
8
0
10
28.777257
20
181.161642
30
0.0
40
0.300000
50
270.000000
51
360.000000
0
LINE
8
0
10
28.777257
20
180.861642
30
0.0
11
24.877257
21
180.861642
31
0.0
0
ARC
8
0
10
24.877257
20
181.161642
30
0.0
40
0.300000
50
180.000000
51
270.000000
0
LINE
8
0
10
24.577257
20
181.161642
30
0.0
11
24.577257
21
262.561642
31
0.0
0
ARC
8
0
10
24.877257
20
262.561642
30
0.0
40
0.300000
50
90.000000
51
180.000000
0
LINE
8
0
10
24.877257
20
262.861642
30
0.0
11
28.777257
21
262.861642
31
0.0
0
ARC
8
0
10
28.777257
20
262.561642
30
0.0
40
0.300000
50
360.000000
51
90.000000
0
LINE
8
0
10
29.077257
20
262.561642
30
0.0
11
29.077257
21
261.061642
31
0.0
0
LINE
8
0
10
30.377514
20
208.961365
30
0.0
11
30.377514
21
210.345598
31
0.0
0
ARC
8
0
10
30.877514
20
210.345598
30
0.0
40
0.500000
50
145.000000
51
180.000000
0
LINE
8
0
10
30.467938
20
210.632386
30
0.0
11
31.587090
21
212.230701
31
0.0
0
ARC
8
0
10
31.177514
20
212.517489
30
0.0
40
0.500000
50
325.000000
51
360.000000
0
LINE
8
0
10
31.677514
20
212.517489
30
0.0
11
31.677514
21
218.351657
31
0.0
0
ARC
8
0
10
31.177514
20
218.351657
30
0.0
40
0.500000
50
360.000000
51
64.157587
0
ARC
8
0
10
32.877514
20
221.861642
30
0.0
40
3.400000
50
115.842413
51
244.157587
0
ARC
8
0
10
31.177514
20
225.371628
30
0.0
40
0.500000
50
295.842413
51
360.000000
0
LINE
8
0
10
31.677514
20
225.371628
30
0.0
11
31.677514
21
231.205796
31
0.0
0
ARC
8
0
10
31.177514
20
231.205796
30
0.0
40
0.500000
50
360.000000
51
35.000000
0
LINE
8
0
10
31.587090
20
231.492584
30
0.0
11
30.467938
21
233.090899
31
0.0
0
ARC
8
0
10
30.877514
20
233.377687
30
0.0
40
0.500000
50
180.000000
51
215.000000
0
LINE
8
0
10
30.377514
20
233.377687
30
0.0
11
30.377514
21
234.761863
31
0.0
0
ARC
8
0
10
29.377514
20
234.761863
30
0.0
40
1.000000
50
360.000000
51
90.000000
0
LINE
8
0
10
29.377514
20
235.761863
30
0.0
11
27.077257
21
235.761863
31
0.0
0
ARC
8
0
10
27.077257
20
234.761863
30
0.0
40
1.000000
50
90.000000
51
180.000000
0
LINE
8
0
10
26.077257
20
234.761863
30
0.0
11
26.077257
21
208.961422
31
0.0
0
ARC
8
0
10
27.077257
20
208.961422
30
0.0
40
1.000000
50
180.000000
51
270.000000
0
LINE
8
0
10
27.077257
20
207.961422
30
0.0
11
29.377514
21
207.961422
31
0.0
0
ARC
8
0
10
29.377514
20
208.961422
30
0.0
40
1.000000
50
270.000000
51
360.000000
0
ARC
8
0
10
77.877772
20
235.861642
30
0.0
40
2.100000
50
111.428571
51
154.285714
0
LINE
8
0
10
75.985737
20
236.772798
30
0.0
11
75.715447
21
236.902963
31
0.0
0
ARC
8
0
10
77.877772
20
235.861642
30
0.0
40
2.400000
50
154.285714
51
197.142857
0
LINE
8
0
10
75.584397
20
235.154230
30
0.0
11
75.871069
21
235.242656
31
0.0
0
ARC
8
0
10
77.877772
20
235.861642
30
0.0
40
2.100000
50
197.142857
51
228.912511
0
ARC
8
0
10
76.169024
20
233.902004
30
0.0
40
0.500000
50
330.000000
51
48.912511
0
LINE
8
0
10
76.602037
20
233.652004
30
0.0
11
76.297424
21
233.124399
31
0.0
0
ARC
8
0
10
75.864411
20
233.374399
30
0.0
40
0.500000
50
231.010701
51
330.000000
0
ARC
8
0
10
77.877772
20
235.861642
30
0.0
40
3.700000
50
153.103454
51
231.010701
0
ARC
8
0
10
74.132108
20
237.761642
30
0.0
40
0.500000
50
333.103454
51
90.000000
0
LINE
8
0
10
74.132108
20
238.261642
30
0.0
11
70.727514
21
238.261642
31
0.0
0
ARC
8
0
10
70.727514
20
237.911642
30
0.0
40
0.350000
50
90.000000
51
180.000000
0
LINE
8
0
10
70.377514
20
237.911642
30
0.0
11
70.377514
21
205.811642
31
0.0
0
ARC
8
0
10
70.727514
20
205.811642
30
0.0
40
0.350000
50
180.000000
51
270.000000
0
LINE
8
0
10
70.727514
20
205.461642
30
0.0
11
74.132108
21
205.461642
31
0.0
0
ARC
8
0
10
74.132108
20
205.961642
30
0.0
40
0.500000
50
270.000000
51
26.896546
0
ARC
8
0
10
77.877772
20
207.861642
30
0.0
40
3.700000
50
128.989299
51
206.896546
0
ARC
8
0
10
75.864411
20
210.348885
30
0.0
40
0.500000
50
30.000000
51
128.989299
0
LINE
8
0
10
76.297424
20
210.598885
30
0.0
11
76.602037
21
210.071280
31
0.0
0
ARC
8
0
10
76.169024
20
209.821280
30
0.0
40
0.500000
50
311.087489
51
30.000000
0
ARC
8
0
10
77.877772
20
207.861642
30
0.0
40
2.100000
50
131.087489
51
162.857143
0
LINE
8
0
10
75.871069
20
208.480628
30
0.0
11
75.584397
21
208.569055
31
0.0
0
ARC
8
0
10
77.877772
20
207.861642
30
0.0
40
2.400000
50
162.857143
51
205.714286
0
LINE
8
0
10
75.715447
20
206.820321
30
0.0
11
75.985737
21
206.950486
31
0.0
0
ARC
8
0
10
77.877772
20
207.861642
30
0.0
40
2.100000
50
205.714286
51
248.571429
0
LINE
8
0
10
77.110556
20
205.906807
30
0.0
11
77.000954
21
205.627545
31
0.0
0
ARC
8
0
10
77.877772
20
207.861642
30
0.0
40
2.400000
50
248.571429
51
291.428571
0
LINE
8
0
10
78.754590
20
205.627545
30
0.0
11
78.644988
21
205.906807
31
0.0
0
ARC
8
0
10
77.877772
20
207.861642
30
0.0
40
2.100000
50
291.428571
51
334.285714
0
LINE
8
0
10
79.769807
20
206.950486
30
0.0
11
80.040097
21
206.820321
31
0.0
0
ARC
8
0
10
77.877772
20
207.861642
30
0.0
40
2.400000
50
334.285714
51
17.142857
0
LINE
8
0
10
80.171147
20
208.569055
30
0.0
11
79.884475
21
208.480628
31
0.0
0
ARC
8
0
10
77.877772
20
207.861642
30
0.0
40
2.100000
50
17.142857
51
48.912511
0
ARC
8
0
10
79.586520
20
209.821280
30
0.0
40
0.500000
50
150.000000
51
228.912511
0
LINE
8
0
10
79.153507
20
210.071280
30
0.0
11
79.458120
21
210.598885
31
0.0
0
ARC
8
0
10
79.891133
20
210.348885
30
0.0
40
0.500000
50
51.010701
51
150.000000
0
ARC
8
0
10
77.877772
20
207.861642
30
0.0
40
3.700000
50
333.103454
51
51.010701
0
ARC
8
0
10
81.623436
20
205.961642
30
0.0
40
0.500000
50
153.103454
51
270.000000
0
LINE
8
0
10
81.623436
20
205.461642
30
0.0
11
85.027514
21
205.461642
31
0.0
0
ARC
8
0
10
85.027514
20
205.811642
30
0.0
40
0.350000
50
270.000000
51
360.000000
0
LINE
8
0
10
85.377514
20
205.811642
30
0.0
11
85.377514
21
237.911642
31
0.0
0
ARC
8
0
10
85.027514
20
237.911642
30
0.0
40
0.350000
50
360.000000
51
90.000000
0
LINE
8
0
10
85.027514
20
238.261642
30
0.0
11
81.623436
21
238.261642
31
0.0
0
ARC
8
0
10
81.623436
20
237.761642
30
0.0
40
0.500000
50
90.000000
51
206.896546
0
ARC
8
0
10
77.877772
20
235.861642
30
0.0
40
3.700000
50
308.989299
51
26.896546
0
ARC
8
0
10
79.891133
20
233.374399
30
0.0
40
0.500000
50
210.000000
51
308.989299
0
LINE
8
0
10
79.458120
20
233.124399
30
0.0
11
79.153507
21
233.652004
31
0.0
0
ARC
8
0
10
79.586520
20
233.902004
30
0.0
40
0.500000
50
131.087489
51
210.000000
0
ARC
8
0
10
77.877772
20
235.861642
30
0.0
40
2.100000
50
311.087489
51
342.857143
0
LINE
8
0
10
79.884475
20
235.242656
30
0.0
11
80.171147
21
235.154230
31
0.0
0
ARC
8
0
10
77.877772
20
235.861642
30
0.0
40
2.400000
50
342.857143
51
25.714286
0
LINE
8
0
10
80.040097
20
236.902963
30
0.0
11
79.769807
21
236.772798
31
0.0
0
ARC
8
0
10
77.877772
20
235.861642
30
0.0
40
2.100000
50
25.714286
51
68.571429
0
LINE
8
0
10
78.644988
20
237.816477
30
0.0
11
78.754590
21
238.095739
31
0.0
0
ARC
8
0
10
77.877772
20
235.861642
30
0.0
40
2.400000
50
68.571429
51
111.428571
0
LINE
8
0
10
77.000954
20
238.095739
30
0.0
11
77.110556
21
237.816477
31
0.0
0
LINE
8
0
10
66.677514
20
234.635402
30
0.0
11
68.207899
21
233.701834
31
0.0
0
ARC
8
0
10
68.357899
20
233.961641
30
0.0
40
0.300000
50
240.000000
51
270.000000
0
LINE
8
0
10
68.357899
20
233.661641
30
0.0
11
68.577514
21
233.661641
31
0.0
0
ARC
8
0
10
68.577514
20
233.961641
30
0.0
40
0.300000
50
270.000000
51
360.000000
0
LINE
8
0
10
68.877514
20
233.961641
30
0.0
11
68.877514
21
237.995956
31
0.0
0
ARC
8
0
10
68.777514
20
238.278799
30
0.0
40
0.300000
50
289.471221
51
70.528779
0
LINE
8
0
10
68.877514
20
238.561641
30
0.0
11
68.839233
21
238.561641
31
0.0
0
ARC
8
0
10
68.839233
20
237.961641
30
0.0
40
0.600000
50
90.000000
51
122.401721
0
LINE
8
0
10
68.517721
20
238.468228
30
0.0
11
66.809624
21
237.384165
31
0.0
0
LINE
8
0
10
66.809624
20
237.384165
30
0.0
11
66.821721
21
237.095744
31
0.0
0
ARC
8
0
10
66.621897
20
237.087363
30
0.0
40
0.200000
50
242.401721
51
360.000000
0
LINE
8
0
10
66.529243
20
236.910119
30
0.0
11
66.248173
21
237.057048
31
0.0
0
ARC
8
0
10
66.618788
20
237.766022
30
0.0
40
0.800000
50
197.401721
51
242.401721
0
LINE
8
0
10
65.855403
20
237.526767
30
0.0
11
65.253439
21
239.447436
31
0.0
0
ARC
8
0
10
65.539708
20
239.537156
30
0.0
40
0.300000
50
90.000000
51
197.401721
0
LINE
8
0
10
65.539708
20
239.837156
30
0.0
11
67.090802
21
239.837156
31
0.0
0
ARC
8
0
10
67.092205
20
239.637161
30
0.0
40
0.200000
50
29.632658
51
90.000000
0
ARC
8
0
10
67.526811
20
239.884380
30
0.0
40
0.300000
50
209.632658
51
287.401721
0
LINE
8
0
10
67.616532
20
239.598111
30
0.0
11
68.653978
21
239.871566
31
0.0
0
ARC
8
0
10
68.577514
20
240.161658
30
0.0
40
0.300000
50
284.766462
51
360.000000
0
LINE
8
0
10
68.877514
20
240.161658
30
0.0
11
68.877514
21
243.061642
31
0.0
0
ARC
8
0
10
68.577514
20
243.061642
30
0.0
40
0.300000
50
360.000000
51
90.000000
0
LINE
8
0
10
68.577514
20
243.361642
30
0.0
11
67.977514
21
243.361642
31
0.0
0
ARC
8
0
10
67.977514
20
243.661642
30
0.0
40
0.300000
50
180.000000
51
270.000000
0
LINE
8
0
10
67.677514
20
243.661642
30
0.0
11
67.677514
21
243.861642
31
0.0
0
ARC
8
0
10
68.677514
20
243.861642
30
0.0
40
1.000000
50
90.000000
51
180.000000
0
LINE
8
0
10
68.677514
20
244.861642
30
0.0
11
71.826959
21
244.861642
31
0.0
0
ARC
8
0
10
71.826959
20
244.561642
30
0.0
40
0.300000
50
30.000000
51
90.000000
0
LINE
8
0
10
72.086767
20
244.711642
30
0.0
11
72.537322
21
243.931258
31
0.0
0
ARC
8
0
10
72.277514
20
243.781258
30
0.0
40
0.300000
50
360.000000
51
30.000000
0
LINE
8
0
10
72.577514
20
243.781258
30
0.0
11
72.577514
21
243.661642
31
0.0
0
ARC
8
0
10
72.277514
20
243.661642
30
0.0
40
0.300000
50
270.000000
51
360.000000
0
LINE
8
0
10
72.277514
20
243.361642
30
0.0
11
70.877514
21
243.361642
31
0.0
0
ARC
8
0
10
70.877514
20
243.061642
30
0.0
40
0.300000
50
90.000000
51
180.000000
0
LINE
8
0
10
70.577514
20
243.061642
30
0.0
11
70.577514
21
240.161642
31
0.0
0
ARC
8
0
10
70.877514
20
240.161642
30
0.0
40
0.300000
50
180.000000
51
270.000000
0
LINE
8
0
10
70.877514
20
239.861642
30
0.0
11
84.777514
21
239.861642
31
0.0
0
ARC
8
0
10
84.777514
20
240.161642
30
0.0
40
0.300000
50
270.000000
51
360.000000
0
LINE
8
0
10
85.077514
20
240.161642
30
0.0
11
85.077514
21
243.061642
31
0.0
0
ARC
8
0
10
84.777514
20
243.061642
30
0.0
40
0.300000
50
360.000000
51
90.000000
0
LINE
8
0
10
84.777514
20
243.361642
30
0.0
11
82.877514
21
243.361642
31
0.0
0
ARC
8
0
10
82.877514
20
243.661642
30
0.0
40
0.300000
50
180.000000
51
270.000000
0
LINE
8
0
10
82.577514
20
243.661642
30
0.0
11
82.577514
21
243.781258
31
0.0
0
ARC
8
0
10
82.877514
20
243.781258
30
0.0
40
0.300000
50
150.000000
51
180.000000
0
LINE
8
0
10
82.617707
20
243.931258
30
0.0
11
83.068262
21
244.711642
31
0.0
0
ARC
8
0
10
83.328070
20
244.561642
30
0.0
40
0.300000
50
90.000000
51
150.000000
0
LINE
8
0
10
83.328070
20
244.861642
30
0.0
11
86.577514
21
244.861642
31
0.0
0
ARC
8
0
10
86.577514
20
244.561642
30
0.0
40
0.300000
50
360.000000
51
90.000000
0
LINE
8
0
10
86.877514
20
244.561642
30
0.0
11
86.877514
21
199.161642
31
0.0
0
ARC
8
0
10
86.577514
20
199.161642
30
0.0
40
0.300000
50
270.000000
51
360.000000
0
LINE
8
0
10
86.577514
20
198.861642
30
0.0
11
83.328070
21
198.861642
31
0.0
0
ARC
8
0
10
83.328070
20
199.161642
30
0.0
40
0.300000
50
210.000000
51
270.000000
0
LINE
8
0
10
83.068262
20
199.011642
30
0.0
11
82.617707
21
199.792027
31
0.0
0
ARC
8
0
10
82.877514
20
199.942027
30
0.0
40
0.300000
50
180.000000
51
210.000000
0
LINE
8
0
10
82.577514
20
199.942027
30
0.0
11
82.577514
21
200.061642
31
0.0
0
ARC
8
0
10
82.877514
20
200.061642
30
0.0
40
0.300000
50
90.000000
51
180.000000
0
LINE
8
0
10
82.877514
20
200.361642
30
0.0
11
84.777514
21
200.361642
31
0.0
0
ARC
8
0
10
84.777514
20
200.661642
30
0.0
40
0.300000
50
270.000000
51
360.000000
0
LINE
8
0
10
85.077514
20
200.661642
30
0.0
11
85.077514
21
203.561642
31
0.0
0
ARC
8
0
10
84.777514
20
203.561642
30
0.0
40
0.300000
50
360.000000
51
90.000000
0
LINE
8
0
10
84.777514
20
203.861642
30
0.0
11
70.877514
21
203.861642
31
0.0
0
ARC
8
0
10
70.877514
20
203.561642
30
0.0
40
0.300000
50
90.000000
51
180.000000
0
LINE
8
0
10
70.577514
20
203.561642
30
0.0
11
70.577514
21
200.661642
31
0.0
0
ARC
8
0
10
70.877514
20
200.661642
30
0.0
40
0.300000
50
180.000000
51
270.000000
0
LINE
8
0
10
70.877514
20
200.361642
30
0.0
11
72.277514
21
200.361642
31
0.0
0
ARC
8
0
10
72.277514
20
200.061642
30
0.0
40
0.300000
50
360.000000
51
90.000000
0
LINE
8
0
10
72.577514
20
200.061642
30
0.0
11
72.577514
21
199.942027
31
0.0
0
ARC
8
0
10
72.277514
20
199.942027
30
0.0
40
0.300000
50
330.000000
51
360.000000
0
LINE
8
0
10
72.537322
20
199.792027
30
0.0
11
72.086767
21
199.011642
31
0.0
0
ARC
8
0
10
71.826959
20
199.161642
30
0.0
40
0.300000
50
270.000000
51
330.000000
0
LINE
8
0
10
71.826959
20
198.861642
30
0.0
11
68.677514
21
198.861642
31
0.0
0
ARC
8
0
10
68.677514
20
199.861642
30
0.0
40
1.000000
50
180.000000
51
270.000000
0
LINE
8
0
10
67.677514
20
199.861642
30
0.0
11
67.677514
21
200.061642
31
0.0
0
ARC
8
0
10
67.977514
20
200.061642
30
0.0
40
0.300000
50
90.000000
51
180.000000
0
LINE
8
0
10
67.977514
20
200.361642
30
0.0
11
68.577514
21
200.361642
31
0.0
0
ARC
8
0
10
68.577514
20
200.661642
30
0.0
40
0.300000
50
270.000000
51
360.000000
0
LINE
8
0
10
68.877514
20
200.661642
30
0.0
11
68.877514
21
203.561627
31
0.0
0
ARC
8
0
10
68.577514
20
203.561627
30
0.0
40
0.300000
50
360.000000
51
75.233538
0
LINE
8
0
10
68.653978
20
203.851718
30
0.0
11
67.616532
21
204.125174
31
0.0
0
ARC
8
0
10
67.526811
20
203.838905
30
0.0
40
0.300000
50
72.598279
51
150.367342
0
ARC
8
0
10
67.092205
20
204.086123
30
0.0
40
0.200000
50
270.000000
51
330.367342
0
LINE
8
0
10
67.090802
20
203.886128
30
0.0
11
65.539708
21
203.886128
31
0.0
0
ARC
8
0
10
65.539708
20
204.186128
30
0.0
40
0.300000
50
162.598279
51
270.000000
0
LINE
8
0
10
65.253439
20
204.275849
30
0.0
11
65.855403
21
206.196518
31
0.0
0
ARC
8
0
10
66.618788
20
205.957262
30
0.0
40
0.800000
50
117.598279
51
162.598279
0
LINE
8
0
10
66.248173
20
206.666236
30
0.0
11
66.529243
21
206.813166
31
0.0
0
ARC
8
0
10
66.621897
20
206.635922
30
0.0
40
0.200000
50
360.000000
51
117.598279
0
LINE
8
0
10
66.821721
20
206.627541
30
0.0
11
66.809624
21
206.339119
31
0.0
0
LINE
8
0
10
66.809624
20
206.339119
30
0.0
11
68.517721
21
205.255056
31
0.0
0
ARC
8
0
10
68.839233
20
205.761643
30
0.0
40
0.600000
50
237.598279
51
270.000000
0
LINE
8
0
10
68.839233
20
205.161643
30
0.0
11
68.877514
21
205.161643
31
0.0
0
ARC
8
0
10
68.777514
20
205.444486
30
0.0
40
0.300000
50
289.471221
51
70.528779
0
LINE
8
0
10
68.877514
20
205.727329
30
0.0
11
68.877514
21
209.761643
31
0.0
0
ARC
8
0
10
68.577514
20
209.761643
30
0.0
40
0.300000
50
360.000000
51
90.000000
0
LINE
8
0
10
68.577514
20
210.061643
30
0.0
11
68.357899
21
210.061643
31
0.0
0
ARC
8
0
10
68.357899
20
209.761643
30
0.0
40
0.300000
50
90.000000
51
120.000000
0
LINE
8
0
10
68.207899
20
210.021451
30
0.0
11
66.677514
21
209.087883
31
0.0
0
ARC
8
0
10
66.577514
20
209.261088
30
0.0
40
0.200000
50
180.000000
51
300.000000
0
LINE
8
0
10
66.377514
20
209.261088
30
0.0
11
66.377514
21
210.686276
31
0.0
0
ARC
8
0
10
67.377514
20
210.686276
30
0.0
40
1.000000
50
121.384101
51
180.000000
0
LINE
8
0
10
66.856742
20
211.539971
30
0.0
11
68.398287
21
212.480348
31
0.0
0
ARC
8
0
10
67.877514
20
213.334043
30
0.0
40
1.000000
50
301.384101
51
360.000000
0
LINE
8
0
10
68.877514
20
213.334043
30
0.0
11
68.877514
21
230.389241
31
0.0
0
ARC
8
0
10
67.877514
20
230.389241
30
0.0
40
1.000000
50
360.000000
51
58.615899
0
LINE
8
0
10
68.398287
20
231.242937
30
0.0
11
66.856742
21
232.183313
31
0.0
0
ARC
8
0
10
67.377514
20
233.037008
30
0.0
40
1.000000
50
180.000000
51
238.615899
0
LINE
8
0
10
66.377514
20
233.037008
30
0.0
11
66.377514
21
234.462197
31
0.0
0
ARC
8
0
10
66.577514
20
234.462197
30
0.0
40
0.200000
50
60.000000
51
180.000000
0
LINE
8
0
10
48.677520
20
218.576344
30
0.0
11
48.843440
21
217.957122
31
0.0
0
ARC
8
0
10
47.877514
20
217.698303
30
0.0
40
1.000000
50
360.000000
51
15.000000
0
LINE
8
0
10
48.877514
20
217.698303
30
0.0
11
48.877514
21
207.522247
31
0.0
0
ARC
8
0
10
47.877514
20
207.522247
30
0.0
40
1.000000
50
338.260625
51
360.000000
0
LINE
8
0
10
48.806393
20
207.151862
30
0.0
11
48.389345
21
206.105959
31
0.0
0
ARC
8
0
10
47.460466
20
206.476344
30
0.0
40
1.000000
50
270.000000
51
338.260625
0
LINE
8
0
10
47.460466
20
205.476344
30
0.0
11
41.377514
21
205.476344
31
0.0
0
ARC
8
0
10
41.377514
20
205.576344
30
0.0
40
0.100000
50
180.000000
51
270.000000
0
ARC
8
0
10
40.877514
20
205.576344
30
0.0
40
0.400000
50
360.000000
51
90.000000
0
ARC
8
0
10
40.877514
20
205.576344
30
0.0
40
0.400000
50
90.000000
51
180.000000
0
ARC
8
0
10
40.377514
20
205.576344
30
0.0
40
0.100000
50
270.000000
51
360.000000
0
LINE
8
0
10
40.377514
20
205.476344
30
0.0
11
38.655297
21
205.476344
31
0.0
0
ARC
8
0
10
38.655297
20
206.676344
30
0.0
40
1.200000
50
200.000000
51
270.000000
0
LINE
8
0
10
37.527666
20
206.265920
30
0.0
11
36.817034
21
208.218364
31
0.0
0
ARC
8
0
10
35.877341
20
207.876344
30
0.0
40
1.000000
50
20.000000
51
90.000000
0
LINE
8
0
10
35.877341
20
208.876344
30
0.0
11
34.765514
21
208.876344
31
0.0
0
ARC
8
0
10
34.765514
20
210.076344
30
0.0
40
1.200000
50
240.018361
51
270.000000
0
LINE
8
0
10
34.165847
20
209.036922
30
0.0
11
32.583903
21
209.949581
31
0.0
0
ARC
8
0
10
32.483959
20
209.776344
30
0.0
40
0.200000
50
60.018361
51
90.000000
0
LINE
8
0
10
32.483959
20
209.976344
30
0.0
11
32.277514
21
209.976344
31
0.0
0
ARC
8
0
10
32.277514
20
209.576344
30
0.0
40
0.400000
50
90.000000
51
180.000000
0
LINE
8
0
10
31.877514
20
209.576344
30
0.0
11
31.877514
21
209.149549
31
0.0
0
ARC
8
0
10
32.077514
20
209.149549
30
0.0
40
0.200000
50
180.000000
51
240.000000
0
LINE
8
0
10
31.977514
20
208.976344
30
0.0
11
31.977514
21
208.601344
31
0.0
0
ARC
8
0
10
32.177514
20
208.601344
30
0.0
40
0.200000
50
180.000000
51
270.000000
0
LINE
8
0
10
32.177514
20
208.401344
30
0.0
11
32.289321
21
208.401344
31
0.0
0
LINE
8
0
10
32.289321
20
208.401344
30
0.0
11
32.373869
21
208.420094
31
0.0
0
ARC
8
0
10
32.627514
20
207.876344
30
0.0
40
0.600000
50
360.000000
51
115.007833
0
ARC
8
0
10
32.627514
20
207.876344
30
0.0
40
0.600000
50
244.992167
51
360.000000
0
LINE
8
0
10
32.373869
20
207.332594
30
0.0
11
32.289321
21
207.351344
31
0.0
0
LINE
8
0
10
32.289321
20
207.351344
30
0.0
11
32.177514
21
207.351344
31
0.0
0
ARC
8
0
10
32.177514
20
207.151344
30
0.0
40
0.200000
50
90.000000
51
180.000000
0
LINE
8
0
10
31.977514
20
207.151344
30
0.0
11
31.977514
21
206.776344
31
0.0
0
ARC
8
0
10
32.077514
20
206.603139
30
0.0
40
0.200000
50
120.000000
51
180.000000
0
LINE
8
0
10
31.877514
20
206.603139
30
0.0
11
31.877514
21
206.176344
31
0.0
0
ARC
8
0
10
32.277514
20
206.176344
30
0.0
40
0.400000
50
180.000000
51
270.000000
0
LINE
8
0
10
32.277514
20
205.776344
30
0.0
11
32.483959
21
205.776344
31
0.0
0
ARC
8
0
10
32.483959
20
205.976344
30
0.0
40
0.200000
50
270.000000
51
299.981639
0
LINE
8
0
10
32.583903
20
205.803107
30
0.0
11
34.165847
21
206.715767
31
0.0
0
ARC
8
0
10
34.765514
20
205.676344
30
0.0
40
1.200000
50
90.000000
51
119.981639
0
LINE
8
0
10
34.765514
20
206.876344
30
0.0
11
34.827577
21
206.876344
31
0.0
0
ARC
8
0
10
34.827577
20
206.376344
30
0.0
40
0.500000
50
17.401721
51
90.000000
0
LINE
8
0
10
35.304693
20
206.525879
30
0.0
11
36.233596
21
203.973738
31
0.0
0
ARC
8
0
10
36.515504
20
204.076344
30
0.0
40
0.300000
50
200.000000
51
270.000000
0
LINE
8
0
10
36.515504
20
203.776344
30
0.0
11
64.239525
21
203.776344
31
0.0
0
ARC
8
0
10
64.239525
20
204.076344
30
0.0
40
0.300000
50
270.000000
51
340.000000
0
LINE
8
0
10
64.521433
20
203.973738
30
0.0
11
65.450336
21
206.525879
31
0.0
0
ARC
8
0
10
65.927451
20
206.376344
30
0.0
40
0.500000
50
90.000000
51
162.598279
0
LINE
8
0
10
65.927451
20
206.876344
30
0.0
11
65.989515
21
206.876344
31
0.0
0
ARC
8
0
10
65.989515
20
205.676344
30
0.0
40
1.200000
50
60.018361
51
90.000000
0
LINE
8
0
10
66.589182
20
206.715767
30
0.0
11
68.171125
21
205.803107
31
0.0
0
ARC
8
0
10
68.271070
20
205.976344
30
0.0
40
0.200000
50
240.018361
51
270.000000
0
LINE
8
0
10
68.271070
20
205.776344
30
0.0
11
68.477514
21
205.776344
31
0.0
0
ARC
8
0
10
68.477514
20
206.176344
30
0.0
40
0.400000
50
270.000000
51
360.000000
0
LINE
8
0
10
68.877514
20
206.176344
30
0.0
11
68.877514
21
206.603139
31
0.0
0
ARC
8
0
10
68.677514
20
206.603139
30
0.0
40
0.200000
50
360.000000
51
60.000000
0
LINE
8
0
10
68.777514
20
206.776344
30
0.0
11
68.777514
21
207.151344
31
0.0
0
ARC
8
0
10
68.577514
20
207.151344
30
0.0
40
0.200000
50
360.000000
51
90.000000
0
LINE
8
0
10
68.577514
20
207.351344
30
0.0
11
68.465708
21
207.351344
31
0.0
0
LINE
8
0
10
68.465708
20
207.351344
30
0.0
11
68.381160
21
207.332594
31
0.0
0
ARC
8
0
10
68.127514
20
207.876344
30
0.0
40
0.600000
50
180.000000
51
295.007833
0
ARC
8
0
10
68.127514
20
207.876344
30
0.0
40
0.600000
50
64.992167
51
180.000000
0
LINE
8
0
10
68.381160
20
208.420094
30
0.0
11
68.465708
21
208.401344
31
0.0
0
LINE
8
0
10
68.465708
20
208.401344
30
0.0
11
68.577514
21
208.401344
31
0.0
0
ARC
8
0
10
68.577514
20
208.601344
30
0.0
40
0.200000
50
270.000000
51
360.000000
0
LINE
8
0
10
68.777514
20
208.601344
30
0.0
11
68.777514
21
208.976344
31
0.0
0
ARC
8
0
10
68.677514
20
209.149549
30
0.0
40
0.200000
50
300.000000
51
360.000000
0
LINE
8
0
10
68.877514
20
209.149549
30
0.0
11
68.877514
21
209.576344
31
0.0
0
ARC
8
0
10
68.477514
20
209.576344
30
0.0
40
0.400000
50
360.000000
51
90.000000
0
LINE
8
0
10
68.477514
20
209.976344
30
0.0
11
68.271070
21
209.976344
31
0.0
0
ARC
8
0
10
68.271070
20
209.776344
30
0.0
40
0.200000
50
90.000000
51
119.981639
0
LINE
8
0
10
68.171125
20
209.949581
30
0.0
11
66.589182
21
209.036922
31
0.0
0
ARC
8
0
10
65.989515
20
210.076344
30
0.0
40
1.200000
50
270.000000
51
299.981639
0
LINE
8
0
10
65.989515
20
208.876344
30
0.0
11
64.877687
21
208.876344
31
0.0
0
ARC
8
0
10
64.877687
20
207.876344
30
0.0
40
1.000000
50
90.000000
51
160.000000
0
LINE
8
0
10
63.937995
20
208.218364
30
0.0
11
63.227363
21
206.265920
31
0.0
0
ARC
8
0
10
62.099732
20
206.676344
30
0.0
40
1.200000
50
270.000000
51
340.000000
0
LINE
8
0
10
62.099732
20
205.476344
30
0.0
11
51.294166
21
205.476344
31
0.0
0
ARC
8
0
10
51.294166
20
206.476344
30
0.0
40
1.000000
50
201.938469
51
270.000000
0
LINE
8
0
10
50.366580
20
206.102734
30
0.0
11
49.949929
21
207.137179
31
0.0
0
ARC
8
0
10
50.877514
20
207.510790
30
0.0
40
1.000000
50
180.000000
51
201.938469
0
LINE
8
0
10
49.877514
20
207.510790
30
0.0
11
49.877514
21
217.698260
31
0.0
0
ARC
8
0
10
50.877514
20
217.698260
30
0.0
40
1.000000
50
165.000000
51
180.000000
0
LINE
8
0
10
49.911588
20
217.957079
30
0.0
11
50.077520
21
218.576344
31
0.0
0
LINE
8
0
10
50.077520
20
218.576344
30
0.0
11
50.077520
21
219.276344
31
0.0
0
ARC
8
0
10
49.777520
20
219.276344
30
0.0
40
0.300000
50
360.000000
51
90.000000
0
LINE
8
0
10
49.777520
20
219.576344
30
0.0
11
48.977520
21
219.576344
31
0.0
0
ARC
8
0
10
48.977520
20
219.276344
30
0.0
40
0.300000
50
90.000000
51
180.000000
0
LINE
8
0
10
48.677520
20
219.276344
30
0.0
11
48.677520
21
218.576344
31
0.0
0
LINE
8
0
10
48.677520
20
225.146940
30
0.0
11
48.843440
21
225.766162
31
0.0
0
ARC
8
0
10
47.877514
20
226.024981
30
0.0
40
1.000000
50
345.000000
51
360.000000
0
LINE
8
0
10
48.877514
20
226.024981
30
0.0
11
48.877514
21
236.201038
31
0.0
0
ARC
8
0
10
47.877514
20
236.201038
30
0.0
40
1.000000
50
360.000000
51
21.739375
0
LINE
8
0
10
48.806393
20
236.571423
30
0.0
11
48.389345
21
237.617325
31
0.0
0
ARC
8
0
10
47.460466
20
237.246940
30
0.0
40
1.000000
50
21.739375
51
90.000000
0
LINE
8
0
10
47.460466
20
238.246940
30
0.0
11
41.377514
21
238.246940
31
0.0
0
ARC
8
0
10
41.377514
20
238.146940
30
0.0
40
0.100000
50
90.000000
51
180.000000
0
ARC
8
0
10
40.877514
20
238.146940
30
0.0
40
0.400000
50
270.000000
51
360.000000
0
ARC
8
0
10
40.877514
20
238.146940
30
0.0
40
0.400000
50
180.000000
51
270.000000
0
ARC
8
0
10
40.377514
20
238.146940
30
0.0
40
0.100000
50
360.000000
51
90.000000
0
LINE
8
0
10
40.377514
20
238.246940
30
0.0
11
38.655297
21
238.246940
31
0.0
0
ARC
8
0
10
38.655297
20
237.046940
30
0.0
40
1.200000
50
90.000000
51
160.000000
0
LINE
8
0
10
37.527666
20
237.457364
30
0.0
11
36.817034
21
235.504920
31
0.0
0
ARC
8
0
10
35.877341
20
235.846940
30
0.0
40
1.000000
50
270.000000
51
340.000000
0
LINE
8
0
10
35.877341
20
234.846940
30
0.0
11
34.765514
21
234.846940
31
0.0
0
ARC
8
0
10
34.765514
20
233.646940
30
0.0
40
1.200000
50
90.000000
51
119.981639
0
LINE
8
0
10
34.165847
20
234.686363
30
0.0
11
32.583903
21
233.773703
31
0.0
0
ARC
8
0
10
32.483959
20
233.946940
30
0.0
40
0.200000
50
270.000000
51
299.981639
0
LINE
8
0
10
32.483959
20
233.746940
30
0.0
11
32.277514
21
233.746940
31
0.0
0
ARC
8
0
10
32.277514
20
234.146940
30
0.0
40
0.400000
50
180.000000
51
270.000000
0
LINE
8
0
10
31.877514
20
234.146940
30
0.0
11
31.877514
21
234.573735
31
0.0
0
ARC
8
0
10
32.077514
20
234.573735
30
0.0
40
0.200000
50
120.000000
51
180.000000
0
LINE
8
0
10
31.977514
20
234.746940
30
0.0
11
31.977514
21
235.121940
31
0.0
0
ARC
8
0
10
32.177514
20
235.121940
30
0.0
40
0.200000
50
90.000000
51
180.000000
0
LINE
8
0
10
32.177514
20
235.321940
30
0.0
11
32.289321
21
235.321940
31
0.0
0
LINE
8
0
10
32.373869
20
235.303190
30
0.0
11
32.289321
21
235.321940
31
0.0
0
ARC
8
0
10
32.627514
20
235.846940
30
0.0
40
0.600000
50
244.992167
51
360.000000
0
ARC
8
0
10
32.627514
20
235.846940
30
0.0
40
0.600000
50
360.000000
51
115.007833
0
LINE
8
0
10
32.289321
20
236.371940
30
0.0
11
32.373869
21
236.390690
31
0.0
0
LINE
8
0
10
32.289321
20
236.371940
30
0.0
11
32.177514
21
236.371940
31
0.0
0
ARC
8
0
10
32.177514
20
236.571940
30
0.0
40
0.200000
50
180.000000
51
270.000000
0
LINE
8
0
10
31.977514
20
236.571940
30
0.0
11
31.977514
21
236.946940
31
0.0
0
ARC
8
0
10
32.077514
20
237.120145
30
0.0
40
0.200000
50
180.000000
51
240.000000
0
LINE
8
0
10
31.877514
20
237.120145
30
0.0
11
31.877514
21
237.546940
31
0.0
0
ARC
8
0
10
32.277514
20
237.546940
30
0.0
40
0.400000
50
90.000000
51
180.000000
0
LINE
8
0
10
32.277514
20
237.946940
30
0.0
11
32.483959
21
237.946940
31
0.0
0
ARC
8
0
10
32.483959
20
237.746940
30
0.0
40
0.200000
50
60.018361
51
90.000000
0
LINE
8
0
10
32.583903
20
237.920177
30
0.0
11
34.165847
21
237.007518
31
0.0
0
ARC
8
0
10
34.765514
20
238.046940
30
0.0
40
1.200000
50
240.018361
51
270.000000
0
LINE
8
0
10
34.765514
20
236.846940
30
0.0
11
34.827577
21
236.846940
31
0.0
0
ARC
8
0
10
34.827577
20
237.346940
30
0.0
40
0.500000
50
270.000000
51
342.598279
0
LINE
8
0
10
35.304693
20
237.197406
30
0.0
11
36.233596
21
239.749546
31
0.0
0
ARC
8
0
10
36.515504
20
239.646940
30
0.0
40
0.300000
50
90.000000
51
160.000000
0
LINE
8
0
10
36.515504
20
239.946940
30
0.0
11
64.239525
21
239.946940
31
0.0
0
ARC
8
0
10
64.239525
20
239.646940
30
0.0
40
0.300000
50
20.000000
51
90.000000
0
LINE
8
0
10
64.521433
20
239.749546
30
0.0
11
65.450336
21
237.197405
31
0.0
0
ARC
8
0
10
65.927451
20
237.346940
30
0.0
40
0.500000
50
197.401721
51
270.000000
0
LINE
8
0
10
65.927451
20
236.846940
30
0.0
11
65.989515
21
236.846940
31
0.0
0
ARC
8
0
10
65.989515
20
238.046940
30
0.0
40
1.200000
50
270.000000
51
299.981639
0
LINE
8
0
10
66.589182
20
237.007518
30
0.0
11
68.171125
21
237.920177
31
0.0
0
ARC
8
0
10
68.271070
20
237.746940
30
0.0
40
0.200000
50
90.000000
51
119.981639
0
LINE
8
0
10
68.271070
20
237.946940
30
0.0
11
68.477514
21
237.946940
31
0.0
0
ARC
8
0
10
68.477514
20
237.546940
30
0.0
40
0.400000
50
360.000000
51
90.000000
0
LINE
8
0
10
68.877514
20
237.546940
30
0.0
11
68.877514
21
237.120145
31
0.0
0
ARC
8
0
10
68.677514
20
237.120145
30
0.0
40
0.200000
50
300.000000
51
360.000000
0
LINE
8
0
10
68.777514
20
236.946940
30
0.0
11
68.777514
21
236.571940
31
0.0
0
ARC
8
0
10
68.577514
20
236.571940
30
0.0
40
0.200000
50
270.000000
51
360.000000
0
LINE
8
0
10
68.577514
20
236.371940
30
0.0
11
68.465708
21
236.371940
31
0.0
0
LINE
8
0
10
68.381160
20
236.390690
30
0.0
11
68.465708
21
236.371940
31
0.0
0
ARC
8
0
10
68.127514
20
235.846940
30
0.0
40
0.600000
50
64.992167
51
180.000000
0
ARC
8
0
10
68.127514
20
235.846940
30
0.0
40
0.600000
50
180.000000
51
295.007833
0
LINE
8
0
10
68.465708
20
235.321940
30
0.0
11
68.381160
21
235.303190
31
0.0
0
LINE
8
0
10
68.465708
20
235.321940
30
0.0
11
68.577514
21
235.321940
31
0.0
0
ARC
8
0
10
68.577514
20
235.121940
30
0.0
40
0.200000
50
360.000000
51
90.000000
0
LINE
8
0
10
68.777514
20
235.121940
30
0.0
11
68.777514
21
234.746940
31
0.0
0
ARC
8
0
10
68.677514
20
234.573735
30
0.0
40
0.200000
50
360.000000
51
60.000000
0
LINE
8
0
10
68.877514
20
234.573735
30
0.0
11
68.877514
21
234.146940
31
0.0
0
ARC
8
0
10
68.477514
20
234.146940
30
0.0
40
0.400000
50
270.000000
51
360.000000
0
LINE
8
0
10
68.477514
20
233.746940
30
0.0
11
68.271070
21
233.746940
31
0.0
0
ARC
8
0
10
68.271070
20
233.946940
30
0.0
40
0.200000
50
240.018361
51
270.000000
0
LINE
8
0
10
68.171125
20
233.773703
30
0.0
11
66.589182
21
234.686363
31
0.0
0
ARC
8
0
10
65.989515
20
233.646940
30
0.0
40
1.200000
50
60.018361
51
90.000000
0
LINE
8
0
10
65.989515
20
234.846940
30
0.0
11
64.877687
21
234.846940
31
0.0
0
ARC
8
0
10
64.877687
20
235.846940
30
0.0
40
1.000000
50
200.000000
51
270.000000
0
LINE
8
0
10
63.937995
20
235.504920
30
0.0
11
63.227363
21
237.457364
31
0.0
0
ARC
8
0
10
62.099732
20
237.046940
30
0.0
40
1.200000
50
20.000000
51
90.000000
0
LINE
8
0
10
62.099732
20
238.246940
30
0.0
11
51.294166
21
238.246940
31
0.0
0
ARC
8
0
10
51.294166
20
237.246940
30
0.0
40
1.000000
50
90.000000
51
158.061531
0
LINE
8
0
10
50.366580
20
237.620551
30
0.0
11
49.949929
21
236.586106
31
0.0
0
ARC
8
0
10
50.877514
20
236.212495
30
0.0
40
1.000000
50
158.061531
51
180.000000
0
LINE
8
0
10
49.877514
20
236.212495
30
0.0
11
49.877514
21
226.025024
31
0.0
0
ARC
8
0
10
50.877514
20
226.025024
30
0.0
40
1.000000
50
180.000000
51
195.000000
0
LINE
8
0
10
49.911588
20
225.766205
30
0.0
11
50.077520
21
225.146940
31
0.0
0
LINE
8
0
10
50.077520
20
225.146940
30
0.0
11
50.077520
21
224.446940
31
0.0
0
ARC
8
0
10
49.777520
20
224.446940
30
0.0
40
0.300000
50
270.000000
51
360.000000
0
LINE
8
0
10
49.777520
20
224.146940
30
0.0
11
48.977520
21
224.146940
31
0.0
0
ARC
8
0
10
48.977520
20
224.446940
30
0.0
40
0.300000
50
180.000000
51
270.000000
0
LINE
8
0
10
48.677520
20
224.446940
30
0.0
11
48.677520
21
225.146940
31
0.0
0
ATTDEF
8
0
10
70.252236
20
244.861642
30
0.0
40
3.5
1

3

2
VC_START
70
0
0
ATTDEF
8
0
10
70.252236
20
198.861642
30
0.0
40
3.5
1

3

2
VC_END
70
0
0
ATTDEF
8
0
10
0.000000
20
0.000000
30
0.0
40
3.5
1

3

2
MIN_VETRO:0
70
0
0
ATTDEF
8
0
10
0.000000
20
0.000000
30
0.0
40
3.5
1

3

2
MAX_VETRO:0
70
0
0
ATTDEF
8
0
10
0.000000
20
0.000000
30
0.0
40
3.5
1

3

2
MIN_VETRO:0
70
0
0
ATTDEF
8
0
10
0.000000
20
0.000000
30
0.0
40
3.5
1

3

2
MAX_VETRO:0
70
0
0
ATTDEF
8
0
10
24.577257
20
180.861642
30
0.0
40
3.5
1

3

2
DESC:Montante Centrale
70
0
0
ATTDEF
8
0
10
24.577257
20
180.861642
30
0.0
40
3.5
1

3

2
DENS:1.650000
70
0
0
ATTDEF
8
0
10
24.577257
20
180.861642
30
0.0
40
3.5
1

3

2
TDEV:0.000000
70
0
0
ATTDEF
8
0
10
24.577257
20
180.861642
30
0.0
40
3.5
1

3

2
TDEV2:0.000000
70
0
0
ATTDEF
8
0
10
24.577257
20
180.861642
30
0.0
40
3.5
1

3

2
TDEV3:0.000000
70
0
0
ATTDEF
8
0
10
24.577257
20
180.861642
30
0.0
40
3.5
1

3

2
TDEV4:0.000000
70
0
0
ATTDEF
8
0
10
24.577257
20
180.861642
30
0.0
40
3.5
1

3

2
TDEV5:0.000000
70
0
0
ATTDEF
8
0
10
24.577257
20
180.861642
30
0.0
40
3.5
1

3

2
REAR_VIEW
70
0
0
ATTDEF
8
0
10
24.577257
20
180.861642
30
0.0
40
3.5
1

3

2
BL01:6800.000000,,1
70
0
0
ATTDEF
8
0
10
24.577257
20
180.861642
30
0.0
40
3.5
1

3

2
OPTI:500.000000,1,0,3000.000000,6500.000000,500.000000,0,0.000000,0
70
0
0
ATTDEF
8
0
10
24.577257
20
180.861642
30
0.0
40
3.5
1

3

2
PANE_WIDTH:57.500000
70
0
0
ATTDEF
8
0
10
24.577257
20
180.861642
30
0.0
40
3.5
1

3

2
GLASS_MIN:0.000000
70
0
0
ATTDEF
8
0
10
24.577257
20
180.861642
30
0.0
40
3.5
1

3

2
GLASS_MAX:0.000000
70
0
0
ATTDEF
8
0
10
24.577257
20
180.861642
30
0.0
40
3.5
1

3

2
JX:0.000000
70
0
0
ATTDEF
8
0
10
24.577257
20
180.861642
30
0.0
40
3.5
1

3

2
WX:0.000000
70
0
0
ATTDEF
8
0
10
24.577257
20
180.861642
30
0.0
40
3.5
1

3

2
JY:0.000000
70
0
0
ATTDEF
8
0
10
24.577257
20
180.861642
30
0.0
40
3.5
1

3

2
WY:0.000000
70
0
0
ATTDEF
8
0
10
24.577257
20
180.861642
30
0.0
40
3.5
1

3

2
FP_LCS_ORIG
70
0
0
ATTDEF
8
0
10
34.577257
20
180.861642
30
0.0
40
3.5
1

3

2
FP_LCS_HOT
70
0
0
ATTDEF
8
0
10
24.577257
20
190.861642
30
0.0
40
3.5
1

3

2
FP_LCS_INTERN
70
0
0
ENDSEC
0
EOF
