0
SECTION
2
ENTITIES
0
ARC
8
0
10
12.934013
20
173.292045
30
0.0
40
0.500000
50
180.000000
51
270.000000
0
LINE
8
0
10
12.934013
20
172.792045
30
0.0
11
19.335435
21
172.792045
31
0.0
0
ARC
8
0
10
19.335435
20
173.792045
30
0.0
40
1.000000
50
270.000000
51
0.000000
0
LINE
8
0
10
20.335435
20
173.792045
30
0.0
11
20.335435
21
174.210146
31
0.0
0
ARC
8
0
10
19.835435
20
174.210146
30
0.0
40
0.500000
50
0.000000
51
75.000000
0
LINE
8
0
10
19.964844
20
174.693108
30
0.0
11
16.606025
21
175.593101
31
0.0
0
ARC
8
0
10
16.735435
20
176.076064
30
0.0
40
0.500000
50
180.000000
51
255.000000
0
LINE
8
0
10
16.235435
20
176.076064
30
0.0
11
16.235435
21
177.192045
31
0.0
0
ARC
8
0
10
15.535435
20
177.192045
30
0.0
40
0.700000
50
0.000000
51
90.000000
0
ARC
8
0
10
15.535435
20
177.592045
30
0.0
40
0.300000
50
90.000000
51
180.000000
0
LINE
8
0
10
15.235435
20
177.592045
30
0.0
11
15.235435
21
177.092045
31
0.0
0
ARC
8
0
10
14.935435
20
177.092045
30
0.0
40
0.300000
50
270.000000
51
0.000000
0
LINE
8
0
10
14.935435
20
176.792045
30
0.0
11
14.762785
21
176.792045
31
0.0
0
ARC
8
0
10
14.762785
20
177.792045
30
0.0
40
1.000000
50
210.000000
51
270.000000
0
LINE
8
0
10
13.896760
20
177.292045
30
0.0
11
12.902422
21
179.014288
31
0.0
0
ARC
8
0
10
13.335435
20
179.264288
30
0.0
40
0.500000
50
180.000000
51
210.000000
0
LINE
8
0
10
12.835435
20
179.264288
30
0.0
11
12.835435
21
179.519802
31
0.0
0
ARC
8
0
10
13.335435
20
179.519802
30
0.0
40
0.500000
50
150.000000
51
180.000000
0
LINE
8
0
10
12.902422
20
179.769802
30
0.0
11
13.896760
21
181.492045
31
0.0
0
ARC
8
0
10
14.762785
20
180.992045
30
0.0
40
1.000000
50
90.000000
51
150.000000
0
LINE
8
0
10
14.762785
20
181.992045
30
0.0
11
14.935435
21
181.992045
31
0.0
0
ARC
8
0
10
14.935435
20
181.692045
30
0.0
40
0.300000
50
0.000000
51
90.000000
0
LINE
8
0
10
15.235435
20
181.692045
30
0.0
11
15.235435
21
181.192045
31
0.0
0
ARC
8
0
10
15.535435
20
181.192045
30
0.0
40
0.300000
50
180.000000
51
270.000000
0
ARC
8
0
10
15.535435
20
181.592045
30
0.0
40
0.700000
50
270.000000
51
0.000000
0
LINE
8
0
10
16.235435
20
181.592045
30
0.0
11
16.235435
21
182.692045
31
0.0
0
ARC
8
0
10
15.735435
20
182.692045
30
0.0
40
0.500000
50
0.000000
51
90.000000
0
LINE
8
0
10
15.735435
20
183.192045
30
0.0
11
9.935435
21
183.192045
31
0.0
0
ARC
8
0
10
9.935435
20
182.892045
30
0.0
40
0.300000
50
90.000000
51
180.000000
0
LINE
8
0
10
9.635435
20
182.892045
30
0.0
11
9.635435
21
182.292045
31
0.0
0
ARC
8
0
10
9.335435
20
182.292045
30
0.0
40
0.300000
50
270.000000
51
0.000000
0
LINE
8
0
10
9.335435
20
181.992045
30
0.0
11
6.335435
21
181.992045
31
0.0
0
ARC
8
0
10
6.335435
20
182.292045
30
0.0
40
0.300000
50
180.000000
51
270.000000
0
LINE
8
0
10
6.035435
20
182.292045
30
0.0
11
6.035435
21
182.892045
31
0.0
0
ARC
8
0
10
5.735435
20
182.892045
30
0.0
40
0.300000
50
0.000000
51
90.000000
0
LINE
8
0
10
5.735435
20
183.192045
30
0.0
11
4.535548
21
183.192045
31
0.0
0
ARC
8
0
10
4.535548
20
183.492045
30
0.0
40
0.300000
50
180.000000
51
270.000000
0
LINE
8
0
10
4.235548
20
183.492045
30
0.0
11
4.235548
21
184.992045
31
0.0
0
ARC
8
0
10
3.935548
20
184.992045
30
0.0
40
0.300000
50
0.000000
51
90.000000
0
LINE
8
0
10
3.935548
20
185.292045
30
0.0
11
-0.364452
21
185.292045
31
0.0
0
ARC
8
0
10
-0.364452
20
184.792045
30
0.0
40
0.500000
50
90.000000
51
180.000000
0
LINE
8
0
10
-0.864452
20
184.792045
30
0.0
11
-0.864452
21
183.792045
31
0.0
0
ARC
8
0
10
1.635548
20
183.792045
30
0.0
40
2.500000
50
180.000000
51
234.672086
0
ARC
8
0
10
-1.544855
20
179.304837
30
0.0
40
3.000000
50
17.585703
51
54.672086
0
ARC
8
0
10
-7.264452
20
177.492045
30
0.0
40
9.000000
50
4.301222
51
17.585703
0
ARC
8
0
10
0.713017
20
178.092045
30
0.0
40
1.000000
50
184.301222
51
4.301222
0
ARC
8
0
10
-7.264452
20
177.492045
30
0.0
40
7.000000
50
4.301222
51
16.076650
0
ARC
8
0
10
-1.018653
20
179.292045
30
0.0
40
0.500000
50
16.076650
51
90.000000
0
LINE
8
0
10
-1.018653
20
179.792045
30
0.0
11
-2.064452
21
179.792045
31
0.0
0
ARC
8
0
10
-2.064452
20
179.292045
30
0.0
40
0.500000
50
90.000000
51
180.000000
0
LINE
8
0
10
-2.564452
20
179.292045
30
0.0
11
-2.564452
21
173.292045
31
0.0
0
ARC
8
0
10
-2.064452
20
173.292045
30
0.0
40
0.500000
50
180.000000
51
270.000000
0
LINE
8
0
10
-2.064452
20
172.792045
30
0.0
11
2.635435
21
172.792045
31
0.0
0
ARC
8
0
10
2.635435
20
173.292045
30
0.0
40
0.500000
50
270.000000
51
0.000000
0
LINE
8
0
10
3.135435
20
173.292045
30
0.0
11
3.135435
21
173.592045
31
0.0
0
ARC
8
0
10
3.335435
20
173.592045
30
0.0
40
0.200000
50
90.000000
51
180.000000
0
LINE
8
0
10
3.335435
20
173.792045
30
0.0
11
3.785435
21
173.792045
31
0.0
0
ARC
8
0
10
3.785435
20
174.042045
30
0.0
40
0.250000
50
270.000000
51
0.000000
0
LINE
8
0
10
4.035435
20
174.042045
30
0.0
11
4.035435
21
174.442045
31
0.0
0
ARC
8
0
10
3.785435
20
174.442045
30
0.0
40
0.250000
50
0.000000
51
90.000000
0
LINE
8
0
10
3.785435
20
174.692045
30
0.0
11
3.335435
21
174.692045
31
0.0
0
ARC
8
0
10
3.335435
20
174.892045
30
0.0
40
0.200000
50
180.000000
51
270.000000
0
LINE
8
0
10
3.135435
20
174.892045
30
0.0
11
3.135435
21
175.884938
31
0.0
0
ARC
8
0
10
3.635435
20
175.884938
30
0.0
40
0.500000
50
135.000000
51
180.000000
0
LINE
8
0
10
3.281881
20
176.238492
30
0.0
11
5.947567
21
178.904177
31
0.0
0
ARC
8
0
10
6.159699
20
178.692045
30
0.0
40
0.300000
50
90.000000
51
135.000000
0
LINE
8
0
10
6.159699
20
178.992045
30
0.0
11
7.485435
21
178.992045
31
0.0
0
LINE
8
0
10
7.485435
20
178.992045
30
0.0
11
7.785435
21
179.292045
31
0.0
0
LINE
8
0
10
7.785435
20
179.292045
30
0.0
11
8.085435
21
178.992045
31
0.0
0
LINE
8
0
10
8.085435
20
178.992045
30
0.0
11
9.411171
21
178.992045
31
0.0
0
ARC
8
0
10
9.411171
20
178.692045
30
0.0
40
0.300000
50
45.000000
51
90.000000
0
LINE
8
0
10
9.623303
20
178.904177
30
0.0
11
12.288988
21
176.238492
31
0.0
0
ARC
8
0
10
11.935435
20
175.884938
30
0.0
40
0.500000
50
0.000000
51
45.000000
0
LINE
8
0
10
12.435435
20
175.884938
30
0.0
11
12.435435
21
174.892045
31
0.0
0
ARC
8
0
10
12.235435
20
174.892045
30
0.0
40
0.200000
50
270.000000
51
0.000000
0
LINE
8
0
10
12.235435
20
174.692045
30
0.0
11
11.785435
21
174.692045
31
0.0
0
ARC
8
0
10
11.785435
20
174.442045
30
0.0
40
0.250000
50
90.000000
51
180.000000
0
LINE
8
0
10
11.535435
20
174.442045
30
0.0
11
11.535435
21
174.042045
31
0.0
0
ARC
8
0
10
11.785435
20
174.042045
30
0.0
40
0.250000
50
180.000000
51
270.000000
0
LINE
8
0
10
11.785435
20
173.792045
30
0.0
11
12.235435
21
173.792045
31
0.0
0
ARC
8
0
10
12.235435
20
173.592045
30
0.0
40
0.200000
50
0.000000
51
90.000000
0
LINE
8
0
10
12.435435
20
173.592045
30
0.0
11
12.435435
21
173.292045
31
0.0
0
ATTDEF
8
0
10
-2.564452
20
172.792045
30
0.0
40
3.5
1

3

2
FRONT_VIEW
70
0
0
ATTDEF
8
0
10
-2.564452
20
172.792045
30
0.0
40
3.5
1

3

2
BL01:6800.000000,,1
70
0
0
ATTDEF
8
0
10
-2.564452
20
172.792045
30
0.0
40
3.5
1

3

2
OPTI:500.000000,1,0,3000.000000,6500.000000,500.000000,0,0.000000,0
70
0
0
ATTDEF
8
0
10
-2.564452
20
172.792045
30
0.0
40
3.5
1

3

2
GLASS_MIN:0.000000
70
0
0
ATTDEF
8
0
10
-2.564452
20
172.792045
30
0.0
40
3.5
1

3

2
GLASS_MAX:0.000000
70
0
0
ATTDEF
8
0
10
16.235435
20
181.592045
30
0.0
40
3.5
1

3

2
HC_START
70
0
0
ATTDEF
8
0
10
-2.564452
20
179.292045
30
0.0
40
3.5
1

3

2
HC_END
70
0
0
ATTDEF
8
0
10
-2.564452
20
172.792045
30
0.0
40
3.5
1

3

2
FP_LCS_ORIG
70
0
0
ATTDEF
8
0
10
-2.564452
20
182.792045
30
0.0
40
3.5
1

3

2
FP_LCS_HOT
70
0
0
ATTDEF
8
0
10
7.435548
20
172.792045
30
0.0
40
3.5
1

3

2
FP_LCS_INTERN
70
0
0
ATTDEF
8
0
10
0.000000
20
0.000000
30
0.0
40
3.5
1

3

2
TDEV2:0
70
0
0
ATTDEF
8
0
10
0.000000
20
0.000000
30
0.0
40
3.5
1

3

2
TDEV3:0
70
0
0
ATTDEF
8
0
10
0.000000
20
0.000000
30
0.0
40
3.5
1

3

2
TDEV4:0
70
0
0
ATTDEF
8
0
10
0.000000
20
0.000000
30
0.0
40
3.5
1

3

2
TDEV5:0
70
0
0
ATTDEF
8
0
10
0.000000
20
0.000000
30
0.0
40
3.5
1

3

2
PANE_WIDTH:0
70
0
0
ATTDEF
8
0
10
0.000000
20
0.000000
30
0.0
40
3.5
1

3

2
MIN_VETRO:0
70
0
0
ATTDEF
8
0
10
0.000000
20
0.000000
30
0.0
40
3.5
1

3

2
MAX_VETRO:0
70
0
0
ATTDEF
8
0
10
0.000000
20
0.000000
30
0.0
40
3.5
1

3

2
JX:0
70
0
0
ATTDEF
8
0
10
0.000000
20
0.000000
30
0.0
40
3.5
1

3

2
WX:0
70
0
0
ATTDEF
8
0
10
0.000000
20
0.000000
30
0.0
40
3.5
1

3

2
JY:0
70
0
0
ATTDEF
8
0
10
0.000000
20
0.000000
30
0.0
40
3.5
1

3

2
WY:0
70
0
0
ATTDEF
8
0
10
0.000000
20
0.000000
30
0.0
40
3.5
1

3

2
DESC:Labirinti slim
70
0
0
ATTDEF
8
0
10
0.000000
20
0.000000
30
0.0
40
3.5
1

3

2
DENS:0
70
0
0
ATTDEF
8
0
10
0.000000
20
0.000000
30
0.0
40
3.5
1

3

2
TDEV:0
70
0
0
ATTDEF
8
0
10
0.000000
20
0.000000
30
0.0
40
3.5
1

3

2
TDEV2:0
70
0
0
ATTDEF
8
0
10
0.000000
20
0.000000
30
0.0
40
3.5
1

3

2
TDEV3:0
70
0
0
ATTDEF
8
0
10
0.000000
20
0.000000
30
0.0
40
3.5
1

3

2
TDEV4:0
70
0
0
ATTDEF
8
0
10
0.000000
20
0.000000
30
0.0
40
3.5
1

3

2
TDEV5:0
70
0
0
ATTDEF
8
0
10
0.000000
20
0.000000
30
0.0
40
3.5
1

3

2
PANE_WIDTH:0
70
0
0
ATTDEF
8
0
10
0.000000
20
0.000000
30
0.0
40
3.5
1

3

2
MIN_VETRO:0
70
0
0
ATTDEF
8
0
10
0.000000
20
0.000000
30
0.0
40
3.5
1

3

2
MAX_VETRO:0
70
0
0
ATTDEF
8
0
10
0.000000
20
0.000000
30
0.0
40
3.5
1

3

2
JX:0
70
0
0
ATTDEF
8
0
10
0.000000
20
0.000000
30
0.0
40
3.5
1

3

2
WX:0
70
0
0
ATTDEF
8
0
10
0.000000
20
0.000000
30
0.0
40
3.5
1

3

2
JY:0
70
0
0
ATTDEF
8
0
10
0.000000
20
0.000000
30
0.0
40
3.5
1

3

2
WY:0
70
0
0
ENDSEC
0
EOF
