0
SECTION
2
ENTITIES
0
ARC
8
0
10
8.273516
20
190.040783
30
0.0
40
0.300000
50
60.000000
51
150.000000
0
LINE
8
0
10
8.423516
20
190.300591
30
0.0
11
8.520889
21
190.244373
31
0.0
0
ARC
8
0
10
9.863709
20
192.570206
30
0.0
40
2.685641
50
240.000000
51
308.715249
0
ARC
8
0
10
11.856169
20
190.084566
30
0.0
40
0.500000
50
90.000000
51
128.715249
0
LINE
8
0
10
11.856169
20
190.584566
30
0.0
11
14.463709
21
190.584566
31
0.0
0
ARC
8
0
10
14.463709
20
189.584566
30
0.0
40
1.000000
50
0.000000
51
90.000000
0
LINE
8
0
10
15.463709
20
189.584566
30
0.0
11
15.463709
21
187.184566
31
0.0
0
ARC
8
0
10
15.963709
20
187.184566
30
0.0
40
0.500000
50
180.000000
51
270.000000
0
LINE
8
0
10
15.963709
20
186.684566
30
0.0
11
18.663709
21
186.684566
31
0.0
0
ARC
8
0
10
18.663709
20
186.184566
30
0.0
40
0.500000
50
0.000000
51
90.000000
0
LINE
8
0
10
19.163709
20
186.184566
30
0.0
11
19.163709
21
185.184566
31
0.0
0
ARC
8
0
10
16.663709
20
185.184566
30
0.0
40
2.500000
50
305.327914
51
0.000000
0
ARC
8
0
10
19.844112
20
180.697358
30
0.0
40
3.000000
50
125.327914
51
162.414297
0
ARC
8
0
10
25.563709
20
178.884566
30
0.0
40
9.000000
50
162.414297
51
175.698778
0
ARC
8
0
10
17.586241
20
179.484566
30
0.0
40
1.000000
50
175.698778
51
355.698778
0
ARC
8
0
10
25.563709
20
178.884566
30
0.0
40
7.000000
50
163.923350
51
175.698778
0
ARC
8
0
10
19.317910
20
180.684566
30
0.0
40
0.500000
50
90.000000
51
163.923350
0
LINE
8
0
10
19.317910
20
181.184566
30
0.0
11
20.363709
21
181.184566
31
0.0
0
ARC
8
0
10
20.363709
20
180.684566
30
0.0
40
0.500000
50
0.000000
51
90.000000
0
LINE
8
0
10
20.863709
20
180.684566
30
0.0
11
20.863709
21
174.684566
31
0.0
0
ARC
8
0
10
20.363709
20
174.684566
30
0.0
40
0.500000
50
270.000000
51
0.000000
0
LINE
8
0
10
20.363709
20
174.184566
30
0.0
11
18.163709
21
174.184566
31
0.0
0
ARC
8
0
10
18.163709
20
174.484566
30
0.0
40
0.300000
50
180.000000
51
270.000000
0
LINE
8
0
10
17.863709
20
174.484566
30
0.0
11
17.863709
21
174.884566
31
0.0
0
ARC
8
0
10
18.163709
20
174.884566
30
0.0
40
0.300000
50
90.000000
51
180.000000
0
LINE
8
0
10
18.163709
20
175.184566
30
0.0
11
19.063709
21
175.184566
31
0.0
0
ARC
8
0
10
19.063709
20
175.484566
30
0.0
40
0.300000
50
270.000000
51
0.000000
0
LINE
8
0
10
19.363709
20
175.484566
30
0.0
11
19.363709
21
176.384566
31
0.0
0
ARC
8
0
10
19.063709
20
176.384566
30
0.0
40
0.300000
50
0.000000
51
90.000000
0
LINE
8
0
10
19.063709
20
176.684566
30
0.0
11
12.163709
21
176.684566
31
0.0
0
ARC
8
0
10
12.163709
20
176.384566
30
0.0
40
0.300000
50
90.000000
51
180.000000
0
LINE
8
0
10
11.863709
20
176.384566
30
0.0
11
11.863709
21
175.484566
31
0.0
0
ARC
8
0
10
12.163709
20
175.484566
30
0.0
40
0.300000
50
180.000000
51
270.000000
0
LINE
8
0
10
12.163709
20
175.184566
30
0.0
11
13.063709
21
175.184566
31
0.0
0
ARC
8
0
10
13.063709
20
174.884566
30
0.0
40
0.300000
50
0.000000
51
90.000000
0
LINE
8
0
10
13.363709
20
174.884566
30
0.0
11
13.363709
21
174.484566
31
0.0
0
ARC
8
0
10
13.063709
20
174.484566
30
0.0
40
0.300000
50
270.000000
51
0.000000
0
LINE
8
0
10
13.063709
20
174.184566
30
0.0
11
-4.436291
21
174.184566
31
0.0
0
ARC
8
0
10
-4.436291
20
174.684566
30
0.0
40
0.500000
50
180.000000
51
270.000000
0
LINE
8
0
10
-4.936291
20
174.684566
30
0.0
11
-4.936291
21
174.984566
31
0.0
0
ARC
8
0
10
-5.136291
20
174.984566
30
0.0
40
0.200000
50
0.000000
51
90.000000
0
LINE
8
0
10
-5.136291
20
175.184566
30
0.0
11
-5.586291
21
175.184566
31
0.0
0
ARC
8
0
10
-5.586291
20
175.434566
30
0.0
40
0.250000
50
180.000000
51
270.000000
0
LINE
8
0
10
-5.836291
20
175.434566
30
0.0
11
-5.836291
21
175.834566
31
0.0
0
ARC
8
0
10
-5.586291
20
175.834566
30
0.0
40
0.250000
50
90.000000
51
180.000000
0
LINE
8
0
10
-5.586291
20
176.084566
30
0.0
11
-5.136291
21
176.084566
31
0.0
0
ARC
8
0
10
-5.136291
20
176.284566
30
0.0
40
0.200000
50
270.000000
51
0.000000
0
LINE
8
0
10
-4.936291
20
176.284566
30
0.0
11
-4.936291
21
177.277459
31
0.0
0
ARC
8
0
10
-5.436291
20
177.277459
30
0.0
40
0.500000
50
0.000000
51
45.000000
0
LINE
8
0
10
-5.082738
20
177.631012
30
0.0
11
-7.748423
21
180.296698
31
0.0
0
ARC
8
0
10
-7.960555
20
180.084566
30
0.0
40
0.300000
50
45.000000
51
90.000000
0
LINE
8
0
10
-7.960555
20
180.384566
30
0.0
11
-9.286291
21
180.384566
31
0.0
0
LINE
8
0
10
-9.286291
20
180.384566
30
0.0
11
-9.586291
21
180.684566
31
0.0
0
LINE
8
0
10
-9.586291
20
180.684566
30
0.0
11
-9.886291
21
180.384566
31
0.0
0
LINE
8
0
10
-9.886291
20
180.384566
30
0.0
11
-11.212027
21
180.384566
31
0.0
0
ARC
8
0
10
-11.212027
20
180.084566
30
0.0
40
0.300000
50
90.000000
51
135.000000
0
LINE
8
0
10
-11.424159
20
180.296698
30
0.0
11
-14.089845
21
177.631012
31
0.0
0
ARC
8
0
10
-13.736291
20
177.277459
30
0.0
40
0.500000
50
135.000000
51
180.000000
0
LINE
8
0
10
-14.236291
20
177.277459
30
0.0
11
-14.236291
21
176.284566
31
0.0
0
ARC
8
0
10
-14.036291
20
176.284566
30
0.0
40
0.200000
50
180.000000
51
270.000000
0
LINE
8
0
10
-14.036291
20
176.084566
30
0.0
11
-13.586291
21
176.084566
31
0.0
0
ARC
8
0
10
-13.586291
20
175.834566
30
0.0
40
0.250000
50
0.000000
51
90.000000
0
LINE
8
0
10
-13.336291
20
175.834566
30
0.0
11
-13.336291
21
175.434566
31
0.0
0
ARC
8
0
10
-13.586291
20
175.434566
30
0.0
40
0.250000
50
270.000000
51
0.000000
0
LINE
8
0
10
-13.586291
20
175.184566
30
0.0
11
-14.036291
21
175.184566
31
0.0
0
ARC
8
0
10
-14.036291
20
174.984566
30
0.0
40
0.200000
50
90.000000
51
180.000000
0
LINE
8
0
10
-14.236291
20
174.984566
30
0.0
11
-14.236291
21
174.684566
31
0.0
0
ARC
8
0
10
-14.736291
20
174.684566
30
0.0
40
0.500000
50
270.000000
51
0.000000
0
LINE
8
0
10
-14.736291
20
174.184566
30
0.0
11
-23.436291
21
174.184566
31
0.0
0
ARC
8
0
10
-23.436291
20
175.184566
30
0.0
40
1.000000
50
180.000000
51
270.000000
0
LINE
8
0
10
-24.436291
20
175.184566
30
0.0
11
-24.436291
21
175.602666
31
0.0
0
ARC
8
0
10
-23.936291
20
175.602666
30
0.0
40
0.500000
50
105.000000
51
180.000000
0
LINE
8
0
10
-24.065701
20
176.085629
30
0.0
11
-20.706882
21
176.985622
31
0.0
0
ARC
8
0
10
-20.836291
20
177.468585
30
0.0
40
0.500000
50
285.000000
51
0.000000
0
LINE
8
0
10
-20.336291
20
177.468585
30
0.0
11
-20.336291
21
178.584566
31
0.0
0
ARC
8
0
10
-19.636291
20
178.584566
30
0.0
40
0.700000
50
90.000000
51
180.000000
0
ARC
8
0
10
-19.636291
20
178.984566
30
0.0
40
0.300000
50
0.000000
51
90.000000
0
LINE
8
0
10
-19.336291
20
178.984566
30
0.0
11
-19.336291
21
178.484566
31
0.0
0
ARC
8
0
10
-19.036291
20
178.484566
30
0.0
40
0.300000
50
180.000000
51
270.000000
0
LINE
8
0
10
-19.036291
20
178.184566
30
0.0
11
-18.863641
21
178.184566
31
0.0
0
ARC
8
0
10
-18.863641
20
179.184566
30
0.0
40
1.000000
50
270.000000
51
330.000000
0
LINE
8
0
10
-17.997616
20
178.684566
30
0.0
11
-17.003278
21
180.406809
31
0.0
0
ARC
8
0
10
-17.436291
20
180.656809
30
0.0
40
0.500000
50
330.000000
51
0.000000
0
LINE
8
0
10
-16.936291
20
180.656809
30
0.0
11
-16.936291
21
180.912322
31
0.0
0
ARC
8
0
10
-17.436291
20
180.912322
30
0.0
40
0.500000
50
0.000000
51
30.000000
0
LINE
8
0
10
-17.003278
20
181.162322
30
0.0
11
-17.997616
21
182.884566
31
0.0
0
ARC
8
0
10
-18.863641
20
182.384566
30
0.0
40
1.000000
50
30.000000
51
90.000000
0
LINE
8
0
10
-18.863641
20
183.384566
30
0.0
11
-19.036291
21
183.384566
31
0.0
0
ARC
8
0
10
-19.036291
20
183.084566
30
0.0
40
0.300000
50
90.000000
51
180.000000
0
LINE
8
0
10
-19.336291
20
183.084566
30
0.0
11
-19.336291
21
182.584566
31
0.0
0
ARC
8
0
10
-19.636291
20
182.584566
30
0.0
40
0.300000
50
270.000000
51
0.000000
0
ARC
8
0
10
-19.636291
20
182.984566
30
0.0
40
0.700000
50
180.000000
51
270.000000
0
LINE
8
0
10
-20.336291
20
182.984566
30
0.0
11
-20.336291
21
184.084566
31
0.0
0
ARC
8
0
10
-19.836291
20
184.084566
30
0.0
40
0.500000
50
90.000000
51
180.000000
0
LINE
8
0
10
-19.836291
20
184.584566
30
0.0
11
13.563709
21
184.584566
31
0.0
0
ARC
8
0
10
13.563709
20
185.084566
30
0.0
40
0.500000
50
270.000000
51
0.000000
0
LINE
8
0
10
14.063709
20
185.084566
30
0.0
11
14.063709
21
189.284566
31
0.0
0
ARC
8
0
10
13.763709
20
189.284566
30
0.0
40
0.300000
50
0.000000
51
90.000000
0
LINE
8
0
10
13.763709
20
189.584566
30
0.0
11
12.119789
21
189.584566
31
0.0
0
ARC
8
0
10
12.119789
20
189.284566
30
0.0
40
0.300000
50
90.000000
51
124.475378
0
ARC
8
0
10
9.863709
20
192.570206
30
0.0
40
3.685641
50
240.000000
51
304.475378
0
LINE
8
0
10
8.020889
20
189.378348
30
0.0
11
7.923516
21
189.434566
31
0.0
0
ARC
8
0
10
8.073516
20
189.694373
30
0.0
40
0.300000
50
150.000000
51
240.000000
0
LINE
8
0
10
7.813709
20
189.844373
30
0.0
11
8.013709
21
190.190783
31
0.0
0
ARC
8
0
10
-6.542179
20
182.484566
30
0.0
40
0.600000
50
90.000000
51
225.000000
0
LINE
8
0
10
-6.542179
20
183.084566
30
0.0
11
3.563709
21
183.084566
31
0.0
0
ARC
8
0
10
3.563709
20
182.584566
30
0.0
40
0.500000
50
0.000000
51
90.000000
0
LINE
8
0
10
4.063709
20
182.584566
30
0.0
11
4.063709
21
176.484566
31
0.0
0
ARC
8
0
10
3.563709
20
176.484566
30
0.0
40
0.500000
50
270.000000
51
0.000000
0
LINE
8
0
10
3.563709
20
175.984566
30
0.0
11
-2.636291
21
175.984566
31
0.0
0
ARC
8
0
10
-2.636291
20
176.484566
30
0.0
40
0.500000
50
180.000000
51
270.000000
0
LINE
8
0
10
-3.136291
20
176.484566
30
0.0
11
-3.136291
21
178.023043
31
0.0
0
ARC
8
0
10
-3.636291
20
178.023043
30
0.0
40
0.500000
50
0.000000
51
45.000000
0
LINE
8
0
10
-3.282738
20
178.376597
30
0.0
11
-6.966443
21
182.060301
31
0.0
0
ARC
8
0
10
14.163709
20
182.584566
30
0.0
40
0.500000
50
0.000000
51
90.000000
0
LINE
8
0
10
14.663709
20
182.584566
30
0.0
11
14.663709
21
178.684566
31
0.0
0
ARC
8
0
10
14.163709
20
178.684566
30
0.0
40
0.500000
50
270.000000
51
0.000000
0
LINE
8
0
10
14.163709
20
178.184566
30
0.0
11
10.863709
21
178.184566
31
0.0
0
ARC
8
0
10
10.863709
20
177.684566
30
0.0
40
0.500000
50
90.000000
51
180.000000
0
LINE
8
0
10
10.363709
20
177.684566
30
0.0
11
10.363709
21
176.484566
31
0.0
0
ARC
8
0
10
9.863709
20
176.484566
30
0.0
40
0.500000
50
270.000000
51
0.000000
0
LINE
8
0
10
9.863709
20
175.984566
30
0.0
11
5.763709
21
175.984566
31
0.0
0
ARC
8
0
10
5.763709
20
176.484566
30
0.0
40
0.500000
50
180.000000
51
270.000000
0
LINE
8
0
10
5.263709
20
176.484566
30
0.0
11
5.263709
21
182.584566
31
0.0
0
ARC
8
0
10
5.763709
20
182.584566
30
0.0
40
0.500000
50
90.000000
51
180.000000
0
LINE
8
0
10
5.763709
20
183.084566
30
0.0
11
14.163709
21
183.084566
31
0.0
0
LINE
8
0
10
-16.912960
20
176.963245
30
0.0
11
-16.469304
21
177.731680
31
0.0
0
ARC
8
0
10
-16.036291
20
177.481680
30
0.0
40
0.500000
50
0.000000
51
150.000000
0
LINE
8
0
10
-15.536291
20
177.481680
30
0.0
11
-15.536291
21
175.784566
31
0.0
0
ARC
8
0
10
-15.836291
20
175.784566
30
0.0
40
0.300000
50
270.000000
51
0.000000
0
LINE
8
0
10
-15.836291
20
175.484566
30
0.0
11
-18.836291
21
175.484566
31
0.0
0
ARC
8
0
10
-18.836291
20
175.784566
30
0.0
40
0.300000
50
180.000000
51
270.000000
0
LINE
8
0
10
-19.136291
20
175.784566
30
0.0
11
-19.136291
21
175.985694
31
0.0
0
ARC
8
0
10
-18.836291
20
175.985694
30
0.0
40
0.300000
50
105.000000
51
180.000000
0
LINE
8
0
10
-18.913937
20
176.275472
30
0.0
11
-17.216563
21
176.730282
31
0.0
0
ARC
8
0
10
-17.345973
20
177.213245
30
0.0
40
0.500000
50
285.000000
51
330.000000
0
LINE
8
0
10
-12.630404
20
183.084566
30
0.0
11
-15.168600
21
183.084566
31
0.0
0
ARC
8
0
10
-15.168600
20
182.584566
30
0.0
40
0.500000
50
90.000000
51
210.000000
0
LINE
8
0
10
-15.601612
20
182.334566
30
0.0
11
-14.584202
21
180.572359
31
0.0
0
ARC
8
0
10
-14.151189
20
180.822359
30
0.0
40
0.500000
50
210.000000
51
315.000000
0
LINE
8
0
10
-13.797636
20
180.468805
30
0.0
11
-12.206140
21
182.060301
31
0.0
0
ARC
8
0
10
-12.630404
20
182.484566
30
0.0
40
0.600000
50
315.000000
51
90.000000
0
ATTDEF
8
0
10
-20.336291
20
183.534566
30
0.0
40
3.5
1

3

2
HC_START
70
0
0
ATTDEF
8
0
10
20.863709
20
180.684566
30
0.0
40
3.5
1

3

2
HC_END
70
0
0
ATTDEF
8
0
10
20.863709
20
174.184566
30
0.0
40
3.5
1

3

2
FRONT_VIEW
70
0
0
ATTDEF
8
0
10
20.863709
20
174.184566
30
0.0
40
3.5
1

3

2
BL01:6500.000000,,1
70
0
0
ATTDEF
8
0
10
20.863709
20
174.184566
30
0.0
40
3.5
1

3

2
OPTI:500.000000,1,0,3000.000000,6500.000000,500.000000,0,0.000000,0
70
0
0
ATTDEF
8
0
10
20.863709
20
174.184566
30
0.0
40
3.5
1

3

2
GLASS_MIN:0.000000
70
0
0
ATTDEF
8
0
10
20.863709
20
174.184566
30
0.0
40
3.5
1

3

2
GLASS_MAX:0.000000
70
0
0
ATTDEF
8
0
10
20.863709
20
174.184566
30
0.0
40
3.5
1

3

2
FP_LCS_ORIG
70
0
0
ATTDEF
8
0
10
20.863709
20
184.184566
30
0.0
40
3.5
1

3

2
FP_LCS_HOT
70
0
0
ATTDEF
8
0
10
10.863709
20
174.184566
30
0.0
40
3.5
1

3

2
FP_LCS_INTERN
70
0
0
ATTDEF
8
0
10
0.000000
20
0.000000
30
0.0
40
3.5
1

3

2
TDEV2:0
70
0
0
ATTDEF
8
0
10
0.000000
20
0.000000
30
0.0
40
3.5
1

3

2
TDEV3:0
70
0
0
ATTDEF
8
0
10
0.000000
20
0.000000
30
0.0
40
3.5
1

3

2
TDEV4:0
70
0
0
ATTDEF
8
0
10
0.000000
20
0.000000
30
0.0
40
3.5
1

3

2
TDEV5:0
70
0
0
ATTDEF
8
0
10
0.000000
20
0.000000
30
0.0
40
3.5
1

3

2
PANE_WIDTH:0
70
0
0
ATTDEF
8
0
10
0.000000
20
0.000000
30
0.0
40
3.5
1

3

2
MIN_VETRO:0
70
0
0
ATTDEF
8
0
10
0.000000
20
0.000000
30
0.0
40
3.5
1

3

2
MAX_VETRO:0
70
0
0
ATTDEF
8
0
10
0.000000
20
0.000000
30
0.0
40
3.5
1

3

2
JX:0
70
0
0
ATTDEF
8
0
10
0.000000
20
0.000000
30
0.0
40
3.5
1

3

2
WX:0
70
0
0
ATTDEF
8
0
10
0.000000
20
0.000000
30
0.0
40
3.5
1

3

2
JY:0
70
0
0
ATTDEF
8
0
10
0.000000
20
0.000000
30
0.0
40
3.5
1

3

2
WY:0
70
0
0
ATTDEF
8
0
10
0.000000
20
0.000000
30
0.0
40
3.5
1

3

2
DESC:labirinto
70
0
0
ATTDEF
8
0
10
0.000000
20
0.000000
30
0.0
40
3.5
1

3

2
DENS:0
70
0
0
ATTDEF
8
0
10
0.000000
20
0.000000
30
0.0
40
3.5
1

3

2
TDEV:0
70
0
0
ATTDEF
8
0
10
0.000000
20
0.000000
30
0.0
40
3.5
1

3

2
TDEV2:0
70
0
0
ATTDEF
8
0
10
0.000000
20
0.000000
30
0.0
40
3.5
1

3

2
TDEV3:0
70
0
0
ATTDEF
8
0
10
0.000000
20
0.000000
30
0.0
40
3.5
1

3

2
TDEV4:0
70
0
0
ATTDEF
8
0
10
0.000000
20
0.000000
30
0.0
40
3.5
1

3

2
TDEV5:0
70
0
0
ATTDEF
8
0
10
0.000000
20
0.000000
30
0.0
40
3.5
1

3

2
PANE_WIDTH:0
70
0
0
ATTDEF
8
0
10
0.000000
20
0.000000
30
0.0
40
3.5
1

3

2
MIN_VETRO:0
70
0
0
ATTDEF
8
0
10
0.000000
20
0.000000
30
0.0
40
3.5
1

3

2
MAX_VETRO:0
70
0
0
ATTDEF
8
0
10
0.000000
20
0.000000
30
0.0
40
3.5
1

3

2
JX:0
70
0
0
ATTDEF
8
0
10
0.000000
20
0.000000
30
0.0
40
3.5
1

3

2
WX:0
70
0
0
ATTDEF
8
0
10
0.000000
20
0.000000
30
0.0
40
3.5
1

3

2
JY:0
70
0
0
ATTDEF
8
0
10
0.000000
20
0.000000
30
0.0
40
3.5
1

3

2
WY:0
70
0
0
ENDSEC
0
EOF
