0
SECTION
2
ENTITIES
0
ARC
8
0
10
-17.928764
20
136.534124
30
0.0
40
0.300000
50
0.000000
51
90.000000
0
LINE
8
0
10
-17.928764
20
136.834124
30
0.0
11
-29.828764
21
136.834124
31
0.0
0
ARC
8
0
10
-29.828764
20
135.834124
30
0.0
40
1.000000
50
90.000000
51
180.000000
0
LINE
8
0
10
-30.828764
20
135.834124
30
0.0
11
-30.828764
21
131.448746
31
0.0
0
ARC
8
0
10
-30.028764
20
131.448746
30
0.0
40
0.800000
50
180.000000
51
255.068583
0
LINE
8
0
10
-30.234894
20
130.675758
30
0.0
11
-29.551465
21
130.493511
31
0.0
0
ARC
8
0
10
-29.628764
20
130.203640
30
0.0
40
0.300000
50
0.000000
51
75.068583
0
LINE
8
0
10
-29.328764
20
130.203640
30
0.0
11
-29.328764
21
125.634124
31
0.0
0
ARC
8
0
10
-29.828764
20
125.634124
30
0.0
40
0.500000
50
270.000000
51
0.000000
0
LINE
8
0
10
-29.828764
20
125.134124
30
0.0
11
-54.421149
21
125.134124
31
0.0
0
LINE
8
0
10
-54.421149
20
125.134124
30
0.0
11
-54.421149
21
123.334124
31
0.0
0
LINE
8
0
10
-54.421149
20
123.334124
30
0.0
11
-48.327563
21
123.334124
31
0.0
0
ARC
8
0
10
-48.327563
20
122.834124
30
0.0
40
0.500000
50
0.000000
51
90.000000
0
LINE
8
0
10
-47.827563
20
122.834124
30
0.0
11
-47.827563
21
120.234124
31
0.0
0
ARC
8
0
10
-47.527563
20
120.234124
30
0.0
40
0.300000
50
180.000000
51
270.000000
0
LINE
8
0
10
-47.527563
20
119.934124
30
0.0
11
-46.527563
21
119.934124
31
0.0
0
ARC
8
0
10
-46.527563
20
120.234124
30
0.0
40
0.300000
50
270.000000
51
0.000000
0
LINE
8
0
10
-46.227563
20
120.234124
30
0.0
11
-46.227563
21
122.834124
31
0.0
0
ARC
8
0
10
-45.727563
20
122.834124
30
0.0
40
0.500000
50
90.000000
51
180.000000
0
LINE
8
0
10
-45.727563
20
123.334124
30
0.0
11
-29.828764
21
123.334124
31
0.0
0
ARC
8
0
10
-29.828764
20
122.834124
30
0.0
40
0.500000
50
0.000000
51
90.000000
0
LINE
8
0
10
-29.328764
20
122.834124
30
0.0
11
-29.328764
21
120.234124
31
0.0
0
ARC
8
0
10
-29.028764
20
120.234124
30
0.0
40
0.300000
50
180.000000
51
270.000000
0
LINE
8
0
10
-29.028764
20
119.934124
30
0.0
11
-27.828764
21
119.934124
31
0.0
0
ARC
8
0
10
-27.828764
20
120.234124
30
0.0
40
0.300000
50
270.000000
51
0.000000
0
LINE
8
0
10
-27.528764
20
120.234124
30
0.0
11
-27.528764
21
131.432885
31
0.0
0
ARC
8
0
10
-28.028764
20
131.432885
30
0.0
40
0.500000
50
0.000000
51
75.068583
0
LINE
8
0
10
-27.899933
20
131.916003
30
0.0
11
-28.657595
21
132.118046
31
0.0
0
ARC
8
0
10
-28.528764
20
132.601164
30
0.0
40
0.500000
50
180.000000
51
255.068583
0
LINE
8
0
10
-29.028764
20
132.601164
30
0.0
11
-29.028764
21
134.534124
31
0.0
0
ARC
8
0
10
-28.528764
20
134.534124
30
0.0
40
0.500000
50
90.000000
51
180.000000
0
LINE
8
0
10
-28.528764
20
135.034124
30
0.0
11
-21.473667
21
135.034124
31
0.0
0
ARC
8
0
10
-21.473667
20
135.334124
30
0.0
40
0.300000
50
270.000000
51
326.251011
0
ARC
8
0
10
-20.725336
20
134.834124
30
0.0
40
0.600000
50
303.748989
51
146.251011
0
ARC
8
0
10
-20.225336
20
134.085792
30
0.0
40
0.300000
50
123.748989
51
180.000000
0
LINE
8
0
10
-20.525336
20
134.085792
30
0.0
11
-20.525336
21
130.744197
31
0.0
0
ARC
8
0
10
-20.225336
20
130.744197
30
0.0
40
0.300000
50
180.000000
51
248.279152
0
LINE
8
0
10
-20.336361
20
130.465497
30
0.0
11
-20.072070
21
130.360212
31
0.0
0
ARC
8
0
10
-20.183096
20
130.081512
30
0.0
40
0.300000
50
340.000000
51
68.279152
0
LINE
8
0
10
-19.901188
20
129.978906
30
0.0
11
-20.898317
21
127.239319
31
0.0
0
ARC
8
0
10
-20.334513
20
127.034111
30
0.0
40
0.599987
50
160.000000
51
339.922274
0
LINE
8
0
10
-19.770988
20
126.828138
30
0.0
11
-18.537091
21
130.203986
31
0.0
0
ARC
8
0
10
-19.288474
20
130.478622
30
0.0
40
0.800000
50
339.922274
51
68.279152
0
LINE
8
0
10
-18.992406
20
131.221820
30
0.0
11
-19.136361
21
131.279168
31
0.0
0
ARC
8
0
10
-19.025336
20
131.557867
30
0.0
40
0.300000
50
180.000000
51
248.279152
0
LINE
8
0
10
-19.325336
20
131.557867
30
0.0
11
-19.325336
21
133.709859
31
0.0
0
ARC
8
0
10
-19.025336
20
133.709859
30
0.0
40
0.300000
50
135.000000
51
180.000000
0
LINE
8
0
10
-19.237468
20
133.921992
30
0.0
11
-18.813204
21
134.346256
31
0.0
0
ARC
8
0
10
-18.601072
20
134.134124
30
0.0
40
0.300000
50
90.000000
51
135.000000
0
LINE
8
0
10
-18.601072
20
134.434124
30
0.0
11
-17.928764
21
134.434124
31
0.0
0
ARC
8
0
10
-17.928764
20
134.734124
30
0.0
40
0.300000
50
270.000000
51
0.000000
0
LINE
8
0
10
-17.628764
20
134.734124
30
0.0
11
-17.628764
21
136.534124
31
0.0
0
ATTDEF
8
0
10
-54.421149
20
125.134124
30
0.0
40
3.5
1

3

2
VC_START
70
0
0
ATTDEF
8
0
10
-47.527563
20
119.934124
30
0.0
40
3.5
1

3

2
VC_END
70
0
0
ATTDEF
8
0
10
-54.421149
20
119.934124
30
0.0
40
3.5
1

3

2
FRONT_VIEW
70
0
0
ATTDEF
8
0
10
-54.421149
20
119.934124
30
0.0
40
3.5
1

3

2
BL01:6800.000000,,1
70
0
0
ATTDEF
8
0
10
-54.421149
20
119.934124
30
0.0
40
3.5
1

3

2
OPTI:500.000000,1,0,3000.000000,6500.000000,500.000000,0,0.000000,0
70
0
0
ATTDEF
8
0
10
-54.421149
20
119.934124
30
0.0
40
3.5
1

3

2
GLASS_MIN:0.000000
70
0
0
ATTDEF
8
0
10
-54.421149
20
119.934124
30
0.0
40
3.5
1

3

2
GLASS_MAX:0.000000
70
0
0
ATTDEF
8
0
10
-54.421149
20
119.934124
30
0.0
40
3.5
1

3

2
FP_LCS_ORIG
70
0
0
ATTDEF
8
0
10
-44.421149
20
119.934124
30
0.0
40
3.5
1

3

2
FP_LCS_HOT
70
0
0
ATTDEF
8
0
10
-54.421149
20
129.934124
30
0.0
40
3.5
1

3

2
FP_LCS_INTERN
70
0
0
ATTDEF
8
0
10
0.000000
20
0.000000
30
0.0
40
3.5
1

3

2
TDEV2:0
70
0
0
ATTDEF
8
0
10
0.000000
20
0.000000
30
0.0
40
3.5
1

3

2
TDEV3:0
70
0
0
ATTDEF
8
0
10
0.000000
20
0.000000
30
0.0
40
3.5
1

3

2
TDEV4:0
70
0
0
ATTDEF
8
0
10
0.000000
20
0.000000
30
0.0
40
3.5
1

3

2
TDEV5:0
70
0
0
ATTDEF
8
0
10
0.000000
20
0.000000
30
0.0
40
3.5
1

3

2
PANE_WIDTH:0
70
0
0
ATTDEF
8
0
10
0.000000
20
0.000000
30
0.0
40
3.5
1

3

2
MIN_VETRO:0
70
0
0
ATTDEF
8
0
10
0.000000
20
0.000000
30
0.0
40
3.5
1

3

2
MAX_VETRO:0
70
0
0
ATTDEF
8
0
10
0.000000
20
0.000000
30
0.0
40
3.5
1

3

2
JX:0
70
0
0
ATTDEF
8
0
10
0.000000
20
0.000000
30
0.0
40
3.5
1

3

2
WX:0
70
0
0
ATTDEF
8
0
10
0.000000
20
0.000000
30
0.0
40
3.5
1

3

2
JY:0
70
0
0
ATTDEF
8
0
10
0.000000
20
0.000000
30
0.0
40
3.5
1

3

2
WY:0
70
0
0
ATTDEF
8
0
10
0.000000
20
0.000000
30
0.0
40
3.5
1

3

2
DESC:Riporto soglia bassa
70
0
0
ATTDEF
8
0
10
0.000000
20
0.000000
30
0.0
40
3.5
1

3

2
DENS:0
70
0
0
ATTDEF
8
0
10
0.000000
20
0.000000
30
0.0
40
3.5
1

3

2
TDEV:0
70
0
0
ATTDEF
8
0
10
0.000000
20
0.000000
30
0.0
40
3.5
1

3

2
TDEV2:0
70
0
0
ATTDEF
8
0
10
0.000000
20
0.000000
30
0.0
40
3.5
1

3

2
TDEV3:0
70
0
0
ATTDEF
8
0
10
0.000000
20
0.000000
30
0.0
40
3.5
1

3

2
TDEV4:0
70
0
0
ATTDEF
8
0
10
0.000000
20
0.000000
30
0.0
40
3.5
1

3

2
TDEV5:0
70
0
0
ATTDEF
8
0
10
0.000000
20
0.000000
30
0.0
40
3.5
1

3

2
PANE_WIDTH:0
70
0
0
ATTDEF
8
0
10
0.000000
20
0.000000
30
0.0
40
3.5
1

3

2
MIN_VETRO:0
70
0
0
ATTDEF
8
0
10
0.000000
20
0.000000
30
0.0
40
3.5
1

3

2
MAX_VETRO:0
70
0
0
ATTDEF
8
0
10
0.000000
20
0.000000
30
0.0
40
3.5
1

3

2
JX:0
70
0
0
ATTDEF
8
0
10
0.000000
20
0.000000
30
0.0
40
3.5
1

3

2
WX:0
70
0
0
ATTDEF
8
0
10
0.000000
20
0.000000
30
0.0
40
3.5
1

3

2
JY:0
70
0
0
ATTDEF
8
0
10
0.000000
20
0.000000
30
0.0
40
3.5
1

3

2
WY:0
70
0
0
ENDSEC
0
EOF
