0
SECTION
2
ENTITIES
0
ARC
8
0
10
66.416052
20
148.723817
30
0.0
40
0.500000
50
90.000000
51
180.000000
0
LINE
8
0
10
65.916052
20
148.723817
30
0.0
11
65.916052
21
143.323817
31
0.0
0
ARC
8
0
10
66.416052
20
143.323817
30
0.0
40
0.500000
50
180.000000
51
270.000000
0
LINE
8
0
10
66.416052
20
142.823817
30
0.0
11
69.116052
21
142.823817
31
0.0
0
ARC
8
0
10
69.116052
20
143.323817
30
0.0
40
0.500000
50
270.000000
51
0.000000
0
LINE
8
0
10
69.616052
20
143.323817
30
0.0
11
69.616052
21
148.723817
31
0.0
0
ARC
8
0
10
69.116052
20
148.723817
30
0.0
40
0.500000
50
0.000000
51
90.000000
0
LINE
8
0
10
69.116052
20
149.223817
30
0.0
11
66.416052
21
149.223817
31
0.0
0
LINE
8
0
10
62.525775
20
158.923817
30
0.0
11
62.525775
21
151.523817
31
0.0
0
ARC
8
0
10
63.025775
20
151.523817
30
0.0
40
0.500000
50
180.000000
51
270.000000
0
LINE
8
0
10
63.025775
20
151.023817
30
0.0
11
69.116052
21
151.023817
31
0.0
0
ARC
8
0
10
69.116052
20
151.523817
30
0.0
40
0.500000
50
270.000000
51
0.000000
0
LINE
8
0
10
69.616052
20
151.523817
30
0.0
11
69.616052
21
158.923817
31
0.0
0
ARC
8
0
10
69.116052
20
158.923817
30
0.0
40
0.500000
50
0.000000
51
90.000000
0
LINE
8
0
10
69.116052
20
159.423817
30
0.0
11
63.025775
21
159.423817
31
0.0
0
ARC
8
0
10
63.025775
20
158.923817
30
0.0
40
0.500000
50
90.000000
51
180.000000
0
LINE
8
0
10
56.653975
20
171.823817
30
0.0
11
60.225775
21
171.823817
31
0.0
0
ARC
8
0
10
60.225775
20
170.823817
30
0.0
40
1.000000
50
0.000000
51
90.000000
0
LINE
8
0
10
61.225775
20
170.823817
30
0.0
11
61.225775
21
151.523817
31
0.0
0
ARC
8
0
10
60.725775
20
151.523817
30
0.0
40
0.500000
50
270.000000
51
0.000000
0
LINE
8
0
10
60.725775
20
151.023817
30
0.0
11
57.216052
21
151.023817
31
0.0
0
ARC
8
0
10
57.216052
20
151.523817
30
0.0
40
0.500000
50
180.000000
51
270.000000
0
LINE
8
0
10
56.716052
20
151.523817
30
0.0
11
56.716052
21
168.048635
31
0.0
0
LINE
8
0
10
56.716052
20
168.048635
30
0.0
11
56.708456
21
168.135459
31
0.0
0
LINE
8
0
10
56.708456
20
168.135459
30
0.0
11
56.161571
21
171.236993
31
0.0
0
ARC
8
0
10
56.653975
20
171.323817
30
0.0
40
0.500000
50
90.000000
51
190.000000
0
ARC
8
0
10
97.816052
20
148.723817
30
0.0
40
0.500000
50
0.000000
51
90.000000
0
LINE
8
0
10
98.316052
20
148.723817
30
0.0
11
98.316052
21
143.323817
31
0.0
0
ARC
8
0
10
97.816052
20
143.323817
30
0.0
40
0.500000
50
270.000000
51
0.000000
0
LINE
8
0
10
97.816052
20
142.823817
30
0.0
11
95.116052
21
142.823817
31
0.0
0
ARC
8
0
10
95.116052
20
143.323817
30
0.0
40
0.500000
50
180.000000
51
270.000000
0
LINE
8
0
10
94.616052
20
143.323817
30
0.0
11
94.616052
21
148.723817
31
0.0
0
ARC
8
0
10
95.116052
20
148.723817
30
0.0
40
0.500000
50
90.000000
51
180.000000
0
LINE
8
0
10
95.116052
20
149.223817
30
0.0
11
97.816052
21
149.223817
31
0.0
0
LINE
8
0
10
101.706329
20
158.923817
30
0.0
11
101.706329
21
151.523817
31
0.0
0
ARC
8
0
10
101.206329
20
151.523817
30
0.0
40
0.500000
50
270.000000
51
0.000000
0
LINE
8
0
10
101.206329
20
151.023817
30
0.0
11
95.116052
21
151.023817
31
0.0
0
ARC
8
0
10
95.116052
20
151.523817
30
0.0
40
0.500000
50
180.000000
51
270.000000
0
LINE
8
0
10
94.616052
20
151.523817
30
0.0
11
94.616052
21
158.923817
31
0.0
0
ARC
8
0
10
95.116052
20
158.923817
30
0.0
40
0.500000
50
90.000000
51
180.000000
0
LINE
8
0
10
95.116052
20
159.423817
30
0.0
11
101.206329
21
159.423817
31
0.0
0
ARC
8
0
10
101.206329
20
158.923817
30
0.0
40
0.500000
50
0.000000
51
90.000000
0
LINE
8
0
10
107.578128
20
171.823817
30
0.0
11
104.006329
21
171.823817
31
0.0
0
ARC
8
0
10
104.006329
20
170.823817
30
0.0
40
1.000000
50
90.000000
51
180.000000
0
LINE
8
0
10
103.006329
20
170.823817
30
0.0
11
103.006329
21
151.523817
31
0.0
0
ARC
8
0
10
103.506329
20
151.523817
30
0.0
40
0.500000
50
180.000000
51
270.000000
0
LINE
8
0
10
103.506329
20
151.023817
30
0.0
11
107.016052
21
151.023817
31
0.0
0
ARC
8
0
10
107.016052
20
151.523817
30
0.0
40
0.500000
50
270.000000
51
0.000000
0
LINE
8
0
10
107.516052
20
151.523817
30
0.0
11
107.516052
21
168.048635
31
0.0
0
LINE
8
0
10
107.523648
20
168.135459
30
0.0
11
107.516052
21
168.048635
31
0.0
0
LINE
8
0
10
107.523648
20
168.135459
30
0.0
11
108.070532
21
171.236993
31
0.0
0
ARC
8
0
10
107.578128
20
171.323817
30
0.0
40
0.500000
50
350.000000
51
90.000000
0
LINE
8
0
10
70.416052
20
170.223817
30
0.0
11
70.416052
21
171.323817
31
0.0
0
ARC
8
0
10
70.616052
20
171.323817
30
0.0
40
0.200000
50
90.000000
51
180.000000
0
LINE
8
0
10
70.616052
20
171.523817
30
0.0
11
70.716052
21
171.523817
31
0.0
0
ARC
8
0
10
70.716052
20
171.723817
30
0.0
40
0.200000
50
270.000000
51
0.000000
0
LINE
8
0
10
70.916052
20
171.723817
30
0.0
11
70.916052
21
174.323817
31
0.0
0
ARC
8
0
10
70.416052
20
174.323817
30
0.0
40
0.500000
50
0.000000
51
90.000000
0
LINE
8
0
10
70.416052
20
174.823817
30
0.0
11
70.216052
21
174.823817
31
0.0
0
ARC
8
0
10
70.216052
20
174.323817
30
0.0
40
0.500000
50
90.000000
51
180.000000
0
LINE
8
0
10
69.716052
20
174.323817
30
0.0
11
69.716052
21
173.623817
31
0.0
0
ARC
8
0
10
69.416052
20
173.623817
30
0.0
40
0.300000
50
270.000000
51
0.000000
0
LINE
8
0
10
69.416052
20
173.323817
30
0.0
11
57.016052
21
173.323817
31
0.0
0
ARC
8
0
10
57.016052
20
173.623817
30
0.0
40
0.300000
50
180.000000
51
270.000000
0
LINE
8
0
10
56.716052
20
173.623817
30
0.0
11
56.716052
21
174.023817
31
0.0
0
ARC
8
0
10
56.416052
20
174.023817
30
0.0
40
0.300000
50
0.000000
51
90.000000
0
LINE
8
0
10
56.416052
20
174.323817
30
0.0
11
55.716052
21
174.323817
31
0.0
0
ARC
8
0
10
55.716052
20
174.023817
30
0.0
40
0.300000
50
90.000000
51
180.000000
0
LINE
8
0
10
55.416052
20
174.023817
30
0.0
11
55.416052
21
173.423817
31
0.0
0
ARC
8
0
10
55.016052
20
173.423817
30
0.0
40
0.400000
50
270.000000
51
0.000000
0
ARC
8
0
10
55.016052
20
172.623817
30
0.0
40
0.400000
50
90.000000
51
180.000000
0
LINE
8
0
10
54.616052
20
172.623817
30
0.0
11
54.616052
21
172.559414
31
0.0
0
LINE
8
0
10
54.616052
20
172.559414
30
0.0
11
54.623648
21
172.472590
31
0.0
0
LINE
8
0
10
54.623648
20
172.472590
30
0.0
11
55.408456
21
168.021724
31
0.0
0
LINE
8
0
10
55.416052
20
167.934900
30
0.0
11
55.408456
21
168.021724
31
0.0
0
LINE
8
0
10
55.416052
20
167.934900
30
0.0
11
55.416052
21
151.323817
31
0.0
0
ARC
8
0
10
57.016052
20
151.323817
30
0.0
40
1.600000
50
180.000000
51
270.000000
0
LINE
8
0
10
57.016052
20
149.723817
30
0.0
11
64.116052
21
149.723817
31
0.0
0
ARC
8
0
10
64.116052
20
149.223817
30
0.0
40
0.500000
50
0.000000
51
90.000000
0
LINE
8
0
10
64.616052
20
149.223817
30
0.0
11
64.616052
21
140.323817
31
0.0
0
ARC
8
0
10
65.116052
20
140.323817
30
0.0
40
0.500000
50
180.000000
51
270.000000
0
LINE
8
0
10
65.116052
20
139.823817
30
0.0
11
72.816052
21
139.823817
31
0.0
0
ARC
8
0
10
72.816052
20
140.123817
30
0.0
40
0.300000
50
270.000000
51
0.000000
0
LINE
8
0
10
73.116052
20
140.123817
30
0.0
11
73.116052
21
140.323817
31
0.0
0
ARC
8
0
10
73.416052
20
140.323817
30
0.0
40
0.300000
50
90.000000
51
180.000000
0
LINE
8
0
10
73.416052
20
140.623817
30
0.0
11
77.816052
21
140.623817
31
0.0
0
ARC
8
0
10
77.816052
20
140.323817
30
0.0
40
0.300000
50
0.000000
51
90.000000
0
LINE
8
0
10
78.116052
20
140.323817
30
0.0
11
78.116052
21
140.123817
31
0.0
0
ARC
8
0
10
78.416052
20
140.123817
30
0.0
40
0.300000
50
180.000000
51
270.000000
0
LINE
8
0
10
78.416052
20
139.823817
30
0.0
11
85.816052
21
139.823817
31
0.0
0
ARC
8
0
10
85.816052
20
140.123817
30
0.0
40
0.300000
50
270.000000
51
0.000000
0
LINE
8
0
10
86.116052
20
140.123817
30
0.0
11
86.116052
21
140.323817
31
0.0
0
ARC
8
0
10
86.416052
20
140.323817
30
0.0
40
0.300000
50
90.000000
51
180.000000
0
LINE
8
0
10
86.416052
20
140.623817
30
0.0
11
90.816052
21
140.623817
31
0.0
0
ARC
8
0
10
90.816052
20
140.323817
30
0.0
40
0.300000
50
0.000000
51
90.000000
0
LINE
8
0
10
91.116052
20
140.323817
30
0.0
11
91.116052
21
140.123817
31
0.0
0
ARC
8
0
10
91.416052
20
140.123817
30
0.0
40
0.300000
50
180.000000
51
270.000000
0
LINE
8
0
10
91.416052
20
139.823817
30
0.0
11
99.116052
21
139.823817
31
0.0
0
ARC
8
0
10
99.116052
20
140.323817
30
0.0
40
0.500000
50
270.000000
51
0.000000
0
LINE
8
0
10
99.616052
20
140.323817
30
0.0
11
99.616052
21
149.223817
31
0.0
0
ARC
8
0
10
100.116052
20
149.223817
30
0.0
40
0.500000
50
90.000000
51
180.000000
0
LINE
8
0
10
100.116052
20
149.723817
30
0.0
11
107.216052
21
149.723817
31
0.0
0
ARC
8
0
10
107.216052
20
151.323817
30
0.0
40
1.600000
50
270.000000
51
0.000000
0
LINE
8
0
10
108.816052
20
151.323817
30
0.0
11
108.816052
21
167.934900
31
0.0
0
LINE
8
0
10
108.823648
20
168.021724
30
0.0
11
108.816052
21
167.934900
31
0.0
0
LINE
8
0
10
108.823648
20
168.021724
30
0.0
11
109.608456
21
172.472590
31
0.0
0
LINE
8
0
10
109.608456
20
172.472590
30
0.0
11
109.616052
21
172.559414
31
0.0
0
LINE
8
0
10
109.616052
20
172.559414
30
0.0
11
109.616052
21
172.623817
31
0.0
0
ARC
8
0
10
109.216052
20
172.623817
30
0.0
40
0.400000
50
0.000000
51
90.000000
0
ARC
8
0
10
109.216052
20
173.423817
30
0.0
40
0.400000
50
180.000000
51
270.000000
0
LINE
8
0
10
108.816052
20
173.423817
30
0.0
11
108.816052
21
174.023817
31
0.0
0
ARC
8
0
10
108.516052
20
174.023817
30
0.0
40
0.300000
50
0.000000
51
90.000000
0
LINE
8
0
10
108.516052
20
174.323817
30
0.0
11
107.816052
21
174.323817
31
0.0
0
ARC
8
0
10
107.816052
20
174.023817
30
0.0
40
0.300000
50
90.000000
51
180.000000
0
LINE
8
0
10
107.516052
20
174.023817
30
0.0
11
107.516052
21
173.623817
31
0.0
0
ARC
8
0
10
107.216052
20
173.623817
30
0.0
40
0.300000
50
270.000000
51
0.000000
0
LINE
8
0
10
107.216052
20
173.323817
30
0.0
11
94.816052
21
173.323817
31
0.0
0
ARC
8
0
10
94.816052
20
173.623817
30
0.0
40
0.300000
50
180.000000
51
270.000000
0
LINE
8
0
10
94.516052
20
173.623817
30
0.0
11
94.516052
21
174.323817
31
0.0
0
ARC
8
0
10
94.016052
20
174.323817
30
0.0
40
0.500000
50
0.000000
51
90.000000
0
LINE
8
0
10
94.016052
20
174.823817
30
0.0
11
93.816052
21
174.823817
31
0.0
0
ARC
8
0
10
93.816052
20
174.323817
30
0.0
40
0.500000
50
90.000000
51
180.000000
0
LINE
8
0
10
93.316052
20
174.323817
30
0.0
11
93.316052
21
171.723817
31
0.0
0
ARC
8
0
10
93.516052
20
171.723817
30
0.0
40
0.200000
50
180.000000
51
270.000000
0
LINE
8
0
10
93.516052
20
171.523817
30
0.0
11
93.616052
21
171.523817
31
0.0
0
ARC
8
0
10
93.616052
20
171.323817
30
0.0
40
0.200000
50
0.000000
51
90.000000
0
LINE
8
0
10
93.816052
20
171.323817
30
0.0
11
93.816052
21
170.223817
31
0.0
0
ARC
8
0
10
94.516052
20
170.223817
30
0.0
40
0.700000
50
180.000000
51
270.000000
0
LINE
8
0
10
94.516052
20
169.523817
30
0.0
11
94.616052
21
169.523817
31
0.0
0
ARC
8
0
10
94.616052
20
169.823817
30
0.0
40
0.300000
50
270.000000
51
0.000000
0
LINE
8
0
10
94.916052
20
169.823817
30
0.0
11
94.916052
21
171.223817
31
0.0
0
ARC
8
0
10
95.216052
20
171.223817
30
0.0
40
0.300000
50
90.000000
51
180.000000
0
LINE
8
0
10
95.216052
20
171.523817
30
0.0
11
100.906329
21
171.523817
31
0.0
0
ARC
8
0
10
100.906329
20
170.723817
30
0.0
40
0.800000
50
0.000000
51
90.000000
0
LINE
8
0
10
101.706329
20
170.723817
30
0.0
11
101.706329
21
161.523817
31
0.0
0
ARC
8
0
10
100.906329
20
161.523817
30
0.0
40
0.800000
50
270.000000
51
0.000000
0
LINE
8
0
10
100.906329
20
160.723817
30
0.0
11
95.216052
21
160.723817
31
0.0
0
ARC
8
0
10
95.216052
20
161.023817
30
0.0
40
0.300000
50
180.000000
51
270.000000
0
LINE
8
0
10
94.916052
20
161.023817
30
0.0
11
94.916052
21
162.423817
31
0.0
0
ARC
8
0
10
94.616052
20
162.423817
30
0.0
40
0.300000
50
0.000000
51
90.000000
0
LINE
8
0
10
94.616052
20
162.723817
30
0.0
11
94.516052
21
162.723817
31
0.0
0
ARC
8
0
10
94.516052
20
162.023817
30
0.0
40
0.700000
50
90.000000
51
180.000000
0
LINE
8
0
10
93.816052
20
162.023817
30
0.0
11
93.816052
21
160.923817
31
0.0
0
ARC
8
0
10
93.616052
20
160.923817
30
0.0
40
0.200000
50
270.000000
51
0.000000
0
LINE
8
0
10
93.616052
20
160.723817
30
0.0
11
93.516052
21
160.723817
31
0.0
0
ARC
8
0
10
93.516052
20
160.523817
30
0.0
40
0.200000
50
90.000000
51
180.000000
0
LINE
8
0
10
93.316052
20
160.523817
30
0.0
11
93.316052
21
151.723817
31
0.0
0
ARC
8
0
10
92.816052
20
151.723817
30
0.0
40
0.500000
50
270.000000
51
0.000000
0
LINE
8
0
10
92.816052
20
151.223817
30
0.0
11
91.516052
21
151.223817
31
0.0
0
ARC
8
0
10
91.516052
20
150.723817
30
0.0
40
0.500000
50
90.000000
51
180.000000
0
LINE
8
0
10
91.016052
20
150.723817
30
0.0
11
91.016052
21
149.723817
31
0.0
0
ARC
8
0
10
91.516052
20
149.723817
30
0.0
40
0.500000
50
180.000000
51
270.000000
0
LINE
8
0
10
91.516052
20
149.223817
30
0.0
11
92.816052
21
149.223817
31
0.0
0
ARC
8
0
10
92.816052
20
148.723817
30
0.0
40
0.500000
50
0.000000
51
90.000000
0
LINE
8
0
10
93.316052
20
148.723817
30
0.0
11
93.316052
21
144.823817
31
0.0
0
ARC
8
0
10
91.316052
20
144.823817
30
0.0
40
2.000000
50
270.000000
51
0.000000
0
LINE
8
0
10
91.316052
20
142.823817
30
0.0
11
82.716052
21
142.823817
31
0.0
0
LINE
8
0
10
82.716052
20
142.823817
30
0.0
11
82.116052
21
142.223817
31
0.0
0
LINE
8
0
10
82.116052
20
142.223817
30
0.0
11
81.516052
21
142.823817
31
0.0
0
LINE
8
0
10
81.516052
20
142.823817
30
0.0
11
72.916052
21
142.823817
31
0.0
0
ARC
8
0
10
72.916052
20
144.823817
30
0.0
40
2.000000
50
180.000000
51
270.000000
0
LINE
8
0
10
70.916052
20
144.823817
30
0.0
11
70.916052
21
148.723817
31
0.0
0
ARC
8
0
10
71.416052
20
148.723817
30
0.0
40
0.500000
50
90.000000
51
180.000000
0
LINE
8
0
10
71.416052
20
149.223817
30
0.0
11
72.716052
21
149.223817
31
0.0
0
ARC
8
0
10
72.716052
20
149.723817
30
0.0
40
0.500000
50
270.000000
51
0.000000
0
LINE
8
0
10
73.216052
20
149.723817
30
0.0
11
73.216052
21
150.723817
31
0.0
0
ARC
8
0
10
72.716052
20
150.723817
30
0.0
40
0.500000
50
0.000000
51
90.000000
0
LINE
8
0
10
72.716052
20
151.223817
30
0.0
11
71.416052
21
151.223817
31
0.0
0
ARC
8
0
10
71.416052
20
151.723817
30
0.0
40
0.500000
50
180.000000
51
270.000000
0
LINE
8
0
10
70.916052
20
151.723817
30
0.0
11
70.916052
21
160.523817
31
0.0
0
ARC
8
0
10
70.716052
20
160.523817
30
0.0
40
0.200000
50
0.000000
51
90.000000
0
LINE
8
0
10
70.716052
20
160.723817
30
0.0
11
70.616052
21
160.723817
31
0.0
0
ARC
8
0
10
70.616052
20
160.923817
30
0.0
40
0.200000
50
180.000000
51
270.000000
0
LINE
8
0
10
70.416052
20
160.923817
30
0.0
11
70.416052
21
162.023817
31
0.0
0
ARC
8
0
10
69.716052
20
162.023817
30
0.0
40
0.700000
50
0.000000
51
90.000000
0
LINE
8
0
10
69.716052
20
162.723817
30
0.0
11
69.616052
21
162.723817
31
0.0
0
ARC
8
0
10
69.616052
20
162.423817
30
0.0
40
0.300000
50
90.000000
51
180.000000
0
LINE
8
0
10
69.316052
20
162.423817
30
0.0
11
69.316052
21
161.023817
31
0.0
0
ARC
8
0
10
69.016052
20
161.023817
30
0.0
40
0.300000
50
270.000000
51
0.000000
0
LINE
8
0
10
69.016052
20
160.723817
30
0.0
11
63.325775
21
160.723817
31
0.0
0
ARC
8
0
10
63.325775
20
161.523817
30
0.0
40
0.800000
50
180.000000
51
270.000000
0
LINE
8
0
10
62.525775
20
161.523817
30
0.0
11
62.525775
21
170.723817
31
0.0
0
ARC
8
0
10
63.325775
20
170.723817
30
0.0
40
0.800000
50
90.000000
51
180.000000
0
LINE
8
0
10
63.325775
20
171.523817
30
0.0
11
69.016052
21
171.523817
31
0.0
0
ARC
8
0
10
69.016052
20
171.223817
30
0.0
40
0.300000
50
0.000000
51
90.000000
0
LINE
8
0
10
69.316052
20
171.223817
30
0.0
11
69.316052
21
169.823817
31
0.0
0
ARC
8
0
10
69.616052
20
169.823817
30
0.0
40
0.300000
50
180.000000
51
270.000000
0
LINE
8
0
10
69.616052
20
169.523817
30
0.0
11
69.716052
21
169.523817
31
0.0
0
ARC
8
0
10
69.716052
20
170.223817
30
0.0
40
0.700000
50
270.000000
51
0.000000
0
ATTDEF
8
0
10
72.816052
20
139.823817
30
0.0
40
3.5
1

3

2
VC_START
70
0
0
ATTDEF
8
0
10
72.716052
20
151.223817
30
0.0
40
3.5
1

3

2
VC_END
70
0
0
ATTDEF
8
0
10
54.616052
20
174.823817
30
0.0
40
3.5
1

3

2
FRONT_VIEW
70
0
0
ATTDEF
8
0
10
54.616052
20
174.823817
30
0.0
40
3.5
1

3

2
BL01:6800.000000,,1
70
0
0
ATTDEF
8
0
10
54.616052
20
174.823817
30
0.0
40
3.5
1

3

2
OPTI:500.000000,1,0,3000.000000,6500.000000,500.000000,0,0.000000,0
70
0
0
ATTDEF
8
0
10
54.616052
20
174.823817
30
0.0
40
3.5
1

3

2
GLASS_MIN:0.000000
70
0
0
ATTDEF
8
0
10
54.616052
20
174.823817
30
0.0
40
3.5
1

3

2
GLASS_MAX:0.000000
70
0
0
ATTDEF
8
0
10
54.616052
20
174.823817
30
0.0
40
3.5
1

3

2
FP_LCS_ORIG
70
0
0
ATTDEF
8
0
10
64.616052
20
174.823817
30
0.0
40
3.5
1

3

2
FP_LCS_HOT
70
0
0
ATTDEF
8
0
10
54.616052
20
164.823817
30
0.0
40
3.5
1

3

2
FP_LCS_INTERN
70
0
0
ATTDEF
8
0
10
0.000000
20
0.000000
30
0.0
40
3.5
1

3

2
TDEV2:0
70
0
0
ATTDEF
8
0
10
0.000000
20
0.000000
30
0.0
40
3.5
1

3

2
TDEV3:0
70
0
0
ATTDEF
8
0
10
0.000000
20
0.000000
30
0.0
40
3.5
1

3

2
TDEV4:0
70
0
0
ATTDEF
8
0
10
0.000000
20
0.000000
30
0.0
40
3.5
1

3

2
TDEV5:0
70
0
0
ATTDEF
8
0
10
0.000000
20
0.000000
30
0.0
40
3.5
1

3

2
PANE_WIDTH:0
70
0
0
ATTDEF
8
0
10
0.000000
20
0.000000
30
0.0
40
3.5
1

3

2
MIN_VETRO:0
70
0
0
ATTDEF
8
0
10
0.000000
20
0.000000
30
0.0
40
3.5
1

3

2
MAX_VETRO:0
70
0
0
ATTDEF
8
0
10
0.000000
20
0.000000
30
0.0
40
3.5
1

3

2
JX:0
70
0
0
ATTDEF
8
0
10
0.000000
20
0.000000
30
0.0
40
3.5
1

3

2
WX:0
70
0
0
ATTDEF
8
0
10
0.000000
20
0.000000
30
0.0
40
3.5
1

3

2
JY:0
70
0
0
ATTDEF
8
0
10
0.000000
20
0.000000
30
0.0
40
3.5
1

3

2
WY:0
70
0
0
ATTDEF
8
0
10
0.000000
20
0.000000
30
0.0
40
3.5
1

3

2
DESC:Cover anta Pvc
70
0
0
ATTDEF
8
0
10
0.000000
20
0.000000
30
0.0
40
3.5
1

3

2
DENS:0
70
0
0
ATTDEF
8
0
10
0.000000
20
0.000000
30
0.0
40
3.5
1

3

2
TDEV:0
70
0
0
ATTDEF
8
0
10
0.000000
20
0.000000
30
0.0
40
3.5
1

3

2
TDEV2:0
70
0
0
ATTDEF
8
0
10
0.000000
20
0.000000
30
0.0
40
3.5
1

3

2
TDEV3:0
70
0
0
ATTDEF
8
0
10
0.000000
20
0.000000
30
0.0
40
3.5
1

3

2
TDEV4:0
70
0
0
ATTDEF
8
0
10
0.000000
20
0.000000
30
0.0
40
3.5
1

3

2
TDEV5:0
70
0
0
ATTDEF
8
0
10
0.000000
20
0.000000
30
0.0
40
3.5
1

3

2
PANE_WIDTH:0
70
0
0
ATTDEF
8
0
10
0.000000
20
0.000000
30
0.0
40
3.5
1

3

2
MIN_VETRO:0
70
0
0
ATTDEF
8
0
10
0.000000
20
0.000000
30
0.0
40
3.5
1

3

2
MAX_VETRO:0
70
0
0
ATTDEF
8
0
10
0.000000
20
0.000000
30
0.0
40
3.5
1

3

2
JX:0
70
0
0
ATTDEF
8
0
10
0.000000
20
0.000000
30
0.0
40
3.5
1

3

2
WX:0
70
0
0
ATTDEF
8
0
10
0.000000
20
0.000000
30
0.0
40
3.5
1

3

2
JY:0
70
0
0
ATTDEF
8
0
10
0.000000
20
0.000000
30
0.0
40
3.5
1

3

2
WY:0
70
0
0
ENDSEC
0
EOF
