0
SECTION
2
ENTITIES
0
ARC
8
0
10
34.746874
20
169.937465
30
0.0
40
0.300000
50
0.000000
51
90.000000
0
LINE
8
0
10
35.046874
20
169.937465
30
0.0
11
35.046874
21
166.937465
31
0.0
0
ARC
8
0
10
35.546874
20
166.937465
30
0.0
40
0.500000
50
180.000000
51
270.000000
0
LINE
8
0
10
35.546874
20
166.437465
30
0.0
11
44.346874
21
166.437465
31
0.0
0
ARC
8
0
10
44.346874
20
166.937465
30
0.0
40
0.500000
50
270.000000
51
0.000000
0
LINE
8
0
10
44.846874
20
166.937465
30
0.0
11
44.846874
21
169.937465
31
0.0
0
ARC
8
0
10
45.146874
20
169.937465
30
0.0
40
0.300000
50
90.000000
51
180.000000
0
LINE
8
0
10
45.146874
20
170.237465
30
0.0
11
46.146874
21
170.237465
31
0.0
0
ARC
8
0
10
46.146874
20
169.937465
30
0.0
40
0.300000
50
0.000000
51
90.000000
0
LINE
8
0
10
46.446874
20
169.937465
30
0.0
11
46.446874
21
166.937465
31
0.0
0
ARC
8
0
10
46.946874
20
166.937465
30
0.0
40
0.500000
50
180.000000
51
270.000000
0
LINE
8
0
10
46.946874
20
166.437465
30
0.0
11
59.346874
21
166.437465
31
0.0
0
ARC
8
0
10
59.346874
20
166.937465
30
0.0
40
0.500000
50
270.000000
51
0.000000
0
LINE
8
0
10
59.846874
20
166.937465
30
0.0
11
59.846874
21
169.937465
31
0.0
0
ARC
8
0
10
60.146874
20
169.937465
30
0.0
40
0.300000
50
90.000000
51
180.000000
0
LINE
8
0
10
60.146874
20
170.237465
30
0.0
11
61.146874
21
170.237465
31
0.0
0
ARC
8
0
10
61.146874
20
169.937465
30
0.0
40
0.300000
50
0.000000
51
90.000000
0
LINE
8
0
10
61.446874
20
169.937465
30
0.0
11
61.446874
21
166.937465
31
0.0
0
ARC
8
0
10
61.946874
20
166.937465
30
0.0
40
0.500000
50
180.000000
51
270.000000
0
LINE
8
0
10
61.946874
20
166.437465
30
0.0
11
70.746874
21
166.437465
31
0.0
0
ARC
8
0
10
70.746874
20
166.937465
30
0.0
40
0.500000
50
270.000000
51
0.000000
0
LINE
8
0
10
71.246874
20
166.937465
30
0.0
11
71.246874
21
169.937465
31
0.0
0
ARC
8
0
10
71.546874
20
169.937465
30
0.0
40
0.300000
50
90.000000
51
180.000000
0
LINE
8
0
10
71.546874
20
170.237465
30
0.0
11
72.546874
21
170.237465
31
0.0
0
ARC
8
0
10
72.546874
20
169.937465
30
0.0
40
0.300000
50
0.000000
51
90.000000
0
LINE
8
0
10
72.846874
20
169.937465
30
0.0
11
72.846874
21
165.937465
31
0.0
0
ARC
8
0
10
74.346874
20
165.937465
30
0.0
40
1.500000
50
180.000000
51
270.000000
0
LINE
8
0
10
74.346874
20
164.437465
30
0.0
11
79.846874
21
164.437465
31
0.0
0
ARC
8
0
10
79.846874
20
163.637465
30
0.0
40
0.800000
50
0.000000
51
90.000000
0
LINE
8
0
10
80.646874
20
163.637465
30
0.0
11
80.646874
21
163.051353
31
0.0
0
ARC
8
0
10
79.646874
20
163.051353
30
0.0
40
1.000000
50
347.005383
51
0.000000
0
LINE
8
0
10
80.621265
20
162.826494
30
0.0
11
79.202771
21
156.679688
31
0.0
0
ARC
8
0
10
80.177163
20
156.454828
30
0.0
40
1.000000
50
167.005383
51
194.925581
0
LINE
8
0
10
79.210901
20
156.197264
30
0.0
11
81.166706
21
148.859996
31
0.0
0
ARC
8
0
10
80.200444
20
148.602432
30
0.0
40
1.000000
50
0.000000
51
14.925581
0
LINE
8
0
10
81.200444
20
148.602432
30
0.0
11
81.200444
21
147.717955
31
0.0
0
ARC
8
0
10
80.900444
20
147.717955
30
0.0
40
0.300000
50
291.037511
51
0.000000
0
LINE
8
0
10
81.008138
20
147.437951
30
0.0
11
80.939180
21
147.411429
31
0.0
0
ARC
8
0
10
81.046874
20
147.131425
30
0.0
40
0.300000
50
111.037511
51
180.000000
0
LINE
8
0
10
80.746874
20
147.131425
30
0.0
11
80.746874
21
145.261729
31
0.0
0
ARC
8
0
10
81.046874
20
145.261729
30
0.0
40
0.300000
50
180.000000
51
225.000000
0
LINE
8
0
10
80.834742
20
145.049597
30
0.0
11
81.259006
21
144.625333
31
0.0
0
ARC
8
0
10
81.471138
20
144.837465
30
0.0
40
0.300000
50
225.000000
51
270.000000
0
LINE
8
0
10
81.471138
20
144.537465
30
0.0
11
82.246874
21
144.537465
31
0.0
0
ARC
8
0
10
82.246874
20
144.237465
30
0.0
40
0.300000
50
0.000000
51
90.000000
0
LINE
8
0
10
82.546874
20
144.237465
30
0.0
11
82.546874
21
142.437465
31
0.0
0
ARC
8
0
10
82.246874
20
142.437465
30
0.0
40
0.300000
50
270.000000
51
0.000000
0
LINE
8
0
10
82.246874
20
142.137465
30
0.0
11
70.346874
21
142.137465
31
0.0
0
ARC
8
0
10
70.346874
20
143.137465
30
0.0
40
1.000000
50
180.000000
51
270.000000
0
LINE
8
0
10
69.346874
20
143.137465
30
0.0
11
69.346874
21
147.522843
31
0.0
0
ARC
8
0
10
70.146874
20
147.522843
30
0.0
40
0.800000
50
104.931417
51
180.000000
0
LINE
8
0
10
69.940744
20
148.295830
30
0.0
11
70.624173
21
148.478078
31
0.0
0
ARC
8
0
10
70.546874
20
148.767949
30
0.0
40
0.300000
50
284.931417
51
0.000000
0
LINE
8
0
10
70.846874
20
148.767949
30
0.0
11
70.846874
21
163.937465
31
0.0
0
ARC
8
0
10
70.346874
20
163.937465
30
0.0
40
0.500000
50
0.000000
51
90.000000
0
LINE
8
0
10
70.346874
20
164.437465
30
0.0
11
35.946874
21
164.437465
31
0.0
0
ARC
8
0
10
35.946874
20
163.937465
30
0.0
40
0.500000
50
90.000000
51
180.000000
0
LINE
8
0
10
35.446874
20
163.937465
30
0.0
11
35.446874
21
148.767949
31
0.0
0
ARC
8
0
10
35.746874
20
148.767949
30
0.0
40
0.300000
50
180.000000
51
255.068583
0
LINE
8
0
10
35.669575
20
148.478078
30
0.0
11
36.353004
21
148.295830
31
0.0
0
ARC
8
0
10
36.146874
20
147.522843
30
0.0
40
0.800000
50
0.000000
51
75.068583
0
LINE
8
0
10
36.946874
20
147.522843
30
0.0
11
36.946874
21
143.137465
31
0.0
0
ARC
8
0
10
35.946874
20
143.137465
30
0.0
40
1.000000
50
270.000000
51
0.000000
0
LINE
8
0
10
35.946874
20
142.137465
30
0.0
11
24.046874
21
142.137465
31
0.0
0
ARC
8
0
10
24.046874
20
142.437465
30
0.0
40
0.300000
50
180.000000
51
270.000000
0
LINE
8
0
10
23.746874
20
142.437465
30
0.0
11
23.746874
21
144.237465
31
0.0
0
ARC
8
0
10
24.046874
20
144.237465
30
0.0
40
0.300000
50
90.000000
51
180.000000
0
LINE
8
0
10
24.046874
20
144.537465
30
0.0
11
24.822610
21
144.537465
31
0.0
0
ARC
8
0
10
24.822610
20
144.837465
30
0.0
40
0.300000
50
270.000000
51
315.000000
0
LINE
8
0
10
25.034742
20
144.625333
30
0.0
11
25.459006
21
145.049597
31
0.0
0
ARC
8
0
10
25.246874
20
145.261729
30
0.0
40
0.300000
50
315.000000
51
0.000000
0
LINE
8
0
10
25.546874
20
145.261729
30
0.0
11
25.546874
21
147.131425
31
0.0
0
ARC
8
0
10
25.246874
20
147.131425
30
0.0
40
0.300000
50
0.000000
51
68.962489
0
LINE
8
0
10
25.354568
20
147.411429
30
0.0
11
25.285610
21
147.437951
31
0.0
0
ARC
8
0
10
25.393303
20
147.717955
30
0.0
40
0.300000
50
180.000000
51
248.962489
0
LINE
8
0
10
25.093303
20
147.717955
30
0.0
11
25.093303
21
148.602432
31
0.0
0
ARC
8
0
10
26.093303
20
148.602432
30
0.0
40
1.000000
50
165.074419
51
180.000000
0
LINE
8
0
10
25.127042
20
148.859996
30
0.0
11
27.082846
21
156.197264
31
0.0
0
ARC
8
0
10
26.116585
20
156.454828
30
0.0
40
1.000000
50
345.074419
51
12.994617
0
LINE
8
0
10
27.090976
20
156.679688
30
0.0
11
25.672483
21
162.826494
31
0.0
0
ARC
8
0
10
26.646874
20
163.051353
30
0.0
40
1.000000
50
180.000000
51
192.994617
0
LINE
8
0
10
25.646874
20
163.051353
30
0.0
11
25.646874
21
163.637465
31
0.0
0
ARC
8
0
10
26.446874
20
163.637465
30
0.0
40
0.800000
50
90.000000
51
180.000000
0
LINE
8
0
10
26.446874
20
164.437465
30
0.0
11
31.946874
21
164.437465
31
0.0
0
ARC
8
0
10
31.946874
20
165.937465
30
0.0
40
1.500000
50
270.000000
51
0.000000
0
LINE
8
0
10
33.446874
20
165.937465
30
0.0
11
33.446874
21
169.937465
31
0.0
0
ARC
8
0
10
33.746874
20
169.937465
30
0.0
40
0.300000
50
90.000000
51
180.000000
0
LINE
8
0
10
33.746874
20
170.237465
30
0.0
11
34.746874
21
170.237465
31
0.0
0
LINE
8
0
10
27.019742
20
162.325035
30
0.0
11
28.327323
21
156.658852
31
0.0
0
ARC
8
0
10
27.352932
20
156.433993
30
0.0
40
1.000000
50
345.074419
51
12.994617
0
LINE
8
0
10
28.319193
20
156.176428
30
0.0
11
26.303990
21
148.616323
31
0.0
0
ARC
8
0
10
26.593868
20
148.539054
30
0.0
40
0.300000
50
165.074419
51
244.294688
0
ARC
8
0
10
26.246874
20
147.818225
30
0.0
40
0.500000
50
0.000000
51
64.294688
0
LINE
8
0
10
26.746874
20
147.818225
30
0.0
11
26.746874
21
144.885797
31
0.0
0
ARC
8
0
10
26.446874
20
144.885797
30
0.0
40
0.300000
50
303.748989
51
0.000000
0
ARC
8
0
10
26.946874
20
144.137465
30
0.0
40
0.600000
50
123.748989
51
326.251011
0
ARC
8
0
10
27.695205
20
143.637465
30
0.0
40
0.300000
50
90.000000
51
146.251011
0
LINE
8
0
10
27.695205
20
143.937465
30
0.0
11
34.646874
21
143.937465
31
0.0
0
ARC
8
0
10
34.646874
20
144.437465
30
0.0
40
0.500000
50
270.000000
51
0.000000
0
LINE
8
0
10
35.146874
20
144.437465
30
0.0
11
35.146874
21
146.370425
31
0.0
0
ARC
8
0
10
34.646874
20
146.370425
30
0.0
40
0.500000
50
0.000000
51
75.068583
0
LINE
8
0
10
34.775705
20
146.853543
30
0.0
11
34.218043
21
147.002253
31
0.0
0
ARC
8
0
10
34.346874
20
147.485370
30
0.0
40
0.500000
50
180.000000
51
255.068583
0
LINE
8
0
10
33.846874
20
147.485370
30
0.0
11
33.846874
21
162.437465
31
0.0
0
ARC
8
0
10
33.346874
20
162.437465
30
0.0
40
0.500000
50
0.000000
51
90.000000
0
LINE
8
0
10
33.346874
20
162.937465
30
0.0
11
27.506938
21
162.937465
31
0.0
0
ARC
8
0
10
27.506938
20
162.437465
30
0.0
40
0.500000
50
90.000000
51
192.994617
0
LINE
8
0
10
77.974555
20
156.176428
30
0.0
11
79.989758
21
148.616323
31
0.0
0
ARC
8
0
10
79.699880
20
148.539054
30
0.0
40
0.300000
50
295.705312
51
14.925581
0
ARC
8
0
10
80.046874
20
147.818225
30
0.0
40
0.500000
50
115.705312
51
180.000000
0
LINE
8
0
10
79.546874
20
147.818225
30
0.0
11
79.546874
21
144.885797
31
0.0
0
ARC
8
0
10
79.846874
20
144.885797
30
0.0
40
0.300000
50
180.000000
51
236.251011
0
ARC
8
0
10
79.346874
20
144.137465
30
0.0
40
0.600000
50
213.748989
51
56.251011
0
ARC
8
0
10
78.598542
20
143.637465
30
0.0
40
0.300000
50
33.748989
51
90.000000
0
LINE
8
0
10
78.598542
20
143.937465
30
0.0
11
71.646874
21
143.937465
31
0.0
0
ARC
8
0
10
71.646874
20
144.437465
30
0.0
40
0.500000
50
180.000000
51
270.000000
0
LINE
8
0
10
71.146874
20
144.437465
30
0.0
11
71.146874
21
146.370425
31
0.0
0
ARC
8
0
10
71.646874
20
146.370425
30
0.0
40
0.500000
50
104.931417
51
180.000000
0
LINE
8
0
10
71.518043
20
146.853543
30
0.0
11
72.075705
21
147.002253
31
0.0
0
ARC
8
0
10
71.946874
20
147.485370
30
0.0
40
0.500000
50
284.931417
51
0.000000
0
LINE
8
0
10
72.446874
20
147.485370
30
0.0
11
72.446874
21
162.437465
31
0.0
0
ARC
8
0
10
72.946874
20
162.437465
30
0.0
40
0.500000
50
90.000000
51
180.000000
0
LINE
8
0
10
72.946874
20
162.937465
30
0.0
11
78.786810
21
162.937465
31
0.0
0
ARC
8
0
10
78.786810
20
162.437465
30
0.0
40
0.500000
50
347.005383
51
90.000000
0
LINE
8
0
10
79.274006
20
162.325035
30
0.0
11
77.966425
21
156.658852
31
0.0
0
ARC
8
0
10
78.940816
20
156.433993
30
0.0
40
1.000000
50
167.005383
51
194.925581
0
ATTDEF
8
0
10
34.246874
20
170.237465
30
0.0
40
3.5
1

3

2
VC_START
70
0
0
ATTDEF
8
0
10
35.946874
20
164.437465
30
0.0
40
3.5
1

3

2
VC_END
70
0
0
ATTDEF
8
0
10
23.746874
20
142.137465
30
0.0
40
3.5
1

3

2
FRONT_VIEW
70
0
0
ATTDEF
8
0
10
23.746874
20
142.137465
30
0.0
40
3.5
1

3

2
BL01:6500.000000,,1
70
0
0
ATTDEF
8
0
10
23.746874
20
142.137465
30
0.0
40
3.5
1

3

2
OPTI:500.000000,1,0,3000.000000,6500.000000,500.000000,0,0.000000,0
70
0
0
ATTDEF
8
0
10
23.746874
20
142.137465
30
0.0
40
3.5
1

3

2
GLASS_MIN:0.000000
70
0
0
ATTDEF
8
0
10
23.746874
20
142.137465
30
0.0
40
3.5
1

3

2
GLASS_MAX:0.000000
70
0
0
ATTDEF
8
0
10
23.746874
20
142.137465
30
0.0
40
3.5
1

3

2
FP_LCS_ORIG
70
0
0
ATTDEF
8
0
10
33.746874
20
142.137465
30
0.0
40
3.5
1

3

2
FP_LCS_HOT
70
0
0
ATTDEF
8
0
10
23.746874
20
152.137465
30
0.0
40
3.5
1

3

2
FP_LCS_INTERN
70
0
0
ATTDEF
8
0
10
0.000000
20
0.000000
30
0.0
40
3.5
1

3

2
TDEV2:0
70
0
0
ATTDEF
8
0
10
0.000000
20
0.000000
30
0.0
40
3.5
1

3

2
TDEV3:0
70
0
0
ATTDEF
8
0
10
0.000000
20
0.000000
30
0.0
40
3.5
1

3

2
TDEV4:0
70
0
0
ATTDEF
8
0
10
0.000000
20
0.000000
30
0.0
40
3.5
1

3

2
TDEV5:0
70
0
0
ATTDEF
8
0
10
0.000000
20
0.000000
30
0.0
40
3.5
1

3

2
PANE_WIDTH:0
70
0
0
ATTDEF
8
0
10
0.000000
20
0.000000
30
0.0
40
3.5
1

3

2
MIN_VETRO:0
70
0
0
ATTDEF
8
0
10
0.000000
20
0.000000
30
0.0
40
3.5
1

3

2
MAX_VETRO:0
70
0
0
ATTDEF
8
0
10
0.000000
20
0.000000
30
0.0
40
3.5
1

3

2
JX:0
70
0
0
ATTDEF
8
0
10
0.000000
20
0.000000
30
0.0
40
3.5
1

3

2
WX:0
70
0
0
ATTDEF
8
0
10
0.000000
20
0.000000
30
0.0
40
3.5
1

3

2
JY:0
70
0
0
ATTDEF
8
0
10
0.000000
20
0.000000
30
0.0
40
3.5
1

3

2
WY:0
70
0
0
ATTDEF
8
0
10
0.000000
20
0.000000
30
0.0
40
3.5
1

3

2
DESC:Cover Telaio
70
0
0
ATTDEF
8
0
10
0.000000
20
0.000000
30
0.0
40
3.5
1

3

2
DENS:0
70
0
0
ATTDEF
8
0
10
0.000000
20
0.000000
30
0.0
40
3.5
1

3

2
TDEV:0
70
0
0
ATTDEF
8
0
10
0.000000
20
0.000000
30
0.0
40
3.5
1

3

2
TDEV2:0
70
0
0
ATTDEF
8
0
10
0.000000
20
0.000000
30
0.0
40
3.5
1

3

2
TDEV3:0
70
0
0
ATTDEF
8
0
10
0.000000
20
0.000000
30
0.0
40
3.5
1

3

2
TDEV4:0
70
0
0
ATTDEF
8
0
10
0.000000
20
0.000000
30
0.0
40
3.5
1

3

2
TDEV5:0
70
0
0
ATTDEF
8
0
10
0.000000
20
0.000000
30
0.0
40
3.5
1

3

2
PANE_WIDTH:0
70
0
0
ATTDEF
8
0
10
0.000000
20
0.000000
30
0.0
40
3.5
1

3

2
MIN_VETRO:0
70
0
0
ATTDEF
8
0
10
0.000000
20
0.000000
30
0.0
40
3.5
1

3

2
MAX_VETRO:0
70
0
0
ATTDEF
8
0
10
0.000000
20
0.000000
30
0.0
40
3.5
1

3

2
JX:0
70
0
0
ATTDEF
8
0
10
0.000000
20
0.000000
30
0.0
40
3.5
1

3

2
WX:0
70
0
0
ATTDEF
8
0
10
0.000000
20
0.000000
30
0.0
40
3.5
1

3

2
JY:0
70
0
0
ATTDEF
8
0
10
0.000000
20
0.000000
30
0.0
40
3.5
1

3

2
WY:0
70
0
0
ENDSEC
0
EOF
