0
SECTION
2
ENTITIES
0
LINE
8
0
10
-26.714127
20
190.448053
30
0.0
11
-26.714127
21
187.848053
31
0.0
0
ARC
8
0
10
-27.014127
20
187.848053
30
0.0
40
0.300000
50
270.000000
51
0.000000
0
LINE
8
0
10
-27.014127
20
187.548053
30
0.0
11
-28.214127
21
187.548053
31
0.0
0
ARC
8
0
10
-28.214127
20
187.848053
30
0.0
40
0.300000
50
180.000000
51
270.000000
0
LINE
8
0
10
-28.514127
20
187.848053
30
0.0
11
-28.514127
21
199.046814
31
0.0
0
ARC
8
0
10
-28.014127
20
199.046814
30
0.0
40
0.500000
50
104.931417
51
180.000000
0
LINE
8
0
10
-28.142958
20
199.529932
30
0.0
11
-27.385296
21
199.731975
31
0.0
0
ARC
8
0
10
-27.514127
20
200.215093
30
0.0
40
0.500000
50
284.931417
51
0.000000
0
LINE
8
0
10
-27.014127
20
200.215093
30
0.0
11
-27.014127
21
202.148053
31
0.0
0
ARC
8
0
10
-27.514127
20
202.148053
30
0.0
40
0.500000
50
0.000000
51
90.000000
0
LINE
8
0
10
-27.514127
20
202.648053
30
0.0
11
-34.569224
21
202.648053
31
0.0
0
ARC
8
0
10
-34.569224
20
202.948053
30
0.0
40
0.300000
50
213.748989
51
270.000000
0
ARC
8
0
10
-35.317555
20
202.448053
30
0.0
40
0.600000
50
33.748989
51
236.251011
0
ARC
8
0
10
-35.817555
20
201.699721
30
0.0
40
0.300000
50
0.000000
51
56.251011
0
LINE
8
0
10
-35.517555
20
201.699721
30
0.0
11
-35.517555
21
198.358126
31
0.0
0
ARC
8
0
10
-35.817555
20
198.358126
30
0.0
40
0.300000
50
291.720848
51
0.000000
0
LINE
8
0
10
-35.706530
20
198.079426
30
0.0
11
-35.970820
21
197.974141
31
0.0
0
ARC
8
0
10
-35.859795
20
197.695441
30
0.0
40
0.300000
50
111.720848
51
200.000000
0
LINE
8
0
10
-36.141703
20
197.592835
30
0.0
11
-35.144574
21
194.853247
31
0.0
0
ARC
8
0
10
-35.708378
20
194.648040
30
0.0
40
0.599987
50
200.077726
51
20.000000
0
LINE
8
0
10
-36.271903
20
194.442067
30
0.0
11
-37.505800
21
197.817915
31
0.0
0
ARC
8
0
10
-36.754417
20
198.092551
30
0.0
40
0.800000
50
111.720848
51
200.077726
0
LINE
8
0
10
-37.050485
20
198.835749
30
0.0
11
-36.906530
21
198.893097
31
0.0
0
ARC
8
0
10
-37.017555
20
199.171796
30
0.0
40
0.300000
50
291.720848
51
0.000000
0
LINE
8
0
10
-36.717555
20
199.171796
30
0.0
11
-36.717555
21
201.323788
31
0.0
0
ARC
8
0
10
-37.017555
20
201.323788
30
0.0
40
0.300000
50
0.000000
51
45.000000
0
LINE
8
0
10
-36.805423
20
201.535920
30
0.0
11
-37.229687
21
201.960185
31
0.0
0
ARC
8
0
10
-37.441819
20
201.748053
30
0.0
40
0.300000
50
45.000000
51
90.000000
0
LINE
8
0
10
-37.441819
20
202.048053
30
0.0
11
-38.114127
21
202.048053
31
0.0
0
ARC
8
0
10
-38.114127
20
202.348053
30
0.0
40
0.300000
50
180.000000
51
270.000000
0
LINE
8
0
10
-38.414127
20
202.348053
30
0.0
11
-38.414127
21
204.148053
31
0.0
0
ARC
8
0
10
-38.114127
20
204.148053
30
0.0
40
0.300000
50
90.000000
51
180.000000
0
LINE
8
0
10
-38.114127
20
204.448053
30
0.0
11
-26.214127
21
204.448053
31
0.0
0
ARC
8
0
10
-26.214127
20
203.448053
30
0.0
40
1.000000
50
0.000000
51
90.000000
0
LINE
8
0
10
-25.214127
20
203.448053
30
0.0
11
-25.214127
21
199.062675
31
0.0
0
ARC
8
0
10
-26.014127
20
199.062675
30
0.0
40
0.800000
50
284.931417
51
0.000000
0
LINE
8
0
10
-25.807997
20
198.289687
30
0.0
11
-26.491426
21
198.107439
31
0.0
0
ARC
8
0
10
-26.414127
20
197.817569
30
0.0
40
0.300000
50
104.931417
51
180.000000
0
LINE
8
0
10
-26.714127
20
197.817569
30
0.0
11
-26.714127
21
193.248053
31
0.0
0
ARC
8
0
10
-26.214127
20
193.248053
30
0.0
40
0.500000
50
180.000000
51
270.000000
0
LINE
8
0
10
-26.214127
20
192.748053
30
0.0
11
8.178258
21
192.748053
31
0.0
0
ARC
8
0
10
8.178258
20
193.248053
30
0.0
40
0.500000
50
270.000000
51
0.000000
0
LINE
8
0
10
8.678258
20
193.248053
30
0.0
11
8.678258
21
197.817569
31
0.0
0
ARC
8
0
10
8.378258
20
197.817569
30
0.0
40
0.300000
50
0.000000
51
75.068583
0
LINE
8
0
10
8.455557
20
198.107439
30
0.0
11
7.772128
21
198.289687
31
0.0
0
ARC
8
0
10
7.978258
20
199.062675
30
0.0
40
0.800000
50
180.000000
51
255.068583
0
LINE
8
0
10
7.178258
20
199.062675
30
0.0
11
7.178258
21
203.448053
31
0.0
0
ARC
8
0
10
8.178258
20
203.448053
30
0.0
40
1.000000
50
90.000000
51
180.000000
0
LINE
8
0
10
8.178258
20
204.448053
30
0.0
11
20.078258
21
204.448053
31
0.0
0
ARC
8
0
10
20.078258
20
204.148053
30
0.0
40
0.300000
50
0.000000
51
90.000000
0
LINE
8
0
10
20.378258
20
204.148053
30
0.0
11
20.378258
21
202.348053
31
0.0
0
ARC
8
0
10
20.078258
20
202.348053
30
0.0
40
0.300000
50
270.000000
51
0.000000
0
LINE
8
0
10
20.078258
20
202.048053
30
0.0
11
19.405951
21
202.048053
31
0.0
0
ARC
8
0
10
19.405951
20
201.748053
30
0.0
40
0.300000
50
90.000000
51
135.000000
0
LINE
8
0
10
19.193819
20
201.960185
30
0.0
11
18.769555
21
201.535920
31
0.0
0
ARC
8
0
10
18.981687
20
201.323788
30
0.0
40
0.300000
50
135.000000
51
180.000000
0
LINE
8
0
10
18.681687
20
201.323788
30
0.0
11
18.681687
21
199.171796
31
0.0
0
ARC
8
0
10
18.981687
20
199.171796
30
0.0
40
0.300000
50
180.000000
51
248.279152
0
LINE
8
0
10
18.870661
20
198.893097
30
0.0
11
19.014617
21
198.835749
31
0.0
0
ARC
8
0
10
18.718549
20
198.092551
30
0.0
40
0.800000
50
339.922274
51
68.279152
0
LINE
8
0
10
19.469931
20
197.817915
30
0.0
11
18.236034
21
194.442067
31
0.0
0
ARC
8
0
10
17.672509
20
194.648040
30
0.0
40
0.599987
50
160.000000
51
339.922274
0
LINE
8
0
10
17.108706
20
194.853247
30
0.0
11
18.105834
21
197.592835
31
0.0
0
ARC
8
0
10
17.823927
20
197.695441
30
0.0
40
0.300000
50
340.000000
51
68.279152
0
LINE
8
0
10
17.934952
20
197.974141
30
0.0
11
17.670661
21
198.079426
31
0.0
0
ARC
8
0
10
17.781687
20
198.358126
30
0.0
40
0.300000
50
180.000000
51
248.279152
0
LINE
8
0
10
17.481687
20
198.358126
30
0.0
11
17.481687
21
201.699721
31
0.0
0
ARC
8
0
10
17.781687
20
201.699721
30
0.0
40
0.300000
50
123.748989
51
180.000000
0
ARC
8
0
10
17.281687
20
202.448053
30
0.0
40
0.600000
50
303.748989
51
146.251011
0
ARC
8
0
10
16.533355
20
202.948053
30
0.0
40
0.300000
50
270.000000
51
326.251011
0
LINE
8
0
10
16.533355
20
202.648053
30
0.0
11
9.478258
21
202.648053
31
0.0
0
ARC
8
0
10
9.478258
20
202.148053
30
0.0
40
0.500000
50
90.000000
51
180.000000
0
LINE
8
0
10
8.978258
20
202.148053
30
0.0
11
8.978258
21
200.215093
31
0.0
0
ARC
8
0
10
9.478258
20
200.215093
30
0.0
40
0.500000
50
180.000000
51
255.068583
0
LINE
8
0
10
9.349427
20
199.731975
30
0.0
11
10.107090
21
199.529932
31
0.0
0
ARC
8
0
10
9.978258
20
199.046814
30
0.0
40
0.500000
50
0.000000
51
75.068583
0
LINE
8
0
10
10.478258
20
199.046814
30
0.0
11
10.478258
21
187.848053
31
0.0
0
ARC
8
0
10
10.178258
20
187.848053
30
0.0
40
0.300000
50
270.000000
51
0.000000
0
LINE
8
0
10
10.178258
20
187.548053
30
0.0
11
8.978258
21
187.548053
31
0.0
0
ARC
8
0
10
8.978258
20
187.848053
30
0.0
40
0.300000
50
180.000000
51
270.000000
0
LINE
8
0
10
8.678258
20
187.848053
30
0.0
11
8.678258
21
190.448053
31
0.0
0
ARC
8
0
10
8.178258
20
190.448053
30
0.0
40
0.500000
50
0.000000
51
90.000000
0
LINE
8
0
10
8.178258
20
190.948053
30
0.0
11
-7.715328
21
190.948053
31
0.0
0
ARC
8
0
10
-7.715328
20
190.448053
30
0.0
40
0.500000
50
90.000000
51
180.000000
0
LINE
8
0
10
-8.215328
20
190.448053
30
0.0
11
-8.215328
21
187.848053
31
0.0
0
ARC
8
0
10
-8.515328
20
187.848053
30
0.0
40
0.300000
50
270.000000
51
0.000000
0
LINE
8
0
10
-8.515328
20
187.548053
30
0.0
11
-9.515328
21
187.548053
31
0.0
0
ARC
8
0
10
-9.515328
20
187.848053
30
0.0
40
0.300000
50
180.000000
51
270.000000
0
LINE
8
0
10
-9.815328
20
187.848053
30
0.0
11
-9.815328
21
190.448053
31
0.0
0
ARC
8
0
10
-10.315328
20
190.448053
30
0.0
40
0.500000
50
0.000000
51
90.000000
0
LINE
8
0
10
-10.315328
20
190.948053
30
0.0
11
-26.214127
21
190.948053
31
0.0
0
ARC
8
0
10
-26.214127
20
190.448053
30
0.0
40
0.500000
50
90.000000
51
180.000000
0
ATTDEF
8
0
10
-26.214127
20
192.748053
30
0.0
40
3.5
1

3

2
VC_START
70
0
0
ATTDEF
8
0
10
-26.214127
20
190.948053
30
0.0
40
3.5
1

3

2
VC_END
70
0
0
ATTDEF
8
0
10
-38.414127
20
187.548053
30
0.0
40
3.5
1

3

2
FRONT_VIEW
70
0
0
ATTDEF
8
0
10
-38.414127
20
187.548053
30
0.0
40
3.5
1

3

2
GLASS_MIN:0.000000
70
0
0
ATTDEF
8
0
10
-38.414127
20
187.548053
30
0.0
40
3.5
1

3

2
GLASS_MAX:0.000000
70
0
0
ATTDEF
8
0
10
-38.414127
20
187.548053
30
0.0
40
3.5
1

3

2
FP_LCS_ORIG
70
0
0
ATTDEF
8
0
10
-28.414127
20
187.548053
30
0.0
40
3.5
1

3

2
FP_LCS_HOT
70
0
0
ATTDEF
8
0
10
-38.414127
20
197.548053
30
0.0
40
3.5
1

3

2
FP_LCS_INTERN
70
0
0
ATTDEF
8
0
10
-38.414127
20
187.548053
30
0.0
40
3.5
1

3

2
BL01:6800.000000,,1
70
0
0
ATTDEF
8
0
10
-38.414127
20
187.548053
30
0.0
40
3.5
1

3

2
OPTI:500.000000,1,0,3000.000000,6500.000000,500.000000,0,0.000000,0
70
0
0
ATTDEF
8
0
10
0.000000
20
0.000000
30
0.0
40
3.5
1

3

2
TDEV2:0
70
0
0
ATTDEF
8
0
10
0.000000
20
0.000000
30
0.0
40
3.5
1

3

2
TDEV3:0
70
0
0
ATTDEF
8
0
10
0.000000
20
0.000000
30
0.0
40
3.5
1

3

2
TDEV4:0
70
0
0
ATTDEF
8
0
10
0.000000
20
0.000000
30
0.0
40
3.5
1

3

2
TDEV5:0
70
0
0
ATTDEF
8
0
10
0.000000
20
0.000000
30
0.0
40
3.5
1

3

2
PANE_WIDTH:0
70
0
0
ATTDEF
8
0
10
0.000000
20
0.000000
30
0.0
40
3.5
1

3

2
MIN_VETRO:0
70
0
0
ATTDEF
8
0
10
0.000000
20
0.000000
30
0.0
40
3.5
1

3

2
MAX_VETRO:0
70
0
0
ATTDEF
8
0
10
0.000000
20
0.000000
30
0.0
40
3.5
1

3

2
JX:0
70
0
0
ATTDEF
8
0
10
0.000000
20
0.000000
30
0.0
40
3.5
1

3

2
WX:0
70
0
0
ATTDEF
8
0
10
0.000000
20
0.000000
30
0.0
40
3.5
1

3

2
JY:0
70
0
0
ATTDEF
8
0
10
0.000000
20
0.000000
30
0.0
40
3.5
1

3

2
WY:0
70
0
0
ATTDEF
8
0
10
0.000000
20
0.000000
30
0.0
40
3.5
1

3

2
DESC:Pvc Cover Telaio Soglia Bassa
70
0
0
ATTDEF
8
0
10
0.000000
20
0.000000
30
0.0
40
3.5
1

3

2
DENS:0
70
0
0
ATTDEF
8
0
10
0.000000
20
0.000000
30
0.0
40
3.5
1

3

2
TDEV:0
70
0
0
ATTDEF
8
0
10
0.000000
20
0.000000
30
0.0
40
3.5
1

3

2
TDEV2:0
70
0
0
ATTDEF
8
0
10
0.000000
20
0.000000
30
0.0
40
3.5
1

3

2
TDEV3:0
70
0
0
ATTDEF
8
0
10
0.000000
20
0.000000
30
0.0
40
3.5
1

3

2
TDEV4:0
70
0
0
ATTDEF
8
0
10
0.000000
20
0.000000
30
0.0
40
3.5
1

3

2
TDEV5:0
70
0
0
ATTDEF
8
0
10
0.000000
20
0.000000
30
0.0
40
3.5
1

3

2
PANE_WIDTH:0
70
0
0
ATTDEF
8
0
10
0.000000
20
0.000000
30
0.0
40
3.5
1

3

2
MIN_VETRO:0
70
0
0
ATTDEF
8
0
10
0.000000
20
0.000000
30
0.0
40
3.5
1

3

2
MAX_VETRO:0
70
0
0
ATTDEF
8
0
10
0.000000
20
0.000000
30
0.0
40
3.5
1

3

2
JX:0
70
0
0
ATTDEF
8
0
10
0.000000
20
0.000000
30
0.0
40
3.5
1

3

2
WX:0
70
0
0
ATTDEF
8
0
10
0.000000
20
0.000000
30
0.0
40
3.5
1

3

2
JY:0
70
0
0
ATTDEF
8
0
10
0.000000
20
0.000000
30
0.0
40
3.5
1

3

2
WY:0
70
0
0
ENDSEC
0
EOF
