0
SECTION
2
ENTITIES
0
LINE
8
0
10
92.245509
20
179.020101
30
0.0
11
91.573201
21
179.020101
31
0.0
0
ARC
8
0
10
91.573201
20
179.320101
30
0.0
40
0.300000
50
180.000000
51
270.000000
0
LINE
8
0
10
91.273201
20
179.320101
30
0.0
11
91.273201
21
181.120101
31
0.0
0
ARC
8
0
10
91.573201
20
181.120101
30
0.0
40
0.300000
50
90.000000
51
180.000000
0
LINE
8
0
10
91.573201
20
181.420101
30
0.0
11
103.473201
21
181.420101
31
0.0
0
ARC
8
0
10
103.473201
20
180.420101
30
0.0
40
1.000000
50
0.000000
51
90.000000
0
LINE
8
0
10
104.473201
20
180.420101
30
0.0
11
104.473201
21
176.034724
31
0.0
0
ARC
8
0
10
103.673201
20
176.034724
30
0.0
40
0.800000
50
284.931417
51
0.000000
0
LINE
8
0
10
103.879331
20
175.261736
30
0.0
11
103.195902
21
175.079488
31
0.0
0
ARC
8
0
10
103.273201
20
174.789618
30
0.0
40
0.300000
50
104.931417
51
180.000000
0
LINE
8
0
10
102.973201
20
174.789618
30
0.0
11
102.973201
21
159.620101
31
0.0
0
ARC
8
0
10
103.473201
20
159.620101
30
0.0
40
0.500000
50
180.000000
51
270.000000
0
LINE
8
0
10
103.473201
20
159.120101
30
0.0
11
127.672300
21
159.120101
31
0.0
0
ARC
8
0
10
127.672300
20
158.620101
30
0.0
40
0.500000
50
0.000000
51
90.000000
0
LINE
8
0
10
128.172300
20
158.620101
30
0.0
11
128.172300
21
153.620101
31
0.0
0
ARC
8
0
10
127.872300
20
153.620101
30
0.0
40
0.300000
50
270.000000
51
0.000000
0
LINE
8
0
10
127.872300
20
153.320101
30
0.0
11
126.872300
21
153.320101
31
0.0
0
ARC
8
0
10
126.872300
20
153.620101
30
0.0
40
0.300000
50
180.000000
51
270.000000
0
LINE
8
0
10
126.572300
20
153.620101
30
0.0
11
126.572300
21
156.620101
31
0.0
0
ARC
8
0
10
126.072300
20
156.620101
30
0.0
40
0.500000
50
0.000000
51
90.000000
0
LINE
8
0
10
126.072300
20
157.120101
30
0.0
11
115.822751
21
157.120101
31
0.0
0
ARC
8
0
10
115.822751
20
156.620101
30
0.0
40
0.500000
50
90.000000
51
180.000000
0
LINE
8
0
10
115.322751
20
156.620101
30
0.0
11
115.322751
21
153.620101
31
0.0
0
ARC
8
0
10
115.022751
20
153.620101
30
0.0
40
0.300000
50
270.000000
51
0.000000
0
LINE
8
0
10
115.022751
20
153.320101
30
0.0
11
114.022751
21
153.320101
31
0.0
0
ARC
8
0
10
114.022751
20
153.620101
30
0.0
40
0.300000
50
180.000000
51
270.000000
0
LINE
8
0
10
113.722751
20
153.620101
30
0.0
11
113.722751
21
156.620101
31
0.0
0
ARC
8
0
10
113.222751
20
156.620101
30
0.0
40
0.500000
50
0.000000
51
90.000000
0
LINE
8
0
10
113.222751
20
157.120101
30
0.0
11
103.073201
21
157.120101
31
0.0
0
ARC
8
0
10
103.073201
20
156.620101
30
0.0
40
0.500000
50
90.000000
51
180.000000
0
LINE
8
0
10
102.573201
20
156.620101
30
0.0
11
102.573201
21
153.620101
31
0.0
0
ARC
8
0
10
102.273201
20
153.620101
30
0.0
40
0.300000
50
270.000000
51
0.000000
0
LINE
8
0
10
102.273201
20
153.320101
30
0.0
11
101.273201
21
153.320101
31
0.0
0
ARC
8
0
10
101.273201
20
153.620101
30
0.0
40
0.300000
50
180.000000
51
270.000000
0
LINE
8
0
10
100.973201
20
153.620101
30
0.0
11
100.973201
21
157.520101
31
0.0
0
ARC
8
0
10
99.473201
20
157.520101
30
0.0
40
1.500000
50
0.000000
51
90.000000
0
LINE
8
0
10
99.473201
20
159.020101
30
0.0
11
94.173201
21
159.020101
31
0.0
0
ARC
8
0
10
94.173201
20
160.020101
30
0.0
40
1.000000
50
180.000000
51
270.000000
0
LINE
8
0
10
93.173201
20
160.020101
30
0.0
11
93.173201
21
160.120101
31
0.0
0
ARC
8
0
10
93.673201
20
160.120101
30
0.0
40
0.500000
50
90.000000
51
180.000000
0
LINE
8
0
10
93.673201
20
160.620101
30
0.0
11
100.673201
21
160.620101
31
0.0
0
ARC
8
0
10
100.673201
20
161.120101
30
0.0
40
0.500000
50
270.000000
51
0.000000
0
LINE
8
0
10
101.173201
20
161.120101
30
0.0
11
101.173201
21
176.018863
31
0.0
0
ARC
8
0
10
101.673201
20
176.018863
30
0.0
40
0.500000
50
104.931417
51
180.000000
0
LINE
8
0
10
101.544370
20
176.501981
30
0.0
11
102.302032
21
176.704024
31
0.0
0
ARC
8
0
10
102.173201
20
177.187142
30
0.0
40
0.500000
50
284.931417
51
0.000000
0
LINE
8
0
10
102.673201
20
177.187142
30
0.0
11
102.673201
21
179.120101
31
0.0
0
ARC
8
0
10
102.173201
20
179.120101
30
0.0
40
0.500000
50
0.000000
51
90.000000
0
LINE
8
0
10
102.173201
20
179.620101
30
0.0
11
95.118104
21
179.620101
31
0.0
0
ARC
8
0
10
95.118104
20
179.920101
30
0.0
40
0.300000
50
213.748989
51
270.000000
0
ARC
8
0
10
94.369773
20
179.420101
30
0.0
40
0.600000
50
33.748989
51
236.251011
0
ARC
8
0
10
93.869773
20
178.671770
30
0.0
40
0.300000
50
0.000000
51
56.251011
0
LINE
8
0
10
94.169773
20
178.671770
30
0.0
11
94.169773
21
175.330175
31
0.0
0
ARC
8
0
10
93.869773
20
175.330175
30
0.0
40
0.300000
50
291.720848
51
0.000000
0
LINE
8
0
10
93.980798
20
175.051475
30
0.0
11
93.716507
21
174.946190
31
0.0
0
ARC
8
0
10
93.827533
20
174.667490
30
0.0
40
0.300000
50
111.720848
51
200.000000
0
LINE
8
0
10
93.545625
20
174.564884
30
0.0
11
94.542753
21
171.825296
31
0.0
0
ARC
8
0
10
93.978950
20
171.620089
30
0.0
40
0.599987
50
200.077726
51
20.000000
0
LINE
8
0
10
93.415425
20
171.414116
30
0.0
11
92.081452
21
175.063766
31
0.0
0
ARC
8
0
10
92.551066
20
175.235413
30
0.0
40
0.500000
50
111.720848
51
200.077726
0
LINE
8
0
10
92.366023
20
175.699912
30
0.0
11
92.780798
21
175.865146
31
0.0
0
ARC
8
0
10
92.669773
20
176.143845
30
0.0
40
0.300000
50
291.720848
51
0.000000
0
LINE
8
0
10
92.969773
20
176.143845
30
0.0
11
92.969773
21
178.295837
31
0.0
0
ARC
8
0
10
92.669773
20
178.295837
30
0.0
40
0.300000
50
0.000000
51
45.000000
0
LINE
8
0
10
92.881905
20
178.507969
30
0.0
11
92.457641
21
178.932233
31
0.0
0
ARC
8
0
10
92.245509
20
178.720101
30
0.0
40
0.300000
50
45.000000
51
90.000000
0
ATTDEF
8
0
10
103.473201
20
159.120101
30
0.0
40
3.5
1

3

2
VC_START
70
0
0
ATTDEF
8
0
10
114.522751
20
153.320101
30
0.0
40
3.5
1

3

2
VC_END
70
0
0
ATTDEF
8
0
10
91.273201
20
153.320101
30
0.0
40
3.5
1

3

2
FRONT_VIEW
70
0
0
ATTDEF
8
0
10
91.273201
20
153.320101
30
0.0
40
3.5
1

3

2
BL01:6800.000000,,1
70
0
0
ATTDEF
8
0
10
91.273201
20
153.320101
30
0.0
40
3.5
1

3

2
OPTI:500.000000,1,0,3000.000000,6500.000000,500.000000,0,0.000000,0
70
0
0
ATTDEF
8
0
10
91.273201
20
153.320101
30
0.0
40
3.5
1

3

2
GLASS_MIN:0.000000
70
0
0
ATTDEF
8
0
10
91.273201
20
153.320101
30
0.0
40
3.5
1

3

2
GLASS_MAX:0.000000
70
0
0
ATTDEF
8
0
10
91.273201
20
153.320101
30
0.0
40
3.5
1

3

2
FP_LCS_ORIG
70
0
0
ATTDEF
8
0
10
101.273201
20
153.320101
30
0.0
40
3.5
1

3

2
FP_LCS_HOT
70
0
0
ATTDEF
8
0
10
91.273201
20
163.320101
30
0.0
40
3.5
1

3

2
FP_LCS_INTERN
70
0
0
ATTDEF
8
0
10
0.000000
20
0.000000
30
0.0
40
3.5
1

3

2
TDEV2:0
70
0
0
ATTDEF
8
0
10
0.000000
20
0.000000
30
0.0
40
3.5
1

3

2
TDEV3:0
70
0
0
ATTDEF
8
0
10
0.000000
20
0.000000
30
0.0
40
3.5
1

3

2
TDEV4:0
70
0
0
ATTDEF
8
0
10
0.000000
20
0.000000
30
0.0
40
3.5
1

3

2
TDEV5:0
70
0
0
ATTDEF
8
0
10
0.000000
20
0.000000
30
0.0
40
3.5
1

3

2
PANE_WIDTH:0
70
0
0
ATTDEF
8
0
10
0.000000
20
0.000000
30
0.0
40
3.5
1

3

2
MIN_VETRO:0
70
0
0
ATTDEF
8
0
10
0.000000
20
0.000000
30
0.0
40
3.5
1

3

2
MAX_VETRO:0
70
0
0
ATTDEF
8
0
10
0.000000
20
0.000000
30
0.0
40
3.5
1

3

2
JX:0
70
0
0
ATTDEF
8
0
10
0.000000
20
0.000000
30
0.0
40
3.5
1

3

2
WX:0
70
0
0
ATTDEF
8
0
10
0.000000
20
0.000000
30
0.0
40
3.5
1

3

2
JY:0
70
0
0
ATTDEF
8
0
10
0.000000
20
0.000000
30
0.0
40
3.5
1

3

2
WY:0
70
0
0
ATTDEF
8
0
10
0.000000
20
0.000000
30
0.0
40
3.5
1

3

2
DESC:Cover OX
70
0
0
ATTDEF
8
0
10
0.000000
20
0.000000
30
0.0
40
3.5
1

3

2
DENS:0
70
0
0
ATTDEF
8
0
10
0.000000
20
0.000000
30
0.0
40
3.5
1

3

2
TDEV:0
70
0
0
ATTDEF
8
0
10
0.000000
20
0.000000
30
0.0
40
3.5
1

3

2
TDEV2:0
70
0
0
ATTDEF
8
0
10
0.000000
20
0.000000
30
0.0
40
3.5
1

3

2
TDEV3:0
70
0
0
ATTDEF
8
0
10
0.000000
20
0.000000
30
0.0
40
3.5
1

3

2
TDEV4:0
70
0
0
ATTDEF
8
0
10
0.000000
20
0.000000
30
0.0
40
3.5
1

3

2
TDEV5:0
70
0
0
ATTDEF
8
0
10
0.000000
20
0.000000
30
0.0
40
3.5
1

3

2
PANE_WIDTH:0
70
0
0
ATTDEF
8
0
10
0.000000
20
0.000000
30
0.0
40
3.5
1

3

2
MIN_VETRO:0
70
0
0
ATTDEF
8
0
10
0.000000
20
0.000000
30
0.0
40
3.5
1

3

2
MAX_VETRO:0
70
0
0
ATTDEF
8
0
10
0.000000
20
0.000000
30
0.0
40
3.5
1

3

2
JX:0
70
0
0
ATTDEF
8
0
10
0.000000
20
0.000000
30
0.0
40
3.5
1

3

2
WX:0
70
0
0
ATTDEF
8
0
10
0.000000
20
0.000000
30
0.0
40
3.5
1

3

2
JY:0
70
0
0
ATTDEF
8
0
10
0.000000
20
0.000000
30
0.0
40
3.5
1

3

2
WY:0
70
0
0
ENDSEC
0
EOF
