0
SECTION
2
ENTITIES
0
LINE
8
0
10
12.417462
20
2.000000
30
0.0
11
17.698198
21
2.000000
31
0.0
0
LINE
8
0
10
17.698198
20
2.000000
30
0.0
11
17.996624
21
1.700000
31
0.0
0
LINE
8
0
10
17.996624
20
1.700000
30
0.0
11
18.295049
21
2.000000
31
0.0
0
LINE
8
0
10
18.295049
20
2.000000
30
0.0
11
23.698198
21
2.000000
31
0.0
0
LINE
8
0
10
23.698198
20
2.000000
30
0.0
11
23.996624
21
1.700000
31
0.0
0
LINE
8
0
10
23.996624
20
1.700000
30
0.0
11
24.295049
21
2.000000
31
0.0
0
LINE
8
0
10
24.295049
20
2.000000
30
0.0
11
29.698198
21
2.000000
31
0.0
0
LINE
8
0
10
29.698198
20
2.000000
30
0.0
11
29.996624
21
1.700000
31
0.0
0
LINE
8
0
10
29.996624
20
1.700000
30
0.0
11
30.295049
21
2.000000
31
0.0
0
LINE
8
0
10
30.295049
20
2.000000
30
0.0
11
34.996624
21
2.000000
31
0.0
0
ARC
8
0
10
34.996624
20
1.000000
30
0.0
40
1.000000
50
0.000000
51
90.000000
0
LINE
8
0
10
35.996624
20
1.000000
30
0.0
11
35.996624
21
0.000000
31
0.0
0
LINE
8
0
10
35.996624
20
0.000000
30
0.0
11
10.446624
21
0.000000
31
0.0
0
LINE
8
0
10
10.446624
20
0.000000
30
0.0
11
8.593070
21
1.853553
31
0.0
0
ARC
8
0
10
8.239517
20
1.500000
30
0.0
40
0.500000
50
45.000000
51
90.000000
0
LINE
8
0
10
8.239517
20
2.000000
30
0.0
11
4.763731
21
2.000000
31
0.0
0
ARC
8
0
10
4.763731
20
1.500000
30
0.0
40
0.500000
50
90.000000
51
135.000000
0
LINE
8
0
10
4.410177
20
1.853553
30
0.0
11
2.556624
21
0.000000
31
0.0
0
LINE
8
0
10
2.556624
20
0.000000
30
0.0
11
0.000000
21
0.000000
31
0.0
0
LINE
8
0
10
0.000000
20
0.000000
30
0.0
11
0.000000
21
0.792893
31
0.0
0
ARC
8
0
10
0.500000
20
0.792893
30
0.0
40
0.500000
50
135.000000
51
180.000000
0
LINE
8
0
10
0.146446
20
1.146446
30
0.0
11
2.914213
21
3.914213
31
0.0
0
ARC
8
0
10
4.328427
20
2.500000
30
0.0
40
2.000000
50
90.000000
51
135.000000
0
LINE
8
0
10
4.328427
20
4.500000
30
0.0
11
8.674821
21
4.500000
31
0.0
0
ARC
8
0
10
8.674821
20
2.500000
30
0.0
40
2.000000
50
45.000000
51
90.000000
0
LINE
8
0
10
10.089035
20
3.914213
30
0.0
11
11.710355
21
2.292893
31
0.0
0
ARC
8
0
10
12.417462
20
3.000000
30
0.0
40
1.000000
50
225.000000
51
270.000000
0
ATTDEF
8
0
10
0.000000
20
0.000000
30
0.0
40
3.5
1

3

2
HW_START
70
0
0
ATTDEF
8
0
10
35.996624
20
4.500000
30
0.0
40
3.5
1

3

2
HW_END
70
0
0
ATTDEF
8
0
10
6.501624
20
4.500000
30
0.0
40
3.5
1

3

2
VC_START
70
0
0
ATTDEF
8
0
10
1.278312
20
0.000000
30
0.0
40
3.5
1

3

2
VC_END
70
0
0
ATTDEF
8
0
10
0.000000
20
0.000000
30
0.0
40
3.5
1

3

2
FRONT_VIEW
70
0
0
ATTDEF
8
0
10
0.000000
20
0.000000
30
0.0
40
3.5
1

3

2
OPTI:500.000000,1,0,3000.000000,6500.000000,500.000000,0,0.000000,0
70
0
0
ATTDEF
8
0
10
0.000000
20
0.000000
30
0.0
40
3.5
1

3

2
GLASS_MIN:0.000000
70
0
0
ATTDEF
8
0
10
0.000000
20
0.000000
30
0.0
40
3.5
1

3

2
GLASS_MAX:0.000000
70
0
0
ATTDEF
8
0
10
0.000000
20
0.000000
30
0.0
40
3.5
1

3

2
JX:0.000000
70
0
0
ATTDEF
8
0
10
0.000000
20
0.000000
30
0.0
40
3.5
1

3

2
WX:0.000000
70
0
0
ATTDEF
8
0
10
0.000000
20
0.000000
30
0.0
40
3.5
1

3

2
JY:0.000000
70
0
0
ATTDEF
8
0
10
0.000000
20
0.000000
30
0.0
40
3.5
1

3

2
WY:0.000000
70
0
0
ATTDEF
8
0
10
0.000000
20
0.000000
30
0.0
40
3.5
1

3

2
FP_LCS_ORIG
70
0
0
ATTDEF
8
0
10
10.000000
20
0.000000
30
0.0
40
3.5
1

3

2
FP_LCS_HOT
70
0
0
ATTDEF
8
0
10
0.000000
20
10.000000
30
0.0
40
3.5
1

3

2
FP_LCS_INTERN
70
0
0
ATTDEF
8
0
10
0.000000
20
0.000000
30
0.0
40
3.5
1

3

2
BL01:6800.000000,,1
70
0
0
ATTDEF
8
0
10
0.000000
20
0.000000
30
0.0
40
3.5
1

3

2
DESC:K1490 (SOGLIA PER PORTA A 2 ANTE)
70
0
0
ATTDEF
8
0
10
0.000000
20
0.000000
30
0.0
40
3.5
1

3

2
DENS:0
70
0
0
ATTDEF
8
0
10
0.000000
20
0.000000
30
0.0
40
3.5
1

3

2
TDEV:0
70
0
0
ATTDEF
8
0
10
0.000000
20
0.000000
30
0.0
40
3.5
1

3

2
TDEV2:0
70
0
0
ATTDEF
8
0
10
0.000000
20
0.000000
30
0.0
40
3.5
1

3

2
TDEV3:0
70
0
0
ATTDEF
8
0
10
0.000000
20
0.000000
30
0.0
40
3.5
1

3

2
TDEV4:0
70
0
0
ATTDEF
8
0
10
0.000000
20
0.000000
30
0.0
40
3.5
1

3

2
TDEV5:0
70
0
0
ATTDEF
8
0
10
0.000000
20
0.000000
30
0.0
40
3.5
1

3

2
PANE_WIDTH:0
70
0
0
ATTDEF
8
0
10
0.000000
20
0.000000
30
0.0
40
3.5
1

3

2
MIN_VETRO:0
70
0
0
ATTDEF
8
0
10
0.000000
20
0.000000
30
0.0
40
3.5
1

3

2
MAX_VETRO:0
70
0
0
ATTDEF
8
0
10
0.000000
20
0.000000
30
0.0
40
3.5
1

3

2
JX:0
70
0
0
ATTDEF
8
0
10
0.000000
20
0.000000
30
0.0
40
3.5
1

3

2
WX:0
70
0
0
ATTDEF
8
0
10
0.000000
20
0.000000
30
0.0
40
3.5
1

3

2
JY:0
70
0
0
ATTDEF
8
0
10
0.000000
20
0.000000
30
0.0
40
3.5
1

3

2
WY:0
70
0
0
ENDSEC
0
EOF
