0
SECTION
2
ENTITIES
0
LINE
8
0
10
1927.473461
20
1266.149362
30
0.0
11
1929.473461
21
1266.149362
31
0.0
0
LINE
8
0
10
1933.473461
20
1266.149362
30
0.0
11
1935.473461
21
1266.149362
31
0.0
0
LINE
8
0
10
1939.473461
20
1266.149362
30
0.0
11
1941.473461
21
1266.149362
31
0.0
0
LINE
8
0
10
1945.473461
20
1266.149362
30
0.0
11
1947.161962
21
1266.149362
31
0.0
0
LINE
8
0
10
1924.473461
20
1264.417311
30
0.0
11
1926.473461
21
1264.417311
31
0.0
0
LINE
8
0
10
1930.473461
20
1264.417311
30
0.0
11
1932.473461
21
1264.417311
31
0.0
0
LINE
8
0
10
1936.473461
20
1264.417311
30
0.0
11
1938.473461
21
1264.417311
31
0.0
0
LINE
8
0
10
1942.473461
20
1264.417311
30
0.0
11
1944.473461
21
1264.417311
31
0.0
0
LINE
8
0
10
1927.473461
20
1262.685261
30
0.0
11
1929.473461
21
1262.685261
31
0.0
0
LINE
8
0
10
1933.473461
20
1262.685261
30
0.0
11
1935.473461
21
1262.685261
31
0.0
0
LINE
8
0
10
1939.473461
20
1262.685261
30
0.0
11
1941.280929
21
1262.685261
31
0.0
0
LINE
8
0
10
1945.473461
20
1262.685261
30
0.0
11
1947.161962
21
1262.685261
31
0.0
0
LINE
8
0
10
1924.473461
20
1260.953210
30
0.0
11
1926.473461
21
1260.953210
31
0.0
0
LINE
8
0
10
1930.473461
20
1260.953210
30
0.0
11
1932.473461
21
1260.953210
31
0.0
0
LINE
8
0
10
1936.473461
20
1260.953210
30
0.0
11
1938.473461
21
1260.953210
31
0.0
0
LINE
8
0
10
1942.473461
20
1260.953210
30
0.0
11
1944.473461
21
1260.953210
31
0.0
0
LINE
8
0
10
1924.473461
20
1260.953210
30
0.0
11
1924.161962
21
1261.492743
31
0.0
0
LINE
8
0
10
1927.120397
20
1259.832684
30
0.0
11
1926.473461
21
1260.953210
31
0.0
0
LINE
8
0
10
1924.473461
20
1264.417312
30
0.0
11
1924.161962
21
1264.956844
31
0.0
0
LINE
8
0
10
1927.473461
20
1262.685261
30
0.0
11
1926.473461
21
1264.417312
31
0.0
0
LINE
8
0
10
1930.473461
20
1260.953210
30
0.0
11
1929.473461
21
1262.685261
31
0.0
0
LINE
8
0
10
1927.473461
20
1266.149363
30
0.0
11
1927.078945
21
1266.832684
31
0.0
0
LINE
8
0
10
1933.120397
20
1259.832684
30
0.0
11
1932.473461
21
1260.953210
31
0.0
0
LINE
8
0
10
1930.473461
20
1264.417312
30
0.0
11
1929.944970
21
1265.332684
31
0.0
0
LINE
8
0
10
1929.944970
20
1265.332684
30
0.0
11
1929.473461
21
1266.149363
31
0.0
0
LINE
8
0
10
1933.473461
20
1262.685261
30
0.0
11
1932.473461
21
1264.417312
31
0.0
0
LINE
8
0
10
1936.473461
20
1260.953210
30
0.0
11
1935.473461
21
1262.685261
31
0.0
0
LINE
8
0
10
1933.473461
20
1266.149363
30
0.0
11
1933.078945
21
1266.832684
31
0.0
0
LINE
8
0
10
1939.120397
20
1259.832684
30
0.0
11
1938.473461
21
1260.953210
31
0.0
0
LINE
8
0
10
1936.473461
20
1264.417312
30
0.0
11
1935.944970
21
1265.332684
31
0.0
0
LINE
8
0
10
1935.944970
20
1265.332684
30
0.0
11
1935.473461
21
1266.149363
31
0.0
0
LINE
8
0
10
1939.473461
20
1262.685261
30
0.0
11
1938.473461
21
1264.417312
31
0.0
0
LINE
8
0
10
1942.473461
20
1260.953210
30
0.0
11
1941.590533
21
1262.482486
31
0.0
0
LINE
8
0
10
1939.473461
20
1266.149363
30
0.0
11
1939.078945
21
1266.832684
31
0.0
0
LINE
8
0
10
1945.120397
20
1259.832684
30
0.0
11
1944.473461
21
1260.953210
31
0.0
0
LINE
8
0
10
1942.473461
20
1264.417312
30
0.0
11
1941.473461
21
1266.149363
31
0.0
0
LINE
8
0
10
1945.473461
20
1262.685261
30
0.0
11
1944.473461
21
1264.417312
31
0.0
0
LINE
8
0
10
1945.473461
20
1266.149363
30
0.0
11
1945.078945
21
1266.832684
31
0.0
0
LINE
8
0
10
1924.161962
20
1263.877779
30
0.0
11
1924.473462
21
1264.417312
31
0.0
0
LINE
8
0
10
1924.161962
20
1260.413677
30
0.0
11
1924.473462
21
1260.953211
31
0.0
0
LINE
8
0
10
1926.473462
20
1264.417312
30
0.0
11
1927.473462
21
1266.149363
31
0.0
0
LINE
8
0
10
1926.473462
20
1260.953211
30
0.0
11
1927.473462
21
1262.685261
31
0.0
0
LINE
8
0
10
1929.473462
20
1266.149363
30
0.0
11
1929.867977
21
1266.832684
31
0.0
0
LINE
8
0
10
1929.473462
20
1262.685261
30
0.0
11
1930.473462
21
1264.417312
31
0.0
0
LINE
8
0
10
1929.826525
20
1259.832684
30
0.0
11
1930.473462
21
1260.953211
31
0.0
0
LINE
8
0
10
1932.473462
20
1264.417312
30
0.0
11
1933.001952
21
1265.332684
31
0.0
0
LINE
8
0
10
1933.001952
20
1265.332684
30
0.0
11
1933.473462
21
1266.149363
31
0.0
0
LINE
8
0
10
1932.473462
20
1260.953211
30
0.0
11
1933.473462
21
1262.685262
31
0.0
0
LINE
8
0
10
1935.473462
20
1266.149363
30
0.0
11
1935.867977
21
1266.832684
31
0.0
0
LINE
8
0
10
1935.473462
20
1262.685262
30
0.0
11
1936.473462
21
1264.417312
31
0.0
0
LINE
8
0
10
1935.826525
20
1259.832684
30
0.0
11
1936.473462
21
1260.953211
31
0.0
0
LINE
8
0
10
1938.473462
20
1264.417312
30
0.0
11
1939.001952
21
1265.332684
31
0.0
0
LINE
8
0
10
1939.001952
20
1265.332684
30
0.0
11
1939.473462
21
1266.149363
31
0.0
0
LINE
8
0
10
1938.473462
20
1260.953211
30
0.0
11
1939.473462
21
1262.685262
31
0.0
0
LINE
8
0
10
1941.473462
20
1266.149363
30
0.0
11
1941.867977
21
1266.832684
31
0.0
0
LINE
8
0
10
1941.590533
20
1262.888036
30
0.0
11
1942.473462
21
1264.417312
31
0.0
0
LINE
8
0
10
1941.826525
20
1259.832684
30
0.0
11
1942.473462
21
1260.953211
31
0.0
0
LINE
8
0
10
1944.473462
20
1264.417312
30
0.0
11
1945.473462
21
1266.149363
31
0.0
0
LINE
8
0
10
1944.473462
20
1260.953211
30
0.0
11
1945.473462
21
1262.685262
31
0.0
0
ARC
8
0
10
1950.876652
20
1256.057162
30
0.0
40
0.200000
50
270.000000
51
330.367342
0
LINE
8
0
10
1950.875250
20
1255.857166
30
0.0
11
1949.325456
21
1255.868033
31
0.0
0
ARC
8
0
10
1949.327559
20
1256.168025
30
0.0
40
0.300000
50
162.598280
51
270.000001
0
LINE
8
0
10
1949.041290
20
1256.257746
30
0.0
11
1949.639851
21
1258.167556
31
0.0
0
ARC
8
0
10
1950.403236
20
1257.928301
30
0.0
40
0.800000
50
117.598279
51
162.598279
0
LINE
8
0
10
1950.032620
20
1258.637275
30
0.0
11
1950.313691
21
1258.784204
31
0.0
0
ARC
8
0
10
1950.406345
20
1258.606960
30
0.0
40
0.200000
50
0.000000
51
117.598279
0
LINE
8
0
10
1950.606169
20
1258.598579
30
0.0
11
1950.594072
21
1258.310158
31
0.0
0
LINE
8
0
10
1950.594072
20
1258.310158
30
0.0
11
1952.302169
21
1257.226094
31
0.0
0
ARC
8
0
10
1952.623680
20
1257.732681
30
0.0
40
0.600000
50
237.598280
51
270.000001
0
LINE
8
0
10
1952.623680
20
1257.132681
30
0.0
11
1952.661962
21
1257.132681
31
0.0
0
ARC
8
0
10
1952.561962
20
1257.415524
30
0.0
40
0.300000
50
289.471222
51
70.528780
0
LINE
8
0
10
1952.661962
20
1257.698367
30
0.0
11
1952.661962
21
1261.732681
31
0.0
0
ARC
8
0
10
1952.361962
20
1261.732681
30
0.0
40
0.300000
50
0.000001
51
90.000001
0
LINE
8
0
10
1952.361962
20
1262.032681
30
0.0
11
1952.142347
21
1262.032681
31
0.0
0
ARC
8
0
10
1952.142347
20
1261.732681
30
0.0
40
0.300000
50
90.000001
51
120.000001
0
LINE
8
0
10
1951.992347
20
1261.992489
30
0.0
11
1950.461962
21
1261.108921
31
0.0
0
ARC
8
0
10
1950.361962
20
1261.282126
30
0.0
40
0.200000
50
180.000000
51
300.000000
0
LINE
8
0
10
1950.161962
20
1261.282126
30
0.0
11
1950.161962
21
1265.383237
31
0.0
0
ARC
8
0
10
1950.361962
20
1265.383237
30
0.0
40
0.200000
50
60.000000
51
180.000000
0
LINE
8
0
10
1950.461962
20
1265.556442
30
0.0
11
1951.992347
21
1264.672874
31
0.0
0
ARC
8
0
10
1952.142347
20
1264.932681
30
0.0
40
0.300000
50
240.000001
51
270.000001
0
LINE
8
0
10
1952.142347
20
1264.632681
30
0.0
11
1952.361962
21
1264.632681
31
0.0
0
ARC
8
0
10
1952.361962
20
1264.932681
30
0.0
40
0.300000
50
270.000001
51
0.000001
0
LINE
8
0
10
1952.661962
20
1264.932681
30
0.0
11
1952.661962
21
1268.966996
31
0.0
0
ARC
8
0
10
1952.561962
20
1269.249839
30
0.0
40
0.300000
50
289.471222
51
70.528780
0
LINE
8
0
10
1952.661962
20
1269.532681
30
0.0
11
1952.623680
21
1269.532681
31
0.0
0
ARC
8
0
10
1952.623680
20
1268.932681
30
0.0
40
0.600000
50
90.000001
51
122.401722
0
LINE
8
0
10
1952.302169
20
1269.439269
30
0.0
11
1950.594072
21
1268.355205
31
0.0
0
LINE
8
0
10
1950.594072
20
1268.355205
30
0.0
11
1950.606169
21
1268.066784
31
0.0
0
ARC
8
0
10
1950.406345
20
1268.058403
30
0.0
40
0.200000
50
242.401721
51
0.000000
0
LINE
8
0
10
1950.313691
20
1267.881159
30
0.0
11
1950.032620
21
1268.028088
31
0.0
0
ARC
8
0
10
1950.403236
20
1268.737062
30
0.0
40
0.800000
50
197.401721
51
242.401721
0
LINE
8
0
10
1949.639851
20
1268.497807
30
0.0
11
1949.041290
21
1270.407617
31
0.0
0
ARC
8
0
10
1949.327559
20
1270.497338
30
0.0
40
0.300000
50
90.000001
51
197.401722
0
LINE
8
0
10
1949.325456
20
1270.797330
30
0.0
11
1950.875250
21
1270.808196
31
0.0
0
ARC
8
0
10
1950.876652
20
1270.608201
30
0.0
40
0.200000
50
29.632658
51
90.000000
0
ARC
8
0
10
1951.311259
20
1270.855420
30
0.0
40
0.300000
50
209.632659
51
287.401722
0
LINE
8
0
10
1951.400980
20
1270.569151
30
0.0
11
1952.400773
21
1270.832681
31
0.0
0
LINE
8
0
10
1952.400773
20
1270.832681
30
0.0
11
1954.593159
21
1270.832681
31
0.0
0
ARC
8
0
10
1954.593159
20
1271.132681
30
0.0
40
0.300000
50
270.000001
51
330.000001
0
LINE
8
0
10
1954.852967
20
1270.982681
30
0.0
11
1957.220103
21
1275.082681
31
0.0
0
ARC
8
0
10
1958.519141
20
1274.332681
30
0.0
40
1.500000
50
45.000000
51
150.000000
0
LINE
8
0
10
1959.579801
20
1275.393342
30
0.0
11
1966.025874
21
1268.947269
31
0.0
0
ARC
8
0
10
1964.965214
20
1267.886608
30
0.0
40
1.500000
50
0.000000
51
45.000000
0
LINE
8
0
10
1966.465214
20
1267.886608
30
0.0
11
1966.465214
21
1256.132681
31
0.0
0
ARC
8
0
10
1966.165214
20
1256.132681
30
0.0
40
0.300000
50
270.000001
51
0.000001
0
LINE
8
0
10
1966.165214
20
1255.832681
30
0.0
11
1964.965214
21
1255.832681
31
0.0
0
ARC
8
0
10
1964.965214
20
1256.132681
30
0.0
40
0.300000
50
180.000001
51
270.000001
0
LINE
8
0
10
1964.665214
20
1256.132681
30
0.0
11
1964.665214
21
1257.032681
31
0.0
0
ARC
8
0
10
1964.365214
20
1257.032681
30
0.0
40
0.300000
50
0.000001
51
90.000001
0
LINE
8
0
10
1964.365214
20
1257.332681
30
0.0
11
1954.761962
21
1257.332681
31
0.0
0
ARC
8
0
10
1954.761962
20
1257.032681
30
0.0
40
0.300000
50
90.000001
51
180.000001
0
LINE
8
0
10
1954.461962
20
1257.032681
30
0.0
11
1954.461962
21
1256.132681
31
0.0
0
ARC
8
0
10
1954.161962
20
1256.132681
30
0.0
40
0.300000
50
270.000001
51
0.000001
0
LINE
8
0
10
1954.161962
20
1255.832681
30
0.0
11
1952.400773
21
1255.832681
31
0.0
0
LINE
8
0
10
1952.400773
20
1255.832681
30
0.0
11
1951.400980
21
1256.096212
31
0.0
0
ARC
8
0
10
1951.311259
20
1255.809943
30
0.0
40
0.300000
50
72.598280
51
150.367343
0
LINE
8
0
10
1954.761962
20
1261.022153
30
0.0
11
1956.508292
21
1261.022153
31
0.0
0
ARC
8
0
10
1956.508292
20
1261.322153
30
0.0
40
0.300000
50
270.000001
51
300.000001
0
LINE
8
0
10
1956.658292
20
1261.062346
30
0.0
11
1959.209125
21
1262.535070
31
0.0
0
ARC
8
0
10
1958.834125
20
1263.184589
30
0.0
40
0.750000
50
300.000000
51
120.000000
0
LINE
8
0
10
1958.459125
20
1263.834108
30
0.0
11
1956.465214
21
1262.682923
31
0.0
0
ARC
8
0
10
1955.865214
20
1263.722153
30
0.0
40
1.200000
50
180.000000
51
300.000000
0
LINE
8
0
10
1954.665214
20
1263.722153
30
0.0
11
1954.665214
21
1266.147024
31
0.0
0
ARC
8
0
10
1955.865214
20
1266.147024
30
0.0
40
1.200000
50
60.000000
51
180.000000
0
LINE
8
0
10
1956.465214
20
1267.186255
30
0.0
11
1958.459125
21
1266.035070
31
0.0
0
ARC
8
0
10
1958.834125
20
1266.684589
30
0.0
40
0.750000
50
240.000000
51
60.000000
0
LINE
8
0
10
1959.209125
20
1267.334108
30
0.0
11
1956.203281
21
1269.069533
31
0.0
0
ARC
8
0
10
1956.353281
20
1269.329340
30
0.0
40
0.300000
50
150.000001
51
240.000001
0
LINE
8
0
10
1956.093474
20
1269.479340
30
0.0
11
1958.307497
21
1273.314142
31
0.0
0
ARC
8
0
10
1958.740510
20
1273.064142
30
0.0
40
0.500000
50
47.222085
51
150.000000
0
LINE
8
0
10
1959.080089
20
1273.431138
30
0.0
11
1964.665214
21
1268.235494
31
0.0
0
LINE
8
0
10
1964.665214
20
1268.235494
30
0.0
11
1964.665214
21
1259.132681
31
0.0
0
ARC
8
0
10
1964.365214
20
1259.132681
30
0.0
40
0.300000
50
270.000001
51
0.000001
0
LINE
8
0
10
1964.365214
20
1258.832681
30
0.0
11
1954.761962
21
1258.832681
31
0.0
0
ARC
8
0
10
1954.761962
20
1259.132681
30
0.0
40
0.300000
50
180.000001
51
270.000001
0
LINE
8
0
10
1954.461962
20
1259.132681
30
0.0
11
1954.461962
21
1260.722153
31
0.0
0
ARC
8
0
10
1954.761962
20
1260.722153
30
0.0
40
0.300000
50
90.000001
51
180.000001
0
ARC
8
0
10
1915.861962
20
1262.332681
30
0.0
40
1.000000
50
0.000000
51
90.000000
0
LINE
8
0
10
1916.861962
20
1262.332681
30
0.0
11
1916.861962
21
1255.832681
31
0.0
0
LINE
8
0
10
1916.861962
20
1255.832681
30
0.0
11
1918.923151
21
1255.832681
31
0.0
0
LINE
8
0
10
1918.923151
20
1255.832681
30
0.0
11
1919.922944
21
1256.096212
31
0.0
0
ARC
8
0
10
1920.012665
20
1255.809943
30
0.0
40
0.300000
50
29.632659
51
107.401722
0
ARC
8
0
10
1920.447271
20
1256.057162
30
0.0
40
0.200000
50
209.632658
51
270.000000
0
LINE
8
0
10
1920.448674
20
1255.857166
30
0.0
11
1921.998468
21
1255.868033
31
0.0
0
ARC
8
0
10
1921.996364
20
1256.168025
30
0.0
40
0.300000
50
270.000001
51
17.401722
0
LINE
8
0
10
1922.282634
20
1256.257746
30
0.0
11
1921.684073
21
1258.167556
31
0.0
0
ARC
8
0
10
1920.920688
20
1257.928301
30
0.0
40
0.800000
50
17.401721
51
62.401721
0
LINE
8
0
10
1921.291303
20
1258.637275
30
0.0
11
1921.010233
21
1258.784204
31
0.0
0
ARC
8
0
10
1920.917579
20
1258.606960
30
0.0
40
0.200000
50
62.401721
51
180.000000
0
LINE
8
0
10
1920.717755
20
1258.598579
30
0.0
11
1920.729852
21
1258.310158
31
0.0
0
LINE
8
0
10
1920.729852
20
1258.310158
30
0.0
11
1919.021755
21
1257.226094
31
0.0
0
ARC
8
0
10
1918.700244
20
1257.732681
30
0.0
40
0.600000
50
270.000001
51
302.401722
0
LINE
8
0
10
1918.700244
20
1257.132681
30
0.0
11
1918.661962
21
1257.132681
31
0.0
0
ARC
8
0
10
1918.761962
20
1257.415524
30
0.0
40
0.300000
50
109.471222
51
250.528780
0
LINE
8
0
10
1918.661962
20
1257.698367
30
0.0
11
1918.661962
21
1261.732681
31
0.0
0
ARC
8
0
10
1918.961962
20
1261.732681
30
0.0
40
0.300000
50
90.000001
51
180.000001
0
LINE
8
0
10
1918.961962
20
1262.032681
30
0.0
11
1919.181577
21
1262.032681
31
0.0
0
ARC
8
0
10
1919.181577
20
1261.732681
30
0.0
40
0.300000
50
60.000001
51
90.000001
0
LINE
8
0
10
1919.331577
20
1261.992489
30
0.0
11
1920.861962
21
1261.108921
31
0.0
0
ARC
8
0
10
1920.961962
20
1261.282126
30
0.0
40
0.200000
50
240.000000
51
0.000000
0
LINE
8
0
10
1921.161962
20
1261.282126
30
0.0
11
1921.161962
21
1265.383237
31
0.0
0
ARC
8
0
10
1920.961962
20
1265.383237
30
0.0
40
0.200000
50
0.000000
51
120.000000
0
LINE
8
0
10
1920.861962
20
1265.556442
30
0.0
11
1919.331577
21
1264.672874
31
0.0
0
ARC
8
0
10
1919.181577
20
1264.932681
30
0.0
40
0.300000
50
270.000001
51
300.000001
0
LINE
8
0
10
1919.181577
20
1264.632681
30
0.0
11
1918.961962
21
1264.632681
31
0.0
0
ARC
8
0
10
1918.961962
20
1264.932681
30
0.0
40
0.300000
50
180.000001
51
270.000001
0
LINE
8
0
10
1918.661962
20
1264.932681
30
0.0
11
1918.661962
21
1268.966996
31
0.0
0
ARC
8
0
10
1918.761962
20
1269.249839
30
0.0
40
0.300000
50
109.471222
51
250.528780
0
LINE
8
0
10
1918.661962
20
1269.532681
30
0.0
11
1918.700244
21
1269.532681
31
0.0
0
ARC
8
0
10
1918.700244
20
1268.932681
30
0.0
40
0.600000
50
57.598280
51
90.000001
0
LINE
8
0
10
1919.021755
20
1269.439269
30
0.0
11
1920.729852
21
1268.355205
31
0.0
0
LINE
8
0
10
1920.729852
20
1268.355205
30
0.0
11
1920.717755
21
1268.066784
31
0.0
0
ARC
8
0
10
1920.917579
20
1268.058403
30
0.0
40
0.200000
50
180.000000
51
297.598279
0
LINE
8
0
10
1921.010233
20
1267.881159
30
0.0
11
1921.291303
21
1268.028088
31
0.0
0
ARC
8
0
10
1920.920688
20
1268.737062
30
0.0
40
0.800000
50
297.598279
51
342.598279
0
LINE
8
0
10
1921.684073
20
1268.497807
30
0.0
11
1922.282634
21
1270.407617
31
0.0
0
ARC
8
0
10
1921.996364
20
1270.497338
30
0.0
40
0.300000
50
342.598280
51
90.000001
0
LINE
8
0
10
1921.998468
20
1270.797330
30
0.0
11
1920.448674
21
1270.808196
31
0.0
0
ARC
8
0
10
1920.447271
20
1270.608201
30
0.0
40
0.200000
50
90.000000
51
150.367342
0
ARC
8
0
10
1920.012665
20
1270.855420
30
0.0
40
0.300000
50
252.598280
51
330.367343
0
LINE
8
0
10
1919.922944
20
1270.569151
30
0.0
11
1918.923151
21
1270.832681
31
0.0
0
LINE
8
0
10
1918.923151
20
1270.832681
30
0.0
11
1902.811962
21
1270.832681
31
0.0
0
LINE
8
0
10
1902.811962
20
1270.832681
30
0.0
11
1902.811962
21
1256.132681
31
0.0
0
ARC
8
0
10
1903.111962
20
1256.132681
30
0.0
40
0.300000
50
180.000001
51
270.000001
0
LINE
8
0
10
1903.111962
20
1255.832681
30
0.0
11
1904.311962
21
1255.832681
31
0.0
0
ARC
8
0
10
1904.311962
20
1256.132681
30
0.0
40
0.300000
50
270.000001
51
0.000001
0
LINE
8
0
10
1904.611962
20
1256.132681
30
0.0
11
1904.611962
21
1257.032681
31
0.0
0
ARC
8
0
10
1904.911962
20
1257.032681
30
0.0
40
0.300000
50
90.000001
51
180.000001
0
LINE
8
0
10
1904.911962
20
1257.332681
30
0.0
11
1910.061962
21
1257.332681
31
0.0
0
ARC
8
0
10
1910.061962
20
1257.032681
30
0.0
40
0.300000
50
0.000001
51
90.000001
0
LINE
8
0
10
1910.361962
20
1257.032681
30
0.0
11
1910.361962
21
1256.132681
31
0.0
0
ARC
8
0
10
1910.661962
20
1256.132681
30
0.0
40
0.300000
50
180.000001
51
270.000001
0
LINE
8
0
10
1910.661962
20
1255.832681
30
0.0
11
1911.561962
21
1255.832681
31
0.0
0
ARC
8
0
10
1911.561962
20
1256.132681
30
0.0
40
0.300000
50
270.000001
51
0.000001
0
LINE
8
0
10
1911.861962
20
1256.132681
30
0.0
11
1911.861962
21
1260.995251
31
0.0
0
ARC
8
0
10
1912.161962
20
1260.995251
30
0.0
40
0.300000
50
134.261126
51
180.000001
0
LINE
8
0
10
1911.952583
20
1261.210101
30
0.0
11
1914.043251
21
1263.247531
31
0.0
0
ARC
8
0
10
1914.252630
20
1263.032681
30
0.0
40
0.300000
50
90.000001
51
134.261126
0
LINE
8
0
10
1914.252630
20
1263.332681
30
0.0
11
1915.861962
21
1263.332681
31
0.0
0
ARC
8
0
10
1913.622731
20
1268.632681
30
0.0
40
0.300000
50
90.000001
51
150.000001
0
LINE
8
0
10
1913.622731
20
1268.932681
30
0.0
11
1915.761962
21
1268.932681
31
0.0
0
ARC
8
0
10
1915.761962
20
1267.932681
30
0.0
40
1.000000
50
0.000000
51
90.000000
0
LINE
8
0
10
1916.761962
20
1267.932681
30
0.0
11
1916.761962
21
1265.732681
31
0.0
0
ARC
8
0
10
1915.761962
20
1265.732681
30
0.0
40
1.000000
50
270.000000
51
0.000000
0
LINE
8
0
10
1915.761962
20
1264.732681
30
0.0
11
1913.725617
21
1264.732681
31
0.0
0
ARC
8
0
10
1913.725617
20
1263.982681
30
0.0
40
0.750000
50
90.000000
51
134.261125
0
LINE
8
0
10
1913.202170
20
1264.519806
30
0.0
11
1912.771661
21
1264.100261
31
0.0
0
ARC
8
0
10
1912.562283
20
1264.315111
30
0.0
40
0.300000
50
282.198539
51
314.261126
0
LINE
8
0
10
1912.625673
20
1264.021884
30
0.0
11
1912.552678
21
1263.982696
31
0.0
0
LINE
8
0
10
1912.552678
20
1263.982696
30
0.0
11
1911.383126
21
1262.842926
31
0.0
0
ARC
8
0
10
1911.034161
20
1263.201009
30
0.0
40
0.500000
50
240.000000
51
314.261125
0
LINE
8
0
10
1910.784161
20
1262.767996
30
0.0
11
1909.083565
21
1263.749836
31
0.0
0
ARC
8
0
10
1909.233565
20
1264.009643
30
0.0
40
0.300000
50
180.000001
51
240.000001
0
LINE
8
0
10
1908.933565
20
1264.009643
30
0.0
11
1908.933565
21
1264.540467
31
0.0
0
ARC
8
0
10
1908.183565
20
1264.540467
30
0.0
40
0.750000
50
0.000000
51
180.000000
0
LINE
8
0
10
1907.433565
20
1264.540467
30
0.0
11
1907.433565
21
1263.547763
31
0.0
0
ARC
8
0
10
1908.433565
20
1263.547763
30
0.0
40
1.000000
50
180.000000
51
240.000000
0
LINE
8
0
10
1907.933565
20
1262.681738
30
0.0
11
1910.361962
21
1261.279702
31
0.0
0
ARC
8
0
10
1910.211962
20
1261.019895
30
0.0
40
0.300000
50
0.000001
51
60.000001
0
LINE
8
0
10
1910.511962
20
1261.019895
30
0.0
11
1910.511962
21
1259.132681
31
0.0
0
ARC
8
0
10
1910.211962
20
1259.132681
30
0.0
40
0.300000
50
270.000001
51
0.000001
0
LINE
8
0
10
1910.211962
20
1258.832681
30
0.0
11
1904.911962
21
1258.832681
31
0.0
0
ARC
8
0
10
1904.911962
20
1259.132681
30
0.0
40
0.300000
50
180.000001
51
270.000001
0
LINE
8
0
10
1904.611962
20
1259.132681
30
0.0
11
1904.611962
21
1268.782681
31
0.0
0
ARC
8
0
10
1904.861962
20
1268.782681
30
0.0
40
0.250000
50
90.000000
51
180.000000
0
LINE
8
0
10
1904.861962
20
1269.032681
30
0.0
11
1911.255595
21
1269.032681
31
0.0
0
ARC
8
0
10
1911.255595
20
1268.732681
30
0.0
40
0.300000
50
330.000001
51
90.000001
0
LINE
8
0
10
1911.515403
20
1268.582681
30
0.0
11
1911.076098
21
1267.821783
31
0.0
0
ARC
8
0
10
1911.725617
20
1267.446783
30
0.0
40
0.750000
50
150.000000
51
330.000000
0
LINE
8
0
10
1912.375136
20
1267.071783
30
0.0
11
1913.362924
21
1268.782681
31
0.0
0
ARC
8
0
10
1946.729924
20
1256.832681
30
0.0
40
1.000000
50
270.000000
51
319.999452
0
LINE
8
0
10
1946.729924
20
1255.832681
30
0.0
11
1930.661962
21
1255.832681
31
0.0
0
LINE
8
0
10
1930.661962
20
1255.832681
30
0.0
11
1924.593999
21
1255.832681
31
0.0
0
ARC
8
0
10
1924.593999
20
1256.832681
30
0.0
40
1.000000
50
220.000527
51
270.000000
0
LINE
8
0
10
1923.827960
20
1256.189887
30
0.0
11
1921.991005
21
1258.379044
31
0.0
0
ARC
8
0
10
1921.071759
20
1257.607691
30
0.0
40
1.200000
50
40.000527
51
90.000000
0
ARC
8
0
10
1921.065064
20
1258.607691
30
0.0
40
0.200000
50
90.000000
51
120.000130
0
LINE
8
0
10
1920.965064
20
1258.780896
30
0.0
11
1919.455751
21
1257.909489
31
0.0
0
ARC
8
0
10
1919.355750
20
1258.082694
30
0.0
40
0.200000
50
270.000000
51
300.000130
0
LINE
8
0
10
1919.355750
20
1257.882694
30
0.0
11
1918.961963
21
1257.882694
31
0.0
0
ARC
8
0
10
1918.961963
20
1258.182694
30
0.0
40
0.300000
50
180.000001
51
270.000001
0
LINE
8
0
10
1918.661963
20
1258.182694
30
0.0
11
1918.661963
21
1259.082684
31
0.0
0
ARC
8
0
10
1918.961963
20
1259.082684
30
0.0
40
0.300000
50
90.000001
51
180.000001
0
LINE
8
0
10
1918.961963
20
1259.382684
30
0.0
11
1919.082166
21
1259.382684
31
0.0
0
ARC
8
0
10
1919.411962
20
1259.907694
30
0.0
40
0.620000
50
237.864126
51
122.138515
0
LINE
8
0
10
1919.082142
20
1260.432688
30
0.0
11
1918.961963
21
1260.432688
31
0.0
0
ARC
8
0
10
1918.961963
20
1260.732688
30
0.0
40
0.300000
50
180.000001
51
270.000001
0
LINE
8
0
10
1918.661963
20
1260.732688
30
0.0
11
1918.661963
21
1261.632694
31
0.0
0
ARC
8
0
10
1918.961963
20
1261.632694
30
0.0
40
0.300000
50
90.000001
51
180.000001
0
LINE
8
0
10
1918.961963
20
1261.932694
30
0.0
11
1919.355742
21
1261.932694
31
0.0
0
ARC
8
0
10
1919.355742
20
1261.732694
30
0.0
40
0.200000
50
60.000100
51
90.000000
0
LINE
8
0
10
1919.455741
20
1261.905899
30
0.0
11
1920.965269
21
1261.034376
31
0.0
0
ARC
8
0
10
1921.065269
20
1261.207581
30
0.0
40
0.200000
50
240.000100
51
270.000000
0
ARC
8
0
10
1921.092078
20
1258.007694
30
0.0
40
3.000000
50
39.999735
51
90.480011
0
LINE
8
0
10
1923.390220
20
1259.936046
30
0.0
11
1924.488586
21
1258.627052
31
0.0
0
ARC
8
0
10
1926.404818
20
1260.232684
30
0.0
40
2.500000
50
219.960034
51
270.000000
0
LINE
8
0
10
1926.404818
20
1257.732684
30
0.0
11
1944.919106
21
1257.732684
31
0.0
0
ARC
8
0
10
1944.919106
20
1260.232684
30
0.0
40
2.500000
50
270.000000
51
320.000265
0
LINE
8
0
10
1946.834225
20
1258.625724
30
0.0
11
1947.933702
21
1259.936043
31
0.0
0
ARC
8
0
10
1950.231844
20
1258.007691
30
0.0
40
3.000000
50
90.000000
51
140.000265
0
LINE
8
0
10
1950.231845
20
1261.007691
30
0.0
11
1950.258846
21
1261.007691
31
0.0
0
ARC
8
0
10
1950.258846
20
1261.207691
30
0.0
40
0.200000
50
270.000000
51
299.999900
0
LINE
8
0
10
1950.358846
20
1261.034486
30
0.0
11
1951.868184
21
1261.905899
31
0.0
0
ARC
8
0
10
1951.968184
20
1261.732694
30
0.0
40
0.200000
50
90.000000
51
119.999900
0
LINE
8
0
10
1951.968184
20
1261.932694
30
0.0
11
1952.361962
21
1261.932694
31
0.0
0
ARC
8
0
10
1952.361962
20
1261.632694
30
0.0
40
0.300000
50
0.000001
51
90.000001
0
LINE
8
0
10
1952.661962
20
1261.632694
30
0.0
11
1952.661962
21
1260.732688
31
0.0
0
ARC
8
0
10
1952.361962
20
1260.732688
30
0.0
40
0.300000
50
270.000001
51
0.000001
0
LINE
8
0
10
1952.361962
20
1260.432688
30
0.0
11
1952.241784
21
1260.432688
31
0.0
0
ARC
8
0
10
1951.911964
20
1259.907694
30
0.0
40
0.620000
50
57.861485
51
302.135874
0
LINE
8
0
10
1952.241759
20
1259.382684
30
0.0
11
1952.361962
21
1259.382684
31
0.0
0
ARC
8
0
10
1952.361962
20
1259.082684
30
0.0
40
0.300000
50
0.000001
51
90.000001
0
LINE
8
0
10
1952.661962
20
1259.082684
30
0.0
11
1952.661962
21
1258.182694
31
0.0
0
ARC
8
0
10
1952.361962
20
1258.182694
30
0.0
40
0.300000
50
270.000001
51
0.000001
0
LINE
8
0
10
1952.361962
20
1257.882694
30
0.0
11
1951.968175
21
1257.882694
31
0.0
0
ARC
8
0
10
1951.968175
20
1258.082694
30
0.0
40
0.200000
50
239.999870
51
270.000000
0
LINE
8
0
10
1951.868175
20
1257.909489
30
0.0
11
1950.358862
21
1258.780896
31
0.0
0
ARC
8
0
10
1950.258861
20
1258.607691
30
0.0
40
0.200000
50
59.999870
51
90.000000
0
ARC
8
0
10
1950.252167
20
1257.607691
30
0.0
40
1.200000
50
90.000000
51
139.999842
0
LINE
8
0
10
1949.332916
20
1258.379039
30
0.0
11
1947.495979
21
1256.189874
31
0.0
0
ARC
8
0
10
1946.729924
20
1269.832681
30
0.0
40
1.000000
50
40.000548
51
90.000000
0
LINE
8
0
10
1946.729924
20
1270.832681
30
0.0
11
1924.593999
21
1270.832681
31
0.0
0
ARC
8
0
10
1924.593999
20
1269.832681
30
0.0
40
1.000000
50
90.000000
51
139.999473
0
LINE
8
0
10
1923.827960
20
1270.475476
30
0.0
11
1921.991005
21
1268.286319
31
0.0
0
ARC
8
0
10
1921.071759
20
1269.057672
30
0.0
40
1.200000
50
270.000000
51
319.999473
0
ARC
8
0
10
1921.065064
20
1268.057672
30
0.0
40
0.200000
50
239.999870
51
270.000000
0
LINE
8
0
10
1920.965064
20
1267.884467
30
0.0
11
1919.455751
21
1268.755874
31
0.0
0
ARC
8
0
10
1919.355750
20
1268.582669
30
0.0
40
0.200000
50
59.999870
51
90.000000
0
LINE
8
0
10
1919.355750
20
1268.782669
30
0.0
11
1918.961963
21
1268.782669
31
0.0
0
ARC
8
0
10
1918.961963
20
1268.482669
30
0.0
40
0.300000
50
90.000001
51
180.000001
0
LINE
8
0
10
1918.661963
20
1268.482669
30
0.0
11
1918.661963
21
1267.582678
31
0.0
0
ARC
8
0
10
1918.961963
20
1267.582678
30
0.0
40
0.300000
50
180.000001
51
270.000001
0
LINE
8
0
10
1918.961963
20
1267.282678
30
0.0
11
1919.082166
21
1267.282678
31
0.0
0
ARC
8
0
10
1919.411962
20
1266.757669
30
0.0
40
0.620000
50
237.861485
51
122.135874
0
LINE
8
0
10
1919.082142
20
1266.232675
30
0.0
11
1918.961963
21
1266.232675
31
0.0
0
ARC
8
0
10
1918.961963
20
1265.932675
30
0.0
40
0.300000
50
90.000001
51
180.000001
0
LINE
8
0
10
1918.661963
20
1265.932675
30
0.0
11
1918.661963
21
1265.032669
31
0.0
0
ARC
8
0
10
1918.961963
20
1265.032669
30
0.0
40
0.300000
50
180.000001
51
270.000001
0
LINE
8
0
10
1918.961963
20
1264.732669
30
0.0
11
1919.355742
21
1264.732669
31
0.0
0
ARC
8
0
10
1919.355742
20
1264.932669
30
0.0
40
0.200000
50
270.000000
51
299.999900
0
LINE
8
0
10
1919.455741
20
1264.759464
30
0.0
11
1920.965269
21
1265.630987
31
0.0
0
ARC
8
0
10
1921.065269
20
1265.457782
30
0.0
40
0.200000
50
90.000000
51
119.999900
0
ARC
8
0
10
1921.092078
20
1268.657669
30
0.0
40
3.000000
50
269.519989
51
320.000265
0
LINE
8
0
10
1923.390220
20
1266.729317
30
0.0
11
1924.488586
21
1268.038311
31
0.0
0
ARC
8
0
10
1926.404818
20
1266.432678
30
0.0
40
2.500000
50
90.000000
51
140.039966
0
LINE
8
0
10
1926.404818
20
1268.932678
30
0.0
11
1944.919106
21
1268.932678
31
0.0
0
ARC
8
0
10
1944.919106
20
1266.432678
30
0.0
40
2.500000
50
39.999735
51
90.000000
0
LINE
8
0
10
1946.834225
20
1268.039639
30
0.0
11
1947.933702
21
1266.729320
31
0.0
0
ARC
8
0
10
1950.231844
20
1268.657672
30
0.0
40
3.000000
50
219.999735
51
270.000000
0
LINE
8
0
10
1950.231845
20
1265.657672
30
0.0
11
1950.258846
21
1265.657672
31
0.0
0
ARC
8
0
10
1950.258846
20
1265.457672
30
0.0
40
0.200000
50
60.000100
51
90.000000
0
LINE
8
0
10
1950.358846
20
1265.630877
30
0.0
11
1951.868184
21
1264.759464
31
0.0
0
ARC
8
0
10
1951.968184
20
1264.932669
30
0.0
40
0.200000
50
240.000100
51
270.000000
0
LINE
8
0
10
1951.968184
20
1264.732669
30
0.0
11
1952.361962
21
1264.732669
31
0.0
0
ARC
8
0
10
1952.361962
20
1265.032669
30
0.0
40
0.300000
50
270.000001
51
0.000001
0
LINE
8
0
10
1952.661962
20
1265.032669
30
0.0
11
1952.661962
21
1265.932675
31
0.0
0
ARC
8
0
10
1952.361962
20
1265.932675
30
0.0
40
0.300000
50
0.000001
51
90.000001
0
LINE
8
0
10
1952.361962
20
1266.232675
30
0.0
11
1952.241784
21
1266.232675
31
0.0
0
ARC
8
0
10
1951.911964
20
1266.757669
30
0.0
40
0.620000
50
57.864126
51
302.138515
0
LINE
8
0
10
1952.241759
20
1267.282678
30
0.0
11
1952.361962
21
1267.282678
31
0.0
0
ARC
8
0
10
1952.361962
20
1267.582678
30
0.0
40
0.300000
50
270.000001
51
0.000001
0
LINE
8
0
10
1952.661962
20
1267.582678
30
0.0
11
1952.661962
21
1268.482669
31
0.0
0
ARC
8
0
10
1952.361962
20
1268.482669
30
0.0
40
0.300000
50
0.000001
51
90.000001
0
LINE
8
0
10
1952.361962
20
1268.782669
30
0.0
11
1951.968175
21
1268.782669
31
0.0
0
ARC
8
0
10
1951.968175
20
1268.582669
30
0.0
40
0.200000
50
90.000000
51
120.000130
0
LINE
8
0
10
1951.868175
20
1268.755874
30
0.0
11
1950.358862
21
1267.884467
31
0.0
0
ARC
8
0
10
1950.258861
20
1268.057672
30
0.0
40
0.200000
50
270.000000
51
300.000130
0
ARC
8
0
10
1950.252167
20
1269.057672
30
0.0
40
1.200000
50
220.000158
51
270.000000
0
LINE
8
0
10
1949.332916
20
1268.286324
30
0.0
11
1947.495979
21
1270.475488
31
0.0
0
LINE
8
0
10
1924.161962
20
1259.832684
30
0.0
11
1947.161962
21
1259.832684
31
0.0
0
LINE
8
0
10
1947.161962
20
1259.832684
30
0.0
11
1947.161962
21
1266.832684
31
0.0
0
LINE
8
0
10
1947.161962
20
1266.832684
30
0.0
11
1924.161962
21
1266.832684
31
0.0
0
LINE
8
0
10
1924.161962
20
1266.832684
30
0.0
11
1924.161962
21
1259.832684
31
0.0
0
ATTDEF
8
0
10
1946.729924
20
1270.832681
30
0.0
40
3.5
1

3

2
VC_START
70
0
0
ATTDEF
8
0
10
1965.565214
20
1255.832681
30
0.0
40
3.5
1

3

2
VC_END
70
0
0
ATTDEF
8
0
10
1966.465214
20
1255.832681
30
0.0
40
3.5
1

3

2
FRONT_VIEW
70
0
0
ATTDEF
8
0
10
1966.465214
20
1255.832681
30
0.0
40
3.5
1

3

2
BL01:6800.000000,,1
70
0
0
ATTDEF
8
0
10
1966.465214
20
1255.832681
30
0.0
40
3.5
1

3

2
OPTI:500.000000,1,0,3000.000000,6500.000000,500.000000,0,0.000000,0
70
0
0
ATTDEF
8
0
10
1966.465214
20
1255.832681
30
0.0
40
3.5
1

3

2
GLASS_MIN:0.000000
70
0
0
ATTDEF
8
0
10
1966.465214
20
1255.832681
30
0.0
40
3.5
1

3

2
GLASS_MAX:0.000000
70
0
0
ATTDEF
8
0
10
1966.465214
20
1255.832681
30
0.0
40
3.5
1

3

2
JX:0.000000
70
0
0
ATTDEF
8
0
10
1966.465214
20
1255.832681
30
0.0
40
3.5
1

3

2
WX:0.000000
70
0
0
ATTDEF
8
0
10
1966.465214
20
1255.832681
30
0.0
40
3.5
1

3

2
JY:0.000000
70
0
0
ATTDEF
8
0
10
1966.465214
20
1255.832681
30
0.0
40
3.5
1

3

2
WY:0.000000
70
0
0
ATTDEF
8
0
10
1966.465214
20
1255.832681
30
0.0
40
3.5
1

3

2
FP_LCS_ORIG
70
0
0
ATTDEF
8
0
10
1956.465214
20
1255.832681
30
0.0
40
3.5
1

3

2
FP_LCS_HOT
70
0
0
ATTDEF
8
0
10
1966.465214
20
1265.832681
30
0.0
40
3.5
1

3

2
FP_LCS_INTERN
70
0
0
ATTDEF
8
0
10
0.000000
20
0.000000
30
0.0
40
3.5
1

3

2
DESC:Soglia ribassata a taglio termico
70
0
0
ATTDEF
8
0
10
0.000000
20
0.000000
30
0.0
40
3.5
1

3

2
DENS:0.974400
70
0
0
ATTDEF
8
0
10
0.000000
20
0.000000
30
0.0
40
3.5
1

3

2
TDEV:0.000000
70
0
0
ATTDEF
8
0
10
0.000000
20
0.000000
30
0.0
40
3.5
1

3

2
TDEV2:0.000000
70
0
0
ATTDEF
8
0
10
0.000000
20
0.000000
30
0.0
40
3.5
1

3

2
TDEV3:0.000000
70
0
0
ATTDEF
8
0
10
0.000000
20
0.000000
30
0.0
40
3.5
1

3

2
TDEV4:0.000000
70
0
0
ATTDEF
8
0
10
0.000000
20
0.000000
30
0.0
40
3.5
1

3

2
TDEV5:0.000000
70
0
0
ATTDEF
8
0
10
0.000000
20
0.000000
30
0.0
40
3.5
1

3

2
PANE_WIDTH:0
70
0
0
ATTDEF
8
0
10
0.000000
20
0.000000
30
0.0
40
3.5
1

3

2
MIN_VETRO:0
70
0
0
ATTDEF
8
0
10
0.000000
20
0.000000
30
0.0
40
3.5
1

3

2
MAX_VETRO:0
70
0
0
ATTDEF
8
0
10
0.000000
20
0.000000
30
0.0
40
3.5
1

3

2
JX:0
70
0
0
ATTDEF
8
0
10
0.000000
20
0.000000
30
0.0
40
3.5
1

3

2
WX:0
70
0
0
ATTDEF
8
0
10
0.000000
20
0.000000
30
0.0
40
3.5
1

3

2
JY:0
70
0
0
ATTDEF
8
0
10
0.000000
20
0.000000
30
0.0
40
3.5
1

3

2
WY:0
70
0
0
ENDSEC
0
EOF
