0
SECTION
2
ENTITIES
0
ARC
8
0
10
127.306547
20
117.668687
30
0.0
40
0.300000
50
180.000000
51
270.000000
0
LINE
8
0
10
127.006547
20
117.668687
30
0.0
11
127.006547
21
121.773390
31
0.0
0
ARC
8
0
10
126.706547
20
121.773390
30
0.0
40
0.300000
50
0.000000
51
90.000000
0
LINE
8
0
10
126.706547
20
122.073390
30
0.0
11
126.306547
21
122.073390
31
0.0
0
ARC
8
0
10
126.306547
20
122.373390
30
0.0
40
0.300000
50
180.000000
51
270.000000
0
LINE
8
0
10
126.006547
20
122.373390
30
0.0
11
126.006547
21
123.273390
31
0.0
0
ARC
8
0
10
126.306547
20
123.273390
30
0.0
40
0.300000
50
90.000000
51
180.000000
0
LINE
8
0
10
126.306547
20
123.573390
30
0.0
11
161.306547
21
123.573390
31
0.0
0
ARC
8
0
10
161.306547
20
123.873390
30
0.0
40
0.300000
50
270.000000
51
0.000000
0
LINE
8
0
10
161.606547
20
123.873390
30
0.0
11
161.606547
21
127.773390
31
0.0
0
ARC
8
0
10
161.906547
20
127.773390
30
0.0
40
0.300000
50
90.000000
51
180.000000
0
LINE
8
0
10
161.906547
20
128.073390
30
0.0
11
162.906547
21
128.073390
31
0.0
0
ARC
8
0
10
162.906547
20
127.773390
30
0.0
40
0.300000
50
0.000000
51
90.000000
0
LINE
8
0
10
163.206547
20
127.773390
30
0.0
11
163.206547
21
117.373390
31
0.0
0
ARC
8
0
10
163.506547
20
117.373390
30
0.0
40
0.300000
50
180.000000
51
270.000000
0
LINE
8
0
10
163.506547
20
117.073390
30
0.0
11
167.356547
21
117.073390
31
0.0
0
ARC
8
0
10
167.356547
20
116.773390
30
0.0
40
0.300000
50
0.000000
51
90.000000
0
LINE
8
0
10
167.656547
20
116.773390
30
0.0
11
167.656547
21
112.573390
31
0.0
0
ARC
8
0
10
167.356547
20
112.573390
30
0.0
40
0.300000
50
270.000000
51
0.000000
0
LINE
8
0
10
167.356547
20
112.273390
30
0.0
11
166.456547
21
112.273390
31
0.0
0
ARC
8
0
10
166.456547
20
112.573390
30
0.0
40
0.300000
50
180.000000
51
270.000000
0
LINE
8
0
10
166.156547
20
112.573390
30
0.0
11
166.156547
21
115.273390
31
0.0
0
ARC
8
0
10
165.856547
20
115.273390
30
0.0
40
0.300000
50
0.000000
51
90.000000
0
LINE
8
0
10
165.856547
20
115.573390
30
0.0
11
162.606547
21
115.573390
31
0.0
0
ARC
8
0
10
162.606547
20
116.573390
30
0.0
40
1.000000
50
180.000000
51
270.000000
0
LINE
8
0
10
161.606547
20
116.573390
30
0.0
11
161.606547
21
121.273390
31
0.0
0
ARC
8
0
10
161.306547
20
121.273390
30
0.0
40
0.300000
50
0.000000
51
90.000000
0
LINE
8
0
10
161.306547
20
121.573390
30
0.0
11
156.111269
21
121.573390
31
0.0
0
ARC
8
0
10
156.111269
20
121.073390
30
0.0
40
0.500000
50
90.000000
51
180.000000
0
LINE
8
0
10
155.611269
20
121.073390
30
0.0
11
155.611269
21
117.668687
31
0.0
0
ARC
8
0
10
155.311269
20
117.668687
30
0.0
40
0.300000
50
270.000000
51
0.000000
0
LINE
8
0
10
155.311269
20
117.368687
30
0.0
11
153.911269
21
117.368687
31
0.0
0
ARC
8
0
10
153.911269
20
117.668687
30
0.0
40
0.300000
50
180.000000
51
270.000000
0
LINE
8
0
10
153.611269
20
117.668687
30
0.0
11
153.611269
21
121.073390
31
0.0
0
ARC
8
0
10
153.111269
20
121.073390
30
0.0
40
0.500000
50
0.000000
51
90.000000
0
LINE
8
0
10
153.111269
20
121.573390
30
0.0
11
148.907570
21
121.573390
31
0.0
0
ARC
8
0
10
148.907570
20
121.073390
30
0.0
40
0.500000
50
90.000000
51
180.000000
0
LINE
8
0
10
148.407570
20
121.073390
30
0.0
11
148.407570
21
112.773390
31
0.0
0
ARC
8
0
10
147.907570
20
112.773390
30
0.0
40
0.500000
50
270.000000
51
0.000000
0
LINE
8
0
10
147.907570
20
112.273390
30
0.0
11
147.408233
21
112.273390
31
0.0
0
ARC
8
0
10
147.408233
20
112.773390
30
0.0
40
0.500000
50
180.000000
51
270.000000
0
LINE
8
0
10
146.908233
20
112.773390
30
0.0
11
146.908233
21
121.573390
31
0.0
0
ARC
8
0
10
146.408233
20
121.573390
30
0.0
40
0.500000
50
0.000000
51
90.000000
0
LINE
8
0
10
146.408233
20
122.073390
30
0.0
11
128.806547
21
122.073390
31
0.0
0
ARC
8
0
10
128.806547
20
121.773390
30
0.0
40
0.300000
50
90.000000
51
180.000000
0
LINE
8
0
10
128.506547
20
121.773390
30
0.0
11
128.506547
21
117.668687
31
0.0
0
ARC
8
0
10
128.206547
20
117.668687
30
0.0
40
0.300000
50
270.000000
51
0.000000
0
LINE
8
0
10
128.206547
20
117.368687
30
0.0
11
127.306547
21
117.368687
31
0.0
0
ATTDEF
8
0
10
162.406547
20
128.073390
30
0.0
40
3.5
1

3

2
VC_START
70
0
0
ATTDEF
8
0
10
147.657902
20
112.273390
30
0.0
40
3.5
1

3

2
VC_END
70
0
0
ATTDEF
8
0
10
126.006547
20
112.273390
30
0.0
40
3.5
1

3

2
JY:0.000000
70
0
0
ATTDEF
8
0
10
126.006547
20
112.273390
30
0.0
40
3.5
1

3

2
WY:0.000000
70
0
0
ATTDEF
8
0
10
126.006547
20
112.273390
30
0.0
40
3.5
1

3

2
DESC:Battuta porta
70
0
0
ATTDEF
8
0
10
126.006547
20
112.273390
30
0.0
40
3.5
1

3

2
DENS:0.340000
70
0
0
ATTDEF
8
0
10
126.006547
20
112.273390
30
0.0
40
3.5
1

3

2
TDEV:0.000000
70
0
0
ATTDEF
8
0
10
126.006547
20
112.273390
30
0.0
40
3.5
1

3

2
TDEV2:0.000000
70
0
0
ATTDEF
8
0
10
126.006547
20
112.273390
30
0.0
40
3.5
1

3

2
TDEV3:0.000000
70
0
0
ATTDEF
8
0
10
126.006547
20
112.273390
30
0.0
40
3.5
1

3

2
TDEV4:0.000000
70
0
0
ATTDEF
8
0
10
126.006547
20
112.273390
30
0.0
40
3.5
1

3

2
TDEV5:0.000000
70
0
0
ATTDEF
8
0
10
126.006547
20
112.273390
30
0.0
40
3.5
1

3

2
FRONT_VIEW
70
0
0
ATTDEF
8
0
10
126.006547
20
112.273390
30
0.0
40
3.5
1

3

2
BL01:6800.000000,,1
70
0
0
ATTDEF
8
0
10
126.006547
20
112.273390
30
0.0
40
3.5
1

3

2
OPTI:500.000000,1,0,3000.000000,6500.000000,500.000000,0,0.000000,0
70
0
0
ATTDEF
8
0
10
126.006547
20
112.273390
30
0.0
40
3.5
1

3

2
PANE_WIDTH:0.000000
70
0
0
ATTDEF
8
0
10
126.006547
20
112.273390
30
0.0
40
3.5
1

3

2
GLASS_MIN:0.000000
70
0
0
ATTDEF
8
0
10
126.006547
20
112.273390
30
0.0
40
3.5
1

3

2
GLASS_MAX:0.000000
70
0
0
ATTDEF
8
0
10
126.006547
20
112.273390
30
0.0
40
3.5
1

3

2
JX:0.000000
70
0
0
ATTDEF
8
0
10
126.006547
20
112.273390
30
0.0
40
3.5
1

3

2
WX:0.000000
70
0
0
ATTDEF
8
0
10
126.006547
20
112.273390
30
0.0
40
3.5
1

3

2
JY:0.000000
70
0
0
ATTDEF
8
0
10
126.006547
20
112.273390
30
0.0
40
3.5
1

3

2
WY:0.000000
70
0
0
ATTDEF
8
0
10
126.006547
20
112.273390
30
0.0
40
3.5
1

3

2
FP_LCS_ORIG
70
0
0
ATTDEF
8
0
10
136.006547
20
112.273390
30
0.0
40
3.5
1

3

2
FP_LCS_HOT
70
0
0
ATTDEF
8
0
10
126.006547
20
122.273390
30
0.0
40
3.5
1

3

2
FP_LCS_INTERN
70
0
0
ENDSEC
0
EOF
