0
SECTION
2
ENTITIES
0
LINE
8
0
10
1.800000
20
152.100000
30
0.0
11
1.800000
21
55.899722
31
0.0
0
LINE
8
0
10
58.697783
20
154.292279
30
0.0
11
58.697783
21
157.192280
31
0.0
0
ARC
8
0
10
58.397783
20
157.192280
30
0.0
40
0.300000
50
360.000000
51
90.000000
0
LINE
8
0
10
58.397783
20
157.492280
30
0.0
11
57.797783
21
157.492280
31
0.0
0
ARC
8
0
10
57.797783
20
157.792280
30
0.0
40
0.300000
50
180.000000
51
270.000000
0
LINE
8
0
10
57.497783
20
157.792280
30
0.0
11
57.497783
21
157.992280
31
0.0
0
ARC
8
0
10
58.497783
20
157.992280
30
0.0
40
1.000000
50
90.000000
51
180.000000
0
LINE
8
0
10
58.497783
20
158.992280
30
0.0
11
61.647228
21
158.992280
31
0.0
0
ARC
8
0
10
61.647228
20
158.692280
30
0.0
40
0.300000
50
30.000000
51
90.000000
0
LINE
8
0
10
61.907036
20
158.842280
30
0.0
11
62.357591
21
158.061895
31
0.0
0
ARC
8
0
10
62.097783
20
157.911895
30
0.0
40
0.300000
50
360.000000
51
30.000000
0
LINE
8
0
10
62.397783
20
157.911895
30
0.0
11
62.397783
21
157.792280
31
0.0
0
ARC
8
0
10
62.097783
20
157.792280
30
0.0
40
0.300000
50
270.000000
51
360.000000
0
LINE
8
0
10
62.097783
20
157.492280
30
0.0
11
60.697783
21
157.492280
31
0.0
0
ARC
8
0
10
60.697783
20
157.192280
30
0.0
40
0.300000
50
90.000000
51
180.000000
0
LINE
8
0
10
60.397783
20
157.192280
30
0.0
11
60.397783
21
154.292280
31
0.0
0
ARC
8
0
10
60.697783
20
154.292280
30
0.0
40
0.300000
50
180.000000
51
270.000000
0
LINE
8
0
10
60.697783
20
153.992280
30
0.0
11
74.597783
21
153.992280
31
0.0
0
ARC
8
0
10
74.597783
20
154.292280
30
0.0
40
0.300000
50
270.000000
51
360.000000
0
LINE
8
0
10
74.897783
20
154.292280
30
0.0
11
74.897783
21
157.192280
31
0.0
0
ARC
8
0
10
74.597783
20
157.192280
30
0.0
40
0.300000
50
360.000000
51
90.000000
0
LINE
8
0
10
74.597783
20
157.492280
30
0.0
11
72.697783
21
157.492280
31
0.0
0
ARC
8
0
10
72.697783
20
157.792280
30
0.0
40
0.300000
50
180.000000
51
270.000000
0
LINE
8
0
10
72.397783
20
157.792280
30
0.0
11
72.397783
21
157.911895
31
0.0
0
ARC
8
0
10
72.697783
20
157.911895
30
0.0
40
0.300000
50
150.000000
51
180.000000
0
LINE
8
0
10
72.437976
20
158.061895
30
0.0
11
72.888531
21
158.842280
31
0.0
0
ARC
8
0
10
73.148339
20
158.692280
30
0.0
40
0.300000
50
90.000000
51
150.000000
0
LINE
8
0
10
73.148339
20
158.992280
30
0.0
11
76.397783
21
158.992280
31
0.0
0
ARC
8
0
10
76.397783
20
158.692280
30
0.0
40
0.300000
50
360.000000
51
90.000000
0
LINE
8
0
10
76.697783
20
158.692280
30
0.0
11
76.697783
21
24.300000
31
0.0
0
ARC
8
0
10
76.397783
20
24.300000
30
0.0
40
0.300000
50
270.000000
51
360.000000
0
LINE
8
0
10
76.397783
20
24.000000
30
0.0
11
72.797783
21
24.000000
31
0.0
0
ARC
8
0
10
72.797783
20
24.300000
30
0.0
40
0.300000
50
180.000000
51
270.000000
0
LINE
8
0
10
72.497783
20
24.300000
30
0.0
11
72.497783
21
25.800000
31
0.0
0
ARC
8
0
10
73.197783
20
25.800000
30
0.0
40
0.700000
50
90.000000
51
180.000000
0
ARC
8
0
10
73.197783
20
26.200000
30
0.0
40
0.300000
50
360.000000
51
90.000000
0
LINE
8
0
10
73.497783
20
26.200000
30
0.0
11
73.497783
21
25.500000
31
0.0
0
ARC
8
0
10
73.797783
20
25.500000
30
0.0
40
0.300000
50
180.000000
51
270.000000
0
LINE
8
0
10
73.797783
20
25.200000
30
0.0
11
74.697783
21
25.200000
31
0.0
0
ARC
8
0
10
74.697783
20
25.900000
30
0.0
40
0.700000
50
270.000000
51
360.000000
0
LINE
8
0
10
75.397783
20
25.900000
30
0.0
11
75.397783
21
32.100000
31
0.0
0
ARC
8
0
10
74.697783
20
32.100000
30
0.0
40
0.700000
50
360.000000
51
90.000000
0
LINE
8
0
10
74.697783
20
32.800000
30
0.0
11
73.797783
21
32.800000
31
0.0
0
ARC
8
0
10
73.797783
20
32.500000
30
0.0
40
0.300000
50
90.000000
51
180.000000
0
LINE
8
0
10
73.497783
20
32.500000
30
0.0
11
73.497783
21
31.800000
31
0.0
0
ARC
8
0
10
73.197783
20
31.800000
30
0.0
40
0.300000
50
270.000000
51
360.000000
0
ARC
8
0
10
73.197783
20
32.200000
30
0.0
40
0.700000
50
180.000000
51
270.000000
0
LINE
8
0
10
72.497783
20
32.200000
30
0.0
11
72.497783
21
35.200000
31
0.0
0
ARC
8
0
10
72.797783
20
35.200000
30
0.0
40
0.300000
50
90.000000
51
180.000000
0
LINE
8
0
10
72.797783
20
35.500000
30
0.0
11
73.197783
21
35.500000
31
0.0
0
ARC
8
0
10
73.197783
20
35.200000
30
0.0
40
0.300000
50
360.000000
51
90.000000
0
LINE
8
0
10
73.497783
20
35.200000
30
0.0
11
73.497783
21
34.300000
31
0.0
0
ARC
8
0
10
73.797783
20
34.300000
30
0.0
40
0.300000
50
180.000000
51
270.000000
0
LINE
8
0
10
73.797783
20
34.000000
30
0.0
11
74.897783
21
34.000000
31
0.0
0
ARC
8
0
10
74.897783
20
34.300000
30
0.0
40
0.300000
50
270.000000
51
360.000000
0
LINE
8
0
10
75.197783
20
34.300000
30
0.0
11
75.197783
21
37.000000
31
0.0
0
LINE
8
0
10
75.197783
20
37.000000
30
0.0
11
74.907783
21
53.697165
31
0.0
0
ARC
8
0
10
74.607783
20
53.697165
30
0.0
40
0.300000
50
360.000000
51
90.000000
0
LINE
8
0
10
74.607783
20
53.997165
30
0.0
11
58.436598
21
53.997165
31
0.0
0
LINE
8
0
10
58.436598
20
53.997165
30
0.0
11
57.436801
21
54.260696
31
0.0
0
ARC
8
0
10
57.347080
20
53.974427
30
0.0
40
0.300000
50
72.598279
51
150.367342
0
ARC
8
0
10
56.912474
20
54.221646
30
0.0
40
0.200000
50
270.000000
51
330.367342
0
LINE
8
0
10
56.911072
20
54.021651
30
0.0
11
55.359977
21
54.021651
31
0.0
0
ARC
8
0
10
55.359977
20
54.321651
30
0.0
40
0.300000
50
162.598279
51
270.000000
0
LINE
8
0
10
55.073708
20
54.411371
30
0.0
11
55.675672
21
56.332040
31
0.0
0
ARC
8
0
10
56.439058
20
56.092785
30
0.0
40
0.800000
50
117.598279
51
162.598279
0
LINE
8
0
10
56.068442
20
56.801759
30
0.0
11
56.349512
21
56.948688
31
0.0
0
ARC
8
0
10
56.442166
20
56.771444
30
0.0
40
0.200000
50
360.000000
51
117.598279
0
LINE
8
0
10
56.641991
20
56.763063
30
0.0
11
56.629893
21
56.474642
31
0.0
0
LINE
8
0
10
56.629893
20
56.474642
30
0.0
11
58.337990
21
55.390578
31
0.0
0
ARC
8
0
10
58.659502
20
55.897166
30
0.0
40
0.600000
50
237.598279
51
270.000000
0
LINE
8
0
10
58.659502
20
55.297166
30
0.0
11
58.697783
21
55.297166
31
0.0
0
ARC
8
0
10
58.597783
20
55.580008
30
0.0
40
0.300000
50
289.471221
51
70.528779
0
LINE
8
0
10
58.697783
20
55.862851
30
0.0
11
58.697783
21
59.897166
31
0.0
0
ARC
8
0
10
58.397783
20
59.897166
30
0.0
40
0.300000
50
360.000000
51
90.000000
0
LINE
8
0
10
58.397783
20
60.197166
30
0.0
11
58.178168
21
60.197166
31
0.0
0
ARC
8
0
10
58.178168
20
59.897166
30
0.0
40
0.300000
50
90.000000
51
120.000000
0
LINE
8
0
10
58.028168
20
60.156973
30
0.0
11
56.497783
21
59.273405
31
0.0
0
ARC
8
0
10
56.397783
20
59.446610
30
0.0
40
0.200000
50
180.000000
51
300.000000
0
LINE
8
0
10
56.197783
20
59.446610
30
0.0
11
56.197783
21
60.601311
31
0.0
0
ARC
8
0
10
57.197783
20
60.601311
30
0.0
40
1.000000
50
120.000000
51
180.000000
0
LINE
8
0
10
56.697783
20
61.467336
30
0.0
11
58.197783
21
62.333362
31
0.0
0
ARC
8
0
10
57.697783
20
63.199387
30
0.0
40
1.000000
50
300.000000
51
360.000000
0
LINE
8
0
10
58.697783
20
63.199387
30
0.0
11
58.697783
21
65.622257
31
0.0
0
ARC
8
0
10
58.197783
20
65.622257
30
0.0
40
0.500000
50
360.000000
51
126.529607
0
ARC
8
0
10
55.697783
20
68.997165
30
0.0
40
3.700000
50
218.989299
51
306.529607
0
ARC
8
0
10
53.210540
20
66.983804
30
0.0
40
0.500000
50
120.000000
51
218.989299
0
LINE
8
0
10
52.960540
20
67.416817
30
0.0
11
53.488145
21
67.721430
31
0.0
0
ARC
8
0
10
53.738145
20
67.288417
30
0.0
40
0.500000
50
41.087489
51
120.000000
0
ARC
8
0
10
55.697783
20
68.997165
30
0.0
40
2.100000
50
221.087489
51
252.857143
0
LINE
8
0
10
55.078797
20
66.990462
30
0.0
11
54.990371
21
66.703790
31
0.0
0
ARC
8
0
10
55.697783
20
68.997165
30
0.0
40
2.400000
50
252.857143
51
295.714286
0
LINE
8
0
10
56.739104
20
66.834839
30
0.0
11
56.608939
21
67.105130
31
0.0
0
ARC
8
0
10
55.697783
20
68.997165
30
0.0
40
2.100000
50
295.714286
51
338.571429
0
LINE
8
0
10
57.652618
20
68.229948
30
0.0
11
57.931880
21
68.120346
31
0.0
0
ARC
8
0
10
55.697783
20
68.997165
30
0.0
40
2.400000
50
338.571429
51
21.428571
0
LINE
8
0
10
57.931880
20
69.873983
30
0.0
11
57.652618
21
69.764381
31
0.0
0
ARC
8
0
10
55.697783
20
68.997165
30
0.0
40
2.100000
50
21.428571
51
64.285714
0
LINE
8
0
10
56.608939
20
70.889199
30
0.0
11
56.739104
21
71.159490
31
0.0
0
ARC
8
0
10
55.697783
20
68.997165
30
0.0
40
2.400000
50
64.285714
51
107.142857
0
LINE
8
0
10
54.990371
20
71.290539
30
0.0
11
55.078797
21
71.003867
31
0.0
0
ARC
8
0
10
55.697783
20
68.997165
30
0.0
40
2.100000
50
107.142857
51
138.912511
0
ARC
8
0
10
53.738145
20
70.705912
30
0.0
40
0.500000
50
240.000000
51
318.912511
0
LINE
8
0
10
53.488145
20
70.272900
30
0.0
11
52.960540
21
70.577513
31
0.0
0
ARC
8
0
10
53.210540
20
71.010525
30
0.0
40
0.500000
50
141.010701
51
240.000000
0
ARC
8
0
10
55.697783
20
68.997165
30
0.0
40
3.700000
50
53.470393
51
141.010701
0
ARC
8
0
10
58.197783
20
72.372072
30
0.0
40
0.500000
50
233.470393
51
360.000000
0
LINE
8
0
10
58.697783
20
72.372072
30
0.0
11
58.697783
21
135.617372
31
0.0
0
ARC
8
0
10
58.197783
20
135.617372
30
0.0
40
0.500000
50
360.000000
51
126.529607
0
ARC
8
0
10
55.697783
20
138.992280
30
0.0
40
3.700000
50
218.989299
51
306.529607
0
ARC
8
0
10
53.210540
20
136.978919
30
0.0
40
0.500000
50
120.000000
51
218.989299
0
LINE
8
0
10
52.960540
20
137.411932
30
0.0
11
53.488145
21
137.716545
31
0.0
0
ARC
8
0
10
53.738145
20
137.283532
30
0.0
40
0.500000
50
41.087489
51
120.000000
0
ARC
8
0
10
55.697783
20
138.992280
30
0.0
40
2.100000
50
221.087489
51
252.857143
0
LINE
8
0
10
55.078797
20
136.985577
30
0.0
11
54.990371
21
136.698905
31
0.0
0
ARC
8
0
10
55.697783
20
138.992280
30
0.0
40
2.400000
50
252.857143
51
295.714286
0
LINE
8
0
10
56.739104
20
136.829954
30
0.0
11
56.608939
21
137.100245
31
0.0
0
ARC
8
0
10
55.697783
20
138.992280
30
0.0
40
2.100000
50
295.714286
51
338.571429
0
LINE
8
0
10
57.652618
20
138.225063
30
0.0
11
57.931880
21
138.115461
31
0.0
0
ARC
8
0
10
55.697783
20
138.992280
30
0.0
40
2.400000
50
338.571429
51
21.428571
0
LINE
8
0
10
57.931880
20
139.869098
30
0.0
11
57.652618
21
139.759496
31
0.0
0
ARC
8
0
10
55.697783
20
138.992280
30
0.0
40
2.100000
50
21.428571
51
64.285714
0
LINE
8
0
10
56.608939
20
140.884314
30
0.0
11
56.739104
21
141.154605
31
0.0
0
ARC
8
0
10
55.697783
20
138.992280
30
0.0
40
2.400000
50
64.285714
51
107.142857
0
LINE
8
0
10
54.990371
20
141.285654
30
0.0
11
55.078797
21
140.998983
31
0.0
0
ARC
8
0
10
55.697783
20
138.992280
30
0.0
40
2.100000
50
107.142857
51
138.912511
0
ARC
8
0
10
53.738145
20
140.701027
30
0.0
40
0.500000
50
240.000000
51
318.912511
0
LINE
8
0
10
53.488145
20
140.268015
30
0.0
11
52.960540
21
140.572628
31
0.0
0
ARC
8
0
10
53.210540
20
141.005640
30
0.0
40
0.500000
50
141.010701
51
240.000000
0
ARC
8
0
10
55.697783
20
138.992280
30
0.0
40
3.700000
50
53.470393
51
141.010701
0
ARC
8
0
10
58.197783
20
142.367187
30
0.0
40
0.500000
50
233.470393
51
360.000000
0
LINE
8
0
10
58.697783
20
142.367187
30
0.0
11
58.697783
21
144.790057
31
0.0
0
ARC
8
0
10
57.697783
20
144.790057
30
0.0
40
1.000000
50
360.000000
51
60.000000
0
LINE
8
0
10
58.197783
20
145.656083
30
0.0
11
56.697783
21
146.522108
31
0.0
0
ARC
8
0
10
57.197783
20
147.388133
30
0.0
40
1.000000
50
180.000000
51
240.000000
0
LINE
8
0
10
56.197783
20
147.388133
30
0.0
11
56.197783
21
148.542834
31
0.0
0
ARC
8
0
10
56.397783
20
148.542834
30
0.0
40
0.200000
50
60.000000
51
180.000000
0
LINE
8
0
10
56.497783
20
148.716039
30
0.0
11
58.028168
21
147.832471
31
0.0
0
ARC
8
0
10
58.178168
20
148.092279
30
0.0
40
0.300000
50
240.000000
51
270.000000
0
LINE
8
0
10
58.178168
20
147.792279
30
0.0
11
58.397783
21
147.792279
31
0.0
0
ARC
8
0
10
58.397783
20
148.092279
30
0.0
40
0.300000
50
270.000000
51
360.000000
0
LINE
8
0
10
58.697783
20
148.092279
30
0.0
11
58.697783
21
152.126593
31
0.0
0
ARC
8
0
10
58.597783
20
152.409436
30
0.0
40
0.300000
50
289.471221
51
70.528779
0
LINE
8
0
10
58.697783
20
152.692279
30
0.0
11
58.659502
21
152.692279
31
0.0
0
ARC
8
0
10
58.659502
20
152.092279
30
0.0
40
0.600000
50
90.000000
51
122.401721
0
LINE
8
0
10
58.337990
20
152.598866
30
0.0
11
56.629893
21
151.514803
31
0.0
0
LINE
8
0
10
56.629893
20
151.514803
30
0.0
11
56.641991
21
151.226381
31
0.0
0
ARC
8
0
10
56.442166
20
151.218000
30
0.0
40
0.200000
50
242.401721
51
360.000000
0
LINE
8
0
10
56.349512
20
151.040756
30
0.0
11
56.068442
21
151.187686
31
0.0
0
ARC
8
0
10
56.439058
20
151.896660
30
0.0
40
0.800000
50
197.401721
51
242.401721
0
LINE
8
0
10
55.675672
20
151.657404
30
0.0
11
55.073708
21
153.578073
31
0.0
0
ARC
8
0
10
55.359977
20
153.667794
30
0.0
40
0.300000
50
90.000000
51
197.401721
0
LINE
8
0
10
55.359977
20
153.967794
30
0.0
11
56.911072
21
153.967794
31
0.0
0
ARC
8
0
10
56.912474
20
153.767799
30
0.0
40
0.200000
50
29.632658
51
90.000000
0
ARC
8
0
10
57.347080
20
154.015017
30
0.0
40
0.300000
50
209.632658
51
287.401721
0
LINE
8
0
10
57.436801
20
153.728748
30
0.0
11
58.474247
21
154.002203
31
0.0
0
ARC
8
0
10
58.397783
20
154.292295
30
0.0
40
0.300000
50
284.766462
51
360.000000
0
LINE
8
0
10
4.800000
20
152.200000
30
0.0
11
4.453590
21
152.400000
31
0.0
0
LINE
8
0
10
4.453590
20
152.400000
30
0.0
11
2.100000
21
152.400000
31
0.0
0
ARC
8
0
10
2.100000
20
152.100000
30
0.0
40
0.300000
50
90.000000
51
180.000000
0
LINE
8
0
10
1.800000
20
152.100000
30
0.0
11
1.800000
21
55.899722
31
0.0
0
ARC
8
0
10
2.100000
20
55.899722
30
0.0
40
0.300000
50
180.000000
51
270.000000
0
LINE
8
0
10
2.100000
20
55.599722
30
0.0
11
4.453590
21
55.599722
31
0.0
0
LINE
8
0
10
4.453590
20
55.599722
30
0.0
11
4.800000
21
55.799722
31
0.0
0
LINE
8
0
10
4.800000
20
55.799722
30
0.0
11
9.597783
21
55.799722
31
0.0
0
ARC
8
0
10
9.597783
20
56.099722
30
0.0
40
0.300000
50
270.000000
51
360.000000
0
LINE
8
0
10
9.897783
20
56.099722
30
0.0
11
9.897783
21
151.900000
31
0.0
0
ARC
8
0
10
9.597783
20
151.900000
30
0.0
40
0.300000
50
360.000000
51
90.000000
0
LINE
8
0
10
9.597783
20
152.200000
30
0.0
11
4.800000
21
152.200000
31
0.0
0
LINE
8
0
10
2.782509
20
153.999722
30
0.0
11
11.957919
21
153.999722
31
0.0
0
LINE
8
0
10
11.957919
20
153.999722
30
0.0
11
12.958765
21
153.735914
31
0.0
0
ARC
8
0
10
13.048486
20
154.022183
30
0.0
40
0.300000
50
252.598279
51
330.367342
0
ARC
8
0
10
13.483093
20
153.774964
30
0.0
40
0.200000
50
90.000000
51
150.367342
0
LINE
8
0
10
13.484495
20
153.974959
30
0.0
11
15.035589
21
153.974959
31
0.0
0
ARC
8
0
10
15.035589
20
153.674959
30
0.0
40
0.300000
50
342.598279
51
90.000000
0
LINE
8
0
10
15.321859
20
153.585239
30
0.0
11
14.719894
21
151.664570
31
0.0
0
ARC
8
0
10
13.956509
20
151.903825
30
0.0
40
0.800000
50
297.598279
51
342.598279
0
LINE
8
0
10
14.327125
20
151.194851
30
0.0
11
14.046054
21
151.047922
31
0.0
0
ARC
8
0
10
13.953401
20
151.225166
30
0.0
40
0.200000
50
180.000000
51
297.598279
0
LINE
8
0
10
13.753576
20
151.233547
30
0.0
11
13.765673
21
151.521968
31
0.0
0
LINE
8
0
10
13.765673
20
151.521968
30
0.0
11
12.057576
21
152.606032
31
0.0
0
ARC
8
0
10
11.736065
20
152.099444
30
0.0
40
0.600000
50
57.598279
51
90.000000
0
LINE
8
0
10
11.736065
20
152.699444
30
0.0
11
11.697783
21
152.699444
31
0.0
0
ARC
8
0
10
11.797783
20
152.416602
30
0.0
40
0.300000
50
109.471221
51
250.528779
0
LINE
8
0
10
11.697783
20
152.133759
30
0.0
11
11.697783
21
148.100000
31
0.0
0
ARC
8
0
10
11.997783
20
148.100000
30
0.0
40
0.300000
50
180.000000
51
270.000000
0
LINE
8
0
10
11.997783
20
147.800000
30
0.0
11
12.217399
21
147.800000
31
0.0
0
ARC
8
0
10
12.217399
20
148.100000
30
0.0
40
0.300000
50
270.000000
51
301.373538
0
LINE
8
0
10
12.373583
20
147.843862
30
0.0
11
13.893660
21
148.770758
31
0.0
0
ARC
8
0
10
13.997783
20
148.600000
30
0.0
40
0.200000
50
360.000000
51
121.373538
0
LINE
8
0
10
14.197783
20
148.600000
30
0.0
11
14.197783
21
147.409437
31
0.0
0
ARC
8
0
10
13.197783
20
147.409437
30
0.0
40
1.000000
50
301.373538
51
360.000000
0
LINE
8
0
10
13.718399
20
146.555646
30
0.0
11
12.177168
21
145.615851
31
0.0
0
ARC
8
0
10
12.697783
20
144.762060
30
0.0
40
1.000000
50
121.373539
51
180.000000
0
LINE
8
0
10
11.697783
20
144.762060
30
0.0
11
11.697783
21
63.237385
31
0.0
0
ARC
8
0
10
12.697783
20
63.237385
30
0.0
40
1.000000
50
180.000000
51
238.626461
0
LINE
8
0
10
12.177168
20
62.383593
30
0.0
11
13.718399
21
61.443799
31
0.0
0
ARC
8
0
10
13.197783
20
60.590007
30
0.0
40
1.000000
50
360.000000
51
58.626462
0
LINE
8
0
10
14.197783
20
60.590007
30
0.0
11
14.197783
21
59.399444
31
0.0
0
ARC
8
0
10
13.997783
20
59.399444
30
0.0
40
0.200000
50
238.626462
51
360.000000
0
LINE
8
0
10
13.893660
20
59.228686
30
0.0
11
12.373583
21
60.155582
31
0.0
0
ARC
8
0
10
12.217399
20
59.899444
30
0.0
40
0.300000
50
58.626462
51
90.000000
0
LINE
8
0
10
12.217399
20
60.199444
30
0.0
11
11.997783
21
60.199444
31
0.0
0
ARC
8
0
10
11.997783
20
59.899444
30
0.0
40
0.300000
50
90.000000
51
180.000000
0
LINE
8
0
10
11.697783
20
59.899444
30
0.0
11
11.697783
21
55.865685
31
0.0
0
ARC
8
0
10
11.797783
20
55.582842
30
0.0
40
0.300000
50
109.471227
51
250.528773
0
LINE
8
0
10
11.697783
20
55.300000
30
0.0
11
11.736065
21
55.300000
31
0.0
0
ARC
8
0
10
11.736065
20
55.900000
30
0.0
40
0.600000
50
270.000000
51
302.401721
0
LINE
8
0
10
12.057576
20
55.393413
30
0.0
11
13.765673
21
56.477476
31
0.0
0
LINE
8
0
10
13.765673
20
56.477476
30
0.0
11
13.753576
21
56.765897
31
0.0
0
ARC
8
0
10
13.953401
20
56.774279
30
0.0
40
0.200000
50
62.401721
51
180.000000
0
LINE
8
0
10
14.046054
20
56.951522
30
0.0
11
14.327125
21
56.804593
31
0.0
0
ARC
8
0
10
13.956509
20
56.095619
30
0.0
40
0.800000
50
17.401721
51
62.401721
0
LINE
8
0
10
14.719894
20
56.334874
30
0.0
11
15.321859
21
54.414206
31
0.0
0
ARC
8
0
10
15.035589
20
54.324485
30
0.0
40
0.300000
50
270.000000
51
17.401721
0
LINE
8
0
10
15.035589
20
54.024485
30
0.0
11
13.484495
21
54.024485
31
0.0
0
ARC
8
0
10
13.483093
20
54.224480
30
0.0
40
0.200000
50
209.632658
51
270.000000
0
ARC
8
0
10
13.048486
20
53.977261
30
0.0
40
0.300000
50
29.632658
51
107.401721
0
LINE
8
0
10
12.958765
20
54.263530
30
0.0
11
11.996562
21
54.009908
31
0.0
0
LINE
8
0
10
11.920099
20
54.000000
30
0.0
11
11.996562
21
54.009908
31
0.0
0
LINE
8
0
10
11.920099
20
54.000000
30
0.0
11
2.782509
21
54.000000
31
0.0
0
ARC
8
0
10
2.782509
20
53.000000
30
0.0
40
1.000000
50
90.000000
51
178.989003
0
LINE
8
0
10
1.782665
20
53.017644
30
0.0
11
1.500000
21
37.000000
31
0.0
0
LINE
8
0
10
1.500000
20
37.000000
30
0.0
11
1.500000
21
34.300000
31
0.0
0
ARC
8
0
10
1.800000
20
34.300000
30
0.0
40
0.300000
50
180.000000
51
270.000000
0
LINE
8
0
10
1.800000
20
34.000000
30
0.0
11
2.900000
21
34.000000
31
0.0
0
ARC
8
0
10
2.900000
20
34.300000
30
0.0
40
0.300000
50
270.000000
51
360.000000
0
LINE
8
0
10
3.200000
20
34.300000
30
0.0
11
3.200000
21
35.200000
31
0.0
0
ARC
8
0
10
3.500000
20
35.200000
30
0.0
40
0.300000
50
90.000000
51
180.000000
0
LINE
8
0
10
3.500000
20
35.500000
30
0.0
11
3.900000
21
35.500000
31
0.0
0
ARC
8
0
10
3.900000
20
35.200000
30
0.0
40
0.300000
50
360.000000
51
90.000000
0
LINE
8
0
10
4.200000
20
35.200000
30
0.0
11
4.200000
21
32.200000
31
0.0
0
ARC
8
0
10
3.500000
20
32.200000
30
0.0
40
0.700000
50
270.000000
51
360.000000
0
ARC
8
0
10
3.500000
20
31.800000
30
0.0
40
0.300000
50
180.000000
51
270.000000
0
LINE
8
0
10
3.200000
20
31.800000
30
0.0
11
3.200000
21
32.500000
31
0.0
0
ARC
8
0
10
2.900000
20
32.500000
30
0.0
40
0.300000
50
360.000000
51
90.000000
0
LINE
8
0
10
2.900000
20
32.800000
30
0.0
11
2.000000
21
32.800000
31
0.0
0
ARC
8
0
10
2.000000
20
32.100000
30
0.0
40
0.700000
50
90.000000
51
180.000000
0
LINE
8
0
10
1.300000
20
32.100000
30
0.0
11
1.300000
21
25.900000
31
0.0
0
ARC
8
0
10
2.000000
20
25.900000
30
0.0
40
0.700000
50
180.000000
51
270.000000
0
LINE
8
0
10
2.000000
20
25.200000
30
0.0
11
2.900000
21
25.200000
31
0.0
0
ARC
8
0
10
2.900000
20
25.500000
30
0.0
40
0.300000
50
270.000000
51
360.000000
0
LINE
8
0
10
3.200000
20
25.500000
30
0.0
11
3.200000
21
26.200000
31
0.0
0
ARC
8
0
10
3.500000
20
26.200000
30
0.0
40
0.300000
50
90.000000
51
180.000000
0
ARC
8
0
10
3.500000
20
25.800000
30
0.0
40
0.700000
50
360.000000
51
90.000000
0
LINE
8
0
10
4.200000
20
25.800000
30
0.0
11
4.200000
21
24.300000
31
0.0
0
ARC
8
0
10
3.900000
20
24.300000
30
0.0
40
0.300000
50
270.000000
51
360.000000
0
LINE
8
0
10
3.900000
20
24.000000
30
0.0
11
0.300000
21
24.000000
31
0.0
0
ARC
8
0
10
0.300000
20
24.300000
30
0.0
40
0.300000
50
180.000000
51
270.000000
0
LINE
8
0
10
0.000000
20
24.300000
30
0.0
11
0.000000
21
183.699722
31
0.0
0
ARC
8
0
10
0.300000
20
183.699722
30
0.0
40
0.300000
50
90.000000
51
180.000000
0
LINE
8
0
10
0.300000
20
183.999722
30
0.0
11
3.900000
21
183.999722
31
0.0
0
ARC
8
0
10
3.900000
20
183.699722
30
0.0
40
0.300000
50
360.000000
51
90.000000
0
LINE
8
0
10
4.200000
20
183.699722
30
0.0
11
4.200000
21
182.199722
31
0.0
0
ARC
8
0
10
3.500000
20
182.199722
30
0.0
40
0.700000
50
270.000000
51
360.000000
0
ARC
8
0
10
3.500000
20
181.799722
30
0.0
40
0.300000
50
180.000000
51
270.000000
0
LINE
8
0
10
3.200000
20
181.799722
30
0.0
11
3.200000
21
182.499722
31
0.0
0
ARC
8
0
10
2.900000
20
182.499722
30
0.0
40
0.300000
50
360.000000
51
90.000000
0
LINE
8
0
10
2.900000
20
182.799722
30
0.0
11
2.000000
21
182.799722
31
0.0
0
ARC
8
0
10
2.000000
20
182.099722
30
0.0
40
0.700000
50
90.000000
51
180.000000
0
LINE
8
0
10
1.300000
20
182.099722
30
0.0
11
1.300000
21
175.899722
31
0.0
0
ARC
8
0
10
2.000000
20
175.899722
30
0.0
40
0.700000
50
180.000000
51
270.000000
0
LINE
8
0
10
2.000000
20
175.199722
30
0.0
11
2.900000
21
175.199722
31
0.0
0
ARC
8
0
10
2.900000
20
175.499722
30
0.0
40
0.300000
50
270.000000
51
360.000000
0
LINE
8
0
10
3.200000
20
175.499722
30
0.0
11
3.200000
21
176.199722
31
0.0
0
ARC
8
0
10
3.500000
20
176.199722
30
0.0
40
0.300000
50
90.000000
51
180.000000
0
ARC
8
0
10
3.500000
20
175.799722
30
0.0
40
0.700000
50
360.000000
51
90.000000
0
LINE
8
0
10
4.200000
20
175.799722
30
0.0
11
4.200000
21
172.799722
31
0.0
0
ARC
8
0
10
3.900000
20
172.799722
30
0.0
40
0.300000
50
270.000000
51
360.000000
0
LINE
8
0
10
3.900000
20
172.499722
30
0.0
11
3.500000
21
172.499722
31
0.0
0
ARC
8
0
10
3.500000
20
172.799722
30
0.0
40
0.300000
50
180.000000
51
270.000000
0
LINE
8
0
10
3.200000
20
172.799722
30
0.0
11
3.200000
21
173.699722
31
0.0
0
ARC
8
0
10
2.900000
20
173.699722
30
0.0
40
0.300000
50
360.000000
51
90.000000
0
LINE
8
0
10
2.900000
20
173.999722
30
0.0
11
1.800000
21
173.999722
31
0.0
0
ARC
8
0
10
1.800000
20
173.699722
30
0.0
40
0.300000
50
90.000000
51
180.000000
0
LINE
8
0
10
1.500000
20
173.699722
30
0.0
11
1.500000
21
170.999722
31
0.0
0
LINE
8
0
10
1.500000
20
170.999722
30
0.0
11
1.782665
21
154.982078
31
0.0
0
ARC
8
0
10
2.782509
20
154.999722
30
0.0
40
1.000000
50
181.010997
51
270.000000
0
LINE
8
0
10
60.497783
20
55.597165
30
0.0
11
74.897783
21
55.597165
31
0.0
0
ARC
8
0
10
74.897783
20
55.897165
30
0.0
40
0.300000
50
270.000000
51
360.000000
0
LINE
8
0
10
75.197783
20
55.897165
30
0.0
11
75.197783
21
152.092280
31
0.0
0
ARC
8
0
10
74.897783
20
152.092280
30
0.0
40
0.300000
50
360.000000
51
90.000000
0
LINE
8
0
10
74.897783
20
152.392280
30
0.0
11
60.497783
21
152.392280
31
0.0
0
ARC
8
0
10
60.497783
20
152.092280
30
0.0
40
0.300000
50
90.000000
51
180.000000
0
LINE
8
0
10
60.197783
20
152.092280
30
0.0
11
60.197783
21
138.092280
31
0.0
0
ARC
8
0
10
60.497783
20
138.092280
30
0.0
40
0.300000
50
180.000000
51
270.000000
0
LINE
8
0
10
60.497783
20
137.792280
30
0.0
11
67.697783
21
137.792280
31
0.0
0
ARC
8
0
10
67.697783
20
134.092280
30
0.0
40
3.700000
50
51.317813
51
90.000000
0
ARC
8
0
10
69.697783
20
136.590279
30
0.0
40
0.500000
50
360.000000
51
51.317813
0
LINE
8
0
10
70.197783
20
136.590279
30
0.0
11
70.197783
21
135.824330
31
0.0
0
ARC
8
0
10
69.697783
20
135.824330
30
0.0
40
0.500000
50
300.000000
51
360.000000
0
LINE
8
0
10
69.947783
20
135.391318
30
0.0
11
69.907421
21
135.368015
31
0.0
0
ARC
8
0
10
69.657421
20
135.801027
30
0.0
40
0.500000
50
221.087489
51
300.000000
0
ARC
8
0
10
67.697783
20
134.092280
30
0.0
40
2.100000
50
41.087489
51
72.857143
0
LINE
8
0
10
68.316769
20
136.098983
30
0.0
11
68.405196
21
136.385654
31
0.0
0
ARC
8
0
10
67.697783
20
134.092280
30
0.0
40
2.400000
50
72.857143
51
115.714286
0
LINE
8
0
10
66.656462
20
136.254605
30
0.0
11
66.786628
21
135.984314
31
0.0
0
ARC
8
0
10
67.697783
20
134.092280
30
0.0
40
2.100000
50
115.714286
51
158.571429
0
LINE
8
0
10
65.742948
20
134.859496
30
0.0
11
65.463686
21
134.969098
31
0.0
0
ARC
8
0
10
67.697783
20
134.092280
30
0.0
40
2.400000
50
158.571429
51
201.428571
0
LINE
8
0
10
65.463686
20
133.215461
30
0.0
11
65.742948
21
133.325063
31
0.0
0
ARC
8
0
10
67.697783
20
134.092280
30
0.0
40
2.100000
50
201.428571
51
244.285714
0
LINE
8
0
10
66.786628
20
132.200245
30
0.0
11
66.656462
21
131.929954
31
0.0
0
ARC
8
0
10
67.697783
20
134.092280
30
0.0
40
2.400000
50
244.285714
51
287.142857
0
LINE
8
0
10
68.405196
20
131.798905
30
0.0
11
68.316769
21
132.085577
31
0.0
0
ARC
8
0
10
67.697783
20
134.092280
30
0.0
40
2.100000
50
287.142857
51
318.912511
0
ARC
8
0
10
69.657421
20
132.383532
30
0.0
40
0.500000
50
60.000000
51
138.912511
0
LINE
8
0
10
69.907421
20
132.816545
30
0.0
11
69.947783
21
132.793242
31
0.0
0
ARC
8
0
10
69.697783
20
132.360229
30
0.0
40
0.500000
50
360.000000
51
60.000000
0
LINE
8
0
10
70.197783
20
132.360229
30
0.0
11
70.197783
21
131.594280
31
0.0
0
ARC
8
0
10
69.697783
20
131.594280
30
0.0
40
0.500000
50
308.682187
51
360.000000
0
ARC
8
0
10
67.697783
20
134.092280
30
0.0
40
3.700000
50
161.969465
51
308.682187
0
ARC
8
0
10
63.704038
20
135.392280
30
0.0
40
0.500000
50
341.969465
51
90.000000
0
LINE
8
0
10
63.704038
20
135.892280
30
0.0
11
60.497783
21
135.892280
31
0.0
0
ARC
8
0
10
60.497783
20
135.592280
30
0.0
40
0.300000
50
90.000000
51
180.000000
0
LINE
8
0
10
60.197783
20
135.592280
30
0.0
11
60.197783
21
72.397165
31
0.0
0
ARC
8
0
10
60.497783
20
72.397165
30
0.0
40
0.300000
50
180.000000
51
270.000000
0
LINE
8
0
10
60.497783
20
72.097165
30
0.0
11
63.704038
21
72.097165
31
0.0
0
ARC
8
0
10
63.704038
20
72.597165
30
0.0
40
0.500000
50
270.000000
51
18.030535
0
ARC
8
0
10
67.697783
20
73.897165
30
0.0
40
3.700000
50
51.317813
51
198.030535
0
ARC
8
0
10
69.697783
20
76.395164
30
0.0
40
0.500000
50
360.000000
51
51.317813
0
LINE
8
0
10
70.197783
20
76.395164
30
0.0
11
70.197783
21
75.629215
31
0.0
0
ARC
8
0
10
69.697783
20
75.629215
30
0.0
40
0.500000
50
300.000000
51
360.000000
0
LINE
8
0
10
69.947783
20
75.196203
30
0.0
11
69.907421
21
75.172900
31
0.0
0
ARC
8
0
10
69.657421
20
75.605912
30
0.0
40
0.500000
50
221.087489
51
300.000000
0
ARC
8
0
10
67.697783
20
73.897165
30
0.0
40
2.100000
50
41.087489
51
72.857143
0
LINE
8
0
10
68.316769
20
75.903867
30
0.0
11
68.405196
21
76.190539
31
0.0
0
ARC
8
0
10
67.697783
20
73.897165
30
0.0
40
2.400000
50
72.857143
51
115.714286
0
LINE
8
0
10
66.656462
20
76.059490
30
0.0
11
66.786628
21
75.789199
31
0.0
0
ARC
8
0
10
67.697783
20
73.897165
30
0.0
40
2.100000
50
115.714286
51
158.571429
0
LINE
8
0
10
65.742948
20
74.664381
30
0.0
11
65.463686
21
74.773983
31
0.0
0
ARC
8
0
10
67.697783
20
73.897165
30
0.0
40
2.400000
50
158.571429
51
201.428571
0
LINE
8
0
10
65.463686
20
73.020346
30
0.0
11
65.742948
21
73.129948
31
0.0
0
ARC
8
0
10
67.697783
20
73.897165
30
0.0
40
2.100000
50
201.428571
51
244.285714
0
LINE
8
0
10
66.786628
20
72.005130
30
0.0
11
66.656462
21
71.734839
31
0.0
0
ARC
8
0
10
67.697783
20
73.897165
30
0.0
40
2.400000
50
244.285714
51
287.142857
0
LINE
8
0
10
68.405196
20
71.603790
30
0.0
11
68.316769
21
71.890462
31
0.0
0
ARC
8
0
10
67.697783
20
73.897165
30
0.0
40
2.100000
50
287.142857
51
318.912511
0
ARC
8
0
10
69.657421
20
72.188417
30
0.0
40
0.500000
50
60.000000
51
138.912511
0
LINE
8
0
10
69.907421
20
72.621430
30
0.0
11
69.947783
21
72.598126
31
0.0
0
ARC
8
0
10
69.697783
20
72.165114
30
0.0
40
0.500000
50
360.000000
51
60.000000
0
LINE
8
0
10
70.197783
20
72.165114
30
0.0
11
70.197783
21
71.399165
31
0.0
0
ARC
8
0
10
69.697783
20
71.399165
30
0.0
40
0.500000
50
308.682187
51
360.000000
0
ARC
8
0
10
67.697783
20
73.897165
30
0.0
40
3.700000
50
270.000000
51
308.682187
0
LINE
8
0
10
67.697783
20
70.197165
30
0.0
11
60.497783
21
70.197165
31
0.0
0
ARC
8
0
10
60.497783
20
69.897165
30
0.0
40
0.300000
50
90.000000
51
180.000000
0
LINE
8
0
10
60.197783
20
69.897165
30
0.0
11
60.197783
21
55.897165
31
0.0
0
ARC
8
0
10
60.497783
20
55.897165
30
0.0
40
0.300000
50
180.000000
51
270.000000
0
ARC
8
0
10
33.035133
20
157.192280
30
0.0
40
0.300000
50
90.000000
51
180.000000
0
LINE
8
0
10
32.735133
20
150.753963
30
0.0
11
32.735133
21
157.192280
31
0.0
0
LINE
8
0
10
33.035133
20
157.492280
30
0.0
11
35.747783
21
157.492280
31
0.0
0
ARC
8
0
10
33.235133
20
150.753963
30
0.0
40
0.500000
50
180.000000
51
270.000000
0
ARC
8
0
10
35.747783
20
157.792280
30
0.0
40
0.300000
50
270.000000
51
360.000000
0
LINE
8
0
10
38.466458
20
150.253963
30
0.0
11
33.235133
21
150.253963
31
0.0
0
LINE
8
0
10
36.047783
20
157.792280
30
0.0
11
36.047783
21
158.118016
31
0.0
0
LINE
8
0
10
38.666458
20
150.053963
30
0.0
11
38.466458
21
150.253963
31
0.0
0
ARC
8
0
10
35.747783
20
158.118016
30
0.0
40
0.300000
50
360.000000
51
45.000000
0
LINE
8
0
10
38.866458
20
150.253963
30
0.0
11
38.666458
21
150.053963
31
0.0
0
LINE
8
0
10
35.959915
20
158.330148
30
0.0
11
35.385651
21
158.904412
31
0.0
0
LINE
8
0
10
44.097783
20
150.253963
30
0.0
11
38.866458
21
150.253963
31
0.0
0
ARC
8
0
10
35.173519
20
158.692280
30
0.0
40
0.300000
50
45.000000
51
90.000000
0
ARC
8
0
10
44.097783
20
150.753963
30
0.0
40
0.500000
50
270.000000
51
360.000000
0
LINE
8
0
10
35.173519
20
158.992280
30
0.0
11
30.909397
21
158.992280
31
0.0
0
LINE
8
0
10
44.597783
20
157.192280
30
0.0
11
44.597783
21
150.753963
31
0.0
0
ARC
8
0
10
30.909397
20
158.692280
30
0.0
40
0.300000
50
90.000000
51
135.000000
0
ARC
8
0
10
44.297783
20
157.192280
30
0.0
40
0.300000
50
360.000000
51
90.000000
0
LINE
8
0
10
30.697265
20
158.904412
30
0.0
11
30.123001
21
158.330148
31
0.0
0
LINE
8
0
10
42.047783
20
157.492280
30
0.0
11
44.297783
21
157.492280
31
0.0
0
ARC
8
0
10
30.335133
20
158.118016
30
0.0
40
0.300000
50
135.000000
51
180.000000
0
ARC
8
0
10
42.047783
20
157.792280
30
0.0
40
0.300000
50
180.000000
51
270.000000
0
LINE
8
0
10
30.035133
20
158.118016
30
0.0
11
30.035133
21
157.792280
31
0.0
0
LINE
8
0
10
41.747783
20
158.118016
30
0.0
11
41.747783
21
157.792280
31
0.0
0
ARC
8
0
10
30.335133
20
157.792280
30
0.0
40
0.300000
50
180.000000
51
270.000000
0
ARC
8
0
10
42.047783
20
158.118016
30
0.0
40
0.300000
50
135.000000
51
180.000000
0
LINE
8
0
10
30.335133
20
157.492280
30
0.0
11
30.935133
21
157.492280
31
0.0
0
LINE
8
0
10
42.409915
20
158.904412
30
0.0
11
41.835651
21
158.330148
31
0.0
0
ARC
8
0
10
30.935133
20
157.192280
30
0.0
40
0.300000
50
360.000000
51
90.000000
0
ARC
8
0
10
42.622047
20
158.692280
30
0.0
40
0.300000
50
90.000000
51
135.000000
0
LINE
8
0
10
31.235133
20
157.192280
30
0.0
11
31.235133
21
154.492280
31
0.0
0
LINE
8
0
10
45.597783
20
158.992280
30
0.0
11
42.622047
21
158.992280
31
0.0
0
ARC
8
0
10
30.735133
20
154.492280
30
0.0
40
0.500000
50
270.000000
51
360.000000
0
ARC
8
0
10
45.597783
20
158.492280
30
0.0
40
0.500000
50
360.000000
51
90.000000
0
LINE
8
0
10
30.735133
20
153.992280
30
0.0
11
23.635133
21
153.992280
31
0.0
0
LINE
8
0
10
46.097783
20
154.492602
30
0.0
11
46.097783
21
158.492280
31
0.0
0
ARC
8
0
10
23.635133
20
154.492280
30
0.0
40
0.500000
50
180.000000
51
270.000000
0
ARC
8
0
10
46.597783
20
154.492602
30
0.0
40
0.500000
50
180.000000
51
270.000000
0
LINE
8
0
10
23.135133
20
154.492280
30
0.0
11
23.135133
21
157.192280
31
0.0
0
LINE
8
0
10
53.919506
20
153.992602
30
0.0
11
46.597783
21
153.992602
31
0.0
0
ARC
8
0
10
23.435133
20
157.192280
30
0.0
40
0.300000
50
90.000000
51
180.000000
0
ARC
8
0
10
53.919506
20
153.492602
30
0.0
40
0.500000
50
20.000000
51
90.000000
0
LINE
8
0
10
23.435133
20
157.492280
30
0.0
11
24.035133
21
157.492280
31
0.0
0
LINE
8
0
10
55.241896
20
151.321270
30
0.0
11
54.389352
21
153.663612
31
0.0
0
ARC
8
0
10
24.035133
20
157.792280
30
0.0
40
0.300000
50
270.000000
51
360.000000
0
ARC
8
0
10
55.711742
20
151.492280
30
0.0
40
0.500000
50
200.000000
51
270.000000
0
LINE
8
0
10
24.335133
20
157.792280
30
0.0
11
24.335133
21
158.118016
31
0.0
0
LINE
8
0
10
55.983117
20
150.992280
30
0.0
11
55.711742
21
150.992280
31
0.0
0
ARC
8
0
10
24.035133
20
158.118016
30
0.0
40
0.300000
50
360.000000
51
45.000000
0
ARC
8
0
10
55.983117
20
152.192280
30
0.0
40
1.200000
50
270.000000
51
299.981639
0
LINE
8
0
10
24.247265
20
158.330148
30
0.0
11
23.673001
21
158.904412
31
0.0
0
LINE
8
0
10
57.991394
20
151.965517
30
0.0
11
56.582784
21
151.152857
31
0.0
0
ARC
8
0
10
23.460869
20
158.692280
30
0.0
40
0.300000
50
45.000000
51
90.000000
0
ARC
8
0
10
58.091339
20
151.792280
30
0.0
40
0.200000
50
90.000000
51
119.981639
0
LINE
8
0
10
23.460869
20
158.992280
30
0.0
11
22.235133
21
158.992280
31
0.0
0
LINE
8
0
10
58.297783
20
151.992280
30
0.0
11
58.091339
21
151.992280
31
0.0
0
ARC
8
0
10
22.235133
20
158.492280
30
0.0
40
0.500000
50
90.000000
51
180.000000
0
ARC
8
0
10
58.297783
20
151.592280
30
0.0
40
0.400000
50
360.000000
51
90.000000
0
LINE
8
0
10
21.735133
20
158.492280
30
0.0
11
21.735133
21
154.492280
31
0.0
0
LINE
8
0
10
58.697783
20
151.165485
30
0.0
11
58.697783
21
151.592280
31
0.0
0
ARC
8
0
10
21.235133
20
154.492280
30
0.0
40
0.500000
50
270.000000
51
360.000000
0
ARC
8
0
10
58.497783
20
151.165485
30
0.0
40
0.200000
50
300.000000
51
360.000000
0
LINE
8
0
10
21.235133
20
153.992280
30
0.0
11
16.475814
21
153.992280
31
0.0
0
LINE
8
0
10
58.597783
20
150.617280
30
0.0
11
58.597783
21
150.992280
31
0.0
0
ARC
8
0
10
16.475814
20
153.492280
30
0.0
40
0.500000
50
90.000000
51
160.000000
0
ARC
8
0
10
58.397783
20
150.617280
30
0.0
40
0.200000
50
270.000000
51
360.000000
0
LINE
8
0
10
16.005968
20
153.663290
30
0.0
11
15.153542
21
151.321270
31
0.0
0
LINE
8
0
10
58.285977
20
150.417280
30
0.0
11
58.397783
21
150.417280
31
0.0
0
ARC
8
0
10
14.683696
20
151.492280
30
0.0
40
0.500000
50
270.000000
51
340.000000
0
LINE
8
0
10
58.201429
20
150.436030
30
0.0
11
58.285977
21
150.417280
31
0.0
0
LINE
8
0
10
14.683696
20
150.992280
30
0.0
11
14.412450
21
150.992280
31
0.0
0
ARC
8
0
10
57.947783
20
149.892280
30
0.0
40
0.600000
50
64.992167
51
180.000000
0
ARC
8
0
10
14.412450
20
152.192280
30
0.0
40
1.200000
50
240.018361
51
270.000000
0
ARC
8
0
10
57.947783
20
149.892280
30
0.0
40
0.600000
50
180.000000
51
295.007833
0
LINE
8
0
10
13.812783
20
151.152857
30
0.0
11
12.404172
21
151.965517
31
0.0
0
LINE
8
0
10
58.285977
20
149.367280
30
0.0
11
58.201429
21
149.348530
31
0.0
0
ARC
8
0
10
12.304228
20
151.792280
30
0.0
40
0.200000
50
60.018361
51
90.000000
0
LINE
8
0
10
58.397783
20
149.367280
30
0.0
11
58.285977
21
149.367280
31
0.0
0
LINE
8
0
10
12.304228
20
151.992280
30
0.0
11
12.097783
21
151.992280
31
0.0
0
ARC
8
0
10
58.397783
20
149.167280
30
0.0
40
0.200000
50
360.000000
51
90.000000
0
ARC
8
0
10
12.097783
20
151.592280
30
0.0
40
0.400000
50
90.000000
51
180.000000
0
LINE
8
0
10
58.597783
20
148.792280
30
0.0
11
58.597783
21
149.167280
31
0.0
0
LINE
8
0
10
11.697783
20
151.592280
30
0.0
11
11.697783
21
151.165485
31
0.0
0
ARC
8
0
10
58.497783
20
148.619075
30
0.0
40
0.200000
50
360.000000
51
60.000000
0
ARC
8
0
10
11.897783
20
151.165485
30
0.0
40
0.200000
50
180.000000
51
240.000000
0
LINE
8
0
10
58.697783
20
148.192280
30
0.0
11
58.697783
21
148.619075
31
0.0
0
LINE
8
0
10
11.797783
20
150.992280
30
0.0
11
11.797783
21
150.617280
31
0.0
0
ARC
8
0
10
58.297783
20
148.192280
30
0.0
40
0.400000
50
270.000000
51
360.000000
0
ARC
8
0
10
11.997783
20
150.617280
30
0.0
40
0.200000
50
180.000000
51
270.000000
0
LINE
8
0
10
58.091339
20
147.792280
30
0.0
11
58.297783
21
147.792280
31
0.0
0
LINE
8
0
10
11.997783
20
150.417280
30
0.0
11
12.109590
21
150.417280
31
0.0
0
ARC
8
0
10
58.091339
20
147.992280
30
0.0
40
0.200000
50
240.018361
51
270.000000
0
LINE
8
0
10
12.109590
20
150.417280
30
0.0
11
12.194138
21
150.436030
31
0.0
0
LINE
8
0
10
56.582784
20
148.631702
30
0.0
11
57.991394
21
147.819042
31
0.0
0
ARC
8
0
10
12.447783
20
149.892280
30
0.0
40
0.600000
50
360.000000
51
115.007833
0
ARC
8
0
10
55.983117
20
147.592280
30
0.0
40
1.200000
50
60.018361
51
90.000000
0
ARC
8
0
10
12.447783
20
149.892280
30
0.0
40
0.600000
50
244.992167
51
360.000000
0
LINE
8
0
10
54.521389
20
148.792280
30
0.0
11
55.983117
21
148.792280
31
0.0
0
LINE
8
0
10
12.194138
20
149.348530
30
0.0
11
12.109590
21
149.367280
31
0.0
0
ARC
8
0
10
54.521389
20
149.792280
30
0.0
40
1.000000
50
200.000000
51
270.000000
0
LINE
8
0
10
12.109590
20
149.367280
30
0.0
11
11.997783
21
149.367280
31
0.0
0
LINE
8
0
10
53.171726
20
150.576643
30
0.0
11
53.581696
21
149.450259
31
0.0
0
ARC
8
0
10
11.997783
20
149.167280
30
0.0
40
0.200000
50
90.000000
51
180.000000
0
ARC
8
0
10
51.292341
20
149.892602
30
0.0
40
2.000000
50
20.000000
51
90.000000
0
LINE
8
0
10
11.797783
20
149.167280
30
0.0
11
11.797783
21
148.792280
31
0.0
0
LINE
8
0
10
47.197783
20
151.892602
30
0.0
11
51.292341
21
151.892602
31
0.0
0
ARC
8
0
10
11.897783
20
148.619075
30
0.0
40
0.200000
50
120.000000
51
180.000000
0
ARC
8
0
10
47.197783
20
151.392602
30
0.0
40
0.500000
50
90.000000
51
180.000000
0
LINE
8
0
10
11.697783
20
148.619075
30
0.0
11
11.697783
21
148.192280
31
0.0
0
LINE
8
0
10
46.697783
20
127.388632
30
0.0
11
46.697783
21
151.392602
31
0.0
0
ARC
8
0
10
12.097783
20
148.192280
30
0.0
40
0.400000
50
180.000000
51
270.000000
0
ARC
8
0
10
46.397783
20
127.388632
30
0.0
40
0.300000
50
270.000000
51
360.000000
0
LINE
8
0
10
12.097783
20
147.792280
30
0.0
11
12.304228
21
147.792280
31
0.0
0
LINE
8
0
10
45.897783
20
127.088632
30
0.0
11
46.397783
21
127.088632
31
0.0
0
ARC
8
0
10
12.304228
20
147.992280
30
0.0
40
0.200000
50
270.000000
51
299.981639
0
ARC
8
0
10
45.897783
20
127.388632
30
0.0
40
0.300000
50
180.000000
51
270.000000
0
LINE
8
0
10
12.404172
20
147.819042
30
0.0
11
13.812783
21
148.631702
31
0.0
0
LINE
8
0
10
45.597783
20
147.653963
30
0.0
11
45.597783
21
127.388632
31
0.0
0
ARC
8
0
10
14.412450
20
147.592280
30
0.0
40
1.200000
50
90.000000
51
119.981639
0
ARC
8
0
10
45.097783
20
147.653963
30
0.0
40
0.500000
50
360.000000
51
90.000000
0
LINE
8
0
10
14.412450
20
148.792280
30
0.0
11
15.874049
21
148.792280
31
0.0
0
LINE
8
0
10
33.035133
20
148.153963
30
0.0
11
45.097783
21
148.153963
31
0.0
0
ARC
8
0
10
15.874049
20
149.792280
30
0.0
40
1.000000
50
270.000000
51
340.000000
0
ARC
8
0
10
33.035133
20
147.653963
30
0.0
40
0.500000
50
90.000000
51
180.000000
0
LINE
8
0
10
16.813742
20
149.450259
30
0.0
11
17.223594
21
150.576320
31
0.0
0
LINE
8
0
10
32.535133
20
145.392280
30
0.0
11
32.535133
21
147.653963
31
0.0
0
ARC
8
0
10
19.102979
20
149.892280
30
0.0
40
2.000000
50
90.000000
51
160.000000
0
ARC
8
0
10
32.235133
20
145.392280
30
0.0
40
0.300000
50
270.000000
51
360.000000
0
LINE
8
0
10
19.102979
20
151.892280
30
0.0
11
20.197783
21
151.892280
31
0.0
0
LINE
8
0
10
30.935133
20
145.092280
30
0.0
11
32.235133
21
145.092280
31
0.0
0
ARC
8
0
10
20.197783
20
151.392280
30
0.0
40
0.500000
50
360.000000
51
90.000000
0
ARC
8
0
10
30.935133
20
145.392280
30
0.0
40
0.300000
50
180.000000
51
270.000000
0
LINE
8
0
10
20.697783
20
151.392280
30
0.0
11
20.697783
21
127.388632
31
0.0
0
LINE
8
0
10
30.635133
20
151.392280
30
0.0
11
30.635133
21
145.392280
31
0.0
0
ARC
8
0
10
20.997783
20
127.388632
30
0.0
40
0.300000
50
180.000000
51
270.000000
0
ARC
8
0
10
30.135133
20
151.392280
30
0.0
40
0.500000
50
360.000000
51
90.000000
0
LINE
8
0
10
20.997783
20
127.088632
30
0.0
11
21.497783
21
127.088632
31
0.0
0
LINE
8
0
10
22.297783
20
151.892280
30
0.0
11
30.135133
21
151.892280
31
0.0
0
ARC
8
0
10
21.497783
20
127.388632
30
0.0
40
0.300000
50
270.000000
51
360.000000
0
ARC
8
0
10
22.297783
20
151.392280
30
0.0
40
0.500000
50
90.000000
51
180.000000
0
LINE
8
0
10
21.797783
20
127.388632
30
0.0
11
21.797783
21
151.392280
31
0.0
0
ARC
8
0
10
53.919752
20
54.489637
30
0.0
40
0.500000
50
270.000000
51
340.000000
0
LINE
8
0
10
53.919752
20
53.989637
30
0.0
11
16.475814
21
53.989637
31
0.0
0
LINE
8
0
10
55.223825
20
56.610647
30
0.0
11
54.389598
21
54.318627
31
0.0
0
ARC
8
0
10
16.475814
20
54.489637
30
0.0
40
0.500000
50
200.000000
51
270.000000
0
ARC
8
0
10
55.693671
20
56.439637
30
0.0
40
0.500000
50
90.000000
51
160.000000
0
LINE
8
0
10
16.005967
20
54.318627
30
0.0
11
15.171740
21
56.610647
31
0.0
0
LINE
8
0
10
56.070795
20
56.939637
30
0.0
11
55.693671
21
56.939637
31
0.0
0
ARC
8
0
10
14.701894
20
56.439637
30
0.0
40
0.500000
50
20.000000
51
90.000000
0
ARC
8
0
10
56.070795
20
55.739637
30
0.0
40
1.200000
50
60.000000
51
90.000000
0
LINE
8
0
10
14.701894
20
56.939637
30
0.0
11
14.324770
21
56.939637
31
0.0
0
LINE
8
0
10
57.991372
20
56.016432
30
0.0
11
56.670795
21
56.778867
31
0.0
0
ARC
8
0
10
14.324770
20
55.739637
30
0.0
40
1.200000
50
90.000000
51
120.000000
0
ARC
8
0
10
58.091372
20
56.189637
30
0.0
40
0.200000
50
240.000000
51
270.000000
0
LINE
8
0
10
13.724770
20
56.778867
30
0.0
11
12.404193
21
56.016432
31
0.0
0
LINE
8
0
10
58.297783
20
55.989637
30
0.0
11
58.091372
21
55.989637
31
0.0
0
ARC
8
0
10
12.304193
20
56.189637
30
0.0
40
0.200000
50
270.000000
51
300.000000
0
ARC
8
0
10
58.297783
20
56.389637
30
0.0
40
0.400000
50
270.000000
51
360.000000
0
LINE
8
0
10
12.304193
20
55.989637
30
0.0
11
12.097783
21
55.989637
31
0.0
0
LINE
8
0
10
58.697783
20
56.816432
30
0.0
11
58.697783
21
56.389637
31
0.0
0
ARC
8
0
10
12.097783
20
56.389637
30
0.0
40
0.400000
50
180.000000
51
270.000000
0
ARC
8
0
10
58.497783
20
56.816432
30
0.0
40
0.200000
50
360.000000
51
60.000000
0
LINE
8
0
10
11.697783
20
56.389637
30
0.0
11
11.697783
21
56.816432
31
0.0
0
LINE
8
0
10
58.597783
20
57.364637
30
0.0
11
58.597783
21
56.989637
31
0.0
0
ARC
8
0
10
11.897783
20
56.816432
30
0.0
40
0.200000
50
120.000000
51
180.000000
0
ARC
8
0
10
58.397783
20
57.364637
30
0.0
40
0.200000
50
360.000000
51
90.000000
0
LINE
8
0
10
11.797783
20
56.989637
30
0.0
11
11.797783
21
57.364637
31
0.0
0
LINE
8
0
10
58.285976
20
57.564637
30
0.0
11
58.397783
21
57.564637
31
0.0
0
ARC
8
0
10
11.997783
20
57.364637
30
0.0
40
0.200000
50
90.000000
51
180.000000
0
LINE
8
0
10
58.285976
20
57.564637
30
0.0
11
58.201428
21
57.545887
31
0.0
0
LINE
8
0
10
11.997783
20
57.564637
30
0.0
11
12.109589
21
57.564637
31
0.0
0
ARC
8
0
10
57.947783
20
58.089637
30
0.0
40
0.600000
50
64.992167
51
295.007833
0
LINE
8
0
10
12.194137
20
57.545887
30
0.0
11
12.109589
21
57.564637
31
0.0
0
LINE
8
0
10
58.201428
20
58.633387
30
0.0
11
58.285976
21
58.614637
31
0.0
0
ARC
8
0
10
12.447783
20
58.089637
30
0.0
40
0.600000
50
244.992167
51
115.007833
0
LINE
8
0
10
58.397783
20
58.614637
30
0.0
11
58.285976
21
58.614637
31
0.0
0
LINE
8
0
10
12.109589
20
58.614637
30
0.0
11
12.194137
21
58.633387
31
0.0
0
ARC
8
0
10
58.397783
20
58.814637
30
0.0
40
0.200000
50
270.000000
51
360.000000
0
LINE
8
0
10
12.109589
20
58.614637
30
0.0
11
11.997783
21
58.614637
31
0.0
0
LINE
8
0
10
58.597783
20
59.189637
30
0.0
11
58.597783
21
58.814637
31
0.0
0
ARC
8
0
10
11.997783
20
58.814637
30
0.0
40
0.200000
50
180.000000
51
270.000000
0
ARC
8
0
10
58.497783
20
59.362842
30
0.0
40
0.200000
50
300.000000
51
360.000000
0
LINE
8
0
10
11.797783
20
58.814637
30
0.0
11
11.797783
21
59.189637
31
0.0
0
LINE
8
0
10
58.697783
20
59.789637
30
0.0
11
58.697783
21
59.362842
31
0.0
0
ARC
8
0
10
11.897783
20
59.362842
30
0.0
40
0.200000
50
180.000000
51
240.000000
0
ARC
8
0
10
58.297783
20
59.789637
30
0.0
40
0.400000
50
360.000000
51
90.000000
0
LINE
8
0
10
11.697783
20
59.362842
30
0.0
11
11.697783
21
59.789637
31
0.0
0
LINE
8
0
10
58.091372
20
60.189637
30
0.0
11
58.297783
21
60.189637
31
0.0
0
ARC
8
0
10
12.097783
20
59.789637
30
0.0
40
0.400000
50
90.000000
51
180.000000
0
ARC
8
0
10
58.091372
20
59.989637
30
0.0
40
0.200000
50
90.000000
51
120.000000
0
LINE
8
0
10
12.097783
20
60.189637
30
0.0
11
12.304193
21
60.189637
31
0.0
0
LINE
8
0
10
56.497590
20
59.300406
30
0.0
11
57.991372
21
60.162842
31
0.0
0
ARC
8
0
10
12.304193
20
59.989637
30
0.0
40
0.200000
50
60.000000
51
90.000000
0
ARC
8
0
10
55.897590
20
60.339637
30
0.0
40
1.200000
50
270.000000
51
300.000000
0
LINE
8
0
10
12.404193
20
60.162842
30
0.0
11
13.897975
21
59.300406
31
0.0
0
LINE
8
0
10
54.503318
20
59.139637
30
0.0
11
55.897590
21
59.139637
31
0.0
0
ARC
8
0
10
14.497975
20
60.339637
30
0.0
40
1.200000
50
240.000000
51
270.000000
0
ARC
8
0
10
54.503318
20
58.139637
30
0.0
40
1.000000
50
90.000000
51
160.000000
0
LINE
8
0
10
14.497975
20
59.139637
30
0.0
11
15.892247
21
59.139637
31
0.0
0
LINE
8
0
10
53.171972
20
57.405597
30
0.0
11
53.563626
21
58.481657
31
0.0
0
ARC
8
0
10
15.892247
20
58.139637
30
0.0
40
1.000000
50
20.000000
51
90.000000
0
ARC
8
0
10
51.292587
20
58.089637
30
0.0
40
2.000000
50
270.000000
51
340.000000
0
LINE
8
0
10
16.831939
20
58.481657
30
0.0
11
17.223593
21
57.405597
31
0.0
0
LINE
8
0
10
48.797783
20
56.089637
30
0.0
11
51.292587
21
56.089637
31
0.0
0
ARC
8
0
10
19.102979
20
58.089637
30
0.0
40
2.000000
50
200.000000
51
270.000000
0
ARC
8
0
10
48.797783
20
56.589637
30
0.0
40
0.500000
50
180.000000
51
270.000000
0
LINE
8
0
10
19.102979
20
56.089637
30
0.0
11
21.597783
21
56.089637
31
0.0
0
LINE
8
0
10
48.297783
20
82.093284
30
0.0
11
48.297783
21
56.589637
31
0.0
0
ARC
8
0
10
21.597783
20
56.589637
30
0.0
40
0.500000
50
270.000000
51
360.000000
0
ARC
8
0
10
47.997783
20
82.093284
30
0.0
40
0.300000
50
360.000000
51
90.000000
0
LINE
8
0
10
22.097783
20
56.589637
30
0.0
11
22.097783
21
82.093284
31
0.0
0
LINE
8
0
10
47.497783
20
82.393284
30
0.0
11
47.997783
21
82.393284
31
0.0
0
ARC
8
0
10
22.397783
20
82.093284
30
0.0
40
0.300000
50
90.000000
51
180.000000
0
ARC
8
0
10
47.497783
20
82.093284
30
0.0
40
0.300000
50
90.000000
51
180.000000
0
LINE
8
0
10
22.397783
20
82.393284
30
0.0
11
22.897783
21
82.393284
31
0.0
0
LINE
8
0
10
47.197783
20
56.589637
30
0.0
11
47.197783
21
82.093284
31
0.0
0
ARC
8
0
10
22.897783
20
82.093284
30
0.0
40
0.300000
50
360.000000
51
90.000000
0
ARC
8
0
10
46.697783
20
56.589637
30
0.0
40
0.500000
50
270.000000
51
360.000000
0
LINE
8
0
10
23.197783
20
82.093284
30
0.0
11
23.197783
21
56.589637
31
0.0
0
LINE
8
0
10
23.697783
20
56.089637
30
0.0
11
46.697783
21
56.089637
31
0.0
0
ARC
8
0
10
23.697783
20
56.589637
30
0.0
40
0.500000
50
180.000000
51
270.000000
0
ATTDEF
8
0
10
60.072506
20
158.992280
30
0.0
40
3.5
1

3

2
VC_START
70
0
0
ATTDEF
8
0
10
2.100000
20
24.000000
30
0.0
40
3.5
1

3

2
VC_END
70
0
0
ARC
8
0
10
72.707783
20
9.700000
30
0.0
40
0.300000
50
90.000000
51
180.000000
0
LINE
8
0
10
72.707783
20
10.000000
30
0.0
11
74.407783
21
10.000000
31
0.0
0
ARC
8
0
10
74.407783
20
10.500000
30
0.0
40
0.500000
50
270.000000
51
360.000000
0
LINE
8
0
10
74.907783
20
10.500000
30
0.0
11
74.907783
21
20.000000
31
0.0
0
ARC
8
0
10
72.907783
20
20.000000
30
0.0
40
2.000000
50
360.000000
51
90.000000
0
LINE
8
0
10
72.907783
20
22.000000
30
0.0
11
69.006209
21
22.000000
31
0.0
0
LINE
8
0
10
69.006209
20
22.000000
30
0.0
11
68.707783
21
22.300000
31
0.0
0
LINE
8
0
10
68.707783
20
22.300000
30
0.0
11
68.409357
21
22.000000
31
0.0
0
LINE
8
0
10
68.409357
20
22.000000
30
0.0
11
65.304149
21
22.000000
31
0.0
0
ARC
8
0
10
65.304149
20
21.600000
30
0.0
40
0.400000
50
90.000000
51
180.000000
0
LINE
8
0
10
64.904149
20
21.600000
30
0.0
11
64.904149
21
17.395351
31
0.0
0
ARC
8
0
10
64.504149
20
17.395351
30
0.0
40
0.400000
50
270.000000
51
360.000000
0
LINE
8
0
10
64.504149
20
16.995351
30
0.0
11
63.254149
21
16.995351
31
0.0
0
ARC
8
0
10
63.254149
20
17.295351
30
0.0
40
0.300000
50
180.000000
51
270.000000
0
LINE
8
0
10
62.954149
20
17.295351
30
0.0
11
62.954149
21
17.695351
31
0.0
0
ARC
8
0
10
63.254149
20
17.695351
30
0.0
40
0.300000
50
90.000000
51
180.000000
0
LINE
8
0
10
63.254149
20
17.995351
30
0.0
11
63.404149
21
17.995351
31
0.0
0
ARC
8
0
10
63.404149
20
18.295351
30
0.0
40
0.300000
50
270.000000
51
360.000000
0
LINE
8
0
10
63.704149
20
18.295351
30
0.0
11
63.704149
21
21.700000
31
0.0
0
ARC
8
0
10
63.404149
20
21.700000
30
0.0
40
0.300000
50
360.000000
51
90.000000
0
LINE
8
0
10
63.404149
20
22.000000
30
0.0
11
60.004149
21
22.000000
31
0.0
0
ARC
8
0
10
60.004149
20
21.700000
30
0.0
40
0.300000
50
90.000000
51
180.000000
0
LINE
8
0
10
59.704149
20
21.700000
30
0.0
11
59.704149
21
18.295351
31
0.0
0
ARC
8
0
10
60.004149
20
18.295351
30
0.0
40
0.300000
50
180.000000
51
270.000000
0
LINE
8
0
10
60.004149
20
17.995351
30
0.0
11
60.154149
21
17.995351
31
0.0
0
ARC
8
0
10
60.154149
20
17.695351
30
0.0
40
0.300000
50
360.000000
51
90.000000
0
LINE
8
0
10
60.454149
20
17.695351
30
0.0
11
60.454149
21
17.295351
31
0.0
0
ARC
8
0
10
60.154149
20
17.295351
30
0.0
40
0.300000
50
270.000000
51
360.000000
0
LINE
8
0
10
60.154149
20
16.995351
30
0.0
11
60.004149
21
16.995351
31
0.0
0
ARC
8
0
10
60.004149
20
16.695351
30
0.0
40
0.300000
50
90.000000
51
180.000000
0
LINE
8
0
10
59.704149
20
16.695351
30
0.0
11
59.704149
21
16.198291
31
0.0
0
ARC
8
0
10
59.404149
20
16.198291
30
0.0
40
0.300000
50
270.000000
51
360.000000
0
LINE
8
0
10
59.404149
20
15.898291
30
0.0
11
55.803634
21
15.898291
31
0.0
0
ARC
8
0
10
55.803634
20
16.298291
30
0.0
40
0.400000
50
180.000000
51
270.000000
0
LINE
8
0
10
55.403634
20
16.298291
30
0.0
11
55.403634
21
18.600555
31
0.0
0
ARC
8
0
10
55.603634
20
18.600555
30
0.0
40
0.200000
50
58.626462
51
180.000000
0
LINE
8
0
10
55.707757
20
18.771313
30
0.0
11
57.227834
21
17.844418
31
0.0
0
ARC
8
0
10
57.384019
20
18.100555
30
0.0
40
0.300000
50
238.626462
51
270.000000
0
LINE
8
0
10
57.384019
20
17.800555
30
0.0
11
57.603634
21
17.800555
31
0.0
0
ARC
8
0
10
57.603634
20
18.100555
30
0.0
40
0.300000
50
270.000000
51
360.000000
0
LINE
8
0
10
57.903634
20
18.100555
30
0.0
11
57.903634
21
22.134314
31
0.0
0
ARC
8
0
10
57.803634
20
22.417157
30
0.0
40
0.300000
50
289.471221
51
87.416256
0
LINE
8
0
10
57.817158
20
22.716852
30
0.0
11
57.530095
21
22.629704
31
0.0
0
LINE
8
0
10
57.530095
20
22.629704
30
0.0
11
55.753938
21
21.524683
31
0.0
0
ARC
8
0
10
55.859589
20
21.354865
30
0.0
40
0.200000
50
121.887477
51
180.000000
0
LINE
8
0
10
55.659697
20
21.348278
30
0.0
11
55.665402
21
21.175167
31
0.0
0
ARC
8
0
10
55.465510
20
21.168579
30
0.0
40
0.200000
50
241.887477
51
360.000000
0
LINE
8
0
10
55.371269
20
20.992175
30
0.0
11
55.091529
21
21.141621
31
0.0
0
ARC
8
0
10
55.468493
20
21.847240
30
0.0
40
0.800000
50
196.887477
51
241.887477
0
LINE
8
0
10
54.702991
20
21.614845
30
0.0
11
54.121595
21
23.529950
31
0.0
0
ARC
8
0
10
54.408658
20
23.617098
30
0.0
40
0.300000
50
90.000000
51
196.887477
0
LINE
8
0
10
54.409247
20
23.917098
30
0.0
11
55.959077
21
23.914054
31
0.0
0
ARC
8
0
10
55.958684
20
23.714054
30
0.0
40
0.200000
50
29.118414
51
90.000000
0
ARC
8
0
10
56.395492
20
23.957362
30
0.0
40
0.300000
50
209.118414
51
286.887477
0
LINE
8
0
10
56.482640
20
23.670299
30
0.0
11
57.568665
21
24.000000
31
0.0
0
LINE
8
0
10
57.568665
20
24.000000
30
0.0
11
70.711434
21
24.000000
31
0.0
0
ARC
8
0
10
70.711434
20
24.300000
30
0.0
40
0.300000
50
270.000000
51
360.000000
0
LINE
8
0
10
71.011434
20
24.300000
30
0.0
11
71.011434
21
30.076553
31
0.0
0
ARC
8
0
10
71.411434
20
30.076553
30
0.0
40
0.400000
50
20.000000
51
180.000000
0
LINE
8
0
10
71.787311
20
30.213361
30
0.0
11
72.891820
21
27.178748
31
0.0
0
ARC
8
0
10
72.609912
20
27.076142
30
0.0
40
0.300000
50
300.000000
51
20.000000
0
LINE
8
0
10
72.759912
20
26.816334
30
0.0
11
72.209912
21
26.498792
31
0.0
0
LINE
8
0
10
72.209912
20
26.498792
30
0.0
11
72.209912
21
24.300000
31
0.0
0
ARC
8
0
10
72.509912
20
24.300000
30
0.0
40
0.300000
50
180.000000
51
270.000000
0
LINE
8
0
10
72.509912
20
24.000000
30
0.0
11
76.407783
21
24.000000
31
0.0
0
ARC
8
0
10
76.407783
20
23.700000
30
0.0
40
0.300000
50
360.000000
51
90.000000
0
LINE
8
0
10
76.707783
20
23.700000
30
0.0
11
76.707783
21
0.500000
31
0.0
0
ARC
8
0
10
76.207783
20
0.500000
30
0.0
40
0.500000
50
270.000000
51
360.000000
0
LINE
8
0
10
76.207783
20
0.000000
30
0.0
11
72.707783
21
0.000000
31
0.0
0
ARC
8
0
10
72.707783
20
0.300000
30
0.0
40
0.300000
50
180.000000
51
270.000000
0
LINE
8
0
10
72.407783
20
0.300000
30
0.0
11
72.407783
21
1.800000
31
0.0
0
ARC
8
0
10
73.107783
20
1.800000
30
0.0
40
0.700000
50
90.000000
51
180.000000
0
ARC
8
0
10
73.107783
20
2.200000
30
0.0
40
0.300000
50
360.000000
51
90.000000
0
LINE
8
0
10
73.407783
20
2.200000
30
0.0
11
73.407783
21
1.500000
31
0.0
0
ARC
8
0
10
73.707783
20
1.500000
30
0.0
40
0.300000
50
180.000000
51
270.000000
0
LINE
8
0
10
73.707783
20
1.200000
30
0.0
11
74.707783
21
1.200000
31
0.0
0
ARC
8
0
10
74.707783
20
1.900000
30
0.0
40
0.700000
50
270.000000
51
360.000000
0
LINE
8
0
10
75.407783
20
1.900000
30
0.0
11
75.407783
21
8.100000
31
0.0
0
ARC
8
0
10
74.707783
20
8.100000
30
0.0
40
0.700000
50
360.000000
51
90.000000
0
LINE
8
0
10
74.707783
20
8.800000
30
0.0
11
73.707783
21
8.800000
31
0.0
0
ARC
8
0
10
73.707783
20
8.500000
30
0.0
40
0.300000
50
90.000000
51
180.000000
0
LINE
8
0
10
73.407783
20
8.500000
30
0.0
11
73.407783
21
7.800000
31
0.0
0
ARC
8
0
10
73.107783
20
7.800000
30
0.0
40
0.300000
50
270.000000
51
360.000000
0
ARC
8
0
10
73.107783
20
8.200000
30
0.0
40
0.700000
50
180.000000
51
270.000000
0
LINE
8
0
10
72.407783
20
8.200000
30
0.0
11
72.407783
21
9.700000
31
0.0
0
LINE
8
0
10
0.300000
20
24.000000
30
0.0
11
4.197871
21
24.000000
31
0.0
0
ARC
8
0
10
4.197871
20
24.300000
30
0.0
40
0.300000
50
270.000000
51
360.000000
0
LINE
8
0
10
4.497871
20
24.300000
30
0.0
11
4.497871
21
26.498792
31
0.0
0
LINE
8
0
10
4.497871
20
26.498792
30
0.0
11
3.947871
21
26.816334
31
0.0
0
ARC
8
0
10
4.097871
20
27.076142
30
0.0
40
0.300000
50
160.000000
51
240.000000
0
LINE
8
0
10
3.815963
20
27.178748
30
0.0
11
4.920472
21
30.213361
31
0.0
0
ARC
8
0
10
5.296349
20
30.076553
30
0.0
40
0.400000
50
360.000000
51
160.000000
0
LINE
8
0
10
5.696349
20
30.076553
30
0.0
11
5.696349
21
24.300000
31
0.0
0
ARC
8
0
10
5.996349
20
24.300000
30
0.0
40
0.300000
50
180.000000
51
270.000000
0
LINE
8
0
10
5.996349
20
24.000000
30
0.0
11
19.009118
21
24.000000
31
0.0
0
LINE
8
0
10
19.009118
20
24.000000
30
0.0
11
20.095144
21
23.670299
31
0.0
0
ARC
8
0
10
20.182291
20
23.957362
30
0.0
40
0.300000
50
253.112523
51
330.881586
0
ARC
8
0
10
20.619099
20
23.714054
30
0.0
40
0.200000
50
90.000000
51
150.881586
0
LINE
8
0
10
20.618707
20
23.914054
30
0.0
11
22.168536
21
23.917098
31
0.0
0
ARC
8
0
10
22.169125
20
23.617098
30
0.0
40
0.300000
50
343.112523
51
90.000000
0
LINE
8
0
10
22.456188
20
23.529950
30
0.0
11
21.874792
21
21.614845
31
0.0
0
ARC
8
0
10
21.109290
20
21.847240
30
0.0
40
0.800000
50
298.112523
51
343.112523
0
LINE
8
0
10
21.486254
20
21.141621
30
0.0
11
21.206514
21
20.992175
31
0.0
0
ARC
8
0
10
21.112273
20
21.168579
30
0.0
40
0.200000
50
180.000000
51
298.112523
0
LINE
8
0
10
20.912381
20
21.175167
30
0.0
11
20.918086
21
21.348278
31
0.0
0
ARC
8
0
10
20.718195
20
21.354865
30
0.0
40
0.200000
50
360.000000
51
58.112523
0
LINE
8
0
10
20.823845
20
21.524683
30
0.0
11
19.276959
21
22.497920
31
0.0
0
LINE
8
0
10
19.276959
20
22.497920
30
0.0
11
18.989808
21
22.584778
31
0.0
0
ARC
8
0
10
19.003634
20
22.285097
30
0.0
40
0.300000
50
92.641495
51
250.528779
0
LINE
8
0
10
18.903634
20
22.002254
30
0.0
11
18.903634
21
18.100555
31
0.0
0
ARC
8
0
10
19.203634
20
18.100555
30
0.0
40
0.300000
50
180.000000
51
270.000000
0
LINE
8
0
10
19.203634
20
17.800555
30
0.0
11
19.423249
21
17.800555
31
0.0
0
ARC
8
0
10
19.423249
20
18.100555
30
0.0
40
0.300000
50
270.000000
51
301.373538
0
LINE
8
0
10
19.579434
20
17.844418
30
0.0
11
21.099511
21
18.771313
31
0.0
0
ARC
8
0
10
21.203634
20
18.600555
30
0.0
40
0.200000
50
360.000000
51
121.373538
0
LINE
8
0
10
21.403634
20
18.600555
30
0.0
11
21.403634
21
16.298291
31
0.0
0
ARC
8
0
10
21.003634
20
16.298291
30
0.0
40
0.400000
50
270.000000
51
360.000000
0
LINE
8
0
10
21.003634
20
15.898291
30
0.0
11
17.403118
21
15.898291
31
0.0
0
ARC
8
0
10
17.403118
20
16.198291
30
0.0
40
0.300000
50
180.000000
51
270.000000
0
LINE
8
0
10
17.103118
20
16.198291
30
0.0
11
17.103118
21
16.695351
31
0.0
0
ARC
8
0
10
16.803118
20
16.695351
30
0.0
40
0.300000
50
360.000000
51
90.000000
0
LINE
8
0
10
16.803118
20
16.995351
30
0.0
11
16.653118
21
16.995351
31
0.0
0
ARC
8
0
10
16.653118
20
17.295351
30
0.0
40
0.300000
50
180.000000
51
270.000000
0
LINE
8
0
10
16.353118
20
17.295351
30
0.0
11
16.353118
21
17.695351
31
0.0
0
ARC
8
0
10
16.653118
20
17.695351
30
0.0
40
0.300000
50
90.000000
51
180.000000
0
LINE
8
0
10
16.653118
20
17.995351
30
0.0
11
16.803118
21
17.995351
31
0.0
0
ARC
8
0
10
16.803118
20
18.295351
30
0.0
40
0.300000
50
270.000000
51
360.000000
0
LINE
8
0
10
17.103118
20
18.295351
30
0.0
11
17.103118
21
21.700000
31
0.0
0
ARC
8
0
10
16.803118
20
21.700000
30
0.0
40
0.300000
50
360.000000
51
90.000000
0
LINE
8
0
10
16.803118
20
22.000000
30
0.0
11
13.403118
21
22.000000
31
0.0
0
ARC
8
0
10
13.403118
20
21.700000
30
0.0
40
0.300000
50
90.000000
51
180.000000
0
LINE
8
0
10
13.103118
20
21.700000
30
0.0
11
13.103118
21
18.295351
31
0.0
0
ARC
8
0
10
13.403118
20
18.295351
30
0.0
40
0.300000
50
180.000000
51
270.000000
0
LINE
8
0
10
13.403118
20
17.995351
30
0.0
11
13.553118
21
17.995351
31
0.0
0
ARC
8
0
10
13.553118
20
17.695351
30
0.0
40
0.300000
50
360.000000
51
90.000000
0
LINE
8
0
10
13.853118
20
17.695351
30
0.0
11
13.853118
21
17.295351
31
0.0
0
ARC
8
0
10
13.553118
20
17.295351
30
0.0
40
0.300000
50
270.000000
51
360.000000
0
LINE
8
0
10
13.553118
20
16.995351
30
0.0
11
12.303118
21
16.995351
31
0.0
0
ARC
8
0
10
12.303118
20
17.395351
30
0.0
40
0.400000
50
180.000000
51
270.000000
0
LINE
8
0
10
11.903118
20
17.395351
30
0.0
11
11.903118
21
21.600000
31
0.0
0
ARC
8
0
10
11.503118
20
21.600000
30
0.0
40
0.400000
50
360.000000
51
90.000000
0
LINE
8
0
10
11.503118
20
22.000000
30
0.0
11
8.298426
21
22.000000
31
0.0
0
LINE
8
0
10
8.298426
20
22.000000
30
0.0
11
8.000000
21
22.300000
31
0.0
0
LINE
8
0
10
8.000000
20
22.300000
30
0.0
11
7.701575
21
22.000000
31
0.0
0
LINE
8
0
10
7.701575
20
22.000000
30
0.0
11
1.996072
21
22.000000
31
0.0
0
ARC
8
0
10
1.996072
20
21.500000
30
0.0
40
0.500000
50
90.000000
51
180.000000
0
LINE
8
0
10
1.496072
20
21.500000
30
0.0
11
1.496072
21
16.300351
31
0.0
0
ARC
8
0
10
1.196072
20
16.300351
30
0.0
40
0.300000
50
270.000000
51
360.000000
0
LINE
8
0
10
1.196072
20
16.000351
30
0.0
11
0.300000
21
16.000351
31
0.0
0
ARC
8
0
10
0.300000
20
16.300351
30
0.0
40
0.300000
50
180.000000
51
270.000000
0
LINE
8
0
10
0.000000
20
16.300351
30
0.0
11
0.000000
21
23.700000
31
0.0
0
ARC
8
0
10
0.300000
20
23.700000
30
0.0
40
0.300000
50
90.000000
51
180.000000
0
ARC
8
0
10
19.646985
20
19.958233
30
0.0
40
0.600000
50
244.992167
51
115.007833
0
LINE
8
0
10
19.308792
20
20.483233
30
0.0
11
19.393340
21
20.501983
31
0.0
0
LINE
8
0
10
19.308792
20
20.483233
30
0.0
11
19.196985
21
20.483233
31
0.0
0
ARC
8
0
10
19.196985
20
20.683233
30
0.0
40
0.200000
50
180.000000
51
270.000000
0
LINE
8
0
10
18.996985
20
20.683233
30
0.0
11
18.996985
21
21.058233
31
0.0
0
ARC
8
0
10
18.996985
20
21.158233
30
0.0
40
0.100000
50
180.000000
51
270.000000
0
LINE
8
0
10
18.896985
20
21.158233
30
0.0
11
18.896985
21
21.658233
31
0.0
0
ARC
8
0
10
19.296985
20
21.658233
30
0.0
40
0.400000
50
90.000000
51
180.000000
0
LINE
8
0
10
19.296985
20
22.058233
30
0.0
11
19.503396
21
22.058233
31
0.0
0
ARC
8
0
10
19.503396
20
21.858233
30
0.0
40
0.200000
50
60.000000
51
90.000000
0
LINE
8
0
10
19.603396
20
22.031438
30
0.0
11
21.132818
21
21.148426
31
0.0
0
ARC
8
0
10
21.282818
20
21.408233
30
0.0
40
0.300000
50
240.000000
51
270.000000
0
LINE
8
0
10
21.282818
20
21.108233
30
0.0
11
21.523497
21
21.108233
31
0.0
0
ARC
8
0
10
21.523497
20
22.108233
30
0.0
40
1.000000
50
270.000000
51
333.886087
0
LINE
8
0
10
22.421418
20
21.668076
30
0.0
11
23.259769
21
23.378312
31
0.0
0
ARC
8
0
10
23.708729
20
23.158233
30
0.0
40
0.500000
50
90.000000
51
153.886087
0
LINE
8
0
10
23.708729
20
23.658233
30
0.0
11
53.085241
21
23.658233
31
0.0
0
ARC
8
0
10
53.085241
20
23.158233
30
0.0
40
0.500000
50
26.113913
51
90.000000
0
LINE
8
0
10
53.534202
20
23.378312
30
0.0
11
54.372553
21
21.668076
31
0.0
0
ARC
8
0
10
55.270473
20
22.108233
30
0.0
40
1.000000
50
206.113913
51
270.000000
0
LINE
8
0
10
55.270473
20
21.108233
30
0.0
11
55.511152
21
21.108233
31
0.0
0
ARC
8
0
10
55.511152
20
21.408233
30
0.0
40
0.300000
50
270.000000
51
300.000000
0
LINE
8
0
10
55.661152
20
21.148426
30
0.0
11
57.190575
21
22.031438
31
0.0
0
ARC
8
0
10
57.290575
20
21.858233
30
0.0
40
0.200000
50
90.000000
51
120.000000
0
LINE
8
0
10
57.290575
20
22.058233
30
0.0
11
57.496985
21
22.058233
31
0.0
0
ARC
8
0
10
57.496985
20
21.658233
30
0.0
40
0.400000
50
360.000000
51
90.000000
0
LINE
8
0
10
57.896985
20
21.658233
30
0.0
11
57.896985
21
21.158233
31
0.0
0
ARC
8
0
10
57.796985
20
21.158233
30
0.0
40
0.100000
50
270.000000
51
360.000000
0
LINE
8
0
10
57.796985
20
21.058233
30
0.0
11
57.796985
21
20.683233
31
0.0
0
ARC
8
0
10
57.596985
20
20.683233
30
0.0
40
0.200000
50
270.000000
51
360.000000
0
LINE
8
0
10
57.596985
20
20.483233
30
0.0
11
57.485179
21
20.483233
31
0.0
0
LINE
8
0
10
57.400631
20
20.501983
30
0.0
11
57.485179
21
20.483233
31
0.0
0
ARC
8
0
10
57.146985
20
19.958233
30
0.0
40
0.600000
50
64.992167
51
295.007833
0
LINE
8
0
10
57.485179
20
19.433233
30
0.0
11
57.400631
21
19.414483
31
0.0
0
LINE
8
0
10
57.485179
20
19.433233
30
0.0
11
57.596985
21
19.433233
31
0.0
0
ARC
8
0
10
57.596985
20
19.233233
30
0.0
40
0.200000
50
360.000000
51
90.000000
0
LINE
8
0
10
57.796985
20
19.233233
30
0.0
11
57.796985
21
18.858233
31
0.0
0
ARC
8
0
10
57.796985
20
18.758233
30
0.0
40
0.100000
50
360.000000
51
90.000000
0
LINE
8
0
10
57.896985
20
18.758233
30
0.0
11
57.896985
21
18.258233
31
0.0
0
ARC
8
0
10
57.496985
20
18.258233
30
0.0
40
0.400000
50
270.000000
51
360.000000
0
LINE
8
0
10
57.496985
20
17.858233
30
0.0
11
57.290575
21
17.858233
31
0.0
0
ARC
8
0
10
57.290575
20
18.058233
30
0.0
40
0.200000
50
240.000000
51
270.000000
0
LINE
8
0
10
57.190575
20
17.885028
30
0.0
11
55.661152
21
18.768041
31
0.0
0
ARC
8
0
10
55.511152
20
18.508233
30
0.0
40
0.300000
50
60.000000
51
90.000000
0
LINE
8
0
10
55.511152
20
18.808233
30
0.0
11
55.207151
21
18.808233
31
0.0
0
ARC
8
0
10
55.207151
20
18.008233
30
0.0
40
0.800000
50
90.000000
51
160.000000
0
LINE
8
0
10
54.455397
20
18.281849
30
0.0
11
52.819487
21
13.787223
31
0.0
0
ARC
8
0
10
52.349641
20
13.958233
30
0.0
40
0.500000
50
270.000000
51
340.000000
0
LINE
8
0
10
52.349641
20
13.458233
30
0.0
11
50.596985
21
13.458233
31
0.0
0
ARC
8
0
10
50.596985
20
13.958233
30
0.0
40
0.500000
50
180.000000
51
270.000000
0
LINE
8
0
10
50.096985
20
13.958233
30
0.0
11
50.096985
21
16.158233
31
0.0
0
ARC
8
0
10
49.796985
20
16.158233
30
0.0
40
0.300000
50
360.000000
51
90.000000
0
LINE
8
0
10
49.796985
20
16.458233
30
0.0
11
26.996985
21
16.458233
31
0.0
0
ARC
8
0
10
26.996985
20
16.158233
30
0.0
40
0.300000
50
90.000000
51
180.000000
0
LINE
8
0
10
26.696985
20
16.158233
30
0.0
11
26.696985
21
13.958233
31
0.0
0
ARC
8
0
10
26.196985
20
13.958233
30
0.0
40
0.500000
50
270.000000
51
360.000000
0
LINE
8
0
10
26.196985
20
13.458233
30
0.0
11
24.444330
21
13.458233
31
0.0
0
ARC
8
0
10
24.444330
20
13.958233
30
0.0
40
0.500000
50
200.000000
51
270.000000
0
LINE
8
0
10
23.974484
20
13.787223
30
0.0
11
22.338574
21
18.281849
31
0.0
0
ARC
8
0
10
21.586819
20
18.008233
30
0.0
40
0.800000
50
20.000000
51
90.000000
0
LINE
8
0
10
21.586819
20
18.808233
30
0.0
11
21.282818
21
18.808233
31
0.0
0
ARC
8
0
10
21.282818
20
18.508233
30
0.0
40
0.300000
50
90.000000
51
120.000000
0
LINE
8
0
10
21.132818
20
18.768041
30
0.0
11
19.603396
21
17.885028
31
0.0
0
ARC
8
0
10
19.503396
20
18.058233
30
0.0
40
0.200000
50
270.000000
51
300.000000
0
LINE
8
0
10
19.503396
20
17.858233
30
0.0
11
19.296985
21
17.858233
31
0.0
0
ARC
8
0
10
19.296985
20
18.258233
30
0.0
40
0.400000
50
180.000000
51
270.000000
0
LINE
8
0
10
18.896985
20
18.258233
30
0.0
11
18.896985
21
18.758233
31
0.0
0
ARC
8
0
10
18.996985
20
18.758233
30
0.0
40
0.100000
50
90.000000
51
180.000000
0
LINE
8
0
10
18.996985
20
18.858233
30
0.0
11
18.996985
21
19.233233
31
0.0
0
ARC
8
0
10
19.196985
20
19.233233
30
0.0
40
0.200000
50
90.000000
51
180.000000
0
LINE
8
0
10
19.196985
20
19.433233
30
0.0
11
19.308792
21
19.433233
31
0.0
0
LINE
8
0
10
19.393340
20
19.414483
30
0.0
11
19.308792
21
19.433233
31
0.0
0
LINE
8
0
10
30.096985
20
22.558233
30
0.0
11
30.096985
21
17.558233
31
0.0
0
ARC
8
0
10
29.796985
20
17.558233
30
0.0
40
0.300000
50
270.000000
51
360.000000
0
LINE
8
0
10
29.796985
20
17.258233
30
0.0
11
26.146985
21
17.258233
31
0.0
0
ARC
8
0
10
26.146985
20
16.758233
30
0.0
40
0.500000
50
90.000000
51
180.000000
0
LINE
8
0
10
25.646985
20
16.758233
30
0.0
11
25.646985
21
14.858233
31
0.0
0
ARC
8
0
10
25.346985
20
14.858233
30
0.0
40
0.300000
50
270.000000
51
360.000000
0
LINE
8
0
10
25.346985
20
14.558233
30
0.0
11
25.074517
21
14.558233
31
0.0
0
ARC
8
0
10
25.074517
20
14.858233
30
0.0
40
0.300000
50
200.000000
51
270.000000
0
LINE
8
0
10
24.792609
20
14.755627
30
0.0
11
23.696985
21
17.765828
31
0.0
0
LINE
8
0
10
23.696985
20
17.765828
30
0.0
11
23.696985
21
21.658233
31
0.0
0
ARC
8
0
10
24.896985
20
21.658233
30
0.0
40
1.200000
50
90.000000
51
180.000000
0
LINE
8
0
10
24.896985
20
22.858233
30
0.0
11
29.796985
21
22.858233
31
0.0
0
ARC
8
0
10
29.796985
20
22.558233
30
0.0
40
0.300000
50
360.000000
51
90.000000
0
ARC
8
0
10
51.719454
20
14.858233
30
0.0
40
0.300000
50
270.000000
51
340.000000
0
LINE
8
0
10
51.719454
20
14.558233
30
0.0
11
51.446985
21
14.558233
31
0.0
0
ARC
8
0
10
51.446985
20
14.858233
30
0.0
40
0.300000
50
180.000000
51
270.000000
0
LINE
8
0
10
51.146985
20
14.858233
30
0.0
11
51.146985
21
16.758233
31
0.0
0
ARC
8
0
10
50.646985
20
16.758233
30
0.0
40
0.500000
50
360.000000
51
90.000000
0
LINE
8
0
10
50.646985
20
17.258233
30
0.0
11
46.996985
21
17.258233
31
0.0
0
ARC
8
0
10
46.996985
20
17.558233
30
0.0
40
0.300000
50
180.000000
51
270.000000
0
LINE
8
0
10
46.696985
20
17.558233
30
0.0
11
46.696985
21
22.558233
31
0.0
0
ARC
8
0
10
46.996985
20
22.558233
30
0.0
40
0.300000
50
90.000000
51
180.000000
0
LINE
8
0
10
46.996985
20
22.858233
30
0.0
11
51.896985
21
22.858233
31
0.0
0
ARC
8
0
10
51.896985
20
21.658233
30
0.0
40
1.200000
50
360.000000
51
90.000000
0
LINE
8
0
10
53.096985
20
21.658233
30
0.0
11
53.096985
21
17.765828
31
0.0
0
LINE
8
0
10
53.096985
20
17.765828
30
0.0
11
52.001362
21
14.755627
31
0.0
0
LINE
8
0
10
31.446985
20
22.858233
30
0.0
11
37.546985
21
22.858233
31
0.0
0
ARC
8
0
10
37.546985
20
22.558233
30
0.0
40
0.300000
50
360.000000
51
90.000000
0
LINE
8
0
10
37.846985
20
22.558233
30
0.0
11
37.846985
21
17.558233
31
0.0
0
ARC
8
0
10
37.546985
20
17.558233
30
0.0
40
0.300000
50
270.000000
51
360.000000
0
LINE
8
0
10
37.546985
20
17.258233
30
0.0
11
31.446985
21
17.258233
31
0.0
0
ARC
8
0
10
31.446985
20
17.558233
30
0.0
40
0.300000
50
180.000000
51
270.000000
0
LINE
8
0
10
31.146985
20
17.558233
30
0.0
11
31.146985
21
22.558233
31
0.0
0
ARC
8
0
10
31.446985
20
22.558233
30
0.0
40
0.300000
50
90.000000
51
180.000000
0
ARC
8
0
10
45.346985
20
17.558233
30
0.0
40
0.300000
50
270.000000
51
360.000000
0
LINE
8
0
10
45.346985
20
17.258233
30
0.0
11
39.246985
21
17.258233
31
0.0
0
ARC
8
0
10
39.246985
20
17.558233
30
0.0
40
0.300000
50
180.000000
51
270.000000
0
LINE
8
0
10
38.946985
20
17.558233
30
0.0
11
38.946985
21
22.558233
31
0.0
0
ARC
8
0
10
39.246985
20
22.558233
30
0.0
40
0.300000
50
90.000000
51
180.000000
0
LINE
8
0
10
39.246985
20
22.858233
30
0.0
11
45.346985
21
22.858233
31
0.0
0
ARC
8
0
10
45.346985
20
22.558233
30
0.0
40
0.300000
50
360.000000
51
90.000000
0
LINE
8
0
10
45.646985
20
22.558233
30
0.0
11
45.646985
21
17.558233
31
0.0
0
ATTDEF
8
0
10
0.000000
20
0.000000
30
0.0
40
3.5
1

3

2
DENS:0.000000
70
0
0
ATTDEF
8
0
10
0.000000
20
0.000000
30
0.0
40
3.5
1

3

2
GLASS_MIN:0.000000
70
0
0
ATTDEF
8
0
10
0.000000
20
0.000000
30
0.0
40
3.5
1

3

2
GLASS_MAX:0.000000
70
0
0
ATTDEF
8
0
10
0.000000
20
0.000000
30
0.0
40
3.5
1

3

2
DESC:U28630 - U52501
70
0
0
ATTDEF
8
0
10
0.000000
20
0.000000
30
0.0
40
3.5
1

3

2
BL01:6500.000000,,1
70
0
0
ATTDEF
8
0
10
0.000000
20
0.000000
30
0.0
40
3.5
1

3

2
HW_START
70
0
0
ATTDEF
8
0
10
76.707783
20
183.999722
30
0.0
40
3.5
1

3

2
HW_END
70
0
0
ATTDEF
8
0
10
0.000000
20
0.000000
30
0.0
40
3.5
1

3

2
FP_LCS_ORIG
70
0
0
ATTDEF
8
0
10
10.000000
20
0.000000
30
0.0
40
3.5
1

3

2
FP_LCS_HOT
70
0
0
ATTDEF
8
0
10
0.000000
20
10.000000
30
0.0
40
3.5
1

3

2
FP_LCS_INTERN
70
0
0
ATTDEF
8
0
10
0.000000
20
0.000000
30
0.0
40
3.5
1

3

2
TDEV:0.000000
70
0
0
ATTDEF
8
0
10
0.000000
20
0.000000
30
0.0
40
3.5
1

3

2
TDEV2:0.000000
70
0
0
ATTDEF
8
0
10
0.000000
20
0.000000
30
0.0
40
3.5
1

3

2
TDEV3:0.000000
70
0
0
ATTDEF
8
0
10
0.000000
20
0.000000
30
0.0
40
3.5
1

3

2
TDEV4:0.000000
70
0
0
ATTDEF
8
0
10
0.000000
20
0.000000
30
0.0
40
3.5
1

3

2
TDEV5:0.000000
70
0
0
ATTDEF
8
0
10
0.000000
20
0.000000
30
0.0
40
3.5
1

3

2
PANE_WIDTH:72.000000
70
0
0
ENDSEC
0
EOF
