0
SECTION
2
ENTITIES
0
ARC
8
0
10
62.686857
20
158.183564
30
0.0
40
0.300000
50
90.000000
51
180.000000
0
LINE
8
0
10
62.386857
20
151.745247
30
0.0
11
62.386857
21
158.183564
31
0.0
0
LINE
8
0
10
62.686857
20
158.483564
30
0.0
11
65.399508
21
158.483564
31
0.0
0
ARC
8
0
10
62.886857
20
151.745247
30
0.0
40
0.500000
50
180.000000
51
270.000000
0
ARC
8
0
10
65.399508
20
158.783564
30
0.0
40
0.300000
50
270.000000
51
0.000000
0
LINE
8
0
10
68.118182
20
151.245247
30
0.0
11
62.886857
21
151.245247
31
0.0
0
LINE
8
0
10
65.699508
20
158.783564
30
0.0
11
65.699508
21
159.109300
31
0.0
0
LINE
8
0
10
68.318182
20
151.045247
30
0.0
11
68.118182
21
151.245247
31
0.0
0
ARC
8
0
10
65.399508
20
159.109300
30
0.0
40
0.300000
50
0.000000
51
45.000000
0
LINE
8
0
10
68.518182
20
151.245247
30
0.0
11
68.318182
21
151.045247
31
0.0
0
LINE
8
0
10
65.611640
20
159.321432
30
0.0
11
65.037376
21
159.895696
31
0.0
0
LINE
8
0
10
73.749508
20
151.245247
30
0.0
11
68.518182
21
151.245247
31
0.0
0
ARC
8
0
10
64.825243
20
159.683564
30
0.0
40
0.300000
50
45.000000
51
90.000000
0
ARC
8
0
10
73.749508
20
151.745247
30
0.0
40
0.500000
50
270.000000
51
0.000000
0
LINE
8
0
10
64.825243
20
159.983564
30
0.0
11
60.561121
21
159.983564
31
0.0
0
LINE
8
0
10
74.249508
20
158.183564
30
0.0
11
74.249508
21
151.745247
31
0.0
0
ARC
8
0
10
60.561121
20
159.683564
30
0.0
40
0.300000
50
90.000000
51
135.000000
0
ARC
8
0
10
73.949508
20
158.183564
30
0.0
40
0.300000
50
0.000000
51
90.000000
0
LINE
8
0
10
60.348989
20
159.895696
30
0.0
11
59.774725
21
159.321432
31
0.0
0
LINE
8
0
10
71.699508
20
158.483564
30
0.0
11
73.949508
21
158.483564
31
0.0
0
ARC
8
0
10
59.986857
20
159.109300
30
0.0
40
0.300000
50
135.000000
51
180.000000
0
ARC
8
0
10
71.699508
20
158.783564
30
0.0
40
0.300000
50
180.000000
51
270.000000
0
LINE
8
0
10
59.686857
20
159.109300
30
0.0
11
59.686857
21
158.783564
31
0.0
0
LINE
8
0
10
71.399508
20
159.109300
30
0.0
11
71.399508
21
158.783564
31
0.0
0
ARC
8
0
10
59.986857
20
158.783564
30
0.0
40
0.300000
50
180.000000
51
270.000000
0
ARC
8
0
10
71.699508
20
159.109300
30
0.0
40
0.300000
50
135.000000
51
180.000000
0
LINE
8
0
10
59.986857
20
158.483564
30
0.0
11
60.586857
21
158.483564
31
0.0
0
LINE
8
0
10
72.061640
20
159.895696
30
0.0
11
71.487376
21
159.321432
31
0.0
0
ARC
8
0
10
60.586857
20
158.183564
30
0.0
40
0.300000
50
0.000000
51
90.000000
0
ARC
8
0
10
72.273772
20
159.683564
30
0.0
40
0.300000
50
90.000000
51
135.000000
0
LINE
8
0
10
60.886857
20
158.183564
30
0.0
11
60.886857
21
155.483564
31
0.0
0
LINE
8
0
10
75.249508
20
159.983564
30
0.0
11
72.273772
21
159.983564
31
0.0
0
ARC
8
0
10
60.386857
20
155.483564
30
0.0
40
0.500000
50
270.000000
51
0.000000
0
ARC
8
0
10
75.249508
20
159.483564
30
0.0
40
0.500000
50
0.000000
51
90.000000
0
LINE
8
0
10
60.386857
20
154.983564
30
0.0
11
53.286857
21
154.983564
31
0.0
0
LINE
8
0
10
75.749508
20
155.483887
30
0.0
11
75.749508
21
159.483564
31
0.0
0
ARC
8
0
10
53.286857
20
155.483564
30
0.0
40
0.500000
50
180.000000
51
270.000000
0
ARC
8
0
10
76.249508
20
155.483887
30
0.0
40
0.500000
50
180.000000
51
270.000000
0
LINE
8
0
10
52.786857
20
155.483564
30
0.0
11
52.786857
21
158.183564
31
0.0
0
LINE
8
0
10
83.571230
20
154.983887
30
0.0
11
76.249508
21
154.983887
31
0.0
0
ARC
8
0
10
53.086857
20
158.183564
30
0.0
40
0.300000
50
90.000000
51
180.000000
0
ARC
8
0
10
83.571230
20
154.483887
30
0.0
40
0.500000
50
20.000000
51
90.000000
0
LINE
8
0
10
53.086857
20
158.483564
30
0.0
11
53.686857
21
158.483564
31
0.0
0
LINE
8
0
10
84.893620
20
152.312554
30
0.0
11
84.041077
21
154.654897
31
0.0
0
ARC
8
0
10
53.686857
20
158.783564
30
0.0
40
0.300000
50
270.000000
51
0.000000
0
ARC
8
0
10
85.363466
20
152.483564
30
0.0
40
0.500000
50
200.000000
51
270.000000
0
LINE
8
0
10
53.986857
20
158.783564
30
0.0
11
53.986857
21
159.109300
31
0.0
0
LINE
8
0
10
85.634841
20
151.983564
30
0.0
11
85.363466
21
151.983564
31
0.0
0
ARC
8
0
10
53.686857
20
159.109300
30
0.0
40
0.300000
50
0.000000
51
45.000000
0
ARC
8
0
10
85.634841
20
153.183564
30
0.0
40
1.200000
50
270.000000
51
299.981639
0
LINE
8
0
10
53.898989
20
159.321432
30
0.0
11
53.324725
21
159.895696
31
0.0
0
LINE
8
0
10
87.643119
20
152.956801
30
0.0
11
86.234508
21
152.144141
31
0.0
0
ARC
8
0
10
53.112593
20
159.683564
30
0.0
40
0.300000
50
45.000000
51
90.000000
0
ARC
8
0
10
87.743063
20
152.783564
30
0.0
40
0.200000
50
90.000000
51
119.981639
0
LINE
8
0
10
53.112593
20
159.983564
30
0.0
11
51.886857
21
159.983564
31
0.0
0
LINE
8
0
10
87.949508
20
152.983564
30
0.0
11
87.743063
21
152.983564
31
0.0
0
ARC
8
0
10
51.886857
20
159.483564
30
0.0
40
0.500000
50
90.000000
51
180.000000
0
ARC
8
0
10
87.949508
20
152.583564
30
0.0
40
0.400000
50
0.000000
51
90.000000
0
LINE
8
0
10
51.386857
20
159.483564
30
0.0
11
51.386857
21
155.483564
31
0.0
0
LINE
8
0
10
88.349508
20
152.156769
30
0.0
11
88.349508
21
152.583564
31
0.0
0
ARC
8
0
10
50.886857
20
155.483564
30
0.0
40
0.500000
50
270.000000
51
0.000000
0
ARC
8
0
10
88.149508
20
152.156769
30
0.0
40
0.200000
50
300.000000
51
0.000000
0
LINE
8
0
10
50.886857
20
154.983564
30
0.0
11
46.127539
21
154.983564
31
0.0
0
LINE
8
0
10
88.249508
20
151.608564
30
0.0
11
88.249508
21
151.983564
31
0.0
0
ARC
8
0
10
46.127539
20
154.483564
30
0.0
40
0.500000
50
90.000000
51
160.000000
0
ARC
8
0
10
88.049508
20
151.608564
30
0.0
40
0.200000
50
270.000000
51
0.000000
0
LINE
8
0
10
45.657692
20
154.654574
30
0.0
11
44.805267
21
152.312554
31
0.0
0
LINE
8
0
10
87.937701
20
151.408564
30
0.0
11
88.049508
21
151.408564
31
0.0
0
ARC
8
0
10
44.335420
20
152.483564
30
0.0
40
0.500000
50
270.000000
51
340.000000
0
LINE
8
0
10
87.853153
20
151.427314
30
0.0
11
87.937701
21
151.408564
31
0.0
0
LINE
8
0
10
44.335420
20
151.983564
30
0.0
11
44.064174
21
151.983564
31
0.0
0
ARC
8
0
10
87.599508
20
150.883564
30
0.0
40
0.600000
50
64.992167
51
180.000000
0
ARC
8
0
10
44.064174
20
153.183564
30
0.0
40
1.200000
50
240.018361
51
270.000000
0
ARC
8
0
10
87.599508
20
150.883564
30
0.0
40
0.600000
50
180.000000
51
295.007833
0
LINE
8
0
10
43.464507
20
152.144141
30
0.0
11
42.055897
21
152.956801
31
0.0
0
LINE
8
0
10
87.937701
20
150.358564
30
0.0
11
87.853153
21
150.339814
31
0.0
0
ARC
8
0
10
41.955952
20
152.783564
30
0.0
40
0.200000
50
60.018361
51
90.000000
0
LINE
8
0
10
88.049508
20
150.358564
30
0.0
11
87.937701
21
150.358564
31
0.0
0
LINE
8
0
10
41.955952
20
152.983564
30
0.0
11
41.749508
21
152.983564
31
0.0
0
ARC
8
0
10
88.049508
20
150.158564
30
0.0
40
0.200000
50
0.000000
51
90.000000
0
ARC
8
0
10
41.749508
20
152.583564
30
0.0
40
0.400000
50
90.000000
51
180.000000
0
LINE
8
0
10
88.249508
20
149.783564
30
0.0
11
88.249508
21
150.158564
31
0.0
0
LINE
8
0
10
41.349508
20
152.583564
30
0.0
11
41.349508
21
152.156769
31
0.0
0
ARC
8
0
10
88.149508
20
149.610359
30
0.0
40
0.200000
50
0.000000
51
60.000000
0
ARC
8
0
10
41.549508
20
152.156769
30
0.0
40
0.200000
50
180.000000
51
240.000000
0
LINE
8
0
10
88.349508
20
149.183564
30
0.0
11
88.349508
21
149.610359
31
0.0
0
LINE
8
0
10
41.449508
20
151.983564
30
0.0
11
41.449508
21
151.608564
31
0.0
0
ARC
8
0
10
87.949508
20
149.183564
30
0.0
40
0.400000
50
270.000000
51
0.000000
0
ARC
8
0
10
41.649508
20
151.608564
30
0.0
40
0.200000
50
180.000000
51
270.000000
0
LINE
8
0
10
87.743063
20
148.783564
30
0.0
11
87.949508
21
148.783564
31
0.0
0
LINE
8
0
10
41.649508
20
151.408564
30
0.0
11
41.761314
21
151.408564
31
0.0
0
ARC
8
0
10
87.743063
20
148.983564
30
0.0
40
0.200000
50
240.018361
51
270.000000
0
LINE
8
0
10
41.761314
20
151.408564
30
0.0
11
41.845862
21
151.427314
31
0.0
0
LINE
8
0
10
86.234508
20
149.622987
30
0.0
11
87.643119
21
148.810327
31
0.0
0
ARC
8
0
10
42.099508
20
150.883564
30
0.0
40
0.600000
50
0.000000
51
115.007833
0
ARC
8
0
10
85.634841
20
148.583564
30
0.0
40
1.200000
50
60.018361
51
90.000000
0
ARC
8
0
10
42.099508
20
150.883564
30
0.0
40
0.600000
50
244.992167
51
0.000000
0
LINE
8
0
10
84.173113
20
149.783564
30
0.0
11
85.634841
21
149.783564
31
0.0
0
LINE
8
0
10
41.845862
20
150.339814
30
0.0
11
41.761314
21
150.358564
31
0.0
0
ARC
8
0
10
84.173113
20
150.783564
30
0.0
40
1.000000
50
200.000000
51
270.000000
0
LINE
8
0
10
41.761314
20
150.358564
30
0.0
11
41.649508
21
150.358564
31
0.0
0
LINE
8
0
10
82.823451
20
151.567927
30
0.0
11
83.233421
21
150.441544
31
0.0
0
ARC
8
0
10
41.649508
20
150.158564
30
0.0
40
0.200000
50
90.000000
51
180.000000
0
ARC
8
0
10
80.944065
20
150.883887
30
0.0
40
2.000000
50
20.000000
51
90.000000
0
LINE
8
0
10
41.449508
20
150.158564
30
0.0
11
41.449508
21
149.783564
31
0.0
0
LINE
8
0
10
76.849508
20
152.883887
30
0.0
11
80.944065
21
152.883887
31
0.0
0
ARC
8
0
10
41.549508
20
149.610359
30
0.0
40
0.200000
50
120.000000
51
180.000000
0
ARC
8
0
10
76.849508
20
152.383887
30
0.0
40
0.500000
50
90.000000
51
180.000000
0
LINE
8
0
10
41.349508
20
149.610359
30
0.0
11
41.349508
21
149.183564
31
0.0
0
LINE
8
0
10
76.349508
20
128.379916
30
0.0
11
76.349508
21
152.383887
31
0.0
0
ARC
8
0
10
41.749508
20
149.183564
30
0.0
40
0.400000
50
180.000000
51
270.000000
0
ARC
8
0
10
76.049508
20
128.379916
30
0.0
40
0.300000
50
270.000000
51
0.000000
0
LINE
8
0
10
41.749508
20
148.783564
30
0.0
11
41.955952
21
148.783564
31
0.0
0
LINE
8
0
10
75.549508
20
128.079916
30
0.0
11
76.049508
21
128.079916
31
0.0
0
ARC
8
0
10
41.955952
20
148.983564
30
0.0
40
0.200000
50
270.000000
51
299.981639
0
ARC
8
0
10
75.549508
20
128.379916
30
0.0
40
0.300000
50
180.000000
51
270.000000
0
LINE
8
0
10
42.055897
20
148.810327
30
0.0
11
43.464507
21
149.622987
31
0.0
0
LINE
8
0
10
75.249508
20
148.645247
30
0.0
11
75.249508
21
128.379916
31
0.0
0
ARC
8
0
10
44.064174
20
148.583564
30
0.0
40
1.200000
50
90.000000
51
119.981639
0
ARC
8
0
10
74.749508
20
148.645247
30
0.0
40
0.500000
50
0.000000
51
90.000000
0
LINE
8
0
10
44.064174
20
149.783564
30
0.0
11
45.525773
21
149.783564
31
0.0
0
LINE
8
0
10
62.686857
20
149.145247
30
0.0
11
74.749508
21
149.145247
31
0.0
0
ARC
8
0
10
45.525773
20
150.783564
30
0.0
40
1.000000
50
270.000000
51
340.000000
0
ARC
8
0
10
62.686857
20
148.645247
30
0.0
40
0.500000
50
90.000000
51
180.000000
0
LINE
8
0
10
46.465466
20
150.441544
30
0.0
11
46.875318
21
151.567604
31
0.0
0
LINE
8
0
10
62.186857
20
146.383564
30
0.0
11
62.186857
21
148.645247
31
0.0
0
ARC
8
0
10
48.754704
20
150.883564
30
0.0
40
2.000000
50
90.000000
51
160.000000
0
ARC
8
0
10
61.886857
20
146.383564
30
0.0
40
0.300000
50
270.000000
51
0.000000
0
LINE
8
0
10
48.754704
20
152.883564
30
0.0
11
49.849508
21
152.883564
31
0.0
0
LINE
8
0
10
60.586857
20
146.083564
30
0.0
11
61.886857
21
146.083564
31
0.0
0
ARC
8
0
10
49.849508
20
152.383564
30
0.0
40
0.500000
50
0.000000
51
90.000000
0
ARC
8
0
10
60.586857
20
146.383564
30
0.0
40
0.300000
50
180.000000
51
270.000000
0
LINE
8
0
10
50.349508
20
152.383564
30
0.0
11
50.349508
21
128.379916
31
0.0
0
LINE
8
0
10
60.286857
20
152.383564
30
0.0
11
60.286857
21
146.383564
31
0.0
0
ARC
8
0
10
50.649508
20
128.379916
30
0.0
40
0.300000
50
180.000000
51
270.000000
0
ARC
8
0
10
59.786857
20
152.383564
30
0.0
40
0.500000
50
0.000000
51
90.000000
0
LINE
8
0
10
50.649508
20
128.079916
30
0.0
11
51.149508
21
128.079916
31
0.0
0
LINE
8
0
10
51.949508
20
152.883564
30
0.0
11
59.786857
21
152.883564
31
0.0
0
ARC
8
0
10
51.149508
20
128.379916
30
0.0
40
0.300000
50
270.000000
51
0.000000
0
ARC
8
0
10
51.949508
20
152.383564
30
0.0
40
0.500000
50
90.000000
51
180.000000
0
LINE
8
0
10
51.449508
20
128.379916
30
0.0
11
51.449508
21
152.383564
31
0.0
0
ARC
8
0
10
62.686857
20
51.788449
30
0.0
40
0.300000
50
180.000000
51
270.000000
0
LINE
8
0
10
62.686857
20
51.488449
30
0.0
11
65.399508
21
51.488449
31
0.0
0
LINE
8
0
10
62.386857
20
58.226765
30
0.0
11
62.386857
21
51.788449
31
0.0
0
ARC
8
0
10
65.399508
20
51.188449
30
0.0
40
0.300000
50
0.000000
51
90.000000
0
ARC
8
0
10
62.886857
20
58.226765
30
0.0
40
0.500000
50
90.000000
51
180.000000
0
LINE
8
0
10
65.699508
20
51.188449
30
0.0
11
65.699508
21
50.862713
31
0.0
0
LINE
8
0
10
68.118182
20
58.726765
30
0.0
11
62.886857
21
58.726765
31
0.0
0
ARC
8
0
10
65.399508
20
50.862713
30
0.0
40
0.300000
50
315.000000
51
0.000000
0
LINE
8
0
10
68.318182
20
58.926765
30
0.0
11
68.118182
21
58.726765
31
0.0
0
LINE
8
0
10
65.611640
20
50.650581
30
0.0
11
65.037376
21
50.076317
31
0.0
0
LINE
8
0
10
68.518182
20
58.726765
30
0.0
11
68.318182
21
58.926765
31
0.0
0
ARC
8
0
10
64.825243
20
50.288449
30
0.0
40
0.300000
50
270.000000
51
315.000000
0
LINE
8
0
10
73.749508
20
58.726765
30
0.0
11
68.518182
21
58.726765
31
0.0
0
LINE
8
0
10
64.825243
20
49.988449
30
0.0
11
60.561121
21
49.988449
31
0.0
0
ARC
8
0
10
73.749508
20
58.226765
30
0.0
40
0.500000
50
0.000000
51
90.000000
0
ARC
8
0
10
60.561121
20
50.288449
30
0.0
40
0.300000
50
225.000000
51
270.000000
0
LINE
8
0
10
74.249508
20
51.788449
30
0.0
11
74.249508
21
58.226765
31
0.0
0
LINE
8
0
10
60.348989
20
50.076317
30
0.0
11
59.774725
21
50.650581
31
0.0
0
ARC
8
0
10
73.949508
20
51.788449
30
0.0
40
0.300000
50
270.000000
51
0.000000
0
ARC
8
0
10
59.986857
20
50.862713
30
0.0
40
0.300000
50
180.000000
51
225.000000
0
LINE
8
0
10
71.699508
20
51.488449
30
0.0
11
73.949508
21
51.488449
31
0.0
0
LINE
8
0
10
59.686857
20
50.862713
30
0.0
11
59.686857
21
51.188449
31
0.0
0
ARC
8
0
10
71.699508
20
51.188449
30
0.0
40
0.300000
50
90.000000
51
180.000000
0
ARC
8
0
10
59.986857
20
51.188449
30
0.0
40
0.300000
50
90.000000
51
180.000000
0
LINE
8
0
10
71.399508
20
50.862713
30
0.0
11
71.399508
21
51.188449
31
0.0
0
LINE
8
0
10
59.986857
20
51.488449
30
0.0
11
60.586857
21
51.488449
31
0.0
0
ARC
8
0
10
71.699508
20
50.862713
30
0.0
40
0.300000
50
180.000000
51
225.000000
0
ARC
8
0
10
60.586857
20
51.788449
30
0.0
40
0.300000
50
270.000000
51
0.000000
0
LINE
8
0
10
72.061640
20
50.076317
30
0.0
11
71.487376
21
50.650581
31
0.0
0
LINE
8
0
10
60.886857
20
51.788449
30
0.0
11
60.886857
21
54.488449
31
0.0
0
ARC
8
0
10
72.273772
20
50.288449
30
0.0
40
0.300000
50
225.000000
51
270.000000
0
ARC
8
0
10
60.386857
20
54.488449
30
0.0
40
0.500000
50
0.000000
51
90.000000
0
LINE
8
0
10
75.249508
20
49.988449
30
0.0
11
72.273772
21
49.988449
31
0.0
0
LINE
8
0
10
60.386857
20
54.988449
30
0.0
11
53.286857
21
54.988449
31
0.0
0
ARC
8
0
10
75.249508
20
50.488449
30
0.0
40
0.500000
50
270.000000
51
0.000000
0
ARC
8
0
10
53.286857
20
54.488449
30
0.0
40
0.500000
50
90.000000
51
180.000000
0
LINE
8
0
10
75.749508
20
54.488126
30
0.0
11
75.749508
21
50.488449
31
0.0
0
LINE
8
0
10
52.786857
20
54.488449
30
0.0
11
52.786857
21
51.788449
31
0.0
0
ARC
8
0
10
76.249508
20
54.488126
30
0.0
40
0.500000
50
90.000000
51
180.000000
0
ARC
8
0
10
53.086857
20
51.788449
30
0.0
40
0.300000
50
180.000000
51
270.000000
0
LINE
8
0
10
83.571230
20
54.988126
30
0.0
11
76.249508
21
54.988126
31
0.0
0
LINE
8
0
10
53.086857
20
51.488449
30
0.0
11
53.686857
21
51.488449
31
0.0
0
ARC
8
0
10
83.571230
20
55.488126
30
0.0
40
0.500000
50
270.000000
51
340.000000
0
ARC
8
0
10
53.686857
20
51.188449
30
0.0
40
0.300000
50
0.000000
51
90.000000
0
LINE
8
0
10
84.893620
20
57.659459
30
0.0
11
84.041077
21
55.317116
31
0.0
0
LINE
8
0
10
53.986857
20
51.188449
30
0.0
11
53.986857
21
50.862713
31
0.0
0
ARC
8
0
10
85.363466
20
57.488449
30
0.0
40
0.500000
50
90.000000
51
160.000000
0
ARC
8
0
10
53.686857
20
50.862713
30
0.0
40
0.300000
50
315.000000
51
0.000000
0
LINE
8
0
10
85.634841
20
57.988449
30
0.0
11
85.363466
21
57.988449
31
0.0
0
LINE
8
0
10
53.898989
20
50.650581
30
0.0
11
53.324725
21
50.076317
31
0.0
0
ARC
8
0
10
85.634841
20
56.788449
30
0.0
40
1.200000
50
60.018361
51
90.000000
0
ARC
8
0
10
53.112593
20
50.288449
30
0.0
40
0.300000
50
270.000000
51
315.000000
0
LINE
8
0
10
87.643119
20
57.015212
30
0.0
11
86.234508
21
57.827872
31
0.0
0
LINE
8
0
10
53.112593
20
49.988449
30
0.0
11
51.886857
21
49.988449
31
0.0
0
ARC
8
0
10
87.743063
20
57.188449
30
0.0
40
0.200000
50
240.018361
51
270.000000
0
ARC
8
0
10
51.886857
20
50.488449
30
0.0
40
0.500000
50
180.000000
51
270.000000
0
LINE
8
0
10
87.949508
20
56.988449
30
0.0
11
87.743063
21
56.988449
31
0.0
0
LINE
8
0
10
51.386857
20
50.488449
30
0.0
11
51.386857
21
54.488449
31
0.0
0
ARC
8
0
10
87.949508
20
57.388449
30
0.0
40
0.400000
50
270.000000
51
0.000000
0
ARC
8
0
10
50.886857
20
54.488449
30
0.0
40
0.500000
50
0.000000
51
90.000000
0
LINE
8
0
10
88.349508
20
57.815244
30
0.0
11
88.349508
21
57.388449
31
0.0
0
LINE
8
0
10
50.886857
20
54.988449
30
0.0
11
46.127539
21
54.988449
31
0.0
0
ARC
8
0
10
88.149508
20
57.815244
30
0.0
40
0.200000
50
0.000000
51
60.000000
0
ARC
8
0
10
46.127539
20
55.488449
30
0.0
40
0.500000
50
200.000000
51
270.000000
0
LINE
8
0
10
88.249508
20
58.363449
30
0.0
11
88.249508
21
57.988449
31
0.0
0
LINE
8
0
10
45.657692
20
55.317439
30
0.0
11
44.805267
21
57.659459
31
0.0
0
ARC
8
0
10
88.049508
20
58.363449
30
0.0
40
0.200000
50
0.000000
51
90.000000
0
ARC
8
0
10
44.335420
20
57.488449
30
0.0
40
0.500000
50
20.000000
51
90.000000
0
LINE
8
0
10
87.937701
20
58.563449
30
0.0
11
88.049508
21
58.563449
31
0.0
0
LINE
8
0
10
44.335420
20
57.988449
30
0.0
11
44.064174
21
57.988449
31
0.0
0
LINE
8
0
10
87.937701
20
58.563449
30
0.0
11
87.853153
21
58.544699
31
0.0
0
ARC
8
0
10
44.064174
20
56.788449
30
0.0
40
1.200000
50
90.000000
51
119.981639
0
ARC
8
0
10
87.599508
20
59.088449
30
0.0
40
0.600000
50
180.000000
51
295.007833
0
LINE
8
0
10
43.464507
20
57.827872
30
0.0
11
42.055897
21
57.015212
31
0.0
0
ARC
8
0
10
87.599508
20
59.088449
30
0.0
40
0.600000
50
64.992167
51
180.000000
0
ARC
8
0
10
41.955952
20
57.188449
30
0.0
40
0.200000
50
270.000000
51
299.981639
0
LINE
8
0
10
87.853153
20
59.632199
30
0.0
11
87.937701
21
59.613449
31
0.0
0
LINE
8
0
10
41.955952
20
56.988449
30
0.0
11
41.749508
21
56.988449
31
0.0
0
LINE
8
0
10
88.049508
20
59.613449
30
0.0
11
87.937701
21
59.613449
31
0.0
0
ARC
8
0
10
41.749508
20
57.388449
30
0.0
40
0.400000
50
180.000000
51
270.000000
0
ARC
8
0
10
88.049508
20
59.813449
30
0.0
40
0.200000
50
270.000000
51
0.000000
0
LINE
8
0
10
41.349508
20
57.388449
30
0.0
11
41.349508
21
57.815244
31
0.0
0
LINE
8
0
10
88.249508
20
60.188449
30
0.0
11
88.249508
21
59.813449
31
0.0
0
ARC
8
0
10
41.549508
20
57.815244
30
0.0
40
0.200000
50
120.000000
51
180.000000
0
ARC
8
0
10
88.149508
20
60.361654
30
0.0
40
0.200000
50
300.000000
51
0.000000
0
LINE
8
0
10
41.449508
20
57.988449
30
0.0
11
41.449508
21
58.363449
31
0.0
0
LINE
8
0
10
88.349508
20
60.788449
30
0.0
11
88.349508
21
60.361654
31
0.0
0
ARC
8
0
10
41.649508
20
58.363449
30
0.0
40
0.200000
50
90.000000
51
180.000000
0
ARC
8
0
10
87.949508
20
60.788449
30
0.0
40
0.400000
50
0.000000
51
90.000000
0
LINE
8
0
10
41.649508
20
58.563449
30
0.0
11
41.761314
21
58.563449
31
0.0
0
LINE
8
0
10
87.743063
20
61.188449
30
0.0
11
87.949508
21
61.188449
31
0.0
0
LINE
8
0
10
41.845862
20
58.544699
30
0.0
11
41.761314
21
58.563449
31
0.0
0
ARC
8
0
10
87.743063
20
60.988449
30
0.0
40
0.200000
50
90.000000
51
119.981639
0
ARC
8
0
10
42.099508
20
59.088449
30
0.0
40
0.600000
50
244.992167
51
0.000000
0
LINE
8
0
10
86.234508
20
60.349026
30
0.0
11
87.643119
21
61.161686
31
0.0
0
ARC
8
0
10
42.099508
20
59.088449
30
0.0
40
0.600000
50
0.000000
51
115.007833
0
ARC
8
0
10
85.634841
20
61.388449
30
0.0
40
1.200000
50
270.000000
51
299.981639
0
LINE
8
0
10
41.761314
20
59.613449
30
0.0
11
41.845862
21
59.632199
31
0.0
0
LINE
8
0
10
84.173113
20
60.188449
30
0.0
11
85.634841
21
60.188449
31
0.0
0
LINE
8
0
10
41.761314
20
59.613449
30
0.0
11
41.649508
21
59.613449
31
0.0
0
ARC
8
0
10
84.173113
20
59.188449
30
0.0
40
1.000000
50
90.000000
51
160.000000
0
ARC
8
0
10
41.649508
20
59.813449
30
0.0
40
0.200000
50
180.000000
51
270.000000
0
LINE
8
0
10
82.823451
20
58.404086
30
0.0
11
83.233421
21
59.530469
31
0.0
0
LINE
8
0
10
41.449508
20
59.813449
30
0.0
11
41.449508
21
60.188449
31
0.0
0
ARC
8
0
10
80.944065
20
59.088126
30
0.0
40
2.000000
50
270.000000
51
340.000000
0
ARC
8
0
10
41.549508
20
60.361654
30
0.0
40
0.200000
50
180.000000
51
240.000000
0
LINE
8
0
10
76.849508
20
57.088126
30
0.0
11
80.944065
21
57.088126
31
0.0
0
LINE
8
0
10
41.349508
20
60.361654
30
0.0
11
41.349508
21
60.788449
31
0.0
0
ARC
8
0
10
76.849508
20
57.588126
30
0.0
40
0.500000
50
180.000000
51
270.000000
0
ARC
8
0
10
41.749508
20
60.788449
30
0.0
40
0.400000
50
90.000000
51
180.000000
0
LINE
8
0
10
76.349508
20
81.592096
30
0.0
11
76.349508
21
57.588126
31
0.0
0
LINE
8
0
10
41.749508
20
61.188449
30
0.0
11
41.955952
21
61.188449
31
0.0
0
ARC
8
0
10
76.049508
20
81.592096
30
0.0
40
0.300000
50
0.000000
51
90.000000
0
ARC
8
0
10
41.955952
20
60.988449
30
0.0
40
0.200000
50
60.018361
51
90.000000
0
LINE
8
0
10
75.549508
20
81.892096
30
0.0
11
76.049508
21
81.892096
31
0.0
0
LINE
8
0
10
42.055897
20
61.161686
30
0.0
11
43.464507
21
60.349026
31
0.0
0
ARC
8
0
10
75.549508
20
81.592096
30
0.0
40
0.300000
50
90.000000
51
180.000000
0
ARC
8
0
10
44.064174
20
61.388449
30
0.0
40
1.200000
50
240.018361
51
270.000000
0
LINE
8
0
10
75.249508
20
61.326765
30
0.0
11
75.249508
21
81.592096
31
0.0
0
LINE
8
0
10
44.064174
20
60.188449
30
0.0
11
45.525773
21
60.188449
31
0.0
0
ARC
8
0
10
74.749508
20
61.326765
30
0.0
40
0.500000
50
270.000000
51
0.000000
0
ARC
8
0
10
45.525773
20
59.188449
30
0.0
40
1.000000
50
20.000000
51
90.000000
0
LINE
8
0
10
62.686857
20
60.826765
30
0.0
11
74.749508
21
60.826765
31
0.0
0
LINE
8
0
10
46.465466
20
59.530469
30
0.0
11
46.875318
21
58.404409
31
0.0
0
ARC
8
0
10
62.686857
20
61.326765
30
0.0
40
0.500000
50
180.000000
51
270.000000
0
ARC
8
0
10
48.754704
20
59.088449
30
0.0
40
2.000000
50
200.000000
51
270.000000
0
LINE
8
0
10
62.186857
20
63.588449
30
0.0
11
62.186857
21
61.326765
31
0.0
0
LINE
8
0
10
48.754704
20
57.088449
30
0.0
11
49.849508
21
57.088449
31
0.0
0
ARC
8
0
10
61.886857
20
63.588449
30
0.0
40
0.300000
50
0.000000
51
90.000000
0
ARC
8
0
10
49.849508
20
57.588449
30
0.0
40
0.500000
50
270.000000
51
0.000000
0
LINE
8
0
10
60.586857
20
63.888449
30
0.0
11
61.886857
21
63.888449
31
0.0
0
LINE
8
0
10
50.349508
20
57.588449
30
0.0
11
50.349508
21
81.592096
31
0.0
0
ARC
8
0
10
60.586857
20
63.588449
30
0.0
40
0.300000
50
90.000000
51
180.000000
0
ARC
8
0
10
50.649508
20
81.592096
30
0.0
40
0.300000
50
90.000000
51
180.000000
0
LINE
8
0
10
60.286857
20
57.588449
30
0.0
11
60.286857
21
63.588449
31
0.0
0
LINE
8
0
10
50.649508
20
81.892096
30
0.0
11
51.149508
21
81.892096
31
0.0
0
ARC
8
0
10
59.786857
20
57.588449
30
0.0
40
0.500000
50
270.000000
51
0.000000
0
ARC
8
0
10
51.149508
20
81.592096
30
0.0
40
0.300000
50
0.000000
51
90.000000
0
LINE
8
0
10
51.949508
20
57.088449
30
0.0
11
59.786857
21
57.088449
31
0.0
0
LINE
8
0
10
51.449508
20
81.592096
30
0.0
11
51.449508
21
57.588449
31
0.0
0
ARC
8
0
10
51.949508
20
57.588449
30
0.0
40
0.500000
50
180.000000
51
270.000000
0
LINE
8
0
10
34.451725
20
153.191284
30
0.0
11
34.105314
21
153.391284
31
0.0
0
LINE
8
0
10
34.105314
20
153.391284
30
0.0
11
31.751725
21
153.391284
31
0.0
0
ARC
8
0
10
31.751725
20
153.091284
30
0.0
40
0.300000
50
90.000000
51
180.000000
0
LINE
8
0
10
31.451725
20
153.091284
30
0.0
11
31.451725
21
56.891006
31
0.0
0
ARC
8
0
10
31.751725
20
56.891006
30
0.0
40
0.300000
50
180.000000
51
270.000000
0
LINE
8
0
10
31.751725
20
56.591006
30
0.0
11
34.105314
21
56.591006
31
0.0
0
LINE
8
0
10
34.105314
20
56.591006
30
0.0
11
34.451725
21
56.791006
31
0.0
0
LINE
8
0
10
34.451725
20
56.791006
30
0.0
11
39.249508
21
56.791006
31
0.0
0
ARC
8
0
10
39.249508
20
57.091006
30
0.0
40
0.300000
50
270.000000
51
0.000000
0
LINE
8
0
10
39.549508
20
57.091006
30
0.0
11
39.549508
21
152.891284
31
0.0
0
ARC
8
0
10
39.249508
20
152.891284
30
0.0
40
0.300000
50
0.000000
51
90.000000
0
LINE
8
0
10
39.249508
20
153.191284
30
0.0
11
34.451725
21
153.191284
31
0.0
0
LINE
8
0
10
32.434233
20
154.991006
30
0.0
11
41.609643
21
154.991006
31
0.0
0
LINE
8
0
10
41.609643
20
154.991006
30
0.0
11
42.610490
21
154.727198
31
0.0
0
ARC
8
0
10
42.700210
20
155.013467
30
0.0
40
0.300000
50
252.598279
51
330.367342
0
ARC
8
0
10
43.134817
20
154.766249
30
0.0
40
0.200000
50
90.000000
51
150.367342
0
LINE
8
0
10
43.136219
20
154.966244
30
0.0
11
44.687314
21
154.966244
31
0.0
0
ARC
8
0
10
44.687314
20
154.666244
30
0.0
40
0.300000
50
342.598279
51
90.000000
0
LINE
8
0
10
44.973583
20
154.576523
30
0.0
11
44.371618
21
152.655854
31
0.0
0
ARC
8
0
10
43.608233
20
152.895110
30
0.0
40
0.800000
50
297.598279
51
342.598279
0
LINE
8
0
10
43.978849
20
152.186136
30
0.0
11
43.697779
21
152.039206
31
0.0
0
ARC
8
0
10
43.605125
20
152.216450
30
0.0
40
0.200000
50
180.000000
51
297.598279
0
LINE
8
0
10
43.405300
20
152.224831
30
0.0
11
43.417398
21
152.513253
31
0.0
0
LINE
8
0
10
43.417398
20
152.513253
30
0.0
11
41.709301
21
153.597316
31
0.0
0
ARC
8
0
10
41.387789
20
153.090729
30
0.0
40
0.600000
50
57.598279
51
90.000000
0
LINE
8
0
10
41.387789
20
153.690729
30
0.0
11
41.349508
21
153.690729
31
0.0
0
ARC
8
0
10
41.449508
20
153.407886
30
0.0
40
0.300000
50
109.471221
51
250.528779
0
LINE
8
0
10
41.349508
20
153.125043
30
0.0
11
41.349508
21
149.091284
31
0.0
0
ARC
8
0
10
41.649508
20
149.091284
30
0.0
40
0.300000
50
180.000000
51
270.000000
0
LINE
8
0
10
41.649508
20
148.791284
30
0.0
11
41.869123
21
148.791284
31
0.0
0
ARC
8
0
10
41.869123
20
149.091284
30
0.0
40
0.300000
50
270.000000
51
301.373538
0
LINE
8
0
10
42.025307
20
148.835147
30
0.0
11
43.545384
21
149.762042
31
0.0
0
ARC
8
0
10
43.649508
20
149.591284
30
0.0
40
0.200000
50
0.000000
51
121.373538
0
LINE
8
0
10
43.849508
20
149.591284
30
0.0
11
43.849508
21
148.400721
31
0.0
0
ARC
8
0
10
42.849508
20
148.400721
30
0.0
40
1.000000
50
301.373538
51
0.000000
0
LINE
8
0
10
43.370123
20
147.546930
30
0.0
11
41.828892
21
146.607135
31
0.0
0
ARC
8
0
10
42.349508
20
145.753344
30
0.0
40
1.000000
50
121.373539
51
180.000000
0
LINE
8
0
10
41.349508
20
145.753344
30
0.0
11
41.349508
21
64.228669
31
0.0
0
ARC
8
0
10
42.349508
20
64.228669
30
0.0
40
1.000000
50
180.000000
51
238.626461
0
LINE
8
0
10
41.828892
20
63.374878
30
0.0
11
43.370123
21
62.435083
31
0.0
0
ARC
8
0
10
42.849508
20
61.581292
30
0.0
40
1.000000
50
0.000000
51
58.626462
0
LINE
8
0
10
43.849508
20
61.581292
30
0.0
11
43.849508
21
60.390729
31
0.0
0
ARC
8
0
10
43.649508
20
60.390729
30
0.0
40
0.200000
50
238.626462
51
0.000000
0
LINE
8
0
10
43.545384
20
60.219970
30
0.0
11
42.025307
21
61.146866
31
0.0
0
ARC
8
0
10
41.869123
20
60.890729
30
0.0
40
0.300000
50
58.626462
51
90.000000
0
LINE
8
0
10
41.869123
20
61.190729
30
0.0
11
41.649508
21
61.190729
31
0.0
0
ARC
8
0
10
41.649508
20
60.890729
30
0.0
40
0.300000
50
90.000000
51
180.000000
0
LINE
8
0
10
41.349508
20
60.890729
30
0.0
11
41.349508
21
56.856970
31
0.0
0
ARC
8
0
10
41.449508
20
56.574127
30
0.0
40
0.300000
50
109.471227
51
250.528773
0
LINE
8
0
10
41.349508
20
56.291284
30
0.0
11
41.387789
21
56.291284
31
0.0
0
ARC
8
0
10
41.387789
20
56.891284
30
0.0
40
0.600000
50
270.000000
51
302.401721
0
LINE
8
0
10
41.709301
20
56.384697
30
0.0
11
43.417398
21
57.468760
31
0.0
0
LINE
8
0
10
43.417398
20
57.468760
30
0.0
11
43.405300
21
57.757182
31
0.0
0
ARC
8
0
10
43.605125
20
57.765563
30
0.0
40
0.200000
50
62.401721
51
180.000000
0
LINE
8
0
10
43.697779
20
57.942806
30
0.0
11
43.978849
21
57.795877
31
0.0
0
ARC
8
0
10
43.608233
20
57.086903
30
0.0
40
0.800000
50
17.401721
51
62.401721
0
LINE
8
0
10
44.371618
20
57.326159
30
0.0
11
44.973583
21
55.405490
31
0.0
0
ARC
8
0
10
44.687314
20
55.315769
30
0.0
40
0.300000
50
270.000000
51
17.401721
0
LINE
8
0
10
44.687314
20
55.015769
30
0.0
11
43.136219
21
55.015769
31
0.0
0
ARC
8
0
10
43.134817
20
55.215764
30
0.0
40
0.200000
50
209.632658
51
270.000000
0
ARC
8
0
10
42.700210
20
54.968545
30
0.0
40
0.300000
50
29.632658
51
107.401721
0
LINE
8
0
10
42.610490
20
55.254815
30
0.0
11
41.648287
21
55.001192
31
0.0
0
LINE
8
0
10
41.571823
20
54.991284
30
0.0
11
41.648287
21
55.001192
31
0.0
0
LINE
8
0
10
41.571823
20
54.991284
30
0.0
11
32.434233
21
54.991284
31
0.0
0
ARC
8
0
10
32.434233
20
53.991284
30
0.0
40
1.000000
50
90.000000
51
178.989003
0
LINE
8
0
10
31.434389
20
54.008928
30
0.0
11
31.151725
21
37.938449
31
0.0
0
LINE
8
0
10
31.151725
20
37.938449
30
0.0
11
31.151725
21
35.238449
31
0.0
0
ARC
8
0
10
31.451725
20
35.238449
30
0.0
40
0.300000
50
180.000000
51
270.000000
0
LINE
8
0
10
31.451725
20
34.938449
30
0.0
11
32.551725
21
34.938449
31
0.0
0
ARC
8
0
10
32.551725
20
35.238449
30
0.0
40
0.300000
50
270.000000
51
0.000000
0
LINE
8
0
10
32.851725
20
35.238449
30
0.0
11
32.851725
21
36.138449
31
0.0
0
ARC
8
0
10
33.151725
20
36.138449
30
0.0
40
0.300000
50
90.000000
51
180.000000
0
LINE
8
0
10
33.151725
20
36.438449
30
0.0
11
33.551725
21
36.438449
31
0.0
0
ARC
8
0
10
33.551725
20
36.138449
30
0.0
40
0.300000
50
0.000000
51
90.000000
0
LINE
8
0
10
33.851725
20
36.138449
30
0.0
11
33.851725
21
33.138449
31
0.0
0
ARC
8
0
10
33.151725
20
33.138449
30
0.0
40
0.700000
50
270.000000
51
0.000000
0
ARC
8
0
10
33.151725
20
32.738449
30
0.0
40
0.300000
50
180.000000
51
270.000000
0
LINE
8
0
10
32.851725
20
32.738449
30
0.0
11
32.851725
21
33.438449
31
0.0
0
ARC
8
0
10
32.551725
20
33.438449
30
0.0
40
0.300000
50
0.000000
51
90.000000
0
LINE
8
0
10
32.551725
20
33.738449
30
0.0
11
31.651725
21
33.738449
31
0.0
0
ARC
8
0
10
31.651725
20
33.038449
30
0.0
40
0.700000
50
90.000000
51
180.000000
0
LINE
8
0
10
30.951725
20
33.038449
30
0.0
11
30.951725
21
26.838449
31
0.0
0
ARC
8
0
10
31.651725
20
26.838449
30
0.0
40
0.700000
50
180.000000
51
270.000000
0
LINE
8
0
10
31.651725
20
26.138449
30
0.0
11
32.551725
21
26.138449
31
0.0
0
ARC
8
0
10
32.551725
20
26.438449
30
0.0
40
0.300000
50
270.000000
51
0.000000
0
LINE
8
0
10
32.851725
20
26.438449
30
0.0
11
32.851725
21
27.138449
31
0.0
0
ARC
8
0
10
33.151725
20
27.138449
30
0.0
40
0.300000
50
90.000000
51
180.000000
0
ARC
8
0
10
33.151725
20
26.738449
30
0.0
40
0.700000
50
0.000000
51
90.000000
0
LINE
8
0
10
33.851725
20
26.738449
30
0.0
11
33.851725
21
25.238449
31
0.0
0
ARC
8
0
10
33.551725
20
25.238449
30
0.0
40
0.300000
50
270.000000
51
0.000000
0
LINE
8
0
10
33.551725
20
24.938449
30
0.0
11
29.951725
21
24.938449
31
0.0
0
ARC
8
0
10
29.951725
20
25.238449
30
0.0
40
0.300000
50
180.000000
51
270.000000
0
LINE
8
0
10
29.651725
20
25.241284
30
0.0
11
29.651725
21
184.641006
31
0.0
0
ARC
8
0
10
29.951725
20
184.633564
30
0.0
40
0.300000
50
90.000000
51
180.000000
0
LINE
8
0
10
29.951725
20
184.933564
30
0.0
11
33.551725
21
184.933564
31
0.0
0
ARC
8
0
10
33.551725
20
184.633564
30
0.0
40
0.300000
50
0.000000
51
90.000000
0
LINE
8
0
10
33.851725
20
184.633564
30
0.0
11
33.851725
21
183.133564
31
0.0
0
ARC
8
0
10
33.151725
20
183.133564
30
0.0
40
0.700000
50
270.000000
51
0.000000
0
ARC
8
0
10
33.151725
20
182.733564
30
0.0
40
0.300000
50
180.000000
51
270.000000
0
LINE
8
0
10
32.851725
20
182.733564
30
0.0
11
32.851725
21
183.433564
31
0.0
0
ARC
8
0
10
32.551725
20
183.433564
30
0.0
40
0.300000
50
0.000000
51
90.000000
0
LINE
8
0
10
32.551725
20
183.733564
30
0.0
11
31.651725
21
183.733564
31
0.0
0
ARC
8
0
10
31.651725
20
183.033564
30
0.0
40
0.700000
50
90.000000
51
180.000000
0
LINE
8
0
10
30.951725
20
183.033564
30
0.0
11
30.951725
21
176.833564
31
0.0
0
ARC
8
0
10
31.651725
20
176.833564
30
0.0
40
0.700000
50
180.000000
51
270.000000
0
LINE
8
0
10
31.651725
20
176.133564
30
0.0
11
32.551725
21
176.133564
31
0.0
0
ARC
8
0
10
32.551725
20
176.433564
30
0.0
40
0.300000
50
270.000000
51
0.000000
0
LINE
8
0
10
32.851725
20
176.433564
30
0.0
11
32.851725
21
177.133564
31
0.0
0
ARC
8
0
10
33.151725
20
177.133564
30
0.0
40
0.300000
50
90.000000
51
180.000000
0
ARC
8
0
10
33.151725
20
176.733564
30
0.0
40
0.700000
50
0.000000
51
90.000000
0
LINE
8
0
10
33.851725
20
176.733564
30
0.0
11
33.851725
21
173.733564
31
0.0
0
ARC
8
0
10
33.551725
20
173.733564
30
0.0
40
0.300000
50
270.000000
51
0.000000
0
LINE
8
0
10
33.551725
20
173.433564
30
0.0
11
33.151725
21
173.433564
31
0.0
0
ARC
8
0
10
33.151725
20
173.733564
30
0.0
40
0.300000
50
180.000000
51
270.000000
0
LINE
8
0
10
32.851725
20
173.733564
30
0.0
11
32.851725
21
174.633564
31
0.0
0
ARC
8
0
10
32.551725
20
174.633564
30
0.0
40
0.300000
50
0.000000
51
90.000000
0
LINE
8
0
10
32.551725
20
174.933564
30
0.0
11
31.451725
21
174.933564
31
0.0
0
ARC
8
0
10
31.451725
20
174.633564
30
0.0
40
0.300000
50
90.000000
51
180.000000
0
LINE
8
0
10
31.151725
20
174.633564
30
0.0
11
31.151725
21
171.933564
31
0.0
0
LINE
8
0
10
31.151725
20
171.933564
30
0.0
11
31.434389
21
155.973362
31
0.0
0
ARC
8
0
10
32.434233
20
155.991006
30
0.0
40
1.000000
50
181.010997
51
270.000000
0
LINE
8
0
10
90.149508
20
153.333564
30
0.0
11
104.549508
21
153.333564
31
0.0
0
ARC
8
0
10
104.549508
20
153.033564
30
0.0
40
0.300000
50
0.000000
51
90.000000
0
LINE
8
0
10
104.849508
20
153.033564
30
0.0
11
104.849508
21
56.838449
31
0.0
0
ARC
8
0
10
104.549508
20
56.838449
30
0.0
40
0.300000
50
270.000000
51
0.000000
0
LINE
8
0
10
104.549508
20
56.538449
30
0.0
11
90.149508
21
56.538449
31
0.0
0
ARC
8
0
10
90.149508
20
56.838449
30
0.0
40
0.300000
50
180.000000
51
270.000000
0
LINE
8
0
10
89.849508
20
56.838449
30
0.0
11
89.849508
21
70.838449
31
0.0
0
ARC
8
0
10
90.149508
20
70.838449
30
0.0
40
0.300000
50
90.000000
51
180.000000
0
LINE
8
0
10
90.149508
20
71.138449
30
0.0
11
97.349508
21
71.138449
31
0.0
0
ARC
8
0
10
97.349508
20
74.838449
30
0.0
40
3.700000
50
270.000000
51
308.682187
0
ARC
8
0
10
99.349508
20
72.340450
30
0.0
40
0.500000
50
308.682187
51
0.000000
0
LINE
8
0
10
99.849508
20
72.340450
30
0.0
11
99.849508
21
73.106398
31
0.0
0
ARC
8
0
10
99.349508
20
73.106398
30
0.0
40
0.500000
50
0.000000
51
60.000000
0
LINE
8
0
10
99.599508
20
73.539411
30
0.0
11
99.559146
21
73.562714
31
0.0
0
ARC
8
0
10
99.309146
20
73.129701
30
0.0
40
0.500000
50
60.000000
51
138.912511
0
ARC
8
0
10
97.349508
20
74.838449
30
0.0
40
2.100000
50
287.142857
51
318.912511
0
LINE
8
0
10
97.968493
20
72.831746
30
0.0
11
98.056920
21
72.545074
31
0.0
0
ARC
8
0
10
97.349508
20
74.838449
30
0.0
40
2.400000
50
244.285714
51
287.142857
0
LINE
8
0
10
96.308187
20
72.676124
30
0.0
11
96.438352
21
72.946414
31
0.0
0
ARC
8
0
10
97.349508
20
74.838449
30
0.0
40
2.100000
50
201.428571
51
244.285714
0
LINE
8
0
10
95.394673
20
74.071233
30
0.0
11
95.115411
21
73.961630
31
0.0
0
ARC
8
0
10
97.349508
20
74.838449
30
0.0
40
2.400000
50
158.571429
51
201.428571
0
LINE
8
0
10
95.115411
20
75.715267
30
0.0
11
95.394673
21
75.605665
31
0.0
0
ARC
8
0
10
97.349508
20
74.838449
30
0.0
40
2.100000
50
115.714286
51
158.571429
0
LINE
8
0
10
96.438352
20
76.730484
30
0.0
11
96.308187
21
77.000774
31
0.0
0
ARC
8
0
10
97.349508
20
74.838449
30
0.0
40
2.400000
50
72.857143
51
115.714286
0
LINE
8
0
10
98.056920
20
77.131824
30
0.0
11
97.968493
21
76.845152
31
0.0
0
ARC
8
0
10
97.349508
20
74.838449
30
0.0
40
2.100000
50
41.087489
51
72.857143
0
ARC
8
0
10
99.309146
20
76.547197
30
0.0
40
0.500000
50
221.087489
51
300.000000
0
LINE
8
0
10
99.559146
20
76.114184
30
0.0
11
99.599508
21
76.137487
31
0.0
0
ARC
8
0
10
99.349508
20
76.570500
30
0.0
40
0.500000
50
300.000000
51
0.000000
0
LINE
8
0
10
99.849508
20
76.570500
30
0.0
11
99.849508
21
77.336448
31
0.0
0
ARC
8
0
10
99.349508
20
77.336448
30
0.0
40
0.500000
50
0.000000
51
51.317813
0
ARC
8
0
10
97.349508
20
74.838449
30
0.0
40
3.700000
50
51.317813
51
198.030535
0
ARC
8
0
10
93.355762
20
73.538449
30
0.0
40
0.500000
50
270.000000
51
18.030535
0
LINE
8
0
10
93.355762
20
73.038449
30
0.0
11
90.149508
21
73.038449
31
0.0
0
ARC
8
0
10
90.149508
20
73.338449
30
0.0
40
0.300000
50
180.000000
51
270.000000
0
LINE
8
0
10
89.849508
20
73.338449
30
0.0
11
89.849508
21
136.533564
31
0.0
0
ARC
8
0
10
90.149508
20
136.533564
30
0.0
40
0.300000
50
90.000000
51
180.000000
0
LINE
8
0
10
90.149508
20
136.833564
30
0.0
11
93.355762
21
136.833564
31
0.0
0
ARC
8
0
10
93.355762
20
136.333564
30
0.0
40
0.500000
50
341.969465
51
90.000000
0
ARC
8
0
10
97.349508
20
135.033564
30
0.0
40
3.700000
50
161.969465
51
308.682187
0
ARC
8
0
10
99.349508
20
132.535565
30
0.0
40
0.500000
50
308.682187
51
0.000000
0
LINE
8
0
10
99.849508
20
132.535565
30
0.0
11
99.849508
21
133.301513
31
0.0
0
ARC
8
0
10
99.349508
20
133.301513
30
0.0
40
0.500000
50
0.000000
51
60.000000
0
LINE
8
0
10
99.599508
20
133.734526
30
0.0
11
99.559146
21
133.757829
31
0.0
0
ARC
8
0
10
99.309146
20
133.324816
30
0.0
40
0.500000
50
60.000000
51
138.912511
0
ARC
8
0
10
97.349508
20
135.033564
30
0.0
40
2.100000
50
287.142857
51
318.912511
0
LINE
8
0
10
97.968493
20
133.026861
30
0.0
11
98.056920
21
132.740189
31
0.0
0
ARC
8
0
10
97.349508
20
135.033564
30
0.0
40
2.400000
50
244.285714
51
287.142857
0
LINE
8
0
10
96.308187
20
132.871239
30
0.0
11
96.438352
21
133.141529
31
0.0
0
ARC
8
0
10
97.349508
20
135.033564
30
0.0
40
2.100000
50
201.428571
51
244.285714
0
LINE
8
0
10
95.394673
20
134.266348
30
0.0
11
95.115411
21
134.156745
31
0.0
0
ARC
8
0
10
97.349508
20
135.033564
30
0.0
40
2.400000
50
158.571429
51
201.428571
0
LINE
8
0
10
95.115411
20
135.910382
30
0.0
11
95.394673
21
135.800780
31
0.0
0
ARC
8
0
10
97.349508
20
135.033564
30
0.0
40
2.100000
50
115.714286
51
158.571429
0
LINE
8
0
10
96.438352
20
136.925599
30
0.0
11
96.308187
21
137.195889
31
0.0
0
ARC
8
0
10
97.349508
20
135.033564
30
0.0
40
2.400000
50
72.857143
51
115.714286
0
LINE
8
0
10
98.056920
20
137.326939
30
0.0
11
97.968493
21
137.040267
31
0.0
0
ARC
8
0
10
97.349508
20
135.033564
30
0.0
40
2.100000
50
41.087489
51
72.857143
0
ARC
8
0
10
99.309146
20
136.742312
30
0.0
40
0.500000
50
221.087489
51
300.000000
0
LINE
8
0
10
99.559146
20
136.309299
30
0.0
11
99.599508
21
136.332602
31
0.0
0
ARC
8
0
10
99.349508
20
136.765615
30
0.0
40
0.500000
50
300.000000
51
0.000000
0
LINE
8
0
10
99.849508
20
136.765615
30
0.0
11
99.849508
21
137.531563
31
0.0
0
ARC
8
0
10
99.349508
20
137.531563
30
0.0
40
0.500000
50
0.000000
51
51.317813
0
ARC
8
0
10
97.349508
20
135.033564
30
0.0
40
3.700000
50
51.317813
51
90.000000
0
LINE
8
0
10
97.349508
20
138.733564
30
0.0
11
90.149508
21
138.733564
31
0.0
0
ARC
8
0
10
90.149508
20
139.033564
30
0.0
40
0.300000
50
180.000000
51
270.000000
0
LINE
8
0
10
89.849508
20
139.033564
30
0.0
11
89.849508
21
153.033564
31
0.0
0
ARC
8
0
10
90.149508
20
153.033564
30
0.0
40
0.300000
50
90.000000
51
180.000000
0
ARC
8
0
10
88.049508
20
155.233580
30
0.0
40
0.300000
50
284.766462
51
0.000000
0
LINE
8
0
10
88.125971
20
154.943488
30
0.0
11
87.088525
21
154.670032
31
0.0
0
ARC
8
0
10
86.998805
20
154.956302
30
0.0
40
0.300000
50
209.632658
51
287.401721
0
ARC
8
0
10
86.564198
20
154.709083
30
0.0
40
0.200000
50
29.632658
51
90.000000
0
LINE
8
0
10
86.562796
20
154.909078
30
0.0
11
85.011702
21
154.909078
31
0.0
0
ARC
8
0
10
85.011702
20
154.609078
30
0.0
40
0.300000
50
90.000000
51
197.401721
0
LINE
8
0
10
84.725432
20
154.519357
30
0.0
11
85.327397
21
152.598688
31
0.0
0
ARC
8
0
10
86.090782
20
152.837944
30
0.0
40
0.800000
50
197.401721
51
242.401721
0
LINE
8
0
10
85.720166
20
152.128970
30
0.0
11
86.001237
21
151.982041
31
0.0
0
ARC
8
0
10
86.093890
20
152.159284
30
0.0
40
0.200000
50
242.401721
51
0.000000
0
LINE
8
0
10
86.293715
20
152.167665
30
0.0
11
86.281618
21
152.456087
31
0.0
0
LINE
8
0
10
86.281618
20
152.456087
30
0.0
11
87.989714
21
153.540150
31
0.0
0
ARC
8
0
10
88.311226
20
153.033563
30
0.0
40
0.600000
50
90.000000
51
122.401721
0
LINE
8
0
10
88.311226
20
153.633563
30
0.0
11
88.349508
21
153.633563
31
0.0
0
ARC
8
0
10
88.249508
20
153.350720
30
0.0
40
0.300000
50
289.471221
51
70.528779
0
LINE
8
0
10
88.349508
20
153.067878
30
0.0
11
88.349508
21
149.033563
31
0.0
0
ARC
8
0
10
88.049508
20
149.033563
30
0.0
40
0.300000
50
270.000000
51
0.000000
0
LINE
8
0
10
88.049508
20
148.733563
30
0.0
11
87.829892
21
148.733563
31
0.0
0
ARC
8
0
10
87.829892
20
149.033563
30
0.0
40
0.300000
50
240.000000
51
270.000000
0
LINE
8
0
10
87.679892
20
148.773755
30
0.0
11
86.149508
21
149.657323
31
0.0
0
ARC
8
0
10
86.049508
20
149.484118
30
0.0
40
0.200000
50
60.000000
51
180.000000
0
LINE
8
0
10
85.849508
20
149.484118
30
0.0
11
85.849508
21
148.329418
31
0.0
0
ARC
8
0
10
86.849508
20
148.329418
30
0.0
40
1.000000
50
180.000000
51
240.000000
0
LINE
8
0
10
86.349508
20
147.463392
30
0.0
11
87.849508
21
146.597367
31
0.0
0
ARC
8
0
10
87.349508
20
145.731342
30
0.0
40
1.000000
50
0.000000
51
60.000000
0
LINE
8
0
10
88.349508
20
145.731342
30
0.0
11
88.349508
21
143.308471
31
0.0
0
ARC
8
0
10
87.849508
20
143.308471
30
0.0
40
0.500000
50
233.470393
51
0.000000
0
ARC
8
0
10
85.349508
20
139.933564
30
0.0
40
3.700000
50
53.470393
51
141.010701
0
ARC
8
0
10
82.862264
20
141.946925
30
0.0
40
0.500000
50
141.010701
51
240.000000
0
LINE
8
0
10
82.612264
20
141.513912
30
0.0
11
83.139870
21
141.209299
31
0.0
0
ARC
8
0
10
83.389870
20
141.642312
30
0.0
40
0.500000
50
240.000000
51
318.912511
0
ARC
8
0
10
85.349508
20
139.933564
30
0.0
40
2.100000
50
107.142857
51
138.912511
0
LINE
8
0
10
84.730522
20
141.940267
30
0.0
11
84.642095
21
142.226939
31
0.0
0
ARC
8
0
10
85.349508
20
139.933564
30
0.0
40
2.400000
50
64.285714
51
107.142857
0
LINE
8
0
10
86.390829
20
142.095889
30
0.0
11
86.260663
21
141.825599
31
0.0
0
ARC
8
0
10
85.349508
20
139.933564
30
0.0
40
2.100000
50
21.428571
51
64.285714
0
LINE
8
0
10
87.304342
20
140.700780
30
0.0
11
87.583605
21
140.810382
31
0.0
0
ARC
8
0
10
85.349508
20
139.933564
30
0.0
40
2.400000
50
338.571429
51
21.428571
0
LINE
8
0
10
87.583605
20
139.056745
30
0.0
11
87.304342
21
139.166348
31
0.0
0
ARC
8
0
10
85.349508
20
139.933564
30
0.0
40
2.100000
50
295.714286
51
338.571429
0
LINE
8
0
10
86.260663
20
138.041529
30
0.0
11
86.390829
21
137.771239
31
0.0
0
ARC
8
0
10
85.349508
20
139.933564
30
0.0
40
2.400000
50
252.857143
51
295.714286
0
LINE
8
0
10
84.642095
20
137.640189
30
0.0
11
84.730522
21
137.926861
31
0.0
0
ARC
8
0
10
85.349508
20
139.933564
30
0.0
40
2.100000
50
221.087489
51
252.857143
0
ARC
8
0
10
83.389870
20
138.224816
30
0.0
40
0.500000
50
41.087489
51
120.000000
0
LINE
8
0
10
83.139870
20
138.657829
30
0.0
11
82.612264
21
138.353216
31
0.0
0
ARC
8
0
10
82.862264
20
137.920203
30
0.0
40
0.500000
50
120.000000
51
218.989299
0
ARC
8
0
10
85.349508
20
139.933564
30
0.0
40
3.700000
50
218.989299
51
306.529607
0
ARC
8
0
10
87.849508
20
136.558657
30
0.0
40
0.500000
50
0.000000
51
126.529607
0
LINE
8
0
10
88.349508
20
136.558657
30
0.0
11
88.349508
21
73.313356
31
0.0
0
ARC
8
0
10
87.849508
20
73.313356
30
0.0
40
0.500000
50
233.470393
51
0.000000
0
ARC
8
0
10
85.349508
20
69.938449
30
0.0
40
3.700000
50
53.470393
51
141.010701
0
ARC
8
0
10
82.862264
20
71.951810
30
0.0
40
0.500000
50
141.010701
51
240.000000
0
LINE
8
0
10
82.612264
20
71.518797
30
0.0
11
83.139870
21
71.214184
31
0.0
0
ARC
8
0
10
83.389870
20
71.647197
30
0.0
40
0.500000
50
240.000000
51
318.912511
0
ARC
8
0
10
85.349508
20
69.938449
30
0.0
40
2.100000
50
107.142857
51
138.912511
0
LINE
8
0
10
84.730522
20
71.945152
30
0.0
11
84.642095
21
72.231824
31
0.0
0
ARC
8
0
10
85.349508
20
69.938449
30
0.0
40
2.400000
50
64.285714
51
107.142857
0
LINE
8
0
10
86.390829
20
72.100774
30
0.0
11
86.260663
21
71.830484
31
0.0
0
ARC
8
0
10
85.349508
20
69.938449
30
0.0
40
2.100000
50
21.428571
51
64.285714
0
LINE
8
0
10
87.304342
20
70.705665
30
0.0
11
87.583605
21
70.815267
31
0.0
0
ARC
8
0
10
85.349508
20
69.938449
30
0.0
40
2.400000
50
338.571429
51
21.428571
0
LINE
8
0
10
87.583605
20
69.061630
30
0.0
11
87.304342
21
69.171233
31
0.0
0
ARC
8
0
10
85.349508
20
69.938449
30
0.0
40
2.100000
50
295.714286
51
338.571429
0
LINE
8
0
10
86.260663
20
68.046414
30
0.0
11
86.390829
21
67.776124
31
0.0
0
ARC
8
0
10
85.349508
20
69.938449
30
0.0
40
2.400000
50
252.857143
51
295.714286
0
LINE
8
0
10
84.642095
20
67.645074
30
0.0
11
84.730522
21
67.931746
31
0.0
0
ARC
8
0
10
85.349508
20
69.938449
30
0.0
40
2.100000
50
221.087489
51
252.857143
0
ARC
8
0
10
83.389870
20
68.229701
30
0.0
40
0.500000
50
41.087489
51
120.000000
0
LINE
8
0
10
83.139870
20
68.662714
30
0.0
11
82.612264
21
68.358101
31
0.0
0
ARC
8
0
10
82.862264
20
67.925088
30
0.0
40
0.500000
50
120.000000
51
218.989299
0
ARC
8
0
10
85.349508
20
69.938449
30
0.0
40
3.700000
50
218.989299
51
306.529607
0
ARC
8
0
10
87.849508
20
66.563542
30
0.0
40
0.500000
50
0.000000
51
126.529607
0
LINE
8
0
10
88.349508
20
66.563542
30
0.0
11
88.349508
21
64.140671
31
0.0
0
ARC
8
0
10
87.349508
20
64.140671
30
0.0
40
1.000000
50
300.000000
51
0.000000
0
LINE
8
0
10
87.849508
20
63.274646
30
0.0
11
86.349508
21
62.408620
31
0.0
0
ARC
8
0
10
86.849508
20
61.542595
30
0.0
40
1.000000
50
120.000000
51
180.000000
0
LINE
8
0
10
85.849508
20
61.542595
30
0.0
11
85.849508
21
60.387895
31
0.0
0
ARC
8
0
10
86.049508
20
60.387895
30
0.0
40
0.200000
50
180.000000
51
300.000000
0
LINE
8
0
10
86.149508
20
60.214689
30
0.0
11
87.679892
21
61.098257
31
0.0
0
ARC
8
0
10
87.829892
20
60.838450
30
0.0
40
0.300000
50
90.000000
51
120.000000
0
LINE
8
0
10
87.829892
20
61.138450
30
0.0
11
88.049508
21
61.138450
31
0.0
0
ARC
8
0
10
88.049508
20
60.838450
30
0.0
40
0.300000
50
0.000000
51
90.000000
0
LINE
8
0
10
88.349508
20
60.838450
30
0.0
11
88.349508
21
56.804135
31
0.0
0
ARC
8
0
10
88.249508
20
56.521293
30
0.0
40
0.300000
50
289.471221
51
70.528779
0
LINE
8
0
10
88.349508
20
56.238450
30
0.0
11
88.311226
21
56.238450
31
0.0
0
ARC
8
0
10
88.311226
20
56.838450
30
0.0
40
0.600000
50
237.598279
51
270.000000
0
LINE
8
0
10
87.989714
20
56.331863
30
0.0
11
86.281618
21
57.415926
31
0.0
0
LINE
8
0
10
86.281618
20
57.415926
30
0.0
11
86.293715
21
57.704348
31
0.0
0
ARC
8
0
10
86.093890
20
57.712729
30
0.0
40
0.200000
50
0.000000
51
117.598279
0
LINE
8
0
10
86.001237
20
57.889972
30
0.0
11
85.720166
21
57.743043
31
0.0
0
ARC
8
0
10
86.090782
20
57.034069
30
0.0
40
0.800000
50
117.598279
51
162.598279
0
LINE
8
0
10
85.327397
20
57.273324
30
0.0
11
84.725432
21
55.352656
31
0.0
0
ARC
8
0
10
85.011702
20
55.262935
30
0.0
40
0.300000
50
162.598279
51
270.000000
0
LINE
8
0
10
85.011702
20
54.962935
30
0.0
11
86.562796
21
54.962935
31
0.0
0
ARC
8
0
10
86.564198
20
55.162930
30
0.0
40
0.200000
50
270.000000
51
330.367342
0
ARC
8
0
10
86.998805
20
54.915711
30
0.0
40
0.300000
50
72.598279
51
150.367342
0
LINE
8
0
10
87.088525
20
55.201981
30
0.0
11
88.125971
21
54.928525
31
0.0
0
ARC
8
0
10
88.049508
20
54.638433
30
0.0
40
0.300000
50
0.000000
51
75.233538
0
LINE
8
0
10
88.349508
20
54.638433
30
0.0
11
88.349508
21
51.738449
31
0.0
0
ARC
8
0
10
88.049508
20
51.738449
30
0.0
40
0.300000
50
270.000000
51
0.000000
0
LINE
8
0
10
88.049508
20
51.438449
30
0.0
11
87.449508
21
51.438449
31
0.0
0
ARC
8
0
10
87.449508
20
51.138449
30
0.0
40
0.300000
50
90.000000
51
180.000000
0
LINE
8
0
10
87.149508
20
51.138449
30
0.0
11
87.149508
21
50.938449
31
0.0
0
ARC
8
0
10
88.149508
20
50.938449
30
0.0
40
1.000000
50
180.000000
51
270.000000
0
LINE
8
0
10
88.149508
20
49.938449
30
0.0
11
91.298952
21
49.938449
31
0.0
0
ARC
8
0
10
91.298952
20
50.238449
30
0.0
40
0.300000
50
270.000000
51
330.000000
0
LINE
8
0
10
91.558760
20
50.088449
30
0.0
11
92.009315
21
50.868834
31
0.0
0
ARC
8
0
10
91.749508
20
51.018834
30
0.0
40
0.300000
50
330.000000
51
0.000000
0
LINE
8
0
10
92.049508
20
51.018834
30
0.0
11
92.049508
21
51.138449
31
0.0
0
ARC
8
0
10
91.749508
20
51.138449
30
0.0
40
0.300000
50
0.000000
51
90.000000
0
LINE
8
0
10
91.749508
20
51.438449
30
0.0
11
90.349508
21
51.438449
31
0.0
0
ARC
8
0
10
90.349508
20
51.738449
30
0.0
40
0.300000
50
180.000000
51
270.000000
0
LINE
8
0
10
90.049508
20
51.738449
30
0.0
11
90.049508
21
54.638449
31
0.0
0
ARC
8
0
10
90.349508
20
54.638449
30
0.0
40
0.300000
50
90.000000
51
180.000000
0
LINE
8
0
10
90.349508
20
54.938449
30
0.0
11
104.249508
21
54.938449
31
0.0
0
ARC
8
0
10
104.249508
20
54.638449
30
0.0
40
0.300000
50
0.000000
51
90.000000
0
LINE
8
0
10
104.549508
20
54.638449
30
0.0
11
104.549508
21
51.738449
31
0.0
0
ARC
8
0
10
104.249508
20
51.738449
30
0.0
40
0.300000
50
270.000000
51
0.000000
0
LINE
8
0
10
104.249508
20
51.438449
30
0.0
11
102.349508
21
51.438449
31
0.0
0
ARC
8
0
10
102.349508
20
51.138449
30
0.0
40
0.300000
50
90.000000
51
180.000000
0
LINE
8
0
10
102.049508
20
51.138449
30
0.0
11
102.049508
21
51.018834
31
0.0
0
ARC
8
0
10
102.349508
20
51.018834
30
0.0
40
0.300000
50
180.000000
51
210.000000
0
LINE
8
0
10
102.089700
20
50.868834
30
0.0
11
102.540255
21
50.088449
31
0.0
0
ARC
8
0
10
102.800063
20
50.238449
30
0.0
40
0.300000
50
210.000000
51
270.000000
0
LINE
8
0
10
102.800063
20
49.938449
30
0.0
11
106.049508
21
49.938449
31
0.0
0
ARC
8
0
10
106.049508
20
50.238449
30
0.0
40
0.300000
50
270.000000
51
0.000000
0
LINE
8
0
10
106.349508
20
50.238449
30
0.0
11
106.349508
21
159.633564
31
0.0
0
ARC
8
0
10
106.049508
20
159.633564
30
0.0
40
0.300000
50
0.000000
51
90.000000
0
LINE
8
0
10
106.049508
20
159.933564
30
0.0
11
102.800063
21
159.933564
31
0.0
0
ARC
8
0
10
102.800063
20
159.633564
30
0.0
40
0.300000
50
90.000000
51
150.000000
0
LINE
8
0
10
102.540255
20
159.783564
30
0.0
11
102.089700
21
159.003179
31
0.0
0
ARC
8
0
10
102.349508
20
158.853179
30
0.0
40
0.300000
50
150.000000
51
180.000000
0
LINE
8
0
10
102.049508
20
158.853179
30
0.0
11
102.049508
21
158.733564
31
0.0
0
ARC
8
0
10
102.349508
20
158.733564
30
0.0
40
0.300000
50
180.000000
51
270.000000
0
LINE
8
0
10
102.349508
20
158.433564
30
0.0
11
104.249508
21
158.433564
31
0.0
0
ARC
8
0
10
104.249508
20
158.133564
30
0.0
40
0.300000
50
0.000000
51
90.000000
0
LINE
8
0
10
104.549508
20
158.133564
30
0.0
11
104.549508
21
155.233564
31
0.0
0
ARC
8
0
10
104.249508
20
155.233564
30
0.0
40
0.300000
50
270.000000
51
0.000000
0
LINE
8
0
10
104.249508
20
154.933564
30
0.0
11
90.349508
21
154.933564
31
0.0
0
ARC
8
0
10
90.349508
20
155.233564
30
0.0
40
0.300000
50
180.000000
51
270.000000
0
LINE
8
0
10
90.049508
20
155.233564
30
0.0
11
90.049508
21
158.133564
31
0.0
0
ARC
8
0
10
90.349508
20
158.133564
30
0.0
40
0.300000
50
90.000000
51
180.000000
0
LINE
8
0
10
90.349508
20
158.433564
30
0.0
11
91.749508
21
158.433564
31
0.0
0
ARC
8
0
10
91.749508
20
158.733564
30
0.0
40
0.300000
50
270.000000
51
0.000000
0
LINE
8
0
10
92.049508
20
158.733564
30
0.0
11
92.049508
21
158.853179
31
0.0
0
ARC
8
0
10
91.749508
20
158.853179
30
0.0
40
0.300000
50
0.000000
51
30.000000
0
LINE
8
0
10
92.009315
20
159.003179
30
0.0
11
91.558760
21
159.783564
31
0.0
0
ARC
8
0
10
91.298952
20
159.633564
30
0.0
40
0.300000
50
30.000000
51
90.000000
0
LINE
8
0
10
91.298952
20
159.933564
30
0.0
11
88.149508
21
159.933564
31
0.0
0
ARC
8
0
10
88.149508
20
158.933564
30
0.0
40
1.000000
50
90.000000
51
180.000000
0
LINE
8
0
10
87.149508
20
158.933564
30
0.0
11
87.149508
21
158.733564
31
0.0
0
ARC
8
0
10
87.449508
20
158.733564
30
0.0
40
0.300000
50
180.000000
51
270.000000
0
LINE
8
0
10
87.449508
20
158.433564
30
0.0
11
88.049508
21
158.433564
31
0.0
0
ARC
8
0
10
88.049508
20
158.133564
30
0.0
40
0.300000
50
0.000000
51
90.000000
0
LINE
8
0
10
88.349508
20
158.133564
30
0.0
11
88.349508
21
155.233580
31
0.0
0
ATTDEF
8
0
10
104.424785
20
159.933564
30
0.0
40
3.5
1

3

2
VC_START
70
0
0
ATTDEF
8
0
10
104.424785
20
49.938449
30
0.0
40
3.5
1

3

2
VC_END
70
0
0
ATTDEF
8
0
10
29.651725
20
24.938449
30
0.0
40
3.5
1

3

2
JY:0.000000
70
0
0
ATTDEF
8
0
10
29.651725
20
24.938449
30
0.0
40
3.5
1

3

2
WY:0.000000
70
0
0
ATTDEF
8
0
10
29.651725
20
24.938449
30
0.0
40
3.5
1

3

2
DESC:Fascia
70
0
0
ATTDEF
8
0
10
29.651725
20
24.938449
30
0.0
40
3.5
1

3

2
DENS:3.450000
70
0
0
ATTDEF
8
0
10
29.651725
20
24.938449
30
0.0
40
3.5
1

3

2
TDEV:0.000000
70
0
0
ATTDEF
8
0
10
29.651725
20
24.938449
30
0.0
40
3.5
1

3

2
TDEV2:0.000000
70
0
0
ATTDEF
8
0
10
29.651725
20
24.938449
30
0.0
40
3.5
1

3

2
TDEV3:0.000000
70
0
0
ATTDEF
8
0
10
29.651725
20
24.938449
30
0.0
40
3.5
1

3

2
TDEV4:0.000000
70
0
0
ATTDEF
8
0
10
29.651725
20
24.938449
30
0.0
40
3.5
1

3

2
TDEV5:0.000000
70
0
0
ATTDEF
8
0
10
29.651725
20
24.938449
30
0.0
40
3.5
1

3

2
FRONT_VIEW
70
0
0
ATTDEF
8
0
10
29.651725
20
24.938449
30
0.0
40
3.5
1

3

2
BL01:6800.000000,,1
70
0
0
ATTDEF
8
0
10
29.651725
20
24.938449
30
0.0
40
3.5
1

3

2
OPTI:500.000000,1,0,3000.000000,6500.000000,500.000000,0,0.000000,0
70
0
0
ATTDEF
8
0
10
29.651725
20
24.938449
30
0.0
40
3.5
1

3

2
PANE_WIDTH:0.000000
70
0
0
ATTDEF
8
0
10
29.651725
20
24.938449
30
0.0
40
3.5
1

3

2
GLASS_MIN:0.000000
70
0
0
ATTDEF
8
0
10
29.651725
20
24.938449
30
0.0
40
3.5
1

3

2
GLASS_MAX:0.000000
70
0
0
ATTDEF
8
0
10
29.651725
20
24.938449
30
0.0
40
3.5
1

3

2
JX:0.000000
70
0
0
ATTDEF
8
0
10
29.651725
20
24.938449
30
0.0
40
3.5
1

3

2
WX:0.000000
70
0
0
ATTDEF
8
0
10
29.651725
20
24.938449
30
0.0
40
3.5
1

3

2
JY:0.000000
70
0
0
ATTDEF
8
0
10
29.651725
20
24.938449
30
0.0
40
3.5
1

3

2
WY:0.000000
70
0
0
ATTDEF
8
0
10
29.651725
20
24.938449
30
0.0
40
3.5
1

3

2
FP_LCS_ORIG
70
0
0
ATTDEF
8
0
10
39.651725
20
24.938449
30
0.0
40
3.5
1

3

2
FP_LCS_HOT
70
0
0
ATTDEF
8
0
10
29.651725
20
34.938449
30
0.0
40
3.5
1

3

2
FP_LCS_INTERN
70
0
0
ENDSEC
0
EOF
