0
SECTION
2
ENTITIES
0
LINE
8
0
10
62.921861
20
218.428164
30
0.0
11
62.921861
21
122.227886
31
0.0
0
LINE
8
0
10
119.819644
20
220.620443
30
0.0
11
119.819644
21
223.520444
31
0.0
0
ARC
8
0
10
119.519644
20
223.520444
30
0.0
40
0.300000
50
360.000000
51
90.000000
0
LINE
8
0
10
119.519644
20
223.820444
30
0.0
11
118.919644
21
223.820444
31
0.0
0
ARC
8
0
10
118.919644
20
224.120444
30
0.0
40
0.300000
50
180.000000
51
270.000000
0
LINE
8
0
10
118.619644
20
224.120444
30
0.0
11
118.619644
21
224.320444
31
0.0
0
ARC
8
0
10
119.619644
20
224.320444
30
0.0
40
1.000000
50
90.000000
51
180.000000
0
LINE
8
0
10
119.619644
20
225.320444
30
0.0
11
122.769089
21
225.320444
31
0.0
0
ARC
8
0
10
122.769089
20
225.020444
30
0.0
40
0.300000
50
30.000000
51
90.000000
0
LINE
8
0
10
123.028897
20
225.170444
30
0.0
11
123.479452
21
224.390059
31
0.0
0
ARC
8
0
10
123.219644
20
224.240059
30
0.0
40
0.300000
50
360.000000
51
30.000000
0
LINE
8
0
10
123.519644
20
224.240059
30
0.0
11
123.519644
21
224.120444
31
0.0
0
ARC
8
0
10
123.219644
20
224.120444
30
0.0
40
0.300000
50
270.000000
51
360.000000
0
LINE
8
0
10
123.219644
20
223.820444
30
0.0
11
121.819644
21
223.820444
31
0.0
0
ARC
8
0
10
121.819644
20
223.520444
30
0.0
40
0.300000
50
90.000000
51
180.000000
0
LINE
8
0
10
121.519644
20
223.520444
30
0.0
11
121.519644
21
220.620444
31
0.0
0
ARC
8
0
10
121.819644
20
220.620444
30
0.0
40
0.300000
50
180.000000
51
270.000000
0
LINE
8
0
10
121.819644
20
220.320444
30
0.0
11
135.719644
21
220.320444
31
0.0
0
ARC
8
0
10
135.719644
20
220.620444
30
0.0
40
0.300000
50
270.000000
51
360.000000
0
LINE
8
0
10
136.019644
20
220.620444
30
0.0
11
136.019644
21
223.520444
31
0.0
0
ARC
8
0
10
135.719644
20
223.520444
30
0.0
40
0.300000
50
360.000000
51
90.000000
0
LINE
8
0
10
135.719644
20
223.820444
30
0.0
11
133.819644
21
223.820444
31
0.0
0
ARC
8
0
10
133.819644
20
224.120444
30
0.0
40
0.300000
50
180.000000
51
270.000000
0
LINE
8
0
10
133.519644
20
224.120444
30
0.0
11
133.519644
21
224.240059
31
0.0
0
ARC
8
0
10
133.819644
20
224.240059
30
0.0
40
0.300000
50
150.000000
51
180.000000
0
LINE
8
0
10
133.559837
20
224.390059
30
0.0
11
134.010392
21
225.170444
31
0.0
0
ARC
8
0
10
134.270200
20
225.020444
30
0.0
40
0.300000
50
90.000000
51
150.000000
0
LINE
8
0
10
134.270200
20
225.320444
30
0.0
11
137.519644
21
225.320444
31
0.0
0
ARC
8
0
10
137.519644
20
225.020444
30
0.0
40
0.300000
50
360.000000
51
90.000000
0
LINE
8
0
10
137.819644
20
225.020444
30
0.0
11
137.819644
21
90.628164
31
0.0
0
ARC
8
0
10
137.519644
20
90.628164
30
0.0
40
0.300000
50
270.000000
51
360.000000
0
LINE
8
0
10
137.519644
20
90.328164
30
0.0
11
133.919644
21
90.328164
31
0.0
0
ARC
8
0
10
133.919644
20
90.628164
30
0.0
40
0.300000
50
180.000000
51
270.000000
0
LINE
8
0
10
133.619644
20
90.628164
30
0.0
11
133.619644
21
92.128164
31
0.0
0
ARC
8
0
10
134.319644
20
92.128164
30
0.0
40
0.700000
50
90.000000
51
180.000000
0
ARC
8
0
10
134.319644
20
92.528164
30
0.0
40
0.300000
50
360.000000
51
90.000000
0
LINE
8
0
10
134.619644
20
92.528164
30
0.0
11
134.619644
21
91.828164
31
0.0
0
ARC
8
0
10
134.919644
20
91.828164
30
0.0
40
0.300000
50
180.000000
51
270.000000
0
LINE
8
0
10
134.919644
20
91.528164
30
0.0
11
135.819644
21
91.528164
31
0.0
0
ARC
8
0
10
135.819644
20
92.228164
30
0.0
40
0.700000
50
270.000000
51
360.000000
0
LINE
8
0
10
136.519644
20
92.228164
30
0.0
11
136.519644
21
98.428164
31
0.0
0
ARC
8
0
10
135.819644
20
98.428164
30
0.0
40
0.700000
50
360.000000
51
90.000000
0
LINE
8
0
10
135.819644
20
99.128164
30
0.0
11
134.919644
21
99.128164
31
0.0
0
ARC
8
0
10
134.919644
20
98.828164
30
0.0
40
0.300000
50
90.000000
51
180.000000
0
LINE
8
0
10
134.619644
20
98.828164
30
0.0
11
134.619644
21
98.128164
31
0.0
0
ARC
8
0
10
134.319644
20
98.128164
30
0.0
40
0.300000
50
270.000000
51
360.000000
0
ARC
8
0
10
134.319644
20
98.528164
30
0.0
40
0.700000
50
180.000000
51
270.000000
0
LINE
8
0
10
133.619644
20
98.528164
30
0.0
11
133.619644
21
101.528164
31
0.0
0
ARC
8
0
10
133.919644
20
101.528164
30
0.0
40
0.300000
50
90.000000
51
180.000000
0
LINE
8
0
10
133.919644
20
101.828164
30
0.0
11
134.319644
21
101.828164
31
0.0
0
ARC
8
0
10
134.319644
20
101.528164
30
0.0
40
0.300000
50
360.000000
51
90.000000
0
LINE
8
0
10
134.619644
20
101.528164
30
0.0
11
134.619644
21
100.628164
31
0.0
0
ARC
8
0
10
134.919644
20
100.628164
30
0.0
40
0.300000
50
180.000000
51
270.000000
0
LINE
8
0
10
134.919644
20
100.328164
30
0.0
11
136.019644
21
100.328164
31
0.0
0
ARC
8
0
10
136.019644
20
100.628164
30
0.0
40
0.300000
50
270.000000
51
360.000000
0
LINE
8
0
10
136.319644
20
100.628164
30
0.0
11
136.319644
21
103.328164
31
0.0
0
LINE
8
0
10
136.319644
20
103.328164
30
0.0
11
136.029644
21
120.025329
31
0.0
0
ARC
8
0
10
135.729644
20
120.025329
30
0.0
40
0.300000
50
360.000000
51
90.000000
0
LINE
8
0
10
135.729644
20
120.325329
30
0.0
11
119.558459
21
120.325329
31
0.0
0
LINE
8
0
10
119.558459
20
120.325329
30
0.0
11
118.558662
21
120.588860
31
0.0
0
ARC
8
0
10
118.468941
20
120.302591
30
0.0
40
0.300000
50
72.598279
51
150.367342
0
ARC
8
0
10
118.034335
20
120.549810
30
0.0
40
0.200000
50
270.000000
51
330.367342
0
LINE
8
0
10
118.032933
20
120.349815
30
0.0
11
116.481838
21
120.349815
31
0.0
0
ARC
8
0
10
116.481838
20
120.649815
30
0.0
40
0.300000
50
162.598279
51
270.000000
0
LINE
8
0
10
116.195569
20
120.739535
30
0.0
11
116.797533
21
122.660204
31
0.0
0
ARC
8
0
10
117.560919
20
122.420949
30
0.0
40
0.800000
50
117.598279
51
162.598279
0
LINE
8
0
10
117.190303
20
123.129923
30
0.0
11
117.471373
21
123.276852
31
0.0
0
ARC
8
0
10
117.564027
20
123.099608
30
0.0
40
0.200000
50
360.000000
51
117.598279
0
LINE
8
0
10
117.763852
20
123.091227
30
0.0
11
117.751754
21
122.802806
31
0.0
0
LINE
8
0
10
117.751754
20
122.802806
30
0.0
11
119.459851
21
121.718742
31
0.0
0
ARC
8
0
10
119.781363
20
122.225330
30
0.0
40
0.600000
50
237.598279
51
270.000000
0
LINE
8
0
10
119.781363
20
121.625330
30
0.0
11
119.819644
21
121.625330
31
0.0
0
ARC
8
0
10
119.719644
20
121.908172
30
0.0
40
0.300000
50
289.471221
51
70.528779
0
LINE
8
0
10
119.819644
20
122.191015
30
0.0
11
119.819644
21
126.225330
31
0.0
0
ARC
8
0
10
119.519644
20
126.225330
30
0.0
40
0.300000
50
360.000000
51
90.000000
0
LINE
8
0
10
119.519644
20
126.525330
30
0.0
11
119.300029
21
126.525330
31
0.0
0
ARC
8
0
10
119.300029
20
126.225330
30
0.0
40
0.300000
50
90.000000
51
120.000000
0
LINE
8
0
10
119.150029
20
126.485137
30
0.0
11
117.619644
21
125.601569
31
0.0
0
ARC
8
0
10
117.519644
20
125.774774
30
0.0
40
0.200000
50
180.000000
51
300.000000
0
LINE
8
0
10
117.319644
20
125.774774
30
0.0
11
117.319644
21
126.929475
31
0.0
0
ARC
8
0
10
118.319644
20
126.929475
30
0.0
40
1.000000
50
120.000000
51
180.000000
0
LINE
8
0
10
117.819644
20
127.795500
30
0.0
11
119.319644
21
128.661526
31
0.0
0
ARC
8
0
10
118.819644
20
129.527551
30
0.0
40
1.000000
50
300.000000
51
360.000000
0
LINE
8
0
10
119.819644
20
129.527551
30
0.0
11
119.819644
21
131.950421
31
0.0
0
ARC
8
0
10
119.319644
20
131.950421
30
0.0
40
0.500000
50
360.000000
51
126.529607
0
ARC
8
0
10
116.819644
20
135.325329
30
0.0
40
3.700000
50
218.989299
51
306.529607
0
ARC
8
0
10
114.332401
20
133.311968
30
0.0
40
0.500000
50
120.000000
51
218.989299
0
LINE
8
0
10
114.082401
20
133.744981
30
0.0
11
114.610006
21
134.049594
31
0.0
0
ARC
8
0
10
114.860006
20
133.616581
30
0.0
40
0.500000
50
41.087489
51
120.000000
0
ARC
8
0
10
116.819644
20
135.325329
30
0.0
40
2.100000
50
221.087489
51
252.857143
0
LINE
8
0
10
116.200658
20
133.318626
30
0.0
11
116.112232
21
133.031954
31
0.0
0
ARC
8
0
10
116.819644
20
135.325329
30
0.0
40
2.400000
50
252.857143
51
295.714286
0
LINE
8
0
10
117.860965
20
133.163003
30
0.0
11
117.730800
21
133.433294
31
0.0
0
ARC
8
0
10
116.819644
20
135.325329
30
0.0
40
2.100000
50
295.714286
51
338.571429
0
LINE
8
0
10
118.774479
20
134.558112
30
0.0
11
119.053741
21
134.448510
31
0.0
0
ARC
8
0
10
116.819644
20
135.325329
30
0.0
40
2.400000
50
338.571429
51
21.428571
0
LINE
8
0
10
119.053741
20
136.202147
30
0.0
11
118.774479
21
136.092545
31
0.0
0
ARC
8
0
10
116.819644
20
135.325329
30
0.0
40
2.100000
50
21.428571
51
64.285714
0
LINE
8
0
10
117.730800
20
137.217363
30
0.0
11
117.860965
21
137.487654
31
0.0
0
ARC
8
0
10
116.819644
20
135.325329
30
0.0
40
2.400000
50
64.285714
51
107.142857
0
LINE
8
0
10
116.112232
20
137.618703
30
0.0
11
116.200658
21
137.332031
31
0.0
0
ARC
8
0
10
116.819644
20
135.325329
30
0.0
40
2.100000
50
107.142857
51
138.912511
0
ARC
8
0
10
114.860006
20
137.034076
30
0.0
40
0.500000
50
240.000000
51
318.912511
0
LINE
8
0
10
114.610006
20
136.601064
30
0.0
11
114.082401
21
136.905677
31
0.0
0
ARC
8
0
10
114.332401
20
137.338689
30
0.0
40
0.500000
50
141.010701
51
240.000000
0
ARC
8
0
10
116.819644
20
135.325329
30
0.0
40
3.700000
50
53.470393
51
141.010701
0
ARC
8
0
10
119.319644
20
138.700236
30
0.0
40
0.500000
50
233.470393
51
360.000000
0
LINE
8
0
10
119.819644
20
138.700236
30
0.0
11
119.819644
21
201.945536
31
0.0
0
ARC
8
0
10
119.319644
20
201.945536
30
0.0
40
0.500000
50
360.000000
51
126.529607
0
ARC
8
0
10
116.819644
20
205.320444
30
0.0
40
3.700000
50
218.989299
51
306.529607
0
ARC
8
0
10
114.332401
20
203.307083
30
0.0
40
0.500000
50
120.000000
51
218.989299
0
LINE
8
0
10
114.082401
20
203.740096
30
0.0
11
114.610006
21
204.044709
31
0.0
0
ARC
8
0
10
114.860006
20
203.611696
30
0.0
40
0.500000
50
41.087489
51
120.000000
0
ARC
8
0
10
116.819644
20
205.320444
30
0.0
40
2.100000
50
221.087489
51
252.857143
0
LINE
8
0
10
116.200658
20
203.313741
30
0.0
11
116.112232
21
203.027069
31
0.0
0
ARC
8
0
10
116.819644
20
205.320444
30
0.0
40
2.400000
50
252.857143
51
295.714286
0
LINE
8
0
10
117.860965
20
203.158118
30
0.0
11
117.730800
21
203.428409
31
0.0
0
ARC
8
0
10
116.819644
20
205.320444
30
0.0
40
2.100000
50
295.714286
51
338.571429
0
LINE
8
0
10
118.774479
20
204.553227
30
0.0
11
119.053741
21
204.443625
31
0.0
0
ARC
8
0
10
116.819644
20
205.320444
30
0.0
40
2.400000
50
338.571429
51
21.428571
0
LINE
8
0
10
119.053741
20
206.197262
30
0.0
11
118.774479
21
206.087660
31
0.0
0
ARC
8
0
10
116.819644
20
205.320444
30
0.0
40
2.100000
50
21.428571
51
64.285714
0
LINE
8
0
10
117.730800
20
207.212478
30
0.0
11
117.860965
21
207.482769
31
0.0
0
ARC
8
0
10
116.819644
20
205.320444
30
0.0
40
2.400000
50
64.285714
51
107.142857
0
LINE
8
0
10
116.112232
20
207.613818
30
0.0
11
116.200658
21
207.327147
31
0.0
0
ARC
8
0
10
116.819644
20
205.320444
30
0.0
40
2.100000
50
107.142857
51
138.912511
0
ARC
8
0
10
114.860006
20
207.029191
30
0.0
40
0.500000
50
240.000000
51
318.912511
0
LINE
8
0
10
114.610006
20
206.596179
30
0.0
11
114.082401
21
206.900792
31
0.0
0
ARC
8
0
10
114.332401
20
207.333804
30
0.0
40
0.500000
50
141.010701
51
240.000000
0
ARC
8
0
10
116.819644
20
205.320444
30
0.0
40
3.700000
50
53.470393
51
141.010701
0
ARC
8
0
10
119.319644
20
208.695351
30
0.0
40
0.500000
50
233.470393
51
360.000000
0
LINE
8
0
10
119.819644
20
208.695351
30
0.0
11
119.819644
21
211.118221
31
0.0
0
ARC
8
0
10
118.819644
20
211.118221
30
0.0
40
1.000000
50
360.000000
51
60.000000
0
LINE
8
0
10
119.319644
20
211.984247
30
0.0
11
117.819644
21
212.850272
31
0.0
0
ARC
8
0
10
118.319644
20
213.716297
30
0.0
40
1.000000
50
180.000000
51
240.000000
0
LINE
8
0
10
117.319644
20
213.716297
30
0.0
11
117.319644
21
214.870998
31
0.0
0
ARC
8
0
10
117.519644
20
214.870998
30
0.0
40
0.200000
50
60.000000
51
180.000000
0
LINE
8
0
10
117.619644
20
215.044203
30
0.0
11
119.150029
21
214.160635
31
0.0
0
ARC
8
0
10
119.300029
20
214.420443
30
0.0
40
0.300000
50
240.000000
51
270.000000
0
LINE
8
0
10
119.300029
20
214.120443
30
0.0
11
119.519644
21
214.120443
31
0.0
0
ARC
8
0
10
119.519644
20
214.420443
30
0.0
40
0.300000
50
270.000000
51
360.000000
0
LINE
8
0
10
119.819644
20
214.420443
30
0.0
11
119.819644
21
218.454757
31
0.0
0
ARC
8
0
10
119.719644
20
218.737600
30
0.0
40
0.300000
50
289.471221
51
70.528779
0
LINE
8
0
10
119.819644
20
219.020443
30
0.0
11
119.781363
21
219.020443
31
0.0
0
ARC
8
0
10
119.781363
20
218.420443
30
0.0
40
0.600000
50
90.000000
51
122.401721
0
LINE
8
0
10
119.459851
20
218.927030
30
0.0
11
117.751754
21
217.842967
31
0.0
0
LINE
8
0
10
117.751754
20
217.842967
30
0.0
11
117.763852
21
217.554545
31
0.0
0
ARC
8
0
10
117.564027
20
217.546164
30
0.0
40
0.200000
50
242.401721
51
360.000000
0
LINE
8
0
10
117.471373
20
217.368920
30
0.0
11
117.190303
21
217.515850
31
0.0
0
ARC
8
0
10
117.560919
20
218.224824
30
0.0
40
0.800000
50
197.401721
51
242.401721
0
LINE
8
0
10
116.797533
20
217.985568
30
0.0
11
116.195569
21
219.906237
31
0.0
0
ARC
8
0
10
116.481838
20
219.995958
30
0.0
40
0.300000
50
90.000000
51
197.401721
0
LINE
8
0
10
116.481838
20
220.295958
30
0.0
11
118.032933
21
220.295958
31
0.0
0
ARC
8
0
10
118.034335
20
220.095963
30
0.0
40
0.200000
50
29.632658
51
90.000000
0
ARC
8
0
10
118.468941
20
220.343181
30
0.0
40
0.300000
50
209.632658
51
287.401721
0
LINE
8
0
10
118.558662
20
220.056912
30
0.0
11
119.596108
21
220.330367
31
0.0
0
ARC
8
0
10
119.519644
20
220.620459
30
0.0
40
0.300000
50
284.766462
51
360.000000
0
LINE
8
0
10
65.921861
20
218.528164
30
0.0
11
65.575451
21
218.728164
31
0.0
0
LINE
8
0
10
65.575451
20
218.728164
30
0.0
11
63.221861
21
218.728164
31
0.0
0
ARC
8
0
10
63.221861
20
218.428164
30
0.0
40
0.300000
50
90.000000
51
180.000000
0
LINE
8
0
10
62.921861
20
218.428164
30
0.0
11
62.921861
21
122.227886
31
0.0
0
ARC
8
0
10
63.221861
20
122.227886
30
0.0
40
0.300000
50
180.000000
51
270.000000
0
LINE
8
0
10
63.221861
20
121.927886
30
0.0
11
65.575451
21
121.927886
31
0.0
0
LINE
8
0
10
65.575451
20
121.927886
30
0.0
11
65.921861
21
122.127886
31
0.0
0
LINE
8
0
10
65.921861
20
122.127886
30
0.0
11
70.719644
21
122.127886
31
0.0
0
ARC
8
0
10
70.719644
20
122.427886
30
0.0
40
0.300000
50
270.000000
51
360.000000
0
LINE
8
0
10
71.019644
20
122.427886
30
0.0
11
71.019644
21
218.228164
31
0.0
0
ARC
8
0
10
70.719644
20
218.228164
30
0.0
40
0.300000
50
360.000000
51
90.000000
0
LINE
8
0
10
70.719644
20
218.528164
30
0.0
11
65.921861
21
218.528164
31
0.0
0
LINE
8
0
10
63.904370
20
220.327886
30
0.0
11
73.079780
21
220.327886
31
0.0
0
LINE
8
0
10
73.079780
20
220.327886
30
0.0
11
74.080626
21
220.064078
31
0.0
0
ARC
8
0
10
74.170347
20
220.350347
30
0.0
40
0.300000
50
252.598279
51
330.367342
0
ARC
8
0
10
74.604954
20
220.103128
30
0.0
40
0.200000
50
90.000000
51
150.367342
0
LINE
8
0
10
74.606356
20
220.303123
30
0.0
11
76.157450
21
220.303123
31
0.0
0
ARC
8
0
10
76.157450
20
220.003123
30
0.0
40
0.300000
50
342.598279
51
90.000000
0
LINE
8
0
10
76.443720
20
219.913403
30
0.0
11
75.841755
21
217.992734
31
0.0
0
ARC
8
0
10
75.078370
20
218.231989
30
0.0
40
0.800000
50
297.598279
51
342.598279
0
LINE
8
0
10
75.448986
20
217.523015
30
0.0
11
75.167915
21
217.376086
31
0.0
0
ARC
8
0
10
75.075262
20
217.553330
30
0.0
40
0.200000
50
180.000000
51
297.598279
0
LINE
8
0
10
74.875437
20
217.561711
30
0.0
11
74.887534
21
217.850132
31
0.0
0
LINE
8
0
10
74.887534
20
217.850132
30
0.0
11
73.179437
21
218.934196
31
0.0
0
ARC
8
0
10
72.857926
20
218.427608
30
0.0
40
0.600000
50
57.598279
51
90.000000
0
LINE
8
0
10
72.857926
20
219.027608
30
0.0
11
72.819644
21
219.027608
31
0.0
0
ARC
8
0
10
72.919644
20
218.744766
30
0.0
40
0.300000
50
109.471221
51
250.528779
0
LINE
8
0
10
72.819644
20
218.461923
30
0.0
11
72.819644
21
214.428164
31
0.0
0
ARC
8
0
10
73.119644
20
214.428164
30
0.0
40
0.300000
50
180.000000
51
270.000000
0
LINE
8
0
10
73.119644
20
214.128164
30
0.0
11
73.339260
21
214.128164
31
0.0
0
ARC
8
0
10
73.339260
20
214.428164
30
0.0
40
0.300000
50
270.000000
51
301.373538
0
LINE
8
0
10
73.495444
20
214.172026
30
0.0
11
75.015521
21
215.098922
31
0.0
0
ARC
8
0
10
75.119644
20
214.928164
30
0.0
40
0.200000
50
360.000000
51
121.373538
0
LINE
8
0
10
75.319644
20
214.928164
30
0.0
11
75.319644
21
213.737601
31
0.0
0
ARC
8
0
10
74.319644
20
213.737601
30
0.0
40
1.000000
50
301.373538
51
360.000000
0
LINE
8
0
10
74.840260
20
212.883810
30
0.0
11
73.299029
21
211.944015
31
0.0
0
ARC
8
0
10
73.819644
20
211.090224
30
0.0
40
1.000000
50
121.373539
51
180.000000
0
LINE
8
0
10
72.819644
20
211.090224
30
0.0
11
72.819644
21
129.565549
31
0.0
0
ARC
8
0
10
73.819644
20
129.565549
30
0.0
40
1.000000
50
180.000000
51
238.626461
0
LINE
8
0
10
73.299029
20
128.711757
30
0.0
11
74.840260
21
127.771963
31
0.0
0
ARC
8
0
10
74.319644
20
126.918171
30
0.0
40
1.000000
50
360.000000
51
58.626462
0
LINE
8
0
10
75.319644
20
126.918171
30
0.0
11
75.319644
21
125.727608
31
0.0
0
ARC
8
0
10
75.119644
20
125.727608
30
0.0
40
0.200000
50
238.626462
51
360.000000
0
LINE
8
0
10
75.015521
20
125.556850
30
0.0
11
73.495444
21
126.483746
31
0.0
0
ARC
8
0
10
73.339260
20
126.227608
30
0.0
40
0.300000
50
58.626462
51
90.000000
0
LINE
8
0
10
73.339260
20
126.527608
30
0.0
11
73.119644
21
126.527608
31
0.0
0
ARC
8
0
10
73.119644
20
126.227608
30
0.0
40
0.300000
50
90.000000
51
180.000000
0
LINE
8
0
10
72.819644
20
126.227608
30
0.0
11
72.819644
21
122.193849
31
0.0
0
ARC
8
0
10
72.919644
20
121.911006
30
0.0
40
0.300000
50
109.471227
51
250.528773
0
LINE
8
0
10
72.819644
20
121.628164
30
0.0
11
72.857926
21
121.628164
31
0.0
0
ARC
8
0
10
72.857926
20
122.228164
30
0.0
40
0.600000
50
270.000000
51
302.401721
0
LINE
8
0
10
73.179437
20
121.721577
30
0.0
11
74.887534
21
122.805640
31
0.0
0
LINE
8
0
10
74.887534
20
122.805640
30
0.0
11
74.875437
21
123.094061
31
0.0
0
ARC
8
0
10
75.075262
20
123.102443
30
0.0
40
0.200000
50
62.401721
51
180.000000
0
LINE
8
0
10
75.167915
20
123.279686
30
0.0
11
75.448986
21
123.132757
31
0.0
0
ARC
8
0
10
75.078370
20
122.423783
30
0.0
40
0.800000
50
17.401721
51
62.401721
0
LINE
8
0
10
75.841755
20
122.663038
30
0.0
11
76.443720
21
120.742370
31
0.0
0
ARC
8
0
10
76.157450
20
120.652649
30
0.0
40
0.300000
50
270.000000
51
17.401721
0
LINE
8
0
10
76.157450
20
120.352649
30
0.0
11
74.606356
21
120.352649
31
0.0
0
ARC
8
0
10
74.604954
20
120.552644
30
0.0
40
0.200000
50
209.632658
51
270.000000
0
ARC
8
0
10
74.170347
20
120.305425
30
0.0
40
0.300000
50
29.632658
51
107.401721
0
LINE
8
0
10
74.080626
20
120.591694
30
0.0
11
73.118423
21
120.338072
31
0.0
0
LINE
8
0
10
73.041960
20
120.328164
30
0.0
11
73.118423
21
120.338072
31
0.0
0
LINE
8
0
10
73.041960
20
120.328164
30
0.0
11
63.904370
21
120.328164
31
0.0
0
ARC
8
0
10
63.904370
20
119.328164
30
0.0
40
1.000000
50
90.000000
51
178.989003
0
LINE
8
0
10
62.904526
20
119.345808
30
0.0
11
62.621861
21
103.328164
31
0.0
0
LINE
8
0
10
62.621861
20
103.328164
30
0.0
11
62.621861
21
100.628164
31
0.0
0
ARC
8
0
10
62.921861
20
100.628164
30
0.0
40
0.300000
50
180.000000
51
270.000000
0
LINE
8
0
10
62.921861
20
100.328164
30
0.0
11
64.021861
21
100.328164
31
0.0
0
ARC
8
0
10
64.021861
20
100.628164
30
0.0
40
0.300000
50
270.000000
51
360.000000
0
LINE
8
0
10
64.321861
20
100.628164
30
0.0
11
64.321861
21
101.528164
31
0.0
0
ARC
8
0
10
64.621861
20
101.528164
30
0.0
40
0.300000
50
90.000000
51
180.000000
0
LINE
8
0
10
64.621861
20
101.828164
30
0.0
11
65.021861
21
101.828164
31
0.0
0
ARC
8
0
10
65.021861
20
101.528164
30
0.0
40
0.300000
50
360.000000
51
90.000000
0
LINE
8
0
10
65.321861
20
101.528164
30
0.0
11
65.321861
21
98.528164
31
0.0
0
ARC
8
0
10
64.621861
20
98.528164
30
0.0
40
0.700000
50
270.000000
51
360.000000
0
ARC
8
0
10
64.621861
20
98.128164
30
0.0
40
0.300000
50
180.000000
51
270.000000
0
LINE
8
0
10
64.321861
20
98.128164
30
0.0
11
64.321861
21
98.828164
31
0.0
0
ARC
8
0
10
64.021861
20
98.828164
30
0.0
40
0.300000
50
360.000000
51
90.000000
0
LINE
8
0
10
64.021861
20
99.128164
30
0.0
11
63.121861
21
99.128164
31
0.0
0
ARC
8
0
10
63.121861
20
98.428164
30
0.0
40
0.700000
50
90.000000
51
180.000000
0
LINE
8
0
10
62.421861
20
98.428164
30
0.0
11
62.421861
21
92.228164
31
0.0
0
ARC
8
0
10
63.121861
20
92.228164
30
0.0
40
0.700000
50
180.000000
51
270.000000
0
LINE
8
0
10
63.121861
20
91.528164
30
0.0
11
64.021861
21
91.528164
31
0.0
0
ARC
8
0
10
64.021861
20
91.828164
30
0.0
40
0.300000
50
270.000000
51
360.000000
0
LINE
8
0
10
64.321861
20
91.828164
30
0.0
11
64.321861
21
92.528164
31
0.0
0
ARC
8
0
10
64.621861
20
92.528164
30
0.0
40
0.300000
50
90.000000
51
180.000000
0
ARC
8
0
10
64.621861
20
92.128164
30
0.0
40
0.700000
50
360.000000
51
90.000000
0
LINE
8
0
10
65.321861
20
92.128164
30
0.0
11
65.321861
21
90.628164
31
0.0
0
ARC
8
0
10
65.021861
20
90.628164
30
0.0
40
0.300000
50
270.000000
51
360.000000
0
LINE
8
0
10
65.021861
20
90.328164
30
0.0
11
61.421861
21
90.328164
31
0.0
0
ARC
8
0
10
61.421861
20
90.628164
30
0.0
40
0.300000
50
180.000000
51
270.000000
0
LINE
8
0
10
61.121861
20
90.628164
30
0.0
11
61.121861
21
250.027886
31
0.0
0
ARC
8
0
10
61.421861
20
250.027886
30
0.0
40
0.300000
50
90.000000
51
180.000000
0
LINE
8
0
10
61.421861
20
250.327886
30
0.0
11
65.021861
21
250.327886
31
0.0
0
ARC
8
0
10
65.021861
20
250.027886
30
0.0
40
0.300000
50
360.000000
51
90.000000
0
LINE
8
0
10
65.321861
20
250.027886
30
0.0
11
65.321861
21
248.527886
31
0.0
0
ARC
8
0
10
64.621861
20
248.527886
30
0.0
40
0.700000
50
270.000000
51
360.000000
0
ARC
8
0
10
64.621861
20
248.127886
30
0.0
40
0.300000
50
180.000000
51
270.000000
0
LINE
8
0
10
64.321861
20
248.127886
30
0.0
11
64.321861
21
248.827886
31
0.0
0
ARC
8
0
10
64.021861
20
248.827886
30
0.0
40
0.300000
50
360.000000
51
90.000000
0
LINE
8
0
10
64.021861
20
249.127886
30
0.0
11
63.121861
21
249.127886
31
0.0
0
ARC
8
0
10
63.121861
20
248.427886
30
0.0
40
0.700000
50
90.000000
51
180.000000
0
LINE
8
0
10
62.421861
20
248.427886
30
0.0
11
62.421861
21
242.227886
31
0.0
0
ARC
8
0
10
63.121861
20
242.227886
30
0.0
40
0.700000
50
180.000000
51
270.000000
0
LINE
8
0
10
63.121861
20
241.527886
30
0.0
11
64.021861
21
241.527886
31
0.0
0
ARC
8
0
10
64.021861
20
241.827886
30
0.0
40
0.300000
50
270.000000
51
360.000000
0
LINE
8
0
10
64.321861
20
241.827886
30
0.0
11
64.321861
21
242.527886
31
0.0
0
ARC
8
0
10
64.621861
20
242.527886
30
0.0
40
0.300000
50
90.000000
51
180.000000
0
ARC
8
0
10
64.621861
20
242.127886
30
0.0
40
0.700000
50
360.000000
51
90.000000
0
LINE
8
0
10
65.321861
20
242.127886
30
0.0
11
65.321861
21
239.127886
31
0.0
0
ARC
8
0
10
65.021861
20
239.127886
30
0.0
40
0.300000
50
270.000000
51
360.000000
0
LINE
8
0
10
65.021861
20
238.827886
30
0.0
11
64.621861
21
238.827886
31
0.0
0
ARC
8
0
10
64.621861
20
239.127886
30
0.0
40
0.300000
50
180.000000
51
270.000000
0
LINE
8
0
10
64.321861
20
239.127886
30
0.0
11
64.321861
21
240.027886
31
0.0
0
ARC
8
0
10
64.021861
20
240.027886
30
0.0
40
0.300000
50
360.000000
51
90.000000
0
LINE
8
0
10
64.021861
20
240.327886
30
0.0
11
62.921861
21
240.327886
31
0.0
0
ARC
8
0
10
62.921861
20
240.027886
30
0.0
40
0.300000
50
90.000000
51
180.000000
0
LINE
8
0
10
62.621861
20
240.027886
30
0.0
11
62.621861
21
237.327886
31
0.0
0
LINE
8
0
10
62.621861
20
237.327886
30
0.0
11
62.904526
21
221.310242
31
0.0
0
ARC
8
0
10
63.904370
20
221.327886
30
0.0
40
1.000000
50
181.010997
51
270.000000
0
LINE
8
0
10
121.619644
20
121.925329
30
0.0
11
136.019644
21
121.925329
31
0.0
0
ARC
8
0
10
136.019644
20
122.225329
30
0.0
40
0.300000
50
270.000000
51
360.000000
0
LINE
8
0
10
136.319644
20
122.225329
30
0.0
11
136.319644
21
218.420444
31
0.0
0
ARC
8
0
10
136.019644
20
218.420444
30
0.0
40
0.300000
50
360.000000
51
90.000000
0
LINE
8
0
10
136.019644
20
218.720444
30
0.0
11
121.619644
21
218.720444
31
0.0
0
ARC
8
0
10
121.619644
20
218.420444
30
0.0
40
0.300000
50
90.000000
51
180.000000
0
LINE
8
0
10
121.319644
20
218.420444
30
0.0
11
121.319644
21
204.420444
31
0.0
0
ARC
8
0
10
121.619644
20
204.420444
30
0.0
40
0.300000
50
180.000000
51
270.000000
0
LINE
8
0
10
121.619644
20
204.120444
30
0.0
11
128.819644
21
204.120444
31
0.0
0
ARC
8
0
10
128.819644
20
200.420444
30
0.0
40
3.700000
50
51.317813
51
90.000000
0
ARC
8
0
10
130.819644
20
202.918443
30
0.0
40
0.500000
50
360.000000
51
51.317813
0
LINE
8
0
10
131.319644
20
202.918443
30
0.0
11
131.319644
21
202.152494
31
0.0
0
ARC
8
0
10
130.819644
20
202.152494
30
0.0
40
0.500000
50
300.000000
51
360.000000
0
LINE
8
0
10
131.069644
20
201.719482
30
0.0
11
131.029282
21
201.696179
31
0.0
0
ARC
8
0
10
130.779282
20
202.129191
30
0.0
40
0.500000
50
221.087489
51
300.000000
0
ARC
8
0
10
128.819644
20
200.420444
30
0.0
40
2.100000
50
41.087489
51
72.857143
0
LINE
8
0
10
129.438630
20
202.427147
30
0.0
11
129.527057
21
202.713818
31
0.0
0
ARC
8
0
10
128.819644
20
200.420444
30
0.0
40
2.400000
50
72.857143
51
115.714286
0
LINE
8
0
10
127.778323
20
202.582769
30
0.0
11
127.908489
21
202.312478
31
0.0
0
ARC
8
0
10
128.819644
20
200.420444
30
0.0
40
2.100000
50
115.714286
51
158.571429
0
LINE
8
0
10
126.864809
20
201.187660
30
0.0
11
126.585547
21
201.297262
31
0.0
0
ARC
8
0
10
128.819644
20
200.420444
30
0.0
40
2.400000
50
158.571429
51
201.428571
0
LINE
8
0
10
126.585547
20
199.543625
30
0.0
11
126.864809
21
199.653227
31
0.0
0
ARC
8
0
10
128.819644
20
200.420444
30
0.0
40
2.100000
50
201.428571
51
244.285714
0
LINE
8
0
10
127.908489
20
198.528409
30
0.0
11
127.778323
21
198.258118
31
0.0
0
ARC
8
0
10
128.819644
20
200.420444
30
0.0
40
2.400000
50
244.285714
51
287.142857
0
LINE
8
0
10
129.527057
20
198.127069
30
0.0
11
129.438630
21
198.413741
31
0.0
0
ARC
8
0
10
128.819644
20
200.420444
30
0.0
40
2.100000
50
287.142857
51
318.912511
0
ARC
8
0
10
130.779282
20
198.711696
30
0.0
40
0.500000
50
60.000000
51
138.912511
0
LINE
8
0
10
131.029282
20
199.144709
30
0.0
11
131.069644
21
199.121406
31
0.0
0
ARC
8
0
10
130.819644
20
198.688393
30
0.0
40
0.500000
50
360.000000
51
60.000000
0
LINE
8
0
10
131.319644
20
198.688393
30
0.0
11
131.319644
21
197.922444
31
0.0
0
ARC
8
0
10
130.819644
20
197.922444
30
0.0
40
0.500000
50
308.682187
51
360.000000
0
ARC
8
0
10
128.819644
20
200.420444
30
0.0
40
3.700000
50
161.969465
51
308.682187
0
ARC
8
0
10
124.825899
20
201.720444
30
0.0
40
0.500000
50
341.969465
51
90.000000
0
LINE
8
0
10
124.825899
20
202.220444
30
0.0
11
121.619644
21
202.220444
31
0.0
0
ARC
8
0
10
121.619644
20
201.920444
30
0.0
40
0.300000
50
90.000000
51
180.000000
0
LINE
8
0
10
121.319644
20
201.920444
30
0.0
11
121.319644
21
138.725329
31
0.0
0
ARC
8
0
10
121.619644
20
138.725329
30
0.0
40
0.300000
50
180.000000
51
270.000000
0
LINE
8
0
10
121.619644
20
138.425329
30
0.0
11
124.825899
21
138.425329
31
0.0
0
ARC
8
0
10
124.825899
20
138.925329
30
0.0
40
0.500000
50
270.000000
51
18.030535
0
ARC
8
0
10
128.819644
20
140.225329
30
0.0
40
3.700000
50
51.317813
51
198.030535
0
ARC
8
0
10
130.819644
20
142.723328
30
0.0
40
0.500000
50
360.000000
51
51.317813
0
LINE
8
0
10
131.319644
20
142.723328
30
0.0
11
131.319644
21
141.957379
31
0.0
0
ARC
8
0
10
130.819644
20
141.957379
30
0.0
40
0.500000
50
300.000000
51
360.000000
0
LINE
8
0
10
131.069644
20
141.524367
30
0.0
11
131.029282
21
141.501064
31
0.0
0
ARC
8
0
10
130.779282
20
141.934076
30
0.0
40
0.500000
50
221.087489
51
300.000000
0
ARC
8
0
10
128.819644
20
140.225329
30
0.0
40
2.100000
50
41.087489
51
72.857143
0
LINE
8
0
10
129.438630
20
142.232031
30
0.0
11
129.527057
21
142.518703
31
0.0
0
ARC
8
0
10
128.819644
20
140.225329
30
0.0
40
2.400000
50
72.857143
51
115.714286
0
LINE
8
0
10
127.778323
20
142.387654
30
0.0
11
127.908489
21
142.117363
31
0.0
0
ARC
8
0
10
128.819644
20
140.225329
30
0.0
40
2.100000
50
115.714286
51
158.571429
0
LINE
8
0
10
126.864809
20
140.992545
30
0.0
11
126.585547
21
141.102147
31
0.0
0
ARC
8
0
10
128.819644
20
140.225329
30
0.0
40
2.400000
50
158.571429
51
201.428571
0
LINE
8
0
10
126.585547
20
139.348510
30
0.0
11
126.864809
21
139.458112
31
0.0
0
ARC
8
0
10
128.819644
20
140.225329
30
0.0
40
2.100000
50
201.428571
51
244.285714
0
LINE
8
0
10
127.908489
20
138.333294
30
0.0
11
127.778323
21
138.063003
31
0.0
0
ARC
8
0
10
128.819644
20
140.225329
30
0.0
40
2.400000
50
244.285714
51
287.142857
0
LINE
8
0
10
129.527057
20
137.931954
30
0.0
11
129.438630
21
138.218626
31
0.0
0
ARC
8
0
10
128.819644
20
140.225329
30
0.0
40
2.100000
50
287.142857
51
318.912511
0
ARC
8
0
10
130.779282
20
138.516581
30
0.0
40
0.500000
50
60.000000
51
138.912511
0
LINE
8
0
10
131.029282
20
138.949594
30
0.0
11
131.069644
21
138.926290
31
0.0
0
ARC
8
0
10
130.819644
20
138.493278
30
0.0
40
0.500000
50
360.000000
51
60.000000
0
LINE
8
0
10
131.319644
20
138.493278
30
0.0
11
131.319644
21
137.727329
31
0.0
0
ARC
8
0
10
130.819644
20
137.727329
30
0.0
40
0.500000
50
308.682187
51
360.000000
0
ARC
8
0
10
128.819644
20
140.225329
30
0.0
40
3.700000
50
270.000000
51
308.682187
0
LINE
8
0
10
128.819644
20
136.525329
30
0.0
11
121.619644
21
136.525329
31
0.0
0
ARC
8
0
10
121.619644
20
136.225329
30
0.0
40
0.300000
50
90.000000
51
180.000000
0
LINE
8
0
10
121.319644
20
136.225329
30
0.0
11
121.319644
21
122.225329
31
0.0
0
ARC
8
0
10
121.619644
20
122.225329
30
0.0
40
0.300000
50
180.000000
51
270.000000
0
ARC
8
0
10
94.156994
20
223.520444
30
0.0
40
0.300000
50
90.000000
51
180.000000
0
LINE
8
0
10
93.856994
20
217.082127
30
0.0
11
93.856994
21
223.520444
31
0.0
0
LINE
8
0
10
94.156994
20
223.820444
30
0.0
11
96.869644
21
223.820444
31
0.0
0
ARC
8
0
10
94.356994
20
217.082127
30
0.0
40
0.500000
50
180.000000
51
270.000000
0
ARC
8
0
10
96.869644
20
224.120444
30
0.0
40
0.300000
50
270.000000
51
360.000000
0
LINE
8
0
10
99.588319
20
216.582127
30
0.0
11
94.356994
21
216.582127
31
0.0
0
LINE
8
0
10
97.169644
20
224.120444
30
0.0
11
97.169644
21
224.446180
31
0.0
0
LINE
8
0
10
99.788319
20
216.382127
30
0.0
11
99.588319
21
216.582127
31
0.0
0
ARC
8
0
10
96.869644
20
224.446180
30
0.0
40
0.300000
50
360.000000
51
45.000000
0
LINE
8
0
10
99.988319
20
216.582127
30
0.0
11
99.788319
21
216.382127
31
0.0
0
LINE
8
0
10
97.081776
20
224.658312
30
0.0
11
96.507512
21
225.232576
31
0.0
0
LINE
8
0
10
105.219644
20
216.582127
30
0.0
11
99.988319
21
216.582127
31
0.0
0
ARC
8
0
10
96.295380
20
225.020444
30
0.0
40
0.300000
50
45.000000
51
90.000000
0
ARC
8
0
10
105.219644
20
217.082127
30
0.0
40
0.500000
50
270.000000
51
360.000000
0
LINE
8
0
10
96.295380
20
225.320444
30
0.0
11
92.031258
21
225.320444
31
0.0
0
LINE
8
0
10
105.719644
20
223.520444
30
0.0
11
105.719644
21
217.082127
31
0.0
0
ARC
8
0
10
92.031258
20
225.020444
30
0.0
40
0.300000
50
90.000000
51
135.000000
0
ARC
8
0
10
105.419644
20
223.520444
30
0.0
40
0.300000
50
360.000000
51
90.000000
0
LINE
8
0
10
91.819126
20
225.232576
30
0.0
11
91.244862
21
224.658312
31
0.0
0
LINE
8
0
10
103.169644
20
223.820444
30
0.0
11
105.419644
21
223.820444
31
0.0
0
ARC
8
0
10
91.456994
20
224.446180
30
0.0
40
0.300000
50
135.000000
51
180.000000
0
ARC
8
0
10
103.169644
20
224.120444
30
0.0
40
0.300000
50
180.000000
51
270.000000
0
LINE
8
0
10
91.156994
20
224.446180
30
0.0
11
91.156994
21
224.120444
31
0.0
0
LINE
8
0
10
102.869644
20
224.446180
30
0.0
11
102.869644
21
224.120444
31
0.0
0
ARC
8
0
10
91.456994
20
224.120444
30
0.0
40
0.300000
50
180.000000
51
270.000000
0
ARC
8
0
10
103.169644
20
224.446180
30
0.0
40
0.300000
50
135.000000
51
180.000000
0
LINE
8
0
10
91.456994
20
223.820444
30
0.0
11
92.056994
21
223.820444
31
0.0
0
LINE
8
0
10
103.531776
20
225.232576
30
0.0
11
102.957512
21
224.658312
31
0.0
0
ARC
8
0
10
92.056994
20
223.520444
30
0.0
40
0.300000
50
360.000000
51
90.000000
0
ARC
8
0
10
103.743908
20
225.020444
30
0.0
40
0.300000
50
90.000000
51
135.000000
0
LINE
8
0
10
92.356994
20
223.520444
30
0.0
11
92.356994
21
220.820444
31
0.0
0
LINE
8
0
10
106.719644
20
225.320444
30
0.0
11
103.743908
21
225.320444
31
0.0
0
ARC
8
0
10
91.856994
20
220.820444
30
0.0
40
0.500000
50
270.000000
51
360.000000
0
ARC
8
0
10
106.719644
20
224.820444
30
0.0
40
0.500000
50
360.000000
51
90.000000
0
LINE
8
0
10
91.856994
20
220.320444
30
0.0
11
84.756994
21
220.320444
31
0.0
0
LINE
8
0
10
107.219644
20
220.820766
30
0.0
11
107.219644
21
224.820444
31
0.0
0
ARC
8
0
10
84.756994
20
220.820444
30
0.0
40
0.500000
50
180.000000
51
270.000000
0
ARC
8
0
10
107.719644
20
220.820766
30
0.0
40
0.500000
50
180.000000
51
270.000000
0
LINE
8
0
10
84.256994
20
220.820444
30
0.0
11
84.256994
21
223.520444
31
0.0
0
LINE
8
0
10
115.041367
20
220.320766
30
0.0
11
107.719644
21
220.320766
31
0.0
0
ARC
8
0
10
84.556994
20
223.520444
30
0.0
40
0.300000
50
90.000000
51
180.000000
0
ARC
8
0
10
115.041367
20
219.820766
30
0.0
40
0.500000
50
20.000000
51
90.000000
0
LINE
8
0
10
84.556994
20
223.820444
30
0.0
11
85.156994
21
223.820444
31
0.0
0
LINE
8
0
10
116.363757
20
217.649434
30
0.0
11
115.511213
21
219.991776
31
0.0
0
ARC
8
0
10
85.156994
20
224.120444
30
0.0
40
0.300000
50
270.000000
51
360.000000
0
ARC
8
0
10
116.833603
20
217.820444
30
0.0
40
0.500000
50
200.000000
51
270.000000
0
LINE
8
0
10
85.456994
20
224.120444
30
0.0
11
85.456994
21
224.446180
31
0.0
0
LINE
8
0
10
117.104978
20
217.320444
30
0.0
11
116.833603
21
217.320444
31
0.0
0
ARC
8
0
10
85.156994
20
224.446180
30
0.0
40
0.300000
50
360.000000
51
45.000000
0
ARC
8
0
10
117.104978
20
218.520444
30
0.0
40
1.200000
50
270.000000
51
299.981639
0
LINE
8
0
10
85.369126
20
224.658312
30
0.0
11
84.794862
21
225.232576
31
0.0
0
LINE
8
0
10
119.113255
20
218.293681
30
0.0
11
117.704645
21
217.481021
31
0.0
0
ARC
8
0
10
84.582730
20
225.020444
30
0.0
40
0.300000
50
45.000000
51
90.000000
0
ARC
8
0
10
119.213200
20
218.120444
30
0.0
40
0.200000
50
90.000000
51
119.981639
0
LINE
8
0
10
84.582730
20
225.320444
30
0.0
11
83.356994
21
225.320444
31
0.0
0
LINE
8
0
10
119.419644
20
218.320444
30
0.0
11
119.213200
21
218.320444
31
0.0
0
ARC
8
0
10
83.356994
20
224.820444
30
0.0
40
0.500000
50
90.000000
51
180.000000
0
ARC
8
0
10
119.419644
20
217.920444
30
0.0
40
0.400000
50
360.000000
51
90.000000
0
LINE
8
0
10
82.856994
20
224.820444
30
0.0
11
82.856994
21
220.820444
31
0.0
0
LINE
8
0
10
119.819644
20
217.493649
30
0.0
11
119.819644
21
217.920444
31
0.0
0
ARC
8
0
10
82.356994
20
220.820444
30
0.0
40
0.500000
50
270.000000
51
360.000000
0
ARC
8
0
10
119.619644
20
217.493649
30
0.0
40
0.200000
50
300.000000
51
360.000000
0
LINE
8
0
10
82.356994
20
220.320444
30
0.0
11
77.597675
21
220.320444
31
0.0
0
LINE
8
0
10
119.719644
20
216.945444
30
0.0
11
119.719644
21
217.320444
31
0.0
0
ARC
8
0
10
77.597675
20
219.820444
30
0.0
40
0.500000
50
90.000000
51
160.000000
0
ARC
8
0
10
119.519644
20
216.945444
30
0.0
40
0.200000
50
270.000000
51
360.000000
0
LINE
8
0
10
77.127829
20
219.991454
30
0.0
11
76.275403
21
217.649434
31
0.0
0
LINE
8
0
10
119.407838
20
216.745444
30
0.0
11
119.519644
21
216.745444
31
0.0
0
ARC
8
0
10
75.805557
20
217.820444
30
0.0
40
0.500000
50
270.000000
51
340.000000
0
LINE
8
0
10
119.323290
20
216.764194
30
0.0
11
119.407838
21
216.745444
31
0.0
0
LINE
8
0
10
75.805557
20
217.320444
30
0.0
11
75.534311
21
217.320444
31
0.0
0
ARC
8
0
10
119.069644
20
216.220444
30
0.0
40
0.600000
50
64.992167
51
180.000000
0
ARC
8
0
10
75.534311
20
218.520444
30
0.0
40
1.200000
50
240.018361
51
270.000000
0
ARC
8
0
10
119.069644
20
216.220444
30
0.0
40
0.600000
50
180.000000
51
295.007833
0
LINE
8
0
10
74.934644
20
217.481021
30
0.0
11
73.526033
21
218.293681
31
0.0
0
LINE
8
0
10
119.407838
20
215.695444
30
0.0
11
119.323290
21
215.676694
31
0.0
0
ARC
8
0
10
73.426089
20
218.120444
30
0.0
40
0.200000
50
60.018361
51
90.000000
0
LINE
8
0
10
119.519644
20
215.695444
30
0.0
11
119.407838
21
215.695444
31
0.0
0
LINE
8
0
10
73.426089
20
218.320444
30
0.0
11
73.219644
21
218.320444
31
0.0
0
ARC
8
0
10
119.519644
20
215.495444
30
0.0
40
0.200000
50
360.000000
51
90.000000
0
ARC
8
0
10
73.219644
20
217.920444
30
0.0
40
0.400000
50
90.000000
51
180.000000
0
LINE
8
0
10
119.719644
20
215.120444
30
0.0
11
119.719644
21
215.495444
31
0.0
0
LINE
8
0
10
72.819644
20
217.920444
30
0.0
11
72.819644
21
217.493649
31
0.0
0
ARC
8
0
10
119.619644
20
214.947239
30
0.0
40
0.200000
50
360.000000
51
60.000000
0
ARC
8
0
10
73.019644
20
217.493649
30
0.0
40
0.200000
50
180.000000
51
240.000000
0
LINE
8
0
10
119.819644
20
214.520444
30
0.0
11
119.819644
21
214.947239
31
0.0
0
LINE
8
0
10
72.919644
20
217.320444
30
0.0
11
72.919644
21
216.945444
31
0.0
0
ARC
8
0
10
119.419644
20
214.520444
30
0.0
40
0.400000
50
270.000000
51
360.000000
0
ARC
8
0
10
73.119644
20
216.945444
30
0.0
40
0.200000
50
180.000000
51
270.000000
0
LINE
8
0
10
119.213200
20
214.120444
30
0.0
11
119.419644
21
214.120444
31
0.0
0
LINE
8
0
10
73.119644
20
216.745444
30
0.0
11
73.231451
21
216.745444
31
0.0
0
ARC
8
0
10
119.213200
20
214.320444
30
0.0
40
0.200000
50
240.018361
51
270.000000
0
LINE
8
0
10
73.231451
20
216.745444
30
0.0
11
73.315999
21
216.764194
31
0.0
0
LINE
8
0
10
117.704645
20
214.959866
30
0.0
11
119.113255
21
214.147206
31
0.0
0
ARC
8
0
10
73.569644
20
216.220444
30
0.0
40
0.600000
50
360.000000
51
115.007833
0
ARC
8
0
10
117.104978
20
213.920444
30
0.0
40
1.200000
50
60.018361
51
90.000000
0
ARC
8
0
10
73.569644
20
216.220444
30
0.0
40
0.600000
50
244.992167
51
360.000000
0
LINE
8
0
10
115.643250
20
215.120444
30
0.0
11
117.104978
21
215.120444
31
0.0
0
LINE
8
0
10
73.315999
20
215.676694
30
0.0
11
73.231451
21
215.695444
31
0.0
0
ARC
8
0
10
115.643250
20
216.120444
30
0.0
40
1.000000
50
200.000000
51
270.000000
0
LINE
8
0
10
73.231451
20
215.695444
30
0.0
11
73.119644
21
215.695444
31
0.0
0
LINE
8
0
10
114.293587
20
216.904807
30
0.0
11
114.703557
21
215.778423
31
0.0
0
ARC
8
0
10
73.119644
20
215.495444
30
0.0
40
0.200000
50
90.000000
51
180.000000
0
ARC
8
0
10
112.414202
20
216.220766
30
0.0
40
2.000000
50
20.000000
51
90.000000
0
LINE
8
0
10
72.919644
20
215.495444
30
0.0
11
72.919644
21
215.120444
31
0.0
0
LINE
8
0
10
108.319644
20
218.220766
30
0.0
11
112.414202
21
218.220766
31
0.0
0
ARC
8
0
10
73.019644
20
214.947239
30
0.0
40
0.200000
50
120.000000
51
180.000000
0
ARC
8
0
10
108.319644
20
217.720766
30
0.0
40
0.500000
50
90.000000
51
180.000000
0
LINE
8
0
10
72.819644
20
214.947239
30
0.0
11
72.819644
21
214.520444
31
0.0
0
LINE
8
0
10
107.819644
20
193.716796
30
0.0
11
107.819644
21
217.720766
31
0.0
0
ARC
8
0
10
73.219644
20
214.520444
30
0.0
40
0.400000
50
180.000000
51
270.000000
0
ARC
8
0
10
107.519644
20
193.716796
30
0.0
40
0.300000
50
270.000000
51
360.000000
0
LINE
8
0
10
73.219644
20
214.120444
30
0.0
11
73.426089
21
214.120444
31
0.0
0
LINE
8
0
10
107.019644
20
193.416796
30
0.0
11
107.519644
21
193.416796
31
0.0
0
ARC
8
0
10
73.426089
20
214.320444
30
0.0
40
0.200000
50
270.000000
51
299.981639
0
ARC
8
0
10
107.019644
20
193.716796
30
0.0
40
0.300000
50
180.000000
51
270.000000
0
LINE
8
0
10
73.526033
20
214.147206
30
0.0
11
74.934644
21
214.959866
31
0.0
0
LINE
8
0
10
106.719644
20
213.982127
30
0.0
11
106.719644
21
193.716796
31
0.0
0
ARC
8
0
10
75.534311
20
213.920444
30
0.0
40
1.200000
50
90.000000
51
119.981639
0
ARC
8
0
10
106.219644
20
213.982127
30
0.0
40
0.500000
50
360.000000
51
90.000000
0
LINE
8
0
10
75.534311
20
215.120444
30
0.0
11
76.995910
21
215.120444
31
0.0
0
LINE
8
0
10
94.156994
20
214.482127
30
0.0
11
106.219644
21
214.482127
31
0.0
0
ARC
8
0
10
76.995910
20
216.120444
30
0.0
40
1.000000
50
270.000000
51
340.000000
0
ARC
8
0
10
94.156994
20
213.982127
30
0.0
40
0.500000
50
90.000000
51
180.000000
0
LINE
8
0
10
77.935603
20
215.778423
30
0.0
11
78.345455
21
216.904484
31
0.0
0
LINE
8
0
10
93.656994
20
211.720444
30
0.0
11
93.656994
21
213.982127
31
0.0
0
ARC
8
0
10
80.224840
20
216.220444
30
0.0
40
2.000000
50
90.000000
51
160.000000
0
ARC
8
0
10
93.356994
20
211.720444
30
0.0
40
0.300000
50
270.000000
51
360.000000
0
LINE
8
0
10
80.224840
20
218.220444
30
0.0
11
81.319644
21
218.220444
31
0.0
0
LINE
8
0
10
92.056994
20
211.420444
30
0.0
11
93.356994
21
211.420444
31
0.0
0
ARC
8
0
10
81.319644
20
217.720444
30
0.0
40
0.500000
50
360.000000
51
90.000000
0
ARC
8
0
10
92.056994
20
211.720444
30
0.0
40
0.300000
50
180.000000
51
270.000000
0
LINE
8
0
10
81.819644
20
217.720444
30
0.0
11
81.819644
21
193.716796
31
0.0
0
LINE
8
0
10
91.756994
20
217.720444
30
0.0
11
91.756994
21
211.720444
31
0.0
0
ARC
8
0
10
82.119644
20
193.716796
30
0.0
40
0.300000
50
180.000000
51
270.000000
0
ARC
8
0
10
91.256994
20
217.720444
30
0.0
40
0.500000
50
360.000000
51
90.000000
0
LINE
8
0
10
82.119644
20
193.416796
30
0.0
11
82.619644
21
193.416796
31
0.0
0
LINE
8
0
10
83.419644
20
218.220444
30
0.0
11
91.256994
21
218.220444
31
0.0
0
ARC
8
0
10
82.619644
20
193.716796
30
0.0
40
0.300000
50
270.000000
51
360.000000
0
ARC
8
0
10
83.419644
20
217.720444
30
0.0
40
0.500000
50
90.000000
51
180.000000
0
LINE
8
0
10
82.919644
20
193.716796
30
0.0
11
82.919644
21
217.720444
31
0.0
0
ARC
8
0
10
115.041613
20
120.817801
30
0.0
40
0.500000
50
270.000000
51
340.000000
0
LINE
8
0
10
115.041613
20
120.317801
30
0.0
11
77.597675
21
120.317801
31
0.0
0
LINE
8
0
10
116.345686
20
122.938811
30
0.0
11
115.511459
21
120.646791
31
0.0
0
ARC
8
0
10
77.597675
20
120.817801
30
0.0
40
0.500000
50
200.000000
51
270.000000
0
ARC
8
0
10
116.815532
20
122.767801
30
0.0
40
0.500000
50
90.000000
51
160.000000
0
LINE
8
0
10
77.127828
20
120.646791
30
0.0
11
76.293601
21
122.938811
31
0.0
0
LINE
8
0
10
117.192656
20
123.267801
30
0.0
11
116.815532
21
123.267801
31
0.0
0
ARC
8
0
10
75.823755
20
122.767801
30
0.0
40
0.500000
50
20.000000
51
90.000000
0
ARC
8
0
10
117.192656
20
122.067801
30
0.0
40
1.200000
50
60.000000
51
90.000000
0
LINE
8
0
10
75.823755
20
123.267801
30
0.0
11
75.446631
21
123.267801
31
0.0
0
LINE
8
0
10
119.113233
20
122.344596
30
0.0
11
117.792656
21
123.107031
31
0.0
0
ARC
8
0
10
75.446631
20
122.067801
30
0.0
40
1.200000
50
90.000000
51
120.000000
0
ARC
8
0
10
119.213233
20
122.517801
30
0.0
40
0.200000
50
240.000000
51
270.000000
0
LINE
8
0
10
74.846631
20
123.107031
30
0.0
11
73.526054
21
122.344596
31
0.0
0
LINE
8
0
10
119.419644
20
122.317801
30
0.0
11
119.213233
21
122.317801
31
0.0
0
ARC
8
0
10
73.426054
20
122.517801
30
0.0
40
0.200000
50
270.000000
51
300.000000
0
ARC
8
0
10
119.419644
20
122.717801
30
0.0
40
0.400000
50
270.000000
51
360.000000
0
LINE
8
0
10
73.426054
20
122.317801
30
0.0
11
73.219644
21
122.317801
31
0.0
0
LINE
8
0
10
119.819644
20
123.144596
30
0.0
11
119.819644
21
122.717801
31
0.0
0
ARC
8
0
10
73.219644
20
122.717801
30
0.0
40
0.400000
50
180.000000
51
270.000000
0
ARC
8
0
10
119.619644
20
123.144596
30
0.0
40
0.200000
50
360.000000
51
60.000000
0
LINE
8
0
10
72.819644
20
122.717801
30
0.0
11
72.819644
21
123.144596
31
0.0
0
LINE
8
0
10
119.719644
20
123.692801
30
0.0
11
119.719644
21
123.317801
31
0.0
0
ARC
8
0
10
73.019644
20
123.144596
30
0.0
40
0.200000
50
120.000000
51
180.000000
0
ARC
8
0
10
119.519644
20
123.692801
30
0.0
40
0.200000
50
360.000000
51
90.000000
0
LINE
8
0
10
72.919644
20
123.317801
30
0.0
11
72.919644
21
123.692801
31
0.0
0
LINE
8
0
10
119.407837
20
123.892801
30
0.0
11
119.519644
21
123.892801
31
0.0
0
ARC
8
0
10
73.119644
20
123.692801
30
0.0
40
0.200000
50
90.000000
51
180.000000
0
LINE
8
0
10
119.407837
20
123.892801
30
0.0
11
119.323289
21
123.874051
31
0.0
0
LINE
8
0
10
73.119644
20
123.892801
30
0.0
11
73.231450
21
123.892801
31
0.0
0
ARC
8
0
10
119.069644
20
124.417801
30
0.0
40
0.600000
50
64.992167
51
295.007833
0
LINE
8
0
10
73.315998
20
123.874051
30
0.0
11
73.231450
21
123.892801
31
0.0
0
LINE
8
0
10
119.323289
20
124.961551
30
0.0
11
119.407837
21
124.942801
31
0.0
0
ARC
8
0
10
73.569644
20
124.417801
30
0.0
40
0.600000
50
244.992167
51
115.007833
0
LINE
8
0
10
119.519644
20
124.942801
30
0.0
11
119.407837
21
124.942801
31
0.0
0
LINE
8
0
10
73.231450
20
124.942801
30
0.0
11
73.315998
21
124.961551
31
0.0
0
ARC
8
0
10
119.519644
20
125.142801
30
0.0
40
0.200000
50
270.000000
51
360.000000
0
LINE
8
0
10
73.231450
20
124.942801
30
0.0
11
73.119644
21
124.942801
31
0.0
0
LINE
8
0
10
119.719644
20
125.517801
30
0.0
11
119.719644
21
125.142801
31
0.0
0
ARC
8
0
10
73.119644
20
125.142801
30
0.0
40
0.200000
50
180.000000
51
270.000000
0
ARC
8
0
10
119.619644
20
125.691006
30
0.0
40
0.200000
50
300.000000
51
360.000000
0
LINE
8
0
10
72.919644
20
125.142801
30
0.0
11
72.919644
21
125.517801
31
0.0
0
LINE
8
0
10
119.819644
20
126.117801
30
0.0
11
119.819644
21
125.691006
31
0.0
0
ARC
8
0
10
73.019644
20
125.691006
30
0.0
40
0.200000
50
180.000000
51
240.000000
0
ARC
8
0
10
119.419644
20
126.117801
30
0.0
40
0.400000
50
360.000000
51
90.000000
0
LINE
8
0
10
72.819644
20
125.691006
30
0.0
11
72.819644
21
126.117801
31
0.0
0
LINE
8
0
10
119.213233
20
126.517801
30
0.0
11
119.419644
21
126.517801
31
0.0
0
ARC
8
0
10
73.219644
20
126.117801
30
0.0
40
0.400000
50
90.000000
51
180.000000
0
ARC
8
0
10
119.213233
20
126.317801
30
0.0
40
0.200000
50
90.000000
51
120.000000
0
LINE
8
0
10
73.219644
20
126.517801
30
0.0
11
73.426054
21
126.517801
31
0.0
0
LINE
8
0
10
117.619451
20
125.628570
30
0.0
11
119.113233
21
126.491006
31
0.0
0
ARC
8
0
10
73.426054
20
126.317801
30
0.0
40
0.200000
50
60.000000
51
90.000000
0
ARC
8
0
10
117.019451
20
126.667801
30
0.0
40
1.200000
50
270.000000
51
300.000000
0
LINE
8
0
10
73.526054
20
126.491006
30
0.0
11
75.019836
21
125.628570
31
0.0
0
LINE
8
0
10
115.625179
20
125.467801
30
0.0
11
117.019451
21
125.467801
31
0.0
0
ARC
8
0
10
75.619836
20
126.667801
30
0.0
40
1.200000
50
240.000000
51
270.000000
0
ARC
8
0
10
115.625179
20
124.467801
30
0.0
40
1.000000
50
90.000000
51
160.000000
0
LINE
8
0
10
75.619836
20
125.467801
30
0.0
11
77.014108
21
125.467801
31
0.0
0
LINE
8
0
10
114.293833
20
123.733761
30
0.0
11
114.685487
21
124.809821
31
0.0
0
ARC
8
0
10
77.014108
20
124.467801
30
0.0
40
1.000000
50
20.000000
51
90.000000
0
ARC
8
0
10
112.414448
20
124.417801
30
0.0
40
2.000000
50
270.000000
51
340.000000
0
LINE
8
0
10
77.953800
20
124.809821
30
0.0
11
78.345454
21
123.733761
31
0.0
0
LINE
8
0
10
109.919644
20
122.417801
30
0.0
11
112.414448
21
122.417801
31
0.0
0
ARC
8
0
10
80.224840
20
124.417801
30
0.0
40
2.000000
50
200.000000
51
270.000000
0
ARC
8
0
10
109.919644
20
122.917801
30
0.0
40
0.500000
50
180.000000
51
270.000000
0
LINE
8
0
10
80.224840
20
122.417801
30
0.0
11
82.719644
21
122.417801
31
0.0
0
LINE
8
0
10
109.419644
20
148.421448
30
0.0
11
109.419644
21
122.917801
31
0.0
0
ARC
8
0
10
82.719644
20
122.917801
30
0.0
40
0.500000
50
270.000000
51
360.000000
0
ARC
8
0
10
109.119644
20
148.421448
30
0.0
40
0.300000
50
360.000000
51
90.000000
0
LINE
8
0
10
83.219644
20
122.917801
30
0.0
11
83.219644
21
148.421448
31
0.0
0
LINE
8
0
10
108.619644
20
148.721448
30
0.0
11
109.119644
21
148.721448
31
0.0
0
ARC
8
0
10
83.519644
20
148.421448
30
0.0
40
0.300000
50
90.000000
51
180.000000
0
ARC
8
0
10
108.619644
20
148.421448
30
0.0
40
0.300000
50
90.000000
51
180.000000
0
LINE
8
0
10
83.519644
20
148.721448
30
0.0
11
84.019644
21
148.721448
31
0.0
0
LINE
8
0
10
108.319644
20
122.917801
30
0.0
11
108.319644
21
148.421448
31
0.0
0
ARC
8
0
10
84.019644
20
148.421448
30
0.0
40
0.300000
50
360.000000
51
90.000000
0
ARC
8
0
10
107.819644
20
122.917801
30
0.0
40
0.500000
50
270.000000
51
360.000000
0
LINE
8
0
10
84.319644
20
148.421448
30
0.0
11
84.319644
21
122.917801
31
0.0
0
LINE
8
0
10
84.819644
20
122.417801
30
0.0
11
107.819644
21
122.417801
31
0.0
0
ARC
8
0
10
84.819644
20
122.917801
30
0.0
40
0.500000
50
180.000000
51
270.000000
0
ATTDEF
8
0
10
121.194367
20
225.320444
30
0.0
40
3.5
1

3

2
VC_START
70
0
0
ATTDEF
8
0
10
63.221861
20
90.328164
30
0.0
40
3.5
1

3

2
VC_END
70
0
0
ATTDEF
8
0
10
61.121861
20
90.328164
30
0.0
40
3.5
1

3

2
DESC:Zoccolo
70
0
0
ATTDEF
8
0
10
61.121861
20
90.328164
30
0.0
40
3.5
1

3

2
DENS:3.490000
70
0
0
ATTDEF
8
0
10
61.121861
20
90.328164
30
0.0
40
3.5
1

3

2
TDEV:0.000000
70
0
0
ATTDEF
8
0
10
61.121861
20
90.328164
30
0.0
40
3.5
1

3

2
TDEV2:0.000000
70
0
0
ATTDEF
8
0
10
61.121861
20
90.328164
30
0.0
40
3.5
1

3

2
TDEV3:0.000000
70
0
0
ATTDEF
8
0
10
61.121861
20
90.328164
30
0.0
40
3.5
1

3

2
TDEV4:0.000000
70
0
0
ATTDEF
8
0
10
61.121861
20
90.328164
30
0.0
40
3.5
1

3

2
TDEV5:0.000000
70
0
0
ATTDEF
8
0
10
61.121861
20
90.328164
30
0.0
40
3.5
1

3

2
FRONT_VIEW
70
0
0
ATTDEF
8
0
10
61.121861
20
90.328164
30
0.0
40
3.5
1

3

2
BL01:6800.000000,,1
70
0
0
ATTDEF
8
0
10
61.121861
20
90.328164
30
0.0
40
3.5
1

3

2
OPTI:500.000000,1,0,3000.000000,6500.000000,500.000000,0,0.000000,0
70
0
0
ATTDEF
8
0
10
61.121861
20
90.328164
30
0.0
40
3.5
1

3

2
GLASS_MIN:0.000000
70
0
0
ATTDEF
8
0
10
61.121861
20
90.328164
30
0.0
40
3.5
1

3

2
GLASS_MAX:0.000000
70
0
0
ATTDEF
8
0
10
61.121861
20
90.328164
30
0.0
40
3.5
1

3

2
JX:0.000000
70
0
0
ATTDEF
8
0
10
61.121861
20
90.328164
30
0.0
40
3.5
1

3

2
WX:0.000000
70
0
0
ATTDEF
8
0
10
61.121861
20
90.328164
30
0.0
40
3.5
1

3

2
JY:0.000000
70
0
0
ATTDEF
8
0
10
61.121861
20
90.328164
30
0.0
40
3.5
1

3

2
WY:0.000000
70
0
0
ATTDEF
8
0
10
61.121861
20
90.328164
30
0.0
40
3.5
1

3

2
FP_LCS_ORIG
70
0
0
ATTDEF
8
0
10
71.121861
20
90.328164
30
0.0
40
3.5
1

3

2
FP_LCS_HOT
70
0
0
ATTDEF
8
0
10
61.121861
20
100.328164
30
0.0
40
3.5
1

3

2
FP_LCS_INTERN
70
0
0
ATTDEF
8
0
10
61.121861
20
90.328164
30
0.0
40
3.5
1

3

2
PANE_WIDTH:72.000000
70
0
0
ENDSEC
0
EOF
