0
SECTION
2
ENTITIES
0
ARC
8
0
10
159.427477
20
150.505506
30
0.0
40
0.300000
50
289.471221
51
87.528779
0
LINE
8
0
10
159.527477
20
150.222663
30
0.0
11
159.527477
21
146.188349
31
0.0
0
ARC
8
0
10
159.227477
20
146.188349
30
0.0
40
0.300000
50
270.000000
51
0.000000
0
LINE
8
0
10
159.227477
20
145.888349
30
0.0
11
159.007862
21
145.888349
31
0.0
0
ARC
8
0
10
159.007862
20
146.188349
30
0.0
40
0.300000
50
240.000000
51
270.000000
0
LINE
8
0
10
158.857862
20
145.928541
30
0.0
11
157.327477
21
146.812109
31
0.0
0
ARC
8
0
10
157.227477
20
146.638904
30
0.0
40
0.200000
50
60.000000
51
180.000000
0
LINE
8
0
10
157.027477
20
146.638904
30
0.0
11
157.027477
21
145.484203
31
0.0
0
ARC
8
0
10
158.027477
20
145.484203
30
0.0
40
1.000000
50
180.000000
51
239.999999
0
LINE
8
0
10
157.527477
20
144.618178
30
0.0
11
158.977219
21
143.781169
31
0.0
0
ARC
8
0
10
158.577219
20
143.088349
30
0.0
40
0.800000
50
299.999999
51
59.999999
0
LINE
8
0
10
158.977219
20
142.395528
30
0.0
11
157.527477
21
141.558519
31
0.0
0
ARC
8
0
10
158.027477
20
140.692494
30
0.0
40
1.000000
50
119.999999
51
180.000000
0
LINE
8
0
10
157.027477
20
140.692494
30
0.0
11
157.027477
21
139.537793
31
0.0
0
ARC
8
0
10
157.227477
20
139.537793
30
0.0
40
0.200000
50
180.000000
51
300.000000
0
LINE
8
0
10
157.327477
20
139.364588
30
0.0
11
158.857862
21
140.248156
31
0.0
0
ARC
8
0
10
159.007862
20
139.988349
30
0.0
40
0.300000
50
90.000000
51
120.000000
0
LINE
8
0
10
159.007862
20
140.288349
30
0.0
11
159.227477
21
140.288349
31
0.0
0
ARC
8
0
10
159.227477
20
139.988349
30
0.0
40
0.300000
50
0.000000
51
90.000000
0
LINE
8
0
10
159.527477
20
139.988349
30
0.0
11
159.527477
21
135.954034
31
0.0
0
ARC
8
0
10
159.427477
20
135.671191
30
0.0
40
0.300000
50
272.471221
51
70.528779
0
LINE
8
0
10
159.440412
20
135.371470
30
0.0
11
159.153521
21
135.459182
31
0.0
0
LINE
8
0
10
159.153521
20
135.459182
30
0.0
11
157.281614
21
136.628879
31
0.0
0
LINE
8
0
10
157.281614
20
136.628879
30
0.0
11
157.291688
21
136.917379
31
0.0
0
ARC
8
0
10
157.091810
20
136.924359
30
0.0
40
0.200000
50
0.000000
51
118.000000
0
LINE
8
0
10
156.997916
20
137.100948
30
0.0
11
156.717883
21
136.952052
31
0.0
0
ARC
8
0
10
157.093460
20
136.245694
30
0.0
40
0.800000
50
118.000000
51
163.000000
0
LINE
8
0
10
156.328416
20
136.479591
30
0.0
11
155.743260
21
134.565631
31
0.0
0
ARC
8
0
10
156.030151
20
134.477920
30
0.0
40
0.300000
50
163.000000
51
270.000000
0
LINE
8
0
10
156.030151
20
134.177920
30
0.0
11
157.579984
21
134.177920
31
0.0
0
ARC
8
0
10
157.579984
20
134.377920
30
0.0
40
0.200000
50
270.000000
51
330.769063
0
ARC
8
0
10
158.016313
20
134.133754
30
0.0
40
0.300000
50
73.000000
51
150.769063
0
LINE
8
0
10
158.104024
20
134.420646
30
0.0
11
159.190920
21
134.088349
31
0.0
0
LINE
8
0
10
159.190920
20
134.088349
30
0.0
11
161.027477
21
134.088349
31
0.0
0
ARC
8
0
10
161.027477
20
134.588349
30
0.0
40
0.500000
50
270.000000
51
0.000000
0
LINE
8
0
10
161.527477
20
134.588349
30
0.0
11
161.527477
21
158.049818
31
0.0
0
ARC
8
0
10
161.027477
20
158.049818
30
0.0
40
0.500000
50
0.000000
51
160.000000
0
LINE
8
0
10
160.557631
20
158.220828
30
0.0
11
159.145569
21
154.341221
31
0.0
0
ARC
8
0
10
159.427477
20
154.238615
30
0.0
40
0.300000
50
160.000000
51
255.000000
0
LINE
8
0
10
159.349831
20
153.948837
30
0.0
11
160.105123
21
153.746457
31
0.0
0
ARC
8
0
10
160.027477
20
153.456679
30
0.0
40
0.300000
50
0.000000
51
75.000000
0
LINE
8
0
10
160.327477
20
153.456679
30
0.0
11
160.327477
21
152.388349
31
0.0
0
ARC
8
0
10
160.027477
20
152.388349
30
0.0
40
0.300000
50
270.000000
51
0.000000
0
LINE
8
0
10
160.027477
20
152.088349
30
0.0
11
159.190920
21
152.088349
31
0.0
0
LINE
8
0
10
159.190920
20
152.088349
30
0.0
11
158.104024
21
151.756051
31
0.0
0
ARC
8
0
10
158.016313
20
152.042943
30
0.0
40
0.300000
50
209.230937
51
287.000000
0
ARC
8
0
10
157.579984
20
151.798777
30
0.0
40
0.200000
50
29.230937
51
90.000000
0
LINE
8
0
10
157.579984
20
151.998777
30
0.0
11
156.030151
21
151.998777
31
0.0
0
ARC
8
0
10
156.030151
20
151.698777
30
0.0
40
0.300000
50
90.000000
51
197.000000
0
LINE
8
0
10
155.743260
20
151.611066
30
0.0
11
156.328416
21
149.697106
31
0.0
0
ARC
8
0
10
157.093460
20
149.931004
30
0.0
40
0.800000
50
197.000000
51
242.000000
0
LINE
8
0
10
156.717883
20
149.224646
30
0.0
11
156.997916
21
149.075749
31
0.0
0
ARC
8
0
10
157.091810
20
149.252339
30
0.0
40
0.200000
50
242.000000
51
0.000000
0
LINE
8
0
10
157.291688
20
149.259319
30
0.0
11
157.281614
21
149.547818
31
0.0
0
LINE
8
0
10
157.281614
20
149.547818
30
0.0
11
159.153521
21
150.717515
31
0.0
0
LINE
8
0
10
159.153521
20
150.717515
30
0.0
11
159.440412
21
150.805227
31
0.0
0
ARC
8
0
10
134.527304
20
138.103050
30
0.0
40
1.000000
50
20.000000
51
90.000000
0
LINE
8
0
10
133.415477
20
139.103050
30
0.0
11
134.527304
21
139.103050
31
0.0
0
LINE
8
0
10
135.466997
20
138.445070
30
0.0
11
136.177628
21
136.492626
31
0.0
0
ARC
8
0
10
133.415477
20
140.303050
30
0.0
40
1.200000
50
240.018361
51
270.000000
0
ARC
8
0
10
137.305260
20
136.903050
30
0.0
40
1.200000
50
200.000000
51
270.000000
0
LINE
8
0
10
131.233866
20
140.176287
30
0.0
11
132.815810
21
139.263627
31
0.0
0
LINE
8
0
10
152.749695
20
135.703050
30
0.0
11
137.305260
21
135.703050
31
0.0
0
ARC
8
0
10
131.133922
20
140.003050
30
0.0
40
0.200000
50
60.018361
51
90.000000
0
ARC
8
0
10
152.749695
20
136.903050
30
0.0
40
1.200000
50
270.000000
51
340.000000
0
LINE
8
0
10
130.927477
20
140.203050
30
0.0
11
131.133922
21
140.203050
31
0.0
0
LINE
8
0
10
154.587957
20
138.445070
30
0.0
11
153.877326
21
136.492626
31
0.0
0
ARC
8
0
10
130.927477
20
139.803050
30
0.0
40
0.400000
50
90.000000
51
180.000000
0
ARC
8
0
10
155.527650
20
138.103050
30
0.0
40
1.000000
50
90.000000
51
160.000000
0
LINE
8
0
10
130.527477
20
139.376255
30
0.0
11
130.527477
21
139.803050
31
0.0
0
LINE
8
0
10
156.639477
20
139.103050
30
0.0
11
155.527650
21
139.103050
31
0.0
0
ARC
8
0
10
130.727477
20
139.376255
30
0.0
40
0.200000
50
180.000000
51
240.000000
0
ARC
8
0
10
156.639477
20
140.303050
30
0.0
40
1.200000
50
270.000000
51
299.981639
0
LINE
8
0
10
130.627477
20
138.828050
30
0.0
11
130.627477
21
139.203050
31
0.0
0
LINE
8
0
10
158.821088
20
140.176287
30
0.0
11
157.239144
21
139.263627
31
0.0
0
ARC
8
0
10
130.827477
20
138.828050
30
0.0
40
0.200000
50
180.000000
51
270.000000
0
ARC
8
0
10
158.921033
20
140.003050
30
0.0
40
0.200000
50
90.000000
51
119.981639
0
LINE
8
0
10
130.939283
20
138.628050
30
0.0
11
130.827477
21
138.628050
31
0.0
0
LINE
8
0
10
159.127477
20
140.203050
30
0.0
11
158.921033
21
140.203050
31
0.0
0
LINE
8
0
10
130.939283
20
138.628050
30
0.0
11
131.023832
21
138.646800
31
0.0
0
ARC
8
0
10
159.127477
20
139.803050
30
0.0
40
0.400000
50
0.000000
51
90.000000
0
ARC
8
0
10
131.277477
20
138.103050
30
0.0
40
0.600000
50
0.000000
51
115.007833
0
LINE
8
0
10
159.527477
20
139.376255
30
0.0
11
159.527477
21
139.803050
31
0.0
0
ARC
8
0
10
131.277477
20
138.103050
30
0.0
40
0.600000
50
244.992167
51
0.000000
0
ARC
8
0
10
159.327477
20
139.376255
30
0.0
40
0.200000
50
300.000000
51
0.000000
0
LINE
8
0
10
131.023832
20
137.559300
30
0.0
11
130.939283
21
137.578050
31
0.0
0
LINE
8
0
10
159.427477
20
138.828050
30
0.0
11
159.427477
21
139.203050
31
0.0
0
LINE
8
0
10
130.827477
20
137.578050
30
0.0
11
130.939283
21
137.578050
31
0.0
0
ARC
8
0
10
159.227477
20
138.828050
30
0.0
40
0.200000
50
270.000000
51
0.000000
0
ARC
8
0
10
130.827477
20
137.378050
30
0.0
40
0.200000
50
90.000000
51
180.000000
0
LINE
8
0
10
159.115671
20
138.628050
30
0.0
11
159.227477
21
138.628050
31
0.0
0
LINE
8
0
10
130.627477
20
137.003050
30
0.0
11
130.627477
21
137.378050
31
0.0
0
LINE
8
0
10
159.031122
20
138.646800
30
0.0
11
159.115671
21
138.628050
31
0.0
0
ARC
8
0
10
130.727477
20
136.829845
30
0.0
40
0.200000
50
120.000000
51
180.000000
0
ARC
8
0
10
158.777477
20
138.103050
30
0.0
40
0.600000
50
64.992167
51
180.000000
0
LINE
8
0
10
130.527477
20
136.403050
30
0.0
11
130.527477
21
136.829845
31
0.0
0
ARC
8
0
10
158.777477
20
138.103050
30
0.0
40
0.600000
50
180.000000
51
295.007833
0
ARC
8
0
10
130.927477
20
136.403050
30
0.0
40
0.400000
50
180.000000
51
270.000000
0
LINE
8
0
10
159.115671
20
137.578050
30
0.0
11
159.031122
21
137.559300
31
0.0
0
LINE
8
0
10
131.133922
20
136.003050
30
0.0
11
130.927477
21
136.003050
31
0.0
0
LINE
8
0
10
159.227477
20
137.578050
30
0.0
11
159.115671
21
137.578050
31
0.0
0
ARC
8
0
10
131.133922
20
136.203050
30
0.0
40
0.200000
50
270.000000
51
299.981639
0
ARC
8
0
10
159.227477
20
137.378050
30
0.0
40
0.200000
50
0.000000
51
90.000000
0
LINE
8
0
10
132.815810
20
136.942472
30
0.0
11
131.233866
21
136.029813
31
0.0
0
LINE
8
0
10
159.427477
20
137.003050
30
0.0
11
159.427477
21
137.378050
31
0.0
0
ARC
8
0
10
133.415477
20
135.903050
30
0.0
40
1.200000
50
90.000000
51
119.981639
0
ARC
8
0
10
159.327477
20
136.829845
30
0.0
40
0.200000
50
0.000000
51
60.000000
0
LINE
8
0
10
133.477540
20
137.103050
30
0.0
11
133.415477
21
137.103050
31
0.0
0
LINE
8
0
10
159.527477
20
136.403050
30
0.0
11
159.527477
21
136.829845
31
0.0
0
ARC
8
0
10
133.477540
20
136.603050
30
0.0
40
0.500000
50
17.401721
51
90.000000
0
ARC
8
0
10
159.127477
20
136.403050
30
0.0
40
0.400000
50
270.000000
51
0.000000
0
LINE
8
0
10
133.954656
20
136.752584
30
0.0
11
134.883559
21
134.285743
31
0.0
0
LINE
8
0
10
158.921033
20
136.003050
30
0.0
11
159.127477
21
136.003050
31
0.0
0
ARC
8
0
10
135.165467
20
134.388349
30
0.0
40
0.300000
50
200.000000
51
270.000000
0
ARC
8
0
10
158.921033
20
136.203050
30
0.0
40
0.200000
50
240.018361
51
270.000000
0
LINE
8
0
10
154.889487
20
134.088349
30
0.0
11
135.165467
21
134.088349
31
0.0
0
LINE
8
0
10
157.239144
20
136.942472
30
0.0
11
158.821088
21
136.029813
31
0.0
0
ARC
8
0
10
154.889487
20
134.388349
30
0.0
40
0.300000
50
270.000000
51
340.000000
0
ARC
8
0
10
156.639477
20
135.903050
30
0.0
40
1.200000
50
60.018361
51
90.000000
0
LINE
8
0
10
156.100299
20
136.752584
30
0.0
11
155.171395
21
134.285743
31
0.0
0
LINE
8
0
10
156.577414
20
137.103050
30
0.0
11
156.639477
21
137.103050
31
0.0
0
ARC
8
0
10
156.577414
20
136.603050
30
0.0
40
0.500000
50
90.000000
51
162.598279
0
LINE
8
0
10
116.429018
20
156.889459
30
0.0
11
118.064018
21
156.889459
31
0.0
0
ARC
8
0
10
118.064018
20
156.589459
30
0.0
40
0.300000
50
40.095508
51
90.000000
0
LINE
8
0
10
118.293509
20
156.782678
30
0.0
11
120.051109
21
154.695130
31
0.0
0
ARC
8
0
10
120.280600
20
154.888349
30
0.0
40
0.300000
50
220.095508
51
270.000000
0
LINE
8
0
10
120.280600
20
154.588349
30
0.0
11
126.527477
21
154.588349
31
0.0
0
ARC
8
0
10
126.527477
20
153.588349
30
0.0
40
1.000000
50
0.000000
51
90.000000
0
LINE
8
0
10
127.527477
20
153.588349
30
0.0
11
127.527477
21
134.588349
31
0.0
0
ARC
8
0
10
128.027477
20
134.588349
30
0.0
40
0.500000
50
180.000000
51
270.000000
0
LINE
8
0
10
128.027477
20
134.088349
30
0.0
11
130.864034
21
134.088349
31
0.0
0
LINE
8
0
10
130.864034
20
134.088349
30
0.0
11
131.950930
21
134.420646
31
0.0
0
ARC
8
0
10
132.038641
20
134.133754
30
0.0
40
0.300000
50
29.230937
51
107.000000
0
ARC
8
0
10
132.474971
20
134.377920
30
0.0
40
0.200000
50
209.230937
51
270.000000
0
LINE
8
0
10
132.474971
20
134.177920
30
0.0
11
134.024803
21
134.177920
31
0.0
0
ARC
8
0
10
134.024803
20
134.477920
30
0.0
40
0.300000
50
270.000000
51
17.000000
0
LINE
8
0
10
134.311694
20
134.565631
30
0.0
11
133.726538
21
136.479591
31
0.0
0
ARC
8
0
10
132.961494
20
136.245694
30
0.0
40
0.800000
50
17.000000
51
62.000000
0
LINE
8
0
10
133.337072
20
136.952052
30
0.0
11
133.057038
21
137.100948
31
0.0
0
ARC
8
0
10
132.963144
20
136.924358
30
0.0
40
0.200000
50
62.000000
51
180.000000
0
LINE
8
0
10
132.763266
20
136.917379
30
0.0
11
132.773340
21
136.628879
31
0.0
0
LINE
8
0
10
132.773340
20
136.628879
30
0.0
11
130.901433
21
135.459182
31
0.0
0
LINE
8
0
10
130.901433
20
135.459182
30
0.0
11
130.614542
21
135.371470
31
0.0
0
ARC
8
0
10
130.627477
20
135.671191
30
0.0
40
0.300000
50
109.471221
51
267.528779
0
LINE
8
0
10
130.527477
20
135.954034
30
0.0
11
130.527477
21
139.988349
31
0.0
0
ARC
8
0
10
130.827477
20
139.988349
30
0.0
40
0.300000
50
90.000000
51
180.000000
0
LINE
8
0
10
130.827477
20
140.288349
30
0.0
11
131.047092
21
140.288349
31
0.0
0
ARC
8
0
10
131.047092
20
139.988349
30
0.0
40
0.300000
50
60.000000
51
90.000000
0
LINE
8
0
10
131.197092
20
140.248156
30
0.0
11
132.727477
21
139.314588
31
0.0
0
ARC
8
0
10
132.827477
20
139.487793
30
0.0
40
0.200000
50
240.000000
51
0.000000
0
LINE
8
0
10
133.027477
20
139.487793
30
0.0
11
133.027477
21
140.642494
31
0.0
0
ARC
8
0
10
132.027477
20
140.642494
30
0.0
40
1.000000
50
0.000000
51
60.000000
0
LINE
8
0
10
132.527477
20
141.508519
30
0.0
11
131.377735
21
142.222323
31
0.0
0
ARC
8
0
10
131.877735
20
143.088349
30
0.0
40
1.000000
50
120.000000
51
240.000000
0
LINE
8
0
10
131.377735
20
143.954374
30
0.0
11
132.527477
21
144.668178
31
0.0
0
ARC
8
0
10
132.027477
20
145.534203
30
0.0
40
1.000000
50
300.000000
51
0.000000
0
LINE
8
0
10
133.027477
20
145.534203
30
0.0
11
133.027477
21
146.688904
31
0.0
0
ARC
8
0
10
132.827477
20
146.688904
30
0.0
40
0.200000
50
0.000000
51
120.000000
0
LINE
8
0
10
132.727477
20
146.862109
30
0.0
11
131.197092
21
145.928541
31
0.0
0
ARC
8
0
10
131.047092
20
146.188349
30
0.0
40
0.300000
50
270.000000
51
300.000000
0
LINE
8
0
10
131.047092
20
145.888349
30
0.0
11
130.827477
21
145.888349
31
0.0
0
ARC
8
0
10
130.827477
20
146.188349
30
0.0
40
0.300000
50
180.000000
51
270.000000
0
LINE
8
0
10
130.527477
20
146.188349
30
0.0
11
130.527477
21
150.222663
31
0.0
0
ARC
8
0
10
130.627477
20
150.505506
30
0.0
40
0.300000
50
92.471219
51
250.528783
0
LINE
8
0
10
130.614542
20
150.805227
30
0.0
11
130.901433
21
150.717515
31
0.0
0
LINE
8
0
10
130.901433
20
150.717515
30
0.0
11
132.773340
21
149.600852
31
0.0
0
LINE
8
0
10
132.773340
20
149.600852
30
0.0
11
132.763266
21
149.312353
31
0.0
0
ARC
8
0
10
132.963144
20
149.305373
30
0.0
40
0.200000
50
180.000000
51
298.000000
0
LINE
8
0
10
133.057038
20
149.128783
30
0.0
11
133.337072
21
149.277680
31
0.0
0
ARC
8
0
10
132.961494
20
149.984038
30
0.0
40
0.800000
50
298.000000
51
343.000000
0
LINE
8
0
10
133.726538
20
149.750141
30
0.0
11
134.311694
21
151.664100
31
0.0
0
ARC
8
0
10
134.024803
20
151.751812
30
0.0
40
0.300000
50
343.000000
51
90.000000
0
LINE
8
0
10
134.024803
20
152.051812
30
0.0
11
132.474971
21
152.051812
31
0.0
0
ARC
8
0
10
132.474971
20
151.851812
30
0.0
40
0.200000
50
90.000000
51
150.769063
0
ARC
8
0
10
132.038641
20
152.095977
30
0.0
40
0.300000
50
253.000000
51
330.769063
0
LINE
8
0
10
131.950930
20
151.809086
30
0.0
11
130.739766
21
152.101457
31
0.0
0
ARC
8
0
10
130.827477
20
152.388349
30
0.0
40
0.300000
50
180.000000
51
253.000000
0
LINE
8
0
10
130.527477
20
152.388349
30
0.0
11
130.527477
21
154.588349
31
0.0
0
ARC
8
0
10
128.527477
20
154.588349
30
0.0
40
2.000000
50
0.000000
51
90.000000
0
LINE
8
0
10
128.527477
20
156.588349
30
0.0
11
121.527219
21
156.588349
31
0.0
0
ARC
8
0
10
121.527219
20
156.888349
30
0.0
40
0.300000
50
180.000000
51
270.000000
0
LINE
8
0
10
121.227219
20
156.888349
30
0.0
11
121.227219
21
158.189459
31
0.0
0
ARC
8
0
10
120.727219
20
158.189459
30
0.0
40
0.500000
50
0.000000
51
90.000000
0
LINE
8
0
10
120.727219
20
158.689459
30
0.0
11
111.127219
21
158.689459
31
0.0
0
ARC
8
0
10
111.127219
20
158.189459
30
0.0
40
0.500000
50
90.000000
51
180.000000
0
LINE
8
0
10
110.627219
20
158.189459
30
0.0
11
110.627219
21
155.088349
31
0.0
0
ARC
8
0
10
111.127219
20
155.088349
30
0.0
40
0.500000
50
180.000000
51
270.000000
0
LINE
8
0
10
111.127219
20
154.588349
30
0.0
11
111.973090
21
154.588349
31
0.0
0
ARC
8
0
10
111.973090
20
154.888349
30
0.0
40
0.300000
50
270.000000
51
319.784367
0
LINE
8
0
10
112.202176
20
154.694649
30
0.0
11
113.968081
21
156.783159
31
0.0
0
ARC
8
0
10
114.197167
20
156.589459
30
0.0
40
0.300000
50
90.000000
51
139.784367
0
LINE
8
0
10
114.197167
20
156.889459
30
0.0
11
115.832167
21
156.889459
31
0.0
0
LINE
8
0
10
115.832167
20
156.889459
30
0.0
11
116.130592
21
157.189459
31
0.0
0
LINE
8
0
10
116.130592
20
157.189459
30
0.0
11
116.429018
21
156.889459
31
0.0
0
ARC
8
0
10
134.527304
20
148.073648
30
0.0
40
1.000000
50
270.000000
51
340.000000
0
LINE
8
0
10
135.466997
20
147.731627
30
0.0
11
136.177628
21
149.684072
31
0.0
0
LINE
8
0
10
133.415477
20
147.073648
30
0.0
11
134.527304
21
147.073648
31
0.0
0
ARC
8
0
10
137.305260
20
149.273648
30
0.0
40
1.200000
50
90.000000
51
160.000000
0
ARC
8
0
10
133.415477
20
145.873648
30
0.0
40
1.200000
50
90.000000
51
119.981639
0
LINE
8
0
10
152.749695
20
150.473648
30
0.0
11
137.305260
21
150.473648
31
0.0
0
LINE
8
0
10
131.233866
20
146.000410
30
0.0
11
132.815810
21
146.913070
31
0.0
0
ARC
8
0
10
152.749695
20
149.273648
30
0.0
40
1.200000
50
20.000000
51
90.000000
0
ARC
8
0
10
131.133922
20
146.173648
30
0.0
40
0.200000
50
270.000000
51
299.981639
0
LINE
8
0
10
154.587957
20
147.731627
30
0.0
11
153.877326
21
149.684072
31
0.0
0
LINE
8
0
10
130.927477
20
145.973648
30
0.0
11
131.133922
21
145.973648
31
0.0
0
ARC
8
0
10
155.527650
20
148.073648
30
0.0
40
1.000000
50
200.000000
51
270.000000
0
ARC
8
0
10
130.927477
20
146.373648
30
0.0
40
0.400000
50
180.000000
51
270.000000
0
LINE
8
0
10
156.639477
20
147.073648
30
0.0
11
155.527650
21
147.073648
31
0.0
0
LINE
8
0
10
130.527477
20
146.800442
30
0.0
11
130.527477
21
146.373648
31
0.0
0
ARC
8
0
10
156.639477
20
145.873648
30
0.0
40
1.200000
50
60.018361
51
90.000000
0
ARC
8
0
10
130.727477
20
146.800442
30
0.0
40
0.200000
50
120.000000
51
180.000000
0
LINE
8
0
10
158.821088
20
146.000410
30
0.0
11
157.239144
21
146.913070
31
0.0
0
LINE
8
0
10
130.627477
20
147.348648
30
0.0
11
130.627477
21
146.973648
31
0.0
0
ARC
8
0
10
158.921033
20
146.173648
30
0.0
40
0.200000
50
240.018361
51
270.000000
0
ARC
8
0
10
130.827477
20
147.348648
30
0.0
40
0.200000
50
90.000000
51
180.000000
0
LINE
8
0
10
159.127477
20
145.973648
30
0.0
11
158.921033
21
145.973648
31
0.0
0
LINE
8
0
10
130.939283
20
147.548648
30
0.0
11
130.827477
21
147.548648
31
0.0
0
ARC
8
0
10
159.127477
20
146.373648
30
0.0
40
0.400000
50
270.000000
51
0.000000
0
LINE
8
0
10
131.023832
20
147.529898
30
0.0
11
130.939283
21
147.548648
31
0.0
0
LINE
8
0
10
159.527477
20
146.800442
30
0.0
11
159.527477
21
146.373648
31
0.0
0
ARC
8
0
10
131.277477
20
148.073648
30
0.0
40
0.600000
50
244.992167
51
0.000000
0
ARC
8
0
10
159.327477
20
146.800442
30
0.0
40
0.200000
50
0.000000
51
60.000000
0
ARC
8
0
10
131.277477
20
148.073648
30
0.0
40
0.600000
50
0.000000
51
115.007833
0
LINE
8
0
10
159.427477
20
147.348648
30
0.0
11
159.427477
21
146.973648
31
0.0
0
LINE
8
0
10
130.939283
20
148.598648
30
0.0
11
131.023832
21
148.617398
31
0.0
0
ARC
8
0
10
159.227477
20
147.348648
30
0.0
40
0.200000
50
0.000000
51
90.000000
0
LINE
8
0
10
130.827477
20
148.598648
30
0.0
11
130.939283
21
148.598648
31
0.0
0
LINE
8
0
10
159.115671
20
147.548648
30
0.0
11
159.227477
21
147.548648
31
0.0
0
ARC
8
0
10
130.827477
20
148.798648
30
0.0
40
0.200000
50
180.000000
51
270.000000
0
LINE
8
0
10
159.115671
20
147.548648
30
0.0
11
159.031122
21
147.529898
31
0.0
0
LINE
8
0
10
130.627477
20
149.173648
30
0.0
11
130.627477
21
148.798648
31
0.0
0
ARC
8
0
10
158.777477
20
148.073648
30
0.0
40
0.600000
50
180.000000
51
295.007833
0
ARC
8
0
10
130.727477
20
149.346853
30
0.0
40
0.200000
50
180.000000
51
240.000000
0
ARC
8
0
10
158.777477
20
148.073648
30
0.0
40
0.600000
50
64.992167
51
180.000000
0
LINE
8
0
10
130.527477
20
149.773648
30
0.0
11
130.527477
21
149.346853
31
0.0
0
LINE
8
0
10
159.031122
20
148.617398
30
0.0
11
159.115671
21
148.598648
31
0.0
0
ARC
8
0
10
130.927477
20
149.773648
30
0.0
40
0.400000
50
90.000000
51
180.000000
0
LINE
8
0
10
159.227477
20
148.598648
30
0.0
11
159.115671
21
148.598648
31
0.0
0
LINE
8
0
10
131.133922
20
150.173648
30
0.0
11
130.927477
21
150.173648
31
0.0
0
ARC
8
0
10
159.227477
20
148.798648
30
0.0
40
0.200000
50
270.000000
51
0.000000
0
ARC
8
0
10
131.133922
20
149.973648
30
0.0
40
0.200000
50
60.018361
51
90.000000
0
LINE
8
0
10
159.427477
20
149.173648
30
0.0
11
159.427477
21
148.798648
31
0.0
0
LINE
8
0
10
132.815810
20
149.234225
30
0.0
11
131.233866
21
150.146885
31
0.0
0
ARC
8
0
10
159.327477
20
149.346853
30
0.0
40
0.200000
50
300.000000
51
0.000000
0
ARC
8
0
10
133.415477
20
150.273648
30
0.0
40
1.200000
50
240.018361
51
270.000000
0
LINE
8
0
10
159.527477
20
149.773648
30
0.0
11
159.527477
21
149.346853
31
0.0
0
LINE
8
0
10
133.477540
20
149.073648
30
0.0
11
133.415477
21
149.073648
31
0.0
0
ARC
8
0
10
159.127477
20
149.773648
30
0.0
40
0.400000
50
0.000000
51
90.000000
0
ARC
8
0
10
133.477540
20
149.573648
30
0.0
40
0.500000
50
270.000000
51
342.598279
0
LINE
8
0
10
158.921033
20
150.173648
30
0.0
11
159.127477
21
150.173648
31
0.0
0
LINE
8
0
10
133.954656
20
149.424113
30
0.0
11
134.883559
21
151.854418
31
0.0
0
ARC
8
0
10
158.921033
20
149.973648
30
0.0
40
0.200000
50
90.000000
51
119.981639
0
ARC
8
0
10
135.165467
20
151.751812
30
0.0
40
0.300000
50
90.000000
51
160.000000
0
LINE
8
0
10
157.239144
20
149.234225
30
0.0
11
158.821088
21
150.146885
31
0.0
0
LINE
8
0
10
154.889487
20
152.051812
30
0.0
11
135.165467
21
152.051812
31
0.0
0
ARC
8
0
10
156.639477
20
150.273648
30
0.0
40
1.200000
50
270.000000
51
299.981639
0
ARC
8
0
10
154.889487
20
151.751812
30
0.0
40
0.300000
50
20.000000
51
90.000000
0
LINE
8
0
10
156.577414
20
149.073648
30
0.0
11
156.639477
21
149.073648
31
0.0
0
LINE
8
0
10
156.100299
20
149.424113
30
0.0
11
155.171395
21
151.854418
31
0.0
0
ARC
8
0
10
156.577414
20
149.573648
30
0.0
40
0.500000
50
197.401721
51
270.000000
0
ATTDEF
8
0
10
154.889487
20
152.051812
30
0.0
40
3.5
1

3

2
VC_START
70
0
0
ATTDEF
8
0
10
160.627477
20
134.088349
30
0.0
40
3.5
1

3

2
VC_END
70
0
0
ATTDEF
8
0
10
161.527477
20
134.088349
30
0.0
40
3.5
1

3

2
DESC:Profilo di riporto per inserimento porte in facciata
70
0
0
ATTDEF
8
0
10
161.527477
20
134.088349
30
0.0
40
3.5
1

3

2
DENS:0.710000
70
0
0
ATTDEF
8
0
10
161.527477
20
134.088349
30
0.0
40
3.5
1

3

2
TDEV:0.000000
70
0
0
ATTDEF
8
0
10
161.527477
20
134.088349
30
0.0
40
3.5
1

3

2
TDEV2:0.000000
70
0
0
ATTDEF
8
0
10
161.527477
20
134.088349
30
0.0
40
3.5
1

3

2
TDEV3:0.000000
70
0
0
ATTDEF
8
0
10
161.527477
20
134.088349
30
0.0
40
3.5
1

3

2
TDEV4:0.000000
70
0
0
ATTDEF
8
0
10
161.527477
20
134.088349
30
0.0
40
3.5
1

3

2
TDEV5:0.000000
70
0
0
ATTDEF
8
0
10
161.527477
20
134.088349
30
0.0
40
3.5
1

3

2
FRONT_VIEW
70
0
0
ATTDEF
8
0
10
161.527477
20
134.088349
30
0.0
40
3.5
1

3

2
BL01:6800.000000,,1
70
0
0
ATTDEF
8
0
10
161.527477
20
134.088349
30
0.0
40
3.5
1

3

2
OPTI:500.000000,1,0,3000.000000,6500.000000,500.000000,0,0.000000,0
70
0
0
ATTDEF
8
0
10
161.527477
20
134.088349
30
0.0
40
3.5
1

3

2
PANE_WIDTH:0.000000
70
0
0
ATTDEF
8
0
10
161.527477
20
134.088349
30
0.0
40
3.5
1

3

2
GLASS_MIN:0.000000
70
0
0
ATTDEF
8
0
10
161.527477
20
134.088349
30
0.0
40
3.5
1

3

2
GLASS_MAX:0.000000
70
0
0
ATTDEF
8
0
10
161.527477
20
134.088349
30
0.0
40
3.5
1

3

2
JX:0.000000
70
0
0
ATTDEF
8
0
10
161.527477
20
134.088349
30
0.0
40
3.5
1

3

2
WX:0.000000
70
0
0
ATTDEF
8
0
10
161.527477
20
134.088349
30
0.0
40
3.5
1

3

2
JY:0.000000
70
0
0
ATTDEF
8
0
10
161.527477
20
134.088349
30
0.0
40
3.5
1

3

2
WY:0.000000
70
0
0
ATTDEF
8
0
10
161.527477
20
134.088349
30
0.0
40
3.5
1

3

2
FP_LCS_ORIG
70
0
0
ATTDEF
8
0
10
151.527477
20
134.088349
30
0.0
40
3.5
1

3

2
FP_LCS_HOT
70
0
0
ATTDEF
8
0
10
161.527477
20
144.088349
30
0.0
40
3.5
1

3

2
FP_LCS_INTERN
70
0
0
ENDSEC
0
EOF
