0
SECTION
2
ENTITIES
0
LINE
8
0
10
68.102317
20
142.091808
30
0.0
11
68.102317
21
140.591808
31
0.0
0
ARC
8
0
10
67.802317
20
140.591808
30
0.0
40
0.300000
50
270.000000
51
0.000000
0
LINE
8
0
10
67.802317
20
140.291808
30
0.0
11
65.702317
21
140.291808
31
0.0
0
ARC
8
0
10
65.702317
20
139.991808
30
0.0
40
0.300000
50
90.000000
51
180.000000
0
LINE
8
0
10
65.402317
20
139.991808
30
0.0
11
65.402317
21
132.791808
31
0.0
0
ARC
8
0
10
66.402317
20
132.791808
30
0.0
40
1.000000
50
180.000000
51
270.000000
0
LINE
8
0
10
66.402317
20
131.791808
30
0.0
11
94.824632
21
131.791808
31
0.0
0
LINE
8
0
10
94.901096
20
131.781900
30
0.0
11
94.824632
21
131.791808
31
0.0
0
LINE
8
0
10
94.901096
20
131.781900
30
0.0
11
95.863299
21
131.528278
31
0.0
0
ARC
8
0
10
95.953020
20
131.814547
30
0.0
40
0.300000
50
252.598279
51
330.367342
0
ARC
8
0
10
96.387627
20
131.567328
30
0.0
40
0.200000
50
90.000000
51
150.367342
0
LINE
8
0
10
96.389029
20
131.767324
30
0.0
11
97.940123
21
131.767324
31
0.0
0
ARC
8
0
10
97.940123
20
131.467324
30
0.0
40
0.300000
50
342.598279
51
90.000000
0
LINE
8
0
10
98.226392
20
131.377603
30
0.0
11
97.624428
21
129.456934
31
0.0
0
ARC
8
0
10
96.861043
20
129.696189
30
0.0
40
0.800000
50
297.598279
51
342.598279
0
LINE
8
0
10
97.231658
20
128.987215
30
0.0
11
96.950588
21
128.840286
31
0.0
0
ARC
8
0
10
96.857934
20
129.017530
30
0.0
40
0.200000
50
180.000000
51
297.598279
0
LINE
8
0
10
96.658110
20
129.025911
30
0.0
11
96.670207
21
129.314332
31
0.0
0
LINE
8
0
10
96.670207
20
129.314332
30
0.0
11
94.962110
21
130.398396
31
0.0
0
ARC
8
0
10
94.640599
20
129.891808
30
0.0
40
0.600000
50
57.598279
51
90.000000
0
LINE
8
0
10
94.640599
20
130.491808
30
0.0
11
94.602317
21
130.491808
31
0.0
0
ARC
8
0
10
94.702317
20
130.208966
30
0.0
40
0.300000
50
109.471221
51
250.528779
0
LINE
8
0
10
94.602317
20
129.926123
30
0.0
11
94.602317
21
125.891808
31
0.0
0
ARC
8
0
10
94.902317
20
125.891808
30
0.0
40
0.300000
50
180.000000
51
270.000000
0
LINE
8
0
10
94.902317
20
125.591808
30
0.0
11
95.121932
21
125.591808
31
0.0
0
ARC
8
0
10
95.121932
20
125.891808
30
0.0
40
0.300000
50
270.000000
51
300.000000
0
LINE
8
0
10
95.271932
20
125.632001
30
0.0
11
96.802317
21
126.565569
31
0.0
0
ARC
8
0
10
96.902317
20
126.392364
30
0.0
40
0.200000
50
0.000000
51
120.000000
0
LINE
8
0
10
97.102317
20
126.392364
30
0.0
11
97.102317
21
124.391822
31
0.0
0
ARC
8
0
10
97.402317
20
124.391822
30
0.0
40
0.300000
50
180.000000
51
270.000000
0
LINE
8
0
10
97.402317
20
124.091822
30
0.0
11
98.802317
21
124.091822
31
0.0
0
ARC
8
0
10
98.802317
20
123.791822
30
0.0
40
0.300000
50
0.000000
51
90.000000
0
LINE
8
0
10
99.102317
20
123.791822
30
0.0
11
99.102317
21
122.891822
31
0.0
0
ARC
8
0
10
98.802317
20
122.891822
30
0.0
40
0.300000
50
270.000000
51
0.000000
0
LINE
8
0
10
98.802317
20
122.591822
30
0.0
11
94.902317
21
122.591822
31
0.0
0
ARC
8
0
10
94.902317
20
122.291822
30
0.0
40
0.300000
50
90.000000
51
180.000000
0
LINE
8
0
10
94.602317
20
122.291822
30
0.0
11
94.602317
21
98.494030
31
0.0
0
ARC
8
0
10
95.602317
20
98.494030
30
0.0
40
1.000000
50
180.000000
51
240.000000
0
LINE
8
0
10
95.102317
20
97.628004
30
0.0
11
96.602317
21
96.711979
31
0.0
0
ARC
8
0
10
96.102317
20
95.845954
30
0.0
40
1.000000
50
0.000000
51
60.000000
0
LINE
8
0
10
97.102317
20
95.845954
30
0.0
11
97.102317
21
94.691253
31
0.0
0
ARC
8
0
10
96.902317
20
94.691253
30
0.0
40
0.200000
50
240.000000
51
0.000000
0
LINE
8
0
10
96.802317
20
94.518048
30
0.0
11
95.271932
21
95.451616
31
0.0
0
ARC
8
0
10
95.121932
20
95.191808
30
0.0
40
0.300000
50
60.000000
51
90.000000
0
LINE
8
0
10
95.121932
20
95.491808
30
0.0
11
94.902317
21
95.491808
31
0.0
0
ARC
8
0
10
94.902317
20
95.191808
30
0.0
40
0.300000
50
90.000000
51
180.000000
0
LINE
8
0
10
94.602317
20
95.191808
30
0.0
11
94.602317
21
91.157494
31
0.0
0
ARC
8
0
10
94.702317
20
90.874651
30
0.0
40
0.300000
50
109.471221
51
250.528779
0
LINE
8
0
10
94.602317
20
90.591808
30
0.0
11
94.640599
21
90.591808
31
0.0
0
ARC
8
0
10
94.640599
20
91.191808
30
0.0
40
0.600000
50
270.000000
51
302.401721
0
LINE
8
0
10
94.962110
20
90.685221
30
0.0
11
96.670207
21
91.769285
31
0.0
0
LINE
8
0
10
96.670207
20
91.769285
30
0.0
11
96.658110
21
92.057706
31
0.0
0
ARC
8
0
10
96.857934
20
92.066087
30
0.0
40
0.200000
50
62.401721
51
180.000000
0
LINE
8
0
10
96.950588
20
92.243331
30
0.0
11
97.231658
21
92.096402
31
0.0
0
ARC
8
0
10
96.861043
20
91.387428
30
0.0
40
0.800000
50
17.401721
51
62.401721
0
LINE
8
0
10
97.624428
20
91.626683
30
0.0
11
98.226392
21
89.706014
31
0.0
0
ARC
8
0
10
97.940123
20
89.616293
30
0.0
40
0.300000
50
270.000000
51
17.401721
0
LINE
8
0
10
97.940123
20
89.316293
30
0.0
11
96.389029
21
89.316293
31
0.0
0
ARC
8
0
10
96.387627
20
89.516289
30
0.0
40
0.200000
50
209.632658
51
270.000000
0
ARC
8
0
10
95.953020
20
89.269070
30
0.0
40
0.300000
50
29.632658
51
107.401721
0
LINE
8
0
10
95.863299
20
89.555339
30
0.0
11
94.901096
21
89.301717
31
0.0
0
LINE
8
0
10
94.824632
20
89.291808
30
0.0
11
94.901096
21
89.301717
31
0.0
0
LINE
8
0
10
94.824632
20
89.291808
30
0.0
11
93.302317
21
89.291808
31
0.0
0
ARC
8
0
10
93.302317
20
89.591808
30
0.0
40
0.300000
50
180.000000
51
270.000000
0
LINE
8
0
10
93.002317
20
89.591808
30
0.0
11
93.002317
21
90.592919
31
0.0
0
ARC
8
0
10
92.702317
20
90.592919
30
0.0
40
0.300000
50
0.000000
51
90.000000
0
LINE
8
0
10
92.702317
20
90.892919
30
0.0
11
81.702317
21
90.892919
31
0.0
0
ARC
8
0
10
81.702317
20
90.592919
30
0.0
40
0.300000
50
90.000000
51
180.000000
0
LINE
8
0
10
81.402317
20
90.592919
30
0.0
11
81.402317
21
84.591808
31
0.0
0
ARC
8
0
10
81.102317
20
84.591808
30
0.0
40
0.300000
50
270.000000
51
0.000000
0
LINE
8
0
10
81.102317
20
84.291808
30
0.0
11
78.652872
21
84.291808
31
0.0
0
ARC
8
0
10
78.652872
20
84.591808
30
0.0
40
0.300000
50
210.000000
51
270.000000
0
LINE
8
0
10
78.393065
20
84.441808
30
0.0
11
77.942509
21
85.222193
31
0.0
0
ARC
8
0
10
78.202317
20
85.372193
30
0.0
40
0.300000
50
180.000000
51
210.000000
0
LINE
8
0
10
77.902317
20
85.372193
30
0.0
11
77.902317
21
85.491808
31
0.0
0
ARC
8
0
10
78.202317
20
85.491808
30
0.0
40
0.300000
50
90.000000
51
180.000000
0
LINE
8
0
10
78.202317
20
85.791808
30
0.0
11
79.602317
21
85.791808
31
0.0
0
ARC
8
0
10
79.602317
20
86.091808
30
0.0
40
0.300000
50
270.000000
51
0.000000
0
LINE
8
0
10
79.902317
20
86.091808
30
0.0
11
79.902317
21
90.592919
31
0.0
0
ARC
8
0
10
79.602317
20
90.592919
30
0.0
40
0.300000
50
0.000000
51
90.000000
0
LINE
8
0
10
79.602317
20
90.892919
30
0.0
11
78.402317
21
90.892919
31
0.0
0
ARC
8
0
10
78.402317
20
90.592919
30
0.0
40
0.300000
50
90.000000
51
180.000000
0
LINE
8
0
10
78.102317
20
90.592919
30
0.0
11
78.102317
21
89.591408
31
0.0
0
ARC
8
0
10
77.802317
20
89.591408
30
0.0
40
0.300000
50
270.000000
51
0.000000
0
LINE
8
0
10
77.802317
20
89.291408
30
0.0
11
76.402317
21
89.291408
31
0.0
0
ARC
8
0
10
76.402317
20
89.591408
30
0.0
40
0.300000
50
180.000000
51
270.000000
0
LINE
8
0
10
76.102317
20
89.591408
30
0.0
11
76.102317
21
90.592919
31
0.0
0
ARC
8
0
10
75.802317
20
90.592919
30
0.0
40
0.300000
50
0.000000
51
90.000000
0
LINE
8
0
10
75.802317
20
90.892919
30
0.0
11
72.902317
21
90.892919
31
0.0
0
LINE
8
0
10
72.902317
20
90.892919
30
0.0
11
72.602317
21
91.192919
31
0.0
0
LINE
8
0
10
72.602317
20
91.192919
30
0.0
11
72.302317
21
90.892919
31
0.0
0
LINE
8
0
10
72.302317
20
90.892919
30
0.0
11
69.502317
21
90.892919
31
0.0
0
ARC
8
0
10
69.502317
20
90.592919
30
0.0
40
0.300000
50
90.000000
51
180.000000
0
LINE
8
0
10
69.202317
20
90.592919
30
0.0
11
69.202317
21
89.591408
31
0.0
0
ARC
8
0
10
68.902317
20
89.591408
30
0.0
40
0.300000
50
270.000000
51
0.000000
0
LINE
8
0
10
68.902317
20
89.291408
30
0.0
11
67.502317
21
89.291408
31
0.0
0
ARC
8
0
10
67.502317
20
89.591408
30
0.0
40
0.300000
50
180.000000
51
270.000000
0
LINE
8
0
10
67.202317
20
89.591408
30
0.0
11
67.202317
21
90.592919
31
0.0
0
ARC
8
0
10
66.902317
20
90.592919
30
0.0
40
0.300000
50
0.000000
51
90.000000
0
LINE
8
0
10
66.902317
20
90.892919
30
0.0
11
65.702317
21
90.892919
31
0.0
0
ARC
8
0
10
65.702317
20
90.592919
30
0.0
40
0.300000
50
90.000000
51
180.000000
0
LINE
8
0
10
65.402317
20
90.592919
30
0.0
11
65.402317
21
86.091808
31
0.0
0
ARC
8
0
10
65.702317
20
86.091808
30
0.0
40
0.300000
50
180.000000
51
270.000000
0
LINE
8
0
10
65.702317
20
85.791808
30
0.0
11
67.602317
21
85.791808
31
0.0
0
ARC
8
0
10
67.602317
20
85.491808
30
0.0
40
0.300000
50
0.000000
51
90.000000
0
LINE
8
0
10
67.902317
20
85.491808
30
0.0
11
67.902317
21
85.372193
31
0.0
0
ARC
8
0
10
67.602317
20
85.372193
30
0.0
40
0.300000
50
330.000000
51
0.000000
0
LINE
8
0
10
67.862125
20
85.222193
30
0.0
11
67.411569
21
84.441808
31
0.0
0
ARC
8
0
10
67.151762
20
84.591808
30
0.0
40
0.300000
50
270.000000
51
330.000000
0
LINE
8
0
10
67.151762
20
84.291808
30
0.0
11
63.902317
21
84.291808
31
0.0
0
ARC
8
0
10
63.902317
20
84.591808
30
0.0
40
0.300000
50
180.000000
51
270.000000
0
LINE
8
0
10
63.602317
20
84.591808
30
0.0
11
63.602317
21
149.791808
31
0.0
0
ARC
8
0
10
64.102317
20
149.791808
30
0.0
40
0.500000
50
90.000000
51
180.000000
0
LINE
8
0
10
64.102317
20
150.291808
30
0.0
11
67.802317
21
150.291808
31
0.0
0
ARC
8
0
10
67.802317
20
149.991808
30
0.0
40
0.300000
50
0.000000
51
90.000000
0
LINE
8
0
10
68.102317
20
149.991808
30
0.0
11
68.102317
21
148.491808
31
0.0
0
ARC
8
0
10
67.402317
20
148.491808
30
0.0
40
0.700000
50
270.000000
51
0.000000
0
ARC
8
0
10
67.402317
20
148.091808
30
0.0
40
0.300000
50
180.000000
51
270.000000
0
LINE
8
0
10
67.102317
20
148.091808
30
0.0
11
67.102317
21
148.791808
31
0.0
0
ARC
8
0
10
66.802317
20
148.791808
30
0.0
40
0.300000
50
0.000000
51
90.000000
0
LINE
8
0
10
66.802317
20
149.091808
30
0.0
11
65.602317
21
149.091808
31
0.0
0
ARC
8
0
10
65.602317
20
148.391808
30
0.0
40
0.700000
50
90.000000
51
180.000000
0
LINE
8
0
10
64.902317
20
148.391808
30
0.0
11
64.902317
21
142.191808
31
0.0
0
ARC
8
0
10
65.602317
20
142.191808
30
0.0
40
0.700000
50
180.000000
51
270.000000
0
LINE
8
0
10
65.602317
20
141.491808
30
0.0
11
66.802317
21
141.491808
31
0.0
0
ARC
8
0
10
66.802317
20
141.791808
30
0.0
40
0.300000
50
270.000000
51
0.000000
0
LINE
8
0
10
67.102317
20
141.791808
30
0.0
11
67.102317
21
142.491808
31
0.0
0
ARC
8
0
10
67.402317
20
142.491808
30
0.0
40
0.300000
50
90.000000
51
180.000000
0
ARC
8
0
10
67.402317
20
142.091808
30
0.0
40
0.700000
50
0.000000
51
90.000000
0
LINE
8
0
10
65.702317
20
129.991808
30
0.0
11
92.702317
21
129.991808
31
0.0
0
ARC
8
0
10
92.702317
20
129.691808
30
0.0
40
0.300000
50
0.000000
51
90.000000
0
LINE
8
0
10
93.002317
20
129.691808
30
0.0
11
93.002317
21
125.418674
31
0.0
0
ARC
8
0
10
92.702317
20
125.418674
30
0.0
40
0.300000
50
285.000000
51
0.000000
0
LINE
8
0
10
92.779963
20
125.128897
30
0.0
11
90.724671
21
124.578183
31
0.0
0
ARC
8
0
10
90.802317
20
124.288405
30
0.0
40
0.300000
50
105.000000
51
180.000000
0
LINE
8
0
10
90.502317
20
124.288405
30
0.0
11
90.502317
21
123.791808
31
0.0
0
ARC
8
0
10
90.802317
20
123.791808
30
0.0
40
0.300000
50
180.000000
51
270.000000
0
LINE
8
0
10
90.802317
20
123.491808
30
0.0
11
92.702317
21
123.491808
31
0.0
0
ARC
8
0
10
92.702317
20
123.191808
30
0.0
40
0.300000
50
0.000000
51
90.000000
0
LINE
8
0
10
93.002317
20
123.191808
30
0.0
11
93.002317
21
92.991808
31
0.0
0
ARC
8
0
10
92.702317
20
92.991808
30
0.0
40
0.300000
50
270.000000
51
0.000000
0
LINE
8
0
10
92.702317
20
92.691808
30
0.0
11
65.702317
21
92.691808
31
0.0
0
ARC
8
0
10
65.702317
20
92.991808
30
0.0
40
0.300000
50
180.000000
51
270.000000
0
LINE
8
0
10
65.402317
20
92.991808
30
0.0
11
65.402317
21
123.191808
31
0.0
0
ARC
8
0
10
65.702317
20
123.191808
30
0.0
40
0.300000
50
90.000000
51
180.000000
0
LINE
8
0
10
65.702317
20
123.491808
30
0.0
11
67.602317
21
123.491808
31
0.0
0
ARC
8
0
10
67.602317
20
123.791808
30
0.0
40
0.300000
50
270.000000
51
0.000000
0
LINE
8
0
10
67.902317
20
123.791808
30
0.0
11
67.902317
21
124.234815
31
0.0
0
ARC
8
0
10
67.602317
20
124.234815
30
0.0
40
0.300000
50
0.000000
51
75.000000
0
LINE
8
0
10
67.679963
20
124.524593
30
0.0
11
65.624671
21
125.075307
31
0.0
0
ARC
8
0
10
65.702317
20
125.365085
30
0.0
40
0.300000
50
180.000000
51
255.000000
0
LINE
8
0
10
65.402317
20
125.365085
30
0.0
11
65.402317
21
129.691808
31
0.0
0
ARC
8
0
10
65.702317
20
129.691808
30
0.0
40
0.300000
50
90.000000
51
180.000000
0
ARC
8
0
10
122.871924
20
130.391808
30
0.0
40
1.000000
50
35.000000
51
90.000000
0
LINE
8
0
10
122.871924
20
131.391808
30
0.0
11
100.332843
21
131.391808
31
0.0
0
ARC
8
0
10
100.332843
20
130.391808
30
0.0
40
1.000000
50
90.000000
51
145.000000
0
LINE
8
0
10
99.513691
20
130.965385
30
0.0
11
98.176039
21
129.055020
31
0.0
0
ARC
8
0
10
97.766463
20
129.341808
30
0.0
40
0.500000
50
270.000000
51
325.000000
0
LINE
8
0
10
97.766463
20
128.841808
30
0.0
11
97.176484
21
128.841808
31
0.0
0
ARC
8
0
10
97.176484
20
129.841808
30
0.0
40
1.000000
50
240.000000
51
270.000000
0
LINE
8
0
10
96.676484
20
128.975783
30
0.0
11
95.332702
21
129.751616
31
0.0
0
ARC
8
0
10
95.182702
20
129.491808
30
0.0
40
0.300000
50
60.000000
51
90.000000
0
LINE
8
0
10
95.182702
20
129.791808
30
0.0
11
95.002317
21
129.791808
31
0.0
0
ARC
8
0
10
95.002317
20
129.391808
30
0.0
40
0.400000
50
90.000000
51
180.000000
0
LINE
8
0
10
94.602317
20
129.391808
30
0.0
11
94.602317
21
128.791808
31
0.0
0
LINE
8
0
10
94.602317
20
128.791808
30
0.0
11
94.702317
21
128.791808
31
0.0
0
LINE
8
0
10
94.702317
20
128.791808
30
0.0
11
94.702317
21
128.416808
31
0.0
0
ARC
8
0
10
94.902317
20
128.416808
30
0.0
40
0.200000
50
180.000000
51
270.000000
0
LINE
8
0
10
94.902317
20
128.216808
30
0.0
11
95.025400
21
128.216808
31
0.0
0
LINE
8
0
10
95.025400
20
128.216808
30
0.0
11
95.090783
21
128.231808
31
0.0
0
ARC
8
0
10
95.352317
20
127.691808
30
0.0
40
0.600000
50
0.000000
51
115.841933
0
ARC
8
0
10
95.352317
20
127.691808
30
0.0
40
0.600000
50
244.158067
51
0.000000
0
LINE
8
0
10
95.090783
20
127.151808
30
0.0
11
95.025400
21
127.166808
31
0.0
0
LINE
8
0
10
95.025400
20
127.166808
30
0.0
11
94.902317
21
127.166808
31
0.0
0
ARC
8
0
10
94.902317
20
126.966808
30
0.0
40
0.200000
50
90.000000
51
180.000000
0
LINE
8
0
10
94.702317
20
126.966808
30
0.0
11
94.702317
21
126.591808
31
0.0
0
LINE
8
0
10
94.702317
20
126.591808
30
0.0
11
94.602317
21
126.591808
31
0.0
0
LINE
8
0
10
94.602317
20
126.591808
30
0.0
11
94.602317
21
125.991808
31
0.0
0
ARC
8
0
10
95.002317
20
125.991808
30
0.0
40
0.400000
50
180.000000
51
270.000000
0
LINE
8
0
10
95.002317
20
125.591808
30
0.0
11
95.182702
21
125.591808
31
0.0
0
ARC
8
0
10
95.182702
20
125.891808
30
0.0
40
0.300000
50
270.000000
51
300.000000
0
LINE
8
0
10
95.332702
20
125.632001
30
0.0
11
96.676484
21
126.407834
31
0.0
0
ARC
8
0
10
97.176484
20
125.541808
30
0.0
40
1.000000
50
90.000000
51
120.000000
0
LINE
8
0
10
97.176484
20
126.541808
30
0.0
11
98.807597
21
126.541808
31
0.0
0
ARC
8
0
10
98.807597
20
127.341808
30
0.0
40
0.800000
50
270.000000
51
325.000000
0
LINE
8
0
10
99.462918
20
126.882947
30
0.0
11
100.762513
21
128.738961
31
0.0
0
ARC
8
0
10
102.400818
20
127.591808
30
0.0
40
2.000000
50
90.000000
51
145.000000
0
LINE
8
0
10
102.400818
20
129.591808
30
0.0
11
120.803949
21
129.591808
31
0.0
0
ARC
8
0
10
120.803949
20
127.591808
30
0.0
40
2.000000
50
35.000000
51
90.000000
0
LINE
8
0
10
122.442253
20
128.738961
30
0.0
11
123.741848
21
126.882947
31
0.0
0
ARC
8
0
10
124.397169
20
127.341808
30
0.0
40
0.800000
50
215.000000
51
270.000000
0
LINE
8
0
10
124.397169
20
126.541808
30
0.0
11
126.028282
21
126.541808
31
0.0
0
ARC
8
0
10
126.028282
20
125.541808
30
0.0
40
1.000000
50
60.000000
51
90.000000
0
LINE
8
0
10
126.528282
20
126.407834
30
0.0
11
127.872065
21
125.632001
31
0.0
0
ARC
8
0
10
128.022065
20
125.891808
30
0.0
40
0.300000
50
240.000000
51
270.000000
0
LINE
8
0
10
128.022065
20
125.591808
30
0.0
11
128.202449
21
125.591808
31
0.0
0
ARC
8
0
10
128.202449
20
125.991808
30
0.0
40
0.400000
50
270.000000
51
0.000000
0
LINE
8
0
10
128.602449
20
125.991808
30
0.0
11
128.602449
21
126.591808
31
0.0
0
LINE
8
0
10
128.602449
20
126.591808
30
0.0
11
128.502449
21
126.591808
31
0.0
0
LINE
8
0
10
128.502449
20
126.591808
30
0.0
11
128.502449
21
126.966808
31
0.0
0
ARC
8
0
10
128.302449
20
126.966808
30
0.0
40
0.200000
50
0.000000
51
90.000000
0
LINE
8
0
10
128.302449
20
127.166808
30
0.0
11
128.179367
21
127.166808
31
0.0
0
LINE
8
0
10
128.179367
20
127.166808
30
0.0
11
128.113983
21
127.151808
31
0.0
0
ARC
8
0
10
127.852449
20
127.691808
30
0.0
40
0.600000
50
180.000000
51
295.841933
0
ARC
8
0
10
127.852449
20
127.691808
30
0.0
40
0.600000
50
64.158067
51
180.000000
0
LINE
8
0
10
128.113983
20
128.231808
30
0.0
11
128.179367
21
128.216808
31
0.0
0
LINE
8
0
10
128.179367
20
128.216808
30
0.0
11
128.302449
21
128.216808
31
0.0
0
ARC
8
0
10
128.302449
20
128.416808
30
0.0
40
0.200000
50
270.000000
51
0.000000
0
LINE
8
0
10
128.502449
20
128.416808
30
0.0
11
128.502449
21
128.791808
31
0.0
0
LINE
8
0
10
128.502449
20
128.791808
30
0.0
11
128.602449
21
128.791808
31
0.0
0
LINE
8
0
10
128.602449
20
128.791808
30
0.0
11
128.602449
21
129.391808
31
0.0
0
ARC
8
0
10
128.202449
20
129.391808
30
0.0
40
0.400000
50
0.000000
51
90.000000
0
LINE
8
0
10
128.202449
20
129.791808
30
0.0
11
128.022065
21
129.791808
31
0.0
0
ARC
8
0
10
128.022065
20
129.491808
30
0.0
40
0.300000
50
90.000000
51
120.000000
0
LINE
8
0
10
127.872065
20
129.751616
30
0.0
11
126.528282
21
128.975783
31
0.0
0
ARC
8
0
10
126.028282
20
129.841808
30
0.0
40
1.000000
50
270.000000
51
300.000000
0
LINE
8
0
10
126.028282
20
128.841808
30
0.0
11
125.438304
21
128.841808
31
0.0
0
ARC
8
0
10
125.438304
20
129.341808
30
0.0
40
0.500000
50
215.000000
51
270.000000
0
LINE
8
0
10
125.028728
20
129.055020
30
0.0
11
123.691076
21
130.965385
31
0.0
0
ARC
8
0
10
122.871924
20
90.656838
30
0.0
40
1.000000
50
270.000000
51
325.000000
0
LINE
8
0
10
122.871924
20
89.656838
30
0.0
11
100.332843
21
89.656838
31
0.0
0
ARC
8
0
10
100.332843
20
90.656838
30
0.0
40
1.000000
50
215.000000
51
270.000000
0
LINE
8
0
10
99.513691
20
90.083261
30
0.0
11
98.176039
21
91.993626
31
0.0
0
ARC
8
0
10
97.766463
20
91.706838
30
0.0
40
0.500000
50
35.000000
51
90.000000
0
LINE
8
0
10
97.766463
20
92.206838
30
0.0
11
97.176484
21
92.206838
31
0.0
0
ARC
8
0
10
97.176484
20
91.206838
30
0.0
40
1.000000
50
90.000000
51
120.000000
0
LINE
8
0
10
96.676484
20
92.072863
30
0.0
11
95.332702
21
91.297030
31
0.0
0
ARC
8
0
10
95.182702
20
91.556838
30
0.0
40
0.300000
50
270.000000
51
300.000000
0
LINE
8
0
10
95.182702
20
91.256838
30
0.0
11
95.002317
21
91.256838
31
0.0
0
ARC
8
0
10
95.002317
20
91.656838
30
0.0
40
0.400000
50
180.000000
51
270.000000
0
LINE
8
0
10
94.602317
20
91.656838
30
0.0
11
94.602317
21
92.256838
31
0.0
0
LINE
8
0
10
94.602317
20
92.256838
30
0.0
11
94.702317
21
92.256838
31
0.0
0
LINE
8
0
10
94.702317
20
92.256838
30
0.0
11
94.702317
21
92.631838
31
0.0
0
ARC
8
0
10
94.902317
20
92.631838
30
0.0
40
0.200000
50
90.000000
51
180.000000
0
LINE
8
0
10
94.902317
20
92.831838
30
0.0
11
95.025400
21
92.831838
31
0.0
0
LINE
8
0
10
95.090783
20
92.816838
30
0.0
11
95.025400
21
92.831838
31
0.0
0
ARC
8
0
10
95.352317
20
93.356838
30
0.0
40
0.600000
50
244.158067
51
0.000000
0
ARC
8
0
10
95.352317
20
93.356838
30
0.0
40
0.600000
50
0.000000
51
115.841933
0
LINE
8
0
10
95.025400
20
93.881838
30
0.0
11
95.090783
21
93.896838
31
0.0
0
LINE
8
0
10
95.025400
20
93.881838
30
0.0
11
94.902317
21
93.881838
31
0.0
0
ARC
8
0
10
94.902317
20
94.081838
30
0.0
40
0.200000
50
180.000000
51
270.000000
0
LINE
8
0
10
94.702317
20
94.081838
30
0.0
11
94.702317
21
94.456838
31
0.0
0
LINE
8
0
10
94.702317
20
94.456838
30
0.0
11
94.602317
21
94.456838
31
0.0
0
LINE
8
0
10
94.602317
20
94.456838
30
0.0
11
94.602317
21
95.056838
31
0.0
0
ARC
8
0
10
95.002317
20
95.056838
30
0.0
40
0.400000
50
90.000000
51
180.000000
0
LINE
8
0
10
95.002317
20
95.456838
30
0.0
11
95.182702
21
95.456838
31
0.0
0
ARC
8
0
10
95.182702
20
95.156838
30
0.0
40
0.300000
50
60.000000
51
90.000000
0
LINE
8
0
10
95.332702
20
95.416645
30
0.0
11
96.676484
21
94.640812
31
0.0
0
ARC
8
0
10
97.176484
20
95.506838
30
0.0
40
1.000000
50
240.000000
51
270.000000
0
LINE
8
0
10
97.176484
20
94.506838
30
0.0
11
98.807597
21
94.506838
31
0.0
0
ARC
8
0
10
98.807597
20
93.706838
30
0.0
40
0.800000
50
35.000000
51
90.000000
0
LINE
8
0
10
99.462918
20
94.165699
30
0.0
11
100.762513
21
92.309685
31
0.0
0
ARC
8
0
10
102.400818
20
93.456838
30
0.0
40
2.000000
50
215.000000
51
270.000000
0
LINE
8
0
10
102.400818
20
91.456838
30
0.0
11
120.803949
21
91.456838
31
0.0
0
ARC
8
0
10
120.803949
20
93.456838
30
0.0
40
2.000000
50
270.000000
51
325.000000
0
LINE
8
0
10
122.442253
20
92.309685
30
0.0
11
123.741848
21
94.165699
31
0.0
0
ARC
8
0
10
124.397169
20
93.706838
30
0.0
40
0.800000
50
90.000000
51
145.000000
0
LINE
8
0
10
124.397169
20
94.506838
30
0.0
11
126.028282
21
94.506838
31
0.0
0
ARC
8
0
10
126.028282
20
95.506838
30
0.0
40
1.000000
50
270.000000
51
300.000000
0
LINE
8
0
10
126.528282
20
94.640812
30
0.0
11
127.872065
21
95.416645
31
0.0
0
ARC
8
0
10
128.022065
20
95.156838
30
0.0
40
0.300000
50
90.000000
51
120.000000
0
LINE
8
0
10
128.022065
20
95.456838
30
0.0
11
128.202449
21
95.456838
31
0.0
0
ARC
8
0
10
128.202449
20
95.056838
30
0.0
40
0.400000
50
0.000000
51
90.000000
0
LINE
8
0
10
128.602449
20
95.056838
30
0.0
11
128.602449
21
94.456838
31
0.0
0
LINE
8
0
10
128.602449
20
94.456838
30
0.0
11
128.502449
21
94.456838
31
0.0
0
LINE
8
0
10
128.502449
20
94.456838
30
0.0
11
128.502449
21
94.081838
31
0.0
0
ARC
8
0
10
128.302449
20
94.081838
30
0.0
40
0.200000
50
270.000000
51
0.000000
0
LINE
8
0
10
128.302449
20
93.881838
30
0.0
11
128.179367
21
93.881838
31
0.0
0
LINE
8
0
10
128.113983
20
93.896838
30
0.0
11
128.179367
21
93.881838
31
0.0
0
ARC
8
0
10
127.852449
20
93.356838
30
0.0
40
0.600000
50
64.158067
51
180.000000
0
ARC
8
0
10
127.852449
20
93.356838
30
0.0
40
0.600000
50
180.000000
51
295.841933
0
LINE
8
0
10
128.179367
20
92.831838
30
0.0
11
128.113983
21
92.816838
31
0.0
0
LINE
8
0
10
128.179367
20
92.831838
30
0.0
11
128.302449
21
92.831838
31
0.0
0
ARC
8
0
10
128.302449
20
92.631838
30
0.0
40
0.200000
50
0.000000
51
90.000000
0
LINE
8
0
10
128.502449
20
92.631838
30
0.0
11
128.502449
21
92.256838
31
0.0
0
LINE
8
0
10
128.502449
20
92.256838
30
0.0
11
128.602449
21
92.256838
31
0.0
0
LINE
8
0
10
128.602449
20
92.256838
30
0.0
11
128.602449
21
91.656838
31
0.0
0
ARC
8
0
10
128.202449
20
91.656838
30
0.0
40
0.400000
50
270.000000
51
0.000000
0
LINE
8
0
10
128.202449
20
91.256838
30
0.0
11
128.022065
21
91.256838
31
0.0
0
ARC
8
0
10
128.022065
20
91.556838
30
0.0
40
0.300000
50
240.000000
51
270.000000
0
LINE
8
0
10
127.872065
20
91.297030
30
0.0
11
126.528282
21
92.072863
31
0.0
0
ARC
8
0
10
126.028282
20
91.206838
30
0.0
40
1.000000
50
60.000000
51
90.000000
0
LINE
8
0
10
126.028282
20
92.206838
30
0.0
11
125.438304
21
92.206838
31
0.0
0
ARC
8
0
10
125.438304
20
91.706838
30
0.0
40
0.500000
50
90.000000
51
145.000000
0
LINE
8
0
10
125.028728
20
91.993626
30
0.0
11
123.691076
21
90.083261
31
0.0
0
LINE
8
0
10
138.802574
20
92.291808
30
0.0
11
130.403065
21
92.291808
31
0.0
0
ARC
8
0
10
130.403065
20
92.591808
30
0.0
40
0.300000
50
180.000000
51
270.000000
0
LINE
8
0
10
130.103065
20
92.591808
30
0.0
11
130.103065
21
121.791808
31
0.0
0
ARC
8
0
10
130.403065
20
121.791808
30
0.0
40
0.300000
50
90.000000
51
180.000000
0
LINE
8
0
10
130.403065
20
122.091808
30
0.0
11
131.803065
21
122.091808
31
0.0
0
ARC
8
0
10
131.803065
20
122.391808
30
0.0
40
0.300000
50
270.000000
51
0.000000
0
LINE
8
0
10
132.103065
20
122.391808
30
0.0
11
132.103065
21
123.791836
31
0.0
0
LINE
8
0
10
132.103065
20
123.791836
30
0.0
11
137.102574
21
123.791836
31
0.0
0
LINE
8
0
10
137.102574
20
123.791836
30
0.0
11
137.102574
21
122.391808
31
0.0
0
ARC
8
0
10
137.402574
20
122.391808
30
0.0
40
0.300000
50
180.000000
51
270.000000
0
LINE
8
0
10
137.402574
20
122.091808
30
0.0
11
138.802574
21
122.091808
31
0.0
0
ARC
8
0
10
138.802574
20
121.791808
30
0.0
40
0.300000
50
0.000000
51
90.000000
0
LINE
8
0
10
139.102574
20
121.791808
30
0.0
11
139.102574
21
92.591808
31
0.0
0
ARC
8
0
10
138.802574
20
92.591808
30
0.0
40
0.300000
50
270.000000
51
0.000000
0
ARC
8
0
10
129.952316
20
132.091836
30
0.0
40
0.300000
50
270.000000
51
0.000000
0
LINE
8
0
10
130.252316
20
132.091836
30
0.0
11
130.252316
21
135.991836
31
0.0
0
ARC
8
0
10
130.552316
20
135.991836
30
0.0
40
0.300000
50
90.000000
51
180.000000
0
LINE
8
0
10
130.552316
20
136.291836
30
0.0
11
131.552316
21
136.291836
31
0.0
0
ARC
8
0
10
131.552316
20
135.991836
30
0.0
40
0.300000
50
0.000000
51
90.000000
0
LINE
8
0
10
131.852316
20
135.991836
30
0.0
11
131.852316
21
125.591836
31
0.0
0
ARC
8
0
10
132.152316
20
125.591836
30
0.0
40
0.300000
50
180.000000
51
270.000000
0
LINE
8
0
10
132.152316
20
125.291836
30
0.0
11
140.302574
21
125.291836
31
0.0
0
ARC
8
0
10
140.302574
20
124.991836
30
0.0
40
0.300000
50
0.000000
51
90.000000
0
LINE
8
0
10
140.602574
20
124.991836
30
0.0
11
140.602574
21
84.591808
31
0.0
0
ARC
8
0
10
140.302574
20
84.591808
30
0.0
40
0.300000
50
270.000000
51
0.000000
0
LINE
8
0
10
140.302574
20
84.291808
30
0.0
11
138.602574
21
84.291808
31
0.0
0
ARC
8
0
10
138.602574
20
85.091808
30
0.0
40
0.800000
50
180.000000
51
270.000000
0
LINE
8
0
10
137.802574
20
85.091808
30
0.0
11
137.802574
21
85.191808
31
0.0
0
ARC
8
0
10
138.102574
20
85.191808
30
0.0
40
0.300000
50
90.000000
51
180.000000
0
LINE
8
0
10
138.102574
20
85.491808
30
0.0
11
138.802574
21
85.491808
31
0.0
0
ARC
8
0
10
138.802574
20
85.791808
30
0.0
40
0.300000
50
270.000000
51
0.000000
0
LINE
8
0
10
139.102574
20
85.791808
30
0.0
11
139.102574
21
90.491808
31
0.0
0
ARC
8
0
10
138.802574
20
90.491808
30
0.0
40
0.300000
50
0.000000
51
90.000000
0
LINE
8
0
10
138.802574
20
90.791808
30
0.0
11
130.664217
21
90.791808
31
0.0
0
ARC
8
0
10
130.664217
20
90.491808
30
0.0
40
0.300000
50
90.000000
51
173.157227
0
LINE
8
0
10
130.366354
20
90.527552
30
0.0
11
130.098065
21
88.291808
31
0.0
0
LINE
8
0
10
130.098065
20
88.291808
30
0.0
11
130.098065
21
85.791808
31
0.0
0
ARC
8
0
10
130.398065
20
85.791808
30
0.0
40
0.300000
50
180.000000
51
270.000000
0
LINE
8
0
10
130.398065
20
85.491808
30
0.0
11
131.102574
21
85.491808
31
0.0
0
ARC
8
0
10
131.102574
20
85.191808
30
0.0
40
0.300000
50
0.000000
51
90.000000
0
LINE
8
0
10
131.402574
20
85.191808
30
0.0
11
131.402574
21
85.091808
31
0.0
0
ARC
8
0
10
130.602574
20
85.091808
30
0.0
40
0.800000
50
270.000000
51
0.000000
0
LINE
8
0
10
130.602574
20
84.291808
30
0.0
11
128.902557
21
84.291808
31
0.0
0
ARC
8
0
10
128.902557
20
84.591808
30
0.0
40
0.300000
50
180.000000
51
270.000000
0
LINE
8
0
10
128.602557
20
84.591792
30
0.0
11
128.602316
21
88.991808
31
0.0
0
ARC
8
0
10
128.302316
20
88.991792
30
0.0
40
0.300000
50
0.000000
51
75.233538
0
LINE
8
0
10
128.378780
20
89.281884
30
0.0
11
127.341334
21
89.555339
31
0.0
0
ARC
8
0
10
127.251613
20
89.269070
30
0.0
40
0.300000
50
72.598279
51
150.367342
0
ARC
8
0
10
126.817006
20
89.516289
30
0.0
40
0.200000
50
270.000000
51
330.367342
0
LINE
8
0
10
126.815604
20
89.316293
30
0.0
11
125.264510
21
89.316293
31
0.0
0
ARC
8
0
10
125.264510
20
89.616293
30
0.0
40
0.300000
50
162.598279
51
270.000000
0
LINE
8
0
10
124.978241
20
89.706014
30
0.0
11
125.580205
21
91.626683
31
0.0
0
ARC
8
0
10
126.343590
20
91.387428
30
0.0
40
0.800000
50
117.598279
51
162.598279
0
LINE
8
0
10
125.972975
20
92.096402
30
0.0
11
126.254045
21
92.243331
31
0.0
0
ARC
8
0
10
126.346699
20
92.066087
30
0.0
40
0.200000
50
0.000000
51
117.598279
0
LINE
8
0
10
126.546523
20
92.057706
30
0.0
11
126.534426
21
91.769285
31
0.0
0
LINE
8
0
10
126.534426
20
91.769285
30
0.0
11
128.242523
21
90.685221
31
0.0
0
ARC
8
0
10
128.564034
20
91.191808
30
0.0
40
0.600000
50
237.598279
51
270.000000
0
LINE
8
0
10
128.564034
20
90.591808
30
0.0
11
128.602316
21
90.591808
31
0.0
0
ARC
8
0
10
128.502316
20
90.874651
30
0.0
40
0.300000
50
289.471221
51
70.528779
0
LINE
8
0
10
128.602316
20
91.157494
30
0.0
11
128.602316
21
95.191808
31
0.0
0
ARC
8
0
10
128.302316
20
95.191808
30
0.0
40
0.300000
50
0.000000
51
90.000000
0
LINE
8
0
10
128.302316
20
95.491808
30
0.0
11
128.082701
21
95.491808
31
0.0
0
ARC
8
0
10
128.082701
20
95.191808
30
0.0
40
0.300000
50
90.000000
51
120.000000
0
LINE
8
0
10
127.932701
20
95.451616
30
0.0
11
126.402316
21
94.568048
31
0.0
0
ARC
8
0
10
126.302316
20
94.741253
30
0.0
40
0.200000
50
180.000000
51
300.000000
0
LINE
8
0
10
126.102316
20
94.741253
30
0.0
11
126.102316
21
95.895954
31
0.0
0
ARC
8
0
10
127.102316
20
95.895954
30
0.0
40
1.000000
50
119.999999
51
180.000000
0
LINE
8
0
10
126.602316
20
96.761979
30
0.0
11
128.102316
21
97.628004
31
0.0
0
ARC
8
0
10
127.602316
20
98.494030
30
0.0
40
1.000000
50
299.999999
51
0.000000
0
LINE
8
0
10
128.602316
20
98.494030
30
0.0
11
128.602316
21
122.291822
31
0.0
0
ARC
8
0
10
128.302316
20
122.291822
30
0.0
40
0.300000
50
0.000000
51
90.000000
0
LINE
8
0
10
128.302316
20
122.591822
30
0.0
11
124.402316
21
122.591822
31
0.0
0
ARC
8
0
10
124.402316
20
122.891822
30
0.0
40
0.300000
50
180.000000
51
270.000000
0
LINE
8
0
10
124.102316
20
122.891822
30
0.0
11
124.102316
21
123.791822
31
0.0
0
ARC
8
0
10
124.402316
20
123.791822
30
0.0
40
0.300000
50
90.000000
51
180.000000
0
LINE
8
0
10
124.402316
20
124.091822
30
0.0
11
125.802316
21
124.091822
31
0.0
0
ARC
8
0
10
125.802316
20
124.391822
30
0.0
40
0.300000
50
270.000000
51
0.000000
0
LINE
8
0
10
126.102316
20
124.391822
30
0.0
11
126.102316
21
126.342364
31
0.0
0
ARC
8
0
10
126.302316
20
126.342364
30
0.0
40
0.200000
50
60.000000
51
180.000000
0
LINE
8
0
10
126.402316
20
126.515569
30
0.0
11
127.932701
21
125.632001
31
0.0
0
ARC
8
0
10
128.082701
20
125.891808
30
0.0
40
0.300000
50
240.000000
51
270.000000
0
LINE
8
0
10
128.082701
20
125.591808
30
0.0
11
128.302316
21
125.591808
31
0.0
0
ARC
8
0
10
128.302316
20
125.891808
30
0.0
40
0.300000
50
270.000000
51
0.000000
0
LINE
8
0
10
128.602316
20
125.891808
30
0.0
11
128.602316
21
129.926123
31
0.0
0
ARC
8
0
10
128.502316
20
130.208966
30
0.0
40
0.300000
50
289.471221
51
70.528779
0
LINE
8
0
10
128.602316
20
130.491808
30
0.0
11
128.564034
21
130.491808
31
0.0
0
ARC
8
0
10
128.564034
20
129.891808
30
0.0
40
0.600000
50
90.000000
51
122.401721
0
LINE
8
0
10
128.242523
20
130.398396
30
0.0
11
126.534426
21
129.314332
31
0.0
0
LINE
8
0
10
126.534426
20
129.314332
30
0.0
11
126.546523
21
129.025911
31
0.0
0
ARC
8
0
10
126.346699
20
129.017530
30
0.0
40
0.200000
50
242.401721
51
0.000000
0
LINE
8
0
10
126.254045
20
128.840286
30
0.0
11
125.972975
21
128.987215
31
0.0
0
ARC
8
0
10
126.343590
20
129.696189
30
0.0
40
0.800000
50
197.401721
51
242.401721
0
LINE
8
0
10
125.580205
20
129.456934
30
0.0
11
124.978241
21
131.377603
31
0.0
0
ARC
8
0
10
125.264510
20
131.467324
30
0.0
40
0.300000
50
90.000000
51
197.401721
0
LINE
8
0
10
125.264510
20
131.767324
30
0.0
11
126.815604
21
131.767324
31
0.0
0
ARC
8
0
10
126.817006
20
131.567328
30
0.0
40
0.200000
50
29.632658
51
90.000000
0
ARC
8
0
10
127.251613
20
131.814547
30
0.0
40
0.300000
50
209.632658
51
287.401721
0
LINE
8
0
10
127.341334
20
131.528278
30
0.0
11
128.303642
21
131.781928
31
0.0
0
LINE
8
0
10
128.380106
20
131.791836
30
0.0
11
128.303642
21
131.781928
31
0.0
0
LINE
8
0
10
128.380106
20
131.791836
30
0.0
11
129.952316
21
131.791836
31
0.0
0
ATTDEF
8
0
10
63.602317
20
84.291808
30
0.0
40
3.5
1

3

2
DESC:Telaio L per porta apertura esterna
70
0
0
ATTDEF
8
0
10
63.602317
20
84.291808
30
0.0
40
3.5
1

3

2
DENS:1.780000
70
0
0
ATTDEF
8
0
10
63.602317
20
84.291808
30
0.0
40
3.5
1

3

2
TDEV:0.000000
70
0
0
ATTDEF
8
0
10
63.602317
20
84.291808
30
0.0
40
3.5
1

3

2
TDEV2:0.000000
70
0
0
ATTDEF
8
0
10
63.602317
20
84.291808
30
0.0
40
3.5
1

3

2
TDEV3:0.000000
70
0
0
ATTDEF
8
0
10
63.602317
20
84.291808
30
0.0
40
3.5
1

3

2
TDEV4:0.000000
70
0
0
ATTDEF
8
0
10
63.602317
20
84.291808
30
0.0
40
3.5
1

3

2
TDEV5:0.000000
70
0
0
ATTDEF
8
0
10
63.602317
20
84.291808
30
0.0
40
3.5
1

3

2
FRONT_VIEW
70
0
0
ATTDEF
8
0
10
63.602317
20
84.291808
30
0.0
40
3.5
1

3

2
BL01:6800.000000,,1
70
0
0
ATTDEF
8
0
10
63.602317
20
84.291808
30
0.0
40
3.5
1

3

2
OPTI:500.000000,1,0,3000.000000,6500.000000,500.000000,0,0.000000,0
70
0
0
ATTDEF
8
0
10
63.602317
20
84.291808
30
0.0
40
3.5
1

3

2
PANE_WIDTH:0.000000
70
0
0
ATTDEF
8
0
10
63.602317
20
84.291808
30
0.0
40
3.5
1

3

2
GLASS_MIN:0.000000
70
0
0
ATTDEF
8
0
10
63.602317
20
84.291808
30
0.0
40
3.5
1

3

2
GLASS_MAX:0.000000
70
0
0
ATTDEF
8
0
10
63.602317
20
84.291808
30
0.0
40
3.5
1

3

2
JX:0.000000
70
0
0
ATTDEF
8
0
10
63.602317
20
84.291808
30
0.0
40
3.5
1

3

2
WX:0.000000
70
0
0
ATTDEF
8
0
10
63.602317
20
84.291808
30
0.0
40
3.5
1

3

2
JY:0.000000
70
0
0
ATTDEF
8
0
10
63.602317
20
84.291808
30
0.0
40
3.5
1

3

2
WY:0.000000
70
0
0
ATTDEF
8
0
10
128.303642
20
131.781928
30
0.0
40
3.5
1

3

2
VC_START
70
0
0
ATTDEF
8
0
10
128.902557
20
84.291808
30
0.0
40
3.5
1

3

2
VC_END
70
0
0
ATTDEF
8
0
10
63.602317
20
84.291808
30
0.0
40
3.5
1

3

2
FP_LCS_ORIG
70
0
0
ATTDEF
8
0
10
73.602317
20
84.291808
30
0.0
40
3.5
1

3

2
FP_LCS_HOT
70
0
0
ATTDEF
8
0
10
63.602317
20
94.291808
30
0.0
40
3.5
1

3

2
FP_LCS_INTERN
70
0
0
ENDSEC
0
EOF
