0
SECTION
2
ENTITIES
0
ARC
8
0
10
167.320329
20
132.847458
30
0.0
40
0.300000
50
270.000000
51
0.000000
0
LINE
8
0
10
167.620329
20
132.847458
30
0.0
11
167.620329
21
133.344055
31
0.0
0
ARC
8
0
10
167.320329
20
133.344055
30
0.0
40
0.300000
50
0.000000
51
75.000000
0
LINE
8
0
10
167.397975
20
133.633832
30
0.0
11
165.342684
21
134.184546
31
0.0
0
ARC
8
0
10
165.420329
20
134.474324
30
0.0
40
0.300000
50
180.000000
51
255.000000
0
LINE
8
0
10
165.120329
20
134.474324
30
0.0
11
165.120329
21
138.747458
31
0.0
0
ARC
8
0
10
165.420329
20
138.747458
30
0.0
40
0.300000
50
90.000000
51
180.000000
0
LINE
8
0
10
165.420329
20
139.047458
30
0.0
11
183.670329
21
139.047458
31
0.0
0
ARC
8
0
10
183.670329
20
138.747458
30
0.0
40
0.300000
50
0.000000
51
90.000000
0
LINE
8
0
10
183.970329
20
138.747458
30
0.0
11
183.970329
21
132.847458
31
0.0
0
ARC
8
0
10
184.270329
20
132.847458
30
0.0
40
0.300000
50
180.000000
51
270.000000
0
LINE
8
0
10
184.270329
20
132.547458
30
0.0
11
192.420329
21
132.547458
31
0.0
0
ARC
8
0
10
192.420329
20
132.247458
30
0.0
40
0.300000
50
0.000000
51
90.000000
0
LINE
8
0
10
192.720329
20
132.247458
30
0.0
11
192.720329
21
102.047458
31
0.0
0
ARC
8
0
10
192.420329
20
102.047458
30
0.0
40
0.300000
50
270.000000
51
0.000000
0
LINE
8
0
10
192.420329
20
101.747458
30
0.0
11
165.420329
21
101.747458
31
0.0
0
ARC
8
0
10
165.420329
20
102.047458
30
0.0
40
0.300000
50
180.000000
51
270.000000
0
LINE
8
0
10
165.120329
20
102.047458
30
0.0
11
165.120329
21
132.247458
31
0.0
0
ARC
8
0
10
165.420329
20
132.247458
30
0.0
40
0.300000
50
90.000000
51
180.000000
0
LINE
8
0
10
165.420329
20
132.547458
30
0.0
11
167.320329
21
132.547458
31
0.0
0
ARC
8
0
10
126.319581
20
131.447458
30
0.0
40
0.300000
50
180.000000
51
270.000000
0
LINE
8
0
10
126.019581
20
131.447458
30
0.0
11
126.019581
21
132.347458
31
0.0
0
ARC
8
0
10
126.319581
20
132.347458
30
0.0
40
0.300000
50
90.000000
51
180.000000
0
LINE
8
0
10
126.319581
20
132.647458
30
0.0
11
127.719581
21
132.647458
31
0.0
0
ARC
8
0
10
127.719581
20
132.947458
30
0.0
40
0.300000
50
270.000000
51
0.000000
0
LINE
8
0
10
128.019581
20
132.947458
30
0.0
11
128.019581
21
139.047458
31
0.0
0
ARC
8
0
10
127.719581
20
139.047458
30
0.0
40
0.300000
50
0.000000
51
90.000000
0
LINE
8
0
10
127.719581
20
139.347458
30
0.0
11
119.320072
21
139.347458
31
0.0
0
ARC
8
0
10
119.320072
20
139.047458
30
0.0
40
0.300000
50
90.000000
51
180.000000
0
LINE
8
0
10
119.020072
20
139.047458
30
0.0
11
119.020072
21
132.947458
31
0.0
0
ARC
8
0
10
119.320072
20
132.947458
30
0.0
40
0.300000
50
180.000000
51
270.000000
0
LINE
8
0
10
119.320072
20
132.647458
30
0.0
11
120.720072
21
132.647458
31
0.0
0
ARC
8
0
10
120.720072
20
132.347458
30
0.0
40
0.300000
50
0.000000
51
90.000000
0
LINE
8
0
10
121.020072
20
132.347458
30
0.0
11
121.020072
21
131.447458
31
0.0
0
ARC
8
0
10
120.720072
20
131.447458
30
0.0
40
0.300000
50
270.000000
51
0.000000
0
LINE
8
0
10
120.720072
20
131.147458
30
0.0
11
119.320072
21
131.147458
31
0.0
0
ARC
8
0
10
119.320072
20
130.847458
30
0.0
40
0.300000
50
90.000000
51
180.000000
0
LINE
8
0
10
119.020072
20
130.847458
30
0.0
11
119.020072
21
101.647458
31
0.0
0
ARC
8
0
10
119.320072
20
101.647458
30
0.0
40
0.300000
50
180.000000
51
270.000000
0
LINE
8
0
10
119.320072
20
101.347458
30
0.0
11
127.719581
21
101.347458
31
0.0
0
ARC
8
0
10
127.719581
20
101.647458
30
0.0
40
0.300000
50
270.000000
51
0.000000
0
LINE
8
0
10
128.019581
20
101.647458
30
0.0
11
128.019581
21
130.847458
31
0.0
0
ARC
8
0
10
127.719581
20
130.847458
30
0.0
40
0.300000
50
0.000000
51
90.000000
0
LINE
8
0
10
127.719581
20
131.147458
30
0.0
11
126.319581
21
131.147458
31
0.0
0
ARC
8
0
10
131.820329
20
103.796902
30
0.0
40
0.200000
50
240.000000
51
0.000000
0
LINE
8
0
10
131.720329
20
103.623697
30
0.0
11
130.189945
21
104.507265
31
0.0
0
ARC
8
0
10
130.039945
20
104.247458
30
0.0
40
0.300000
50
60.000000
51
90.000000
0
LINE
8
0
10
130.039945
20
104.547458
30
0.0
11
129.820329
21
104.547458
31
0.0
0
ARC
8
0
10
129.820329
20
104.247458
30
0.0
40
0.300000
50
90.000000
51
180.000000
0
LINE
8
0
10
129.520329
20
104.247458
30
0.0
11
129.520329
21
100.213143
31
0.0
0
ARC
8
0
10
129.620329
20
99.930300
30
0.0
40
0.300000
50
109.471221
51
250.528779
0
LINE
8
0
10
129.520329
20
99.647458
30
0.0
11
129.558611
21
99.647458
31
0.0
0
ARC
8
0
10
129.558611
20
100.247458
30
0.0
40
0.600000
50
270.000000
51
302.401721
0
LINE
8
0
10
129.880122
20
99.740871
30
0.0
11
131.588219
21
100.824934
31
0.0
0
LINE
8
0
10
131.588219
20
100.824934
30
0.0
11
131.576122
21
101.113355
31
0.0
0
ARC
8
0
10
131.775946
20
101.121737
30
0.0
40
0.200000
50
62.401721
51
180.000000
0
LINE
8
0
10
131.868600
20
101.298980
30
0.0
11
132.149671
21
101.152051
31
0.0
0
ARC
8
0
10
131.779055
20
100.443077
30
0.0
40
0.800000
50
17.401721
51
62.401721
0
LINE
8
0
10
132.542440
20
100.682332
30
0.0
11
133.144405
21
98.761664
31
0.0
0
ARC
8
0
10
132.858135
20
98.671943
30
0.0
40
0.300000
50
270.000000
51
17.401721
0
LINE
8
0
10
132.858135
20
98.371943
30
0.0
11
131.307041
21
98.371943
31
0.0
0
ARC
8
0
10
131.305639
20
98.571938
30
0.0
40
0.200000
50
209.632658
51
270.000000
0
ARC
8
0
10
130.871032
20
98.324719
30
0.0
40
0.300000
50
29.632658
51
107.401721
0
LINE
8
0
10
130.781311
20
98.610989
30
0.0
11
129.743865
21
98.337533
31
0.0
0
ARC
8
0
10
129.820329
20
98.047441
30
0.0
40
0.300000
50
104.766462
51
180.000000
0
LINE
8
0
10
129.520329
20
98.047458
30
0.0
11
129.520088
21
93.647441
31
0.0
0
ARC
8
0
10
129.220088
20
93.647458
30
0.0
40
0.300000
50
270.000000
51
0.000000
0
LINE
8
0
10
129.220088
20
93.347458
30
0.0
11
127.520072
21
93.347458
31
0.0
0
ARC
8
0
10
127.520072
20
94.147458
30
0.0
40
0.800000
50
180.000000
51
270.000000
0
LINE
8
0
10
126.720072
20
94.147458
30
0.0
11
126.720072
21
94.247458
31
0.0
0
ARC
8
0
10
127.020072
20
94.247458
30
0.0
40
0.300000
50
90.000000
51
180.000000
0
LINE
8
0
10
127.020072
20
94.547458
30
0.0
11
127.724581
21
94.547458
31
0.0
0
ARC
8
0
10
127.724581
20
94.847458
30
0.0
40
0.300000
50
270.000000
51
0.000000
0
LINE
8
0
10
128.024581
20
94.847458
30
0.0
11
128.024581
21
97.347458
31
0.0
0
LINE
8
0
10
128.024581
20
97.347458
30
0.0
11
127.756291
21
99.583201
31
0.0
0
ARC
8
0
10
127.458428
20
99.547458
30
0.0
40
0.300000
50
6.842773
51
90.000000
0
LINE
8
0
10
127.458428
20
99.847458
30
0.0
11
119.320072
21
99.847458
31
0.0
0
ARC
8
0
10
119.320072
20
99.547458
30
0.0
40
0.300000
50
90.000000
51
180.000000
0
LINE
8
0
10
119.020072
20
99.547458
30
0.0
11
119.020072
21
94.847458
31
0.0
0
ARC
8
0
10
119.320072
20
94.847458
30
0.0
40
0.300000
50
180.000000
51
270.000000
0
LINE
8
0
10
119.320072
20
94.547458
30
0.0
11
120.020072
21
94.547458
31
0.0
0
ARC
8
0
10
120.020072
20
94.247458
30
0.0
40
0.300000
50
0.000000
51
90.000000
0
LINE
8
0
10
120.320072
20
94.247458
30
0.0
11
120.320072
21
94.147458
31
0.0
0
ARC
8
0
10
119.520072
20
94.147458
30
0.0
40
0.800000
50
270.000000
51
0.000000
0
LINE
8
0
10
119.520072
20
93.347458
30
0.0
11
117.820072
21
93.347458
31
0.0
0
ARC
8
0
10
117.820072
20
93.647458
30
0.0
40
0.300000
50
180.000000
51
270.000000
0
LINE
8
0
10
117.520072
20
93.647458
30
0.0
11
117.520072
21
158.849186
31
0.0
0
ARC
8
0
10
118.020072
20
158.849186
30
0.0
40
0.500000
50
90.000000
51
180.000000
0
LINE
8
0
10
118.020072
20
159.349186
30
0.0
11
121.720072
21
159.349186
31
0.0
0
ARC
8
0
10
121.720072
20
159.049186
30
0.0
40
0.300000
50
0.000000
51
90.000000
0
LINE
8
0
10
122.020072
20
159.049186
30
0.0
11
122.020072
21
157.549186
31
0.0
0
ARC
8
0
10
121.320072
20
157.549186
30
0.0
40
0.700000
50
270.000000
51
0.000000
0
ARC
8
0
10
121.320072
20
157.149186
30
0.0
40
0.300000
50
180.000000
51
270.000000
0
LINE
8
0
10
121.020072
20
157.149186
30
0.0
11
121.020072
21
157.849186
31
0.0
0
ARC
8
0
10
120.720072
20
157.849186
30
0.0
40
0.300000
50
0.000000
51
90.000000
0
LINE
8
0
10
120.720072
20
158.149186
30
0.0
11
119.520072
21
158.149186
31
0.0
0
ARC
8
0
10
119.520072
20
157.449186
30
0.0
40
0.700000
50
90.000000
51
180.000000
0
LINE
8
0
10
118.820072
20
157.449186
30
0.0
11
118.820072
21
151.249186
31
0.0
0
ARC
8
0
10
119.520072
20
151.249186
30
0.0
40
0.700000
50
180.000000
51
270.000000
0
LINE
8
0
10
119.520072
20
150.549186
30
0.0
11
120.720072
21
150.549186
31
0.0
0
ARC
8
0
10
120.720072
20
150.849186
30
0.0
40
0.300000
50
270.000000
51
0.000000
0
LINE
8
0
10
121.020072
20
150.849186
30
0.0
11
121.020072
21
151.549186
31
0.0
0
ARC
8
0
10
121.320072
20
151.549186
30
0.0
40
0.300000
50
90.000000
51
180.000000
0
ARC
8
0
10
121.320072
20
151.149186
30
0.0
40
0.700000
50
0.000000
51
90.000000
0
LINE
8
0
10
122.020072
20
151.149186
30
0.0
11
122.020072
21
149.649186
31
0.0
0
ARC
8
0
10
121.720072
20
149.649186
30
0.0
40
0.300000
50
270.000000
51
0.000000
0
LINE
8
0
10
121.720072
20
149.349186
30
0.0
11
119.520072
21
149.349186
31
0.0
0
ARC
8
0
10
119.520072
20
149.049186
30
0.0
40
0.300000
50
90.000000
51
180.000000
0
LINE
8
0
10
119.220072
20
149.049186
30
0.0
11
119.220072
21
141.847458
31
0.0
0
ARC
8
0
10
120.220072
20
141.847458
30
0.0
40
1.000000
50
180.000000
51
270.000000
0
LINE
8
0
10
120.220072
20
140.847458
30
0.0
11
129.742644
21
140.847458
31
0.0
0
LINE
8
0
10
129.819108
20
140.837550
30
0.0
11
129.742644
21
140.847458
31
0.0
0
LINE
8
0
10
129.819108
20
140.837550
30
0.0
11
130.781311
21
140.583927
31
0.0
0
ARC
8
0
10
130.871032
20
140.870196
30
0.0
40
0.300000
50
252.598279
51
330.367342
0
ARC
8
0
10
131.305639
20
140.622978
30
0.0
40
0.200000
50
90.000000
51
150.367342
0
LINE
8
0
10
131.307041
20
140.822973
30
0.0
11
132.858135
21
140.822973
31
0.0
0
ARC
8
0
10
132.858135
20
140.522973
30
0.0
40
0.300000
50
342.598279
51
90.000000
0
LINE
8
0
10
133.144405
20
140.433252
30
0.0
11
132.542440
21
138.512583
31
0.0
0
ARC
8
0
10
131.779055
20
138.751839
30
0.0
40
0.800000
50
297.598279
51
342.598279
0
LINE
8
0
10
132.149671
20
138.042865
30
0.0
11
131.868600
21
137.895935
31
0.0
0
ARC
8
0
10
131.775946
20
138.073179
30
0.0
40
0.200000
50
180.000000
51
297.598279
0
LINE
8
0
10
131.576122
20
138.081560
30
0.0
11
131.588219
21
138.369982
31
0.0
0
LINE
8
0
10
131.588219
20
138.369982
30
0.0
11
129.880122
21
139.454045
31
0.0
0
ARC
8
0
10
129.558611
20
138.947458
30
0.0
40
0.600000
50
57.598279
51
90.000000
0
LINE
8
0
10
129.558611
20
139.547458
30
0.0
11
129.520329
21
139.547458
31
0.0
0
ARC
8
0
10
129.620329
20
139.264615
30
0.0
40
0.300000
50
109.471221
51
250.528779
0
LINE
8
0
10
129.520329
20
138.981772
30
0.0
11
129.520329
21
134.947458
31
0.0
0
ARC
8
0
10
129.820329
20
134.947458
30
0.0
40
0.300000
50
180.000000
51
270.000000
0
LINE
8
0
10
129.820329
20
134.647458
30
0.0
11
130.039945
21
134.647458
31
0.0
0
ARC
8
0
10
130.039945
20
134.947458
30
0.0
40
0.300000
50
270.000000
51
300.000000
0
LINE
8
0
10
130.189945
20
134.687650
30
0.0
11
131.720329
21
135.571218
31
0.0
0
ARC
8
0
10
131.820329
20
135.398013
30
0.0
40
0.200000
50
0.000000
51
120.000000
0
LINE
8
0
10
132.020329
20
135.398013
30
0.0
11
132.020329
21
134.243313
31
0.0
0
ARC
8
0
10
131.020329
20
134.243313
30
0.0
40
1.000000
50
300.000001
51
0.000000
0
LINE
8
0
10
131.520329
20
133.377287
30
0.0
11
130.020329
21
132.511262
31
0.0
0
ARC
8
0
10
130.520329
20
131.645236
30
0.0
40
1.000000
50
120.000001
51
180.000000
0
LINE
8
0
10
129.520329
20
131.645236
30
0.0
11
129.520329
21
107.549679
31
0.0
0
ARC
8
0
10
130.520329
20
107.549679
30
0.0
40
1.000000
50
180.000000
51
240.000001
0
LINE
8
0
10
130.020329
20
106.683654
30
0.0
11
131.520329
21
105.817628
31
0.0
0
ARC
8
0
10
131.020329
20
104.951603
30
0.0
40
1.000000
50
0.000000
51
60.000001
0
LINE
8
0
10
132.020329
20
104.951603
30
0.0
11
132.020329
21
103.796902
31
0.0
0
ARC
8
0
10
190.970885
20
93.647458
30
0.0
40
0.300000
50
210.000000
51
270.000000
0
LINE
8
0
10
190.711077
20
93.497458
30
0.0
11
190.260522
21
94.277842
31
0.0
0
ARC
8
0
10
190.520329
20
94.427842
30
0.0
40
0.300000
50
180.000000
51
210.000000
0
LINE
8
0
10
190.220329
20
94.427842
30
0.0
11
190.220329
21
94.547458
31
0.0
0
ARC
8
0
10
190.520329
20
94.547458
30
0.0
40
0.300000
50
90.000000
51
180.000000
0
LINE
8
0
10
190.520329
20
94.847458
30
0.0
11
192.420329
21
94.847458
31
0.0
0
ARC
8
0
10
192.420329
20
95.147458
30
0.0
40
0.300000
50
270.000000
51
0.000000
0
LINE
8
0
10
192.720329
20
95.147458
30
0.0
11
192.720329
21
99.648568
31
0.0
0
ARC
8
0
10
192.420329
20
99.648568
30
0.0
40
0.300000
50
0.000000
51
90.000000
0
LINE
8
0
10
192.420329
20
99.948568
30
0.0
11
191.220329
21
99.948568
31
0.0
0
ARC
8
0
10
191.220329
20
99.648568
30
0.0
40
0.300000
50
90.000000
51
180.000000
0
LINE
8
0
10
190.920329
20
99.648568
30
0.0
11
190.920329
21
98.647058
31
0.0
0
ARC
8
0
10
190.620329
20
98.647058
30
0.0
40
0.300000
50
270.000000
51
0.000000
0
LINE
8
0
10
190.620329
20
98.347058
30
0.0
11
189.220329
21
98.347058
31
0.0
0
ARC
8
0
10
189.220329
20
98.647058
30
0.0
40
0.300000
50
180.000000
51
270.000000
0
LINE
8
0
10
188.920329
20
98.647058
30
0.0
11
188.920329
21
99.648568
31
0.0
0
ARC
8
0
10
188.620329
20
99.648568
30
0.0
40
0.300000
50
0.000000
51
90.000000
0
LINE
8
0
10
188.620329
20
99.948568
30
0.0
11
185.820329
21
99.948568
31
0.0
0
LINE
8
0
10
185.820329
20
99.948568
30
0.0
11
185.520329
21
100.248568
31
0.0
0
LINE
8
0
10
185.520329
20
100.248568
30
0.0
11
185.220329
21
99.948568
31
0.0
0
LINE
8
0
10
185.220329
20
99.948568
30
0.0
11
182.320329
21
99.948568
31
0.0
0
ARC
8
0
10
182.320329
20
99.648568
30
0.0
40
0.300000
50
90.000000
51
180.000000
0
LINE
8
0
10
182.020329
20
99.648568
30
0.0
11
182.020329
21
98.647058
31
0.0
0
ARC
8
0
10
181.720329
20
98.647058
30
0.0
40
0.300000
50
270.000000
51
0.000000
0
LINE
8
0
10
181.720329
20
98.347058
30
0.0
11
180.320329
21
98.347058
31
0.0
0
ARC
8
0
10
180.320329
20
98.647058
30
0.0
40
0.300000
50
180.000000
51
270.000000
0
LINE
8
0
10
180.020329
20
98.647058
30
0.0
11
180.020329
21
99.648568
31
0.0
0
ARC
8
0
10
179.720329
20
99.648568
30
0.0
40
0.300000
50
0.000000
51
90.000000
0
LINE
8
0
10
179.720329
20
99.948568
30
0.0
11
178.520329
21
99.948568
31
0.0
0
ARC
8
0
10
178.520329
20
99.648568
30
0.0
40
0.300000
50
90.000000
51
180.000000
0
LINE
8
0
10
178.220329
20
99.648568
30
0.0
11
178.220329
21
95.147458
31
0.0
0
ARC
8
0
10
178.520329
20
95.147458
30
0.0
40
0.300000
50
180.000000
51
270.000000
0
LINE
8
0
10
178.520329
20
94.847458
30
0.0
11
179.920329
21
94.847458
31
0.0
0
ARC
8
0
10
179.920329
20
94.547458
30
0.0
40
0.300000
50
0.000000
51
90.000000
0
LINE
8
0
10
180.220329
20
94.547458
30
0.0
11
180.220329
21
94.427842
31
0.0
0
ARC
8
0
10
179.920329
20
94.427842
30
0.0
40
0.300000
50
330.000000
51
0.000000
0
LINE
8
0
10
180.180137
20
94.277842
30
0.0
11
179.729582
21
93.497458
31
0.0
0
ARC
8
0
10
179.469774
20
93.647458
30
0.0
40
0.300000
50
270.000000
51
330.000000
0
LINE
8
0
10
179.469774
20
93.347458
30
0.0
11
177.020329
21
93.347458
31
0.0
0
ARC
8
0
10
177.020329
20
93.647458
30
0.0
40
0.300000
50
180.000000
51
270.000000
0
LINE
8
0
10
176.720329
20
93.647458
30
0.0
11
176.720329
21
99.648568
31
0.0
0
ARC
8
0
10
176.420329
20
99.648568
30
0.0
40
0.300000
50
0.000000
51
90.000000
0
LINE
8
0
10
176.420329
20
99.948568
30
0.0
11
165.420329
21
99.948568
31
0.0
0
ARC
8
0
10
165.420329
20
99.648568
30
0.0
40
0.300000
50
90.000000
51
180.000000
0
LINE
8
0
10
165.120329
20
99.648568
30
0.0
11
165.120329
21
98.647458
31
0.0
0
ARC
8
0
10
164.820329
20
98.647458
30
0.0
40
0.300000
50
270.000000
51
0.000000
0
LINE
8
0
10
164.820329
20
98.347458
30
0.0
11
163.298014
21
98.347458
31
0.0
0
LINE
8
0
10
163.221550
20
98.357366
30
0.0
11
163.298014
21
98.347458
31
0.0
0
LINE
8
0
10
163.221550
20
98.357366
30
0.0
11
162.259347
21
98.610989
31
0.0
0
ARC
8
0
10
162.169626
20
98.324719
30
0.0
40
0.300000
50
72.598279
51
150.367342
0
ARC
8
0
10
161.735020
20
98.571938
30
0.0
40
0.200000
50
270.000000
51
330.367342
0
LINE
8
0
10
161.733618
20
98.371943
30
0.0
11
160.182523
21
98.371943
31
0.0
0
ARC
8
0
10
160.182523
20
98.671943
30
0.0
40
0.300000
50
162.598279
51
270.000000
0
LINE
8
0
10
159.896254
20
98.761664
30
0.0
11
160.498218
21
100.682332
31
0.0
0
ARC
8
0
10
161.261603
20
100.443077
30
0.0
40
0.800000
50
117.598279
51
162.598279
0
LINE
8
0
10
160.890988
20
101.152051
30
0.0
11
161.172058
21
101.298980
31
0.0
0
ARC
8
0
10
161.264712
20
101.121737
30
0.0
40
0.200000
50
0.000000
51
117.598279
0
LINE
8
0
10
161.464536
20
101.113355
30
0.0
11
161.452439
21
100.824934
31
0.0
0
LINE
8
0
10
161.452439
20
100.824934
30
0.0
11
163.160536
21
99.740871
31
0.0
0
ARC
8
0
10
163.482048
20
100.247458
30
0.0
40
0.600000
50
237.598279
51
270.000000
0
LINE
8
0
10
163.482048
20
99.647458
30
0.0
11
163.520329
21
99.647458
31
0.0
0
ARC
8
0
10
163.420329
20
99.930300
30
0.0
40
0.300000
50
289.471221
51
70.528779
0
LINE
8
0
10
163.520329
20
100.213143
30
0.0
11
163.520329
21
104.247458
31
0.0
0
ARC
8
0
10
163.220329
20
104.247458
30
0.0
40
0.300000
50
0.000000
51
90.000000
0
LINE
8
0
10
163.220329
20
104.547458
30
0.0
11
163.000714
21
104.547458
31
0.0
0
ARC
8
0
10
163.000714
20
104.247458
30
0.0
40
0.300000
50
90.000000
51
120.000000
0
LINE
8
0
10
162.850714
20
104.507265
30
0.0
11
161.320329
21
103.623697
31
0.0
0
ARC
8
0
10
161.220329
20
103.796902
30
0.0
40
0.200000
50
180.000000
51
300.000000
0
LINE
8
0
10
161.020329
20
103.796902
30
0.0
11
161.020329
21
104.951603
31
0.0
0
ARC
8
0
10
162.020329
20
104.951603
30
0.0
40
1.000000
50
120.000000
51
180.000000
0
LINE
8
0
10
161.520329
20
105.817628
30
0.0
11
163.020329
21
106.683654
31
0.0
0
ARC
8
0
10
162.520329
20
107.549679
30
0.0
40
1.000000
50
300.000000
51
0.000000
0
LINE
8
0
10
163.520329
20
107.549679
30
0.0
11
163.520329
21
131.645236
31
0.0
0
ARC
8
0
10
162.520329
20
131.645236
30
0.0
40
1.000000
50
0.000000
51
60.000000
0
LINE
8
0
10
163.020329
20
132.511262
30
0.0
11
161.520329
21
133.377287
31
0.0
0
ARC
8
0
10
162.020329
20
134.243313
30
0.0
40
1.000000
50
180.000000
51
240.000000
0
LINE
8
0
10
161.020329
20
134.243313
30
0.0
11
161.020329
21
135.398013
31
0.0
0
ARC
8
0
10
161.220329
20
135.398013
30
0.0
40
0.200000
50
60.000000
51
180.000000
0
LINE
8
0
10
161.320329
20
135.571218
30
0.0
11
162.850714
21
134.687650
31
0.0
0
ARC
8
0
10
163.000714
20
134.947458
30
0.0
40
0.300000
50
240.000000
51
270.000000
0
LINE
8
0
10
163.000714
20
134.647458
30
0.0
11
163.220329
21
134.647458
31
0.0
0
ARC
8
0
10
163.220329
20
134.947458
30
0.0
40
0.300000
50
270.000000
51
0.000000
0
LINE
8
0
10
163.520329
20
134.947458
30
0.0
11
163.520329
21
138.981772
31
0.0
0
ARC
8
0
10
163.420329
20
139.264615
30
0.0
40
0.300000
50
289.471221
51
70.528779
0
LINE
8
0
10
163.520329
20
139.547458
30
0.0
11
163.482048
21
139.547458
31
0.0
0
ARC
8
0
10
163.482048
20
138.947458
30
0.0
40
0.600000
50
90.000000
51
122.401721
0
LINE
8
0
10
163.160536
20
139.454045
30
0.0
11
161.452439
21
138.369982
31
0.0
0
LINE
8
0
10
161.452439
20
138.369982
30
0.0
11
161.464536
21
138.081560
31
0.0
0
ARC
8
0
10
161.264712
20
138.073179
30
0.0
40
0.200000
50
242.401721
51
0.000000
0
LINE
8
0
10
161.172058
20
137.895935
30
0.0
11
160.890988
21
138.042865
31
0.0
0
ARC
8
0
10
161.261603
20
138.751839
30
0.0
40
0.800000
50
197.401721
51
242.401721
0
LINE
8
0
10
160.498218
20
138.512583
30
0.0
11
159.896254
21
140.433252
31
0.0
0
ARC
8
0
10
160.182523
20
140.522973
30
0.0
40
0.300000
50
90.000000
51
197.401721
0
LINE
8
0
10
160.182523
20
140.822973
30
0.0
11
161.733618
21
140.822973
31
0.0
0
ARC
8
0
10
161.735020
20
140.622978
30
0.0
40
0.200000
50
29.632658
51
90.000000
0
ARC
8
0
10
162.169626
20
140.870196
30
0.0
40
0.300000
50
209.632658
51
287.401721
0
LINE
8
0
10
162.259347
20
140.583927
30
0.0
11
163.221550
21
140.837550
31
0.0
0
LINE
8
0
10
163.298014
20
140.847458
30
0.0
11
163.221550
21
140.837550
31
0.0
0
LINE
8
0
10
163.298014
20
140.847458
30
0.0
11
183.870329
21
140.847458
31
0.0
0
ARC
8
0
10
183.870329
20
141.147458
30
0.0
40
0.300000
50
270.000000
51
0.000000
0
LINE
8
0
10
184.170329
20
141.147458
30
0.0
11
184.170329
21
145.047458
31
0.0
0
ARC
8
0
10
184.470329
20
145.047458
30
0.0
40
0.300000
50
90.000000
51
180.000000
0
LINE
8
0
10
184.470329
20
145.347458
30
0.0
11
185.470329
21
145.347458
31
0.0
0
ARC
8
0
10
185.470329
20
145.047458
30
0.0
40
0.300000
50
0.000000
51
90.000000
0
LINE
8
0
10
185.770329
20
145.047458
30
0.0
11
185.770329
21
134.647458
31
0.0
0
ARC
8
0
10
186.070329
20
134.647458
30
0.0
40
0.300000
50
180.000000
51
270.000000
0
LINE
8
0
10
186.070329
20
134.347458
30
0.0
11
194.020329
21
134.347458
31
0.0
0
ARC
8
0
10
194.020329
20
133.847458
30
0.0
40
0.500000
50
0.000000
51
90.000000
0
LINE
8
0
10
194.520329
20
133.847458
30
0.0
11
194.520329
21
93.647458
31
0.0
0
ARC
8
0
10
194.220329
20
93.647458
30
0.0
40
0.300000
50
270.000000
51
0.000000
0
LINE
8
0
10
194.220329
20
93.347458
30
0.0
11
190.970885
21
93.347458
31
0.0
0
ARC
8
0
10
157.789804
20
99.712487
30
0.0
40
1.000000
50
270.000000
51
325.000000
0
LINE
8
0
10
157.789804
20
98.712487
30
0.0
11
135.250723
21
98.712487
31
0.0
0
ARC
8
0
10
135.250723
20
99.712487
30
0.0
40
1.000000
50
215.000000
51
270.000000
0
LINE
8
0
10
134.431570
20
99.138911
30
0.0
11
133.093919
21
101.049275
31
0.0
0
ARC
8
0
10
132.684343
20
100.762487
30
0.0
40
0.500000
50
35.000000
51
90.000000
0
LINE
8
0
10
132.684343
20
101.262487
30
0.0
11
132.094364
21
101.262487
31
0.0
0
ARC
8
0
10
132.094364
20
100.262487
30
0.0
40
1.000000
50
90.000000
51
120.000000
0
LINE
8
0
10
131.594364
20
101.128512
30
0.0
11
130.250582
21
100.352679
31
0.0
0
ARC
8
0
10
130.100582
20
100.612487
30
0.0
40
0.300000
50
270.000000
51
300.000000
0
LINE
8
0
10
130.100582
20
100.312487
30
0.0
11
129.920197
21
100.312487
31
0.0
0
ARC
8
0
10
129.920197
20
100.712487
30
0.0
40
0.400000
50
180.000000
51
270.000000
0
LINE
8
0
10
129.520197
20
100.712487
30
0.0
11
129.520197
21
101.312487
31
0.0
0
LINE
8
0
10
129.520197
20
101.312487
30
0.0
11
129.620197
21
101.312487
31
0.0
0
LINE
8
0
10
129.620197
20
101.312487
30
0.0
11
129.620197
21
101.687487
31
0.0
0
ARC
8
0
10
129.820197
20
101.687487
30
0.0
40
0.200000
50
90.000000
51
180.000000
0
LINE
8
0
10
129.820197
20
101.887487
30
0.0
11
129.943280
21
101.887487
31
0.0
0
LINE
8
0
10
130.008663
20
101.872487
30
0.0
11
129.943280
21
101.887487
31
0.0
0
ARC
8
0
10
130.270197
20
102.412487
30
0.0
40
0.600000
50
244.158067
51
0.000000
0
ARC
8
0
10
130.270197
20
102.412487
30
0.0
40
0.600000
50
0.000000
51
115.841933
0
LINE
8
0
10
129.943280
20
102.937487
30
0.0
11
130.008663
21
102.952487
31
0.0
0
LINE
8
0
10
129.943280
20
102.937487
30
0.0
11
129.820197
21
102.937487
31
0.0
0
ARC
8
0
10
129.820197
20
103.137487
30
0.0
40
0.200000
50
180.000000
51
270.000000
0
LINE
8
0
10
129.620197
20
103.137487
30
0.0
11
129.620197
21
103.512487
31
0.0
0
LINE
8
0
10
129.620197
20
103.512487
30
0.0
11
129.520197
21
103.512487
31
0.0
0
LINE
8
0
10
129.520197
20
103.512487
30
0.0
11
129.520197
21
104.112487
31
0.0
0
ARC
8
0
10
129.920197
20
104.112487
30
0.0
40
0.400000
50
90.000000
51
180.000000
0
LINE
8
0
10
129.920197
20
104.512487
30
0.0
11
130.100582
21
104.512487
31
0.0
0
ARC
8
0
10
130.100582
20
104.212487
30
0.0
40
0.300000
50
60.000000
51
90.000000
0
LINE
8
0
10
130.250582
20
104.472295
30
0.0
11
131.594364
21
103.696462
31
0.0
0
ARC
8
0
10
132.094364
20
104.562487
30
0.0
40
1.000000
50
240.000000
51
270.000000
0
LINE
8
0
10
132.094364
20
103.562487
30
0.0
11
133.725477
21
103.562487
31
0.0
0
ARC
8
0
10
133.725477
20
102.762487
30
0.0
40
0.800000
50
35.000000
51
90.000000
0
LINE
8
0
10
134.380798
20
103.221348
30
0.0
11
135.680393
21
101.365334
31
0.0
0
ARC
8
0
10
137.318698
20
102.512487
30
0.0
40
2.000000
50
215.000000
51
270.000000
0
LINE
8
0
10
137.318698
20
100.512487
30
0.0
11
155.721829
21
100.512487
31
0.0
0
ARC
8
0
10
155.721829
20
102.512487
30
0.0
40
2.000000
50
270.000000
51
325.000000
0
LINE
8
0
10
157.360133
20
101.365334
30
0.0
11
158.659728
21
103.221348
31
0.0
0
ARC
8
0
10
159.315049
20
102.762487
30
0.0
40
0.800000
50
90.000000
51
145.000000
0
LINE
8
0
10
159.315049
20
103.562487
30
0.0
11
160.946162
21
103.562487
31
0.0
0
ARC
8
0
10
160.946162
20
104.562487
30
0.0
40
1.000000
50
270.000000
51
300.000000
0
LINE
8
0
10
161.446162
20
103.696462
30
0.0
11
162.789945
21
104.472295
31
0.0
0
ARC
8
0
10
162.939945
20
104.212487
30
0.0
40
0.300000
50
90.000000
51
120.000000
0
LINE
8
0
10
162.939945
20
104.512487
30
0.0
11
163.120329
21
104.512487
31
0.0
0
ARC
8
0
10
163.120329
20
104.112487
30
0.0
40
0.400000
50
0.000000
51
90.000000
0
LINE
8
0
10
163.520329
20
104.112487
30
0.0
11
163.520329
21
103.512487
31
0.0
0
LINE
8
0
10
163.520329
20
103.512487
30
0.0
11
163.420329
21
103.512487
31
0.0
0
LINE
8
0
10
163.420329
20
103.512487
30
0.0
11
163.420329
21
103.137487
31
0.0
0
ARC
8
0
10
163.220329
20
103.137487
30
0.0
40
0.200000
50
270.000000
51
0.000000
0
LINE
8
0
10
163.220329
20
102.937487
30
0.0
11
163.097247
21
102.937487
31
0.0
0
LINE
8
0
10
163.031863
20
102.952487
30
0.0
11
163.097247
21
102.937487
31
0.0
0
ARC
8
0
10
162.770329
20
102.412487
30
0.0
40
0.600000
50
64.158067
51
180.000000
0
ARC
8
0
10
162.770329
20
102.412487
30
0.0
40
0.600000
50
180.000000
51
295.841933
0
LINE
8
0
10
163.097247
20
101.887487
30
0.0
11
163.031863
21
101.872487
31
0.0
0
LINE
8
0
10
163.097247
20
101.887487
30
0.0
11
163.220329
21
101.887487
31
0.0
0
ARC
8
0
10
163.220329
20
101.687487
30
0.0
40
0.200000
50
0.000000
51
90.000000
0
LINE
8
0
10
163.420329
20
101.687487
30
0.0
11
163.420329
21
101.312487
31
0.0
0
LINE
8
0
10
163.420329
20
101.312487
30
0.0
11
163.520329
21
101.312487
31
0.0
0
LINE
8
0
10
163.520329
20
101.312487
30
0.0
11
163.520329
21
100.712487
31
0.0
0
ARC
8
0
10
163.120329
20
100.712487
30
0.0
40
0.400000
50
270.000000
51
0.000000
0
LINE
8
0
10
163.120329
20
100.312487
30
0.0
11
162.939945
21
100.312487
31
0.0
0
ARC
8
0
10
162.939945
20
100.612487
30
0.0
40
0.300000
50
240.000000
51
270.000000
0
LINE
8
0
10
162.789945
20
100.352679
30
0.0
11
161.446162
21
101.128512
31
0.0
0
ARC
8
0
10
160.946162
20
100.262487
30
0.0
40
1.000000
50
60.000000
51
90.000000
0
LINE
8
0
10
160.946162
20
101.262487
30
0.0
11
160.356184
21
101.262487
31
0.0
0
ARC
8
0
10
160.356184
20
100.762487
30
0.0
40
0.500000
50
90.000000
51
145.000000
0
LINE
8
0
10
159.946608
20
101.049275
30
0.0
11
158.608956
21
99.138911
31
0.0
0
ARC
8
0
10
157.789804
20
139.447458
30
0.0
40
1.000000
50
35.000000
51
90.000000
0
LINE
8
0
10
157.789804
20
140.447458
30
0.0
11
135.250723
21
140.447458
31
0.0
0
ARC
8
0
10
135.250723
20
139.447458
30
0.0
40
1.000000
50
90.000000
51
145.000000
0
LINE
8
0
10
134.431570
20
140.021034
30
0.0
11
133.093919
21
138.110670
31
0.0
0
ARC
8
0
10
132.684343
20
138.397458
30
0.0
40
0.500000
50
270.000000
51
325.000000
0
LINE
8
0
10
132.684343
20
137.897458
30
0.0
11
132.094364
21
137.897458
31
0.0
0
ARC
8
0
10
132.094364
20
138.897458
30
0.0
40
1.000000
50
240.000000
51
270.000000
0
LINE
8
0
10
131.594364
20
138.031432
30
0.0
11
130.250582
21
138.807265
31
0.0
0
ARC
8
0
10
130.100582
20
138.547458
30
0.0
40
0.300000
50
60.000000
51
90.000000
0
LINE
8
0
10
130.100582
20
138.847458
30
0.0
11
129.920197
21
138.847458
31
0.0
0
ARC
8
0
10
129.920197
20
138.447458
30
0.0
40
0.400000
50
90.000000
51
180.000000
0
LINE
8
0
10
129.520197
20
138.447458
30
0.0
11
129.520197
21
137.847458
31
0.0
0
LINE
8
0
10
129.520197
20
137.847458
30
0.0
11
129.620197
21
137.847458
31
0.0
0
LINE
8
0
10
129.620197
20
137.847458
30
0.0
11
129.620197
21
137.472458
31
0.0
0
ARC
8
0
10
129.820197
20
137.472458
30
0.0
40
0.200000
50
180.000000
51
270.000000
0
LINE
8
0
10
129.820197
20
137.272458
30
0.0
11
129.943280
21
137.272458
31
0.0
0
LINE
8
0
10
129.943280
20
137.272458
30
0.0
11
130.008663
21
137.287458
31
0.0
0
ARC
8
0
10
130.270197
20
136.747458
30
0.0
40
0.600000
50
0.000000
51
115.841933
0
ARC
8
0
10
130.270197
20
136.747458
30
0.0
40
0.600000
50
244.158067
51
0.000000
0
LINE
8
0
10
130.008663
20
136.207458
30
0.0
11
129.943280
21
136.222458
31
0.0
0
LINE
8
0
10
129.943280
20
136.222458
30
0.0
11
129.820197
21
136.222458
31
0.0
0
ARC
8
0
10
129.820197
20
136.022458
30
0.0
40
0.200000
50
90.000000
51
180.000000
0
LINE
8
0
10
129.620197
20
136.022458
30
0.0
11
129.620197
21
135.647458
31
0.0
0
LINE
8
0
10
129.620197
20
135.647458
30
0.0
11
129.520197
21
135.647458
31
0.0
0
LINE
8
0
10
129.520197
20
135.647458
30
0.0
11
129.520197
21
135.047458
31
0.0
0
ARC
8
0
10
129.920197
20
135.047458
30
0.0
40
0.400000
50
180.000000
51
270.000000
0
LINE
8
0
10
129.920197
20
134.647458
30
0.0
11
130.100582
21
134.647458
31
0.0
0
ARC
8
0
10
130.100582
20
134.947458
30
0.0
40
0.300000
50
270.000000
51
300.000000
0
LINE
8
0
10
130.250582
20
134.687650
30
0.0
11
131.594364
21
135.463483
31
0.0
0
ARC
8
0
10
132.094364
20
134.597458
30
0.0
40
1.000000
50
90.000000
51
120.000000
0
LINE
8
0
10
132.094364
20
135.597458
30
0.0
11
133.725477
21
135.597458
31
0.0
0
ARC
8
0
10
133.725477
20
136.397458
30
0.0
40
0.800000
50
270.000000
51
325.000000
0
LINE
8
0
10
134.380798
20
135.938597
30
0.0
11
135.680393
21
137.794611
31
0.0
0
ARC
8
0
10
137.318698
20
136.647458
30
0.0
40
2.000000
50
90.000000
51
145.000000
0
LINE
8
0
10
137.318698
20
138.647458
30
0.0
11
155.721829
21
138.647458
31
0.0
0
ARC
8
0
10
155.721829
20
136.647458
30
0.0
40
2.000000
50
35.000000
51
90.000000
0
LINE
8
0
10
157.360133
20
137.794611
30
0.0
11
158.659728
21
135.938597
31
0.0
0
ARC
8
0
10
159.315049
20
136.397458
30
0.0
40
0.800000
50
215.000000
51
270.000000
0
LINE
8
0
10
159.315049
20
135.597458
30
0.0
11
160.946162
21
135.597458
31
0.0
0
ARC
8
0
10
160.946162
20
134.597458
30
0.0
40
1.000000
50
60.000000
51
90.000000
0
LINE
8
0
10
161.446162
20
135.463483
30
0.0
11
162.789945
21
134.687650
31
0.0
0
ARC
8
0
10
162.939945
20
134.947458
30
0.0
40
0.300000
50
240.000000
51
270.000000
0
LINE
8
0
10
162.939945
20
134.647458
30
0.0
11
163.120329
21
134.647458
31
0.0
0
ARC
8
0
10
163.120329
20
135.047458
30
0.0
40
0.400000
50
270.000000
51
0.000000
0
LINE
8
0
10
163.520329
20
135.047458
30
0.0
11
163.520329
21
135.647458
31
0.0
0
LINE
8
0
10
163.520329
20
135.647458
30
0.0
11
163.420329
21
135.647458
31
0.0
0
LINE
8
0
10
163.420329
20
135.647458
30
0.0
11
163.420329
21
136.022458
31
0.0
0
ARC
8
0
10
163.220329
20
136.022458
30
0.0
40
0.200000
50
0.000000
51
90.000000
0
LINE
8
0
10
163.220329
20
136.222458
30
0.0
11
163.097247
21
136.222458
31
0.0
0
LINE
8
0
10
163.097247
20
136.222458
30
0.0
11
163.031863
21
136.207458
31
0.0
0
ARC
8
0
10
162.770329
20
136.747458
30
0.0
40
0.600000
50
180.000000
51
295.841933
0
ARC
8
0
10
162.770329
20
136.747458
30
0.0
40
0.600000
50
64.158067
51
180.000000
0
LINE
8
0
10
163.031863
20
137.287458
30
0.0
11
163.097247
21
137.272458
31
0.0
0
LINE
8
0
10
163.097247
20
137.272458
30
0.0
11
163.220329
21
137.272458
31
0.0
0
ARC
8
0
10
163.220329
20
137.472458
30
0.0
40
0.200000
50
270.000000
51
0.000000
0
LINE
8
0
10
163.420329
20
137.472458
30
0.0
11
163.420329
21
137.847458
31
0.0
0
LINE
8
0
10
163.420329
20
137.847458
30
0.0
11
163.520329
21
137.847458
31
0.0
0
LINE
8
0
10
163.520329
20
137.847458
30
0.0
11
163.520329
21
138.447458
31
0.0
0
ARC
8
0
10
163.120329
20
138.447458
30
0.0
40
0.400000
50
0.000000
51
90.000000
0
LINE
8
0
10
163.120329
20
138.847458
30
0.0
11
162.939945
21
138.847458
31
0.0
0
ARC
8
0
10
162.939945
20
138.547458
30
0.0
40
0.300000
50
90.000000
51
120.000000
0
LINE
8
0
10
162.789945
20
138.807265
30
0.0
11
161.446162
21
138.031432
31
0.0
0
ARC
8
0
10
160.946162
20
138.897458
30
0.0
40
1.000000
50
270.000000
51
300.000000
0
LINE
8
0
10
160.946162
20
137.897458
30
0.0
11
160.356184
21
137.897458
31
0.0
0
ARC
8
0
10
160.356184
20
138.397458
30
0.0
40
0.500000
50
215.000000
51
270.000000
0
LINE
8
0
10
159.946608
20
138.110670
30
0.0
11
158.608956
21
140.021034
31
0.0
0
ATTDEF
8
0
10
173.584172
20
140.847458
30
0.0
40
3.5
1

3

2
VC_START
70
0
0
ATTDEF
8
0
10
192.595607
20
93.347458
30
0.0
40
3.5
1

3

2
VC_END
70
0
0
ATTDEF
8
0
10
117.520072
20
93.347458
30
0.0
40
3.5
1

3

2
DESC:Telaio L per porta apertura interna
70
0
0
ATTDEF
8
0
10
117.520072
20
93.347458
30
0.0
40
3.5
1

3

2
DENS:1.720000
70
0
0
ATTDEF
8
0
10
117.520072
20
93.347458
30
0.0
40
3.5
1

3

2
TDEV:0.000000
70
0
0
ATTDEF
8
0
10
117.520072
20
93.347458
30
0.0
40
3.5
1

3

2
TDEV2:0.000000
70
0
0
ATTDEF
8
0
10
117.520072
20
93.347458
30
0.0
40
3.5
1

3

2
TDEV3:0.000000
70
0
0
ATTDEF
8
0
10
117.520072
20
93.347458
30
0.0
40
3.5
1

3

2
TDEV4:0.000000
70
0
0
ATTDEF
8
0
10
117.520072
20
93.347458
30
0.0
40
3.5
1

3

2
TDEV5:0.000000
70
0
0
ATTDEF
8
0
10
117.520072
20
93.347458
30
0.0
40
3.5
1

3

2
FRONT_VIEW
70
0
0
ATTDEF
8
0
10
117.520072
20
93.347458
30
0.0
40
3.5
1

3

2
BL01:6800.000000,,1
70
0
0
ATTDEF
8
0
10
117.520072
20
93.347458
30
0.0
40
3.5
1

3

2
OPTI:500.000000,1,0,3000.000000,6500.000000,500.000000,0,0.000000,0
70
0
0
ATTDEF
8
0
10
117.520072
20
93.347458
30
0.0
40
3.5
1

3

2
PANE_WIDTH:0.000000
70
0
0
ATTDEF
8
0
10
117.520072
20
93.347458
30
0.0
40
3.5
1

3

2
GLASS_MIN:0.000000
70
0
0
ATTDEF
8
0
10
117.520072
20
93.347458
30
0.0
40
3.5
1

3

2
GLASS_MAX:0.000000
70
0
0
ATTDEF
8
0
10
117.520072
20
93.347458
30
0.0
40
3.5
1

3

2
JX:0.000000
70
0
0
ATTDEF
8
0
10
117.520072
20
93.347458
30
0.0
40
3.5
1

3

2
WX:0.000000
70
0
0
ATTDEF
8
0
10
117.520072
20
93.347458
30
0.0
40
3.5
1

3

2
JY:0.000000
70
0
0
ATTDEF
8
0
10
117.520072
20
93.347458
30
0.0
40
3.5
1

3

2
WY:0.000000
70
0
0
ATTDEF
8
0
10
117.520072
20
93.347458
30
0.0
40
3.5
1

3

2
FP_LCS_ORIG
70
0
0
ATTDEF
8
0
10
127.520072
20
93.347458
30
0.0
40
3.5
1

3

2
FP_LCS_HOT
70
0
0
ATTDEF
8
0
10
117.520072
20
103.347458
30
0.0
40
3.5
1

3

2
FP_LCS_INTERN
70
0
0
ENDSEC
0
EOF
