0
SECTION
2
ENTITIES
0
ARC
8
0
10
152.740572
20
220.774406
30
0.0
40
0.300000
50
270.000000
51
0.000000
0
LINE
8
0
10
153.040572
20
220.774406
30
0.0
11
153.040572
21
224.674406
31
0.0
0
ARC
8
0
10
153.340572
20
224.674406
30
0.0
40
0.300000
50
90.000000
51
180.000000
0
LINE
8
0
10
153.340572
20
224.974406
30
0.0
11
154.340572
21
224.974406
31
0.0
0
ARC
8
0
10
154.340572
20
224.674406
30
0.0
40
0.300000
50
0.000000
51
90.000000
0
LINE
8
0
10
154.640572
20
224.674406
30
0.0
11
154.640572
21
214.274406
31
0.0
0
ARC
8
0
10
154.940572
20
214.274406
30
0.0
40
0.300000
50
180.000000
51
270.000000
0
LINE
8
0
10
154.940572
20
213.974406
30
0.0
11
163.090830
21
213.974406
31
0.0
0
ARC
8
0
10
163.090830
20
213.674406
30
0.0
40
0.300000
50
0.000000
51
90.000000
0
LINE
8
0
10
163.390830
20
213.674406
30
0.0
11
163.390830
21
173.274378
31
0.0
0
ARC
8
0
10
163.090830
20
173.274378
30
0.0
40
0.300000
50
270.000000
51
0.000000
0
LINE
8
0
10
163.090830
20
172.974378
30
0.0
11
161.390830
21
172.974378
31
0.0
0
ARC
8
0
10
161.390830
20
173.774378
30
0.0
40
0.800000
50
180.000000
51
270.000000
0
LINE
8
0
10
160.590830
20
173.774378
30
0.0
11
160.590830
21
173.874378
31
0.0
0
ARC
8
0
10
160.890830
20
173.874378
30
0.0
40
0.300000
50
90.000000
51
180.000000
0
LINE
8
0
10
160.890830
20
174.174378
30
0.0
11
161.590830
21
174.174378
31
0.0
0
ARC
8
0
10
161.590830
20
174.474378
30
0.0
40
0.300000
50
270.000000
51
0.000000
0
LINE
8
0
10
161.890830
20
174.474378
30
0.0
11
161.890830
21
179.174378
31
0.0
0
ARC
8
0
10
161.590830
20
179.174378
30
0.0
40
0.300000
50
0.000000
51
90.000000
0
LINE
8
0
10
161.590830
20
179.474378
30
0.0
11
153.452473
21
179.474378
31
0.0
0
ARC
8
0
10
153.452473
20
179.174378
30
0.0
40
0.300000
50
90.000000
51
173.157227
0
LINE
8
0
10
153.154610
20
179.210122
30
0.0
11
152.886321
21
176.974378
31
0.0
0
LINE
8
0
10
152.886321
20
176.974378
30
0.0
11
152.886321
21
174.474378
31
0.0
0
ARC
8
0
10
153.186321
20
174.474378
30
0.0
40
0.300000
50
180.000000
51
270.000000
0
LINE
8
0
10
153.186321
20
174.174378
30
0.0
11
153.890830
21
174.174378
31
0.0
0
ARC
8
0
10
153.890830
20
173.874378
30
0.0
40
0.300000
50
0.000000
51
90.000000
0
LINE
8
0
10
154.190830
20
173.874378
30
0.0
11
154.190830
21
173.774378
31
0.0
0
ARC
8
0
10
153.390830
20
173.774378
30
0.0
40
0.800000
50
270.000000
51
0.000000
0
LINE
8
0
10
153.390830
20
172.974378
30
0.0
11
151.690814
21
172.974378
31
0.0
0
ARC
8
0
10
151.690814
20
173.274378
30
0.0
40
0.300000
50
180.000000
51
270.000000
0
LINE
8
0
10
151.390814
20
173.274362
30
0.0
11
151.390572
21
177.674378
31
0.0
0
ARC
8
0
10
151.090572
20
177.674362
30
0.0
40
0.300000
50
0.000000
51
75.233538
0
LINE
8
0
10
151.167036
20
177.964453
30
0.0
11
150.129590
21
178.237909
31
0.0
0
ARC
8
0
10
150.039869
20
177.951640
30
0.0
40
0.300000
50
72.598279
51
150.367342
0
ARC
8
0
10
149.605263
20
178.198858
30
0.0
40
0.200000
50
270.000000
51
330.367342
0
LINE
8
0
10
149.603860
20
177.998863
30
0.0
11
148.052766
21
177.998863
31
0.0
0
ARC
8
0
10
148.052766
20
178.298863
30
0.0
40
0.300000
50
162.598279
51
270.000000
0
LINE
8
0
10
147.766497
20
178.388584
30
0.0
11
148.368461
21
180.309253
31
0.0
0
ARC
8
0
10
149.131846
20
180.069997
30
0.0
40
0.800000
50
117.598279
51
162.598279
0
LINE
8
0
10
148.761231
20
180.778971
30
0.0
11
149.042301
21
180.925900
31
0.0
0
ARC
8
0
10
149.134955
20
180.748657
30
0.0
40
0.200000
50
0.000000
51
117.598279
0
LINE
8
0
10
149.334779
20
180.740276
30
0.0
11
149.322682
21
180.451854
31
0.0
0
LINE
8
0
10
149.322682
20
180.451854
30
0.0
11
151.030779
21
179.367791
31
0.0
0
ARC
8
0
10
151.352290
20
179.874378
30
0.0
40
0.600000
50
237.598279
51
270.000000
0
LINE
8
0
10
151.352290
20
179.274378
30
0.0
11
151.390572
21
179.274378
31
0.0
0
ARC
8
0
10
151.290572
20
179.557221
30
0.0
40
0.300000
50
289.471221
51
70.528779
0
LINE
8
0
10
151.390572
20
179.840064
30
0.0
11
151.390572
21
183.874378
31
0.0
0
ARC
8
0
10
151.090572
20
183.874378
30
0.0
40
0.300000
50
0.000000
51
90.000000
0
LINE
8
0
10
151.090572
20
184.174378
30
0.0
11
150.870957
21
184.174378
31
0.0
0
ARC
8
0
10
150.870957
20
183.874378
30
0.0
40
0.300000
50
90.000000
51
120.000000
0
LINE
8
0
10
150.720957
20
184.134186
30
0.0
11
149.190572
21
183.250618
31
0.0
0
ARC
8
0
10
149.090572
20
183.423823
30
0.0
40
0.200000
50
180.000000
51
300.000000
0
LINE
8
0
10
148.890572
20
183.423823
30
0.0
11
148.890572
21
184.578523
31
0.0
0
ARC
8
0
10
149.890572
20
184.578523
30
0.0
40
1.000000
50
119.999999
51
180.000000
0
LINE
8
0
10
149.390572
20
185.444549
30
0.0
11
150.890572
21
186.310574
31
0.0
0
ARC
8
0
10
150.390572
20
187.176600
30
0.0
40
1.000000
50
299.999999
51
0.000000
0
LINE
8
0
10
151.390572
20
187.176600
30
0.0
11
151.390572
21
210.974392
31
0.0
0
ARC
8
0
10
151.090572
20
210.974392
30
0.0
40
0.300000
50
0.000000
51
90.000000
0
LINE
8
0
10
151.090572
20
211.274392
30
0.0
11
147.190572
21
211.274392
31
0.0
0
ARC
8
0
10
147.190572
20
211.574392
30
0.0
40
0.300000
50
180.000000
51
270.000000
0
LINE
8
0
10
146.890572
20
211.574392
30
0.0
11
146.890572
21
212.474392
31
0.0
0
ARC
8
0
10
147.190572
20
212.474392
30
0.0
40
0.300000
50
90.000000
51
180.000000
0
LINE
8
0
10
147.190572
20
212.774392
30
0.0
11
148.590572
21
212.774392
31
0.0
0
ARC
8
0
10
148.590572
20
213.074392
30
0.0
40
0.300000
50
270.000000
51
0.000000
0
LINE
8
0
10
148.890572
20
213.074392
30
0.0
11
148.890572
21
215.024934
31
0.0
0
ARC
8
0
10
149.090572
20
215.024934
30
0.0
40
0.200000
50
60.000000
51
180.000000
0
LINE
8
0
10
149.190572
20
215.198139
30
0.0
11
150.720957
21
214.314571
31
0.0
0
ARC
8
0
10
150.870957
20
214.574378
30
0.0
40
0.300000
50
240.000000
51
270.000000
0
LINE
8
0
10
150.870957
20
214.274378
30
0.0
11
151.090572
21
214.274378
31
0.0
0
ARC
8
0
10
151.090572
20
214.574378
30
0.0
40
0.300000
50
270.000000
51
0.000000
0
LINE
8
0
10
151.390572
20
214.574378
30
0.0
11
151.390572
21
218.608693
31
0.0
0
ARC
8
0
10
151.290572
20
218.891535
30
0.0
40
0.300000
50
289.471221
51
70.528779
0
LINE
8
0
10
151.390572
20
219.174378
30
0.0
11
151.352290
21
219.174378
31
0.0
0
ARC
8
0
10
151.352290
20
218.574378
30
0.0
40
0.600000
50
90.000000
51
122.401721
0
LINE
8
0
10
151.030779
20
219.080965
30
0.0
11
149.322682
21
217.996902
31
0.0
0
LINE
8
0
10
149.322682
20
217.996902
30
0.0
11
149.334779
21
217.708480
31
0.0
0
ARC
8
0
10
149.134955
20
217.700099
30
0.0
40
0.200000
50
242.401721
51
0.000000
0
LINE
8
0
10
149.042301
20
217.522856
30
0.0
11
148.761231
21
217.669785
31
0.0
0
ARC
8
0
10
149.131846
20
218.378759
30
0.0
40
0.800000
50
197.401721
51
242.401721
0
LINE
8
0
10
148.368461
20
218.139504
30
0.0
11
147.766497
21
220.060172
31
0.0
0
ARC
8
0
10
148.052766
20
220.149893
30
0.0
40
0.300000
50
90.000000
51
197.401721
0
LINE
8
0
10
148.052766
20
220.449893
30
0.0
11
149.603860
21
220.449893
31
0.0
0
ARC
8
0
10
149.605263
20
220.249898
30
0.0
40
0.200000
50
29.632658
51
90.000000
0
ARC
8
0
10
150.039869
20
220.497117
30
0.0
40
0.300000
50
209.632658
51
287.401721
0
LINE
8
0
10
150.129590
20
220.210847
30
0.0
11
151.091898
21
220.464498
31
0.0
0
LINE
8
0
10
151.168362
20
220.474406
30
0.0
11
151.091898
21
220.464498
31
0.0
0
LINE
8
0
10
151.168362
20
220.474406
30
0.0
11
152.740572
21
220.474406
31
0.0
0
LINE
8
0
10
161.590830
20
180.974378
30
0.0
11
153.191321
21
180.974378
31
0.0
0
ARC
8
0
10
153.191321
20
181.274378
30
0.0
40
0.300000
50
180.000000
51
270.000000
0
LINE
8
0
10
152.891321
20
181.274378
30
0.0
11
152.891321
21
210.474378
31
0.0
0
ARC
8
0
10
153.191321
20
210.474378
30
0.0
40
0.300000
50
90.000000
51
180.000000
0
LINE
8
0
10
153.191321
20
210.774378
30
0.0
11
154.591321
21
210.774378
31
0.0
0
ARC
8
0
10
154.591321
20
211.074378
30
0.0
40
0.300000
50
270.000000
51
0.000000
0
LINE
8
0
10
154.891321
20
211.074378
30
0.0
11
154.891321
21
212.474406
31
0.0
0
LINE
8
0
10
154.891321
20
212.474406
30
0.0
11
159.890830
21
212.474406
31
0.0
0
LINE
8
0
10
159.890830
20
212.474406
30
0.0
11
159.890830
21
211.074378
31
0.0
0
ARC
8
0
10
160.190830
20
211.074378
30
0.0
40
0.300000
50
180.000000
51
270.000000
0
LINE
8
0
10
160.190830
20
210.774378
30
0.0
11
161.590830
21
210.774378
31
0.0
0
ARC
8
0
10
161.590830
20
210.474378
30
0.0
40
0.300000
50
0.000000
51
90.000000
0
LINE
8
0
10
161.890830
20
210.474378
30
0.0
11
161.890830
21
181.274378
31
0.0
0
ARC
8
0
10
161.590830
20
181.274378
30
0.0
40
0.300000
50
270.000000
51
0.000000
0
LINE
8
0
10
119.590573
20
183.250645
30
0.0
11
118.060188
21
184.134213
31
0.0
0
ARC
8
0
10
117.910188
20
183.874406
30
0.0
40
0.300000
50
60.000000
51
90.000000
0
LINE
8
0
10
117.910188
20
184.174406
30
0.0
11
117.690573
21
184.174406
31
0.0
0
ARC
8
0
10
117.690573
20
183.874406
30
0.0
40
0.300000
50
90.000000
51
180.000000
0
LINE
8
0
10
117.390573
20
183.874406
30
0.0
11
117.390573
21
179.840091
31
0.0
0
ARC
8
0
10
117.490573
20
179.557249
30
0.0
40
0.300000
50
109.471221
51
250.528779
0
LINE
8
0
10
117.390573
20
179.274406
30
0.0
11
117.428855
21
179.274406
31
0.0
0
ARC
8
0
10
117.428855
20
179.874406
30
0.0
40
0.600000
50
270.000000
51
302.401721
0
LINE
8
0
10
117.750366
20
179.367819
30
0.0
11
119.458463
21
180.451882
31
0.0
0
LINE
8
0
10
119.458463
20
180.451882
30
0.0
11
119.446366
21
180.740303
31
0.0
0
ARC
8
0
10
119.646190
20
180.748685
30
0.0
40
0.200000
50
62.401721
51
180.000000
0
LINE
8
0
10
119.738844
20
180.925928
30
0.0
11
120.019914
21
180.778999
31
0.0
0
ARC
8
0
10
119.649299
20
180.070025
30
0.0
40
0.800000
50
17.401721
51
62.401721
0
LINE
8
0
10
120.412684
20
180.309280
30
0.0
11
121.014648
21
178.388612
31
0.0
0
ARC
8
0
10
120.728379
20
178.298891
30
0.0
40
0.300000
50
270.000000
51
17.401721
0
LINE
8
0
10
120.728379
20
177.998891
30
0.0
11
119.177285
21
177.998891
31
0.0
0
ARC
8
0
10
119.175883
20
178.198886
30
0.0
40
0.200000
50
209.632658
51
270.000000
0
ARC
8
0
10
118.741276
20
177.951667
30
0.0
40
0.300000
50
29.632658
51
107.401721
0
LINE
8
0
10
118.651555
20
178.237937
30
0.0
11
117.689352
21
177.984314
31
0.0
0
LINE
8
0
10
117.612888
20
177.974406
30
0.0
11
117.689352
21
177.984314
31
0.0
0
LINE
8
0
10
117.612888
20
177.974406
30
0.0
11
116.090573
21
177.974406
31
0.0
0
ARC
8
0
10
116.090573
20
178.274406
30
0.0
40
0.300000
50
180.000000
51
270.000000
0
LINE
8
0
10
115.790573
20
178.274406
30
0.0
11
115.790573
21
179.275517
31
0.0
0
ARC
8
0
10
115.490573
20
179.275517
30
0.0
40
0.300000
50
0.000000
51
90.000000
0
LINE
8
0
10
115.490573
20
179.575517
30
0.0
11
104.490573
21
179.575517
31
0.0
0
ARC
8
0
10
104.490573
20
179.275517
30
0.0
40
0.300000
50
90.000000
51
180.000000
0
LINE
8
0
10
104.190573
20
179.275517
30
0.0
11
104.190573
21
173.274406
31
0.0
0
ARC
8
0
10
103.890573
20
173.274406
30
0.0
40
0.300000
50
270.000000
51
0.000000
0
LINE
8
0
10
103.890573
20
172.974406
30
0.0
11
101.441128
21
172.974406
31
0.0
0
ARC
8
0
10
101.441128
20
173.274406
30
0.0
40
0.300000
50
210.000000
51
270.000000
0
LINE
8
0
10
101.181321
20
173.124406
30
0.0
11
100.730765
21
173.904791
31
0.0
0
ARC
8
0
10
100.990573
20
174.054791
30
0.0
40
0.300000
50
180.000000
51
210.000000
0
LINE
8
0
10
100.690573
20
174.054791
30
0.0
11
100.690573
21
174.174406
31
0.0
0
ARC
8
0
10
100.990573
20
174.174406
30
0.0
40
0.300000
50
90.000000
51
180.000000
0
LINE
8
0
10
100.990573
20
174.474406
30
0.0
11
102.390573
21
174.474406
31
0.0
0
ARC
8
0
10
102.390573
20
174.774406
30
0.0
40
0.300000
50
270.000000
51
0.000000
0
LINE
8
0
10
102.690573
20
174.774406
30
0.0
11
102.690573
21
179.275517
31
0.0
0
ARC
8
0
10
102.390573
20
179.275517
30
0.0
40
0.300000
50
0.000000
51
90.000000
0
LINE
8
0
10
102.390573
20
179.575517
30
0.0
11
95.690573
21
179.575517
31
0.0
0
LINE
8
0
10
95.690573
20
179.575517
30
0.0
11
95.390573
21
179.875517
31
0.0
0
LINE
8
0
10
95.390573
20
179.875517
30
0.0
11
95.090573
21
179.575517
31
0.0
0
LINE
8
0
10
95.090573
20
179.575517
30
0.0
11
88.690573
21
179.575517
31
0.0
0
ARC
8
0
10
88.690573
20
179.075517
30
0.0
40
0.500000
50
90.000000
51
180.000000
0
LINE
8
0
10
88.190573
20
179.075517
30
0.0
11
88.190573
21
169.574406
31
0.0
0
ARC
8
0
10
88.490573
20
169.574406
30
0.0
40
0.300000
50
180.000000
51
270.000000
0
LINE
8
0
10
88.490573
20
169.274406
30
0.0
11
90.090573
21
169.274406
31
0.0
0
ARC
8
0
10
90.090573
20
168.974406
30
0.0
40
0.300000
50
0.000000
51
90.000000
0
LINE
8
0
10
90.390573
20
168.974406
30
0.0
11
90.390573
21
166.874406
31
0.0
0
ARC
8
0
10
90.090573
20
166.874406
30
0.0
40
0.300000
50
270.000000
51
0.000000
0
LINE
8
0
10
90.090573
20
166.574406
30
0.0
11
89.690573
21
166.574406
31
0.0
0
ARC
8
0
10
89.690573
20
166.874406
30
0.0
40
0.300000
50
180.000000
51
270.000000
0
LINE
8
0
10
89.390573
20
166.874406
30
0.0
11
89.390573
21
167.774406
31
0.0
0
ARC
8
0
10
89.090573
20
167.774406
30
0.0
40
0.300000
50
0.000000
51
90.000000
0
LINE
8
0
10
89.090573
20
168.074406
30
0.0
11
88.190573
21
168.074406
31
0.0
0
ARC
8
0
10
88.190573
20
167.774406
30
0.0
40
0.300000
50
90.000000
51
180.000000
0
LINE
8
0
10
87.890573
20
167.774406
30
0.0
11
87.890573
21
149.174406
31
0.0
0
ARC
8
0
10
88.190573
20
149.174406
30
0.0
40
0.300000
50
180.000000
51
270.000000
0
LINE
8
0
10
88.190573
20
148.874406
30
0.0
11
89.090573
21
148.874406
31
0.0
0
ARC
8
0
10
89.090573
20
149.174406
30
0.0
40
0.300000
50
270.000000
51
0.000000
0
LINE
8
0
10
89.390573
20
149.174406
30
0.0
11
89.390573
21
150.074406
31
0.0
0
ARC
8
0
10
89.690573
20
150.074406
30
0.0
40
0.300000
50
90.000000
51
180.000000
0
LINE
8
0
10
89.690573
20
150.374406
30
0.0
11
90.390573
21
150.374406
31
0.0
0
ARC
8
0
10
90.390573
20
150.074406
30
0.0
40
0.300000
50
0.000000
51
90.000000
0
LINE
8
0
10
90.690573
20
150.074406
30
0.0
11
90.690573
21
146.574406
31
0.0
0
ARC
8
0
10
90.390573
20
146.574406
30
0.0
40
0.300000
50
270.000000
51
0.000000
0
LINE
8
0
10
90.390573
20
146.274406
30
0.0
11
89.990573
21
146.274406
31
0.0
0
ARC
8
0
10
89.990573
20
146.574406
30
0.0
40
0.300000
50
180.000000
51
270.000000
0
LINE
8
0
10
89.690573
20
146.574406
30
0.0
11
89.690573
21
147.374406
31
0.0
0
ARC
8
0
10
89.390573
20
147.374406
30
0.0
40
0.300000
50
0.000000
51
90.000000
0
LINE
8
0
10
89.390573
20
147.674406
30
0.0
11
88.190573
21
147.674406
31
0.0
0
ARC
8
0
10
88.190573
20
147.374406
30
0.0
40
0.300000
50
90.000000
51
180.000000
0
LINE
8
0
10
87.890573
20
147.374406
30
0.0
11
87.890573
21
142.474406
31
0.0
0
ARC
8
0
10
88.190573
20
142.474406
30
0.0
40
0.300000
50
180.000000
51
270.000000
0
LINE
8
0
10
88.190573
20
142.174406
30
0.0
11
89.390573
21
142.174406
31
0.0
0
ARC
8
0
10
89.390573
20
142.474406
30
0.0
40
0.300000
50
270.000000
51
0.000000
0
LINE
8
0
10
89.690573
20
142.474406
30
0.0
11
89.690573
21
143.274406
31
0.0
0
ARC
8
0
10
89.990573
20
143.274406
30
0.0
40
0.300000
50
90.000000
51
180.000000
0
LINE
8
0
10
89.990573
20
143.574406
30
0.0
11
90.390573
21
143.574406
31
0.0
0
ARC
8
0
10
90.390573
20
143.274406
30
0.0
40
0.300000
50
0.000000
51
90.000000
0
LINE
8
0
10
90.690573
20
143.274406
30
0.0
11
90.690573
21
141.274406
31
0.0
0
ARC
8
0
10
90.390573
20
141.274406
30
0.0
40
0.300000
50
270.000000
51
0.000000
0
LINE
8
0
10
90.390573
20
140.974406
30
0.0
11
87.090573
21
140.974406
31
0.0
0
ARC
8
0
10
87.090573
20
141.674406
30
0.0
40
0.700000
50
180.000000
51
270.000000
0
LINE
8
0
10
86.390573
20
141.674406
30
0.0
11
86.390573
21
238.474406
31
0.0
0
ARC
8
0
10
86.890573
20
238.474406
30
0.0
40
0.500000
50
90.000000
51
180.000000
0
LINE
8
0
10
86.890573
20
238.974406
30
0.0
11
90.590573
21
238.974406
31
0.0
0
ARC
8
0
10
90.590573
20
238.674406
30
0.0
40
0.300000
50
0.000000
51
90.000000
0
LINE
8
0
10
90.890573
20
238.674406
30
0.0
11
90.890573
21
237.174406
31
0.0
0
ARC
8
0
10
90.190573
20
237.174406
30
0.0
40
0.700000
50
270.000000
51
0.000000
0
ARC
8
0
10
90.190573
20
236.774406
30
0.0
40
0.300000
50
180.000000
51
270.000000
0
LINE
8
0
10
89.890573
20
236.774406
30
0.0
11
89.890573
21
237.474406
31
0.0
0
ARC
8
0
10
89.590573
20
237.474406
30
0.0
40
0.300000
50
0.000000
51
90.000000
0
LINE
8
0
10
89.590573
20
237.774406
30
0.0
11
88.390573
21
237.774406
31
0.0
0
ARC
8
0
10
88.390573
20
237.074406
30
0.0
40
0.700000
50
90.000000
51
180.000000
0
LINE
8
0
10
87.690573
20
237.074406
30
0.0
11
87.690573
21
230.874406
31
0.0
0
ARC
8
0
10
88.390573
20
230.874406
30
0.0
40
0.700000
50
180.000000
51
270.000000
0
LINE
8
0
10
88.390573
20
230.174406
30
0.0
11
89.590573
21
230.174406
31
0.0
0
ARC
8
0
10
89.590573
20
230.474406
30
0.0
40
0.300000
50
270.000000
51
0.000000
0
LINE
8
0
10
89.890573
20
230.474406
30
0.0
11
89.890573
21
231.174406
31
0.0
0
ARC
8
0
10
90.190573
20
231.174406
30
0.0
40
0.300000
50
90.000000
51
180.000000
0
ARC
8
0
10
90.190573
20
230.774406
30
0.0
40
0.700000
50
0.000000
51
90.000000
0
LINE
8
0
10
90.890573
20
230.774406
30
0.0
11
90.890573
21
229.274406
31
0.0
0
ARC
8
0
10
90.590573
20
229.274406
30
0.0
40
0.300000
50
270.000000
51
0.000000
0
LINE
8
0
10
90.590573
20
228.974406
30
0.0
11
88.490573
21
228.974406
31
0.0
0
ARC
8
0
10
88.490573
20
228.674406
30
0.0
40
0.300000
50
90.000000
51
180.000000
0
LINE
8
0
10
88.190573
20
228.674406
30
0.0
11
88.190573
21
221.474406
31
0.0
0
ARC
8
0
10
89.190573
20
221.474406
30
0.0
40
1.000000
50
180.000000
51
270.000000
0
LINE
8
0
10
89.190573
20
220.474406
30
0.0
11
117.612888
21
220.474406
31
0.0
0
LINE
8
0
10
117.689352
20
220.464498
30
0.0
11
117.612888
21
220.474406
31
0.0
0
LINE
8
0
10
117.689352
20
220.464498
30
0.0
11
118.651555
21
220.210875
31
0.0
0
ARC
8
0
10
118.741276
20
220.497144
30
0.0
40
0.300000
50
252.598279
51
330.367342
0
ARC
8
0
10
119.175883
20
220.249926
30
0.0
40
0.200000
50
90.000000
51
150.367342
0
LINE
8
0
10
119.177285
20
220.449921
30
0.0
11
120.728379
21
220.449921
31
0.0
0
ARC
8
0
10
120.728379
20
220.149921
30
0.0
40
0.300000
50
342.598279
51
90.000000
0
LINE
8
0
10
121.014648
20
220.060200
30
0.0
11
120.412684
21
218.139531
31
0.0
0
ARC
8
0
10
119.649299
20
218.378787
30
0.0
40
0.800000
50
297.598279
51
342.598279
0
LINE
8
0
10
120.019914
20
217.669813
30
0.0
11
119.738844
21
217.522884
31
0.0
0
ARC
8
0
10
119.646190
20
217.700127
30
0.0
40
0.200000
50
180.000000
51
297.598279
0
LINE
8
0
10
119.446366
20
217.708508
30
0.0
11
119.458463
21
217.996930
31
0.0
0
LINE
8
0
10
119.458463
20
217.996930
30
0.0
11
117.750366
21
219.080993
31
0.0
0
ARC
8
0
10
117.428855
20
218.574406
30
0.0
40
0.600000
50
57.598279
51
90.000000
0
LINE
8
0
10
117.428855
20
219.174406
30
0.0
11
117.390573
21
219.174406
31
0.0
0
ARC
8
0
10
117.490573
20
218.891563
30
0.0
40
0.300000
50
109.471221
51
250.528779
0
LINE
8
0
10
117.390573
20
218.608720
30
0.0
11
117.390573
21
214.574406
31
0.0
0
ARC
8
0
10
117.690573
20
214.574406
30
0.0
40
0.300000
50
180.000000
51
270.000000
0
LINE
8
0
10
117.690573
20
214.274406
30
0.0
11
117.910188
21
214.274406
31
0.0
0
ARC
8
0
10
117.910188
20
214.574406
30
0.0
40
0.300000
50
270.000000
51
300.000000
0
LINE
8
0
10
118.060188
20
214.314598
30
0.0
11
119.590573
21
215.198166
31
0.0
0
ARC
8
0
10
119.690573
20
215.024961
30
0.0
40
0.200000
50
0.000000
51
120.000000
0
LINE
8
0
10
119.890573
20
215.024961
30
0.0
11
119.890573
21
213.074420
31
0.0
0
ARC
8
0
10
120.190573
20
213.074420
30
0.0
40
0.300000
50
180.000000
51
270.000000
0
LINE
8
0
10
120.190573
20
212.774420
30
0.0
11
121.590573
21
212.774420
31
0.0
0
ARC
8
0
10
121.590573
20
212.474420
30
0.0
40
0.300000
50
0.000000
51
90.000000
0
LINE
8
0
10
121.890573
20
212.474420
30
0.0
11
121.890573
21
211.574420
31
0.0
0
ARC
8
0
10
121.590573
20
211.574420
30
0.0
40
0.300000
50
270.000000
51
0.000000
0
LINE
8
0
10
121.590573
20
211.274420
30
0.0
11
117.690573
21
211.274420
31
0.0
0
ARC
8
0
10
117.690573
20
210.974420
30
0.0
40
0.300000
50
90.000000
51
180.000000
0
LINE
8
0
10
117.390573
20
210.974420
30
0.0
11
117.390573
21
187.176627
31
0.0
0
ARC
8
0
10
118.390573
20
187.176627
30
0.0
40
1.000000
50
180.000000
51
240.000000
0
LINE
8
0
10
117.890573
20
186.310602
30
0.0
11
119.390573
21
185.444576
31
0.0
0
ARC
8
0
10
118.890573
20
184.578551
30
0.0
40
1.000000
50
0.000000
51
60.000000
0
LINE
8
0
10
119.890573
20
184.578551
30
0.0
11
119.890573
21
183.423850
31
0.0
0
ARC
8
0
10
119.690573
20
183.423850
30
0.0
40
0.200000
50
240.000000
51
0.000000
0
LINE
8
0
10
88.490573
20
218.674406
30
0.0
11
115.490573
21
218.674406
31
0.0
0
ARC
8
0
10
115.490573
20
218.374406
30
0.0
40
0.300000
50
0.000000
51
90.000000
0
LINE
8
0
10
115.790573
20
218.374406
30
0.0
11
115.790573
21
214.101272
31
0.0
0
ARC
8
0
10
115.490573
20
214.101272
30
0.0
40
0.300000
50
285.000000
51
0.000000
0
LINE
8
0
10
115.568219
20
213.811494
30
0.0
11
113.512927
21
213.260780
31
0.0
0
ARC
8
0
10
113.590573
20
212.971003
30
0.0
40
0.300000
50
105.000000
51
180.000000
0
LINE
8
0
10
113.290573
20
212.971003
30
0.0
11
113.290573
21
212.474406
31
0.0
0
ARC
8
0
10
113.590573
20
212.474406
30
0.0
40
0.300000
50
180.000000
51
270.000000
0
LINE
8
0
10
113.590573
20
212.174406
30
0.0
11
115.490573
21
212.174406
31
0.0
0
ARC
8
0
10
115.490573
20
211.874406
30
0.0
40
0.300000
50
0.000000
51
90.000000
0
LINE
8
0
10
115.790573
20
211.874406
30
0.0
11
115.790573
21
181.674406
31
0.0
0
ARC
8
0
10
115.490573
20
181.674406
30
0.0
40
0.300000
50
270.000000
51
0.000000
0
LINE
8
0
10
115.490573
20
181.374406
30
0.0
11
88.490573
21
181.374406
31
0.0
0
ARC
8
0
10
88.490573
20
181.674406
30
0.0
40
0.300000
50
180.000000
51
270.000000
0
LINE
8
0
10
88.190573
20
181.674406
30
0.0
11
88.190573
21
211.874406
31
0.0
0
ARC
8
0
10
88.490573
20
211.874406
30
0.0
40
0.300000
50
90.000000
51
180.000000
0
LINE
8
0
10
88.490573
20
212.174406
30
0.0
11
90.390573
21
212.174406
31
0.0
0
ARC
8
0
10
90.390573
20
212.474406
30
0.0
40
0.300000
50
270.000000
51
0.000000
0
LINE
8
0
10
90.690573
20
212.474406
30
0.0
11
90.690573
21
212.917413
31
0.0
0
ARC
8
0
10
90.390573
20
212.917413
30
0.0
40
0.300000
50
0.000000
51
75.000000
0
LINE
8
0
10
90.468219
20
213.207191
30
0.0
11
88.412927
21
213.757904
31
0.0
0
ARC
8
0
10
88.490573
20
214.047682
30
0.0
40
0.300000
50
180.000000
51
255.000000
0
LINE
8
0
10
88.190573
20
214.047682
30
0.0
11
88.190573
21
218.374406
31
0.0
0
ARC
8
0
10
88.490573
20
218.374406
30
0.0
40
0.300000
50
90.000000
51
180.000000
0
ARC
8
0
10
145.660180
20
219.074406
30
0.0
40
1.000000
50
35.000000
51
90.000000
0
LINE
8
0
10
145.660180
20
220.074406
30
0.0
11
123.121099
21
220.074406
31
0.0
0
ARC
8
0
10
123.121099
20
219.074406
30
0.0
40
1.000000
50
90.000000
51
145.000000
0
LINE
8
0
10
122.301947
20
219.647982
30
0.0
11
120.964295
21
217.737618
31
0.0
0
ARC
8
0
10
120.554719
20
218.024406
30
0.0
40
0.500000
50
270.000000
51
325.000000
0
LINE
8
0
10
120.554719
20
217.524406
30
0.0
11
119.964740
21
217.524406
31
0.0
0
ARC
8
0
10
119.964740
20
218.524406
30
0.0
40
1.000000
50
240.000000
51
270.000000
0
LINE
8
0
10
119.464740
20
217.658380
30
0.0
11
118.120958
21
218.434213
31
0.0
0
ARC
8
0
10
117.970958
20
218.174406
30
0.0
40
0.300000
50
60.000000
51
90.000000
0
LINE
8
0
10
117.970958
20
218.474406
30
0.0
11
117.790573
21
218.474406
31
0.0
0
ARC
8
0
10
117.790573
20
218.074406
30
0.0
40
0.400000
50
90.000000
51
180.000000
0
LINE
8
0
10
117.390573
20
218.074406
30
0.0
11
117.390573
21
217.474406
31
0.0
0
LINE
8
0
10
117.390573
20
217.474406
30
0.0
11
117.490573
21
217.474406
31
0.0
0
LINE
8
0
10
117.490573
20
217.474406
30
0.0
11
117.490573
21
217.099406
31
0.0
0
ARC
8
0
10
117.690573
20
217.099406
30
0.0
40
0.200000
50
180.000000
51
270.000000
0
LINE
8
0
10
117.690573
20
216.899406
30
0.0
11
117.813656
21
216.899406
31
0.0
0
LINE
8
0
10
117.813656
20
216.899406
30
0.0
11
117.879039
21
216.914406
31
0.0
0
ARC
8
0
10
118.140573
20
216.374406
30
0.0
40
0.600000
50
0.000000
51
115.841933
0
ARC
8
0
10
118.140573
20
216.374406
30
0.0
40
0.600000
50
244.158067
51
0.000000
0
LINE
8
0
10
117.879039
20
215.834406
30
0.0
11
117.813656
21
215.849406
31
0.0
0
LINE
8
0
10
117.813656
20
215.849406
30
0.0
11
117.690573
21
215.849406
31
0.0
0
ARC
8
0
10
117.690573
20
215.649406
30
0.0
40
0.200000
50
90.000000
51
180.000000
0
LINE
8
0
10
117.490573
20
215.649406
30
0.0
11
117.490573
21
215.274406
31
0.0
0
LINE
8
0
10
117.490573
20
215.274406
30
0.0
11
117.390573
21
215.274406
31
0.0
0
LINE
8
0
10
117.390573
20
215.274406
30
0.0
11
117.390573
21
214.674406
31
0.0
0
ARC
8
0
10
117.790573
20
214.674406
30
0.0
40
0.400000
50
180.000000
51
270.000000
0
LINE
8
0
10
117.790573
20
214.274406
30
0.0
11
117.970958
21
214.274406
31
0.0
0
ARC
8
0
10
117.970958
20
214.574406
30
0.0
40
0.300000
50
270.000000
51
300.000000
0
LINE
8
0
10
118.120958
20
214.314598
30
0.0
11
119.464740
21
215.090431
31
0.0
0
ARC
8
0
10
119.964740
20
214.224406
30
0.0
40
1.000000
50
90.000000
51
120.000000
0
LINE
8
0
10
119.964740
20
215.224406
30
0.0
11
121.595853
21
215.224406
31
0.0
0
ARC
8
0
10
121.595853
20
216.024406
30
0.0
40
0.800000
50
270.000000
51
325.000000
0
LINE
8
0
10
122.251175
20
215.565545
30
0.0
11
123.550770
21
217.421559
31
0.0
0
ARC
8
0
10
125.189074
20
216.274406
30
0.0
40
2.000000
50
90.000000
51
145.000000
0
LINE
8
0
10
125.189074
20
218.274406
30
0.0
11
143.592205
21
218.274406
31
0.0
0
ARC
8
0
10
143.592205
20
216.274406
30
0.0
40
2.000000
50
35.000000
51
90.000000
0
LINE
8
0
10
145.230509
20
217.421559
30
0.0
11
146.530104
21
215.565545
31
0.0
0
ARC
8
0
10
147.185426
20
216.024406
30
0.0
40
0.800000
50
215.000000
51
270.000000
0
LINE
8
0
10
147.185426
20
215.224406
30
0.0
11
148.816538
21
215.224406
31
0.0
0
ARC
8
0
10
148.816538
20
214.224406
30
0.0
40
1.000000
50
60.000000
51
90.000000
0
LINE
8
0
10
149.316538
20
215.090431
30
0.0
11
150.660321
21
214.314598
31
0.0
0
ARC
8
0
10
150.810321
20
214.574406
30
0.0
40
0.300000
50
240.000000
51
270.000000
0
LINE
8
0
10
150.810321
20
214.274406
30
0.0
11
150.990705
21
214.274406
31
0.0
0
ARC
8
0
10
150.990705
20
214.674406
30
0.0
40
0.400000
50
270.000000
51
0.000000
0
LINE
8
0
10
151.390705
20
214.674406
30
0.0
11
151.390705
21
215.274406
31
0.0
0
LINE
8
0
10
151.390705
20
215.274406
30
0.0
11
151.290705
21
215.274406
31
0.0
0
LINE
8
0
10
151.290705
20
215.274406
30
0.0
11
151.290705
21
215.649406
31
0.0
0
ARC
8
0
10
151.090705
20
215.649406
30
0.0
40
0.200000
50
0.000000
51
90.000000
0
LINE
8
0
10
151.090705
20
215.849406
30
0.0
11
150.967623
21
215.849406
31
0.0
0
LINE
8
0
10
150.967623
20
215.849406
30
0.0
11
150.902239
21
215.834406
31
0.0
0
ARC
8
0
10
150.640705
20
216.374406
30
0.0
40
0.600000
50
180.000000
51
295.841933
0
ARC
8
0
10
150.640705
20
216.374406
30
0.0
40
0.600000
50
64.158067
51
180.000000
0
LINE
8
0
10
150.902239
20
216.914406
30
0.0
11
150.967623
21
216.899406
31
0.0
0
LINE
8
0
10
150.967623
20
216.899406
30
0.0
11
151.090705
21
216.899406
31
0.0
0
ARC
8
0
10
151.090705
20
217.099406
30
0.0
40
0.200000
50
270.000000
51
0.000000
0
LINE
8
0
10
151.290705
20
217.099406
30
0.0
11
151.290705
21
217.474406
31
0.0
0
LINE
8
0
10
151.290705
20
217.474406
30
0.0
11
151.390705
21
217.474406
31
0.0
0
LINE
8
0
10
151.390705
20
217.474406
30
0.0
11
151.390705
21
218.074406
31
0.0
0
ARC
8
0
10
150.990705
20
218.074406
30
0.0
40
0.400000
50
0.000000
51
90.000000
0
LINE
8
0
10
150.990705
20
218.474406
30
0.0
11
150.810321
21
218.474406
31
0.0
0
ARC
8
0
10
150.810321
20
218.174406
30
0.0
40
0.300000
50
90.000000
51
120.000000
0
LINE
8
0
10
150.660321
20
218.434213
30
0.0
11
149.316538
21
217.658380
31
0.0
0
ARC
8
0
10
148.816538
20
218.524406
30
0.0
40
1.000000
50
270.000000
51
300.000000
0
LINE
8
0
10
148.816538
20
217.524406
30
0.0
11
148.226560
21
217.524406
31
0.0
0
ARC
8
0
10
148.226560
20
218.024406
30
0.0
40
0.500000
50
215.000000
51
270.000000
0
LINE
8
0
10
147.816984
20
217.737618
30
0.0
11
146.479332
21
219.647982
31
0.0
0
ARC
8
0
10
145.660180
20
179.339435
30
0.0
40
1.000000
50
270.000000
51
325.000000
0
LINE
8
0
10
145.660180
20
178.339435
30
0.0
11
123.121099
21
178.339435
31
0.0
0
ARC
8
0
10
123.121099
20
179.339435
30
0.0
40
1.000000
50
215.000000
51
270.000000
0
LINE
8
0
10
122.301947
20
178.765859
30
0.0
11
120.964295
21
180.676223
31
0.0
0
ARC
8
0
10
120.554719
20
180.389435
30
0.0
40
0.500000
50
35.000000
51
90.000000
0
LINE
8
0
10
120.554719
20
180.889435
30
0.0
11
119.964740
21
180.889435
31
0.0
0
ARC
8
0
10
119.964740
20
179.889435
30
0.0
40
1.000000
50
90.000000
51
120.000000
0
LINE
8
0
10
119.464740
20
180.755460
30
0.0
11
118.120958
21
179.979627
31
0.0
0
ARC
8
0
10
117.970958
20
180.239435
30
0.0
40
0.300000
50
270.000000
51
300.000000
0
LINE
8
0
10
117.970958
20
179.939435
30
0.0
11
117.790573
21
179.939435
31
0.0
0
ARC
8
0
10
117.790573
20
180.339435
30
0.0
40
0.400000
50
180.000000
51
270.000000
0
LINE
8
0
10
117.390573
20
180.339435
30
0.0
11
117.390573
21
180.939435
31
0.0
0
LINE
8
0
10
117.390573
20
180.939435
30
0.0
11
117.490573
21
180.939435
31
0.0
0
LINE
8
0
10
117.490573
20
180.939435
30
0.0
11
117.490573
21
181.314435
31
0.0
0
ARC
8
0
10
117.690573
20
181.314435
30
0.0
40
0.200000
50
90.000000
51
180.000000
0
LINE
8
0
10
117.690573
20
181.514435
30
0.0
11
117.813656
21
181.514435
31
0.0
0
LINE
8
0
10
117.879039
20
181.499435
30
0.0
11
117.813656
21
181.514435
31
0.0
0
ARC
8
0
10
118.140573
20
182.039435
30
0.0
40
0.600000
50
244.158067
51
0.000000
0
ARC
8
0
10
118.140573
20
182.039435
30
0.0
40
0.600000
50
0.000000
51
115.841933
0
LINE
8
0
10
117.813656
20
182.564435
30
0.0
11
117.879039
21
182.579435
31
0.0
0
LINE
8
0
10
117.813656
20
182.564435
30
0.0
11
117.690573
21
182.564435
31
0.0
0
ARC
8
0
10
117.690573
20
182.764435
30
0.0
40
0.200000
50
180.000000
51
270.000000
0
LINE
8
0
10
117.490573
20
182.764435
30
0.0
11
117.490573
21
183.139435
31
0.0
0
LINE
8
0
10
117.490573
20
183.139435
30
0.0
11
117.390573
21
183.139435
31
0.0
0
LINE
8
0
10
117.390573
20
183.139435
30
0.0
11
117.390573
21
183.739435
31
0.0
0
ARC
8
0
10
117.790573
20
183.739435
30
0.0
40
0.400000
50
90.000000
51
180.000000
0
LINE
8
0
10
117.790573
20
184.139435
30
0.0
11
117.970958
21
184.139435
31
0.0
0
ARC
8
0
10
117.970958
20
183.839435
30
0.0
40
0.300000
50
60.000000
51
90.000000
0
LINE
8
0
10
118.120958
20
184.099243
30
0.0
11
119.464740
21
183.323410
31
0.0
0
ARC
8
0
10
119.964740
20
184.189435
30
0.0
40
1.000000
50
240.000000
51
270.000000
0
LINE
8
0
10
119.964740
20
183.189435
30
0.0
11
121.595853
21
183.189435
31
0.0
0
ARC
8
0
10
121.595853
20
182.389435
30
0.0
40
0.800000
50
35.000000
51
90.000000
0
LINE
8
0
10
122.251175
20
182.848296
30
0.0
11
123.550770
21
180.992282
31
0.0
0
ARC
8
0
10
125.189074
20
182.139435
30
0.0
40
2.000000
50
215.000000
51
270.000000
0
LINE
8
0
10
125.189074
20
180.139435
30
0.0
11
143.592205
21
180.139435
31
0.0
0
ARC
8
0
10
143.592205
20
182.139435
30
0.0
40
2.000000
50
270.000000
51
325.000000
0
LINE
8
0
10
145.230509
20
180.992282
30
0.0
11
146.530104
21
182.848296
31
0.0
0
ARC
8
0
10
147.185426
20
182.389435
30
0.0
40
0.800000
50
90.000000
51
145.000000
0
LINE
8
0
10
147.185426
20
183.189435
30
0.0
11
148.816538
21
183.189435
31
0.0
0
ARC
8
0
10
148.816538
20
184.189435
30
0.0
40
1.000000
50
270.000000
51
300.000000
0
LINE
8
0
10
149.316538
20
183.323410
30
0.0
11
150.660321
21
184.099243
31
0.0
0
ARC
8
0
10
150.810321
20
183.839435
30
0.0
40
0.300000
50
90.000000
51
120.000000
0
LINE
8
0
10
150.810321
20
184.139435
30
0.0
11
150.990705
21
184.139435
31
0.0
0
ARC
8
0
10
150.990705
20
183.739435
30
0.0
40
0.400000
50
0.000000
51
90.000000
0
LINE
8
0
10
151.390705
20
183.739435
30
0.0
11
151.390705
21
183.139435
31
0.0
0
LINE
8
0
10
151.390705
20
183.139435
30
0.0
11
151.290705
21
183.139435
31
0.0
0
LINE
8
0
10
151.290705
20
183.139435
30
0.0
11
151.290705
21
182.764435
31
0.0
0
ARC
8
0
10
151.090705
20
182.764435
30
0.0
40
0.200000
50
270.000000
51
0.000000
0
LINE
8
0
10
151.090705
20
182.564435
30
0.0
11
150.967623
21
182.564435
31
0.0
0
LINE
8
0
10
150.902239
20
182.579435
30
0.0
11
150.967623
21
182.564435
31
0.0
0
ARC
8
0
10
150.640705
20
182.039435
30
0.0
40
0.600000
50
64.158067
51
180.000000
0
ARC
8
0
10
150.640705
20
182.039435
30
0.0
40
0.600000
50
180.000000
51
295.841933
0
LINE
8
0
10
150.967623
20
181.514435
30
0.0
11
150.902239
21
181.499435
31
0.0
0
LINE
8
0
10
150.967623
20
181.514435
30
0.0
11
151.090705
21
181.514435
31
0.0
0
ARC
8
0
10
151.090705
20
181.314435
30
0.0
40
0.200000
50
0.000000
51
90.000000
0
LINE
8
0
10
151.290705
20
181.314435
30
0.0
11
151.290705
21
180.939435
31
0.0
0
LINE
8
0
10
151.290705
20
180.939435
30
0.0
11
151.390705
21
180.939435
31
0.0
0
LINE
8
0
10
151.390705
20
180.939435
30
0.0
11
151.390705
21
180.339435
31
0.0
0
ARC
8
0
10
150.990705
20
180.339435
30
0.0
40
0.400000
50
270.000000
51
0.000000
0
LINE
8
0
10
150.990705
20
179.939435
30
0.0
11
150.810321
21
179.939435
31
0.0
0
ARC
8
0
10
150.810321
20
180.239435
30
0.0
40
0.300000
50
240.000000
51
270.000000
0
LINE
8
0
10
150.660321
20
179.979627
30
0.0
11
149.316538
21
180.755460
31
0.0
0
ARC
8
0
10
148.816538
20
179.889435
30
0.0
40
1.000000
50
60.000000
51
90.000000
0
LINE
8
0
10
148.816538
20
180.889435
30
0.0
11
148.226560
21
180.889435
31
0.0
0
ARC
8
0
10
148.226560
20
180.389435
30
0.0
40
0.500000
50
90.000000
51
145.000000
0
LINE
8
0
10
147.816984
20
180.676223
30
0.0
11
146.479332
21
178.765859
31
0.0
0
ATTDEF
8
0
10
148.052766
20
220.449893
30
0.0
40
3.5
1

3

2
VC_START
70
0
0
ATTDEF
8
0
10
152.540822
20
172.974378
30
0.0
40
3.5
1

3

2
VC_END
70
0
0
ATTDEF
8
0
10
86.390573
20
140.974406
30
0.0
40
3.5
1

3

2
DESC:Telaio T per porta apertura esterna
70
0
0
ATTDEF
8
0
10
86.390573
20
140.974406
30
0.0
40
3.5
1

3

2
DENS:1.930000
70
0
0
ATTDEF
8
0
10
86.390573
20
140.974406
30
0.0
40
3.5
1

3

2
TDEV:0.000000
70
0
0
ATTDEF
8
0
10
86.390573
20
140.974406
30
0.0
40
3.5
1

3

2
TDEV2:0.000000
70
0
0
ATTDEF
8
0
10
86.390573
20
140.974406
30
0.0
40
3.5
1

3

2
TDEV3:0.000000
70
0
0
ATTDEF
8
0
10
86.390573
20
140.974406
30
0.0
40
3.5
1

3

2
TDEV4:0.000000
70
0
0
ATTDEF
8
0
10
86.390573
20
140.974406
30
0.0
40
3.5
1

3

2
TDEV5:0.000000
70
0
0
ATTDEF
8
0
10
86.390573
20
140.974406
30
0.0
40
3.5
1

3

2
FRONT_VIEW
70
0
0
ATTDEF
8
0
10
86.390573
20
140.974406
30
0.0
40
3.5
1

3

2
BL01:6800.000000,,1
70
0
0
ATTDEF
8
0
10
86.390573
20
140.974406
30
0.0
40
3.5
1

3

2
OPTI:500.000000,1,0,3000.000000,6500.000000,500.000000,0,0.000000,0
70
0
0
ATTDEF
8
0
10
86.390573
20
140.974406
30
0.0
40
3.5
1

3

2
PANE_WIDTH:0.000000
70
0
0
ATTDEF
8
0
10
86.390573
20
140.974406
30
0.0
40
3.5
1

3

2
GLASS_MIN:0.000000
70
0
0
ATTDEF
8
0
10
86.390573
20
140.974406
30
0.0
40
3.5
1

3

2
GLASS_MAX:0.000000
70
0
0
ATTDEF
8
0
10
86.390573
20
140.974406
30
0.0
40
3.5
1

3

2
JX:0.000000
70
0
0
ATTDEF
8
0
10
86.390573
20
140.974406
30
0.0
40
3.5
1

3

2
WX:0.000000
70
0
0
ATTDEF
8
0
10
86.390573
20
140.974406
30
0.0
40
3.5
1

3

2
JY:0.000000
70
0
0
ATTDEF
8
0
10
86.390573
20
140.974406
30
0.0
40
3.5
1

3

2
WY:0.000000
70
0
0
ATTDEF
8
0
10
86.390573
20
140.974406
30
0.0
40
3.5
1

3

2
FP_LCS_ORIG
70
0
0
ATTDEF
8
0
10
96.390573
20
140.974406
30
0.0
40
3.5
1

3

2
FP_LCS_HOT
70
0
0
ATTDEF
8
0
10
86.390573
20
150.974406
30
0.0
40
3.5
1

3

2
FP_LCS_INTERN
70
0
0
ENDSEC
0
EOF
