0
SECTION
2
ENTITIES
0
ARC
8
0
10
84.757320
20
145.901649
30
0.0
40
0.200000
50
240.000000
51
0.000000
0
LINE
8
0
10
84.657320
20
145.728444
30
0.0
11
83.126936
21
146.612012
31
0.0
0
ARC
8
0
10
82.976936
20
146.352205
30
0.0
40
0.300000
50
60.000000
51
90.000000
0
LINE
8
0
10
82.976936
20
146.652205
30
0.0
11
82.757320
21
146.652205
31
0.0
0
ARC
8
0
10
82.757320
20
146.352205
30
0.0
40
0.300000
50
90.000000
51
180.000000
0
LINE
8
0
10
82.457320
20
146.352205
30
0.0
11
82.457320
21
142.317890
31
0.0
0
ARC
8
0
10
82.557320
20
142.035047
30
0.0
40
0.300000
50
109.471221
51
250.528779
0
LINE
8
0
10
82.457320
20
141.752205
30
0.0
11
82.495602
21
141.752205
31
0.0
0
ARC
8
0
10
82.495602
20
142.352205
30
0.0
40
0.600000
50
270.000000
51
302.401721
0
LINE
8
0
10
82.817113
20
141.845618
30
0.0
11
84.525210
21
142.929681
31
0.0
0
LINE
8
0
10
84.525210
20
142.929681
30
0.0
11
84.513113
21
143.218102
31
0.0
0
ARC
8
0
10
84.712937
20
143.226483
30
0.0
40
0.200000
50
62.401721
51
180.000000
0
LINE
8
0
10
84.805591
20
143.403727
30
0.0
11
85.086662
21
143.256798
31
0.0
0
ARC
8
0
10
84.716046
20
142.547824
30
0.0
40
0.800000
50
17.401721
51
62.401721
0
LINE
8
0
10
85.479431
20
142.787079
30
0.0
11
86.081396
21
140.866410
31
0.0
0
ARC
8
0
10
85.795126
20
140.776690
30
0.0
40
0.300000
50
270.000000
51
17.401721
0
LINE
8
0
10
85.795126
20
140.476690
30
0.0
11
84.244032
21
140.476690
31
0.0
0
ARC
8
0
10
84.242630
20
140.676685
30
0.0
40
0.200000
50
209.632658
51
270.000000
0
ARC
8
0
10
83.808023
20
140.429466
30
0.0
40
0.300000
50
29.632658
51
107.401721
0
LINE
8
0
10
83.718302
20
140.715735
30
0.0
11
82.680856
21
140.442280
31
0.0
0
ARC
8
0
10
82.757320
20
140.152188
30
0.0
40
0.300000
50
104.766462
51
180.000000
0
LINE
8
0
10
82.457320
20
140.152205
30
0.0
11
82.457079
21
135.752188
31
0.0
0
ARC
8
0
10
82.157079
20
135.752205
30
0.0
40
0.300000
50
270.000000
51
0.000000
0
LINE
8
0
10
82.157079
20
135.452205
30
0.0
11
80.457063
21
135.452205
31
0.0
0
ARC
8
0
10
80.457063
20
136.252205
30
0.0
40
0.800000
50
180.000000
51
270.000000
0
LINE
8
0
10
79.657063
20
136.252205
30
0.0
11
79.657063
21
136.352205
31
0.0
0
ARC
8
0
10
79.957063
20
136.352205
30
0.0
40
0.300000
50
90.000000
51
180.000000
0
LINE
8
0
10
79.957063
20
136.652205
30
0.0
11
80.661572
21
136.652205
31
0.0
0
ARC
8
0
10
80.661572
20
136.952205
30
0.0
40
0.300000
50
270.000000
51
0.000000
0
LINE
8
0
10
80.961572
20
136.952205
30
0.0
11
80.961572
21
139.452205
31
0.0
0
LINE
8
0
10
80.961572
20
139.452205
30
0.0
11
80.693282
21
141.687948
31
0.0
0
ARC
8
0
10
80.395419
20
141.652205
30
0.0
40
0.300000
50
6.842773
51
90.000000
0
LINE
8
0
10
80.395419
20
141.952205
30
0.0
11
72.257063
21
141.952205
31
0.0
0
ARC
8
0
10
72.257063
20
141.652205
30
0.0
40
0.300000
50
90.000000
51
180.000000
0
LINE
8
0
10
71.957063
20
141.652205
30
0.0
11
71.957063
21
136.952205
31
0.0
0
ARC
8
0
10
72.257063
20
136.952205
30
0.0
40
0.300000
50
180.000000
51
270.000000
0
LINE
8
0
10
72.257063
20
136.652205
30
0.0
11
72.957063
21
136.652205
31
0.0
0
ARC
8
0
10
72.957063
20
136.352205
30
0.0
40
0.300000
50
0.000000
51
90.000000
0
LINE
8
0
10
73.257063
20
136.352205
30
0.0
11
73.257063
21
136.252205
31
0.0
0
ARC
8
0
10
72.457063
20
136.252205
30
0.0
40
0.800000
50
270.000000
51
0.000000
0
LINE
8
0
10
72.457063
20
135.452205
30
0.0
11
70.757063
21
135.452205
31
0.0
0
ARC
8
0
10
70.757063
20
135.752205
30
0.0
40
0.300000
50
180.000000
51
270.000000
0
LINE
8
0
10
70.457063
20
135.752205
30
0.0
11
70.457063
21
200.953933
31
0.0
0
ARC
8
0
10
70.957063
20
200.953933
30
0.0
40
0.500000
50
90.000000
51
180.000000
0
LINE
8
0
10
70.957063
20
201.453933
30
0.0
11
74.657063
21
201.453933
31
0.0
0
ARC
8
0
10
74.657063
20
201.153933
30
0.0
40
0.300000
50
0.000000
51
90.000000
0
LINE
8
0
10
74.957063
20
201.153933
30
0.0
11
74.957063
21
199.653933
31
0.0
0
ARC
8
0
10
74.257063
20
199.653933
30
0.0
40
0.700000
50
270.000000
51
0.000000
0
ARC
8
0
10
74.257063
20
199.253933
30
0.0
40
0.300000
50
180.000000
51
270.000000
0
LINE
8
0
10
73.957063
20
199.253933
30
0.0
11
73.957063
21
199.953933
31
0.0
0
ARC
8
0
10
73.657063
20
199.953933
30
0.0
40
0.300000
50
0.000000
51
90.000000
0
LINE
8
0
10
73.657063
20
200.253933
30
0.0
11
72.457063
21
200.253933
31
0.0
0
ARC
8
0
10
72.457063
20
199.553933
30
0.0
40
0.700000
50
90.000000
51
180.000000
0
LINE
8
0
10
71.757063
20
199.553933
30
0.0
11
71.757063
21
193.353933
31
0.0
0
ARC
8
0
10
72.457063
20
193.353933
30
0.0
40
0.700000
50
180.000000
51
270.000000
0
LINE
8
0
10
72.457063
20
192.653933
30
0.0
11
73.657063
21
192.653933
31
0.0
0
ARC
8
0
10
73.657063
20
192.953933
30
0.0
40
0.300000
50
270.000000
51
0.000000
0
LINE
8
0
10
73.957063
20
192.953933
30
0.0
11
73.957063
21
193.653933
31
0.0
0
ARC
8
0
10
74.257063
20
193.653933
30
0.0
40
0.300000
50
90.000000
51
180.000000
0
ARC
8
0
10
74.257063
20
193.253933
30
0.0
40
0.700000
50
0.000000
51
90.000000
0
LINE
8
0
10
74.957063
20
193.253933
30
0.0
11
74.957063
21
191.753933
31
0.0
0
ARC
8
0
10
74.657063
20
191.753933
30
0.0
40
0.300000
50
270.000000
51
0.000000
0
LINE
8
0
10
74.657063
20
191.453933
30
0.0
11
72.457063
21
191.453933
31
0.0
0
ARC
8
0
10
72.457063
20
191.153933
30
0.0
40
0.300000
50
90.000000
51
180.000000
0
LINE
8
0
10
72.157063
20
191.153933
30
0.0
11
72.157063
21
183.952205
31
0.0
0
ARC
8
0
10
73.157063
20
183.952205
30
0.0
40
1.000000
50
180.000000
51
270.000000
0
LINE
8
0
10
73.157063
20
182.952205
30
0.0
11
82.679635
21
182.952205
31
0.0
0
LINE
8
0
10
82.756099
20
182.942296
30
0.0
11
82.679635
21
182.952205
31
0.0
0
LINE
8
0
10
82.756099
20
182.942296
30
0.0
11
83.718302
21
182.688674
31
0.0
0
ARC
8
0
10
83.808023
20
182.974943
30
0.0
40
0.300000
50
252.598279
51
330.367342
0
ARC
8
0
10
84.242630
20
182.727725
30
0.0
40
0.200000
50
90.000000
51
150.367342
0
LINE
8
0
10
84.244032
20
182.927720
30
0.0
11
85.795126
21
182.927720
31
0.0
0
ARC
8
0
10
85.795126
20
182.627720
30
0.0
40
0.300000
50
342.598279
51
90.000000
0
LINE
8
0
10
86.081396
20
182.537999
30
0.0
11
85.479431
21
180.617330
31
0.0
0
ARC
8
0
10
84.716046
20
180.856586
30
0.0
40
0.800000
50
297.598279
51
342.598279
0
LINE
8
0
10
85.086662
20
180.147612
30
0.0
11
84.805591
21
180.000682
31
0.0
0
ARC
8
0
10
84.712937
20
180.177926
30
0.0
40
0.200000
50
180.000000
51
297.598279
0
LINE
8
0
10
84.513113
20
180.186307
30
0.0
11
84.525210
21
180.474729
31
0.0
0
LINE
8
0
10
84.525210
20
180.474729
30
0.0
11
82.817113
21
181.558792
31
0.0
0
ARC
8
0
10
82.495602
20
181.052205
30
0.0
40
0.600000
50
57.598279
51
90.000000
0
LINE
8
0
10
82.495602
20
181.652205
30
0.0
11
82.457320
21
181.652205
31
0.0
0
ARC
8
0
10
82.557320
20
181.369362
30
0.0
40
0.300000
50
109.471221
51
250.528779
0
LINE
8
0
10
82.457320
20
181.086519
30
0.0
11
82.457320
21
177.052205
31
0.0
0
ARC
8
0
10
82.757320
20
177.052205
30
0.0
40
0.300000
50
180.000000
51
270.000000
0
LINE
8
0
10
82.757320
20
176.752205
30
0.0
11
82.976936
21
176.752205
31
0.0
0
ARC
8
0
10
82.976936
20
177.052205
30
0.0
40
0.300000
50
270.000000
51
300.000000
0
LINE
8
0
10
83.126936
20
176.792397
30
0.0
11
84.657320
21
177.675965
31
0.0
0
ARC
8
0
10
84.757320
20
177.502760
30
0.0
40
0.200000
50
0.000000
51
120.000000
0
LINE
8
0
10
84.957320
20
177.502760
30
0.0
11
84.957320
21
176.348059
31
0.0
0
ARC
8
0
10
83.957320
20
176.348059
30
0.0
40
1.000000
50
300.000001
51
0.000000
0
LINE
8
0
10
84.457320
20
175.482034
30
0.0
11
82.957320
21
174.616009
31
0.0
0
ARC
8
0
10
83.457320
20
173.749983
30
0.0
40
1.000000
50
120.000001
51
180.000000
0
LINE
8
0
10
82.457320
20
173.749983
30
0.0
11
82.457320
21
149.654426
31
0.0
0
ARC
8
0
10
83.457320
20
149.654426
30
0.0
40
1.000000
50
180.000000
51
240.000001
0
LINE
8
0
10
82.957320
20
148.788401
30
0.0
11
84.457320
21
147.922375
31
0.0
0
ARC
8
0
10
83.957320
20
147.056350
30
0.0
40
1.000000
50
0.000000
51
60.000001
0
LINE
8
0
10
84.957320
20
147.056350
30
0.0
11
84.957320
21
145.901649
31
0.0
0
ARC
8
0
10
80.656572
20
175.052205
30
0.0
40
0.300000
50
270.000000
51
0.000000
0
LINE
8
0
10
80.956572
20
175.052205
30
0.0
11
80.956572
21
181.152205
31
0.0
0
ARC
8
0
10
80.656572
20
181.152205
30
0.0
40
0.300000
50
0.000000
51
90.000000
0
LINE
8
0
10
80.656572
20
181.452205
30
0.0
11
72.257063
21
181.452205
31
0.0
0
ARC
8
0
10
72.257063
20
181.152205
30
0.0
40
0.300000
50
90.000000
51
180.000000
0
LINE
8
0
10
71.957063
20
181.152205
30
0.0
11
71.957063
21
175.052205
31
0.0
0
ARC
8
0
10
72.257063
20
175.052205
30
0.0
40
0.300000
50
180.000000
51
270.000000
0
LINE
8
0
10
72.257063
20
174.752205
30
0.0
11
73.657063
21
174.752205
31
0.0
0
ARC
8
0
10
73.657063
20
174.452205
30
0.0
40
0.300000
50
0.000000
51
90.000000
0
LINE
8
0
10
73.957063
20
174.452205
30
0.0
11
73.957063
21
173.552205
31
0.0
0
ARC
8
0
10
73.657063
20
173.552205
30
0.0
40
0.300000
50
270.000000
51
0.000000
0
LINE
8
0
10
73.657063
20
173.252205
30
0.0
11
72.257063
21
173.252205
31
0.0
0
ARC
8
0
10
72.257063
20
172.952205
30
0.0
40
0.300000
50
90.000000
51
180.000000
0
LINE
8
0
10
71.957063
20
172.952205
30
0.0
11
71.957063
21
143.752205
31
0.0
0
ARC
8
0
10
72.257063
20
143.752205
30
0.0
40
0.300000
50
180.000000
51
270.000000
0
LINE
8
0
10
72.257063
20
143.452205
30
0.0
11
80.656572
21
143.452205
31
0.0
0
ARC
8
0
10
80.656572
20
143.752205
30
0.0
40
0.300000
50
270.000000
51
0.000000
0
LINE
8
0
10
80.956572
20
143.752205
30
0.0
11
80.956572
21
172.952205
31
0.0
0
ARC
8
0
10
80.656572
20
172.952205
30
0.0
40
0.300000
50
0.000000
51
90.000000
0
LINE
8
0
10
80.656572
20
173.252205
30
0.0
11
79.256572
21
173.252205
31
0.0
0
ARC
8
0
10
79.256572
20
173.552205
30
0.0
40
0.300000
50
180.000000
51
270.000000
0
LINE
8
0
10
78.956572
20
173.552205
30
0.0
11
78.956572
21
174.452205
31
0.0
0
ARC
8
0
10
79.256572
20
174.452205
30
0.0
40
0.300000
50
90.000000
51
180.000000
0
LINE
8
0
10
79.256572
20
174.752205
30
0.0
11
80.656572
21
174.752205
31
0.0
0
LINE
8
0
10
137.207320
20
174.652205
30
0.0
11
145.357320
21
174.652205
31
0.0
0
ARC
8
0
10
145.357320
20
174.352205
30
0.0
40
0.300000
50
0.000000
51
90.000000
0
LINE
8
0
10
145.657320
20
174.352205
30
0.0
11
145.657320
21
144.152205
31
0.0
0
ARC
8
0
10
145.357320
20
144.152205
30
0.0
40
0.300000
50
270.000000
51
0.000000
0
LINE
8
0
10
145.357320
20
143.852205
30
0.0
11
118.357320
21
143.852205
31
0.0
0
ARC
8
0
10
118.357320
20
144.152205
30
0.0
40
0.300000
50
180.000000
51
270.000000
0
LINE
8
0
10
118.057320
20
144.152205
30
0.0
11
118.057320
21
174.352205
31
0.0
0
ARC
8
0
10
118.357320
20
174.352205
30
0.0
40
0.300000
50
90.000000
51
180.000000
0
LINE
8
0
10
118.357320
20
174.652205
30
0.0
11
120.257320
21
174.652205
31
0.0
0
ARC
8
0
10
120.257320
20
174.952205
30
0.0
40
0.300000
50
270.000000
51
0.000000
0
LINE
8
0
10
120.557320
20
174.952205
30
0.0
11
120.557320
21
175.448801
31
0.0
0
ARC
8
0
10
120.257320
20
175.448801
30
0.0
40
0.300000
50
0.000000
51
75.000000
0
LINE
8
0
10
120.334966
20
175.738579
30
0.0
11
118.279675
21
176.289293
31
0.0
0
ARC
8
0
10
118.357320
20
176.579071
30
0.0
40
0.300000
50
180.000000
51
255.000000
0
LINE
8
0
10
118.057320
20
176.579071
30
0.0
11
118.057320
21
180.852205
31
0.0
0
ARC
8
0
10
118.357320
20
180.852205
30
0.0
40
0.300000
50
90.000000
51
180.000000
0
LINE
8
0
10
118.357320
20
181.152205
30
0.0
11
136.607320
21
181.152205
31
0.0
0
ARC
8
0
10
136.607320
20
180.852205
30
0.0
40
0.300000
50
0.000000
51
90.000000
0
LINE
8
0
10
136.907320
20
180.852205
30
0.0
11
136.907320
21
174.952205
31
0.0
0
ARC
8
0
10
137.207320
20
174.952205
30
0.0
40
0.300000
50
180.000000
51
270.000000
0
LINE
8
0
10
138.457320
20
142.353315
30
0.0
11
138.757320
21
142.053315
31
0.0
0
LINE
8
0
10
138.757320
20
142.053315
30
0.0
11
145.157320
21
142.053315
31
0.0
0
ARC
8
0
10
145.157320
20
141.553315
30
0.0
40
0.500000
50
0.000000
51
90.000000
0
LINE
8
0
10
145.657320
20
141.553315
30
0.0
11
145.657320
21
132.052205
31
0.0
0
ARC
8
0
10
145.357320
20
132.052205
30
0.0
40
0.300000
50
270.000000
51
0.000000
0
LINE
8
0
10
145.357320
20
131.752205
30
0.0
11
143.757320
21
131.752205
31
0.0
0
ARC
8
0
10
143.757320
20
131.452205
30
0.0
40
0.300000
50
90.000000
51
180.000000
0
LINE
8
0
10
143.457320
20
131.452205
30
0.0
11
143.457320
21
129.352205
31
0.0
0
ARC
8
0
10
143.757320
20
129.352205
30
0.0
40
0.300000
50
180.000000
51
270.000000
0
LINE
8
0
10
143.757320
20
129.052205
30
0.0
11
144.157320
21
129.052205
31
0.0
0
ARC
8
0
10
144.157320
20
129.352205
30
0.0
40
0.300000
50
270.000000
51
0.000000
0
LINE
8
0
10
144.457320
20
129.352205
30
0.0
11
144.457320
21
130.252205
31
0.0
0
ARC
8
0
10
144.757320
20
130.252205
30
0.0
40
0.300000
50
90.000000
51
180.000000
0
LINE
8
0
10
144.757320
20
130.552205
30
0.0
11
145.657320
21
130.552205
31
0.0
0
ARC
8
0
10
145.657320
20
130.252205
30
0.0
40
0.300000
50
0.000000
51
90.000000
0
LINE
8
0
10
145.957320
20
130.252205
30
0.0
11
145.957320
21
111.652205
31
0.0
0
ARC
8
0
10
145.657320
20
111.652205
30
0.0
40
0.300000
50
270.000000
51
0.000000
0
LINE
8
0
10
145.657320
20
111.352205
30
0.0
11
144.757320
21
111.352205
31
0.0
0
ARC
8
0
10
144.757320
20
111.652205
30
0.0
40
0.300000
50
180.000000
51
270.000000
0
LINE
8
0
10
144.457320
20
111.652205
30
0.0
11
144.457320
21
112.552205
31
0.0
0
ARC
8
0
10
144.157320
20
112.552205
30
0.0
40
0.300000
50
0.000000
51
90.000000
0
LINE
8
0
10
144.157320
20
112.852205
30
0.0
11
143.457320
21
112.852205
31
0.0
0
ARC
8
0
10
143.457320
20
112.552205
30
0.0
40
0.300000
50
90.000000
51
180.000000
0
LINE
8
0
10
143.157320
20
112.552205
30
0.0
11
143.157320
21
109.052205
31
0.0
0
ARC
8
0
10
143.457320
20
109.052205
30
0.0
40
0.300000
50
180.000000
51
270.000000
0
LINE
8
0
10
143.457320
20
108.752205
30
0.0
11
143.857320
21
108.752205
31
0.0
0
ARC
8
0
10
143.857320
20
109.052205
30
0.0
40
0.300000
50
270.000000
51
0.000000
0
LINE
8
0
10
144.157320
20
109.052205
30
0.0
11
144.157320
21
109.852205
31
0.0
0
ARC
8
0
10
144.457320
20
109.852205
30
0.0
40
0.300000
50
90.000000
51
180.000000
0
LINE
8
0
10
144.457320
20
110.152205
30
0.0
11
145.657320
21
110.152205
31
0.0
0
ARC
8
0
10
145.657320
20
109.852205
30
0.0
40
0.300000
50
0.000000
51
90.000000
0
LINE
8
0
10
145.957320
20
109.852205
30
0.0
11
145.957320
21
104.952205
31
0.0
0
ARC
8
0
10
145.657320
20
104.952205
30
0.0
40
0.300000
50
270.000000
51
0.000000
0
LINE
8
0
10
145.657320
20
104.652205
30
0.0
11
144.457320
21
104.652205
31
0.0
0
ARC
8
0
10
144.457320
20
104.952205
30
0.0
40
0.300000
50
180.000000
51
270.000000
0
LINE
8
0
10
144.157320
20
104.952205
30
0.0
11
144.157320
21
105.752205
31
0.0
0
ARC
8
0
10
143.857320
20
105.752205
30
0.0
40
0.300000
50
0.000000
51
90.000000
0
LINE
8
0
10
143.857320
20
106.052205
30
0.0
11
143.457320
21
106.052205
31
0.0
0
ARC
8
0
10
143.457320
20
105.752205
30
0.0
40
0.300000
50
90.000000
51
180.000000
0
LINE
8
0
10
143.157320
20
105.752205
30
0.0
11
143.157320
21
103.752205
31
0.0
0
ARC
8
0
10
143.457320
20
103.752205
30
0.0
40
0.300000
50
180.000000
51
270.000000
0
LINE
8
0
10
143.457320
20
103.452205
30
0.0
11
146.757320
21
103.452205
31
0.0
0
ARC
8
0
10
146.757320
20
104.152205
30
0.0
40
0.700000
50
270.000000
51
0.000000
0
LINE
8
0
10
147.457320
20
104.152205
30
0.0
11
147.457320
21
175.952205
31
0.0
0
ARC
8
0
10
146.957320
20
175.952205
30
0.0
40
0.500000
50
0.000000
51
90.000000
0
LINE
8
0
10
146.957320
20
176.452205
30
0.0
11
139.007320
21
176.452205
31
0.0
0
ARC
8
0
10
139.007320
20
176.752205
30
0.0
40
0.300000
50
180.000000
51
270.000000
0
LINE
8
0
10
138.707320
20
176.752205
30
0.0
11
138.707320
21
187.152205
31
0.0
0
ARC
8
0
10
138.407320
20
187.152205
30
0.0
40
0.300000
50
0.000000
51
90.000000
0
LINE
8
0
10
138.407320
20
187.452205
30
0.0
11
137.407320
21
187.452205
31
0.0
0
ARC
8
0
10
137.407320
20
187.152205
30
0.0
40
0.300000
50
90.000000
51
180.000000
0
LINE
8
0
10
137.107320
20
187.152205
30
0.0
11
137.107320
21
183.252205
31
0.0
0
ARC
8
0
10
136.807320
20
183.252205
30
0.0
40
0.300000
50
270.000000
51
0.000000
0
LINE
8
0
10
136.807320
20
182.952205
30
0.0
11
116.235005
21
182.952205
31
0.0
0
LINE
8
0
10
116.235005
20
182.952205
30
0.0
11
116.158541
21
182.942296
31
0.0
0
LINE
8
0
10
116.158541
20
182.942296
30
0.0
11
115.196338
21
182.688674
31
0.0
0
ARC
8
0
10
115.106617
20
182.974943
30
0.0
40
0.300000
50
209.632658
51
287.401721
0
ARC
8
0
10
114.672011
20
182.727725
30
0.0
40
0.200000
50
29.632658
51
90.000000
0
LINE
8
0
10
114.670608
20
182.927720
30
0.0
11
113.119514
21
182.927720
31
0.0
0
ARC
8
0
10
113.119514
20
182.627720
30
0.0
40
0.300000
50
90.000000
51
197.401721
0
LINE
8
0
10
112.833245
20
182.537999
30
0.0
11
113.435209
21
180.617330
31
0.0
0
ARC
8
0
10
114.198594
20
180.856586
30
0.0
40
0.800000
50
197.401721
51
242.401721
0
LINE
8
0
10
113.827979
20
180.147612
30
0.0
11
114.109049
21
180.000682
31
0.0
0
ARC
8
0
10
114.201703
20
180.177926
30
0.0
40
0.200000
50
242.401721
51
0.000000
0
LINE
8
0
10
114.401527
20
180.186307
30
0.0
11
114.389430
21
180.474729
31
0.0
0
LINE
8
0
10
114.389430
20
180.474729
30
0.0
11
116.097527
21
181.558792
31
0.0
0
ARC
8
0
10
116.419039
20
181.052205
30
0.0
40
0.600000
50
90.000000
51
122.401721
0
LINE
8
0
10
116.419039
20
181.652205
30
0.0
11
116.457320
21
181.652205
31
0.0
0
ARC
8
0
10
116.357320
20
181.369362
30
0.0
40
0.300000
50
289.471221
51
70.528779
0
LINE
8
0
10
116.457320
20
181.086519
30
0.0
11
116.457320
21
177.052205
31
0.0
0
ARC
8
0
10
116.157320
20
177.052205
30
0.0
40
0.300000
50
270.000000
51
0.000000
0
LINE
8
0
10
116.157320
20
176.752205
30
0.0
11
115.937705
21
176.752205
31
0.0
0
ARC
8
0
10
115.937705
20
177.052205
30
0.0
40
0.300000
50
240.000000
51
270.000000
0
LINE
8
0
10
115.787705
20
176.792397
30
0.0
11
114.257320
21
177.675965
31
0.0
0
ARC
8
0
10
114.157320
20
177.502760
30
0.0
40
0.200000
50
60.000000
51
180.000000
0
LINE
8
0
10
113.957320
20
177.502760
30
0.0
11
113.957320
21
176.348059
31
0.0
0
ARC
8
0
10
114.957320
20
176.348059
30
0.0
40
1.000000
50
180.000000
51
240.000000
0
LINE
8
0
10
114.457320
20
175.482034
30
0.0
11
115.957320
21
174.616009
31
0.0
0
ARC
8
0
10
115.457320
20
173.749983
30
0.0
40
1.000000
50
0.000000
51
60.000000
0
LINE
8
0
10
116.457320
20
173.749983
30
0.0
11
116.457320
21
149.654426
31
0.0
0
ARC
8
0
10
115.457320
20
149.654426
30
0.0
40
1.000000
50
300.000000
51
0.000000
0
LINE
8
0
10
115.957320
20
148.788401
30
0.0
11
114.457320
21
147.922375
31
0.0
0
ARC
8
0
10
114.957320
20
147.056350
30
0.0
40
1.000000
50
120.000000
51
180.000000
0
LINE
8
0
10
113.957320
20
147.056350
30
0.0
11
113.957320
21
145.901649
31
0.0
0
ARC
8
0
10
114.157320
20
145.901649
30
0.0
40
0.200000
50
180.000000
51
300.000000
0
LINE
8
0
10
114.257320
20
145.728444
30
0.0
11
115.787705
21
146.612012
31
0.0
0
ARC
8
0
10
115.937705
20
146.352205
30
0.0
40
0.300000
50
90.000000
51
120.000000
0
LINE
8
0
10
115.937705
20
146.652205
30
0.0
11
116.157320
21
146.652205
31
0.0
0
ARC
8
0
10
116.157320
20
146.352205
30
0.0
40
0.300000
50
0.000000
51
90.000000
0
LINE
8
0
10
116.457320
20
146.352205
30
0.0
11
116.457320
21
142.317890
31
0.0
0
ARC
8
0
10
116.357320
20
142.035047
30
0.0
40
0.300000
50
289.471221
51
70.528779
0
LINE
8
0
10
116.457320
20
141.752205
30
0.0
11
116.419039
21
141.752205
31
0.0
0
ARC
8
0
10
116.419039
20
142.352205
30
0.0
40
0.600000
50
237.598279
51
270.000000
0
LINE
8
0
10
116.097527
20
141.845618
30
0.0
11
114.389430
21
142.929681
31
0.0
0
LINE
8
0
10
114.389430
20
142.929681
30
0.0
11
114.401527
21
143.218102
31
0.0
0
ARC
8
0
10
114.201703
20
143.226483
30
0.0
40
0.200000
50
0.000000
51
117.598279
0
LINE
8
0
10
114.109049
20
143.403727
30
0.0
11
113.827979
21
143.256798
31
0.0
0
ARC
8
0
10
114.198594
20
142.547824
30
0.0
40
0.800000
50
117.598279
51
162.598279
0
LINE
8
0
10
113.435209
20
142.787079
30
0.0
11
112.833245
21
140.866410
31
0.0
0
ARC
8
0
10
113.119514
20
140.776690
30
0.0
40
0.300000
50
162.598279
51
270.000000
0
LINE
8
0
10
113.119514
20
140.476690
30
0.0
11
114.670608
21
140.476690
31
0.0
0
ARC
8
0
10
114.672011
20
140.676685
30
0.0
40
0.200000
50
270.000000
51
330.367342
0
ARC
8
0
10
115.106617
20
140.429466
30
0.0
40
0.300000
50
72.598279
51
150.367342
0
LINE
8
0
10
115.196338
20
140.715735
30
0.0
11
116.158541
21
140.462113
31
0.0
0
LINE
8
0
10
116.158541
20
140.462113
30
0.0
11
116.235005
21
140.452205
31
0.0
0
LINE
8
0
10
116.235005
20
140.452205
30
0.0
11
117.757320
21
140.452205
31
0.0
0
ARC
8
0
10
117.757320
20
140.752205
30
0.0
40
0.300000
50
270.000000
51
0.000000
0
LINE
8
0
10
118.057320
20
140.752205
30
0.0
11
118.057320
21
141.753315
31
0.0
0
ARC
8
0
10
118.357320
20
141.753315
30
0.0
40
0.300000
50
90.000000
51
180.000000
0
LINE
8
0
10
118.357320
20
142.053315
30
0.0
11
129.357320
21
142.053315
31
0.0
0
ARC
8
0
10
129.357320
20
141.753315
30
0.0
40
0.300000
50
0.000000
51
90.000000
0
LINE
8
0
10
129.657320
20
141.753315
30
0.0
11
129.657320
21
135.752205
31
0.0
0
ARC
8
0
10
129.957320
20
135.752205
30
0.0
40
0.300000
50
180.000000
51
270.000000
0
LINE
8
0
10
129.957320
20
135.452205
30
0.0
11
132.406765
21
135.452205
31
0.0
0
ARC
8
0
10
132.406765
20
135.752205
30
0.0
40
0.300000
50
270.000000
51
330.000000
0
LINE
8
0
10
132.666573
20
135.602205
30
0.0
11
133.117128
21
136.382589
31
0.0
0
ARC
8
0
10
132.857320
20
136.532589
30
0.0
40
0.300000
50
330.000000
51
0.000000
0
LINE
8
0
10
133.157320
20
136.532589
30
0.0
11
133.157320
21
136.652205
31
0.0
0
ARC
8
0
10
132.857320
20
136.652205
30
0.0
40
0.300000
50
0.000000
51
90.000000
0
LINE
8
0
10
132.857320
20
136.952205
30
0.0
11
131.457320
21
136.952205
31
0.0
0
ARC
8
0
10
131.457320
20
137.252205
30
0.0
40
0.300000
50
180.000000
51
270.000000
0
LINE
8
0
10
131.157320
20
137.252205
30
0.0
11
131.157320
21
141.753315
31
0.0
0
ARC
8
0
10
131.457320
20
141.753315
30
0.0
40
0.300000
50
90.000000
51
180.000000
0
LINE
8
0
10
131.457320
20
142.053315
30
0.0
11
138.157320
21
142.053315
31
0.0
0
LINE
8
0
10
138.157320
20
142.053315
30
0.0
11
138.457320
21
142.353315
31
0.0
0
ARC
8
0
10
88.187714
20
181.552205
30
0.0
40
1.000000
50
90.000000
51
145.000000
0
LINE
8
0
10
88.187714
20
182.552205
30
0.0
11
110.726795
21
182.552205
31
0.0
0
ARC
8
0
10
110.726795
20
181.552205
30
0.0
40
1.000000
50
35.000000
51
90.000000
0
LINE
8
0
10
111.545947
20
182.125781
30
0.0
11
112.883599
21
180.215416
31
0.0
0
ARC
8
0
10
113.293175
20
180.502205
30
0.0
40
0.500000
50
215.000000
51
270.000000
0
LINE
8
0
10
113.293175
20
180.002205
30
0.0
11
113.883153
21
180.002205
31
0.0
0
ARC
8
0
10
113.883153
20
181.002205
30
0.0
40
1.000000
50
270.000000
51
300.000000
0
LINE
8
0
10
114.383153
20
180.136179
30
0.0
11
115.726936
21
180.912012
31
0.0
0
ARC
8
0
10
115.876936
20
180.652205
30
0.0
40
0.300000
50
90.000000
51
120.000000
0
LINE
8
0
10
115.876936
20
180.952205
30
0.0
11
116.057320
21
180.952205
31
0.0
0
ARC
8
0
10
116.057320
20
180.552205
30
0.0
40
0.400000
50
0.000000
51
90.000000
0
LINE
8
0
10
116.457320
20
180.552205
30
0.0
11
116.457320
21
179.952205
31
0.0
0
LINE
8
0
10
116.457320
20
179.952205
30
0.0
11
116.357320
21
179.952205
31
0.0
0
LINE
8
0
10
116.357320
20
179.952205
30
0.0
11
116.357320
21
179.577205
31
0.0
0
ARC
8
0
10
116.157320
20
179.577205
30
0.0
40
0.200000
50
270.000000
51
0.000000
0
LINE
8
0
10
116.157320
20
179.377205
30
0.0
11
116.034238
21
179.377205
31
0.0
0
LINE
8
0
10
115.968854
20
179.392205
30
0.0
11
116.034238
21
179.377205
31
0.0
0
ARC
8
0
10
115.707320
20
178.852205
30
0.0
40
0.600000
50
64.158067
51
180.000000
0
ARC
8
0
10
115.707320
20
178.852205
30
0.0
40
0.600000
50
180.000000
51
295.841933
0
LINE
8
0
10
116.034238
20
178.327205
30
0.0
11
115.968854
21
178.312205
31
0.0
0
LINE
8
0
10
116.034238
20
178.327205
30
0.0
11
116.157320
21
178.327205
31
0.0
0
ARC
8
0
10
116.157320
20
178.127205
30
0.0
40
0.200000
50
0.000000
51
90.000000
0
LINE
8
0
10
116.357320
20
178.127205
30
0.0
11
116.357320
21
177.752205
31
0.0
0
LINE
8
0
10
116.357320
20
177.752205
30
0.0
11
116.457320
21
177.752205
31
0.0
0
LINE
8
0
10
116.457320
20
177.752205
30
0.0
11
116.457320
21
177.152205
31
0.0
0
ARC
8
0
10
116.057320
20
177.152205
30
0.0
40
0.400000
50
270.000000
51
0.000000
0
LINE
8
0
10
116.057320
20
176.752205
30
0.0
11
115.876936
21
176.752205
31
0.0
0
ARC
8
0
10
115.876936
20
177.052205
30
0.0
40
0.300000
50
240.000000
51
270.000000
0
LINE
8
0
10
115.726936
20
176.792397
30
0.0
11
114.383153
21
177.568230
31
0.0
0
ARC
8
0
10
113.883153
20
176.702205
30
0.0
40
1.000000
50
60.000000
51
90.000000
0
LINE
8
0
10
113.883153
20
177.702205
30
0.0
11
112.252040
21
177.702205
31
0.0
0
ARC
8
0
10
112.252040
20
178.502205
30
0.0
40
0.800000
50
215.000000
51
270.000000
0
LINE
8
0
10
111.596719
20
178.043343
30
0.0
11
110.297124
21
179.899358
31
0.0
0
ARC
8
0
10
108.658820
20
178.752205
30
0.0
40
2.000000
50
35.000000
51
90.000000
0
LINE
8
0
10
108.658820
20
180.752205
30
0.0
11
90.255689
21
180.752205
31
0.0
0
ARC
8
0
10
90.255689
20
178.752205
30
0.0
40
2.000000
50
90.000000
51
145.000000
0
LINE
8
0
10
88.617384
20
179.899358
30
0.0
11
87.317789
21
178.043343
31
0.0
0
ARC
8
0
10
86.662468
20
178.502205
30
0.0
40
0.800000
50
270.000000
51
325.000000
0
LINE
8
0
10
86.662468
20
177.702205
30
0.0
11
85.031355
21
177.702205
31
0.0
0
ARC
8
0
10
85.031355
20
176.702205
30
0.0
40
1.000000
50
90.000000
51
120.000000
0
LINE
8
0
10
84.531355
20
177.568230
30
0.0
11
83.187573
21
176.792397
31
0.0
0
ARC
8
0
10
83.037573
20
177.052205
30
0.0
40
0.300000
50
270.000000
51
300.000000
0
LINE
8
0
10
83.037573
20
176.752205
30
0.0
11
82.857188
21
176.752205
31
0.0
0
ARC
8
0
10
82.857188
20
177.152205
30
0.0
40
0.400000
50
180.000000
51
270.000000
0
LINE
8
0
10
82.457188
20
177.152205
30
0.0
11
82.457188
21
177.752205
31
0.0
0
LINE
8
0
10
82.457188
20
177.752205
30
0.0
11
82.557188
21
177.752205
31
0.0
0
LINE
8
0
10
82.557188
20
177.752205
30
0.0
11
82.557188
21
178.127205
31
0.0
0
ARC
8
0
10
82.757188
20
178.127205
30
0.0
40
0.200000
50
90.000000
51
180.000000
0
LINE
8
0
10
82.757188
20
178.327205
30
0.0
11
82.880271
21
178.327205
31
0.0
0
LINE
8
0
10
82.945654
20
178.312205
30
0.0
11
82.880271
21
178.327205
31
0.0
0
ARC
8
0
10
83.207188
20
178.852205
30
0.0
40
0.600000
50
244.158067
51
0.000000
0
ARC
8
0
10
83.207188
20
178.852205
30
0.0
40
0.600000
50
0.000000
51
115.841933
0
LINE
8
0
10
82.880271
20
179.377205
30
0.0
11
82.945654
21
179.392205
31
0.0
0
LINE
8
0
10
82.880271
20
179.377205
30
0.0
11
82.757188
21
179.377205
31
0.0
0
ARC
8
0
10
82.757188
20
179.577205
30
0.0
40
0.200000
50
180.000000
51
270.000000
0
LINE
8
0
10
82.557188
20
179.577205
30
0.0
11
82.557188
21
179.952205
31
0.0
0
LINE
8
0
10
82.557188
20
179.952205
30
0.0
11
82.457188
21
179.952205
31
0.0
0
LINE
8
0
10
82.457188
20
179.952205
30
0.0
11
82.457188
21
180.552205
31
0.0
0
ARC
8
0
10
82.857188
20
180.552205
30
0.0
40
0.400000
50
90.000000
51
180.000000
0
LINE
8
0
10
82.857188
20
180.952205
30
0.0
11
83.037573
21
180.952205
31
0.0
0
ARC
8
0
10
83.037573
20
180.652205
30
0.0
40
0.300000
50
60.000000
51
90.000000
0
LINE
8
0
10
83.187573
20
180.912012
30
0.0
11
84.531355
21
180.136179
31
0.0
0
ARC
8
0
10
85.031355
20
181.002205
30
0.0
40
1.000000
50
240.000000
51
270.000000
0
LINE
8
0
10
85.031355
20
180.002205
30
0.0
11
85.621334
21
180.002205
31
0.0
0
ARC
8
0
10
85.621334
20
180.502205
30
0.0
40
0.500000
50
270.000000
51
325.000000
0
LINE
8
0
10
86.030910
20
180.215416
30
0.0
11
87.368561
21
182.125781
31
0.0
0
ARC
8
0
10
88.187714
20
141.817234
30
0.0
40
1.000000
50
215.000000
51
270.000000
0
LINE
8
0
10
88.187714
20
140.817234
30
0.0
11
110.726795
21
140.817234
31
0.0
0
ARC
8
0
10
110.726795
20
141.817234
30
0.0
40
1.000000
50
270.000000
51
325.000000
0
LINE
8
0
10
111.545947
20
141.243657
30
0.0
11
112.883599
21
143.154022
31
0.0
0
ARC
8
0
10
113.293175
20
142.867234
30
0.0
40
0.500000
50
90.000000
51
145.000000
0
LINE
8
0
10
113.293175
20
143.367234
30
0.0
11
113.883153
21
143.367234
31
0.0
0
ARC
8
0
10
113.883153
20
142.367234
30
0.0
40
1.000000
50
60.000000
51
90.000000
0
LINE
8
0
10
114.383153
20
143.233259
30
0.0
11
115.726936
21
142.457426
31
0.0
0
ARC
8
0
10
115.876936
20
142.717234
30
0.0
40
0.300000
50
240.000000
51
270.000000
0
LINE
8
0
10
115.876936
20
142.417234
30
0.0
11
116.057320
21
142.417234
31
0.0
0
ARC
8
0
10
116.057320
20
142.817234
30
0.0
40
0.400000
50
270.000000
51
0.000000
0
LINE
8
0
10
116.457320
20
142.817234
30
0.0
11
116.457320
21
143.417234
31
0.0
0
LINE
8
0
10
116.457320
20
143.417234
30
0.0
11
116.357320
21
143.417234
31
0.0
0
LINE
8
0
10
116.357320
20
143.417234
30
0.0
11
116.357320
21
143.792234
31
0.0
0
ARC
8
0
10
116.157320
20
143.792234
30
0.0
40
0.200000
50
0.000000
51
90.000000
0
LINE
8
0
10
116.157320
20
143.992234
30
0.0
11
116.034238
21
143.992234
31
0.0
0
LINE
8
0
10
116.034238
20
143.992234
30
0.0
11
115.968854
21
143.977234
31
0.0
0
ARC
8
0
10
115.707320
20
144.517234
30
0.0
40
0.600000
50
180.000000
51
295.841933
0
ARC
8
0
10
115.707320
20
144.517234
30
0.0
40
0.600000
50
64.158067
51
180.000000
0
LINE
8
0
10
115.968854
20
145.057234
30
0.0
11
116.034238
21
145.042234
31
0.0
0
LINE
8
0
10
116.034238
20
145.042234
30
0.0
11
116.157320
21
145.042234
31
0.0
0
ARC
8
0
10
116.157320
20
145.242234
30
0.0
40
0.200000
50
270.000000
51
0.000000
0
LINE
8
0
10
116.357320
20
145.242234
30
0.0
11
116.357320
21
145.617234
31
0.0
0
LINE
8
0
10
116.357320
20
145.617234
30
0.0
11
116.457320
21
145.617234
31
0.0
0
LINE
8
0
10
116.457320
20
145.617234
30
0.0
11
116.457320
21
146.217234
31
0.0
0
ARC
8
0
10
116.057320
20
146.217234
30
0.0
40
0.400000
50
0.000000
51
90.000000
0
LINE
8
0
10
116.057320
20
146.617234
30
0.0
11
115.876936
21
146.617234
31
0.0
0
ARC
8
0
10
115.876936
20
146.317234
30
0.0
40
0.300000
50
90.000000
51
120.000000
0
LINE
8
0
10
115.726936
20
146.577041
30
0.0
11
114.383153
21
145.801208
31
0.0
0
ARC
8
0
10
113.883153
20
146.667234
30
0.0
40
1.000000
50
270.000000
51
300.000000
0
LINE
8
0
10
113.883153
20
145.667234
30
0.0
11
112.252040
21
145.667234
31
0.0
0
ARC
8
0
10
112.252040
20
144.867234
30
0.0
40
0.800000
50
90.000000
51
145.000000
0
LINE
8
0
10
111.596719
20
145.326095
30
0.0
11
110.297124
21
143.470081
31
0.0
0
ARC
8
0
10
108.658820
20
144.617234
30
0.0
40
2.000000
50
270.000000
51
325.000000
0
LINE
8
0
10
108.658820
20
142.617234
30
0.0
11
90.255689
21
142.617234
31
0.0
0
ARC
8
0
10
90.255689
20
144.617234
30
0.0
40
2.000000
50
215.000000
51
270.000000
0
LINE
8
0
10
88.617384
20
143.470081
30
0.0
11
87.317789
21
145.326095
31
0.0
0
ARC
8
0
10
86.662468
20
144.867234
30
0.0
40
0.800000
50
35.000000
51
90.000000
0
LINE
8
0
10
86.662468
20
145.667234
30
0.0
11
85.031355
21
145.667234
31
0.0
0
ARC
8
0
10
85.031355
20
146.667234
30
0.0
40
1.000000
50
240.000000
51
270.000000
0
LINE
8
0
10
84.531355
20
145.801208
30
0.0
11
83.187573
21
146.577041
31
0.0
0
ARC
8
0
10
83.037573
20
146.317234
30
0.0
40
0.300000
50
60.000000
51
90.000000
0
LINE
8
0
10
83.037573
20
146.617234
30
0.0
11
82.857188
21
146.617234
31
0.0
0
ARC
8
0
10
82.857188
20
146.217234
30
0.0
40
0.400000
50
90.000000
51
180.000000
0
LINE
8
0
10
82.457188
20
146.217234
30
0.0
11
82.457188
21
145.617234
31
0.0
0
LINE
8
0
10
82.457188
20
145.617234
30
0.0
11
82.557188
21
145.617234
31
0.0
0
LINE
8
0
10
82.557188
20
145.617234
30
0.0
11
82.557188
21
145.242234
31
0.0
0
ARC
8
0
10
82.757188
20
145.242234
30
0.0
40
0.200000
50
180.000000
51
270.000000
0
LINE
8
0
10
82.757188
20
145.042234
30
0.0
11
82.880271
21
145.042234
31
0.0
0
LINE
8
0
10
82.880271
20
145.042234
30
0.0
11
82.945654
21
145.057234
31
0.0
0
ARC
8
0
10
83.207188
20
144.517234
30
0.0
40
0.600000
50
0.000000
51
115.841933
0
ARC
8
0
10
83.207188
20
144.517234
30
0.0
40
0.600000
50
244.158067
51
0.000000
0
LINE
8
0
10
82.945654
20
143.977234
30
0.0
11
82.880271
21
143.992234
31
0.0
0
LINE
8
0
10
82.880271
20
143.992234
30
0.0
11
82.757188
21
143.992234
31
0.0
0
ARC
8
0
10
82.757188
20
143.792234
30
0.0
40
0.200000
50
90.000000
51
180.000000
0
LINE
8
0
10
82.557188
20
143.792234
30
0.0
11
82.557188
21
143.417234
31
0.0
0
LINE
8
0
10
82.557188
20
143.417234
30
0.0
11
82.457188
21
143.417234
31
0.0
0
LINE
8
0
10
82.457188
20
143.417234
30
0.0
11
82.457188
21
142.817234
31
0.0
0
ARC
8
0
10
82.857188
20
142.817234
30
0.0
40
0.400000
50
180.000000
51
270.000000
0
LINE
8
0
10
82.857188
20
142.417234
30
0.0
11
83.037573
21
142.417234
31
0.0
0
ARC
8
0
10
83.037573
20
142.717234
30
0.0
40
0.300000
50
270.000000
51
300.000000
0
LINE
8
0
10
83.187573
20
142.457426
30
0.0
11
84.531355
21
143.233259
31
0.0
0
ARC
8
0
10
85.031355
20
142.367234
30
0.0
40
1.000000
50
90.000000
51
120.000000
0
LINE
8
0
10
85.031355
20
143.367234
30
0.0
11
85.621334
21
143.367234
31
0.0
0
ARC
8
0
10
85.621334
20
142.867234
30
0.0
40
0.500000
50
35.000000
51
90.000000
0
LINE
8
0
10
86.030910
20
143.154022
30
0.0
11
87.368561
21
141.243657
31
0.0
0
ATTDEF
8
0
10
70.457063
20
103.452205
30
0.0
40
3.5
1

3

2
JY:0.000000
70
0
0
ATTDEF
8
0
10
70.457063
20
103.452205
30
0.0
40
3.5
1

3

2
WY:0.000000
70
0
0
ATTDEF
8
0
10
116.235005
20
182.952205
30
0.0
40
3.5
1

3

2
VC_START
70
0
0
ATTDEF
8
0
10
131.182043
20
135.452205
30
0.0
40
3.5
1

3

2
VC_END
70
0
0
ATTDEF
8
0
10
70.457063
20
103.452205
30
0.0
40
3.5
1

3

2
DESC:Telaio Z per porta apertura interna
70
0
0
ATTDEF
8
0
10
70.457063
20
103.452205
30
0.0
40
3.5
1

3

2
DENS:1.880000
70
0
0
ATTDEF
8
0
10
70.457063
20
103.452205
30
0.0
40
3.5
1

3

2
TDEV:0.000000
70
0
0
ATTDEF
8
0
10
70.457063
20
103.452205
30
0.0
40
3.5
1

3

2
TDEV2:0.000000
70
0
0
ATTDEF
8
0
10
70.457063
20
103.452205
30
0.0
40
3.5
1

3

2
TDEV3:0.000000
70
0
0
ATTDEF
8
0
10
70.457063
20
103.452205
30
0.0
40
3.5
1

3

2
TDEV4:0.000000
70
0
0
ATTDEF
8
0
10
70.457063
20
103.452205
30
0.0
40
3.5
1

3

2
TDEV5:0.000000
70
0
0
ATTDEF
8
0
10
70.457063
20
103.452205
30
0.0
40
3.5
1

3

2
FRONT_VIEW
70
0
0
ATTDEF
8
0
10
70.457063
20
103.452205
30
0.0
40
3.5
1

3

2
BL01:6800.000000,,1
70
0
0
ATTDEF
8
0
10
70.457063
20
103.452205
30
0.0
40
3.5
1

3

2
OPTI:500.000000,1,0,3000.000000,6500.000000,500.000000,0,0.000000,0
70
0
0
ATTDEF
8
0
10
70.457063
20
103.452205
30
0.0
40
3.5
1

3

2
PANE_WIDTH:0.000000
70
0
0
ATTDEF
8
0
10
70.457063
20
103.452205
30
0.0
40
3.5
1

3

2
GLASS_MIN:0.000000
70
0
0
ATTDEF
8
0
10
70.457063
20
103.452205
30
0.0
40
3.5
1

3

2
GLASS_MAX:0.000000
70
0
0
ATTDEF
8
0
10
70.457063
20
103.452205
30
0.0
40
3.5
1

3

2
JX:0.000000
70
0
0
ATTDEF
8
0
10
70.457063
20
103.452205
30
0.0
40
3.5
1

3

2
WX:0.000000
70
0
0
ATTDEF
8
0
10
70.457063
20
103.452205
30
0.0
40
3.5
1

3

2
JY:0.000000
70
0
0
ATTDEF
8
0
10
70.457063
20
103.452205
30
0.0
40
3.5
1

3

2
WY:0.000000
70
0
0
ATTDEF
8
0
10
70.457063
20
103.452205
30
0.0
40
3.5
1

3

2
FP_LCS_ORIG
70
0
0
ATTDEF
8
0
10
80.457063
20
103.452205
30
0.0
40
3.5
1

3

2
FP_LCS_HOT
70
0
0
ATTDEF
8
0
10
70.457063
20
113.452205
30
0.0
40
3.5
1

3

2
FP_LCS_INTERN
70
0
0
ENDSEC
0
EOF
