0
SECTION
2
ENTITIES
0
LINE
8
0
10
86.265723
20
116.393936
30
0.0
11
86.265723
21
128.519549
31
0.0
0
ARC
8
0
10
85.965723
20
128.519549
30
0.0
40
0.300000
50
360.000000
51
75.000000
0
LINE
8
0
10
86.043369
20
128.809327
30
0.0
11
83.988077
21
129.360041
31
0.0
0
ARC
8
0
10
84.065723
20
129.649819
30
0.0
40
0.300000
50
180.000000
51
255.000000
0
LINE
8
0
10
83.765723
20
129.649819
30
0.0
11
83.765723
21
130.292826
31
0.0
0
ARC
8
0
10
84.065723
20
130.292826
30
0.0
40
0.300000
50
90.000000
51
180.000000
0
LINE
8
0
10
84.065723
20
130.592826
30
0.0
11
85.965723
21
130.592826
31
0.0
0
ARC
8
0
10
85.965723
20
130.892826
30
0.0
40
0.300000
50
270.000000
51
360.000000
0
LINE
8
0
10
86.265723
20
130.892826
30
0.0
11
86.265723
21
161.092826
31
0.0
0
ARC
8
0
10
85.965723
20
161.092826
30
0.0
40
0.300000
50
360.000000
51
90.000000
0
LINE
8
0
10
85.965723
20
161.392826
30
0.0
11
54.465723
21
161.392826
31
0.0
0
ARC
8
0
10
54.465723
20
161.092826
30
0.0
40
0.300000
50
90.000000
51
180.000000
0
LINE
8
0
10
54.165723
20
161.092826
30
0.0
11
54.165723
21
130.892826
31
0.0
0
ARC
8
0
10
54.465723
20
130.892826
30
0.0
40
0.300000
50
180.000000
51
270.000000
0
LINE
8
0
10
54.465723
20
130.592826
30
0.0
11
56.365723
21
130.592826
31
0.0
0
ARC
8
0
10
56.365723
20
130.292826
30
0.0
40
0.300000
50
360.000000
51
90.000000
0
LINE
8
0
10
56.665723
20
130.292826
30
0.0
11
56.665723
21
129.596229
31
0.0
0
ARC
8
0
10
56.365723
20
129.596229
30
0.0
40
0.300000
50
285.000000
51
360.000000
0
LINE
8
0
10
56.443369
20
129.306451
30
0.0
11
54.388077
21
128.755737
31
0.0
0
ARC
8
0
10
54.465723
20
128.465960
30
0.0
40
0.300000
50
105.000000
51
180.000000
0
LINE
8
0
10
54.165723
20
128.465960
30
0.0
11
54.165723
21
122.995047
31
0.0
0
ARC
8
0
10
54.465723
20
122.995047
30
0.0
40
0.300000
50
180.000000
51
270.000000
0
LINE
8
0
10
54.465723
20
122.695047
30
0.0
11
58.170383
21
122.695047
31
0.0
0
ARC
8
0
10
58.170383
20
121.995047
30
0.0
40
0.700000
50
360.000000
51
90.000000
0
LINE
8
0
10
58.870383
20
121.995047
30
0.0
11
58.870383
21
116.393936
31
0.0
0
ARC
8
0
10
59.170383
20
116.393936
30
0.0
40
0.300000
50
180.000000
51
270.000000
0
LINE
8
0
10
59.170383
20
116.093936
30
0.0
11
85.965723
21
116.093936
31
0.0
0
ARC
8
0
10
85.965723
20
116.393936
30
0.0
40
0.300000
50
270.000000
51
360.000000
0
ARC
8
0
10
83.865723
20
96.093936
30
0.0
40
0.300000
50
180.000000
51
270.000000
0
LINE
8
0
10
83.565723
20
96.093936
30
0.0
11
83.565723
21
97.593936
31
0.0
0
ARC
8
0
10
84.265723
20
97.593936
30
0.0
40
0.700000
50
90.000000
51
180.000000
0
ARC
8
0
10
84.265723
20
97.993936
30
0.0
40
0.300000
50
360.000000
51
90.000000
0
LINE
8
0
10
84.565723
20
97.993936
30
0.0
11
84.565723
21
97.293936
31
0.0
0
ARC
8
0
10
84.865723
20
97.293936
30
0.0
40
0.300000
50
180.000000
51
270.000000
0
LINE
8
0
10
84.865723
20
96.993936
30
0.0
11
86.065723
21
96.993936
31
0.0
0
ARC
8
0
10
86.065723
20
97.693936
30
0.0
40
0.700000
50
270.000000
51
360.000000
0
LINE
8
0
10
86.765723
20
97.693936
30
0.0
11
86.765723
21
103.893936
31
0.0
0
ARC
8
0
10
86.065723
20
103.893936
30
0.0
40
0.700000
50
360.000000
51
90.000000
0
LINE
8
0
10
86.065723
20
104.593936
30
0.0
11
84.865723
21
104.593936
31
0.0
0
ARC
8
0
10
84.865723
20
104.293936
30
0.0
40
0.300000
50
90.000000
51
180.000000
0
LINE
8
0
10
84.565723
20
104.293936
30
0.0
11
84.565723
21
103.593936
31
0.0
0
ARC
8
0
10
84.265723
20
103.593936
30
0.0
40
0.300000
50
270.000000
51
360.000000
0
ARC
8
0
10
84.265723
20
103.993936
30
0.0
40
0.700000
50
180.000000
51
270.000000
0
LINE
8
0
10
83.565723
20
103.993936
30
0.0
11
83.565723
21
105.493936
31
0.0
0
ARC
8
0
10
83.865723
20
105.493936
30
0.0
40
0.300000
50
90.000000
51
180.000000
0
LINE
8
0
10
83.865723
20
105.793936
30
0.0
11
85.965723
21
105.793936
31
0.0
0
ARC
8
0
10
85.965723
20
106.093936
30
0.0
40
0.300000
50
270.000000
51
360.000000
0
LINE
8
0
10
86.265723
20
106.093936
30
0.0
11
86.265723
21
113.293936
31
0.0
0
ARC
8
0
10
85.265723
20
113.293936
30
0.0
40
1.000000
50
360.000000
51
90.000000
0
LINE
8
0
10
85.265723
20
114.293936
30
0.0
11
56.843408
21
114.293936
31
0.0
0
LINE
8
0
10
56.766944
20
114.303844
30
0.0
11
56.843408
21
114.293936
31
0.0
0
LINE
8
0
10
56.766944
20
114.303844
30
0.0
11
55.804741
21
114.557467
31
0.0
0
ARC
8
0
10
55.715020
20
114.271198
30
0.0
40
0.300000
50
72.598279
51
150.367342
0
ARC
8
0
10
55.280413
20
114.518416
30
0.0
40
0.200000
50
270.000000
51
330.367342
0
LINE
8
0
10
55.279011
20
114.318421
30
0.0
11
53.727917
21
114.318421
31
0.0
0
ARC
8
0
10
53.727917
20
114.618421
30
0.0
40
0.300000
50
162.598279
51
270.000000
0
LINE
8
0
10
53.441647
20
114.708142
30
0.0
11
54.043612
21
116.628811
31
0.0
0
ARC
8
0
10
54.806997
20
116.389555
30
0.0
40
0.800000
50
117.598279
51
162.598279
0
LINE
8
0
10
54.436381
20
117.098529
30
0.0
11
54.717452
21
117.245459
31
0.0
0
ARC
8
0
10
54.810106
20
117.068215
30
0.0
40
0.200000
50
360.000000
51
117.598279
0
LINE
8
0
10
55.009930
20
117.059834
30
0.0
11
54.997833
21
116.771412
31
0.0
0
LINE
8
0
10
54.997833
20
116.771412
30
0.0
11
56.705930
21
115.687349
31
0.0
0
ARC
8
0
10
57.027441
20
116.193936
30
0.0
40
0.600000
50
237.598279
51
270.000000
0
LINE
8
0
10
57.027441
20
115.593936
30
0.0
11
57.065723
21
115.593936
31
0.0
0
ARC
8
0
10
56.965723
20
115.876779
30
0.0
40
0.300000
50
289.471221
51
70.528779
0
LINE
8
0
10
57.065723
20
116.159622
30
0.0
11
57.065723
21
120.093936
31
0.0
0
LINE
8
0
10
57.065723
20
120.093936
30
0.0
11
57.065723
21
120.193936
31
0.0
0
ARC
8
0
10
56.765723
20
120.193936
30
0.0
40
0.300000
50
360.000000
51
90.000000
0
LINE
8
0
10
56.765723
20
120.493936
30
0.0
11
56.465723
21
120.493936
31
0.0
0
LINE
8
0
10
56.465723
20
120.493936
30
0.0
11
54.865723
21
119.570176
31
0.0
0
ARC
8
0
10
54.765723
20
119.743381
30
0.0
40
0.200000
50
220.000000
51
300.000000
0
LINE
8
0
10
54.612514
20
119.614823
30
0.0
11
52.635910
21
121.970449
31
0.0
0
ARC
8
0
10
52.865723
20
122.163285
30
0.0
40
0.300000
50
180.000000
51
220.000000
0
LINE
8
0
10
52.565723
20
122.163285
30
0.0
11
52.565723
21
161.924587
31
0.0
0
ARC
8
0
10
52.865723
20
161.924587
30
0.0
40
0.300000
50
140.000000
51
180.000000
0
LINE
8
0
10
52.635910
20
162.117424
30
0.0
11
54.612514
21
164.473049
31
0.0
0
ARC
8
0
10
54.765723
20
164.344492
30
0.0
40
0.200000
50
60.000000
51
140.000000
0
LINE
8
0
10
54.865723
20
164.517697
30
0.0
11
56.465723
21
163.593936
31
0.0
0
LINE
8
0
10
56.465723
20
163.593936
30
0.0
11
56.765723
21
163.593936
31
0.0
0
ARC
8
0
10
56.765723
20
163.893936
30
0.0
40
0.300000
50
270.000000
51
360.000000
0
LINE
8
0
10
57.065723
20
163.893936
30
0.0
11
57.065723
21
167.928251
31
0.0
0
ARC
8
0
10
56.965723
20
168.211094
30
0.0
40
0.300000
50
289.471221
51
70.528779
0
LINE
8
0
10
57.065723
20
168.493936
30
0.0
11
57.027441
21
168.493936
31
0.0
0
ARC
8
0
10
57.027441
20
167.893936
30
0.0
40
0.600000
50
90.000000
51
122.401721
0
LINE
8
0
10
56.705930
20
168.400523
30
0.0
11
54.997833
21
167.316460
31
0.0
0
LINE
8
0
10
54.997833
20
167.316460
30
0.0
11
55.009930
21
167.028039
31
0.0
0
ARC
8
0
10
54.810106
20
167.019657
30
0.0
40
0.200000
50
242.401721
51
360.000000
0
LINE
8
0
10
54.717452
20
166.842414
30
0.0
11
54.436381
21
166.989343
31
0.0
0
ARC
8
0
10
54.806997
20
167.698317
30
0.0
40
0.800000
50
197.401721
51
242.401721
0
LINE
8
0
10
54.043612
20
167.459062
30
0.0
11
53.441647
21
169.379730
31
0.0
0
ARC
8
0
10
53.727917
20
169.469451
30
0.0
40
0.300000
50
90.000000
51
197.401721
0
LINE
8
0
10
53.727917
20
169.769451
30
0.0
11
55.279011
21
169.769451
31
0.0
0
ARC
8
0
10
55.280413
20
169.569456
30
0.0
40
0.200000
50
29.632658
51
90.000000
0
ARC
8
0
10
55.715020
20
169.816675
30
0.0
40
0.300000
50
209.632658
51
287.401721
0
LINE
8
0
10
55.804741
20
169.530405
30
0.0
11
56.766944
21
169.784028
31
0.0
0
LINE
8
0
10
56.843408
20
169.793936
30
0.0
11
56.766944
21
169.784028
31
0.0
0
LINE
8
0
10
56.843408
20
169.793936
30
0.0
11
58.470383
21
169.793936
31
0.0
0
ARC
8
0
10
58.470383
20
169.493936
30
0.0
40
0.300000
50
360.000000
51
90.000000
0
LINE
8
0
10
58.770383
20
169.493936
30
0.0
11
58.770383
21
163.492826
31
0.0
0
ARC
8
0
10
59.070383
20
163.492826
30
0.0
40
0.300000
50
180.000000
51
270.000000
0
LINE
8
0
10
59.070383
20
163.192826
30
0.0
11
69.965723
21
163.192826
31
0.0
0
ARC
8
0
10
69.965723
20
163.492826
30
0.0
40
0.300000
50
270.000000
51
360.000000
0
LINE
8
0
10
70.265723
20
163.492826
30
0.0
11
70.265723
21
169.493936
31
0.0
0
ARC
8
0
10
70.565723
20
169.493936
30
0.0
40
0.300000
50
90.000000
51
180.000000
0
LINE
8
0
10
70.565723
20
169.793936
30
0.0
11
73.015168
21
169.793936
31
0.0
0
ARC
8
0
10
73.015168
20
169.493936
30
0.0
40
0.300000
50
30.000000
51
90.000000
0
LINE
8
0
10
73.274975
20
169.643936
30
0.0
11
73.725530
21
168.863551
31
0.0
0
ARC
8
0
10
73.465723
20
168.713551
30
0.0
40
0.300000
50
360.000000
51
30.000000
0
LINE
8
0
10
73.765723
20
168.713551
30
0.0
11
73.765723
21
168.593936
31
0.0
0
ARC
8
0
10
73.465723
20
168.593936
30
0.0
40
0.300000
50
270.000000
51
360.000000
0
LINE
8
0
10
73.465723
20
168.293936
30
0.0
11
72.065723
21
168.293936
31
0.0
0
ARC
8
0
10
72.065723
20
167.993936
30
0.0
40
0.300000
50
90.000000
51
180.000000
0
LINE
8
0
10
71.765723
20
167.993936
30
0.0
11
71.765723
21
163.492826
31
0.0
0
ARC
8
0
10
72.065723
20
163.492826
30
0.0
40
0.300000
50
180.000000
51
270.000000
0
LINE
8
0
10
72.065723
20
163.192826
30
0.0
11
73.265723
21
163.192826
31
0.0
0
ARC
8
0
10
73.265723
20
163.492826
30
0.0
40
0.300000
50
270.000000
51
360.000000
0
LINE
8
0
10
73.565723
20
163.492826
30
0.0
11
73.565723
21
164.494336
31
0.0
0
ARC
8
0
10
73.865723
20
164.494336
30
0.0
40
0.300000
50
90.000000
51
180.000000
0
LINE
8
0
10
73.865723
20
164.794336
30
0.0
11
75.265723
21
164.794336
31
0.0
0
ARC
8
0
10
75.265723
20
164.494336
30
0.0
40
0.300000
50
360.000000
51
90.000000
0
LINE
8
0
10
75.565723
20
164.494336
30
0.0
11
75.565723
21
163.492826
31
0.0
0
ARC
8
0
10
75.865723
20
163.492826
30
0.0
40
0.300000
50
180.000000
51
270.000000
0
LINE
8
0
10
75.865723
20
163.192826
30
0.0
11
82.165723
21
163.192826
31
0.0
0
ARC
8
0
10
82.165723
20
163.492826
30
0.0
40
0.300000
50
270.000000
51
360.000000
0
LINE
8
0
10
82.465723
20
163.492826
30
0.0
11
82.465723
21
164.494336
31
0.0
0
ARC
8
0
10
82.765723
20
164.494336
30
0.0
40
0.300000
50
90.000000
51
180.000000
0
LINE
8
0
10
82.765723
20
164.794336
30
0.0
11
84.165723
21
164.794336
31
0.0
0
ARC
8
0
10
84.165723
20
164.494336
30
0.0
40
0.300000
50
360.000000
51
90.000000
0
LINE
8
0
10
84.465723
20
164.494336
30
0.0
11
84.465723
21
163.492826
31
0.0
0
ARC
8
0
10
84.765723
20
163.492826
30
0.0
40
0.300000
50
180.000000
51
270.000000
0
LINE
8
0
10
84.765723
20
163.192826
30
0.0
11
85.965723
21
163.192826
31
0.0
0
ARC
8
0
10
85.965723
20
163.492826
30
0.0
40
0.300000
50
270.000000
51
360.000000
0
LINE
8
0
10
86.265723
20
163.492826
30
0.0
11
86.265723
21
167.993936
31
0.0
0
ARC
8
0
10
85.965723
20
167.993936
30
0.0
40
0.300000
50
360.000000
51
90.000000
0
LINE
8
0
10
85.965723
20
168.293936
30
0.0
11
84.065723
21
168.293936
31
0.0
0
ARC
8
0
10
84.065723
20
168.593936
30
0.0
40
0.300000
50
180.000000
51
270.000000
0
LINE
8
0
10
83.765723
20
168.593936
30
0.0
11
83.765723
21
168.713551
31
0.0
0
ARC
8
0
10
84.065723
20
168.713551
30
0.0
40
0.300000
50
150.000000
51
180.000000
0
LINE
8
0
10
83.805915
20
168.863551
30
0.0
11
84.256471
21
169.643936
31
0.0
0
ARC
8
0
10
84.516278
20
169.493936
30
0.0
40
0.300000
50
90.000000
51
150.000000
0
LINE
8
0
10
84.516278
20
169.793936
30
0.0
11
87.765723
21
169.793936
31
0.0
0
ARC
8
0
10
87.765723
20
169.493936
30
0.0
40
0.300000
50
360.000000
51
90.000000
0
LINE
8
0
10
88.065723
20
169.493936
30
0.0
11
88.065723
21
96.293936
31
0.0
0
ARC
8
0
10
87.565723
20
96.293936
30
0.0
40
0.500000
50
270.000000
51
360.000000
0
LINE
8
0
10
87.565723
20
95.793936
30
0.0
11
83.865723
21
95.793936
31
0.0
0
LINE
8
0
10
21.165465
20
165.093936
30
0.0
11
13.165465
21
165.093936
31
0.0
0
ARC
8
0
10
13.165465
20
164.793936
30
0.0
40
0.300000
50
90.000000
51
180.000000
0
LINE
8
0
10
12.865465
20
164.793936
30
0.0
11
12.865465
21
122.793936
31
0.0
0
ARC
8
0
10
13.165465
20
122.793936
30
0.0
40
0.300000
50
180.000000
51
270.000000
0
LINE
8
0
10
13.165465
20
122.493936
30
0.0
11
21.165465
21
122.493936
31
0.0
0
ARC
8
0
10
21.165465
20
122.793936
30
0.0
40
0.300000
50
270.000000
51
360.000000
0
LINE
8
0
10
21.465465
20
122.793936
30
0.0
11
21.465465
21
164.793936
31
0.0
0
ARC
8
0
10
21.165465
20
164.793936
30
0.0
40
0.300000
50
360.000000
51
90.000000
0
LINE
8
0
10
25.261342
20
119.522623
30
0.0
11
23.740354
21
120.450074
31
0.0
0
ARC
8
0
10
23.584170
20
120.193936
30
0.0
40
0.300000
50
58.626462
51
90.000000
0
LINE
8
0
10
23.584170
20
120.493936
30
0.0
11
23.365465
21
120.493936
31
0.0
0
ARC
8
0
10
23.365465
20
120.193936
30
0.0
40
0.300000
50
90.000000
51
180.000000
0
LINE
8
0
10
23.065465
20
120.193936
30
0.0
11
23.065465
21
116.159622
31
0.0
0
ARC
8
0
10
23.165465
20
115.876779
30
0.0
40
0.300000
50
109.471221
51
250.528779
0
LINE
8
0
10
23.065465
20
115.593936
30
0.0
11
23.103747
21
115.593936
31
0.0
0
ARC
8
0
10
23.103747
20
116.193936
30
0.0
40
0.600000
50
270.000000
51
302.401721
0
LINE
8
0
10
23.425258
20
115.687349
30
0.0
11
25.133355
21
116.771412
31
0.0
0
LINE
8
0
10
25.133355
20
116.771412
30
0.0
11
25.121258
21
117.059834
31
0.0
0
ARC
8
0
10
25.321082
20
117.068215
30
0.0
40
0.200000
50
62.401721
51
180.000000
0
LINE
8
0
10
25.413736
20
117.245459
30
0.0
11
25.694807
21
117.098529
31
0.0
0
ARC
8
0
10
25.324191
20
116.389555
30
0.0
40
0.800000
50
17.401721
51
62.401721
0
LINE
8
0
10
26.087576
20
116.628811
30
0.0
11
26.689540
21
114.708142
31
0.0
0
ARC
8
0
10
26.403271
20
114.618421
30
0.0
40
0.300000
50
270.000000
51
17.401721
0
LINE
8
0
10
26.403271
20
114.318421
30
0.0
11
24.852177
21
114.318421
31
0.0
0
ARC
8
0
10
24.850775
20
114.518416
30
0.0
40
0.200000
50
209.632658
51
270.000000
0
ARC
8
0
10
24.416168
20
114.271198
30
0.0
40
0.300000
50
29.632658
51
107.401721
0
LINE
8
0
10
24.326447
20
114.557467
30
0.0
11
23.364244
21
114.303844
31
0.0
0
LINE
8
0
10
23.287780
20
114.293936
30
0.0
11
23.364244
21
114.303844
31
0.0
0
LINE
8
0
10
23.287780
20
114.293936
30
0.0
11
21.715465
21
114.293936
31
0.0
0
ARC
8
0
10
21.715465
20
113.993936
30
0.0
40
0.300000
50
90.000000
51
180.000000
0
LINE
8
0
10
21.415465
20
113.993936
30
0.0
11
21.415465
21
110.093936
31
0.0
0
ARC
8
0
10
21.115465
20
110.093936
30
0.0
40
0.300000
50
270.000000
51
360.000000
0
LINE
8
0
10
21.115465
20
109.793936
30
0.0
11
20.115465
21
109.793936
31
0.0
0
ARC
8
0
10
20.115465
20
110.093936
30
0.0
40
0.300000
50
180.000000
51
270.000000
0
LINE
8
0
10
19.815465
20
110.093936
30
0.0
11
19.815465
21
120.493936
31
0.0
0
ARC
8
0
10
19.515465
20
120.493936
30
0.0
40
0.300000
50
360.000000
51
90.000000
0
LINE
8
0
10
19.515465
20
120.793936
30
0.0
11
11.565465
21
120.793936
31
0.0
0
ARC
8
0
10
11.565465
20
121.293936
30
0.0
40
0.500000
50
180.000000
51
270.000000
0
LINE
8
0
10
11.065465
20
121.293936
30
0.0
11
11.065465
21
191.493936
31
0.0
0
ARC
8
0
10
11.365465
20
191.493936
30
0.0
40
0.300000
50
90.000000
51
180.000000
0
LINE
8
0
10
11.365465
20
191.793936
30
0.0
11
15.265465
21
191.793936
31
0.0
0
ARC
8
0
10
15.265465
20
191.493936
30
0.0
40
0.300000
50
360.000000
51
90.000000
0
LINE
8
0
10
15.565465
20
191.493936
30
0.0
11
15.565465
21
189.993936
31
0.0
0
ARC
8
0
10
14.865465
20
189.993936
30
0.0
40
0.700000
50
270.000000
51
360.000000
0
ARC
8
0
10
14.865465
20
189.593936
30
0.0
40
0.300000
50
180.000000
51
270.000000
0
LINE
8
0
10
14.565465
20
189.593936
30
0.0
11
14.565465
21
190.293936
31
0.0
0
ARC
8
0
10
14.265465
20
190.293936
30
0.0
40
0.300000
50
360.000000
51
90.000000
0
LINE
8
0
10
14.265465
20
190.593936
30
0.0
11
13.065465
21
190.593936
31
0.0
0
ARC
8
0
10
13.065465
20
189.893936
30
0.0
40
0.700000
50
90.000000
51
180.000000
0
LINE
8
0
10
12.365465
20
189.893936
30
0.0
11
12.365465
21
183.693936
31
0.0
0
ARC
8
0
10
13.065465
20
183.693936
30
0.0
40
0.700000
50
180.000000
51
270.000000
0
LINE
8
0
10
13.065465
20
182.993936
30
0.0
11
14.265465
21
182.993936
31
0.0
0
ARC
8
0
10
14.265465
20
183.293936
30
0.0
40
0.300000
50
270.000000
51
360.000000
0
LINE
8
0
10
14.565465
20
183.293936
30
0.0
11
14.565465
21
183.993936
31
0.0
0
ARC
8
0
10
14.865465
20
183.993936
30
0.0
40
0.300000
50
90.000000
51
180.000000
0
ARC
8
0
10
14.865465
20
183.593936
30
0.0
40
0.700000
50
360.000000
51
90.000000
0
LINE
8
0
10
15.565465
20
183.593936
30
0.0
11
15.565465
21
180.593936
31
0.0
0
ARC
8
0
10
15.265465
20
180.593936
30
0.0
40
0.300000
50
270.000000
51
360.000000
0
LINE
8
0
10
15.265465
20
180.293936
30
0.0
11
14.865465
21
180.293936
31
0.0
0
ARC
8
0
10
14.865465
20
180.593936
30
0.0
40
0.300000
50
180.000000
51
270.000000
0
LINE
8
0
10
14.565465
20
180.593936
30
0.0
11
14.565465
21
181.493936
31
0.0
0
ARC
8
0
10
14.265465
20
181.493936
30
0.0
40
0.300000
50
360.000000
51
90.000000
0
LINE
8
0
10
14.265465
20
181.793936
30
0.0
11
12.865465
21
181.793936
31
0.0
0
ARC
8
0
10
12.865465
20
181.493936
30
0.0
40
0.300000
50
90.000000
51
180.000000
0
LINE
8
0
10
12.565465
20
181.493936
30
0.0
11
12.565465
21
167.793936
31
0.0
0
ARC
8
0
10
13.565465
20
167.793936
30
0.0
40
1.000000
50
180.000000
51
270.000000
0
LINE
8
0
10
13.565465
20
166.793936
30
0.0
11
20.765465
21
166.793936
31
0.0
0
ARC
8
0
10
20.765465
20
167.093936
30
0.0
40
0.300000
50
270.000000
51
360.000000
0
LINE
8
0
10
21.065465
20
167.093936
30
0.0
11
21.065465
21
169.493936
31
0.0
0
ARC
8
0
10
21.365465
20
169.493936
30
0.0
40
0.300000
50
90.000000
51
180.000000
0
LINE
8
0
10
21.365465
20
169.793936
30
0.0
11
23.287780
21
169.793936
31
0.0
0
LINE
8
0
10
23.364244
20
169.784028
30
0.0
11
23.287780
21
169.793936
31
0.0
0
LINE
8
0
10
23.364244
20
169.784028
30
0.0
11
24.326447
21
169.530405
31
0.0
0
ARC
8
0
10
24.416168
20
169.816675
30
0.0
40
0.300000
50
252.598279
51
330.367342
0
ARC
8
0
10
24.850775
20
169.569456
30
0.0
40
0.200000
50
90.000000
51
150.367342
0
LINE
8
0
10
24.852177
20
169.769451
30
0.0
11
26.403271
21
169.769451
31
0.0
0
ARC
8
0
10
26.403271
20
169.469451
30
0.0
40
0.300000
50
342.598279
51
90.000000
0
LINE
8
0
10
26.689540
20
169.379730
30
0.0
11
26.087576
21
167.459062
31
0.0
0
ARC
8
0
10
25.324191
20
167.698317
30
0.0
40
0.800000
50
297.598279
51
342.598279
0
LINE
8
0
10
25.694807
20
166.989343
30
0.0
11
25.413736
21
166.842414
31
0.0
0
ARC
8
0
10
25.321082
20
167.019657
30
0.0
40
0.200000
50
180.000000
51
297.598279
0
LINE
8
0
10
25.121258
20
167.028039
30
0.0
11
25.133355
21
167.316460
31
0.0
0
LINE
8
0
10
25.133355
20
167.316460
30
0.0
11
23.425258
21
168.400523
31
0.0
0
ARC
8
0
10
23.103747
20
167.893936
30
0.0
40
0.600000
50
57.598279
51
90.000000
0
LINE
8
0
10
23.103747
20
168.493936
30
0.0
11
23.065465
21
168.493936
31
0.0
0
ARC
8
0
10
23.165465
20
168.211094
30
0.0
40
0.300000
50
109.471221
51
250.528779
0
LINE
8
0
10
23.065465
20
167.928251
30
0.0
11
23.065465
21
163.893936
31
0.0
0
ARC
8
0
10
23.365465
20
163.893936
30
0.0
40
0.300000
50
180.000000
51
270.000000
0
LINE
8
0
10
23.365465
20
163.593936
30
0.0
11
23.584170
21
163.593936
31
0.0
0
ARC
8
0
10
23.584170
20
163.893936
30
0.0
40
0.300000
50
270.000000
51
301.373538
0
LINE
8
0
10
23.740354
20
163.637799
30
0.0
11
25.261342
21
164.565250
31
0.0
0
ARC
8
0
10
25.365465
20
164.394492
30
0.0
40
0.200000
50
360.000000
51
121.373538
0
LINE
8
0
10
25.565465
20
164.394492
30
0.0
11
25.565465
21
163.189791
31
0.0
0
ARC
8
0
10
24.565465
20
163.189791
30
0.0
40
1.000000
50
300.000000
51
360.000000
0
LINE
8
0
10
25.065465
20
162.323766
30
0.0
11
23.565465
21
161.457740
31
0.0
0
ARC
8
0
10
24.065465
20
160.591715
30
0.0
40
1.000000
50
120.000000
51
180.000000
0
LINE
8
0
10
23.065465
20
160.591715
30
0.0
11
23.065465
21
123.496158
31
0.0
0
ARC
8
0
10
24.065465
20
123.496158
30
0.0
40
1.000000
50
180.000000
51
240.000000
0
LINE
8
0
10
23.565465
20
122.630132
30
0.0
11
25.065465
21
121.764107
31
0.0
0
ARC
8
0
10
24.565465
20
120.898081
30
0.0
40
1.000000
50
360.000000
51
60.000000
0
LINE
8
0
10
25.565465
20
120.898081
30
0.0
11
25.565465
21
119.693381
31
0.0
0
ARC
8
0
10
25.365465
20
119.693381
30
0.0
40
0.200000
50
238.626462
51
360.000000
0
ARC
8
0
10
56.665723
20
116.594103
30
0.0
40
0.400000
50
270.000000
51
360.000000
0
LINE
8
0
10
56.665723
20
116.194103
30
0.0
11
56.486109
21
116.194103
31
0.0
0
LINE
8
0
10
57.065723
20
119.994103
30
0.0
11
57.065723
21
116.594103
31
0.0
0
ARC
8
0
10
56.486109
20
116.494103
30
0.0
40
0.300000
50
239.999655
51
270.000000
0
ARC
8
0
10
56.665723
20
119.994103
30
0.0
40
0.400000
50
360.000000
51
90.000000
0
LINE
8
0
10
56.336107
20
116.234296
30
0.0
11
54.605754
21
117.233330
31
0.0
0
LINE
8
0
10
56.486108
20
120.394103
30
0.0
11
56.665723
21
120.394103
31
0.0
0
LINE
8
0
10
54.605754
20
117.233330
30
0.0
11
54.307629
21
117.405438
31
0.0
0
ARC
8
0
10
56.486108
20
120.094103
30
0.0
40
0.300000
50
90.000000
51
120.000000
0
ARC
8
0
10
54.157639
20
117.145625
30
0.0
40
0.300000
50
60.002085
51
155.566145
0
LINE
8
0
10
54.605781
20
119.354906
30
0.0
11
56.336108
21
120.353910
31
0.0
0
LINE
8
0
10
53.884507
20
117.269717
30
0.0
11
52.664152
21
114.583680
31
0.0
0
ARC
8
0
10
54.005781
20
120.394137
30
0.0
40
1.200000
50
270.000000
51
300.000000
0
ARC
8
0
10
52.210511
20
114.793942
30
0.0
40
0.500000
50
270.000000
51
335.132290
0
LINE
8
0
10
26.125369
20
119.194091
30
0.0
11
54.005783
21
119.194137
31
0.0
0
LINE
8
0
10
52.210512
20
114.293942
30
0.0
11
27.920579
21
114.293931
31
0.0
0
ARC
8
0
10
26.125367
20
120.394091
30
0.0
40
1.200000
50
240.000000
51
270.000000
0
ARC
8
0
10
27.920579
20
114.793931
30
0.0
40
0.500000
50
204.000000
51
270.000000
0
LINE
8
0
10
23.794983
20
120.353899
30
0.0
11
25.525367
21
119.354861
31
0.0
0
LINE
8
0
10
27.463806
20
114.590562
30
0.0
11
26.447840
21
116.872459
31
0.0
0
ARC
8
0
10
23.644983
20
120.094091
30
0.0
40
0.300000
50
60.000000
51
90.000000
0
ARC
8
0
10
26.721904
20
116.994480
30
0.0
40
0.300000
50
90.000000
51
204.000000
0
LINE
8
0
10
23.465367
20
120.394091
30
0.0
11
23.644983
21
120.394091
31
0.0
0
LINE
8
0
10
26.723665
20
117.294475
30
0.0
11
27.730118
21
117.288568
31
0.0
0
ARC
8
0
10
23.465367
20
119.994091
30
0.0
40
0.400000
50
90.000000
51
180.000000
0
ARC
8
0
10
27.728358
20
116.988573
30
0.0
40
0.300000
50
35.002354
51
90.000000
0
LINE
8
0
10
23.065367
20
116.594091
30
0.0
11
23.065367
21
119.994091
31
0.0
0
LINE
8
0
10
27.974096
20
117.160656
30
0.0
11
28.440938
21
116.493995
31
0.0
0
ARC
8
0
10
23.465367
20
116.594091
30
0.0
40
0.400000
50
180.000000
51
270.000000
0
ARC
8
0
10
28.318069
20
116.407953
30
0.0
40
0.150000
50
287.128706
51
35.002354
0
LINE
8
0
10
23.644982
20
116.194091
30
0.0
11
23.465367
21
116.194091
31
0.0
0
LINE
8
0
10
28.362247
20
116.264607
30
0.0
11
28.248233
21
116.229469
31
0.0
0
ARC
8
0
10
23.644982
20
116.494091
30
0.0
40
0.300000
50
270.000000
51
300.000345
0
ARC
8
0
10
28.307137
20
116.038340
30
0.0
40
0.200000
50
107.128706
51
217.522757
0
LINE
8
0
10
25.525336
20
117.233318
30
0.0
11
23.794983
21
116.234285
31
0.0
0
LINE
8
0
10
28.148515
20
115.916524
30
0.0
11
28.618776
21
115.304172
31
0.0
0
ARC
8
0
10
26.125342
20
116.194091
30
0.0
40
1.200000
50
90.000000
51
120.000345
0
ARC
8
0
10
28.856710
20
115.486894
30
0.0
40
0.300000
50
217.522757
51
270.000000
0
LINE
8
0
10
27.697168
20
117.394091
30
0.0
11
26.125342
21
117.394091
31
0.0
0
LINE
8
0
10
28.856534
20
115.186895
30
0.0
11
29.340729
21
115.186611
31
0.0
0
ARC
8
0
10
27.697168
20
117.094091
30
0.0
40
0.300000
50
35.885612
51
90.000000
0
ARC
8
0
10
29.340904
20
115.486611
30
0.0
40
0.300000
50
270.000000
51
18.015506
0
LINE
8
0
10
28.468975
20
116.539116
30
0.0
11
27.940225
21
117.269942
31
0.0
0
LINE
8
0
10
29.626196
20
115.579393
30
0.0
11
29.429314
21
116.184777
31
0.0
0
ARC
8
0
10
28.306937
20
116.421882
30
0.0
40
0.200000
50
288.581915
51
35.885612
0
ARC
8
0
10
29.714606
20
116.277559
30
0.0
40
0.300000
50
17.834933
51
198.015506
0
LINE
8
0
10
28.259234
20
116.194845
30
0.0
11
28.370669
21
116.232308
31
0.0
0
LINE
8
0
10
30.000189
20
116.369442
30
0.0
11
30.311436
21
115.402048
31
0.0
0
ARC
8
0
10
28.307033
20
116.052665
30
0.0
40
0.150000
50
108.581915
51
237.436866
0
ARC
8
0
10
30.597019
20
115.493931
30
0.0
40
0.300000
50
197.834933
51
270.000000
0
LINE
8
0
10
28.611914
20
115.679983
30
0.0
11
28.226299
21
115.926245
31
0.0
0
LINE
8
0
10
30.597019
20
115.193931
30
0.0
11
51.052658
21
115.193942
31
0.0
0
ARC
8
0
10
28.773382
20
115.932823
30
0.0
40
0.300000
50
237.436866
51
270.000000
0
ARC
8
0
10
51.052658
20
114.893942
30
0.0
40
0.300000
50
34.690292
51
90.000000
0
LINE
8
0
10
29.111365
20
115.632880
30
0.0
11
28.773433
21
115.632823
31
0.0
0
ARC
8
0
10
51.546002
20
115.235426
30
0.0
40
0.300000
50
214.690292
51
32.065684
0
ARC
8
0
10
29.111315
20
115.932880
30
0.0
40
0.300000
50
270.000000
51
22.907135
0
ARC
8
0
10
52.054466
20
115.553961
30
0.0
40
0.300000
50
156.000000
51
212.065684
0
LINE
8
0
10
29.113065
20
116.699473
30
0.0
11
29.387656
21
116.049651
31
0.0
0
LINE
8
0
10
51.780403
20
115.675982
30
0.0
11
52.232200
21
116.690736
31
0.0
0
ARC
8
0
10
29.573633
20
116.894093
30
0.0
40
0.500000
50
90.000000
51
202.907135
0
ARC
8
0
10
51.775427
20
116.894104
30
0.0
40
0.500000
50
336.000000
51
90.000000
0
LINE
8
0
10
51.775427
20
117.394104
30
0.0
11
29.573633
21
117.394093
31
0.0
0
ARC
8
0
10
56.665821
20
167.493775
30
0.0
40
0.400000
50
360.000000
51
90.000000
0
LINE
8
0
10
57.065821
20
164.093775
30
0.0
11
57.065821
21
167.493775
31
0.0
0
LINE
8
0
10
56.665821
20
167.893775
30
0.0
11
56.486206
21
167.893775
31
0.0
0
ARC
8
0
10
56.665821
20
164.093775
30
0.0
40
0.400000
50
270.000000
51
360.000000
0
ARC
8
0
10
56.486206
20
167.593775
30
0.0
40
0.300000
50
90.000000
51
120.000345
0
LINE
8
0
10
56.486205
20
163.693775
30
0.0
11
56.665821
21
163.693775
31
0.0
0
LINE
8
0
10
56.336205
20
167.853582
30
0.0
11
54.605852
21
166.854549
31
0.0
0
ARC
8
0
10
56.486205
20
163.993775
30
0.0
40
0.300000
50
240.000000
51
270.000000
0
LINE
8
0
10
54.605852
20
166.854549
30
0.0
11
54.307727
21
166.682441
31
0.0
0
LINE
8
0
10
54.605879
20
164.732972
30
0.0
11
56.336205
21
163.733968
31
0.0
0
ARC
8
0
10
54.157736
20
166.942254
30
0.0
40
0.300000
50
204.433855
51
299.997915
0
ARC
8
0
10
54.005879
20
163.693742
30
0.0
40
1.200000
50
60.000000
51
90.000000
0
LINE
8
0
10
53.884605
20
166.818161
30
0.0
11
52.664250
21
169.504199
31
0.0
0
LINE
8
0
10
26.125467
20
164.893787
30
0.0
11
54.005881
21
164.893742
31
0.0
0
ARC
8
0
10
52.210609
20
169.293936
30
0.0
40
0.500000
50
24.867710
51
90.000000
0
ARC
8
0
10
26.125465
20
163.693787
30
0.0
40
1.200000
50
90.000000
51
120.000000
0
LINE
8
0
10
52.210609
20
169.793936
30
0.0
11
27.920677
21
169.793948
31
0.0
0
LINE
8
0
10
23.795080
20
163.733979
30
0.0
11
25.525465
21
164.733017
31
0.0
0
ARC
8
0
10
27.920677
20
169.293948
30
0.0
40
0.500000
50
90.000000
51
156.000000
0
ARC
8
0
10
23.645080
20
163.993787
30
0.0
40
0.300000
50
270.000000
51
300.000000
0
LINE
8
0
10
27.463904
20
169.497316
30
0.0
11
26.447938
21
167.215419
31
0.0
0
LINE
8
0
10
23.465465
20
163.693787
30
0.0
11
23.645080
21
163.693787
31
0.0
0
ARC
8
0
10
26.722002
20
167.093398
30
0.0
40
0.300000
50
156.000000
51
270.000000
0
ARC
8
0
10
23.465465
20
164.093787
30
0.0
40
0.400000
50
180.000000
51
270.000000
0
LINE
8
0
10
26.723762
20
166.793403
30
0.0
11
27.730216
21
166.799311
31
0.0
0
LINE
8
0
10
23.065465
20
167.493787
30
0.0
11
23.065465
21
164.093787
31
0.0
0
ARC
8
0
10
27.728455
20
167.099305
30
0.0
40
0.300000
50
270.000000
51
324.997646
0
ARC
8
0
10
23.465465
20
167.493787
30
0.0
40
0.400000
50
90.000000
51
180.000000
0
LINE
8
0
10
27.974194
20
166.927222
30
0.0
11
28.441036
21
167.593883
31
0.0
0
LINE
8
0
10
23.645079
20
167.893787
30
0.0
11
23.465465
21
167.893787
31
0.0
0
ARC
8
0
10
28.318166
20
167.679925
30
0.0
40
0.150000
50
324.997646
51
72.871294
0
ARC
8
0
10
23.645079
20
167.593787
30
0.0
40
0.300000
50
59.999655
51
90.000000
0
LINE
8
0
10
28.362344
20
167.823272
30
0.0
11
28.248331
21
167.858409
31
0.0
0
LINE
8
0
10
25.525434
20
166.854560
30
0.0
11
23.795081
21
167.853594
31
0.0
0
ARC
8
0
10
28.307235
20
168.049538
30
0.0
40
0.200000
50
142.477243
51
252.871294
0
ARC
8
0
10
26.125440
20
167.893787
30
0.0
40
1.200000
50
239.999655
51
270.000000
0
LINE
8
0
10
28.148612
20
168.171354
30
0.0
11
28.618874
21
168.783707
31
0.0
0
LINE
8
0
10
27.697266
20
166.693787
30
0.0
11
26.125440
21
166.693787
31
0.0
0
ARC
8
0
10
28.856807
20
168.600984
30
0.0
40
0.300000
50
90.000000
51
142.477243
0
ARC
8
0
10
27.697266
20
166.993787
30
0.0
40
0.300000
50
270.000000
51
324.114388
0
LINE
8
0
10
28.856632
20
168.900984
30
0.0
11
29.340826
21
168.901267
31
0.0
0
LINE
8
0
10
28.469073
20
167.548763
30
0.0
11
27.940322
21
166.817936
31
0.0
0
ARC
8
0
10
29.341002
20
168.601267
30
0.0
40
0.300000
50
341.984494
51
90.000000
0
ARC
8
0
10
28.307035
20
167.665996
30
0.0
40
0.200000
50
324.114388
51
71.418085
0
LINE
8
0
10
29.626294
20
168.508485
30
0.0
11
29.429412
21
167.903101
31
0.0
0
LINE
8
0
10
28.259332
20
167.893033
30
0.0
11
28.370767
21
167.855570
31
0.0
0
ARC
8
0
10
29.714704
20
167.810319
30
0.0
40
0.300000
50
161.984494
51
342.165067
0
ARC
8
0
10
28.307131
20
168.035213
30
0.0
40
0.150000
50
122.563134
51
251.418085
0
LINE
8
0
10
30.000286
20
167.718436
30
0.0
11
30.311533
21
168.685830
31
0.0
0
LINE
8
0
10
28.612011
20
168.407895
30
0.0
11
28.226396
21
168.161633
31
0.0
0
ARC
8
0
10
30.597116
20
168.593948
30
0.0
40
0.300000
50
90.000000
51
162.165067
0
ARC
8
0
10
28.773480
20
168.155055
30
0.0
40
0.300000
50
90.000000
51
122.563134
0
LINE
8
0
10
30.597116
20
168.893948
30
0.0
11
51.052755
21
168.893936
31
0.0
0
LINE
8
0
10
29.111463
20
168.454998
30
0.0
11
28.773530
21
168.455055
31
0.0
0
ARC
8
0
10
51.052756
20
169.193936
30
0.0
40
0.300000
50
270.000000
51
325.309708
0
ARC
8
0
10
29.111412
20
168.154998
30
0.0
40
0.300000
50
337.092865
51
90.000000
0
ARC
8
0
10
51.546100
20
168.852452
30
0.0
40
0.300000
50
327.934316
51
145.309708
0
LINE
8
0
10
29.113163
20
167.388405
30
0.0
11
29.387754
21
168.038227
31
0.0
0
ARC
8
0
10
52.054564
20
168.533917
30
0.0
40
0.300000
50
147.934316
51
204.000000
0
ARC
8
0
10
29.573731
20
167.193785
30
0.0
40
0.500000
50
157.092865
51
270.000000
0
LINE
8
0
10
51.780500
20
168.411896
30
0.0
11
52.232298
21
167.397143
31
0.0
0
LINE
8
0
10
51.775525
20
166.693774
30
0.0
11
29.573731
21
166.693785
31
0.0
0
ARC
8
0
10
51.775525
20
167.193774
30
0.0
40
0.500000
50
270.000000
51
24.000000
0
ATTDEF
8
0
10
56.766944
20
169.784028
30
0.0
40
3.5
1

3

2
VC_START
70
0
0
ATTDEF
8
0
10
56.843408
20
114.293936
30
0.0
40
3.5
1

3

2
VC_END
70
0
0
ATTDEF
8
0
10
11.065465
20
95.793936
30
0.0
40
3.5
1

3

2
DESC:Z Anta
70
0
0
ATTDEF
8
0
10
11.065465
20
95.793936
30
0.0
40
3.5
1

3

2
DENS:2.140000
70
0
0
ATTDEF
8
0
10
11.065465
20
95.793936
30
0.0
40
3.5
1

3

2
TDEV:0.000000
70
0
0
ATTDEF
8
0
10
11.065465
20
95.793936
30
0.0
40
3.5
1

3

2
TDEV2:0.000000
70
0
0
ATTDEF
8
0
10
11.065465
20
95.793936
30
0.0
40
3.5
1

3

2
TDEV3:0.000000
70
0
0
ATTDEF
8
0
10
11.065465
20
95.793936
30
0.0
40
3.5
1

3

2
TDEV4:0.000000
70
0
0
ATTDEF
8
0
10
11.065465
20
95.793936
30
0.0
40
3.5
1

3

2
TDEV5:0.000000
70
0
0
ATTDEF
8
0
10
11.065465
20
95.793936
30
0.0
40
3.5
1

3

2
FRONT_VIEW
70
0
0
ATTDEF
8
0
10
11.065465
20
95.793936
30
0.0
40
3.5
1

3

2
BL01:6800.000000,,1
70
0
0
ATTDEF
8
0
10
11.065465
20
95.793936
30
0.0
40
3.5
1

3

2
OPTI:500.000000,1,0,3000.000000,6500.000000,500.000000,0,0.000000,0
70
0
0
ATTDEF
8
0
10
11.065465
20
95.793936
30
0.0
40
3.5
1

3

2
GLASS_MIN:0.000000
70
0
0
ATTDEF
8
0
10
11.065465
20
95.793936
30
0.0
40
3.5
1

3

2
GLASS_MAX:0.000000
70
0
0
ATTDEF
8
0
10
11.065465
20
95.793936
30
0.0
40
3.5
1

3

2
JX:0.000000
70
0
0
ATTDEF
8
0
10
11.065465
20
95.793936
30
0.0
40
3.5
1

3

2
WX:0.000000
70
0
0
ATTDEF
8
0
10
11.065465
20
95.793936
30
0.0
40
3.5
1

3

2
JY:0.000000
70
0
0
ATTDEF
8
0
10
11.065465
20
95.793936
30
0.0
40
3.5
1

3

2
WY:0.000000
70
0
0
ATTDEF
8
0
10
11.065465
20
95.793936
30
0.0
40
3.5
1

3

2
FP_LCS_ORIG
70
0
0
ATTDEF
8
0
10
21.065465
20
95.793936
30
0.0
40
3.5
1

3

2
FP_LCS_HOT
70
0
0
ATTDEF
8
0
10
11.065465
20
105.793936
30
0.0
40
3.5
1

3

2
FP_LCS_INTERN
70
0
0
ATTDEF
8
0
10
11.065465
20
95.793936
30
0.0
40
3.5
1

3

2
PANE_WIDTH:72.000000
70
0
0
ENDSEC
0
EOF
