0
SECTION
2
ENTITIES
0
LINE
8
0
10
180.275912
20
116.704914
30
0.0
11
180.275912
21
128.830527
31
0.0
0
ARC
8
0
10
179.975912
20
128.830527
30
0.0
40
0.300000
50
0.000000
51
75.000000
0
LINE
8
0
10
180.053557
20
129.120305
30
0.0
11
177.998266
21
129.671018
31
0.0
0
ARC
8
0
10
178.075912
20
129.960796
30
0.0
40
0.300000
50
180.000000
51
255.000000
0
LINE
8
0
10
177.775912
20
129.960796
30
0.0
11
177.775912
21
130.603803
31
0.0
0
ARC
8
0
10
178.075912
20
130.603803
30
0.0
40
0.300000
50
90.000000
51
180.000000
0
LINE
8
0
10
178.075912
20
130.903803
30
0.0
11
179.975912
21
130.903803
31
0.0
0
ARC
8
0
10
179.975912
20
131.203803
30
0.0
40
0.300000
50
270.000000
51
0.000000
0
LINE
8
0
10
180.275912
20
131.203803
30
0.0
11
180.275912
21
161.403803
31
0.0
0
ARC
8
0
10
179.975912
20
161.403803
30
0.0
40
0.300000
50
0.000000
51
90.000000
0
LINE
8
0
10
179.975912
20
161.703803
30
0.0
11
148.475912
21
161.703803
31
0.0
0
ARC
8
0
10
148.475912
20
161.403803
30
0.0
40
0.300000
50
90.000000
51
180.000000
0
LINE
8
0
10
148.175912
20
161.403803
30
0.0
11
148.175912
21
131.203803
31
0.0
0
ARC
8
0
10
148.475912
20
131.203803
30
0.0
40
0.300000
50
180.000000
51
270.000000
0
LINE
8
0
10
148.475912
20
130.903803
30
0.0
11
150.375912
21
130.903803
31
0.0
0
ARC
8
0
10
150.375912
20
130.603803
30
0.0
40
0.300000
50
0.000000
51
90.000000
0
LINE
8
0
10
150.675912
20
130.603803
30
0.0
11
150.675912
21
129.907206
31
0.0
0
ARC
8
0
10
150.375912
20
129.907206
30
0.0
40
0.300000
50
285.000000
51
0.000000
0
LINE
8
0
10
150.453557
20
129.617429
30
0.0
11
148.398266
21
129.066715
31
0.0
0
ARC
8
0
10
148.475912
20
128.776937
30
0.0
40
0.300000
50
105.000000
51
180.000000
0
LINE
8
0
10
148.175912
20
128.776937
30
0.0
11
148.175912
21
123.306025
31
0.0
0
ARC
8
0
10
148.475912
20
123.306025
30
0.0
40
0.300000
50
180.000000
51
270.000000
0
LINE
8
0
10
148.475912
20
123.006025
30
0.0
11
152.180571
21
123.006025
31
0.0
0
ARC
8
0
10
152.180571
20
122.306025
30
0.0
40
0.700000
50
0.000000
51
90.000000
0
LINE
8
0
10
152.880571
20
122.306025
30
0.0
11
152.880571
21
116.704914
31
0.0
0
ARC
8
0
10
153.180571
20
116.704914
30
0.0
40
0.300000
50
180.000000
51
270.000000
0
LINE
8
0
10
153.180571
20
116.404914
30
0.0
11
179.975912
21
116.404914
31
0.0
0
ARC
8
0
10
179.975912
20
116.704914
30
0.0
40
0.300000
50
270.000000
51
0.000000
0
ARC
8
0
10
177.875912
20
96.404914
30
0.0
40
0.300000
50
180.000000
51
270.000000
0
LINE
8
0
10
177.575912
20
96.404914
30
0.0
11
177.575912
21
97.904914
31
0.0
0
ARC
8
0
10
178.275912
20
97.904914
30
0.0
40
0.700000
50
90.000000
51
180.000000
0
ARC
8
0
10
178.275912
20
98.304914
30
0.0
40
0.300000
50
0.000000
51
90.000000
0
LINE
8
0
10
178.575912
20
98.304914
30
0.0
11
178.575912
21
97.604914
31
0.0
0
ARC
8
0
10
178.875912
20
97.604914
30
0.0
40
0.300000
50
180.000000
51
270.000000
0
LINE
8
0
10
178.875912
20
97.304914
30
0.0
11
180.075912
21
97.304914
31
0.0
0
ARC
8
0
10
180.075912
20
98.004914
30
0.0
40
0.700000
50
270.000000
51
0.000000
0
LINE
8
0
10
180.775912
20
98.004914
30
0.0
11
180.775912
21
104.204914
31
0.0
0
ARC
8
0
10
180.075912
20
104.204914
30
0.0
40
0.700000
50
0.000000
51
90.000000
0
LINE
8
0
10
180.075912
20
104.904914
30
0.0
11
178.875912
21
104.904914
31
0.0
0
ARC
8
0
10
178.875912
20
104.604914
30
0.0
40
0.300000
50
90.000000
51
180.000000
0
LINE
8
0
10
178.575912
20
104.604914
30
0.0
11
178.575912
21
103.904914
31
0.0
0
ARC
8
0
10
178.275912
20
103.904914
30
0.0
40
0.300000
50
270.000000
51
0.000000
0
ARC
8
0
10
178.275912
20
104.304914
30
0.0
40
0.700000
50
180.000000
51
270.000000
0
LINE
8
0
10
177.575912
20
104.304914
30
0.0
11
177.575912
21
105.804914
31
0.0
0
ARC
8
0
10
177.875912
20
105.804914
30
0.0
40
0.300000
50
90.000000
51
180.000000
0
LINE
8
0
10
177.875912
20
106.104914
30
0.0
11
179.975912
21
106.104914
31
0.0
0
ARC
8
0
10
179.975912
20
106.404914
30
0.0
40
0.300000
50
270.000000
51
0.000000
0
LINE
8
0
10
180.275912
20
106.404914
30
0.0
11
180.275912
21
113.604914
31
0.0
0
ARC
8
0
10
179.275912
20
113.604914
30
0.0
40
1.000000
50
0.000000
51
90.000000
0
LINE
8
0
10
179.275912
20
114.604914
30
0.0
11
150.853597
21
114.604914
31
0.0
0
LINE
8
0
10
150.777133
20
114.614822
30
0.0
11
150.853597
21
114.604914
31
0.0
0
LINE
8
0
10
150.777133
20
114.614822
30
0.0
11
149.814930
21
114.868445
31
0.0
0
ARC
8
0
10
149.725209
20
114.582175
30
0.0
40
0.300000
50
72.598279
51
150.367342
0
ARC
8
0
10
149.290602
20
114.829394
30
0.0
40
0.200000
50
270.000000
51
330.367342
0
LINE
8
0
10
149.289200
20
114.629399
30
0.0
11
147.738106
21
114.629399
31
0.0
0
ARC
8
0
10
147.738106
20
114.929399
30
0.0
40
0.300000
50
162.598279
51
270.000000
0
LINE
8
0
10
147.451836
20
115.019120
30
0.0
11
148.053801
21
116.939788
31
0.0
0
ARC
8
0
10
148.817186
20
116.700533
30
0.0
40
0.800000
50
117.598279
51
162.598279
0
LINE
8
0
10
148.446570
20
117.409507
30
0.0
11
148.727641
21
117.556436
31
0.0
0
ARC
8
0
10
148.820295
20
117.379193
30
0.0
40
0.200000
50
0.000000
51
117.598279
0
LINE
8
0
10
149.020119
20
117.370811
30
0.0
11
149.008022
21
117.082390
31
0.0
0
LINE
8
0
10
149.008022
20
117.082390
30
0.0
11
150.716119
21
115.998327
31
0.0
0
ARC
8
0
10
151.037630
20
116.504914
30
0.0
40
0.600000
50
237.598279
51
270.000000
0
LINE
8
0
10
151.037630
20
115.904914
30
0.0
11
151.075912
21
115.904914
31
0.0
0
ARC
8
0
10
150.975912
20
116.187757
30
0.0
40
0.300000
50
289.471221
51
70.528779
0
LINE
8
0
10
151.075912
20
116.470599
30
0.0
11
151.075912
21
120.404914
31
0.0
0
LINE
8
0
10
151.075912
20
120.404914
30
0.0
11
151.075912
21
120.504914
31
0.0
0
ARC
8
0
10
150.775912
20
120.504914
30
0.0
40
0.300000
50
0.000000
51
90.000000
0
LINE
8
0
10
150.775912
20
120.804914
30
0.0
11
150.475912
21
120.804914
31
0.0
0
LINE
8
0
10
150.475912
20
120.804914
30
0.0
11
148.875912
21
119.881153
31
0.0
0
ARC
8
0
10
148.775912
20
120.054358
30
0.0
40
0.200000
50
220.000000
51
300.000000
0
LINE
8
0
10
148.622703
20
119.925801
30
0.0
11
146.646098
21
122.281426
31
0.0
0
ARC
8
0
10
146.875912
20
122.474263
30
0.0
40
0.300000
50
180.000000
51
220.000000
0
LINE
8
0
10
146.575912
20
122.474263
30
0.0
11
146.575912
21
162.235565
31
0.0
0
ARC
8
0
10
146.875912
20
162.235565
30
0.0
40
0.300000
50
140.000000
51
180.000000
0
LINE
8
0
10
146.646098
20
162.428401
30
0.0
11
148.622703
21
164.784027
31
0.0
0
ARC
8
0
10
148.775912
20
164.655469
30
0.0
40
0.200000
50
60.000000
51
140.000000
0
LINE
8
0
10
148.875912
20
164.828674
30
0.0
11
150.475912
21
163.904914
31
0.0
0
LINE
8
0
10
150.475912
20
163.904914
30
0.0
11
150.775912
21
163.904914
31
0.0
0
ARC
8
0
10
150.775912
20
164.204914
30
0.0
40
0.300000
50
270.000000
51
0.000000
0
LINE
8
0
10
151.075912
20
164.204914
30
0.0
11
151.075912
21
168.239228
31
0.0
0
ARC
8
0
10
150.975912
20
168.522071
30
0.0
40
0.300000
50
289.471221
51
70.528779
0
LINE
8
0
10
151.075912
20
168.804914
30
0.0
11
151.037630
21
168.804914
31
0.0
0
ARC
8
0
10
151.037630
20
168.204914
30
0.0
40
0.600000
50
90.000000
51
122.401721
0
LINE
8
0
10
150.716119
20
168.711501
30
0.0
11
149.008022
21
167.627438
31
0.0
0
LINE
8
0
10
149.008022
20
167.627438
30
0.0
11
149.020119
21
167.339016
31
0.0
0
ARC
8
0
10
148.820295
20
167.330635
30
0.0
40
0.200000
50
242.401721
51
0.000000
0
LINE
8
0
10
148.727641
20
167.153392
30
0.0
11
148.446570
21
167.300321
31
0.0
0
ARC
8
0
10
148.817186
20
168.009295
30
0.0
40
0.800000
50
197.401721
51
242.401721
0
LINE
8
0
10
148.053801
20
167.770039
30
0.0
11
147.451836
21
169.690708
31
0.0
0
ARC
8
0
10
147.738106
20
169.780429
30
0.0
40
0.300000
50
90.000000
51
197.401721
0
LINE
8
0
10
147.738106
20
170.080429
30
0.0
11
149.289200
21
170.080429
31
0.0
0
ARC
8
0
10
149.290602
20
169.880434
30
0.0
40
0.200000
50
29.632658
51
90.000000
0
ARC
8
0
10
149.725209
20
170.127652
30
0.0
40
0.300000
50
209.632658
51
287.401721
0
LINE
8
0
10
149.814930
20
169.841383
30
0.0
11
150.777133
21
170.095006
31
0.0
0
LINE
8
0
10
150.853597
20
170.104914
30
0.0
11
150.777133
21
170.095006
31
0.0
0
LINE
8
0
10
150.853597
20
170.104914
30
0.0
11
152.480571
21
170.104914
31
0.0
0
ARC
8
0
10
152.480571
20
169.804914
30
0.0
40
0.300000
50
0.000000
51
90.000000
0
LINE
8
0
10
152.780571
20
169.804914
30
0.0
11
152.780571
21
163.803803
31
0.0
0
ARC
8
0
10
153.080571
20
163.803803
30
0.0
40
0.300000
50
180.000000
51
270.000000
0
LINE
8
0
10
153.080571
20
163.503803
30
0.0
11
163.975912
21
163.503803
31
0.0
0
ARC
8
0
10
163.975912
20
163.803803
30
0.0
40
0.300000
50
270.000000
51
0.000000
0
LINE
8
0
10
164.275912
20
163.803803
30
0.0
11
164.275912
21
169.804914
31
0.0
0
ARC
8
0
10
164.575912
20
169.804914
30
0.0
40
0.300000
50
90.000000
51
180.000000
0
LINE
8
0
10
164.575912
20
170.104914
30
0.0
11
167.025356
21
170.104914
31
0.0
0
ARC
8
0
10
167.025356
20
169.804914
30
0.0
40
0.300000
50
30.000000
51
90.000000
0
LINE
8
0
10
167.285164
20
169.954914
30
0.0
11
167.735719
21
169.174529
31
0.0
0
ARC
8
0
10
167.475912
20
169.024529
30
0.0
40
0.300000
50
0.000000
51
30.000000
0
LINE
8
0
10
167.775912
20
169.024529
30
0.0
11
167.775912
21
168.904914
31
0.0
0
ARC
8
0
10
167.475912
20
168.904914
30
0.0
40
0.300000
50
270.000000
51
0.000000
0
LINE
8
0
10
167.475912
20
168.604914
30
0.0
11
166.075912
21
168.604914
31
0.0
0
ARC
8
0
10
166.075912
20
168.304914
30
0.0
40
0.300000
50
90.000000
51
180.000000
0
LINE
8
0
10
165.775912
20
168.304914
30
0.0
11
165.775912
21
163.803803
31
0.0
0
ARC
8
0
10
166.075912
20
163.803803
30
0.0
40
0.300000
50
180.000000
51
270.000000
0
LINE
8
0
10
166.075912
20
163.503803
30
0.0
11
167.275912
21
163.503803
31
0.0
0
ARC
8
0
10
167.275912
20
163.803803
30
0.0
40
0.300000
50
270.000000
51
0.000000
0
LINE
8
0
10
167.575912
20
163.803803
30
0.0
11
167.575912
21
164.805314
31
0.0
0
ARC
8
0
10
167.875912
20
164.805314
30
0.0
40
0.300000
50
90.000000
51
180.000000
0
LINE
8
0
10
167.875912
20
165.105314
30
0.0
11
169.275912
21
165.105314
31
0.0
0
ARC
8
0
10
169.275912
20
164.805314
30
0.0
40
0.300000
50
0.000000
51
90.000000
0
LINE
8
0
10
169.575912
20
164.805314
30
0.0
11
169.575912
21
163.803803
31
0.0
0
ARC
8
0
10
169.875912
20
163.803803
30
0.0
40
0.300000
50
180.000000
51
270.000000
0
LINE
8
0
10
169.875912
20
163.503803
30
0.0
11
176.175912
21
163.503803
31
0.0
0
ARC
8
0
10
176.175912
20
163.803803
30
0.0
40
0.300000
50
270.000000
51
0.000000
0
LINE
8
0
10
176.475912
20
163.803803
30
0.0
11
176.475912
21
164.805314
31
0.0
0
ARC
8
0
10
176.775912
20
164.805314
30
0.0
40
0.300000
50
90.000000
51
180.000000
0
LINE
8
0
10
176.775912
20
165.105314
30
0.0
11
178.175912
21
165.105314
31
0.0
0
ARC
8
0
10
178.175912
20
164.805314
30
0.0
40
0.300000
50
0.000000
51
90.000000
0
LINE
8
0
10
178.475912
20
164.805314
30
0.0
11
178.475912
21
163.803803
31
0.0
0
ARC
8
0
10
178.775912
20
163.803803
30
0.0
40
0.300000
50
180.000000
51
270.000000
0
LINE
8
0
10
178.775912
20
163.503803
30
0.0
11
179.975912
21
163.503803
31
0.0
0
ARC
8
0
10
179.975912
20
163.803803
30
0.0
40
0.300000
50
270.000000
51
0.000000
0
LINE
8
0
10
180.275912
20
163.803803
30
0.0
11
180.275912
21
168.304914
31
0.0
0
ARC
8
0
10
179.975912
20
168.304914
30
0.0
40
0.300000
50
0.000000
51
90.000000
0
LINE
8
0
10
179.975912
20
168.604914
30
0.0
11
178.075912
21
168.604914
31
0.0
0
ARC
8
0
10
178.075912
20
168.904914
30
0.0
40
0.300000
50
180.000000
51
270.000000
0
LINE
8
0
10
177.775912
20
168.904914
30
0.0
11
177.775912
21
169.024529
31
0.0
0
ARC
8
0
10
178.075912
20
169.024529
30
0.0
40
0.300000
50
150.000000
51
180.000000
0
LINE
8
0
10
177.816104
20
169.174529
30
0.0
11
178.266659
21
169.954914
31
0.0
0
ARC
8
0
10
178.526467
20
169.804914
30
0.0
40
0.300000
50
90.000000
51
150.000000
0
LINE
8
0
10
178.526467
20
170.104914
30
0.0
11
181.775912
21
170.104914
31
0.0
0
ARC
8
0
10
181.775912
20
169.804914
30
0.0
40
0.300000
50
0.000000
51
90.000000
0
LINE
8
0
10
182.075912
20
169.804914
30
0.0
11
182.075912
21
96.604914
31
0.0
0
ARC
8
0
10
181.575912
20
96.604914
30
0.0
40
0.500000
50
270.000000
51
0.000000
0
LINE
8
0
10
181.575912
20
96.104914
30
0.0
11
177.875912
21
96.104914
31
0.0
0
LINE
8
0
10
109.975396
20
158.002692
30
0.0
11
115.475654
21
158.002692
31
0.0
0
LINE
8
0
10
115.475654
20
158.002692
30
0.0
11
115.475654
21
165.507135
31
0.0
0
LINE
8
0
10
115.475654
20
165.507135
30
0.0
11
109.975396
21
165.507135
31
0.0
0
LINE
8
0
10
109.975396
20
165.507135
30
0.0
11
109.975396
21
158.002692
31
0.0
0
ARC
8
0
10
110.475396
20
123.607135
30
0.0
40
0.300000
50
180.000000
51
270.000000
0
LINE
8
0
10
110.475396
20
123.307135
30
0.0
11
116.752778
21
123.307135
31
0.0
0
ARC
8
0
10
116.752778
20
122.307135
30
0.0
40
1.000000
50
48.590378
51
90.000000
0
ARC
8
0
10
118.075654
20
123.807135
30
0.0
40
1.000000
50
228.590378
51
240.000000
0
LINE
8
0
10
117.575654
20
122.941110
30
0.0
11
119.075654
21
122.075084
31
0.0
0
ARC
8
0
10
118.575654
20
121.209059
30
0.0
40
1.000000
50
0.000000
51
60.000000
0
LINE
8
0
10
119.575654
20
121.209059
30
0.0
11
119.575654
21
120.018467
31
0.0
0
ARC
8
0
10
119.375654
20
120.018467
30
0.0
40
0.200000
50
239.000000
51
0.000000
0
LINE
8
0
10
119.272646
20
119.847034
30
0.0
11
117.749781
21
120.762064
31
0.0
0
ARC
8
0
10
117.595269
20
120.504914
30
0.0
40
0.300000
50
59.000000
51
90.000000
0
LINE
8
0
10
117.595269
20
120.804914
30
0.0
11
117.375654
21
120.804914
31
0.0
0
ARC
8
0
10
117.375654
20
120.504914
30
0.0
40
0.300000
50
90.000000
51
180.000000
0
LINE
8
0
10
117.075654
20
120.504914
30
0.0
11
117.075654
21
116.470599
31
0.0
0
ARC
8
0
10
117.175654
20
116.187757
30
0.0
40
0.300000
50
109.471221
51
250.528779
0
LINE
8
0
10
117.075654
20
115.904914
30
0.0
11
117.113936
21
115.904914
31
0.0
0
ARC
8
0
10
117.113936
20
116.504914
30
0.0
40
0.600000
50
270.000000
51
302.401721
0
LINE
8
0
10
117.435447
20
115.998327
30
0.0
11
119.143544
21
117.082390
31
0.0
0
LINE
8
0
10
119.143544
20
117.082390
30
0.0
11
119.131447
21
117.370811
31
0.0
0
ARC
8
0
10
119.331271
20
117.379193
30
0.0
40
0.200000
50
62.401721
51
180.000000
0
LINE
8
0
10
119.423925
20
117.556436
30
0.0
11
119.704995
21
117.409507
31
0.0
0
ARC
8
0
10
119.334380
20
116.700533
30
0.0
40
0.800000
50
17.401721
51
62.401721
0
LINE
8
0
10
120.097765
20
116.939788
30
0.0
11
120.699729
21
115.019120
31
0.0
0
ARC
8
0
10
120.413460
20
114.929399
30
0.0
40
0.300000
50
270.000000
51
17.401721
0
LINE
8
0
10
120.413460
20
114.629399
30
0.0
11
118.859561
21
114.629399
31
0.0
0
ARC
8
0
10
118.860964
20
114.829394
30
0.0
40
0.200000
50
209.632658
51
270.000000
0
ARC
8
0
10
118.426357
20
114.582175
30
0.0
40
0.300000
50
29.632658
51
102.131204
0
LINE
8
0
10
118.363312
20
114.875476
30
0.0
11
117.336843
21
114.604914
31
0.0
0
LINE
8
0
10
117.336843
20
114.604914
30
0.0
11
115.725654
21
114.604914
31
0.0
0
ARC
8
0
10
115.725654
20
114.304914
30
0.0
40
0.300000
50
90.000000
51
180.000000
0
LINE
8
0
10
115.425654
20
114.304914
30
0.0
11
115.425654
21
110.404914
31
0.0
0
ARC
8
0
10
115.125654
20
110.404914
30
0.0
40
0.300000
50
270.000000
51
0.000000
0
LINE
8
0
10
115.125654
20
110.104914
30
0.0
11
114.125654
21
110.104914
31
0.0
0
ARC
8
0
10
114.125654
20
110.404914
30
0.0
40
0.300000
50
180.000000
51
270.000000
0
LINE
8
0
10
113.825654
20
110.404914
30
0.0
11
113.825654
21
120.804914
31
0.0
0
ARC
8
0
10
113.525654
20
120.804914
30
0.0
40
0.300000
50
0.000000
51
90.000000
0
LINE
8
0
10
113.525654
20
121.104914
30
0.0
11
108.475396
21
121.104914
31
0.0
0
ARC
8
0
10
108.475396
20
121.404914
30
0.0
40
0.300000
50
180.000000
51
270.000000
0
LINE
8
0
10
108.175396
20
121.404914
30
0.0
11
108.175396
21
122.007195
31
0.0
0
ARC
8
0
10
108.475396
20
122.007195
30
0.0
40
0.300000
50
90.000000
51
180.000000
0
LINE
8
0
10
108.475396
20
122.307195
30
0.0
11
108.575396
21
122.307195
31
0.0
0
LINE
8
0
10
108.575396
20
122.307195
30
0.0
11
108.575396
21
144.504914
31
0.0
0
LINE
8
0
10
108.575396
20
144.504914
30
0.0
11
108.475396
21
144.504914
31
0.0
0
ARC
8
0
10
108.475396
20
144.804914
30
0.0
40
0.300000
50
180.000000
51
270.000000
0
LINE
8
0
10
108.175396
20
144.804914
30
0.0
11
108.175396
21
145.404914
31
0.0
0
ARC
8
0
10
108.475396
20
145.404914
30
0.0
40
0.300000
50
90.000000
51
180.000000
0
LINE
8
0
10
108.475396
20
145.704914
30
0.0
11
108.575396
21
145.704914
31
0.0
0
LINE
8
0
10
108.575396
20
145.704914
30
0.0
11
108.575396
21
156.704914
31
0.0
0
LINE
8
0
10
108.575396
20
156.704914
30
0.0
11
108.475396
21
156.704914
31
0.0
0
ARC
8
0
10
108.475396
20
157.004914
30
0.0
40
0.300000
50
180.000000
51
270.000000
0
LINE
8
0
10
108.175396
20
157.004914
30
0.0
11
108.175396
21
157.604914
31
0.0
0
ARC
8
0
10
108.475396
20
157.604914
30
0.0
40
0.300000
50
90.000000
51
180.000000
0
LINE
8
0
10
108.475396
20
157.904914
30
0.0
11
108.575396
21
157.904914
31
0.0
0
LINE
8
0
10
108.575396
20
157.904914
30
0.0
11
108.575396
21
168.904914
31
0.0
0
LINE
8
0
10
108.575396
20
168.904914
30
0.0
11
108.475396
21
168.904914
31
0.0
0
ARC
8
0
10
108.475396
20
169.204914
30
0.0
40
0.300000
50
180.000000
51
270.000000
0
LINE
8
0
10
108.175396
20
169.204914
30
0.0
11
108.175396
21
169.804914
31
0.0
0
ARC
8
0
10
108.475396
20
169.804914
30
0.0
40
0.300000
50
90.000000
51
180.000000
0
LINE
8
0
10
108.475396
20
170.104914
30
0.0
11
109.575396
21
170.104914
31
0.0
0
ARC
8
0
10
109.575396
20
169.804914
30
0.0
40
0.300000
50
0.000000
51
90.000000
0
LINE
8
0
10
109.875396
20
169.804914
30
0.0
11
109.875396
21
167.404914
31
0.0
0
ARC
8
0
10
110.175396
20
167.404914
30
0.0
40
0.300000
50
180.000000
51
270.000000
0
LINE
8
0
10
110.175396
20
167.104914
30
0.0
11
114.775654
21
167.104914
31
0.0
0
ARC
8
0
10
114.775654
20
167.404914
30
0.0
40
0.300000
50
270.000000
51
0.000000
0
LINE
8
0
10
115.075654
20
167.404914
30
0.0
11
115.075654
21
169.804914
31
0.0
0
ARC
8
0
10
115.375654
20
169.804914
30
0.0
40
0.300000
50
90.000000
51
180.000000
0
LINE
8
0
10
115.375654
20
170.104914
30
0.0
11
117.336843
21
170.104914
31
0.0
0
LINE
8
0
10
117.336843
20
170.104914
30
0.0
11
118.336636
21
169.841383
31
0.0
0
ARC
8
0
10
118.426357
20
170.127652
30
0.0
40
0.300000
50
252.598279
51
330.367342
0
ARC
8
0
10
118.860964
20
169.880434
30
0.0
40
0.200000
50
90.000000
51
150.367342
0
LINE
8
0
10
118.862366
20
170.080429
30
0.0
11
120.413460
21
170.080429
31
0.0
0
ARC
8
0
10
120.413460
20
169.780429
30
0.0
40
0.300000
50
342.598279
51
90.000000
0
LINE
8
0
10
120.699729
20
169.690708
30
0.0
11
120.097765
21
167.770039
31
0.0
0
ARC
8
0
10
119.334380
20
168.009295
30
0.0
40
0.800000
50
297.598279
51
342.598279
0
LINE
8
0
10
119.704995
20
167.300321
30
0.0
11
119.423925
21
167.153392
31
0.0
0
ARC
8
0
10
119.331271
20
167.330635
30
0.0
40
0.200000
50
180.000000
51
297.598279
0
LINE
8
0
10
119.131447
20
167.339016
30
0.0
11
119.143544
21
167.627438
31
0.0
0
LINE
8
0
10
119.143544
20
167.627438
30
0.0
11
117.435447
21
168.711501
31
0.0
0
ARC
8
0
10
117.113936
20
168.204914
30
0.0
40
0.600000
50
57.598279
51
90.000000
0
LINE
8
0
10
117.113936
20
168.804914
30
0.0
11
117.075654
21
168.804914
31
0.0
0
ARC
8
0
10
117.175654
20
168.522071
30
0.0
40
0.300000
50
109.471221
51
250.528779
0
LINE
8
0
10
117.075654
20
168.239228
30
0.0
11
117.075654
21
164.204914
31
0.0
0
ARC
8
0
10
117.375654
20
164.204914
30
0.0
40
0.300000
50
180.000000
51
270.000000
0
LINE
8
0
10
117.375654
20
163.904914
30
0.0
11
117.595269
21
163.904914
31
0.0
0
ARC
8
0
10
117.595269
20
164.204914
30
0.0
40
0.300000
50
270.000000
51
301.000000
0
LINE
8
0
10
117.749781
20
163.947764
30
0.0
11
119.272646
21
164.862794
31
0.0
0
ARC
8
0
10
119.375654
20
164.691360
30
0.0
40
0.200000
50
0.000000
51
121.000000
0
LINE
8
0
10
119.575654
20
164.691360
30
0.0
11
119.575654
21
163.500769
31
0.0
0
ARC
8
0
10
118.575654
20
163.500769
30
0.0
40
1.000000
50
300.000000
51
0.000000
0
LINE
8
0
10
119.075654
20
162.634743
30
0.0
11
117.225654
21
161.566645
31
0.0
0
ARC
8
0
10
117.375654
20
161.306838
30
0.0
40
0.300000
50
120.000000
51
180.000000
0
LINE
8
0
10
117.075654
20
161.306838
30
0.0
11
117.075654
21
156.802692
31
0.0
0
ARC
8
0
10
116.775654
20
156.802692
30
0.0
40
0.300000
50
270.000000
51
0.000000
0
LINE
8
0
10
116.775654
20
156.502692
30
0.0
11
110.475396
21
156.502692
31
0.0
0
ARC
8
0
10
110.475396
20
156.202692
30
0.0
40
0.300000
50
90.000000
51
180.000000
0
LINE
8
0
10
110.175396
20
156.202692
30
0.0
11
110.175396
21
123.607135
31
0.0
0
ARC
8
0
10
150.675912
20
116.905080
30
0.0
40
0.400000
50
270.000000
51
0.000000
0
LINE
8
0
10
150.675912
20
116.505080
30
0.0
11
150.496297
21
116.505080
31
0.0
0
LINE
8
0
10
151.075912
20
120.305080
30
0.0
11
151.075912
21
116.905080
31
0.0
0
ARC
8
0
10
150.496297
20
116.805080
30
0.0
40
0.300000
50
239.999655
51
270.000000
0
ARC
8
0
10
150.675912
20
120.305080
30
0.0
40
0.400000
50
0.000000
51
90.000000
0
LINE
8
0
10
150.346296
20
116.545274
30
0.0
11
148.615943
21
117.544307
31
0.0
0
LINE
8
0
10
150.496296
20
120.705080
30
0.0
11
150.675912
21
120.705080
31
0.0
0
LINE
8
0
10
148.615943
20
117.544307
30
0.0
11
148.317818
21
117.716415
31
0.0
0
ARC
8
0
10
150.496296
20
120.405080
30
0.0
40
0.300000
50
90.000000
51
120.000000
0
ARC
8
0
10
148.167828
20
117.456602
30
0.0
40
0.300000
50
60.002085
51
155.566145
0
LINE
8
0
10
148.615970
20
119.665884
30
0.0
11
150.346296
21
120.664888
31
0.0
0
LINE
8
0
10
147.894696
20
117.580695
30
0.0
11
146.674341
21
114.894657
31
0.0
0
ARC
8
0
10
148.015970
20
120.705114
30
0.0
40
1.200000
50
270.000000
51
300.000000
0
ARC
8
0
10
146.220700
20
115.104920
30
0.0
40
0.500000
50
270.000000
51
335.132290
0
LINE
8
0
10
120.135558
20
119.505069
30
0.0
11
148.015972
21
119.505114
31
0.0
0
LINE
8
0
10
146.220700
20
114.604920
30
0.0
11
121.930768
21
114.604908
31
0.0
0
ARC
8
0
10
120.135556
20
120.705069
30
0.0
40
1.200000
50
240.000000
51
270.000000
0
ARC
8
0
10
121.930768
20
115.104908
30
0.0
40
0.500000
50
204.000000
51
270.000000
0
LINE
8
0
10
117.805172
20
120.664877
30
0.0
11
119.535556
21
119.665838
31
0.0
0
LINE
8
0
10
121.473995
20
114.901540
30
0.0
11
120.458029
21
117.183437
31
0.0
0
ARC
8
0
10
117.655172
20
120.405069
30
0.0
40
0.300000
50
60.000000
51
90.000000
0
ARC
8
0
10
120.732093
20
117.305458
30
0.0
40
0.300000
50
90.000000
51
204.000000
0
LINE
8
0
10
117.475556
20
120.705069
30
0.0
11
117.655172
21
120.705069
31
0.0
0
LINE
8
0
10
120.733854
20
117.605453
30
0.0
11
121.740307
21
117.599545
31
0.0
0
ARC
8
0
10
117.475556
20
120.305069
30
0.0
40
0.400000
50
90.000000
51
180.000000
0
ARC
8
0
10
121.738546
20
117.299550
30
0.0
40
0.300000
50
35.002354
51
90.000000
0
LINE
8
0
10
117.075556
20
116.905069
30
0.0
11
117.075556
21
120.305069
31
0.0
0
LINE
8
0
10
121.984285
20
117.471633
30
0.0
11
122.451127
21
116.804972
31
0.0
0
ARC
8
0
10
117.475556
20
116.905069
30
0.0
40
0.400000
50
180.000000
51
270.000000
0
ARC
8
0
10
122.328258
20
116.718931
30
0.0
40
0.150000
50
287.128706
51
35.002354
0
LINE
8
0
10
117.655171
20
116.505069
30
0.0
11
117.475556
21
116.505069
31
0.0
0
LINE
8
0
10
122.372435
20
116.575584
30
0.0
11
122.258422
21
116.540446
31
0.0
0
ARC
8
0
10
117.655171
20
116.805069
30
0.0
40
0.300000
50
270.000000
51
300.000345
0
ARC
8
0
10
122.317326
20
116.349317
30
0.0
40
0.200000
50
107.128706
51
217.522757
0
LINE
8
0
10
119.535525
20
117.544296
30
0.0
11
117.805172
21
116.545262
31
0.0
0
LINE
8
0
10
122.158704
20
116.227502
30
0.0
11
122.628965
21
115.615149
31
0.0
0
ARC
8
0
10
120.135531
20
116.505069
30
0.0
40
1.200000
50
90.000000
51
120.000345
0
ARC
8
0
10
122.866899
20
115.797872
30
0.0
40
0.300000
50
217.522757
51
270.000000
0
LINE
8
0
10
121.707357
20
117.705069
30
0.0
11
120.135531
21
117.705069
31
0.0
0
LINE
8
0
10
122.866723
20
115.497872
30
0.0
11
123.350918
21
115.497589
31
0.0
0
ARC
8
0
10
121.707357
20
117.405069
30
0.0
40
0.300000
50
35.885612
51
90.000000
0
ARC
8
0
10
123.351093
20
115.797589
30
0.0
40
0.300000
50
270.000000
51
18.015506
0
LINE
8
0
10
122.479164
20
116.850093
30
0.0
11
121.950414
21
117.580920
31
0.0
0
LINE
8
0
10
123.636385
20
115.890371
30
0.0
11
123.439503
21
116.495754
31
0.0
0
ARC
8
0
10
122.317126
20
116.732859
30
0.0
40
0.200000
50
288.581915
51
35.885612
0
ARC
8
0
10
123.724795
20
116.588537
30
0.0
40
0.300000
50
17.834933
51
198.015506
0
LINE
8
0
10
122.269423
20
116.505823
30
0.0
11
122.380858
21
116.543286
31
0.0
0
LINE
8
0
10
124.010378
20
116.680419
30
0.0
11
124.321625
21
115.713025
31
0.0
0
ARC
8
0
10
122.317222
20
116.363642
30
0.0
40
0.150000
50
108.581915
51
237.436866
0
ARC
8
0
10
124.607207
20
115.804908
30
0.0
40
0.300000
50
197.834933
51
270.000000
0
LINE
8
0
10
122.622103
20
115.990961
30
0.0
11
122.236488
21
116.237222
31
0.0
0
LINE
8
0
10
124.607208
20
115.504908
30
0.0
11
145.062847
21
115.504920
31
0.0
0
ARC
8
0
10
122.783571
20
116.243801
30
0.0
40
0.300000
50
237.436866
51
270.000000
0
ARC
8
0
10
145.062847
20
115.204920
30
0.0
40
0.300000
50
34.690292
51
90.000000
0
LINE
8
0
10
123.121554
20
115.943857
30
0.0
11
122.783622
21
115.943801
31
0.0
0
ARC
8
0
10
145.556191
20
115.546404
30
0.0
40
0.300000
50
214.690292
51
32.065684
0
ARC
8
0
10
123.121504
20
116.243857
30
0.0
40
0.300000
50
270.000000
51
22.907135
0
ARC
8
0
10
146.064655
20
115.864938
30
0.0
40
0.300000
50
156.000000
51
212.065684
0
LINE
8
0
10
123.123254
20
117.010451
30
0.0
11
123.397845
21
116.360629
31
0.0
0
LINE
8
0
10
145.790591
20
115.986959
30
0.0
11
146.242389
21
117.001713
31
0.0
0
ARC
8
0
10
123.583822
20
117.205070
30
0.0
40
0.500000
50
90.000000
51
202.907135
0
ARC
8
0
10
145.785616
20
117.205082
30
0.0
40
0.500000
50
336.000000
51
90.000000
0
LINE
8
0
10
145.785616
20
117.705082
30
0.0
11
123.583822
21
117.705070
31
0.0
0
ARC
8
0
10
150.676009
20
167.804753
30
0.0
40
0.400000
50
0.000000
51
90.000000
0
LINE
8
0
10
151.076009
20
164.404753
30
0.0
11
151.076009
21
167.804753
31
0.0
0
LINE
8
0
10
150.676009
20
168.204753
30
0.0
11
150.496395
21
168.204753
31
0.0
0
ARC
8
0
10
150.676009
20
164.404753
30
0.0
40
0.400000
50
270.000000
51
0.000000
0
ARC
8
0
10
150.496395
20
167.904753
30
0.0
40
0.300000
50
90.000000
51
120.000345
0
LINE
8
0
10
150.496394
20
164.004753
30
0.0
11
150.676009
21
164.004753
31
0.0
0
LINE
8
0
10
150.346394
20
168.164560
30
0.0
11
148.616041
21
167.165526
31
0.0
0
ARC
8
0
10
150.496394
20
164.304753
30
0.0
40
0.300000
50
240.000000
51
270.000000
0
LINE
8
0
10
148.616041
20
167.165526
30
0.0
11
148.317916
21
166.993418
31
0.0
0
LINE
8
0
10
148.616068
20
165.043950
30
0.0
11
150.346394
21
164.044945
31
0.0
0
ARC
8
0
10
148.167925
20
167.253231
30
0.0
40
0.300000
50
204.433855
51
299.997915
0
ARC
8
0
10
148.016068
20
164.004719
30
0.0
40
1.200000
50
60.000000
51
90.000000
0
LINE
8
0
10
147.894793
20
167.129138
30
0.0
11
146.674438
21
169.815176
31
0.0
0
LINE
8
0
10
120.135656
20
165.204764
30
0.0
11
148.016070
21
165.204719
31
0.0
0
ARC
8
0
10
146.220798
20
169.604914
30
0.0
40
0.500000
50
24.867710
51
90.000000
0
ARC
8
0
10
120.135654
20
164.004764
30
0.0
40
1.200000
50
90.000000
51
120.000000
0
LINE
8
0
10
146.220798
20
170.104914
30
0.0
11
121.930866
21
170.104925
31
0.0
0
LINE
8
0
10
117.805269
20
164.044957
30
0.0
11
119.535654
21
165.043995
31
0.0
0
ARC
8
0
10
121.930866
20
169.604925
30
0.0
40
0.500000
50
90.000000
51
156.000000
0
ARC
8
0
10
117.655269
20
164.304764
30
0.0
40
0.300000
50
270.000000
51
300.000000
0
LINE
8
0
10
121.474093
20
169.808294
30
0.0
11
120.458127
21
167.526396
31
0.0
0
LINE
8
0
10
117.475654
20
164.004764
30
0.0
11
117.655269
21
164.004764
31
0.0
0
ARC
8
0
10
120.732190
20
167.404375
30
0.0
40
0.300000
50
156.000000
51
270.000000
0
ARC
8
0
10
117.475654
20
164.404764
30
0.0
40
0.400000
50
180.000000
51
270.000000
0
LINE
8
0
10
120.733951
20
167.104381
30
0.0
11
121.740405
21
167.110288
31
0.0
0
LINE
8
0
10
117.075654
20
167.804764
30
0.0
11
117.075654
21
164.404764
31
0.0
0
ARC
8
0
10
121.738644
20
167.410283
30
0.0
40
0.300000
50
270.000000
51
324.997646
0
ARC
8
0
10
117.475654
20
167.804764
30
0.0
40
0.400000
50
90.000000
51
180.000000
0
LINE
8
0
10
121.984383
20
167.238200
30
0.0
11
122.451225
21
167.904861
31
0.0
0
LINE
8
0
10
117.655268
20
168.204764
30
0.0
11
117.475654
21
168.204764
31
0.0
0
ARC
8
0
10
122.328355
20
167.990902
30
0.0
40
0.150000
50
324.997646
51
72.871294
0
ARC
8
0
10
117.655268
20
167.904764
30
0.0
40
0.300000
50
59.999655
51
90.000000
0
LINE
8
0
10
122.372533
20
168.134249
30
0.0
11
122.258520
21
168.169387
31
0.0
0
LINE
8
0
10
119.535623
20
167.165538
30
0.0
11
117.805270
21
168.164571
31
0.0
0
ARC
8
0
10
122.317424
20
168.360516
30
0.0
40
0.200000
50
142.477243
51
252.871294
0
ARC
8
0
10
120.135629
20
168.204764
30
0.0
40
1.200000
50
239.999655
51
270.000000
0
LINE
8
0
10
122.158801
20
168.482331
30
0.0
11
122.629063
21
169.094684
31
0.0
0
LINE
8
0
10
121.707455
20
167.004764
30
0.0
11
120.135629
21
167.004764
31
0.0
0
ARC
8
0
10
122.866996
20
168.911961
30
0.0
40
0.300000
50
90.000000
51
142.477243
0
ARC
8
0
10
121.707455
20
167.304764
30
0.0
40
0.300000
50
270.000000
51
324.114388
0
LINE
8
0
10
122.866821
20
169.211961
30
0.0
11
123.351015
21
169.212245
31
0.0
0
LINE
8
0
10
122.479262
20
167.859740
30
0.0
11
121.950511
21
167.128914
31
0.0
0
ARC
8
0
10
123.351191
20
168.912245
30
0.0
40
0.300000
50
341.984494
51
90.000000
0
ARC
8
0
10
122.317224
20
167.976974
30
0.0
40
0.200000
50
324.114388
51
71.418085
0
LINE
8
0
10
123.636483
20
168.819462
30
0.0
11
123.439601
21
168.214079
31
0.0
0
LINE
8
0
10
122.269521
20
168.204011
30
0.0
11
122.380956
21
168.166548
31
0.0
0
ARC
8
0
10
123.724892
20
168.121297
30
0.0
40
0.300000
50
161.984494
51
342.165067
0
ARC
8
0
10
122.317320
20
168.346191
30
0.0
40
0.150000
50
122.563134
51
251.418085
0
LINE
8
0
10
124.010475
20
168.029414
30
0.0
11
124.321722
21
168.996808
31
0.0
0
LINE
8
0
10
122.622200
20
168.718872
30
0.0
11
122.236585
21
168.472611
31
0.0
0
ARC
8
0
10
124.607305
20
168.904925
30
0.0
40
0.300000
50
90.000000
51
162.165067
0
ARC
8
0
10
122.783669
20
168.466033
30
0.0
40
0.300000
50
90.000000
51
122.563134
0
LINE
8
0
10
124.607305
20
169.204925
30
0.0
11
145.062944
21
169.204914
31
0.0
0
LINE
8
0
10
123.121652
20
168.765976
30
0.0
11
122.783719
21
168.766033
31
0.0
0
ARC
8
0
10
145.062944
20
169.504914
30
0.0
40
0.300000
50
270.000000
51
325.309708
0
ARC
8
0
10
123.121601
20
168.465976
30
0.0
40
0.300000
50
337.092865
51
90.000000
0
ARC
8
0
10
145.556289
20
169.163430
30
0.0
40
0.300000
50
327.934316
51
145.309708
0
LINE
8
0
10
123.123352
20
167.699382
30
0.0
11
123.397942
21
168.349204
31
0.0
0
ARC
8
0
10
146.064753
20
168.844895
30
0.0
40
0.300000
50
147.934316
51
204.000000
0
ARC
8
0
10
123.583920
20
167.504763
30
0.0
40
0.500000
50
157.092865
51
270.000000
0
LINE
8
0
10
145.790689
20
168.722874
30
0.0
11
146.242487
21
167.708120
31
0.0
0
LINE
8
0
10
145.785714
20
167.004752
30
0.0
11
123.583920
21
167.004763
31
0.0
0
ARC
8
0
10
145.785714
20
167.504752
30
0.0
40
0.500000
50
270.000000
51
24.000000
0
ATTDEF
8
0
10
117.336843
20
170.104914
30
0.0
40
3.5
1

3

2
VC_START
70
0
0
ATTDEF
8
0
10
150.853597
20
114.604914
30
0.0
40
3.5
1

3

2
VC_END
70
0
0
ATTDEF
8
0
10
108.175396
20
96.104914
30
0.0
40
3.5
1

3

2
JY:0.000000
70
0
0
ATTDEF
8
0
10
108.175396
20
96.104914
30
0.0
40
3.5
1

3

2
WY:0.000000
70
0
0
ATTDEF
8
0
10
108.175396
20
96.104914
30
0.0
40
3.5
1

3

2
DESC:Anta Z per incollaggio Pannello
70
0
0
ATTDEF
8
0
10
108.175396
20
96.104914
30
0.0
40
3.5
1

3

2
DENS:1.850000
70
0
0
ATTDEF
8
0
10
108.175396
20
96.104914
30
0.0
40
3.5
1

3

2
TDEV:0.000000
70
0
0
ATTDEF
8
0
10
108.175396
20
96.104914
30
0.0
40
3.5
1

3

2
TDEV2:0.000000
70
0
0
ATTDEF
8
0
10
108.175396
20
96.104914
30
0.0
40
3.5
1

3

2
TDEV3:0.000000
70
0
0
ATTDEF
8
0
10
108.175396
20
96.104914
30
0.0
40
3.5
1

3

2
TDEV4:0.000000
70
0
0
ATTDEF
8
0
10
108.175396
20
96.104914
30
0.0
40
3.5
1

3

2
TDEV5:0.000000
70
0
0
ATTDEF
8
0
10
108.175396
20
96.104914
30
0.0
40
3.5
1

3

2
FRONT_VIEW
70
0
0
ATTDEF
8
0
10
108.175396
20
96.104914
30
0.0
40
3.5
1

3

2
BL01:6800.000000,,1
70
0
0
ATTDEF
8
0
10
108.175396
20
96.104914
30
0.0
40
3.5
1

3

2
OPTI:500.000000,1,0,3000.000000,6500.000000,500.000000,0,0.000000,0
70
0
0
ATTDEF
8
0
10
108.175396
20
96.104914
30
0.0
40
3.5
1

3

2
PANE_WIDTH:0.000000
70
0
0
ATTDEF
8
0
10
108.175396
20
96.104914
30
0.0
40
3.5
1

3

2
GLASS_MIN:0.000000
70
0
0
ATTDEF
8
0
10
108.175396
20
96.104914
30
0.0
40
3.5
1

3

2
GLASS_MAX:0.000000
70
0
0
ATTDEF
8
0
10
108.175396
20
96.104914
30
0.0
40
3.5
1

3

2
JX:0.000000
70
0
0
ATTDEF
8
0
10
108.175396
20
96.104914
30
0.0
40
3.5
1

3

2
WX:0.000000
70
0
0
ATTDEF
8
0
10
108.175396
20
96.104914
30
0.0
40
3.5
1

3

2
JY:0.000000
70
0
0
ATTDEF
8
0
10
108.175396
20
96.104914
30
0.0
40
3.5
1

3

2
WY:0.000000
70
0
0
ATTDEF
8
0
10
108.175396
20
96.104914
30
0.0
40
3.5
1

3

2
FP_LCS_ORIG
70
0
0
ATTDEF
8
0
10
118.175396
20
96.104914
30
0.0
40
3.5
1

3

2
FP_LCS_HOT
70
0
0
ATTDEF
8
0
10
108.175396
20
106.104914
30
0.0
40
3.5
1

3

2
FP_LCS_INTERN
70
0
0
ENDSEC
0
EOF
