0
SECTION
2
ENTITIES
0
ARC
8
0
10
3.800000
20
8.200000
30
0.0
40
0.700000
50
270.000000
51
360.000000
0
ARC
8
0
10
3.800000
20
7.800000
30
0.0
40
0.300000
50
180.000000
51
270.000000
0
LINE
8
0
6
0
10
3.500000
20
7.800000
30
0.0
11
3.500000
21
8.500000
31
0.0
0
ARC
8
0
10
3.200000
20
8.500000
30
0.0
40
0.300000
50
360.000000
51
90.000000
0
LINE
8
0
6
0
10
3.200000
20
8.800000
30
0.0
11
2.000000
21
8.800000
31
0.0
0
ARC
8
0
10
2.000000
20
8.100000
30
0.0
40
0.700000
50
90.000000
51
180.000000
0
LINE
8
0
6
0
10
1.300000
20
8.100000
30
0.0
11
1.300000
21
1.900000
31
0.0
0
ARC
8
0
10
2.000000
20
1.900000
30
0.0
40
0.700000
50
180.000000
51
270.000000
0
LINE
8
0
6
0
10
2.000000
20
1.200000
30
0.0
11
3.200000
21
1.200000
31
0.0
0
ARC
8
0
10
3.200000
20
1.500000
30
0.0
40
0.300000
50
270.000000
51
360.000000
0
LINE
8
0
6
0
10
3.500000
20
1.500000
30
0.0
11
3.500000
21
2.200000
31
0.0
0
ARC
8
0
10
3.800000
20
2.200000
30
0.0
40
0.300000
50
90.000000
51
180.000000
0
ARC
8
0
10
3.800000
20
1.800000
30
0.0
40
0.700000
50
360.000000
51
90.000000
0
LINE
8
0
6
0
10
4.500000
20
1.800000
30
0.0
11
4.500000
21
0.300000
31
0.0
0
ARC
8
0
10
4.200000
20
0.300000
30
0.0
40
0.300000
50
270.000000
51
360.000000
0
LINE
8
0
6
0
10
4.200000
20
0.000000
30
0.0
11
0.500000
21
0.000000
31
0.0
0
ARC
8
0
10
0.500000
20
0.500000
30
0.0
40
0.500000
50
180.000000
51
270.000000
0
LINE
8
0
6
0
10
0.000000
20
0.500000
30
0.0
11
0.000000
21
95.699972
31
0.0
0
ARC
8
0
10
0.300000
20
95.699972
30
0.0
40
0.300000
50
90.000000
51
180.000000
0
LINE
8
0
6
0
10
0.300000
20
95.999972
30
0.0
11
4.200000
21
95.999972
31
0.0
0
ARC
8
0
10
4.200000
20
95.699972
30
0.0
40
0.300000
50
360.000000
51
90.000000
0
LINE
8
0
6
0
10
4.500000
20
95.699972
30
0.0
11
4.500000
21
94.199972
31
0.0
0
ARC
8
0
10
3.800000
20
94.199972
30
0.0
40
0.700000
50
270.000000
51
360.000000
0
ARC
8
0
10
3.800000
20
93.799972
30
0.0
40
0.300000
50
180.000000
51
270.000000
0
LINE
8
0
6
0
10
3.500000
20
93.799972
30
0.0
11
3.500000
21
94.499972
31
0.0
0
ARC
8
0
10
3.200000
20
94.499972
30
0.0
40
0.300000
50
360.000000
51
90.000000
0
LINE
8
0
6
0
10
3.200000
20
94.799972
30
0.0
11
2.000000
21
94.799972
31
0.0
0
ARC
8
0
10
2.000000
20
94.099972
30
0.0
40
0.700000
50
90.000000
51
180.000000
0
LINE
8
0
6
0
10
1.300000
20
94.099972
30
0.0
11
1.300000
21
87.899972
31
0.0
0
ARC
8
0
10
2.000000
20
87.899972
30
0.0
40
0.700000
50
180.000000
51
270.000000
0
LINE
8
0
6
0
10
2.000000
20
87.199972
30
0.0
11
3.200000
21
87.199972
31
0.0
0
ARC
8
0
10
3.200000
20
87.499972
30
0.0
40
0.300000
50
270.000000
51
360.000000
0
LINE
8
0
6
0
10
3.500000
20
87.499972
30
0.0
11
3.500000
21
88.199972
31
0.0
0
ARC
8
0
10
3.800000
20
88.199972
30
0.0
40
0.300000
50
90.000000
51
180.000000
0
ARC
8
0
10
3.800000
20
87.799972
30
0.0
40
0.700000
50
360.000000
51
90.000000
0
LINE
8
0
6
0
10
4.500000
20
87.799972
30
0.0
11
4.500000
21
84.799972
31
0.0
0
ARC
8
0
10
4.200000
20
84.799972
30
0.0
40
0.300000
50
270.000000
51
360.000000
0
LINE
8
0
6
0
10
4.200000
20
84.499972
30
0.0
11
3.800000
21
84.499972
31
0.0
0
ARC
8
0
10
3.800000
20
84.799972
30
0.0
40
0.300000
50
180.000000
51
270.000000
0
LINE
8
0
6
0
10
3.500000
20
84.799972
30
0.0
11
3.500000
21
85.699972
31
0.0
0
ARC
8
0
10
3.200000
20
85.699972
30
0.0
40
0.300000
50
360.000000
51
90.000000
0
LINE
8
0
6
0
10
3.200000
20
85.999972
30
0.0
11
1.800000
21
85.999972
31
0.0
0
ARC
8
0
10
1.800000
20
85.699972
30
0.0
40
0.300000
50
90.000000
51
180.000000
0
LINE
8
0
6
0
10
1.500000
20
85.699972
30
0.0
11
1.500000
21
71.999972
31
0.0
0
ARC
8
0
10
2.500000
20
71.999972
30
0.0
40
1.000000
50
180.000000
51
270.000000
0
LINE
8
0
6
0
10
2.500000
20
70.999972
30
0.0
11
9.700000
21
70.999972
31
0.0
0
ARC
8
0
10
9.700000
20
71.299972
30
0.0
40
0.300000
50
270.000000
51
360.000000
0
LINE
8
0
6
0
10
10.000000
20
71.299972
30
0.0
11
10.000000
21
73.699972
31
0.0
0
ARC
8
0
10
10.300000
20
73.699972
30
0.0
40
0.300000
50
90.000000
51
180.000000
0
LINE
8
0
6
0
10
10.300000
20
73.999972
30
0.0
11
12.222315
21
73.999972
31
0.0
0
LINE
8
0
6
0
10
12.298779
20
73.990064
30
0.0
11
12.222315
21
73.999972
31
0.0
0
LINE
8
0
6
0
10
12.298779
20
73.990064
30
0.0
11
13.260982
21
73.736441
31
0.0
0
ARC
8
0
10
13.350703
20
74.022711
30
0.0
40
0.300000
50
252.598279
51
330.367342
0
ARC
8
0
10
13.785309
20
73.775492
30
0.0
40
0.200000
50
90.000000
51
150.367342
0
LINE
8
0
6
0
10
13.786712
20
73.975487
30
0.0
11
15.337806
21
73.975487
31
0.0
0
ARC
8
0
10
15.337806
20
73.675487
30
0.0
40
0.300000
50
342.598279
51
90.000000
0
LINE
8
0
6
0
10
15.624075
20
73.585766
30
0.0
11
15.022111
21
71.665097
31
0.0
0
ARC
8
0
10
14.258726
20
71.904353
30
0.0
40
0.800000
50
297.598279
51
342.598279
0
LINE
8
0
6
0
10
14.629341
20
71.195379
30
0.0
11
14.348271
21
71.048450
31
0.0
0
ARC
8
0
10
14.255617
20
71.225693
30
0.0
40
0.200000
50
180.000000
51
297.598279
0
LINE
8
0
6
0
10
14.055793
20
71.234074
30
0.0
11
14.067890
21
71.522496
31
0.0
0
LINE
8
0
6
0
10
14.067890
20
71.522496
30
0.0
11
12.359793
21
72.606559
31
0.0
0
ARC
8
0
10
12.038282
20
72.099972
30
0.0
40
0.600000
50
57.598279
51
90.000000
0
LINE
8
0
6
0
10
12.038282
20
72.699972
30
0.0
11
12.000000
21
72.699972
31
0.0
0
ARC
8
0
10
12.100000
20
72.417129
30
0.0
40
0.300000
50
109.471221
51
250.528779
0
LINE
8
0
6
0
10
12.000000
20
72.134286
30
0.0
11
12.000000
21
68.099972
31
0.0
0
ARC
8
0
10
12.300000
20
68.099972
30
0.0
40
0.300000
50
180.000000
51
270.000000
0
LINE
8
0
6
0
10
12.300000
20
67.799972
30
0.0
11
12.519615
21
67.799972
31
0.0
0
ARC
8
0
10
12.519615
20
68.099972
30
0.0
40
0.300000
50
270.000000
51
300.000000
0
LINE
8
0
6
0
10
12.669615
20
67.840164
30
0.0
11
14.200000
21
68.723732
31
0.0
0
ARC
8
0
10
14.300000
20
68.550527
30
0.0
40
0.200000
50
360.000000
51
120.000000
0
LINE
8
0
6
0
10
14.500000
20
68.550527
30
0.0
11
14.500000
21
67.395827
31
0.0
0
ARC
8
0
10
13.500000
20
67.395827
30
0.0
40
1.000000
50
300.000000
51
360.000000
0
LINE
8
0
6
0
10
14.000000
20
66.529801
30
0.0
11
12.500000
21
65.663776
31
0.0
0
ARC
8
0
10
13.000000
20
64.797751
30
0.0
40
1.000000
50
120.000000
51
180.000000
0
LINE
8
0
6
0
10
12.000000
20
64.797751
30
0.0
11
12.000000
21
27.999972
31
0.0
0
ARC
8
0
10
12.300000
20
27.999972
30
0.0
40
0.300000
50
180.000000
51
270.000000
0
LINE
8
0
6
0
10
12.300000
20
27.699972
30
0.0
11
14.200000
21
27.699972
31
0.0
0
ARC
8
0
10
14.200000
20
27.399972
30
0.0
40
0.300000
50
360.000000
51
90.000000
0
LINE
8
0
6
0
10
14.500000
20
27.399972
30
0.0
11
14.500000
21
23.949417
31
0.0
0
ARC
8
0
10
14.300000
20
23.949417
30
0.0
40
0.200000
50
240.000000
51
360.000000
0
LINE
8
0
6
0
10
14.200000
20
23.776211
30
0.0
11
12.669615
21
24.659780
31
0.0
0
ARC
8
0
10
12.519615
20
24.399972
30
0.0
40
0.300000
50
60.000000
51
90.000000
0
LINE
8
0
6
0
10
12.519615
20
24.699972
30
0.0
11
12.300000
21
24.699972
31
0.0
0
ARC
8
0
10
12.300000
20
24.399972
30
0.0
40
0.300000
50
90.000000
51
180.000000
0
LINE
8
0
6
0
10
12.000000
20
24.399972
30
0.0
11
12.000000
21
20.365657
31
0.0
0
ARC
8
0
10
12.100000
20
20.082815
30
0.0
40
0.300000
50
109.471221
51
250.528779
0
LINE
8
0
6
0
10
12.000000
20
19.799972
30
0.0
11
12.038282
21
19.799972
31
0.0
0
ARC
8
0
10
12.038282
20
20.399972
30
0.0
40
0.600000
50
270.000000
51
302.401721
0
LINE
8
0
6
0
10
12.359793
20
19.893385
30
0.0
11
14.067890
21
20.977448
31
0.0
0
LINE
8
0
6
0
10
14.067890
20
20.977448
30
0.0
11
14.055793
21
21.265870
31
0.0
0
ARC
8
0
10
14.255617
20
21.274251
30
0.0
40
0.200000
50
62.401721
51
180.000000
0
LINE
8
0
6
0
10
14.348271
20
21.451494
30
0.0
11
14.629341
21
21.304565
31
0.0
0
ARC
8
0
10
14.258726
20
20.595591
30
0.0
40
0.800000
50
17.401721
51
62.401721
0
LINE
8
0
6
0
10
15.022111
20
20.834847
30
0.0
11
15.624075
21
18.914178
31
0.0
0
ARC
8
0
10
15.337806
20
18.824457
30
0.0
40
0.300000
50
270.000000
51
17.401721
0
LINE
8
0
6
0
10
15.337806
20
18.524457
30
0.0
11
13.786712
21
18.524457
31
0.0
0
ARC
8
0
10
13.785309
20
18.724452
30
0.0
40
0.200000
50
209.632658
51
270.000000
0
ARC
8
0
10
13.350703
20
18.477233
30
0.0
40
0.300000
50
29.632658
51
107.401721
0
LINE
8
0
6
0
10
13.260982
20
18.763503
30
0.0
11
12.298779
21
18.509880
31
0.0
0
LINE
8
0
6
0
10
12.222315
20
18.499972
30
0.0
11
12.298779
21
18.509880
31
0.0
0
LINE
8
0
6
0
10
12.222315
20
18.499972
30
0.0
11
2.800000
21
18.499972
31
0.0
0
ARC
8
0
10
2.800000
20
17.499972
30
0.0
40
1.000000
50
90.000000
51
180.000000
0
LINE
8
0
6
0
10
1.800000
20
17.499972
30
0.0
11
1.800000
21
10.300000
31
0.0
0
ARC
8
0
10
2.100000
20
10.300000
30
0.0
40
0.300000
50
180.000000
51
270.000000
0
LINE
8
0
6
0
10
2.100000
20
10.000000
30
0.0
11
4.200000
21
10.000000
31
0.0
0
ARC
8
0
10
4.200000
20
9.700000
30
0.0
40
0.300000
50
360.000000
51
90.000000
0
LINE
8
0
6
0
10
4.500000
20
9.700000
30
0.0
11
4.500000
21
8.200000
31
0.0
0
LINE
8
0
6
0
10
3.000000
20
25.199972
30
0.0
11
2.100000
21
25.199972
31
0.0
0
ARC
8
0
10
2.100000
20
24.899972
30
0.0
40
0.300000
50
90.000000
51
180.000000
0
LINE
8
0
6
0
10
1.800000
20
24.899972
30
0.0
11
1.800000
21
20.600000
31
0.0
0
ARC
8
0
10
2.100000
20
20.600000
30
0.0
40
0.300000
50
180.000000
51
270.000000
0
LINE
8
0
6
0
10
2.100000
20
20.300000
30
0.0
11
10.100000
21
20.300000
31
0.0
0
ARC
8
0
10
10.100000
20
20.600000
30
0.0
40
0.300000
50
270.000000
51
360.000000
0
LINE
8
0
6
0
10
10.400000
20
20.600000
30
0.0
11
10.400000
21
24.899972
31
0.0
0
ARC
8
0
10
10.100000
20
24.899972
30
0.0
40
0.300000
50
360.000000
51
90.000000
0
LINE
8
0
6
0
10
10.100000
20
25.199972
30
0.0
11
9.200000
21
25.199972
31
0.0
0
ARC
8
0
10
9.200000
20
25.499972
30
0.0
40
0.300000
50
180.000000
51
270.000000
0
LINE
8
0
6
0
10
8.900000
20
25.499972
30
0.0
11
8.900000
21
26.399972
31
0.0
0
ARC
8
0
10
9.200000
20
26.399972
30
0.0
40
0.300000
50
90.000000
51
180.000000
0
LINE
8
0
6
0
10
9.200000
20
26.699972
30
0.0
11
10.100000
21
26.699972
31
0.0
0
ARC
8
0
10
10.100000
20
26.999972
30
0.0
40
0.300000
50
270.000000
51
360.000000
0
LINE
8
0
6
0
10
10.400000
20
26.999972
30
0.0
11
10.400000
21
68.999972
31
0.0
0
ARC
8
0
10
10.100000
20
68.999972
30
0.0
40
0.300000
50
360.000000
51
90.000000
0
LINE
8
0
6
0
10
10.100000
20
69.299972
30
0.0
11
2.100000
21
69.299972
31
0.0
0
ARC
8
0
10
2.100000
20
68.999972
30
0.0
40
0.300000
50
90.000000
51
180.000000
0
LINE
8
0
6
0
10
1.800000
20
68.999972
30
0.0
11
1.800000
21
26.999972
31
0.0
0
ARC
8
0
10
2.100000
20
26.999972
30
0.0
40
0.300000
50
180.000000
51
270.000000
0
LINE
8
0
6
0
10
2.100000
20
26.699972
30
0.0
11
3.000000
21
26.699972
31
0.0
0
ARC
8
0
10
3.000000
20
26.399972
30
0.0
40
0.300000
50
360.000000
51
90.000000
0
LINE
8
0
6
0
10
3.300000
20
26.399972
30
0.0
11
3.300000
21
25.499972
31
0.0
0
ARC
8
0
10
3.000000
20
25.499972
30
0.0
40
0.300000
50
270.000000
51
360.000000
0
ARC
8
0
10
73.000257
20
33.855854
30
0.0
40
0.300000
50
180.000000
51
255.000000
0
LINE
8
0
6
0
10
72.700257
20
33.855854
30
0.0
11
72.700257
21
34.498861
31
0.0
0
ARC
8
0
10
73.000257
20
34.498861
30
0.0
40
0.300000
50
90.000000
51
180.000000
0
LINE
8
0
6
0
10
73.000257
20
34.798861
30
0.0
11
74.900257
21
34.798861
31
0.0
0
ARC
8
0
10
74.900257
20
35.098861
30
0.0
40
0.300000
50
270.000000
51
360.000000
0
LINE
8
0
6
0
10
75.200257
20
35.098861
30
0.0
11
75.200257
21
65.298861
31
0.0
0
ARC
8
0
10
74.900257
20
65.298861
30
0.0
40
0.300000
50
360.000000
51
90.000000
0
LINE
8
0
6
0
10
74.900257
20
65.598861
30
0.0
11
43.400257
21
65.598861
31
0.0
0
ARC
8
0
10
43.400257
20
65.298861
30
0.0
40
0.300000
50
90.000000
51
180.000000
0
LINE
8
0
6
0
10
43.100257
20
65.298861
30
0.0
11
43.100257
21
35.098861
31
0.0
0
ARC
8
0
10
43.400257
20
35.098861
30
0.0
40
0.300000
50
180.000000
51
270.000000
0
LINE
8
0
6
0
10
43.400257
20
34.798861
30
0.0
11
45.300257
21
34.798861
31
0.0
0
ARC
8
0
10
45.300257
20
34.498861
30
0.0
40
0.300000
50
360.000000
51
90.000000
0
LINE
8
0
6
0
10
45.600257
20
34.498861
30
0.0
11
45.600257
21
33.802264
31
0.0
0
ARC
8
0
10
45.300257
20
33.802264
30
0.0
40
0.300000
50
285.000000
51
360.000000
0
LINE
8
0
6
0
10
45.377902
20
33.512487
30
0.0
11
43.322611
21
32.961773
31
0.0
0
ARC
8
0
10
43.400257
20
32.671995
30
0.0
40
0.300000
50
105.000000
51
180.000000
0
LINE
8
0
6
0
10
43.100257
20
32.671995
30
0.0
11
43.100257
21
27.101083
31
0.0
0
ARC
8
0
10
43.400257
20
27.101083
30
0.0
40
0.300000
50
180.000000
51
270.000000
0
LINE
8
0
6
0
10
43.400257
20
26.801083
30
0.0
11
47.104916
21
26.801083
31
0.0
0
ARC
8
0
10
47.104916
20
26.101083
30
0.0
40
0.700000
50
360.000000
51
90.000000
0
LINE
8
0
6
0
10
47.804916
20
26.101083
30
0.0
11
47.804916
21
20.599972
31
0.0
0
ARC
8
0
10
48.104916
20
20.599972
30
0.0
40
0.300000
50
180.000000
51
270.000000
0
LINE
8
0
6
0
10
48.104916
20
20.299972
30
0.0
11
66.150257
21
20.299972
31
0.0
0
ARC
8
0
10
66.150257
20
20.599972
30
0.0
40
0.300000
50
270.000000
51
360.000000
0
LINE
8
0
6
0
10
66.450257
20
20.599972
30
0.0
11
66.450257
21
26.499944
31
0.0
0
ARC
8
0
10
66.750257
20
26.499944
30
0.0
40
0.300000
50
90.000000
51
180.000000
0
LINE
8
0
6
0
10
66.750257
20
26.799944
30
0.0
11
74.900257
21
26.799944
31
0.0
0
ARC
8
0
10
74.900257
20
27.099944
30
0.0
40
0.300000
50
270.000000
51
360.000000
0
LINE
8
0
6
0
10
75.200257
20
27.099944
30
0.0
11
75.200257
21
32.725585
31
0.0
0
ARC
8
0
10
74.900257
20
32.725585
30
0.0
40
0.300000
50
360.000000
51
75.000000
0
LINE
8
0
6
0
10
74.977902
20
33.015363
30
0.0
11
72.922611
21
33.566076
31
0.0
0
ARC
8
0
10
45.600355
20
20.850133
30
0.0
40
0.400000
50
270.000000
51
360.000000
0
LINE
8
0
6
0
10
45.600355
20
20.450133
30
0.0
11
45.420741
21
20.450133
31
0.0
0
LINE
8
0
6
0
10
46.000355
20
24.250133
30
0.0
11
46.000355
21
20.850133
31
0.0
0
ARC
8
0
10
45.420741
20
20.750133
30
0.0
40
0.300000
50
239.999655
51
270.000000
0
ARC
8
0
10
45.600355
20
24.250133
30
0.0
40
0.400000
50
360.000000
51
90.000000
0
LINE
8
0
6
0
10
45.270739
20
20.490326
30
0.0
11
43.540387
21
21.489360
31
0.0
0
LINE
8
0
6
0
10
45.420740
20
24.650133
30
0.0
11
45.600355
21
24.650133
31
0.0
0
LINE
8
0
6
0
10
43.540387
20
21.489360
30
0.0
11
43.242262
21
21.661468
31
0.0
0
ARC
8
0
10
45.420740
20
24.350133
30
0.0
40
0.300000
50
90.000000
51
120.000000
0
ARC
8
0
10
43.092271
20
21.401655
30
0.0
40
0.300000
50
60.002085
51
155.566145
0
LINE
8
0
6
0
10
43.540414
20
23.610936
30
0.0
11
45.270740
21
24.609940
31
0.0
0
LINE
8
0
6
0
10
42.819139
20
21.525747
30
0.0
11
41.598784
21
18.839710
31
0.0
0
ARC
8
0
10
42.940414
20
24.650167
30
0.0
40
1.200000
50
270.000000
51
300.000000
0
ARC
8
0
10
41.145144
20
19.049972
30
0.0
40
0.500000
50
270.000000
51
335.132290
0
LINE
8
0
6
0
10
15.060002
20
23.450121
30
0.0
11
42.940416
21
23.450167
31
0.0
0
LINE
8
0
6
0
10
41.145144
20
18.549972
30
0.0
11
16.855212
21
18.549960
31
0.0
0
ARC
8
0
10
15.060000
20
24.650121
30
0.0
40
1.200000
50
240.000000
51
270.000000
0
ARC
8
0
10
16.855211
20
19.049960
30
0.0
40
0.500000
50
204.000000
51
270.000000
0
LINE
8
0
6
0
10
12.729615
20
24.609929
30
0.0
11
14.460000
21
23.610891
31
0.0
0
LINE
8
0
6
0
10
16.398439
20
18.846592
30
0.0
11
15.382473
21
21.128489
31
0.0
0
ARC
8
0
10
12.579615
20
24.350121
30
0.0
40
0.300000
50
60.000000
51
90.000000
0
ARC
8
0
10
15.656536
20
21.250510
30
0.0
40
0.300000
50
90.000000
51
204.000000
0
LINE
8
0
6
0
10
12.400000
20
24.650121
30
0.0
11
12.579615
21
24.650121
31
0.0
0
LINE
8
0
6
0
10
15.658297
20
21.550505
30
0.0
11
16.664751
21
21.544598
31
0.0
0
ARC
8
0
10
12.400000
20
24.250121
30
0.0
40
0.400000
50
90.000000
51
180.000000
0
ARC
8
0
10
16.662990
20
21.244603
30
0.0
40
0.300000
50
35.002354
51
90.000000
0
LINE
8
0
6
0
10
12.000000
20
20.850121
30
0.0
11
12.000000
21
24.250121
31
0.0
0
LINE
8
0
6
0
10
16.908728
20
21.416686
30
0.0
11
17.375570
21
20.750025
31
0.0
0
ARC
8
0
10
12.400000
20
20.850121
30
0.0
40
0.400000
50
180.000000
51
270.000000
0
ARC
8
0
10
17.252701
20
20.663983
30
0.0
40
0.150000
50
287.128706
51
35.002354
0
LINE
8
0
6
0
10
12.579614
20
20.450121
30
0.0
11
12.400000
21
20.450121
31
0.0
0
LINE
8
0
6
0
10
17.296879
20
20.520636
30
0.0
11
17.182866
21
20.485499
31
0.0
0
ARC
8
0
10
12.579614
20
20.750121
30
0.0
40
0.300000
50
270.000000
51
300.000345
0
ARC
8
0
10
17.241769
20
20.294370
30
0.0
40
0.200000
50
107.128706
51
217.522757
0
LINE
8
0
6
0
10
14.459969
20
21.489348
30
0.0
11
12.729616
21
20.490315
31
0.0
0
LINE
8
0
6
0
10
17.083147
20
20.172554
30
0.0
11
17.553409
21
19.560202
31
0.0
0
ARC
8
0
10
15.059975
20
20.450121
30
0.0
40
1.200000
50
90.000000
51
120.000345
0
ARC
8
0
10
17.791342
20
19.742924
30
0.0
40
0.300000
50
217.522757
51
270.000000
0
LINE
8
0
6
0
10
16.631800
20
21.650121
30
0.0
11
15.059975
21
21.650121
31
0.0
0
LINE
8
0
6
0
10
17.791167
20
19.442925
30
0.0
11
18.275361
21
19.442641
31
0.0
0
ARC
8
0
10
16.631800
20
21.350121
30
0.0
40
0.300000
50
35.885612
51
90.000000
0
ARC
8
0
10
18.275537
20
19.742641
30
0.0
40
0.300000
50
270.000000
51
18.015506
0
LINE
8
0
6
0
10
17.403607
20
20.795146
30
0.0
11
16.874857
21
21.525972
31
0.0
0
LINE
8
0
6
0
10
18.560829
20
19.835423
30
0.0
11
18.363946
21
20.440807
31
0.0
0
ARC
8
0
10
17.241570
20
20.677912
30
0.0
40
0.200000
50
288.581915
51
35.885612
0
ARC
8
0
10
18.649238
20
20.533589
30
0.0
40
0.300000
50
17.834933
51
198.015506
0
LINE
8
0
6
0
10
17.193866
20
20.450875
30
0.0
11
17.305302
21
20.488338
31
0.0
0
LINE
8
0
6
0
10
18.934821
20
20.625472
30
0.0
11
19.246068
21
19.658078
31
0.0
0
ARC
8
0
10
17.241665
20
20.308695
30
0.0
40
0.150000
50
108.581915
51
237.436866
0
ARC
8
0
10
19.531651
20
19.749960
30
0.0
40
0.300000
50
197.834933
51
270.000000
0
LINE
8
0
6
0
10
17.546546
20
19.936013
30
0.0
11
17.160931
21
20.182275
31
0.0
0
LINE
8
0
6
0
10
19.531651
20
19.449960
30
0.0
11
39.987290
21
19.449972
31
0.0
0
ARC
8
0
10
17.708015
20
20.188853
30
0.0
40
0.300000
50
237.436866
51
270.000000
0
ARC
8
0
10
39.987290
20
19.149972
30
0.0
40
0.300000
50
34.690292
51
90.000000
0
LINE
8
0
6
0
10
18.045998
20
19.888910
30
0.0
11
17.708065
21
19.888853
31
0.0
0
ARC
8
0
10
40.480635
20
19.491456
30
0.0
40
0.300000
50
214.690292
51
32.065684
0
ARC
8
0
10
18.045947
20
20.188910
30
0.0
40
0.300000
50
270.000000
51
22.907135
0
ARC
8
0
10
40.989099
20
19.809991
30
0.0
40
0.300000
50
156.000000
51
212.065684
0
LINE
8
0
6
0
10
18.047697
20
20.955503
30
0.0
11
18.322288
21
20.305681
31
0.0
0
LINE
8
0
6
0
10
40.715035
20
19.932012
30
0.0
11
41.166833
21
20.946766
31
0.0
0
ARC
8
0
10
18.508266
20
21.150123
30
0.0
40
0.500000
50
90.000000
51
202.907135
0
ARC
8
0
10
40.710060
20
21.150134
30
0.0
40
0.500000
50
336.000000
51
90.000000
0
LINE
8
0
6
0
10
40.710060
20
21.650134
30
0.0
11
18.508266
21
21.650123
31
0.0
0
ARC
8
0
10
45.600453
20
71.749817
30
0.0
40
0.400000
50
360.000000
51
90.000000
0
LINE
8
0
6
0
10
46.000453
20
68.349817
30
0.0
11
46.000453
21
71.749817
31
0.0
0
LINE
8
0
6
0
10
45.600453
20
72.149817
30
0.0
11
45.420839
21
72.149817
31
0.0
0
ARC
8
0
10
45.600453
20
68.349817
30
0.0
40
0.400000
50
270.000000
51
360.000000
0
ARC
8
0
10
45.420839
20
71.849817
30
0.0
40
0.300000
50
90.000000
51
120.000345
0
LINE
8
0
6
0
10
45.420838
20
67.949817
30
0.0
11
45.600453
21
67.949817
31
0.0
0
LINE
8
0
6
0
10
45.270837
20
72.109624
30
0.0
11
43.540484
21
71.110590
31
0.0
0
ARC
8
0
10
45.420838
20
68.249817
30
0.0
40
0.300000
50
240.000000
51
270.000000
0
LINE
8
0
6
0
10
43.540484
20
71.110590
30
0.0
11
43.242359
21
70.938482
31
0.0
0
LINE
8
0
6
0
10
43.540512
20
68.989014
30
0.0
11
45.270838
21
67.990009
31
0.0
0
ARC
8
0
10
43.092369
20
71.198295
30
0.0
40
0.300000
50
204.433855
51
299.997915
0
ARC
8
0
10
42.940512
20
67.949783
30
0.0
40
1.200000
50
60.000000
51
90.000000
0
LINE
8
0
6
0
10
42.819237
20
71.074202
30
0.0
11
41.598882
21
73.760240
31
0.0
0
LINE
8
0
6
0
10
15.060099
20
69.149828
30
0.0
11
42.940513
21
69.149783
31
0.0
0
ARC
8
0
10
41.145241
20
73.549978
30
0.0
40
0.500000
50
24.867710
51
90.000000
0
ARC
8
0
10
15.060098
20
67.949828
30
0.0
40
1.200000
50
90.000000
51
120.000000
0
LINE
8
0
6
0
10
41.145242
20
74.049978
30
0.0
11
16.855309
21
74.049989
31
0.0
0
LINE
8
0
6
0
10
12.729713
20
67.990021
30
0.0
11
14.460098
21
68.989059
31
0.0
0
ARC
8
0
10
16.855309
20
73.549989
30
0.0
40
0.500000
50
90.000000
51
156.000000
0
ARC
8
0
10
12.579713
20
68.249828
30
0.0
40
0.300000
50
270.000000
51
300.000000
0
LINE
8
0
6
0
10
16.398536
20
73.753357
30
0.0
11
15.382570
21
71.471460
31
0.0
0
LINE
8
0
6
0
10
12.400098
20
67.949828
30
0.0
11
12.579713
21
67.949828
31
0.0
0
ARC
8
0
10
15.656634
20
71.349439
30
0.0
40
0.300000
50
156.000000
51
270.000000
0
ARC
8
0
10
12.400098
20
68.349828
30
0.0
40
0.400000
50
180.000000
51
270.000000
0
LINE
8
0
6
0
10
15.658395
20
71.049444
30
0.0
11
16.664848
21
71.055352
31
0.0
0
LINE
8
0
6
0
10
12.000098
20
71.749828
30
0.0
11
12.000098
21
68.349828
31
0.0
0
ARC
8
0
10
16.663088
20
71.355347
30
0.0
40
0.300000
50
270.000000
51
324.997646
0
ARC
8
0
10
12.400098
20
71.749828
30
0.0
40
0.400000
50
90.000000
51
180.000000
0
LINE
8
0
6
0
10
16.908826
20
71.183264
30
0.0
11
17.375668
21
71.849925
31
0.0
0
LINE
8
0
6
0
10
12.579712
20
72.149828
30
0.0
11
12.400098
21
72.149828
31
0.0
0
ARC
8
0
10
17.252799
20
71.935966
30
0.0
40
0.150000
50
324.997646
51
72.871294
0
ARC
8
0
10
12.579712
20
71.849828
30
0.0
40
0.300000
50
59.999655
51
90.000000
0
LINE
8
0
6
0
10
17.296977
20
72.079313
30
0.0
11
17.182963
21
72.114451
31
0.0
0
LINE
8
0
6
0
10
14.460066
20
71.110601
30
0.0
11
12.729713
21
72.109635
31
0.0
0
ARC
8
0
10
17.241867
20
72.305580
30
0.0
40
0.200000
50
142.477243
51
252.871294
0
ARC
8
0
10
15.060072
20
72.149828
30
0.0
40
1.200000
50
239.999655
51
270.000000
0
LINE
8
0
6
0
10
17.083245
20
72.427395
30
0.0
11
17.553506
21
73.039748
31
0.0
0
LINE
8
0
6
0
10
16.631898
20
70.949828
30
0.0
11
15.060072
21
70.949828
31
0.0
0
ARC
8
0
10
17.791440
20
72.857025
30
0.0
40
0.300000
50
90.000000
51
142.477243
0
ARC
8
0
10
16.631898
20
71.249828
30
0.0
40
0.300000
50
270.000000
51
324.114388
0
LINE
8
0
6
0
10
17.791264
20
73.157025
30
0.0
11
18.275459
21
73.157308
31
0.0
0
LINE
8
0
6
0
10
17.403705
20
71.804804
30
0.0
11
16.874955
21
71.073978
31
0.0
0
ARC
8
0
10
18.275634
20
72.857308
30
0.0
40
0.300000
50
341.984494
51
90.000000
0
ARC
8
0
10
17.241667
20
71.922038
30
0.0
40
0.200000
50
324.114388
51
71.418085
0
LINE
8
0
6
0
10
18.560926
20
72.764526
30
0.0
11
18.364044
21
72.159143
31
0.0
0
LINE
8
0
6
0
10
17.193964
20
72.149074
30
0.0
11
17.305399
21
72.111612
31
0.0
0
ARC
8
0
10
18.649336
20
72.066360
30
0.0
40
0.300000
50
161.984494
51
342.165067
0
ARC
8
0
10
17.241763
20
72.291255
30
0.0
40
0.150000
50
122.563134
51
251.418085
0
LINE
8
0
6
0
10
18.934919
20
71.974478
30
0.0
11
19.246166
21
72.941872
31
0.0
0
LINE
8
0
6
0
10
17.546644
20
72.663936
30
0.0
11
17.161029
21
72.417675
31
0.0
0
ARC
8
0
10
19.531749
20
72.849989
30
0.0
40
0.300000
50
90.000000
51
162.165067
0
ARC
8
0
10
17.708112
20
72.411097
30
0.0
40
0.300000
50
90.000000
51
122.563134
0
LINE
8
0
6
0
10
19.531749
20
73.149989
30
0.0
11
39.987388
21
73.149978
31
0.0
0
LINE
8
0
6
0
10
18.046095
20
72.711040
30
0.0
11
17.708163
21
72.711097
31
0.0
0
ARC
8
0
10
39.987388
20
73.449978
30
0.0
40
0.300000
50
270.000000
51
325.309708
0
ARC
8
0
10
18.046045
20
72.411040
30
0.0
40
0.300000
50
337.092865
51
90.000000
0
ARC
8
0
10
40.480732
20
73.108494
30
0.0
40
0.300000
50
327.934316
51
145.309708
0
LINE
8
0
6
0
10
18.047795
20
71.644446
30
0.0
11
18.322386
21
72.294268
31
0.0
0
ARC
8
0
10
40.989196
20
72.789959
30
0.0
40
0.300000
50
147.934316
51
204.000000
0
ARC
8
0
10
18.508364
20
71.449827
30
0.0
40
0.500000
50
157.092865
51
270.000000
0
LINE
8
0
6
0
10
40.715133
20
72.667938
30
0.0
11
41.166930
21
71.653184
31
0.0
0
LINE
8
0
6
0
10
40.710157
20
70.949816
30
0.0
11
18.508363
21
70.949827
31
0.0
0
ARC
8
0
10
40.710157
20
71.449816
30
0.0
40
0.500000
50
270.000000
51
24.000000
0
ARC
8
0
10
44.649554
20
74.022711
30
0.0
40
0.300000
50
209.632658
51
287.401721
0
ARC
8
0
10
44.214947
20
73.775492
30
0.0
40
0.200000
50
29.632658
51
90.000000
0
LINE
8
0
6
0
10
44.213545
20
73.975487
30
0.0
11
42.662451
21
73.975487
31
0.0
0
ARC
8
0
10
42.662451
20
73.675487
30
0.0
40
0.300000
50
90.000000
51
197.401721
0
LINE
8
0
6
0
10
42.376181
20
73.585766
30
0.0
11
42.978146
21
71.665097
31
0.0
0
ARC
8
0
10
43.741531
20
71.904353
30
0.0
40
0.800000
50
197.401721
51
242.401721
0
LINE
8
0
6
0
10
43.370915
20
71.195379
30
0.0
11
43.651986
21
71.048450
31
0.0
0
ARC
8
0
10
43.744639
20
71.225693
30
0.0
40
0.200000
50
242.401721
51
360.000000
0
LINE
8
0
6
0
10
43.944464
20
71.234074
30
0.0
11
43.932367
21
71.522496
31
0.0
0
LINE
8
0
6
0
10
43.932367
20
71.522496
30
0.0
11
45.640464
21
72.606559
31
0.0
0
ARC
8
0
10
45.961975
20
72.099972
30
0.0
40
0.600000
50
90.000000
51
122.401721
0
LINE
8
0
6
0
10
45.961975
20
72.699972
30
0.0
11
46.000257
21
72.699972
31
0.0
0
ARC
8
0
10
45.900257
20
72.417129
30
0.0
40
0.300000
50
289.471221
51
70.528779
0
LINE
8
0
6
0
10
46.000257
20
72.134286
30
0.0
11
46.000257
21
68.099972
31
0.0
0
ARC
8
0
10
45.700257
20
68.099972
30
0.0
40
0.300000
50
270.000000
51
360.000000
0
LINE
8
0
6
0
10
45.700257
20
67.799972
30
0.0
11
45.484370
21
67.799972
31
0.0
0
ARC
8
0
10
45.484370
20
68.099972
30
0.0
40
0.300000
50
238.675295
51
270.000000
0
LINE
8
0
6
0
10
45.328404
20
67.843702
30
0.0
11
43.800257
21
68.773732
31
0.0
0
ARC
8
0
10
43.700257
20
68.600527
30
0.0
40
0.200000
50
60.000000
51
140.000000
0
LINE
8
0
6
0
10
43.547048
20
68.729085
30
0.0
11
41.734212
21
66.518632
31
0.0
0
ARC
8
0
10
42.500257
20
65.875844
30
0.0
40
1.000000
50
140.000000
51
180.000000
0
LINE
8
0
6
0
10
41.500257
20
65.875844
30
0.0
11
41.500257
21
27.999972
31
0.0
0
ARC
8
0
10
41.200257
20
27.999972
30
0.0
40
0.300000
50
270.000000
51
360.000000
0
LINE
8
0
6
0
10
41.200257
20
27.699972
30
0.0
11
39.300257
21
27.699972
31
0.0
0
ARC
8
0
10
39.300257
20
27.399972
30
0.0
40
0.300000
50
90.000000
51
180.000000
0
LINE
8
0
6
0
10
39.000257
20
27.399972
30
0.0
11
39.000257
21
25.999972
31
0.0
0
ARC
8
0
10
39.300257
20
25.999972
30
0.0
40
0.300000
50
180.000000
51
270.000000
0
LINE
8
0
6
0
10
39.300257
20
25.699972
30
0.0
11
41.830392
21
25.699972
31
0.0
0
ARC
8
0
10
41.830392
20
25.399972
30
0.0
40
0.300000
50
40.000000
51
90.000000
0
LINE
8
0
6
0
10
42.060206
20
25.592808
30
0.0
11
43.547048
21
23.770859
31
0.0
0
ARC
8
0
10
43.700257
20
23.899417
30
0.0
40
0.200000
50
220.000000
51
300.000000
0
LINE
8
0
6
0
10
43.800257
20
23.726211
30
0.0
11
45.328404
21
24.656242
31
0.0
0
ARC
8
0
10
45.484370
20
24.399972
30
0.0
40
0.300000
50
90.000000
51
121.324705
0
LINE
8
0
6
0
10
45.484370
20
24.699972
30
0.0
11
45.700257
21
24.699972
31
0.0
0
ARC
8
0
10
45.700257
20
24.399972
30
0.0
40
0.300000
50
360.000000
51
90.000000
0
LINE
8
0
6
0
10
46.000257
20
24.399972
30
0.0
11
46.000257
21
24.299972
31
0.0
0
LINE
8
0
6
0
10
46.000257
20
24.299972
30
0.0
11
46.000257
21
20.365657
31
0.0
0
ARC
8
0
10
45.900257
20
20.082815
30
0.0
40
0.300000
50
289.471221
51
70.528779
0
LINE
8
0
6
0
10
46.000257
20
19.799972
30
0.0
11
45.961975
21
19.799972
31
0.0
0
ARC
8
0
10
45.961975
20
20.399972
30
0.0
40
0.600000
50
237.598279
51
270.000000
0
LINE
8
0
6
0
10
45.640464
20
19.893385
30
0.0
11
43.932367
21
20.977448
31
0.0
0
LINE
8
0
6
0
10
43.932367
20
20.977448
30
0.0
11
43.944464
21
21.265870
31
0.0
0
ARC
8
0
10
43.744639
20
21.274251
30
0.0
40
0.200000
50
360.000000
51
117.598279
0
LINE
8
0
6
0
10
43.651986
20
21.451494
30
0.0
11
43.370915
21
21.304565
31
0.0
0
ARC
8
0
10
43.741531
20
20.595591
30
0.0
40
0.800000
50
117.598279
51
162.598279
0
LINE
8
0
6
0
10
42.978146
20
20.834847
30
0.0
11
42.376181
21
18.914178
31
0.0
0
ARC
8
0
10
42.662451
20
18.824457
30
0.0
40
0.300000
50
162.598279
51
270.000000
0
LINE
8
0
6
0
10
42.662451
20
18.524457
30
0.0
11
44.213545
21
18.524457
31
0.0
0
ARC
8
0
10
44.214947
20
18.724452
30
0.0
40
0.200000
50
270.000000
51
330.367342
0
ARC
8
0
10
44.649554
20
18.477233
30
0.0
40
0.300000
50
72.598279
51
150.367342
0
LINE
8
0
6
0
10
44.739274
20
18.763503
30
0.0
11
45.701478
21
18.509880
31
0.0
0
LINE
8
0
6
0
10
45.701478
20
18.509880
30
0.0
11
45.777942
21
18.499972
31
0.0
0
LINE
8
0
6
0
10
45.777942
20
18.499972
30
0.0
11
66.350257
21
18.499972
31
0.0
0
ARC
8
0
10
66.350257
20
18.199972
30
0.0
40
0.300000
50
360.000000
51
90.000000
0
LINE
8
0
6
0
10
66.650257
20
18.199972
30
0.0
11
66.650257
21
14.299944
31
0.0
0
ARC
8
0
10
66.950257
20
14.299944
30
0.0
40
0.300000
50
180.000000
51
270.000000
0
LINE
8
0
6
0
10
66.950257
20
13.999944
30
0.0
11
67.950257
21
13.999944
31
0.0
0
ARC
8
0
10
67.950257
20
14.299944
30
0.0
40
0.300000
50
270.000000
51
360.000000
0
LINE
8
0
6
0
10
68.250257
20
14.299944
30
0.0
11
68.250257
21
24.699944
31
0.0
0
ARC
8
0
10
68.550257
20
24.699944
30
0.0
40
0.300000
50
90.000000
51
180.000000
0
LINE
8
0
6
0
10
68.550257
20
24.999944
30
0.0
11
76.500257
21
24.999944
31
0.0
0
ARC
8
0
10
76.500257
20
25.499944
30
0.0
40
0.500000
50
270.000000
51
360.000000
0
LINE
8
0
6
0
10
77.000257
20
25.499944
30
0.0
11
77.000257
21
73.699972
31
0.0
0
ARC
8
0
10
76.700257
20
73.699972
30
0.0
40
0.300000
50
360.000000
51
90.000000
0
LINE
8
0
6
0
10
76.700257
20
73.999972
30
0.0
11
73.450812
21
73.999972
31
0.0
0
ARC
8
0
10
73.450812
20
73.699972
30
0.0
40
0.300000
50
90.000000
51
150.000000
0
LINE
8
0
6
0
10
73.191004
20
73.849972
30
0.0
11
72.740449
21
73.069587
31
0.0
0
ARC
8
0
10
73.000257
20
72.919587
30
0.0
40
0.300000
50
150.000000
51
180.000000
0
LINE
8
0
6
0
10
72.700257
20
72.919587
30
0.0
11
72.700257
21
72.799972
31
0.0
0
ARC
8
0
10
73.000257
20
72.799972
30
0.0
40
0.300000
50
180.000000
51
270.000000
0
LINE
8
0
6
0
10
73.000257
20
72.499972
30
0.0
11
74.900257
21
72.499972
31
0.0
0
ARC
8
0
10
74.900257
20
72.199972
30
0.0
40
0.300000
50
360.000000
51
90.000000
0
LINE
8
0
6
0
10
75.200257
20
72.199972
30
0.0
11
75.200257
21
67.698861
31
0.0
0
ARC
8
0
10
74.900257
20
67.698861
30
0.0
40
0.300000
50
270.000000
51
360.000000
0
LINE
8
0
6
0
10
74.900257
20
67.398861
30
0.0
11
73.700257
21
67.398861
31
0.0
0
ARC
8
0
10
73.700257
20
67.698861
30
0.0
40
0.300000
50
180.000000
51
270.000000
0
LINE
8
0
6
0
10
73.400257
20
67.698861
30
0.0
11
73.400257
21
68.700372
31
0.0
0
ARC
8
0
10
73.100257
20
68.700372
30
0.0
40
0.300000
50
360.000000
51
90.000000
0
LINE
8
0
6
0
10
73.100257
20
69.000372
30
0.0
11
71.700257
21
69.000372
31
0.0
0
ARC
8
0
10
71.700257
20
68.700372
30
0.0
40
0.300000
50
90.000000
51
180.000000
0
LINE
8
0
6
0
10
71.400257
20
68.700372
30
0.0
11
71.400257
21
67.698861
31
0.0
0
ARC
8
0
10
71.100257
20
67.698861
30
0.0
40
0.300000
50
270.000000
51
360.000000
0
LINE
8
0
6
0
10
71.100257
20
67.398861
30
0.0
11
64.800257
21
67.398861
31
0.0
0
ARC
8
0
10
64.800257
20
67.698861
30
0.0
40
0.300000
50
180.000000
51
270.000000
0
LINE
8
0
6
0
10
64.500257
20
67.698861
30
0.0
11
64.500257
21
68.700372
31
0.0
0
ARC
8
0
10
64.200257
20
68.700372
30
0.0
40
0.300000
50
360.000000
51
90.000000
0
LINE
8
0
6
0
10
64.200257
20
69.000372
30
0.0
11
62.800257
21
69.000372
31
0.0
0
ARC
8
0
10
62.800257
20
68.700372
30
0.0
40
0.300000
50
90.000000
51
180.000000
0
LINE
8
0
6
0
10
62.500257
20
68.700372
30
0.0
11
62.500257
21
67.698861
31
0.0
0
ARC
8
0
10
62.200257
20
67.698861
30
0.0
40
0.300000
50
270.000000
51
360.000000
0
LINE
8
0
6
0
10
62.200257
20
67.398861
30
0.0
11
61.000257
21
67.398861
31
0.0
0
ARC
8
0
10
61.000257
20
67.698861
30
0.0
40
0.300000
50
180.000000
51
270.000000
0
LINE
8
0
6
0
10
60.700257
20
67.698861
30
0.0
11
60.700257
21
72.199972
31
0.0
0
ARC
8
0
10
61.000257
20
72.199972
30
0.0
40
0.300000
50
90.000000
51
180.000000
0
LINE
8
0
6
0
10
61.000257
20
72.499972
30
0.0
11
62.400257
21
72.499972
31
0.0
0
ARC
8
0
10
62.400257
20
72.799972
30
0.0
40
0.300000
50
270.000000
51
360.000000
0
LINE
8
0
6
0
10
62.700257
20
72.799972
30
0.0
11
62.700257
21
72.919587
31
0.0
0
ARC
8
0
10
62.400257
20
72.919587
30
0.0
40
0.300000
50
360.000000
51
30.000000
0
LINE
8
0
6
0
10
62.660064
20
73.069587
30
0.0
11
62.209509
21
73.849972
31
0.0
0
ARC
8
0
10
61.949701
20
73.699972
30
0.0
40
0.300000
50
30.000000
51
90.000000
0
LINE
8
0
6
0
10
61.949701
20
73.999972
30
0.0
11
59.500257
21
73.999972
31
0.0
0
ARC
8
0
10
59.500257
20
73.699972
30
0.0
40
0.300000
50
90.000000
51
180.000000
0
LINE
8
0
6
0
10
59.200257
20
73.699972
30
0.0
11
59.200257
21
67.698861
31
0.0
0
ARC
8
0
10
58.900257
20
67.698861
30
0.0
40
0.300000
50
270.000000
51
360.000000
0
LINE
8
0
6
0
10
58.900257
20
67.398861
30
0.0
11
48.100257
21
67.398861
31
0.0
0
ARC
8
0
10
48.100257
20
67.698861
30
0.0
40
0.300000
50
180.000000
51
270.000000
0
LINE
8
0
6
0
10
47.800257
20
67.698861
30
0.0
11
47.800257
21
73.699972
31
0.0
0
ARC
8
0
10
47.500257
20
73.699972
30
0.0
40
0.300000
50
360.000000
51
90.000000
0
LINE
8
0
6
0
10
47.500257
20
73.999972
30
0.0
11
45.777942
21
73.999972
31
0.0
0
LINE
8
0
6
0
10
45.777942
20
73.999972
30
0.0
11
45.701478
21
73.990064
31
0.0
0
LINE
8
0
6
0
10
45.701478
20
73.990064
30
0.0
11
44.739274
21
73.736441
31
0.0
0
ATTDEF
8
0
10
60.724979
20
73.999972
30
0.0
40
3.5
1

3

2
VC_START
70
0
0
ATTDEF
8
0
10
56.064099
20
18.499972
30
0.0
40
3.5
1

3

2
VC_END
70
0
0
ARC
8
0
10
63.450514
20
6.399944
30
0.0
40
0.300000
50
90.000000
51
180.000000
0
LINE
8
0
6
0
10
63.450514
20
6.699944
30
0.0
11
63.600514
21
6.699944
31
0.0
0
ARC
8
0
10
63.600514
20
6.999944
30
0.0
40
0.300000
50
270.000000
51
360.000000
0
LINE
8
0
6
0
10
63.900514
20
6.999944
30
0.0
11
63.900514
21
10.399944
31
0.0
0
ARC
8
0
10
62.900514
20
10.399944
30
0.0
40
1.000000
50
360.000000
51
90.000000
0
LINE
8
0
6
0
10
62.900514
20
11.399944
30
0.0
11
60.900514
21
11.399944
31
0.0
0
ARC
8
0
10
60.900514
20
10.399944
30
0.0
40
1.000000
50
90.000000
51
180.000000
0
LINE
8
0
6
0
10
59.900514
20
10.399944
30
0.0
11
59.900514
21
6.999944
31
0.0
0
ARC
8
0
10
60.200514
20
6.999944
30
0.0
40
0.300000
50
180.000000
51
270.000000
0
LINE
8
0
6
0
10
60.200514
20
6.699944
30
0.0
11
60.350514
21
6.699944
31
0.0
0
ARC
8
0
10
60.350514
20
6.399944
30
0.0
40
0.300000
50
360.000000
51
90.000000
0
LINE
8
0
6
0
10
60.650514
20
6.399944
30
0.0
11
60.650514
21
5.999944
31
0.0
0
ARC
8
0
10
60.350514
20
5.999944
30
0.0
40
0.300000
50
270.000000
51
360.000000
0
LINE
8
0
6
0
10
60.350514
20
5.699944
30
0.0
11
60.200514
21
5.699944
31
0.0
0
ARC
8
0
10
60.200514
20
5.399944
30
0.0
40
0.300000
50
90.000000
51
180.000000
0
LINE
8
0
6
0
10
59.900514
20
5.399944
30
0.0
11
59.900514
21
4.899944
31
0.0
0
ARC
8
0
10
59.600514
20
4.899944
30
0.0
40
0.300000
50
270.000000
51
360.000000
0
LINE
8
0
6
0
10
59.600514
20
4.599944
30
0.0
11
58.400514
21
4.599944
31
0.0
0
ARC
8
0
10
58.400514
20
4.899944
30
0.0
40
0.300000
50
180.000000
51
270.000000
0
LINE
8
0
6
0
10
58.100514
20
4.899944
30
0.0
11
58.100514
21
13.599944
31
0.0
0
ARC
8
0
10
58.400514
20
13.599944
30
0.0
40
0.300000
50
90.000000
51
180.000000
0
LINE
8
0
6
0
10
58.400514
20
13.899944
30
0.0
11
64.400514
21
13.899944
31
0.0
0
ARC
8
0
10
64.400514
20
14.199944
30
0.0
40
0.300000
50
270.000000
51
360.000000
0
LINE
8
0
6
0
10
64.700514
20
14.199944
30
0.0
11
64.700514
21
17.599944
31
0.0
0
ARC
8
0
10
65.000514
20
17.599944
30
0.0
40
0.300000
50
90.000000
51
180.000000
0
LINE
8
0
6
0
10
65.000514
20
17.899944
30
0.0
11
66.400514
21
17.899944
31
0.0
0
ARC
8
0
10
66.400514
20
17.599944
30
0.0
40
0.300000
50
360.000000
51
90.000000
0
LINE
8
0
6
0
10
66.700514
20
17.599944
30
0.0
11
66.700514
21
14.199944
31
0.0
0
ARC
8
0
10
67.000514
20
14.199944
30
0.0
40
0.300000
50
180.000000
51
270.000000
0
LINE
8
0
6
0
10
67.000514
20
13.899944
30
0.0
11
68.300514
21
13.899944
31
0.0
0
ARC
8
0
10
68.300514
20
14.199944
30
0.0
40
0.300000
50
270.000000
51
360.000000
0
LINE
8
0
6
0
10
68.600514
20
14.199944
30
0.0
11
68.600514
21
23.999944
31
0.0
0
ARC
8
0
10
69.600514
20
23.999944
30
0.0
40
1.000000
50
90.000000
51
180.000000
0
LINE
8
0
6
0
10
69.600514
20
24.999944
30
0.0
11
79.300514
21
24.999944
31
0.0
0
ARC
8
0
10
79.300514
20
17.999944
30
0.0
40
7.000000
50
360.000000
51
90.000000
0
LINE
8
0
6
0
10
86.300514
20
17.999944
30
0.0
11
86.300514
21
5.999944
31
0.0
0
ARC
8
0
10
86.000514
20
5.999944
30
0.0
40
0.300000
50
270.000000
51
360.000000
0
LINE
8
0
6
0
10
86.000514
20
5.699944
30
0.0
11
83.900514
21
5.699944
31
0.0
0
ARC
8
0
10
83.900514
20
5.999944
30
0.0
40
0.300000
50
180.000000
51
270.000000
0
LINE
8
0
6
0
10
83.600514
20
5.999944
30
0.0
11
83.600514
21
6.599944
31
0.0
0
ARC
8
0
10
83.900514
20
6.599944
30
0.0
40
0.300000
50
90.000000
51
180.000000
0
LINE
8
0
6
0
10
83.900514
20
6.899944
30
0.0
11
84.600514
21
6.899944
31
0.0
0
ARC
8
0
10
84.600514
20
7.199944
30
0.0
40
0.300000
50
270.000000
51
360.000000
0
LINE
8
0
6
0
10
84.900514
20
7.199944
30
0.0
11
84.900514
21
17.999944
31
0.0
0
ARC
8
0
10
79.300514
20
17.999944
30
0.0
40
5.600000
50
360.000000
51
113.000000
0
LINE
8
0
6
0
10
77.112419
20
23.154771
30
0.0
11
73.381717
21
21.571182
31
0.0
0
LINE
8
0
6
0
10
73.381717
20
21.571182
30
0.0
11
73.105061
21
21.779657
31
0.0
0
LINE
8
0
6
0
10
73.105061
20
21.779657
30
0.0
11
73.062845
21
21.435829
31
0.0
0
LINE
8
0
6
0
10
73.062845
20
21.435829
30
0.0
11
70.183294
21
20.213532
31
0.0
0
ARC
8
0
10
70.300514
20
19.937381
30
0.0
40
0.300000
50
113.000001
51
180.000000
0
LINE
8
0
6
0
10
70.000514
20
19.937381
30
0.0
11
70.000514
21
7.199944
31
0.0
0
ARC
8
0
10
70.300514
20
7.199944
30
0.0
40
0.300000
50
180.000000
51
270.000000
0
LINE
8
0
6
0
10
70.300514
20
6.899944
30
0.0
11
71.700514
21
6.899944
31
0.0
0
ARC
8
0
10
71.700514
20
6.599944
30
0.0
40
0.300000
50
360.000000
51
90.000000
0
LINE
8
0
6
0
10
72.000514
20
6.599944
30
0.0
11
72.000514
21
5.999944
31
0.0
0
ARC
8
0
10
71.700514
20
5.999944
30
0.0
40
0.300000
50
270.000000
51
360.000000
0
LINE
8
0
6
0
10
71.700514
20
5.699944
30
0.0
11
68.900514
21
5.699944
31
0.0
0
ARC
8
0
10
68.900514
20
5.999944
30
0.0
40
0.300000
50
180.000000
51
270.000000
0
LINE
8
0
6
0
10
68.600514
20
5.999944
30
0.0
11
68.600514
21
10.399944
31
0.0
0
ARC
8
0
10
67.600514
20
10.399944
30
0.0
40
1.000000
50
360.000000
51
90.000000
0
LINE
8
0
6
0
10
67.600514
20
11.399944
30
0.0
11
66.300514
21
11.399944
31
0.0
0
ARC
8
0
10
66.300514
20
10.399944
30
0.0
40
1.000000
50
90.000000
51
180.000000
0
LINE
8
0
6
0
10
65.300514
20
10.399944
30
0.0
11
65.300514
21
5.999944
31
0.0
0
ARC
8
0
10
65.000514
20
5.999944
30
0.0
40
0.300000
50
270.000000
51
360.000000
0
LINE
8
0
6
0
10
65.000514
20
5.699944
30
0.0
11
63.450514
21
5.699944
31
0.0
0
ARC
8
0
10
63.450514
20
5.999944
30
0.0
40
0.300000
50
180.000000
51
270.000000
0
LINE
8
0
6
0
10
63.150514
20
5.999944
30
0.0
11
63.150514
21
6.399944
31
0.0
0
ATTDEF
8
0
10
0.000000
20
0.000000
30
0.0
40
3.5
1

3

2
DENS:0.000000
70
0
0
ATTDEF
8
0
10
0.000000
20
0.000000
30
0.0
40
3.5
1

3

2
GLASS_MIN:0.000000
70
0
0
ATTDEF
8
0
10
0.000000
20
0.000000
30
0.0
40
3.5
1

3

2
GLASS_MAX:0.000000
70
0
0
ATTDEF
8
0
10
0.000000
20
0.000000
30
0.0
40
3.5
1

3

2
DESC:U52340 - K1486
70
0
0
ATTDEF
8
0
10
0.000000
20
0.000000
30
0.0
40
3.5
1

3

2
BL01:6500.000000,,1
70
0
0
ATTDEF
8
0
10
0.000000
20
0.000000
30
0.0
40
3.5
1

3

2
HW_START
70
0
0
ATTDEF
8
0
10
86.300514
20
95.999972
30
0.0
40
3.5
1

3

2
HW_END
70
0
0
ATTDEF
8
0
10
0.000000
20
0.000000
30
0.0
40
3.5
1

3

2
FP_LCS_ORIG
70
0
0
ATTDEF
8
0
10
10.000000
20
0.000000
30
0.0
40
3.5
1

3

2
FP_LCS_HOT
70
0
0
ATTDEF
8
0
10
0.000000
20
10.000000
30
0.0
40
3.5
1

3

2
FP_LCS_INTERN
70
0
0
ATTDEF
8
0
10
0.000000
20
0.000000
30
0.0
40
3.5
1

3

2
PANE_WIDTH:72.000000
70
0
0
ENDSEC
0
EOF
