0
SECTION
2
ENTITIES
0
ARC
8
0
10
133.688233
20
83.567354
30
0.0
40
0.700000
50
180.000000
51
270.000000
0
ARC
8
0
10
133.688233
20
83.167354
30
0.0
40
0.300000
50
270.000000
51
360.000000
0
LINE
8
0
10
133.988233
20
83.167354
30
0.0
11
133.988233
21
83.867354
31
0.0
0
ARC
8
0
10
134.288233
20
83.867354
30
0.0
40
0.300000
50
90.000000
51
180.000000
0
LINE
8
0
10
134.288233
20
84.167354
30
0.0
11
135.488233
21
84.167354
31
0.0
0
ARC
8
0
10
135.488233
20
83.467354
30
0.0
40
0.700000
50
360.000000
51
90.000000
0
LINE
8
0
10
136.188233
20
83.467354
30
0.0
11
136.188233
21
77.267354
31
0.0
0
ARC
8
0
10
135.488233
20
77.267354
30
0.0
40
0.700000
50
270.000000
51
360.000000
0
LINE
8
0
10
135.488233
20
76.567354
30
0.0
11
134.288233
21
76.567354
31
0.0
0
ARC
8
0
10
134.288233
20
76.867354
30
0.0
40
0.300000
50
180.000000
51
270.000000
0
LINE
8
0
10
133.988233
20
76.867354
30
0.0
11
133.988233
21
77.567354
31
0.0
0
ARC
8
0
10
133.688233
20
77.567354
30
0.0
40
0.300000
50
360.000000
51
90.000000
0
ARC
8
0
10
133.688233
20
77.167354
30
0.0
40
0.700000
50
90.000000
51
180.000000
0
LINE
8
0
10
132.988233
20
77.167354
30
0.0
11
132.988233
21
75.667354
31
0.0
0
ARC
8
0
10
133.288233
20
75.667354
30
0.0
40
0.300000
50
180.000000
51
270.000000
0
LINE
8
0
10
133.288233
20
75.367354
30
0.0
11
136.988233
21
75.367354
31
0.0
0
ARC
8
0
10
136.988233
20
75.867354
30
0.0
40
0.500000
50
270.000000
51
360.000000
0
LINE
8
0
10
137.488233
20
75.867354
30
0.0
11
137.488233
21
171.067326
31
0.0
0
ARC
8
0
10
137.188233
20
171.067326
30
0.0
40
0.300000
50
360.000000
51
90.000000
0
LINE
8
0
10
137.188233
20
171.367326
30
0.0
11
133.288233
21
171.367326
31
0.0
0
ARC
8
0
10
133.288233
20
171.067326
30
0.0
40
0.300000
50
90.000000
51
180.000000
0
LINE
8
0
10
132.988233
20
171.067326
30
0.0
11
132.988233
21
169.567326
31
0.0
0
ARC
8
0
10
133.688233
20
169.567326
30
0.0
40
0.700000
50
180.000000
51
270.000000
0
ARC
8
0
10
133.688233
20
169.167326
30
0.0
40
0.300000
50
270.000000
51
360.000000
0
LINE
8
0
10
133.988233
20
169.167326
30
0.0
11
133.988233
21
169.867326
31
0.0
0
ARC
8
0
10
134.288233
20
169.867326
30
0.0
40
0.300000
50
90.000000
51
180.000000
0
LINE
8
0
10
134.288233
20
170.167326
30
0.0
11
135.488233
21
170.167326
31
0.0
0
ARC
8
0
10
135.488233
20
169.467326
30
0.0
40
0.700000
50
360.000000
51
90.000000
0
LINE
8
0
10
136.188233
20
169.467326
30
0.0
11
136.188233
21
163.267326
31
0.0
0
ARC
8
0
10
135.488233
20
163.267326
30
0.0
40
0.700000
50
270.000000
51
360.000000
0
LINE
8
0
10
135.488233
20
162.567326
30
0.0
11
134.288233
21
162.567326
31
0.0
0
ARC
8
0
10
134.288233
20
162.867326
30
0.0
40
0.300000
50
180.000000
51
270.000000
0
LINE
8
0
10
133.988233
20
162.867326
30
0.0
11
133.988233
21
163.567326
31
0.0
0
ARC
8
0
10
133.688233
20
163.567326
30
0.0
40
0.300000
50
360.000000
51
90.000000
0
ARC
8
0
10
133.688233
20
163.167326
30
0.0
40
0.700000
50
90.000000
51
180.000000
0
LINE
8
0
10
132.988233
20
163.167326
30
0.0
11
132.988233
21
160.167326
31
0.0
0
ARC
8
0
10
133.288233
20
160.167326
30
0.0
40
0.300000
50
180.000000
51
270.000000
0
LINE
8
0
10
133.288233
20
159.867326
30
0.0
11
133.688233
21
159.867326
31
0.0
0
ARC
8
0
10
133.688233
20
160.167326
30
0.0
40
0.300000
50
270.000000
51
360.000000
0
LINE
8
0
10
133.988233
20
160.167326
30
0.0
11
133.988233
21
161.067326
31
0.0
0
ARC
8
0
10
134.288233
20
161.067326
30
0.0
40
0.300000
50
90.000000
51
180.000000
0
LINE
8
0
10
134.288233
20
161.367326
30
0.0
11
135.688233
21
161.367326
31
0.0
0
ARC
8
0
10
135.688233
20
161.067326
30
0.0
40
0.300000
50
360.000000
51
90.000000
0
LINE
8
0
10
135.988233
20
161.067326
30
0.0
11
135.988233
21
147.367326
31
0.0
0
ARC
8
0
10
134.988233
20
147.367326
30
0.0
40
1.000000
50
270.000000
51
360.000000
0
LINE
8
0
10
134.988233
20
146.367326
30
0.0
11
127.788233
21
146.367326
31
0.0
0
ARC
8
0
10
127.788233
20
146.667326
30
0.0
40
0.300000
50
180.000000
51
270.000000
0
LINE
8
0
10
127.488233
20
146.667326
30
0.0
11
127.488233
21
149.067326
31
0.0
0
ARC
8
0
10
127.188233
20
149.067326
30
0.0
40
0.300000
50
360.000000
51
90.000000
0
LINE
8
0
10
127.188233
20
149.367326
30
0.0
11
125.265918
21
149.367326
31
0.0
0
LINE
8
0
10
125.265918
20
149.367326
30
0.0
11
125.189454
21
149.357418
31
0.0
0
LINE
8
0
10
125.189454
20
149.357418
30
0.0
11
124.227251
21
149.103795
31
0.0
0
ARC
8
0
10
124.137530
20
149.390065
30
0.0
40
0.300000
50
209.632658
51
287.401721
0
ARC
8
0
10
123.702924
20
149.142846
30
0.0
40
0.200000
50
29.632658
51
90.000000
0
LINE
8
0
10
123.701521
20
149.342841
30
0.0
11
122.150427
21
149.342841
31
0.0
0
ARC
8
0
10
122.150427
20
149.042841
30
0.0
40
0.300000
50
90.000000
51
197.401721
0
LINE
8
0
10
121.864158
20
148.953120
30
0.0
11
122.466122
21
147.032451
31
0.0
0
ARC
8
0
10
123.229507
20
147.271707
30
0.0
40
0.800000
50
197.401721
51
242.401721
0
LINE
8
0
10
122.858892
20
146.562733
30
0.0
11
123.139962
21
146.415804
31
0.0
0
ARC
8
0
10
123.232616
20
146.593047
30
0.0
40
0.200000
50
242.401721
51
360.000000
0
LINE
8
0
10
123.432440
20
146.601428
30
0.0
11
123.420343
21
146.889850
31
0.0
0
LINE
8
0
10
123.420343
20
146.889850
30
0.0
11
125.128440
21
147.973913
31
0.0
0
ARC
8
0
10
125.449951
20
147.467326
30
0.0
40
0.600000
50
90.000000
51
122.401721
0
LINE
8
0
10
125.449951
20
148.067326
30
0.0
11
125.488233
21
148.067326
31
0.0
0
ARC
8
0
10
125.388233
20
147.784483
30
0.0
40
0.300000
50
289.471221
51
70.528779
0
LINE
8
0
10
125.488233
20
147.501640
30
0.0
11
125.488233
21
143.467326
31
0.0
0
ARC
8
0
10
125.188233
20
143.467326
30
0.0
40
0.300000
50
270.000000
51
360.000000
0
LINE
8
0
10
125.188233
20
143.167326
30
0.0
11
124.968618
21
143.167326
31
0.0
0
ARC
8
0
10
124.968618
20
143.467326
30
0.0
40
0.300000
50
240.000000
51
270.000000
0
LINE
8
0
10
124.818618
20
143.207518
30
0.0
11
123.288233
21
144.091086
31
0.0
0
ARC
8
0
10
123.188233
20
143.917881
30
0.0
40
0.200000
50
60.000000
51
180.000000
0
LINE
8
0
10
122.988233
20
143.917881
30
0.0
11
122.988233
21
142.763181
31
0.0
0
ARC
8
0
10
123.988233
20
142.763181
30
0.0
40
1.000000
50
180.000000
51
240.000000
0
LINE
8
0
10
123.488233
20
141.897155
30
0.0
11
124.988233
21
141.031130
31
0.0
0
ARC
8
0
10
124.488233
20
140.165105
30
0.0
40
1.000000
50
360.000000
51
60.000000
0
LINE
8
0
10
125.488233
20
140.165105
30
0.0
11
125.488233
21
103.367326
31
0.0
0
ARC
8
0
10
125.188233
20
103.367326
30
0.0
40
0.300000
50
270.000000
51
360.000000
0
LINE
8
0
10
125.188233
20
103.067326
30
0.0
11
123.288233
21
103.067326
31
0.0
0
ARC
8
0
10
123.288233
20
102.767326
30
0.0
40
0.300000
50
90.000000
51
180.000000
0
LINE
8
0
10
122.988233
20
102.767326
30
0.0
11
122.988233
21
99.316771
31
0.0
0
ARC
8
0
10
123.188233
20
99.316771
30
0.0
40
0.200000
50
180.000000
51
300.000000
0
LINE
8
0
10
123.288233
20
99.143565
30
0.0
11
124.818618
21
100.027134
31
0.0
0
ARC
8
0
10
124.968618
20
99.767326
30
0.0
40
0.300000
50
90.000000
51
120.000000
0
LINE
8
0
10
124.968618
20
100.067326
30
0.0
11
125.188233
21
100.067326
31
0.0
0
ARC
8
0
10
125.188233
20
99.767326
30
0.0
40
0.300000
50
360.000000
51
90.000000
0
LINE
8
0
10
125.488233
20
99.767326
30
0.0
11
125.488233
21
95.733011
31
0.0
0
ARC
8
0
10
125.388233
20
95.450169
30
0.0
40
0.300000
50
289.471221
51
70.528779
0
LINE
8
0
10
125.488233
20
95.167326
30
0.0
11
125.449951
21
95.167326
31
0.0
0
ARC
8
0
10
125.449951
20
95.767326
30
0.0
40
0.600000
50
237.598279
51
270.000000
0
LINE
8
0
10
125.128440
20
95.260739
30
0.0
11
123.420343
21
96.344802
31
0.0
0
LINE
8
0
10
123.420343
20
96.344802
30
0.0
11
123.432440
21
96.633224
31
0.0
0
ARC
8
0
10
123.232616
20
96.641605
30
0.0
40
0.200000
50
360.000000
51
117.598279
0
LINE
8
0
10
123.139962
20
96.818848
30
0.0
11
122.858892
21
96.671919
31
0.0
0
ARC
8
0
10
123.229507
20
95.962945
30
0.0
40
0.800000
50
117.598279
51
162.598279
0
LINE
8
0
10
122.466122
20
96.202201
30
0.0
11
121.864158
21
94.281532
31
0.0
0
ARC
8
0
10
122.150427
20
94.191811
30
0.0
40
0.300000
50
162.598279
51
270.000000
0
LINE
8
0
10
122.150427
20
93.891811
30
0.0
11
123.701521
21
93.891811
31
0.0
0
ARC
8
0
10
123.702924
20
94.091806
30
0.0
40
0.200000
50
270.000000
51
330.367342
0
ARC
8
0
10
124.137530
20
93.844587
30
0.0
40
0.300000
50
72.598279
51
150.367342
0
LINE
8
0
10
124.227251
20
94.130857
30
0.0
11
125.189454
21
93.877234
31
0.0
0
LINE
8
0
10
125.189454
20
93.877234
30
0.0
11
125.265918
21
93.867326
31
0.0
0
LINE
8
0
10
125.265918
20
93.867326
30
0.0
11
134.688233
21
93.867326
31
0.0
0
ARC
8
0
10
134.688233
20
92.867326
30
0.0
40
1.000000
50
360.000000
51
90.000000
0
LINE
8
0
10
135.688233
20
92.867326
30
0.0
11
135.688233
21
85.667354
31
0.0
0
ARC
8
0
10
135.388233
20
85.667354
30
0.0
40
0.300000
50
270.000000
51
360.000000
0
LINE
8
0
10
135.388233
20
85.367354
30
0.0
11
133.288233
21
85.367354
31
0.0
0
ARC
8
0
10
133.288233
20
85.067354
30
0.0
40
0.300000
50
90.000000
51
180.000000
0
LINE
8
0
10
132.988233
20
85.067354
30
0.0
11
132.988233
21
83.567354
31
0.0
0
LINE
8
0
10
134.488233
20
100.567326
30
0.0
11
135.388233
21
100.567326
31
0.0
0
ARC
8
0
10
135.388233
20
100.267326
30
0.0
40
0.300000
50
360.000000
51
90.000000
0
LINE
8
0
10
135.688233
20
100.267326
30
0.0
11
135.688233
21
95.967354
31
0.0
0
ARC
8
0
10
135.388233
20
95.967354
30
0.0
40
0.300000
50
270.000000
51
360.000000
0
LINE
8
0
10
135.388233
20
95.667354
30
0.0
11
127.388233
21
95.667354
31
0.0
0
ARC
8
0
10
127.388233
20
95.967354
30
0.0
40
0.300000
50
180.000000
51
270.000000
0
LINE
8
0
10
127.088233
20
95.967354
30
0.0
11
127.088233
21
100.267326
31
0.0
0
ARC
8
0
10
127.388233
20
100.267326
30
0.0
40
0.300000
50
90.000000
51
180.000000
0
LINE
8
0
10
127.388233
20
100.567326
30
0.0
11
128.288233
21
100.567326
31
0.0
0
ARC
8
0
10
128.288233
20
100.867326
30
0.0
40
0.300000
50
270.000000
51
360.000000
0
LINE
8
0
10
128.588233
20
100.867326
30
0.0
11
128.588233
21
101.767326
31
0.0
0
ARC
8
0
10
128.288233
20
101.767326
30
0.0
40
0.300000
50
360.000000
51
90.000000
0
LINE
8
0
10
128.288233
20
102.067326
30
0.0
11
127.388233
21
102.067326
31
0.0
0
ARC
8
0
10
127.388233
20
102.367326
30
0.0
40
0.300000
50
180.000000
51
270.000000
0
LINE
8
0
10
127.088233
20
102.367326
30
0.0
11
127.088233
21
144.367326
31
0.0
0
ARC
8
0
10
127.388233
20
144.367326
30
0.0
40
0.300000
50
90.000000
51
180.000000
0
LINE
8
0
10
127.388233
20
144.667326
30
0.0
11
135.388233
21
144.667326
31
0.0
0
ARC
8
0
10
135.388233
20
144.367326
30
0.0
40
0.300000
50
360.000000
51
90.000000
0
LINE
8
0
10
135.688233
20
144.367326
30
0.0
11
135.688233
21
102.367326
31
0.0
0
ARC
8
0
10
135.388233
20
102.367326
30
0.0
40
0.300000
50
270.000000
51
360.000000
0
LINE
8
0
10
135.388233
20
102.067326
30
0.0
11
134.488233
21
102.067326
31
0.0
0
ARC
8
0
10
134.488233
20
101.767326
30
0.0
40
0.300000
50
90.000000
51
180.000000
0
LINE
8
0
10
134.188233
20
101.767326
30
0.0
11
134.188233
21
100.867326
31
0.0
0
ARC
8
0
10
134.488233
20
100.867326
30
0.0
40
0.300000
50
180.000000
51
270.000000
0
ARC
8
0
10
64.487976
20
109.223208
30
0.0
40
0.300000
50
285.000000
51
360.000000
0
LINE
8
0
10
64.787976
20
109.223208
30
0.0
11
64.787976
21
109.866215
31
0.0
0
ARC
8
0
10
64.487976
20
109.866215
30
0.0
40
0.300000
50
360.000000
51
90.000000
0
LINE
8
0
10
64.487976
20
110.166215
30
0.0
11
62.587976
21
110.166215
31
0.0
0
ARC
8
0
10
62.587976
20
110.466215
30
0.0
40
0.300000
50
180.000000
51
270.000000
0
LINE
8
0
10
62.287976
20
110.466215
30
0.0
11
62.287976
21
140.666215
31
0.0
0
ARC
8
0
10
62.587976
20
140.666215
30
0.0
40
0.300000
50
90.000000
51
180.000000
0
LINE
8
0
10
62.587976
20
140.966215
30
0.0
11
94.087976
21
140.966215
31
0.0
0
ARC
8
0
10
94.087976
20
140.666215
30
0.0
40
0.300000
50
360.000000
51
90.000000
0
LINE
8
0
10
94.387976
20
140.666215
30
0.0
11
94.387976
21
110.466215
31
0.0
0
ARC
8
0
10
94.087976
20
110.466215
30
0.0
40
0.300000
50
270.000000
51
360.000000
0
LINE
8
0
10
94.087976
20
110.166215
30
0.0
11
92.187976
21
110.166215
31
0.0
0
ARC
8
0
10
92.187976
20
109.866215
30
0.0
40
0.300000
50
90.000000
51
180.000000
0
LINE
8
0
10
91.887976
20
109.866215
30
0.0
11
91.887976
21
109.169618
31
0.0
0
ARC
8
0
10
92.187976
20
109.169618
30
0.0
40
0.300000
50
180.000000
51
255.000000
0
LINE
8
0
10
92.110331
20
108.879841
30
0.0
11
94.165622
21
108.329127
31
0.0
0
ARC
8
0
10
94.087976
20
108.039349
30
0.0
40
0.300000
50
360.000000
51
75.000000
0
LINE
8
0
10
94.387976
20
108.039349
30
0.0
11
94.387976
21
102.468437
31
0.0
0
ARC
8
0
10
94.087976
20
102.468437
30
0.0
40
0.300000
50
270.000000
51
360.000000
0
LINE
8
0
10
94.087976
20
102.168437
30
0.0
11
90.383317
21
102.168437
31
0.0
0
ARC
8
0
10
90.383317
20
101.468437
30
0.0
40
0.700000
50
90.000000
51
180.000000
0
LINE
8
0
10
89.683317
20
101.468437
30
0.0
11
89.683317
21
95.967326
31
0.0
0
ARC
8
0
10
89.383317
20
95.967326
30
0.0
40
0.300000
50
270.000000
51
360.000000
0
LINE
8
0
10
89.383317
20
95.667326
30
0.0
11
71.337976
21
95.667326
31
0.0
0
ARC
8
0
10
71.337976
20
95.967326
30
0.0
40
0.300000
50
180.000000
51
270.000000
0
LINE
8
0
10
71.037976
20
95.967326
30
0.0
11
71.037976
21
101.867298
31
0.0
0
ARC
8
0
10
70.737976
20
101.867298
30
0.0
40
0.300000
50
360.000000
51
90.000000
0
LINE
8
0
10
70.737976
20
102.167298
30
0.0
11
62.587976
21
102.167298
31
0.0
0
ARC
8
0
10
62.587976
20
102.467298
30
0.0
40
0.300000
50
180.000000
51
270.000000
0
LINE
8
0
10
62.287976
20
102.467298
30
0.0
11
62.287976
21
108.092939
31
0.0
0
ARC
8
0
10
62.587976
20
108.092939
30
0.0
40
0.300000
50
105.000000
51
180.000000
0
LINE
8
0
10
62.510331
20
108.382717
30
0.0
11
64.565622
21
108.933430
31
0.0
0
ARC
8
0
10
91.887878
20
96.217487
30
0.0
40
0.400000
50
180.000000
51
270.000000
0
LINE
8
0
10
91.887878
20
95.817487
30
0.0
11
92.067492
21
95.817487
31
0.0
0
LINE
8
0
10
91.487878
20
99.617487
30
0.0
11
91.487878
21
96.217487
31
0.0
0
ARC
8
0
10
92.067492
20
96.117487
30
0.0
40
0.300000
50
270.000000
51
300.000345
0
ARC
8
0
10
91.887878
20
99.617487
30
0.0
40
0.400000
50
90.000000
51
180.000000
0
LINE
8
0
10
92.217494
20
95.857680
30
0.0
11
93.947846
21
96.856714
31
0.0
0
LINE
8
0
10
92.067493
20
100.017487
30
0.0
11
91.887878
21
100.017487
31
0.0
0
LINE
8
0
10
93.947846
20
96.856714
30
0.0
11
94.245971
21
97.028822
31
0.0
0
ARC
8
0
10
92.067493
20
99.717487
30
0.0
40
0.300000
50
60.000000
51
90.000000
0
ARC
8
0
10
94.395962
20
96.769009
30
0.0
40
0.300000
50
24.433855
51
119.997915
0
LINE
8
0
10
93.947819
20
98.978290
30
0.0
11
92.217493
21
99.977294
31
0.0
0
LINE
8
0
10
94.669094
20
96.893101
30
0.0
11
95.889449
21
94.207064
31
0.0
0
ARC
8
0
10
94.547819
20
100.017521
30
0.0
40
1.200000
50
240.000000
51
270.000000
0
ARC
8
0
10
96.343089
20
94.417326
30
0.0
40
0.500000
50
204.867710
51
270.000000
0
LINE
8
0
10
122.428231
20
98.817475
30
0.0
11
94.547817
21
98.817521
31
0.0
0
LINE
8
0
10
96.343089
20
93.917326
30
0.0
11
120.633021
21
93.917314
31
0.0
0
ARC
8
0
10
122.428233
20
100.017475
30
0.0
40
1.200000
50
270.000000
51
300.000000
0
ARC
8
0
10
120.633022
20
94.417314
30
0.0
40
0.500000
50
270.000000
51
336.000000
0
LINE
8
0
10
124.758618
20
99.977283
30
0.0
11
123.028233
21
98.978245
31
0.0
0
LINE
8
0
10
121.089794
20
94.213946
30
0.0
11
122.105760
21
96.495843
31
0.0
0
ARC
8
0
10
124.908618
20
99.717475
30
0.0
40
0.300000
50
90.000000
51
120.000000
0
ARC
8
0
10
121.831697
20
96.617864
30
0.0
40
0.300000
50
336.000000
51
90.000000
0
LINE
8
0
10
125.088233
20
100.017475
30
0.0
11
124.908618
21
100.017475
31
0.0
0
LINE
8
0
10
121.829936
20
96.917859
30
0.0
11
120.823482
21
96.911952
31
0.0
0
ARC
8
0
10
125.088233
20
99.617475
30
0.0
40
0.400000
50
360.000000
51
90.000000
0
ARC
8
0
10
120.825243
20
96.611957
30
0.0
40
0.300000
50
90.000000
51
144.997646
0
LINE
8
0
10
125.488233
20
96.217475
30
0.0
11
125.488233
21
99.617475
31
0.0
0
LINE
8
0
10
120.579504
20
96.784040
30
0.0
11
120.112663
21
96.117379
31
0.0
0
ARC
8
0
10
125.088233
20
96.217475
30
0.0
40
0.400000
50
270.000000
51
360.000000
0
ARC
8
0
10
120.235532
20
96.031337
30
0.0
40
0.150000
50
144.997646
51
252.871294
0
LINE
8
0
10
124.908619
20
95.817475
30
0.0
11
125.088233
21
95.817475
31
0.0
0
LINE
8
0
10
120.191354
20
95.887990
30
0.0
11
120.305367
21
95.852853
31
0.0
0
ARC
8
0
10
124.908619
20
96.117475
30
0.0
40
0.300000
50
239.999655
51
270.000000
0
ARC
8
0
10
120.246463
20
95.661724
30
0.0
40
0.200000
50
322.477243
51
72.871294
0
LINE
8
0
10
123.028264
20
96.856702
30
0.0
11
124.758617
21
95.857669
31
0.0
0
LINE
8
0
10
120.405086
20
95.539908
30
0.0
11
119.934824
21
94.927556
31
0.0
0
ARC
8
0
10
122.428258
20
95.817475
30
0.0
40
1.200000
50
59.999655
51
90.000000
0
ARC
8
0
10
119.696891
20
95.110278
30
0.0
40
0.300000
50
270.000000
51
322.477243
0
LINE
8
0
10
120.856433
20
97.017475
30
0.0
11
122.428258
21
97.017475
31
0.0
0
LINE
8
0
10
119.697066
20
94.810279
30
0.0
11
119.212872
21
94.809995
31
0.0
0
ARC
8
0
10
120.856433
20
96.717475
30
0.0
40
0.300000
50
90.000000
51
144.114388
0
ARC
8
0
10
119.212696
20
95.109995
30
0.0
40
0.300000
50
161.984494
51
270.000000
0
LINE
8
0
10
120.084625
20
96.162500
30
0.0
11
120.613376
21
96.893326
31
0.0
0
LINE
8
0
10
118.927404
20
95.202777
30
0.0
11
119.124287
21
95.808161
31
0.0
0
ARC
8
0
10
120.246663
20
96.045266
30
0.0
40
0.200000
50
144.114388
51
251.418085
0
ARC
8
0
10
118.838995
20
95.900943
30
0.0
40
0.300000
50
341.984494
51
162.165067
0
LINE
8
0
10
120.294367
20
95.818229
30
0.0
11
120.182931
21
95.855692
31
0.0
0
LINE
8
0
10
118.553412
20
95.992826
30
0.0
11
118.242165
21
95.025432
31
0.0
0
ARC
8
0
10
120.246568
20
95.676049
30
0.0
40
0.150000
50
302.563134
51
71.418085
0
ARC
8
0
10
117.956582
20
95.117314
30
0.0
40
0.300000
50
270.000000
51
342.165067
0
LINE
8
0
10
119.941687
20
95.303367
30
0.0
11
120.327302
21
95.549629
31
0.0
0
LINE
8
0
10
117.956582
20
94.817314
30
0.0
11
97.500943
21
94.817326
31
0.0
0
ARC
8
0
10
119.780218
20
95.556207
30
0.0
40
0.300000
50
270.000000
51
302.563134
0
ARC
8
0
10
97.500943
20
94.517326
30
0.0
40
0.300000
50
90.000000
51
145.309708
0
LINE
8
0
10
119.442235
20
95.256264
30
0.0
11
119.780168
21
95.256207
31
0.0
0
ARC
8
0
10
97.007598
20
94.858810
30
0.0
40
0.300000
50
147.934316
51
325.309708
0
ARC
8
0
10
119.442286
20
95.556264
30
0.0
40
0.300000
50
157.092865
51
270.000000
0
ARC
8
0
10
96.499134
20
95.177345
30
0.0
40
0.300000
50
327.934316
51
24.000000
0
LINE
8
0
10
119.440536
20
96.322857
30
0.0
11
119.165945
21
95.673035
31
0.0
0
LINE
8
0
10
96.773198
20
95.299366
30
0.0
11
96.321400
21
96.314120
31
0.0
0
ARC
8
0
10
118.979967
20
96.517477
30
0.0
40
0.500000
50
337.092865
51
90.000000
0
ARC
8
0
10
96.778173
20
96.517488
30
0.0
40
0.500000
50
90.000000
51
204.000000
0
LINE
8
0
10
96.778173
20
97.017488
30
0.0
11
118.979967
21
97.017477
31
0.0
0
ARC
8
0
10
91.887780
20
147.117171
30
0.0
40
0.400000
50
90.000000
51
180.000000
0
LINE
8
0
10
91.487780
20
143.717171
30
0.0
11
91.487780
21
147.117171
31
0.0
0
LINE
8
0
10
91.887780
20
147.517171
30
0.0
11
92.067394
21
147.517171
31
0.0
0
ARC
8
0
10
91.887780
20
143.717171
30
0.0
40
0.400000
50
180.000000
51
270.000000
0
ARC
8
0
10
92.067394
20
147.217171
30
0.0
40
0.300000
50
59.999655
51
90.000000
0
LINE
8
0
10
92.067395
20
143.317171
30
0.0
11
91.887780
21
143.317171
31
0.0
0
LINE
8
0
10
92.217396
20
147.476978
30
0.0
11
93.947749
21
146.477944
31
0.0
0
ARC
8
0
10
92.067395
20
143.617171
30
0.0
40
0.300000
50
270.000000
51
300.000000
0
LINE
8
0
10
93.947749
20
146.477944
30
0.0
11
94.245874
21
146.305836
31
0.0
0
LINE
8
0
10
93.947721
20
144.356368
30
0.0
11
92.217395
21
143.357363
31
0.0
0
ARC
8
0
10
94.395864
20
146.565649
30
0.0
40
0.300000
50
240.002085
51
335.566145
0
ARC
8
0
10
94.547721
20
143.317137
30
0.0
40
1.200000
50
90.000000
51
120.000000
0
LINE
8
0
10
94.668996
20
146.441556
30
0.0
11
95.889351
21
149.127594
31
0.0
0
LINE
8
0
10
122.428133
20
144.517182
30
0.0
11
94.547720
21
144.517137
31
0.0
0
ARC
8
0
10
96.342992
20
148.917332
30
0.0
40
0.500000
50
90.000000
51
155.132290
0
ARC
8
0
10
122.428135
20
143.317182
30
0.0
40
1.200000
50
60.000000
51
90.000000
0
LINE
8
0
10
96.342991
20
149.417332
30
0.0
11
120.632924
21
149.417343
31
0.0
0
LINE
8
0
10
124.758520
20
143.357375
30
0.0
11
123.028135
21
144.356413
31
0.0
0
ARC
8
0
10
120.632924
20
148.917343
30
0.0
40
0.500000
50
24.000000
51
90.000000
0
ARC
8
0
10
124.908520
20
143.617182
30
0.0
40
0.300000
50
240.000000
51
270.000000
0
LINE
8
0
10
121.089697
20
149.120711
30
0.0
11
122.105663
21
146.838814
31
0.0
0
LINE
8
0
10
125.088135
20
143.317182
30
0.0
11
124.908520
21
143.317182
31
0.0
0
ARC
8
0
10
121.831599
20
146.716793
30
0.0
40
0.300000
50
270.000000
51
24.000000
0
ARC
8
0
10
125.088135
20
143.717182
30
0.0
40
0.400000
50
270.000000
51
360.000000
0
LINE
8
0
10
121.829838
20
146.416798
30
0.0
11
120.823384
21
146.422706
31
0.0
0
LINE
8
0
10
125.488135
20
147.117182
30
0.0
11
125.488135
21
143.717182
31
0.0
0
ARC
8
0
10
120.825145
20
146.722701
30
0.0
40
0.300000
50
215.002354
51
270.000000
0
ARC
8
0
10
125.088135
20
147.117182
30
0.0
40
0.400000
50
360.000000
51
90.000000
0
LINE
8
0
10
120.579407
20
146.550618
30
0.0
11
120.112565
21
147.217279
31
0.0
0
LINE
8
0
10
124.908521
20
147.517182
30
0.0
11
125.088135
21
147.517182
31
0.0
0
ARC
8
0
10
120.235434
20
147.303320
30
0.0
40
0.150000
50
107.128706
51
215.002354
0
ARC
8
0
10
124.908521
20
147.217182
30
0.0
40
0.300000
50
90.000000
51
120.000345
0
LINE
8
0
10
120.191256
20
147.446667
30
0.0
11
120.305270
21
147.481805
31
0.0
0
LINE
8
0
10
123.028167
20
146.477955
30
0.0
11
124.758520
21
147.476989
31
0.0
0
ARC
8
0
10
120.246366
20
147.672934
30
0.0
40
0.200000
50
287.128706
51
37.522757
0
ARC
8
0
10
122.428160
20
147.517182
30
0.0
40
1.200000
50
270.000000
51
300.000345
0
LINE
8
0
10
120.404988
20
147.794749
30
0.0
11
119.934727
21
148.407102
31
0.0
0
LINE
8
0
10
120.856335
20
146.317182
30
0.0
11
122.428160
21
146.317182
31
0.0
0
ARC
8
0
10
119.696793
20
148.224379
30
0.0
40
0.300000
50
37.522757
51
90.000000
0
ARC
8
0
10
120.856335
20
146.617182
30
0.0
40
0.300000
50
215.885612
51
270.000000
0
LINE
8
0
10
119.696969
20
148.524379
30
0.0
11
119.212774
21
148.524662
31
0.0
0
LINE
8
0
10
120.084528
20
147.172158
30
0.0
11
120.613278
21
146.441332
31
0.0
0
ARC
8
0
10
119.212599
20
148.224662
30
0.0
40
0.300000
50
90.000000
51
198.015506
0
ARC
8
0
10
120.246566
20
147.289392
30
0.0
40
0.200000
50
108.581915
51
215.885612
0
LINE
8
0
10
118.927307
20
148.131880
30
0.0
11
119.124189
21
147.526497
31
0.0
0
LINE
8
0
10
120.294269
20
147.516428
30
0.0
11
120.182834
21
147.478966
31
0.0
0
ARC
8
0
10
118.838897
20
147.433714
30
0.0
40
0.300000
50
197.834933
51
18.015506
0
ARC
8
0
10
120.246470
20
147.658609
30
0.0
40
0.150000
50
288.581915
51
57.436866
0
LINE
8
0
10
118.553314
20
147.341832
30
0.0
11
118.242067
21
148.309226
31
0.0
0
LINE
8
0
10
119.941589
20
148.031290
30
0.0
11
120.327204
21
147.785029
31
0.0
0
ARC
8
0
10
117.956484
20
148.217343
30
0.0
40
0.300000
50
17.834933
51
90.000000
0
ARC
8
0
10
119.780121
20
147.778451
30
0.0
40
0.300000
50
57.436866
51
90.000000
0
LINE
8
0
10
117.956484
20
148.517343
30
0.0
11
97.500845
21
148.517332
31
0.0
0
LINE
8
0
10
119.442138
20
148.078394
30
0.0
11
119.780070
21
148.078451
31
0.0
0
ARC
8
0
10
97.500845
20
148.817332
30
0.0
40
0.300000
50
214.690292
51
270.000000
0
ARC
8
0
10
119.442188
20
147.778394
30
0.0
40
0.300000
50
90.000000
51
202.907135
0
ARC
8
0
10
97.007501
20
148.475848
30
0.0
40
0.300000
50
34.690292
51
212.065684
0
LINE
8
0
10
119.440438
20
147.011800
30
0.0
11
119.165847
21
147.661622
31
0.0
0
ARC
8
0
10
96.499037
20
148.157313
30
0.0
40
0.300000
50
336.000000
51
32.065684
0
ARC
8
0
10
118.979869
20
146.817181
30
0.0
40
0.500000
50
270.000000
51
22.907135
0
LINE
8
0
10
96.773100
20
148.035292
30
0.0
11
96.321303
21
147.020538
31
0.0
0
LINE
8
0
10
96.778076
20
146.317170
30
0.0
11
118.979870
21
146.317181
31
0.0
0
ARC
8
0
10
96.778075
20
146.817170
30
0.0
40
0.500000
50
156.000000
51
270.000000
0
ARC
8
0
10
92.838679
20
149.390065
30
0.0
40
0.300000
50
252.598279
51
330.367342
0
ARC
8
0
10
93.273286
20
149.142846
30
0.0
40
0.200000
50
90.000000
51
150.367342
0
LINE
8
0
10
93.274688
20
149.342841
30
0.0
11
94.825782
21
149.342841
31
0.0
0
ARC
8
0
10
94.825782
20
149.042841
30
0.0
40
0.300000
50
342.598279
51
90.000000
0
LINE
8
0
10
95.112052
20
148.953120
30
0.0
11
94.510087
21
147.032451
31
0.0
0
ARC
8
0
10
93.746702
20
147.271707
30
0.0
40
0.800000
50
297.598279
51
342.598279
0
LINE
8
0
10
94.117318
20
146.562733
30
0.0
11
93.836247
21
146.415804
31
0.0
0
ARC
8
0
10
93.743594
20
146.593047
30
0.0
40
0.200000
50
180.000000
51
297.598279
0
LINE
8
0
10
93.543769
20
146.601428
30
0.0
11
93.555866
21
146.889850
31
0.0
0
LINE
8
0
10
93.555866
20
146.889850
30
0.0
11
91.847769
21
147.973913
31
0.0
0
ARC
8
0
10
91.526258
20
147.467326
30
0.0
40
0.600000
50
57.598279
51
90.000000
0
LINE
8
0
10
91.526258
20
148.067326
30
0.0
11
91.487976
21
148.067326
31
0.0
0
ARC
8
0
10
91.587976
20
147.784483
30
0.0
40
0.300000
50
109.471221
51
250.528779
0
LINE
8
0
10
91.487976
20
147.501640
30
0.0
11
91.487976
21
143.467326
31
0.0
0
ARC
8
0
10
91.787976
20
143.467326
30
0.0
40
0.300000
50
180.000000
51
270.000000
0
LINE
8
0
10
91.787976
20
143.167326
30
0.0
11
92.003863
21
143.167326
31
0.0
0
ARC
8
0
10
92.003863
20
143.467326
30
0.0
40
0.300000
50
270.000000
51
301.324705
0
LINE
8
0
10
92.159829
20
143.211056
30
0.0
11
93.687976
21
144.141086
31
0.0
0
ARC
8
0
10
93.787976
20
143.967881
30
0.0
40
0.200000
50
40.000000
51
120.000000
0
LINE
8
0
10
93.941185
20
144.096439
30
0.0
11
95.754021
21
141.885986
31
0.0
0
ARC
8
0
10
94.987976
20
141.243198
30
0.0
40
1.000000
50
360.000000
51
40.000000
0
LINE
8
0
10
95.987976
20
141.243198
30
0.0
11
95.987976
21
103.367326
31
0.0
0
ARC
8
0
10
96.287976
20
103.367326
30
0.0
40
0.300000
50
180.000000
51
270.000000
0
LINE
8
0
10
96.287976
20
103.067326
30
0.0
11
98.187976
21
103.067326
31
0.0
0
ARC
8
0
10
98.187976
20
102.767326
30
0.0
40
0.300000
50
360.000000
51
90.000000
0
LINE
8
0
10
98.487976
20
102.767326
30
0.0
11
98.487976
21
101.367326
31
0.0
0
ARC
8
0
10
98.187976
20
101.367326
30
0.0
40
0.300000
50
270.000000
51
360.000000
0
LINE
8
0
10
98.187976
20
101.067326
30
0.0
11
95.657840
21
101.067326
31
0.0
0
ARC
8
0
10
95.657840
20
100.767326
30
0.0
40
0.300000
50
90.000000
51
140.000000
0
LINE
8
0
10
95.428027
20
100.960162
30
0.0
11
93.941185
21
99.138213
31
0.0
0
ARC
8
0
10
93.787976
20
99.266771
30
0.0
40
0.200000
50
240.000000
51
320.000000
0
LINE
8
0
10
93.687976
20
99.093565
30
0.0
11
92.159829
21
100.023596
31
0.0
0
ARC
8
0
10
92.003863
20
99.767326
30
0.0
40
0.300000
50
58.675295
51
90.000000
0
LINE
8
0
10
92.003863
20
100.067326
30
0.0
11
91.787976
21
100.067326
31
0.0
0
ARC
8
0
10
91.787976
20
99.767326
30
0.0
40
0.300000
50
90.000000
51
180.000000
0
LINE
8
0
10
91.487976
20
99.767326
30
0.0
11
91.487976
21
99.667326
31
0.0
0
LINE
8
0
10
91.487976
20
99.667326
30
0.0
11
91.487976
21
95.733011
31
0.0
0
ARC
8
0
10
91.587976
20
95.450169
30
0.0
40
0.300000
50
109.471221
51
250.528779
0
LINE
8
0
10
91.487976
20
95.167326
30
0.0
11
91.526258
21
95.167326
31
0.0
0
ARC
8
0
10
91.526258
20
95.767326
30
0.0
40
0.600000
50
270.000000
51
302.401721
0
LINE
8
0
10
91.847769
20
95.260739
30
0.0
11
93.555866
21
96.344802
31
0.0
0
LINE
8
0
10
93.555866
20
96.344802
30
0.0
11
93.543769
21
96.633224
31
0.0
0
ARC
8
0
10
93.743594
20
96.641605
30
0.0
40
0.200000
50
62.401721
51
180.000000
0
LINE
8
0
10
93.836247
20
96.818848
30
0.0
11
94.117318
21
96.671919
31
0.0
0
ARC
8
0
10
93.746702
20
95.962945
30
0.0
40
0.800000
50
17.401721
51
62.401721
0
LINE
8
0
10
94.510087
20
96.202201
30
0.0
11
95.112052
21
94.281532
31
0.0
0
ARC
8
0
10
94.825782
20
94.191811
30
0.0
40
0.300000
50
270.000000
51
17.401721
0
LINE
8
0
10
94.825782
20
93.891811
30
0.0
11
93.274688
21
93.891811
31
0.0
0
ARC
8
0
10
93.273286
20
94.091806
30
0.0
40
0.200000
50
209.632658
51
270.000000
0
ARC
8
0
10
92.838679
20
93.844587
30
0.0
40
0.300000
50
29.632658
51
107.401721
0
LINE
8
0
10
92.748958
20
94.130857
30
0.0
11
91.786755
21
93.877234
31
0.0
0
LINE
8
0
10
91.710291
20
93.867326
30
0.0
11
91.786755
21
93.877234
31
0.0
0
LINE
8
0
10
91.710291
20
93.867326
30
0.0
11
71.137976
21
93.867326
31
0.0
0
ARC
8
0
10
71.137976
20
93.567326
30
0.0
40
0.300000
50
90.000000
51
180.000000
0
LINE
8
0
10
70.837976
20
93.567326
30
0.0
11
70.837976
21
89.667298
31
0.0
0
ARC
8
0
10
70.537976
20
89.667298
30
0.0
40
0.300000
50
270.000000
51
360.000000
0
LINE
8
0
10
70.537976
20
89.367298
30
0.0
11
69.537976
21
89.367298
31
0.0
0
ARC
8
0
10
69.537976
20
89.667298
30
0.0
40
0.300000
50
180.000000
51
270.000000
0
LINE
8
0
10
69.237976
20
89.667298
30
0.0
11
69.237976
21
100.067298
31
0.0
0
ARC
8
0
10
68.937976
20
100.067298
30
0.0
40
0.300000
50
360.000000
51
90.000000
0
LINE
8
0
10
68.937976
20
100.367298
30
0.0
11
60.987976
21
100.367298
31
0.0
0
ARC
8
0
10
60.987976
20
100.867298
30
0.0
40
0.500000
50
180.000000
51
270.000000
0
LINE
8
0
10
60.487976
20
100.867298
30
0.0
11
60.487976
21
149.067326
31
0.0
0
ARC
8
0
10
60.787976
20
149.067326
30
0.0
40
0.300000
50
90.000000
51
180.000000
0
LINE
8
0
10
60.787976
20
149.367326
30
0.0
11
64.037421
21
149.367326
31
0.0
0
ARC
8
0
10
64.037421
20
149.067326
30
0.0
40
0.300000
50
30.000000
51
90.000000
0
LINE
8
0
10
64.297229
20
149.217326
30
0.0
11
64.747784
21
148.436941
31
0.0
0
ARC
8
0
10
64.487976
20
148.286941
30
0.0
40
0.300000
50
360.000000
51
30.000000
0
LINE
8
0
10
64.787976
20
148.286941
30
0.0
11
64.787976
21
148.167326
31
0.0
0
ARC
8
0
10
64.487976
20
148.167326
30
0.0
40
0.300000
50
270.000000
51
360.000000
0
LINE
8
0
10
64.487976
20
147.867326
30
0.0
11
62.587976
21
147.867326
31
0.0
0
ARC
8
0
10
62.587976
20
147.567326
30
0.0
40
0.300000
50
90.000000
51
180.000000
0
LINE
8
0
10
62.287976
20
147.567326
30
0.0
11
62.287976
21
143.066215
31
0.0
0
ARC
8
0
10
62.587976
20
143.066215
30
0.0
40
0.300000
50
180.000000
51
270.000000
0
LINE
8
0
10
62.587976
20
142.766215
30
0.0
11
63.787976
21
142.766215
31
0.0
0
ARC
8
0
10
63.787976
20
143.066215
30
0.0
40
0.300000
50
270.000000
51
360.000000
0
LINE
8
0
10
64.087976
20
143.066215
30
0.0
11
64.087976
21
144.067726
31
0.0
0
ARC
8
0
10
64.387976
20
144.067726
30
0.0
40
0.300000
50
90.000000
51
180.000000
0
LINE
8
0
10
64.387976
20
144.367726
30
0.0
11
65.787976
21
144.367726
31
0.0
0
ARC
8
0
10
65.787976
20
144.067726
30
0.0
40
0.300000
50
360.000000
51
90.000000
0
LINE
8
0
10
66.087976
20
144.067726
30
0.0
11
66.087976
21
143.066215
31
0.0
0
ARC
8
0
10
66.387976
20
143.066215
30
0.0
40
0.300000
50
180.000000
51
270.000000
0
LINE
8
0
10
66.387976
20
142.766215
30
0.0
11
72.687976
21
142.766215
31
0.0
0
ARC
8
0
10
72.687976
20
143.066215
30
0.0
40
0.300000
50
270.000000
51
360.000000
0
LINE
8
0
10
72.987976
20
143.066215
30
0.0
11
72.987976
21
144.067726
31
0.0
0
ARC
8
0
10
73.287976
20
144.067726
30
0.0
40
0.300000
50
90.000000
51
180.000000
0
LINE
8
0
10
73.287976
20
144.367726
30
0.0
11
74.687976
21
144.367726
31
0.0
0
ARC
8
0
10
74.687976
20
144.067726
30
0.0
40
0.300000
50
360.000000
51
90.000000
0
LINE
8
0
10
74.987976
20
144.067726
30
0.0
11
74.987976
21
143.066215
31
0.0
0
ARC
8
0
10
75.287976
20
143.066215
30
0.0
40
0.300000
50
180.000000
51
270.000000
0
LINE
8
0
10
75.287976
20
142.766215
30
0.0
11
76.487976
21
142.766215
31
0.0
0
ARC
8
0
10
76.487976
20
143.066215
30
0.0
40
0.300000
50
270.000000
51
360.000000
0
LINE
8
0
10
76.787976
20
143.066215
30
0.0
11
76.787976
21
147.567326
31
0.0
0
ARC
8
0
10
76.487976
20
147.567326
30
0.0
40
0.300000
50
360.000000
51
90.000000
0
LINE
8
0
10
76.487976
20
147.867326
30
0.0
11
75.087976
21
147.867326
31
0.0
0
ARC
8
0
10
75.087976
20
148.167326
30
0.0
40
0.300000
50
180.000000
51
270.000000
0
LINE
8
0
10
74.787976
20
148.167326
30
0.0
11
74.787976
21
148.286941
31
0.0
0
ARC
8
0
10
75.087976
20
148.286941
30
0.0
40
0.300000
50
150.000000
51
180.000000
0
LINE
8
0
10
74.828169
20
148.436941
30
0.0
11
75.278724
21
149.217326
31
0.0
0
ARC
8
0
10
75.538532
20
149.067326
30
0.0
40
0.300000
50
90.000000
51
150.000000
0
LINE
8
0
10
75.538532
20
149.367326
30
0.0
11
77.987976
21
149.367326
31
0.0
0
ARC
8
0
10
77.987976
20
149.067326
30
0.0
40
0.300000
50
360.000000
51
90.000000
0
LINE
8
0
10
78.287976
20
149.067326
30
0.0
11
78.287976
21
143.066215
31
0.0
0
ARC
8
0
10
78.587976
20
143.066215
30
0.0
40
0.300000
50
180.000000
51
270.000000
0
LINE
8
0
10
78.587976
20
142.766215
30
0.0
11
89.387976
21
142.766215
31
0.0
0
ARC
8
0
10
89.387976
20
143.066215
30
0.0
40
0.300000
50
270.000000
51
360.000000
0
LINE
8
0
10
89.687976
20
143.066215
30
0.0
11
89.687976
21
149.067326
31
0.0
0
ARC
8
0
10
89.987976
20
149.067326
30
0.0
40
0.300000
50
90.000000
51
180.000000
0
LINE
8
0
10
89.987976
20
149.367326
30
0.0
11
91.710291
21
149.367326
31
0.0
0
LINE
8
0
10
91.786755
20
149.357418
30
0.0
11
91.710291
21
149.367326
31
0.0
0
LINE
8
0
10
91.786755
20
149.357418
30
0.0
11
92.748958
21
149.103795
31
0.0
0
ATTDEF
8
0
10
76.763254
20
149.367326
30
0.0
40
3.5
1

3

2
VC_START
70
0
0
ATTDEF
8
0
10
91.786755
20
93.877234
30
0.0
40
3.5
1

3

2
VC_END
70
0
0
ATTDEF
8
0
10
137.488233
20
75.367354
30
0.0
40
3.5
1

3

2
FP_LCS_ORIG
70
0
0
ATTDEF
8
0
10
127.488233
20
75.367354
30
0.0
40
3.5
1

3

2
FP_LCS_HOT
70
0
0
ATTDEF
8
0
10
137.488233
20
85.367354
30
0.0
40
3.5
1

3

2
FP_LCS_INTERN
70
0
0
ENDSEC
0
EOF
