0
SECTION
2
ENTITIES
0
LINE
8
0
10
84.150258
20
20.600000
30
0.0
11
84.150258
21
32.725613
31
0.0
0
ARC
8
0
10
83.850258
20
32.725613
30
0.0
40
0.300000
50
0.000000
51
75.000000
0
LINE
8
0
10
83.927904
20
33.015391
30
0.0
11
81.872612
21
33.566105
31
0.0
0
ARC
8
0
10
81.950258
20
33.855883
30
0.0
40
0.300000
50
180.000000
51
255.000000
0
LINE
8
0
10
81.650258
20
33.855883
30
0.0
11
81.650258
21
34.498890
31
0.0
0
ARC
8
0
10
81.950258
20
34.498890
30
0.0
40
0.300000
50
90.000000
51
180.000000
0
LINE
8
0
10
81.950258
20
34.798890
30
0.0
11
83.850258
21
34.798890
31
0.0
0
ARC
8
0
10
83.850258
20
35.098890
30
0.0
40
0.300000
50
270.000000
51
0.000000
0
LINE
8
0
10
84.150258
20
35.098890
30
0.0
11
84.150258
21
65.298890
31
0.0
0
ARC
8
0
10
83.850258
20
65.298890
30
0.0
40
0.300000
50
0.000000
51
90.000000
0
LINE
8
0
10
83.850258
20
65.598890
30
0.0
11
52.350258
21
65.598890
31
0.0
0
ARC
8
0
10
52.350258
20
65.298890
30
0.0
40
0.300000
50
90.000000
51
180.000000
0
LINE
8
0
10
52.050258
20
65.298890
30
0.0
11
52.050258
21
35.098890
31
0.0
0
ARC
8
0
10
52.350258
20
35.098890
30
0.0
40
0.300000
50
180.000000
51
270.000000
0
LINE
8
0
10
52.350258
20
34.798890
30
0.0
11
54.250258
21
34.798890
31
0.0
0
ARC
8
0
10
54.250258
20
34.498890
30
0.0
40
0.300000
50
0.000000
51
90.000000
0
LINE
8
0
10
54.550258
20
34.498890
30
0.0
11
54.550258
21
33.802293
31
0.0
0
ARC
8
0
10
54.250258
20
33.802293
30
0.0
40
0.300000
50
285.000000
51
0.000000
0
LINE
8
0
10
54.327904
20
33.512515
30
0.0
11
52.272612
21
32.961801
31
0.0
0
ARC
8
0
10
52.350258
20
32.672024
30
0.0
40
0.300000
50
105.000000
51
180.000000
0
LINE
8
0
10
52.050258
20
32.672024
30
0.0
11
52.050258
21
27.201111
31
0.0
0
ARC
8
0
10
52.350258
20
27.201111
30
0.0
40
0.300000
50
180.000000
51
270.000000
0
LINE
8
0
10
52.350258
20
26.901111
30
0.0
11
56.054918
21
26.901111
31
0.0
0
ARC
8
0
10
56.054918
20
26.201111
30
0.0
40
0.700000
50
0.000000
51
90.000000
0
LINE
8
0
10
56.754918
20
26.201111
30
0.0
11
56.754918
21
20.600000
31
0.0
0
ARC
8
0
10
57.054918
20
20.600000
30
0.0
40
0.300000
50
180.000000
51
270.000000
0
LINE
8
0
10
57.054918
20
20.300000
30
0.0
11
83.850258
21
20.300000
31
0.0
0
ARC
8
0
10
83.850258
20
20.600000
30
0.0
40
0.300000
50
270.000000
51
0.000000
0
ARC
8
0
10
81.750258
20
0.300000
30
0.0
40
0.300000
50
180.000000
51
270.000000
0
LINE
8
0
10
81.450258
20
0.300000
30
0.0
11
81.450258
21
1.800000
31
0.0
0
ARC
8
0
10
82.150258
20
1.800000
30
0.0
40
0.700000
50
90.000000
51
180.000000
0
ARC
8
0
10
82.150258
20
2.200000
30
0.0
40
0.300000
50
0.000000
51
90.000000
0
LINE
8
0
10
82.450258
20
2.200000
30
0.0
11
82.450258
21
1.500000
31
0.0
0
ARC
8
0
10
82.750258
20
1.500000
30
0.0
40
0.300000
50
180.000000
51
270.000000
0
LINE
8
0
10
82.750258
20
1.200000
30
0.0
11
83.950258
21
1.200000
31
0.0
0
ARC
8
0
10
83.950258
20
1.900000
30
0.0
40
0.700000
50
270.000000
51
0.000000
0
LINE
8
0
10
84.650258
20
1.900000
30
0.0
11
84.650258
21
8.100000
31
0.0
0
ARC
8
0
10
83.950258
20
8.100000
30
0.0
40
0.700000
50
0.000000
51
90.000000
0
LINE
8
0
10
83.950258
20
8.800000
30
0.0
11
82.750258
21
8.800000
31
0.0
0
ARC
8
0
10
82.750258
20
8.500000
30
0.0
40
0.300000
50
90.000000
51
180.000000
0
LINE
8
0
10
82.450258
20
8.500000
30
0.0
11
82.450258
21
7.800000
31
0.0
0
ARC
8
0
10
82.150258
20
7.800000
30
0.0
40
0.300000
50
270.000000
51
0.000000
0
ARC
8
0
10
82.150258
20
8.200000
30
0.0
40
0.700000
50
180.000000
51
270.000000
0
LINE
8
0
10
81.450258
20
8.200000
30
0.0
11
81.450258
21
9.700000
31
0.0
0
ARC
8
0
10
81.750258
20
9.700000
30
0.0
40
0.300000
50
90.000000
51
180.000000
0
LINE
8
0
10
81.750258
20
10.000000
30
0.0
11
83.850258
21
10.000000
31
0.0
0
ARC
8
0
10
83.850258
20
10.300000
30
0.0
40
0.300000
50
270.000000
51
0.000000
0
LINE
8
0
10
84.150258
20
10.300000
30
0.0
11
84.150258
21
17.500000
31
0.0
0
ARC
8
0
10
83.150258
20
17.500000
30
0.0
40
1.000000
50
0.000000
51
90.000000
0
LINE
8
0
10
83.150258
20
18.500000
30
0.0
11
54.727943
21
18.500000
31
0.0
0
LINE
8
0
10
54.651479
20
18.509908
30
0.0
11
54.727943
21
18.500000
31
0.0
0
LINE
8
0
10
54.651479
20
18.509908
30
0.0
11
53.689276
21
18.763531
31
0.0
0
ARC
8
0
10
53.599555
20
18.477262
30
0.0
40
0.300000
50
72.598279
51
150.367342
0
ARC
8
0
10
53.164948
20
18.724480
30
0.0
40
0.200000
50
270.000000
51
330.367342
0
LINE
8
0
10
53.163546
20
18.524485
30
0.0
11
51.612452
21
18.524485
31
0.0
0
ARC
8
0
10
51.612452
20
18.824485
30
0.0
40
0.300000
50
162.598279
51
270.000000
0
LINE
8
0
10
51.326182
20
18.914206
30
0.0
11
51.928147
21
20.834875
31
0.0
0
ARC
8
0
10
52.691532
20
20.595619
30
0.0
40
0.800000
50
117.598279
51
162.598279
0
LINE
8
0
10
52.320916
20
21.304593
30
0.0
11
52.601987
21
21.451523
31
0.0
0
ARC
8
0
10
52.694641
20
21.274279
30
0.0
40
0.200000
50
0.000000
51
117.598279
0
LINE
8
0
10
52.894465
20
21.265898
30
0.0
11
52.882368
21
20.977476
31
0.0
0
LINE
8
0
10
52.882368
20
20.977476
30
0.0
11
54.590465
21
19.893413
31
0.0
0
ARC
8
0
10
54.911976
20
20.400000
30
0.0
40
0.600000
50
237.598279
51
270.000000
0
LINE
8
0
10
54.911976
20
19.800000
30
0.0
11
54.950258
21
19.800000
31
0.0
0
ARC
8
0
10
54.850258
20
20.082843
30
0.0
40
0.300000
50
289.471221
51
70.528779
0
LINE
8
0
10
54.950258
20
20.365686
30
0.0
11
54.950258
21
24.300000
31
0.0
0
LINE
8
0
10
54.950258
20
24.300000
30
0.0
11
54.950258
21
24.400000
31
0.0
0
ARC
8
0
10
54.650258
20
24.400000
30
0.0
40
0.300000
50
0.000000
51
90.000000
0
LINE
8
0
10
54.650258
20
24.700000
30
0.0
11
54.350258
21
24.700000
31
0.0
0
LINE
8
0
10
54.350258
20
24.700000
30
0.0
11
52.750258
21
23.776240
31
0.0
0
ARC
8
0
10
52.650258
20
23.949445
30
0.0
40
0.200000
50
220.000000
51
300.000000
0
LINE
8
0
10
52.497049
20
23.820887
30
0.0
11
50.520445
21
26.176513
31
0.0
0
ARC
8
0
10
50.750258
20
26.369349
30
0.0
40
0.300000
50
180.000000
51
220.000000
0
LINE
8
0
10
50.450258
20
26.369349
30
0.0
11
50.450258
21
66.130651
31
0.0
0
ARC
8
0
10
50.750258
20
66.130651
30
0.0
40
0.300000
50
140.000000
51
180.000000
0
LINE
8
0
10
50.520445
20
66.323488
30
0.0
11
52.497049
21
68.679113
31
0.0
0
ARC
8
0
10
52.650258
20
68.550556
30
0.0
40
0.200000
50
60.000000
51
140.000000
0
LINE
8
0
10
52.750258
20
68.723761
30
0.0
11
54.350258
21
67.800000
31
0.0
0
LINE
8
0
10
54.350258
20
67.800000
30
0.0
11
54.650258
21
67.800000
31
0.0
0
ARC
8
0
10
54.650258
20
68.100000
30
0.0
40
0.300000
50
270.000000
51
0.000000
0
LINE
8
0
10
54.950258
20
68.100000
30
0.0
11
54.950258
21
72.134315
31
0.0
0
ARC
8
0
10
54.850258
20
72.417158
30
0.0
40
0.300000
50
289.471221
51
70.528779
0
LINE
8
0
10
54.950258
20
72.700000
30
0.0
11
54.911976
21
72.700000
31
0.0
0
ARC
8
0
10
54.911976
20
72.100000
30
0.0
40
0.600000
50
90.000000
51
122.401721
0
LINE
8
0
10
54.590465
20
72.606587
30
0.0
11
52.882368
21
71.522524
31
0.0
0
LINE
8
0
10
52.882368
20
71.522524
30
0.0
11
52.894465
21
71.234103
31
0.0
0
ARC
8
0
10
52.694641
20
71.225721
30
0.0
40
0.200000
50
242.401721
51
0.000000
0
LINE
8
0
10
52.601987
20
71.048478
30
0.0
11
52.320916
21
71.195407
31
0.0
0
ARC
8
0
10
52.691532
20
71.904381
30
0.0
40
0.800000
50
197.401721
51
242.401721
0
LINE
8
0
10
51.928147
20
71.665126
30
0.0
11
51.326182
21
73.585794
31
0.0
0
ARC
8
0
10
51.612452
20
73.675515
30
0.0
40
0.300000
50
90.000000
51
197.401721
0
LINE
8
0
10
51.612452
20
73.975515
30
0.0
11
53.163546
21
73.975515
31
0.0
0
ARC
8
0
10
53.164948
20
73.775520
30
0.0
40
0.200000
50
29.632658
51
90.000000
0
ARC
8
0
10
53.599555
20
74.022739
30
0.0
40
0.300000
50
209.632658
51
287.401721
0
LINE
8
0
10
53.689276
20
73.736469
30
0.0
11
54.651479
21
73.990092
31
0.0
0
LINE
8
0
10
54.727943
20
74.000000
30
0.0
11
54.651479
21
73.990092
31
0.0
0
LINE
8
0
10
54.727943
20
74.000000
30
0.0
11
56.354918
21
74.000000
31
0.0
0
ARC
8
0
10
56.354918
20
73.700000
30
0.0
40
0.300000
50
0.000000
51
90.000000
0
LINE
8
0
10
56.654918
20
73.700000
30
0.0
11
56.654918
21
67.698890
31
0.0
0
ARC
8
0
10
56.954918
20
67.698890
30
0.0
40
0.300000
50
180.000000
51
270.000000
0
LINE
8
0
10
56.954918
20
67.398890
30
0.0
11
67.850258
21
67.398890
31
0.0
0
ARC
8
0
10
67.850258
20
67.698890
30
0.0
40
0.300000
50
270.000000
51
0.000000
0
LINE
8
0
10
68.150258
20
67.698890
30
0.0
11
68.150258
21
73.700000
31
0.0
0
ARC
8
0
10
68.450258
20
73.700000
30
0.0
40
0.300000
50
90.000000
51
180.000000
0
LINE
8
0
10
68.450258
20
74.000000
30
0.0
11
70.899703
21
74.000000
31
0.0
0
ARC
8
0
10
70.899703
20
73.700000
30
0.0
40
0.300000
50
30.000000
51
90.000000
0
LINE
8
0
10
71.159510
20
73.850000
30
0.0
11
71.610065
21
73.069615
31
0.0
0
ARC
8
0
10
71.350258
20
72.919615
30
0.0
40
0.300000
50
0.000000
51
30.000000
0
LINE
8
0
10
71.650258
20
72.919615
30
0.0
11
71.650258
21
72.800000
31
0.0
0
ARC
8
0
10
71.350258
20
72.800000
30
0.0
40
0.300000
50
270.000000
51
0.000000
0
LINE
8
0
10
71.350258
20
72.500000
30
0.0
11
69.950258
21
72.500000
31
0.0
0
ARC
8
0
10
69.950258
20
72.200000
30
0.0
40
0.300000
50
90.000000
51
180.000000
0
LINE
8
0
10
69.650258
20
72.200000
30
0.0
11
69.650258
21
67.698890
31
0.0
0
ARC
8
0
10
69.950258
20
67.698890
30
0.0
40
0.300000
50
180.000000
51
270.000000
0
LINE
8
0
10
69.950258
20
67.398890
30
0.0
11
71.150258
21
67.398890
31
0.0
0
ARC
8
0
10
71.150258
20
67.698890
30
0.0
40
0.300000
50
270.000000
51
0.000000
0
LINE
8
0
10
71.450258
20
67.698890
30
0.0
11
71.450258
21
68.700400
31
0.0
0
ARC
8
0
10
71.750258
20
68.700400
30
0.0
40
0.300000
50
90.000000
51
180.000000
0
LINE
8
0
10
71.750258
20
69.000400
30
0.0
11
73.150258
21
69.000400
31
0.0
0
ARC
8
0
10
73.150258
20
68.700400
30
0.0
40
0.300000
50
0.000000
51
90.000000
0
LINE
8
0
10
73.450258
20
68.700400
30
0.0
11
73.450258
21
67.698890
31
0.0
0
ARC
8
0
10
73.750258
20
67.698890
30
0.0
40
0.300000
50
180.000000
51
270.000000
0
LINE
8
0
10
73.750258
20
67.398890
30
0.0
11
80.050258
21
67.398890
31
0.0
0
ARC
8
0
10
80.050258
20
67.698890
30
0.0
40
0.300000
50
270.000000
51
0.000000
0
LINE
8
0
10
80.350258
20
67.698890
30
0.0
11
80.350258
21
68.700400
31
0.0
0
ARC
8
0
10
80.650258
20
68.700400
30
0.0
40
0.300000
50
90.000000
51
180.000000
0
LINE
8
0
10
80.650258
20
69.000400
30
0.0
11
82.050258
21
69.000400
31
0.0
0
ARC
8
0
10
82.050258
20
68.700400
30
0.0
40
0.300000
50
0.000000
51
90.000000
0
LINE
8
0
10
82.350258
20
68.700400
30
0.0
11
82.350258
21
67.698890
31
0.0
0
ARC
8
0
10
82.650258
20
67.698890
30
0.0
40
0.300000
50
180.000000
51
270.000000
0
LINE
8
0
10
82.650258
20
67.398890
30
0.0
11
83.850258
21
67.398890
31
0.0
0
ARC
8
0
10
83.850258
20
67.698890
30
0.0
40
0.300000
50
270.000000
51
0.000000
0
LINE
8
0
10
84.150258
20
67.698890
30
0.0
11
84.150258
21
72.200000
31
0.0
0
ARC
8
0
10
83.850258
20
72.200000
30
0.0
40
0.300000
50
0.000000
51
90.000000
0
LINE
8
0
10
83.850258
20
72.500000
30
0.0
11
81.950258
21
72.500000
31
0.0
0
ARC
8
0
10
81.950258
20
72.800000
30
0.0
40
0.300000
50
180.000000
51
270.000000
0
LINE
8
0
10
81.650258
20
72.800000
30
0.0
11
81.650258
21
72.919615
31
0.0
0
ARC
8
0
10
81.950258
20
72.919615
30
0.0
40
0.300000
50
150.000000
51
180.000000
0
LINE
8
0
10
81.690450
20
73.069615
30
0.0
11
82.141006
21
73.850000
31
0.0
0
ARC
8
0
10
82.400813
20
73.700000
30
0.0
40
0.300000
50
90.000000
51
150.000000
0
LINE
8
0
10
82.400813
20
74.000000
30
0.0
11
85.650258
21
74.000000
31
0.0
0
ARC
8
0
10
85.650258
20
73.700000
30
0.0
40
0.300000
50
0.000000
51
90.000000
0
LINE
8
0
10
85.950258
20
73.700000
30
0.0
11
85.950258
21
0.500000
31
0.0
0
ARC
8
0
10
85.450258
20
0.500000
30
0.0
40
0.500000
50
270.000000
51
0.000000
0
LINE
8
0
10
85.450258
20
0.000000
30
0.0
11
81.750258
21
0.000000
31
0.0
0
LINE
8
0
10
19.050000
20
69.300000
30
0.0
11
11.050000
21
69.300000
31
0.0
0
ARC
8
0
10
11.050000
20
69.000000
30
0.0
40
0.300000
50
90.000000
51
180.000000
0
LINE
8
0
10
10.750000
20
69.000000
30
0.0
11
10.750000
21
27.000000
31
0.0
0
ARC
8
0
10
11.050000
20
27.000000
30
0.0
40
0.300000
50
180.000000
51
270.000000
0
LINE
8
0
10
11.050000
20
26.700000
30
0.0
11
19.050000
21
26.700000
31
0.0
0
ARC
8
0
10
19.050000
20
27.000000
30
0.0
40
0.300000
50
270.000000
51
0.000000
0
LINE
8
0
10
19.350000
20
27.000000
30
0.0
11
19.350000
21
69.000000
31
0.0
0
ARC
8
0
10
19.050000
20
69.000000
30
0.0
40
0.300000
50
0.000000
51
90.000000
0
LINE
8
0
10
23.145877
20
23.728687
30
0.0
11
21.624889
21
24.656138
31
0.0
0
ARC
8
0
10
21.468705
20
24.400000
30
0.0
40
0.300000
50
58.626462
51
90.000000
0
LINE
8
0
10
21.468705
20
24.700000
30
0.0
11
21.250000
21
24.700000
31
0.0
0
ARC
8
0
10
21.250000
20
24.400000
30
0.0
40
0.300000
50
90.000000
51
180.000000
0
LINE
8
0
10
20.950000
20
24.400000
30
0.0
11
20.950000
21
20.365686
31
0.0
0
ARC
8
0
10
21.050000
20
20.082843
30
0.0
40
0.300000
50
109.471221
51
250.528779
0
LINE
8
0
10
20.950000
20
19.800000
30
0.0
11
20.988282
21
19.800000
31
0.0
0
ARC
8
0
10
20.988282
20
20.400000
30
0.0
40
0.600000
50
270.000000
51
302.401721
0
LINE
8
0
10
21.309793
20
19.893413
30
0.0
11
23.017890
21
20.977476
31
0.0
0
LINE
8
0
10
23.017890
20
20.977476
30
0.0
11
23.005793
21
21.265898
31
0.0
0
ARC
8
0
10
23.205617
20
21.274279
30
0.0
40
0.200000
50
62.401721
51
180.000000
0
LINE
8
0
10
23.298271
20
21.451523
30
0.0
11
23.579342
21
21.304593
31
0.0
0
ARC
8
0
10
23.208726
20
20.595619
30
0.0
40
0.800000
50
17.401721
51
62.401721
0
LINE
8
0
10
23.972111
20
20.834875
30
0.0
11
24.574075
21
18.914206
31
0.0
0
ARC
8
0
10
24.287806
20
18.824485
30
0.0
40
0.300000
50
270.000000
51
17.401721
0
LINE
8
0
10
24.287806
20
18.524485
30
0.0
11
22.736712
21
18.524485
31
0.0
0
ARC
8
0
10
22.735310
20
18.724480
30
0.0
40
0.200000
50
209.632658
51
270.000000
0
ARC
8
0
10
22.300703
20
18.477262
30
0.0
40
0.300000
50
29.632658
51
107.401721
0
LINE
8
0
10
22.210982
20
18.763531
30
0.0
11
21.248779
21
18.509908
31
0.0
0
LINE
8
0
10
21.172315
20
18.500000
30
0.0
11
21.248779
21
18.509908
31
0.0
0
LINE
8
0
10
21.172315
20
18.500000
30
0.0
11
19.600000
21
18.500000
31
0.0
0
ARC
8
0
10
19.600000
20
18.200000
30
0.0
40
0.300000
50
90.000000
51
180.000000
0
LINE
8
0
10
19.300000
20
18.200000
30
0.0
11
19.300000
21
14.300000
31
0.0
0
ARC
8
0
10
19.000000
20
14.300000
30
0.0
40
0.300000
50
270.000000
51
0.000000
0
LINE
8
0
10
19.000000
20
14.000000
30
0.0
11
18.000000
21
14.000000
31
0.0
0
ARC
8
0
10
18.000000
20
14.300000
30
0.0
40
0.300000
50
180.000000
51
270.000000
0
LINE
8
0
10
17.700000
20
14.300000
30
0.0
11
17.700000
21
24.700000
31
0.0
0
ARC
8
0
10
17.400000
20
24.700000
30
0.0
40
0.300000
50
0.000000
51
90.000000
0
LINE
8
0
10
17.400000
20
25.000000
30
0.0
11
9.450000
21
25.000000
31
0.0
0
ARC
8
0
10
9.450000
20
25.500000
30
0.0
40
0.500000
50
180.000000
51
270.000000
0
LINE
8
0
10
8.950000
20
25.500000
30
0.0
11
8.950000
21
95.700000
31
0.0
0
ARC
8
0
10
9.250000
20
95.700000
30
0.0
40
0.300000
50
90.000000
51
180.000000
0
LINE
8
0
10
9.250000
20
96.000000
30
0.0
11
13.150000
21
96.000000
31
0.0
0
ARC
8
0
10
13.150000
20
95.700000
30
0.0
40
0.300000
50
0.000000
51
90.000000
0
LINE
8
0
10
13.450000
20
95.700000
30
0.0
11
13.450000
21
94.200000
31
0.0
0
ARC
8
0
10
12.750000
20
94.200000
30
0.0
40
0.700000
50
270.000000
51
0.000000
0
ARC
8
0
10
12.750000
20
93.800000
30
0.0
40
0.300000
50
180.000000
51
270.000000
0
LINE
8
0
10
12.450000
20
93.800000
30
0.0
11
12.450000
21
94.500000
31
0.0
0
ARC
8
0
10
12.150000
20
94.500000
30
0.0
40
0.300000
50
0.000000
51
90.000000
0
LINE
8
0
10
12.150000
20
94.800000
30
0.0
11
10.950000
21
94.800000
31
0.0
0
ARC
8
0
10
10.950000
20
94.100000
30
0.0
40
0.700000
50
90.000000
51
180.000000
0
LINE
8
0
10
10.250000
20
94.100000
30
0.0
11
10.250000
21
87.900000
31
0.0
0
ARC
8
0
10
10.950000
20
87.900000
30
0.0
40
0.700000
50
180.000000
51
270.000000
0
LINE
8
0
10
10.950000
20
87.200000
30
0.0
11
12.150000
21
87.200000
31
0.0
0
ARC
8
0
10
12.150000
20
87.500000
30
0.0
40
0.300000
50
270.000000
51
0.000000
0
LINE
8
0
10
12.450000
20
87.500000
30
0.0
11
12.450000
21
88.200000
31
0.0
0
ARC
8
0
10
12.750000
20
88.200000
30
0.0
40
0.300000
50
90.000000
51
180.000000
0
ARC
8
0
10
12.750000
20
87.800000
30
0.0
40
0.700000
50
0.000000
51
90.000000
0
LINE
8
0
10
13.450000
20
87.800000
30
0.0
11
13.450000
21
84.800000
31
0.0
0
ARC
8
0
10
13.150000
20
84.800000
30
0.0
40
0.300000
50
270.000000
51
0.000000
0
LINE
8
0
10
13.150000
20
84.500000
30
0.0
11
12.750000
21
84.500000
31
0.0
0
ARC
8
0
10
12.750000
20
84.800000
30
0.0
40
0.300000
50
180.000000
51
270.000000
0
LINE
8
0
10
12.450000
20
84.800000
30
0.0
11
12.450000
21
85.700000
31
0.0
0
ARC
8
0
10
12.150000
20
85.700000
30
0.0
40
0.300000
50
0.000000
51
90.000000
0
LINE
8
0
10
12.150000
20
86.000000
30
0.0
11
10.750000
21
86.000000
31
0.0
0
ARC
8
0
10
10.750000
20
85.700000
30
0.0
40
0.300000
50
90.000000
51
180.000000
0
LINE
8
0
10
10.450000
20
85.700000
30
0.0
11
10.450000
21
72.000000
31
0.0
0
ARC
8
0
10
11.450000
20
72.000000
30
0.0
40
1.000000
50
180.000000
51
270.000000
0
LINE
8
0
10
11.450000
20
71.000000
30
0.0
11
18.650000
21
71.000000
31
0.0
0
ARC
8
0
10
18.650000
20
71.300000
30
0.0
40
0.300000
50
270.000000
51
0.000000
0
LINE
8
0
10
18.950000
20
71.300000
30
0.0
11
18.950000
21
73.700000
31
0.0
0
ARC
8
0
10
19.250000
20
73.700000
30
0.0
40
0.300000
50
90.000000
51
180.000000
0
LINE
8
0
10
19.250000
20
74.000000
30
0.0
11
21.172315
21
74.000000
31
0.0
0
LINE
8
0
10
21.248779
20
73.990092
30
0.0
11
21.172315
21
74.000000
31
0.0
0
LINE
8
0
10
21.248779
20
73.990092
30
0.0
11
22.210982
21
73.736469
31
0.0
0
ARC
8
0
10
22.300703
20
74.022739
30
0.0
40
0.300000
50
252.598279
51
330.367342
0
ARC
8
0
10
22.735310
20
73.775520
30
0.0
40
0.200000
50
90.000000
51
150.367342
0
LINE
8
0
10
22.736712
20
73.975515
30
0.0
11
24.287806
21
73.975515
31
0.0
0
ARC
8
0
10
24.287806
20
73.675515
30
0.0
40
0.300000
50
342.598279
51
90.000000
0
LINE
8
0
10
24.574075
20
73.585794
30
0.0
11
23.972111
21
71.665126
31
0.0
0
ARC
8
0
10
23.208726
20
71.904381
30
0.0
40
0.800000
50
297.598279
51
342.598279
0
LINE
8
0
10
23.579342
20
71.195407
30
0.0
11
23.298271
21
71.048478
31
0.0
0
ARC
8
0
10
23.205617
20
71.225721
30
0.0
40
0.200000
50
180.000000
51
297.598279
0
LINE
8
0
10
23.005793
20
71.234103
30
0.0
11
23.017890
21
71.522524
31
0.0
0
LINE
8
0
10
23.017890
20
71.522524
30
0.0
11
21.309793
21
72.606587
31
0.0
0
ARC
8
0
10
20.988282
20
72.100000
30
0.0
40
0.600000
50
57.598279
51
90.000000
0
LINE
8
0
10
20.988282
20
72.700000
30
0.0
11
20.950000
21
72.700000
31
0.0
0
ARC
8
0
10
21.050000
20
72.417158
30
0.0
40
0.300000
50
109.471221
51
250.528779
0
LINE
8
0
10
20.950000
20
72.134315
30
0.0
11
20.950000
21
68.100000
31
0.0
0
ARC
8
0
10
21.250000
20
68.100000
30
0.0
40
0.300000
50
180.000000
51
270.000000
0
LINE
8
0
10
21.250000
20
67.800000
30
0.0
11
21.468705
21
67.800000
31
0.0
0
ARC
8
0
10
21.468705
20
68.100000
30
0.0
40
0.300000
50
270.000000
51
301.373538
0
LINE
8
0
10
21.624889
20
67.843863
30
0.0
11
23.145877
21
68.771314
31
0.0
0
ARC
8
0
10
23.250000
20
68.600556
30
0.0
40
0.200000
50
0.000000
51
121.373538
0
LINE
8
0
10
23.450000
20
68.600556
30
0.0
11
23.450000
21
67.395855
31
0.0
0
ARC
8
0
10
22.450000
20
67.395855
30
0.0
40
1.000000
50
300.000000
51
0.000000
0
LINE
8
0
10
22.950000
20
66.529830
30
0.0
11
21.450000
21
65.663804
31
0.0
0
ARC
8
0
10
21.950000
20
64.797779
30
0.0
40
1.000000
50
120.000000
51
180.000000
0
LINE
8
0
10
20.950000
20
64.797779
30
0.0
11
20.950000
21
27.702222
31
0.0
0
ARC
8
0
10
21.950000
20
27.702222
30
0.0
40
1.000000
50
180.000000
51
240.000000
0
LINE
8
0
10
21.450000
20
26.836196
30
0.0
11
22.950000
21
25.970171
31
0.0
0
ARC
8
0
10
22.450000
20
25.104145
30
0.0
40
1.000000
50
0.000000
51
60.000000
0
LINE
8
0
10
23.450000
20
25.104145
30
0.0
11
23.450000
21
23.899445
31
0.0
0
ARC
8
0
10
23.250000
20
23.899445
30
0.0
40
0.200000
50
238.626462
51
0.000000
0
ARC
8
0
10
54.550258
20
20.800167
30
0.0
40
0.400000
50
270.000000
51
0.000000
0
LINE
8
0
10
54.550258
20
20.400167
30
0.0
11
54.370644
21
20.400167
31
0.0
0
LINE
8
0
10
54.950258
20
24.200167
30
0.0
11
54.950258
21
20.800167
31
0.0
0
ARC
8
0
10
54.370644
20
20.700167
30
0.0
40
0.300000
50
239.999655
51
270.000000
0
ARC
8
0
10
54.550258
20
24.200167
30
0.0
40
0.400000
50
0.000000
51
90.000000
0
LINE
8
0
10
54.220642
20
20.440360
30
0.0
11
52.490289
21
21.439394
31
0.0
0
LINE
8
0
10
54.370643
20
24.600167
30
0.0
11
54.550258
21
24.600167
31
0.0
0
LINE
8
0
10
52.490289
20
21.439394
30
0.0
11
52.192164
21
21.611502
31
0.0
0
ARC
8
0
10
54.370643
20
24.300167
30
0.0
40
0.300000
50
90.000000
51
120.000000
0
ARC
8
0
10
52.042174
20
21.351689
30
0.0
40
0.300000
50
60.002085
51
155.566145
0
LINE
8
0
10
52.490316
20
23.560970
30
0.0
11
54.220643
21
24.559974
31
0.0
0
LINE
8
0
10
51.769042
20
21.475781
30
0.0
11
50.548687
21
18.789744
31
0.0
0
ARC
8
0
10
51.890316
20
24.600201
30
0.0
40
1.200000
50
270.000000
51
300.000000
0
ARC
8
0
10
50.095046
20
19.000006
30
0.0
40
0.500000
50
270.000000
51
335.132290
0
LINE
8
0
10
24.009904
20
23.400155
30
0.0
11
51.890318
21
23.400201
31
0.0
0
LINE
8
0
10
50.095047
20
18.500006
30
0.0
11
25.805114
21
18.499995
31
0.0
0
ARC
8
0
10
24.009902
20
24.600155
30
0.0
40
1.200000
50
240.000000
51
270.000000
0
ARC
8
0
10
25.805114
20
18.999995
30
0.0
40
0.500000
50
204.000000
51
270.000000
0
LINE
8
0
10
21.679518
20
24.559963
30
0.0
11
23.409902
21
23.560925
31
0.0
0
LINE
8
0
10
25.348341
20
18.796626
30
0.0
11
24.332375
21
21.078523
31
0.0
0
ARC
8
0
10
21.529518
20
24.300155
30
0.0
40
0.300000
50
60.000000
51
90.000000
0
ARC
8
0
10
24.606439
20
21.200544
30
0.0
40
0.300000
50
90.000000
51
204.000000
0
LINE
8
0
10
21.349902
20
24.600155
30
0.0
11
21.529518
21
24.600155
31
0.0
0
LINE
8
0
10
24.608200
20
21.500539
30
0.0
11
25.614653
21
21.494632
31
0.0
0
ARC
8
0
10
21.349902
20
24.200155
30
0.0
40
0.400000
50
90.000000
51
180.000000
0
ARC
8
0
10
25.612893
20
21.194637
30
0.0
40
0.300000
50
35.002354
51
90.000000
0
LINE
8
0
10
20.949902
20
20.800155
30
0.0
11
20.949902
21
24.200155
31
0.0
0
LINE
8
0
10
25.858631
20
21.366720
30
0.0
11
26.325473
21
20.700059
31
0.0
0
ARC
8
0
10
21.349902
20
20.800155
30
0.0
40
0.400000
50
180.000000
51
270.000000
0
ARC
8
0
10
26.202604
20
20.614017
30
0.0
40
0.150000
50
287.128706
51
35.002354
0
LINE
8
0
10
21.529517
20
20.400155
30
0.0
11
21.349902
21
20.400155
31
0.0
0
LINE
8
0
10
26.246782
20
20.470671
30
0.0
11
26.132768
21
20.435533
31
0.0
0
ARC
8
0
10
21.529517
20
20.700155
30
0.0
40
0.300000
50
270.000000
51
300.000345
0
ARC
8
0
10
26.191672
20
20.244404
30
0.0
40
0.200000
50
107.128706
51
217.522757
0
LINE
8
0
10
23.409871
20
21.439382
30
0.0
11
21.679518
21
20.440349
31
0.0
0
LINE
8
0
10
26.033050
20
20.122588
30
0.0
11
26.503311
21
19.510236
31
0.0
0
ARC
8
0
10
24.009877
20
20.400155
30
0.0
40
1.200000
50
90.000000
51
120.000345
0
ARC
8
0
10
26.741245
20
19.692958
30
0.0
40
0.300000
50
217.522757
51
270.000000
0
LINE
8
0
10
25.581703
20
21.600155
30
0.0
11
24.009877
21
21.600155
31
0.0
0
LINE
8
0
10
26.741069
20
19.392959
30
0.0
11
27.225264
21
19.392675
31
0.0
0
ARC
8
0
10
25.581703
20
21.300155
30
0.0
40
0.300000
50
35.885612
51
90.000000
0
ARC
8
0
10
27.225439
20
19.692675
30
0.0
40
0.300000
50
270.000000
51
18.015506
0
LINE
8
0
10
26.353510
20
20.745180
30
0.0
11
25.824760
21
21.476006
31
0.0
0
LINE
8
0
10
27.510731
20
19.785457
30
0.0
11
27.313849
21
20.390841
31
0.0
0
ARC
8
0
10
26.191472
20
20.627946
30
0.0
40
0.200000
50
288.581915
51
35.885612
0
ARC
8
0
10
27.599141
20
20.483623
30
0.0
40
0.300000
50
17.834933
51
198.015506
0
LINE
8
0
10
26.143769
20
20.400909
30
0.0
11
26.255204
21
20.438372
31
0.0
0
LINE
8
0
10
27.884724
20
20.575506
30
0.0
11
28.195971
21
19.608112
31
0.0
0
ARC
8
0
10
26.191568
20
20.258729
30
0.0
40
0.150000
50
108.581915
51
237.436866
0
ARC
8
0
10
28.481554
20
19.699995
30
0.0
40
0.300000
50
197.834933
51
270.000000
0
LINE
8
0
10
26.496449
20
19.886047
30
0.0
11
26.110834
21
20.132309
31
0.0
0
LINE
8
0
10
28.481554
20
19.399995
30
0.0
11
48.937193
21
19.400006
31
0.0
0
ARC
8
0
10
26.657917
20
20.138887
30
0.0
40
0.300000
50
237.436866
51
270.000000
0
ARC
8
0
10
48.937193
20
19.100006
30
0.0
40
0.300000
50
34.690292
51
90.000000
0
LINE
8
0
10
26.995900
20
19.838944
30
0.0
11
26.657968
21
19.838887
31
0.0
0
ARC
8
0
10
49.430537
20
19.441490
30
0.0
40
0.300000
50
214.690292
51
32.065684
0
ARC
8
0
10
26.995850
20
20.138944
30
0.0
40
0.300000
50
270.000000
51
22.907135
0
ARC
8
0
10
49.939001
20
19.760025
30
0.0
40
0.300000
50
156.000000
51
212.065684
0
LINE
8
0
10
26.997600
20
20.905537
30
0.0
11
27.272191
21
20.255715
31
0.0
0
LINE
8
0
10
49.664938
20
19.882046
30
0.0
11
50.116735
21
20.896800
31
0.0
0
ARC
8
0
10
27.458168
20
21.100157
30
0.0
40
0.500000
50
90.000000
51
202.907135
0
ARC
8
0
10
49.659962
20
21.100168
30
0.0
40
0.500000
50
336.000000
51
90.000000
0
LINE
8
0
10
49.659962
20
21.600168
30
0.0
11
27.458168
21
21.600157
31
0.0
0
ARC
8
0
10
54.550356
20
71.699839
30
0.0
40
0.400000
50
0.000000
51
90.000000
0
LINE
8
0
10
54.950356
20
68.299839
30
0.0
11
54.950356
21
71.699839
31
0.0
0
LINE
8
0
10
54.550356
20
72.099839
30
0.0
11
54.370741
21
72.099839
31
0.0
0
ARC
8
0
10
54.550356
20
68.299839
30
0.0
40
0.400000
50
270.000000
51
0.000000
0
ARC
8
0
10
54.370741
20
71.799839
30
0.0
40
0.300000
50
90.000000
51
120.000345
0
LINE
8
0
10
54.370740
20
67.899839
30
0.0
11
54.550356
21
67.899839
31
0.0
0
LINE
8
0
10
54.220740
20
72.059646
30
0.0
11
52.490387
21
71.060613
31
0.0
0
ARC
8
0
10
54.370740
20
68.199839
30
0.0
40
0.300000
50
240.000000
51
270.000000
0
LINE
8
0
10
52.490387
20
71.060613
30
0.0
11
52.192262
21
70.888505
31
0.0
0
LINE
8
0
10
52.490414
20
68.939036
30
0.0
11
54.220740
21
67.940032
31
0.0
0
ARC
8
0
10
52.042271
20
71.148318
30
0.0
40
0.300000
50
204.433855
51
299.997915
0
ARC
8
0
10
51.890414
20
67.899806
30
0.0
40
1.200000
50
60.000000
51
90.000000
0
LINE
8
0
10
51.769140
20
71.024225
30
0.0
11
50.548785
21
73.710263
31
0.0
0
LINE
8
0
10
24.010002
20
69.099851
30
0.0
11
51.890416
21
69.099806
31
0.0
0
ARC
8
0
10
50.095144
20
73.500000
30
0.0
40
0.500000
50
24.867710
51
90.000000
0
ARC
8
0
10
24.010000
20
67.899851
30
0.0
40
1.200000
50
90.000000
51
120.000000
0
LINE
8
0
10
50.095144
20
74.000000
30
0.0
11
25.805212
21
74.000012
31
0.0
0
LINE
8
0
10
21.679615
20
67.940043
30
0.0
11
23.410000
21
68.939081
31
0.0
0
ARC
8
0
10
25.805212
20
73.500012
30
0.0
40
0.500000
50
90.000000
51
156.000000
0
ARC
8
0
10
21.529615
20
68.199851
30
0.0
40
0.300000
50
270.000000
51
300.000000
0
LINE
8
0
10
25.348439
20
73.703380
30
0.0
11
24.332473
21
71.421483
31
0.0
0
LINE
8
0
10
21.350000
20
67.899851
30
0.0
11
21.529615
21
67.899851
31
0.0
0
ARC
8
0
10
24.606537
20
71.299462
30
0.0
40
0.300000
50
156.000000
51
270.000000
0
ARC
8
0
10
21.350000
20
68.299851
30
0.0
40
0.400000
50
180.000000
51
270.000000
0
LINE
8
0
10
24.608297
20
70.999467
30
0.0
11
25.614751
21
71.005375
31
0.0
0
LINE
8
0
10
20.950000
20
71.699851
30
0.0
11
20.950000
21
68.299851
31
0.0
0
ARC
8
0
10
25.612990
20
71.305369
30
0.0
40
0.300000
50
270.000000
51
324.997646
0
ARC
8
0
10
21.350000
20
71.699851
30
0.0
40
0.400000
50
90.000000
51
180.000000
0
LINE
8
0
10
25.858729
20
71.133286
30
0.0
11
26.325571
21
71.799947
31
0.0
0
LINE
8
0
10
21.529614
20
72.099851
30
0.0
11
21.350000
21
72.099851
31
0.0
0
ARC
8
0
10
26.202701
20
71.885989
30
0.0
40
0.150000
50
324.997646
51
72.871294
0
ARC
8
0
10
21.529614
20
71.799851
30
0.0
40
0.300000
50
59.999655
51
90.000000
0
LINE
8
0
10
26.246879
20
72.029336
30
0.0
11
26.132866
21
72.064473
31
0.0
0
LINE
8
0
10
23.409969
20
71.060624
30
0.0
11
21.679616
21
72.059658
31
0.0
0
ARC
8
0
10
26.191770
20
72.255602
30
0.0
40
0.200000
50
142.477243
51
252.871294
0
ARC
8
0
10
24.009975
20
72.099851
30
0.0
40
1.200000
50
239.999655
51
270.000000
0
LINE
8
0
10
26.033147
20
72.377418
30
0.0
11
26.503409
21
72.989771
31
0.0
0
LINE
8
0
10
25.581801
20
70.899851
30
0.0
11
24.009975
21
70.899851
31
0.0
0
ARC
8
0
10
26.741342
20
72.807048
30
0.0
40
0.300000
50
90.000000
51
142.477243
0
ARC
8
0
10
25.581801
20
71.199851
30
0.0
40
0.300000
50
270.000000
51
324.114388
0
LINE
8
0
10
26.741167
20
73.107048
30
0.0
11
27.225361
21
73.107331
31
0.0
0
LINE
8
0
10
26.353608
20
71.754827
30
0.0
11
25.824857
21
71.024000
31
0.0
0
ARC
8
0
10
27.225537
20
72.807331
30
0.0
40
0.300000
50
341.984494
51
90.000000
0
ARC
8
0
10
26.191570
20
71.872060
30
0.0
40
0.200000
50
324.114388
51
71.418085
0
LINE
8
0
10
27.510829
20
72.714549
30
0.0
11
27.313947
21
72.109165
31
0.0
0
LINE
8
0
10
26.143867
20
72.099097
30
0.0
11
26.255302
21
72.061634
31
0.0
0
ARC
8
0
10
27.599239
20
72.016383
30
0.0
40
0.300000
50
161.984494
51
342.165067
0
ARC
8
0
10
26.191666
20
72.241277
30
0.0
40
0.150000
50
122.563134
51
251.418085
0
LINE
8
0
10
27.884821
20
71.924500
30
0.0
11
28.196068
21
72.891894
31
0.0
0
LINE
8
0
10
26.496546
20
72.613959
30
0.0
11
26.110931
21
72.367697
31
0.0
0
ARC
8
0
10
28.481651
20
72.800012
30
0.0
40
0.300000
50
90.000000
51
162.165067
0
ARC
8
0
10
26.658015
20
72.361119
30
0.0
40
0.300000
50
90.000000
51
122.563134
0
LINE
8
0
10
28.481651
20
73.100012
30
0.0
11
48.937290
21
73.100000
31
0.0
0
LINE
8
0
10
26.995998
20
72.661062
30
0.0
11
26.658065
21
72.661119
31
0.0
0
ARC
8
0
10
48.937291
20
73.400000
30
0.0
40
0.300000
50
270.000000
51
325.309708
0
ARC
8
0
10
26.995947
20
72.361062
30
0.0
40
0.300000
50
337.092865
51
90.000000
0
ARC
8
0
10
49.430635
20
73.058516
30
0.0
40
0.300000
50
327.934316
51
145.309708
0
LINE
8
0
10
26.997698
20
71.594469
30
0.0
11
27.272289
21
72.244291
31
0.0
0
ARC
8
0
10
49.939099
20
72.739981
30
0.0
40
0.300000
50
147.934316
51
204.000000
0
ARC
8
0
10
27.458266
20
71.399849
30
0.0
40
0.500000
50
157.092865
51
270.000000
0
LINE
8
0
10
49.665035
20
72.617960
30
0.0
11
50.116833
21
71.603207
31
0.0
0
LINE
8
0
10
49.660060
20
70.899838
30
0.0
11
27.458266
21
70.899849
31
0.0
0
ARC
8
0
10
49.660060
20
71.399838
30
0.0
40
0.500000
50
270.000000
51
24.000000
0
ATTDEF
8
0
10
54.651479
20
73.990092
30
0.0
40
3.5
1

3

2
VC_START
70
0
0
ATTDEF
8
0
10
54.727943
20
18.500000
30
0.0
40
3.5
1

3

2
VC_END
70
0
0
ARC
8
0
10
22.850000
20
6.400000
30
0.0
40
0.300000
50
0.000000
51
90.000000
0
LINE
8
0
10
22.850000
20
6.700000
30
0.0
11
22.700000
21
6.700000
31
0.0
0
ARC
8
0
10
22.700000
20
7.000000
30
0.0
40
0.300000
50
180.000000
51
270.000000
0
LINE
8
0
10
22.400000
20
7.000000
30
0.0
11
22.400000
21
10.400000
31
0.0
0
ARC
8
0
10
23.400000
20
10.400000
30
0.0
40
1.000000
50
90.000000
51
180.000000
0
LINE
8
0
10
23.400000
20
11.400000
30
0.0
11
25.400000
21
11.400000
31
0.0
0
ARC
8
0
10
25.400000
20
10.400000
30
0.0
40
1.000000
50
0.000000
51
90.000000
0
LINE
8
0
10
26.400000
20
10.400000
30
0.0
11
26.400000
21
7.000000
31
0.0
0
ARC
8
0
10
26.100000
20
7.000000
30
0.0
40
0.300000
50
270.000000
51
0.000000
0
LINE
8
0
10
26.100000
20
6.700000
30
0.0
11
25.950000
21
6.700000
31
0.0
0
ARC
8
0
10
25.950000
20
6.400000
30
0.0
40
0.300000
50
90.000000
51
180.000000
0
LINE
8
0
10
25.650000
20
6.400000
30
0.0
11
25.650000
21
6.000000
31
0.0
0
ARC
8
0
10
25.950000
20
6.000000
30
0.0
40
0.300000
50
180.000000
51
270.000000
0
LINE
8
0
10
25.950000
20
5.700000
30
0.0
11
26.100000
21
5.700000
31
0.0
0
ARC
8
0
10
26.100000
20
5.400000
30
0.0
40
0.300000
50
0.000000
51
90.000000
0
LINE
8
0
10
26.400000
20
5.400000
30
0.0
11
26.400000
21
4.900000
31
0.0
0
ARC
8
0
10
26.700000
20
4.900000
30
0.0
40
0.300000
50
180.000000
51
270.000000
0
LINE
8
0
10
26.700000
20
4.600000
30
0.0
11
27.900000
21
4.600000
31
0.0
0
ARC
8
0
10
27.900000
20
4.900000
30
0.0
40
0.300000
50
270.000000
51
0.000000
0
LINE
8
0
10
28.200000
20
4.900000
30
0.0
11
28.200000
21
13.600000
31
0.0
0
ARC
8
0
10
27.900000
20
13.600000
30
0.0
40
0.300000
50
0.000000
51
90.000000
0
LINE
8
0
10
27.900000
20
13.900000
30
0.0
11
21.900000
21
13.900000
31
0.0
0
ARC
8
0
10
21.900000
20
14.200000
30
0.0
40
0.300000
50
180.000000
51
270.000000
0
LINE
8
0
10
21.600000
20
14.200000
30
0.0
11
21.600000
21
17.600000
31
0.0
0
ARC
8
0
10
21.300000
20
17.600000
30
0.0
40
0.300000
50
0.000000
51
90.000000
0
LINE
8
0
10
21.300000
20
17.900000
30
0.0
11
19.900000
21
17.900000
31
0.0
0
ARC
8
0
10
19.900000
20
17.600000
30
0.0
40
0.300000
50
90.000000
51
180.000000
0
LINE
8
0
10
19.600000
20
17.600000
30
0.0
11
19.600000
21
14.200000
31
0.0
0
ARC
8
0
10
19.300000
20
14.200000
30
0.0
40
0.300000
50
270.000000
51
0.000000
0
LINE
8
0
10
19.300000
20
13.900000
30
0.0
11
18.000000
21
13.900000
31
0.0
0
ARC
8
0
10
18.000000
20
14.200000
30
0.0
40
0.300000
50
180.000000
51
270.000000
0
LINE
8
0
10
17.700000
20
14.200000
30
0.0
11
17.700000
21
24.000000
31
0.0
0
ARC
8
0
10
16.700000
20
24.000000
30
0.0
40
1.000000
50
0.000000
51
90.000000
0
LINE
8
0
10
16.700000
20
25.000000
30
0.0
11
7.000000
21
25.000000
31
0.0
0
ARC
8
0
10
7.000000
20
18.000000
30
0.0
40
7.000000
50
90.000000
51
180.000000
0
LINE
8
0
10
0.000000
20
18.000000
30
0.0
11
0.000000
21
6.000000
31
0.0
0
ARC
8
0
10
0.300000
20
6.000000
30
0.0
40
0.300000
50
180.000000
51
270.000000
0
LINE
8
0
10
0.300000
20
5.700000
30
0.0
11
2.400000
21
5.700000
31
0.0
0
ARC
8
0
10
2.400000
20
6.000000
30
0.0
40
0.300000
50
270.000000
51
0.000000
0
LINE
8
0
10
2.700000
20
6.000000
30
0.0
11
2.700000
21
6.600000
31
0.0
0
ARC
8
0
10
2.400000
20
6.600000
30
0.0
40
0.300000
50
0.000000
51
90.000000
0
LINE
8
0
10
2.400000
20
6.900000
30
0.0
11
1.700000
21
6.900000
31
0.0
0
ARC
8
0
10
1.700000
20
7.200000
30
0.0
40
0.300000
50
180.000000
51
270.000000
0
LINE
8
0
10
1.400000
20
7.200000
30
0.0
11
1.400000
21
18.000000
31
0.0
0
ARC
8
0
10
7.000000
20
18.000000
30
0.0
40
5.600000
50
67.000000
51
180.000000
0
LINE
8
0
10
9.188095
20
23.154827
30
0.0
11
12.918797
21
21.571238
31
0.0
0
LINE
8
0
10
12.918797
20
21.571238
30
0.0
11
13.195453
21
21.779713
31
0.0
0
LINE
8
0
10
13.195453
20
21.779713
30
0.0
11
13.237669
21
21.435885
31
0.0
0
LINE
8
0
10
13.237669
20
21.435885
30
0.0
11
16.117220
21
20.213588
31
0.0
0
ARC
8
0
10
16.000000
20
19.937437
30
0.0
40
0.300000
50
0.000000
51
66.999999
0
LINE
8
0
10
16.300000
20
19.937437
30
0.0
11
16.300000
21
7.200000
31
0.0
0
ARC
8
0
10
16.000000
20
7.200000
30
0.0
40
0.300000
50
270.000000
51
0.000000
0
LINE
8
0
10
16.000000
20
6.900000
30
0.0
11
14.600000
21
6.900000
31
0.0
0
ARC
8
0
10
14.600000
20
6.600000
30
0.0
40
0.300000
50
90.000000
51
180.000000
0
LINE
8
0
10
14.300000
20
6.600000
30
0.0
11
14.300000
21
6.000000
31
0.0
0
ARC
8
0
10
14.600000
20
6.000000
30
0.0
40
0.300000
50
180.000000
51
270.000000
0
LINE
8
0
10
14.600000
20
5.700000
30
0.0
11
17.400000
21
5.700000
31
0.0
0
ARC
8
0
10
17.400000
20
6.000000
30
0.0
40
0.300000
50
270.000000
51
0.000000
0
LINE
8
0
10
17.700000
20
6.000000
30
0.0
11
17.700000
21
10.400000
31
0.0
0
ARC
8
0
10
18.700000
20
10.400000
30
0.0
40
1.000000
50
90.000000
51
180.000000
0
LINE
8
0
10
18.700000
20
11.400000
30
0.0
11
20.000000
21
11.400000
31
0.0
0
ARC
8
0
10
20.000000
20
10.400000
30
0.0
40
1.000000
50
0.000000
51
90.000000
0
LINE
8
0
10
21.000000
20
10.400000
30
0.0
11
21.000000
21
6.000000
31
0.0
0
ARC
8
0
10
21.300000
20
6.000000
30
0.0
40
0.300000
50
180.000000
51
270.000000
0
LINE
8
0
10
21.300000
20
5.700000
30
0.0
11
22.850000
21
5.700000
31
0.0
0
ARC
8
0
10
22.850000
20
6.000000
30
0.0
40
0.300000
50
270.000000
51
0.000000
0
LINE
8
0
10
23.150000
20
6.000000
30
0.0
11
23.150000
21
6.400000
31
0.0
0
ATTDEF
8
0
10
0.000000
20
0.000000
30
0.0
40
3.5
1

3

2
DENS:0.000000
70
0
0
ATTDEF
8
0
10
0.000000
20
0.000000
30
0.0
40
3.5
1

3

2
GLASS_MIN:0.000000
70
0
0
ATTDEF
8
0
10
0.000000
20
0.000000
30
0.0
40
3.5
1

3

2
GLASS_MAX:0.000000
70
0
0
ATTDEF
8
0
10
0.000000
20
0.000000
30
0.0
40
3.5
1

3

2
DESC:U52320 - K1486
70
0
0
ATTDEF
8
0
10
0.000000
20
0.000000
30
0.0
40
3.5
1

3

2
BL01:6500.000000,,1
70
0
0
ATTDEF
8
0
10
0.000000
20
0.000000
30
0.0
40
3.5
1

3

2
HW_START
70
0
0
ATTDEF
8
0
10
85.950258
20
96.000000
30
0.0
40
3.5
1

3

2
HW_END
70
0
0
ATTDEF
8
0
10
0.000000
20
0.000000
30
0.0
40
3.5
1

3

2
FP_LCS_ORIG
70
0
0
ATTDEF
8
0
10
10.000000
20
0.000000
30
0.0
40
3.5
1

3

2
FP_LCS_HOT
70
0
0
ATTDEF
8
0
10
0.000000
20
10.000000
30
0.0
40
3.5
1

3

2
FP_LCS_INTERN
70
0
0
ATTDEF
8
0
10
0.000000
20
0.000000
30
0.0
40
3.5
1

3

2
PANE_WIDTH:72.000000
70
0
0
ATTDEF
8
0
10
0.000000
20
0.000000
30
0.0
40
3.5
1

3

2
TDEV:0.000000
70
0
0
ATTDEF
8
0
10
0.000000
20
0.000000
30
0.0
40
3.5
1

3

2
TDEV2:0.000000
70
0
0
ATTDEF
8
0
10
0.000000
20
0.000000
30
0.0
40
3.5
1

3

2
TDEV3:0.000000
70
0
0
ATTDEF
8
0
10
0.000000
20
0.000000
30
0.0
40
3.5
1

3

2
TDEV4:0.000000
70
0
0
ATTDEF
8
0
10
0.000000
20
0.000000
30
0.0
40
3.5
1

3

2
TDEV5:0.000000
70
0
0
ENDSEC
0
EOF
