0
SECTION
2
ENTITIES
0
ARC
8
0
10
147.702278
20
156.286225
30
0.0
40
0.300000
50
0.000000
51
90.000000
0
LINE
8
0
10
148.002278
20
156.286225
30
0.0
11
148.002278
21
151.386225
31
0.0
0
ARC
8
0
10
148.302278
20
151.386225
30
0.0
40
0.300000
50
180.000000
51
270.000000
0
LINE
8
0
10
148.302278
20
151.086225
30
0.0
11
152.802278
21
151.086225
31
0.0
0
ARC
8
0
10
152.802278
20
151.386225
30
0.0
40
0.300000
50
270.000000
51
0.000000
0
LINE
8
0
10
153.102278
20
151.386225
30
0.0
11
153.102278
21
168.086114
31
0.0
0
ARC
8
0
10
152.602278
20
168.086114
30
0.0
40
0.500000
50
0.000000
51
90.000000
0
LINE
8
0
10
152.602278
20
168.586114
30
0.0
11
144.002419
21
168.586114
31
0.0
0
ARC
8
0
10
144.002419
20
169.086114
30
0.0
40
0.500000
50
180.000000
51
270.000000
0
LINE
8
0
10
143.502419
20
169.086114
30
0.0
11
143.502419
21
173.286114
31
0.0
0
ARC
8
0
10
143.202419
20
173.286114
30
0.0
40
0.300000
50
0.000000
51
90.000000
0
LINE
8
0
10
143.202419
20
173.586114
30
0.0
11
125.802278
21
173.586114
31
0.0
0
ARC
8
0
10
125.802278
20
173.286114
30
0.0
40
0.300000
50
90.000000
51
180.000000
0
LINE
8
0
10
125.502278
20
173.286114
30
0.0
11
125.502278
21
152.186197
31
0.0
0
ARC
8
0
10
125.802278
20
152.186197
30
0.0
40
0.300000
50
180.000000
51
270.000000
0
LINE
8
0
10
125.802278
20
151.886197
30
0.0
11
140.702278
21
151.886197
31
0.0
0
ARC
8
0
10
140.702278
20
152.186197
30
0.0
40
0.300000
50
270.000000
51
0.000000
0
LINE
8
0
10
141.002278
20
152.186197
30
0.0
11
141.002278
21
156.286225
31
0.0
0
ARC
8
0
10
141.302278
20
156.286225
30
0.0
40
0.300000
50
90.000000
51
180.000000
0
LINE
8
0
10
141.302278
20
156.586225
30
0.0
11
147.702278
21
156.586225
31
0.0
0
ARC
8
0
10
123.802278
20
173.503272
30
0.0
40
0.300000
50
289.471221
51
70.528779
0
LINE
8
0
10
123.902278
20
173.220429
30
0.0
11
123.902278
21
169.186114
31
0.0
0
ARC
8
0
10
123.602278
20
169.186114
30
0.0
40
0.300000
50
270.000000
51
0.000000
0
LINE
8
0
10
123.602278
20
168.886114
30
0.0
11
123.382663
21
168.886114
31
0.0
0
ARC
8
0
10
123.382663
20
169.186114
30
0.0
40
0.300000
50
240.000000
51
270.000000
0
LINE
8
0
10
123.232663
20
168.926307
30
0.0
11
121.702278
21
169.859875
31
0.0
0
ARC
8
0
10
121.602278
20
169.686670
30
0.0
40
0.200000
50
60.000000
51
180.000000
0
LINE
8
0
10
121.402278
20
169.686670
30
0.0
11
121.402278
21
168.481969
31
0.0
0
ARC
8
0
10
122.402278
20
168.481969
30
0.0
40
1.000000
50
180.000000
51
240.000000
0
LINE
8
0
10
121.902278
20
167.615944
30
0.0
11
123.402278
21
166.749918
31
0.0
0
ARC
8
0
10
122.902278
20
165.883893
30
0.0
40
1.000000
50
0.000000
51
60.000000
0
LINE
8
0
10
123.902278
20
165.883893
30
0.0
11
123.902278
21
161.688419
31
0.0
0
ARC
8
0
10
122.902278
20
161.688419
30
0.0
40
1.000000
50
300.000000
51
0.000000
0
LINE
8
0
10
123.402278
20
160.822393
30
0.0
11
121.902278
21
159.956368
31
0.0
0
ARC
8
0
10
122.402278
20
159.090343
30
0.0
40
1.000000
50
120.000000
51
180.000000
0
LINE
8
0
10
121.402278
20
159.090343
30
0.0
11
121.402278
21
157.885642
31
0.0
0
ARC
8
0
10
121.602278
20
157.885642
30
0.0
40
0.200000
50
180.000000
51
300.000000
0
LINE
8
0
10
121.702278
20
157.712437
30
0.0
11
123.232663
21
158.646005
31
0.0
0
ARC
8
0
10
123.382663
20
158.386197
30
0.0
40
0.300000
50
90.000000
51
120.000000
0
LINE
8
0
10
123.382663
20
158.686197
30
0.0
11
123.602278
21
158.686197
31
0.0
0
ARC
8
0
10
123.602278
20
158.386197
30
0.0
40
0.300000
50
0.000000
51
90.000000
0
LINE
8
0
10
123.902278
20
158.386197
30
0.0
11
123.902278
21
154.351883
31
0.0
0
ARC
8
0
10
123.802278
20
154.069040
30
0.0
40
0.300000
50
289.471221
51
70.528779
0
LINE
8
0
10
123.815213
20
153.769319
30
0.0
11
123.902278
21
153.786197
31
0.0
0
LINE
8
0
10
123.815213
20
153.769319
30
0.0
11
123.528322
21
153.857031
31
0.0
0
LINE
8
0
10
123.528322
20
153.857031
30
0.0
11
121.656415
21
155.026728
31
0.0
0
LINE
8
0
10
121.656415
20
155.026728
30
0.0
11
121.666489
21
155.315227
31
0.0
0
ARC
8
0
10
121.466611
20
155.322207
30
0.0
40
0.200000
50
0.000000
51
118.000000
0
LINE
8
0
10
121.372717
20
155.498797
30
0.0
11
121.092684
21
155.349900
31
0.0
0
ARC
8
0
10
121.468261
20
154.643542
30
0.0
40
0.800000
50
118.000000
51
163.000000
0
LINE
8
0
10
120.703217
20
154.877440
30
0.0
11
120.118061
21
152.963480
31
0.0
0
ARC
8
0
10
120.404952
20
152.875769
30
0.0
40
0.300000
50
163.000000
51
270.000000
0
LINE
8
0
10
120.404952
20
152.575769
30
0.0
11
121.954785
21
152.575769
31
0.0
0
ARC
8
0
10
121.954785
20
152.775769
30
0.0
40
0.200000
50
270.000000
51
330.769063
0
ARC
8
0
10
122.391114
20
152.531603
30
0.0
40
0.300000
50
73.000000
51
150.769063
0
LINE
8
0
10
122.478825
20
152.818495
30
0.0
11
123.689990
21
152.448205
31
0.0
0
ARC
8
0
10
123.602278
20
152.161313
30
0.0
40
0.300000
50
0.000000
51
73.000000
0
LINE
8
0
10
123.902278
20
152.161313
30
0.0
11
123.902278
21
150.686197
31
0.0
0
ARC
8
0
10
124.202278
20
150.686197
30
0.0
40
0.300000
50
180.000000
51
270.000000
0
LINE
8
0
10
124.202278
20
150.386197
30
0.0
11
142.002278
21
150.386197
31
0.0
0
ARC
8
0
10
142.002278
20
150.886197
30
0.0
40
0.500000
50
270.000000
51
0.000000
0
LINE
8
0
10
142.502278
20
150.886197
30
0.0
11
142.502278
21
154.786225
31
0.0
0
ARC
8
0
10
142.802278
20
154.786225
30
0.0
40
0.300000
50
90.000000
51
180.000000
0
LINE
8
0
10
142.802278
20
155.086225
30
0.0
11
146.202278
21
155.086225
31
0.0
0
ARC
8
0
10
146.202278
20
154.786225
30
0.0
40
0.300000
50
0.000000
51
90.000000
0
LINE
8
0
10
146.502278
20
154.786225
30
0.0
11
146.502278
21
149.886225
31
0.0
0
ARC
8
0
10
146.802278
20
149.886225
30
0.0
40
0.300000
50
180.000000
51
270.000000
0
LINE
8
0
10
146.802278
20
149.586225
30
0.0
11
154.402278
21
149.586225
31
0.0
0
ARC
8
0
10
154.402278
20
150.086225
30
0.0
40
0.500000
50
270.000000
51
0.000000
0
LINE
8
0
10
154.902278
20
150.086225
30
0.0
11
154.902278
21
181.086114
31
0.0
0
ARC
8
0
10
154.402278
20
181.086114
30
0.0
40
0.500000
50
0.000000
51
90.000000
0
LINE
8
0
10
154.402278
20
181.586114
30
0.0
11
153.402278
21
181.586114
31
0.0
0
ARC
8
0
10
153.402278
20
181.286114
30
0.0
40
0.300000
50
90.000000
51
180.000000
0
LINE
8
0
10
153.102278
20
181.286114
30
0.0
11
153.102278
21
175.386462
31
0.0
0
ARC
8
0
10
152.802278
20
175.386462
30
0.0
40
0.300000
50
270.000000
51
0.000000
0
LINE
8
0
10
152.802278
20
175.086462
30
0.0
11
152.703173
21
175.086462
31
0.0
0
ARC
8
0
10
152.703173
20
174.586462
30
0.0
40
0.500000
50
90.000000
51
180.000000
0
LINE
8
0
10
152.203173
20
174.586462
30
0.0
11
152.203173
21
173.886462
31
0.0
0
ARC
8
0
10
152.503173
20
173.886462
30
0.0
40
0.300000
50
180.000000
51
270.000000
0
LINE
8
0
10
152.503173
20
173.586462
30
0.0
11
152.802278
21
173.586462
31
0.0
0
ARC
8
0
10
152.802278
20
173.286462
30
0.0
40
0.300000
50
0.000000
51
90.000000
0
LINE
8
0
10
153.102278
20
173.286462
30
0.0
11
153.102278
21
170.586114
31
0.0
0
ARC
8
0
10
152.602278
20
170.586114
30
0.0
40
0.500000
50
270.000000
51
0.000000
0
LINE
8
0
10
152.602278
20
170.086114
30
0.0
11
145.502419
21
170.086114
31
0.0
0
ARC
8
0
10
145.502419
20
170.586114
30
0.0
40
0.500000
50
180.000000
51
270.000000
0
LINE
8
0
10
145.002419
20
170.586114
30
0.0
11
145.002419
21
173.286114
31
0.0
0
ARC
8
0
10
145.302419
20
173.286114
30
0.0
40
0.300000
50
90.000000
51
180.000000
0
LINE
8
0
10
145.302419
20
173.586114
30
0.0
11
145.902419
21
173.586114
31
0.0
0
ARC
8
0
10
145.902419
20
173.886114
30
0.0
40
0.300000
50
270.000000
51
0.000000
0
LINE
8
0
10
146.202419
20
173.886114
30
0.0
11
146.202419
21
174.586114
31
0.0
0
ARC
8
0
10
145.702419
20
174.586114
30
0.0
40
0.500000
50
0.000000
51
90.000000
0
LINE
8
0
10
145.702419
20
175.086114
30
0.0
11
123.610556
21
175.086114
31
0.0
0
LINE
8
0
10
123.610556
20
175.086114
30
0.0
11
123.522844
21
175.073006
31
0.0
0
LINE
8
0
10
123.522844
20
175.073006
30
0.0
11
122.478825
21
174.753817
31
0.0
0
ARC
8
0
10
122.391114
20
175.040709
30
0.0
40
0.300000
50
209.230937
51
287.000000
0
ARC
8
0
10
121.954785
20
174.796543
30
0.0
40
0.200000
50
29.230937
51
90.000000
0
LINE
8
0
10
121.954785
20
174.996543
30
0.0
11
120.404952
21
174.996543
31
0.0
0
ARC
8
0
10
120.404952
20
174.696543
30
0.0
40
0.300000
50
90.000000
51
197.000000
0
LINE
8
0
10
120.118061
20
174.608832
30
0.0
11
120.703217
21
172.694872
31
0.0
0
ARC
8
0
10
121.468261
20
172.928769
30
0.0
40
0.800000
50
197.000000
51
242.000000
0
LINE
8
0
10
121.092684
20
172.222411
30
0.0
11
121.372717
21
172.073515
31
0.0
0
ARC
8
0
10
121.466611
20
172.250104
30
0.0
40
0.200000
50
242.000000
51
0.000000
0
LINE
8
0
10
121.666489
20
172.257084
30
0.0
11
121.656415
21
172.545584
31
0.0
0
LINE
8
0
10
121.656415
20
172.545584
30
0.0
11
123.528322
21
173.715281
31
0.0
0
LINE
8
0
10
123.528322
20
173.715281
30
0.0
11
123.815213
21
173.802993
31
0.0
0
LINE
8
0
10
123.902278
20
173.786114
30
0.0
11
123.815213
21
173.802993
31
0.0
0
LINE
8
0
10
86.652279
20
179.286376
30
0.0
11
86.652279
21
168.886376
31
0.0
0
ARC
8
0
10
86.352279
20
168.886376
30
0.0
40
0.300000
50
270.000000
51
0.000000
0
LINE
8
0
10
86.352279
20
168.586376
30
0.0
11
83.102021
21
168.586376
31
0.0
0
ARC
8
0
10
83.102021
20
168.286376
30
0.0
40
0.300000
50
90.000000
51
180.000000
0
LINE
8
0
10
82.802021
20
168.286376
30
0.0
11
82.802021
21
165.986376
31
0.0
0
ARC
8
0
10
82.502021
20
165.986376
30
0.0
40
0.300000
50
270.000000
51
0.000000
0
LINE
8
0
10
82.502021
20
165.686376
30
0.0
11
81.602279
21
165.686376
31
0.0
0
ARC
8
0
10
81.602279
20
165.386376
30
0.0
40
0.300000
50
90.000000
51
180.000000
0
LINE
8
0
10
81.302279
20
165.386376
30
0.0
11
81.302279
21
164.686376
31
0.0
0
ARC
8
0
10
81.602279
20
164.686376
30
0.0
40
0.300000
50
180.000000
51
270.000000
0
LINE
8
0
10
81.602279
20
164.386376
30
0.0
11
83.802021
21
164.386376
31
0.0
0
ARC
8
0
10
83.802021
20
164.686376
30
0.0
40
0.300000
50
270.000000
51
0.000000
0
LINE
8
0
10
84.102021
20
164.686376
30
0.0
11
84.102021
21
166.786376
31
0.0
0
ARC
8
0
10
84.402021
20
166.786376
30
0.0
40
0.300000
50
90.000000
51
180.000000
0
LINE
8
0
10
84.402021
20
167.086376
30
0.0
11
87.901530
21
167.086376
31
0.0
0
ARC
8
0
10
87.901530
20
166.786376
30
0.0
40
0.300000
50
0.000000
51
90.000000
0
LINE
8
0
10
88.201530
20
166.786376
30
0.0
11
88.201530
21
152.186417
31
0.0
0
ARC
8
0
10
87.901530
20
152.186417
30
0.0
40
0.300000
50
270.000000
51
0.000000
0
LINE
8
0
10
87.901530
20
151.886417
30
0.0
11
83.102021
21
151.886417
31
0.0
0
ARC
8
0
10
83.102021
20
151.586417
30
0.0
40
0.300000
50
90.000000
51
180.000000
0
LINE
8
0
10
82.802021
20
151.586417
30
0.0
11
82.802021
21
150.686417
31
0.0
0
ARC
8
0
10
83.102021
20
150.686417
30
0.0
40
0.300000
50
180.000000
51
270.000000
0
LINE
8
0
10
83.102021
20
150.386417
30
0.0
11
89.602279
21
150.386417
31
0.0
0
ARC
8
0
10
89.602279
20
150.686417
30
0.0
40
0.300000
50
270.000000
51
0.000000
0
LINE
8
0
10
89.902279
20
150.686417
30
0.0
11
89.902279
21
152.161533
31
0.0
0
ARC
8
0
10
90.202279
20
152.161533
30
0.0
40
0.300000
50
107.000000
51
180.000000
0
LINE
8
0
10
90.114568
20
152.448424
30
0.0
11
91.325732
21
152.818714
31
0.0
0
ARC
8
0
10
91.413443
20
152.531823
30
0.0
40
0.300000
50
29.230937
51
107.000000
0
ARC
8
0
10
91.849773
20
152.775988
30
0.0
40
0.200000
50
209.230937
51
270.000000
0
LINE
8
0
10
91.849773
20
152.575988
30
0.0
11
93.399605
21
152.575988
31
0.0
0
ARC
8
0
10
93.399605
20
152.875988
30
0.0
40
0.300000
50
270.000000
51
17.000000
0
LINE
8
0
10
93.686496
20
152.963700
30
0.0
11
93.101340
21
154.877659
31
0.0
0
ARC
8
0
10
92.336296
20
154.643762
30
0.0
40
0.800000
50
17.000000
51
62.000000
0
LINE
8
0
10
92.711874
20
155.350120
30
0.0
11
92.431840
21
155.499016
31
0.0
0
ARC
8
0
10
92.337946
20
155.322427
30
0.0
40
0.200000
50
62.000000
51
180.000000
0
LINE
8
0
10
92.138068
20
155.315447
30
0.0
11
92.148142
21
155.026948
31
0.0
0
LINE
8
0
10
92.148142
20
155.026948
30
0.0
11
90.276235
21
153.857250
31
0.0
0
LINE
8
0
10
90.276235
20
153.857250
30
0.0
11
89.989344
21
153.769539
31
0.0
0
ARC
8
0
10
90.002279
20
154.069260
30
0.0
40
0.300000
50
109.471221
51
267.528779
0
LINE
8
0
10
89.902279
20
154.352102
30
0.0
11
89.902279
21
158.386417
31
0.0
0
ARC
8
0
10
90.202279
20
158.386417
30
0.0
40
0.300000
50
90.000000
51
180.000000
0
LINE
8
0
10
90.202279
20
158.686417
30
0.0
11
90.421894
21
158.686417
31
0.0
0
ARC
8
0
10
90.421894
20
158.386417
30
0.0
40
0.300000
50
60.000000
51
90.000000
0
LINE
8
0
10
90.571894
20
158.646225
30
0.0
11
92.102279
21
157.712657
31
0.0
0
ARC
8
0
10
92.202279
20
157.885862
30
0.0
40
0.200000
50
240.000000
51
0.000000
0
LINE
8
0
10
92.402279
20
157.885862
30
0.0
11
92.402279
21
159.090562
31
0.0
0
ARC
8
0
10
91.402279
20
159.090562
30
0.0
40
1.000000
50
0.000000
51
60.000001
0
LINE
8
0
10
91.902279
20
159.956588
30
0.0
11
90.402279
21
160.822613
31
0.0
0
ARC
8
0
10
90.902279
20
161.688638
30
0.0
40
1.000000
50
180.000000
51
240.000001
0
LINE
8
0
10
89.902279
20
161.688638
30
0.0
11
89.902279
21
165.884126
31
0.0
0
ARC
8
0
10
90.902279
20
165.884126
30
0.0
40
1.000000
50
119.999999
51
180.000000
0
LINE
8
0
10
90.402279
20
166.750152
30
0.0
11
91.902279
21
167.616177
31
0.0
0
ARC
8
0
10
91.402279
20
168.482203
30
0.0
40
1.000000
50
299.999999
51
0.000000
0
LINE
8
0
10
92.402279
20
168.482203
30
0.0
11
92.402279
21
169.686903
31
0.0
0
ARC
8
0
10
92.202279
20
169.686903
30
0.0
40
0.200000
50
0.000000
51
120.000000
0
LINE
8
0
10
92.102279
20
169.860108
30
0.0
11
90.571894
21
168.926540
31
0.0
0
ARC
8
0
10
90.421894
20
169.186348
30
0.0
40
0.300000
50
270.000000
51
300.000000
0
LINE
8
0
10
90.421894
20
168.886348
30
0.0
11
90.202279
21
168.886348
31
0.0
0
ARC
8
0
10
90.202279
20
169.186348
30
0.0
40
0.300000
50
180.000000
51
270.000000
0
LINE
8
0
10
89.902279
20
169.186348
30
0.0
11
89.902279
21
173.220662
31
0.0
0
ARC
8
0
10
90.002279
20
173.503505
30
0.0
40
0.300000
50
92.471221
51
250.528779
0
LINE
8
0
10
89.989344
20
173.803226
30
0.0
11
90.276235
21
173.715515
31
0.0
0
LINE
8
0
10
90.276235
20
173.715515
30
0.0
11
92.148142
21
172.545817
31
0.0
0
LINE
8
0
10
92.148142
20
172.545817
30
0.0
11
92.138068
21
172.257318
31
0.0
0
ARC
8
0
10
92.337946
20
172.250338
30
0.0
40
0.200000
50
180.000000
51
298.000000
0
LINE
8
0
10
92.431840
20
172.073748
30
0.0
11
92.711874
21
172.222645
31
0.0
0
ARC
8
0
10
92.336296
20
172.929003
30
0.0
40
0.800000
50
298.000000
51
343.000000
0
LINE
8
0
10
93.101340
20
172.695105
30
0.0
11
93.686496
21
174.609065
31
0.0
0
ARC
8
0
10
93.399605
20
174.696777
30
0.0
40
0.300000
50
343.000000
51
90.000000
0
LINE
8
0
10
93.399605
20
174.996777
30
0.0
11
91.849773
21
174.996777
31
0.0
0
ARC
8
0
10
91.849773
20
174.796777
30
0.0
40
0.200000
50
90.000000
51
150.769063
0
ARC
8
0
10
91.413443
20
175.040942
30
0.0
40
0.300000
50
253.000000
51
330.769063
0
LINE
8
0
10
91.325732
20
174.754051
30
0.0
11
90.281685
21
175.073248
31
0.0
0
LINE
8
0
10
90.281685
20
175.073248
30
0.0
11
90.193977
21
175.086356
31
0.0
0
LINE
8
0
10
90.193977
20
175.086356
30
0.0
11
88.552279
21
175.086376
31
0.0
0
ARC
8
0
10
88.552279
20
175.386376
30
0.0
40
0.300000
50
180.000000
51
270.000000
0
LINE
8
0
10
88.252279
20
175.386376
30
0.0
11
88.252279
21
179.286376
31
0.0
0
ARC
8
0
10
87.952279
20
179.286376
30
0.0
40
0.300000
50
0.000000
51
90.000000
0
LINE
8
0
10
87.952279
20
179.586376
30
0.0
11
86.952279
21
179.586376
31
0.0
0
ARC
8
0
10
86.952279
20
179.286376
30
0.0
40
0.300000
50
90.000000
51
180.000000
0
ARC
8
0
10
123.502278
20
172.785948
30
0.0
40
0.400000
50
0.000000
51
90.000000
0
LINE
8
0
10
123.502278
20
173.185948
30
0.0
11
123.322664
21
173.185948
31
0.0
0
LINE
8
0
10
123.902278
20
169.385948
30
0.0
11
123.902278
21
172.785948
31
0.0
0
ARC
8
0
10
123.322664
20
172.885948
30
0.0
40
0.300000
50
90.000000
51
120.000345
0
ARC
8
0
10
123.502278
20
169.385948
30
0.0
40
0.400000
50
270.000000
51
0.000000
0
LINE
8
0
10
123.172662
20
173.145755
30
0.0
11
121.442309
21
172.146721
31
0.0
0
LINE
8
0
10
123.322663
20
168.985948
30
0.0
11
123.502278
21
168.985948
31
0.0
0
LINE
8
0
10
121.442309
20
172.146721
30
0.0
11
121.144184
21
171.974613
31
0.0
0
ARC
8
0
10
123.322663
20
169.285948
30
0.0
40
0.300000
50
240.000000
51
270.000000
0
ARC
8
0
10
120.994194
20
172.234426
30
0.0
40
0.300000
50
204.433855
51
299.997915
0
LINE
8
0
10
121.442337
20
170.025145
30
0.0
11
123.172663
21
169.026140
31
0.0
0
LINE
8
0
10
120.721062
20
172.110333
30
0.0
11
119.500707
21
174.796371
31
0.0
0
ARC
8
0
10
120.842337
20
168.985914
30
0.0
40
1.200000
50
60.000000
51
90.000000
0
ARC
8
0
10
119.047067
20
174.586109
30
0.0
40
0.500000
50
24.867710
51
90.000000
0
LINE
8
0
10
92.961925
20
170.185959
30
0.0
11
120.842339
21
170.185914
31
0.0
0
LINE
8
0
10
119.047067
20
175.086109
30
0.0
11
94.757134
21
175.086120
31
0.0
0
ARC
8
0
10
92.961923
20
168.985959
30
0.0
40
1.200000
50
90.000000
51
120.000000
0
ARC
8
0
10
94.757134
20
174.586120
30
0.0
40
0.500000
50
90.000000
51
156.000000
0
LINE
8
0
10
90.631538
20
169.026152
30
0.0
11
92.361923
21
170.025190
31
0.0
0
LINE
8
0
10
94.300361
20
174.789488
30
0.0
11
93.284395
21
172.507591
31
0.0
0
ARC
8
0
10
90.481538
20
169.285959
30
0.0
40
0.300000
50
270.000000
51
300.000000
0
ARC
8
0
10
93.558459
20
172.385570
30
0.0
40
0.300000
50
156.000000
51
270.000000
0
LINE
8
0
10
90.301923
20
168.985959
30
0.0
11
90.481538
21
168.985959
31
0.0
0
LINE
8
0
10
93.560220
20
172.085575
30
0.0
11
94.566674
21
172.091483
31
0.0
0
ARC
8
0
10
90.301923
20
169.385959
30
0.0
40
0.400000
50
180.000000
51
270.000000
0
ARC
8
0
10
94.564913
20
172.391478
30
0.0
40
0.300000
50
270.000000
51
324.997646
0
LINE
8
0
10
89.901923
20
172.785959
30
0.0
11
89.901923
21
169.385959
31
0.0
0
LINE
8
0
10
94.810651
20
172.219395
30
0.0
11
95.277493
21
172.886056
31
0.0
0
ARC
8
0
10
90.301923
20
172.785959
30
0.0
40
0.400000
50
90.000000
51
180.000000
0
ARC
8
0
10
95.154624
20
172.972097
30
0.0
40
0.150000
50
324.997646
51
72.871294
0
LINE
8
0
10
90.481537
20
173.185959
30
0.0
11
90.301923
21
173.185959
31
0.0
0
LINE
8
0
10
95.198802
20
173.115444
30
0.0
11
95.084788
21
173.150582
31
0.0
0
ARC
8
0
10
90.481537
20
172.885959
30
0.0
40
0.300000
50
59.999655
51
90.000000
0
ARC
8
0
10
95.143692
20
173.341711
30
0.0
40
0.200000
50
142.477243
51
252.871294
0
LINE
8
0
10
92.361891
20
172.146732
30
0.0
11
90.631539
21
173.145766
31
0.0
0
LINE
8
0
10
94.985070
20
173.463526
30
0.0
11
95.455331
21
174.075879
31
0.0
0
ARC
8
0
10
92.961898
20
173.185959
30
0.0
40
1.200000
50
239.999655
51
270.000000
0
ARC
8
0
10
95.693265
20
173.893156
30
0.0
40
0.300000
50
90.000000
51
142.477243
0
LINE
8
0
10
94.533723
20
171.985959
30
0.0
11
92.961898
21
171.985959
31
0.0
0
LINE
8
0
10
95.693089
20
174.193156
30
0.0
11
96.177284
21
174.193439
31
0.0
0
ARC
8
0
10
94.533723
20
172.285959
30
0.0
40
0.300000
50
270.000000
51
324.114388
0
ARC
8
0
10
96.177460
20
173.893439
30
0.0
40
0.300000
50
341.984494
51
90.000000
0
LINE
8
0
10
95.305530
20
172.840935
30
0.0
11
94.776780
21
172.110109
31
0.0
0
LINE
8
0
10
96.462751
20
173.800657
30
0.0
11
96.265869
21
173.195274
31
0.0
0
ARC
8
0
10
95.143493
20
172.958169
30
0.0
40
0.200000
50
324.114388
51
71.418085
0
ARC
8
0
10
96.551161
20
173.102491
30
0.0
40
0.300000
50
161.984494
51
342.165067
0
LINE
8
0
10
95.095789
20
173.185205
30
0.0
11
95.207225
21
173.147743
31
0.0
0
LINE
8
0
10
96.836744
20
173.010609
30
0.0
11
97.147991
21
173.978003
31
0.0
0
ARC
8
0
10
95.143588
20
173.327386
30
0.0
40
0.150000
50
122.563134
51
251.418085
0
ARC
8
0
10
97.433574
20
173.886120
30
0.0
40
0.300000
50
90.000000
51
162.165067
0
LINE
8
0
10
95.448469
20
173.700067
30
0.0
11
95.062854
21
173.453806
31
0.0
0
LINE
8
0
10
97.433574
20
174.186120
30
0.0
11
117.889213
21
174.186109
31
0.0
0
ARC
8
0
10
95.609937
20
173.447228
30
0.0
40
0.300000
50
90.000000
51
122.563134
0
ARC
8
0
10
117.889213
20
174.486109
30
0.0
40
0.300000
50
270.000000
51
325.309708
0
LINE
8
0
10
95.947920
20
173.747171
30
0.0
11
95.609988
21
173.747228
31
0.0
0
ARC
8
0
10
118.382557
20
174.144624
30
0.0
40
0.300000
50
327.934316
51
145.309708
0
ARC
8
0
10
95.947870
20
173.447171
30
0.0
40
0.300000
50
337.092865
51
90.000000
0
ARC
8
0
10
118.891021
20
173.826090
30
0.0
40
0.300000
50
147.934316
51
204.000000
0
LINE
8
0
10
95.949620
20
172.680577
30
0.0
11
96.224211
21
173.330399
31
0.0
0
LINE
8
0
10
118.616958
20
173.704069
30
0.0
11
119.068755
21
172.689315
31
0.0
0
ARC
8
0
10
96.410189
20
172.485958
30
0.0
40
0.500000
50
157.092865
51
270.000000
0
ARC
8
0
10
118.611983
20
172.485947
30
0.0
40
0.500000
50
270.000000
51
24.000000
0
LINE
8
0
10
118.611982
20
171.985947
30
0.0
11
96.410188
21
171.985958
31
0.0
0
ARC
8
0
10
123.502278
20
154.786364
30
0.0
40
0.400000
50
270.000000
51
0.000000
0
LINE
8
0
10
123.902278
20
158.186364
30
0.0
11
123.902278
21
154.786364
31
0.0
0
LINE
8
0
10
123.502278
20
154.386364
30
0.0
11
123.322664
21
154.386364
31
0.0
0
ARC
8
0
10
123.502278
20
158.186364
30
0.0
40
0.400000
50
0.000000
51
90.000000
0
ARC
8
0
10
123.322664
20
154.686364
30
0.0
40
0.300000
50
239.999655
51
270.000000
0
LINE
8
0
10
123.322663
20
158.586364
30
0.0
11
123.502278
21
158.586364
31
0.0
0
LINE
8
0
10
123.172662
20
154.426557
30
0.0
11
121.442309
21
155.425591
31
0.0
0
ARC
8
0
10
123.322663
20
158.286364
30
0.0
40
0.300000
50
90.000000
51
120.000000
0
LINE
8
0
10
121.442309
20
155.425591
30
0.0
11
121.144184
21
155.597699
31
0.0
0
LINE
8
0
10
121.442337
20
157.547167
30
0.0
11
123.172663
21
158.546172
31
0.0
0
ARC
8
0
10
120.994194
20
155.337886
30
0.0
40
0.300000
50
60.002085
51
155.566145
0
ARC
8
0
10
120.842337
20
158.586398
30
0.0
40
1.200000
50
270.000000
51
300.000000
0
LINE
8
0
10
120.721062
20
155.461978
30
0.0
11
119.500707
21
152.775941
31
0.0
0
LINE
8
0
10
92.961925
20
157.386352
30
0.0
11
120.842339
21
157.386398
31
0.0
0
ARC
8
0
10
119.047067
20
152.986203
30
0.0
40
0.500000
50
270.000000
51
335.132290
0
ARC
8
0
10
92.961923
20
158.586352
30
0.0
40
1.200000
50
240.000000
51
270.000000
0
LINE
8
0
10
119.047067
20
152.486203
30
0.0
11
94.757134
21
152.486192
31
0.0
0
LINE
8
0
10
90.631538
20
158.546160
30
0.0
11
92.361923
21
157.547122
31
0.0
0
ARC
8
0
10
94.757134
20
152.986192
30
0.0
40
0.500000
50
204.000000
51
270.000000
0
ARC
8
0
10
90.481538
20
158.286352
30
0.0
40
0.300000
50
60.000000
51
90.000000
0
LINE
8
0
10
94.300361
20
152.782823
30
0.0
11
93.284395
21
155.064720
31
0.0
0
LINE
8
0
10
90.301923
20
158.586352
30
0.0
11
90.481538
21
158.586352
31
0.0
0
ARC
8
0
10
93.558459
20
155.186741
30
0.0
40
0.300000
50
90.000000
51
204.000000
0
ARC
8
0
10
90.301923
20
158.186352
30
0.0
40
0.400000
50
90.000000
51
180.000000
0
LINE
8
0
10
93.560220
20
155.486736
30
0.0
11
94.566674
21
155.480829
31
0.0
0
LINE
8
0
10
89.901923
20
154.786352
30
0.0
11
89.901923
21
158.186352
31
0.0
0
ARC
8
0
10
94.564913
20
155.180834
30
0.0
40
0.300000
50
35.002354
51
90.000000
0
ARC
8
0
10
90.301923
20
154.786352
30
0.0
40
0.400000
50
180.000000
51
270.000000
0
LINE
8
0
10
94.810651
20
155.352917
30
0.0
11
95.277493
21
154.686256
31
0.0
0
LINE
8
0
10
90.481537
20
154.386352
30
0.0
11
90.301923
21
154.386352
31
0.0
0
ARC
8
0
10
95.154624
20
154.600214
30
0.0
40
0.150000
50
287.128706
51
35.002354
0
ARC
8
0
10
90.481537
20
154.686352
30
0.0
40
0.300000
50
270.000000
51
300.000345
0
LINE
8
0
10
95.198802
20
154.456868
30
0.0
11
95.084788
21
154.421730
31
0.0
0
LINE
8
0
10
92.361891
20
155.425579
30
0.0
11
90.631539
21
154.426546
31
0.0
0
ARC
8
0
10
95.143692
20
154.230601
30
0.0
40
0.200000
50
107.128706
51
217.522757
0
ARC
8
0
10
92.961898
20
154.386352
30
0.0
40
1.200000
50
90.000000
51
120.000345
0
LINE
8
0
10
94.985070
20
154.108786
30
0.0
11
95.455331
21
153.496433
31
0.0
0
LINE
8
0
10
94.533723
20
155.586352
30
0.0
11
92.961898
21
155.586352
31
0.0
0
ARC
8
0
10
95.693265
20
153.679156
30
0.0
40
0.300000
50
217.522757
51
270.000000
0
ARC
8
0
10
94.533723
20
155.286352
30
0.0
40
0.300000
50
35.885612
51
90.000000
0
LINE
8
0
10
95.693089
20
153.379156
30
0.0
11
96.177284
21
153.378872
31
0.0
0
LINE
8
0
10
95.305530
20
154.731377
30
0.0
11
94.776780
21
155.462203
31
0.0
0
ARC
8
0
10
96.177460
20
153.678872
30
0.0
40
0.300000
50
270.000000
51
18.015506
0
ARC
8
0
10
95.143493
20
154.614143
30
0.0
40
0.200000
50
288.581915
51
35.885612
0
LINE
8
0
10
96.462751
20
153.771655
30
0.0
11
96.265869
21
154.377038
31
0.0
0
LINE
8
0
10
95.095789
20
154.387106
30
0.0
11
95.207225
21
154.424569
31
0.0
0
ARC
8
0
10
96.551161
20
154.469820
30
0.0
40
0.300000
50
17.834933
51
198.015506
0
ARC
8
0
10
95.143588
20
154.244926
30
0.0
40
0.150000
50
108.581915
51
237.436866
0
LINE
8
0
10
96.836744
20
154.561703
30
0.0
11
97.147991
21
153.594309
31
0.0
0
LINE
8
0
10
95.448469
20
153.872245
30
0.0
11
95.062854
21
154.118506
31
0.0
0
ARC
8
0
10
97.433574
20
153.686192
30
0.0
40
0.300000
50
197.834933
51
270.000000
0
ARC
8
0
10
95.609937
20
154.125084
30
0.0
40
0.300000
50
237.436866
51
270.000000
0
LINE
8
0
10
97.433574
20
153.386192
30
0.0
11
117.889213
21
153.386203
31
0.0
0
LINE
8
0
10
95.947920
20
153.825141
30
0.0
11
95.609988
21
153.825084
31
0.0
0
ARC
8
0
10
117.889213
20
153.086203
30
0.0
40
0.300000
50
34.690292
51
90.000000
0
ARC
8
0
10
95.947870
20
154.125141
30
0.0
40
0.300000
50
270.000000
51
22.907135
0
ARC
8
0
10
118.382557
20
153.427687
30
0.0
40
0.300000
50
214.690292
51
32.065684
0
LINE
8
0
10
95.949620
20
154.891735
30
0.0
11
96.224211
21
154.241913
31
0.0
0
ARC
8
0
10
118.891021
20
153.746222
30
0.0
40
0.300000
50
156.000000
51
212.065684
0
ARC
8
0
10
96.410189
20
155.086354
30
0.0
40
0.500000
50
90.000000
51
202.907135
0
LINE
8
0
10
118.616958
20
153.868243
30
0.0
11
119.068755
21
154.882997
31
0.0
0
LINE
8
0
10
118.611982
20
155.586365
30
0.0
11
96.410188
21
155.586354
31
0.0
0
ARC
8
0
10
118.611983
20
155.086365
30
0.0
40
0.500000
50
336.000000
51
90.000000
0
ATTDEF
8
0
10
81.302279
20
149.586225
30
0.0
40
3.5
1

3

2
JY:0.000000
70
0
0
ATTDEF
8
0
10
81.302279
20
149.586225
30
0.0
40
3.5
1

3

2
WY:0.000000
70
0
0
ATTDEF
8
0
10
89.373128
20
175.086366
30
0.0
40
3.5
1

3

2
VC_START
70
0
0
ATTDEF
8
0
10
83.102021
20
150.386417
30
0.0
40
3.5
1

3

2
VC_END
70
0
0
ATTDEF
8
0
10
81.302279
20
149.586225
30
0.0
40
3.5
1

3

2
DESC:Profilo battuta per via di esodo
70
0
0
ATTDEF
8
0
10
81.302279
20
149.586225
30
0.0
40
3.5
1

3

2
DENS:1.120000
70
0
0
ATTDEF
8
0
10
81.302279
20
149.586225
30
0.0
40
3.5
1

3

2
TDEV:0.000000
70
0
0
ATTDEF
8
0
10
81.302279
20
149.586225
30
0.0
40
3.5
1

3

2
TDEV2:0.000000
70
0
0
ATTDEF
8
0
10
81.302279
20
149.586225
30
0.0
40
3.5
1

3

2
TDEV3:0.000000
70
0
0
ATTDEF
8
0
10
81.302279
20
149.586225
30
0.0
40
3.5
1

3

2
TDEV4:0.000000
70
0
0
ATTDEF
8
0
10
81.302279
20
149.586225
30
0.0
40
3.5
1

3

2
TDEV5:0.000000
70
0
0
ATTDEF
8
0
10
81.302279
20
149.586225
30
0.0
40
3.5
1

3

2
FRONT_VIEW
70
0
0
ATTDEF
8
0
10
81.302279
20
149.586225
30
0.0
40
3.5
1

3

2
BL01:6800.000000,,1
70
0
0
ATTDEF
8
0
10
81.302279
20
149.586225
30
0.0
40
3.5
1

3

2
OPTI:500.000000,1,0,3000.000000,6500.000000,500.000000,0,0.000000,0
70
0
0
ATTDEF
8
0
10
81.302279
20
149.586225
30
0.0
40
3.5
1

3

2
PANE_WIDTH:0.000000
70
0
0
ATTDEF
8
0
10
81.302279
20
149.586225
30
0.0
40
3.5
1

3

2
GLASS_MIN:0.000000
70
0
0
ATTDEF
8
0
10
81.302279
20
149.586225
30
0.0
40
3.5
1

3

2
GLASS_MAX:0.000000
70
0
0
ATTDEF
8
0
10
81.302279
20
149.586225
30
0.0
40
3.5
1

3

2
JX:0.000000
70
0
0
ATTDEF
8
0
10
81.302279
20
149.586225
30
0.0
40
3.5
1

3

2
WX:0.000000
70
0
0
ATTDEF
8
0
10
81.302279
20
149.586225
30
0.0
40
3.5
1

3

2
JY:0.000000
70
0
0
ATTDEF
8
0
10
81.302279
20
149.586225
30
0.0
40
3.5
1

3

2
WY:0.000000
70
0
0
ATTDEF
8
0
10
81.302279
20
149.586225
30
0.0
40
3.5
1

3

2
FP_LCS_ORIG
70
0
0
ATTDEF
8
0
10
91.302279
20
149.586225
30
0.0
40
3.5
1

3

2
FP_LCS_HOT
70
0
0
ATTDEF
8
0
10
81.302279
20
159.586225
30
0.0
40
3.5
1

3

2
FP_LCS_INTERN
70
0
0
ENDSEC
0
EOF
