0
SECTION
2
ENTITIES
0
ARC
8
0
10
115.712948
20
160.005323
30
0.0
40
0.300000
50
90.000000
51
180.000000
0
LINE
8
0
10
115.712948
20
160.305323
30
0.0
11
117.412948
21
160.305323
31
0.0
0
ARC
8
0
10
117.412948
20
160.805323
30
0.0
40
0.500000
50
270.000000
51
0.000000
0
LINE
8
0
10
117.912948
20
160.805323
30
0.0
11
117.912948
21
170.305323
31
0.0
0
ARC
8
0
10
115.912948
20
170.305323
30
0.0
40
2.000000
50
0.000000
51
90.000000
0
LINE
8
0
10
115.912948
20
172.305323
30
0.0
11
112.011374
21
172.305323
31
0.0
0
LINE
8
0
10
112.011374
20
172.305323
30
0.0
11
111.712948
21
172.605323
31
0.0
0
LINE
8
0
10
111.712948
20
172.605323
30
0.0
11
111.414522
21
172.305323
31
0.0
0
LINE
8
0
10
111.414522
20
172.305323
30
0.0
11
108.309314
21
172.305323
31
0.0
0
ARC
8
0
10
108.309314
20
171.905323
30
0.0
40
0.400000
50
90.000000
51
180.000000
0
LINE
8
0
10
107.909314
20
171.905323
30
0.0
11
107.909314
21
167.700674
31
0.0
0
ARC
8
0
10
107.509314
20
167.700674
30
0.0
40
0.400000
50
270.000000
51
0.000000
0
LINE
8
0
10
107.509314
20
167.300674
30
0.0
11
106.259314
21
167.300674
31
0.0
0
ARC
8
0
10
106.259314
20
167.600674
30
0.0
40
0.300000
50
180.000000
51
270.000000
0
LINE
8
0
10
105.959314
20
167.600674
30
0.0
11
105.959314
21
168.000674
31
0.0
0
ARC
8
0
10
106.259314
20
168.000674
30
0.0
40
0.300000
50
90.000000
51
180.000000
0
LINE
8
0
10
106.259314
20
168.300674
30
0.0
11
106.409314
21
168.300674
31
0.0
0
ARC
8
0
10
106.409314
20
168.600674
30
0.0
40
0.300000
50
270.000000
51
0.000000
0
LINE
8
0
10
106.709314
20
168.600674
30
0.0
11
106.709314
21
172.005323
31
0.0
0
ARC
8
0
10
106.409314
20
172.005323
30
0.0
40
0.300000
50
0.000000
51
90.000000
0
LINE
8
0
10
106.409314
20
172.305323
30
0.0
11
103.009314
21
172.305323
31
0.0
0
ARC
8
0
10
103.009314
20
172.005323
30
0.0
40
0.300000
50
90.000000
51
180.000000
0
LINE
8
0
10
102.709314
20
172.005323
30
0.0
11
102.709314
21
168.600674
31
0.0
0
ARC
8
0
10
103.009314
20
168.600674
30
0.0
40
0.300000
50
180.000000
51
270.000000
0
LINE
8
0
10
103.009314
20
168.300674
30
0.0
11
103.159314
21
168.300674
31
0.0
0
ARC
8
0
10
103.159314
20
168.000674
30
0.0
40
0.300000
50
0.000000
51
90.000000
0
LINE
8
0
10
103.459314
20
168.000674
30
0.0
11
103.459314
21
167.600674
31
0.0
0
ARC
8
0
10
103.159314
20
167.600674
30
0.0
40
0.300000
50
270.000000
51
0.000000
0
LINE
8
0
10
103.159314
20
167.300674
30
0.0
11
103.009314
21
167.300674
31
0.0
0
ARC
8
0
10
103.009314
20
167.000674
30
0.0
40
0.300000
50
90.000000
51
180.000000
0
LINE
8
0
10
102.709314
20
167.000674
30
0.0
11
102.709314
21
166.503614
31
0.0
0
ARC
8
0
10
102.409314
20
166.503614
30
0.0
40
0.300000
50
270.000000
51
0.000000
0
LINE
8
0
10
102.409314
20
166.203614
30
0.0
11
98.808799
21
166.203614
31
0.0
0
ARC
8
0
10
98.808799
20
166.603614
30
0.0
40
0.400000
50
180.000000
51
270.000000
0
LINE
8
0
10
98.408799
20
166.603614
30
0.0
11
98.408799
21
168.905878
31
0.0
0
ARC
8
0
10
98.608799
20
168.905878
30
0.0
40
0.200000
50
58.626462
51
180.000000
0
LINE
8
0
10
98.712922
20
169.076636
30
0.0
11
100.232999
21
168.149741
31
0.0
0
ARC
8
0
10
100.389184
20
168.405878
30
0.0
40
0.300000
50
238.626462
51
270.000000
0
LINE
8
0
10
100.389184
20
168.105878
30
0.0
11
100.608799
21
168.105878
31
0.0
0
ARC
8
0
10
100.608799
20
168.405878
30
0.0
40
0.300000
50
270.000000
51
0.000000
0
LINE
8
0
10
100.908799
20
168.405878
30
0.0
11
100.908799
21
172.439637
31
0.0
0
ARC
8
0
10
100.808799
20
172.722480
30
0.0
40
0.300000
50
289.471221
51
87.416256
0
LINE
8
0
10
100.822323
20
173.022175
30
0.0
11
100.535260
21
172.935027
31
0.0
0
LINE
8
0
10
100.535260
20
172.935027
30
0.0
11
98.759103
21
171.830006
31
0.0
0
ARC
8
0
10
98.864754
20
171.660188
30
0.0
40
0.200000
50
121.887477
51
180.000000
0
LINE
8
0
10
98.664862
20
171.653601
30
0.0
11
98.670567
21
171.480490
31
0.0
0
ARC
8
0
10
98.470675
20
171.473902
30
0.0
40
0.200000
50
241.887477
51
0.000000
0
LINE
8
0
10
98.376434
20
171.297498
30
0.0
11
98.096694
21
171.446944
31
0.0
0
ARC
8
0
10
98.473658
20
172.152563
30
0.0
40
0.800000
50
196.887477
51
241.887477
0
LINE
8
0
10
97.708156
20
171.920168
30
0.0
11
97.126760
21
173.835273
31
0.0
0
ARC
8
0
10
97.413823
20
173.922421
30
0.0
40
0.300000
50
90.000000
51
196.887477
0
LINE
8
0
10
97.414412
20
174.222421
30
0.0
11
98.964242
21
174.219377
31
0.0
0
ARC
8
0
10
98.963849
20
174.019377
30
0.0
40
0.200000
50
29.118414
51
90.000000
0
ARC
8
0
10
99.400657
20
174.262685
30
0.0
40
0.300000
50
209.118414
51
286.887477
0
LINE
8
0
10
99.487805
20
173.975622
30
0.0
11
100.573830
21
174.305323
31
0.0
0
LINE
8
0
10
100.573830
20
174.305323
30
0.0
11
113.716599
21
174.305323
31
0.0
0
ARC
8
0
10
113.716599
20
174.605323
30
0.0
40
0.300000
50
270.000000
51
0.000000
0
LINE
8
0
10
114.016599
20
174.605323
30
0.0
11
114.016599
21
180.381876
31
0.0
0
ARC
8
0
10
114.416599
20
180.381876
30
0.0
40
0.400000
50
20.000000
51
180.000000
0
LINE
8
0
10
114.792476
20
180.518684
30
0.0
11
115.896985
21
177.484071
31
0.0
0
ARC
8
0
10
115.615077
20
177.381465
30
0.0
40
0.300000
50
300.000000
51
20.000000
0
LINE
8
0
10
115.765077
20
177.121657
30
0.0
11
115.215077
21
176.804115
31
0.0
0
LINE
8
0
10
115.215077
20
176.804115
30
0.0
11
115.215077
21
174.605323
31
0.0
0
ARC
8
0
10
115.515077
20
174.605323
30
0.0
40
0.300000
50
180.000000
51
270.000000
0
LINE
8
0
10
115.515077
20
174.305323
30
0.0
11
119.412948
21
174.305323
31
0.0
0
ARC
8
0
10
119.412948
20
174.005323
30
0.0
40
0.300000
50
0.000000
51
90.000000
0
LINE
8
0
10
119.712948
20
174.005323
30
0.0
11
119.712948
21
150.805323
31
0.0
0
ARC
8
0
10
119.212948
20
150.805323
30
0.0
40
0.500000
50
270.000000
51
0.000000
0
LINE
8
0
10
119.212948
20
150.305323
30
0.0
11
115.712948
21
150.305323
31
0.0
0
ARC
8
0
10
115.712948
20
150.605323
30
0.0
40
0.300000
50
180.000000
51
270.000000
0
LINE
8
0
10
115.412948
20
150.605323
30
0.0
11
115.412948
21
152.105323
31
0.0
0
ARC
8
0
10
116.112948
20
152.105323
30
0.0
40
0.700000
50
90.000000
51
180.000000
0
ARC
8
0
10
116.112948
20
152.505323
30
0.0
40
0.300000
50
0.000000
51
90.000000
0
LINE
8
0
10
116.412948
20
152.505323
30
0.0
11
116.412948
21
151.805323
31
0.0
0
ARC
8
0
10
116.712948
20
151.805323
30
0.0
40
0.300000
50
180.000000
51
270.000000
0
LINE
8
0
10
116.712948
20
151.505323
30
0.0
11
117.712948
21
151.505323
31
0.0
0
ARC
8
0
10
117.712948
20
152.205323
30
0.0
40
0.700000
50
270.000000
51
0.000000
0
LINE
8
0
10
118.412948
20
152.205323
30
0.0
11
118.412948
21
158.405323
31
0.0
0
ARC
8
0
10
117.712948
20
158.405323
30
0.0
40
0.700000
50
0.000000
51
90.000000
0
LINE
8
0
10
117.712948
20
159.105323
30
0.0
11
116.712948
21
159.105323
31
0.0
0
ARC
8
0
10
116.712948
20
158.805323
30
0.0
40
0.300000
50
90.000000
51
180.000000
0
LINE
8
0
10
116.412948
20
158.805323
30
0.0
11
116.412948
21
158.105323
31
0.0
0
ARC
8
0
10
116.112948
20
158.105323
30
0.0
40
0.300000
50
270.000000
51
0.000000
0
ARC
8
0
10
116.112948
20
158.505323
30
0.0
40
0.700000
50
180.000000
51
270.000000
0
LINE
8
0
10
115.412948
20
158.505323
30
0.0
11
115.412948
21
160.005323
31
0.0
0
LINE
8
0
10
43.305165
20
174.305323
30
0.0
11
47.203036
21
174.305323
31
0.0
0
ARC
8
0
10
47.203036
20
174.605323
30
0.0
40
0.300000
50
270.000000
51
0.000000
0
LINE
8
0
10
47.503036
20
174.605323
30
0.0
11
47.503036
21
176.804115
31
0.0
0
LINE
8
0
10
47.503036
20
176.804115
30
0.0
11
46.953036
21
177.121657
31
0.0
0
ARC
8
0
10
47.103036
20
177.381465
30
0.0
40
0.300000
50
160.000000
51
240.000000
0
LINE
8
0
10
46.821128
20
177.484071
30
0.0
11
47.925637
21
180.518684
31
0.0
0
ARC
8
0
10
48.301514
20
180.381876
30
0.0
40
0.400000
50
0.000000
51
160.000000
0
LINE
8
0
10
48.701514
20
180.381876
30
0.0
11
48.701514
21
174.605323
31
0.0
0
ARC
8
0
10
49.001514
20
174.605323
30
0.0
40
0.300000
50
180.000000
51
270.000000
0
LINE
8
0
10
49.001514
20
174.305323
30
0.0
11
62.014283
21
174.305323
31
0.0
0
LINE
8
0
10
62.014283
20
174.305323
30
0.0
11
63.100309
21
173.975622
31
0.0
0
ARC
8
0
10
63.187456
20
174.262685
30
0.0
40
0.300000
50
253.112523
51
330.881586
0
ARC
8
0
10
63.624264
20
174.019377
30
0.0
40
0.200000
50
90.000000
51
150.881586
0
LINE
8
0
10
63.623872
20
174.219377
30
0.0
11
65.173701
21
174.222421
31
0.0
0
ARC
8
0
10
65.174290
20
173.922421
30
0.0
40
0.300000
50
343.112523
51
90.000000
0
LINE
8
0
10
65.461353
20
173.835273
30
0.0
11
64.879957
21
171.920168
31
0.0
0
ARC
8
0
10
64.114455
20
172.152563
30
0.0
40
0.800000
50
298.112523
51
343.112523
0
LINE
8
0
10
64.491419
20
171.446944
30
0.0
11
64.211679
21
171.297498
31
0.0
0
ARC
8
0
10
64.117438
20
171.473902
30
0.0
40
0.200000
50
180.000000
51
298.112523
0
LINE
8
0
10
63.917546
20
171.480490
30
0.0
11
63.923251
21
171.653601
31
0.0
0
ARC
8
0
10
63.723360
20
171.660188
30
0.0
40
0.200000
50
0.000000
51
58.112523
0
LINE
8
0
10
63.829010
20
171.830006
30
0.0
11
62.282124
21
172.803243
31
0.0
0
LINE
8
0
10
62.282124
20
172.803243
30
0.0
11
61.994973
21
172.890101
31
0.0
0
ARC
8
0
10
62.008799
20
172.590420
30
0.0
40
0.300000
50
92.641495
51
250.528779
0
LINE
8
0
10
61.908799
20
172.307577
30
0.0
11
61.908799
21
168.405878
31
0.0
0
ARC
8
0
10
62.208799
20
168.405878
30
0.0
40
0.300000
50
180.000000
51
270.000000
0
LINE
8
0
10
62.208799
20
168.105878
30
0.0
11
62.428414
21
168.105878
31
0.0
0
ARC
8
0
10
62.428414
20
168.405878
30
0.0
40
0.300000
50
270.000000
51
301.373538
0
LINE
8
0
10
62.584599
20
168.149741
30
0.0
11
64.104676
21
169.076636
31
0.0
0
ARC
8
0
10
64.208799
20
168.905878
30
0.0
40
0.200000
50
0.000000
51
121.373538
0
LINE
8
0
10
64.408799
20
168.905878
30
0.0
11
64.408799
21
166.603614
31
0.0
0
ARC
8
0
10
64.008799
20
166.603614
30
0.0
40
0.400000
50
270.000000
51
0.000000
0
LINE
8
0
10
64.008799
20
166.203614
30
0.0
11
60.408283
21
166.203614
31
0.0
0
ARC
8
0
10
60.408283
20
166.503614
30
0.0
40
0.300000
50
180.000000
51
270.000000
0
LINE
8
0
10
60.108283
20
166.503614
30
0.0
11
60.108283
21
167.000674
31
0.0
0
ARC
8
0
10
59.808283
20
167.000674
30
0.0
40
0.300000
50
0.000000
51
90.000000
0
LINE
8
0
10
59.808283
20
167.300674
30
0.0
11
59.658283
21
167.300674
31
0.0
0
ARC
8
0
10
59.658283
20
167.600674
30
0.0
40
0.300000
50
180.000000
51
270.000000
0
LINE
8
0
10
59.358283
20
167.600674
30
0.0
11
59.358283
21
168.000674
31
0.0
0
ARC
8
0
10
59.658283
20
168.000674
30
0.0
40
0.300000
50
90.000000
51
180.000000
0
LINE
8
0
10
59.658283
20
168.300674
30
0.0
11
59.808283
21
168.300674
31
0.0
0
ARC
8
0
10
59.808283
20
168.600674
30
0.0
40
0.300000
50
270.000000
51
0.000000
0
LINE
8
0
10
60.108283
20
168.600674
30
0.0
11
60.108283
21
172.005323
31
0.0
0
ARC
8
0
10
59.808283
20
172.005323
30
0.0
40
0.300000
50
0.000000
51
90.000000
0
LINE
8
0
10
59.808283
20
172.305323
30
0.0
11
56.408283
21
172.305323
31
0.0
0
ARC
8
0
10
56.408283
20
172.005323
30
0.0
40
0.300000
50
90.000000
51
180.000000
0
LINE
8
0
10
56.108283
20
172.005323
30
0.0
11
56.108283
21
168.600674
31
0.0
0
ARC
8
0
10
56.408283
20
168.600674
30
0.0
40
0.300000
50
180.000000
51
270.000000
0
LINE
8
0
10
56.408283
20
168.300674
30
0.0
11
56.558283
21
168.300674
31
0.0
0
ARC
8
0
10
56.558283
20
168.000674
30
0.0
40
0.300000
50
0.000000
51
90.000000
0
LINE
8
0
10
56.858283
20
168.000674
30
0.0
11
56.858283
21
167.600674
31
0.0
0
ARC
8
0
10
56.558283
20
167.600674
30
0.0
40
0.300000
50
270.000000
51
0.000000
0
LINE
8
0
10
56.558283
20
167.300674
30
0.0
11
55.308283
21
167.300674
31
0.0
0
ARC
8
0
10
55.308283
20
167.700674
30
0.0
40
0.400000
50
180.000000
51
270.000000
0
LINE
8
0
10
54.908283
20
167.700674
30
0.0
11
54.908283
21
171.905323
31
0.0
0
ARC
8
0
10
54.508283
20
171.905323
30
0.0
40
0.400000
50
0.000000
51
90.000000
0
LINE
8
0
10
54.508283
20
172.305323
30
0.0
11
51.303591
21
172.305323
31
0.0
0
LINE
8
0
10
51.303591
20
172.305323
30
0.0
11
51.005165
21
172.605323
31
0.0
0
LINE
8
0
10
51.005165
20
172.605323
30
0.0
11
50.706740
21
172.305323
31
0.0
0
LINE
8
0
10
50.706740
20
172.305323
30
0.0
11
45.001237
21
172.305323
31
0.0
0
ARC
8
0
10
45.001237
20
171.805323
30
0.0
40
0.500000
50
90.000000
51
180.000000
0
LINE
8
0
10
44.501237
20
171.805323
30
0.0
11
44.501237
21
166.605674
31
0.0
0
ARC
8
0
10
44.201237
20
166.605674
30
0.0
40
0.300000
50
270.000000
51
0.000000
0
LINE
8
0
10
44.201237
20
166.305674
30
0.0
11
43.305165
21
166.305674
31
0.0
0
ARC
8
0
10
43.305165
20
166.605674
30
0.0
40
0.300000
50
180.000000
51
270.000000
0
LINE
8
0
10
43.005165
20
166.605674
30
0.0
11
43.005165
21
174.005323
31
0.0
0
ARC
8
0
10
43.305165
20
174.005323
30
0.0
40
0.300000
50
90.000000
51
180.000000
0
ARC
8
0
10
62.652150
20
170.263556
30
0.0
40
0.600000
50
244.992167
51
115.007833
0
LINE
8
0
10
62.313957
20
170.788556
30
0.0
11
62.398505
21
170.807306
31
0.0
0
LINE
8
0
10
62.313957
20
170.788556
30
0.0
11
62.202150
21
170.788556
31
0.0
0
ARC
8
0
10
62.202150
20
170.988556
30
0.0
40
0.200000
50
180.000000
51
270.000000
0
LINE
8
0
10
62.002150
20
170.988556
30
0.0
11
62.002150
21
171.363556
31
0.0
0
ARC
8
0
10
62.002150
20
171.463556
30
0.0
40
0.100000
50
180.000000
51
270.000000
0
LINE
8
0
10
61.902150
20
171.463556
30
0.0
11
61.902150
21
171.963556
31
0.0
0
ARC
8
0
10
62.302150
20
171.963556
30
0.0
40
0.400000
50
90.000000
51
180.000000
0
LINE
8
0
10
62.302150
20
172.363556
30
0.0
11
62.508561
21
172.363556
31
0.0
0
ARC
8
0
10
62.508561
20
172.163556
30
0.0
40
0.200000
50
60.000000
51
90.000000
0
LINE
8
0
10
62.608561
20
172.336761
30
0.0
11
64.137983
21
171.453749
31
0.0
0
ARC
8
0
10
64.287983
20
171.713556
30
0.0
40
0.300000
50
240.000000
51
270.000000
0
LINE
8
0
10
64.287983
20
171.413556
30
0.0
11
64.528662
21
171.413556
31
0.0
0
ARC
8
0
10
64.528662
20
172.413556
30
0.0
40
1.000000
50
270.000000
51
333.886087
0
LINE
8
0
10
65.426583
20
171.973399
30
0.0
11
66.264934
21
173.683635
31
0.0
0
ARC
8
0
10
66.713894
20
173.463556
30
0.0
40
0.500000
50
90.000000
51
153.886087
0
LINE
8
0
10
66.713894
20
173.963556
30
0.0
11
96.090406
21
173.963556
31
0.0
0
ARC
8
0
10
96.090406
20
173.463556
30
0.0
40
0.500000
50
26.113913
51
90.000000
0
LINE
8
0
10
96.539367
20
173.683635
30
0.0
11
97.377718
21
171.973399
31
0.0
0
ARC
8
0
10
98.275638
20
172.413556
30
0.0
40
1.000000
50
206.113913
51
270.000000
0
LINE
8
0
10
98.275638
20
171.413556
30
0.0
11
98.516317
21
171.413556
31
0.0
0
ARC
8
0
10
98.516317
20
171.713556
30
0.0
40
0.300000
50
270.000000
51
300.000000
0
LINE
8
0
10
98.666317
20
171.453749
30
0.0
11
100.195740
21
172.336761
31
0.0
0
ARC
8
0
10
100.295740
20
172.163556
30
0.0
40
0.200000
50
90.000000
51
120.000000
0
LINE
8
0
10
100.295740
20
172.363556
30
0.0
11
100.502150
21
172.363556
31
0.0
0
ARC
8
0
10
100.502150
20
171.963556
30
0.0
40
0.400000
50
0.000000
51
90.000000
0
LINE
8
0
10
100.902150
20
171.963556
30
0.0
11
100.902150
21
171.463556
31
0.0
0
ARC
8
0
10
100.802150
20
171.463556
30
0.0
40
0.100000
50
270.000000
51
0.000000
0
LINE
8
0
10
100.802150
20
171.363556
30
0.0
11
100.802150
21
170.988556
31
0.0
0
ARC
8
0
10
100.602150
20
170.988556
30
0.0
40
0.200000
50
270.000000
51
0.000000
0
LINE
8
0
10
100.602150
20
170.788556
30
0.0
11
100.490344
21
170.788556
31
0.0
0
LINE
8
0
10
100.405796
20
170.807306
30
0.0
11
100.490344
21
170.788556
31
0.0
0
ARC
8
0
10
100.152150
20
170.263556
30
0.0
40
0.600000
50
64.992167
51
295.007833
0
LINE
8
0
10
100.490344
20
169.738556
30
0.0
11
100.405796
21
169.719806
31
0.0
0
LINE
8
0
10
100.490344
20
169.738556
30
0.0
11
100.602150
21
169.738556
31
0.0
0
ARC
8
0
10
100.602150
20
169.538556
30
0.0
40
0.200000
50
0.000000
51
90.000000
0
LINE
8
0
10
100.802150
20
169.538556
30
0.0
11
100.802150
21
169.163556
31
0.0
0
ARC
8
0
10
100.802150
20
169.063556
30
0.0
40
0.100000
50
0.000000
51
90.000000
0
LINE
8
0
10
100.902150
20
169.063556
30
0.0
11
100.902150
21
168.563556
31
0.0
0
ARC
8
0
10
100.502150
20
168.563556
30
0.0
40
0.400000
50
270.000000
51
0.000000
0
LINE
8
0
10
100.502150
20
168.163556
30
0.0
11
100.295740
21
168.163556
31
0.0
0
ARC
8
0
10
100.295740
20
168.363556
30
0.0
40
0.200000
50
240.000000
51
270.000000
0
LINE
8
0
10
100.195740
20
168.190351
30
0.0
11
98.666317
21
169.073364
31
0.0
0
ARC
8
0
10
98.516317
20
168.813556
30
0.0
40
0.300000
50
60.000000
51
90.000000
0
LINE
8
0
10
98.516317
20
169.113556
30
0.0
11
98.212316
21
169.113556
31
0.0
0
ARC
8
0
10
98.212316
20
168.313556
30
0.0
40
0.800000
50
90.000000
51
160.000000
0
LINE
8
0
10
97.460562
20
168.587172
30
0.0
11
95.824652
21
164.092546
31
0.0
0
ARC
8
0
10
95.354806
20
164.263556
30
0.0
40
0.500000
50
270.000000
51
340.000000
0
LINE
8
0
10
95.354806
20
163.763556
30
0.0
11
93.602150
21
163.763556
31
0.0
0
ARC
8
0
10
93.602150
20
164.263556
30
0.0
40
0.500000
50
180.000000
51
270.000000
0
LINE
8
0
10
93.102150
20
164.263556
30
0.0
11
93.102150
21
166.463556
31
0.0
0
ARC
8
0
10
92.802150
20
166.463556
30
0.0
40
0.300000
50
0.000000
51
90.000000
0
LINE
8
0
10
92.802150
20
166.763556
30
0.0
11
70.002150
21
166.763556
31
0.0
0
ARC
8
0
10
70.002150
20
166.463556
30
0.0
40
0.300000
50
90.000000
51
180.000000
0
LINE
8
0
10
69.702150
20
166.463556
30
0.0
11
69.702150
21
164.263556
31
0.0
0
ARC
8
0
10
69.202150
20
164.263556
30
0.0
40
0.500000
50
270.000000
51
0.000000
0
LINE
8
0
10
69.202150
20
163.763556
30
0.0
11
67.449495
21
163.763556
31
0.0
0
ARC
8
0
10
67.449495
20
164.263556
30
0.0
40
0.500000
50
200.000000
51
270.000000
0
LINE
8
0
10
66.979649
20
164.092546
30
0.0
11
65.343739
21
168.587172
31
0.0
0
ARC
8
0
10
64.591984
20
168.313556
30
0.0
40
0.800000
50
20.000000
51
90.000000
0
LINE
8
0
10
64.591984
20
169.113556
30
0.0
11
64.287983
21
169.113556
31
0.0
0
ARC
8
0
10
64.287983
20
168.813556
30
0.0
40
0.300000
50
90.000000
51
120.000000
0
LINE
8
0
10
64.137983
20
169.073364
30
0.0
11
62.608561
21
168.190351
31
0.0
0
ARC
8
0
10
62.508561
20
168.363556
30
0.0
40
0.200000
50
270.000000
51
300.000000
0
LINE
8
0
10
62.508561
20
168.163556
30
0.0
11
62.302150
21
168.163556
31
0.0
0
ARC
8
0
10
62.302150
20
168.563556
30
0.0
40
0.400000
50
180.000000
51
270.000000
0
LINE
8
0
10
61.902150
20
168.563556
30
0.0
11
61.902150
21
169.063556
31
0.0
0
ARC
8
0
10
62.002150
20
169.063556
30
0.0
40
0.100000
50
90.000000
51
180.000000
0
LINE
8
0
10
62.002150
20
169.163556
30
0.0
11
62.002150
21
169.538556
31
0.0
0
ARC
8
0
10
62.202150
20
169.538556
30
0.0
40
0.200000
50
90.000000
51
180.000000
0
LINE
8
0
10
62.202150
20
169.738556
30
0.0
11
62.313957
21
169.738556
31
0.0
0
LINE
8
0
10
62.398505
20
169.719806
30
0.0
11
62.313957
21
169.738556
31
0.0
0
LINE
8
0
10
73.102150
20
172.863556
30
0.0
11
73.102150
21
167.863556
31
0.0
0
ARC
8
0
10
72.802150
20
167.863556
30
0.0
40
0.300000
50
270.000000
51
0.000000
0
LINE
8
0
10
72.802150
20
167.563556
30
0.0
11
69.152150
21
167.563556
31
0.0
0
ARC
8
0
10
69.152150
20
167.063556
30
0.0
40
0.500000
50
90.000000
51
180.000000
0
LINE
8
0
10
68.652150
20
167.063556
30
0.0
11
68.652150
21
165.163556
31
0.0
0
ARC
8
0
10
68.352150
20
165.163556
30
0.0
40
0.300000
50
270.000000
51
0.000000
0
LINE
8
0
10
68.352150
20
164.863556
30
0.0
11
68.079682
21
164.863556
31
0.0
0
ARC
8
0
10
68.079682
20
165.163556
30
0.0
40
0.300000
50
200.000000
51
270.000000
0
LINE
8
0
10
67.797774
20
165.060950
30
0.0
11
66.702150
21
168.071151
31
0.0
0
LINE
8
0
10
66.702150
20
168.071151
30
0.0
11
66.702150
21
171.963556
31
0.0
0
ARC
8
0
10
67.902150
20
171.963556
30
0.0
40
1.200000
50
90.000000
51
180.000000
0
LINE
8
0
10
67.902150
20
173.163556
30
0.0
11
72.802150
21
173.163556
31
0.0
0
ARC
8
0
10
72.802150
20
172.863556
30
0.0
40
0.300000
50
0.000000
51
90.000000
0
ARC
8
0
10
94.724619
20
165.163556
30
0.0
40
0.300000
50
270.000000
51
340.000000
0
LINE
8
0
10
94.724619
20
164.863556
30
0.0
11
94.452150
21
164.863556
31
0.0
0
ARC
8
0
10
94.452150
20
165.163556
30
0.0
40
0.300000
50
180.000000
51
270.000000
0
LINE
8
0
10
94.152150
20
165.163556
30
0.0
11
94.152150
21
167.063556
31
0.0
0
ARC
8
0
10
93.652150
20
167.063556
30
0.0
40
0.500000
50
0.000000
51
90.000000
0
LINE
8
0
10
93.652150
20
167.563556
30
0.0
11
90.002150
21
167.563556
31
0.0
0
ARC
8
0
10
90.002150
20
167.863556
30
0.0
40
0.300000
50
180.000000
51
270.000000
0
LINE
8
0
10
89.702150
20
167.863556
30
0.0
11
89.702150
21
172.863556
31
0.0
0
ARC
8
0
10
90.002150
20
172.863556
30
0.0
40
0.300000
50
90.000000
51
180.000000
0
LINE
8
0
10
90.002150
20
173.163556
30
0.0
11
94.902150
21
173.163556
31
0.0
0
ARC
8
0
10
94.902150
20
171.963556
30
0.0
40
1.200000
50
0.000000
51
90.000000
0
LINE
8
0
10
96.102150
20
171.963556
30
0.0
11
96.102150
21
168.071151
31
0.0
0
LINE
8
0
10
96.102150
20
168.071151
30
0.0
11
95.006527
21
165.060950
31
0.0
0
LINE
8
0
10
74.452150
20
173.163556
30
0.0
11
80.552150
21
173.163556
31
0.0
0
ARC
8
0
10
80.552150
20
172.863556
30
0.0
40
0.300000
50
0.000000
51
90.000000
0
LINE
8
0
10
80.852150
20
172.863556
30
0.0
11
80.852150
21
167.863556
31
0.0
0
ARC
8
0
10
80.552150
20
167.863556
30
0.0
40
0.300000
50
270.000000
51
0.000000
0
LINE
8
0
10
80.552150
20
167.563556
30
0.0
11
74.452150
21
167.563556
31
0.0
0
ARC
8
0
10
74.452150
20
167.863556
30
0.0
40
0.300000
50
180.000000
51
270.000000
0
LINE
8
0
10
74.152150
20
167.863556
30
0.0
11
74.152150
21
172.863556
31
0.0
0
ARC
8
0
10
74.452150
20
172.863556
30
0.0
40
0.300000
50
90.000000
51
180.000000
0
ARC
8
0
10
88.352150
20
167.863556
30
0.0
40
0.300000
50
270.000000
51
0.000000
0
LINE
8
0
10
88.352150
20
167.563556
30
0.0
11
82.252150
21
167.563556
31
0.0
0
ARC
8
0
10
82.252150
20
167.863556
30
0.0
40
0.300000
50
180.000000
51
270.000000
0
LINE
8
0
10
81.952150
20
167.863556
30
0.0
11
81.952150
21
172.863556
31
0.0
0
ARC
8
0
10
82.252150
20
172.863556
30
0.0
40
0.300000
50
90.000000
51
180.000000
0
LINE
8
0
10
82.252150
20
173.163556
30
0.0
11
88.352150
21
173.163556
31
0.0
0
ARC
8
0
10
88.352150
20
172.863556
30
0.0
40
0.300000
50
0.000000
51
90.000000
0
LINE
8
0
10
88.652150
20
172.863556
30
0.0
11
88.652150
21
167.863556
31
0.0
0
ATTDEF
8
0
10
43.305165
20
174.305323
30
0.0
40
3.5
1

3

2
VC_START
70
0
0
ATTDEF
8
0
10
115.712948
20
150.305323
30
0.0
40
3.5
1

3

2
VC_END
70
0
0
ATTDEF
8
0
10
43.005165
20
150.305323
30
0.0
40
3.5
1

3

2
JY:0.000000
70
0
0
ATTDEF
8
0
10
43.005165
20
150.305323
30
0.0
40
3.5
1

3

2
WY:0.000000
70
0
0
ATTDEF
8
0
10
43.005165
20
150.305323
30
0.0
40
3.5
1

3

2
DESC:Profilo sottosoglia
70
0
0
ATTDEF
8
0
10
43.005165
20
150.305323
30
0.0
40
3.5
1

3

2
DENS:0.670000
70
0
0
ATTDEF
8
0
10
43.005165
20
150.305323
30
0.0
40
3.5
1

3

2
TDEV:0.000000
70
0
0
ATTDEF
8
0
10
43.005165
20
150.305323
30
0.0
40
3.5
1

3

2
TDEV2:0.000000
70
0
0
ATTDEF
8
0
10
43.005165
20
150.305323
30
0.0
40
3.5
1

3

2
TDEV3:0.000000
70
0
0
ATTDEF
8
0
10
43.005165
20
150.305323
30
0.0
40
3.5
1

3

2
TDEV4:0.000000
70
0
0
ATTDEF
8
0
10
43.005165
20
150.305323
30
0.0
40
3.5
1

3

2
TDEV5:0.000000
70
0
0
ATTDEF
8
0
10
43.005165
20
150.305323
30
0.0
40
3.5
1

3

2
FRONT_VIEW
70
0
0
ATTDEF
8
0
10
43.005165
20
150.305323
30
0.0
40
3.5
1

3

2
BL01:6800.000000,,1
70
0
0
ATTDEF
8
0
10
43.005165
20
150.305323
30
0.0
40
3.5
1

3

2
OPTI:500.000000,1,0,3000.000000,6500.000000,500.000000,0,0.000000,0
70
0
0
ATTDEF
8
0
10
43.005165
20
150.305323
30
0.0
40
3.5
1

3

2
PANE_WIDTH:0.000000
70
0
0
ATTDEF
8
0
10
43.005165
20
150.305323
30
0.0
40
3.5
1

3

2
GLASS_MIN:0.000000
70
0
0
ATTDEF
8
0
10
43.005165
20
150.305323
30
0.0
40
3.5
1

3

2
GLASS_MAX:0.000000
70
0
0
ATTDEF
8
0
10
43.005165
20
150.305323
30
0.0
40
3.5
1

3

2
JX:0.000000
70
0
0
ATTDEF
8
0
10
43.005165
20
150.305323
30
0.0
40
3.5
1

3

2
WX:0.000000
70
0
0
ATTDEF
8
0
10
43.005165
20
150.305323
30
0.0
40
3.5
1

3

2
JY:0.000000
70
0
0
ATTDEF
8
0
10
43.005165
20
150.305323
30
0.0
40
3.5
1

3

2
WY:0.000000
70
0
0
ATTDEF
8
0
10
43.005165
20
150.305323
30
0.0
40
3.5
1

3

2
FP_LCS_ORIG
70
0
0
ATTDEF
8
0
10
53.005165
20
150.305323
30
0.0
40
3.5
1

3

2
FP_LCS_HOT
70
0
0
ATTDEF
8
0
10
43.005165
20
160.305323
30
0.0
40
3.5
1

3

2
FP_LCS_INTERN
70
0
0
ENDSEC
0
EOF
