0
SECTION
2
ENTITIES
0
LINE
8
0
10
90.959100
20
126.008362
30
0.0
11
90.959100
21
153.408362
31
0.0
0
ARC
8
0
10
91.259100
20
153.408362
30
0.0
40
0.300000
50
90.000000
51
180.000000
0
LINE
8
0
10
91.259100
20
153.708362
30
0.0
11
113.359100
21
153.708362
31
0.0
0
ARC
8
0
10
113.359100
20
153.408362
30
0.0
40
0.300000
50
360.000000
51
90.000000
0
LINE
8
0
10
113.659100
20
153.408362
30
0.0
11
113.659100
21
126.008362
31
0.0
0
ARC
8
0
10
113.359100
20
126.008362
30
0.0
40
0.300000
50
270.000000
51
360.000000
0
LINE
8
0
10
113.359100
20
125.708362
30
0.0
11
91.259100
21
125.708362
31
0.0
0
ARC
8
0
10
91.259100
20
126.008362
30
0.0
40
0.300000
50
180.000000
51
270.000000
0
LINE
8
0
10
147.059100
20
129.334602
30
0.0
11
148.589485
21
130.268170
31
0.0
0
ARC
8
0
10
148.739485
20
130.008362
30
0.0
40
0.300000
50
90.000000
51
120.000000
0
LINE
8
0
10
148.739485
20
130.308362
30
0.0
11
148.959100
21
130.308362
31
0.0
0
ARC
8
0
10
148.959100
20
130.008362
30
0.0
40
0.300000
50
360.000000
51
90.000000
0
LINE
8
0
10
149.259100
20
130.008362
30
0.0
11
149.259100
21
125.974048
31
0.0
0
ARC
8
0
10
149.159100
20
125.691205
30
0.0
40
0.300000
50
272.471221
51
70.528779
0
LINE
8
0
10
149.172036
20
125.391484
30
0.0
11
148.885144
21
125.479196
31
0.0
0
LINE
8
0
10
148.885144
20
125.479196
30
0.0
11
147.013237
21
126.648893
31
0.0
0
LINE
8
0
10
147.013237
20
126.648893
30
0.0
11
147.023312
21
126.937392
31
0.0
0
ARC
8
0
10
146.823433
20
126.944372
30
0.0
40
0.200000
50
360.000000
51
118.000000
0
LINE
8
0
10
146.729539
20
127.120962
30
0.0
11
146.449506
21
126.972065
31
0.0
0
ARC
8
0
10
146.825083
20
126.265707
30
0.0
40
0.800000
50
118.000000
51
163.000000
0
LINE
8
0
10
146.060039
20
126.499605
30
0.0
11
145.474883
21
124.585645
31
0.0
0
ARC
8
0
10
145.761775
20
124.497934
30
0.0
40
0.300000
50
163.000000
51
270.000000
0
LINE
8
0
10
145.761775
20
124.197934
30
0.0
11
147.311607
21
124.197934
31
0.0
0
ARC
8
0
10
147.311607
20
124.397934
30
0.0
40
0.200000
50
270.000000
51
330.769063
0
ARC
8
0
10
147.747936
20
124.153768
30
0.0
40
0.300000
50
73.000000
51
150.769063
0
LINE
8
0
10
147.835648
20
124.440660
30
0.0
11
148.880121
21
124.121332
31
0.0
0
LINE
8
0
10
148.880121
20
124.121332
30
0.0
11
148.967832
21
124.108224
31
0.0
0
LINE
8
0
10
148.967832
20
124.108224
30
0.0
11
153.959849
21
124.108224
31
0.0
0
ARC
8
0
10
153.959849
20
123.808224
30
0.0
40
0.300000
50
360.000000
51
90.000000
0
LINE
8
0
10
154.259849
20
123.808240
30
0.0
11
154.259849
21
119.411205
31
0.0
0
ARC
8
0
10
154.559849
20
119.411205
30
0.0
40
0.300000
50
180.000000
51
270.000000
0
LINE
8
0
10
154.559849
20
119.111205
30
0.0
11
155.459849
21
119.111205
31
0.0
0
ARC
8
0
10
155.459849
20
119.411205
30
0.0
40
0.300000
50
270.000000
51
360.000000
0
LINE
8
0
10
155.759849
20
119.411205
30
0.0
11
155.759849
21
123.808362
31
0.0
0
ARC
8
0
10
156.059849
20
123.808362
30
0.0
40
0.300000
50
90.000000
51
180.000000
0
LINE
8
0
10
156.059849
20
124.108362
30
0.0
11
161.059358
21
124.108362
31
0.0
0
ARC
8
0
10
161.059358
20
124.408362
30
0.0
40
0.300000
50
270.000000
51
360.000000
0
LINE
8
0
10
161.359358
20
124.408362
30
0.0
11
161.359358
21
148.508390
31
0.0
0
ARC
8
0
10
161.059358
20
148.508390
30
0.0
40
0.300000
50
360.000000
51
90.000000
0
LINE
8
0
10
161.059358
20
148.808390
30
0.0
11
157.809100
21
148.808390
31
0.0
0
ARC
8
0
10
157.809100
20
149.108390
30
0.0
40
0.300000
50
180.000000
51
270.000000
0
LINE
8
0
10
157.509100
20
149.108390
30
0.0
11
157.509100
21
159.808390
31
0.0
0
LINE
8
0
10
157.509100
20
159.808390
30
0.0
11
156.209100
21
159.808390
31
0.0
0
ARC
8
0
10
156.209100
20
159.508390
30
0.0
40
0.300000
50
90.000000
51
180.000000
0
LINE
8
0
10
155.909100
20
159.508390
30
0.0
11
155.909100
21
155.608390
31
0.0
0
ARC
8
0
10
155.609100
20
155.608390
30
0.0
40
0.300000
50
270.000000
51
360.000000
0
LINE
8
0
10
155.609100
20
155.308390
30
0.0
11
148.967386
21
155.308365
31
0.0
0
LINE
8
0
10
148.967386
20
155.308365
30
0.0
11
148.879675
21
155.295256
31
0.0
0
LINE
8
0
10
148.879675
20
155.295256
30
0.0
11
147.835648
21
154.976065
31
0.0
0
ARC
8
0
10
147.747936
20
155.262957
30
0.0
40
0.300000
50
209.230937
51
287.000000
0
ARC
8
0
10
147.311607
20
155.018791
30
0.0
40
0.200000
50
29.230937
51
90.000000
0
LINE
8
0
10
147.311607
20
155.218791
30
0.0
11
145.761775
21
155.218791
31
0.0
0
ARC
8
0
10
145.761775
20
154.918791
30
0.0
40
0.300000
50
90.000000
51
197.000000
0
LINE
8
0
10
145.474883
20
154.831080
30
0.0
11
146.060039
21
152.917120
31
0.0
0
ARC
8
0
10
146.825083
20
153.151017
30
0.0
40
0.800000
50
197.000000
51
242.000000
0
LINE
8
0
10
146.449506
20
152.444659
30
0.0
11
146.729539
21
152.295763
31
0.0
0
ARC
8
0
10
146.823433
20
152.472353
30
0.0
40
0.200000
50
242.000000
51
360.000000
0
LINE
8
0
10
147.023312
20
152.479332
30
0.0
11
147.013237
21
152.767832
31
0.0
0
LINE
8
0
10
147.013237
20
152.767832
30
0.0
11
148.885144
21
153.937529
31
0.0
0
LINE
8
0
10
148.885144
20
153.937529
30
0.0
11
149.172036
21
154.025241
31
0.0
0
ARC
8
0
10
149.159100
20
153.725520
30
0.0
40
0.300000
50
289.471221
51
87.528779
0
LINE
8
0
10
149.259100
20
153.442677
30
0.0
11
149.259100
21
149.408362
31
0.0
0
ARC
8
0
10
148.959100
20
149.408362
30
0.0
40
0.300000
50
270.000000
51
360.000000
0
LINE
8
0
10
148.959100
20
149.108362
30
0.0
11
148.739485
21
149.108362
31
0.0
0
ARC
8
0
10
148.739485
20
149.408362
30
0.0
40
0.300000
50
240.000000
51
270.000000
0
LINE
8
0
10
148.589485
20
149.148555
30
0.0
11
147.059100
21
150.032123
31
0.0
0
ARC
8
0
10
146.959100
20
149.858918
30
0.0
40
0.200000
50
60.000000
51
180.000000
0
LINE
8
0
10
146.759100
20
149.858918
30
0.0
11
146.759100
21
147.908376
31
0.0
0
ARC
8
0
10
146.459100
20
147.908376
30
0.0
40
0.300000
50
270.000000
51
360.000000
0
LINE
8
0
10
146.459100
20
147.608376
30
0.0
11
145.059100
21
147.608376
31
0.0
0
ARC
8
0
10
145.059100
20
147.308376
30
0.0
40
0.300000
50
90.000000
51
180.000000
0
LINE
8
0
10
144.759100
20
147.308376
30
0.0
11
144.759100
21
146.408376
31
0.0
0
ARC
8
0
10
145.059100
20
146.408376
30
0.0
40
0.300000
50
180.000000
51
270.000000
0
LINE
8
0
10
145.059100
20
146.108376
30
0.0
11
148.959369
21
146.108376
31
0.0
0
ARC
8
0
10
148.955712
20
145.805006
30
0.0
40
0.303392
50
360.000000
51
90.000000
0
LINE
8
0
10
149.259100
20
145.806409
30
0.0
11
149.259100
21
133.310584
31
0.0
0
ARC
8
0
10
148.259100
20
133.310584
30
0.0
40
1.000000
50
299.999999
51
360.000000
0
LINE
8
0
10
148.759100
20
132.444558
30
0.0
11
147.259100
21
131.578533
31
0.0
0
ARC
8
0
10
147.759100
20
130.712508
30
0.0
40
1.000000
50
119.999999
51
180.000000
0
LINE
8
0
10
146.759100
20
130.712508
30
0.0
11
146.759100
21
129.507807
31
0.0
0
ARC
8
0
10
146.959100
20
129.507807
30
0.0
40
0.200000
50
180.000000
51
300.000000
0
ARC
8
0
10
155.609100
20
153.408372
30
0.0
40
0.300000
50
360.000000
51
90.000000
0
LINE
8
0
10
155.909100
20
153.408372
30
0.0
11
155.909100
21
147.608390
31
0.0
0
ARC
8
0
10
156.209100
20
147.608390
30
0.0
40
0.300000
50
180.000000
51
270.000000
0
LINE
8
0
10
156.209100
20
147.308390
30
0.0
11
159.759358
21
147.308390
31
0.0
0
ARC
8
0
10
159.759358
20
147.008390
30
0.0
40
0.300000
50
360.000000
51
90.000000
0
LINE
8
0
10
160.059358
20
147.008390
30
0.0
11
160.059358
21
125.908362
31
0.0
0
ARC
8
0
10
159.759358
20
125.908362
30
0.0
40
0.300000
50
270.000000
51
360.000000
0
LINE
8
0
10
159.759358
20
125.608362
30
0.0
11
151.059849
21
125.608362
31
0.0
0
ARC
8
0
10
151.059849
20
125.908362
30
0.0
40
0.300000
50
180.000000
51
270.000000
0
LINE
8
0
10
150.759849
20
125.908362
30
0.0
11
150.759849
21
153.408372
31
0.0
0
ARC
8
0
10
151.059849
20
153.408372
30
0.0
40
0.300000
50
90.000000
51
180.000000
0
LINE
8
0
10
151.059849
20
153.708372
30
0.0
11
155.609100
21
153.708372
31
0.0
0
ARC
8
0
10
143.528707
20
153.908362
30
0.0
40
1.000000
50
35.000000
51
90.000000
0
LINE
8
0
10
143.528707
20
154.908362
30
0.0
11
120.989626
21
154.908362
31
0.0
0
ARC
8
0
10
120.989626
20
153.908362
30
0.0
40
1.000000
50
90.000000
51
145.000000
0
LINE
8
0
10
120.170474
20
154.481939
30
0.0
11
118.832822
21
152.571574
31
0.0
0
ARC
8
0
10
118.423246
20
152.858362
30
0.0
40
0.500000
50
270.000000
51
325.000000
0
LINE
8
0
10
118.423246
20
152.358362
30
0.0
11
117.833267
21
152.358362
31
0.0
0
ARC
8
0
10
117.833267
20
153.358362
30
0.0
40
1.000000
50
240.000000
51
270.000000
0
LINE
8
0
10
117.333267
20
152.492337
30
0.0
11
115.989485
21
153.268170
31
0.0
0
ARC
8
0
10
115.839485
20
153.008362
30
0.0
40
0.300000
50
60.000000
51
90.000000
0
LINE
8
0
10
115.839485
20
153.308362
30
0.0
11
115.659100
21
153.308362
31
0.0
0
ARC
8
0
10
115.659100
20
152.908362
30
0.0
40
0.400000
50
90.000000
51
180.000000
0
LINE
8
0
10
115.259100
20
152.908362
30
0.0
11
115.259100
21
152.308362
31
0.0
0
LINE
8
0
10
115.259100
20
152.308362
30
0.0
11
115.359100
21
152.308362
31
0.0
0
LINE
8
0
10
115.359100
20
152.308362
30
0.0
11
115.359100
21
151.933362
31
0.0
0
ARC
8
0
10
115.559100
20
151.933362
30
0.0
40
0.200000
50
180.000000
51
270.000000
0
LINE
8
0
10
115.559100
20
151.733362
30
0.0
11
115.682183
21
151.733362
31
0.0
0
LINE
8
0
10
115.682183
20
151.733362
30
0.0
11
115.747566
21
151.748362
31
0.0
0
ARC
8
0
10
116.009100
20
151.208362
30
0.0
40
0.600000
50
360.000000
51
115.841933
0
ARC
8
0
10
116.009100
20
151.208362
30
0.0
40
0.600000
50
244.158067
51
360.000000
0
LINE
8
0
10
115.747566
20
150.668362
30
0.0
11
115.682183
21
150.683362
31
0.0
0
LINE
8
0
10
115.682183
20
150.683362
30
0.0
11
115.559100
21
150.683362
31
0.0
0
ARC
8
0
10
115.559100
20
150.483362
30
0.0
40
0.200000
50
90.000000
51
180.000000
0
LINE
8
0
10
115.359100
20
150.483362
30
0.0
11
115.359100
21
150.108362
31
0.0
0
LINE
8
0
10
115.359100
20
150.108362
30
0.0
11
115.259100
21
150.108362
31
0.0
0
LINE
8
0
10
115.259100
20
150.108362
30
0.0
11
115.259100
21
149.508362
31
0.0
0
ARC
8
0
10
115.659100
20
149.508362
30
0.0
40
0.400000
50
180.000000
51
270.000000
0
LINE
8
0
10
115.659100
20
149.108362
30
0.0
11
115.839485
21
149.108362
31
0.0
0
ARC
8
0
10
115.839485
20
149.408362
30
0.0
40
0.300000
50
270.000000
51
300.000000
0
LINE
8
0
10
115.989485
20
149.148555
30
0.0
11
117.333267
21
149.924388
31
0.0
0
ARC
8
0
10
117.833267
20
149.058362
30
0.0
40
1.000000
50
90.000000
51
120.000000
0
LINE
8
0
10
117.833267
20
150.058362
30
0.0
11
119.464380
21
150.058362
31
0.0
0
ARC
8
0
10
119.464380
20
150.858362
30
0.0
40
0.800000
50
270.000000
51
325.000000
0
LINE
8
0
10
120.119702
20
150.399501
30
0.0
11
121.419297
21
152.255515
31
0.0
0
ARC
8
0
10
123.057601
20
151.108362
30
0.0
40
2.000000
50
90.000000
51
145.000000
0
LINE
8
0
10
123.057601
20
153.108362
30
0.0
11
141.460732
21
153.108362
31
0.0
0
ARC
8
0
10
141.460732
20
151.108362
30
0.0
40
2.000000
50
35.000000
51
90.000000
0
LINE
8
0
10
143.099036
20
152.255515
30
0.0
11
144.398631
21
150.399501
31
0.0
0
ARC
8
0
10
145.053953
20
150.858362
30
0.0
40
0.800000
50
215.000000
51
270.000000
0
LINE
8
0
10
145.053953
20
150.058362
30
0.0
11
146.685066
21
150.058362
31
0.0
0
ARC
8
0
10
146.685066
20
149.058362
30
0.0
40
1.000000
50
60.000000
51
90.000000
0
LINE
8
0
10
147.185066
20
149.924388
30
0.0
11
148.528848
21
149.148555
31
0.0
0
ARC
8
0
10
148.678848
20
149.408362
30
0.0
40
0.300000
50
240.000000
51
270.000000
0
LINE
8
0
10
148.678848
20
149.108362
30
0.0
11
148.859233
21
149.108362
31
0.0
0
ARC
8
0
10
148.859233
20
149.508362
30
0.0
40
0.400000
50
270.000000
51
360.000000
0
LINE
8
0
10
149.259233
20
149.508362
30
0.0
11
149.259233
21
150.108362
31
0.0
0
LINE
8
0
10
149.259233
20
150.108362
30
0.0
11
149.159233
21
150.108362
31
0.0
0
LINE
8
0
10
149.159233
20
150.108362
30
0.0
11
149.159233
21
150.483362
31
0.0
0
ARC
8
0
10
148.959233
20
150.483362
30
0.0
40
0.200000
50
360.000000
51
90.000000
0
LINE
8
0
10
148.959233
20
150.683362
30
0.0
11
148.836150
21
150.683362
31
0.0
0
LINE
8
0
10
148.836150
20
150.683362
30
0.0
11
148.770767
21
150.668362
31
0.0
0
ARC
8
0
10
148.509233
20
151.208362
30
0.0
40
0.600000
50
180.000000
51
295.841933
0
ARC
8
0
10
148.509233
20
151.208362
30
0.0
40
0.600000
50
64.158067
51
180.000000
0
LINE
8
0
10
148.770767
20
151.748362
30
0.0
11
148.836150
21
151.733362
31
0.0
0
LINE
8
0
10
148.836150
20
151.733362
30
0.0
11
148.959233
21
151.733362
31
0.0
0
ARC
8
0
10
148.959233
20
151.933362
30
0.0
40
0.200000
50
270.000000
51
360.000000
0
LINE
8
0
10
149.159233
20
151.933362
30
0.0
11
149.159233
21
152.308362
31
0.0
0
LINE
8
0
10
149.159233
20
152.308362
30
0.0
11
149.259233
21
152.308362
31
0.0
0
LINE
8
0
10
149.259233
20
152.308362
30
0.0
11
149.259233
21
152.908362
31
0.0
0
ARC
8
0
10
148.859233
20
152.908362
30
0.0
40
0.400000
50
360.000000
51
90.000000
0
LINE
8
0
10
148.859233
20
153.308362
30
0.0
11
148.678848
21
153.308362
31
0.0
0
ARC
8
0
10
148.678848
20
153.008362
30
0.0
40
0.300000
50
90.000000
51
120.000000
0
LINE
8
0
10
148.528848
20
153.268170
30
0.0
11
147.185066
21
152.492337
31
0.0
0
ARC
8
0
10
146.685066
20
153.358362
30
0.0
40
1.000000
50
270.000000
51
300.000000
0
LINE
8
0
10
146.685066
20
152.358362
30
0.0
11
146.095087
21
152.358362
31
0.0
0
ARC
8
0
10
146.095087
20
152.858362
30
0.0
40
0.500000
50
215.000000
51
270.000000
0
LINE
8
0
10
145.685511
20
152.571574
30
0.0
11
144.347859
21
154.481939
31
0.0
0
ARC
8
0
10
143.528707
20
125.473392
30
0.0
40
1.000000
50
270.000000
51
325.000000
0
LINE
8
0
10
143.528707
20
124.473392
30
0.0
11
120.989626
21
124.473392
31
0.0
0
ARC
8
0
10
120.989626
20
125.473392
30
0.0
40
1.000000
50
215.000000
51
270.000000
0
LINE
8
0
10
120.170474
20
124.899815
30
0.0
11
118.832822
21
126.810180
31
0.0
0
ARC
8
0
10
118.423246
20
126.523392
30
0.0
40
0.500000
50
35.000000
51
90.000000
0
LINE
8
0
10
118.423246
20
127.023392
30
0.0
11
117.833267
21
127.023392
31
0.0
0
ARC
8
0
10
117.833267
20
126.023392
30
0.0
40
1.000000
50
90.000000
51
120.000000
0
LINE
8
0
10
117.333267
20
126.889417
30
0.0
11
115.989485
21
126.113584
31
0.0
0
ARC
8
0
10
115.839485
20
126.373392
30
0.0
40
0.300000
50
270.000000
51
300.000000
0
LINE
8
0
10
115.839485
20
126.073392
30
0.0
11
115.659100
21
126.073392
31
0.0
0
ARC
8
0
10
115.659100
20
126.473392
30
0.0
40
0.400000
50
180.000000
51
270.000000
0
LINE
8
0
10
115.259100
20
126.473392
30
0.0
11
115.259100
21
127.073392
31
0.0
0
LINE
8
0
10
115.259100
20
127.073392
30
0.0
11
115.359100
21
127.073392
31
0.0
0
LINE
8
0
10
115.359100
20
127.073392
30
0.0
11
115.359100
21
127.448392
31
0.0
0
ARC
8
0
10
115.559100
20
127.448392
30
0.0
40
0.200000
50
90.000000
51
180.000000
0
LINE
8
0
10
115.559100
20
127.648392
30
0.0
11
115.682183
21
127.648392
31
0.0
0
LINE
8
0
10
115.747566
20
127.633392
30
0.0
11
115.682183
21
127.648392
31
0.0
0
ARC
8
0
10
116.009100
20
128.173392
30
0.0
40
0.600000
50
244.158067
51
360.000000
0
ARC
8
0
10
116.009100
20
128.173392
30
0.0
40
0.600000
50
360.000000
51
115.841933
0
LINE
8
0
10
115.682183
20
128.698392
30
0.0
11
115.747566
21
128.713392
31
0.0
0
LINE
8
0
10
115.682183
20
128.698392
30
0.0
11
115.559100
21
128.698392
31
0.0
0
ARC
8
0
10
115.559100
20
128.898392
30
0.0
40
0.200000
50
180.000000
51
270.000000
0
LINE
8
0
10
115.359100
20
128.898392
30
0.0
11
115.359100
21
129.273392
31
0.0
0
LINE
8
0
10
115.359100
20
129.273392
30
0.0
11
115.259100
21
129.273392
31
0.0
0
LINE
8
0
10
115.259100
20
129.273392
30
0.0
11
115.259100
21
129.873392
31
0.0
0
ARC
8
0
10
115.659100
20
129.873392
30
0.0
40
0.400000
50
90.000000
51
180.000000
0
LINE
8
0
10
115.659100
20
130.273392
30
0.0
11
115.839485
21
130.273392
31
0.0
0
ARC
8
0
10
115.839485
20
129.973392
30
0.0
40
0.300000
50
60.000000
51
90.000000
0
LINE
8
0
10
115.989485
20
130.233199
30
0.0
11
117.333267
21
129.457366
31
0.0
0
ARC
8
0
10
117.833267
20
130.323392
30
0.0
40
1.000000
50
240.000000
51
270.000000
0
LINE
8
0
10
117.833267
20
129.323392
30
0.0
11
119.464380
21
129.323392
31
0.0
0
ARC
8
0
10
119.464380
20
128.523392
30
0.0
40
0.800000
50
35.000000
51
90.000000
0
LINE
8
0
10
120.119702
20
128.982253
30
0.0
11
121.419297
21
127.126239
31
0.0
0
ARC
8
0
10
123.057601
20
128.273392
30
0.0
40
2.000000
50
215.000000
51
270.000000
0
LINE
8
0
10
123.057601
20
126.273392
30
0.0
11
141.460732
21
126.273392
31
0.0
0
ARC
8
0
10
141.460732
20
128.273392
30
0.0
40
2.000000
50
270.000000
51
325.000000
0
LINE
8
0
10
143.099036
20
127.126239
30
0.0
11
144.398631
21
128.982253
31
0.0
0
ARC
8
0
10
145.053953
20
128.523392
30
0.0
40
0.800000
50
90.000000
51
145.000000
0
LINE
8
0
10
145.053953
20
129.323392
30
0.0
11
146.685066
21
129.323392
31
0.0
0
ARC
8
0
10
146.685066
20
130.323392
30
0.0
40
1.000000
50
270.000000
51
300.000000
0
LINE
8
0
10
147.185066
20
129.457366
30
0.0
11
148.528848
21
130.233199
31
0.0
0
ARC
8
0
10
148.678848
20
129.973392
30
0.0
40
0.300000
50
90.000000
51
120.000000
0
LINE
8
0
10
148.678848
20
130.273392
30
0.0
11
148.859233
21
130.273392
31
0.0
0
ARC
8
0
10
148.859233
20
129.873392
30
0.0
40
0.400000
50
360.000000
51
90.000000
0
LINE
8
0
10
149.259233
20
129.873392
30
0.0
11
149.259233
21
129.273392
31
0.0
0
LINE
8
0
10
149.259233
20
129.273392
30
0.0
11
149.159233
21
129.273392
31
0.0
0
LINE
8
0
10
149.159233
20
129.273392
30
0.0
11
149.159233
21
128.898392
31
0.0
0
ARC
8
0
10
148.959233
20
128.898392
30
0.0
40
0.200000
50
270.000000
51
360.000000
0
LINE
8
0
10
148.959233
20
128.698392
30
0.0
11
148.836150
21
128.698392
31
0.0
0
LINE
8
0
10
148.770767
20
128.713392
30
0.0
11
148.836150
21
128.698392
31
0.0
0
ARC
8
0
10
148.509233
20
128.173392
30
0.0
40
0.600000
50
64.158067
51
180.000000
0
ARC
8
0
10
148.509233
20
128.173392
30
0.0
40
0.600000
50
180.000000
51
295.841933
0
LINE
8
0
10
148.836150
20
127.648392
30
0.0
11
148.770767
21
127.633392
31
0.0
0
LINE
8
0
10
148.836150
20
127.648392
30
0.0
11
148.959233
21
127.648392
31
0.0
0
ARC
8
0
10
148.959233
20
127.448392
30
0.0
40
0.200000
50
360.000000
51
90.000000
0
LINE
8
0
10
149.159233
20
127.448392
30
0.0
11
149.159233
21
127.073392
31
0.0
0
LINE
8
0
10
149.159233
20
127.073392
30
0.0
11
149.259233
21
127.073392
31
0.0
0
LINE
8
0
10
149.259233
20
127.073392
30
0.0
11
149.259233
21
126.473392
31
0.0
0
ARC
8
0
10
148.859233
20
126.473392
30
0.0
40
0.400000
50
270.000000
51
360.000000
0
LINE
8
0
10
148.859233
20
126.073392
30
0.0
11
148.678848
21
126.073392
31
0.0
0
ARC
8
0
10
148.678848
20
126.373392
30
0.0
40
0.300000
50
240.000000
51
270.000000
0
LINE
8
0
10
148.528848
20
126.113584
30
0.0
11
147.185066
21
126.889417
31
0.0
0
ARC
8
0
10
146.685066
20
126.023392
30
0.0
40
1.000000
50
60.000000
51
90.000000
0
LINE
8
0
10
146.685066
20
127.023392
30
0.0
11
146.095087
21
127.023392
31
0.0
0
ARC
8
0
10
146.095087
20
126.523392
30
0.0
40
0.500000
50
90.000000
51
145.000000
0
LINE
8
0
10
145.685511
20
126.810180
30
0.0
11
144.347859
21
124.899815
31
0.0
0
LINE
8
0
10
115.759100
20
132.444558
30
0.0
11
117.259100
21
131.578533
31
0.0
0
ARC
8
0
10
116.759100
20
130.712508
30
0.0
40
1.000000
50
360.000000
51
60.000000
0
LINE
8
0
10
117.759100
20
130.712508
30
0.0
11
117.759100
21
129.557807
31
0.0
0
ARC
8
0
10
117.559100
20
129.557807
30
0.0
40
0.200000
50
240.000000
51
360.000000
0
LINE
8
0
10
117.459100
20
129.384602
30
0.0
11
115.928716
21
130.268170
31
0.0
0
ARC
8
0
10
115.778716
20
130.008362
30
0.0
40
0.300000
50
60.000000
51
90.000000
0
LINE
8
0
10
115.778716
20
130.308362
30
0.0
11
115.559100
21
130.308362
31
0.0
0
ARC
8
0
10
115.559100
20
130.008362
30
0.0
40
0.300000
50
90.000000
51
180.000000
0
LINE
8
0
10
115.259100
20
130.008362
30
0.0
11
115.259100
21
125.974048
31
0.0
0
ARC
8
0
10
115.359100
20
125.691205
30
0.0
40
0.300000
50
109.471221
51
267.528779
0
LINE
8
0
10
115.346165
20
125.391484
30
0.0
11
115.633056
21
125.479196
31
0.0
0
LINE
8
0
10
115.633056
20
125.479196
30
0.0
11
117.504964
21
126.648893
31
0.0
0
LINE
8
0
10
117.504964
20
126.648893
30
0.0
11
117.494889
21
126.937392
31
0.0
0
ARC
8
0
10
117.694767
20
126.944372
30
0.0
40
0.200000
50
62.000000
51
180.000000
0
LINE
8
0
10
117.788662
20
127.120962
30
0.0
11
118.068695
21
126.972065
31
0.0
0
ARC
8
0
10
117.693118
20
126.265707
30
0.0
40
0.800000
50
17.000000
51
62.000000
0
LINE
8
0
10
118.458161
20
126.499605
30
0.0
11
119.043318
21
124.585645
31
0.0
0
ARC
8
0
10
118.756426
20
124.497934
30
0.0
40
0.300000
50
270.000000
51
17.000000
0
LINE
8
0
10
118.756426
20
124.197934
30
0.0
11
117.206594
21
124.197934
31
0.0
0
ARC
8
0
10
117.206594
20
124.397934
30
0.0
40
0.200000
50
209.230937
51
270.000000
0
ARC
8
0
10
116.770265
20
124.153768
30
0.0
40
0.300000
50
29.230937
51
107.000000
0
LINE
8
0
10
116.682553
20
124.440660
30
0.0
11
115.638534
21
124.121471
31
0.0
0
LINE
8
0
10
115.550822
20
124.108362
30
0.0
11
115.638534
21
124.121471
31
0.0
0
LINE
8
0
10
115.550822
20
124.108362
30
0.0
11
95.059100
21
124.108362
31
0.0
0
ARC
8
0
10
95.059100
20
123.808362
30
0.0
40
0.300000
50
90.000000
51
180.000000
0
LINE
8
0
10
94.759100
20
123.808362
30
0.0
11
94.759100
21
122.605547
31
0.0
0
ARC
8
0
10
94.459100
20
122.605547
30
0.0
40
0.300000
50
270.000000
51
360.000000
0
LINE
8
0
10
94.459100
20
122.305547
30
0.0
11
93.859100
21
122.305547
31
0.0
0
ARC
8
0
10
93.859100
20
122.605547
30
0.0
40
0.300000
50
180.000000
51
270.000000
0
LINE
8
0
10
93.559100
20
122.605547
30
0.0
11
93.559100
21
123.808362
31
0.0
0
ARC
8
0
10
93.259100
20
123.808362
30
0.0
40
0.300000
50
360.000000
51
90.000000
0
LINE
8
0
10
93.259100
20
124.108362
30
0.0
11
89.559100
21
124.108362
31
0.0
0
ARC
8
0
10
89.559100
20
124.408362
30
0.0
40
0.300000
50
180.000000
51
270.000000
0
LINE
8
0
10
89.259100
20
124.408362
30
0.0
11
89.259100
21
173.308362
31
0.0
0
ARC
8
0
10
89.759100
20
173.308362
30
0.0
40
0.500000
50
90.000000
51
180.000000
0
LINE
8
0
10
89.759100
20
173.808362
30
0.0
11
93.459100
21
173.808362
31
0.0
0
ARC
8
0
10
93.459100
20
173.508362
30
0.0
40
0.300000
50
360.000000
51
90.000000
0
LINE
8
0
10
93.759100
20
173.508362
30
0.0
11
93.759100
21
172.008362
31
0.0
0
ARC
8
0
10
93.059100
20
172.008362
30
0.0
40
0.700000
50
270.000000
51
360.000000
0
ARC
8
0
10
93.059100
20
171.608362
30
0.0
40
0.300000
50
180.000000
51
270.000000
0
LINE
8
0
10
92.759100
20
171.608362
30
0.0
11
92.759100
21
172.308362
31
0.0
0
ARC
8
0
10
92.459100
20
172.308362
30
0.0
40
0.300000
50
360.000000
51
90.000000
0
LINE
8
0
10
92.459100
20
172.608362
30
0.0
11
91.259100
21
172.608362
31
0.0
0
ARC
8
0
10
91.259100
20
171.908362
30
0.0
40
0.700000
50
90.000000
51
180.000000
0
LINE
8
0
10
90.559100
20
171.908362
30
0.0
11
90.559100
21
165.708362
31
0.0
0
ARC
8
0
10
91.259100
20
165.708362
30
0.0
40
0.700000
50
180.000000
51
270.000000
0
LINE
8
0
10
91.259100
20
165.008362
30
0.0
11
92.459100
21
165.008362
31
0.0
0
ARC
8
0
10
92.459100
20
165.308362
30
0.0
40
0.300000
50
270.000000
51
360.000000
0
LINE
8
0
10
92.759100
20
165.308362
30
0.0
11
92.759100
21
166.008362
31
0.0
0
ARC
8
0
10
93.059100
20
166.008362
30
0.0
40
0.300000
50
90.000000
51
180.000000
0
ARC
8
0
10
93.059100
20
165.608362
30
0.0
40
0.700000
50
360.000000
51
90.000000
0
LINE
8
0
10
93.759100
20
165.608362
30
0.0
11
93.759100
21
164.108362
31
0.0
0
ARC
8
0
10
93.459100
20
164.108362
30
0.0
40
0.300000
50
270.000000
51
360.000000
0
LINE
8
0
10
93.459100
20
163.808362
30
0.0
11
91.259100
21
163.808362
31
0.0
0
ARC
8
0
10
91.259100
20
163.508362
30
0.0
40
0.300000
50
90.000000
51
180.000000
0
LINE
8
0
10
90.959100
20
163.508362
30
0.0
11
90.959100
21
156.308362
31
0.0
0
ARC
8
0
10
91.959100
20
156.308362
30
0.0
40
1.000000
50
180.000000
51
270.000000
0
LINE
8
0
10
91.959100
20
155.308362
30
0.0
11
115.550822
21
155.308362
31
0.0
0
LINE
8
0
10
115.638534
20
155.295254
30
0.0
11
115.550822
21
155.308362
31
0.0
0
LINE
8
0
10
115.638534
20
155.295254
30
0.0
11
116.682553
21
154.976065
31
0.0
0
ARC
8
0
10
116.770265
20
155.262957
30
0.0
40
0.300000
50
253.000000
51
330.769063
0
ARC
8
0
10
117.206594
20
155.018791
30
0.0
40
0.200000
50
90.000000
51
150.769063
0
LINE
8
0
10
117.206594
20
155.218791
30
0.0
11
118.756426
21
155.218791
31
0.0
0
ARC
8
0
10
118.756426
20
154.918791
30
0.0
40
0.300000
50
343.000000
51
90.000000
0
LINE
8
0
10
119.043318
20
154.831080
30
0.0
11
118.458161
21
152.917120
31
0.0
0
ARC
8
0
10
117.693118
20
153.151017
30
0.0
40
0.800000
50
298.000000
51
343.000000
0
LINE
8
0
10
118.068695
20
152.444659
30
0.0
11
117.788662
21
152.295763
31
0.0
0
ARC
8
0
10
117.694767
20
152.472353
30
0.0
40
0.200000
50
180.000000
51
298.000000
0
LINE
8
0
10
117.494889
20
152.479332
30
0.0
11
117.504964
21
152.767832
31
0.0
0
LINE
8
0
10
117.504964
20
152.767832
30
0.0
11
115.633056
21
153.937529
31
0.0
0
LINE
8
0
10
115.633056
20
153.937529
30
0.0
11
115.346165
21
154.025241
31
0.0
0
ARC
8
0
10
115.359100
20
153.725520
30
0.0
40
0.300000
50
92.471221
51
250.528779
0
LINE
8
0
10
115.259100
20
153.442677
30
0.0
11
115.259100
21
149.408362
31
0.0
0
ARC
8
0
10
115.559100
20
149.408362
30
0.0
40
0.300000
50
180.000000
51
270.000000
0
LINE
8
0
10
115.559100
20
149.108362
30
0.0
11
115.778716
21
149.108362
31
0.0
0
ARC
8
0
10
115.778716
20
149.408362
30
0.0
40
0.300000
50
270.000000
51
300.000000
0
LINE
8
0
10
115.928716
20
149.148555
30
0.0
11
117.459100
21
150.032123
31
0.0
0
ARC
8
0
10
117.559100
20
149.858918
30
0.0
40
0.200000
50
360.000000
51
120.000000
0
LINE
8
0
10
117.759100
20
149.858918
30
0.0
11
117.759100
21
147.908376
31
0.0
0
ARC
8
0
10
118.059100
20
147.908376
30
0.0
40
0.300000
50
180.000000
51
270.000000
0
LINE
8
0
10
118.059100
20
147.608376
30
0.0
11
119.459100
21
147.608376
31
0.0
0
ARC
8
0
10
119.459100
20
147.308376
30
0.0
40
0.300000
50
360.000000
51
90.000000
0
LINE
8
0
10
119.759100
20
147.308376
30
0.0
11
119.759100
21
146.408376
31
0.0
0
ARC
8
0
10
119.459100
20
146.408376
30
0.0
40
0.300000
50
270.000000
51
360.000000
0
LINE
8
0
10
119.459100
20
146.108376
30
0.0
11
115.559100
21
146.108376
31
0.0
0
ARC
8
0
10
115.559100
20
145.808376
30
0.0
40
0.300000
50
90.000000
51
180.000000
0
LINE
8
0
10
115.259100
20
145.808376
30
0.0
11
115.259100
21
133.310584
31
0.0
0
ARC
8
0
10
116.259100
20
133.310584
30
0.0
40
1.000000
50
180.000000
51
240.000000
0
ATTDEF
8
0
10
89.259100
20
119.111205
30
0.0
40
3.5
1

3

2
DESC:Inversione di Battuta
70
0
0
ATTDEF
8
0
10
89.259100
20
119.111205
30
0.0
40
3.5
1

3

2
DENS:1.320000
70
0
0
ATTDEF
8
0
10
89.259100
20
119.111205
30
0.0
40
3.5
1

3

2
TDEV:0.000000
70
0
0
ATTDEF
8
0
10
89.259100
20
119.111205
30
0.0
40
3.5
1

3

2
TDEV2:0.000000
70
0
0
ATTDEF
8
0
10
89.259100
20
119.111205
30
0.0
40
3.5
1

3

2
TDEV3:0.000000
70
0
0
ATTDEF
8
0
10
89.259100
20
119.111205
30
0.0
40
3.5
1

3

2
TDEV4:0.000000
70
0
0
ATTDEF
8
0
10
89.259100
20
119.111205
30
0.0
40
3.5
1

3

2
TDEV5:0.000000
70
0
0
ATTDEF
8
0
10
89.259100
20
119.111205
30
0.0
40
3.5
1

3

2
FRONT_VIEW
70
0
0
ATTDEF
8
0
10
89.259100
20
119.111205
30
0.0
40
3.5
1

3

2
BL01:6800.000000,,1
70
0
0
ATTDEF
8
0
10
89.259100
20
119.111205
30
0.0
40
3.5
1

3

2
OPTI:500.000000,1,0,3000.000000,6500.000000,500.000000,0,0.000000,0
70
0
0
ATTDEF
8
0
10
89.259100
20
119.111205
30
0.0
40
3.5
1

3

2
PANE_WIDTH:0.000000
70
0
0
ATTDEF
8
0
10
89.259100
20
119.111205
30
0.0
40
3.5
1

3

2
GLASS_MIN:0.000000
70
0
0
ATTDEF
8
0
10
89.259100
20
119.111205
30
0.0
40
3.5
1

3

2
GLASS_MAX:0.000000
70
0
0
ATTDEF
8
0
10
89.259100
20
119.111205
30
0.0
40
3.5
1

3

2
JX:0.000000
70
0
0
ATTDEF
8
0
10
89.259100
20
119.111205
30
0.0
40
3.5
1

3

2
WX:0.000000
70
0
0
ATTDEF
8
0
10
89.259100
20
119.111205
30
0.0
40
3.5
1

3

2
JY:0.000000
70
0
0
ATTDEF
8
0
10
89.259100
20
119.111205
30
0.0
40
3.5
1

3

2
WY:0.000000
70
0
0
ATTDEF
8
0
10
91.959100
20
155.308362
30
0.0
40
3.5
1

3

2
VC_START
70
0
0
ATTDEF
8
0
10
95.059100
20
124.108362
30
0.0
40
3.5
1

3

2
VC_END
70
0
0
ATTDEF
8
0
10
161.359358
20
119.111205
30
0.0
40
3.5
1

3

2
FP_LCS_ORIG
70
0
0
ATTDEF
8
0
10
151.359358
20
119.111205
30
0.0
40
3.5
1

3

2
FP_LCS_HOT
70
0
0
ATTDEF
8
0
10
161.359358
20
129.111205
30
0.0
40
3.5
1

3

2
FP_LCS_INTERN
70
0
0
ENDSEC
0
EOF
