0
SECTION
2
ENTITIES
0
LINE
8
0
10
156.995317
20
67.687946
30
0.0
11
151.714581
21
67.687946
31
0.0
0
LINE
8
0
10
151.714581
20
67.687946
30
0.0
11
151.416155
21
67.387946
31
0.0
0
LINE
8
0
10
151.416155
20
67.387946
30
0.0
11
151.117730
21
67.687946
31
0.0
0
LINE
8
0
10
151.117730
20
67.687946
30
0.0
11
145.714581
21
67.687946
31
0.0
0
LINE
8
0
10
145.714581
20
67.687946
30
0.0
11
145.416155
21
67.387946
31
0.0
0
LINE
8
0
10
145.416155
20
67.387946
30
0.0
11
145.117730
21
67.687946
31
0.0
0
LINE
8
0
10
145.117730
20
67.687946
30
0.0
11
139.714581
21
67.687946
31
0.0
0
LINE
8
0
10
139.714581
20
67.687946
30
0.0
11
139.416155
21
67.387946
31
0.0
0
LINE
8
0
10
139.416155
20
67.387946
30
0.0
11
139.117730
21
67.687946
31
0.0
0
LINE
8
0
10
139.117730
20
67.687946
30
0.0
11
134.416155
21
67.687946
31
0.0
0
ARC
8
0
10
134.416155
20
66.687946
30
0.0
40
1.000000
50
90.000000
51
180.000000
0
LINE
8
0
10
133.416155
20
66.687946
30
0.0
11
133.416155
21
65.687946
31
0.0
0
LINE
8
0
10
133.416155
20
65.687946
30
0.0
11
158.966155
21
65.687946
31
0.0
0
LINE
8
0
10
158.966155
20
65.687946
30
0.0
11
160.819709
21
67.541499
31
0.0
0
ARC
8
0
10
161.173262
20
67.187946
30
0.0
40
0.500000
50
90.000000
51
135.000000
0
LINE
8
0
10
161.173262
20
67.687946
30
0.0
11
164.649048
21
67.687946
31
0.0
0
ARC
8
0
10
164.649048
20
67.187946
30
0.0
40
0.500000
50
45.000000
51
90.000000
0
LINE
8
0
10
165.002602
20
67.541499
30
0.0
11
166.856155
21
65.687946
31
0.0
0
LINE
8
0
10
166.856155
20
65.687946
30
0.0
11
169.412779
21
65.687946
31
0.0
0
LINE
8
0
10
169.412779
20
65.687946
30
0.0
11
169.412779
21
66.480839
31
0.0
0
ARC
8
0
10
168.912779
20
66.480839
30
0.0
40
0.500000
50
0.000000
51
45.000000
0
LINE
8
0
10
169.266333
20
66.834392
30
0.0
11
166.498566
21
69.602159
31
0.0
0
ARC
8
0
10
165.084352
20
68.187946
30
0.0
40
2.000000
50
45.000000
51
90.000000
0
LINE
8
0
10
165.084352
20
70.187946
30
0.0
11
160.737958
21
70.187946
31
0.0
0
ARC
8
0
10
160.737958
20
68.187946
30
0.0
40
2.000000
50
90.000000
51
135.000000
0
LINE
8
0
10
159.323744
20
69.602159
30
0.0
11
157.702424
21
67.980839
31
0.0
0
ARC
8
0
10
156.995317
20
68.687946
30
0.0
40
1.000000
50
270.000000
51
315.000000
0
ATTDEF
8
0
10
160.737958
20
70.187946
30
0.0
40
3.5
1

3

2
VC_START
70
0
0
ATTDEF
8
0
10
133.416155
20
65.687946
30
0.0
40
3.5
1

3

2
VC_END
70
0
0
ATTDEF
8
0
10
133.416155
20
65.687946
30
0.0
40
3.5
1

3

2
FRONT_VIEW
70
0
0
ATTDEF
8
0
10
133.416155
20
65.687946
30
0.0
40
3.5
1

3

2
OPTI:500.000000,1,0,3000.000000,6800.000000,500.000000,0,0.000000
70
0
0
ATTDEF
8
0
10
169.412779
20
65.687946
30
0.0
40
3.5
1

3

2
FP_LCS_ORIG
70
0
0
ATTDEF
8
0
10
159.412779
20
65.687946
30
0.0
40
3.5
1

3

2
FP_LCS_HOT
70
0
0
ATTDEF
8
0
10
169.412779
20
75.687946
30
0.0
40
3.5
1

3

2
FP_LCS_INTERN
70
0
0
ATTDEF
8
0
10
0.000000
20
0.000000
30
0.0
40
3.5
1

3

2
TDEV3:0.000000
70
0
0
ATTDEF
8
0
10
0.000000
20
0.000000
30
0.0
40
3.5
1

3

2
TDEV4:0.000000
70
0
0
ATTDEF
8
0
10
0.000000
20
0.000000
30
0.0
40
3.5
1

3

2
TDEV5:0.000000
70
0
0
ATTDEF
8
0
10
0.000000
20
0.000000
30
0.0
40
3.5
1

3

2
BL01:6800.000000,,1
70
0
0
ATTDEF
8
0
10
0.000000
20
0.000000
30
0.0
40
3.5
1

3

2
DESC:Soglia
70
0
0
ATTDEF
8
0
10
0.000000
20
0.000000
30
0.0
40
3.5
1

3

2
DENS:0.227800
70
0
0
ATTDEF
8
0
10
0.000000
20
0.000000
30
0.0
40
3.5
1

3

2
TDEV:0.000000
70
0
0
ATTDEF
8
0
10
0.000000
20
0.000000
30
0.0
40
3.5
1

3

2
TDEV2:0.000000
70
0
0
ATTDEF
8
0
10
0.000000
20
0.000000
30
0.0
40
3.5
1

3

2
TDEV3:0.000000
70
0
0
ATTDEF
8
0
10
0.000000
20
0.000000
30
0.0
40
3.5
1

3

2
TDEV4:0.000000
70
0
0
ATTDEF
8
0
10
0.000000
20
0.000000
30
0.0
40
3.5
1

3

2
TDEV5:0.000000
70
0
0
ATTDEF
8
0
10
0.000000
20
0.000000
30
0.0
40
3.5
1

3

2
PANE_WIDTH:0
70
0
0
ATTDEF
8
0
10
0.000000
20
0.000000
30
0.0
40
3.5
1

3

2
MIN_VETRO:0
70
0
0
ATTDEF
8
0
10
0.000000
20
0.000000
30
0.0
40
3.5
1

3

2
MAX_VETRO:0
70
0
0
ATTDEF
8
0
10
0.000000
20
0.000000
30
0.0
40
3.5
1

3

2
JX:0
70
0
0
ATTDEF
8
0
10
0.000000
20
0.000000
30
0.0
40
3.5
1

3

2
WX:0
70
0
0
ATTDEF
8
0
10
0.000000
20
0.000000
30
0.0
40
3.5
1

3

2
JY:0
70
0
0
ATTDEF
8
0
10
0.000000
20
0.000000
30
0.0
40
3.5
1

3

2
WY:0
70
0
0
ENDSEC
0
EOF
