0
SECTION
2
ENTITIES
0
ARC
8
0
10
67.682802
20
78.495810
30
0.0
40
1.000000
50
40.000548
51
90.000000
0
LINE
8
0
10
67.682802
20
79.495810
30
0.0
11
61.614839
21
79.495810
31
0.0
0
LINE
8
0
10
61.614839
20
79.495810
30
0.0
11
55.546876
21
79.495810
31
0.0
0
ARC
8
0
10
55.546876
20
78.495810
30
0.0
40
1.000000
50
90.000000
51
139.999473
0
LINE
8
0
10
54.780838
20
79.138605
30
0.0
11
52.943882
21
76.949447
31
0.0
0
ARC
8
0
10
52.024636
20
77.720801
30
0.0
40
1.200000
50
269.999983
51
319.999473
0
ARC
8
0
10
52.017941
20
76.720801
30
0.0
40
0.200000
50
239.999870
51
269.999983
0
LINE
8
0
10
51.917941
20
76.547596
30
0.0
11
50.408628
21
77.419003
31
0.0
0
ARC
8
0
10
50.308628
20
77.245798
30
0.0
40
0.200000
50
59.999870
51
90.000000
0
LINE
8
0
10
50.308628
20
77.445798
30
0.0
11
49.914841
21
77.445798
31
0.0
0
ARC
8
0
10
49.914841
20
77.145798
30
0.0
40
0.300000
50
90.000000
51
180.000000
0
LINE
8
0
10
49.614841
20
77.145798
30
0.0
11
49.614841
21
76.245807
31
0.0
0
ARC
8
0
10
49.914841
20
76.245807
30
0.0
40
0.300000
50
180.000000
51
270.000000
0
LINE
8
0
10
49.914841
20
75.945807
30
0.0
11
50.035043
21
75.945807
31
0.0
0
ARC
8
0
10
50.364839
20
75.420798
30
0.0
40
0.620000
50
237.861490
51
122.135879
0
LINE
8
0
10
50.035019
20
74.895804
30
0.0
11
49.914841
21
74.895804
31
0.0
0
ARC
8
0
10
49.914841
20
74.595804
30
0.0
40
0.300000
50
90.000000
51
180.000000
0
LINE
8
0
10
49.614841
20
74.595804
30
0.0
11
49.614841
21
73.695798
31
0.0
0
ARC
8
0
10
49.914841
20
73.695798
30
0.0
40
0.300000
50
180.000000
51
270.000000
0
LINE
8
0
10
49.914841
20
73.395798
30
0.0
11
50.308619
21
73.395798
31
0.0
0
ARC
8
0
10
50.308619
20
73.595798
30
0.0
40
0.200000
50
270.000000
51
299.999900
0
LINE
8
0
10
50.408619
20
73.422593
30
0.0
11
51.918147
21
74.294116
31
0.0
0
ARC
8
0
10
52.018146
20
74.120910
30
0.0
40
0.200000
50
89.519955
51
119.999900
0
ARC
8
0
10
52.044955
20
77.320798
30
0.0
40
3.000000
50
269.519989
51
320.000265
0
LINE
8
0
10
54.343097
20
75.392446
30
0.0
11
55.441463
21
76.701440
31
0.0
0
ARC
8
0
10
57.357695
20
75.095807
30
0.0
40
2.500000
50
90.000000
51
140.039966
0
LINE
8
0
10
57.357695
20
77.595807
30
0.0
11
65.871983
21
77.595807
31
0.0
0
ARC
8
0
10
65.871983
20
75.095807
30
0.0
40
2.500000
50
39.999735
51
90.000000
0
LINE
8
0
10
67.787102
20
76.702767
30
0.0
11
68.886580
21
75.392449
31
0.0
0
ARC
8
0
10
71.184722
20
77.320801
30
0.0
40
3.000000
50
219.999735
51
270.000017
0
LINE
8
0
10
71.184723
20
74.320801
30
0.0
11
71.211723
21
74.320801
31
0.0
0
ARC
8
0
10
71.211723
20
74.120801
30
0.0
40
0.200000
50
60.000100
51
90.000017
0
LINE
8
0
10
71.311723
20
74.294006
30
0.0
11
72.821061
21
73.422593
31
0.0
0
ARC
8
0
10
72.921061
20
73.595798
30
0.0
40
0.200000
50
240.000100
51
270.000000
0
LINE
8
0
10
72.921061
20
73.395798
30
0.0
11
73.314840
21
73.395798
31
0.0
0
ARC
8
0
10
73.314840
20
73.695798
30
0.0
40
0.300000
50
270.000000
51
0.000000
0
LINE
8
0
10
73.614840
20
73.695798
30
0.0
11
73.614840
21
74.595804
31
0.0
0
ARC
8
0
10
73.314840
20
74.595804
30
0.0
40
0.300000
50
0.000000
51
90.000000
0
LINE
8
0
10
73.314840
20
74.895804
30
0.0
11
73.194661
21
74.895804
31
0.0
0
ARC
8
0
10
72.864841
20
75.420798
30
0.0
40
0.620000
50
57.864126
51
302.138515
0
LINE
8
0
10
73.194637
20
75.945807
30
0.0
11
73.314840
21
75.945807
31
0.0
0
ARC
8
0
10
73.314840
20
76.245807
30
0.0
40
0.300000
50
270.000000
51
0.000000
0
LINE
8
0
10
73.614840
20
76.245807
30
0.0
11
73.614840
21
77.145798
31
0.0
0
ARC
8
0
10
73.314840
20
77.145798
30
0.0
40
0.300000
50
0.000000
51
90.000000
0
LINE
8
0
10
73.314840
20
77.445798
30
0.0
11
72.921053
21
77.445798
31
0.0
0
ARC
8
0
10
72.921053
20
77.245798
30
0.0
40
0.200000
50
90.000000
51
120.000130
0
LINE
8
0
10
72.821052
20
77.419003
30
0.0
11
71.311739
21
76.547596
31
0.0
0
ARC
8
0
10
71.211739
20
76.720801
30
0.0
40
0.200000
50
270.000017
51
300.000130
0
ARC
8
0
10
71.205044
20
77.720801
30
0.0
40
1.200000
50
220.000158
51
270.000017
0
LINE
8
0
10
70.285793
20
76.949453
30
0.0
11
68.448856
21
79.138617
31
0.0
0
ARC
8
0
10
67.682802
20
65.495810
30
0.0
40
1.000000
50
270.000000
51
319.999452
0
LINE
8
0
10
67.682802
20
64.495810
30
0.0
11
61.614839
21
64.495810
31
0.0
0
LINE
8
0
10
61.614839
20
64.495810
30
0.0
11
55.546876
21
64.495810
31
0.0
0
ARC
8
0
10
55.546876
20
65.495810
30
0.0
40
1.000000
50
220.000527
51
270.000000
0
LINE
8
0
10
54.780838
20
64.853016
30
0.0
11
52.943882
21
67.042173
31
0.0
0
ARC
8
0
10
52.024636
20
66.270820
30
0.0
40
1.200000
50
40.000527
51
90.000017
0
ARC
8
0
10
52.017941
20
67.270820
30
0.0
40
0.200000
50
90.000017
51
120.000130
0
LINE
8
0
10
51.917941
20
67.444024
30
0.0
11
50.408628
21
66.572618
31
0.0
0
ARC
8
0
10
50.308628
20
66.745822
30
0.0
40
0.200000
50
270.000000
51
300.000130
0
LINE
8
0
10
50.308628
20
66.545822
30
0.0
11
49.914841
21
66.545822
31
0.0
0
ARC
8
0
10
49.914841
20
66.845822
30
0.0
40
0.300000
50
180.000000
51
270.000000
0
LINE
8
0
10
49.614841
20
66.845822
30
0.0
11
49.614841
21
67.745813
31
0.0
0
ARC
8
0
10
49.914841
20
67.745813
30
0.0
40
0.300000
50
90.000000
51
180.000000
0
LINE
8
0
10
49.914841
20
68.045813
30
0.0
11
50.035043
21
68.045813
31
0.0
0
ARC
8
0
10
50.364839
20
68.570822
30
0.0
40
0.620000
50
237.864131
51
122.138520
0
LINE
8
0
10
50.035019
20
69.095816
30
0.0
11
49.914841
21
69.095816
31
0.0
0
ARC
8
0
10
49.914841
20
69.395816
30
0.0
40
0.300000
50
180.000000
51
270.000000
0
LINE
8
0
10
49.614841
20
69.395816
30
0.0
11
49.614841
21
70.295822
31
0.0
0
ARC
8
0
10
49.914841
20
70.295822
30
0.0
40
0.300000
50
90.000000
51
180.000000
0
LINE
8
0
10
49.914841
20
70.595822
30
0.0
11
50.308619
21
70.595822
31
0.0
0
ARC
8
0
10
50.308619
20
70.395822
30
0.0
40
0.200000
50
60.000100
51
90.000000
0
LINE
8
0
10
50.408619
20
70.569028
30
0.0
11
51.918147
21
69.697505
31
0.0
0
ARC
8
0
10
52.018146
20
69.870710
30
0.0
40
0.200000
50
240.000100
51
270.480045
0
ARC
8
0
10
52.044955
20
66.670822
30
0.0
40
3.000000
50
39.999735
51
90.480011
0
LINE
8
0
10
54.343097
20
68.599175
30
0.0
11
55.441463
21
67.290180
31
0.0
0
ARC
8
0
10
57.357695
20
68.895813
30
0.0
40
2.500000
50
219.960034
51
270.000000
0
LINE
8
0
10
57.357695
20
66.395813
30
0.0
11
65.871983
21
66.395813
31
0.0
0
ARC
8
0
10
65.871983
20
68.895813
30
0.0
40
2.500000
50
270.000000
51
320.000265
0
LINE
8
0
10
67.787102
20
67.288853
30
0.0
11
68.886580
21
68.599172
31
0.0
0
ARC
8
0
10
71.184722
20
66.670820
30
0.0
40
3.000000
50
89.999983
51
140.000265
0
LINE
8
0
10
71.184723
20
69.670820
30
0.0
11
71.211723
21
69.670820
31
0.0
0
ARC
8
0
10
71.211723
20
69.870820
30
0.0
40
0.200000
50
269.999983
51
299.999900
0
LINE
8
0
10
71.311723
20
69.697614
30
0.0
11
72.821061
21
70.569028
31
0.0
0
ARC
8
0
10
72.921061
20
70.395822
30
0.0
40
0.200000
50
90.000000
51
119.999900
0
LINE
8
0
10
72.921061
20
70.595822
30
0.0
11
73.314840
21
70.595822
31
0.0
0
ARC
8
0
10
73.314840
20
70.295822
30
0.0
40
0.300000
50
0.000000
51
90.000000
0
LINE
8
0
10
73.614840
20
70.295822
30
0.0
11
73.614840
21
69.395816
31
0.0
0
ARC
8
0
10
73.314840
20
69.395816
30
0.0
40
0.300000
50
270.000000
51
0.000000
0
LINE
8
0
10
73.314840
20
69.095816
30
0.0
11
73.194661
21
69.095816
31
0.0
0
ARC
8
0
10
72.864841
20
68.570822
30
0.0
40
0.620000
50
57.861485
51
302.135874
0
LINE
8
0
10
73.194637
20
68.045813
30
0.0
11
73.314840
21
68.045813
31
0.0
0
ARC
8
0
10
73.314840
20
67.745813
30
0.0
40
0.300000
50
0.000000
51
90.000000
0
LINE
8
0
10
73.614840
20
67.745813
30
0.0
11
73.614840
21
66.845822
31
0.0
0
ARC
8
0
10
73.314840
20
66.845822
30
0.0
40
0.300000
50
270.000000
51
0.000000
0
LINE
8
0
10
73.314840
20
66.545822
30
0.0
11
72.921053
21
66.545822
31
0.0
0
ARC
8
0
10
72.921053
20
66.745822
30
0.0
40
0.200000
50
239.999870
51
270.000000
0
LINE
8
0
10
72.821052
20
66.572618
30
0.0
11
71.311739
21
67.444024
31
0.0
0
ARC
8
0
10
71.211739
20
67.270820
30
0.0
40
0.200000
50
59.999870
51
89.999983
0
ARC
8
0
10
71.205044
20
66.270820
30
0.0
40
1.200000
50
89.999983
51
139.999842
0
LINE
8
0
10
70.285793
20
67.042167
30
0.0
11
68.448856
21
64.853003
31
0.0
0
ARC
8
0
10
44.575609
20
77.295810
30
0.0
40
0.300000
50
90.000000
51
150.000000
0
LINE
8
0
10
44.575609
20
77.595810
30
0.0
11
46.714839
21
77.595810
31
0.0
0
ARC
8
0
10
46.714839
20
76.595810
30
0.0
40
1.000000
50
0.000000
51
90.000000
0
LINE
8
0
10
47.714839
20
76.595810
30
0.0
11
47.714839
21
74.395810
31
0.0
0
ARC
8
0
10
46.714839
20
74.395810
30
0.0
40
1.000000
50
270.000000
51
0.000000
0
LINE
8
0
10
46.714839
20
73.395810
30
0.0
11
44.678494
21
73.395810
31
0.0
0
ARC
8
0
10
44.678494
20
72.645810
30
0.0
40
0.750000
50
90.000000
51
134.261125
0
LINE
8
0
10
44.155047
20
73.182935
30
0.0
11
43.724539
21
72.763389
31
0.0
0
ARC
8
0
10
43.515160
20
72.978239
30
0.0
40
0.300000
50
282.198538
51
314.261125
0
LINE
8
0
10
43.578550
20
72.685013
30
0.0
11
43.505556
21
72.645825
31
0.0
0
LINE
8
0
10
43.505556
20
72.645825
30
0.0
11
42.336003
21
71.506055
31
0.0
0
ARC
8
0
10
41.987038
20
71.864138
30
0.0
40
0.500000
50
240.000000
51
314.261125
0
LINE
8
0
10
41.737038
20
71.431125
30
0.0
11
40.036443
21
72.412964
31
0.0
0
ARC
8
0
10
40.186443
20
72.672772
30
0.0
40
0.300000
50
180.000000
51
240.000000
0
LINE
8
0
10
39.886443
20
72.672772
30
0.0
11
39.886443
21
73.203595
31
0.0
0
ARC
8
0
10
39.136443
20
73.203595
30
0.0
40
0.750000
50
0.000000
51
180.000000
0
LINE
8
0
10
38.386443
20
73.203595
30
0.0
11
38.386443
21
72.210892
31
0.0
0
ARC
8
0
10
39.386443
20
72.210892
30
0.0
40
1.000000
50
180.000000
51
240.000000
0
LINE
8
0
10
38.886443
20
71.344866
30
0.0
11
41.314839
21
69.942831
31
0.0
0
ARC
8
0
10
41.164839
20
69.683024
30
0.0
40
0.300000
50
0.000000
51
60.000000
0
LINE
8
0
10
41.464839
20
69.683024
30
0.0
11
41.464839
21
67.795810
31
0.0
0
ARC
8
0
10
41.164839
20
67.795810
30
0.0
40
0.300000
50
270.000000
51
0.000000
0
LINE
8
0
10
41.164839
20
67.495810
30
0.0
11
35.864839
21
67.495810
31
0.0
0
ARC
8
0
10
35.864839
20
67.795810
30
0.0
40
0.300000
50
180.000000
51
270.000000
0
LINE
8
0
10
35.564839
20
67.795810
30
0.0
11
35.564839
21
77.445810
31
0.0
0
ARC
8
0
10
35.814839
20
77.445810
30
0.0
40
0.250000
50
90.000000
51
180.000000
0
LINE
8
0
10
35.814839
20
77.695810
30
0.0
11
42.208473
21
77.695810
31
0.0
0
ARC
8
0
10
42.208473
20
77.395810
30
0.0
40
0.300000
50
330.000000
51
90.000000
0
LINE
8
0
10
42.468280
20
77.245810
30
0.0
11
42.028975
21
76.484912
31
0.0
0
ARC
8
0
10
42.678494
20
76.109912
30
0.0
40
0.750000
50
150.000000
51
330.000000
0
LINE
8
0
10
43.328013
20
75.734912
30
0.0
11
44.315801
21
77.445810
31
0.0
0
ARC
8
0
10
46.814839
20
70.995810
30
0.0
40
1.000000
50
0.000000
51
90.000000
0
LINE
8
0
10
47.814839
20
70.995810
30
0.0
11
47.814839
21
64.495810
31
0.0
0
LINE
8
0
10
47.814839
20
64.495810
30
0.0
11
49.876028
21
64.495810
31
0.0
0
LINE
8
0
10
49.876028
20
64.495810
30
0.0
11
50.875821
21
64.759341
31
0.0
0
ARC
8
0
10
50.965542
20
64.473072
30
0.0
40
0.300000
50
29.632658
51
107.401721
0
ARC
8
0
10
51.400149
20
64.720290
30
0.0
40
0.200000
50
209.632658
51
270.401741
0
LINE
8
0
10
51.401551
20
64.520295
30
0.0
11
52.951345
21
64.531162
31
0.0
0
ARC
8
0
10
52.949242
20
64.831154
30
0.0
40
0.300000
50
270.401741
51
17.401721
0
LINE
8
0
10
53.235511
20
64.920875
30
0.0
11
52.636950
21
66.830685
31
0.0
0
ARC
8
0
10
51.873565
20
66.591429
30
0.0
40
0.800000
50
17.401721
51
62.401721
0
LINE
8
0
10
52.244181
20
67.300403
30
0.0
11
51.963110
21
67.447333
31
0.0
0
ARC
8
0
10
51.870456
20
67.270089
30
0.0
40
0.200000
50
62.401721
51
180.000000
0
LINE
8
0
10
51.670632
20
67.261708
30
0.0
11
51.682729
21
66.973286
31
0.0
0
LINE
8
0
10
51.682729
20
66.973286
30
0.0
11
49.974632
21
65.889223
31
0.0
0
ARC
8
0
10
49.653121
20
66.395810
30
0.0
40
0.600000
50
270.000000
51
302.401721
0
LINE
8
0
10
49.653121
20
65.795810
30
0.0
11
49.614839
21
65.795810
31
0.0
0
ARC
8
0
10
49.714839
20
66.078653
30
0.0
40
0.300000
50
109.471221
51
250.528779
0
LINE
8
0
10
49.614839
20
66.361496
30
0.0
11
49.614839
21
70.395810
31
0.0
0
ARC
8
0
10
49.914839
20
70.395810
30
0.0
40
0.300000
50
90.000000
51
180.000000
0
LINE
8
0
10
49.914839
20
70.695810
30
0.0
11
50.134454
21
70.695810
31
0.0
0
ARC
8
0
10
50.134454
20
70.395810
30
0.0
40
0.300000
50
60.000000
51
90.000000
0
LINE
8
0
10
50.284454
20
70.655618
30
0.0
11
51.814839
21
69.772050
31
0.0
0
ARC
8
0
10
51.914839
20
69.945255
30
0.0
40
0.200000
50
240.000000
51
0.000000
0
LINE
8
0
10
52.114839
20
69.945255
30
0.0
11
52.114839
21
74.046366
31
0.0
0
ARC
8
0
10
51.914839
20
74.046366
30
0.0
40
0.200000
50
0.000000
51
120.000000
0
LINE
8
0
10
51.814839
20
74.219571
30
0.0
11
50.284454
21
73.336003
31
0.0
0
ARC
8
0
10
50.134454
20
73.595810
30
0.0
40
0.300000
50
270.000000
51
300.000000
0
LINE
8
0
10
50.134454
20
73.295810
30
0.0
11
49.914839
21
73.295810
31
0.0
0
ARC
8
0
10
49.914839
20
73.595810
30
0.0
40
0.300000
50
180.000000
51
270.000000
0
LINE
8
0
10
49.614839
20
73.595810
30
0.0
11
49.614839
21
77.630125
31
0.0
0
ARC
8
0
10
49.714839
20
77.912968
30
0.0
40
0.300000
50
109.471221
51
250.528779
0
LINE
8
0
10
49.614839
20
78.195810
30
0.0
11
49.653121
21
78.195810
31
0.0
0
ARC
8
0
10
49.653121
20
77.595810
30
0.0
40
0.600000
50
57.598279
51
90.000000
0
LINE
8
0
10
49.974632
20
78.102397
30
0.0
11
51.682729
21
77.018334
31
0.0
0
LINE
8
0
10
51.682729
20
77.018334
30
0.0
11
51.670632
21
76.729913
31
0.0
0
ARC
8
0
10
51.870456
20
76.721531
30
0.0
40
0.200000
50
180.000000
51
297.598279
0
LINE
8
0
10
51.963110
20
76.544288
30
0.0
11
52.244181
21
76.691217
31
0.0
0
ARC
8
0
10
51.873565
20
77.400191
30
0.0
40
0.800000
50
297.598279
51
342.598279
0
LINE
8
0
10
52.636950
20
77.160936
30
0.0
11
53.235511
21
79.070745
31
0.0
0
ARC
8
0
10
52.949242
20
79.160466
30
0.0
40
0.300000
50
342.598279
51
89.598259
0
LINE
8
0
10
52.951345
20
79.460459
30
0.0
11
51.401551
21
79.471325
31
0.0
0
ARC
8
0
10
51.400149
20
79.271330
30
0.0
40
0.200000
50
89.598259
51
150.367342
0
ARC
8
0
10
50.965542
20
79.518549
30
0.0
40
0.300000
50
252.598279
51
330.367342
0
LINE
8
0
10
50.875821
20
79.232279
30
0.0
11
49.876028
21
79.495810
31
0.0
0
LINE
8
0
10
49.876028
20
79.495810
30
0.0
11
35.264839
21
79.495810
31
0.0
0
ARC
8
0
10
35.264839
20
77.995810
30
0.0
40
1.500000
50
90.000000
51
180.000000
0
LINE
8
0
10
33.764839
20
77.995810
30
0.0
11
33.764839
21
64.795810
31
0.0
0
ARC
8
0
10
34.064839
20
64.795810
30
0.0
40
0.300000
50
180.000000
51
270.000000
0
LINE
8
0
10
34.064839
20
64.495810
30
0.0
11
35.264839
21
64.495810
31
0.0
0
ARC
8
0
10
35.264839
20
64.795810
30
0.0
40
0.300000
50
270.000000
51
0.000000
0
LINE
8
0
10
35.564839
20
64.795810
30
0.0
11
35.564839
21
65.695810
31
0.0
0
ARC
8
0
10
35.864839
20
65.695810
30
0.0
40
0.300000
50
90.000000
51
180.000000
0
LINE
8
0
10
35.864839
20
65.995810
30
0.0
11
41.014839
21
65.995810
31
0.0
0
ARC
8
0
10
41.014839
20
65.695810
30
0.0
40
0.300000
50
0.000000
51
90.000000
0
LINE
8
0
10
41.314839
20
65.695810
30
0.0
11
41.314839
21
64.795810
31
0.0
0
ARC
8
0
10
41.614839
20
64.795810
30
0.0
40
0.300000
50
180.000000
51
270.000000
0
LINE
8
0
10
41.614839
20
64.495810
30
0.0
11
42.514839
21
64.495810
31
0.0
0
ARC
8
0
10
42.514839
20
64.795810
30
0.0
40
0.300000
50
270.000000
51
0.000000
0
LINE
8
0
10
42.814839
20
64.795810
30
0.0
11
42.814839
21
69.658380
31
0.0
0
ARC
8
0
10
43.114839
20
69.658380
30
0.0
40
0.300000
50
134.261125
51
180.000000
0
LINE
8
0
10
42.905460
20
69.873230
30
0.0
11
44.996129
21
71.910660
31
0.0
0
ARC
8
0
10
45.205508
20
71.695810
30
0.0
40
0.300000
50
90.000000
51
134.261125
0
LINE
8
0
10
45.205508
20
71.995810
30
0.0
11
46.814839
21
71.995810
31
0.0
0
LINE
8
0
10
75.714839
20
69.685282
30
0.0
11
77.461170
21
69.685282
31
0.0
0
ARC
8
0
10
77.461170
20
69.985282
30
0.0
40
0.300000
50
270.000000
51
300.000000
0
LINE
8
0
10
77.611170
20
69.725474
30
0.0
11
80.162003
21
71.198199
31
0.0
0
ARC
8
0
10
79.787003
20
71.847718
30
0.0
40
0.750000
50
300.000000
51
120.000000
0
LINE
8
0
10
79.412003
20
72.497237
30
0.0
11
77.418092
21
71.346052
31
0.0
0
ARC
8
0
10
76.818092
20
72.385282
30
0.0
40
1.200000
50
180.000000
51
300.000000
0
LINE
8
0
10
75.618092
20
72.385282
30
0.0
11
75.618092
21
74.810153
31
0.0
0
ARC
8
0
10
76.818092
20
74.810153
30
0.0
40
1.200000
50
60.000000
51
180.000000
0
LINE
8
0
10
77.418092
20
75.849384
30
0.0
11
79.412003
21
74.698199
31
0.0
0
ARC
8
0
10
79.787003
20
75.347718
30
0.0
40
0.750000
50
240.000000
51
60.000000
0
LINE
8
0
10
80.162003
20
75.997237
30
0.0
11
77.156159
21
77.732662
31
0.0
0
ARC
8
0
10
77.306159
20
77.992469
30
0.0
40
0.300000
50
150.000000
51
240.000000
0
LINE
8
0
10
77.046351
20
78.142469
30
0.0
11
79.260375
21
81.977271
31
0.0
0
ARC
8
0
10
79.693387
20
81.727271
30
0.0
40
0.500000
50
47.222085
51
150.000000
0
LINE
8
0
10
80.032967
20
82.094266
30
0.0
11
85.618092
21
76.898622
31
0.0
0
LINE
8
0
10
85.618092
20
76.898622
30
0.0
11
85.618092
21
67.795810
31
0.0
0
ARC
8
0
10
85.318092
20
67.795810
30
0.0
40
0.300000
50
270.000000
51
0.000000
0
LINE
8
0
10
85.318092
20
67.495810
30
0.0
11
75.714839
21
67.495810
31
0.0
0
ARC
8
0
10
75.714839
20
67.795810
30
0.0
40
0.300000
50
180.000000
51
270.000000
0
LINE
8
0
10
75.414839
20
67.795810
30
0.0
11
75.414839
21
69.385282
31
0.0
0
ARC
8
0
10
75.714839
20
69.385282
30
0.0
40
0.300000
50
90.000000
51
180.000000
0
ARC
8
0
10
71.829530
20
64.720290
30
0.0
40
0.200000
50
269.598259
51
330.367342
0
LINE
8
0
10
71.828127
20
64.520295
30
0.0
11
70.278333
21
64.531162
31
0.0
0
ARC
8
0
10
70.280437
20
64.831154
30
0.0
40
0.300000
50
162.598279
51
269.598259
0
LINE
8
0
10
69.994167
20
64.920875
30
0.0
11
70.592728
21
66.830685
31
0.0
0
ARC
8
0
10
71.356113
20
66.591429
30
0.0
40
0.800000
50
117.598279
51
162.598279
0
LINE
8
0
10
70.985498
20
67.300403
30
0.0
11
71.266568
21
67.447333
31
0.0
0
ARC
8
0
10
71.359222
20
67.270089
30
0.0
40
0.200000
50
0.000000
51
117.598279
0
LINE
8
0
10
71.559046
20
67.261708
30
0.0
11
71.546949
21
66.973286
31
0.0
0
LINE
8
0
10
71.546949
20
66.973286
30
0.0
11
73.255046
21
65.889223
31
0.0
0
ARC
8
0
10
73.576557
20
66.395810
30
0.0
40
0.600000
50
237.598279
51
270.000000
0
LINE
8
0
10
73.576557
20
65.795810
30
0.0
11
73.614839
21
65.795810
31
0.0
0
ARC
8
0
10
73.514839
20
66.078653
30
0.0
40
0.300000
50
289.471221
51
70.528779
0
LINE
8
0
10
73.614839
20
66.361496
30
0.0
11
73.614839
21
70.395810
31
0.0
0
ARC
8
0
10
73.314839
20
70.395810
30
0.0
40
0.300000
50
0.000000
51
90.000000
0
LINE
8
0
10
73.314839
20
70.695810
30
0.0
11
73.095224
21
70.695810
31
0.0
0
ARC
8
0
10
73.095224
20
70.395810
30
0.0
40
0.300000
50
90.000000
51
120.000000
0
LINE
8
0
10
72.945224
20
70.655618
30
0.0
11
71.414839
21
69.772050
31
0.0
0
ARC
8
0
10
71.314839
20
69.945255
30
0.0
40
0.200000
50
180.000000
51
300.000000
0
LINE
8
0
10
71.114839
20
69.945255
30
0.0
11
71.114839
21
74.046366
31
0.0
0
ARC
8
0
10
71.314839
20
74.046366
30
0.0
40
0.200000
50
60.000000
51
180.000000
0
LINE
8
0
10
71.414839
20
74.219571
30
0.0
11
72.945224
21
73.336003
31
0.0
0
ARC
8
0
10
73.095224
20
73.595810
30
0.0
40
0.300000
50
240.000000
51
270.000000
0
LINE
8
0
10
73.095224
20
73.295810
30
0.0
11
73.314839
21
73.295810
31
0.0
0
ARC
8
0
10
73.314839
20
73.595810
30
0.0
40
0.300000
50
270.000000
51
0.000000
0
LINE
8
0
10
73.614839
20
73.595810
30
0.0
11
73.614839
21
77.630125
31
0.0
0
ARC
8
0
10
73.514839
20
77.912968
30
0.0
40
0.300000
50
289.471221
51
70.528779
0
LINE
8
0
10
73.614839
20
78.195810
30
0.0
11
73.576557
21
78.195810
31
0.0
0
ARC
8
0
10
73.576557
20
77.595810
30
0.0
40
0.600000
50
90.000000
51
122.401721
0
LINE
8
0
10
73.255046
20
78.102397
30
0.0
11
71.546949
21
77.018334
31
0.0
0
LINE
8
0
10
71.546949
20
77.018334
30
0.0
11
71.559046
21
76.729913
31
0.0
0
ARC
8
0
10
71.359222
20
76.721531
30
0.0
40
0.200000
50
242.401721
51
0.000000
0
LINE
8
0
10
71.266568
20
76.544288
30
0.0
11
70.985498
21
76.691217
31
0.0
0
ARC
8
0
10
71.356113
20
77.400191
30
0.0
40
0.800000
50
197.401721
51
242.401721
0
LINE
8
0
10
70.592728
20
77.160936
30
0.0
11
69.994167
21
79.070745
31
0.0
0
ARC
8
0
10
70.280437
20
79.160466
30
0.0
40
0.300000
50
90.401741
51
197.401721
0
LINE
8
0
10
70.278333
20
79.460459
30
0.0
11
71.828127
21
79.471325
31
0.0
0
ARC
8
0
10
71.829530
20
79.271330
30
0.0
40
0.200000
50
29.632658
51
90.401741
0
ARC
8
0
10
72.264136
20
79.518549
30
0.0
40
0.300000
50
209.632658
51
287.401721
0
LINE
8
0
10
72.353857
20
79.232279
30
0.0
11
73.353650
21
79.495810
31
0.0
0
LINE
8
0
10
73.353650
20
79.495810
30
0.0
11
75.546037
21
79.495810
31
0.0
0
ARC
8
0
10
75.546037
20
79.795810
30
0.0
40
0.300000
50
270.000000
51
330.000000
0
LINE
8
0
10
75.805844
20
79.645810
30
0.0
11
78.172980
21
83.745810
31
0.0
0
ARC
8
0
10
79.472019
20
82.995810
30
0.0
40
1.500000
50
45.000000
51
150.000000
0
LINE
8
0
10
80.532679
20
84.056470
30
0.0
11
86.978752
21
77.610397
31
0.0
0
ARC
8
0
10
85.918092
20
76.549737
30
0.0
40
1.500000
50
0.000000
51
45.000000
0
LINE
8
0
10
87.418092
20
76.549737
30
0.0
11
87.418092
21
64.795810
31
0.0
0
ARC
8
0
10
87.118092
20
64.795810
30
0.0
40
0.300000
50
270.000000
51
0.000000
0
LINE
8
0
10
87.118092
20
64.495810
30
0.0
11
85.918092
21
64.495810
31
0.0
0
ARC
8
0
10
85.918092
20
64.795810
30
0.0
40
0.300000
50
180.000000
51
270.000000
0
LINE
8
0
10
85.618092
20
64.795810
30
0.0
11
85.618092
21
65.695810
31
0.0
0
ARC
8
0
10
85.318092
20
65.695810
30
0.0
40
0.300000
50
0.000000
51
90.000000
0
LINE
8
0
10
85.318092
20
65.995810
30
0.0
11
75.714839
21
65.995810
31
0.0
0
ARC
8
0
10
75.714839
20
65.695810
30
0.0
40
0.300000
50
90.000000
51
180.000000
0
LINE
8
0
10
75.414839
20
65.695810
30
0.0
11
75.414839
21
64.795810
31
0.0
0
ARC
8
0
10
75.114839
20
64.795810
30
0.0
40
0.300000
50
270.000000
51
0.000000
0
LINE
8
0
10
75.114839
20
64.495810
30
0.0
11
73.353650
21
64.495810
31
0.0
0
LINE
8
0
10
73.353650
20
64.495810
30
0.0
11
72.353857
21
64.759341
31
0.0
0
ARC
8
0
10
72.264136
20
64.473072
30
0.0
40
0.300000
50
72.598279
51
150.367342
0
ATTDEF
8
0
10
35.264839
20
79.495810
30
0.0
40
3.5
1

3

2
VC_START
70
0
0
ATTDEF
8
0
10
34.664839
20
64.495810
30
0.0
40
3.5
1

3

2
VC_END
70
0
0
ATTDEF
8
0
10
33.764839
20
64.495810
30
0.0
40
3.5
1

3

2
FRONT_VIEW
70
0
0
ATTDEF
8
0
10
33.764839
20
64.495810
30
0.0
40
3.5
1

3

2
OPTI:500.000000,1,0,3000.000000,6800.000000,500.000000,0,0.000000,0
70
0
0
ATTDEF
8
0
10
33.764839
20
64.495810
30
0.0
40
3.5
1

3

2
GLASS_MIN:0.000000
70
0
0
ATTDEF
8
0
10
33.764839
20
64.495810
30
0.0
40
3.5
1

3

2
GLASS_MAX:0.000000
70
0
0
ATTDEF
8
0
10
33.764839
20
64.495810
30
0.0
40
3.5
1

3

2
JX:0.000000
70
0
0
ATTDEF
8
0
10
33.764839
20
64.495810
30
0.0
40
3.5
1

3

2
WX:0.000000
70
0
0
ATTDEF
8
0
10
87.418092
20
64.495810
30
0.0
40
3.5
1

3

2
FP_LCS_ORIG
70
0
0
ATTDEF
8
0
10
77.418092
20
64.495810
30
0.0
40
3.5
1

3

2
FP_LCS_HOT
70
0
0
ATTDEF
8
0
10
87.418092
20
74.495810
30
0.0
40
3.5
1

3

2
FP_LCS_INTERN
70
0
0
ATTDEF
8
0
10
0.000000
20
0.000000
30
0.0
40
3.5
1

3

2
BL01:6800.000000,,1
70
0
0
ATTDEF
8
0
10
0.000000
20
0.000000
30
0.0
40
3.5
1

3

2
DESC:Soglia
70
0
0
ATTDEF
8
0
10
0.000000
20
0.000000
30
0.0
40
3.5
1

3

2
DENS:0.924000
70
0
0
ATTDEF
8
0
10
0.000000
20
0.000000
30
0.0
40
3.5
1

3

2
TDEV:0.000000
70
0
0
ATTDEF
8
0
10
0.000000
20
0.000000
30
0.0
40
3.5
1

3

2
TDEV2:0.000000
70
0
0
ATTDEF
8
0
10
0.000000
20
0.000000
30
0.0
40
3.5
1

3

2
TDEV3:0.000000
70
0
0
ATTDEF
8
0
10
0.000000
20
0.000000
30
0.0
40
3.5
1

3

2
TDEV4:0.000000
70
0
0
ATTDEF
8
0
10
0.000000
20
0.000000
30
0.0
40
3.5
1

3

2
TDEV5:0.000000
70
0
0
ATTDEF
8
0
10
0.000000
20
0.000000
30
0.0
40
3.5
1

3

2
PANE_WIDTH:0
70
0
0
ATTDEF
8
0
10
0.000000
20
0.000000
30
0.0
40
3.5
1

3

2
MIN_VETRO:0
70
0
0
ATTDEF
8
0
10
0.000000
20
0.000000
30
0.0
40
3.5
1

3

2
MAX_VETRO:0
70
0
0
ATTDEF
8
0
10
0.000000
20
0.000000
30
0.0
40
3.5
1

3

2
JX:0
70
0
0
ATTDEF
8
0
10
0.000000
20
0.000000
30
0.0
40
3.5
1

3

2
WX:0
70
0
0
ATTDEF
8
0
10
0.000000
20
0.000000
30
0.0
40
3.5
1

3

2
JY:0
70
0
0
ATTDEF
8
0
10
0.000000
20
0.000000
30
0.0
40
3.5
1

3

2
WY:0
70
0
0
ENDSEC
0
EOF
