0
SECTION
2
ENTITIES
0
ARC
8
0
10
129.312496
20
151.006721
30
0.0
40
0.300000
50
180.000000
51
270.000000
0
LINE
8
0
10
129.012496
20
151.006721
30
0.0
11
129.012496
21
155.111424
31
0.0
0
ARC
8
0
10
128.712496
20
155.111424
30
0.0
40
0.300000
50
0.000000
51
90.000000
0
LINE
8
0
10
128.712496
20
155.411424
30
0.0
11
128.312496
21
155.411424
31
0.0
0
ARC
8
0
10
128.312496
20
155.711424
30
0.0
40
0.300000
50
180.000000
51
270.000000
0
LINE
8
0
10
128.012496
20
155.711424
30
0.0
11
128.012496
21
156.611424
31
0.0
0
ARC
8
0
10
128.312496
20
156.611424
30
0.0
40
0.300000
50
90.000000
51
180.000000
0
LINE
8
0
10
128.312496
20
156.911424
30
0.0
11
158.312496
21
156.911424
31
0.0
0
ARC
8
0
10
158.312496
20
157.211424
30
0.0
40
0.300000
50
270.000000
51
0.000000
0
LINE
8
0
10
158.612496
20
157.211424
30
0.0
11
158.612496
21
161.111424
31
0.0
0
ARC
8
0
10
158.912496
20
161.111424
30
0.0
40
0.300000
50
90.000000
51
180.000000
0
LINE
8
0
10
158.912496
20
161.411424
30
0.0
11
159.912496
21
161.411424
31
0.0
0
ARC
8
0
10
159.912496
20
161.111424
30
0.0
40
0.300000
50
0.000000
51
90.000000
0
LINE
8
0
10
160.212496
20
161.111424
30
0.0
11
160.212496
21
150.711424
31
0.0
0
ARC
8
0
10
160.512496
20
150.711424
30
0.0
40
0.300000
50
180.000000
51
270.000000
0
LINE
8
0
10
160.512496
20
150.411424
30
0.0
11
164.362496
21
150.411424
31
0.0
0
ARC
8
0
10
164.362496
20
150.111424
30
0.0
40
0.300000
50
0.000000
51
90.000000
0
LINE
8
0
10
164.662496
20
150.111424
30
0.0
11
164.662496
21
145.911424
31
0.0
0
ARC
8
0
10
164.362496
20
145.911424
30
0.0
40
0.300000
50
270.000000
51
0.000000
0
LINE
8
0
10
164.362496
20
145.611424
30
0.0
11
163.462496
21
145.611424
31
0.0
0
ARC
8
0
10
163.462496
20
145.911424
30
0.0
40
0.300000
50
180.000000
51
270.000000
0
LINE
8
0
10
163.162496
20
145.911424
30
0.0
11
163.162496
21
148.611424
31
0.0
0
ARC
8
0
10
162.862496
20
148.611424
30
0.0
40
0.300000
50
0.000000
51
90.000000
0
LINE
8
0
10
162.862496
20
148.911424
30
0.0
11
159.612496
21
148.911424
31
0.0
0
ARC
8
0
10
159.612496
20
149.911424
30
0.0
40
1.000000
50
180.000000
51
270.000000
0
LINE
8
0
10
158.612496
20
149.911424
30
0.0
11
158.612496
21
154.611424
31
0.0
0
ARC
8
0
10
158.312496
20
154.611424
30
0.0
40
0.300000
50
0.000000
51
90.000000
0
LINE
8
0
10
158.312496
20
154.911424
30
0.0
11
153.117219
21
154.911424
31
0.0
0
ARC
8
0
10
153.117219
20
154.411424
30
0.0
40
0.500000
50
90.000000
51
180.000000
0
LINE
8
0
10
152.617219
20
154.411424
30
0.0
11
152.617219
21
151.006721
31
0.0
0
ARC
8
0
10
152.317219
20
151.006721
30
0.0
40
0.300000
50
270.000000
51
0.000000
0
LINE
8
0
10
152.317219
20
150.706721
30
0.0
11
150.917219
21
150.706721
31
0.0
0
ARC
8
0
10
150.917219
20
151.006721
30
0.0
40
0.300000
50
180.000000
51
270.000000
0
LINE
8
0
10
150.617219
20
151.006721
30
0.0
11
150.617219
21
154.411424
31
0.0
0
ARC
8
0
10
150.117219
20
154.411424
30
0.0
40
0.500000
50
0.000000
51
90.000000
0
LINE
8
0
10
150.117219
20
154.911424
30
0.0
11
145.913520
21
154.911424
31
0.0
0
ARC
8
0
10
145.913520
20
154.411424
30
0.0
40
0.500000
50
90.000000
51
180.000000
0
LINE
8
0
10
145.413520
20
154.411424
30
0.0
11
145.413520
21
146.111424
31
0.0
0
ARC
8
0
10
144.913520
20
146.111424
30
0.0
40
0.500000
50
270.000000
51
0.000000
0
LINE
8
0
10
144.913520
20
145.611424
30
0.0
11
144.414183
21
145.611424
31
0.0
0
ARC
8
0
10
144.414183
20
146.111424
30
0.0
40
0.500000
50
180.000000
51
270.000000
0
LINE
8
0
10
143.914183
20
146.111424
30
0.0
11
143.914183
21
154.911424
31
0.0
0
ARC
8
0
10
143.414183
20
154.911424
30
0.0
40
0.500000
50
0.000000
51
90.000000
0
LINE
8
0
10
143.414183
20
155.411424
30
0.0
11
130.812496
21
155.411424
31
0.0
0
ARC
8
0
10
130.812496
20
155.111424
30
0.0
40
0.300000
50
90.000000
51
180.000000
0
LINE
8
0
10
130.512496
20
155.111424
30
0.0
11
130.512496
21
151.006721
31
0.0
0
ARC
8
0
10
130.212496
20
151.006721
30
0.0
40
0.300000
50
270.000000
51
0.000000
0
LINE
8
0
10
130.212496
20
150.706721
30
0.0
11
129.312496
21
150.706721
31
0.0
0
ATTDEF
8
0
10
159.412496
20
161.411424
30
0.0
40
3.5
1

3

2
VC_START
70
0
0
ATTDEF
8
0
10
144.663851
20
145.611424
30
0.0
40
3.5
1

3

2
VC_END
70
0
0
ATTDEF
8
0
10
128.012496
20
145.611424
30
0.0
40
3.5
1

3

2
DESC:Battuta porta
70
0
0
ATTDEF
8
0
10
128.012496
20
145.611424
30
0.0
40
3.5
1

3

2
DENS:0.320000
70
0
0
ATTDEF
8
0
10
128.012496
20
145.611424
30
0.0
40
3.5
1

3

2
TDEV:0.000000
70
0
0
ATTDEF
8
0
10
128.012496
20
145.611424
30
0.0
40
3.5
1

3

2
TDEV2:0.000000
70
0
0
ATTDEF
8
0
10
128.012496
20
145.611424
30
0.0
40
3.5
1

3

2
TDEV3:0.000000
70
0
0
ATTDEF
8
0
10
128.012496
20
145.611424
30
0.0
40
3.5
1

3

2
TDEV4:0.000000
70
0
0
ATTDEF
8
0
10
128.012496
20
145.611424
30
0.0
40
3.5
1

3

2
TDEV5:0.000000
70
0
0
ATTDEF
8
0
10
128.012496
20
145.611424
30
0.0
40
3.5
1

3

2
FRONT_VIEW
70
0
0
ATTDEF
8
0
10
128.012496
20
145.611424
30
0.0
40
3.5
1

3

2
BL01:6800.000000,,1
70
0
0
ATTDEF
8
0
10
128.012496
20
145.611424
30
0.0
40
3.5
1

3

2
OPTI:500.000000,1,0,3000.000000,6500.000000,500.000000,0,0.000000,0
70
0
0
ATTDEF
8
0
10
128.012496
20
145.611424
30
0.0
40
3.5
1

3

2
PANE_WIDTH:0.000000
70
0
0
ATTDEF
8
0
10
128.012496
20
145.611424
30
0.0
40
3.5
1

3

2
GLASS_MIN:0.000000
70
0
0
ATTDEF
8
0
10
128.012496
20
145.611424
30
0.0
40
3.5
1

3

2
GLASS_MAX:0.000000
70
0
0
ATTDEF
8
0
10
128.012496
20
145.611424
30
0.0
40
3.5
1

3

2
JX:0.000000
70
0
0
ATTDEF
8
0
10
128.012496
20
145.611424
30
0.0
40
3.5
1

3

2
WX:0.000000
70
0
0
ATTDEF
8
0
10
128.012496
20
145.611424
30
0.0
40
3.5
1

3

2
JY:0.000000
70
0
0
ATTDEF
8
0
10
128.012496
20
145.611424
30
0.0
40
3.5
1

3

2
WY:0.000000
70
0
0
ATTDEF
8
0
10
128.012496
20
145.611424
30
0.0
40
3.5
1

3

2
FP_LCS_ORIG
70
0
0
ATTDEF
8
0
10
138.012496
20
145.611424
30
0.0
40
3.5
1

3

2
FP_LCS_HOT
70
0
0
ATTDEF
8
0
10
128.012496
20
155.611424
30
0.0
40
3.5
1

3

2
FP_LCS_INTERN
70
0
0
ENDSEC
0
EOF
