0
SECTION
2
ENTITIES
0
LINE
8
0
10
68.697783
20
154.292279
30
0.0
11
68.697783
21
157.192280
31
0.0
0
ARC
8
0
10
68.397783
20
157.192280
30
0.0
40
0.300000
50
0.000000
51
90.000000
0
LINE
8
0
10
68.397783
20
157.492280
30
0.0
11
67.797783
21
157.492280
31
0.0
0
ARC
8
0
10
67.797783
20
157.792280
30
0.0
40
0.300000
50
180.000000
51
270.000000
0
LINE
8
0
10
67.497783
20
157.792280
30
0.0
11
67.497783
21
157.992280
31
0.0
0
ARC
8
0
10
68.497783
20
157.992280
30
0.0
40
1.000000
50
90.000000
51
180.000000
0
LINE
8
0
10
68.497783
20
158.992280
30
0.0
11
71.647228
21
158.992280
31
0.0
0
ARC
8
0
10
71.647228
20
158.692280
30
0.0
40
0.300000
50
30.000000
51
90.000000
0
LINE
8
0
10
71.907035
20
158.842280
30
0.0
11
72.357591
21
158.061895
31
0.0
0
ARC
8
0
10
72.097783
20
157.911895
30
0.0
40
0.300000
50
0.000000
51
30.000000
0
LINE
8
0
10
72.397783
20
157.911895
30
0.0
11
72.397783
21
157.792280
31
0.0
0
ARC
8
0
10
72.097783
20
157.792280
30
0.0
40
0.300000
50
270.000000
51
0.000000
0
LINE
8
0
10
72.097783
20
157.492280
30
0.0
11
70.697783
21
157.492280
31
0.0
0
ARC
8
0
10
70.697783
20
157.192280
30
0.0
40
0.300000
50
90.000000
51
180.000000
0
LINE
8
0
10
70.397783
20
157.192280
30
0.0
11
70.397783
21
154.292280
31
0.0
0
ARC
8
0
10
70.697783
20
154.292280
30
0.0
40
0.300000
50
180.000000
51
270.000000
0
LINE
8
0
10
70.697783
20
153.992280
30
0.0
11
84.597783
21
153.992280
31
0.0
0
ARC
8
0
10
84.597783
20
154.292280
30
0.0
40
0.300000
50
270.000000
51
0.000000
0
LINE
8
0
10
84.897783
20
154.292280
30
0.0
11
84.897783
21
157.192280
31
0.0
0
ARC
8
0
10
84.597783
20
157.192280
30
0.0
40
0.300000
50
0.000000
51
90.000000
0
LINE
8
0
10
84.597783
20
157.492280
30
0.0
11
82.697783
21
157.492280
31
0.0
0
ARC
8
0
10
82.697783
20
157.792280
30
0.0
40
0.300000
50
180.000000
51
270.000000
0
LINE
8
0
10
82.397783
20
157.792280
30
0.0
11
82.397783
21
157.911895
31
0.0
0
ARC
8
0
10
82.697783
20
157.911895
30
0.0
40
0.300000
50
150.000000
51
180.000000
0
LINE
8
0
10
82.437975
20
158.061895
30
0.0
11
82.888531
21
158.842280
31
0.0
0
ARC
8
0
10
83.148338
20
158.692280
30
0.0
40
0.300000
50
90.000000
51
150.000000
0
LINE
8
0
10
83.148338
20
158.992280
30
0.0
11
86.397783
21
158.992280
31
0.0
0
ARC
8
0
10
86.397783
20
158.692280
30
0.0
40
0.300000
50
0.000000
51
90.000000
0
LINE
8
0
10
86.697783
20
158.692280
30
0.0
11
86.697783
21
24.300000
31
0.0
0
ARC
8
0
10
86.397783
20
24.300000
30
0.0
40
0.300000
50
270.000000
51
0.000000
0
LINE
8
0
10
86.397783
20
24.000000
30
0.0
11
82.797783
21
24.000000
31
0.0
0
ARC
8
0
10
82.797783
20
24.300000
30
0.0
40
0.300000
50
180.000000
51
270.000000
0
LINE
8
0
10
82.497783
20
24.300000
30
0.0
11
82.497783
21
25.800000
31
0.0
0
ARC
8
0
10
83.197783
20
25.800000
30
0.0
40
0.700000
50
90.000000
51
180.000000
0
ARC
8
0
10
83.197783
20
26.200000
30
0.0
40
0.300000
50
0.000000
51
90.000000
0
LINE
8
0
10
83.497783
20
26.200000
30
0.0
11
83.497783
21
25.500000
31
0.0
0
ARC
8
0
10
83.797783
20
25.500000
30
0.0
40
0.300000
50
180.000000
51
270.000000
0
LINE
8
0
10
83.797783
20
25.200000
30
0.0
11
84.697783
21
25.200000
31
0.0
0
ARC
8
0
10
84.697783
20
25.900000
30
0.0
40
0.700000
50
270.000000
51
0.000000
0
LINE
8
0
10
85.397783
20
25.900000
30
0.0
11
85.397783
21
32.100000
31
0.0
0
ARC
8
0
10
84.697783
20
32.100000
30
0.0
40
0.700000
50
0.000000
51
90.000000
0
LINE
8
0
10
84.697783
20
32.800000
30
0.0
11
83.797783
21
32.800000
31
0.0
0
ARC
8
0
10
83.797783
20
32.500000
30
0.0
40
0.300000
50
90.000000
51
180.000000
0
LINE
8
0
10
83.497783
20
32.500000
30
0.0
11
83.497783
21
31.800000
31
0.0
0
ARC
8
0
10
83.197783
20
31.800000
30
0.0
40
0.300000
50
270.000000
51
0.000000
0
ARC
8
0
10
83.197783
20
32.200000
30
0.0
40
0.700000
50
180.000000
51
270.000000
0
LINE
8
0
10
82.497783
20
32.200000
30
0.0
11
82.497783
21
35.200000
31
0.0
0
ARC
8
0
10
82.797783
20
35.200000
30
0.0
40
0.300000
50
90.000000
51
180.000000
0
LINE
8
0
10
82.797783
20
35.500000
30
0.0
11
83.197783
21
35.500000
31
0.0
0
ARC
8
0
10
83.197783
20
35.200000
30
0.0
40
0.300000
50
0.000000
51
90.000000
0
LINE
8
0
10
83.497783
20
35.200000
30
0.0
11
83.497783
21
34.300000
31
0.0
0
ARC
8
0
10
83.797783
20
34.300000
30
0.0
40
0.300000
50
180.000000
51
270.000000
0
LINE
8
0
10
83.797783
20
34.000000
30
0.0
11
84.897783
21
34.000000
31
0.0
0
ARC
8
0
10
84.897783
20
34.300000
30
0.0
40
0.300000
50
270.000000
51
0.000000
0
LINE
8
0
10
85.197783
20
34.300000
30
0.0
11
85.197783
21
37.000000
31
0.0
0
LINE
8
0
10
85.197783
20
37.000000
30
0.0
11
84.907783
21
53.697165
31
0.0
0
ARC
8
0
10
84.607783
20
53.697165
30
0.0
40
0.300000
50
0.000000
51
90.000000
0
LINE
8
0
10
84.607783
20
53.997165
30
0.0
11
68.436598
21
53.997165
31
0.0
0
LINE
8
0
10
68.436598
20
53.997165
30
0.0
11
67.436801
21
54.260697
31
0.0
0
ARC
8
0
10
67.347080
20
53.974427
30
0.0
40
0.300000
50
72.598279
51
150.367342
0
ARC
8
0
10
66.912473
20
54.221646
30
0.0
40
0.200000
50
270.000000
51
330.367342
0
LINE
8
0
10
66.911071
20
54.021651
30
0.0
11
65.359977
21
54.021651
31
0.0
0
ARC
8
0
10
65.359977
20
54.321651
30
0.0
40
0.300000
50
162.598279
51
270.000000
0
LINE
8
0
10
65.073708
20
54.411372
30
0.0
11
65.675672
21
56.332041
31
0.0
0
ARC
8
0
10
66.439057
20
56.092785
30
0.0
40
0.800000
50
117.598279
51
162.598279
0
LINE
8
0
10
66.068442
20
56.801759
30
0.0
11
66.349512
21
56.948688
31
0.0
0
ARC
8
0
10
66.442166
20
56.771445
30
0.0
40
0.200000
50
0.000000
51
117.598279
0
LINE
8
0
10
66.641990
20
56.763064
30
0.0
11
66.629893
21
56.474642
31
0.0
0
LINE
8
0
10
66.629893
20
56.474642
30
0.0
11
68.337990
21
55.390579
31
0.0
0
ARC
8
0
10
68.659501
20
55.897166
30
0.0
40
0.600000
50
237.598279
51
270.000000
0
LINE
8
0
10
68.659501
20
55.297166
30
0.0
11
68.697783
21
55.297166
31
0.0
0
ARC
8
0
10
68.597783
20
55.580009
30
0.0
40
0.300000
50
289.471221
51
70.528779
0
LINE
8
0
10
68.697783
20
55.862851
30
0.0
11
68.697783
21
59.897166
31
0.0
0
ARC
8
0
10
68.397783
20
59.897166
30
0.0
40
0.300000
50
0.000000
51
90.000000
0
LINE
8
0
10
68.397783
20
60.197166
30
0.0
11
68.178168
21
60.197166
31
0.0
0
ARC
8
0
10
68.178168
20
59.897166
30
0.0
40
0.300000
50
90.000000
51
120.000000
0
LINE
8
0
10
68.028168
20
60.156974
30
0.0
11
66.497783
21
59.273406
31
0.0
0
ARC
8
0
10
66.397783
20
59.446611
30
0.0
40
0.200000
50
180.000000
51
300.000000
0
LINE
8
0
10
66.197783
20
59.446611
30
0.0
11
66.197783
21
60.601311
31
0.0
0
ARC
8
0
10
67.197783
20
60.601311
30
0.0
40
1.000000
50
120.000000
51
180.000000
0
LINE
8
0
10
66.697783
20
61.467337
30
0.0
11
68.197783
21
62.333362
31
0.0
0
ARC
8
0
10
67.697783
20
63.199387
30
0.0
40
1.000000
50
300.000000
51
0.000000
0
LINE
8
0
10
68.697783
20
63.199387
30
0.0
11
68.697783
21
65.622258
31
0.0
0
ARC
8
0
10
68.197783
20
65.622258
30
0.0
40
0.500000
50
0.000000
51
126.529607
0
ARC
8
0
10
65.697783
20
68.997165
30
0.0
40
3.700000
50
218.989299
51
306.529607
0
ARC
8
0
10
63.210540
20
66.983804
30
0.0
40
0.500000
50
120.000000
51
218.989299
0
LINE
8
0
10
62.960540
20
67.416817
30
0.0
11
63.488145
21
67.721430
31
0.0
0
ARC
8
0
10
63.738145
20
67.288417
30
0.0
40
0.500000
50
41.087489
51
120.000000
0
ARC
8
0
10
65.697783
20
68.997165
30
0.0
40
2.100000
50
221.087489
51
252.857143
0
LINE
8
0
10
65.078797
20
66.990462
30
0.0
11
64.990371
21
66.703790
31
0.0
0
ARC
8
0
10
65.697783
20
68.997165
30
0.0
40
2.400000
50
252.857143
51
295.714286
0
LINE
8
0
10
66.739104
20
66.834840
30
0.0
11
66.608939
21
67.105130
31
0.0
0
ARC
8
0
10
65.697783
20
68.997165
30
0.0
40
2.100000
50
295.714286
51
338.571429
0
LINE
8
0
10
67.652618
20
68.229949
30
0.0
11
67.931880
21
68.120347
31
0.0
0
ARC
8
0
10
65.697783
20
68.997165
30
0.0
40
2.400000
50
338.571429
51
21.428571
0
LINE
8
0
10
67.931880
20
69.873984
30
0.0
11
67.652618
21
69.764381
31
0.0
0
ARC
8
0
10
65.697783
20
68.997165
30
0.0
40
2.100000
50
21.428571
51
64.285714
0
LINE
8
0
10
66.608939
20
70.889200
30
0.0
11
66.739104
21
71.159490
31
0.0
0
ARC
8
0
10
65.697783
20
68.997165
30
0.0
40
2.400000
50
64.285714
51
107.142857
0
LINE
8
0
10
64.990371
20
71.290540
30
0.0
11
65.078797
21
71.003868
31
0.0
0
ARC
8
0
10
65.697783
20
68.997165
30
0.0
40
2.100000
50
107.142857
51
138.912511
0
ARC
8
0
10
63.738145
20
70.705913
30
0.0
40
0.500000
50
240.000000
51
318.912511
0
LINE
8
0
10
63.488145
20
70.272900
30
0.0
11
62.960540
21
70.577513
31
0.0
0
ARC
8
0
10
63.210540
20
71.010526
30
0.0
40
0.500000
50
141.010701
51
240.000000
0
ARC
8
0
10
65.697783
20
68.997165
30
0.0
40
3.700000
50
53.470393
51
141.010701
0
ARC
8
0
10
68.197783
20
72.372073
30
0.0
40
0.500000
50
233.470393
51
0.000000
0
LINE
8
0
10
68.697783
20
72.372073
30
0.0
11
68.697783
21
135.617373
31
0.0
0
ARC
8
0
10
68.197783
20
135.617373
30
0.0
40
0.500000
50
0.000000
51
126.529607
0
ARC
8
0
10
65.697783
20
138.992280
30
0.0
40
3.700000
50
218.989299
51
306.529607
0
ARC
8
0
10
63.210540
20
136.978919
30
0.0
40
0.500000
50
120.000000
51
218.989299
0
LINE
8
0
10
62.960540
20
137.411932
30
0.0
11
63.488145
21
137.716545
31
0.0
0
ARC
8
0
10
63.738145
20
137.283532
30
0.0
40
0.500000
50
41.087489
51
120.000000
0
ARC
8
0
10
65.697783
20
138.992280
30
0.0
40
2.100000
50
221.087489
51
252.857143
0
LINE
8
0
10
65.078797
20
136.985577
30
0.0
11
64.990371
21
136.698905
31
0.0
0
ARC
8
0
10
65.697783
20
138.992280
30
0.0
40
2.400000
50
252.857143
51
295.714286
0
LINE
8
0
10
66.739104
20
136.829955
30
0.0
11
66.608939
21
137.100246
31
0.0
0
ARC
8
0
10
65.697783
20
138.992280
30
0.0
40
2.100000
50
295.714286
51
338.571429
0
LINE
8
0
10
67.652618
20
138.225064
30
0.0
11
67.931880
21
138.115462
31
0.0
0
ARC
8
0
10
65.697783
20
138.992280
30
0.0
40
2.400000
50
338.571429
51
21.428571
0
LINE
8
0
10
67.931880
20
139.869099
30
0.0
11
67.652618
21
139.759496
31
0.0
0
ARC
8
0
10
65.697783
20
138.992280
30
0.0
40
2.100000
50
21.428571
51
64.285714
0
LINE
8
0
10
66.608939
20
140.884315
30
0.0
11
66.739104
21
141.154605
31
0.0
0
ARC
8
0
10
65.697783
20
138.992280
30
0.0
40
2.400000
50
64.285714
51
107.142857
0
LINE
8
0
10
64.990371
20
141.285655
30
0.0
11
65.078797
21
140.998983
31
0.0
0
ARC
8
0
10
65.697783
20
138.992280
30
0.0
40
2.100000
50
107.142857
51
138.912511
0
ARC
8
0
10
63.738145
20
140.701028
30
0.0
40
0.500000
50
240.000000
51
318.912511
0
LINE
8
0
10
63.488145
20
140.268015
30
0.0
11
62.960540
21
140.572628
31
0.0
0
ARC
8
0
10
63.210540
20
141.005641
30
0.0
40
0.500000
50
141.010701
51
240.000000
0
ARC
8
0
10
65.697783
20
138.992280
30
0.0
40
3.700000
50
53.470393
51
141.010701
0
ARC
8
0
10
68.197783
20
142.367188
30
0.0
40
0.500000
50
233.470393
51
0.000000
0
LINE
8
0
10
68.697783
20
142.367188
30
0.0
11
68.697783
21
144.790058
31
0.0
0
ARC
8
0
10
67.697783
20
144.790058
30
0.0
40
1.000000
50
0.000000
51
60.000000
0
LINE
8
0
10
68.197783
20
145.656083
30
0.0
11
66.697783
21
146.522109
31
0.0
0
ARC
8
0
10
67.197783
20
147.388134
30
0.0
40
1.000000
50
180.000000
51
240.000000
0
LINE
8
0
10
66.197783
20
147.388134
30
0.0
11
66.197783
21
148.542835
31
0.0
0
ARC
8
0
10
66.397783
20
148.542835
30
0.0
40
0.200000
50
60.000000
51
180.000000
0
LINE
8
0
10
66.497783
20
148.716040
30
0.0
11
68.028168
21
147.832472
31
0.0
0
ARC
8
0
10
68.178168
20
148.092279
30
0.0
40
0.300000
50
240.000000
51
270.000000
0
LINE
8
0
10
68.178168
20
147.792279
30
0.0
11
68.397783
21
147.792279
31
0.0
0
ARC
8
0
10
68.397783
20
148.092279
30
0.0
40
0.300000
50
270.000000
51
0.000000
0
LINE
8
0
10
68.697783
20
148.092279
30
0.0
11
68.697783
21
152.126594
31
0.0
0
ARC
8
0
10
68.597783
20
152.409436
30
0.0
40
0.300000
50
289.471221
51
70.528779
0
LINE
8
0
10
68.697783
20
152.692279
30
0.0
11
68.659501
21
152.692279
31
0.0
0
ARC
8
0
10
68.659501
20
152.092279
30
0.0
40
0.600000
50
90.000000
51
122.401721
0
LINE
8
0
10
68.337990
20
152.598866
30
0.0
11
66.629893
21
151.514803
31
0.0
0
LINE
8
0
10
66.629893
20
151.514803
30
0.0
11
66.641990
21
151.226382
31
0.0
0
ARC
8
0
10
66.442166
20
151.218000
30
0.0
40
0.200000
50
242.401721
51
0.000000
0
LINE
8
0
10
66.349512
20
151.040757
30
0.0
11
66.068442
21
151.187686
31
0.0
0
ARC
8
0
10
66.439057
20
151.896660
30
0.0
40
0.800000
50
197.401721
51
242.401721
0
LINE
8
0
10
65.675672
20
151.657405
30
0.0
11
65.073708
21
153.578073
31
0.0
0
ARC
8
0
10
65.359977
20
153.667794
30
0.0
40
0.300000
50
90.000000
51
197.401721
0
LINE
8
0
10
65.359977
20
153.967794
30
0.0
11
66.911071
21
153.967794
31
0.0
0
ARC
8
0
10
66.912473
20
153.767799
30
0.0
40
0.200000
50
29.632658
51
90.000000
0
ARC
8
0
10
67.347080
20
154.015018
30
0.0
40
0.300000
50
209.632658
51
287.401721
0
LINE
8
0
10
67.436801
20
153.728748
30
0.0
11
68.474247
21
154.002204
31
0.0
0
ARC
8
0
10
68.397783
20
154.292296
30
0.0
40
0.300000
50
284.766462
51
0.000000
0
LINE
8
0
10
24.800000
20
152.200000
30
0.0
11
24.453590
21
152.400000
31
0.0
0
LINE
8
0
10
24.453590
20
152.400000
30
0.0
11
22.100000
21
152.400000
31
0.0
0
ARC
8
0
10
22.100000
20
152.100000
30
0.0
40
0.300000
50
90.000000
51
180.000000
0
LINE
8
0
10
21.800000
20
152.100000
30
0.0
11
21.800000
21
55.899723
31
0.0
0
ARC
8
0
10
22.100000
20
55.899723
30
0.0
40
0.300000
50
180.000000
51
270.000000
0
LINE
8
0
10
22.100000
20
55.599723
30
0.0
11
24.453590
21
55.599723
31
0.0
0
LINE
8
0
10
24.453590
20
55.599723
30
0.0
11
24.800000
21
55.799723
31
0.0
0
LINE
8
0
10
24.800000
20
55.799723
30
0.0
11
29.597783
21
55.799723
31
0.0
0
ARC
8
0
10
29.597783
20
56.099723
30
0.0
40
0.300000
50
270.000000
51
0.000000
0
LINE
8
0
10
29.897783
20
56.099723
30
0.0
11
29.897783
21
151.900000
31
0.0
0
ARC
8
0
10
29.597783
20
151.900000
30
0.0
40
0.300000
50
0.000000
51
90.000000
0
LINE
8
0
10
29.597783
20
152.200000
30
0.0
11
24.800000
21
152.200000
31
0.0
0
LINE
8
0
10
22.782509
20
153.999723
30
0.0
11
31.957918
21
153.999723
31
0.0
0
LINE
8
0
10
31.957918
20
153.999723
30
0.0
11
32.958765
21
153.735914
31
0.0
0
ARC
8
0
10
33.048486
20
154.022184
30
0.0
40
0.300000
50
252.598279
51
330.367342
0
ARC
8
0
10
33.483093
20
153.774965
30
0.0
40
0.200000
50
90.000000
51
150.367342
0
LINE
8
0
10
33.484495
20
153.974960
30
0.0
11
35.035589
21
153.974960
31
0.0
0
ARC
8
0
10
35.035589
20
153.674960
30
0.0
40
0.300000
50
342.598279
51
90.000000
0
LINE
8
0
10
35.321858
20
153.585239
30
0.0
11
34.719894
21
151.664570
31
0.0
0
ARC
8
0
10
33.956509
20
151.903826
30
0.0
40
0.800000
50
297.598279
51
342.598279
0
LINE
8
0
10
34.327124
20
151.194852
30
0.0
11
34.046054
21
151.047923
31
0.0
0
ARC
8
0
10
33.953400
20
151.225166
30
0.0
40
0.200000
50
180.000000
51
297.598279
0
LINE
8
0
10
33.753576
20
151.233547
30
0.0
11
33.765673
21
151.521969
31
0.0
0
LINE
8
0
10
33.765673
20
151.521969
30
0.0
11
32.057576
21
152.606032
31
0.0
0
ARC
8
0
10
31.736065
20
152.099445
30
0.0
40
0.600000
50
57.598279
51
90.000000
0
LINE
8
0
10
31.736065
20
152.699445
30
0.0
11
31.697783
21
152.699445
31
0.0
0
ARC
8
0
10
31.797783
20
152.416602
30
0.0
40
0.300000
50
109.471221
51
250.528779
0
LINE
8
0
10
31.697783
20
152.133760
30
0.0
11
31.697783
21
148.100000
31
0.0
0
ARC
8
0
10
31.997783
20
148.100000
30
0.0
40
0.300000
50
180.000000
51
270.000000
0
LINE
8
0
10
31.997783
20
147.800000
30
0.0
11
32.217398
21
147.800000
31
0.0
0
ARC
8
0
10
32.217398
20
148.100000
30
0.0
40
0.300000
50
270.000000
51
301.373538
0
LINE
8
0
10
32.373583
20
147.843863
30
0.0
11
33.893660
21
148.770759
31
0.0
0
ARC
8
0
10
33.997783
20
148.600000
30
0.0
40
0.200000
50
0.000000
51
121.373538
0
LINE
8
0
10
34.197783
20
148.600000
30
0.0
11
34.197783
21
147.409437
31
0.0
0
ARC
8
0
10
33.197783
20
147.409437
30
0.0
40
1.000000
50
301.373538
51
0.000000
0
LINE
8
0
10
33.718398
20
146.555646
30
0.0
11
32.177168
21
145.615852
31
0.0
0
ARC
8
0
10
32.697783
20
144.762060
30
0.0
40
1.000000
50
121.373539
51
180.000000
0
LINE
8
0
10
31.697783
20
144.762060
30
0.0
11
31.697783
21
63.237385
31
0.0
0
ARC
8
0
10
32.697783
20
63.237385
30
0.0
40
1.000000
50
180.000000
51
238.626461
0
LINE
8
0
10
32.177168
20
62.383594
30
0.0
11
33.718398
21
61.443799
31
0.0
0
ARC
8
0
10
33.197783
20
60.590008
30
0.0
40
1.000000
50
0.000000
51
58.626462
0
LINE
8
0
10
34.197783
20
60.590008
30
0.0
11
34.197783
21
59.399445
31
0.0
0
ARC
8
0
10
33.997783
20
59.399445
30
0.0
40
0.200000
50
238.626462
51
0.000000
0
LINE
8
0
10
33.893660
20
59.228687
30
0.0
11
32.373583
21
60.155582
31
0.0
0
ARC
8
0
10
32.217398
20
59.899445
30
0.0
40
0.300000
50
58.626462
51
90.000000
0
LINE
8
0
10
32.217398
20
60.199445
30
0.0
11
31.997783
21
60.199445
31
0.0
0
ARC
8
0
10
31.997783
20
59.899445
30
0.0
40
0.300000
50
90.000000
51
180.000000
0
LINE
8
0
10
31.697783
20
59.899445
30
0.0
11
31.697783
21
55.865686
31
0.0
0
ARC
8
0
10
31.797783
20
55.582843
30
0.0
40
0.300000
50
109.471227
51
250.528773
0
LINE
8
0
10
31.697783
20
55.300000
30
0.0
11
31.736065
21
55.300000
31
0.0
0
ARC
8
0
10
31.736065
20
55.900000
30
0.0
40
0.600000
50
270.000000
51
302.401721
0
LINE
8
0
10
32.057576
20
55.393413
30
0.0
11
33.765673
21
56.477476
31
0.0
0
LINE
8
0
10
33.765673
20
56.477476
30
0.0
11
33.753576
21
56.765898
31
0.0
0
ARC
8
0
10
33.953400
20
56.774279
30
0.0
40
0.200000
50
62.401721
51
180.000000
0
LINE
8
0
10
34.046054
20
56.951523
30
0.0
11
34.327124
21
56.804593
31
0.0
0
ARC
8
0
10
33.956509
20
56.095619
30
0.0
40
0.800000
50
17.401721
51
62.401721
0
LINE
8
0
10
34.719894
20
56.334875
30
0.0
11
35.321858
21
54.414206
31
0.0
0
ARC
8
0
10
35.035589
20
54.324485
30
0.0
40
0.300000
50
270.000000
51
17.401721
0
LINE
8
0
10
35.035589
20
54.024485
30
0.0
11
33.484495
21
54.024485
31
0.0
0
ARC
8
0
10
33.483093
20
54.224480
30
0.0
40
0.200000
50
209.632658
51
270.000000
0
ARC
8
0
10
33.048486
20
53.977262
30
0.0
40
0.300000
50
29.632658
51
107.401721
0
LINE
8
0
10
32.958765
20
54.263531
30
0.0
11
31.996562
21
54.009908
31
0.0
0
LINE
8
0
10
31.920098
20
54.000000
30
0.0
11
31.996562
21
54.009908
31
0.0
0
LINE
8
0
10
31.920098
20
54.000000
30
0.0
11
22.782509
21
54.000000
31
0.0
0
ARC
8
0
10
22.782509
20
53.000000
30
0.0
40
1.000000
50
90.000000
51
178.989003
0
LINE
8
0
10
21.782664
20
53.017645
30
0.0
11
21.500000
21
37.000000
31
0.0
0
LINE
8
0
10
21.500000
20
37.000000
30
0.0
11
21.500000
21
34.300000
31
0.0
0
ARC
8
0
10
21.800000
20
34.300000
30
0.0
40
0.300000
50
180.000000
51
270.000000
0
LINE
8
0
10
21.800000
20
34.000000
30
0.0
11
22.900000
21
34.000000
31
0.0
0
ARC
8
0
10
22.900000
20
34.300000
30
0.0
40
0.300000
50
270.000000
51
0.000000
0
LINE
8
0
10
23.200000
20
34.300000
30
0.0
11
23.200000
21
35.200000
31
0.0
0
ARC
8
0
10
23.500000
20
35.200000
30
0.0
40
0.300000
50
90.000000
51
180.000000
0
LINE
8
0
10
23.500000
20
35.500000
30
0.0
11
23.900000
21
35.500000
31
0.0
0
ARC
8
0
10
23.900000
20
35.200000
30
0.0
40
0.300000
50
0.000000
51
90.000000
0
LINE
8
0
10
24.200000
20
35.200000
30
0.0
11
24.200000
21
32.200000
31
0.0
0
ARC
8
0
10
23.500000
20
32.200000
30
0.0
40
0.700000
50
270.000000
51
0.000000
0
ARC
8
0
10
23.500000
20
31.800000
30
0.0
40
0.300000
50
180.000000
51
270.000000
0
LINE
8
0
10
23.200000
20
31.800000
30
0.0
11
23.200000
21
32.500000
31
0.0
0
ARC
8
0
10
22.900000
20
32.500000
30
0.0
40
0.300000
50
0.000000
51
90.000000
0
LINE
8
0
10
22.900000
20
32.800000
30
0.0
11
22.000000
21
32.800000
31
0.0
0
ARC
8
0
10
22.000000
20
32.100000
30
0.0
40
0.700000
50
90.000000
51
180.000000
0
LINE
8
0
10
21.300000
20
32.100000
30
0.0
11
21.300000
21
25.900000
31
0.0
0
ARC
8
0
10
22.000000
20
25.900000
30
0.0
40
0.700000
50
180.000000
51
270.000000
0
LINE
8
0
10
22.000000
20
25.200000
30
0.0
11
22.900000
21
25.200000
31
0.0
0
ARC
8
0
10
22.900000
20
25.500000
30
0.0
40
0.300000
50
270.000000
51
0.000000
0
LINE
8
0
10
23.200000
20
25.500000
30
0.0
11
23.200000
21
26.200000
31
0.0
0
ARC
8
0
10
23.500000
20
26.200000
30
0.0
40
0.300000
50
90.000000
51
180.000000
0
ARC
8
0
10
23.500000
20
25.800000
30
0.0
40
0.700000
50
0.000000
51
90.000000
0
LINE
8
0
10
24.200000
20
25.800000
30
0.0
11
24.200000
21
24.300000
31
0.0
0
ARC
8
0
10
23.900000
20
24.300000
30
0.0
40
0.300000
50
270.000000
51
0.000000
0
LINE
8
0
10
23.900000
20
24.000000
30
0.0
11
20.300000
21
24.000000
31
0.0
0
ARC
8
0
10
20.300000
20
24.300000
30
0.0
40
0.300000
50
180.000000
51
270.000000
0
LINE
8
0
10
20.000000
20
24.300000
30
0.0
11
20.000000
21
183.699723
31
0.0
0
ARC
8
0
10
20.300000
20
183.699723
30
0.0
40
0.300000
50
90.000000
51
180.000000
0
LINE
8
0
10
20.300000
20
183.999723
30
0.0
11
23.900000
21
183.999723
31
0.0
0
ARC
8
0
10
23.900000
20
183.699723
30
0.0
40
0.300000
50
0.000000
51
90.000000
0
LINE
8
0
10
24.200000
20
183.699723
30
0.0
11
24.200000
21
182.199723
31
0.0
0
ARC
8
0
10
23.500000
20
182.199723
30
0.0
40
0.700000
50
270.000000
51
0.000000
0
ARC
8
0
10
23.500000
20
181.799723
30
0.0
40
0.300000
50
180.000000
51
270.000000
0
LINE
8
0
10
23.200000
20
181.799723
30
0.0
11
23.200000
21
182.499723
31
0.0
0
ARC
8
0
10
22.900000
20
182.499723
30
0.0
40
0.300000
50
0.000000
51
90.000000
0
LINE
8
0
10
22.900000
20
182.799723
30
0.0
11
22.000000
21
182.799723
31
0.0
0
ARC
8
0
10
22.000000
20
182.099723
30
0.0
40
0.700000
50
90.000000
51
180.000000
0
LINE
8
0
10
21.300000
20
182.099723
30
0.0
11
21.300000
21
175.899723
31
0.0
0
ARC
8
0
10
22.000000
20
175.899723
30
0.0
40
0.700000
50
180.000000
51
270.000000
0
LINE
8
0
10
22.000000
20
175.199723
30
0.0
11
22.900000
21
175.199723
31
0.0
0
ARC
8
0
10
22.900000
20
175.499723
30
0.0
40
0.300000
50
270.000000
51
0.000000
0
LINE
8
0
10
23.200000
20
175.499723
30
0.0
11
23.200000
21
176.199723
31
0.0
0
ARC
8
0
10
23.500000
20
176.199723
30
0.0
40
0.300000
50
90.000000
51
180.000000
0
ARC
8
0
10
23.500000
20
175.799723
30
0.0
40
0.700000
50
0.000000
51
90.000000
0
LINE
8
0
10
24.200000
20
175.799723
30
0.0
11
24.200000
21
172.799723
31
0.0
0
ARC
8
0
10
23.900000
20
172.799723
30
0.0
40
0.300000
50
270.000000
51
0.000000
0
LINE
8
0
10
23.900000
20
172.499723
30
0.0
11
23.500000
21
172.499723
31
0.0
0
ARC
8
0
10
23.500000
20
172.799723
30
0.0
40
0.300000
50
180.000000
51
270.000000
0
LINE
8
0
10
23.200000
20
172.799723
30
0.0
11
23.200000
21
173.699723
31
0.0
0
ARC
8
0
10
22.900000
20
173.699723
30
0.0
40
0.300000
50
0.000000
51
90.000000
0
LINE
8
0
10
22.900000
20
173.999723
30
0.0
11
21.800000
21
173.999723
31
0.0
0
ARC
8
0
10
21.800000
20
173.699723
30
0.0
40
0.300000
50
90.000000
51
180.000000
0
LINE
8
0
10
21.500000
20
173.699723
30
0.0
11
21.500000
21
170.999723
31
0.0
0
LINE
8
0
10
21.500000
20
170.999723
30
0.0
11
21.782664
21
154.982078
31
0.0
0
ARC
8
0
10
22.782509
20
154.999723
30
0.0
40
1.000000
50
181.010997
51
270.000000
0
LINE
8
0
10
48.497788
20
68.789637
30
0.0
11
48.663708
21
68.170415
31
0.0
0
ARC
8
0
10
47.697782
20
67.911596
30
0.0
40
1.000000
50
0.000000
51
15.000000
0
LINE
8
0
10
48.697782
20
67.911596
30
0.0
11
48.697782
21
57.735540
31
0.0
0
ARC
8
0
10
47.697782
20
57.735540
30
0.0
40
1.000000
50
338.260625
51
0.000000
0
LINE
8
0
10
48.626660
20
57.365155
30
0.0
11
48.209612
21
56.319252
31
0.0
0
ARC
8
0
10
47.280734
20
56.689637
30
0.0
40
1.000000
50
270.000000
51
338.260625
0
LINE
8
0
10
47.280734
20
55.689637
30
0.0
11
41.197782
21
55.689637
31
0.0
0
ARC
8
0
10
41.197782
20
55.789637
30
0.0
40
0.100000
50
180.000000
51
270.000000
0
ARC
8
0
10
40.697782
20
55.789637
30
0.0
40
0.400000
50
0.000000
51
90.000000
0
ARC
8
0
10
40.697782
20
55.789637
30
0.0
40
0.400000
50
90.000000
51
180.000000
0
ARC
8
0
10
40.197782
20
55.789637
30
0.0
40
0.100000
50
270.000000
51
0.000000
0
LINE
8
0
10
40.197782
20
55.689637
30
0.0
11
38.475565
21
55.689637
31
0.0
0
ARC
8
0
10
38.475565
20
56.889637
30
0.0
40
1.200000
50
200.000000
51
270.000000
0
LINE
8
0
10
37.347933
20
56.479213
30
0.0
11
36.637302
21
58.431657
31
0.0
0
ARC
8
0
10
35.697609
20
58.089637
30
0.0
40
1.000000
50
20.000000
51
90.000000
0
LINE
8
0
10
35.697609
20
59.089637
30
0.0
11
34.585782
21
59.089637
31
0.0
0
ARC
8
0
10
34.585782
20
60.289637
30
0.0
40
1.200000
50
240.018361
51
270.000000
0
LINE
8
0
10
33.986115
20
59.250215
30
0.0
11
32.404171
21
60.162874
31
0.0
0
ARC
8
0
10
32.304227
20
59.989637
30
0.0
40
0.200000
50
60.018361
51
90.000000
0
LINE
8
0
10
32.304227
20
60.189637
30
0.0
11
32.097782
21
60.189637
31
0.0
0
ARC
8
0
10
32.097782
20
59.789637
30
0.0
40
0.400000
50
90.000000
51
180.000000
0
LINE
8
0
10
31.697782
20
59.789637
30
0.0
11
31.697782
21
59.362842
31
0.0
0
ARC
8
0
10
31.897782
20
59.362842
30
0.0
40
0.200000
50
180.000000
51
240.000000
0
LINE
8
0
10
31.797782
20
59.189637
30
0.0
11
31.797782
21
58.814637
31
0.0
0
ARC
8
0
10
31.997782
20
58.814637
30
0.0
40
0.200000
50
180.000000
51
270.000000
0
LINE
8
0
10
31.997782
20
58.614637
30
0.0
11
32.109588
21
58.614637
31
0.0
0
LINE
8
0
10
32.109588
20
58.614637
30
0.0
11
32.194137
21
58.633387
31
0.0
0
ARC
8
0
10
32.447782
20
58.089637
30
0.0
40
0.600000
50
0.000000
51
115.007833
0
ARC
8
0
10
32.447782
20
58.089637
30
0.0
40
0.600000
50
244.992167
51
0.000000
0
LINE
8
0
10
32.194137
20
57.545887
30
0.0
11
32.109588
21
57.564637
31
0.0
0
LINE
8
0
10
32.109588
20
57.564637
30
0.0
11
31.997782
21
57.564637
31
0.0
0
ARC
8
0
10
31.997782
20
57.364637
30
0.0
40
0.200000
50
90.000000
51
180.000000
0
LINE
8
0
10
31.797782
20
57.364637
30
0.0
11
31.797782
21
56.989637
31
0.0
0
ARC
8
0
10
31.897782
20
56.816432
30
0.0
40
0.200000
50
120.000000
51
180.000000
0
LINE
8
0
10
31.697782
20
56.816432
30
0.0
11
31.697782
21
56.389637
31
0.0
0
ARC
8
0
10
32.097782
20
56.389637
30
0.0
40
0.400000
50
180.000000
51
270.000000
0
LINE
8
0
10
32.097782
20
55.989637
30
0.0
11
32.304227
21
55.989637
31
0.0
0
ARC
8
0
10
32.304227
20
56.189637
30
0.0
40
0.200000
50
270.000000
51
299.981639
0
LINE
8
0
10
32.404171
20
56.016400
30
0.0
11
33.986115
21
56.929060
31
0.0
0
ARC
8
0
10
34.585782
20
55.889637
30
0.0
40
1.200000
50
90.000000
51
119.981639
0
LINE
8
0
10
34.585782
20
57.089637
30
0.0
11
34.647845
21
57.089637
31
0.0
0
ARC
8
0
10
34.647845
20
56.589637
30
0.0
40
0.500000
50
17.401721
51
90.000000
0
LINE
8
0
10
35.124961
20
56.739172
30
0.0
11
36.053864
21
54.187031
31
0.0
0
ARC
8
0
10
36.335772
20
54.289637
30
0.0
40
0.300000
50
200.000000
51
270.000000
0
LINE
8
0
10
36.335772
20
53.989637
30
0.0
11
64.059793
21
53.989637
31
0.0
0
ARC
8
0
10
64.059793
20
54.289637
30
0.0
40
0.300000
50
270.000000
51
340.000000
0
LINE
8
0
10
64.341700
20
54.187031
30
0.0
11
65.270604
21
56.739172
31
0.0
0
ARC
8
0
10
65.747719
20
56.589637
30
0.0
40
0.500000
50
90.000000
51
162.598279
0
LINE
8
0
10
65.747719
20
57.089637
30
0.0
11
65.809783
21
57.089637
31
0.0
0
ARC
8
0
10
65.809783
20
55.889637
30
0.0
40
1.200000
50
60.018361
51
90.000000
0
LINE
8
0
10
66.409449
20
56.929060
30
0.0
11
67.991393
21
56.016400
31
0.0
0
ARC
8
0
10
68.091338
20
56.189637
30
0.0
40
0.200000
50
240.018361
51
270.000000
0
LINE
8
0
10
68.091338
20
55.989637
30
0.0
11
68.297782
21
55.989637
31
0.0
0
ARC
8
0
10
68.297782
20
56.389637
30
0.0
40
0.400000
50
270.000000
51
0.000000
0
LINE
8
0
10
68.697782
20
56.389637
30
0.0
11
68.697782
21
56.816432
31
0.0
0
ARC
8
0
10
68.497782
20
56.816432
30
0.0
40
0.200000
50
0.000000
51
60.000000
0
LINE
8
0
10
68.597782
20
56.989637
30
0.0
11
68.597782
21
57.364637
31
0.0
0
ARC
8
0
10
68.397782
20
57.364637
30
0.0
40
0.200000
50
0.000000
51
90.000000
0
LINE
8
0
10
68.397782
20
57.564637
30
0.0
11
68.285976
21
57.564637
31
0.0
0
LINE
8
0
10
68.285976
20
57.564637
30
0.0
11
68.201427
21
57.545887
31
0.0
0
ARC
8
0
10
67.947782
20
58.089637
30
0.0
40
0.600000
50
180.000000
51
295.007833
0
ARC
8
0
10
67.947782
20
58.089637
30
0.0
40
0.600000
50
64.992167
51
180.000000
0
LINE
8
0
10
68.201427
20
58.633387
30
0.0
11
68.285976
21
58.614637
31
0.0
0
LINE
8
0
10
68.285976
20
58.614637
30
0.0
11
68.397782
21
58.614637
31
0.0
0
ARC
8
0
10
68.397782
20
58.814637
30
0.0
40
0.200000
50
270.000000
51
0.000000
0
LINE
8
0
10
68.597782
20
58.814637
30
0.0
11
68.597782
21
59.189637
31
0.0
0
ARC
8
0
10
68.497782
20
59.362842
30
0.0
40
0.200000
50
300.000000
51
0.000000
0
LINE
8
0
10
68.697782
20
59.362842
30
0.0
11
68.697782
21
59.789637
31
0.0
0
ARC
8
0
10
68.297782
20
59.789637
30
0.0
40
0.400000
50
0.000000
51
90.000000
0
LINE
8
0
10
68.297782
20
60.189637
30
0.0
11
68.091338
21
60.189637
31
0.0
0
ARC
8
0
10
68.091338
20
59.989637
30
0.0
40
0.200000
50
90.000000
51
119.981639
0
LINE
8
0
10
67.991393
20
60.162874
30
0.0
11
66.409449
21
59.250215
31
0.0
0
ARC
8
0
10
65.809783
20
60.289637
30
0.0
40
1.200000
50
270.000000
51
299.981639
0
LINE
8
0
10
65.809783
20
59.089637
30
0.0
11
64.697955
21
59.089637
31
0.0
0
ARC
8
0
10
64.697955
20
58.089637
30
0.0
40
1.000000
50
90.000000
51
160.000000
0
LINE
8
0
10
63.758262
20
58.431657
30
0.0
11
63.047631
21
56.479213
31
0.0
0
ARC
8
0
10
61.920000
20
56.889637
30
0.0
40
1.200000
50
270.000000
51
340.000000
0
LINE
8
0
10
61.920000
20
55.689637
30
0.0
11
51.114434
21
55.689637
31
0.0
0
ARC
8
0
10
51.114434
20
56.689637
30
0.0
40
1.000000
50
201.938469
51
270.000000
0
LINE
8
0
10
50.186848
20
56.316027
30
0.0
11
49.770197
21
57.350472
31
0.0
0
ARC
8
0
10
50.697782
20
57.724083
30
0.0
40
1.000000
50
180.000000
51
201.938469
0
LINE
8
0
10
49.697782
20
57.724083
30
0.0
11
49.697782
21
67.911553
31
0.0
0
ARC
8
0
10
50.697782
20
67.911553
30
0.0
40
1.000000
50
165.000000
51
180.000000
0
LINE
8
0
10
49.731856
20
68.170372
30
0.0
11
49.897788
21
68.789637
31
0.0
0
LINE
8
0
10
49.897788
20
68.789637
30
0.0
11
49.897788
21
69.489637
31
0.0
0
ARC
8
0
10
49.597788
20
69.489637
30
0.0
40
0.300000
50
0.000000
51
90.000000
0
LINE
8
0
10
49.597788
20
69.789637
30
0.0
11
48.797788
21
69.789637
31
0.0
0
ARC
8
0
10
48.797788
20
69.489637
30
0.0
40
0.300000
50
90.000000
51
180.000000
0
LINE
8
0
10
48.497788
20
69.489637
30
0.0
11
48.497788
21
68.789637
31
0.0
0
LINE
8
0
10
70.497783
20
55.597165
30
0.0
11
84.897783
21
55.597165
31
0.0
0
ARC
8
0
10
84.897783
20
55.897165
30
0.0
40
0.300000
50
270.000000
51
0.000000
0
LINE
8
0
10
85.197783
20
55.897165
30
0.0
11
85.197783
21
152.092280
31
0.0
0
ARC
8
0
10
84.897783
20
152.092280
30
0.0
40
0.300000
50
0.000000
51
90.000000
0
LINE
8
0
10
84.897783
20
152.392280
30
0.0
11
70.497783
21
152.392280
31
0.0
0
ARC
8
0
10
70.497783
20
152.092280
30
0.0
40
0.300000
50
90.000000
51
180.000000
0
LINE
8
0
10
70.197783
20
152.092280
30
0.0
11
70.197783
21
138.092280
31
0.0
0
ARC
8
0
10
70.497783
20
138.092280
30
0.0
40
0.300000
50
180.000000
51
270.000000
0
LINE
8
0
10
70.497783
20
137.792280
30
0.0
11
77.697783
21
137.792280
31
0.0
0
ARC
8
0
10
77.697783
20
134.092280
30
0.0
40
3.700000
50
51.317813
51
90.000000
0
ARC
8
0
10
79.697783
20
136.590279
30
0.0
40
0.500000
50
0.000000
51
51.317813
0
LINE
8
0
10
80.197783
20
136.590279
30
0.0
11
80.197783
21
135.824331
31
0.0
0
ARC
8
0
10
79.697783
20
135.824331
30
0.0
40
0.500000
50
300.000000
51
0.000000
0
LINE
8
0
10
79.947783
20
135.391318
30
0.0
11
79.907421
21
135.368015
31
0.0
0
ARC
8
0
10
79.657421
20
135.801028
30
0.0
40
0.500000
50
221.087489
51
300.000000
0
ARC
8
0
10
77.697783
20
134.092280
30
0.0
40
2.100000
50
41.087489
51
72.857143
0
LINE
8
0
10
78.316769
20
136.098983
30
0.0
11
78.405195
21
136.385655
31
0.0
0
ARC
8
0
10
77.697783
20
134.092280
30
0.0
40
2.400000
50
72.857143
51
115.714286
0
LINE
8
0
10
76.656462
20
136.254605
30
0.0
11
76.786627
21
135.984315
31
0.0
0
ARC
8
0
10
77.697783
20
134.092280
30
0.0
40
2.100000
50
115.714286
51
158.571429
0
LINE
8
0
10
75.742948
20
134.859496
30
0.0
11
75.463686
21
134.969099
31
0.0
0
ARC
8
0
10
77.697783
20
134.092280
30
0.0
40
2.400000
50
158.571429
51
201.428571
0
LINE
8
0
10
75.463686
20
133.215462
30
0.0
11
75.742948
21
133.325064
31
0.0
0
ARC
8
0
10
77.697783
20
134.092280
30
0.0
40
2.100000
50
201.428571
51
244.285714
0
LINE
8
0
10
76.786627
20
132.200246
30
0.0
11
76.656462
21
131.929955
31
0.0
0
ARC
8
0
10
77.697783
20
134.092280
30
0.0
40
2.400000
50
244.285714
51
287.142857
0
LINE
8
0
10
78.405195
20
131.798905
30
0.0
11
78.316769
21
132.085577
31
0.0
0
ARC
8
0
10
77.697783
20
134.092280
30
0.0
40
2.100000
50
287.142857
51
318.912511
0
ARC
8
0
10
79.657421
20
132.383532
30
0.0
40
0.500000
50
60.000000
51
138.912511
0
LINE
8
0
10
79.907421
20
132.816545
30
0.0
11
79.947783
21
132.793242
31
0.0
0
ARC
8
0
10
79.697783
20
132.360229
30
0.0
40
0.500000
50
0.000000
51
60.000000
0
LINE
8
0
10
80.197783
20
132.360229
30
0.0
11
80.197783
21
131.594281
31
0.0
0
ARC
8
0
10
79.697783
20
131.594281
30
0.0
40
0.500000
50
308.682187
51
0.000000
0
ARC
8
0
10
77.697783
20
134.092280
30
0.0
40
3.700000
50
161.969465
51
308.682187
0
ARC
8
0
10
73.704038
20
135.392280
30
0.0
40
0.500000
50
341.969465
51
90.000000
0
LINE
8
0
10
73.704038
20
135.892280
30
0.0
11
70.497783
21
135.892280
31
0.0
0
ARC
8
0
10
70.497783
20
135.592280
30
0.0
40
0.300000
50
90.000000
51
180.000000
0
LINE
8
0
10
70.197783
20
135.592280
30
0.0
11
70.197783
21
72.397165
31
0.0
0
ARC
8
0
10
70.497783
20
72.397165
30
0.0
40
0.300000
50
180.000000
51
270.000000
0
LINE
8
0
10
70.497783
20
72.097165
30
0.0
11
73.704038
21
72.097165
31
0.0
0
ARC
8
0
10
73.704038
20
72.597165
30
0.0
40
0.500000
50
270.000000
51
18.030535
0
ARC
8
0
10
77.697783
20
73.897165
30
0.0
40
3.700000
50
51.317813
51
198.030535
0
ARC
8
0
10
79.697783
20
76.395164
30
0.0
40
0.500000
50
0.000000
51
51.317813
0
LINE
8
0
10
80.197783
20
76.395164
30
0.0
11
80.197783
21
75.629216
31
0.0
0
ARC
8
0
10
79.697783
20
75.629216
30
0.0
40
0.500000
50
300.000000
51
0.000000
0
LINE
8
0
10
79.947783
20
75.196203
30
0.0
11
79.907421
21
75.172900
31
0.0
0
ARC
8
0
10
79.657421
20
75.605913
30
0.0
40
0.500000
50
221.087489
51
300.000000
0
ARC
8
0
10
77.697783
20
73.897165
30
0.0
40
2.100000
50
41.087489
51
72.857143
0
LINE
8
0
10
78.316769
20
75.903868
30
0.0
11
78.405195
21
76.190540
31
0.0
0
ARC
8
0
10
77.697783
20
73.897165
30
0.0
40
2.400000
50
72.857143
51
115.714286
0
LINE
8
0
10
76.656462
20
76.059490
30
0.0
11
76.786627
21
75.789200
31
0.0
0
ARC
8
0
10
77.697783
20
73.897165
30
0.0
40
2.100000
50
115.714286
51
158.571429
0
LINE
8
0
10
75.742948
20
74.664381
30
0.0
11
75.463686
21
74.773984
31
0.0
0
ARC
8
0
10
77.697783
20
73.897165
30
0.0
40
2.400000
50
158.571429
51
201.428571
0
LINE
8
0
10
75.463686
20
73.020347
30
0.0
11
75.742948
21
73.129949
31
0.0
0
ARC
8
0
10
77.697783
20
73.897165
30
0.0
40
2.100000
50
201.428571
51
244.285714
0
LINE
8
0
10
76.786627
20
72.005130
30
0.0
11
76.656462
21
71.734840
31
0.0
0
ARC
8
0
10
77.697783
20
73.897165
30
0.0
40
2.400000
50
244.285714
51
287.142857
0
LINE
8
0
10
78.405195
20
71.603790
30
0.0
11
78.316769
21
71.890462
31
0.0
0
ARC
8
0
10
77.697783
20
73.897165
30
0.0
40
2.100000
50
287.142857
51
318.912511
0
ARC
8
0
10
79.657421
20
72.188417
30
0.0
40
0.500000
50
60.000000
51
138.912511
0
LINE
8
0
10
79.907421
20
72.621430
30
0.0
11
79.947783
21
72.598127
31
0.0
0
ARC
8
0
10
79.697783
20
72.165114
30
0.0
40
0.500000
50
0.000000
51
60.000000
0
LINE
8
0
10
80.197783
20
72.165114
30
0.0
11
80.197783
21
71.399166
31
0.0
0
ARC
8
0
10
79.697783
20
71.399166
30
0.0
40
0.500000
50
308.682187
51
0.000000
0
ARC
8
0
10
77.697783
20
73.897165
30
0.0
40
3.700000
50
270.000000
51
308.682187
0
LINE
8
0
10
77.697783
20
70.197165
30
0.0
11
70.497783
21
70.197165
31
0.0
0
ARC
8
0
10
70.497783
20
69.897165
30
0.0
40
0.300000
50
90.000000
51
180.000000
0
LINE
8
0
10
70.197783
20
69.897165
30
0.0
11
70.197783
21
55.897165
31
0.0
0
ARC
8
0
10
70.497783
20
55.897165
30
0.0
40
0.300000
50
180.000000
51
270.000000
0
ARC
8
0
10
38.483976
20
158.759541
30
0.0
40
0.200000
50
45.000000
51
90.000000
0
LINE
8
0
10
39.258240
20
158.268119
30
0.0
11
38.625397
21
158.900962
31
0.0
0
LINE
8
0
10
38.483976
20
158.959541
30
0.0
11
37.216819
21
158.959541
31
0.0
0
ARC
8
0
10
39.116819
20
158.126698
30
0.0
40
0.200000
50
0.000000
51
45.000000
0
ARC
8
0
10
37.216819
20
158.459541
30
0.0
40
0.500000
50
90.000000
51
180.000000
0
LINE
8
0
10
39.316819
20
157.659541
30
0.0
11
39.316819
21
158.126698
31
0.0
0
LINE
8
0
10
36.716819
20
158.459541
30
0.0
11
36.716819
21
154.309541
31
0.0
0
ARC
8
0
10
39.116819
20
157.659541
30
0.0
40
0.200000
50
270.000000
51
0.000000
0
ARC
8
0
10
36.416819
20
154.309541
30
0.0
40
0.300000
50
270.000000
51
0.000000
0
LINE
8
0
10
38.316819
20
157.459541
30
0.0
11
39.116819
21
157.459541
31
0.0
0
LINE
8
0
10
36.416819
20
154.009541
30
0.0
11
36.335773
21
154.009541
31
0.0
0
ARC
8
0
10
38.316819
20
157.259541
30
0.0
40
0.200000
50
90.000000
51
180.000000
0
ARC
8
0
10
36.335773
20
153.709541
30
0.0
40
0.300000
50
90.000000
51
160.000000
0
LINE
8
0
10
38.116819
20
154.471224
30
0.0
11
38.116819
21
157.259541
31
0.0
0
LINE
8
0
10
36.053865
20
153.812147
30
0.0
11
35.135233
21
151.288228
31
0.0
0
ARC
8
0
10
38.616819
20
154.471224
30
0.0
40
0.500000
50
180.000000
51
270.000000
0
ARC
8
0
10
34.665387
20
151.459238
30
0.0
40
0.500000
50
270.000000
51
340.000000
0
LINE
8
0
10
45.716819
20
153.971224
30
0.0
11
38.616819
21
153.971224
31
0.0
0
LINE
8
0
10
34.665392
20
150.959238
30
0.0
11
34.498848
21
150.959236
31
0.0
0
ARC
8
0
10
45.716819
20
154.471224
30
0.0
40
0.500000
50
270.000000
51
0.000000
0
ARC
8
0
10
34.498837
20
152.159236
30
0.0
40
1.200000
50
240.018361
51
270.000000
0
LINE
8
0
10
46.216819
20
157.259541
30
0.0
11
46.216819
21
154.471224
31
0.0
0
LINE
8
0
10
33.899171
20
151.119814
30
0.0
11
32.403926
21
151.982455
31
0.0
0
ARC
8
0
10
46.016819
20
157.259541
30
0.0
40
0.200000
50
0.000000
51
90.000000
0
ARC
8
0
10
32.303981
20
151.809218
30
0.0
40
0.200000
50
60.018361
51
90.000000
0
LINE
8
0
10
45.216819
20
157.459541
30
0.0
11
46.016819
21
157.459541
31
0.0
0
LINE
8
0
10
32.303981
20
152.009218
30
0.0
11
32.097537
21
152.009218
31
0.0
0
ARC
8
0
10
45.216819
20
157.659541
30
0.0
40
0.200000
50
180.000000
51
270.000000
0
ARC
8
0
10
32.097537
20
151.609218
30
0.0
40
0.400000
50
90.000000
51
180.000000
0
LINE
8
0
10
45.016819
20
158.126698
30
0.0
11
45.016819
21
157.659541
31
0.0
0
LINE
8
0
10
31.697537
20
151.609218
30
0.0
11
31.697537
21
151.182423
31
0.0
0
ARC
8
0
10
45.216819
20
158.126698
30
0.0
40
0.200000
50
135.000000
51
180.000000
0
ARC
8
0
10
31.897537
20
151.182423
30
0.0
40
0.200000
50
180.000000
51
240.000000
0
LINE
8
0
10
45.708240
20
158.900962
30
0.0
11
45.075397
21
158.268119
31
0.0
0
LINE
8
0
10
31.797537
20
151.009218
30
0.0
11
31.797537
21
150.634218
31
0.0
0
ARC
8
0
10
45.849661
20
158.759541
30
0.0
40
0.200000
50
90.000000
51
135.000000
0
ARC
8
0
10
31.997537
20
150.634218
30
0.0
40
0.200000
50
180.000000
51
270.000000
0
LINE
8
0
10
50.196626
20
158.959541
30
0.0
11
45.849661
21
158.959541
31
0.0
0
LINE
8
0
10
31.997537
20
150.434218
30
0.0
11
32.109343
21
150.434218
31
0.0
0
ARC
8
0
10
50.196626
20
158.759541
30
0.0
40
0.200000
50
45.000000
51
90.000000
0
LINE
8
0
10
32.109343
20
150.434218
30
0.0
11
32.193892
21
150.452968
31
0.0
0
LINE
8
0
10
50.970891
20
158.268119
30
0.0
11
50.338048
21
158.900962
31
0.0
0
ARC
8
0
10
32.447537
20
149.909218
30
0.0
40
0.600000
50
0.000000
51
115.007833
0
ARC
8
0
10
50.829469
20
158.126698
30
0.0
40
0.200000
50
0.000000
51
45.000000
0
ARC
8
0
10
32.447537
20
149.909218
30
0.0
40
0.600000
50
244.992167
51
0.000000
0
LINE
8
0
10
51.029469
20
157.659541
30
0.0
11
51.029469
21
158.126698
31
0.0
0
LINE
8
0
10
32.193892
20
149.365468
30
0.0
11
32.109343
21
149.384218
31
0.0
0
ARC
8
0
10
50.829469
20
157.659541
30
0.0
40
0.200000
50
270.000000
51
0.000000
0
LINE
8
0
10
32.109343
20
149.384218
30
0.0
11
31.997537
21
149.384218
31
0.0
0
LINE
8
0
10
47.816819
20
157.459541
30
0.0
11
50.829469
21
157.459541
31
0.0
0
ARC
8
0
10
31.997537
20
149.184218
30
0.0
40
0.200000
50
90.000000
51
180.000000
0
ARC
8
0
10
47.816819
20
157.259541
30
0.0
40
0.200000
50
90.000000
51
180.000000
0
LINE
8
0
10
31.797537
20
149.184218
30
0.0
11
31.797537
21
148.809218
31
0.0
0
LINE
8
0
10
47.616819
20
151.471224
30
0.0
11
47.616819
21
157.259541
31
0.0
0
ARC
8
0
10
31.897537
20
148.636013
30
0.0
40
0.200000
50
120.000000
51
180.000000
0
ARC
8
0
10
48.616819
20
151.471224
30
0.0
40
1.000000
50
180.000000
51
270.000000
0
LINE
8
0
10
31.697537
20
148.636013
30
0.0
11
31.697537
21
148.209218
31
0.0
0
LINE
8
0
10
53.448144
20
150.471224
30
0.0
11
48.616819
21
150.471224
31
0.0
0
ARC
8
0
10
32.097537
20
148.209218
30
0.0
40
0.400000
50
180.000000
51
270.000000
0
LINE
8
0
10
53.648144
20
150.271224
30
0.0
11
53.448144
21
150.471224
31
0.0
0
LINE
8
0
10
32.097537
20
147.809218
30
0.0
11
32.303981
21
147.809218
31
0.0
0
LINE
8
0
10
53.848144
20
150.471224
30
0.0
11
53.648144
21
150.271224
31
0.0
0
ARC
8
0
10
32.303981
20
148.009218
30
0.0
40
0.200000
50
270.000000
51
299.981639
0
LINE
8
0
10
58.679469
20
150.471224
30
0.0
11
53.848144
21
150.471224
31
0.0
0
LINE
8
0
10
32.403926
20
147.835981
30
0.0
11
33.899235
21
148.698659
31
0.0
0
ARC
8
0
10
58.679469
20
151.471224
30
0.0
40
1.000000
50
270.000000
51
0.000000
0
ARC
8
0
10
34.498902
20
147.659236
30
0.0
40
1.200000
50
90.000000
51
119.981639
0
LINE
8
0
10
59.679469
20
157.259541
30
0.0
11
59.679469
21
151.471224
31
0.0
0
LINE
8
0
10
34.498891
20
148.859236
30
0.0
11
35.679314
21
148.859247
31
0.0
0
ARC
8
0
10
59.479469
20
157.259541
30
0.0
40
0.200000
50
0.000000
51
90.000000
0
ARC
8
0
10
35.679305
20
149.859247
30
0.0
40
1.000000
50
270.000000
51
340.000000
0
LINE
8
0
10
56.929469
20
157.459541
30
0.0
11
59.479469
21
157.459541
31
0.0
0
LINE
8
0
10
36.618997
20
149.517227
30
0.0
11
37.333988
21
151.481648
31
0.0
0
ARC
8
0
10
56.929469
20
157.659541
30
0.0
40
0.200000
50
180.000000
51
270.000000
0
ARC
8
0
10
38.461619
20
151.071224
30
0.0
40
1.200000
50
90.000000
51
160.000000
0
LINE
8
0
10
56.729469
20
158.126698
30
0.0
11
56.729469
21
157.659541
31
0.0
0
LINE
8
0
10
38.461619
20
152.271224
30
0.0
11
43.820794
21
152.271224
31
0.0
0
ARC
8
0
10
56.929469
20
158.126698
30
0.0
40
0.200000
50
135.000000
51
180.000000
0
ARC
8
0
10
43.820794
20
150.271224
30
0.0
40
2.000000
50
0.000000
51
90.000000
0
LINE
8
0
10
57.420891
20
158.900962
30
0.0
11
56.788048
21
158.268119
31
0.0
0
LINE
8
0
10
45.820794
20
150.271224
30
0.0
11
45.820794
21
149.971224
31
0.0
0
ARC
8
0
10
57.562312
20
158.759541
30
0.0
40
0.200000
50
90.000000
51
135.000000
0
ARC
8
0
10
47.320794
20
149.971224
30
0.0
40
1.500000
50
180.000000
51
270.000000
0
LINE
8
0
10
60.579469
20
158.959541
30
0.0
11
57.562312
21
158.959541
31
0.0
0
LINE
8
0
10
47.320794
20
148.471224
30
0.0
11
60.333122
21
148.471224
31
0.0
0
ARC
8
0
10
60.579469
20
158.459541
30
0.0
40
0.500000
50
0.000000
51
90.000000
0
ARC
8
0
10
60.333122
20
148.971224
30
0.0
40
0.500000
50
270.000000
51
341.953701
0
LINE
8
0
10
61.079469
20
154.509541
30
0.0
11
61.079469
21
158.459541
31
0.0
0
LINE
8
0
10
60.808526
20
148.816331
30
0.0
11
61.736475
21
151.664433
31
0.0
0
ARC
8
0
10
61.579469
20
154.509541
30
0.0
40
0.500000
50
180.000000
51
270.000000
0
ARC
8
0
10
62.211878
20
151.509541
30
0.0
40
0.500000
50
90.000000
51
161.953701
0
LINE
8
0
10
64.059793
20
154.009541
30
0.0
11
61.579469
21
154.009541
31
0.0
0
LINE
8
0
10
62.211878
20
152.009541
30
0.0
11
62.519337
21
152.009541
31
0.0
0
ARC
8
0
10
64.059793
20
153.709541
30
0.0
40
0.300000
50
20.000000
51
90.000000
0
ARC
8
0
10
62.519337
20
151.509541
30
0.0
40
0.500000
50
20.000000
51
90.000000
0
LINE
8
0
10
65.260222
20
151.288531
30
0.0
11
64.341701
21
153.812147
31
0.0
0
LINE
8
0
10
62.989183
20
151.680551
30
0.0
11
63.776462
21
149.517521
31
0.0
0
ARC
8
0
10
65.730069
20
151.459541
30
0.0
40
0.500000
50
200.000000
51
270.000000
0
ARC
8
0
10
64.716154
20
149.859541
30
0.0
40
1.000000
50
200.000000
51
270.000000
0
LINE
8
0
10
65.848224
20
150.959541
30
0.0
11
65.730069
21
150.959541
31
0.0
0
LINE
8
0
10
64.716154
20
148.859541
30
0.0
11
65.950006
21
148.859541
31
0.0
0
LINE
8
0
10
66.003561
20
150.959541
30
0.0
11
65.848224
21
150.959541
31
0.0
0
ARC
8
0
10
65.950006
20
147.859541
30
0.0
40
1.000000
50
60.018361
51
90.000000
0
ARC
8
0
10
66.003561
20
151.759541
30
0.0
40
0.800000
50
270.000000
51
299.981639
0
LINE
8
0
10
66.449728
20
148.725726
30
0.0
11
67.991394
21
147.836304
31
0.0
0
LINE
8
0
10
67.991394
20
151.982778
30
0.0
11
66.403339
21
151.066592
31
0.0
0
ARC
8
0
10
68.091338
20
148.009541
30
0.0
40
0.200000
50
240.018361
51
270.000000
0
ARC
8
0
10
68.091338
20
151.809541
30
0.0
40
0.200000
50
90.000000
51
119.981639
0
LINE
8
0
10
68.091338
20
147.809541
30
0.0
11
68.297783
21
147.809541
31
0.0
0
LINE
8
0
10
68.297783
20
152.009541
30
0.0
11
68.091338
21
152.009541
31
0.0
0
ARC
8
0
10
68.297783
20
148.209541
30
0.0
40
0.400000
50
270.000000
51
0.000000
0
ARC
8
0
10
68.297783
20
151.609541
30
0.0
40
0.400000
50
0.000000
51
90.000000
0
LINE
8
0
10
68.697783
20
148.209541
30
0.0
11
68.697783
21
148.636336
31
0.0
0
LINE
8
0
10
68.697783
20
151.182746
30
0.0
11
68.697783
21
151.609541
31
0.0
0
ARC
8
0
10
68.497783
20
148.636336
30
0.0
40
0.200000
50
0.000000
51
60.000000
0
ARC
8
0
10
68.497783
20
151.182746
30
0.0
40
0.200000
50
300.000000
51
0.000000
0
LINE
8
0
10
68.597783
20
148.809541
30
0.0
11
68.597783
21
149.184541
31
0.0
0
LINE
8
0
10
68.597783
20
150.634541
30
0.0
11
68.597783
21
151.009541
31
0.0
0
ARC
8
0
10
68.397783
20
149.184541
30
0.0
40
0.200000
50
0.000000
51
90.000000
0
ARC
8
0
10
68.397783
20
150.634541
30
0.0
40
0.200000
50
270.000000
51
0.000000
0
LINE
8
0
10
68.397783
20
149.384541
30
0.0
11
68.285977
21
149.384541
31
0.0
0
LINE
8
0
10
68.285977
20
150.434541
30
0.0
11
68.397783
21
150.434541
31
0.0
0
LINE
8
0
10
68.285977
20
149.384541
30
0.0
11
68.201428
21
149.365791
31
0.0
0
LINE
8
0
10
68.201428
20
150.453291
30
0.0
11
68.285977
21
150.434541
31
0.0
0
ARC
8
0
10
67.947783
20
149.909541
30
0.0
40
0.600000
50
180.000000
51
295.007833
0
ARC
8
0
10
67.947783
20
149.909541
30
0.0
40
0.600000
50
64.992167
51
180.000000
0
ATTDEF
8
0
10
70.072505
20
158.992280
30
0.0
40
3.5
1

3

2
VC_START
70
0
0
ATTDEF
8
0
10
22.100000
20
24.000000
30
0.0
40
3.5
1

3

2
VC_END
70
0
0
ARC
8
0
10
63.897158
20
19.958234
30
0.0
40
1.000000
50
90.000000
51
160.000000
0
LINE
8
0
10
65.008986
20
20.958234
30
0.0
11
63.897158
21
20.958234
31
0.0
0
LINE
8
0
10
62.957465
20
20.300254
30
0.0
11
62.246834
21
18.347810
31
0.0
0
ARC
8
0
10
65.008986
20
22.158234
30
0.0
40
1.200000
50
270.000000
51
299.981639
0
ARC
8
0
10
61.119203
20
18.758234
30
0.0
40
1.200000
50
270.000000
51
340.000000
0
LINE
8
0
10
67.190596
20
22.031471
30
0.0
11
65.608652
21
21.118811
31
0.0
0
LINE
8
0
10
45.674768
20
17.558234
30
0.0
11
61.119203
21
17.558234
31
0.0
0
ARC
8
0
10
67.290541
20
21.858234
30
0.0
40
0.200000
50
90.000000
51
119.981639
0
ARC
8
0
10
45.674768
20
18.758234
30
0.0
40
1.200000
50
200.000000
51
270.000000
0
LINE
8
0
10
67.496985
20
22.058234
30
0.0
11
67.290541
21
22.058234
31
0.0
0
LINE
8
0
10
43.836505
20
20.300254
30
0.0
11
44.547137
21
18.347810
31
0.0
0
ARC
8
0
10
67.496985
20
21.658234
30
0.0
40
0.400000
50
0.000000
51
90.000000
0
ARC
8
0
10
42.896812
20
19.958234
30
0.0
40
1.000000
50
20.000000
51
90.000000
0
LINE
8
0
10
67.896985
20
21.231439
30
0.0
11
67.896985
21
21.658234
31
0.0
0
LINE
8
0
10
41.784985
20
20.958234
30
0.0
11
42.896812
21
20.958234
31
0.0
0
ARC
8
0
10
67.696985
20
21.231439
30
0.0
40
0.200000
50
300.000000
51
0.000000
0
ARC
8
0
10
41.784985
20
22.158234
30
0.0
40
1.200000
50
240.018361
51
270.000000
0
LINE
8
0
10
67.796985
20
20.683234
30
0.0
11
67.796985
21
21.058234
31
0.0
0
LINE
8
0
10
39.603374
20
22.031471
30
0.0
11
41.185318
21
21.118811
31
0.0
0
ARC
8
0
10
67.596985
20
20.683234
30
0.0
40
0.200000
50
270.000000
51
0.000000
0
ARC
8
0
10
39.503430
20
21.858234
30
0.0
40
0.200000
50
60.018361
51
90.000000
0
LINE
8
0
10
67.485179
20
20.483234
30
0.0
11
67.596985
21
20.483234
31
0.0
0
LINE
8
0
10
39.296985
20
22.058234
30
0.0
11
39.503430
21
22.058234
31
0.0
0
LINE
8
0
10
67.400630
20
20.501984
30
0.0
11
67.485179
21
20.483234
31
0.0
0
ARC
8
0
10
39.296985
20
21.658234
30
0.0
40
0.400000
50
90.000000
51
180.000000
0
ARC
8
0
10
67.146985
20
19.958234
30
0.0
40
0.600000
50
64.992167
51
180.000000
0
LINE
8
0
10
38.896985
20
21.231439
30
0.0
11
38.896985
21
21.658234
31
0.0
0
ARC
8
0
10
67.146985
20
19.958234
30
0.0
40
0.600000
50
180.000000
51
295.007833
0
ARC
8
0
10
39.096985
20
21.231439
30
0.0
40
0.200000
50
180.000000
51
240.000000
0
LINE
8
0
10
67.485179
20
19.433234
30
0.0
11
67.400630
21
19.414484
31
0.0
0
LINE
8
0
10
38.996985
20
20.683234
30
0.0
11
38.996985
21
21.058234
31
0.0
0
LINE
8
0
10
67.596985
20
19.433234
30
0.0
11
67.485179
21
19.433234
31
0.0
0
ARC
8
0
10
39.196985
20
20.683234
30
0.0
40
0.200000
50
180.000000
51
270.000000
0
ARC
8
0
10
67.596985
20
19.233234
30
0.0
40
0.200000
50
0.000000
51
90.000000
0
LINE
8
0
10
39.308791
20
20.483234
30
0.0
11
39.196985
21
20.483234
31
0.0
0
LINE
8
0
10
67.796985
20
18.858234
30
0.0
11
67.796985
21
19.233234
31
0.0
0
LINE
8
0
10
39.308791
20
20.483234
30
0.0
11
39.393340
21
20.501984
31
0.0
0
ARC
8
0
10
67.696985
20
18.685029
30
0.0
40
0.200000
50
0.000000
51
60.000000
0
ARC
8
0
10
39.646985
20
19.958234
30
0.0
40
0.600000
50
0.000000
51
115.007833
0
LINE
8
0
10
67.896985
20
18.258234
30
0.0
11
67.896985
21
18.685029
31
0.0
0
ARC
8
0
10
39.646985
20
19.958234
30
0.0
40
0.600000
50
244.992167
51
0.000000
0
ARC
8
0
10
67.496985
20
18.258234
30
0.0
40
0.400000
50
270.000000
51
0.000000
0
LINE
8
0
10
39.393340
20
19.414484
30
0.0
11
39.308791
21
19.433234
31
0.0
0
LINE
8
0
10
67.290541
20
17.858234
30
0.0
11
67.496985
21
17.858234
31
0.0
0
LINE
8
0
10
39.196985
20
19.433234
30
0.0
11
39.308791
21
19.433234
31
0.0
0
ARC
8
0
10
67.290541
20
18.058234
30
0.0
40
0.200000
50
240.018361
51
270.000000
0
ARC
8
0
10
39.196985
20
19.233234
30
0.0
40
0.200000
50
90.000000
51
180.000000
0
LINE
8
0
10
65.608652
20
18.797656
30
0.0
11
67.190596
21
17.884997
31
0.0
0
LINE
8
0
10
38.996985
20
18.858234
30
0.0
11
38.996985
21
19.233234
31
0.0
0
ARC
8
0
10
65.008986
20
17.758234
30
0.0
40
1.200000
50
60.018361
51
90.000000
0
ARC
8
0
10
39.096985
20
18.685029
30
0.0
40
0.200000
50
120.000000
51
180.000000
0
LINE
8
0
10
64.946922
20
18.958234
30
0.0
11
65.008986
21
18.958234
31
0.0
0
LINE
8
0
10
38.896985
20
18.258234
30
0.0
11
38.896985
21
18.685029
31
0.0
0
ARC
8
0
10
64.946922
20
18.458234
30
0.0
40
0.500000
50
90.000000
51
162.598279
0
ARC
8
0
10
39.296985
20
18.258234
30
0.0
40
0.400000
50
180.000000
51
270.000000
0
LINE
8
0
10
64.469807
20
18.607768
30
0.0
11
63.540903
21
16.055628
31
0.0
0
LINE
8
0
10
39.503430
20
17.858234
30
0.0
11
39.296985
21
17.858234
31
0.0
0
ARC
8
0
10
63.258996
20
16.158234
30
0.0
40
0.300000
50
270.000000
51
340.000000
0
ARC
8
0
10
39.503430
20
18.058234
30
0.0
40
0.200000
50
270.000000
51
299.981639
0
LINE
8
0
10
43.534975
20
15.858234
30
0.0
11
63.258996
21
15.858234
31
0.0
0
LINE
8
0
10
41.185318
20
18.797656
30
0.0
11
39.603374
21
17.884997
31
0.0
0
ARC
8
0
10
43.534975
20
16.158234
30
0.0
40
0.300000
50
200.000000
51
270.000000
0
ARC
8
0
10
41.784985
20
17.758234
30
0.0
40
1.200000
50
90.000000
51
119.981639
0
LINE
8
0
10
42.324164
20
18.607768
30
0.0
11
43.253067
21
16.055628
31
0.0
0
LINE
8
0
10
41.847048
20
18.958234
30
0.0
11
41.784985
21
18.958234
31
0.0
0
ARC
8
0
10
41.847048
20
18.458234
30
0.0
40
0.500000
50
17.401721
51
90.000000
0
ARC
8
0
10
82.707783
20
9.700000
30
0.0
40
0.300000
50
90.000000
51
180.000000
0
LINE
8
0
10
82.707783
20
10.000000
30
0.0
11
84.407783
21
10.000000
31
0.0
0
ARC
8
0
10
84.407783
20
10.500000
30
0.0
40
0.500000
50
270.000000
51
0.000000
0
LINE
8
0
10
84.907783
20
10.500000
30
0.0
11
84.907783
21
20.000000
31
0.0
0
ARC
8
0
10
82.907783
20
20.000000
30
0.0
40
2.000000
50
0.000000
51
90.000000
0
LINE
8
0
10
82.907783
20
22.000000
30
0.0
11
79.006208
21
22.000000
31
0.0
0
LINE
8
0
10
79.006208
20
22.000000
30
0.0
11
78.707783
21
22.300000
31
0.0
0
LINE
8
0
10
78.707783
20
22.300000
30
0.0
11
78.409357
21
22.000000
31
0.0
0
LINE
8
0
10
78.409357
20
22.000000
30
0.0
11
75.304149
21
22.000000
31
0.0
0
ARC
8
0
10
75.304149
20
21.600000
30
0.0
40
0.400000
50
90.000000
51
180.000000
0
LINE
8
0
10
74.904149
20
21.600000
30
0.0
11
74.904149
21
17.395351
31
0.0
0
ARC
8
0
10
74.504149
20
17.395351
30
0.0
40
0.400000
50
270.000000
51
0.000000
0
LINE
8
0
10
74.504149
20
16.995351
30
0.0
11
73.254149
21
16.995351
31
0.0
0
ARC
8
0
10
73.254149
20
17.295351
30
0.0
40
0.300000
50
180.000000
51
270.000000
0
LINE
8
0
10
72.954149
20
17.295351
30
0.0
11
72.954149
21
17.695351
31
0.0
0
ARC
8
0
10
73.254149
20
17.695351
30
0.0
40
0.300000
50
90.000000
51
180.000000
0
LINE
8
0
10
73.254149
20
17.995351
30
0.0
11
73.404149
21
17.995351
31
0.0
0
ARC
8
0
10
73.404149
20
18.295351
30
0.0
40
0.300000
50
270.000000
51
0.000000
0
LINE
8
0
10
73.704149
20
18.295351
30
0.0
11
73.704149
21
21.700000
31
0.0
0
ARC
8
0
10
73.404149
20
21.700000
30
0.0
40
0.300000
50
0.000000
51
90.000000
0
LINE
8
0
10
73.404149
20
22.000000
30
0.0
11
70.004149
21
22.000000
31
0.0
0
ARC
8
0
10
70.004149
20
21.700000
30
0.0
40
0.300000
50
90.000000
51
180.000000
0
LINE
8
0
10
69.704149
20
21.700000
30
0.0
11
69.704149
21
18.295351
31
0.0
0
ARC
8
0
10
70.004149
20
18.295351
30
0.0
40
0.300000
50
180.000000
51
270.000000
0
LINE
8
0
10
70.004149
20
17.995351
30
0.0
11
70.154149
21
17.995351
31
0.0
0
ARC
8
0
10
70.154149
20
17.695351
30
0.0
40
0.300000
50
0.000000
51
90.000000
0
LINE
8
0
10
70.454149
20
17.695351
30
0.0
11
70.454149
21
17.295351
31
0.0
0
ARC
8
0
10
70.154149
20
17.295351
30
0.0
40
0.300000
50
270.000000
51
0.000000
0
LINE
8
0
10
70.154149
20
16.995351
30
0.0
11
70.004149
21
16.995351
31
0.0
0
ARC
8
0
10
70.004149
20
16.695351
30
0.0
40
0.300000
50
90.000000
51
180.000000
0
LINE
8
0
10
69.704149
20
16.695351
30
0.0
11
69.704149
21
16.198291
31
0.0
0
ARC
8
0
10
69.404149
20
16.198291
30
0.0
40
0.300000
50
270.000000
51
0.000000
0
LINE
8
0
10
69.404149
20
15.898291
30
0.0
11
65.803634
21
15.898291
31
0.0
0
ARC
8
0
10
65.803634
20
16.298291
30
0.0
40
0.400000
50
180.000000
51
270.000000
0
LINE
8
0
10
65.403634
20
16.298291
30
0.0
11
65.403634
21
18.600556
31
0.0
0
ARC
8
0
10
65.603634
20
18.600556
30
0.0
40
0.200000
50
58.626462
51
180.000000
0
LINE
8
0
10
65.707757
20
18.771314
30
0.0
11
67.227834
21
17.844418
31
0.0
0
ARC
8
0
10
67.384018
20
18.100556
30
0.0
40
0.300000
50
238.626462
51
270.000000
0
LINE
8
0
10
67.384018
20
17.800556
30
0.0
11
67.603634
21
17.800556
31
0.0
0
ARC
8
0
10
67.603634
20
18.100556
30
0.0
40
0.300000
50
270.000000
51
0.000000
0
LINE
8
0
10
67.903634
20
18.100556
30
0.0
11
67.903634
21
22.134315
31
0.0
0
ARC
8
0
10
67.803634
20
22.417158
30
0.0
40
0.300000
50
289.471221
51
87.416256
0
LINE
8
0
10
67.817157
20
22.716853
30
0.0
11
67.530094
21
22.629705
31
0.0
0
LINE
8
0
10
67.530094
20
22.629705
30
0.0
11
65.753938
21
21.524683
31
0.0
0
ARC
8
0
10
65.859588
20
21.354866
30
0.0
40
0.200000
50
121.887477
51
180.000000
0
LINE
8
0
10
65.659697
20
21.348278
30
0.0
11
65.665402
21
21.175167
31
0.0
0
ARC
8
0
10
65.465510
20
21.168580
30
0.0
40
0.200000
50
241.887477
51
0.000000
0
LINE
8
0
10
65.371269
20
20.992175
30
0.0
11
65.091529
21
21.141621
31
0.0
0
ARC
8
0
10
65.468493
20
21.847240
30
0.0
40
0.800000
50
196.887477
51
241.887477
0
LINE
8
0
10
64.702991
20
21.614846
30
0.0
11
64.121595
21
23.529951
31
0.0
0
ARC
8
0
10
64.408658
20
23.617099
30
0.0
40
0.300000
50
90.000000
51
196.887477
0
LINE
8
0
10
64.409247
20
23.917098
30
0.0
11
65.959076
21
23.914054
31
0.0
0
ARC
8
0
10
65.958684
20
23.714055
30
0.0
40
0.200000
50
29.118414
51
90.000000
0
ARC
8
0
10
66.395491
20
23.957363
30
0.0
40
0.300000
50
209.118414
51
286.887477
0
LINE
8
0
10
66.482639
20
23.670300
30
0.0
11
67.568665
21
24.000000
31
0.0
0
LINE
8
0
10
67.568665
20
24.000000
30
0.0
11
80.711434
21
24.000000
31
0.0
0
ARC
8
0
10
80.711434
20
24.300000
30
0.0
40
0.300000
50
270.000000
51
0.000000
0
LINE
8
0
10
81.011434
20
24.300000
30
0.0
11
81.011434
21
30.076553
31
0.0
0
ARC
8
0
10
81.411434
20
30.076553
30
0.0
40
0.400000
50
20.000000
51
180.000000
0
LINE
8
0
10
81.787311
20
30.213361
30
0.0
11
82.891820
21
27.178748
31
0.0
0
ARC
8
0
10
82.609912
20
27.076142
30
0.0
40
0.300000
50
300.000000
51
20.000000
0
LINE
8
0
10
82.759912
20
26.816335
30
0.0
11
82.209912
21
26.498792
31
0.0
0
LINE
8
0
10
82.209912
20
26.498792
30
0.0
11
82.209912
21
24.300000
31
0.0
0
ARC
8
0
10
82.509912
20
24.300000
30
0.0
40
0.300000
50
180.000000
51
270.000000
0
LINE
8
0
10
82.509912
20
24.000000
30
0.0
11
86.407783
21
24.000000
31
0.0
0
ARC
8
0
10
86.407783
20
23.700000
30
0.0
40
0.300000
50
0.000000
51
90.000000
0
LINE
8
0
10
86.707783
20
23.700000
30
0.0
11
86.707783
21
0.500000
31
0.0
0
ARC
8
0
10
86.207783
20
0.500000
30
0.0
40
0.500000
50
270.000000
51
0.000000
0
LINE
8
0
10
86.207783
20
0.000000
30
0.0
11
82.707783
21
0.000000
31
0.0
0
ARC
8
0
10
82.707783
20
0.300000
30
0.0
40
0.300000
50
180.000000
51
270.000000
0
LINE
8
0
10
82.407783
20
0.300000
30
0.0
11
82.407783
21
1.800000
31
0.0
0
ARC
8
0
10
83.107783
20
1.800000
30
0.0
40
0.700000
50
90.000000
51
180.000000
0
ARC
8
0
10
83.107783
20
2.200000
30
0.0
40
0.300000
50
0.000000
51
90.000000
0
LINE
8
0
10
83.407783
20
2.200000
30
0.0
11
83.407783
21
1.500000
31
0.0
0
ARC
8
0
10
83.707783
20
1.500000
30
0.0
40
0.300000
50
180.000000
51
270.000000
0
LINE
8
0
10
83.707783
20
1.200000
30
0.0
11
84.707783
21
1.200000
31
0.0
0
ARC
8
0
10
84.707783
20
1.900000
30
0.0
40
0.700000
50
270.000000
51
0.000000
0
LINE
8
0
10
85.407783
20
1.900000
30
0.0
11
85.407783
21
8.100000
31
0.0
0
ARC
8
0
10
84.707783
20
8.100000
30
0.0
40
0.700000
50
0.000000
51
90.000000
0
LINE
8
0
10
84.707783
20
8.800000
30
0.0
11
83.707783
21
8.800000
31
0.0
0
ARC
8
0
10
83.707783
20
8.500000
30
0.0
40
0.300000
50
90.000000
51
180.000000
0
LINE
8
0
10
83.407783
20
8.500000
30
0.0
11
83.407783
21
7.800000
31
0.0
0
ARC
8
0
10
83.107783
20
7.800000
30
0.0
40
0.300000
50
270.000000
51
0.000000
0
ARC
8
0
10
83.107783
20
8.200000
30
0.0
40
0.700000
50
180.000000
51
270.000000
0
LINE
8
0
10
82.407783
20
8.200000
30
0.0
11
82.407783
21
9.700000
31
0.0
0
LINE
8
0
10
20.300000
20
24.000000
30
0.0
11
24.197871
21
24.000000
31
0.0
0
ARC
8
0
10
24.197871
20
24.300000
30
0.0
40
0.300000
50
270.000000
51
0.000000
0
LINE
8
0
10
24.497871
20
24.300000
30
0.0
11
24.497871
21
26.498792
31
0.0
0
LINE
8
0
10
24.497871
20
26.498792
30
0.0
11
23.947871
21
26.816335
31
0.0
0
ARC
8
0
10
24.097871
20
27.076142
30
0.0
40
0.300000
50
160.000000
51
240.000000
0
LINE
8
0
10
23.815963
20
27.178748
30
0.0
11
24.920472
21
30.213361
31
0.0
0
ARC
8
0
10
25.296349
20
30.076553
30
0.0
40
0.400000
50
0.000000
51
160.000000
0
LINE
8
0
10
25.696349
20
30.076553
30
0.0
11
25.696349
21
24.300000
31
0.0
0
ARC
8
0
10
25.996349
20
24.300000
30
0.0
40
0.300000
50
180.000000
51
270.000000
0
LINE
8
0
10
25.996349
20
24.000000
30
0.0
11
39.009118
21
24.000000
31
0.0
0
LINE
8
0
10
39.009118
20
24.000000
30
0.0
11
40.095143
21
23.670300
31
0.0
0
ARC
8
0
10
40.182291
20
23.957363
30
0.0
40
0.300000
50
253.112523
51
330.881586
0
ARC
8
0
10
40.619099
20
23.714055
30
0.0
40
0.200000
50
90.000000
51
150.881586
0
LINE
8
0
10
40.618706
20
23.914054
30
0.0
11
42.168536
21
23.917098
31
0.0
0
ARC
8
0
10
42.169125
20
23.617099
30
0.0
40
0.300000
50
343.112523
51
90.000000
0
LINE
8
0
10
42.456188
20
23.529951
30
0.0
11
41.874792
21
21.614846
31
0.0
0
ARC
8
0
10
41.109290
20
21.847240
30
0.0
40
0.800000
50
298.112523
51
343.112523
0
LINE
8
0
10
41.486254
20
21.141621
30
0.0
11
41.206514
21
20.992175
31
0.0
0
ARC
8
0
10
41.112273
20
21.168580
30
0.0
40
0.200000
50
180.000000
51
298.112523
0
LINE
8
0
10
40.912381
20
21.175167
30
0.0
11
40.918086
21
21.348278
31
0.0
0
ARC
8
0
10
40.718194
20
21.354866
30
0.0
40
0.200000
50
0.000000
51
58.112523
0
LINE
8
0
10
40.823845
20
21.524683
30
0.0
11
39.276958
21
22.497920
31
0.0
0
LINE
8
0
10
39.276958
20
22.497920
30
0.0
11
38.989808
21
22.584779
31
0.0
0
ARC
8
0
10
39.003634
20
22.285097
30
0.0
40
0.300000
50
92.641495
51
250.528779
0
LINE
8
0
10
38.903634
20
22.002255
30
0.0
11
38.903634
21
18.100556
31
0.0
0
ARC
8
0
10
39.203634
20
18.100556
30
0.0
40
0.300000
50
180.000000
51
270.000000
0
LINE
8
0
10
39.203634
20
17.800556
30
0.0
11
39.423249
21
17.800556
31
0.0
0
ARC
8
0
10
39.423249
20
18.100556
30
0.0
40
0.300000
50
270.000000
51
301.373538
0
LINE
8
0
10
39.579433
20
17.844418
30
0.0
11
41.099511
21
18.771314
31
0.0
0
ARC
8
0
10
41.203634
20
18.600556
30
0.0
40
0.200000
50
0.000000
51
121.373538
0
LINE
8
0
10
41.403634
20
18.600556
30
0.0
11
41.403634
21
16.298291
31
0.0
0
ARC
8
0
10
41.003634
20
16.298291
30
0.0
40
0.400000
50
270.000000
51
0.000000
0
LINE
8
0
10
41.003634
20
15.898291
30
0.0
11
37.403118
21
15.898291
31
0.0
0
ARC
8
0
10
37.403118
20
16.198291
30
0.0
40
0.300000
50
180.000000
51
270.000000
0
LINE
8
0
10
37.103118
20
16.198291
30
0.0
11
37.103118
21
16.695351
31
0.0
0
ARC
8
0
10
36.803118
20
16.695351
30
0.0
40
0.300000
50
0.000000
51
90.000000
0
LINE
8
0
10
36.803118
20
16.995351
30
0.0
11
36.653118
21
16.995351
31
0.0
0
ARC
8
0
10
36.653118
20
17.295351
30
0.0
40
0.300000
50
180.000000
51
270.000000
0
LINE
8
0
10
36.353118
20
17.295351
30
0.0
11
36.353118
21
17.695351
31
0.0
0
ARC
8
0
10
36.653118
20
17.695351
30
0.0
40
0.300000
50
90.000000
51
180.000000
0
LINE
8
0
10
36.653118
20
17.995351
30
0.0
11
36.803118
21
17.995351
31
0.0
0
ARC
8
0
10
36.803118
20
18.295351
30
0.0
40
0.300000
50
270.000000
51
0.000000
0
LINE
8
0
10
37.103118
20
18.295351
30
0.0
11
37.103118
21
21.700000
31
0.0
0
ARC
8
0
10
36.803118
20
21.700000
30
0.0
40
0.300000
50
0.000000
51
90.000000
0
LINE
8
0
10
36.803118
20
22.000000
30
0.0
11
33.403118
21
22.000000
31
0.0
0
ARC
8
0
10
33.403118
20
21.700000
30
0.0
40
0.300000
50
90.000000
51
180.000000
0
LINE
8
0
10
33.103118
20
21.700000
30
0.0
11
33.103118
21
18.295351
31
0.0
0
ARC
8
0
10
33.403118
20
18.295351
30
0.0
40
0.300000
50
180.000000
51
270.000000
0
LINE
8
0
10
33.403118
20
17.995351
30
0.0
11
33.553118
21
17.995351
31
0.0
0
ARC
8
0
10
33.553118
20
17.695351
30
0.0
40
0.300000
50
0.000000
51
90.000000
0
LINE
8
0
10
33.853118
20
17.695351
30
0.0
11
33.853118
21
17.295351
31
0.0
0
ARC
8
0
10
33.553118
20
17.295351
30
0.0
40
0.300000
50
270.000000
51
0.000000
0
LINE
8
0
10
33.553118
20
16.995351
30
0.0
11
32.303118
21
16.995351
31
0.0
0
ARC
8
0
10
32.303118
20
17.395351
30
0.0
40
0.400000
50
180.000000
51
270.000000
0
LINE
8
0
10
31.903118
20
17.395351
30
0.0
11
31.903118
21
21.600000
31
0.0
0
ARC
8
0
10
31.503118
20
21.600000
30
0.0
40
0.400000
50
0.000000
51
90.000000
0
LINE
8
0
10
31.503118
20
22.000000
30
0.0
11
28.298425
21
22.000000
31
0.0
0
LINE
8
0
10
28.298425
20
22.000000
30
0.0
11
28.000000
21
22.300000
31
0.0
0
LINE
8
0
10
28.000000
20
22.300000
30
0.0
11
27.701574
21
22.000000
31
0.0
0
LINE
8
0
10
27.701574
20
22.000000
30
0.0
11
21.996071
21
22.000000
31
0.0
0
ARC
8
0
10
21.996071
20
21.500000
30
0.0
40
0.500000
50
90.000000
51
180.000000
0
LINE
8
0
10
21.496071
20
21.500000
30
0.0
11
21.496071
21
16.300351
31
0.0
0
ARC
8
0
10
21.196071
20
16.300351
30
0.0
40
0.300000
50
270.000000
51
0.000000
0
LINE
8
0
10
21.196071
20
16.000351
30
0.0
11
20.300000
21
16.000351
31
0.0
0
ARC
8
0
10
20.300000
20
16.300351
30
0.0
40
0.300000
50
180.000000
51
270.000000
0
LINE
8
0
10
20.000000
20
16.300351
30
0.0
11
20.000000
21
23.700000
31
0.0
0
ARC
8
0
10
20.300000
20
23.700000
30
0.0
40
0.300000
50
90.000000
51
180.000000
0
ARC
8
0
10
17.300000
20
32.142010
30
0.0
40
0.300000
50
285.000000
51
0.000000
0
LINE
8
0
10
17.600000
20
32.142010
30
0.0
11
17.600000
21
33.399165
31
0.0
0
ARC
8
0
10
17.300000
20
33.399165
30
0.0
40
0.300000
50
0.000000
51
110.000000
0
LINE
8
0
10
17.197394
20
33.681073
30
0.0
11
16.502606
21
33.428191
31
0.0
0
ARC
8
0
10
16.400000
20
33.710098
30
0.0
40
0.300000
50
180.000000
51
290.000000
0
LINE
8
0
10
16.100000
20
33.710098
30
0.0
11
16.100000
21
34.348605
31
0.0
0
ARC
8
0
10
16.400000
20
34.348605
30
0.0
40
0.300000
50
110.000000
51
180.000000
0
LINE
8
0
10
16.297394
20
34.630513
30
0.0
11
17.402606
21
35.032777
31
0.0
0
ARC
8
0
10
17.300000
20
35.314685
30
0.0
40
0.300000
50
290.000000
51
0.000000
0
LINE
8
0
10
17.600000
20
35.314685
30
0.0
11
17.600000
21
36.731740
31
0.0
0
ARC
8
0
10
17.100000
20
36.731740
30
0.0
40
0.500000
50
0.000000
51
110.000000
0
LINE
8
0
10
16.928990
20
37.201586
30
0.0
11
1.897394
21
31.730533
31
0.0
0
ARC
8
0
10
2.000000
20
31.448625
30
0.0
40
0.300000
50
110.000000
51
180.000000
0
LINE
8
0
10
1.700000
20
31.448625
30
0.0
11
1.700000
21
29.745940
31
0.0
0
ARC
8
0
10
2.000000
20
29.745940
30
0.0
40
0.300000
50
180.000000
51
290.000000
0
LINE
8
0
10
2.102606
20
29.464033
30
0.0
11
2.897394
21
29.753312
31
0.0
0
ARC
8
0
10
3.000000
20
29.471404
30
0.0
40
0.300000
50
0.000000
51
110.000000
0
LINE
8
0
10
3.300000
20
29.471404
30
0.0
11
3.300000
21
28.832897
31
0.0
0
ARC
8
0
10
3.000000
20
28.832897
30
0.0
40
0.300000
50
290.000000
51
0.000000
0
LINE
8
0
10
3.102606
20
28.550989
30
0.0
11
1.223723
21
27.867132
31
0.0
0
ARC
8
0
10
1.121117
20
28.149040
30
0.0
40
0.300000
50
270.000000
51
290.000000
0
LINE
8
0
10
1.121117
20
27.849040
30
0.0
11
0.300000
21
27.849040
31
0.0
0
ARC
8
0
10
0.300000
20
28.149040
30
0.0
40
0.300000
50
180.000000
51
270.000000
0
LINE
8
0
10
0.000000
20
28.149040
30
0.0
11
0.000000
21
32.498936
31
0.0
0
ARC
8
0
10
0.500000
20
32.498936
30
0.0
40
0.500000
50
110.000000
51
180.000000
0
LINE
8
0
10
0.328990
20
32.968782
30
0.0
11
19.597394
21
39.981908
31
0.0
0
ARC
8
0
10
19.700000
20
39.700000
30
0.0
40
0.300000
50
0.000000
51
110.000000
0
LINE
8
0
10
20.000000
20
39.700000
30
0.0
11
20.000000
21
38.210151
31
0.0
0
ARC
8
0
10
19.700000
20
38.210151
30
0.0
40
0.300000
50
290.000000
51
0.000000
0
LINE
8
0
10
19.802606
20
37.928243
30
0.0
11
19.597394
21
37.853552
31
0.0
0
ARC
8
0
10
19.700000
20
37.571645
30
0.0
40
0.300000
50
110.000000
51
180.000000
0
LINE
8
0
10
19.400000
20
37.571645
30
0.0
11
19.400000
21
33.428533
31
0.0
0
ARC
8
0
10
19.700000
20
33.428533
30
0.0
40
0.300000
50
180.000000
51
250.000000
0
LINE
8
0
10
19.597394
20
33.146626
30
0.0
11
19.802606
21
33.071934
31
0.0
0
ARC
8
0
10
19.700000
20
32.790027
30
0.0
40
0.300000
50
0.000000
51
70.000000
0
LINE
8
0
10
20.000000
20
32.790027
30
0.0
11
20.000000
21
24.300000
31
0.0
0
ARC
8
0
10
19.700000
20
24.300000
30
0.0
40
0.300000
50
270.000000
51
0.000000
0
LINE
8
0
10
19.700000
20
24.000000
30
0.0
11
19.230198
21
24.000000
31
0.0
0
ARC
8
0
10
19.230198
20
24.300000
30
0.0
40
0.300000
50
195.000000
51
270.000000
0
LINE
8
0
10
18.940420
20
24.222354
30
0.0
11
18.040779
21
27.579861
31
0.0
0
LINE
8
0
10
18.040779
20
27.579861
30
0.0
11
18.253319
21
27.945764
31
0.0
0
LINE
8
0
10
18.253319
20
27.945764
30
0.0
11
17.886303
21
28.156375
31
0.0
0
LINE
8
0
10
17.886303
20
28.156375
30
0.0
11
17.005910
21
31.442044
31
0.0
0
ARC
8
0
10
17.295688
20
31.519689
30
0.0
40
0.300000
50
105.000000
51
195.000000
0
LINE
8
0
10
17.218042
20
31.809467
30
0.0
11
17.377646
21
31.852233
31
0.0
0
ATTDEF
8
0
10
0.000000
20
0.000000
30
0.0
40
3.5
1

3

2
DENS:0.000000
70
0
0
ATTDEF
8
0
10
0.000000
20
0.000000
30
0.0
40
3.5
1

3

2
GLASS_MIN:0.000000
70
0
0
ATTDEF
8
0
10
0.000000
20
0.000000
30
0.0
40
3.5
1

3

2
GLASS_MAX:0.000000
70
0
0
ATTDEF
8
0
10
0.000000
20
0.000000
30
0.0
40
3.5
1

3

2
DESC:U20630 - U51502 - K50
70
0
0
ATTDEF
8
0
10
0.000000
20
0.000000
30
0.0
40
3.5
1

3

2
BL01:6500.000000,,1
70
0
0
ATTDEF
8
0
10
0.000000
20
0.000000
30
0.0
40
3.5
1

3

2
HW_START
70
0
0
ATTDEF
8
0
10
86.707783
20
183.999723
30
0.0
40
3.5
1

3

2
HW_END
70
0
0
ATTDEF
8
0
10
0.000000
20
0.000000
30
0.0
40
3.5
1

3

2
FP_LCS_ORIG
70
0
0
ATTDEF
8
0
10
10.000000
20
0.000000
30
0.0
40
3.5
1

3

2
FP_LCS_HOT
70
0
0
ATTDEF
8
0
10
0.000000
20
10.000000
30
0.0
40
3.5
1

3

2
FP_LCS_INTERN
70
0
0
ATTDEF
8
0
10
0.000000
20
0.000000
30
0.0
40
3.5
1

3

2
PANE_WIDTH:62.000000
70
0
0
ATTDEF
8
0
10
0.000000
20
0.000000
30
0.0
40
3.5
1

3

2
TDEV:0.000000
70
0
0
ATTDEF
8
0
10
0.000000
20
0.000000
30
0.0
40
3.5
1

3

2
TDEV2:0.000000
70
0
0
ATTDEF
8
0
10
0.000000
20
0.000000
30
0.0
40
3.5
1

3

2
TDEV3:0.000000
70
0
0
ATTDEF
8
0
10
0.000000
20
0.000000
30
0.0
40
3.5
1

3

2
TDEV4:0.000000
70
0
0
ATTDEF
8
0
10
0.000000
20
0.000000
30
0.0
40
3.5
1

3

2
TDEV5:0.000000
70
0
0
ENDSEC
0
EOF
