0
SECTION
2
ENTITIES
0
LINE
8
0
10
37.707783
20
29.997165
30
0.0
11
48.259227
21
29.997165
31
0.0
0
LINE
8
0
10
46.759227
20
27.997165
30
0.0
11
37.707783
21
27.997165
31
0.0
0
LINE
8
0
10
53.859227
20
29.997165
30
0.0
11
64.307783
21
29.997165
31
0.0
0
LINE
8
0
10
64.307783
20
27.997165
30
0.0
11
55.359227
21
27.997165
31
0.0
0
LINE
8
0
10
49.309227
20
6.997165
30
0.0
11
48.259227
21
6.997165
31
0.0
0
ARC
8
0
10
49.309227
20
8.797165
30
0.0
40
0.300000
50
180.000000
51
270.000000
0
ARC
8
0
10
50.009227
20
12.301073
30
0.0
40
1.000000
50
90.000000
51
180.000000
0
ARC
8
0
10
50.259227
20
16.301073
30
0.0
40
1.000000
50
180.000000
51
270.000000
0
ARC
8
0
10
48.259227
20
28.997165
30
0.0
40
1.000000
50
32.497183
51
90.000000
0
LINE
8
0
10
47.259227
20
7.997165
30
0.0
11
47.259227
21
27.497165
31
0.0
0
LINE
8
0
10
49.009227
20
12.301073
30
0.0
11
49.009227
21
8.797165
31
0.0
0
ARC
8
0
10
48.259227
20
7.997165
30
0.0
40
1.000000
50
180.000000
51
270.000000
0
ARC
8
0
10
46.759227
20
27.497165
30
0.0
40
0.500000
50
360.000000
51
90.000000
0
LINE
8
0
10
54.859227
20
27.497165
30
0.0
11
54.859227
21
7.997165
31
0.0
0
LINE
8
0
10
53.859227
20
6.997165
30
0.0
11
52.759227
21
6.997165
31
0.0
0
LINE
8
0
10
53.109227
20
8.797165
30
0.0
11
53.109227
21
12.301073
31
0.0
0
ARC
8
0
10
49.316258
20
7.541932
30
0.0
40
0.544812
50
270.000000
51
355.286795
0
LINE
8
0
10
49.859227
20
8.197165
30
0.0
11
49.859227
21
7.497165
31
0.0
0
ARC
8
0
10
49.559227
20
8.197165
30
0.0
40
0.300000
50
360.000000
51
90.000000
0
LINE
8
0
10
49.309227
20
8.497165
30
0.0
11
49.559227
21
8.497165
31
0.0
0
ARC
8
0
10
52.809227
20
8.797165
30
0.0
40
0.300000
50
270.000000
51
360.000000
0
LINE
8
0
10
52.559227
20
8.497165
30
0.0
11
52.809227
21
8.497165
31
0.0
0
ARC
8
0
10
52.559227
20
8.197165
30
0.0
40
0.300000
50
90.000000
51
180.000000
0
LINE
8
0
10
52.259227
20
7.497165
30
0.0
11
52.259227
21
8.197165
31
0.0
0
ARC
8
0
10
52.759227
20
7.497165
30
0.0
40
0.500000
50
180.000000
51
270.000000
0
LINE
8
0
10
52.109227
20
13.301073
30
0.0
11
50.009227
21
13.301073
31
0.0
0
ARC
8
0
10
52.109227
20
12.301073
30
0.0
40
1.000000
50
360.000000
51
90.000000
0
ARC
8
0
10
53.859227
20
7.997165
30
0.0
40
1.000000
50
270.000000
51
360.000000
0
ARC
8
0
10
53.859227
20
28.997165
30
0.0
40
1.000000
50
90.000000
51
147.502817
0
LINE
8
0
10
52.859227
20
16.301073
30
0.0
11
52.859227
21
26.803052
31
0.0
0
LINE
8
0
10
49.259227
20
26.803052
30
0.0
11
49.259227
21
18.997165
31
0.0
0
LINE
8
0
10
50.259227
20
15.301073
30
0.0
11
51.859227
21
15.301073
31
0.0
0
LINE
8
0
10
49.259227
20
18.997165
30
0.0
11
49.259227
21
16.301073
31
0.0
0
ARC
8
0
10
51.859227
20
16.301073
30
0.0
40
1.000000
50
270.000000
51
360.000000
0
ARC
8
0
10
55.359227
20
27.497165
30
0.0
40
0.500000
50
90.000000
51
180.000000
0
LINE
8
0
10
37.207783
20
28.497165
30
0.0
11
37.207783
21
29.497165
31
0.0
0
LINE
8
0
10
64.807783
20
28.497165
30
0.0
11
64.807783
21
29.497165
31
0.0
0
ARC
8
0
10
37.707783
20
28.497165
30
0.0
40
0.500000
50
180.000000
51
270.000000
0
ARC
8
0
10
37.707783
20
29.497165
30
0.0
40
0.500000
50
90.000000
51
180.000000
0
ARC
8
0
10
64.307783
20
29.497165
30
0.0
40
0.500000
50
360.000000
51
90.000000
0
ARC
8
0
10
64.307783
20
28.497165
30
0.0
40
0.500000
50
270.000000
51
360.000000
0
LINE
8
0
10
49.524354
20
29.303052
30
0.0
11
52.594100
21
29.303052
31
0.0
0
LINE
8
0
10
49.759227
20
27.303052
30
0.0
11
52.359227
21
27.303052
31
0.0
0
ARC
8
0
10
49.759227
20
26.803052
30
0.0
40
0.500000
50
90.000000
51
180.000000
0
ARC
8
0
10
52.359227
20
26.803052
30
0.0
40
0.500000
50
360.000000
51
90.000000
0
ARC
8
0
10
49.524354
20
29.803052
30
0.0
40
0.500000
50
212.497183
51
270.000000
0
ARC
8
0
10
52.594100
20
29.803052
30
0.0
40
0.500000
50
270.000000
51
327.502817
0
LINE
8
0
10
48.697783
20
130.292279
30
0.0
11
48.697783
21
133.192280
31
0.0
0
ARC
8
0
10
48.397783
20
133.192280
30
0.0
40
0.300000
50
360.000000
51
90.000000
0
LINE
8
0
10
48.397783
20
133.492280
30
0.0
11
47.797783
21
133.492280
31
0.0
0
ARC
8
0
10
47.797783
20
133.792280
30
0.0
40
0.300000
50
180.000000
51
270.000000
0
LINE
8
0
10
47.497783
20
133.792280
30
0.0
11
47.497783
21
133.992280
31
0.0
0
ARC
8
0
10
48.497783
20
133.992280
30
0.0
40
1.000000
50
90.000000
51
180.000000
0
LINE
8
0
10
48.497783
20
134.992280
30
0.0
11
51.647228
21
134.992280
31
0.0
0
ARC
8
0
10
51.647228
20
134.692280
30
0.0
40
0.300000
50
30.000000
51
90.000000
0
LINE
8
0
10
51.907035
20
134.842280
30
0.0
11
52.357591
21
134.061895
31
0.0
0
ARC
8
0
10
52.097783
20
133.911895
30
0.0
40
0.300000
50
360.000000
51
30.000000
0
LINE
8
0
10
52.397783
20
133.911895
30
0.0
11
52.397783
21
133.792280
31
0.0
0
ARC
8
0
10
52.097783
20
133.792280
30
0.0
40
0.300000
50
270.000000
51
360.000000
0
LINE
8
0
10
52.097783
20
133.492280
30
0.0
11
50.697783
21
133.492280
31
0.0
0
ARC
8
0
10
50.697783
20
133.192280
30
0.0
40
0.300000
50
90.000000
51
180.000000
0
LINE
8
0
10
50.397783
20
133.192280
30
0.0
11
50.397783
21
130.292280
31
0.0
0
ARC
8
0
10
50.697783
20
130.292280
30
0.0
40
0.300000
50
180.000000
51
270.000000
0
LINE
8
0
10
50.697783
20
129.992280
30
0.0
11
64.597783
21
129.992280
31
0.0
0
ARC
8
0
10
64.597783
20
130.292280
30
0.0
40
0.300000
50
270.000000
51
360.000000
0
LINE
8
0
10
64.897783
20
130.292280
30
0.0
11
64.897783
21
133.192280
31
0.0
0
ARC
8
0
10
64.597783
20
133.192280
30
0.0
40
0.300000
50
360.000000
51
90.000000
0
LINE
8
0
10
64.597783
20
133.492280
30
0.0
11
62.697783
21
133.492280
31
0.0
0
ARC
8
0
10
62.697783
20
133.792280
30
0.0
40
0.300000
50
180.000000
51
270.000000
0
LINE
8
0
10
62.397783
20
133.792280
30
0.0
11
62.397783
21
133.911895
31
0.0
0
ARC
8
0
10
62.697783
20
133.911895
30
0.0
40
0.300000
50
150.000000
51
180.000000
0
LINE
8
0
10
62.437975
20
134.061895
30
0.0
11
62.888531
21
134.842280
31
0.0
0
ARC
8
0
10
63.148338
20
134.692280
30
0.0
40
0.300000
50
90.000000
51
150.000000
0
LINE
8
0
10
63.148338
20
134.992280
30
0.0
11
66.397783
21
134.992280
31
0.0
0
ARC
8
0
10
66.397783
20
134.692280
30
0.0
40
0.300000
50
360.000000
51
90.000000
0
LINE
8
0
10
66.697783
20
134.692280
30
0.0
11
66.697783
21
0.300000
31
0.0
0
ARC
8
0
10
66.397783
20
0.300000
30
0.0
40
0.300000
50
270.000000
51
360.000000
0
LINE
8
0
10
66.397783
20
0.000000
30
0.0
11
62.797783
21
0.000000
31
0.0
0
ARC
8
0
10
62.797783
20
0.300000
30
0.0
40
0.300000
50
180.000000
51
270.000000
0
LINE
8
0
10
62.497783
20
0.300000
30
0.0
11
62.497783
21
1.800000
31
0.0
0
ARC
8
0
10
63.197783
20
1.800000
30
0.0
40
0.700000
50
90.000000
51
180.000000
0
ARC
8
0
10
63.197783
20
2.200000
30
0.0
40
0.300000
50
360.000000
51
90.000000
0
LINE
8
0
10
63.497783
20
2.200000
30
0.0
11
63.497783
21
1.500000
31
0.0
0
ARC
8
0
10
63.797783
20
1.500000
30
0.0
40
0.300000
50
180.000000
51
270.000000
0
LINE
8
0
10
63.797783
20
1.200000
30
0.0
11
64.697783
21
1.200000
31
0.0
0
ARC
8
0
10
64.697783
20
1.900000
30
0.0
40
0.700000
50
270.000000
51
360.000000
0
LINE
8
0
10
65.397783
20
1.900000
30
0.0
11
65.397783
21
8.100000
31
0.0
0
ARC
8
0
10
64.697783
20
8.100000
30
0.0
40
0.700000
50
360.000000
51
90.000000
0
LINE
8
0
10
64.697783
20
8.800000
30
0.0
11
63.797783
21
8.800000
31
0.0
0
ARC
8
0
10
63.797783
20
8.500000
30
0.0
40
0.300000
50
90.000000
51
180.000000
0
LINE
8
0
10
63.497783
20
8.500000
30
0.0
11
63.497783
21
7.800000
31
0.0
0
ARC
8
0
10
63.197783
20
7.800000
30
0.0
40
0.300000
50
270.000000
51
360.000000
0
ARC
8
0
10
63.197783
20
8.200000
30
0.0
40
0.700000
50
180.000000
51
270.000000
0
LINE
8
0
10
62.497783
20
8.200000
30
0.0
11
62.497783
21
11.200000
31
0.0
0
ARC
8
0
10
62.797783
20
11.200000
30
0.0
40
0.300000
50
90.000000
51
180.000000
0
LINE
8
0
10
62.797783
20
11.500000
30
0.0
11
63.197783
21
11.500000
31
0.0
0
ARC
8
0
10
63.197783
20
11.200000
30
0.0
40
0.300000
50
360.000000
51
90.000000
0
LINE
8
0
10
63.497783
20
11.200000
30
0.0
11
63.497783
21
10.300000
31
0.0
0
ARC
8
0
10
63.797783
20
10.300000
30
0.0
40
0.300000
50
180.000000
51
270.000000
0
LINE
8
0
10
63.797783
20
10.000000
30
0.0
11
64.897783
21
10.000000
31
0.0
0
ARC
8
0
10
64.897783
20
10.300000
30
0.0
40
0.300000
50
270.000000
51
360.000000
0
LINE
8
0
10
65.197783
20
10.300000
30
0.0
11
65.197783
21
13.000000
31
0.0
0
LINE
8
0
10
65.197783
20
13.000000
30
0.0
11
64.907783
21
29.697165
31
0.0
0
ARC
8
0
10
64.607783
20
29.697165
30
0.0
40
0.300000
50
360.000000
51
90.000000
0
LINE
8
0
10
64.607783
20
29.997165
30
0.0
11
48.436598
21
29.997165
31
0.0
0
LINE
8
0
10
48.436598
20
29.997165
30
0.0
11
47.436801
21
30.260697
31
0.0
0
ARC
8
0
10
47.347080
20
29.974427
30
0.0
40
0.300000
50
72.598279
51
150.367342
0
ARC
8
0
10
46.912473
20
30.221646
30
0.0
40
0.200000
50
270.000000
51
330.367342
0
LINE
8
0
10
46.911071
20
30.021651
30
0.0
11
45.359977
21
30.021651
31
0.0
0
ARC
8
0
10
45.359977
20
30.321651
30
0.0
40
0.300000
50
162.598279
51
270.000000
0
LINE
8
0
10
45.073708
20
30.411372
30
0.0
11
45.675672
21
32.332041
31
0.0
0
ARC
8
0
10
46.439057
20
32.092785
30
0.0
40
0.800000
50
117.598279
51
162.598279
0
LINE
8
0
10
46.068442
20
32.801759
30
0.0
11
46.349512
21
32.948688
31
0.0
0
ARC
8
0
10
46.442166
20
32.771445
30
0.0
40
0.200000
50
360.000000
51
117.598279
0
LINE
8
0
10
46.641990
20
32.763064
30
0.0
11
46.629893
21
32.474642
31
0.0
0
LINE
8
0
10
46.629893
20
32.474642
30
0.0
11
48.337990
21
31.390579
31
0.0
0
ARC
8
0
10
48.659501
20
31.897166
30
0.0
40
0.600000
50
237.598279
51
270.000000
0
LINE
8
0
10
48.659501
20
31.297166
30
0.0
11
48.697783
21
31.297166
31
0.0
0
ARC
8
0
10
48.597783
20
31.580009
30
0.0
40
0.300000
50
289.471221
51
70.528779
0
LINE
8
0
10
48.697783
20
31.862851
30
0.0
11
48.697783
21
35.897166
31
0.0
0
ARC
8
0
10
48.397783
20
35.897166
30
0.0
40
0.300000
50
360.000000
51
90.000000
0
LINE
8
0
10
48.397783
20
36.197166
30
0.0
11
48.178168
21
36.197166
31
0.0
0
ARC
8
0
10
48.178168
20
35.897166
30
0.0
40
0.300000
50
90.000000
51
120.000000
0
LINE
8
0
10
48.028168
20
36.156974
30
0.0
11
46.497783
21
35.273406
31
0.0
0
ARC
8
0
10
46.397783
20
35.446611
30
0.0
40
0.200000
50
180.000000
51
300.000000
0
LINE
8
0
10
46.197783
20
35.446611
30
0.0
11
46.197783
21
36.601311
31
0.0
0
ARC
8
0
10
47.197783
20
36.601311
30
0.0
40
1.000000
50
120.000000
51
180.000000
0
LINE
8
0
10
46.697783
20
37.467337
30
0.0
11
48.197783
21
38.333362
31
0.0
0
ARC
8
0
10
47.697783
20
39.199387
30
0.0
40
1.000000
50
300.000000
51
360.000000
0
LINE
8
0
10
48.697783
20
39.199387
30
0.0
11
48.697783
21
41.622258
31
0.0
0
ARC
8
0
10
48.197783
20
41.622258
30
0.0
40
0.500000
50
360.000000
51
126.529607
0
ARC
8
0
10
45.697783
20
44.997165
30
0.0
40
3.700000
50
218.989299
51
306.529607
0
ARC
8
0
10
43.210540
20
42.983804
30
0.0
40
0.500000
50
120.000000
51
218.989299
0
LINE
8
0
10
42.960540
20
43.416817
30
0.0
11
43.488145
21
43.721430
31
0.0
0
ARC
8
0
10
43.738145
20
43.288417
30
0.0
40
0.500000
50
41.087489
51
120.000000
0
ARC
8
0
10
45.697783
20
44.997165
30
0.0
40
2.100000
50
221.087489
51
252.857143
0
LINE
8
0
10
45.078797
20
42.990462
30
0.0
11
44.990371
21
42.703790
31
0.0
0
ARC
8
0
10
45.697783
20
44.997165
30
0.0
40
2.400000
50
252.857143
51
295.714286
0
LINE
8
0
10
46.739104
20
42.834840
30
0.0
11
46.608939
21
43.105130
31
0.0
0
ARC
8
0
10
45.697783
20
44.997165
30
0.0
40
2.100000
50
295.714286
51
338.571429
0
LINE
8
0
10
47.652618
20
44.229949
30
0.0
11
47.931880
21
44.120347
31
0.0
0
ARC
8
0
10
45.697783
20
44.997165
30
0.0
40
2.400000
50
338.571429
51
21.428571
0
LINE
8
0
10
47.931880
20
45.873984
30
0.0
11
47.652618
21
45.764381
31
0.0
0
ARC
8
0
10
45.697783
20
44.997165
30
0.0
40
2.100000
50
21.428571
51
64.285714
0
LINE
8
0
10
46.608939
20
46.889200
30
0.0
11
46.739104
21
47.159490
31
0.0
0
ARC
8
0
10
45.697783
20
44.997165
30
0.0
40
2.400000
50
64.285714
51
107.142857
0
LINE
8
0
10
44.990371
20
47.290540
30
0.0
11
45.078797
21
47.003868
31
0.0
0
ARC
8
0
10
45.697783
20
44.997165
30
0.0
40
2.100000
50
107.142857
51
138.912511
0
ARC
8
0
10
43.738145
20
46.705913
30
0.0
40
0.500000
50
240.000000
51
318.912511
0
LINE
8
0
10
43.488145
20
46.272900
30
0.0
11
42.960540
21
46.577513
31
0.0
0
ARC
8
0
10
43.210540
20
47.010526
30
0.0
40
0.500000
50
141.010701
51
240.000000
0
ARC
8
0
10
45.697783
20
44.997165
30
0.0
40
3.700000
50
53.470393
51
141.010701
0
ARC
8
0
10
48.197783
20
48.372073
30
0.0
40
0.500000
50
233.470393
51
360.000000
0
LINE
8
0
10
48.697783
20
48.372073
30
0.0
11
48.697783
21
111.617373
31
0.0
0
ARC
8
0
10
48.197783
20
111.617373
30
0.0
40
0.500000
50
360.000000
51
126.529607
0
ARC
8
0
10
45.697783
20
114.992280
30
0.0
40
3.700000
50
218.989299
51
306.529607
0
ARC
8
0
10
43.210540
20
112.978919
30
0.0
40
0.500000
50
120.000000
51
218.989299
0
LINE
8
0
10
42.960540
20
113.411932
30
0.0
11
43.488145
21
113.716545
31
0.0
0
ARC
8
0
10
43.738145
20
113.283532
30
0.0
40
0.500000
50
41.087489
51
120.000000
0
ARC
8
0
10
45.697783
20
114.992280
30
0.0
40
2.100000
50
221.087489
51
252.857143
0
LINE
8
0
10
45.078797
20
112.985577
30
0.0
11
44.990371
21
112.698905
31
0.0
0
ARC
8
0
10
45.697783
20
114.992280
30
0.0
40
2.400000
50
252.857143
51
295.714286
0
LINE
8
0
10
46.739104
20
112.829955
30
0.0
11
46.608939
21
113.100246
31
0.0
0
ARC
8
0
10
45.697783
20
114.992280
30
0.0
40
2.100000
50
295.714286
51
338.571429
0
LINE
8
0
10
47.652618
20
114.225064
30
0.0
11
47.931880
21
114.115462
31
0.0
0
ARC
8
0
10
45.697783
20
114.992280
30
0.0
40
2.400000
50
338.571429
51
21.428571
0
LINE
8
0
10
47.931880
20
115.869099
30
0.0
11
47.652618
21
115.759496
31
0.0
0
ARC
8
0
10
45.697783
20
114.992280
30
0.0
40
2.100000
50
21.428571
51
64.285714
0
LINE
8
0
10
46.608939
20
116.884315
30
0.0
11
46.739104
21
117.154605
31
0.0
0
ARC
8
0
10
45.697783
20
114.992280
30
0.0
40
2.400000
50
64.285714
51
107.142857
0
LINE
8
0
10
44.990371
20
117.285655
30
0.0
11
45.078797
21
116.998983
31
0.0
0
ARC
8
0
10
45.697783
20
114.992280
30
0.0
40
2.100000
50
107.142857
51
138.912511
0
ARC
8
0
10
43.738145
20
116.701028
30
0.0
40
0.500000
50
240.000000
51
318.912511
0
LINE
8
0
10
43.488145
20
116.268015
30
0.0
11
42.960540
21
116.572628
31
0.0
0
ARC
8
0
10
43.210540
20
117.005641
30
0.0
40
0.500000
50
141.010701
51
240.000000
0
ARC
8
0
10
45.697783
20
114.992280
30
0.0
40
3.700000
50
53.470393
51
141.010701
0
ARC
8
0
10
48.197783
20
118.367188
30
0.0
40
0.500000
50
233.470393
51
360.000000
0
LINE
8
0
10
48.697783
20
118.367188
30
0.0
11
48.697783
21
120.790058
31
0.0
0
ARC
8
0
10
47.697783
20
120.790058
30
0.0
40
1.000000
50
360.000000
51
60.000000
0
LINE
8
0
10
48.197783
20
121.656083
30
0.0
11
46.697783
21
122.522109
31
0.0
0
ARC
8
0
10
47.197783
20
123.388134
30
0.0
40
1.000000
50
180.000000
51
240.000000
0
LINE
8
0
10
46.197783
20
123.388134
30
0.0
11
46.197783
21
124.542835
31
0.0
0
ARC
8
0
10
46.397783
20
124.542835
30
0.0
40
0.200000
50
60.000000
51
180.000000
0
LINE
8
0
10
46.497783
20
124.716040
30
0.0
11
48.028168
21
123.832472
31
0.0
0
ARC
8
0
10
48.178168
20
124.092279
30
0.0
40
0.300000
50
240.000000
51
270.000000
0
LINE
8
0
10
48.178168
20
123.792279
30
0.0
11
48.397783
21
123.792279
31
0.0
0
ARC
8
0
10
48.397783
20
124.092279
30
0.0
40
0.300000
50
270.000000
51
360.000000
0
LINE
8
0
10
48.697783
20
124.092279
30
0.0
11
48.697783
21
128.126594
31
0.0
0
ARC
8
0
10
48.597783
20
128.409436
30
0.0
40
0.300000
50
289.471221
51
70.528779
0
LINE
8
0
10
48.697783
20
128.692279
30
0.0
11
48.659501
21
128.692279
31
0.0
0
ARC
8
0
10
48.659501
20
128.092279
30
0.0
40
0.600000
50
90.000000
51
122.401721
0
LINE
8
0
10
48.337990
20
128.598866
30
0.0
11
46.629893
21
127.514803
31
0.0
0
LINE
8
0
10
46.629893
20
127.514803
30
0.0
11
46.641990
21
127.226382
31
0.0
0
ARC
8
0
10
46.442166
20
127.218000
30
0.0
40
0.200000
50
242.401721
51
360.000000
0
LINE
8
0
10
46.349512
20
127.040757
30
0.0
11
46.068442
21
127.187686
31
0.0
0
ARC
8
0
10
46.439057
20
127.896660
30
0.0
40
0.800000
50
197.401721
51
242.401721
0
LINE
8
0
10
45.675672
20
127.657405
30
0.0
11
45.073708
21
129.578073
31
0.0
0
ARC
8
0
10
45.359977
20
129.667794
30
0.0
40
0.300000
50
90.000000
51
197.401721
0
LINE
8
0
10
45.359977
20
129.967794
30
0.0
11
46.911071
21
129.967794
31
0.0
0
ARC
8
0
10
46.912473
20
129.767799
30
0.0
40
0.200000
50
29.632658
51
90.000000
0
ARC
8
0
10
47.347080
20
130.015018
30
0.0
40
0.300000
50
209.632658
51
287.401721
0
LINE
8
0
10
47.436801
20
129.728748
30
0.0
11
48.474247
21
130.002204
31
0.0
0
ARC
8
0
10
48.397783
20
130.292296
30
0.0
40
0.300000
50
284.766462
51
360.000000
0
LINE
8
0
10
4.800000
20
128.200000
30
0.0
11
4.453590
21
128.400000
31
0.0
0
LINE
8
0
10
4.453590
20
128.400000
30
0.0
11
2.100000
21
128.400000
31
0.0
0
ARC
8
0
10
2.100000
20
128.100000
30
0.0
40
0.300000
50
90.000000
51
180.000000
0
LINE
8
0
10
1.800000
20
128.100000
30
0.0
11
1.800000
21
31.899723
31
0.0
0
ARC
8
0
10
2.100000
20
31.899723
30
0.0
40
0.300000
50
180.000000
51
270.000000
0
LINE
8
0
10
2.100000
20
31.599723
30
0.0
11
4.453590
21
31.599723
31
0.0
0
LINE
8
0
10
4.453590
20
31.599723
30
0.0
11
4.800000
21
31.799723
31
0.0
0
LINE
8
0
10
4.800000
20
31.799723
30
0.0
11
9.597783
21
31.799723
31
0.0
0
ARC
8
0
10
9.597783
20
32.099723
30
0.0
40
0.300000
50
270.000000
51
360.000000
0
LINE
8
0
10
9.897783
20
32.099723
30
0.0
11
9.897783
21
127.900000
31
0.0
0
ARC
8
0
10
9.597783
20
127.900000
30
0.0
40
0.300000
50
360.000000
51
90.000000
0
LINE
8
0
10
9.597783
20
128.200000
30
0.0
11
4.800000
21
128.200000
31
0.0
0
LINE
8
0
10
2.782509
20
129.999723
30
0.0
11
11.957918
21
129.999723
31
0.0
0
LINE
8
0
10
11.957918
20
129.999723
30
0.0
11
12.958765
21
129.735914
31
0.0
0
ARC
8
0
10
13.048486
20
130.022184
30
0.0
40
0.300000
50
252.598279
51
330.367342
0
ARC
8
0
10
13.483093
20
129.774965
30
0.0
40
0.200000
50
90.000000
51
150.367342
0
LINE
8
0
10
13.484495
20
129.974960
30
0.0
11
15.035589
21
129.974960
31
0.0
0
ARC
8
0
10
15.035589
20
129.674960
30
0.0
40
0.300000
50
342.598279
51
90.000000
0
LINE
8
0
10
15.321858
20
129.585239
30
0.0
11
14.719894
21
127.664570
31
0.0
0
ARC
8
0
10
13.956509
20
127.903826
30
0.0
40
0.800000
50
297.598279
51
342.598279
0
LINE
8
0
10
14.327124
20
127.194852
30
0.0
11
14.046054
21
127.047923
31
0.0
0
ARC
8
0
10
13.953400
20
127.225166
30
0.0
40
0.200000
50
180.000000
51
297.598279
0
LINE
8
0
10
13.753576
20
127.233547
30
0.0
11
13.765673
21
127.521969
31
0.0
0
LINE
8
0
10
13.765673
20
127.521969
30
0.0
11
12.057576
21
128.606032
31
0.0
0
ARC
8
0
10
11.736065
20
128.099445
30
0.0
40
0.600000
50
57.598279
51
90.000000
0
LINE
8
0
10
11.736065
20
128.699445
30
0.0
11
11.697783
21
128.699445
31
0.0
0
ARC
8
0
10
11.797783
20
128.416602
30
0.0
40
0.300000
50
109.471221
51
250.528779
0
LINE
8
0
10
11.697783
20
128.133760
30
0.0
11
11.697783
21
124.100000
31
0.0
0
ARC
8
0
10
11.997783
20
124.100000
30
0.0
40
0.300000
50
180.000000
51
270.000000
0
LINE
8
0
10
11.997783
20
123.800000
30
0.0
11
12.217398
21
123.800000
31
0.0
0
ARC
8
0
10
12.217398
20
124.100000
30
0.0
40
0.300000
50
270.000000
51
301.373538
0
LINE
8
0
10
12.373583
20
123.843863
30
0.0
11
13.893660
21
124.770759
31
0.0
0
ARC
8
0
10
13.997783
20
124.600000
30
0.0
40
0.200000
50
360.000000
51
121.373538
0
LINE
8
0
10
14.197783
20
124.600000
30
0.0
11
14.197783
21
123.409437
31
0.0
0
ARC
8
0
10
13.197783
20
123.409437
30
0.0
40
1.000000
50
301.373538
51
360.000000
0
LINE
8
0
10
13.718398
20
122.555646
30
0.0
11
12.177168
21
121.615852
31
0.0
0
ARC
8
0
10
12.697783
20
120.762060
30
0.0
40
1.000000
50
121.373539
51
180.000000
0
LINE
8
0
10
11.697783
20
120.762060
30
0.0
11
11.697783
21
39.237385
31
0.0
0
ARC
8
0
10
12.697783
20
39.237385
30
0.0
40
1.000000
50
180.000000
51
238.626461
0
LINE
8
0
10
12.177168
20
38.383594
30
0.0
11
13.718398
21
37.443799
31
0.0
0
ARC
8
0
10
13.197783
20
36.590008
30
0.0
40
1.000000
50
360.000000
51
58.626462
0
LINE
8
0
10
14.197783
20
36.590008
30
0.0
11
14.197783
21
35.399445
31
0.0
0
ARC
8
0
10
13.997783
20
35.399445
30
0.0
40
0.200000
50
238.626462
51
360.000000
0
LINE
8
0
10
13.893660
20
35.228687
30
0.0
11
12.373583
21
36.155582
31
0.0
0
ARC
8
0
10
12.217398
20
35.899445
30
0.0
40
0.300000
50
58.626462
51
90.000000
0
LINE
8
0
10
12.217398
20
36.199445
30
0.0
11
11.997783
21
36.199445
31
0.0
0
ARC
8
0
10
11.997783
20
35.899445
30
0.0
40
0.300000
50
90.000000
51
180.000000
0
LINE
8
0
10
11.697783
20
35.899445
30
0.0
11
11.697783
21
31.865686
31
0.0
0
ARC
8
0
10
11.797783
20
31.582843
30
0.0
40
0.300000
50
109.471227
51
250.528773
0
LINE
8
0
10
11.697783
20
31.300000
30
0.0
11
11.736065
21
31.300000
31
0.0
0
ARC
8
0
10
11.736065
20
31.900000
30
0.0
40
0.600000
50
270.000000
51
302.401721
0
LINE
8
0
10
12.057576
20
31.393413
30
0.0
11
13.765673
21
32.477476
31
0.0
0
LINE
8
0
10
13.765673
20
32.477476
30
0.0
11
13.753576
21
32.765898
31
0.0
0
ARC
8
0
10
13.953400
20
32.774279
30
0.0
40
0.200000
50
62.401721
51
180.000000
0
LINE
8
0
10
14.046054
20
32.951523
30
0.0
11
14.327124
21
32.804593
31
0.0
0
ARC
8
0
10
13.956509
20
32.095619
30
0.0
40
0.800000
50
17.401721
51
62.401721
0
LINE
8
0
10
14.719894
20
32.334875
30
0.0
11
15.321858
21
30.414206
31
0.0
0
ARC
8
0
10
15.035589
20
30.324485
30
0.0
40
0.300000
50
270.000000
51
17.401721
0
LINE
8
0
10
15.035589
20
30.024485
30
0.0
11
13.484495
21
30.024485
31
0.0
0
ARC
8
0
10
13.483093
20
30.224480
30
0.0
40
0.200000
50
209.632658
51
270.000000
0
ARC
8
0
10
13.048486
20
29.977262
30
0.0
40
0.300000
50
29.632658
51
107.401721
0
LINE
8
0
10
12.958765
20
30.263531
30
0.0
11
11.996562
21
30.009908
31
0.0
0
LINE
8
0
10
11.920098
20
30.000000
30
0.0
11
11.996562
21
30.009908
31
0.0
0
LINE
8
0
10
11.920098
20
30.000000
30
0.0
11
2.782509
21
30.000000
31
0.0
0
ARC
8
0
10
2.782509
20
29.000000
30
0.0
40
1.000000
50
90.000000
51
178.989003
0
LINE
8
0
10
1.782664
20
29.017645
30
0.0
11
1.500000
21
13.000000
31
0.0
0
LINE
8
0
10
1.500000
20
13.000000
30
0.0
11
1.500000
21
10.300000
31
0.0
0
ARC
8
0
10
1.800000
20
10.300000
30
0.0
40
0.300000
50
180.000000
51
270.000000
0
LINE
8
0
10
1.800000
20
10.000000
30
0.0
11
2.900000
21
10.000000
31
0.0
0
ARC
8
0
10
2.900000
20
10.300000
30
0.0
40
0.300000
50
270.000000
51
360.000000
0
LINE
8
0
10
3.200000
20
10.300000
30
0.0
11
3.200000
21
11.200000
31
0.0
0
ARC
8
0
10
3.500000
20
11.200000
30
0.0
40
0.300000
50
90.000000
51
180.000000
0
LINE
8
0
10
3.500000
20
11.500000
30
0.0
11
3.900000
21
11.500000
31
0.0
0
ARC
8
0
10
3.900000
20
11.200000
30
0.0
40
0.300000
50
360.000000
51
90.000000
0
LINE
8
0
10
4.200000
20
11.200000
30
0.0
11
4.200000
21
8.200000
31
0.0
0
ARC
8
0
10
3.500000
20
8.200000
30
0.0
40
0.700000
50
270.000000
51
360.000000
0
ARC
8
0
10
3.500000
20
7.800000
30
0.0
40
0.300000
50
180.000000
51
270.000000
0
LINE
8
0
10
3.200000
20
7.800000
30
0.0
11
3.200000
21
8.500000
31
0.0
0
ARC
8
0
10
2.900000
20
8.500000
30
0.0
40
0.300000
50
360.000000
51
90.000000
0
LINE
8
0
10
2.900000
20
8.800000
30
0.0
11
2.000000
21
8.800000
31
0.0
0
ARC
8
0
10
2.000000
20
8.100000
30
0.0
40
0.700000
50
90.000000
51
180.000000
0
LINE
8
0
10
1.300000
20
8.100000
30
0.0
11
1.300000
21
1.900000
31
0.0
0
ARC
8
0
10
2.000000
20
1.900000
30
0.0
40
0.700000
50
180.000000
51
270.000000
0
LINE
8
0
10
2.000000
20
1.200000
30
0.0
11
2.900000
21
1.200000
31
0.0
0
ARC
8
0
10
2.900000
20
1.500000
30
0.0
40
0.300000
50
270.000000
51
360.000000
0
LINE
8
0
10
3.200000
20
1.500000
30
0.0
11
3.200000
21
2.200000
31
0.0
0
ARC
8
0
10
3.500000
20
2.200000
30
0.0
40
0.300000
50
90.000000
51
180.000000
0
ARC
8
0
10
3.500000
20
1.800000
30
0.0
40
0.700000
50
360.000000
51
90.000000
0
LINE
8
0
10
4.200000
20
1.800000
30
0.0
11
4.200000
21
0.300000
31
0.0
0
ARC
8
0
10
3.900000
20
0.300000
30
0.0
40
0.300000
50
270.000000
51
360.000000
0
LINE
8
0
10
3.900000
20
0.000000
30
0.0
11
0.300000
21
0.000000
31
0.0
0
ARC
8
0
10
0.300000
20
0.300000
30
0.0
40
0.300000
50
180.000000
51
270.000000
0
LINE
8
0
10
0.000000
20
0.300000
30
0.0
11
0.000000
21
159.699723
31
0.0
0
ARC
8
0
10
0.300000
20
159.699723
30
0.0
40
0.300000
50
90.000000
51
180.000000
0
LINE
8
0
10
0.300000
20
159.999723
30
0.0
11
3.900000
21
159.999723
31
0.0
0
ARC
8
0
10
3.900000
20
159.699723
30
0.0
40
0.300000
50
360.000000
51
90.000000
0
LINE
8
0
10
4.200000
20
159.699723
30
0.0
11
4.200000
21
158.199723
31
0.0
0
ARC
8
0
10
3.500000
20
158.199723
30
0.0
40
0.700000
50
270.000000
51
360.000000
0
ARC
8
0
10
3.500000
20
157.799723
30
0.0
40
0.300000
50
180.000000
51
270.000000
0
LINE
8
0
10
3.200000
20
157.799723
30
0.0
11
3.200000
21
158.499723
31
0.0
0
ARC
8
0
10
2.900000
20
158.499723
30
0.0
40
0.300000
50
360.000000
51
90.000000
0
LINE
8
0
10
2.900000
20
158.799723
30
0.0
11
2.000000
21
158.799723
31
0.0
0
ARC
8
0
10
2.000000
20
158.099723
30
0.0
40
0.700000
50
90.000000
51
180.000000
0
LINE
8
0
10
1.300000
20
158.099723
30
0.0
11
1.300000
21
151.899723
31
0.0
0
ARC
8
0
10
2.000000
20
151.899723
30
0.0
40
0.700000
50
180.000000
51
270.000000
0
LINE
8
0
10
2.000000
20
151.199723
30
0.0
11
2.900000
21
151.199723
31
0.0
0
ARC
8
0
10
2.900000
20
151.499723
30
0.0
40
0.300000
50
270.000000
51
360.000000
0
LINE
8
0
10
3.200000
20
151.499723
30
0.0
11
3.200000
21
152.199723
31
0.0
0
ARC
8
0
10
3.500000
20
152.199723
30
0.0
40
0.300000
50
90.000000
51
180.000000
0
ARC
8
0
10
3.500000
20
151.799723
30
0.0
40
0.700000
50
360.000000
51
90.000000
0
LINE
8
0
10
4.200000
20
151.799723
30
0.0
11
4.200000
21
148.799723
31
0.0
0
ARC
8
0
10
3.900000
20
148.799723
30
0.0
40
0.300000
50
270.000000
51
360.000000
0
LINE
8
0
10
3.900000
20
148.499723
30
0.0
11
3.500000
21
148.499723
31
0.0
0
ARC
8
0
10
3.500000
20
148.799723
30
0.0
40
0.300000
50
180.000000
51
270.000000
0
LINE
8
0
10
3.200000
20
148.799723
30
0.0
11
3.200000
21
149.699723
31
0.0
0
ARC
8
0
10
2.900000
20
149.699723
30
0.0
40
0.300000
50
360.000000
51
90.000000
0
LINE
8
0
10
2.900000
20
149.999723
30
0.0
11
1.800000
21
149.999723
31
0.0
0
ARC
8
0
10
1.800000
20
149.699723
30
0.0
40
0.300000
50
90.000000
51
180.000000
0
LINE
8
0
10
1.500000
20
149.699723
30
0.0
11
1.500000
21
146.999723
31
0.0
0
LINE
8
0
10
1.500000
20
146.999723
30
0.0
11
1.782664
21
130.982078
31
0.0
0
ARC
8
0
10
2.782509
20
130.999723
30
0.0
40
1.000000
50
181.010997
51
270.000000
0
LINE
8
0
10
28.497788
20
44.789637
30
0.0
11
28.663708
21
44.170415
31
0.0
0
ARC
8
0
10
27.697782
20
43.911596
30
0.0
40
1.000000
50
360.000000
51
15.000000
0
LINE
8
0
10
28.697782
20
43.911596
30
0.0
11
28.697782
21
33.735540
31
0.0
0
ARC
8
0
10
27.697782
20
33.735540
30
0.0
40
1.000000
50
338.260625
51
360.000000
0
LINE
8
0
10
28.626660
20
33.365155
30
0.0
11
28.209612
21
32.319252
31
0.0
0
ARC
8
0
10
27.280734
20
32.689637
30
0.0
40
1.000000
50
270.000000
51
338.260625
0
LINE
8
0
10
27.280734
20
31.689637
30
0.0
11
21.197782
21
31.689637
31
0.0
0
ARC
8
0
10
21.197782
20
31.789637
30
0.0
40
0.100000
50
180.000000
51
270.000000
0
ARC
8
0
10
20.697782
20
31.789637
30
0.0
40
0.400000
50
360.000000
51
90.000000
0
ARC
8
0
10
20.697782
20
31.789637
30
0.0
40
0.400000
50
90.000000
51
180.000000
0
ARC
8
0
10
20.197782
20
31.789637
30
0.0
40
0.100000
50
270.000000
51
360.000000
0
LINE
8
0
10
20.197782
20
31.689637
30
0.0
11
18.475565
21
31.689637
31
0.0
0
ARC
8
0
10
18.475565
20
32.889637
30
0.0
40
1.200000
50
200.000000
51
270.000000
0
LINE
8
0
10
17.347933
20
32.479213
30
0.0
11
16.637302
21
34.431657
31
0.0
0
ARC
8
0
10
15.697609
20
34.089637
30
0.0
40
1.000000
50
20.000000
51
90.000000
0
LINE
8
0
10
15.697609
20
35.089637
30
0.0
11
14.585782
21
35.089637
31
0.0
0
ARC
8
0
10
14.585782
20
36.289637
30
0.0
40
1.200000
50
240.018361
51
270.000000
0
LINE
8
0
10
13.986115
20
35.250215
30
0.0
11
12.404171
21
36.162874
31
0.0
0
ARC
8
0
10
12.304227
20
35.989637
30
0.0
40
0.200000
50
60.018361
51
90.000000
0
LINE
8
0
10
12.304227
20
36.189637
30
0.0
11
12.097782
21
36.189637
31
0.0
0
ARC
8
0
10
12.097782
20
35.789637
30
0.0
40
0.400000
50
90.000000
51
180.000000
0
LINE
8
0
10
11.697782
20
35.789637
30
0.0
11
11.697782
21
35.362842
31
0.0
0
ARC
8
0
10
11.897782
20
35.362842
30
0.0
40
0.200000
50
180.000000
51
240.000000
0
LINE
8
0
10
11.797782
20
35.189637
30
0.0
11
11.797782
21
34.814637
31
0.0
0
ARC
8
0
10
11.997782
20
34.814637
30
0.0
40
0.200000
50
180.000000
51
270.000000
0
LINE
8
0
10
11.997782
20
34.614637
30
0.0
11
12.109588
21
34.614637
31
0.0
0
LINE
8
0
10
12.109588
20
34.614637
30
0.0
11
12.194137
21
34.633387
31
0.0
0
ARC
8
0
10
12.447782
20
34.089637
30
0.0
40
0.600000
50
360.000000
51
115.007833
0
ARC
8
0
10
12.447782
20
34.089637
30
0.0
40
0.600000
50
244.992167
51
360.000000
0
LINE
8
0
10
12.194137
20
33.545887
30
0.0
11
12.109588
21
33.564637
31
0.0
0
LINE
8
0
10
12.109588
20
33.564637
30
0.0
11
11.997782
21
33.564637
31
0.0
0
ARC
8
0
10
11.997782
20
33.364637
30
0.0
40
0.200000
50
90.000000
51
180.000000
0
LINE
8
0
10
11.797782
20
33.364637
30
0.0
11
11.797782
21
32.989637
31
0.0
0
ARC
8
0
10
11.897782
20
32.816432
30
0.0
40
0.200000
50
120.000000
51
180.000000
0
LINE
8
0
10
11.697782
20
32.816432
30
0.0
11
11.697782
21
32.389637
31
0.0
0
ARC
8
0
10
12.097782
20
32.389637
30
0.0
40
0.400000
50
180.000000
51
270.000000
0
LINE
8
0
10
12.097782
20
31.989637
30
0.0
11
12.304227
21
31.989637
31
0.0
0
ARC
8
0
10
12.304227
20
32.189637
30
0.0
40
0.200000
50
270.000000
51
299.981639
0
LINE
8
0
10
12.404171
20
32.016400
30
0.0
11
13.986115
21
32.929060
31
0.0
0
ARC
8
0
10
14.585782
20
31.889637
30
0.0
40
1.200000
50
90.000000
51
119.981639
0
LINE
8
0
10
14.585782
20
33.089637
30
0.0
11
14.647845
21
33.089637
31
0.0
0
ARC
8
0
10
14.647845
20
32.589637
30
0.0
40
0.500000
50
17.401721
51
90.000000
0
LINE
8
0
10
15.124961
20
32.739172
30
0.0
11
16.053864
21
30.187031
31
0.0
0
ARC
8
0
10
16.335772
20
30.289637
30
0.0
40
0.300000
50
200.000000
51
270.000000
0
LINE
8
0
10
16.335772
20
29.989637
30
0.0
11
44.059793
21
29.989637
31
0.0
0
ARC
8
0
10
44.059793
20
30.289637
30
0.0
40
0.300000
50
270.000000
51
340.000000
0
LINE
8
0
10
44.341700
20
30.187031
30
0.0
11
45.270604
21
32.739172
31
0.0
0
ARC
8
0
10
45.747719
20
32.589637
30
0.0
40
0.500000
50
90.000000
51
162.598279
0
LINE
8
0
10
45.747719
20
33.089637
30
0.0
11
45.809783
21
33.089637
31
0.0
0
ARC
8
0
10
45.809783
20
31.889637
30
0.0
40
1.200000
50
60.018361
51
90.000000
0
LINE
8
0
10
46.409449
20
32.929060
30
0.0
11
47.991393
21
32.016400
31
0.0
0
ARC
8
0
10
48.091338
20
32.189637
30
0.0
40
0.200000
50
240.018361
51
270.000000
0
LINE
8
0
10
48.091338
20
31.989637
30
0.0
11
48.297782
21
31.989637
31
0.0
0
ARC
8
0
10
48.297782
20
32.389637
30
0.0
40
0.400000
50
270.000000
51
360.000000
0
LINE
8
0
10
48.697782
20
32.389637
30
0.0
11
48.697782
21
32.816432
31
0.0
0
ARC
8
0
10
48.497782
20
32.816432
30
0.0
40
0.200000
50
360.000000
51
60.000000
0
LINE
8
0
10
48.597782
20
32.989637
30
0.0
11
48.597782
21
33.364637
31
0.0
0
ARC
8
0
10
48.397782
20
33.364637
30
0.0
40
0.200000
50
360.000000
51
90.000000
0
LINE
8
0
10
48.397782
20
33.564637
30
0.0
11
48.285976
21
33.564637
31
0.0
0
LINE
8
0
10
48.285976
20
33.564637
30
0.0
11
48.201427
21
33.545887
31
0.0
0
ARC
8
0
10
47.947782
20
34.089637
30
0.0
40
0.600000
50
180.000000
51
295.007833
0
ARC
8
0
10
47.947782
20
34.089637
30
0.0
40
0.600000
50
64.992167
51
180.000000
0
LINE
8
0
10
48.201427
20
34.633387
30
0.0
11
48.285976
21
34.614637
31
0.0
0
LINE
8
0
10
48.285976
20
34.614637
30
0.0
11
48.397782
21
34.614637
31
0.0
0
ARC
8
0
10
48.397782
20
34.814637
30
0.0
40
0.200000
50
270.000000
51
360.000000
0
LINE
8
0
10
48.597782
20
34.814637
30
0.0
11
48.597782
21
35.189637
31
0.0
0
ARC
8
0
10
48.497782
20
35.362842
30
0.0
40
0.200000
50
300.000000
51
360.000000
0
LINE
8
0
10
48.697782
20
35.362842
30
0.0
11
48.697782
21
35.789637
31
0.0
0
ARC
8
0
10
48.297782
20
35.789637
30
0.0
40
0.400000
50
360.000000
51
90.000000
0
LINE
8
0
10
48.297782
20
36.189637
30
0.0
11
48.091338
21
36.189637
31
0.0
0
ARC
8
0
10
48.091338
20
35.989637
30
0.0
40
0.200000
50
90.000000
51
119.981639
0
LINE
8
0
10
47.991393
20
36.162874
30
0.0
11
46.409449
21
35.250215
31
0.0
0
ARC
8
0
10
45.809783
20
36.289637
30
0.0
40
1.200000
50
270.000000
51
299.981639
0
LINE
8
0
10
45.809783
20
35.089637
30
0.0
11
44.697955
21
35.089637
31
0.0
0
ARC
8
0
10
44.697955
20
34.089637
30
0.0
40
1.000000
50
90.000000
51
160.000000
0
LINE
8
0
10
43.758262
20
34.431657
30
0.0
11
43.047631
21
32.479213
31
0.0
0
ARC
8
0
10
41.920000
20
32.889637
30
0.0
40
1.200000
50
270.000000
51
340.000000
0
LINE
8
0
10
41.920000
20
31.689637
30
0.0
11
31.114434
21
31.689637
31
0.0
0
ARC
8
0
10
31.114434
20
32.689637
30
0.0
40
1.000000
50
201.938469
51
270.000000
0
LINE
8
0
10
30.186848
20
32.316027
30
0.0
11
29.770197
21
33.350472
31
0.0
0
ARC
8
0
10
30.697782
20
33.724083
30
0.0
40
1.000000
50
180.000000
51
201.938469
0
LINE
8
0
10
29.697782
20
33.724083
30
0.0
11
29.697782
21
43.911553
31
0.0
0
ARC
8
0
10
30.697782
20
43.911553
30
0.0
40
1.000000
50
165.000000
51
180.000000
0
LINE
8
0
10
29.731856
20
44.170372
30
0.0
11
29.897788
21
44.789637
31
0.0
0
LINE
8
0
10
29.897788
20
44.789637
30
0.0
11
29.897788
21
45.489637
31
0.0
0
ARC
8
0
10
29.597788
20
45.489637
30
0.0
40
0.300000
50
360.000000
51
90.000000
0
LINE
8
0
10
29.597788
20
45.789637
30
0.0
11
28.797788
21
45.789637
31
0.0
0
ARC
8
0
10
28.797788
20
45.489637
30
0.0
40
0.300000
50
90.000000
51
180.000000
0
LINE
8
0
10
28.497788
20
45.489637
30
0.0
11
28.497788
21
44.789637
31
0.0
0
LINE
8
0
10
50.497783
20
31.597165
30
0.0
11
64.897783
21
31.597165
31
0.0
0
ARC
8
0
10
64.897783
20
31.897165
30
0.0
40
0.300000
50
270.000000
51
360.000000
0
LINE
8
0
10
65.197783
20
31.897165
30
0.0
11
65.197783
21
128.092280
31
0.0
0
ARC
8
0
10
64.897783
20
128.092280
30
0.0
40
0.300000
50
360.000000
51
90.000000
0
LINE
8
0
10
64.897783
20
128.392280
30
0.0
11
50.497783
21
128.392280
31
0.0
0
ARC
8
0
10
50.497783
20
128.092280
30
0.0
40
0.300000
50
90.000000
51
180.000000
0
LINE
8
0
10
50.197783
20
128.092280
30
0.0
11
50.197783
21
114.092280
31
0.0
0
ARC
8
0
10
50.497783
20
114.092280
30
0.0
40
0.300000
50
180.000000
51
270.000000
0
LINE
8
0
10
50.497783
20
113.792280
30
0.0
11
57.697783
21
113.792280
31
0.0
0
ARC
8
0
10
57.697783
20
110.092280
30
0.0
40
3.700000
50
51.317813
51
90.000000
0
ARC
8
0
10
59.697783
20
112.590279
30
0.0
40
0.500000
50
360.000000
51
51.317813
0
LINE
8
0
10
60.197783
20
112.590279
30
0.0
11
60.197783
21
111.824331
31
0.0
0
ARC
8
0
10
59.697783
20
111.824331
30
0.0
40
0.500000
50
300.000000
51
360.000000
0
LINE
8
0
10
59.947783
20
111.391318
30
0.0
11
59.907421
21
111.368015
31
0.0
0
ARC
8
0
10
59.657421
20
111.801028
30
0.0
40
0.500000
50
221.087489
51
300.000000
0
ARC
8
0
10
57.697783
20
110.092280
30
0.0
40
2.100000
50
41.087489
51
72.857143
0
LINE
8
0
10
58.316769
20
112.098983
30
0.0
11
58.405195
21
112.385655
31
0.0
0
ARC
8
0
10
57.697783
20
110.092280
30
0.0
40
2.400000
50
72.857143
51
115.714286
0
LINE
8
0
10
56.656462
20
112.254605
30
0.0
11
56.786627
21
111.984315
31
0.0
0
ARC
8
0
10
57.697783
20
110.092280
30
0.0
40
2.100000
50
115.714286
51
158.571429
0
LINE
8
0
10
55.742948
20
110.859496
30
0.0
11
55.463686
21
110.969099
31
0.0
0
ARC
8
0
10
57.697783
20
110.092280
30
0.0
40
2.400000
50
158.571429
51
201.428571
0
LINE
8
0
10
55.463686
20
109.215462
30
0.0
11
55.742948
21
109.325064
31
0.0
0
ARC
8
0
10
57.697783
20
110.092280
30
0.0
40
2.100000
50
201.428571
51
244.285714
0
LINE
8
0
10
56.786627
20
108.200246
30
0.0
11
56.656462
21
107.929955
31
0.0
0
ARC
8
0
10
57.697783
20
110.092280
30
0.0
40
2.400000
50
244.285714
51
287.142857
0
LINE
8
0
10
58.405195
20
107.798905
30
0.0
11
58.316769
21
108.085577
31
0.0
0
ARC
8
0
10
57.697783
20
110.092280
30
0.0
40
2.100000
50
287.142857
51
318.912511
0
ARC
8
0
10
59.657421
20
108.383532
30
0.0
40
0.500000
50
60.000000
51
138.912511
0
LINE
8
0
10
59.907421
20
108.816545
30
0.0
11
59.947783
21
108.793242
31
0.0
0
ARC
8
0
10
59.697783
20
108.360229
30
0.0
40
0.500000
50
360.000000
51
60.000000
0
LINE
8
0
10
60.197783
20
108.360229
30
0.0
11
60.197783
21
107.594281
31
0.0
0
ARC
8
0
10
59.697783
20
107.594281
30
0.0
40
0.500000
50
308.682187
51
360.000000
0
ARC
8
0
10
57.697783
20
110.092280
30
0.0
40
3.700000
50
161.969465
51
308.682187
0
ARC
8
0
10
53.704038
20
111.392280
30
0.0
40
0.500000
50
341.969465
51
90.000000
0
LINE
8
0
10
53.704038
20
111.892280
30
0.0
11
50.497783
21
111.892280
31
0.0
0
ARC
8
0
10
50.497783
20
111.592280
30
0.0
40
0.300000
50
90.000000
51
180.000000
0
LINE
8
0
10
50.197783
20
111.592280
30
0.0
11
50.197783
21
48.397165
31
0.0
0
ARC
8
0
10
50.497783
20
48.397165
30
0.0
40
0.300000
50
180.000000
51
270.000000
0
LINE
8
0
10
50.497783
20
48.097165
30
0.0
11
53.704038
21
48.097165
31
0.0
0
ARC
8
0
10
53.704038
20
48.597165
30
0.0
40
0.500000
50
270.000000
51
18.030535
0
ARC
8
0
10
57.697783
20
49.897165
30
0.0
40
3.700000
50
51.317813
51
198.030535
0
ARC
8
0
10
59.697783
20
52.395164
30
0.0
40
0.500000
50
360.000000
51
51.317813
0
LINE
8
0
10
60.197783
20
52.395164
30
0.0
11
60.197783
21
51.629216
31
0.0
0
ARC
8
0
10
59.697783
20
51.629216
30
0.0
40
0.500000
50
300.000000
51
360.000000
0
LINE
8
0
10
59.947783
20
51.196203
30
0.0
11
59.907421
21
51.172900
31
0.0
0
ARC
8
0
10
59.657421
20
51.605913
30
0.0
40
0.500000
50
221.087489
51
300.000000
0
ARC
8
0
10
57.697783
20
49.897165
30
0.0
40
2.100000
50
41.087489
51
72.857143
0
LINE
8
0
10
58.316769
20
51.903868
30
0.0
11
58.405195
21
52.190540
31
0.0
0
ARC
8
0
10
57.697783
20
49.897165
30
0.0
40
2.400000
50
72.857143
51
115.714286
0
LINE
8
0
10
56.656462
20
52.059490
30
0.0
11
56.786627
21
51.789200
31
0.0
0
ARC
8
0
10
57.697783
20
49.897165
30
0.0
40
2.100000
50
115.714286
51
158.571429
0
LINE
8
0
10
55.742948
20
50.664381
30
0.0
11
55.463686
21
50.773984
31
0.0
0
ARC
8
0
10
57.697783
20
49.897165
30
0.0
40
2.400000
50
158.571429
51
201.428571
0
LINE
8
0
10
55.463686
20
49.020347
30
0.0
11
55.742948
21
49.129949
31
0.0
0
ARC
8
0
10
57.697783
20
49.897165
30
0.0
40
2.100000
50
201.428571
51
244.285714
0
LINE
8
0
10
56.786627
20
48.005130
30
0.0
11
56.656462
21
47.734840
31
0.0
0
ARC
8
0
10
57.697783
20
49.897165
30
0.0
40
2.400000
50
244.285714
51
287.142857
0
LINE
8
0
10
58.405195
20
47.603790
30
0.0
11
58.316769
21
47.890462
31
0.0
0
ARC
8
0
10
57.697783
20
49.897165
30
0.0
40
2.100000
50
287.142857
51
318.912511
0
ARC
8
0
10
59.657421
20
48.188417
30
0.0
40
0.500000
50
60.000000
51
138.912511
0
LINE
8
0
10
59.907421
20
48.621430
30
0.0
11
59.947783
21
48.598127
31
0.0
0
ARC
8
0
10
59.697783
20
48.165114
30
0.0
40
0.500000
50
360.000000
51
60.000000
0
LINE
8
0
10
60.197783
20
48.165114
30
0.0
11
60.197783
21
47.399166
31
0.0
0
ARC
8
0
10
59.697783
20
47.399166
30
0.0
40
0.500000
50
308.682187
51
360.000000
0
ARC
8
0
10
57.697783
20
49.897165
30
0.0
40
3.700000
50
270.000000
51
308.682187
0
LINE
8
0
10
57.697783
20
46.197165
30
0.0
11
50.497783
21
46.197165
31
0.0
0
ARC
8
0
10
50.497783
20
45.897165
30
0.0
40
0.300000
50
90.000000
51
180.000000
0
LINE
8
0
10
50.197783
20
45.897165
30
0.0
11
50.197783
21
31.897165
31
0.0
0
ARC
8
0
10
50.497783
20
31.897165
30
0.0
40
0.300000
50
180.000000
51
270.000000
0
ARC
8
0
10
18.483976
20
134.759541
30
0.0
40
0.200000
50
45.000000
51
90.000000
0
LINE
8
0
10
19.258240
20
134.268119
30
0.0
11
18.625397
21
134.900962
31
0.0
0
LINE
8
0
10
18.483976
20
134.959541
30
0.0
11
17.216819
21
134.959541
31
0.0
0
ARC
8
0
10
19.116819
20
134.126698
30
0.0
40
0.200000
50
360.000000
51
45.000000
0
ARC
8
0
10
17.216819
20
134.459541
30
0.0
40
0.500000
50
90.000000
51
180.000000
0
LINE
8
0
10
19.316819
20
133.659541
30
0.0
11
19.316819
21
134.126698
31
0.0
0
LINE
8
0
10
16.716819
20
134.459541
30
0.0
11
16.716819
21
130.309541
31
0.0
0
ARC
8
0
10
19.116819
20
133.659541
30
0.0
40
0.200000
50
270.000000
51
360.000000
0
ARC
8
0
10
16.416819
20
130.309541
30
0.0
40
0.300000
50
270.000000
51
360.000000
0
LINE
8
0
10
18.316819
20
133.459541
30
0.0
11
19.116819
21
133.459541
31
0.0
0
LINE
8
0
10
16.416819
20
130.009541
30
0.0
11
16.335773
21
130.009541
31
0.0
0
ARC
8
0
10
18.316819
20
133.259541
30
0.0
40
0.200000
50
90.000000
51
180.000000
0
ARC
8
0
10
16.335773
20
129.709541
30
0.0
40
0.300000
50
90.000000
51
160.000000
0
LINE
8
0
10
18.116819
20
130.471224
30
0.0
11
18.116819
21
133.259541
31
0.0
0
LINE
8
0
10
16.053865
20
129.812147
30
0.0
11
15.135233
21
127.288228
31
0.0
0
ARC
8
0
10
18.616819
20
130.471224
30
0.0
40
0.500000
50
180.000000
51
270.000000
0
ARC
8
0
10
14.665387
20
127.459238
30
0.0
40
0.500000
50
270.000000
51
340.000000
0
LINE
8
0
10
25.716819
20
129.971224
30
0.0
11
18.616819
21
129.971224
31
0.0
0
LINE
8
0
10
14.665392
20
126.959238
30
0.0
11
14.498848
21
126.959236
31
0.0
0
ARC
8
0
10
25.716819
20
130.471224
30
0.0
40
0.500000
50
270.000000
51
360.000000
0
ARC
8
0
10
14.498837
20
128.159236
30
0.0
40
1.200000
50
240.018361
51
270.000000
0
LINE
8
0
10
26.216819
20
133.259541
30
0.0
11
26.216819
21
130.471224
31
0.0
0
LINE
8
0
10
13.899171
20
127.119814
30
0.0
11
12.403926
21
127.982455
31
0.0
0
ARC
8
0
10
26.016819
20
133.259541
30
0.0
40
0.200000
50
360.000000
51
90.000000
0
ARC
8
0
10
12.303981
20
127.809218
30
0.0
40
0.200000
50
60.018361
51
90.000000
0
LINE
8
0
10
25.216819
20
133.459541
30
0.0
11
26.016819
21
133.459541
31
0.0
0
LINE
8
0
10
12.303981
20
128.009218
30
0.0
11
12.097537
21
128.009218
31
0.0
0
ARC
8
0
10
25.216819
20
133.659541
30
0.0
40
0.200000
50
180.000000
51
270.000000
0
ARC
8
0
10
12.097537
20
127.609218
30
0.0
40
0.400000
50
90.000000
51
180.000000
0
LINE
8
0
10
25.016819
20
134.126698
30
0.0
11
25.016819
21
133.659541
31
0.0
0
LINE
8
0
10
11.697537
20
127.609218
30
0.0
11
11.697537
21
127.182423
31
0.0
0
ARC
8
0
10
25.216819
20
134.126698
30
0.0
40
0.200000
50
135.000000
51
180.000000
0
ARC
8
0
10
11.897537
20
127.182423
30
0.0
40
0.200000
50
180.000000
51
240.000000
0
LINE
8
0
10
25.708240
20
134.900962
30
0.0
11
25.075397
21
134.268119
31
0.0
0
LINE
8
0
10
11.797537
20
127.009218
30
0.0
11
11.797537
21
126.634218
31
0.0
0
ARC
8
0
10
25.849661
20
134.759541
30
0.0
40
0.200000
50
90.000000
51
135.000000
0
ARC
8
0
10
11.997537
20
126.634218
30
0.0
40
0.200000
50
180.000000
51
270.000000
0
LINE
8
0
10
30.196626
20
134.959541
30
0.0
11
25.849661
21
134.959541
31
0.0
0
LINE
8
0
10
11.997537
20
126.434218
30
0.0
11
12.109343
21
126.434218
31
0.0
0
ARC
8
0
10
30.196626
20
134.759541
30
0.0
40
0.200000
50
45.000000
51
90.000000
0
LINE
8
0
10
12.109343
20
126.434218
30
0.0
11
12.193892
21
126.452968
31
0.0
0
LINE
8
0
10
30.970891
20
134.268119
30
0.0
11
30.338048
21
134.900962
31
0.0
0
ARC
8
0
10
12.447537
20
125.909218
30
0.0
40
0.600000
50
360.000000
51
115.007833
0
ARC
8
0
10
30.829469
20
134.126698
30
0.0
40
0.200000
50
360.000000
51
45.000000
0
ARC
8
0
10
12.447537
20
125.909218
30
0.0
40
0.600000
50
244.992167
51
360.000000
0
LINE
8
0
10
31.029469
20
133.659541
30
0.0
11
31.029469
21
134.126698
31
0.0
0
LINE
8
0
10
12.193892
20
125.365468
30
0.0
11
12.109343
21
125.384218
31
0.0
0
ARC
8
0
10
30.829469
20
133.659541
30
0.0
40
0.200000
50
270.000000
51
360.000000
0
LINE
8
0
10
12.109343
20
125.384218
30
0.0
11
11.997537
21
125.384218
31
0.0
0
LINE
8
0
10
27.816819
20
133.459541
30
0.0
11
30.829469
21
133.459541
31
0.0
0
ARC
8
0
10
11.997537
20
125.184218
30
0.0
40
0.200000
50
90.000000
51
180.000000
0
ARC
8
0
10
27.816819
20
133.259541
30
0.0
40
0.200000
50
90.000000
51
180.000000
0
LINE
8
0
10
11.797537
20
125.184218
30
0.0
11
11.797537
21
124.809218
31
0.0
0
LINE
8
0
10
27.616819
20
127.471224
30
0.0
11
27.616819
21
133.259541
31
0.0
0
ARC
8
0
10
11.897537
20
124.636013
30
0.0
40
0.200000
50
120.000000
51
180.000000
0
ARC
8
0
10
28.616819
20
127.471224
30
0.0
40
1.000000
50
180.000000
51
270.000000
0
LINE
8
0
10
11.697537
20
124.636013
30
0.0
11
11.697537
21
124.209218
31
0.0
0
LINE
8
0
10
33.448144
20
126.471224
30
0.0
11
28.616819
21
126.471224
31
0.0
0
ARC
8
0
10
12.097537
20
124.209218
30
0.0
40
0.400000
50
180.000000
51
270.000000
0
LINE
8
0
10
33.648144
20
126.271224
30
0.0
11
33.448144
21
126.471224
31
0.0
0
LINE
8
0
10
12.097537
20
123.809218
30
0.0
11
12.303981
21
123.809218
31
0.0
0
LINE
8
0
10
33.848144
20
126.471224
30
0.0
11
33.648144
21
126.271224
31
0.0
0
ARC
8
0
10
12.303981
20
124.009218
30
0.0
40
0.200000
50
270.000000
51
299.981639
0
LINE
8
0
10
38.679469
20
126.471224
30
0.0
11
33.848144
21
126.471224
31
0.0
0
LINE
8
0
10
12.403926
20
123.835981
30
0.0
11
13.899235
21
124.698659
31
0.0
0
ARC
8
0
10
38.679469
20
127.471224
30
0.0
40
1.000000
50
270.000000
51
360.000000
0
ARC
8
0
10
14.498902
20
123.659236
30
0.0
40
1.200000
50
90.000000
51
119.981639
0
LINE
8
0
10
39.679469
20
133.259541
30
0.0
11
39.679469
21
127.471224
31
0.0
0
LINE
8
0
10
14.498891
20
124.859236
30
0.0
11
15.679314
21
124.859247
31
0.0
0
ARC
8
0
10
39.479469
20
133.259541
30
0.0
40
0.200000
50
360.000000
51
90.000000
0
ARC
8
0
10
15.679305
20
125.859247
30
0.0
40
1.000000
50
270.000000
51
340.000000
0
LINE
8
0
10
36.929469
20
133.459541
30
0.0
11
39.479469
21
133.459541
31
0.0
0
LINE
8
0
10
16.618997
20
125.517227
30
0.0
11
17.333988
21
127.481648
31
0.0
0
ARC
8
0
10
36.929469
20
133.659541
30
0.0
40
0.200000
50
180.000000
51
270.000000
0
ARC
8
0
10
18.461619
20
127.071224
30
0.0
40
1.200000
50
90.000000
51
160.000000
0
LINE
8
0
10
36.729469
20
134.126698
30
0.0
11
36.729469
21
133.659541
31
0.0
0
LINE
8
0
10
18.461619
20
128.271224
30
0.0
11
23.820794
21
128.271224
31
0.0
0
ARC
8
0
10
36.929469
20
134.126698
30
0.0
40
0.200000
50
135.000000
51
180.000000
0
ARC
8
0
10
23.820794
20
126.271224
30
0.0
40
2.000000
50
360.000000
51
90.000000
0
LINE
8
0
10
37.420891
20
134.900962
30
0.0
11
36.788048
21
134.268119
31
0.0
0
LINE
8
0
10
25.820794
20
126.271224
30
0.0
11
25.820794
21
125.971224
31
0.0
0
ARC
8
0
10
37.562312
20
134.759541
30
0.0
40
0.200000
50
90.000000
51
135.000000
0
ARC
8
0
10
27.320794
20
125.971224
30
0.0
40
1.500000
50
180.000000
51
270.000000
0
LINE
8
0
10
40.579469
20
134.959541
30
0.0
11
37.562312
21
134.959541
31
0.0
0
LINE
8
0
10
27.320794
20
124.471224
30
0.0
11
40.333122
21
124.471224
31
0.0
0
ARC
8
0
10
40.579469
20
134.459541
30
0.0
40
0.500000
50
360.000000
51
90.000000
0
ARC
8
0
10
40.333122
20
124.971224
30
0.0
40
0.500000
50
270.000000
51
341.953701
0
LINE
8
0
10
41.079469
20
130.509541
30
0.0
11
41.079469
21
134.459541
31
0.0
0
LINE
8
0
10
40.808526
20
124.816331
30
0.0
11
41.736475
21
127.664433
31
0.0
0
ARC
8
0
10
41.579469
20
130.509541
30
0.0
40
0.500000
50
180.000000
51
270.000000
0
ARC
8
0
10
42.211878
20
127.509541
30
0.0
40
0.500000
50
90.000000
51
161.953701
0
LINE
8
0
10
44.059793
20
130.009541
30
0.0
11
41.579469
21
130.009541
31
0.0
0
LINE
8
0
10
42.211878
20
128.009541
30
0.0
11
42.519337
21
128.009541
31
0.0
0
ARC
8
0
10
44.059793
20
129.709541
30
0.0
40
0.300000
50
20.000000
51
90.000000
0
ARC
8
0
10
42.519337
20
127.509541
30
0.0
40
0.500000
50
20.000000
51
90.000000
0
LINE
8
0
10
45.260222
20
127.288531
30
0.0
11
44.341701
21
129.812147
31
0.0
0
LINE
8
0
10
42.989183
20
127.680551
30
0.0
11
43.776462
21
125.517521
31
0.0
0
ARC
8
0
10
45.730069
20
127.459541
30
0.0
40
0.500000
50
200.000000
51
270.000000
0
ARC
8
0
10
44.716154
20
125.859541
30
0.0
40
1.000000
50
200.000000
51
270.000000
0
LINE
8
0
10
45.848224
20
126.959541
30
0.0
11
45.730069
21
126.959541
31
0.0
0
LINE
8
0
10
44.716154
20
124.859541
30
0.0
11
45.950006
21
124.859541
31
0.0
0
LINE
8
0
10
46.003561
20
126.959541
30
0.0
11
45.848224
21
126.959541
31
0.0
0
ARC
8
0
10
45.950006
20
123.859541
30
0.0
40
1.000000
50
60.018361
51
90.000000
0
ARC
8
0
10
46.003561
20
127.759541
30
0.0
40
0.800000
50
270.000000
51
299.981639
0
LINE
8
0
10
46.449728
20
124.725726
30
0.0
11
47.991394
21
123.836304
31
0.0
0
LINE
8
0
10
47.991394
20
127.982778
30
0.0
11
46.403339
21
127.066592
31
0.0
0
ARC
8
0
10
48.091338
20
124.009541
30
0.0
40
0.200000
50
240.018361
51
270.000000
0
ARC
8
0
10
48.091338
20
127.809541
30
0.0
40
0.200000
50
90.000000
51
119.981639
0
LINE
8
0
10
48.091338
20
123.809541
30
0.0
11
48.297783
21
123.809541
31
0.0
0
LINE
8
0
10
48.297783
20
128.009541
30
0.0
11
48.091338
21
128.009541
31
0.0
0
ARC
8
0
10
48.297783
20
124.209541
30
0.0
40
0.400000
50
270.000000
51
360.000000
0
ARC
8
0
10
48.297783
20
127.609541
30
0.0
40
0.400000
50
360.000000
51
90.000000
0
LINE
8
0
10
48.697783
20
124.209541
30
0.0
11
48.697783
21
124.636336
31
0.0
0
LINE
8
0
10
48.697783
20
127.182746
30
0.0
11
48.697783
21
127.609541
31
0.0
0
ARC
8
0
10
48.497783
20
124.636336
30
0.0
40
0.200000
50
360.000000
51
60.000000
0
ARC
8
0
10
48.497783
20
127.182746
30
0.0
40
0.200000
50
300.000000
51
360.000000
0
LINE
8
0
10
48.597783
20
124.809541
30
0.0
11
48.597783
21
125.184541
31
0.0
0
LINE
8
0
10
48.597783
20
126.634541
30
0.0
11
48.597783
21
127.009541
31
0.0
0
ARC
8
0
10
48.397783
20
125.184541
30
0.0
40
0.200000
50
360.000000
51
90.000000
0
ARC
8
0
10
48.397783
20
126.634541
30
0.0
40
0.200000
50
270.000000
51
360.000000
0
LINE
8
0
10
48.397783
20
125.384541
30
0.0
11
48.285977
21
125.384541
31
0.0
0
LINE
8
0
10
48.285977
20
126.434541
30
0.0
11
48.397783
21
126.434541
31
0.0
0
LINE
8
0
10
48.285977
20
125.384541
30
0.0
11
48.201428
21
125.365791
31
0.0
0
LINE
8
0
10
48.201428
20
126.453291
30
0.0
11
48.285977
21
126.434541
31
0.0
0
ARC
8
0
10
47.947783
20
125.909541
30
0.0
40
0.600000
50
180.000000
51
295.007833
0
ARC
8
0
10
47.947783
20
125.909541
30
0.0
40
0.600000
50
64.992167
51
180.000000
0
ATTDEF
8
0
10
0.000000
20
0.000000
30
0.0
40
3.5
1

3

2
DENS:0.000000
70
0
0
ATTDEF
8
0
10
0.000000
20
0.000000
30
0.0
40
3.5
1

3

2
GLASS_MIN:0.000000
70
0
0
ATTDEF
8
0
10
0.000000
20
0.000000
30
0.0
40
3.5
1

3

2
GLASS_MAX:0.000000
70
0
0
ATTDEF
8
0
10
0.000000
20
0.000000
30
0.0
40
3.5
1

3

2
DESC:K1488 - U20630
70
0
0
ATTDEF
8
0
10
0.000000
20
0.000000
30
0.0
40
3.5
1

3

2
BL01:6500.000000,,1
70
0
0
ATTDEF
8
0
10
0.000000
20
0.000000
30
0.0
40
3.5
1

3

2
HW_START
70
0
0
ATTDEF
8
0
10
66.697783
20
159.999723
30
0.0
40
3.5
1

3

2
HW_END
70
0
0
ATTDEF
8
0
10
64.773060
20
134.992280
30
0.0
40
3.5
1

3

2
VC_START
70
0
0
ATTDEF
8
0
10
64.597783
20
0.000000
30
0.0
40
3.5
1

3

2
VC_END
70
0
0
ATTDEF
8
0
10
0.000000
20
0.000000
30
0.0
40
3.5
1

3

2
FP_LCS_ORIG
70
0
0
ATTDEF
8
0
10
10.000000
20
0.000000
30
0.0
40
3.5
1

3

2
FP_LCS_HOT
70
0
0
ATTDEF
8
0
10
0.000000
20
10.000000
30
0.0
40
3.5
1

3

2
FP_LCS_INTERN
70
0
0
ATTDEF
8
0
10
0.000000
20
0.000000
30
0.0
40
3.5
1

3

2
PANE_WIDTH:62.000000
70
0
0
ENDSEC
0
EOF
