0
SECTION
2
ENTITIES
0
ARC
8
0
10
155.677898
20
205.722106
30
0.0
40
0.300000
50
270.000000
51
0.000000
0
LINE
8
0
10
155.977898
20
205.722106
30
0.0
11
155.977898
21
209.622106
31
0.0
0
ARC
8
0
10
156.277898
20
209.622106
30
0.0
40
0.300000
50
90.000000
51
180.000000
0
LINE
8
0
10
156.277898
20
209.922106
30
0.0
11
157.277898
21
209.922106
31
0.0
0
ARC
8
0
10
157.277898
20
209.622106
30
0.0
40
0.300000
50
0.000000
51
90.000000
0
LINE
8
0
10
157.577898
20
209.622106
30
0.0
11
157.577898
21
199.222106
31
0.0
0
ARC
8
0
10
157.877898
20
199.222106
30
0.0
40
0.300000
50
180.000000
51
270.000000
0
LINE
8
0
10
157.877898
20
198.922106
30
0.0
11
166.028156
21
198.922106
31
0.0
0
ARC
8
0
10
166.028156
20
198.622106
30
0.0
40
0.300000
50
0.000000
51
90.000000
0
LINE
8
0
10
166.328156
20
198.622106
30
0.0
11
166.328156
21
158.222078
31
0.0
0
ARC
8
0
10
166.028156
20
158.222078
30
0.0
40
0.300000
50
270.000000
51
0.000000
0
LINE
8
0
10
166.028156
20
157.922078
30
0.0
11
164.328156
21
157.922078
31
0.0
0
ARC
8
0
10
164.328156
20
158.722078
30
0.0
40
0.800000
50
180.000000
51
270.000000
0
LINE
8
0
10
163.528156
20
158.722078
30
0.0
11
163.528156
21
158.822078
31
0.0
0
ARC
8
0
10
163.828156
20
158.822078
30
0.0
40
0.300000
50
90.000000
51
180.000000
0
LINE
8
0
10
163.828156
20
159.122078
30
0.0
11
164.528156
21
159.122078
31
0.0
0
ARC
8
0
10
164.528156
20
159.422078
30
0.0
40
0.300000
50
270.000000
51
0.000000
0
LINE
8
0
10
164.828156
20
159.422078
30
0.0
11
164.828156
21
164.122078
31
0.0
0
ARC
8
0
10
164.528156
20
164.122078
30
0.0
40
0.300000
50
0.000000
51
90.000000
0
LINE
8
0
10
164.528156
20
164.422078
30
0.0
11
156.389799
21
164.422078
31
0.0
0
ARC
8
0
10
156.389799
20
164.122078
30
0.0
40
0.300000
50
90.000000
51
173.157227
0
LINE
8
0
10
156.091936
20
164.157822
30
0.0
11
155.823646
21
161.922078
31
0.0
0
LINE
8
0
10
155.823646
20
161.922078
30
0.0
11
155.823646
21
159.422078
31
0.0
0
ARC
8
0
10
156.123646
20
159.422078
30
0.0
40
0.300000
50
180.000000
51
270.000000
0
LINE
8
0
10
156.123646
20
159.122078
30
0.0
11
156.828156
21
159.122078
31
0.0
0
ARC
8
0
10
156.828156
20
158.822078
30
0.0
40
0.300000
50
0.000000
51
90.000000
0
LINE
8
0
10
157.128156
20
158.822078
30
0.0
11
157.128156
21
158.722078
31
0.0
0
ARC
8
0
10
156.328156
20
158.722078
30
0.0
40
0.800000
50
270.000000
51
0.000000
0
LINE
8
0
10
156.328156
20
157.922078
30
0.0
11
154.628139
21
157.922078
31
0.0
0
ARC
8
0
10
154.628139
20
158.222078
30
0.0
40
0.300000
50
180.000000
51
270.000000
0
LINE
8
0
10
154.328139
20
158.222062
30
0.0
11
154.327898
21
162.622078
31
0.0
0
ARC
8
0
10
154.027898
20
162.622061
30
0.0
40
0.300000
50
0.000000
51
75.233538
0
LINE
8
0
10
154.104362
20
162.912153
30
0.0
11
153.066916
21
163.185609
31
0.0
0
ARC
8
0
10
152.977195
20
162.899339
30
0.0
40
0.300000
50
72.598279
51
150.367342
0
ARC
8
0
10
152.542588
20
163.146558
30
0.0
40
0.200000
50
270.000000
51
330.367342
0
LINE
8
0
10
152.541186
20
162.946563
30
0.0
11
150.990092
21
162.946563
31
0.0
0
ARC
8
0
10
150.990092
20
163.246563
30
0.0
40
0.300000
50
162.598279
51
270.000000
0
LINE
8
0
10
150.703822
20
163.336284
30
0.0
11
151.305787
21
165.256953
31
0.0
0
ARC
8
0
10
152.069172
20
165.017697
30
0.0
40
0.800000
50
117.598279
51
162.598279
0
LINE
8
0
10
151.698556
20
165.726671
30
0.0
11
151.979627
21
165.873600
31
0.0
0
ARC
8
0
10
152.072281
20
165.696357
30
0.0
40
0.200000
50
0.000000
51
117.598279
0
LINE
8
0
10
152.272105
20
165.687976
30
0.0
11
152.260008
21
165.399554
31
0.0
0
LINE
8
0
10
152.260008
20
165.399554
30
0.0
11
153.968105
21
164.315491
31
0.0
0
ARC
8
0
10
154.289616
20
164.822078
30
0.0
40
0.600000
50
237.598279
51
270.000000
0
LINE
8
0
10
154.289616
20
164.222078
30
0.0
11
154.327898
21
164.222078
31
0.0
0
ARC
8
0
10
154.227898
20
164.504921
30
0.0
40
0.300000
50
289.471221
51
70.528779
0
LINE
8
0
10
154.327898
20
164.787763
30
0.0
11
154.327898
21
168.822078
31
0.0
0
ARC
8
0
10
154.027898
20
168.822078
30
0.0
40
0.300000
50
0.000000
51
90.000000
0
LINE
8
0
10
154.027898
20
169.122078
30
0.0
11
153.808283
21
169.122078
31
0.0
0
ARC
8
0
10
153.808283
20
168.822078
30
0.0
40
0.300000
50
90.000000
51
120.000000
0
LINE
8
0
10
153.658283
20
169.081886
30
0.0
11
152.127898
21
168.198318
31
0.0
0
ARC
8
0
10
152.027898
20
168.371523
30
0.0
40
0.200000
50
180.000000
51
300.000000
0
LINE
8
0
10
151.827898
20
168.371523
30
0.0
11
151.827898
21
169.526223
31
0.0
0
ARC
8
0
10
152.827898
20
169.526223
30
0.0
40
1.000000
50
119.999999
51
180.000000
0
LINE
8
0
10
152.327898
20
170.392249
30
0.0
11
153.827898
21
171.258274
31
0.0
0
ARC
8
0
10
153.327898
20
172.124299
30
0.0
40
1.000000
50
299.999999
51
0.000000
0
LINE
8
0
10
154.327898
20
172.124299
30
0.0
11
154.327898
21
195.922092
31
0.0
0
ARC
8
0
10
154.027898
20
195.922092
30
0.0
40
0.300000
50
0.000000
51
90.000000
0
LINE
8
0
10
154.027898
20
196.222092
30
0.0
11
150.127898
21
196.222092
31
0.0
0
ARC
8
0
10
150.127898
20
196.522092
30
0.0
40
0.300000
50
180.000000
51
270.000000
0
LINE
8
0
10
149.827898
20
196.522092
30
0.0
11
149.827898
21
197.422092
31
0.0
0
ARC
8
0
10
150.127898
20
197.422092
30
0.0
40
0.300000
50
90.000000
51
180.000000
0
LINE
8
0
10
150.127898
20
197.722092
30
0.0
11
151.527898
21
197.722092
31
0.0
0
ARC
8
0
10
151.527898
20
198.022092
30
0.0
40
0.300000
50
270.000000
51
0.000000
0
LINE
8
0
10
151.827898
20
198.022092
30
0.0
11
151.827898
21
199.972633
31
0.0
0
ARC
8
0
10
152.027898
20
199.972633
30
0.0
40
0.200000
50
60.000000
51
180.000000
0
LINE
8
0
10
152.127898
20
200.145838
30
0.0
11
153.658283
21
199.262270
31
0.0
0
ARC
8
0
10
153.808283
20
199.522078
30
0.0
40
0.300000
50
240.000000
51
270.000000
0
LINE
8
0
10
153.808283
20
199.222078
30
0.0
11
154.027898
21
199.222078
31
0.0
0
ARC
8
0
10
154.027898
20
199.522078
30
0.0
40
0.300000
50
270.000000
51
0.000000
0
LINE
8
0
10
154.327898
20
199.522078
30
0.0
11
154.327898
21
203.556393
31
0.0
0
ARC
8
0
10
154.227898
20
203.839235
30
0.0
40
0.300000
50
289.471221
51
70.528779
0
LINE
8
0
10
154.327898
20
204.122078
30
0.0
11
154.289616
21
204.122078
31
0.0
0
ARC
8
0
10
154.289616
20
203.522078
30
0.0
40
0.600000
50
90.000000
51
122.401721
0
LINE
8
0
10
153.968105
20
204.028665
30
0.0
11
152.260008
21
202.944602
31
0.0
0
LINE
8
0
10
152.260008
20
202.944602
30
0.0
11
152.272105
21
202.656180
31
0.0
0
ARC
8
0
10
152.072281
20
202.647799
30
0.0
40
0.200000
50
242.401721
51
0.000000
0
LINE
8
0
10
151.979627
20
202.470556
30
0.0
11
151.698556
21
202.617485
31
0.0
0
ARC
8
0
10
152.069172
20
203.326459
30
0.0
40
0.800000
50
197.401721
51
242.401721
0
LINE
8
0
10
151.305787
20
203.087203
30
0.0
11
150.703822
21
205.007872
31
0.0
0
ARC
8
0
10
150.990092
20
205.097593
30
0.0
40
0.300000
50
90.000000
51
197.401721
0
LINE
8
0
10
150.990092
20
205.397593
30
0.0
11
152.541186
21
205.397593
31
0.0
0
ARC
8
0
10
152.542588
20
205.197598
30
0.0
40
0.200000
50
29.632658
51
90.000000
0
ARC
8
0
10
152.977195
20
205.444817
30
0.0
40
0.300000
50
209.632658
51
287.401721
0
LINE
8
0
10
153.066916
20
205.158547
30
0.0
11
154.029224
21
205.412197
31
0.0
0
LINE
8
0
10
154.105688
20
205.422106
30
0.0
11
154.029224
21
205.412197
31
0.0
0
LINE
8
0
10
154.105688
20
205.422106
30
0.0
11
155.677898
21
205.422106
31
0.0
0
LINE
8
0
10
164.528156
20
165.922078
30
0.0
11
156.128646
21
165.922078
31
0.0
0
ARC
8
0
10
156.128646
20
166.222078
30
0.0
40
0.300000
50
180.000000
51
270.000000
0
LINE
8
0
10
155.828646
20
166.222078
30
0.0
11
155.828646
21
195.422078
31
0.0
0
ARC
8
0
10
156.128646
20
195.422078
30
0.0
40
0.300000
50
90.000000
51
180.000000
0
LINE
8
0
10
156.128646
20
195.722078
30
0.0
11
157.528646
21
195.722078
31
0.0
0
ARC
8
0
10
157.528646
20
196.022078
30
0.0
40
0.300000
50
270.000000
51
0.000000
0
LINE
8
0
10
157.828646
20
196.022078
30
0.0
11
157.828646
21
197.422106
31
0.0
0
LINE
8
0
10
157.828646
20
197.422106
30
0.0
11
162.828156
21
197.422106
31
0.0
0
LINE
8
0
10
162.828156
20
197.422106
30
0.0
11
162.828156
21
196.022078
31
0.0
0
ARC
8
0
10
163.128156
20
196.022078
30
0.0
40
0.300000
50
180.000000
51
270.000000
0
LINE
8
0
10
163.128156
20
195.722078
30
0.0
11
164.528156
21
195.722078
31
0.0
0
ARC
8
0
10
164.528156
20
195.422078
30
0.0
40
0.300000
50
0.000000
51
90.000000
0
LINE
8
0
10
164.828156
20
195.422078
30
0.0
11
164.828156
21
166.222078
31
0.0
0
ARC
8
0
10
164.528156
20
166.222078
30
0.0
40
0.300000
50
270.000000
51
0.000000
0
ARC
8
0
10
133.215898
20
203.522106
30
0.0
40
1.200000
50
240.018361
51
270.000000
0
LINE
8
0
10
133.215898
20
202.322106
30
0.0
11
133.277962
21
202.322106
31
0.0
0
ARC
8
0
10
133.277962
20
202.822106
30
0.0
40
0.500000
50
270.000000
51
342.598279
0
LINE
8
0
10
133.755077
20
202.672571
30
0.0
11
134.683981
21
205.224712
31
0.0
0
ARC
8
0
10
134.965888
20
205.122106
30
0.0
40
0.300000
50
90.000000
51
160.000000
0
LINE
8
0
10
134.965888
20
205.422106
30
0.0
11
149.689909
21
205.422106
31
0.0
0
ARC
8
0
10
149.689909
20
205.122106
30
0.0
40
0.300000
50
20.000000
51
90.000000
0
LINE
8
0
10
149.971817
20
205.224712
30
0.0
11
150.900720
21
202.672571
31
0.0
0
ARC
8
0
10
151.377836
20
202.822106
30
0.0
40
0.500000
50
197.401721
51
270.000000
0
LINE
8
0
10
151.377836
20
202.322106
30
0.0
11
151.439899
21
202.322106
31
0.0
0
ARC
8
0
10
151.439899
20
203.522106
30
0.0
40
1.200000
50
270.000000
51
299.981639
0
LINE
8
0
10
152.039566
20
202.482683
30
0.0
11
153.621510
21
203.395343
31
0.0
0
ARC
8
0
10
153.721454
20
203.222106
30
0.0
40
0.200000
50
90.000000
51
119.981639
0
LINE
8
0
10
153.721454
20
203.422106
30
0.0
11
153.927899
21
203.422106
31
0.0
0
ARC
8
0
10
153.927899
20
203.022106
30
0.0
40
0.400000
50
0.000000
51
90.000000
0
LINE
8
0
10
154.327899
20
203.022106
30
0.0
11
154.327899
21
202.595311
31
0.0
0
ARC
8
0
10
154.127899
20
202.595311
30
0.0
40
0.200000
50
300.000000
51
0.000000
0
LINE
8
0
10
154.227899
20
202.422106
30
0.0
11
154.227899
21
202.047106
31
0.0
0
ARC
8
0
10
154.027899
20
202.047106
30
0.0
40
0.200000
50
270.000000
51
0.000000
0
LINE
8
0
10
154.027899
20
201.847106
30
0.0
11
153.916093
21
201.847106
31
0.0
0
LINE
8
0
10
153.831544
20
201.865856
30
0.0
11
153.916093
21
201.847106
31
0.0
0
ARC
8
0
10
153.577899
20
201.322106
30
0.0
40
0.600000
50
64.992167
51
180.000000
0
ARC
8
0
10
153.577899
20
201.322106
30
0.0
40
0.600000
50
180.000000
51
295.007833
0
LINE
8
0
10
153.916093
20
200.797106
30
0.0
11
153.831544
21
200.778356
31
0.0
0
LINE
8
0
10
153.916093
20
200.797106
30
0.0
11
154.027899
21
200.797106
31
0.0
0
ARC
8
0
10
154.027899
20
200.597106
30
0.0
40
0.200000
50
0.000000
51
90.000000
0
LINE
8
0
10
154.227899
20
200.597106
30
0.0
11
154.227899
21
200.222106
31
0.0
0
ARC
8
0
10
154.127899
20
200.048901
30
0.0
40
0.200000
50
0.000000
51
60.000000
0
LINE
8
0
10
154.327899
20
200.048901
30
0.0
11
154.327899
21
199.622106
31
0.0
0
ARC
8
0
10
153.927899
20
199.622106
30
0.0
40
0.400000
50
270.000000
51
0.000000
0
LINE
8
0
10
153.927899
20
199.222106
30
0.0
11
153.721454
21
199.222106
31
0.0
0
ARC
8
0
10
153.721454
20
199.422106
30
0.0
40
0.200000
50
240.018361
51
270.000000
0
LINE
8
0
10
153.621510
20
199.248869
30
0.0
11
152.039566
21
200.161528
31
0.0
0
ARC
8
0
10
151.439899
20
199.122106
30
0.0
40
1.200000
50
60.018361
51
90.000000
0
LINE
8
0
10
151.439899
20
200.322106
30
0.0
11
150.328072
21
200.322106
31
0.0
0
ARC
8
0
10
150.328072
20
201.322106
30
0.0
40
1.000000
50
200.000000
51
270.000000
0
LINE
8
0
10
149.388379
20
200.980085
30
0.0
11
148.677748
21
202.932530
31
0.0
0
ARC
8
0
10
147.550116
20
202.522106
30
0.0
40
1.200000
50
20.000000
51
90.000000
0
LINE
8
0
10
147.550116
20
203.722106
30
0.0
11
144.427893
21
203.722106
31
0.0
0
ARC
8
0
10
144.427893
20
203.222106
30
0.0
40
0.500000
50
90.000000
51
180.000000
0
LINE
8
0
10
143.927893
20
203.222106
30
0.0
11
143.927893
21
184.022106
31
0.0
0
ARC
8
0
10
143.627893
20
184.022106
30
0.0
40
0.300000
50
270.000000
51
0.000000
0
LINE
8
0
10
143.627893
20
183.722106
30
0.0
11
143.127893
21
183.722106
31
0.0
0
ARC
8
0
10
143.127893
20
184.022106
30
0.0
40
0.300000
50
180.000000
51
270.000000
0
LINE
8
0
10
142.827893
20
184.022106
30
0.0
11
142.827893
21
203.222106
31
0.0
0
ARC
8
0
10
142.327893
20
203.222106
30
0.0
40
0.500000
50
0.000000
51
90.000000
0
LINE
8
0
10
142.327893
20
203.722106
30
0.0
11
137.105681
21
203.722106
31
0.0
0
ARC
8
0
10
137.105681
20
202.522106
30
0.0
40
1.200000
50
90.000000
51
160.000000
0
LINE
8
0
10
135.978050
20
202.932530
30
0.0
11
135.267419
21
200.980085
31
0.0
0
ARC
8
0
10
134.327726
20
201.322106
30
0.0
40
1.000000
50
270.000000
51
340.000000
0
LINE
8
0
10
134.327726
20
200.322106
30
0.0
11
133.215898
21
200.322106
31
0.0
0
ARC
8
0
10
133.215898
20
199.122106
30
0.0
40
1.200000
50
90.000000
51
119.981639
0
LINE
8
0
10
132.616232
20
200.161528
30
0.0
11
131.034288
21
199.248869
31
0.0
0
ARC
8
0
10
130.934343
20
199.422106
30
0.0
40
0.200000
50
270.000000
51
299.981639
0
LINE
8
0
10
130.934343
20
199.222106
30
0.0
11
130.727899
21
199.222106
31
0.0
0
ARC
8
0
10
130.727899
20
199.622106
30
0.0
40
0.400000
50
180.000000
51
270.000000
0
LINE
8
0
10
130.327899
20
199.622106
30
0.0
11
130.327899
21
200.048901
31
0.0
0
ARC
8
0
10
130.527899
20
200.048901
30
0.0
40
0.200000
50
120.000000
51
180.000000
0
LINE
8
0
10
130.427899
20
200.222106
30
0.0
11
130.427899
21
200.597106
31
0.0
0
ARC
8
0
10
130.627899
20
200.597106
30
0.0
40
0.200000
50
90.000000
51
180.000000
0
LINE
8
0
10
130.627899
20
200.797106
30
0.0
11
130.739705
21
200.797106
31
0.0
0
LINE
8
0
10
130.824254
20
200.778356
30
0.0
11
130.739705
21
200.797106
31
0.0
0
ARC
8
0
10
131.077899
20
201.322106
30
0.0
40
0.600000
50
244.992167
51
0.000000
0
ARC
8
0
10
131.077899
20
201.322106
30
0.0
40
0.600000
50
0.000000
51
115.007833
0
LINE
8
0
10
130.739705
20
201.847106
30
0.0
11
130.824254
21
201.865856
31
0.0
0
LINE
8
0
10
130.739705
20
201.847106
30
0.0
11
130.627899
21
201.847106
31
0.0
0
ARC
8
0
10
130.627899
20
202.047106
30
0.0
40
0.200000
50
180.000000
51
270.000000
0
LINE
8
0
10
130.427899
20
202.047106
30
0.0
11
130.427899
21
202.422106
31
0.0
0
ARC
8
0
10
130.527899
20
202.595311
30
0.0
40
0.200000
50
180.000000
51
240.000000
0
LINE
8
0
10
130.327899
20
202.595311
30
0.0
11
130.327899
21
203.022106
31
0.0
0
ARC
8
0
10
130.727899
20
203.022106
30
0.0
40
0.400000
50
90.000000
51
180.000000
0
LINE
8
0
10
130.727899
20
203.422106
30
0.0
11
130.934343
21
203.422106
31
0.0
0
ARC
8
0
10
130.934343
20
203.222106
30
0.0
40
0.200000
50
60.018361
51
90.000000
0
LINE
8
0
10
131.034288
20
203.395343
30
0.0
11
132.616232
21
202.482683
31
0.0
0
ARC
8
0
10
151.439899
20
164.787135
30
0.0
40
1.200000
50
60.018361
51
90.000000
0
LINE
8
0
10
151.439899
20
165.987135
30
0.0
11
151.377836
21
165.987135
31
0.0
0
ARC
8
0
10
151.377836
20
165.487135
30
0.0
40
0.500000
50
90.000000
51
162.598279
0
LINE
8
0
10
150.900720
20
165.636670
30
0.0
11
149.971817
21
163.084529
31
0.0
0
ARC
8
0
10
149.689909
20
163.187135
30
0.0
40
0.300000
50
270.000000
51
340.000000
0
LINE
8
0
10
149.689909
20
162.887135
30
0.0
11
134.965888
21
162.887135
31
0.0
0
ARC
8
0
10
134.965888
20
163.187135
30
0.0
40
0.300000
50
200.000000
51
270.000000
0
LINE
8
0
10
134.683981
20
163.084529
30
0.0
11
133.755077
21
165.636670
31
0.0
0
ARC
8
0
10
133.277962
20
165.487135
30
0.0
40
0.500000
50
17.401721
51
90.000000
0
LINE
8
0
10
133.277962
20
165.987135
30
0.0
11
133.215898
21
165.987135
31
0.0
0
ARC
8
0
10
133.215898
20
164.787135
30
0.0
40
1.200000
50
90.000000
51
119.981639
0
LINE
8
0
10
132.616232
20
165.826558
30
0.0
11
131.034288
21
164.913898
31
0.0
0
ARC
8
0
10
130.934343
20
165.087135
30
0.0
40
0.200000
50
270.000000
51
299.981639
0
LINE
8
0
10
130.934343
20
164.887135
30
0.0
11
130.727899
21
164.887135
31
0.0
0
ARC
8
0
10
130.727899
20
165.287135
30
0.0
40
0.400000
50
180.000000
51
270.000000
0
LINE
8
0
10
130.327899
20
165.287135
30
0.0
11
130.327899
21
165.713930
31
0.0
0
ARC
8
0
10
130.527899
20
165.713930
30
0.0
40
0.200000
50
120.000000
51
180.000000
0
LINE
8
0
10
130.427899
20
165.887135
30
0.0
11
130.427899
21
166.262135
31
0.0
0
ARC
8
0
10
130.627899
20
166.262135
30
0.0
40
0.200000
50
90.000000
51
180.000000
0
LINE
8
0
10
130.627899
20
166.462135
30
0.0
11
130.739705
21
166.462135
31
0.0
0
LINE
8
0
10
130.824254
20
166.443385
30
0.0
11
130.739705
21
166.462135
31
0.0
0
ARC
8
0
10
131.077899
20
166.987135
30
0.0
40
0.600000
50
244.992167
51
0.000000
0
ARC
8
0
10
131.077899
20
166.987135
30
0.0
40
0.600000
50
0.000000
51
115.007833
0
LINE
8
0
10
130.739705
20
167.512135
30
0.0
11
130.824254
21
167.530885
31
0.0
0
LINE
8
0
10
130.739705
20
167.512135
30
0.0
11
130.627899
21
167.512135
31
0.0
0
ARC
8
0
10
130.627899
20
167.712135
30
0.0
40
0.200000
50
180.000000
51
270.000000
0
LINE
8
0
10
130.427899
20
167.712135
30
0.0
11
130.427899
21
168.087135
31
0.0
0
ARC
8
0
10
130.527899
20
168.260340
30
0.0
40
0.200000
50
180.000000
51
240.000000
0
LINE
8
0
10
130.327899
20
168.260340
30
0.0
11
130.327899
21
168.687135
31
0.0
0
ARC
8
0
10
130.727899
20
168.687135
30
0.0
40
0.400000
50
90.000000
51
180.000000
0
LINE
8
0
10
130.727899
20
169.087135
30
0.0
11
130.934343
21
169.087135
31
0.0
0
ARC
8
0
10
130.934343
20
168.887135
30
0.0
40
0.200000
50
60.018361
51
90.000000
0
LINE
8
0
10
131.034288
20
169.060372
30
0.0
11
132.616232
21
168.147712
31
0.0
0
ARC
8
0
10
133.215898
20
169.187135
30
0.0
40
1.200000
50
240.018361
51
270.000000
0
LINE
8
0
10
133.215898
20
167.987135
30
0.0
11
134.327726
21
167.987135
31
0.0
0
ARC
8
0
10
134.327726
20
166.987135
30
0.0
40
1.000000
50
20.000000
51
90.000000
0
LINE
8
0
10
135.267419
20
167.329155
30
0.0
11
135.978050
21
165.376711
31
0.0
0
ARC
8
0
10
137.105681
20
165.787135
30
0.0
40
1.200000
50
200.000000
51
270.000000
0
LINE
8
0
10
137.105681
20
164.587135
30
0.0
11
140.227905
21
164.587135
31
0.0
0
ARC
8
0
10
140.227905
20
165.087135
30
0.0
40
0.500000
50
270.000000
51
0.000000
0
LINE
8
0
10
140.727905
20
165.087135
30
0.0
11
140.727905
21
184.287135
31
0.0
0
ARC
8
0
10
141.027905
20
184.287135
30
0.0
40
0.300000
50
90.000000
51
180.000000
0
LINE
8
0
10
141.027905
20
184.587135
30
0.0
11
141.527905
21
184.587135
31
0.0
0
ARC
8
0
10
141.527905
20
184.287135
30
0.0
40
0.300000
50
0.000000
51
90.000000
0
LINE
8
0
10
141.827905
20
184.287135
30
0.0
11
141.827905
21
165.087135
31
0.0
0
ARC
8
0
10
142.327905
20
165.087135
30
0.0
40
0.500000
50
180.000000
51
270.000000
0
LINE
8
0
10
142.327905
20
164.587135
30
0.0
11
147.550116
21
164.587135
31
0.0
0
ARC
8
0
10
147.550116
20
165.787135
30
0.0
40
1.200000
50
270.000000
51
340.000000
0
LINE
8
0
10
148.677748
20
165.376711
30
0.0
11
149.388379
21
167.329155
31
0.0
0
ARC
8
0
10
150.328072
20
166.987135
30
0.0
40
1.000000
50
90.000000
51
160.000000
0
LINE
8
0
10
150.328072
20
167.987135
30
0.0
11
151.439899
21
167.987135
31
0.0
0
ARC
8
0
10
151.439899
20
169.187135
30
0.0
40
1.200000
50
270.000000
51
299.981639
0
LINE
8
0
10
152.039566
20
168.147712
30
0.0
11
153.621510
21
169.060372
31
0.0
0
ARC
8
0
10
153.721454
20
168.887135
30
0.0
40
0.200000
50
90.000000
51
119.981639
0
LINE
8
0
10
153.721454
20
169.087135
30
0.0
11
153.927899
21
169.087135
31
0.0
0
ARC
8
0
10
153.927899
20
168.687135
30
0.0
40
0.400000
50
0.000000
51
90.000000
0
LINE
8
0
10
154.327899
20
168.687135
30
0.0
11
154.327899
21
168.260340
31
0.0
0
ARC
8
0
10
154.127899
20
168.260340
30
0.0
40
0.200000
50
300.000000
51
0.000000
0
LINE
8
0
10
154.227899
20
168.087135
30
0.0
11
154.227899
21
167.712135
31
0.0
0
ARC
8
0
10
154.027899
20
167.712135
30
0.0
40
0.200000
50
270.000000
51
0.000000
0
LINE
8
0
10
154.027899
20
167.512135
30
0.0
11
153.916093
21
167.512135
31
0.0
0
LINE
8
0
10
153.831544
20
167.530885
30
0.0
11
153.916093
21
167.512135
31
0.0
0
ARC
8
0
10
153.577899
20
166.987135
30
0.0
40
0.600000
50
64.992167
51
180.000000
0
ARC
8
0
10
153.577899
20
166.987135
30
0.0
40
0.600000
50
180.000000
51
295.007833
0
LINE
8
0
10
153.916093
20
166.462135
30
0.0
11
153.831544
21
166.443385
31
0.0
0
LINE
8
0
10
153.916093
20
166.462135
30
0.0
11
154.027899
21
166.462135
31
0.0
0
ARC
8
0
10
154.027899
20
166.262135
30
0.0
40
0.200000
50
0.000000
51
90.000000
0
LINE
8
0
10
154.227899
20
166.262135
30
0.0
11
154.227899
21
165.887135
31
0.0
0
ARC
8
0
10
154.127899
20
165.713930
30
0.0
40
0.200000
50
0.000000
51
60.000000
0
LINE
8
0
10
154.327899
20
165.713930
30
0.0
11
154.327899
21
165.287135
31
0.0
0
ARC
8
0
10
153.927899
20
165.287135
30
0.0
40
0.400000
50
270.000000
51
0.000000
0
LINE
8
0
10
153.927899
20
164.887135
30
0.0
11
153.721454
21
164.887135
31
0.0
0
ARC
8
0
10
153.721454
20
165.087135
30
0.0
40
0.200000
50
240.018361
51
270.000000
0
LINE
8
0
10
153.621510
20
164.913898
30
0.0
11
152.039566
21
165.826558
31
0.0
0
LINE
8
0
10
103.827899
20
215.722106
30
0.0
11
103.827899
21
214.222106
31
0.0
0
ARC
8
0
10
103.527899
20
214.222106
30
0.0
40
0.300000
50
270.000000
51
0.000000
0
LINE
8
0
10
103.527899
20
213.922106
30
0.0
11
101.427899
21
213.922106
31
0.0
0
ARC
8
0
10
101.427899
20
213.622106
30
0.0
40
0.300000
50
90.000000
51
180.000000
0
LINE
8
0
10
101.127899
20
213.622106
30
0.0
11
101.127899
21
206.422106
31
0.0
0
ARC
8
0
10
102.127899
20
206.422106
30
0.0
40
1.000000
50
180.000000
51
270.000000
0
LINE
8
0
10
102.127899
20
205.422106
30
0.0
11
130.550214
21
205.422106
31
0.0
0
LINE
8
0
10
130.626678
20
205.412197
30
0.0
11
130.550214
21
205.422106
31
0.0
0
LINE
8
0
10
130.626678
20
205.412197
30
0.0
11
131.588881
21
205.158575
31
0.0
0
ARC
8
0
10
131.678602
20
205.444844
30
0.0
40
0.300000
50
252.598279
51
330.367342
0
ARC
8
0
10
132.113208
20
205.197626
30
0.0
40
0.200000
50
90.000000
51
150.367342
0
LINE
8
0
10
132.114611
20
205.397621
30
0.0
11
133.665705
21
205.397621
31
0.0
0
ARC
8
0
10
133.665705
20
205.097621
30
0.0
40
0.300000
50
342.598279
51
90.000000
0
LINE
8
0
10
133.951974
20
205.007900
30
0.0
11
133.350010
21
203.087231
31
0.0
0
ARC
8
0
10
132.586625
20
203.326487
30
0.0
40
0.800000
50
297.598279
51
342.598279
0
LINE
8
0
10
132.957240
20
202.617513
30
0.0
11
132.676170
21
202.470583
31
0.0
0
ARC
8
0
10
132.583516
20
202.647827
30
0.0
40
0.200000
50
180.000000
51
297.598279
0
LINE
8
0
10
132.383692
20
202.656208
30
0.0
11
132.395789
21
202.944630
31
0.0
0
LINE
8
0
10
132.395789
20
202.944630
30
0.0
11
130.687692
21
204.028693
31
0.0
0
ARC
8
0
10
130.366181
20
203.522106
30
0.0
40
0.600000
50
57.598279
51
90.000000
0
LINE
8
0
10
130.366181
20
204.122106
30
0.0
11
130.327899
21
204.122106
31
0.0
0
ARC
8
0
10
130.427899
20
203.839263
30
0.0
40
0.300000
50
109.471221
51
250.528779
0
LINE
8
0
10
130.327899
20
203.556420
30
0.0
11
130.327899
21
199.522106
31
0.0
0
ARC
8
0
10
130.627899
20
199.522106
30
0.0
40
0.300000
50
180.000000
51
270.000000
0
LINE
8
0
10
130.627899
20
199.222106
30
0.0
11
130.847514
21
199.222106
31
0.0
0
ARC
8
0
10
130.847514
20
199.522106
30
0.0
40
0.300000
50
270.000000
51
300.000000
0
LINE
8
0
10
130.997514
20
199.262298
30
0.0
11
132.527899
21
200.195866
31
0.0
0
ARC
8
0
10
132.627899
20
200.022661
30
0.0
40
0.200000
50
0.000000
51
120.000000
0
LINE
8
0
10
132.827899
20
200.022661
30
0.0
11
132.827899
21
198.022119
31
0.0
0
ARC
8
0
10
133.127899
20
198.022119
30
0.0
40
0.300000
50
180.000000
51
270.000000
0
LINE
8
0
10
133.127899
20
197.722119
30
0.0
11
134.527899
21
197.722119
31
0.0
0
ARC
8
0
10
134.527899
20
197.422119
30
0.0
40
0.300000
50
0.000000
51
90.000000
0
LINE
8
0
10
134.827899
20
197.422119
30
0.0
11
134.827899
21
196.522119
31
0.0
0
ARC
8
0
10
134.527899
20
196.522119
30
0.0
40
0.300000
50
270.000000
51
0.000000
0
LINE
8
0
10
134.527899
20
196.222119
30
0.0
11
130.627899
21
196.222119
31
0.0
0
ARC
8
0
10
130.627899
20
195.922119
30
0.0
40
0.300000
50
90.000000
51
180.000000
0
LINE
8
0
10
130.327899
20
195.922119
30
0.0
11
130.327899
21
172.124327
31
0.0
0
ARC
8
0
10
131.327899
20
172.124327
30
0.0
40
1.000000
50
180.000000
51
240.000000
0
LINE
8
0
10
130.827899
20
171.258302
30
0.0
11
132.327899
21
170.342276
31
0.0
0
ARC
8
0
10
131.827899
20
169.476251
30
0.0
40
1.000000
50
0.000000
51
60.000000
0
LINE
8
0
10
132.827899
20
169.476251
30
0.0
11
132.827899
21
168.321550
31
0.0
0
ARC
8
0
10
132.627899
20
168.321550
30
0.0
40
0.200000
50
240.000000
51
0.000000
0
LINE
8
0
10
132.527899
20
168.148345
30
0.0
11
130.997514
21
169.081913
31
0.0
0
ARC
8
0
10
130.847514
20
168.822106
30
0.0
40
0.300000
50
60.000000
51
90.000000
0
LINE
8
0
10
130.847514
20
169.122106
30
0.0
11
130.627899
21
169.122106
31
0.0
0
ARC
8
0
10
130.627899
20
168.822106
30
0.0
40
0.300000
50
90.000000
51
180.000000
0
LINE
8
0
10
130.327899
20
168.822106
30
0.0
11
130.327899
21
164.787791
31
0.0
0
ARC
8
0
10
130.427899
20
164.504948
30
0.0
40
0.300000
50
109.471221
51
250.528779
0
LINE
8
0
10
130.327899
20
164.222106
30
0.0
11
130.366181
21
164.222106
31
0.0
0
ARC
8
0
10
130.366181
20
164.822106
30
0.0
40
0.600000
50
270.000000
51
302.401721
0
LINE
8
0
10
130.687692
20
164.315519
30
0.0
11
132.395789
21
165.399582
31
0.0
0
LINE
8
0
10
132.395789
20
165.399582
30
0.0
11
132.383692
21
165.688003
31
0.0
0
ARC
8
0
10
132.583516
20
165.696384
30
0.0
40
0.200000
50
62.401721
51
180.000000
0
LINE
8
0
10
132.676170
20
165.873628
30
0.0
11
132.957240
21
165.726699
31
0.0
0
ARC
8
0
10
132.586625
20
165.017725
30
0.0
40
0.800000
50
17.401721
51
62.401721
0
LINE
8
0
10
133.350010
20
165.256980
30
0.0
11
133.951974
21
163.336311
31
0.0
0
ARC
8
0
10
133.665705
20
163.246591
30
0.0
40
0.300000
50
270.000000
51
17.401721
0
LINE
8
0
10
133.665705
20
162.946591
30
0.0
11
132.114611
21
162.946591
31
0.0
0
ARC
8
0
10
132.113208
20
163.146586
30
0.0
40
0.200000
50
209.632658
51
270.000000
0
ARC
8
0
10
131.678602
20
162.899367
30
0.0
40
0.300000
50
29.632658
51
107.401721
0
LINE
8
0
10
131.588881
20
163.185636
30
0.0
11
130.626678
21
162.932014
31
0.0
0
LINE
8
0
10
130.550214
20
162.922106
30
0.0
11
130.626678
21
162.932014
31
0.0
0
LINE
8
0
10
130.550214
20
162.922106
30
0.0
11
129.027899
21
162.922106
31
0.0
0
ARC
8
0
10
129.027899
20
163.222106
30
0.0
40
0.300000
50
180.000000
51
270.000000
0
LINE
8
0
10
128.727899
20
163.222106
30
0.0
11
128.727899
21
164.223216
31
0.0
0
ARC
8
0
10
128.427899
20
164.223216
30
0.0
40
0.300000
50
0.000000
51
90.000000
0
LINE
8
0
10
128.427899
20
164.523216
30
0.0
11
117.427899
21
164.523216
31
0.0
0
ARC
8
0
10
117.427899
20
164.223216
30
0.0
40
0.300000
50
90.000000
51
180.000000
0
LINE
8
0
10
117.127899
20
164.223216
30
0.0
11
117.127899
21
158.222106
31
0.0
0
ARC
8
0
10
116.827899
20
158.222106
30
0.0
40
0.300000
50
270.000000
51
0.000000
0
LINE
8
0
10
116.827899
20
157.922106
30
0.0
11
114.378454
21
157.922106
31
0.0
0
ARC
8
0
10
114.378454
20
158.222106
30
0.0
40
0.300000
50
210.000000
51
270.000000
0
LINE
8
0
10
114.118647
20
158.072106
30
0.0
11
113.668091
21
158.852490
31
0.0
0
ARC
8
0
10
113.927899
20
159.002490
30
0.0
40
0.300000
50
180.000000
51
210.000000
0
LINE
8
0
10
113.627899
20
159.002490
30
0.0
11
113.627899
21
159.122106
31
0.0
0
ARC
8
0
10
113.927899
20
159.122106
30
0.0
40
0.300000
50
90.000000
51
180.000000
0
LINE
8
0
10
113.927899
20
159.422106
30
0.0
11
115.327899
21
159.422106
31
0.0
0
ARC
8
0
10
115.327899
20
159.722106
30
0.0
40
0.300000
50
270.000000
51
0.000000
0
LINE
8
0
10
115.627899
20
159.722106
30
0.0
11
115.627899
21
164.223216
31
0.0
0
ARC
8
0
10
115.327899
20
164.223216
30
0.0
40
0.300000
50
0.000000
51
90.000000
0
LINE
8
0
10
115.327899
20
164.523216
30
0.0
11
114.127899
21
164.523216
31
0.0
0
ARC
8
0
10
114.127899
20
164.223216
30
0.0
40
0.300000
50
90.000000
51
180.000000
0
LINE
8
0
10
113.827899
20
164.223216
30
0.0
11
113.827899
21
163.221706
31
0.0
0
ARC
8
0
10
113.527899
20
163.221706
30
0.0
40
0.300000
50
270.000000
51
0.000000
0
LINE
8
0
10
113.527899
20
162.921706
30
0.0
11
112.127899
21
162.921706
31
0.0
0
ARC
8
0
10
112.127899
20
163.221706
30
0.0
40
0.300000
50
180.000000
51
270.000000
0
LINE
8
0
10
111.827899
20
163.221706
30
0.0
11
111.827899
21
164.223216
31
0.0
0
ARC
8
0
10
111.527899
20
164.223216
30
0.0
40
0.300000
50
0.000000
51
90.000000
0
LINE
8
0
10
111.527899
20
164.523216
30
0.0
11
108.627899
21
164.523216
31
0.0
0
LINE
8
0
10
108.627899
20
164.523216
30
0.0
11
108.327899
21
164.823216
31
0.0
0
LINE
8
0
10
108.327899
20
164.823216
30
0.0
11
108.027899
21
164.523216
31
0.0
0
LINE
8
0
10
108.027899
20
164.523216
30
0.0
11
105.227899
21
164.523216
31
0.0
0
ARC
8
0
10
105.227899
20
164.223216
30
0.0
40
0.300000
50
90.000000
51
180.000000
0
LINE
8
0
10
104.927899
20
164.223216
30
0.0
11
104.927899
21
163.221706
31
0.0
0
ARC
8
0
10
104.627899
20
163.221706
30
0.0
40
0.300000
50
270.000000
51
0.000000
0
LINE
8
0
10
104.627899
20
162.921706
30
0.0
11
103.227899
21
162.921706
31
0.0
0
ARC
8
0
10
103.227899
20
163.221706
30
0.0
40
0.300000
50
180.000000
51
270.000000
0
LINE
8
0
10
102.927899
20
163.221706
30
0.0
11
102.927899
21
164.223216
31
0.0
0
ARC
8
0
10
102.627899
20
164.223216
30
0.0
40
0.300000
50
0.000000
51
90.000000
0
LINE
8
0
10
102.627899
20
164.523216
30
0.0
11
101.427899
21
164.523216
31
0.0
0
ARC
8
0
10
101.427899
20
164.223216
30
0.0
40
0.300000
50
90.000000
51
180.000000
0
LINE
8
0
10
101.127899
20
164.223216
30
0.0
11
101.127899
21
159.722106
31
0.0
0
ARC
8
0
10
101.427899
20
159.722106
30
0.0
40
0.300000
50
180.000000
51
270.000000
0
LINE
8
0
10
101.427899
20
159.422106
30
0.0
11
103.327899
21
159.422106
31
0.0
0
ARC
8
0
10
103.327899
20
159.122106
30
0.0
40
0.300000
50
0.000000
51
90.000000
0
LINE
8
0
10
103.627899
20
159.122106
30
0.0
11
103.627899
21
159.002490
31
0.0
0
ARC
8
0
10
103.327899
20
159.002490
30
0.0
40
0.300000
50
330.000000
51
0.000000
0
LINE
8
0
10
103.587706
20
158.852490
30
0.0
11
103.137151
21
158.072106
31
0.0
0
ARC
8
0
10
102.877344
20
158.222106
30
0.0
40
0.300000
50
270.000000
51
330.000000
0
LINE
8
0
10
102.877344
20
157.922106
30
0.0
11
99.627899
21
157.922106
31
0.0
0
ARC
8
0
10
99.627899
20
158.222106
30
0.0
40
0.300000
50
180.000000
51
270.000000
0
LINE
8
0
10
99.327899
20
158.222106
30
0.0
11
99.327899
21
223.422106
31
0.0
0
ARC
8
0
10
99.827899
20
223.422106
30
0.0
40
0.500000
50
90.000000
51
180.000000
0
LINE
8
0
10
99.827899
20
223.922106
30
0.0
11
103.527899
21
223.922106
31
0.0
0
ARC
8
0
10
103.527899
20
223.622106
30
0.0
40
0.300000
50
0.000000
51
90.000000
0
LINE
8
0
10
103.827899
20
223.622106
30
0.0
11
103.827899
21
222.122106
31
0.0
0
ARC
8
0
10
103.127899
20
222.122106
30
0.0
40
0.700000
50
270.000000
51
0.000000
0
ARC
8
0
10
103.127899
20
221.722106
30
0.0
40
0.300000
50
180.000000
51
270.000000
0
LINE
8
0
10
102.827899
20
221.722106
30
0.0
11
102.827899
21
222.422106
31
0.0
0
ARC
8
0
10
102.527899
20
222.422106
30
0.0
40
0.300000
50
0.000000
51
90.000000
0
LINE
8
0
10
102.527899
20
222.722106
30
0.0
11
101.327899
21
222.722106
31
0.0
0
ARC
8
0
10
101.327899
20
222.022106
30
0.0
40
0.700000
50
90.000000
51
180.000000
0
LINE
8
0
10
100.627899
20
222.022106
30
0.0
11
100.627899
21
215.822106
31
0.0
0
ARC
8
0
10
101.327899
20
215.822106
30
0.0
40
0.700000
50
180.000000
51
270.000000
0
LINE
8
0
10
101.327899
20
215.122106
30
0.0
11
102.527899
21
215.122106
31
0.0
0
ARC
8
0
10
102.527899
20
215.422106
30
0.0
40
0.300000
50
270.000000
51
0.000000
0
LINE
8
0
10
102.827899
20
215.422106
30
0.0
11
102.827899
21
216.122106
31
0.0
0
ARC
8
0
10
103.127899
20
216.122106
30
0.0
40
0.300000
50
90.000000
51
180.000000
0
ARC
8
0
10
103.127899
20
215.722106
30
0.0
40
0.700000
50
0.000000
51
90.000000
0
LINE
8
0
10
101.427899
20
203.622106
30
0.0
11
128.427899
21
203.622106
31
0.0
0
ARC
8
0
10
128.427899
20
203.322106
30
0.0
40
0.300000
50
0.000000
51
90.000000
0
LINE
8
0
10
128.727899
20
203.322106
30
0.0
11
128.727899
21
199.048972
31
0.0
0
ARC
8
0
10
128.427899
20
199.048972
30
0.0
40
0.300000
50
285.000000
51
0.000000
0
LINE
8
0
10
128.505545
20
198.759194
30
0.0
11
126.450253
21
198.208480
31
0.0
0
ARC
8
0
10
126.527899
20
197.918702
30
0.0
40
0.300000
50
105.000000
51
180.000000
0
LINE
8
0
10
126.227899
20
197.918702
30
0.0
11
126.227899
21
197.422106
31
0.0
0
ARC
8
0
10
126.527899
20
197.422106
30
0.0
40
0.300000
50
180.000000
51
270.000000
0
LINE
8
0
10
126.527899
20
197.122106
30
0.0
11
128.427899
21
197.122106
31
0.0
0
ARC
8
0
10
128.427899
20
196.822106
30
0.0
40
0.300000
50
0.000000
51
90.000000
0
LINE
8
0
10
128.727899
20
196.822106
30
0.0
11
128.727899
21
166.622106
31
0.0
0
ARC
8
0
10
128.427899
20
166.622106
30
0.0
40
0.300000
50
270.000000
51
0.000000
0
LINE
8
0
10
128.427899
20
166.322106
30
0.0
11
101.427899
21
166.322106
31
0.0
0
ARC
8
0
10
101.427899
20
166.622106
30
0.0
40
0.300000
50
180.000000
51
270.000000
0
LINE
8
0
10
101.127899
20
166.622106
30
0.0
11
101.127899
21
196.822106
31
0.0
0
ARC
8
0
10
101.427899
20
196.822106
30
0.0
40
0.300000
50
90.000000
51
180.000000
0
LINE
8
0
10
101.427899
20
197.122106
30
0.0
11
103.327899
21
197.122106
31
0.0
0
ARC
8
0
10
103.327899
20
197.422106
30
0.0
40
0.300000
50
270.000000
51
0.000000
0
LINE
8
0
10
103.627899
20
197.422106
30
0.0
11
103.627899
21
197.865113
31
0.0
0
ARC
8
0
10
103.327899
20
197.865113
30
0.0
40
0.300000
50
0.000000
51
75.000000
0
LINE
8
0
10
103.405545
20
198.154890
30
0.0
11
101.350253
21
198.705604
31
0.0
0
ARC
8
0
10
101.427899
20
198.995382
30
0.0
40
0.300000
50
180.000000
51
255.000000
0
LINE
8
0
10
101.127899
20
198.995382
30
0.0
11
101.127899
21
203.322106
31
0.0
0
ARC
8
0
10
101.427899
20
203.322106
30
0.0
40
0.300000
50
90.000000
51
180.000000
0
ATTDEF
8
0
10
99.327899
20
157.922078
30
0.0
40
3.5
1

3

2
JY:0.000000
70
0
0
ATTDEF
8
0
10
99.327899
20
157.922078
30
0.0
40
3.5
1

3

2
WY:0.000000
70
0
0
ATTDEF
8
0
10
102.127899
20
205.422106
30
0.0
40
3.5
1

3

2
VC_START
70
0
0
ATTDEF
8
0
10
114.378454
20
157.922106
30
0.0
40
3.5
1

3

2
VC_END
70
0
0
ATTDEF
8
0
10
99.327899
20
157.922078
30
0.0
40
3.5
1

3

2
DESC:Telaio L per porta apertura esterna
70
0
0
ATTDEF
8
0
10
99.327899
20
157.922078
30
0.0
40
3.5
1

3

2
DENS:1.730000
70
0
0
ATTDEF
8
0
10
99.327899
20
157.922078
30
0.0
40
3.5
1

3

2
TDEV:0.000000
70
0
0
ATTDEF
8
0
10
99.327899
20
157.922078
30
0.0
40
3.5
1

3

2
TDEV2:0.000000
70
0
0
ATTDEF
8
0
10
99.327899
20
157.922078
30
0.0
40
3.5
1

3

2
TDEV3:0.000000
70
0
0
ATTDEF
8
0
10
99.327899
20
157.922078
30
0.0
40
3.5
1

3

2
TDEV4:0.000000
70
0
0
ATTDEF
8
0
10
99.327899
20
157.922078
30
0.0
40
3.5
1

3

2
TDEV5:0.000000
70
0
0
ATTDEF
8
0
10
99.327899
20
157.922078
30
0.0
40
3.5
1

3

2
FRONT_VIEW
70
0
0
ATTDEF
8
0
10
99.327899
20
157.922078
30
0.0
40
3.5
1

3

2
BL01:6800.000000,,1
70
0
0
ATTDEF
8
0
10
99.327899
20
157.922078
30
0.0
40
3.5
1

3

2
OPTI:500.000000,1,0,3000.000000,6500.000000,500.000000,0,0.000000,0
70
0
0
ATTDEF
8
0
10
99.327899
20
157.922078
30
0.0
40
3.5
1

3

2
PANE_WIDTH:0.000000
70
0
0
ATTDEF
8
0
10
99.327899
20
157.922078
30
0.0
40
3.5
1

3

2
GLASS_MIN:0.000000
70
0
0
ATTDEF
8
0
10
99.327899
20
157.922078
30
0.0
40
3.5
1

3

2
GLASS_MAX:0.000000
70
0
0
ATTDEF
8
0
10
99.327899
20
157.922078
30
0.0
40
3.5
1

3

2
JX:0.000000
70
0
0
ATTDEF
8
0
10
99.327899
20
157.922078
30
0.0
40
3.5
1

3

2
WX:0.000000
70
0
0
ATTDEF
8
0
10
99.327899
20
157.922078
30
0.0
40
3.5
1

3

2
JY:0.000000
70
0
0
ATTDEF
8
0
10
99.327899
20
157.922078
30
0.0
40
3.5
1

3

2
WY:0.000000
70
0
0
ATTDEF
8
0
10
99.327899
20
157.922078
30
0.0
40
3.5
1

3

2
FP_LCS_ORIG
70
0
0
ATTDEF
8
0
10
109.327899
20
157.922078
30
0.0
40
3.5
1

3

2
FP_LCS_HOT
70
0
0
ATTDEF
8
0
10
99.327899
20
167.922078
30
0.0
40
3.5
1

3

2
FP_LCS_INTERN
70
0
0
ENDSEC
0
EOF
