0
SECTION
2
ENTITIES
0
ARC
8
0
10
161.502948
20
136.020522
30
0.0
40
0.200000
50
240.000000
51
360.000000
0
LINE
8
0
10
161.402948
20
135.847317
30
0.0
11
159.872563
21
136.730885
31
0.0
0
ARC
8
0
10
159.722563
20
136.471077
30
0.0
40
0.300000
50
60.000000
51
90.000000
0
LINE
8
0
10
159.722563
20
136.771077
30
0.0
11
159.502948
21
136.771077
31
0.0
0
ARC
8
0
10
159.502948
20
136.471077
30
0.0
40
0.300000
50
90.000000
51
180.000000
0
LINE
8
0
10
159.202948
20
136.471077
30
0.0
11
159.202948
21
132.436762
31
0.0
0
ARC
8
0
10
159.302948
20
132.153920
30
0.0
40
0.300000
50
109.471221
51
250.528779
0
LINE
8
0
10
159.202948
20
131.871077
30
0.0
11
159.241230
21
131.871077
31
0.0
0
ARC
8
0
10
159.241230
20
132.471077
30
0.0
40
0.600000
50
270.000000
51
302.401721
0
LINE
8
0
10
159.562741
20
131.964490
30
0.0
11
161.270838
21
133.048553
31
0.0
0
LINE
8
0
10
161.270838
20
133.048553
30
0.0
11
161.258741
21
133.336975
31
0.0
0
ARC
8
0
10
161.458565
20
133.345356
30
0.0
40
0.200000
50
62.401721
51
180.000000
0
LINE
8
0
10
161.551219
20
133.522599
30
0.0
11
161.832290
21
133.375670
31
0.0
0
ARC
8
0
10
161.461674
20
132.666696
30
0.0
40
0.800000
50
17.401721
51
62.401721
0
LINE
8
0
10
162.225059
20
132.905952
30
0.0
11
162.827024
21
130.985283
31
0.0
0
ARC
8
0
10
162.540754
20
130.895562
30
0.0
40
0.300000
50
270.000000
51
17.401721
0
LINE
8
0
10
162.540754
20
130.595562
30
0.0
11
160.989660
21
130.595562
31
0.0
0
ARC
8
0
10
160.988258
20
130.795557
30
0.0
40
0.200000
50
209.632658
51
270.000000
0
ARC
8
0
10
160.553651
20
130.548338
30
0.0
40
0.300000
50
29.632658
51
107.401721
0
LINE
8
0
10
160.463930
20
130.834608
30
0.0
11
159.426484
21
130.561152
31
0.0
0
ARC
8
0
10
159.502948
20
130.271061
30
0.0
40
0.300000
50
104.766462
51
180.000000
0
LINE
8
0
10
159.202948
20
130.271077
30
0.0
11
159.202707
21
125.871061
31
0.0
0
ARC
8
0
10
158.902707
20
125.871077
30
0.0
40
0.300000
50
270.000000
51
360.000000
0
LINE
8
0
10
158.902707
20
125.571077
30
0.0
11
157.202690
21
125.571077
31
0.0
0
ARC
8
0
10
157.202690
20
126.371077
30
0.0
40
0.800000
50
180.000000
51
270.000000
0
LINE
8
0
10
156.402690
20
126.371077
30
0.0
11
156.402690
21
126.471077
31
0.0
0
ARC
8
0
10
156.702690
20
126.471077
30
0.0
40
0.300000
50
90.000000
51
180.000000
0
LINE
8
0
10
156.702690
20
126.771077
30
0.0
11
157.407200
21
126.771077
31
0.0
0
ARC
8
0
10
157.407200
20
127.071077
30
0.0
40
0.300000
50
270.000000
51
360.000000
0
LINE
8
0
10
157.707200
20
127.071077
30
0.0
11
157.707200
21
129.571077
31
0.0
0
LINE
8
0
10
157.707200
20
129.571077
30
0.0
11
157.438910
21
131.806821
31
0.0
0
ARC
8
0
10
157.141047
20
131.771077
30
0.0
40
0.300000
50
6.842773
51
90.000000
0
LINE
8
0
10
157.141047
20
132.071077
30
0.0
11
149.002690
21
132.071077
31
0.0
0
ARC
8
0
10
149.002690
20
131.771077
30
0.0
40
0.300000
50
90.000000
51
180.000000
0
LINE
8
0
10
148.702690
20
131.771077
30
0.0
11
148.702690
21
127.071077
31
0.0
0
ARC
8
0
10
149.002690
20
127.071077
30
0.0
40
0.300000
50
180.000000
51
270.000000
0
LINE
8
0
10
149.002690
20
126.771077
30
0.0
11
149.702690
21
126.771077
31
0.0
0
ARC
8
0
10
149.702690
20
126.471077
30
0.0
40
0.300000
50
360.000000
51
90.000000
0
LINE
8
0
10
150.002690
20
126.471077
30
0.0
11
150.002690
21
126.371077
31
0.0
0
ARC
8
0
10
149.202690
20
126.371077
30
0.0
40
0.800000
50
270.000000
51
360.000000
0
LINE
8
0
10
149.202690
20
125.571077
30
0.0
11
147.502690
21
125.571077
31
0.0
0
ARC
8
0
10
147.502690
20
125.871077
30
0.0
40
0.300000
50
180.000000
51
270.000000
0
LINE
8
0
10
147.202690
20
125.871077
30
0.0
11
147.202690
21
191.072806
31
0.0
0
ARC
8
0
10
147.702690
20
191.072806
30
0.0
40
0.500000
50
90.000000
51
180.000000
0
LINE
8
0
10
147.702690
20
191.572806
30
0.0
11
151.402690
21
191.572806
31
0.0
0
ARC
8
0
10
151.402690
20
191.272806
30
0.0
40
0.300000
50
360.000000
51
90.000000
0
LINE
8
0
10
151.702690
20
191.272806
30
0.0
11
151.702690
21
189.772806
31
0.0
0
ARC
8
0
10
151.002690
20
189.772806
30
0.0
40
0.700000
50
270.000000
51
360.000000
0
ARC
8
0
10
151.002690
20
189.372806
30
0.0
40
0.300000
50
180.000000
51
270.000000
0
LINE
8
0
10
150.702690
20
189.372806
30
0.0
11
150.702690
21
190.072806
31
0.0
0
ARC
8
0
10
150.402690
20
190.072806
30
0.0
40
0.300000
50
360.000000
51
90.000000
0
LINE
8
0
10
150.402690
20
190.372806
30
0.0
11
149.202690
21
190.372806
31
0.0
0
ARC
8
0
10
149.202690
20
189.672806
30
0.0
40
0.700000
50
90.000000
51
180.000000
0
LINE
8
0
10
148.502690
20
189.672806
30
0.0
11
148.502690
21
183.472806
31
0.0
0
ARC
8
0
10
149.202690
20
183.472806
30
0.0
40
0.700000
50
180.000000
51
270.000000
0
LINE
8
0
10
149.202690
20
182.772806
30
0.0
11
150.402690
21
182.772806
31
0.0
0
ARC
8
0
10
150.402690
20
183.072806
30
0.0
40
0.300000
50
270.000000
51
360.000000
0
LINE
8
0
10
150.702690
20
183.072806
30
0.0
11
150.702690
21
183.772806
31
0.0
0
ARC
8
0
10
151.002690
20
183.772806
30
0.0
40
0.300000
50
90.000000
51
180.000000
0
ARC
8
0
10
151.002690
20
183.372806
30
0.0
40
0.700000
50
360.000000
51
90.000000
0
LINE
8
0
10
151.702690
20
183.372806
30
0.0
11
151.702690
21
181.872806
31
0.0
0
ARC
8
0
10
151.402690
20
181.872806
30
0.0
40
0.300000
50
270.000000
51
360.000000
0
LINE
8
0
10
151.402690
20
181.572806
30
0.0
11
149.202690
21
181.572806
31
0.0
0
ARC
8
0
10
149.202690
20
181.272806
30
0.0
40
0.300000
50
90.000000
51
180.000000
0
LINE
8
0
10
148.902690
20
181.272806
30
0.0
11
148.902690
21
174.071077
31
0.0
0
ARC
8
0
10
149.902690
20
174.071077
30
0.0
40
1.000000
50
180.000000
51
270.000000
0
LINE
8
0
10
149.902690
20
173.071077
30
0.0
11
159.425263
21
173.071077
31
0.0
0
LINE
8
0
10
159.501727
20
173.061169
30
0.0
11
159.425263
21
173.071077
31
0.0
0
LINE
8
0
10
159.501727
20
173.061169
30
0.0
11
160.463930
21
172.807546
31
0.0
0
ARC
8
0
10
160.553651
20
173.093816
30
0.0
40
0.300000
50
252.598279
51
330.367342
0
ARC
8
0
10
160.988258
20
172.846597
30
0.0
40
0.200000
50
90.000000
51
150.367342
0
LINE
8
0
10
160.989660
20
173.046592
30
0.0
11
162.540754
21
173.046592
31
0.0
0
ARC
8
0
10
162.540754
20
172.746592
30
0.0
40
0.300000
50
342.598279
51
90.000000
0
LINE
8
0
10
162.827024
20
172.656871
30
0.0
11
162.225059
21
170.736202
31
0.0
0
ARC
8
0
10
161.461674
20
170.975458
30
0.0
40
0.800000
50
297.598279
51
342.598279
0
LINE
8
0
10
161.832290
20
170.266484
30
0.0
11
161.551219
21
170.119555
31
0.0
0
ARC
8
0
10
161.458565
20
170.296798
30
0.0
40
0.200000
50
180.000000
51
297.598279
0
LINE
8
0
10
161.258741
20
170.305179
30
0.0
11
161.270838
21
170.593601
31
0.0
0
LINE
8
0
10
161.270838
20
170.593601
30
0.0
11
159.562741
21
171.677664
31
0.0
0
ARC
8
0
10
159.241230
20
171.171077
30
0.0
40
0.600000
50
57.598279
51
90.000000
0
LINE
8
0
10
159.241230
20
171.771077
30
0.0
11
159.202948
21
171.771077
31
0.0
0
ARC
8
0
10
159.302948
20
171.488234
30
0.0
40
0.300000
50
109.471221
51
250.528779
0
LINE
8
0
10
159.202948
20
171.205392
30
0.0
11
159.202948
21
167.171077
31
0.0
0
ARC
8
0
10
159.502948
20
167.171077
30
0.0
40
0.300000
50
180.000000
51
270.000000
0
LINE
8
0
10
159.502948
20
166.871077
30
0.0
11
159.722563
21
166.871077
31
0.0
0
ARC
8
0
10
159.722563
20
167.171077
30
0.0
40
0.300000
50
270.000000
51
300.000000
0
LINE
8
0
10
159.872563
20
166.911269
30
0.0
11
161.402948
21
167.794837
31
0.0
0
ARC
8
0
10
161.502948
20
167.621632
30
0.0
40
0.200000
50
360.000000
51
120.000000
0
LINE
8
0
10
161.702948
20
167.621632
30
0.0
11
161.702948
21
166.466932
31
0.0
0
ARC
8
0
10
160.702948
20
166.466932
30
0.0
40
1.000000
50
300.000001
51
360.000000
0
LINE
8
0
10
161.202948
20
165.600906
30
0.0
11
159.702948
21
164.734881
31
0.0
0
ARC
8
0
10
160.202948
20
163.868856
30
0.0
40
1.000000
50
120.000001
51
180.000000
0
LINE
8
0
10
159.202948
20
163.868856
30
0.0
11
159.202948
21
139.773298
31
0.0
0
ARC
8
0
10
160.202948
20
139.773298
30
0.0
40
1.000000
50
180.000000
51
240.000001
0
LINE
8
0
10
159.702948
20
138.907273
30
0.0
11
161.202948
21
138.041248
31
0.0
0
ARC
8
0
10
160.702948
20
137.175222
30
0.0
40
1.000000
50
360.000000
51
60.000001
0
LINE
8
0
10
161.702948
20
137.175222
30
0.0
11
161.702948
21
136.020522
31
0.0
0
ARC
8
0
10
180.314949
20
171.171077
30
0.0
40
1.200000
50
270.000000
51
299.981639
0
LINE
8
0
10
180.314949
20
169.971077
30
0.0
11
180.252885
21
169.971077
31
0.0
0
ARC
8
0
10
180.252885
20
170.471077
30
0.0
40
0.500000
50
197.401721
51
270.000000
0
LINE
8
0
10
179.775770
20
170.321542
30
0.0
11
178.846866
21
172.873683
31
0.0
0
ARC
8
0
10
178.564959
20
172.771077
30
0.0
40
0.300000
50
20.000000
51
90.000000
0
LINE
8
0
10
178.564959
20
173.071077
30
0.0
11
163.840938
21
173.071077
31
0.0
0
ARC
8
0
10
163.840938
20
172.771077
30
0.0
40
0.300000
50
90.000000
51
160.000000
0
LINE
8
0
10
163.559030
20
172.873683
30
0.0
11
162.630127
21
170.321542
31
0.0
0
ARC
8
0
10
162.153011
20
170.471077
30
0.0
40
0.500000
50
270.000000
51
342.598279
0
LINE
8
0
10
162.153011
20
169.971077
30
0.0
11
162.090948
21
169.971077
31
0.0
0
ARC
8
0
10
162.090948
20
171.171077
30
0.0
40
1.200000
50
240.018361
51
270.000000
0
LINE
8
0
10
161.491281
20
170.131654
30
0.0
11
159.909337
21
171.044314
31
0.0
0
ARC
8
0
10
159.809393
20
170.871077
30
0.0
40
0.200000
50
60.018361
51
90.000000
0
LINE
8
0
10
159.809393
20
171.071077
30
0.0
11
159.602948
21
171.071077
31
0.0
0
ARC
8
0
10
159.602948
20
170.671077
30
0.0
40
0.400000
50
90.000000
51
180.000000
0
LINE
8
0
10
159.202948
20
170.671077
30
0.0
11
159.202948
21
170.244282
31
0.0
0
ARC
8
0
10
159.402948
20
170.244282
30
0.0
40
0.200000
50
180.000000
51
240.000000
0
LINE
8
0
10
159.302948
20
170.071077
30
0.0
11
159.302948
21
169.696077
31
0.0
0
ARC
8
0
10
159.502948
20
169.696077
30
0.0
40
0.200000
50
180.000000
51
270.000000
0
LINE
8
0
10
159.502948
20
169.496077
30
0.0
11
159.614754
21
169.496077
31
0.0
0
LINE
8
0
10
159.614754
20
169.496077
30
0.0
11
159.699303
21
169.514827
31
0.0
0
ARC
8
0
10
159.952948
20
168.971077
30
0.0
40
0.600000
50
360.000000
51
115.007833
0
ARC
8
0
10
159.952948
20
168.971077
30
0.0
40
0.600000
50
244.992167
51
360.000000
0
LINE
8
0
10
159.699303
20
168.427327
30
0.0
11
159.614754
21
168.446077
31
0.0
0
LINE
8
0
10
159.614754
20
168.446077
30
0.0
11
159.502948
21
168.446077
31
0.0
0
ARC
8
0
10
159.502948
20
168.246077
30
0.0
40
0.200000
50
90.000000
51
180.000000
0
LINE
8
0
10
159.302948
20
168.246077
30
0.0
11
159.302948
21
167.871077
31
0.0
0
ARC
8
0
10
159.402948
20
167.697872
30
0.0
40
0.200000
50
120.000000
51
180.000000
0
LINE
8
0
10
159.202948
20
167.697872
30
0.0
11
159.202948
21
167.271077
31
0.0
0
ARC
8
0
10
159.602948
20
167.271077
30
0.0
40
0.400000
50
180.000000
51
270.000000
0
LINE
8
0
10
159.602948
20
166.871077
30
0.0
11
159.809393
21
166.871077
31
0.0
0
ARC
8
0
10
159.809393
20
167.071077
30
0.0
40
0.200000
50
270.000000
51
299.981639
0
LINE
8
0
10
159.909337
20
166.897840
30
0.0
11
161.491281
21
167.810500
31
0.0
0
ARC
8
0
10
162.090948
20
166.771077
30
0.0
40
1.200000
50
90.000000
51
119.981639
0
LINE
8
0
10
162.090948
20
167.971077
30
0.0
11
163.202775
21
167.971077
31
0.0
0
ARC
8
0
10
163.202775
20
168.971077
30
0.0
40
1.000000
50
270.000000
51
340.000000
0
LINE
8
0
10
164.142468
20
168.629057
30
0.0
11
164.853100
21
170.581501
31
0.0
0
ARC
8
0
10
165.980731
20
170.171077
30
0.0
40
1.200000
50
90.000000
51
160.000000
0
LINE
8
0
10
165.980731
20
171.371077
30
0.0
11
169.102954
21
171.371077
31
0.0
0
ARC
8
0
10
169.102954
20
170.871077
30
0.0
40
0.500000
50
360.000000
51
90.000000
0
LINE
8
0
10
169.602954
20
170.871077
30
0.0
11
169.602954
21
151.671077
31
0.0
0
ARC
8
0
10
169.902954
20
151.671077
30
0.0
40
0.300000
50
180.000000
51
270.000000
0
LINE
8
0
10
169.902954
20
151.371077
30
0.0
11
170.402954
21
151.371077
31
0.0
0
ARC
8
0
10
170.402954
20
151.671077
30
0.0
40
0.300000
50
270.000000
51
360.000000
0
LINE
8
0
10
170.702954
20
151.671077
30
0.0
11
170.702954
21
170.871077
31
0.0
0
ARC
8
0
10
171.202954
20
170.871077
30
0.0
40
0.500000
50
90.000000
51
180.000000
0
LINE
8
0
10
171.202954
20
171.371077
30
0.0
11
176.425166
21
171.371077
31
0.0
0
ARC
8
0
10
176.425166
20
170.171077
30
0.0
40
1.200000
50
20.000000
51
90.000000
0
LINE
8
0
10
177.552797
20
170.581501
30
0.0
11
178.263429
21
168.629057
31
0.0
0
ARC
8
0
10
179.203121
20
168.971077
30
0.0
40
1.000000
50
200.000000
51
270.000000
0
LINE
8
0
10
179.203121
20
167.971077
30
0.0
11
180.314949
21
167.971077
31
0.0
0
ARC
8
0
10
180.314949
20
166.771077
30
0.0
40
1.200000
50
60.018361
51
90.000000
0
LINE
8
0
10
180.914616
20
167.810500
30
0.0
11
182.496559
21
166.897840
31
0.0
0
ARC
8
0
10
182.596504
20
167.071077
30
0.0
40
0.200000
50
240.018361
51
270.000000
0
LINE
8
0
10
182.596504
20
166.871077
30
0.0
11
182.802948
21
166.871077
31
0.0
0
ARC
8
0
10
182.802948
20
167.271077
30
0.0
40
0.400000
50
270.000000
51
360.000000
0
LINE
8
0
10
183.202948
20
167.271077
30
0.0
11
183.202948
21
167.697872
31
0.0
0
ARC
8
0
10
183.002948
20
167.697872
30
0.0
40
0.200000
50
360.000000
51
60.000000
0
LINE
8
0
10
183.102948
20
167.871077
30
0.0
11
183.102948
21
168.246077
31
0.0
0
ARC
8
0
10
182.902948
20
168.246077
30
0.0
40
0.200000
50
360.000000
51
90.000000
0
LINE
8
0
10
182.902948
20
168.446077
30
0.0
11
182.791142
21
168.446077
31
0.0
0
LINE
8
0
10
182.791142
20
168.446077
30
0.0
11
182.706594
21
168.427327
31
0.0
0
ARC
8
0
10
182.452948
20
168.971077
30
0.0
40
0.600000
50
180.000000
51
295.007833
0
ARC
8
0
10
182.452948
20
168.971077
30
0.0
40
0.600000
50
64.992167
51
180.000000
0
LINE
8
0
10
182.706594
20
169.514827
30
0.0
11
182.791142
21
169.496077
31
0.0
0
LINE
8
0
10
182.791142
20
169.496077
30
0.0
11
182.902948
21
169.496077
31
0.0
0
ARC
8
0
10
182.902948
20
169.696077
30
0.0
40
0.200000
50
270.000000
51
360.000000
0
LINE
8
0
10
183.102948
20
169.696077
30
0.0
11
183.102948
21
170.071077
31
0.0
0
ARC
8
0
10
183.002948
20
170.244282
30
0.0
40
0.200000
50
300.000000
51
360.000000
0
LINE
8
0
10
183.202948
20
170.244282
30
0.0
11
183.202948
21
170.671077
31
0.0
0
ARC
8
0
10
182.802948
20
170.671077
30
0.0
40
0.400000
50
360.000000
51
90.000000
0
LINE
8
0
10
182.802948
20
171.071077
30
0.0
11
182.596504
21
171.071077
31
0.0
0
ARC
8
0
10
182.596504
20
170.871077
30
0.0
40
0.200000
50
90.000000
51
119.981639
0
LINE
8
0
10
182.496559
20
171.044314
30
0.0
11
180.914616
21
170.131654
31
0.0
0
ARC
8
0
10
162.090948
20
132.436106
30
0.0
40
1.200000
50
90.000000
51
119.981639
0
LINE
8
0
10
162.090948
20
133.636106
30
0.0
11
162.153011
21
133.636106
31
0.0
0
ARC
8
0
10
162.153011
20
133.136106
30
0.0
40
0.500000
50
17.401721
51
90.000000
0
LINE
8
0
10
162.630127
20
133.285641
30
0.0
11
163.559030
21
130.733500
31
0.0
0
ARC
8
0
10
163.840938
20
130.836106
30
0.0
40
0.300000
50
200.000000
51
270.000000
0
LINE
8
0
10
163.840938
20
130.536106
30
0.0
11
178.564959
21
130.536106
31
0.0
0
ARC
8
0
10
178.564959
20
130.836106
30
0.0
40
0.300000
50
270.000000
51
340.000000
0
LINE
8
0
10
178.846866
20
130.733500
30
0.0
11
179.775770
21
133.285641
31
0.0
0
ARC
8
0
10
180.252885
20
133.136106
30
0.0
40
0.500000
50
90.000000
51
162.598279
0
LINE
8
0
10
180.252885
20
133.636106
30
0.0
11
180.314949
21
133.636106
31
0.0
0
ARC
8
0
10
180.314949
20
132.436106
30
0.0
40
1.200000
50
60.018361
51
90.000000
0
LINE
8
0
10
180.914616
20
133.475529
30
0.0
11
182.496559
21
132.562869
31
0.0
0
ARC
8
0
10
182.596504
20
132.736106
30
0.0
40
0.200000
50
240.018361
51
270.000000
0
LINE
8
0
10
182.596504
20
132.536106
30
0.0
11
182.802948
21
132.536106
31
0.0
0
ARC
8
0
10
182.802948
20
132.936106
30
0.0
40
0.400000
50
270.000000
51
360.000000
0
LINE
8
0
10
183.202948
20
132.936106
30
0.0
11
183.202948
21
133.362901
31
0.0
0
ARC
8
0
10
183.002948
20
133.362901
30
0.0
40
0.200000
50
360.000000
51
60.000000
0
LINE
8
0
10
183.102948
20
133.536106
30
0.0
11
183.102948
21
133.911106
31
0.0
0
ARC
8
0
10
182.902948
20
133.911106
30
0.0
40
0.200000
50
360.000000
51
90.000000
0
LINE
8
0
10
182.902948
20
134.111106
30
0.0
11
182.791142
21
134.111106
31
0.0
0
LINE
8
0
10
182.791142
20
134.111106
30
0.0
11
182.706594
21
134.092356
31
0.0
0
ARC
8
0
10
182.452948
20
134.636106
30
0.0
40
0.600000
50
180.000000
51
295.007833
0
ARC
8
0
10
182.452948
20
134.636106
30
0.0
40
0.600000
50
64.992167
51
180.000000
0
LINE
8
0
10
182.706594
20
135.179856
30
0.0
11
182.791142
21
135.161106
31
0.0
0
LINE
8
0
10
182.791142
20
135.161106
30
0.0
11
182.902948
21
135.161106
31
0.0
0
ARC
8
0
10
182.902948
20
135.361106
30
0.0
40
0.200000
50
270.000000
51
360.000000
0
LINE
8
0
10
183.102948
20
135.361106
30
0.0
11
183.102948
21
135.736106
31
0.0
0
ARC
8
0
10
183.002948
20
135.909311
30
0.0
40
0.200000
50
300.000000
51
360.000000
0
LINE
8
0
10
183.202948
20
135.909311
30
0.0
11
183.202948
21
136.336106
31
0.0
0
ARC
8
0
10
182.802948
20
136.336106
30
0.0
40
0.400000
50
360.000000
51
90.000000
0
LINE
8
0
10
182.802948
20
136.736106
30
0.0
11
182.596504
21
136.736106
31
0.0
0
ARC
8
0
10
182.596504
20
136.536106
30
0.0
40
0.200000
50
90.000000
51
119.981639
0
LINE
8
0
10
182.496559
20
136.709343
30
0.0
11
180.914616
21
135.796684
31
0.0
0
ARC
8
0
10
180.314949
20
136.836106
30
0.0
40
1.200000
50
270.000000
51
299.981639
0
LINE
8
0
10
180.314949
20
135.636106
30
0.0
11
179.203121
21
135.636106
31
0.0
0
ARC
8
0
10
179.203121
20
134.636106
30
0.0
40
1.000000
50
90.000000
51
160.000000
0
LINE
8
0
10
178.263429
20
134.978126
30
0.0
11
177.552797
21
133.025682
31
0.0
0
ARC
8
0
10
176.425166
20
133.436106
30
0.0
40
1.200000
50
270.000000
51
340.000000
0
LINE
8
0
10
176.425166
20
132.236106
30
0.0
11
173.302942
21
132.236106
31
0.0
0
ARC
8
0
10
173.302942
20
132.736106
30
0.0
40
0.500000
50
180.000000
51
270.000000
0
LINE
8
0
10
172.802942
20
132.736106
30
0.0
11
172.802942
21
151.936106
31
0.0
0
ARC
8
0
10
172.502942
20
151.936106
30
0.0
40
0.300000
50
360.000000
51
90.000000
0
LINE
8
0
10
172.502942
20
152.236106
30
0.0
11
172.002942
21
152.236106
31
0.0
0
ARC
8
0
10
172.002942
20
151.936106
30
0.0
40
0.300000
50
90.000000
51
180.000000
0
LINE
8
0
10
171.702942
20
151.936106
30
0.0
11
171.702942
21
132.736106
31
0.0
0
ARC
8
0
10
171.202942
20
132.736106
30
0.0
40
0.500000
50
270.000000
51
360.000000
0
LINE
8
0
10
171.202942
20
132.236106
30
0.0
11
165.980731
21
132.236106
31
0.0
0
ARC
8
0
10
165.980731
20
133.436106
30
0.0
40
1.200000
50
200.000000
51
270.000000
0
LINE
8
0
10
164.853100
20
133.025682
30
0.0
11
164.142468
21
134.978126
31
0.0
0
ARC
8
0
10
163.202775
20
134.636106
30
0.0
40
1.000000
50
20.000000
51
90.000000
0
LINE
8
0
10
163.202775
20
135.636106
30
0.0
11
162.090948
21
135.636106
31
0.0
0
ARC
8
0
10
162.090948
20
136.836106
30
0.0
40
1.200000
50
240.018361
51
270.000000
0
LINE
8
0
10
161.491281
20
135.796684
30
0.0
11
159.909337
21
136.709343
31
0.0
0
ARC
8
0
10
159.809393
20
136.536106
30
0.0
40
0.200000
50
60.018361
51
90.000000
0
LINE
8
0
10
159.809393
20
136.736106
30
0.0
11
159.602948
21
136.736106
31
0.0
0
ARC
8
0
10
159.602948
20
136.336106
30
0.0
40
0.400000
50
90.000000
51
180.000000
0
LINE
8
0
10
159.202948
20
136.336106
30
0.0
11
159.202948
21
135.909311
31
0.0
0
ARC
8
0
10
159.402948
20
135.909311
30
0.0
40
0.200000
50
180.000000
51
240.000000
0
LINE
8
0
10
159.302948
20
135.736106
30
0.0
11
159.302948
21
135.361106
31
0.0
0
ARC
8
0
10
159.502948
20
135.361106
30
0.0
40
0.200000
50
180.000000
51
270.000000
0
LINE
8
0
10
159.502948
20
135.161106
30
0.0
11
159.614754
21
135.161106
31
0.0
0
LINE
8
0
10
159.614754
20
135.161106
30
0.0
11
159.699303
21
135.179856
31
0.0
0
ARC
8
0
10
159.952948
20
134.636106
30
0.0
40
0.600000
50
360.000000
51
115.007833
0
ARC
8
0
10
159.952948
20
134.636106
30
0.0
40
0.600000
50
244.992167
51
360.000000
0
LINE
8
0
10
159.699303
20
134.092356
30
0.0
11
159.614754
21
134.111106
31
0.0
0
LINE
8
0
10
159.614754
20
134.111106
30
0.0
11
159.502948
21
134.111106
31
0.0
0
ARC
8
0
10
159.502948
20
133.911106
30
0.0
40
0.200000
50
90.000000
51
180.000000
0
LINE
8
0
10
159.302948
20
133.911106
30
0.0
11
159.302948
21
133.536106
31
0.0
0
ARC
8
0
10
159.402948
20
133.362901
30
0.0
40
0.200000
50
120.000000
51
180.000000
0
LINE
8
0
10
159.202948
20
133.362901
30
0.0
11
159.202948
21
132.936106
31
0.0
0
ARC
8
0
10
159.602948
20
132.936106
30
0.0
40
0.400000
50
180.000000
51
270.000000
0
LINE
8
0
10
159.602948
20
132.536106
30
0.0
11
159.809393
21
132.536106
31
0.0
0
ARC
8
0
10
159.809393
20
132.736106
30
0.0
40
0.200000
50
270.000000
51
299.981639
0
LINE
8
0
10
159.909337
20
132.562869
30
0.0
11
161.491281
21
133.475529
31
0.0
0
ARC
8
0
10
157.402200
20
165.171077
30
0.0
40
0.300000
50
270.000000
51
360.000000
0
LINE
8
0
10
157.702200
20
165.171077
30
0.0
11
157.702200
21
171.271077
31
0.0
0
ARC
8
0
10
157.402200
20
171.271077
30
0.0
40
0.300000
50
360.000000
51
90.000000
0
LINE
8
0
10
157.402200
20
171.571077
30
0.0
11
149.002690
21
171.571077
31
0.0
0
ARC
8
0
10
149.002690
20
171.271077
30
0.0
40
0.300000
50
90.000000
51
180.000000
0
LINE
8
0
10
148.702690
20
171.271077
30
0.0
11
148.702690
21
165.171077
31
0.0
0
ARC
8
0
10
149.002690
20
165.171077
30
0.0
40
0.300000
50
180.000000
51
270.000000
0
LINE
8
0
10
149.002690
20
164.871077
30
0.0
11
150.402690
21
164.871077
31
0.0
0
ARC
8
0
10
150.402690
20
164.571077
30
0.0
40
0.300000
50
360.000000
51
90.000000
0
LINE
8
0
10
150.702690
20
164.571077
30
0.0
11
150.702690
21
163.671077
31
0.0
0
ARC
8
0
10
150.402690
20
163.671077
30
0.0
40
0.300000
50
270.000000
51
360.000000
0
LINE
8
0
10
150.402690
20
163.371077
30
0.0
11
149.002690
21
163.371077
31
0.0
0
ARC
8
0
10
149.002690
20
163.071077
30
0.0
40
0.300000
50
90.000000
51
180.000000
0
LINE
8
0
10
148.702690
20
163.071077
30
0.0
11
148.702690
21
133.871077
31
0.0
0
ARC
8
0
10
149.002690
20
133.871077
30
0.0
40
0.300000
50
180.000000
51
270.000000
0
LINE
8
0
10
149.002690
20
133.571077
30
0.0
11
157.402200
21
133.571077
31
0.0
0
ARC
8
0
10
157.402200
20
133.871077
30
0.0
40
0.300000
50
270.000000
51
360.000000
0
LINE
8
0
10
157.702200
20
133.871077
30
0.0
11
157.702200
21
163.071077
31
0.0
0
ARC
8
0
10
157.402200
20
163.071077
30
0.0
40
0.300000
50
360.000000
51
90.000000
0
LINE
8
0
10
157.402200
20
163.371077
30
0.0
11
156.002200
21
163.371077
31
0.0
0
ARC
8
0
10
156.002200
20
163.671077
30
0.0
40
0.300000
50
180.000000
51
270.000000
0
LINE
8
0
10
155.702200
20
163.671077
30
0.0
11
155.702200
21
164.571077
31
0.0
0
ARC
8
0
10
156.002200
20
164.571077
30
0.0
40
0.300000
50
90.000000
51
180.000000
0
LINE
8
0
10
156.002200
20
164.871077
30
0.0
11
157.402200
21
164.871077
31
0.0
0
LINE
8
0
10
203.952948
20
164.771077
30
0.0
11
212.102948
21
164.771077
31
0.0
0
ARC
8
0
10
212.102948
20
164.471077
30
0.0
40
0.300000
50
360.000000
51
90.000000
0
LINE
8
0
10
212.402948
20
164.471077
30
0.0
11
212.402948
21
134.271077
31
0.0
0
ARC
8
0
10
212.102948
20
134.271077
30
0.0
40
0.300000
50
270.000000
51
360.000000
0
LINE
8
0
10
212.102948
20
133.971077
30
0.0
11
185.102948
21
133.971077
31
0.0
0
ARC
8
0
10
185.102948
20
134.271077
30
0.0
40
0.300000
50
180.000000
51
270.000000
0
LINE
8
0
10
184.802948
20
134.271077
30
0.0
11
184.802948
21
164.471077
31
0.0
0
ARC
8
0
10
185.102948
20
164.471077
30
0.0
40
0.300000
50
90.000000
51
180.000000
0
LINE
8
0
10
185.102948
20
164.771077
30
0.0
11
187.002948
21
164.771077
31
0.0
0
ARC
8
0
10
187.002948
20
165.071077
30
0.0
40
0.300000
50
270.000000
51
360.000000
0
LINE
8
0
10
187.302948
20
165.071077
30
0.0
11
187.302948
21
165.567674
31
0.0
0
ARC
8
0
10
187.002948
20
165.567674
30
0.0
40
0.300000
50
360.000000
51
75.000000
0
LINE
8
0
10
187.080594
20
165.857452
30
0.0
11
185.025303
21
166.408165
31
0.0
0
ARC
8
0
10
185.102948
20
166.697943
30
0.0
40
0.300000
50
180.000000
51
255.000000
0
LINE
8
0
10
184.802948
20
166.697943
30
0.0
11
184.802948
21
170.971077
31
0.0
0
ARC
8
0
10
185.102948
20
170.971077
30
0.0
40
0.300000
50
90.000000
51
180.000000
0
LINE
8
0
10
185.102948
20
171.271077
30
0.0
11
203.352948
21
171.271077
31
0.0
0
ARC
8
0
10
203.352948
20
170.971077
30
0.0
40
0.300000
50
360.000000
51
90.000000
0
LINE
8
0
10
203.652948
20
170.971077
30
0.0
11
203.652948
21
165.071077
31
0.0
0
ARC
8
0
10
203.952948
20
165.071077
30
0.0
40
0.300000
50
180.000000
51
270.000000
0
LINE
8
0
10
205.202948
20
132.472188
30
0.0
11
205.502948
21
132.172188
31
0.0
0
LINE
8
0
10
205.502948
20
132.172188
30
0.0
11
211.902948
21
132.172188
31
0.0
0
ARC
8
0
10
211.902948
20
131.672188
30
0.0
40
0.500000
50
360.000000
51
90.000000
0
LINE
8
0
10
212.402948
20
131.672188
30
0.0
11
212.402948
21
122.171077
31
0.0
0
ARC
8
0
10
212.102948
20
122.171077
30
0.0
40
0.300000
50
270.000000
51
360.000000
0
LINE
8
0
10
212.102948
20
121.871077
30
0.0
11
210.502948
21
121.871077
31
0.0
0
ARC
8
0
10
210.502948
20
121.571077
30
0.0
40
0.300000
50
90.000000
51
180.000000
0
LINE
8
0
10
210.202948
20
121.571077
30
0.0
11
210.202948
21
119.471077
31
0.0
0
ARC
8
0
10
210.502948
20
119.471077
30
0.0
40
0.300000
50
180.000000
51
270.000000
0
LINE
8
0
10
210.502948
20
119.171077
30
0.0
11
210.902948
21
119.171077
31
0.0
0
ARC
8
0
10
210.902948
20
119.471077
30
0.0
40
0.300000
50
270.000000
51
360.000000
0
LINE
8
0
10
211.202948
20
119.471077
30
0.0
11
211.202948
21
120.371077
31
0.0
0
ARC
8
0
10
211.502948
20
120.371077
30
0.0
40
0.300000
50
90.000000
51
180.000000
0
LINE
8
0
10
211.502948
20
120.671077
30
0.0
11
212.402948
21
120.671077
31
0.0
0
ARC
8
0
10
212.402948
20
120.371077
30
0.0
40
0.300000
50
360.000000
51
90.000000
0
LINE
8
0
10
212.702948
20
120.371077
30
0.0
11
212.702948
21
101.771077
31
0.0
0
ARC
8
0
10
212.402948
20
101.771077
30
0.0
40
0.300000
50
270.000000
51
360.000000
0
LINE
8
0
10
212.402948
20
101.471077
30
0.0
11
211.502948
21
101.471077
31
0.0
0
ARC
8
0
10
211.502948
20
101.771077
30
0.0
40
0.300000
50
180.000000
51
270.000000
0
LINE
8
0
10
211.202948
20
101.771077
30
0.0
11
211.202948
21
102.671077
31
0.0
0
ARC
8
0
10
210.902948
20
102.671077
30
0.0
40
0.300000
50
360.000000
51
90.000000
0
LINE
8
0
10
210.902948
20
102.971077
30
0.0
11
210.202948
21
102.971077
31
0.0
0
ARC
8
0
10
210.202948
20
102.671077
30
0.0
40
0.300000
50
90.000000
51
180.000000
0
LINE
8
0
10
209.902948
20
102.671077
30
0.0
11
209.902948
21
99.171077
31
0.0
0
ARC
8
0
10
210.202948
20
99.171077
30
0.0
40
0.300000
50
180.000000
51
270.000000
0
LINE
8
0
10
210.202948
20
98.871077
30
0.0
11
210.602948
21
98.871077
31
0.0
0
ARC
8
0
10
210.602948
20
99.171077
30
0.0
40
0.300000
50
270.000000
51
360.000000
0
LINE
8
0
10
210.902948
20
99.171077
30
0.0
11
210.902948
21
99.971077
31
0.0
0
ARC
8
0
10
211.202948
20
99.971077
30
0.0
40
0.300000
50
90.000000
51
180.000000
0
LINE
8
0
10
211.202948
20
100.271077
30
0.0
11
212.402948
21
100.271077
31
0.0
0
ARC
8
0
10
212.402948
20
99.971077
30
0.0
40
0.300000
50
360.000000
51
90.000000
0
LINE
8
0
10
212.702948
20
99.971077
30
0.0
11
212.702948
21
95.071077
31
0.0
0
ARC
8
0
10
212.402948
20
95.071077
30
0.0
40
0.300000
50
270.000000
51
360.000000
0
LINE
8
0
10
212.402948
20
94.771077
30
0.0
11
211.202948
21
94.771077
31
0.0
0
ARC
8
0
10
211.202948
20
95.071077
30
0.0
40
0.300000
50
180.000000
51
270.000000
0
LINE
8
0
10
210.902948
20
95.071077
30
0.0
11
210.902948
21
95.871077
31
0.0
0
ARC
8
0
10
210.602948
20
95.871077
30
0.0
40
0.300000
50
360.000000
51
90.000000
0
LINE
8
0
10
210.602948
20
96.171077
30
0.0
11
210.202948
21
96.171077
31
0.0
0
ARC
8
0
10
210.202948
20
95.871077
30
0.0
40
0.300000
50
90.000000
51
180.000000
0
LINE
8
0
10
209.902948
20
95.871077
30
0.0
11
209.902948
21
93.871077
31
0.0
0
ARC
8
0
10
210.202948
20
93.871077
30
0.0
40
0.300000
50
180.000000
51
270.000000
0
LINE
8
0
10
210.202948
20
93.571077
30
0.0
11
213.502948
21
93.571077
31
0.0
0
ARC
8
0
10
213.502948
20
94.271077
30
0.0
40
0.700000
50
270.000000
51
360.000000
0
LINE
8
0
10
214.202948
20
94.271077
30
0.0
11
214.202948
21
166.071077
31
0.0
0
ARC
8
0
10
213.702948
20
166.071077
30
0.0
40
0.500000
50
360.000000
51
90.000000
0
LINE
8
0
10
213.702948
20
166.571077
30
0.0
11
205.752948
21
166.571077
31
0.0
0
ARC
8
0
10
205.752948
20
166.871077
30
0.0
40
0.300000
50
180.000000
51
270.000000
0
LINE
8
0
10
205.452948
20
166.871077
30
0.0
11
205.452948
21
177.271077
31
0.0
0
ARC
8
0
10
205.152948
20
177.271077
30
0.0
40
0.300000
50
360.000000
51
90.000000
0
LINE
8
0
10
205.152948
20
177.571077
30
0.0
11
204.152948
21
177.571077
31
0.0
0
ARC
8
0
10
204.152948
20
177.271077
30
0.0
40
0.300000
50
90.000000
51
180.000000
0
LINE
8
0
10
203.852948
20
177.271077
30
0.0
11
203.852948
21
173.371077
31
0.0
0
ARC
8
0
10
203.552948
20
173.371077
30
0.0
40
0.300000
50
270.000000
51
360.000000
0
LINE
8
0
10
203.552948
20
173.071077
30
0.0
11
182.980633
21
173.071077
31
0.0
0
LINE
8
0
10
182.980633
20
173.071077
30
0.0
11
182.904169
21
173.061169
31
0.0
0
LINE
8
0
10
182.904169
20
173.061169
30
0.0
11
181.941966
21
172.807546
31
0.0
0
ARC
8
0
10
181.852245
20
173.093816
30
0.0
40
0.300000
50
209.632658
51
287.401721
0
ARC
8
0
10
181.417639
20
172.846597
30
0.0
40
0.200000
50
29.632658
51
90.000000
0
LINE
8
0
10
181.416236
20
173.046592
30
0.0
11
179.865142
21
173.046592
31
0.0
0
ARC
8
0
10
179.865142
20
172.746592
30
0.0
40
0.300000
50
90.000000
51
197.401721
0
LINE
8
0
10
179.578873
20
172.656871
30
0.0
11
180.180837
21
170.736202
31
0.0
0
ARC
8
0
10
180.944222
20
170.975458
30
0.0
40
0.800000
50
197.401721
51
242.401721
0
LINE
8
0
10
180.573607
20
170.266484
30
0.0
11
180.854677
21
170.119555
31
0.0
0
ARC
8
0
10
180.947331
20
170.296798
30
0.0
40
0.200000
50
242.401721
51
360.000000
0
LINE
8
0
10
181.147155
20
170.305179
30
0.0
11
181.135058
21
170.593601
31
0.0
0
LINE
8
0
10
181.135058
20
170.593601
30
0.0
11
182.843155
21
171.677664
31
0.0
0
ARC
8
0
10
183.164666
20
171.171077
30
0.0
40
0.600000
50
90.000000
51
122.401721
0
LINE
8
0
10
183.164666
20
171.771077
30
0.0
11
183.202948
21
171.771077
31
0.0
0
ARC
8
0
10
183.102948
20
171.488234
30
0.0
40
0.300000
50
289.471221
51
70.528779
0
LINE
8
0
10
183.202948
20
171.205392
30
0.0
11
183.202948
21
167.171077
31
0.0
0
ARC
8
0
10
182.902948
20
167.171077
30
0.0
40
0.300000
50
270.000000
51
360.000000
0
LINE
8
0
10
182.902948
20
166.871077
30
0.0
11
182.683333
21
166.871077
31
0.0
0
ARC
8
0
10
182.683333
20
167.171077
30
0.0
40
0.300000
50
240.000000
51
270.000000
0
LINE
8
0
10
182.533333
20
166.911269
30
0.0
11
181.002948
21
167.794837
31
0.0
0
ARC
8
0
10
180.902948
20
167.621632
30
0.0
40
0.200000
50
60.000000
51
180.000000
0
LINE
8
0
10
180.702948
20
167.621632
30
0.0
11
180.702948
21
166.466932
31
0.0
0
ARC
8
0
10
181.702948
20
166.466932
30
0.0
40
1.000000
50
180.000000
51
240.000000
0
LINE
8
0
10
181.202948
20
165.600906
30
0.0
11
182.702948
21
164.734881
31
0.0
0
ARC
8
0
10
182.202948
20
163.868856
30
0.0
40
1.000000
50
360.000000
51
60.000000
0
LINE
8
0
10
183.202948
20
163.868856
30
0.0
11
183.202948
21
139.773298
31
0.0
0
ARC
8
0
10
182.202948
20
139.773298
30
0.0
40
1.000000
50
300.000000
51
360.000000
0
LINE
8
0
10
182.702948
20
138.907273
30
0.0
11
181.202948
21
138.041248
31
0.0
0
ARC
8
0
10
181.702948
20
137.175222
30
0.0
40
1.000000
50
120.000000
51
180.000000
0
LINE
8
0
10
180.702948
20
137.175222
30
0.0
11
180.702948
21
136.020522
31
0.0
0
ARC
8
0
10
180.902948
20
136.020522
30
0.0
40
0.200000
50
180.000000
51
300.000000
0
LINE
8
0
10
181.002948
20
135.847317
30
0.0
11
182.533333
21
136.730885
31
0.0
0
ARC
8
0
10
182.683333
20
136.471077
30
0.0
40
0.300000
50
90.000000
51
120.000000
0
LINE
8
0
10
182.683333
20
136.771077
30
0.0
11
182.902948
21
136.771077
31
0.0
0
ARC
8
0
10
182.902948
20
136.471077
30
0.0
40
0.300000
50
360.000000
51
90.000000
0
LINE
8
0
10
183.202948
20
136.471077
30
0.0
11
183.202948
21
132.436762
31
0.0
0
ARC
8
0
10
183.102948
20
132.153920
30
0.0
40
0.300000
50
289.471221
51
70.528779
0
LINE
8
0
10
183.202948
20
131.871077
30
0.0
11
183.164666
21
131.871077
31
0.0
0
ARC
8
0
10
183.164666
20
132.471077
30
0.0
40
0.600000
50
237.598279
51
270.000000
0
LINE
8
0
10
182.843155
20
131.964490
30
0.0
11
181.135058
21
133.048553
31
0.0
0
LINE
8
0
10
181.135058
20
133.048553
30
0.0
11
181.147155
21
133.336975
31
0.0
0
ARC
8
0
10
180.947331
20
133.345356
30
0.0
40
0.200000
50
360.000000
51
117.598279
0
LINE
8
0
10
180.854677
20
133.522599
30
0.0
11
180.573607
21
133.375670
31
0.0
0
ARC
8
0
10
180.944222
20
132.666696
30
0.0
40
0.800000
50
117.598279
51
162.598279
0
LINE
8
0
10
180.180837
20
132.905952
30
0.0
11
179.578873
21
130.985283
31
0.0
0
ARC
8
0
10
179.865142
20
130.895562
30
0.0
40
0.300000
50
162.598279
51
270.000000
0
LINE
8
0
10
179.865142
20
130.595562
30
0.0
11
181.416236
21
130.595562
31
0.0
0
ARC
8
0
10
181.417639
20
130.795557
30
0.0
40
0.200000
50
270.000000
51
330.367342
0
ARC
8
0
10
181.852245
20
130.548338
30
0.0
40
0.300000
50
72.598279
51
150.367342
0
LINE
8
0
10
181.941966
20
130.834608
30
0.0
11
182.904169
21
130.580985
31
0.0
0
LINE
8
0
10
182.904169
20
130.580985
30
0.0
11
182.980633
21
130.571077
31
0.0
0
LINE
8
0
10
182.980633
20
130.571077
30
0.0
11
184.502948
21
130.571077
31
0.0
0
ARC
8
0
10
184.502948
20
130.871077
30
0.0
40
0.300000
50
270.000000
51
360.000000
0
LINE
8
0
10
184.802948
20
130.871077
30
0.0
11
184.802948
21
131.872188
31
0.0
0
ARC
8
0
10
185.102948
20
131.872188
30
0.0
40
0.300000
50
90.000000
51
180.000000
0
LINE
8
0
10
185.102948
20
132.172188
30
0.0
11
196.102948
21
132.172188
31
0.0
0
ARC
8
0
10
196.102948
20
131.872188
30
0.0
40
0.300000
50
360.000000
51
90.000000
0
LINE
8
0
10
196.402948
20
131.872188
30
0.0
11
196.402948
21
125.871077
31
0.0
0
ARC
8
0
10
196.702948
20
125.871077
30
0.0
40
0.300000
50
180.000000
51
270.000000
0
LINE
8
0
10
196.702948
20
125.571077
30
0.0
11
199.152393
21
125.571077
31
0.0
0
ARC
8
0
10
199.152393
20
125.871077
30
0.0
40
0.300000
50
270.000000
51
330.000000
0
LINE
8
0
10
199.412200
20
125.721077
30
0.0
11
199.862756
21
126.501462
31
0.0
0
ARC
8
0
10
199.602948
20
126.651462
30
0.0
40
0.300000
50
330.000000
51
360.000000
0
LINE
8
0
10
199.902948
20
126.651462
30
0.0
11
199.902948
21
126.771077
31
0.0
0
ARC
8
0
10
199.602948
20
126.771077
30
0.0
40
0.300000
50
360.000000
51
90.000000
0
LINE
8
0
10
199.602948
20
127.071077
30
0.0
11
198.202948
21
127.071077
31
0.0
0
ARC
8
0
10
198.202948
20
127.371077
30
0.0
40
0.300000
50
180.000000
51
270.000000
0
LINE
8
0
10
197.902948
20
127.371077
30
0.0
11
197.902948
21
131.872188
31
0.0
0
ARC
8
0
10
198.202948
20
131.872188
30
0.0
40
0.300000
50
90.000000
51
180.000000
0
LINE
8
0
10
198.202948
20
132.172188
30
0.0
11
204.902948
21
132.172188
31
0.0
0
LINE
8
0
10
204.902948
20
132.172188
30
0.0
11
205.202948
21
132.472188
31
0.0
0
ATTDEF
8
0
10
154.663977
20
173.071077
30
0.0
40
3.5
1

3

2
VC_START
70
0
0
ATTDEF
8
0
10
157.202690
20
125.571077
30
0.0
40
3.5
1

3

2
VC_END
70
0
0
ATTDEF
8
0
10
147.202690
20
93.571077
30
0.0
40
3.5
1

3

2
JY:0.000000
70
0
0
ATTDEF
8
0
10
147.202690
20
93.571077
30
0.0
40
3.5
1

3

2
WY:0.000000
70
0
0
ATTDEF
8
0
10
147.202690
20
93.571077
30
0.0
40
3.5
1

3

2
DESC:Telaio Z per porta apertura interna
70
0
0
ATTDEF
8
0
10
147.202690
20
93.571077
30
0.0
40
3.5
1

3

2
DENS:1.880000
70
0
0
ATTDEF
8
0
10
147.202690
20
93.571077
30
0.0
40
3.5
1

3

2
TDEV:0.000000
70
0
0
ATTDEF
8
0
10
147.202690
20
93.571077
30
0.0
40
3.5
1

3

2
TDEV2:0.000000
70
0
0
ATTDEF
8
0
10
147.202690
20
93.571077
30
0.0
40
3.5
1

3

2
TDEV3:0.000000
70
0
0
ATTDEF
8
0
10
147.202690
20
93.571077
30
0.0
40
3.5
1

3

2
TDEV4:0.000000
70
0
0
ATTDEF
8
0
10
147.202690
20
93.571077
30
0.0
40
3.5
1

3

2
TDEV5:0.000000
70
0
0
ATTDEF
8
0
10
147.202690
20
93.571077
30
0.0
40
3.5
1

3

2
FRONT_VIEW
70
0
0
ATTDEF
8
0
10
147.202690
20
93.571077
30
0.0
40
3.5
1

3

2
BL01:6800.000000,,1
70
0
0
ATTDEF
8
0
10
147.202690
20
93.571077
30
0.0
40
3.5
1

3

2
OPTI:500.000000,1,0,3000.000000,6500.000000,500.000000,0,0.000000,0
70
0
0
ATTDEF
8
0
10
147.202690
20
93.571077
30
0.0
40
3.5
1

3

2
PANE_WIDTH:0.000000
70
0
0
ATTDEF
8
0
10
147.202690
20
93.571077
30
0.0
40
3.5
1

3

2
GLASS_MIN:0.000000
70
0
0
ATTDEF
8
0
10
147.202690
20
93.571077
30
0.0
40
3.5
1

3

2
GLASS_MAX:0.000000
70
0
0
ATTDEF
8
0
10
147.202690
20
93.571077
30
0.0
40
3.5
1

3

2
JX:0.000000
70
0
0
ATTDEF
8
0
10
147.202690
20
93.571077
30
0.0
40
3.5
1

3

2
WX:0.000000
70
0
0
ATTDEF
8
0
10
147.202690
20
93.571077
30
0.0
40
3.5
1

3

2
JY:0.000000
70
0
0
ATTDEF
8
0
10
147.202690
20
93.571077
30
0.0
40
3.5
1

3

2
WY:0.000000
70
0
0
ATTDEF
8
0
10
147.202690
20
93.571077
30
0.0
40
3.5
1

3

2
FP_LCS_ORIG
70
0
0
ATTDEF
8
0
10
157.202690
20
93.571077
30
0.0
40
3.5
1

3

2
FP_LCS_HOT
70
0
0
ATTDEF
8
0
10
147.202690
20
103.571077
30
0.0
40
3.5
1

3

2
FP_LCS_INTERN
70
0
0
ENDSEC
0
EOF
