0
SECTION
2
ENTITIES
0
ARC
8
0
10
145.364974
20
200.202265
30
0.0
40
0.300000
50
270.000000
51
0.000000
0
LINE
8
0
10
145.664974
20
200.202265
30
0.0
11
145.664974
21
204.102265
31
0.0
0
ARC
8
0
10
145.964974
20
204.102265
30
0.0
40
0.300000
50
90.000000
51
180.000000
0
LINE
8
0
10
145.964974
20
204.402265
30
0.0
11
146.964974
21
204.402265
31
0.0
0
ARC
8
0
10
146.964974
20
204.102265
30
0.0
40
0.300000
50
0.000000
51
90.000000
0
LINE
8
0
10
147.264974
20
204.102265
30
0.0
11
147.264974
21
193.702265
31
0.0
0
ARC
8
0
10
147.564974
20
193.702265
30
0.0
40
0.300000
50
180.000000
51
270.000000
0
LINE
8
0
10
147.564974
20
193.402265
30
0.0
11
155.715232
21
193.402265
31
0.0
0
ARC
8
0
10
155.715232
20
193.102265
30
0.0
40
0.300000
50
0.000000
51
90.000000
0
LINE
8
0
10
156.015232
20
193.102265
30
0.0
11
156.015232
21
152.702238
31
0.0
0
ARC
8
0
10
155.715232
20
152.702238
30
0.0
40
0.300000
50
270.000000
51
0.000000
0
LINE
8
0
10
155.715232
20
152.402238
30
0.0
11
154.015232
21
152.402238
31
0.0
0
ARC
8
0
10
154.015232
20
153.202238
30
0.0
40
0.800000
50
180.000000
51
270.000000
0
LINE
8
0
10
153.215232
20
153.202238
30
0.0
11
153.215232
21
153.302238
31
0.0
0
ARC
8
0
10
153.515232
20
153.302238
30
0.0
40
0.300000
50
90.000000
51
180.000000
0
LINE
8
0
10
153.515232
20
153.602238
30
0.0
11
154.215232
21
153.602238
31
0.0
0
ARC
8
0
10
154.215232
20
153.902238
30
0.0
40
0.300000
50
270.000000
51
0.000000
0
LINE
8
0
10
154.515232
20
153.902238
30
0.0
11
154.515232
21
158.602238
31
0.0
0
ARC
8
0
10
154.215232
20
158.602238
30
0.0
40
0.300000
50
0.000000
51
90.000000
0
LINE
8
0
10
154.215232
20
158.902238
30
0.0
11
146.076875
21
158.902238
31
0.0
0
ARC
8
0
10
146.076875
20
158.602238
30
0.0
40
0.300000
50
90.000000
51
173.157227
0
LINE
8
0
10
145.779012
20
158.637981
30
0.0
11
145.510723
21
156.402238
31
0.0
0
LINE
8
0
10
145.510723
20
156.402238
30
0.0
11
145.510723
21
153.902238
31
0.0
0
ARC
8
0
10
145.810723
20
153.902238
30
0.0
40
0.300000
50
180.000000
51
270.000000
0
LINE
8
0
10
145.810723
20
153.602238
30
0.0
11
146.515232
21
153.602238
31
0.0
0
ARC
8
0
10
146.515232
20
153.302238
30
0.0
40
0.300000
50
0.000000
51
90.000000
0
LINE
8
0
10
146.815232
20
153.302238
30
0.0
11
146.815232
21
153.202238
31
0.0
0
ARC
8
0
10
146.015232
20
153.202238
30
0.0
40
0.800000
50
270.000000
51
0.000000
0
LINE
8
0
10
146.015232
20
152.402238
30
0.0
11
144.315216
21
152.402238
31
0.0
0
ARC
8
0
10
144.315216
20
152.702238
30
0.0
40
0.300000
50
180.000000
51
270.000000
0
LINE
8
0
10
144.015216
20
152.702221
30
0.0
11
144.014974
21
157.102238
31
0.0
0
ARC
8
0
10
143.714974
20
157.102221
30
0.0
40
0.300000
50
0.000000
51
75.233538
0
LINE
8
0
10
143.791438
20
157.392313
30
0.0
11
142.753992
21
157.665769
31
0.0
0
ARC
8
0
10
142.664271
20
157.379499
30
0.0
40
0.300000
50
72.598279
51
150.367342
0
ARC
8
0
10
142.229665
20
157.626718
30
0.0
40
0.200000
50
270.000000
51
330.367342
0
LINE
8
0
10
142.228262
20
157.426723
30
0.0
11
140.677168
21
157.426723
31
0.0
0
ARC
8
0
10
140.677168
20
157.726723
30
0.0
40
0.300000
50
162.598279
51
270.000000
0
LINE
8
0
10
140.390899
20
157.816444
30
0.0
11
140.992863
21
159.737112
31
0.0
0
ARC
8
0
10
141.756248
20
159.497857
30
0.0
40
0.800000
50
117.598279
51
162.598279
0
LINE
8
0
10
141.385633
20
160.206831
30
0.0
11
141.666703
21
160.353760
31
0.0
0
ARC
8
0
10
141.759357
20
160.176517
30
0.0
40
0.200000
50
0.000000
51
117.598279
0
LINE
8
0
10
141.959181
20
160.168135
30
0.0
11
141.947084
21
159.879714
31
0.0
0
LINE
8
0
10
141.947084
20
159.879714
30
0.0
11
143.655181
21
158.795651
31
0.0
0
ARC
8
0
10
143.976692
20
159.302238
30
0.0
40
0.600000
50
237.598279
51
270.000000
0
LINE
8
0
10
143.976692
20
158.702238
30
0.0
11
144.014974
21
158.702238
31
0.0
0
ARC
8
0
10
143.914974
20
158.985081
30
0.0
40
0.300000
50
289.471221
51
70.528779
0
LINE
8
0
10
144.014974
20
159.267923
30
0.0
11
144.014974
21
163.302238
31
0.0
0
ARC
8
0
10
143.714974
20
163.302238
30
0.0
40
0.300000
50
0.000000
51
90.000000
0
LINE
8
0
10
143.714974
20
163.602238
30
0.0
11
143.495359
21
163.602238
31
0.0
0
ARC
8
0
10
143.495359
20
163.302238
30
0.0
40
0.300000
50
90.000000
51
120.000000
0
LINE
8
0
10
143.345359
20
163.562045
30
0.0
11
141.814974
21
162.678477
31
0.0
0
ARC
8
0
10
141.714974
20
162.851682
30
0.0
40
0.200000
50
180.000000
51
300.000000
0
LINE
8
0
10
141.514974
20
162.851682
30
0.0
11
141.514974
21
164.006383
31
0.0
0
ARC
8
0
10
142.514974
20
164.006383
30
0.0
40
1.000000
50
119.999999
51
180.000000
0
LINE
8
0
10
142.014974
20
164.872408
30
0.0
11
143.514974
21
165.738434
31
0.0
0
ARC
8
0
10
143.014974
20
166.604459
30
0.0
40
1.000000
50
299.999999
51
0.000000
0
LINE
8
0
10
144.014974
20
166.604459
30
0.0
11
144.014974
21
190.402252
31
0.0
0
ARC
8
0
10
143.714974
20
190.402252
30
0.0
40
0.300000
50
0.000000
51
90.000000
0
LINE
8
0
10
143.714974
20
190.702252
30
0.0
11
139.814974
21
190.702252
31
0.0
0
ARC
8
0
10
139.814974
20
191.002252
30
0.0
40
0.300000
50
180.000000
51
270.000000
0
LINE
8
0
10
139.514974
20
191.002252
30
0.0
11
139.514974
21
191.902252
31
0.0
0
ARC
8
0
10
139.814974
20
191.902252
30
0.0
40
0.300000
50
90.000000
51
180.000000
0
LINE
8
0
10
139.814974
20
192.202252
30
0.0
11
141.214974
21
192.202252
31
0.0
0
ARC
8
0
10
141.214974
20
192.502252
30
0.0
40
0.300000
50
270.000000
51
0.000000
0
LINE
8
0
10
141.514974
20
192.502252
30
0.0
11
141.514974
21
194.452793
31
0.0
0
ARC
8
0
10
141.714974
20
194.452793
30
0.0
40
0.200000
50
60.000000
51
180.000000
0
LINE
8
0
10
141.814974
20
194.625998
30
0.0
11
143.345359
21
193.742430
31
0.0
0
ARC
8
0
10
143.495359
20
194.002238
30
0.0
40
0.300000
50
240.000000
51
270.000000
0
LINE
8
0
10
143.495359
20
193.702238
30
0.0
11
143.714974
21
193.702238
31
0.0
0
ARC
8
0
10
143.714974
20
194.002238
30
0.0
40
0.300000
50
270.000000
51
0.000000
0
LINE
8
0
10
144.014974
20
194.002238
30
0.0
11
144.014974
21
198.036552
31
0.0
0
ARC
8
0
10
143.914974
20
198.319395
30
0.0
40
0.300000
50
289.471221
51
70.528779
0
LINE
8
0
10
144.014974
20
198.602238
30
0.0
11
143.976692
21
198.602238
31
0.0
0
ARC
8
0
10
143.976692
20
198.002238
30
0.0
40
0.600000
50
90.000000
51
122.401721
0
LINE
8
0
10
143.655181
20
198.508825
30
0.0
11
141.947084
21
197.424762
31
0.0
0
LINE
8
0
10
141.947084
20
197.424762
30
0.0
11
141.959181
21
197.136340
31
0.0
0
ARC
8
0
10
141.759357
20
197.127959
30
0.0
40
0.200000
50
242.401721
51
0.000000
0
LINE
8
0
10
141.666703
20
196.950716
30
0.0
11
141.385633
21
197.097645
31
0.0
0
ARC
8
0
10
141.756248
20
197.806619
30
0.0
40
0.800000
50
197.401721
51
242.401721
0
LINE
8
0
10
140.992863
20
197.567363
30
0.0
11
140.390899
21
199.488032
31
0.0
0
ARC
8
0
10
140.677168
20
199.577753
30
0.0
40
0.300000
50
90.000000
51
197.401721
0
LINE
8
0
10
140.677168
20
199.877753
30
0.0
11
142.228262
21
199.877753
31
0.0
0
ARC
8
0
10
142.229665
20
199.677758
30
0.0
40
0.200000
50
29.632658
51
90.000000
0
ARC
8
0
10
142.664271
20
199.924976
30
0.0
40
0.300000
50
209.632658
51
287.401721
0
LINE
8
0
10
142.753992
20
199.638707
30
0.0
11
143.716300
21
199.892357
31
0.0
0
LINE
8
0
10
143.792764
20
199.902265
30
0.0
11
143.716300
21
199.892357
31
0.0
0
LINE
8
0
10
143.792764
20
199.902265
30
0.0
11
145.364974
21
199.902265
31
0.0
0
LINE
8
0
10
154.215232
20
160.402238
30
0.0
11
145.815723
21
160.402238
31
0.0
0
ARC
8
0
10
145.815723
20
160.702238
30
0.0
40
0.300000
50
180.000000
51
270.000000
0
LINE
8
0
10
145.515723
20
160.702238
30
0.0
11
145.515723
21
189.902238
31
0.0
0
ARC
8
0
10
145.815723
20
189.902238
30
0.0
40
0.300000
50
90.000000
51
180.000000
0
LINE
8
0
10
145.815723
20
190.202238
30
0.0
11
147.215723
21
190.202238
31
0.0
0
ARC
8
0
10
147.215723
20
190.502238
30
0.0
40
0.300000
50
270.000000
51
0.000000
0
LINE
8
0
10
147.515723
20
190.502238
30
0.0
11
147.515723
21
191.902265
31
0.0
0
LINE
8
0
10
147.515723
20
191.902265
30
0.0
11
152.515232
21
191.902265
31
0.0
0
LINE
8
0
10
152.515232
20
191.902265
30
0.0
11
152.515232
21
190.502238
31
0.0
0
ARC
8
0
10
152.815232
20
190.502238
30
0.0
40
0.300000
50
180.000000
51
270.000000
0
LINE
8
0
10
152.815232
20
190.202238
30
0.0
11
154.215232
21
190.202238
31
0.0
0
ARC
8
0
10
154.215232
20
189.902238
30
0.0
40
0.300000
50
0.000000
51
90.000000
0
LINE
8
0
10
154.515232
20
189.902238
30
0.0
11
154.515232
21
160.702238
31
0.0
0
ARC
8
0
10
154.215232
20
160.702238
30
0.0
40
0.300000
50
270.000000
51
0.000000
0
ARC
8
0
10
122.902975
20
198.002265
30
0.0
40
1.200000
50
240.018361
51
270.000000
0
LINE
8
0
10
122.902975
20
196.802265
30
0.0
11
122.965038
21
196.802265
31
0.0
0
ARC
8
0
10
122.965038
20
197.302265
30
0.0
40
0.500000
50
270.000000
51
342.598279
0
LINE
8
0
10
123.442154
20
197.152731
30
0.0
11
124.371057
21
199.704872
31
0.0
0
ARC
8
0
10
124.652965
20
199.602265
30
0.0
40
0.300000
50
90.000000
51
160.000000
0
LINE
8
0
10
124.652965
20
199.902265
30
0.0
11
139.376986
21
199.902265
31
0.0
0
ARC
8
0
10
139.376986
20
199.602265
30
0.0
40
0.300000
50
20.000000
51
90.000000
0
LINE
8
0
10
139.658893
20
199.704872
30
0.0
11
140.587797
21
197.152731
31
0.0
0
ARC
8
0
10
141.064912
20
197.302265
30
0.0
40
0.500000
50
197.401721
51
270.000000
0
LINE
8
0
10
141.064912
20
196.802265
30
0.0
11
141.126976
21
196.802265
31
0.0
0
ARC
8
0
10
141.126976
20
198.002265
30
0.0
40
1.200000
50
270.000000
51
299.981639
0
LINE
8
0
10
141.726643
20
196.962843
30
0.0
11
143.308586
21
197.875503
31
0.0
0
ARC
8
0
10
143.408531
20
197.702265
30
0.0
40
0.200000
50
90.000000
51
119.981639
0
LINE
8
0
10
143.408531
20
197.902265
30
0.0
11
143.614975
21
197.902265
31
0.0
0
ARC
8
0
10
143.614975
20
197.502265
30
0.0
40
0.400000
50
0.000000
51
90.000000
0
LINE
8
0
10
144.014975
20
197.502265
30
0.0
11
144.014975
21
197.075471
31
0.0
0
ARC
8
0
10
143.814975
20
197.075471
30
0.0
40
0.200000
50
300.000000
51
0.000000
0
LINE
8
0
10
143.914975
20
196.902265
30
0.0
11
143.914975
21
196.527265
31
0.0
0
ARC
8
0
10
143.714975
20
196.527265
30
0.0
40
0.200000
50
270.000000
51
0.000000
0
LINE
8
0
10
143.714975
20
196.327265
30
0.0
11
143.603169
21
196.327265
31
0.0
0
LINE
8
0
10
143.518621
20
196.346015
30
0.0
11
143.603169
21
196.327265
31
0.0
0
ARC
8
0
10
143.264975
20
195.802265
30
0.0
40
0.600000
50
64.992167
51
180.000000
0
ARC
8
0
10
143.264975
20
195.802265
30
0.0
40
0.600000
50
180.000000
51
295.007833
0
LINE
8
0
10
143.603169
20
195.277265
30
0.0
11
143.518621
21
195.258515
31
0.0
0
LINE
8
0
10
143.603169
20
195.277265
30
0.0
11
143.714975
21
195.277265
31
0.0
0
ARC
8
0
10
143.714975
20
195.077265
30
0.0
40
0.200000
50
0.000000
51
90.000000
0
LINE
8
0
10
143.914975
20
195.077265
30
0.0
11
143.914975
21
194.702265
31
0.0
0
ARC
8
0
10
143.814975
20
194.529060
30
0.0
40
0.200000
50
0.000000
51
60.000000
0
LINE
8
0
10
144.014975
20
194.529060
30
0.0
11
144.014975
21
194.102265
31
0.0
0
ARC
8
0
10
143.614975
20
194.102265
30
0.0
40
0.400000
50
270.000000
51
0.000000
0
LINE
8
0
10
143.614975
20
193.702265
30
0.0
11
143.408531
21
193.702265
31
0.0
0
ARC
8
0
10
143.408531
20
193.902265
30
0.0
40
0.200000
50
240.018361
51
270.000000
0
LINE
8
0
10
143.308586
20
193.729028
30
0.0
11
141.726643
21
194.641688
31
0.0
0
ARC
8
0
10
141.126976
20
193.602265
30
0.0
40
1.200000
50
60.018361
51
90.000000
0
LINE
8
0
10
141.126976
20
194.802265
30
0.0
11
140.015148
21
194.802265
31
0.0
0
ARC
8
0
10
140.015148
20
195.802265
30
0.0
40
1.000000
50
200.000000
51
270.000000
0
LINE
8
0
10
139.075456
20
195.460245
30
0.0
11
138.364824
21
197.412690
31
0.0
0
ARC
8
0
10
137.237193
20
197.002265
30
0.0
40
1.200000
50
20.000000
51
90.000000
0
LINE
8
0
10
137.237193
20
198.202265
30
0.0
11
134.114969
21
198.202265
31
0.0
0
ARC
8
0
10
134.114969
20
197.702265
30
0.0
40
0.500000
50
90.000000
51
180.000000
0
LINE
8
0
10
133.614969
20
197.702265
30
0.0
11
133.614969
21
178.502265
31
0.0
0
ARC
8
0
10
133.314969
20
178.502265
30
0.0
40
0.300000
50
270.000000
51
0.000000
0
LINE
8
0
10
133.314969
20
178.202265
30
0.0
11
132.814969
21
178.202265
31
0.0
0
ARC
8
0
10
132.814969
20
178.502265
30
0.0
40
0.300000
50
180.000000
51
270.000000
0
LINE
8
0
10
132.514969
20
178.502265
30
0.0
11
132.514969
21
197.702265
31
0.0
0
ARC
8
0
10
132.014969
20
197.702265
30
0.0
40
0.500000
50
0.000000
51
90.000000
0
LINE
8
0
10
132.014969
20
198.202265
30
0.0
11
126.792758
21
198.202265
31
0.0
0
ARC
8
0
10
126.792758
20
197.002265
30
0.0
40
1.200000
50
90.000000
51
160.000000
0
LINE
8
0
10
125.665127
20
197.412690
30
0.0
11
124.954495
21
195.460245
31
0.0
0
ARC
8
0
10
124.014802
20
195.802265
30
0.0
40
1.000000
50
270.000000
51
340.000000
0
LINE
8
0
10
124.014802
20
194.802265
30
0.0
11
122.902975
21
194.802265
31
0.0
0
ARC
8
0
10
122.902975
20
193.602265
30
0.0
40
1.200000
50
90.000000
51
119.981639
0
LINE
8
0
10
122.303308
20
194.641688
30
0.0
11
120.721364
21
193.729028
31
0.0
0
ARC
8
0
10
120.621420
20
193.902265
30
0.0
40
0.200000
50
270.000000
51
299.981639
0
LINE
8
0
10
120.621420
20
193.702265
30
0.0
11
120.414975
21
193.702265
31
0.0
0
ARC
8
0
10
120.414975
20
194.102265
30
0.0
40
0.400000
50
180.000000
51
270.000000
0
LINE
8
0
10
120.014975
20
194.102265
30
0.0
11
120.014975
21
194.529060
31
0.0
0
ARC
8
0
10
120.214975
20
194.529060
30
0.0
40
0.200000
50
120.000000
51
180.000000
0
LINE
8
0
10
120.114975
20
194.702265
30
0.0
11
120.114975
21
195.077265
31
0.0
0
ARC
8
0
10
120.314975
20
195.077265
30
0.0
40
0.200000
50
90.000000
51
180.000000
0
LINE
8
0
10
120.314975
20
195.277265
30
0.0
11
120.426782
21
195.277265
31
0.0
0
LINE
8
0
10
120.511330
20
195.258515
30
0.0
11
120.426782
21
195.277265
31
0.0
0
ARC
8
0
10
120.764975
20
195.802265
30
0.0
40
0.600000
50
244.992167
51
0.000000
0
ARC
8
0
10
120.764975
20
195.802265
30
0.0
40
0.600000
50
0.000000
51
115.007833
0
LINE
8
0
10
120.426782
20
196.327265
30
0.0
11
120.511330
21
196.346015
31
0.0
0
LINE
8
0
10
120.426782
20
196.327265
30
0.0
11
120.314975
21
196.327265
31
0.0
0
ARC
8
0
10
120.314975
20
196.527265
30
0.0
40
0.200000
50
180.000000
51
270.000000
0
LINE
8
0
10
120.114975
20
196.527265
30
0.0
11
120.114975
21
196.902265
31
0.0
0
ARC
8
0
10
120.214975
20
197.075471
30
0.0
40
0.200000
50
180.000000
51
240.000000
0
LINE
8
0
10
120.014975
20
197.075471
30
0.0
11
120.014975
21
197.502265
31
0.0
0
ARC
8
0
10
120.414975
20
197.502265
30
0.0
40
0.400000
50
90.000000
51
180.000000
0
LINE
8
0
10
120.414975
20
197.902265
30
0.0
11
120.621420
21
197.902265
31
0.0
0
ARC
8
0
10
120.621420
20
197.702265
30
0.0
40
0.200000
50
60.018361
51
90.000000
0
LINE
8
0
10
120.721364
20
197.875503
30
0.0
11
122.303308
21
196.962843
31
0.0
0
ARC
8
0
10
141.126976
20
159.267295
30
0.0
40
1.200000
50
60.018361
51
90.000000
0
LINE
8
0
10
141.126976
20
160.467295
30
0.0
11
141.064912
21
160.467295
31
0.0
0
ARC
8
0
10
141.064912
20
159.967295
30
0.0
40
0.500000
50
90.000000
51
162.598279
0
LINE
8
0
10
140.587797
20
160.116829
30
0.0
11
139.658893
21
157.564689
31
0.0
0
ARC
8
0
10
139.376986
20
157.667295
30
0.0
40
0.300000
50
270.000000
51
340.000000
0
LINE
8
0
10
139.376986
20
157.367295
30
0.0
11
124.652965
21
157.367295
31
0.0
0
ARC
8
0
10
124.652965
20
157.667295
30
0.0
40
0.300000
50
200.000000
51
270.000000
0
LINE
8
0
10
124.371057
20
157.564689
30
0.0
11
123.442154
21
160.116829
31
0.0
0
ARC
8
0
10
122.965038
20
159.967295
30
0.0
40
0.500000
50
17.401721
51
90.000000
0
LINE
8
0
10
122.965038
20
160.467295
30
0.0
11
122.902975
21
160.467295
31
0.0
0
ARC
8
0
10
122.902975
20
159.267295
30
0.0
40
1.200000
50
90.000000
51
119.981639
0
LINE
8
0
10
122.303308
20
160.306717
30
0.0
11
120.721364
21
159.394058
31
0.0
0
ARC
8
0
10
120.621420
20
159.567295
30
0.0
40
0.200000
50
270.000000
51
299.981639
0
LINE
8
0
10
120.621420
20
159.367295
30
0.0
11
120.414975
21
159.367295
31
0.0
0
ARC
8
0
10
120.414975
20
159.767295
30
0.0
40
0.400000
50
180.000000
51
270.000000
0
LINE
8
0
10
120.014975
20
159.767295
30
0.0
11
120.014975
21
160.194090
31
0.0
0
ARC
8
0
10
120.214975
20
160.194090
30
0.0
40
0.200000
50
120.000000
51
180.000000
0
LINE
8
0
10
120.114975
20
160.367295
30
0.0
11
120.114975
21
160.742295
31
0.0
0
ARC
8
0
10
120.314975
20
160.742295
30
0.0
40
0.200000
50
90.000000
51
180.000000
0
LINE
8
0
10
120.314975
20
160.942295
30
0.0
11
120.426782
21
160.942295
31
0.0
0
LINE
8
0
10
120.511330
20
160.923545
30
0.0
11
120.426782
21
160.942295
31
0.0
0
ARC
8
0
10
120.764975
20
161.467295
30
0.0
40
0.600000
50
244.992167
51
0.000000
0
ARC
8
0
10
120.764975
20
161.467295
30
0.0
40
0.600000
50
0.000000
51
115.007833
0
LINE
8
0
10
120.426782
20
161.992295
30
0.0
11
120.511330
21
162.011045
31
0.0
0
LINE
8
0
10
120.426782
20
161.992295
30
0.0
11
120.314975
21
161.992295
31
0.0
0
ARC
8
0
10
120.314975
20
162.192295
30
0.0
40
0.200000
50
180.000000
51
270.000000
0
LINE
8
0
10
120.114975
20
162.192295
30
0.0
11
120.114975
21
162.567295
31
0.0
0
ARC
8
0
10
120.214975
20
162.740500
30
0.0
40
0.200000
50
180.000000
51
240.000000
0
LINE
8
0
10
120.014975
20
162.740500
30
0.0
11
120.014975
21
163.167295
31
0.0
0
ARC
8
0
10
120.414975
20
163.167295
30
0.0
40
0.400000
50
90.000000
51
180.000000
0
LINE
8
0
10
120.414975
20
163.567295
30
0.0
11
120.621420
21
163.567295
31
0.0
0
ARC
8
0
10
120.621420
20
163.367295
30
0.0
40
0.200000
50
60.018361
51
90.000000
0
LINE
8
0
10
120.721364
20
163.540532
30
0.0
11
122.303308
21
162.627872
31
0.0
0
ARC
8
0
10
122.902975
20
163.667295
30
0.0
40
1.200000
50
240.018361
51
270.000000
0
LINE
8
0
10
122.902975
20
162.467295
30
0.0
11
124.014802
21
162.467295
31
0.0
0
ARC
8
0
10
124.014802
20
161.467295
30
0.0
40
1.000000
50
20.000000
51
90.000000
0
LINE
8
0
10
124.954495
20
161.809315
30
0.0
11
125.665127
21
159.856871
31
0.0
0
ARC
8
0
10
126.792758
20
160.267295
30
0.0
40
1.200000
50
200.000000
51
270.000000
0
LINE
8
0
10
126.792758
20
159.067295
30
0.0
11
129.914981
21
159.067295
31
0.0
0
ARC
8
0
10
129.914981
20
159.567295
30
0.0
40
0.500000
50
270.000000
51
0.000000
0
LINE
8
0
10
130.414981
20
159.567295
30
0.0
11
130.414981
21
178.767295
31
0.0
0
ARC
8
0
10
130.714981
20
178.767295
30
0.0
40
0.300000
50
90.000000
51
180.000000
0
LINE
8
0
10
130.714981
20
179.067295
30
0.0
11
131.214981
21
179.067295
31
0.0
0
ARC
8
0
10
131.214981
20
178.767295
30
0.0
40
0.300000
50
0.000000
51
90.000000
0
LINE
8
0
10
131.514981
20
178.767295
30
0.0
11
131.514981
21
159.567295
31
0.0
0
ARC
8
0
10
132.014981
20
159.567295
30
0.0
40
0.500000
50
180.000000
51
270.000000
0
LINE
8
0
10
132.014981
20
159.067295
30
0.0
11
137.237193
21
159.067295
31
0.0
0
ARC
8
0
10
137.237193
20
160.267295
30
0.0
40
1.200000
50
270.000000
51
340.000000
0
LINE
8
0
10
138.364824
20
159.856871
30
0.0
11
139.075456
21
161.809315
31
0.0
0
ARC
8
0
10
140.015148
20
161.467295
30
0.0
40
1.000000
50
90.000000
51
160.000000
0
LINE
8
0
10
140.015148
20
162.467295
30
0.0
11
141.126976
21
162.467295
31
0.0
0
ARC
8
0
10
141.126976
20
163.667295
30
0.0
40
1.200000
50
270.000000
51
299.981639
0
LINE
8
0
10
141.726643
20
162.627872
30
0.0
11
143.308586
21
163.540532
31
0.0
0
ARC
8
0
10
143.408531
20
163.367295
30
0.0
40
0.200000
50
90.000000
51
119.981639
0
LINE
8
0
10
143.408531
20
163.567295
30
0.0
11
143.614975
21
163.567295
31
0.0
0
ARC
8
0
10
143.614975
20
163.167295
30
0.0
40
0.400000
50
0.000000
51
90.000000
0
LINE
8
0
10
144.014975
20
163.167295
30
0.0
11
144.014975
21
162.740500
31
0.0
0
ARC
8
0
10
143.814975
20
162.740500
30
0.0
40
0.200000
50
300.000000
51
0.000000
0
LINE
8
0
10
143.914975
20
162.567295
30
0.0
11
143.914975
21
162.192295
31
0.0
0
ARC
8
0
10
143.714975
20
162.192295
30
0.0
40
0.200000
50
270.000000
51
0.000000
0
LINE
8
0
10
143.714975
20
161.992295
30
0.0
11
143.603169
21
161.992295
31
0.0
0
LINE
8
0
10
143.518621
20
162.011045
30
0.0
11
143.603169
21
161.992295
31
0.0
0
ARC
8
0
10
143.264975
20
161.467295
30
0.0
40
0.600000
50
64.992167
51
180.000000
0
ARC
8
0
10
143.264975
20
161.467295
30
0.0
40
0.600000
50
180.000000
51
295.007833
0
LINE
8
0
10
143.603169
20
160.942295
30
0.0
11
143.518621
21
160.923545
31
0.0
0
LINE
8
0
10
143.603169
20
160.942295
30
0.0
11
143.714975
21
160.942295
31
0.0
0
ARC
8
0
10
143.714975
20
160.742295
30
0.0
40
0.200000
50
0.000000
51
90.000000
0
LINE
8
0
10
143.914975
20
160.742295
30
0.0
11
143.914975
21
160.367295
31
0.0
0
ARC
8
0
10
143.814975
20
160.194090
30
0.0
40
0.200000
50
0.000000
51
60.000000
0
LINE
8
0
10
144.014975
20
160.194090
30
0.0
11
144.014975
21
159.767295
31
0.0
0
ARC
8
0
10
143.614975
20
159.767295
30
0.0
40
0.400000
50
270.000000
51
0.000000
0
LINE
8
0
10
143.614975
20
159.367295
30
0.0
11
143.408531
21
159.367295
31
0.0
0
ARC
8
0
10
143.408531
20
159.567295
30
0.0
40
0.200000
50
240.018361
51
270.000000
0
LINE
8
0
10
143.308586
20
159.394058
30
0.0
11
141.726643
21
160.306717
31
0.0
0
LINE
8
0
10
122.214975
20
162.678505
30
0.0
11
120.684590
21
163.562073
31
0.0
0
ARC
8
0
10
120.534590
20
163.302265
30
0.0
40
0.300000
50
60.000000
51
90.000000
0
LINE
8
0
10
120.534590
20
163.602265
30
0.0
11
120.314975
21
163.602265
31
0.0
0
ARC
8
0
10
120.314975
20
163.302265
30
0.0
40
0.300000
50
90.000000
51
180.000000
0
LINE
8
0
10
120.014975
20
163.302265
30
0.0
11
120.014975
21
159.267951
31
0.0
0
ARC
8
0
10
120.114975
20
158.985108
30
0.0
40
0.300000
50
109.471221
51
250.528779
0
LINE
8
0
10
120.014975
20
158.702265
30
0.0
11
120.053257
21
158.702265
31
0.0
0
ARC
8
0
10
120.053257
20
159.302265
30
0.0
40
0.600000
50
270.000000
51
302.401721
0
LINE
8
0
10
120.374768
20
158.795678
30
0.0
11
122.082865
21
159.879742
31
0.0
0
LINE
8
0
10
122.082865
20
159.879742
30
0.0
11
122.070768
21
160.168163
31
0.0
0
ARC
8
0
10
122.270592
20
160.176544
30
0.0
40
0.200000
50
62.401721
51
180.000000
0
LINE
8
0
10
122.363246
20
160.353788
30
0.0
11
122.644317
21
160.206859
31
0.0
0
ARC
8
0
10
122.273701
20
159.497885
30
0.0
40
0.800000
50
17.401721
51
62.401721
0
LINE
8
0
10
123.037086
20
159.737140
30
0.0
11
123.639051
21
157.816471
31
0.0
0
ARC
8
0
10
123.352781
20
157.726750
30
0.0
40
0.300000
50
270.000000
51
17.401721
0
LINE
8
0
10
123.352781
20
157.426750
30
0.0
11
121.801687
21
157.426750
31
0.0
0
ARC
8
0
10
121.800285
20
157.626746
30
0.0
40
0.200000
50
209.632658
51
270.000000
0
ARC
8
0
10
121.365678
20
157.379527
30
0.0
40
0.300000
50
29.632658
51
107.401721
0
LINE
8
0
10
121.275957
20
157.665796
30
0.0
11
120.313754
21
157.412174
31
0.0
0
LINE
8
0
10
120.237290
20
157.402265
30
0.0
11
120.313754
21
157.412174
31
0.0
0
LINE
8
0
10
120.237290
20
157.402265
30
0.0
11
118.714975
21
157.402265
31
0.0
0
ARC
8
0
10
118.714975
20
157.702265
30
0.0
40
0.300000
50
180.000000
51
270.000000
0
LINE
8
0
10
118.414975
20
157.702265
30
0.0
11
118.414975
21
158.703376
31
0.0
0
ARC
8
0
10
118.114975
20
158.703376
30
0.0
40
0.300000
50
0.000000
51
90.000000
0
LINE
8
0
10
118.114975
20
159.003376
30
0.0
11
107.114975
21
159.003376
31
0.0
0
ARC
8
0
10
107.114975
20
158.703376
30
0.0
40
0.300000
50
90.000000
51
180.000000
0
LINE
8
0
10
106.814975
20
158.703376
30
0.0
11
106.814975
21
152.702265
31
0.0
0
ARC
8
0
10
106.514975
20
152.702265
30
0.0
40
0.300000
50
270.000000
51
0.000000
0
LINE
8
0
10
106.514975
20
152.402265
30
0.0
11
104.065531
21
152.402265
31
0.0
0
ARC
8
0
10
104.065531
20
152.702265
30
0.0
40
0.300000
50
210.000000
51
270.000000
0
LINE
8
0
10
103.805723
20
152.552265
30
0.0
11
103.355168
21
153.332650
31
0.0
0
ARC
8
0
10
103.614975
20
153.482650
30
0.0
40
0.300000
50
180.000000
51
210.000000
0
LINE
8
0
10
103.314975
20
153.482650
30
0.0
11
103.314975
21
153.602265
31
0.0
0
ARC
8
0
10
103.614975
20
153.602265
30
0.0
40
0.300000
50
90.000000
51
180.000000
0
LINE
8
0
10
103.614975
20
153.902265
30
0.0
11
105.014975
21
153.902265
31
0.0
0
ARC
8
0
10
105.014975
20
154.202265
30
0.0
40
0.300000
50
270.000000
51
0.000000
0
LINE
8
0
10
105.314975
20
154.202265
30
0.0
11
105.314975
21
158.703376
31
0.0
0
ARC
8
0
10
105.014975
20
158.703376
30
0.0
40
0.300000
50
0.000000
51
90.000000
0
LINE
8
0
10
105.014975
20
159.003376
30
0.0
11
98.314975
21
159.003376
31
0.0
0
LINE
8
0
10
98.314975
20
159.003376
30
0.0
11
98.014975
21
159.303376
31
0.0
0
LINE
8
0
10
98.014975
20
159.303376
30
0.0
11
97.714975
21
159.003376
31
0.0
0
LINE
8
0
10
97.714975
20
159.003376
30
0.0
11
91.314975
21
159.003376
31
0.0
0
ARC
8
0
10
91.314975
20
158.503376
30
0.0
40
0.500000
50
90.000000
51
180.000000
0
LINE
8
0
10
90.814975
20
158.503376
30
0.0
11
90.814975
21
149.002265
31
0.0
0
ARC
8
0
10
91.114975
20
149.002265
30
0.0
40
0.300000
50
180.000000
51
270.000000
0
LINE
8
0
10
91.114975
20
148.702265
30
0.0
11
92.714975
21
148.702265
31
0.0
0
ARC
8
0
10
92.714975
20
148.402265
30
0.0
40
0.300000
50
0.000000
51
90.000000
0
LINE
8
0
10
93.014975
20
148.402265
30
0.0
11
93.014975
21
146.302265
31
0.0
0
ARC
8
0
10
92.714975
20
146.302265
30
0.0
40
0.300000
50
270.000000
51
0.000000
0
LINE
8
0
10
92.714975
20
146.002265
30
0.0
11
92.314975
21
146.002265
31
0.0
0
ARC
8
0
10
92.314975
20
146.302265
30
0.0
40
0.300000
50
180.000000
51
270.000000
0
LINE
8
0
10
92.014975
20
146.302265
30
0.0
11
92.014975
21
147.202265
31
0.0
0
ARC
8
0
10
91.714975
20
147.202265
30
0.0
40
0.300000
50
0.000000
51
90.000000
0
LINE
8
0
10
91.714975
20
147.502265
30
0.0
11
90.814975
21
147.502265
31
0.0
0
ARC
8
0
10
90.814975
20
147.202265
30
0.0
40
0.300000
50
90.000000
51
180.000000
0
LINE
8
0
10
90.514975
20
147.202265
30
0.0
11
90.514975
21
128.602265
31
0.0
0
ARC
8
0
10
90.814975
20
128.602265
30
0.0
40
0.300000
50
180.000000
51
270.000000
0
LINE
8
0
10
90.814975
20
128.302265
30
0.0
11
91.714975
21
128.302265
31
0.0
0
ARC
8
0
10
91.714975
20
128.602265
30
0.0
40
0.300000
50
270.000000
51
0.000000
0
LINE
8
0
10
92.014975
20
128.602265
30
0.0
11
92.014975
21
129.502265
31
0.0
0
ARC
8
0
10
92.314975
20
129.502265
30
0.0
40
0.300000
50
90.000000
51
180.000000
0
LINE
8
0
10
92.314975
20
129.802265
30
0.0
11
93.014975
21
129.802265
31
0.0
0
ARC
8
0
10
93.014975
20
129.502265
30
0.0
40
0.300000
50
0.000000
51
90.000000
0
LINE
8
0
10
93.314975
20
129.502265
30
0.0
11
93.314975
21
126.002265
31
0.0
0
ARC
8
0
10
93.014975
20
126.002265
30
0.0
40
0.300000
50
270.000000
51
0.000000
0
LINE
8
0
10
93.014975
20
125.702265
30
0.0
11
92.614975
21
125.702265
31
0.0
0
ARC
8
0
10
92.614975
20
126.002265
30
0.0
40
0.300000
50
180.000000
51
270.000000
0
LINE
8
0
10
92.314975
20
126.002265
30
0.0
11
92.314975
21
126.802265
31
0.0
0
ARC
8
0
10
92.014975
20
126.802265
30
0.0
40
0.300000
50
0.000000
51
90.000000
0
LINE
8
0
10
92.014975
20
127.102265
30
0.0
11
90.814975
21
127.102265
31
0.0
0
ARC
8
0
10
90.814975
20
126.802265
30
0.0
40
0.300000
50
90.000000
51
180.000000
0
LINE
8
0
10
90.514975
20
126.802265
30
0.0
11
90.514975
21
121.902265
31
0.0
0
ARC
8
0
10
90.814975
20
121.902265
30
0.0
40
0.300000
50
180.000000
51
270.000000
0
LINE
8
0
10
90.814975
20
121.602265
30
0.0
11
92.014975
21
121.602265
31
0.0
0
ARC
8
0
10
92.014975
20
121.902265
30
0.0
40
0.300000
50
270.000000
51
0.000000
0
LINE
8
0
10
92.314975
20
121.902265
30
0.0
11
92.314975
21
122.702265
31
0.0
0
ARC
8
0
10
92.614975
20
122.702265
30
0.0
40
0.300000
50
90.000000
51
180.000000
0
LINE
8
0
10
92.614975
20
123.002265
30
0.0
11
93.014975
21
123.002265
31
0.0
0
ARC
8
0
10
93.014975
20
122.702265
30
0.0
40
0.300000
50
0.000000
51
90.000000
0
LINE
8
0
10
93.314975
20
122.702265
30
0.0
11
93.314975
21
120.702265
31
0.0
0
ARC
8
0
10
93.014975
20
120.702265
30
0.0
40
0.300000
50
270.000000
51
0.000000
0
LINE
8
0
10
93.014975
20
120.402265
30
0.0
11
89.714975
21
120.402265
31
0.0
0
ARC
8
0
10
89.714975
20
121.102265
30
0.0
40
0.700000
50
180.000000
51
270.000000
0
LINE
8
0
10
89.014975
20
121.102265
30
0.0
11
89.014975
21
217.902265
31
0.0
0
ARC
8
0
10
89.514975
20
217.902265
30
0.0
40
0.500000
50
90.000000
51
180.000000
0
LINE
8
0
10
89.514975
20
218.402265
30
0.0
11
93.214975
21
218.402265
31
0.0
0
ARC
8
0
10
93.214975
20
218.102265
30
0.0
40
0.300000
50
0.000000
51
90.000000
0
LINE
8
0
10
93.514975
20
218.102265
30
0.0
11
93.514975
21
216.602265
31
0.0
0
ARC
8
0
10
92.814975
20
216.602265
30
0.0
40
0.700000
50
270.000000
51
0.000000
0
ARC
8
0
10
92.814975
20
216.202265
30
0.0
40
0.300000
50
180.000000
51
270.000000
0
LINE
8
0
10
92.514975
20
216.202265
30
0.0
11
92.514975
21
216.902265
31
0.0
0
ARC
8
0
10
92.214975
20
216.902265
30
0.0
40
0.300000
50
0.000000
51
90.000000
0
LINE
8
0
10
92.214975
20
217.202265
30
0.0
11
91.014975
21
217.202265
31
0.0
0
ARC
8
0
10
91.014975
20
216.502265
30
0.0
40
0.700000
50
90.000000
51
180.000000
0
LINE
8
0
10
90.314975
20
216.502265
30
0.0
11
90.314975
21
210.302265
31
0.0
0
ARC
8
0
10
91.014975
20
210.302265
30
0.0
40
0.700000
50
180.000000
51
270.000000
0
LINE
8
0
10
91.014975
20
209.602265
30
0.0
11
92.214975
21
209.602265
31
0.0
0
ARC
8
0
10
92.214975
20
209.902265
30
0.0
40
0.300000
50
270.000000
51
0.000000
0
LINE
8
0
10
92.514975
20
209.902265
30
0.0
11
92.514975
21
210.602265
31
0.0
0
ARC
8
0
10
92.814975
20
210.602265
30
0.0
40
0.300000
50
90.000000
51
180.000000
0
ARC
8
0
10
92.814975
20
210.202265
30
0.0
40
0.700000
50
0.000000
51
90.000000
0
LINE
8
0
10
93.514975
20
210.202265
30
0.0
11
93.514975
21
208.702265
31
0.0
0
ARC
8
0
10
93.214975
20
208.702265
30
0.0
40
0.300000
50
270.000000
51
0.000000
0
LINE
8
0
10
93.214975
20
208.402265
30
0.0
11
91.114975
21
208.402265
31
0.0
0
ARC
8
0
10
91.114975
20
208.102265
30
0.0
40
0.300000
50
90.000000
51
180.000000
0
LINE
8
0
10
90.814975
20
208.102265
30
0.0
11
90.814975
21
200.902265
31
0.0
0
ARC
8
0
10
91.814975
20
200.902265
30
0.0
40
1.000000
50
180.000000
51
270.000000
0
LINE
8
0
10
91.814975
20
199.902265
30
0.0
11
120.237290
21
199.902265
31
0.0
0
LINE
8
0
10
120.313754
20
199.892357
30
0.0
11
120.237290
21
199.902265
31
0.0
0
LINE
8
0
10
120.313754
20
199.892357
30
0.0
11
121.275957
21
199.638735
31
0.0
0
ARC
8
0
10
121.365678
20
199.925004
30
0.0
40
0.300000
50
252.598279
51
330.367342
0
ARC
8
0
10
121.800285
20
199.677785
30
0.0
40
0.200000
50
90.000000
51
150.367342
0
LINE
8
0
10
121.801687
20
199.877780
30
0.0
11
123.352781
21
199.877780
31
0.0
0
ARC
8
0
10
123.352781
20
199.577780
30
0.0
40
0.300000
50
342.598279
51
90.000000
0
LINE
8
0
10
123.639051
20
199.488060
30
0.0
11
123.037086
21
197.567391
31
0.0
0
ARC
8
0
10
122.273701
20
197.806646
30
0.0
40
0.800000
50
297.598279
51
342.598279
0
LINE
8
0
10
122.644317
20
197.097672
30
0.0
11
122.363246
21
196.950743
31
0.0
0
ARC
8
0
10
122.270592
20
197.127987
30
0.0
40
0.200000
50
180.000000
51
297.598279
0
LINE
8
0
10
122.070768
20
197.136368
30
0.0
11
122.082865
21
197.424789
31
0.0
0
LINE
8
0
10
122.082865
20
197.424789
30
0.0
11
120.374768
21
198.508853
31
0.0
0
ARC
8
0
10
120.053257
20
198.002265
30
0.0
40
0.600000
50
57.598279
51
90.000000
0
LINE
8
0
10
120.053257
20
198.602265
30
0.0
11
120.014975
21
198.602265
31
0.0
0
ARC
8
0
10
120.114975
20
198.319423
30
0.0
40
0.300000
50
109.471221
51
250.528779
0
LINE
8
0
10
120.014975
20
198.036580
30
0.0
11
120.014975
21
194.002265
31
0.0
0
ARC
8
0
10
120.314975
20
194.002265
30
0.0
40
0.300000
50
180.000000
51
270.000000
0
LINE
8
0
10
120.314975
20
193.702265
30
0.0
11
120.534590
21
193.702265
31
0.0
0
ARC
8
0
10
120.534590
20
194.002265
30
0.0
40
0.300000
50
270.000000
51
300.000000
0
LINE
8
0
10
120.684590
20
193.742458
30
0.0
11
122.214975
21
194.626026
31
0.0
0
ARC
8
0
10
122.314975
20
194.452821
30
0.0
40
0.200000
50
0.000000
51
120.000000
0
LINE
8
0
10
122.514975
20
194.452821
30
0.0
11
122.514975
21
192.502279
31
0.0
0
ARC
8
0
10
122.814975
20
192.502279
30
0.0
40
0.300000
50
180.000000
51
270.000000
0
LINE
8
0
10
122.814975
20
192.202279
30
0.0
11
124.214975
21
192.202279
31
0.0
0
ARC
8
0
10
124.214975
20
191.902279
30
0.0
40
0.300000
50
0.000000
51
90.000000
0
LINE
8
0
10
124.514975
20
191.902279
30
0.0
11
124.514975
21
191.002279
31
0.0
0
ARC
8
0
10
124.214975
20
191.002279
30
0.0
40
0.300000
50
270.000000
51
0.000000
0
LINE
8
0
10
124.214975
20
190.702279
30
0.0
11
120.314975
21
190.702279
31
0.0
0
ARC
8
0
10
120.314975
20
190.402279
30
0.0
40
0.300000
50
90.000000
51
180.000000
0
LINE
8
0
10
120.014975
20
190.402279
30
0.0
11
120.014975
21
166.604487
31
0.0
0
ARC
8
0
10
121.014975
20
166.604487
30
0.0
40
1.000000
50
180.000000
51
240.000000
0
LINE
8
0
10
120.514975
20
165.738461
30
0.0
11
122.014975
21
164.872436
31
0.0
0
ARC
8
0
10
121.514975
20
164.006411
30
0.0
40
1.000000
50
0.000000
51
60.000000
0
LINE
8
0
10
122.514975
20
164.006411
30
0.0
11
122.514975
21
162.851710
31
0.0
0
ARC
8
0
10
122.314975
20
162.851710
30
0.0
40
0.200000
50
240.000000
51
0.000000
0
LINE
8
0
10
91.114975
20
198.102265
30
0.0
11
118.114975
21
198.102265
31
0.0
0
ARC
8
0
10
118.114975
20
197.802265
30
0.0
40
0.300000
50
0.000000
51
90.000000
0
LINE
8
0
10
118.414975
20
197.802265
30
0.0
11
118.414975
21
193.529131
31
0.0
0
ARC
8
0
10
118.114975
20
193.529131
30
0.0
40
0.300000
50
285.000000
51
0.000000
0
LINE
8
0
10
118.192621
20
193.239354
30
0.0
11
116.137330
21
192.688640
31
0.0
0
ARC
8
0
10
116.214975
20
192.398862
30
0.0
40
0.300000
50
105.000000
51
180.000000
0
LINE
8
0
10
115.914975
20
192.398862
30
0.0
11
115.914975
21
191.902265
31
0.0
0
ARC
8
0
10
116.214975
20
191.902265
30
0.0
40
0.300000
50
180.000000
51
270.000000
0
LINE
8
0
10
116.214975
20
191.602265
30
0.0
11
118.114975
21
191.602265
31
0.0
0
ARC
8
0
10
118.114975
20
191.302265
30
0.0
40
0.300000
50
0.000000
51
90.000000
0
LINE
8
0
10
118.414975
20
191.302265
30
0.0
11
118.414975
21
161.102265
31
0.0
0
ARC
8
0
10
118.114975
20
161.102265
30
0.0
40
0.300000
50
270.000000
51
0.000000
0
LINE
8
0
10
118.114975
20
160.802265
30
0.0
11
91.114975
21
160.802265
31
0.0
0
ARC
8
0
10
91.114975
20
161.102265
30
0.0
40
0.300000
50
180.000000
51
270.000000
0
LINE
8
0
10
90.814975
20
161.102265
30
0.0
11
90.814975
21
191.302265
31
0.0
0
ARC
8
0
10
91.114975
20
191.302265
30
0.0
40
0.300000
50
90.000000
51
180.000000
0
LINE
8
0
10
91.114975
20
191.602265
30
0.0
11
93.014975
21
191.602265
31
0.0
0
ARC
8
0
10
93.014975
20
191.902265
30
0.0
40
0.300000
50
270.000000
51
0.000000
0
LINE
8
0
10
93.314975
20
191.902265
30
0.0
11
93.314975
21
192.345272
31
0.0
0
ARC
8
0
10
93.014975
20
192.345272
30
0.0
40
0.300000
50
0.000000
51
75.000000
0
LINE
8
0
10
93.092621
20
192.635050
30
0.0
11
91.037330
21
193.185764
31
0.0
0
ARC
8
0
10
91.114975
20
193.475542
30
0.0
40
0.300000
50
180.000000
51
255.000000
0
LINE
8
0
10
90.814975
20
193.475542
30
0.0
11
90.814975
21
197.802265
31
0.0
0
ARC
8
0
10
91.114975
20
197.802265
30
0.0
40
0.300000
50
90.000000
51
180.000000
0
ATTDEF
8
0
10
120.237290
20
199.902265
30
0.0
40
3.5
1

3

2
VC_START
70
0
0
ATTDEF
8
0
10
105.290253
20
152.402265
30
0.0
40
3.5
1

3

2
VC_END
70
0
0
ATTDEF
8
0
10
89.014975
20
120.402265
30
0.0
40
3.5
1

3

2
DESC:Telaio T per porta apertura esterna
70
0
0
ATTDEF
8
0
10
89.014975
20
120.402265
30
0.0
40
3.5
1

3

2
DENS:1.940000
70
0
0
ATTDEF
8
0
10
89.014975
20
120.402265
30
0.0
40
3.5
1

3

2
TDEV:0.000000
70
0
0
ATTDEF
8
0
10
89.014975
20
120.402265
30
0.0
40
3.5
1

3

2
TDEV2:0.000000
70
0
0
ATTDEF
8
0
10
89.014975
20
120.402265
30
0.0
40
3.5
1

3

2
TDEV3:0.000000
70
0
0
ATTDEF
8
0
10
89.014975
20
120.402265
30
0.0
40
3.5
1

3

2
TDEV4:0.000000
70
0
0
ATTDEF
8
0
10
89.014975
20
120.402265
30
0.0
40
3.5
1

3

2
TDEV5:0.000000
70
0
0
ATTDEF
8
0
10
89.014975
20
120.402265
30
0.0
40
3.5
1

3

2
FRONT_VIEW
70
0
0
ATTDEF
8
0
10
89.014975
20
120.402265
30
0.0
40
3.5
1

3

2
BL01:6800.000000,,1
70
0
0
ATTDEF
8
0
10
89.014975
20
120.402265
30
0.0
40
3.5
1

3

2
OPTI:500.000000,1,0,3000.000000,6500.000000,500.000000,0,0.000000,0
70
0
0
ATTDEF
8
0
10
89.014975
20
120.402265
30
0.0
40
3.5
1

3

2
PANE_WIDTH:0.000000
70
0
0
ATTDEF
8
0
10
89.014975
20
120.402265
30
0.0
40
3.5
1

3

2
GLASS_MIN:0.000000
70
0
0
ATTDEF
8
0
10
89.014975
20
120.402265
30
0.0
40
3.5
1

3

2
GLASS_MAX:0.000000
70
0
0
ATTDEF
8
0
10
89.014975
20
120.402265
30
0.0
40
3.5
1

3

2
JX:0.000000
70
0
0
ATTDEF
8
0
10
89.014975
20
120.402265
30
0.0
40
3.5
1

3

2
WX:0.000000
70
0
0
ATTDEF
8
0
10
89.014975
20
120.402265
30
0.0
40
3.5
1

3

2
JY:0.000000
70
0
0
ATTDEF
8
0
10
89.014975
20
120.402265
30
0.0
40
3.5
1

3

2
WY:0.000000
70
0
0
ATTDEF
8
0
10
89.014975
20
120.402265
30
0.0
40
3.5
1

3

2
FP_LCS_ORIG
70
0
0
ATTDEF
8
0
10
99.014975
20
120.402265
30
0.0
40
3.5
1

3

2
FP_LCS_HOT
70
0
0
ATTDEF
8
0
10
89.014975
20
130.402265
30
0.0
40
3.5
1

3

2
FP_LCS_INTERN
70
0
0
ENDSEC
0
EOF
