0
SECTION
2
ENTITIES
0
ARC
8
0
10
205.963153
20
167.164615
30
0.0
40
0.300000
50
289.471221
51
87.528779
0
LINE
8
0
10
206.063153
20
166.881772
30
0.0
11
206.063153
21
162.847457
31
0.0
0
ARC
8
0
10
205.763153
20
162.847457
30
0.0
40
0.300000
50
270.000000
51
0.000000
0
LINE
8
0
10
205.763153
20
162.547457
30
0.0
11
205.543538
21
162.547457
31
0.0
0
ARC
8
0
10
205.543538
20
162.847457
30
0.0
40
0.300000
50
240.000000
51
270.000000
0
LINE
8
0
10
205.393538
20
162.587650
30
0.0
11
203.863153
21
163.471218
31
0.0
0
ARC
8
0
10
203.763153
20
163.298013
30
0.0
40
0.200000
50
60.000000
51
180.000000
0
LINE
8
0
10
203.563153
20
163.298013
30
0.0
11
203.563153
21
162.143312
31
0.0
0
ARC
8
0
10
204.563153
20
162.143312
30
0.0
40
1.000000
50
180.000000
51
239.999999
0
LINE
8
0
10
204.063153
20
161.277287
30
0.0
11
205.512895
21
160.440278
31
0.0
0
ARC
8
0
10
205.112895
20
159.747457
30
0.0
40
0.800000
50
299.999999
51
59.999999
0
LINE
8
0
10
205.512895
20
159.054637
30
0.0
11
204.063153
21
158.217628
31
0.0
0
ARC
8
0
10
204.563153
20
157.351603
30
0.0
40
1.000000
50
119.999999
51
180.000000
0
LINE
8
0
10
203.563153
20
157.351603
30
0.0
11
203.563153
21
156.196902
31
0.0
0
ARC
8
0
10
203.763153
20
156.196902
30
0.0
40
0.200000
50
180.000000
51
300.000000
0
LINE
8
0
10
203.863153
20
156.023697
30
0.0
11
205.393538
21
156.907265
31
0.0
0
ARC
8
0
10
205.543538
20
156.647457
30
0.0
40
0.300000
50
90.000000
51
120.000000
0
LINE
8
0
10
205.543538
20
156.947457
30
0.0
11
205.763153
21
156.947457
31
0.0
0
ARC
8
0
10
205.763153
20
156.647457
30
0.0
40
0.300000
50
0.000000
51
90.000000
0
LINE
8
0
10
206.063153
20
156.647457
30
0.0
11
206.063153
21
152.613143
31
0.0
0
ARC
8
0
10
205.963153
20
152.330300
30
0.0
40
0.300000
50
272.471221
51
70.528779
0
LINE
8
0
10
205.976088
20
152.030579
30
0.0
11
205.689197
21
152.118291
31
0.0
0
LINE
8
0
10
205.689197
20
152.118291
30
0.0
11
203.817290
21
153.287988
31
0.0
0
LINE
8
0
10
203.817290
20
153.287988
30
0.0
11
203.827364
21
153.576487
31
0.0
0
ARC
8
0
10
203.627486
20
153.583467
30
0.0
40
0.200000
50
0.000000
51
118.000000
0
LINE
8
0
10
203.533592
20
153.760057
30
0.0
11
203.253558
21
153.611160
31
0.0
0
ARC
8
0
10
203.629136
20
152.904802
30
0.0
40
0.800000
50
118.000000
51
163.000000
0
LINE
8
0
10
202.864092
20
153.138700
30
0.0
11
202.278936
21
151.224740
31
0.0
0
ARC
8
0
10
202.565827
20
151.137029
30
0.0
40
0.300000
50
163.000000
51
270.000000
0
LINE
8
0
10
202.565827
20
150.837029
30
0.0
11
204.115659
21
150.837029
31
0.0
0
ARC
8
0
10
204.115659
20
151.037029
30
0.0
40
0.200000
50
270.000000
51
330.769063
0
ARC
8
0
10
204.551989
20
150.792863
30
0.0
40
0.300000
50
73.000000
51
150.769063
0
LINE
8
0
10
204.639700
20
151.062598
30
0.0
11
205.726596
21
150.730300
31
0.0
0
LINE
8
0
10
205.726596
20
150.730300
30
0.0
11
207.563153
21
150.730300
31
0.0
0
ARC
8
0
10
207.563153
20
151.230300
30
0.0
40
0.500000
50
270.000000
51
0.000000
0
LINE
8
0
10
208.063153
20
151.247457
30
0.0
11
208.063153
21
174.708926
31
0.0
0
ARC
8
0
10
207.563153
20
174.708926
30
0.0
40
0.500000
50
0.000000
51
160.000000
0
LINE
8
0
10
207.093307
20
174.879936
30
0.0
11
205.681245
21
171.000329
31
0.0
0
ARC
8
0
10
205.963153
20
170.897723
30
0.0
40
0.300000
50
160.000000
51
255.000000
0
LINE
8
0
10
205.885507
20
170.607946
30
0.0
11
206.640799
21
170.405566
31
0.0
0
ARC
8
0
10
206.563153
20
170.115788
30
0.0
40
0.300000
50
0.000000
51
75.000000
0
LINE
8
0
10
206.863153
20
170.115788
30
0.0
11
206.863153
21
169.047457
31
0.0
0
ARC
8
0
10
206.563153
20
169.047457
30
0.0
40
0.300000
50
270.000000
51
0.000000
0
LINE
8
0
10
206.563153
20
168.747457
30
0.0
11
205.726596
21
168.747457
31
0.0
0
LINE
8
0
10
205.726596
20
168.747457
30
0.0
11
204.639700
21
168.415160
31
0.0
0
ARC
8
0
10
204.551989
20
168.702052
30
0.0
40
0.300000
50
209.230937
51
287.000000
0
ARC
8
0
10
204.115659
20
168.457886
30
0.0
40
0.200000
50
29.230937
51
90.000000
0
LINE
8
0
10
204.115659
20
168.657886
30
0.0
11
202.565827
21
168.657886
31
0.0
0
ARC
8
0
10
202.565827
20
168.357886
30
0.0
40
0.300000
50
90.000000
51
197.000000
0
LINE
8
0
10
202.278936
20
168.270175
30
0.0
11
202.864092
21
166.356215
31
0.0
0
ARC
8
0
10
203.629136
20
166.590112
30
0.0
40
0.800000
50
197.000000
51
242.000000
0
LINE
8
0
10
203.253558
20
165.883754
30
0.0
11
203.533592
21
165.734858
31
0.0
0
ARC
8
0
10
203.627486
20
165.911448
30
0.0
40
0.200000
50
242.000000
51
0.000000
0
LINE
8
0
10
203.827364
20
165.918427
30
0.0
11
203.817290
21
166.206927
31
0.0
0
LINE
8
0
10
203.817290
20
166.206927
30
0.0
11
205.689197
21
167.376624
31
0.0
0
LINE
8
0
10
205.689197
20
167.376624
30
0.0
11
205.976088
21
167.464336
31
0.0
0
LINE
8
0
10
181.105902
20
153.630300
30
0.0
11
181.051153
21
153.630300
31
0.0
0
ARC
8
0
10
181.051153
20
152.430300
30
0.0
40
1.200000
50
90.000000
51
119.981639
0
LINE
8
0
10
180.451486
20
153.469723
30
0.0
11
178.823153
21
152.530300
31
0.0
0
LINE
8
0
10
178.823153
20
152.530300
30
0.0
11
178.263153
21
152.530300
31
0.0
0
ARC
8
0
10
178.263153
20
152.730300
30
0.0
40
0.200000
50
180.000000
51
270.000000
0
LINE
8
0
10
178.063153
20
152.730300
30
0.0
11
178.063153
21
156.530300
31
0.0
0
ARC
8
0
10
178.263153
20
156.530300
30
0.0
40
0.200000
50
90.000000
51
180.000000
0
LINE
8
0
10
178.263153
20
156.730300
30
0.0
11
178.769597
21
156.730300
31
0.0
0
ARC
8
0
10
178.769597
20
156.530300
30
0.0
40
0.200000
50
60.018361
51
90.000000
0
LINE
8
0
10
178.869542
20
156.703537
30
0.0
11
180.451486
21
155.790877
31
0.0
0
ARC
8
0
10
181.051153
20
156.830300
30
0.0
40
1.200000
50
240.018361
51
270.000000
0
LINE
8
0
10
181.051153
20
155.630300
30
0.0
11
182.016172
21
155.630300
31
0.0
0
ARC
8
0
10
182.016172
20
154.630300
30
0.0
40
1.000000
50
20.000000
51
90.000000
0
LINE
8
0
10
182.955865
20
154.972320
30
0.0
11
183.748893
21
152.793492
31
0.0
0
ARC
8
0
10
184.124770
20
152.930300
30
0.0
40
0.400000
50
200.000000
51
270.000000
0
LINE
8
0
10
184.124770
20
152.530300
30
0.0
11
200.001536
21
152.530300
31
0.0
0
ARC
8
0
10
200.001536
20
152.930300
30
0.0
40
0.400000
50
270.000000
51
340.000000
0
LINE
8
0
10
200.377413
20
152.793492
30
0.0
11
201.170441
21
154.972320
31
0.0
0
ARC
8
0
10
202.110134
20
154.630300
30
0.0
40
1.000000
50
90.000000
51
160.000000
0
LINE
8
0
10
202.110134
20
155.630300
30
0.0
11
203.075153
21
155.630300
31
0.0
0
ARC
8
0
10
203.075153
20
156.830300
30
0.0
40
1.200000
50
270.000000
51
299.981639
0
LINE
8
0
10
203.674820
20
155.790877
30
0.0
11
205.256764
21
156.703537
31
0.0
0
ARC
8
0
10
205.356708
20
156.530300
30
0.0
40
0.200000
50
90.000000
51
119.981639
0
LINE
8
0
10
205.356708
20
156.730300
30
0.0
11
205.863153
21
156.730300
31
0.0
0
ARC
8
0
10
205.863153
20
156.530300
30
0.0
40
0.200000
50
0.000000
51
90.000000
0
LINE
8
0
10
206.063153
20
156.530300
30
0.0
11
206.063153
21
152.730300
31
0.0
0
ARC
8
0
10
205.863153
20
152.730300
30
0.0
40
0.200000
50
270.000000
51
0.000000
0
LINE
8
0
10
205.863153
20
152.530300
30
0.0
11
205.303153
21
152.530300
31
0.0
0
LINE
8
0
10
205.303153
20
152.530300
30
0.0
11
203.674820
21
153.469723
31
0.0
0
ARC
8
0
10
203.075153
20
152.430300
30
0.0
40
1.200000
50
60.018361
51
90.000000
0
LINE
8
0
10
203.075153
20
153.630300
30
0.0
11
203.020404
21
153.630300
31
0.0
0
ARC
8
0
10
203.020404
20
153.330300
30
0.0
40
0.300000
50
90.000000
51
160.000000
0
LINE
8
0
10
202.738496
20
153.432906
30
0.0
11
201.850622
21
150.993492
31
0.0
0
ARC
8
0
10
201.474745
20
151.130300
30
0.0
40
0.400000
50
270.000000
51
340.000000
0
LINE
8
0
10
201.474745
20
150.730300
30
0.0
11
182.651561
21
150.730300
31
0.0
0
ARC
8
0
10
182.651561
20
151.130300
30
0.0
40
0.400000
50
200.000000
51
270.000000
0
LINE
8
0
10
182.275684
20
150.993492
30
0.0
11
181.387810
21
153.432906
31
0.0
0
ARC
8
0
10
181.105902
20
153.330300
30
0.0
40
0.300000
50
20.000000
51
90.000000
0
LINE
8
0
10
181.105902
20
165.864615
30
0.0
11
181.051153
21
165.864615
31
0.0
0
ARC
8
0
10
181.051153
20
167.064615
30
0.0
40
1.200000
50
240.018361
51
270.000000
0
LINE
8
0
10
180.451486
20
166.025192
30
0.0
11
178.823153
21
166.964615
31
0.0
0
LINE
8
0
10
178.823153
20
166.964615
30
0.0
11
178.263153
21
166.964615
31
0.0
0
ARC
8
0
10
178.263153
20
166.764615
30
0.0
40
0.200000
50
90.000000
51
180.000000
0
LINE
8
0
10
178.063153
20
166.764615
30
0.0
11
178.063153
21
162.964615
31
0.0
0
ARC
8
0
10
178.263153
20
162.964615
30
0.0
40
0.200000
50
180.000000
51
270.000000
0
LINE
8
0
10
178.263153
20
162.764615
30
0.0
11
178.769597
21
162.764615
31
0.0
0
ARC
8
0
10
178.769597
20
162.964615
30
0.0
40
0.200000
50
270.000000
51
299.981639
0
LINE
8
0
10
178.869542
20
162.791377
30
0.0
11
180.451486
21
163.704037
31
0.0
0
ARC
8
0
10
181.051153
20
162.664615
30
0.0
40
1.200000
50
90.000000
51
119.981639
0
LINE
8
0
10
181.051153
20
163.864615
30
0.0
11
182.016172
21
163.864615
31
0.0
0
ARC
8
0
10
182.016172
20
164.864615
30
0.0
40
1.000000
50
270.000000
51
340.000000
0
LINE
8
0
10
182.955865
20
164.522594
30
0.0
11
183.748893
21
166.701423
31
0.0
0
ARC
8
0
10
184.124770
20
166.564615
30
0.0
40
0.400000
50
90.000000
51
160.000000
0
LINE
8
0
10
184.124770
20
166.964615
30
0.0
11
200.001536
21
166.964615
31
0.0
0
ARC
8
0
10
200.001536
20
166.564615
30
0.0
40
0.400000
50
20.000000
51
90.000000
0
LINE
8
0
10
200.377413
20
166.701423
30
0.0
11
201.170441
21
164.522594
31
0.0
0
ARC
8
0
10
202.110134
20
164.864615
30
0.0
40
1.000000
50
200.000000
51
270.000000
0
LINE
8
0
10
202.110134
20
163.864615
30
0.0
11
203.075153
21
163.864615
31
0.0
0
ARC
8
0
10
203.075153
20
162.664615
30
0.0
40
1.200000
50
60.018361
51
90.000000
0
LINE
8
0
10
203.674820
20
163.704037
30
0.0
11
205.256764
21
162.791377
31
0.0
0
ARC
8
0
10
205.356708
20
162.964615
30
0.0
40
0.200000
50
240.018361
51
270.000000
0
LINE
8
0
10
205.356708
20
162.764615
30
0.0
11
205.863153
21
162.764615
31
0.0
0
ARC
8
0
10
205.863153
20
162.964615
30
0.0
40
0.200000
50
270.000000
51
0.000000
0
LINE
8
0
10
206.063153
20
162.964615
30
0.0
11
206.063153
21
166.764615
31
0.0
0
ARC
8
0
10
205.863153
20
166.764615
30
0.0
40
0.200000
50
0.000000
51
90.000000
0
LINE
8
0
10
205.863153
20
166.964615
30
0.0
11
205.303153
21
166.964615
31
0.0
0
LINE
8
0
10
205.303153
20
166.964615
30
0.0
11
203.674820
21
166.025192
31
0.0
0
ARC
8
0
10
203.075153
20
167.064615
30
0.0
40
1.200000
50
270.000000
51
299.981639
0
LINE
8
0
10
203.075153
20
165.864615
30
0.0
11
203.020404
21
165.864615
31
0.0
0
ARC
8
0
10
203.020404
20
166.164615
30
0.0
40
0.300000
50
200.000000
51
270.000000
0
LINE
8
0
10
202.738496
20
166.062009
30
0.0
11
201.850622
21
168.501423
31
0.0
0
ARC
8
0
10
201.474745
20
168.364615
30
0.0
40
0.400000
50
20.000000
51
90.000000
0
LINE
8
0
10
201.474745
20
168.764615
30
0.0
11
182.651561
21
168.764615
31
0.0
0
ARC
8
0
10
182.651561
20
168.364615
30
0.0
40
0.400000
50
90.000000
51
160.000000
0
LINE
8
0
10
182.275684
20
168.501423
30
0.0
11
181.387810
21
166.062009
31
0.0
0
ARC
8
0
10
181.105902
20
166.164615
30
0.0
40
0.300000
50
270.000000
51
340.000000
0
ARC
8
0
10
178.363153
20
169.047457
30
0.0
40
0.300000
50
180.000000
51
253.000000
0
LINE
8
0
10
178.275441
20
168.760566
30
0.0
11
178.881024
21
168.614380
31
0.0
0
LINE
8
0
10
178.881024
20
168.614380
30
0.0
11
179.486606
21
168.468194
31
0.0
0
ARC
8
0
10
179.574317
20
168.755086
30
0.0
40
0.300000
50
253.000000
51
330.769063
0
ARC
8
0
10
180.010646
20
168.510920
30
0.0
40
0.200000
50
90.000000
51
150.769063
0
LINE
8
0
10
180.010646
20
168.710920
30
0.0
11
181.560479
21
168.710920
31
0.0
0
ARC
8
0
10
181.560479
20
168.410920
30
0.0
40
0.300000
50
343.000000
51
90.000000
0
LINE
8
0
10
181.847370
20
168.323209
30
0.0
11
181.262214
21
166.409249
31
0.0
0
ARC
8
0
10
180.497170
20
166.643147
30
0.0
40
0.800000
50
298.000000
51
343.000000
0
LINE
8
0
10
180.872747
20
165.936789
30
0.0
11
180.592714
21
165.787892
31
0.0
0
ARC
8
0
10
180.498820
20
165.964482
30
0.0
40
0.200000
50
180.000000
51
298.000000
0
LINE
8
0
10
180.298942
20
165.971462
30
0.0
11
180.309016
21
166.259961
31
0.0
0
LINE
8
0
10
180.309016
20
166.259961
30
0.0
11
178.437109
21
167.376624
31
0.0
0
LINE
8
0
10
178.437109
20
167.376624
30
0.0
11
178.150218
21
167.464336
31
0.0
0
ARC
8
0
10
178.163153
20
167.164615
30
0.0
40
0.300000
50
92.471219
51
250.528783
0
LINE
8
0
10
178.063153
20
166.881772
30
0.0
11
178.063153
21
162.847457
31
0.0
0
ARC
8
0
10
178.363153
20
162.847457
30
0.0
40
0.300000
50
180.000000
51
270.000000
0
LINE
8
0
10
178.363153
20
162.547457
30
0.0
11
178.582768
21
162.547457
31
0.0
0
ARC
8
0
10
178.582768
20
162.847457
30
0.0
40
0.300000
50
270.000000
51
300.000000
0
LINE
8
0
10
178.732768
20
162.587650
30
0.0
11
180.263153
21
163.521218
31
0.0
0
ARC
8
0
10
180.363153
20
163.348013
30
0.0
40
0.200000
50
0.000000
51
120.000000
0
LINE
8
0
10
180.563153
20
163.348013
30
0.0
11
180.563153
21
162.193312
31
0.0
0
ARC
8
0
10
179.563153
20
162.193312
30
0.0
40
1.000000
50
300.000000
51
0.000000
0
LINE
8
0
10
180.063153
20
161.327287
30
0.0
11
178.913411
21
160.613483
31
0.0
0
ARC
8
0
10
179.413411
20
159.747457
30
0.0
40
1.000000
50
120.000000
51
240.000000
0
LINE
8
0
10
178.913411
20
158.881432
30
0.0
11
180.063153
21
158.167628
31
0.0
0
ARC
8
0
10
179.563153
20
157.301603
30
0.0
40
1.000000
50
0.000000
51
60.000000
0
LINE
8
0
10
180.563153
20
157.301603
30
0.0
11
180.563153
21
156.146902
31
0.0
0
ARC
8
0
10
180.363153
20
156.146902
30
0.0
40
0.200000
50
240.000000
51
0.000000
0
LINE
8
0
10
180.263153
20
155.973697
30
0.0
11
178.732768
21
156.907265
31
0.0
0
ARC
8
0
10
178.582768
20
156.647457
30
0.0
40
0.300000
50
60.000000
51
90.000000
0
LINE
8
0
10
178.582768
20
156.947457
30
0.0
11
178.363153
21
156.947457
31
0.0
0
ARC
8
0
10
178.363153
20
156.647457
30
0.0
40
0.300000
50
90.000000
51
180.000000
0
LINE
8
0
10
178.063153
20
156.647457
30
0.0
11
178.063153
21
152.613143
31
0.0
0
ARC
8
0
10
178.163153
20
152.330300
30
0.0
40
0.300000
50
109.471221
51
267.528779
0
LINE
8
0
10
178.150218
20
152.030579
30
0.0
11
178.437109
21
152.118291
31
0.0
0
LINE
8
0
10
178.437109
20
152.118291
30
0.0
11
180.309016
21
153.287988
31
0.0
0
LINE
8
0
10
180.309016
20
153.287988
30
0.0
11
180.298942
21
153.576487
31
0.0
0
ARC
8
0
10
180.498820
20
153.583467
30
0.0
40
0.200000
50
62.000000
51
180.000000
0
LINE
8
0
10
180.592714
20
153.760057
30
0.0
11
180.872747
21
153.611160
31
0.0
0
ARC
8
0
10
180.497170
20
152.904802
30
0.0
40
0.800000
50
17.000000
51
62.000000
0
LINE
8
0
10
181.262214
20
153.138700
30
0.0
11
181.847370
21
151.207583
31
0.0
0
ARC
8
0
10
181.560479
20
151.119872
30
0.0
40
0.300000
50
270.000000
51
17.000000
0
LINE
8
0
10
181.560479
20
150.819872
30
0.0
11
180.010646
21
150.819872
31
0.0
0
ARC
8
0
10
180.010646
20
151.019872
30
0.0
40
0.200000
50
209.230937
51
270.000000
0
ARC
8
0
10
179.574317
20
150.775706
30
0.0
40
0.300000
50
29.230937
51
107.000000
0
LINE
8
0
10
179.486606
20
151.062598
30
0.0
11
178.399710
21
150.730300
31
0.0
0
LINE
8
0
10
178.399710
20
150.730300
30
0.0
11
176.563153
21
150.730300
31
0.0
0
ARC
8
0
10
176.563153
20
151.230300
30
0.0
40
0.500000
50
180.000000
51
270.000000
0
LINE
8
0
10
176.063153
20
151.230300
30
0.0
11
176.063153
21
173.348568
31
0.0
0
ARC
8
0
10
175.563153
20
173.348568
30
0.0
40
0.500000
50
0.000000
51
90.000000
0
LINE
8
0
10
175.563153
20
173.848568
30
0.0
11
171.961321
21
173.848568
31
0.0
0
LINE
8
0
10
171.961321
20
173.848568
30
0.0
11
171.662895
21
174.148568
31
0.0
0
LINE
8
0
10
171.662895
20
174.148568
30
0.0
11
171.364470
21
173.848568
31
0.0
0
LINE
8
0
10
171.364470
20
173.848568
30
0.0
11
167.462895
21
173.848568
31
0.0
0
ARC
8
0
10
167.462895
20
174.148568
30
0.0
40
0.300000
50
180.000000
51
270.000000
0
LINE
8
0
10
167.162895
20
174.148568
30
0.0
11
167.162895
21
175.048568
31
0.0
0
ARC
8
0
10
167.462895
20
175.048568
30
0.0
40
0.300000
50
90.000000
51
180.000000
0
LINE
8
0
10
167.462895
20
175.348568
30
0.0
11
177.563153
21
175.348568
31
0.0
0
ARC
8
0
10
177.563153
20
174.848568
30
0.0
40
0.500000
50
0.000000
51
90.000000
0
LINE
8
0
10
178.063153
20
174.848568
30
0.0
11
178.063153
21
169.047457
31
0.0
0
ATTDEF
8
0
10
201.474745
20
168.764615
30
0.0
40
3.5
1

3

2
VC_START
70
0
0
ATTDEF
8
0
10
201.474745
20
150.730300
30
0.0
40
3.5
1

3

2
VC_END
70
0
0
ATTDEF
8
0
10
208.063153
20
150.730300
30
0.0
40
3.5
1

3

2
DESC:Profilo di riporto per inserimento porte in facciata
70
0
0
ATTDEF
8
0
10
208.063153
20
150.730300
30
0.0
40
3.5
1

3

2
DENS:0.630000
70
0
0
ATTDEF
8
0
10
208.063153
20
150.730300
30
0.0
40
3.5
1

3

2
TDEV:0.000000
70
0
0
ATTDEF
8
0
10
208.063153
20
150.730300
30
0.0
40
3.5
1

3

2
TDEV2:0.000000
70
0
0
ATTDEF
8
0
10
208.063153
20
150.730300
30
0.0
40
3.5
1

3

2
TDEV3:0.000000
70
0
0
ATTDEF
8
0
10
208.063153
20
150.730300
30
0.0
40
3.5
1

3

2
TDEV4:0.000000
70
0
0
ATTDEF
8
0
10
208.063153
20
150.730300
30
0.0
40
3.5
1

3

2
TDEV5:0.000000
70
0
0
ATTDEF
8
0
10
208.063153
20
150.730300
30
0.0
40
3.5
1

3

2
FRONT_VIEW
70
0
0
ATTDEF
8
0
10
208.063153
20
150.730300
30
0.0
40
3.5
1

3

2
BL01:6800.000000,,1
70
0
0
ATTDEF
8
0
10
208.063153
20
150.730300
30
0.0
40
3.5
1

3

2
OPTI:500.000000,1,0,3000.000000,6500.000000,500.000000,0,0.000000,0
70
0
0
ATTDEF
8
0
10
208.063153
20
150.730300
30
0.0
40
3.5
1

3

2
PANE_WIDTH:0.000000
70
0
0
ATTDEF
8
0
10
208.063153
20
150.730300
30
0.0
40
3.5
1

3

2
GLASS_MIN:0.000000
70
0
0
ATTDEF
8
0
10
208.063153
20
150.730300
30
0.0
40
3.5
1

3

2
GLASS_MAX:0.000000
70
0
0
ATTDEF
8
0
10
208.063153
20
150.730300
30
0.0
40
3.5
1

3

2
JX:0.000000
70
0
0
ATTDEF
8
0
10
208.063153
20
150.730300
30
0.0
40
3.5
1

3

2
WX:0.000000
70
0
0
ATTDEF
8
0
10
208.063153
20
150.730300
30
0.0
40
3.5
1

3

2
JY:0.000000
70
0
0
ATTDEF
8
0
10
208.063153
20
150.730300
30
0.0
40
3.5
1

3

2
WY:0.000000
70
0
0
ATTDEF
8
0
10
208.063153
20
150.730300
30
0.0
40
3.5
1

3

2
FP_LCS_ORIG
70
0
0
ATTDEF
8
0
10
198.063153
20
150.730300
30
0.0
40
3.5
1

3

2
FP_LCS_HOT
70
0
0
ATTDEF
8
0
10
208.063153
20
160.730300
30
0.0
40
3.5
1

3

2
FP_LCS_INTERN
70
0
0
ENDSEC
0
EOF
