0
SECTION
2
ENTITIES
0
ARC
8
0
10
160.807610
20
137.425590
30
0.0
40
0.300000
50
270.000000
51
0.000000
0
LINE
8
0
10
161.107610
20
137.425590
30
0.0
11
161.107610
21
137.922187
31
0.0
0
ARC
8
0
10
160.807610
20
137.922187
30
0.0
40
0.300000
50
0.000000
51
75.000000
0
LINE
8
0
10
160.885256
20
138.211965
30
0.0
11
158.829965
21
138.762679
31
0.0
0
ARC
8
0
10
158.907610
20
139.052456
30
0.0
40
0.300000
50
180.000000
51
255.000000
0
LINE
8
0
10
158.607610
20
139.052456
30
0.0
11
158.607610
21
143.325590
31
0.0
0
ARC
8
0
10
158.907610
20
143.325590
30
0.0
40
0.300000
50
90.000000
51
180.000000
0
LINE
8
0
10
158.907610
20
143.625590
30
0.0
11
177.157610
21
143.625590
31
0.0
0
ARC
8
0
10
177.157610
20
143.325590
30
0.0
40
0.300000
50
0.000000
51
90.000000
0
LINE
8
0
10
177.457610
20
143.325590
30
0.0
11
177.457610
21
137.425590
31
0.0
0
ARC
8
0
10
177.757610
20
137.425590
30
0.0
40
0.300000
50
180.000000
51
270.000000
0
LINE
8
0
10
177.757610
20
137.125590
30
0.0
11
185.907610
21
137.125590
31
0.0
0
ARC
8
0
10
185.907610
20
136.825590
30
0.0
40
0.300000
50
0.000000
51
90.000000
0
LINE
8
0
10
186.207610
20
136.825590
30
0.0
11
186.207610
21
106.625590
31
0.0
0
ARC
8
0
10
185.907610
20
106.625590
30
0.0
40
0.300000
50
270.000000
51
0.000000
0
LINE
8
0
10
185.907610
20
106.325590
30
0.0
11
158.907610
21
106.325590
31
0.0
0
ARC
8
0
10
158.907610
20
106.625590
30
0.0
40
0.300000
50
180.000000
51
270.000000
0
LINE
8
0
10
158.607610
20
106.625590
30
0.0
11
158.607610
21
136.825590
31
0.0
0
ARC
8
0
10
158.907610
20
136.825590
30
0.0
40
0.300000
50
90.000000
51
180.000000
0
LINE
8
0
10
158.907610
20
137.125590
30
0.0
11
160.807610
21
137.125590
31
0.0
0
ARC
8
0
10
129.806862
20
136.025590
30
0.0
40
0.300000
50
180.000000
51
270.000000
0
LINE
8
0
10
129.506862
20
136.025590
30
0.0
11
129.506862
21
136.925590
31
0.0
0
ARC
8
0
10
129.806862
20
136.925590
30
0.0
40
0.300000
50
90.000000
51
180.000000
0
LINE
8
0
10
129.806862
20
137.225590
30
0.0
11
131.206862
21
137.225590
31
0.0
0
ARC
8
0
10
131.206862
20
137.525590
30
0.0
40
0.300000
50
270.000000
51
0.000000
0
LINE
8
0
10
131.506862
20
137.525590
30
0.0
11
131.506862
21
143.625590
31
0.0
0
ARC
8
0
10
131.206862
20
143.625590
30
0.0
40
0.300000
50
0.000000
51
90.000000
0
LINE
8
0
10
131.206862
20
143.925590
30
0.0
11
122.807353
21
143.925590
31
0.0
0
ARC
8
0
10
122.807353
20
143.625590
30
0.0
40
0.300000
50
90.000000
51
180.000000
0
LINE
8
0
10
122.507353
20
143.625590
30
0.0
11
122.507353
21
137.525590
31
0.0
0
ARC
8
0
10
122.807353
20
137.525590
30
0.0
40
0.300000
50
180.000000
51
270.000000
0
LINE
8
0
10
122.807353
20
137.225590
30
0.0
11
124.207353
21
137.225590
31
0.0
0
ARC
8
0
10
124.207353
20
136.925590
30
0.0
40
0.300000
50
0.000000
51
90.000000
0
LINE
8
0
10
124.507353
20
136.925590
30
0.0
11
124.507353
21
136.025590
31
0.0
0
ARC
8
0
10
124.207353
20
136.025590
30
0.0
40
0.300000
50
270.000000
51
0.000000
0
LINE
8
0
10
124.207353
20
135.725590
30
0.0
11
122.807353
21
135.725590
31
0.0
0
ARC
8
0
10
122.807353
20
135.425590
30
0.0
40
0.300000
50
90.000000
51
180.000000
0
LINE
8
0
10
122.507353
20
135.425590
30
0.0
11
122.507353
21
106.225590
31
0.0
0
ARC
8
0
10
122.807353
20
106.225590
30
0.0
40
0.300000
50
180.000000
51
270.000000
0
LINE
8
0
10
122.807353
20
105.925590
30
0.0
11
131.206862
21
105.925590
31
0.0
0
ARC
8
0
10
131.206862
20
106.225590
30
0.0
40
0.300000
50
270.000000
51
0.000000
0
LINE
8
0
10
131.506862
20
106.225590
30
0.0
11
131.506862
21
135.425590
31
0.0
0
ARC
8
0
10
131.206862
20
135.425590
30
0.0
40
0.300000
50
0.000000
51
90.000000
0
LINE
8
0
10
131.206862
20
135.725590
30
0.0
11
129.806862
21
135.725590
31
0.0
0
ARC
8
0
10
135.307610
20
108.375035
30
0.0
40
0.200000
50
240.000000
51
0.000000
0
LINE
8
0
10
135.207610
20
108.201830
30
0.0
11
133.677226
21
109.085398
31
0.0
0
ARC
8
0
10
133.527226
20
108.825590
30
0.0
40
0.300000
50
60.000000
51
90.000000
0
LINE
8
0
10
133.527226
20
109.125590
30
0.0
11
133.307610
21
109.125590
31
0.0
0
ARC
8
0
10
133.307610
20
108.825590
30
0.0
40
0.300000
50
90.000000
51
180.000000
0
LINE
8
0
10
133.007610
20
108.825590
30
0.0
11
133.007610
21
104.791276
31
0.0
0
ARC
8
0
10
133.107610
20
104.508433
30
0.0
40
0.300000
50
109.471221
51
250.528779
0
LINE
8
0
10
133.007610
20
104.225590
30
0.0
11
133.045892
21
104.225590
31
0.0
0
ARC
8
0
10
133.045892
20
104.825590
30
0.0
40
0.600000
50
270.000000
51
302.401721
0
LINE
8
0
10
133.367403
20
104.319003
30
0.0
11
135.075500
21
105.403067
31
0.0
0
LINE
8
0
10
135.075500
20
105.403067
30
0.0
11
135.063403
21
105.691488
31
0.0
0
ARC
8
0
10
135.263228
20
105.699869
30
0.0
40
0.200000
50
62.401721
51
180.000000
0
LINE
8
0
10
135.355881
20
105.877113
30
0.0
11
135.636952
21
105.730183
31
0.0
0
ARC
8
0
10
135.266336
20
105.021209
30
0.0
40
0.800000
50
17.401721
51
62.401721
0
LINE
8
0
10
136.029721
20
105.260465
30
0.0
11
136.631686
21
103.339796
31
0.0
0
ARC
8
0
10
136.345416
20
103.250075
30
0.0
40
0.300000
50
270.000000
51
17.401721
0
LINE
8
0
10
136.345416
20
102.950075
30
0.0
11
134.794322
21
102.950075
31
0.0
0
ARC
8
0
10
134.792920
20
103.150070
30
0.0
40
0.200000
50
209.632658
51
270.000000
0
ARC
8
0
10
134.358313
20
102.902852
30
0.0
40
0.300000
50
29.632658
51
107.401721
0
LINE
8
0
10
134.268592
20
103.189121
30
0.0
11
133.231146
21
102.915666
31
0.0
0
ARC
8
0
10
133.307610
20
102.625574
30
0.0
40
0.300000
50
104.766462
51
180.000000
0
LINE
8
0
10
133.007610
20
102.625590
30
0.0
11
133.007369
21
98.225574
31
0.0
0
ARC
8
0
10
132.707369
20
98.225590
30
0.0
40
0.300000
50
270.000000
51
0.000000
0
LINE
8
0
10
132.707369
20
97.925590
30
0.0
11
131.007353
21
97.925590
31
0.0
0
ARC
8
0
10
131.007353
20
98.725590
30
0.0
40
0.800000
50
180.000000
51
270.000000
0
LINE
8
0
10
130.207353
20
98.725590
30
0.0
11
130.207353
21
98.825590
31
0.0
0
ARC
8
0
10
130.507353
20
98.825590
30
0.0
40
0.300000
50
90.000000
51
180.000000
0
LINE
8
0
10
130.507353
20
99.125590
30
0.0
11
131.211862
21
99.125590
31
0.0
0
ARC
8
0
10
131.211862
20
99.425590
30
0.0
40
0.300000
50
270.000000
51
0.000000
0
LINE
8
0
10
131.511862
20
99.425590
30
0.0
11
131.511862
21
101.925590
31
0.0
0
LINE
8
0
10
131.511862
20
101.925590
30
0.0
11
131.243573
21
104.161334
31
0.0
0
ARC
8
0
10
130.945709
20
104.125590
30
0.0
40
0.300000
50
6.842773
51
90.000000
0
LINE
8
0
10
130.945709
20
104.425590
30
0.0
11
122.807353
21
104.425590
31
0.0
0
ARC
8
0
10
122.807353
20
104.125590
30
0.0
40
0.300000
50
90.000000
51
180.000000
0
LINE
8
0
10
122.507353
20
104.125590
30
0.0
11
122.507353
21
99.425590
31
0.0
0
ARC
8
0
10
122.807353
20
99.425590
30
0.0
40
0.300000
50
180.000000
51
270.000000
0
LINE
8
0
10
122.807353
20
99.125590
30
0.0
11
123.507353
21
99.125590
31
0.0
0
ARC
8
0
10
123.507353
20
98.825590
30
0.0
40
0.300000
50
0.000000
51
90.000000
0
LINE
8
0
10
123.807353
20
98.825590
30
0.0
11
123.807353
21
98.725590
31
0.0
0
ARC
8
0
10
123.007353
20
98.725590
30
0.0
40
0.800000
50
270.000000
51
0.000000
0
LINE
8
0
10
123.007353
20
97.925590
30
0.0
11
121.307353
21
97.925590
31
0.0
0
ARC
8
0
10
121.307353
20
98.225590
30
0.0
40
0.300000
50
180.000000
51
270.000000
0
LINE
8
0
10
121.007353
20
98.225590
30
0.0
11
121.007353
21
163.427319
31
0.0
0
ARC
8
0
10
121.507353
20
163.427319
30
0.0
40
0.500000
50
90.000000
51
180.000000
0
LINE
8
0
10
121.507353
20
163.927319
30
0.0
11
125.207353
21
163.927319
31
0.0
0
ARC
8
0
10
125.207353
20
163.627319
30
0.0
40
0.300000
50
0.000000
51
90.000000
0
LINE
8
0
10
125.507353
20
163.627319
30
0.0
11
125.507353
21
162.127319
31
0.0
0
ARC
8
0
10
124.807353
20
162.127319
30
0.0
40
0.700000
50
270.000000
51
0.000000
0
ARC
8
0
10
124.807353
20
161.727319
30
0.0
40
0.300000
50
180.000000
51
270.000000
0
LINE
8
0
10
124.507353
20
161.727319
30
0.0
11
124.507353
21
162.427319
31
0.0
0
ARC
8
0
10
124.207353
20
162.427319
30
0.0
40
0.300000
50
0.000000
51
90.000000
0
LINE
8
0
10
124.207353
20
162.727319
30
0.0
11
123.007353
21
162.727319
31
0.0
0
ARC
8
0
10
123.007353
20
162.027319
30
0.0
40
0.700000
50
90.000000
51
180.000000
0
LINE
8
0
10
122.307353
20
162.027319
30
0.0
11
122.307353
21
155.827319
31
0.0
0
ARC
8
0
10
123.007353
20
155.827319
30
0.0
40
0.700000
50
180.000000
51
270.000000
0
LINE
8
0
10
123.007353
20
155.127319
30
0.0
11
124.207353
21
155.127319
31
0.0
0
ARC
8
0
10
124.207353
20
155.427319
30
0.0
40
0.300000
50
270.000000
51
0.000000
0
LINE
8
0
10
124.507353
20
155.427319
30
0.0
11
124.507353
21
156.127319
31
0.0
0
ARC
8
0
10
124.807353
20
156.127319
30
0.0
40
0.300000
50
90.000000
51
180.000000
0
ARC
8
0
10
124.807353
20
155.727319
30
0.0
40
0.700000
50
0.000000
51
90.000000
0
LINE
8
0
10
125.507353
20
155.727319
30
0.0
11
125.507353
21
154.227319
31
0.0
0
ARC
8
0
10
125.207353
20
154.227319
30
0.0
40
0.300000
50
270.000000
51
0.000000
0
LINE
8
0
10
125.207353
20
153.927319
30
0.0
11
123.007353
21
153.927319
31
0.0
0
ARC
8
0
10
123.007353
20
153.627319
30
0.0
40
0.300000
50
90.000000
51
180.000000
0
LINE
8
0
10
122.707353
20
153.627319
30
0.0
11
122.707353
21
146.425590
31
0.0
0
ARC
8
0
10
123.707353
20
146.425590
30
0.0
40
1.000000
50
180.000000
51
270.000000
0
LINE
8
0
10
123.707353
20
145.425590
30
0.0
11
133.229925
21
145.425590
31
0.0
0
LINE
8
0
10
133.306389
20
145.415682
30
0.0
11
133.229925
21
145.425590
31
0.0
0
LINE
8
0
10
133.306389
20
145.415682
30
0.0
11
134.268592
21
145.162060
31
0.0
0
ARC
8
0
10
134.358313
20
145.448329
30
0.0
40
0.300000
50
252.598279
51
330.367342
0
ARC
8
0
10
134.792920
20
145.201110
30
0.0
40
0.200000
50
90.000000
51
150.367342
0
LINE
8
0
10
134.794322
20
145.401105
30
0.0
11
136.345416
21
145.401105
31
0.0
0
ARC
8
0
10
136.345416
20
145.101105
30
0.0
40
0.300000
50
342.598279
51
90.000000
0
LINE
8
0
10
136.631686
20
145.011385
30
0.0
11
136.029721
21
143.090716
31
0.0
0
ARC
8
0
10
135.266336
20
143.329971
30
0.0
40
0.800000
50
297.598279
51
342.598279
0
LINE
8
0
10
135.636952
20
142.620997
30
0.0
11
135.355881
21
142.474068
31
0.0
0
ARC
8
0
10
135.263228
20
142.651312
30
0.0
40
0.200000
50
180.000000
51
297.598279
0
LINE
8
0
10
135.063403
20
142.659693
30
0.0
11
135.075500
21
142.948114
31
0.0
0
LINE
8
0
10
135.075500
20
142.948114
30
0.0
11
133.367403
21
144.032178
31
0.0
0
ARC
8
0
10
133.045892
20
143.525590
30
0.0
40
0.600000
50
57.598279
51
90.000000
0
LINE
8
0
10
133.045892
20
144.125590
30
0.0
11
133.007610
21
144.125590
31
0.0
0
ARC
8
0
10
133.107610
20
143.842748
30
0.0
40
0.300000
50
109.471221
51
250.528779
0
LINE
8
0
10
133.007610
20
143.559905
30
0.0
11
133.007610
21
139.525590
31
0.0
0
ARC
8
0
10
133.307610
20
139.525590
30
0.0
40
0.300000
50
180.000000
51
270.000000
0
LINE
8
0
10
133.307610
20
139.225590
30
0.0
11
133.527226
21
139.225590
31
0.0
0
ARC
8
0
10
133.527226
20
139.525590
30
0.0
40
0.300000
50
270.000000
51
300.000000
0
LINE
8
0
10
133.677226
20
139.265783
30
0.0
11
135.207610
21
140.149351
31
0.0
0
ARC
8
0
10
135.307610
20
139.976146
30
0.0
40
0.200000
50
0.000000
51
120.000000
0
LINE
8
0
10
135.507610
20
139.976146
30
0.0
11
135.507610
21
138.821445
31
0.0
0
ARC
8
0
10
134.507610
20
138.821445
30
0.0
40
1.000000
50
300.000001
51
0.000000
0
LINE
8
0
10
135.007610
20
137.955420
30
0.0
11
133.507610
21
137.089394
31
0.0
0
ARC
8
0
10
134.007610
20
136.223369
30
0.0
40
1.000000
50
120.000001
51
180.000000
0
LINE
8
0
10
133.007610
20
136.223369
30
0.0
11
133.007610
21
112.127812
31
0.0
0
ARC
8
0
10
134.007610
20
112.127812
30
0.0
40
1.000000
50
180.000000
51
240.000001
0
LINE
8
0
10
133.507610
20
111.261786
30
0.0
11
135.007610
21
110.395761
31
0.0
0
ARC
8
0
10
134.507610
20
109.529736
30
0.0
40
1.000000
50
0.000000
51
60.000001
0
LINE
8
0
10
135.507610
20
109.529736
30
0.0
11
135.507610
21
108.375035
31
0.0
0
ARC
8
0
10
154.119611
20
143.525590
30
0.0
40
1.200000
50
270.000000
51
299.981639
0
LINE
8
0
10
154.119611
20
142.325590
30
0.0
11
154.057548
21
142.325590
31
0.0
0
ARC
8
0
10
154.057548
20
142.825590
30
0.0
40
0.500000
50
197.401721
51
270.000000
0
LINE
8
0
10
153.580432
20
142.676056
30
0.0
11
152.651529
21
145.228196
31
0.0
0
ARC
8
0
10
152.369621
20
145.125590
30
0.0
40
0.300000
50
20.000000
51
90.000000
0
LINE
8
0
10
152.369621
20
145.425590
30
0.0
11
137.645600
21
145.425590
31
0.0
0
ARC
8
0
10
137.645600
20
145.125590
30
0.0
40
0.300000
50
90.000000
51
160.000000
0
LINE
8
0
10
137.363692
20
145.228196
30
0.0
11
136.434789
21
142.676056
31
0.0
0
ARC
8
0
10
135.957673
20
142.825590
30
0.0
40
0.500000
50
270.000000
51
342.598279
0
LINE
8
0
10
135.957673
20
142.325590
30
0.0
11
135.895610
21
142.325590
31
0.0
0
ARC
8
0
10
135.895610
20
143.525590
30
0.0
40
1.200000
50
240.018361
51
270.000000
0
LINE
8
0
10
135.295943
20
142.486168
30
0.0
11
133.713999
21
143.398828
31
0.0
0
ARC
8
0
10
133.614055
20
143.225590
30
0.0
40
0.200000
50
60.018361
51
90.000000
0
LINE
8
0
10
133.614055
20
143.425590
30
0.0
11
133.407610
21
143.425590
31
0.0
0
ARC
8
0
10
133.407610
20
143.025590
30
0.0
40
0.400000
50
90.000000
51
180.000000
0
LINE
8
0
10
133.007610
20
143.025590
30
0.0
11
133.007610
21
142.598795
31
0.0
0
ARC
8
0
10
133.207610
20
142.598795
30
0.0
40
0.200000
50
180.000000
51
240.000000
0
LINE
8
0
10
133.107610
20
142.425590
30
0.0
11
133.107610
21
142.050590
31
0.0
0
ARC
8
0
10
133.307610
20
142.050590
30
0.0
40
0.200000
50
180.000000
51
270.000000
0
LINE
8
0
10
133.307610
20
141.850590
30
0.0
11
133.419417
21
141.850590
31
0.0
0
LINE
8
0
10
133.419417
20
141.850590
30
0.0
11
133.503965
21
141.869340
31
0.0
0
ARC
8
0
10
133.757610
20
141.325590
30
0.0
40
0.600000
50
0.000000
51
115.007833
0
ARC
8
0
10
133.757610
20
141.325590
30
0.0
40
0.600000
50
244.992167
51
0.000000
0
LINE
8
0
10
133.503965
20
140.781840
30
0.0
11
133.419417
21
140.800590
31
0.0
0
LINE
8
0
10
133.419417
20
140.800590
30
0.0
11
133.307610
21
140.800590
31
0.0
0
ARC
8
0
10
133.307610
20
140.600590
30
0.0
40
0.200000
50
90.000000
51
180.000000
0
LINE
8
0
10
133.107610
20
140.600590
30
0.0
11
133.107610
21
140.225590
31
0.0
0
ARC
8
0
10
133.207610
20
140.052385
30
0.0
40
0.200000
50
120.000000
51
180.000000
0
LINE
8
0
10
133.007610
20
140.052385
30
0.0
11
133.007610
21
139.625590
31
0.0
0
ARC
8
0
10
133.407610
20
139.625590
30
0.0
40
0.400000
50
180.000000
51
270.000000
0
LINE
8
0
10
133.407610
20
139.225590
30
0.0
11
133.614055
21
139.225590
31
0.0
0
ARC
8
0
10
133.614055
20
139.425590
30
0.0
40
0.200000
50
270.000000
51
299.981639
0
LINE
8
0
10
133.713999
20
139.252353
30
0.0
11
135.295943
21
140.165013
31
0.0
0
ARC
8
0
10
135.895610
20
139.125590
30
0.0
40
1.200000
50
90.000000
51
119.981639
0
LINE
8
0
10
135.895610
20
140.325590
30
0.0
11
137.007437
21
140.325590
31
0.0
0
ARC
8
0
10
137.007437
20
141.325590
30
0.0
40
1.000000
50
270.000000
51
340.000000
0
LINE
8
0
10
137.947130
20
140.983570
30
0.0
11
138.657762
21
142.936015
31
0.0
0
ARC
8
0
10
139.785393
20
142.525590
30
0.0
40
1.200000
50
90.000000
51
160.000000
0
LINE
8
0
10
139.785393
20
143.725590
30
0.0
11
142.907616
21
143.725590
31
0.0
0
ARC
8
0
10
142.907616
20
143.225590
30
0.0
40
0.500000
50
0.000000
51
90.000000
0
LINE
8
0
10
143.407616
20
143.225590
30
0.0
11
143.407616
21
124.025590
31
0.0
0
ARC
8
0
10
143.707616
20
124.025590
30
0.0
40
0.300000
50
180.000000
51
270.000000
0
LINE
8
0
10
143.707616
20
123.725590
30
0.0
11
144.207616
21
123.725590
31
0.0
0
ARC
8
0
10
144.207616
20
124.025590
30
0.0
40
0.300000
50
270.000000
51
0.000000
0
LINE
8
0
10
144.507616
20
124.025590
30
0.0
11
144.507616
21
143.225590
31
0.0
0
ARC
8
0
10
145.007616
20
143.225590
30
0.0
40
0.500000
50
90.000000
51
180.000000
0
LINE
8
0
10
145.007616
20
143.725590
30
0.0
11
150.229828
21
143.725590
31
0.0
0
ARC
8
0
10
150.229828
20
142.525590
30
0.0
40
1.200000
50
20.000000
51
90.000000
0
LINE
8
0
10
151.357459
20
142.936015
30
0.0
11
152.068091
21
140.983570
31
0.0
0
ARC
8
0
10
153.007783
20
141.325590
30
0.0
40
1.000000
50
200.000000
51
270.000000
0
LINE
8
0
10
153.007783
20
140.325590
30
0.0
11
154.119611
21
140.325590
31
0.0
0
ARC
8
0
10
154.119611
20
139.125590
30
0.0
40
1.200000
50
60.018361
51
90.000000
0
LINE
8
0
10
154.719278
20
140.165013
30
0.0
11
156.301221
21
139.252353
31
0.0
0
ARC
8
0
10
156.401166
20
139.425590
30
0.0
40
0.200000
50
240.018361
51
270.000000
0
LINE
8
0
10
156.401166
20
139.225590
30
0.0
11
156.607610
21
139.225590
31
0.0
0
ARC
8
0
10
156.607610
20
139.625590
30
0.0
40
0.400000
50
270.000000
51
0.000000
0
LINE
8
0
10
157.007610
20
139.625590
30
0.0
11
157.007610
21
140.052385
31
0.0
0
ARC
8
0
10
156.807610
20
140.052385
30
0.0
40
0.200000
50
0.000000
51
60.000000
0
LINE
8
0
10
156.907610
20
140.225590
30
0.0
11
156.907610
21
140.600590
31
0.0
0
ARC
8
0
10
156.707610
20
140.600590
30
0.0
40
0.200000
50
0.000000
51
90.000000
0
LINE
8
0
10
156.707610
20
140.800590
30
0.0
11
156.595804
21
140.800590
31
0.0
0
LINE
8
0
10
156.595804
20
140.800590
30
0.0
11
156.511256
21
140.781840
31
0.0
0
ARC
8
0
10
156.257610
20
141.325590
30
0.0
40
0.600000
50
180.000000
51
295.007833
0
ARC
8
0
10
156.257610
20
141.325590
30
0.0
40
0.600000
50
64.992167
51
180.000000
0
LINE
8
0
10
156.511256
20
141.869340
30
0.0
11
156.595804
21
141.850590
31
0.0
0
LINE
8
0
10
156.595804
20
141.850590
30
0.0
11
156.707610
21
141.850590
31
0.0
0
ARC
8
0
10
156.707610
20
142.050590
30
0.0
40
0.200000
50
270.000000
51
0.000000
0
LINE
8
0
10
156.907610
20
142.050590
30
0.0
11
156.907610
21
142.425590
31
0.0
0
ARC
8
0
10
156.807610
20
142.598795
30
0.0
40
0.200000
50
300.000000
51
0.000000
0
LINE
8
0
10
157.007610
20
142.598795
30
0.0
11
157.007610
21
143.025590
31
0.0
0
ARC
8
0
10
156.607610
20
143.025590
30
0.0
40
0.400000
50
0.000000
51
90.000000
0
LINE
8
0
10
156.607610
20
143.425590
30
0.0
11
156.401166
21
143.425590
31
0.0
0
ARC
8
0
10
156.401166
20
143.225590
30
0.0
40
0.200000
50
90.000000
51
119.981639
0
LINE
8
0
10
156.301221
20
143.398828
30
0.0
11
154.719278
21
142.486168
31
0.0
0
ARC
8
0
10
135.895610
20
104.790620
30
0.0
40
1.200000
50
90.000000
51
119.981639
0
LINE
8
0
10
135.895610
20
105.990620
30
0.0
11
135.957673
21
105.990620
31
0.0
0
ARC
8
0
10
135.957673
20
105.490620
30
0.0
40
0.500000
50
17.401721
51
90.000000
0
LINE
8
0
10
136.434789
20
105.640154
30
0.0
11
137.363692
21
103.088014
31
0.0
0
ARC
8
0
10
137.645600
20
103.190620
30
0.0
40
0.300000
50
200.000000
51
270.000000
0
LINE
8
0
10
137.645600
20
102.890620
30
0.0
11
152.369621
21
102.890620
31
0.0
0
ARC
8
0
10
152.369621
20
103.190620
30
0.0
40
0.300000
50
270.000000
51
340.000000
0
LINE
8
0
10
152.651529
20
103.088014
30
0.0
11
153.580432
21
105.640154
31
0.0
0
ARC
8
0
10
154.057548
20
105.490620
30
0.0
40
0.500000
50
90.000000
51
162.598279
0
LINE
8
0
10
154.057548
20
105.990620
30
0.0
11
154.119611
21
105.990620
31
0.0
0
ARC
8
0
10
154.119611
20
104.790620
30
0.0
40
1.200000
50
60.018361
51
90.000000
0
LINE
8
0
10
154.719278
20
105.830042
30
0.0
11
156.301221
21
104.917382
31
0.0
0
ARC
8
0
10
156.401166
20
105.090620
30
0.0
40
0.200000
50
240.018361
51
270.000000
0
LINE
8
0
10
156.401166
20
104.890620
30
0.0
11
156.607610
21
104.890620
31
0.0
0
ARC
8
0
10
156.607610
20
105.290620
30
0.0
40
0.400000
50
270.000000
51
0.000000
0
LINE
8
0
10
157.007610
20
105.290620
30
0.0
11
157.007610
21
105.717415
31
0.0
0
ARC
8
0
10
156.807610
20
105.717415
30
0.0
40
0.200000
50
0.000000
51
60.000000
0
LINE
8
0
10
156.907610
20
105.890620
30
0.0
11
156.907610
21
106.265620
31
0.0
0
ARC
8
0
10
156.707610
20
106.265620
30
0.0
40
0.200000
50
0.000000
51
90.000000
0
LINE
8
0
10
156.707610
20
106.465620
30
0.0
11
156.595804
21
106.465620
31
0.0
0
LINE
8
0
10
156.595804
20
106.465620
30
0.0
11
156.511256
21
106.446870
31
0.0
0
ARC
8
0
10
156.257610
20
106.990620
30
0.0
40
0.600000
50
180.000000
51
295.007833
0
ARC
8
0
10
156.257610
20
106.990620
30
0.0
40
0.600000
50
64.992167
51
180.000000
0
LINE
8
0
10
156.511256
20
107.534370
30
0.0
11
156.595804
21
107.515620
31
0.0
0
LINE
8
0
10
156.595804
20
107.515620
30
0.0
11
156.707610
21
107.515620
31
0.0
0
ARC
8
0
10
156.707610
20
107.715620
30
0.0
40
0.200000
50
270.000000
51
0.000000
0
LINE
8
0
10
156.907610
20
107.715620
30
0.0
11
156.907610
21
108.090620
31
0.0
0
ARC
8
0
10
156.807610
20
108.263825
30
0.0
40
0.200000
50
300.000000
51
0.000000
0
LINE
8
0
10
157.007610
20
108.263825
30
0.0
11
157.007610
21
108.690620
31
0.0
0
ARC
8
0
10
156.607610
20
108.690620
30
0.0
40
0.400000
50
0.000000
51
90.000000
0
LINE
8
0
10
156.607610
20
109.090620
30
0.0
11
156.401166
21
109.090620
31
0.0
0
ARC
8
0
10
156.401166
20
108.890620
30
0.0
40
0.200000
50
90.000000
51
119.981639
0
LINE
8
0
10
156.301221
20
109.063857
30
0.0
11
154.719278
21
108.151197
31
0.0
0
ARC
8
0
10
154.119611
20
109.190620
30
0.0
40
1.200000
50
270.000000
51
299.981639
0
LINE
8
0
10
154.119611
20
107.990620
30
0.0
11
153.007783
21
107.990620
31
0.0
0
ARC
8
0
10
153.007783
20
106.990620
30
0.0
40
1.000000
50
90.000000
51
160.000000
0
LINE
8
0
10
152.068091
20
107.332640
30
0.0
11
151.357459
21
105.380195
31
0.0
0
ARC
8
0
10
150.229828
20
105.790620
30
0.0
40
1.200000
50
270.000000
51
340.000000
0
LINE
8
0
10
150.229828
20
104.590620
30
0.0
11
147.107605
21
104.590620
31
0.0
0
ARC
8
0
10
147.107605
20
105.090620
30
0.0
40
0.500000
50
180.000000
51
270.000000
0
LINE
8
0
10
146.607605
20
105.090620
30
0.0
11
146.607605
21
124.290620
31
0.0
0
ARC
8
0
10
146.307605
20
124.290620
30
0.0
40
0.300000
50
0.000000
51
90.000000
0
LINE
8
0
10
146.307605
20
124.590620
30
0.0
11
145.807605
21
124.590620
31
0.0
0
ARC
8
0
10
145.807605
20
124.290620
30
0.0
40
0.300000
50
90.000000
51
180.000000
0
LINE
8
0
10
145.507605
20
124.290620
30
0.0
11
145.507605
21
105.090620
31
0.0
0
ARC
8
0
10
145.007605
20
105.090620
30
0.0
40
0.500000
50
270.000000
51
0.000000
0
LINE
8
0
10
145.007605
20
104.590620
30
0.0
11
139.785393
21
104.590620
31
0.0
0
ARC
8
0
10
139.785393
20
105.790620
30
0.0
40
1.200000
50
200.000000
51
270.000000
0
LINE
8
0
10
138.657762
20
105.380195
30
0.0
11
137.947130
21
107.332640
31
0.0
0
ARC
8
0
10
137.007437
20
106.990620
30
0.0
40
1.000000
50
20.000000
51
90.000000
0
LINE
8
0
10
137.007437
20
107.990620
30
0.0
11
135.895610
21
107.990620
31
0.0
0
ARC
8
0
10
135.895610
20
109.190620
30
0.0
40
1.200000
50
240.018361
51
270.000000
0
LINE
8
0
10
135.295943
20
108.151197
30
0.0
11
133.713999
21
109.063857
31
0.0
0
ARC
8
0
10
133.614055
20
108.890620
30
0.0
40
0.200000
50
60.018361
51
90.000000
0
LINE
8
0
10
133.614055
20
109.090620
30
0.0
11
133.407610
21
109.090620
31
0.0
0
ARC
8
0
10
133.407610
20
108.690620
30
0.0
40
0.400000
50
90.000000
51
180.000000
0
LINE
8
0
10
133.007610
20
108.690620
30
0.0
11
133.007610
21
108.263825
31
0.0
0
ARC
8
0
10
133.207610
20
108.263825
30
0.0
40
0.200000
50
180.000000
51
240.000000
0
LINE
8
0
10
133.107610
20
108.090620
30
0.0
11
133.107610
21
107.715620
31
0.0
0
ARC
8
0
10
133.307610
20
107.715620
30
0.0
40
0.200000
50
180.000000
51
270.000000
0
LINE
8
0
10
133.307610
20
107.515620
30
0.0
11
133.419417
21
107.515620
31
0.0
0
LINE
8
0
10
133.419417
20
107.515620
30
0.0
11
133.503965
21
107.534370
31
0.0
0
ARC
8
0
10
133.757610
20
106.990620
30
0.0
40
0.600000
50
0.000000
51
115.007833
0
ARC
8
0
10
133.757610
20
106.990620
30
0.0
40
0.600000
50
244.992167
51
0.000000
0
LINE
8
0
10
133.503965
20
106.446870
30
0.0
11
133.419417
21
106.465620
31
0.0
0
LINE
8
0
10
133.419417
20
106.465620
30
0.0
11
133.307610
21
106.465620
31
0.0
0
ARC
8
0
10
133.307610
20
106.265620
30
0.0
40
0.200000
50
90.000000
51
180.000000
0
LINE
8
0
10
133.107610
20
106.265620
30
0.0
11
133.107610
21
105.890620
31
0.0
0
ARC
8
0
10
133.207610
20
105.717415
30
0.0
40
0.200000
50
120.000000
51
180.000000
0
LINE
8
0
10
133.007610
20
105.717415
30
0.0
11
133.007610
21
105.290620
31
0.0
0
ARC
8
0
10
133.407610
20
105.290620
30
0.0
40
0.400000
50
180.000000
51
270.000000
0
LINE
8
0
10
133.407610
20
104.890620
30
0.0
11
133.614055
21
104.890620
31
0.0
0
ARC
8
0
10
133.614055
20
105.090620
30
0.0
40
0.200000
50
270.000000
51
299.981639
0
LINE
8
0
10
133.713999
20
104.917382
30
0.0
11
135.295943
21
105.830042
31
0.0
0
ARC
8
0
10
184.458166
20
98.225590
30
0.0
40
0.300000
50
210.000000
51
270.000000
0
LINE
8
0
10
184.198358
20
98.075590
30
0.0
11
183.747803
21
98.855975
31
0.0
0
ARC
8
0
10
184.007610
20
99.005975
30
0.0
40
0.300000
50
180.000000
51
210.000000
0
LINE
8
0
10
183.707610
20
99.005975
30
0.0
11
183.707610
21
99.125590
31
0.0
0
ARC
8
0
10
184.007610
20
99.125590
30
0.0
40
0.300000
50
90.000000
51
180.000000
0
LINE
8
0
10
184.007610
20
99.425590
30
0.0
11
185.907610
21
99.425590
31
0.0
0
ARC
8
0
10
185.907610
20
99.725590
30
0.0
40
0.300000
50
270.000000
51
0.000000
0
LINE
8
0
10
186.207610
20
99.725590
30
0.0
11
186.207610
21
104.226701
31
0.0
0
ARC
8
0
10
185.907610
20
104.226701
30
0.0
40
0.300000
50
0.000000
51
90.000000
0
LINE
8
0
10
185.907610
20
104.526701
30
0.0
11
184.707610
21
104.526701
31
0.0
0
ARC
8
0
10
184.707610
20
104.226701
30
0.0
40
0.300000
50
90.000000
51
180.000000
0
LINE
8
0
10
184.407610
20
104.226701
30
0.0
11
184.407610
21
103.225190
31
0.0
0
ARC
8
0
10
184.107610
20
103.225190
30
0.0
40
0.300000
50
270.000000
51
0.000000
0
LINE
8
0
10
184.107610
20
102.925190
30
0.0
11
182.707610
21
102.925190
31
0.0
0
ARC
8
0
10
182.707610
20
103.225190
30
0.0
40
0.300000
50
180.000000
51
270.000000
0
LINE
8
0
10
182.407610
20
103.225190
30
0.0
11
182.407610
21
104.226701
31
0.0
0
ARC
8
0
10
182.107610
20
104.226701
30
0.0
40
0.300000
50
0.000000
51
90.000000
0
LINE
8
0
10
182.107610
20
104.526701
30
0.0
11
179.307610
21
104.526701
31
0.0
0
LINE
8
0
10
179.307610
20
104.526701
30
0.0
11
179.007610
21
104.826701
31
0.0
0
LINE
8
0
10
179.007610
20
104.826701
30
0.0
11
178.707610
21
104.526701
31
0.0
0
LINE
8
0
10
178.707610
20
104.526701
30
0.0
11
175.807610
21
104.526701
31
0.0
0
ARC
8
0
10
175.807610
20
104.226701
30
0.0
40
0.300000
50
90.000000
51
180.000000
0
LINE
8
0
10
175.507610
20
104.226701
30
0.0
11
175.507610
21
103.225190
31
0.0
0
ARC
8
0
10
175.207610
20
103.225190
30
0.0
40
0.300000
50
270.000000
51
0.000000
0
LINE
8
0
10
175.207610
20
102.925190
30
0.0
11
173.807610
21
102.925190
31
0.0
0
ARC
8
0
10
173.807610
20
103.225190
30
0.0
40
0.300000
50
180.000000
51
270.000000
0
LINE
8
0
10
173.507610
20
103.225190
30
0.0
11
173.507610
21
104.226701
31
0.0
0
ARC
8
0
10
173.207610
20
104.226701
30
0.0
40
0.300000
50
0.000000
51
90.000000
0
LINE
8
0
10
173.207610
20
104.526701
30
0.0
11
172.007610
21
104.526701
31
0.0
0
ARC
8
0
10
172.007610
20
104.226701
30
0.0
40
0.300000
50
90.000000
51
180.000000
0
LINE
8
0
10
171.707610
20
104.226701
30
0.0
11
171.707610
21
99.725590
31
0.0
0
ARC
8
0
10
172.007610
20
99.725590
30
0.0
40
0.300000
50
180.000000
51
270.000000
0
LINE
8
0
10
172.007610
20
99.425590
30
0.0
11
173.407610
21
99.425590
31
0.0
0
ARC
8
0
10
173.407610
20
99.125590
30
0.0
40
0.300000
50
0.000000
51
90.000000
0
LINE
8
0
10
173.707610
20
99.125590
30
0.0
11
173.707610
21
99.005975
31
0.0
0
ARC
8
0
10
173.407610
20
99.005975
30
0.0
40
0.300000
50
330.000000
51
0.000000
0
LINE
8
0
10
173.667418
20
98.855975
30
0.0
11
173.216863
21
98.075590
31
0.0
0
ARC
8
0
10
172.957055
20
98.225590
30
0.0
40
0.300000
50
270.000000
51
330.000000
0
LINE
8
0
10
172.957055
20
97.925590
30
0.0
11
170.507610
21
97.925590
31
0.0
0
ARC
8
0
10
170.507610
20
98.225590
30
0.0
40
0.300000
50
180.000000
51
270.000000
0
LINE
8
0
10
170.207610
20
98.225590
30
0.0
11
170.207610
21
104.226701
31
0.0
0
ARC
8
0
10
169.907610
20
104.226701
30
0.0
40
0.300000
50
0.000000
51
90.000000
0
LINE
8
0
10
169.907610
20
104.526701
30
0.0
11
158.907610
21
104.526701
31
0.0
0
ARC
8
0
10
158.907610
20
104.226701
30
0.0
40
0.300000
50
90.000000
51
180.000000
0
LINE
8
0
10
158.607610
20
104.226701
30
0.0
11
158.607610
21
103.225590
31
0.0
0
ARC
8
0
10
158.307610
20
103.225590
30
0.0
40
0.300000
50
270.000000
51
0.000000
0
LINE
8
0
10
158.307610
20
102.925590
30
0.0
11
156.785295
21
102.925590
31
0.0
0
LINE
8
0
10
156.708832
20
102.935499
30
0.0
11
156.785295
21
102.925590
31
0.0
0
LINE
8
0
10
156.708832
20
102.935499
30
0.0
11
155.746628
21
103.189121
31
0.0
0
ARC
8
0
10
155.656907
20
102.902852
30
0.0
40
0.300000
50
72.598279
51
150.367342
0
ARC
8
0
10
155.222301
20
103.150070
30
0.0
40
0.200000
50
270.000000
51
330.367342
0
LINE
8
0
10
155.220899
20
102.950075
30
0.0
11
153.669804
21
102.950075
31
0.0
0
ARC
8
0
10
153.669804
20
103.250075
30
0.0
40
0.300000
50
162.598279
51
270.000000
0
LINE
8
0
10
153.383535
20
103.339796
30
0.0
11
153.985499
21
105.260465
31
0.0
0
ARC
8
0
10
154.748885
20
105.021209
30
0.0
40
0.800000
50
117.598279
51
162.598279
0
LINE
8
0
10
154.378269
20
105.730183
30
0.0
11
154.659339
21
105.877113
31
0.0
0
ARC
8
0
10
154.751993
20
105.699869
30
0.0
40
0.200000
50
0.000000
51
117.598279
0
LINE
8
0
10
154.951818
20
105.691488
30
0.0
11
154.939720
21
105.403067
31
0.0
0
LINE
8
0
10
154.939720
20
105.403067
30
0.0
11
156.647817
21
104.319003
31
0.0
0
ARC
8
0
10
156.969329
20
104.825590
30
0.0
40
0.600000
50
237.598279
51
270.000000
0
LINE
8
0
10
156.969329
20
104.225590
30
0.0
11
157.007610
21
104.225590
31
0.0
0
ARC
8
0
10
156.907610
20
104.508433
30
0.0
40
0.300000
50
289.471221
51
70.528779
0
LINE
8
0
10
157.007610
20
104.791276
30
0.0
11
157.007610
21
108.825590
31
0.0
0
ARC
8
0
10
156.707610
20
108.825590
30
0.0
40
0.300000
50
0.000000
51
90.000000
0
LINE
8
0
10
156.707610
20
109.125590
30
0.0
11
156.487995
21
109.125590
31
0.0
0
ARC
8
0
10
156.487995
20
108.825590
30
0.0
40
0.300000
50
90.000000
51
120.000000
0
LINE
8
0
10
156.337995
20
109.085398
30
0.0
11
154.807610
21
108.201830
31
0.0
0
ARC
8
0
10
154.707610
20
108.375035
30
0.0
40
0.200000
50
180.000000
51
300.000000
0
LINE
8
0
10
154.507610
20
108.375035
30
0.0
11
154.507610
21
109.529736
31
0.0
0
ARC
8
0
10
155.507610
20
109.529736
30
0.0
40
1.000000
50
120.000000
51
180.000000
0
LINE
8
0
10
155.007610
20
110.395761
30
0.0
11
156.507610
21
111.261786
31
0.0
0
ARC
8
0
10
156.007610
20
112.127812
30
0.0
40
1.000000
50
300.000000
51
0.000000
0
LINE
8
0
10
157.007610
20
112.127812
30
0.0
11
157.007610
21
136.223369
31
0.0
0
ARC
8
0
10
156.007610
20
136.223369
30
0.0
40
1.000000
50
0.000000
51
60.000000
0
LINE
8
0
10
156.507610
20
137.089394
30
0.0
11
155.007610
21
137.955420
31
0.0
0
ARC
8
0
10
155.507610
20
138.821445
30
0.0
40
1.000000
50
180.000000
51
240.000000
0
LINE
8
0
10
154.507610
20
138.821445
30
0.0
11
154.507610
21
139.976146
31
0.0
0
ARC
8
0
10
154.707610
20
139.976146
30
0.0
40
0.200000
50
60.000000
51
180.000000
0
LINE
8
0
10
154.807610
20
140.149351
30
0.0
11
156.337995
21
139.265783
31
0.0
0
ARC
8
0
10
156.487995
20
139.525590
30
0.0
40
0.300000
50
240.000000
51
270.000000
0
LINE
8
0
10
156.487995
20
139.225590
30
0.0
11
156.707610
21
139.225590
31
0.0
0
ARC
8
0
10
156.707610
20
139.525590
30
0.0
40
0.300000
50
270.000000
51
0.000000
0
LINE
8
0
10
157.007610
20
139.525590
30
0.0
11
157.007610
21
143.559905
31
0.0
0
ARC
8
0
10
156.907610
20
143.842748
30
0.0
40
0.300000
50
289.471221
51
70.528779
0
LINE
8
0
10
157.007610
20
144.125590
30
0.0
11
156.969329
21
144.125590
31
0.0
0
ARC
8
0
10
156.969329
20
143.525590
30
0.0
40
0.600000
50
90.000000
51
122.401721
0
LINE
8
0
10
156.647817
20
144.032178
30
0.0
11
154.939720
21
142.948114
31
0.0
0
LINE
8
0
10
154.939720
20
142.948114
30
0.0
11
154.951818
21
142.659693
31
0.0
0
ARC
8
0
10
154.751993
20
142.651312
30
0.0
40
0.200000
50
242.401721
51
0.000000
0
LINE
8
0
10
154.659339
20
142.474068
30
0.0
11
154.378269
21
142.620997
31
0.0
0
ARC
8
0
10
154.748885
20
143.329971
30
0.0
40
0.800000
50
197.401721
51
242.401721
0
LINE
8
0
10
153.985499
20
143.090716
30
0.0
11
153.383535
21
145.011385
31
0.0
0
ARC
8
0
10
153.669804
20
145.101105
30
0.0
40
0.300000
50
90.000000
51
197.401721
0
LINE
8
0
10
153.669804
20
145.401105
30
0.0
11
155.220899
21
145.401105
31
0.0
0
ARC
8
0
10
155.222301
20
145.201110
30
0.0
40
0.200000
50
29.632658
51
90.000000
0
ARC
8
0
10
155.656907
20
145.448329
30
0.0
40
0.300000
50
209.632658
51
287.401721
0
LINE
8
0
10
155.746628
20
145.162060
30
0.0
11
156.708832
21
145.415682
31
0.0
0
LINE
8
0
10
156.785295
20
145.425590
30
0.0
11
156.708832
21
145.415682
31
0.0
0
LINE
8
0
10
156.785295
20
145.425590
30
0.0
11
177.357610
21
145.425590
31
0.0
0
ARC
8
0
10
177.357610
20
145.725590
30
0.0
40
0.300000
50
270.000000
51
0.000000
0
LINE
8
0
10
177.657610
20
145.725590
30
0.0
11
177.657610
21
149.625590
31
0.0
0
ARC
8
0
10
177.957610
20
149.625590
30
0.0
40
0.300000
50
90.000000
51
180.000000
0
LINE
8
0
10
177.957610
20
149.925590
30
0.0
11
178.957610
21
149.925590
31
0.0
0
ARC
8
0
10
178.957610
20
149.625590
30
0.0
40
0.300000
50
0.000000
51
90.000000
0
LINE
8
0
10
179.257610
20
149.625590
30
0.0
11
179.257610
21
139.225590
31
0.0
0
ARC
8
0
10
179.557610
20
139.225590
30
0.0
40
0.300000
50
180.000000
51
270.000000
0
LINE
8
0
10
179.557610
20
138.925590
30
0.0
11
187.507610
21
138.925590
31
0.0
0
ARC
8
0
10
187.507610
20
138.425590
30
0.0
40
0.500000
50
0.000000
51
90.000000
0
LINE
8
0
10
188.007610
20
138.425590
30
0.0
11
188.007610
21
98.225590
31
0.0
0
ARC
8
0
10
187.707610
20
98.225590
30
0.0
40
0.300000
50
270.000000
51
0.000000
0
LINE
8
0
10
187.707610
20
97.925590
30
0.0
11
184.458166
21
97.925590
31
0.0
0
ARC
8
0
10
154.751993
20
142.651312
30
0.0
40
1.500000
50
295.943541
51
309.574285
0
LINE
8
0
10
155.457610
20
141.275184
30
0.0
11
155.408221
21
141.302473
31
0.0
0
LINE
8
0
10
155.457610
20
141.275184
30
0.0
11
155.707610
21
141.130846
31
0.0
0
LINE
8
0
10
155.707610
20
141.130846
30
0.0
11
155.707610
21
141.495113
31
0.0
0
LINE
8
0
10
155.707610
20
107.220335
30
0.0
11
155.457610
21
107.075997
31
0.0
0
LINE
8
0
10
155.408221
20
107.048708
30
0.0
11
155.457610
21
107.075997
31
0.0
0
ARC
8
0
10
154.751993
20
105.699869
30
0.0
40
1.500000
50
50.425715
51
64.056459
0
LINE
8
0
10
155.707610
20
106.856068
30
0.0
11
155.707610
21
107.220335
31
0.0
0
ATTDEF
8
0
10
123.707353
20
145.425590
30
0.0
40
3.5
1

3

2
VC_START
70
0
0
ATTDEF
8
0
10
131.857361
20
97.925590
30
0.0
40
3.5
1

3

2
VC_END
70
0
0
ATTDEF
8
0
10
121.007353
20
97.925590
30
0.0
40
3.5
1

3

2
JY:0.000000
70
0
0
ATTDEF
8
0
10
121.007353
20
97.925590
30
0.0
40
3.5
1

3

2
WY:0.000000
70
0
0
ATTDEF
8
0
10
121.007353
20
97.925590
30
0.0
40
3.5
1

3

2
DESC:Telaio L per porta apertura interna
70
0
0
ATTDEF
8
0
10
121.007353
20
97.925590
30
0.0
40
3.5
1

3

2
DENS:1.730000
70
0
0
ATTDEF
8
0
10
121.007353
20
97.925590
30
0.0
40
3.5
1

3

2
TDEV:0.000000
70
0
0
ATTDEF
8
0
10
121.007353
20
97.925590
30
0.0
40
3.5
1

3

2
TDEV2:0.000000
70
0
0
ATTDEF
8
0
10
121.007353
20
97.925590
30
0.0
40
3.5
1

3

2
TDEV3:0.000000
70
0
0
ATTDEF
8
0
10
121.007353
20
97.925590
30
0.0
40
3.5
1

3

2
TDEV4:0.000000
70
0
0
ATTDEF
8
0
10
121.007353
20
97.925590
30
0.0
40
3.5
1

3

2
TDEV5:0.000000
70
0
0
ATTDEF
8
0
10
121.007353
20
97.925590
30
0.0
40
3.5
1

3

2
FRONT_VIEW
70
0
0
ATTDEF
8
0
10
121.007353
20
97.925590
30
0.0
40
3.5
1

3

2
BL01:6800.000000,,1
70
0
0
ATTDEF
8
0
10
121.007353
20
97.925590
30
0.0
40
3.5
1

3

2
OPTI:500.000000,1,0,3000.000000,6500.000000,500.000000,0,0.000000,0
70
0
0
ATTDEF
8
0
10
121.007353
20
97.925590
30
0.0
40
3.5
1

3

2
PANE_WIDTH:0.000000
70
0
0
ATTDEF
8
0
10
121.007353
20
97.925590
30
0.0
40
3.5
1

3

2
GLASS_MIN:0.000000
70
0
0
ATTDEF
8
0
10
121.007353
20
97.925590
30
0.0
40
3.5
1

3

2
GLASS_MAX:0.000000
70
0
0
ATTDEF
8
0
10
121.007353
20
97.925590
30
0.0
40
3.5
1

3

2
JX:0.000000
70
0
0
ATTDEF
8
0
10
121.007353
20
97.925590
30
0.0
40
3.5
1

3

2
WX:0.000000
70
0
0
ATTDEF
8
0
10
121.007353
20
97.925590
30
0.0
40
3.5
1

3

2
JY:0.000000
70
0
0
ATTDEF
8
0
10
121.007353
20
97.925590
30
0.0
40
3.5
1

3

2
WY:0.000000
70
0
0
ATTDEF
8
0
10
121.007353
20
97.925590
30
0.0
40
3.5
1

3

2
FP_LCS_ORIG
70
0
0
ATTDEF
8
0
10
131.007353
20
97.925590
30
0.0
40
3.5
1

3

2
FP_LCS_HOT
70
0
0
ATTDEF
8
0
10
121.007353
20
107.925590
30
0.0
40
3.5
1

3

2
FP_LCS_INTERN
70
0
0
ENDSEC
0
EOF
