0
SECTION
2
ENTITIES
0
ARC
8
0
10
173.496224
20
111.353550
30
0.0
40
0.700000
50
270.000000
51
0.000000
0
ARC
8
0
10
173.496224
20
110.953550
30
0.0
40
0.300000
50
180.000000
51
270.000000
0
LINE
8
0
10
173.196224
20
110.953550
30
0.0
11
173.196224
21
111.653550
31
0.0
0
ARC
8
0
10
172.896224
20
111.653550
30
0.0
40
0.300000
50
0.000000
51
90.000000
0
LINE
8
0
10
172.896224
20
111.953550
30
0.0
11
171.696224
21
111.953550
31
0.0
0
ARC
8
0
10
171.696224
20
111.253550
30
0.0
40
0.700000
50
90.000000
51
180.000000
0
LINE
8
0
10
170.996224
20
111.253550
30
0.0
11
170.996224
21
105.053550
31
0.0
0
ARC
8
0
10
171.696224
20
105.053550
30
0.0
40
0.700000
50
180.000000
51
270.000000
0
LINE
8
0
10
171.696224
20
104.353550
30
0.0
11
172.896224
21
104.353550
31
0.0
0
ARC
8
0
10
172.896224
20
104.653550
30
0.0
40
0.300000
50
270.000000
51
0.000000
0
LINE
8
0
10
173.196224
20
104.653550
30
0.0
11
173.196224
21
105.353550
31
0.0
0
ARC
8
0
10
173.496224
20
105.353550
30
0.0
40
0.300000
50
90.000000
51
180.000000
0
ARC
8
0
10
173.496224
20
104.953550
30
0.0
40
0.700000
50
0.000000
51
90.000000
0
LINE
8
0
10
174.196224
20
104.953550
30
0.0
11
174.196224
21
103.453550
31
0.0
0
ARC
8
0
10
173.896224
20
103.453550
30
0.0
40
0.300000
50
270.000000
51
0.000000
0
LINE
8
0
10
173.896224
20
103.153550
30
0.0
11
170.196224
21
103.153550
31
0.0
0
ARC
8
0
10
170.196224
20
103.653550
30
0.0
40
0.500000
50
180.000000
51
270.000000
0
LINE
8
0
10
169.696224
20
103.653550
30
0.0
11
169.696224
21
198.853523
31
0.0
0
ARC
8
0
10
169.996224
20
198.853523
30
0.0
40
0.300000
50
90.000000
51
180.000000
0
LINE
8
0
10
169.996224
20
199.153523
30
0.0
11
173.896224
21
199.153523
31
0.0
0
ARC
8
0
10
173.896224
20
198.853523
30
0.0
40
0.300000
50
0.000000
51
90.000000
0
LINE
8
0
10
174.196224
20
198.853523
30
0.0
11
174.196224
21
197.353523
31
0.0
0
ARC
8
0
10
173.496224
20
197.353523
30
0.0
40
0.700000
50
270.000000
51
0.000000
0
ARC
8
0
10
173.496224
20
196.953523
30
0.0
40
0.300000
50
180.000000
51
270.000000
0
LINE
8
0
10
173.196224
20
196.953523
30
0.0
11
173.196224
21
197.653523
31
0.0
0
ARC
8
0
10
172.896224
20
197.653523
30
0.0
40
0.300000
50
0.000000
51
90.000000
0
LINE
8
0
10
172.896224
20
197.953523
30
0.0
11
171.696224
21
197.953523
31
0.0
0
ARC
8
0
10
171.696224
20
197.253523
30
0.0
40
0.700000
50
90.000000
51
180.000000
0
LINE
8
0
10
170.996224
20
197.253523
30
0.0
11
170.996224
21
191.053523
31
0.0
0
ARC
8
0
10
171.696224
20
191.053523
30
0.0
40
0.700000
50
180.000000
51
270.000000
0
LINE
8
0
10
171.696224
20
190.353523
30
0.0
11
172.896224
21
190.353523
31
0.0
0
ARC
8
0
10
172.896224
20
190.653523
30
0.0
40
0.300000
50
270.000000
51
0.000000
0
LINE
8
0
10
173.196224
20
190.653523
30
0.0
11
173.196224
21
191.353523
31
0.0
0
ARC
8
0
10
173.496224
20
191.353523
30
0.0
40
0.300000
50
90.000000
51
180.000000
0
ARC
8
0
10
173.496224
20
190.953523
30
0.0
40
0.700000
50
0.000000
51
90.000000
0
LINE
8
0
10
174.196224
20
190.953523
30
0.0
11
174.196224
21
187.953523
31
0.0
0
ARC
8
0
10
173.896224
20
187.953523
30
0.0
40
0.300000
50
270.000000
51
0.000000
0
LINE
8
0
10
173.896224
20
187.653523
30
0.0
11
173.496224
21
187.653523
31
0.0
0
ARC
8
0
10
173.496224
20
187.953523
30
0.0
40
0.300000
50
180.000000
51
270.000000
0
LINE
8
0
10
173.196224
20
187.953523
30
0.0
11
173.196224
21
188.853523
31
0.0
0
ARC
8
0
10
172.896224
20
188.853523
30
0.0
40
0.300000
50
0.000000
51
90.000000
0
LINE
8
0
10
172.896224
20
189.153523
30
0.0
11
171.496224
21
189.153523
31
0.0
0
ARC
8
0
10
171.496224
20
188.853523
30
0.0
40
0.300000
50
90.000000
51
180.000000
0
LINE
8
0
10
171.196224
20
188.853523
30
0.0
11
171.196224
21
175.153523
31
0.0
0
ARC
8
0
10
172.196224
20
175.153523
30
0.0
40
1.000000
50
180.000000
51
270.000000
0
LINE
8
0
10
172.196224
20
174.153523
30
0.0
11
179.396224
21
174.153523
31
0.0
0
ARC
8
0
10
179.396224
20
174.453523
30
0.0
40
0.300000
50
270.000000
51
0.000000
0
LINE
8
0
10
179.696224
20
174.453523
30
0.0
11
179.696224
21
176.853523
31
0.0
0
ARC
8
0
10
179.996224
20
176.853523
30
0.0
40
0.300000
50
90.000000
51
180.000000
0
LINE
8
0
10
179.996224
20
177.153523
30
0.0
11
181.918539
21
177.153523
31
0.0
0
LINE
8
0
10
181.995003
20
177.143614
30
0.0
11
181.918539
21
177.153523
31
0.0
0
LINE
8
0
10
181.995003
20
177.143614
30
0.0
11
182.957206
21
176.889992
31
0.0
0
ARC
8
0
10
183.046927
20
177.176261
30
0.0
40
0.300000
50
252.598279
51
330.367342
0
ARC
8
0
10
183.481534
20
176.929042
30
0.0
40
0.200000
50
90.000000
51
150.367342
0
LINE
8
0
10
183.482936
20
177.129038
30
0.0
11
185.034030
21
177.129038
31
0.0
0
ARC
8
0
10
185.034030
20
176.829038
30
0.0
40
0.300000
50
342.598279
51
90.000000
0
LINE
8
0
10
185.320299
20
176.739317
30
0.0
11
184.718335
21
174.818648
31
0.0
0
ARC
8
0
10
183.954950
20
175.057903
30
0.0
40
0.800000
50
297.598279
51
342.598279
0
LINE
8
0
10
184.325565
20
174.348929
30
0.0
11
184.044495
21
174.202000
31
0.0
0
ARC
8
0
10
183.951841
20
174.379244
30
0.0
40
0.200000
50
180.000000
51
297.598279
0
LINE
8
0
10
183.752017
20
174.387625
30
0.0
11
183.764114
21
174.676046
31
0.0
0
LINE
8
0
10
183.764114
20
174.676046
30
0.0
11
182.056017
21
175.760110
31
0.0
0
ARC
8
0
10
181.734506
20
175.253523
30
0.0
40
0.600000
50
57.598279
51
90.000000
0
LINE
8
0
10
181.734506
20
175.853523
30
0.0
11
181.696224
21
175.853523
31
0.0
0
ARC
8
0
10
181.796224
20
175.570680
30
0.0
40
0.300000
50
109.471221
51
250.528779
0
LINE
8
0
10
181.696224
20
175.287837
30
0.0
11
181.696224
21
171.253523
31
0.0
0
ARC
8
0
10
181.996224
20
171.253523
30
0.0
40
0.300000
50
180.000000
51
270.000000
0
LINE
8
0
10
181.996224
20
170.953523
30
0.0
11
182.215839
21
170.953523
31
0.0
0
ARC
8
0
10
182.215839
20
171.253523
30
0.0
40
0.300000
50
270.000000
51
300.000000
0
LINE
8
0
10
182.365839
20
170.993715
30
0.0
11
183.896224
21
171.877283
31
0.0
0
ARC
8
0
10
183.996224
20
171.704078
30
0.0
40
0.200000
50
0.000000
51
120.000000
0
LINE
8
0
10
184.196224
20
171.704078
30
0.0
11
184.196224
21
170.549377
31
0.0
0
ARC
8
0
10
183.196224
20
170.549377
30
0.0
40
1.000000
50
300.000000
51
0.000000
0
LINE
8
0
10
183.696224
20
169.683352
30
0.0
11
182.196224
21
168.817327
31
0.0
0
ARC
8
0
10
182.696224
20
167.951301
30
0.0
40
1.000000
50
120.000000
51
180.000000
0
LINE
8
0
10
181.696224
20
167.951301
30
0.0
11
181.696224
21
131.153523
31
0.0
0
ARC
8
0
10
181.996224
20
131.153523
30
0.0
40
0.300000
50
180.000000
51
270.000000
0
LINE
8
0
10
181.996224
20
130.853523
30
0.0
11
183.896224
21
130.853523
31
0.0
0
ARC
8
0
10
183.896224
20
130.553523
30
0.0
40
0.300000
50
0.000000
51
90.000000
0
LINE
8
0
10
184.196224
20
130.553523
30
0.0
11
184.196224
21
127.102967
31
0.0
0
ARC
8
0
10
183.996224
20
127.102967
30
0.0
40
0.200000
50
240.000000
51
0.000000
0
LINE
8
0
10
183.896224
20
126.929762
30
0.0
11
182.365839
21
127.813330
31
0.0
0
ARC
8
0
10
182.215839
20
127.553523
30
0.0
40
0.300000
50
60.000000
51
90.000000
0
LINE
8
0
10
182.215839
20
127.853523
30
0.0
11
181.996224
21
127.853523
31
0.0
0
ARC
8
0
10
181.996224
20
127.553523
30
0.0
40
0.300000
50
90.000000
51
180.000000
0
LINE
8
0
10
181.696224
20
127.553523
30
0.0
11
181.696224
21
123.519208
31
0.0
0
ARC
8
0
10
181.796224
20
123.236365
30
0.0
40
0.300000
50
109.471221
51
250.528779
0
LINE
8
0
10
181.696224
20
122.953523
30
0.0
11
181.734506
21
122.953523
31
0.0
0
ARC
8
0
10
181.734506
20
123.553523
30
0.0
40
0.600000
50
270.000000
51
302.401721
0
LINE
8
0
10
182.056017
20
123.046935
30
0.0
11
183.764114
21
124.130999
31
0.0
0
LINE
8
0
10
183.764114
20
124.130999
30
0.0
11
183.752017
21
124.419420
31
0.0
0
ARC
8
0
10
183.951841
20
124.427801
30
0.0
40
0.200000
50
62.401721
51
180.000000
0
LINE
8
0
10
184.044495
20
124.605045
30
0.0
11
184.325565
21
124.458116
31
0.0
0
ARC
8
0
10
183.954950
20
123.749142
30
0.0
40
0.800000
50
17.401721
51
62.401721
0
LINE
8
0
10
184.718335
20
123.988397
30
0.0
11
185.320299
21
122.067728
31
0.0
0
ARC
8
0
10
185.034030
20
121.978007
30
0.0
40
0.300000
50
270.000000
51
17.401721
0
LINE
8
0
10
185.034030
20
121.678007
30
0.0
11
183.482936
21
121.678007
31
0.0
0
ARC
8
0
10
183.481534
20
121.878003
30
0.0
40
0.200000
50
209.632658
51
270.000000
0
ARC
8
0
10
183.046927
20
121.630784
30
0.0
40
0.300000
50
29.632658
51
107.401721
0
LINE
8
0
10
182.957206
20
121.917053
30
0.0
11
181.995003
21
121.663431
31
0.0
0
LINE
8
0
10
181.918539
20
121.653523
30
0.0
11
181.995003
21
121.663431
31
0.0
0
LINE
8
0
10
181.918539
20
121.653523
30
0.0
11
172.496224
21
121.653523
31
0.0
0
ARC
8
0
10
172.496224
20
120.653523
30
0.0
40
1.000000
50
90.000000
51
180.000000
0
LINE
8
0
10
171.496224
20
120.653523
30
0.0
11
171.496224
21
113.453550
31
0.0
0
ARC
8
0
10
171.796224
20
113.453550
30
0.0
40
0.300000
50
180.000000
51
270.000000
0
LINE
8
0
10
171.796224
20
113.153550
30
0.0
11
173.896224
21
113.153550
31
0.0
0
ARC
8
0
10
173.896224
20
112.853550
30
0.0
40
0.300000
50
0.000000
51
90.000000
0
LINE
8
0
10
174.196224
20
112.853550
30
0.0
11
174.196224
21
111.353550
31
0.0
0
LINE
8
0
10
172.696224
20
128.353523
30
0.0
11
171.796224
21
128.353523
31
0.0
0
ARC
8
0
10
171.796224
20
128.053523
30
0.0
40
0.300000
50
90.000000
51
180.000000
0
LINE
8
0
10
171.496224
20
128.053523
30
0.0
11
171.496224
21
123.753550
31
0.0
0
ARC
8
0
10
171.796224
20
123.753550
30
0.0
40
0.300000
50
180.000000
51
270.000000
0
LINE
8
0
10
171.796224
20
123.453550
30
0.0
11
179.796224
21
123.453550
31
0.0
0
ARC
8
0
10
179.796224
20
123.753550
30
0.0
40
0.300000
50
270.000000
51
0.000000
0
LINE
8
0
10
180.096224
20
123.753550
30
0.0
11
180.096224
21
128.053523
31
0.0
0
ARC
8
0
10
179.796224
20
128.053523
30
0.0
40
0.300000
50
0.000000
51
90.000000
0
LINE
8
0
10
179.796224
20
128.353523
30
0.0
11
178.896224
21
128.353523
31
0.0
0
ARC
8
0
10
178.896224
20
128.653523
30
0.0
40
0.300000
50
180.000000
51
270.000000
0
LINE
8
0
10
178.596224
20
128.653523
30
0.0
11
178.596224
21
129.553523
31
0.0
0
ARC
8
0
10
178.896224
20
129.553523
30
0.0
40
0.300000
50
90.000000
51
180.000000
0
LINE
8
0
10
178.896224
20
129.853523
30
0.0
11
179.796224
21
129.853523
31
0.0
0
ARC
8
0
10
179.796224
20
130.153523
30
0.0
40
0.300000
50
270.000000
51
0.000000
0
LINE
8
0
10
180.096224
20
130.153523
30
0.0
11
180.096224
21
172.153523
31
0.0
0
ARC
8
0
10
179.796224
20
172.153523
30
0.0
40
0.300000
50
0.000000
51
90.000000
0
LINE
8
0
10
179.796224
20
172.453523
30
0.0
11
171.796224
21
172.453523
31
0.0
0
ARC
8
0
10
171.796224
20
172.153523
30
0.0
40
0.300000
50
90.000000
51
180.000000
0
LINE
8
0
10
171.496224
20
172.153523
30
0.0
11
171.496224
21
130.153523
31
0.0
0
ARC
8
0
10
171.796224
20
130.153523
30
0.0
40
0.300000
50
180.000000
51
270.000000
0
LINE
8
0
10
171.796224
20
129.853523
30
0.0
11
172.696224
21
129.853523
31
0.0
0
ARC
8
0
10
172.696224
20
129.553523
30
0.0
40
0.300000
50
0.000000
51
90.000000
0
LINE
8
0
10
172.996224
20
129.553523
30
0.0
11
172.996224
21
128.653523
31
0.0
0
ARC
8
0
10
172.696224
20
128.653523
30
0.0
40
0.300000
50
270.000000
51
0.000000
0
LINE
8
0
10
182.425840
20
123.643865
30
0.0
11
184.156193
21
124.642899
31
0.0
0
ARC
8
0
10
184.756199
20
123.603672
30
0.0
40
1.200000
50
90.000000
51
120.000345
0
LINE
8
0
10
184.756199
20
124.803672
30
0.0
11
185.828025
21
124.803672
31
0.0
0
ARC
8
0
10
185.828025
20
124.503672
30
0.0
40
0.300000
50
35.885612
51
90.000000
0
LINE
8
0
10
186.071081
20
124.679523
30
0.0
11
186.599832
21
123.948696
31
0.0
0
ARC
8
0
10
186.437794
20
123.831462
30
0.0
40
0.200000
50
288.581915
51
35.885612
0
LINE
8
0
10
186.501526
20
123.641889
30
0.0
11
186.390091
21
123.604426
31
0.0
0
ARC
8
0
10
186.437890
20
123.462245
30
0.0
40
0.150000
50
108.581915
51
237.436866
0
LINE
8
0
10
186.357155
20
123.335825
30
0.0
11
186.742770
21
123.089564
31
0.0
0
ARC
8
0
10
186.904239
20
123.342404
30
0.0
40
0.300000
50
237.436866
51
270.000000
0
LINE
8
0
10
186.904289
20
123.042404
30
0.0
11
187.242222
21
123.042460
31
0.0
0
ARC
8
0
10
187.242171
20
123.342460
30
0.0
40
0.300000
50
270.000000
51
22.907135
0
LINE
8
0
10
187.518512
20
123.459232
30
0.0
11
187.243922
21
124.109053
31
0.0
0
ARC
8
0
10
187.704491
20
124.303672
30
0.0
40
0.500000
50
90.000000
51
202.907135
0
LINE
8
0
10
187.704490
20
124.803672
30
0.0
11
200.906283
21
124.803683
31
0.0
0
ARC
8
0
10
200.906283
20
124.303683
30
0.0
40
0.500000
50
336.000000
51
90.000000
0
LINE
8
0
10
201.363056
20
124.100315
30
0.0
11
200.911259
21
123.085562
31
0.0
0
ARC
8
0
10
201.185323
20
122.963541
30
0.0
40
0.300000
50
156.000000
51
212.065684
0
ARC
8
0
10
200.676859
20
122.645007
30
0.0
40
0.300000
50
215.548433
51
32.065684
0
ARC
8
0
10
200.188684
20
122.296172
30
0.0
40
0.300000
50
35.548433
51
90.000000
0
LINE
8
0
10
200.188684
20
122.596172
30
0.0
11
188.730498
21
122.595420
31
0.0
0
ARC
8
0
10
188.730478
20
122.895420
30
0.0
40
0.300000
50
197.834934
51
270.000000
0
LINE
8
0
10
188.444896
20
122.803537
30
0.0
11
188.131045
21
123.779022
31
0.0
0
ARC
8
0
10
187.845462
20
123.687140
30
0.0
40
0.300000
50
17.834934
51
198.015506
0
LINE
8
0
10
187.560171
20
123.594357
30
0.0
11
187.757053
21
122.988974
31
0.0
0
ARC
8
0
10
187.471761
20
122.896192
30
0.0
40
0.300000
50
270.000000
51
18.015506
0
LINE
8
0
10
187.471585
20
122.596192
30
0.0
11
186.987391
21
122.596475
31
0.0
0
ARC
8
0
10
186.987566
20
122.896475
30
0.0
40
0.300000
50
217.522757
51
270.000000
0
LINE
8
0
10
186.749633
20
122.713752
30
0.0
11
186.279371
21
123.326105
31
0.0
0
ARC
8
0
10
186.437994
20
123.447920
30
0.0
40
0.200000
50
107.128706
51
217.522757
0
LINE
8
0
10
186.379090
20
123.639049
30
0.0
11
186.493103
21
123.674187
31
0.0
0
ARC
8
0
10
186.448925
20
123.817534
30
0.0
40
0.150000
50
287.128706
51
35.002354
0
LINE
8
0
10
186.571795
20
123.903575
30
0.0
11
186.104953
21
124.570236
31
0.0
0
ARC
8
0
10
185.859214
20
124.398153
30
0.0
40
0.300000
50
35.002354
51
90.000000
0
LINE
8
0
10
185.862713
20
124.698133
30
0.0
11
185.356260
21
124.704040
31
0.0
0
ARC
8
0
10
185.352760
20
124.404061
30
0.0
40
0.300000
50
90.000000
51
204.000000
0
LINE
8
0
10
185.078697
20
124.282040
30
0.0
11
186.094663
21
122.000143
31
0.0
0
ARC
8
0
10
186.551436
20
122.203511
30
0.0
40
0.500000
50
204.000000
51
270.000000
0
LINE
8
0
10
186.551436
20
121.703511
30
0.0
11
200.841368
21
121.703523
31
0.0
0
ARC
8
0
10
200.841368
20
122.203523
30
0.0
40
0.500000
50
270.000000
51
336.000000
0
LINE
8
0
10
201.298141
20
122.000154
30
0.0
11
202.466230
21
124.623725
31
0.0
0
ARC
8
0
10
202.738563
20
124.497889
30
0.0
40
0.300000
50
83.495163
51
155.200000
0
ARC
8
0
10
202.636605
20
123.603683
30
0.0
40
1.200000
50
59.999655
51
83.495163
0
LINE
8
0
10
203.236611
20
124.642910
30
0.0
11
204.966964
21
123.643877
31
0.0
0
ARC
8
0
10
205.116965
20
123.903683
30
0.0
40
0.300000
50
239.999655
51
270.000000
0
LINE
8
0
10
205.116965
20
123.603683
30
0.0
11
205.296579
21
123.603683
31
0.0
0
ARC
8
0
10
205.296579
20
124.003683
30
0.0
40
0.400000
50
270.000000
51
0.000000
0
LINE
8
0
10
205.696579
20
124.003683
30
0.0
11
205.696579
21
127.403683
31
0.0
0
ARC
8
0
10
205.296579
20
127.403683
30
0.0
40
0.400000
50
0.000000
51
90.000000
0
LINE
8
0
10
205.296579
20
127.803683
30
0.0
11
205.116964
21
127.803683
31
0.0
0
ARC
8
0
10
205.116964
20
127.503683
30
0.0
40
0.300000
50
90.000000
51
120.000000
0
LINE
8
0
10
204.966964
20
127.763491
30
0.0
11
203.236579
21
126.764453
31
0.0
0
ARC
8
0
10
202.636579
20
127.803683
30
0.0
40
1.200000
50
270.000000
51
300.000000
0
LINE
8
0
10
202.636581
20
126.603683
30
0.0
11
194.446402
21
126.603671
31
0.0
0
ARC
8
0
10
194.446402
20
126.803671
30
0.0
40
0.200000
50
180.000000
51
270.000000
0
LINE
8
0
10
194.246402
20
126.803671
30
0.0
11
194.246402
21
148.303672
31
0.0
0
ARC
8
0
10
193.946402
20
148.303672
30
0.0
40
0.300000
50
0.000000
51
90.000000
0
LINE
8
0
10
193.946402
20
148.603672
30
0.0
11
193.446402
21
148.603672
31
0.0
0
ARC
8
0
10
193.446402
20
148.303672
30
0.0
40
0.300000
50
90.000000
51
180.000000
0
LINE
8
0
10
193.146402
20
148.303672
30
0.0
11
193.146402
21
126.803671
31
0.0
0
ARC
8
0
10
192.946402
20
126.803671
30
0.0
40
0.200000
50
270.000000
51
0.000000
0
LINE
8
0
10
192.946402
20
126.603671
30
0.0
11
184.756224
21
126.603672
31
0.0
0
ARC
8
0
10
184.756224
20
127.803672
30
0.0
40
1.200000
50
240.000000
51
270.000000
0
LINE
8
0
10
184.156224
20
126.764441
30
0.0
11
182.425839
21
127.763479
31
0.0
0
ARC
8
0
10
182.275839
20
127.503672
30
0.0
40
0.300000
50
60.000000
51
90.000000
0
LINE
8
0
10
182.275839
20
127.803672
30
0.0
11
182.096224
21
127.803672
31
0.0
0
ARC
8
0
10
182.096224
20
127.403672
30
0.0
40
0.400000
50
90.000000
51
180.000000
0
LINE
8
0
10
181.696224
20
127.403672
30
0.0
11
181.696224
21
124.003672
31
0.0
0
ARC
8
0
10
182.096224
20
124.003672
30
0.0
40
0.400000
50
180.000000
51
270.000000
0
LINE
8
0
10
182.096224
20
123.603672
30
0.0
11
182.275838
21
123.603672
31
0.0
0
ARC
8
0
10
182.275838
20
123.903672
30
0.0
40
0.300000
50
270.000000
51
300.000345
0
ARC
8
0
10
232.696481
20
137.009405
30
0.0
40
0.300000
50
180.000000
51
255.000000
0
LINE
8
0
10
232.396481
20
137.009405
30
0.0
11
232.396481
21
137.652412
31
0.0
0
ARC
8
0
10
232.696481
20
137.652412
30
0.0
40
0.300000
50
90.000000
51
180.000000
0
LINE
8
0
10
232.696481
20
137.952412
30
0.0
11
234.596481
21
137.952412
31
0.0
0
ARC
8
0
10
234.596481
20
138.252412
30
0.0
40
0.300000
50
270.000000
51
0.000000
0
LINE
8
0
10
234.896481
20
138.252412
30
0.0
11
234.896481
21
168.452412
31
0.0
0
ARC
8
0
10
234.596481
20
168.452412
30
0.0
40
0.300000
50
0.000000
51
90.000000
0
LINE
8
0
10
234.596481
20
168.752412
30
0.0
11
203.096481
21
168.752412
31
0.0
0
ARC
8
0
10
203.096481
20
168.452412
30
0.0
40
0.300000
50
90.000000
51
180.000000
0
LINE
8
0
10
202.796481
20
168.452412
30
0.0
11
202.796481
21
138.252412
31
0.0
0
ARC
8
0
10
203.096481
20
138.252412
30
0.0
40
0.300000
50
180.000000
51
270.000000
0
LINE
8
0
10
203.096481
20
137.952412
30
0.0
11
204.996481
21
137.952412
31
0.0
0
ARC
8
0
10
204.996481
20
137.652412
30
0.0
40
0.300000
50
0.000000
51
90.000000
0
LINE
8
0
10
205.296481
20
137.652412
30
0.0
11
205.296481
21
136.955815
31
0.0
0
ARC
8
0
10
204.996481
20
136.955815
30
0.0
40
0.300000
50
285.000000
51
0.000000
0
LINE
8
0
10
205.074126
20
136.666037
30
0.0
11
203.018835
21
136.115324
31
0.0
0
ARC
8
0
10
203.096481
20
135.825546
30
0.0
40
0.300000
50
105.000000
51
180.000000
0
LINE
8
0
10
202.796481
20
135.825546
30
0.0
11
202.796481
21
130.254633
31
0.0
0
ARC
8
0
10
203.096481
20
130.254633
30
0.0
40
0.300000
50
180.000000
51
270.000000
0
LINE
8
0
10
203.096481
20
129.954633
30
0.0
11
206.801140
21
129.954633
31
0.0
0
ARC
8
0
10
206.801140
20
129.254633
30
0.0
40
0.700000
50
0.000000
51
90.000000
0
LINE
8
0
10
207.501140
20
129.254633
30
0.0
11
207.501140
21
123.753523
31
0.0
0
ARC
8
0
10
207.801140
20
123.753523
30
0.0
40
0.300000
50
180.000000
51
270.000000
0
LINE
8
0
10
207.801140
20
123.453523
30
0.0
11
225.846481
21
123.453523
31
0.0
0
ARC
8
0
10
225.846481
20
123.753523
30
0.0
40
0.300000
50
270.000000
51
0.000000
0
LINE
8
0
10
226.146481
20
123.753523
30
0.0
11
226.146481
21
129.653495
31
0.0
0
ARC
8
0
10
226.446481
20
129.653495
30
0.0
40
0.300000
50
90.000000
51
180.000000
0
LINE
8
0
10
226.446481
20
129.953495
30
0.0
11
234.596481
21
129.953495
31
0.0
0
ARC
8
0
10
234.596481
20
130.253495
30
0.0
40
0.300000
50
270.000000
51
0.000000
0
LINE
8
0
10
234.896481
20
130.253495
30
0.0
11
234.896481
21
135.879136
31
0.0
0
ARC
8
0
10
234.596481
20
135.879136
30
0.0
40
0.300000
50
0.000000
51
75.000000
0
LINE
8
0
10
234.674126
20
136.168913
30
0.0
11
232.618835
21
136.719627
31
0.0
0
ARC
8
0
10
218.596481
20
170.852412
30
0.0
40
0.300000
50
270.000000
51
0.000000
0
LINE
8
0
10
218.896481
20
170.852412
30
0.0
11
218.896481
21
176.853523
31
0.0
0
ARC
8
0
10
219.196481
20
176.853523
30
0.0
40
0.300000
50
90.000000
51
180.000000
0
LINE
8
0
10
219.196481
20
177.153523
30
0.0
11
221.645925
21
177.153523
31
0.0
0
ARC
8
0
10
221.645925
20
176.853523
30
0.0
40
0.300000
50
30.000000
51
90.000000
0
LINE
8
0
10
221.905733
20
177.003523
30
0.0
11
222.356288
21
176.223138
31
0.0
0
ARC
8
0
10
222.096481
20
176.073138
30
0.0
40
0.300000
50
0.000000
51
30.000000
0
LINE
8
0
10
222.396481
20
176.073138
30
0.0
11
222.396481
21
175.953523
31
0.0
0
ARC
8
0
10
222.096481
20
175.953523
30
0.0
40
0.300000
50
270.000000
51
0.000000
0
LINE
8
0
10
222.096481
20
175.653523
30
0.0
11
220.696481
21
175.653523
31
0.0
0
ARC
8
0
10
220.696481
20
175.353523
30
0.0
40
0.300000
50
90.000000
51
180.000000
0
LINE
8
0
10
220.396481
20
175.353523
30
0.0
11
220.396481
21
170.852412
31
0.0
0
ARC
8
0
10
220.696481
20
170.852412
30
0.0
40
0.300000
50
180.000000
51
270.000000
0
LINE
8
0
10
220.696481
20
170.552412
30
0.0
11
221.896481
21
170.552412
31
0.0
0
ARC
8
0
10
221.896481
20
170.852412
30
0.0
40
0.300000
50
270.000000
51
0.000000
0
LINE
8
0
10
222.196481
20
170.852412
30
0.0
11
222.196481
21
171.853923
31
0.0
0
ARC
8
0
10
222.496481
20
171.853923
30
0.0
40
0.300000
50
90.000000
51
180.000000
0
LINE
8
0
10
222.496481
20
172.153923
30
0.0
11
223.896481
21
172.153923
31
0.0
0
ARC
8
0
10
223.896481
20
171.853923
30
0.0
40
0.300000
50
0.000000
51
90.000000
0
LINE
8
0
10
224.196481
20
171.853923
30
0.0
11
224.196481
21
170.852412
31
0.0
0
ARC
8
0
10
224.496481
20
170.852412
30
0.0
40
0.300000
50
180.000000
51
270.000000
0
LINE
8
0
10
224.496481
20
170.552412
30
0.0
11
230.796481
21
170.552412
31
0.0
0
ARC
8
0
10
230.796481
20
170.852412
30
0.0
40
0.300000
50
270.000000
51
0.000000
0
LINE
8
0
10
231.096481
20
170.852412
30
0.0
11
231.096481
21
171.853923
31
0.0
0
ARC
8
0
10
231.396481
20
171.853923
30
0.0
40
0.300000
50
90.000000
51
180.000000
0
LINE
8
0
10
231.396481
20
172.153923
30
0.0
11
232.796481
21
172.153923
31
0.0
0
ARC
8
0
10
232.796481
20
171.853923
30
0.0
40
0.300000
50
0.000000
51
90.000000
0
LINE
8
0
10
233.096481
20
171.853923
30
0.0
11
233.096481
21
170.852412
31
0.0
0
ARC
8
0
10
233.396481
20
170.852412
30
0.0
40
0.300000
50
180.000000
51
270.000000
0
LINE
8
0
10
233.396481
20
170.552412
30
0.0
11
234.596481
21
170.552412
31
0.0
0
ARC
8
0
10
234.596481
20
170.852412
30
0.0
40
0.300000
50
270.000000
51
0.000000
0
LINE
8
0
10
234.896481
20
170.852412
30
0.0
11
234.896481
21
175.353523
31
0.0
0
ARC
8
0
10
234.596481
20
175.353523
30
0.0
40
0.300000
50
0.000000
51
90.000000
0
LINE
8
0
10
234.596481
20
175.653523
30
0.0
11
232.696481
21
175.653523
31
0.0
0
ARC
8
0
10
232.696481
20
175.953523
30
0.0
40
0.300000
50
180.000000
51
270.000000
0
LINE
8
0
10
232.396481
20
175.953523
30
0.0
11
232.396481
21
176.073138
31
0.0
0
ARC
8
0
10
232.696481
20
176.073138
30
0.0
40
0.300000
50
150.000000
51
180.000000
0
LINE
8
0
10
232.436673
20
176.223138
30
0.0
11
232.887228
21
177.003523
31
0.0
0
ARC
8
0
10
233.147036
20
176.853523
30
0.0
40
0.300000
50
90.000000
51
150.000000
0
LINE
8
0
10
233.147036
20
177.153523
30
0.0
11
236.396481
21
177.153523
31
0.0
0
ARC
8
0
10
236.396481
20
176.853523
30
0.0
40
0.300000
50
0.000000
51
90.000000
0
ARC
8
0
10
236.396481
20
176.853523
30
0.0
40
0.300000
50
0.000000
51
90.000000
0
ARC
8
0
10
236.396481
20
176.853523
30
0.0
40
0.300000
50
0.000000
51
90.000000
0
LINE
8
0
10
236.696481
20
176.853523
30
0.0
11
236.696481
21
128.653495
31
0.0
0
ARC
8
0
10
236.196481
20
128.653495
30
0.0
40
0.500000
50
270.000000
51
0.000000
0
LINE
8
0
10
236.196481
20
128.153495
30
0.0
11
228.246481
21
128.153495
31
0.0
0
ARC
8
0
10
228.246481
20
127.853495
30
0.0
40
0.300000
50
90.000000
51
180.000000
0
LINE
8
0
10
227.946481
20
127.853495
30
0.0
11
227.946481
21
117.453495
31
0.0
0
ARC
8
0
10
227.646481
20
117.453495
30
0.0
40
0.300000
50
270.000000
51
0.000000
0
LINE
8
0
10
227.646481
20
117.153495
30
0.0
11
226.646481
21
117.153495
31
0.0
0
ARC
8
0
10
226.646481
20
117.453495
30
0.0
40
0.300000
50
180.000000
51
270.000000
0
LINE
8
0
10
226.346481
20
117.453495
30
0.0
11
226.346481
21
121.353523
31
0.0
0
ARC
8
0
10
226.046481
20
121.353523
30
0.0
40
0.300000
50
0.000000
51
90.000000
0
LINE
8
0
10
226.046481
20
121.653523
30
0.0
11
205.474166
21
121.653523
31
0.0
0
LINE
8
0
10
205.397702
20
121.663431
30
0.0
11
205.474166
21
121.653523
31
0.0
0
LINE
8
0
10
205.397702
20
121.663431
30
0.0
11
204.435499
21
121.917053
31
0.0
0
ARC
8
0
10
204.345778
20
121.630784
30
0.0
40
0.300000
50
72.598279
51
150.367342
0
ARC
8
0
10
203.911171
20
121.878003
30
0.0
40
0.200000
50
270.000000
51
330.367342
0
LINE
8
0
10
203.909769
20
121.678007
30
0.0
11
202.358675
21
121.678007
31
0.0
0
ARC
8
0
10
202.358675
20
121.978007
30
0.0
40
0.300000
50
162.598279
51
270.000000
0
LINE
8
0
10
202.072405
20
122.067728
30
0.0
11
202.674370
21
123.988397
31
0.0
0
ARC
8
0
10
203.437755
20
123.749142
30
0.0
40
0.800000
50
117.598279
51
162.598279
0
LINE
8
0
10
203.067139
20
124.458116
30
0.0
11
203.348210
21
124.605045
31
0.0
0
ARC
8
0
10
203.440864
20
124.427801
30
0.0
40
0.200000
50
0.000000
51
117.598279
0
LINE
8
0
10
203.640688
20
124.419420
30
0.0
11
203.628591
21
124.130999
31
0.0
0
LINE
8
0
10
203.628591
20
124.130999
30
0.0
11
205.336688
21
123.046935
31
0.0
0
ARC
8
0
10
205.658199
20
123.553523
30
0.0
40
0.600000
50
237.598279
51
270.000000
0
LINE
8
0
10
205.658199
20
122.953523
30
0.0
11
205.696481
21
122.953523
31
0.0
0
ARC
8
0
10
205.596481
20
123.236365
30
0.0
40
0.300000
50
289.471221
51
70.528779
0
LINE
8
0
10
205.696481
20
123.519208
30
0.0
11
205.696481
21
127.453523
31
0.0
0
LINE
8
0
10
205.696481
20
127.453523
30
0.0
11
205.696481
21
127.553523
31
0.0
0
ARC
8
0
10
205.396481
20
127.553523
30
0.0
40
0.300000
50
0.000000
51
90.000000
0
LINE
8
0
10
205.396481
20
127.853523
30
0.0
11
205.180594
21
127.853523
31
0.0
0
ARC
8
0
10
205.180594
20
127.553523
30
0.0
40
0.300000
50
90.000000
51
121.324705
0
LINE
8
0
10
205.024628
20
127.809793
30
0.0
11
203.496481
21
126.879762
31
0.0
0
ARC
8
0
10
203.396481
20
127.052967
30
0.0
40
0.200000
50
220.000000
51
300.000000
0
LINE
8
0
10
203.243272
20
126.924410
30
0.0
11
201.756430
21
128.746359
31
0.0
0
ARC
8
0
10
201.526617
20
128.553523
30
0.0
40
0.300000
50
40.000000
51
90.000000
0
LINE
8
0
10
201.526617
20
128.853523
30
0.0
11
198.996481
21
128.853523
31
0.0
0
ARC
8
0
10
198.996481
20
129.153523
30
0.0
40
0.300000
50
180.000000
51
270.000000
0
LINE
8
0
10
198.696481
20
129.153523
30
0.0
11
198.696481
21
130.553523
31
0.0
0
ARC
8
0
10
198.996481
20
130.553523
30
0.0
40
0.300000
50
90.000000
51
180.000000
0
LINE
8
0
10
198.996481
20
130.853523
30
0.0
11
200.896481
21
130.853523
31
0.0
0
ARC
8
0
10
200.896481
20
131.153523
30
0.0
40
0.300000
50
270.000000
51
0.000000
0
LINE
8
0
10
201.196481
20
131.153523
30
0.0
11
201.196481
21
169.029394
31
0.0
0
ARC
8
0
10
202.196481
20
169.029394
30
0.0
40
1.000000
50
140.000000
51
180.000000
0
LINE
8
0
10
201.430436
20
169.672182
30
0.0
11
203.243272
21
171.882635
31
0.0
0
ARC
8
0
10
203.396481
20
171.754078
30
0.0
40
0.200000
50
60.000000
51
140.000000
0
LINE
8
0
10
203.496481
20
171.927283
30
0.0
11
205.024628
21
170.997252
31
0.0
0
ARC
8
0
10
205.180594
20
171.253523
30
0.0
40
0.300000
50
238.675295
51
270.000000
0
LINE
8
0
10
205.180594
20
170.953523
30
0.0
11
205.396481
21
170.953523
31
0.0
0
ARC
8
0
10
205.396481
20
171.253523
30
0.0
40
0.300000
50
270.000000
51
0.000000
0
LINE
8
0
10
205.696481
20
171.253523
30
0.0
11
205.696481
21
175.287837
31
0.0
0
ARC
8
0
10
205.596481
20
175.570680
30
0.0
40
0.300000
50
289.471221
51
70.528779
0
LINE
8
0
10
205.696481
20
175.853523
30
0.0
11
205.658199
21
175.853523
31
0.0
0
ARC
8
0
10
205.658199
20
175.253523
30
0.0
40
0.600000
50
90.000000
51
122.401721
0
LINE
8
0
10
205.336688
20
175.760110
30
0.0
11
203.628591
21
174.676046
31
0.0
0
LINE
8
0
10
203.628591
20
174.676046
30
0.0
11
203.640688
21
174.387625
31
0.0
0
ARC
8
0
10
203.440864
20
174.379244
30
0.0
40
0.200000
50
242.401721
51
0.000000
0
LINE
8
0
10
203.348210
20
174.202000
30
0.0
11
203.067139
21
174.348929
31
0.0
0
ARC
8
0
10
203.437755
20
175.057903
30
0.0
40
0.800000
50
197.401721
51
242.401721
0
LINE
8
0
10
202.674370
20
174.818648
30
0.0
11
202.072405
21
176.739317
31
0.0
0
ARC
8
0
10
202.358675
20
176.829038
30
0.0
40
0.300000
50
90.000000
51
197.401721
0
LINE
8
0
10
202.358675
20
177.129038
30
0.0
11
203.909769
21
177.129038
31
0.0
0
ARC
8
0
10
203.911171
20
176.929042
30
0.0
40
0.200000
50
29.632658
51
90.000000
0
ARC
8
0
10
204.345778
20
177.176261
30
0.0
40
0.300000
50
209.632658
51
287.401721
0
LINE
8
0
10
204.435499
20
176.889992
30
0.0
11
205.397702
21
177.143614
31
0.0
0
LINE
8
0
10
205.474166
20
177.153523
30
0.0
11
205.397702
21
177.143614
31
0.0
0
LINE
8
0
10
205.474166
20
177.153523
30
0.0
11
207.196481
21
177.153523
31
0.0
0
ARC
8
0
10
207.196481
20
176.853523
30
0.0
40
0.300000
50
0.000000
51
90.000000
0
LINE
8
0
10
207.496481
20
176.853523
30
0.0
11
207.496481
21
170.852412
31
0.0
0
ARC
8
0
10
207.796481
20
170.852412
30
0.0
40
0.300000
50
180.000000
51
270.000000
0
LINE
8
0
10
207.796481
20
170.552412
30
0.0
11
218.596481
21
170.552412
31
0.0
0
LINE
8
0
10
204.967061
20
175.263174
30
0.0
11
203.236708
21
174.264141
31
0.0
0
ARC
8
0
10
202.636702
20
175.303367
30
0.0
40
1.200000
50
270.000000
51
300.000345
0
LINE
8
0
10
202.636702
20
174.103367
30
0.0
11
201.564877
21
174.103367
31
0.0
0
ARC
8
0
10
201.564877
20
174.403367
30
0.0
40
0.300000
50
215.885612
51
270.000000
0
LINE
8
0
10
201.321820
20
174.227517
30
0.0
11
200.793070
21
174.958343
31
0.0
0
ARC
8
0
10
200.955107
20
175.075577
30
0.0
40
0.200000
50
108.581915
51
215.885612
0
LINE
8
0
10
200.891375
20
175.265151
30
0.0
11
201.002811
21
175.302614
31
0.0
0
ARC
8
0
10
200.955012
20
175.444794
30
0.0
40
0.150000
50
288.581915
51
57.436866
0
LINE
8
0
10
201.035746
20
175.571214
30
0.0
11
200.650131
21
175.817475
31
0.0
0
ARC
8
0
10
200.488662
20
175.564636
30
0.0
40
0.300000
50
57.436866
51
90.000000
0
LINE
8
0
10
200.488612
20
175.864636
30
0.0
11
200.150679
21
175.864579
31
0.0
0
ARC
8
0
10
200.150730
20
175.564579
30
0.0
40
0.300000
50
90.000000
51
202.907135
0
LINE
8
0
10
199.874389
20
175.447807
30
0.0
11
200.148979
21
174.797987
31
0.0
0
ARC
8
0
10
199.688411
20
174.603367
30
0.0
40
0.500000
50
270.000000
51
22.907135
0
LINE
8
0
10
199.688411
20
174.103367
30
0.0
11
186.486618
21
174.103356
31
0.0
0
ARC
8
0
10
186.486618
20
174.603356
30
0.0
40
0.500000
50
156.000000
51
270.000000
0
LINE
8
0
10
186.029845
20
174.806724
30
0.0
11
186.481642
21
175.821477
31
0.0
0
ARC
8
0
10
186.207578
20
175.943498
30
0.0
40
0.300000
50
336.000000
51
32.065684
0
ARC
8
0
10
186.716042
20
176.262033
30
0.0
40
0.300000
50
35.548433
51
212.065684
0
ARC
8
0
10
187.204217
20
176.610867
30
0.0
40
0.300000
50
215.548433
51
270.000000
0
LINE
8
0
10
187.204217
20
176.310867
30
0.0
11
198.662403
21
176.311620
31
0.0
0
ARC
8
0
10
198.662423
20
176.011620
30
0.0
40
0.300000
50
17.834934
51
90.000000
0
LINE
8
0
10
198.948006
20
176.103502
30
0.0
11
199.261856
21
175.128017
31
0.0
0
ARC
8
0
10
199.547439
20
175.219900
30
0.0
40
0.300000
50
197.834934
51
18.015506
0
LINE
8
0
10
199.832731
20
175.312682
30
0.0
11
199.635848
21
175.918065
31
0.0
0
ARC
8
0
10
199.921140
20
176.010848
30
0.0
40
0.300000
50
90.000000
51
198.015506
0
LINE
8
0
10
199.921316
20
176.310848
30
0.0
11
200.405510
21
176.310564
31
0.0
0
ARC
8
0
10
200.405335
20
176.010564
30
0.0
40
0.300000
50
37.522757
51
90.000000
0
LINE
8
0
10
200.643268
20
176.193287
30
0.0
11
201.113530
21
175.580934
31
0.0
0
ARC
8
0
10
200.954908
20
175.459119
30
0.0
40
0.200000
50
287.128706
51
37.522757
0
LINE
8
0
10
201.013811
20
175.267990
30
0.0
11
200.899798
21
175.232852
31
0.0
0
ARC
8
0
10
200.943976
20
175.089505
30
0.0
40
0.150000
50
107.128706
51
215.002354
0
LINE
8
0
10
200.821107
20
175.003464
30
0.0
11
201.287948
21
174.336803
31
0.0
0
ARC
8
0
10
201.533687
20
174.508886
30
0.0
40
0.300000
50
215.002354
51
270.000000
0
LINE
8
0
10
201.530188
20
174.208906
30
0.0
11
202.036642
21
174.202999
31
0.0
0
ARC
8
0
10
202.040141
20
174.502978
30
0.0
40
0.300000
50
270.000000
51
24.000000
0
LINE
8
0
10
202.314204
20
174.624999
30
0.0
11
201.298238
21
176.906897
31
0.0
0
ARC
8
0
10
200.841466
20
176.703528
30
0.0
40
0.500000
50
24.000000
51
90.000000
0
LINE
8
0
10
200.841465
20
177.203528
30
0.0
11
186.551533
21
177.203517
31
0.0
0
ARC
8
0
10
186.551533
20
176.703517
30
0.0
40
0.500000
50
90.000000
51
156.000000
0
LINE
8
0
10
186.094761
20
176.906885
30
0.0
11
184.926672
21
174.283314
31
0.0
0
ARC
8
0
10
184.654338
20
174.409150
30
0.0
40
0.300000
50
263.495163
51
335.200000
0
ARC
8
0
10
184.756297
20
175.303356
30
0.0
40
1.200000
50
239.999655
51
263.495163
0
LINE
8
0
10
184.156290
20
174.264129
30
0.0
11
182.425938
21
175.263163
31
0.0
0
ARC
8
0
10
182.275936
20
175.003356
30
0.0
40
0.300000
50
59.999655
51
90.000000
0
LINE
8
0
10
182.275936
20
175.303356
30
0.0
11
182.096322
21
175.303356
31
0.0
0
ARC
8
0
10
182.096322
20
174.903356
30
0.0
40
0.400000
50
90.000000
51
180.000000
0
LINE
8
0
10
181.696322
20
174.903356
30
0.0
11
181.696322
21
171.503356
31
0.0
0
ARC
8
0
10
182.096322
20
171.503356
30
0.0
40
0.400000
50
180.000000
51
270.000000
0
LINE
8
0
10
182.096322
20
171.103356
30
0.0
11
182.275937
21
171.103356
31
0.0
0
ARC
8
0
10
182.275937
20
171.403356
30
0.0
40
0.300000
50
270.000000
51
300.000000
0
LINE
8
0
10
182.425937
20
171.143548
30
0.0
11
184.156322
21
172.142586
31
0.0
0
ARC
8
0
10
184.756322
20
171.103356
30
0.0
40
1.200000
50
90.000000
51
120.000000
0
LINE
8
0
10
184.756320
20
172.303356
30
0.0
11
192.946499
21
172.303368
31
0.0
0
ARC
8
0
10
192.946499
20
172.103368
30
0.0
40
0.200000
50
0.000000
51
90.000000
0
LINE
8
0
10
193.146499
20
172.103368
30
0.0
11
193.146499
21
150.603367
31
0.0
0
ARC
8
0
10
193.446499
20
150.603367
30
0.0
40
0.300000
50
180.000000
51
270.000000
0
LINE
8
0
10
193.446499
20
150.303367
30
0.0
11
193.946499
21
150.303367
31
0.0
0
ARC
8
0
10
193.946499
20
150.603367
30
0.0
40
0.300000
50
270.000000
51
0.000000
0
LINE
8
0
10
194.246499
20
150.603367
30
0.0
11
194.246499
21
172.103368
31
0.0
0
ARC
8
0
10
194.446499
20
172.103368
30
0.0
40
0.200000
50
90.000000
51
180.000000
0
LINE
8
0
10
194.446499
20
172.303368
30
0.0
11
202.636677
21
172.303367
31
0.0
0
ARC
8
0
10
202.636677
20
171.103367
30
0.0
40
1.200000
50
60.000000
51
90.000000
0
LINE
8
0
10
203.236677
20
172.142598
30
0.0
11
204.967062
21
171.143560
31
0.0
0
ARC
8
0
10
205.117062
20
171.403367
30
0.0
40
0.300000
50
240.000000
51
270.000000
0
LINE
8
0
10
205.117062
20
171.103367
30
0.0
11
205.296677
21
171.103367
31
0.0
0
ARC
8
0
10
205.296677
20
171.503367
30
0.0
40
0.400000
50
270.000000
51
0.000000
0
LINE
8
0
10
205.696677
20
171.503367
30
0.0
11
205.696677
21
174.903367
31
0.0
0
ARC
8
0
10
205.296677
20
174.903367
30
0.0
40
0.400000
50
0.000000
51
90.000000
0
LINE
8
0
10
205.296677
20
175.303367
30
0.0
11
205.117063
21
175.303367
31
0.0
0
ARC
8
0
10
205.117063
20
175.003367
30
0.0
40
0.300000
50
90.000000
51
120.000345
0
ATTDEF
8
0
10
179.996224
20
177.153523
30
0.0
40
3.5
1

3

2
VC_START
70
0
0
ATTDEF
8
0
10
185.034030
20
121.678007
30
0.0
40
3.5
1

3

2
VC_END
70
0
0
ATTDEF
8
0
10
169.696224
20
103.153550
30
0.0
40
3.5
1

3

2
DESC:T Anta
70
0
0
ATTDEF
8
0
10
169.696224
20
103.153550
30
0.0
40
3.5
1

3

2
DENS:2.180000
70
0
0
ATTDEF
8
0
10
169.696224
20
103.153550
30
0.0
40
3.5
1

3

2
TDEV:0.000000
70
0
0
ATTDEF
8
0
10
169.696224
20
103.153550
30
0.0
40
3.5
1

3

2
TDEV2:0.000000
70
0
0
ATTDEF
8
0
10
169.696224
20
103.153550
30
0.0
40
3.5
1

3

2
TDEV3:0.000000
70
0
0
ATTDEF
8
0
10
169.696224
20
103.153550
30
0.0
40
3.5
1

3

2
TDEV4:0.000000
70
0
0
ATTDEF
8
0
10
169.696224
20
103.153550
30
0.0
40
3.5
1

3

2
TDEV5:0.000000
70
0
0
ATTDEF
8
0
10
169.696224
20
103.153550
30
0.0
40
3.5
1

3

2
FRONT_VIEW
70
0
0
ATTDEF
8
0
10
169.696224
20
103.153550
30
0.0
40
3.5
1

3

2
BL01:6800.000000,,1
70
0
0
ATTDEF
8
0
10
169.696224
20
103.153550
30
0.0
40
3.5
1

3

2
OPTI:500.000000,1,0,3000.000000,6500.000000,500.000000,0,0.000000,0
70
0
0
ATTDEF
8
0
10
169.696224
20
103.153550
30
0.0
40
3.5
1

3

2
GLASS_MIN:0.000000
70
0
0
ATTDEF
8
0
10
169.696224
20
103.153550
30
0.0
40
3.5
1

3

2
GLASS_MAX:0.000000
70
0
0
ATTDEF
8
0
10
169.696224
20
103.153550
30
0.0
40
3.5
1

3

2
JX:0.000000
70
0
0
ATTDEF
8
0
10
169.696224
20
103.153550
30
0.0
40
3.5
1

3

2
WX:0.000000
70
0
0
ATTDEF
8
0
10
169.696224
20
103.153550
30
0.0
40
3.5
1

3

2
JY:0.000000
70
0
0
ATTDEF
8
0
10
169.696224
20
103.153550
30
0.0
40
3.5
1

3

2
WY:0.000000
70
0
0
ATTDEF
8
0
10
169.696224
20
103.153550
30
0.0
40
3.5
1

3

2
FP_LCS_ORIG
70
0
0
ATTDEF
8
0
10
179.696224
20
103.153550
30
0.0
40
3.5
1

3

2
FP_LCS_HOT
70
0
0
ATTDEF
8
0
10
169.696224
20
113.153550
30
0.0
40
3.5
1

3

2
FP_LCS_INTERN
70
0
0
ATTDEF
8
0
10
169.696224
20
103.153550
30
0.0
40
3.5
1

3

2
PANE_WIDTH:62.000000
70
0
0
ENDSEC
0
EOF
