0
SECTION
2
ENTITIES
0
LINE
8
0
10
74.150258
20
20.600000
30
0.0
11
74.150258
21
32.725613
31
0.0
0
ARC
8
0
10
73.850258
20
32.725613
30
0.0
40
0.300000
50
360.000000
51
75.000000
0
LINE
8
0
10
73.927904
20
33.015391
30
0.0
11
71.872612
21
33.566105
31
0.0
0
ARC
8
0
10
71.950258
20
33.855882
30
0.0
40
0.300000
50
180.000000
51
255.000000
0
LINE
8
0
10
71.650258
20
33.855882
30
0.0
11
71.650258
21
34.498889
31
0.0
0
ARC
8
0
10
71.950258
20
34.498889
30
0.0
40
0.300000
50
90.000000
51
180.000000
0
LINE
8
0
10
71.950258
20
34.798889
30
0.0
11
73.850258
21
34.798889
31
0.0
0
ARC
8
0
10
73.850258
20
35.098889
30
0.0
40
0.300000
50
270.000000
51
360.000000
0
LINE
8
0
10
74.150258
20
35.098889
30
0.0
11
74.150258
21
65.298889
31
0.0
0
ARC
8
0
10
73.850258
20
65.298889
30
0.0
40
0.300000
50
360.000000
51
90.000000
0
LINE
8
0
10
73.850258
20
65.598889
30
0.0
11
42.350258
21
65.598889
31
0.0
0
ARC
8
0
10
42.350258
20
65.298889
30
0.0
40
0.300000
50
90.000000
51
180.000000
0
LINE
8
0
10
42.050258
20
65.298889
30
0.0
11
42.050258
21
35.098889
31
0.0
0
ARC
8
0
10
42.350258
20
35.098889
30
0.0
40
0.300000
50
180.000000
51
270.000000
0
LINE
8
0
10
42.350258
20
34.798889
30
0.0
11
44.250258
21
34.798889
31
0.0
0
ARC
8
0
10
44.250258
20
34.498889
30
0.0
40
0.300000
50
360.000000
51
90.000000
0
LINE
8
0
10
44.550258
20
34.498889
30
0.0
11
44.550258
21
33.802293
31
0.0
0
ARC
8
0
10
44.250258
20
33.802293
30
0.0
40
0.300000
50
285.000000
51
360.000000
0
LINE
8
0
10
44.327904
20
33.512515
30
0.0
11
42.272612
21
32.961801
31
0.0
0
ARC
8
0
10
42.350258
20
32.672023
30
0.0
40
0.300000
50
105.000000
51
180.000000
0
LINE
8
0
10
42.050258
20
32.672023
30
0.0
11
42.050258
21
27.201111
31
0.0
0
ARC
8
0
10
42.350258
20
27.201111
30
0.0
40
0.300000
50
180.000000
51
270.000000
0
LINE
8
0
10
42.350258
20
26.901111
30
0.0
11
46.054918
21
26.901111
31
0.0
0
ARC
8
0
10
46.054918
20
26.201111
30
0.0
40
0.700000
50
360.000000
51
90.000000
0
LINE
8
0
10
46.754918
20
26.201111
30
0.0
11
46.754918
21
20.600000
31
0.0
0
ARC
8
0
10
47.054918
20
20.600000
30
0.0
40
0.300000
50
180.000000
51
270.000000
0
LINE
8
0
10
47.054918
20
20.300000
30
0.0
11
73.850258
21
20.300000
31
0.0
0
ARC
8
0
10
73.850258
20
20.600000
30
0.0
40
0.300000
50
270.000000
51
360.000000
0
ARC
8
0
10
71.750258
20
0.300000
30
0.0
40
0.300000
50
180.000000
51
270.000000
0
LINE
8
0
10
71.450258
20
0.300000
30
0.0
11
71.450258
21
1.800000
31
0.0
0
ARC
8
0
10
72.150258
20
1.800000
30
0.0
40
0.700000
50
90.000000
51
180.000000
0
ARC
8
0
10
72.150258
20
2.200000
30
0.0
40
0.300000
50
360.000000
51
90.000000
0
LINE
8
0
10
72.450258
20
2.200000
30
0.0
11
72.450258
21
1.500000
31
0.0
0
ARC
8
0
10
72.750258
20
1.500000
30
0.0
40
0.300000
50
180.000000
51
270.000000
0
LINE
8
0
10
72.750258
20
1.200000
30
0.0
11
73.950258
21
1.200000
31
0.0
0
ARC
8
0
10
73.950258
20
1.900000
30
0.0
40
0.700000
50
270.000000
51
360.000000
0
LINE
8
0
10
74.650258
20
1.900000
30
0.0
11
74.650258
21
8.100000
31
0.0
0
ARC
8
0
10
73.950258
20
8.100000
30
0.0
40
0.700000
50
360.000000
51
90.000000
0
LINE
8
0
10
73.950258
20
8.800000
30
0.0
11
72.750258
21
8.800000
31
0.0
0
ARC
8
0
10
72.750258
20
8.500000
30
0.0
40
0.300000
50
90.000000
51
180.000000
0
LINE
8
0
10
72.450258
20
8.500000
30
0.0
11
72.450258
21
7.800000
31
0.0
0
ARC
8
0
10
72.150258
20
7.800000
30
0.0
40
0.300000
50
270.000000
51
360.000000
0
ARC
8
0
10
72.150258
20
8.200000
30
0.0
40
0.700000
50
180.000000
51
270.000000
0
LINE
8
0
10
71.450258
20
8.200000
30
0.0
11
71.450258
21
9.700000
31
0.0
0
ARC
8
0
10
71.750258
20
9.700000
30
0.0
40
0.300000
50
90.000000
51
180.000000
0
LINE
8
0
10
71.750258
20
10.000000
30
0.0
11
73.850258
21
10.000000
31
0.0
0
ARC
8
0
10
73.850258
20
10.300000
30
0.0
40
0.300000
50
270.000000
51
360.000000
0
LINE
8
0
10
74.150258
20
10.300000
30
0.0
11
74.150258
21
17.500000
31
0.0
0
ARC
8
0
10
73.150258
20
17.500000
30
0.0
40
1.000000
50
360.000000
51
90.000000
0
LINE
8
0
10
73.150258
20
18.500000
30
0.0
11
44.727943
21
18.500000
31
0.0
0
LINE
8
0
10
44.651479
20
18.509908
30
0.0
11
44.727943
21
18.500000
31
0.0
0
LINE
8
0
10
44.651479
20
18.509908
30
0.0
11
43.689276
21
18.763531
31
0.0
0
ARC
8
0
10
43.599555
20
18.477262
30
0.0
40
0.300000
50
72.598279
51
150.367342
0
ARC
8
0
10
43.164949
20
18.724480
30
0.0
40
0.200000
50
270.000000
51
330.367342
0
LINE
8
0
10
43.163546
20
18.524485
30
0.0
11
41.612452
21
18.524485
31
0.0
0
ARC
8
0
10
41.612452
20
18.824485
30
0.0
40
0.300000
50
162.598279
51
270.000000
0
LINE
8
0
10
41.326183
20
18.914206
30
0.0
11
41.928147
21
20.834875
31
0.0
0
ARC
8
0
10
42.691532
20
20.595619
30
0.0
40
0.800000
50
117.598279
51
162.598279
0
LINE
8
0
10
42.320917
20
21.304593
30
0.0
11
42.601987
21
21.451522
31
0.0
0
ARC
8
0
10
42.694641
20
21.274279
30
0.0
40
0.200000
50
360.000000
51
117.598279
0
LINE
8
0
10
42.894465
20
21.265898
30
0.0
11
42.882368
21
20.977476
31
0.0
0
LINE
8
0
10
42.882368
20
20.977476
30
0.0
11
44.590465
21
19.893413
31
0.0
0
ARC
8
0
10
44.911976
20
20.400000
30
0.0
40
0.600000
50
237.598279
51
270.000000
0
LINE
8
0
10
44.911976
20
19.800000
30
0.0
11
44.950258
21
19.800000
31
0.0
0
ARC
8
0
10
44.850258
20
20.082843
30
0.0
40
0.300000
50
289.471221
51
70.528779
0
LINE
8
0
10
44.950258
20
20.365686
30
0.0
11
44.950258
21
24.300000
31
0.0
0
LINE
8
0
10
44.950258
20
24.300000
30
0.0
11
44.950258
21
24.400000
31
0.0
0
ARC
8
0
10
44.650258
20
24.400000
30
0.0
40
0.300000
50
360.000000
51
90.000000
0
LINE
8
0
10
44.650258
20
24.700000
30
0.0
11
44.350258
21
24.700000
31
0.0
0
LINE
8
0
10
44.350258
20
24.700000
30
0.0
11
42.750258
21
23.776240
31
0.0
0
ARC
8
0
10
42.650258
20
23.949445
30
0.0
40
0.200000
50
220.000000
51
300.000000
0
LINE
8
0
10
42.497049
20
23.820887
30
0.0
11
40.520445
21
26.176513
31
0.0
0
ARC
8
0
10
40.750258
20
26.369349
30
0.0
40
0.300000
50
180.000000
51
220.000000
0
LINE
8
0
10
40.450258
20
26.369349
30
0.0
11
40.450258
21
66.130651
31
0.0
0
ARC
8
0
10
40.750258
20
66.130651
30
0.0
40
0.300000
50
140.000000
51
180.000000
0
LINE
8
0
10
40.520445
20
66.323488
30
0.0
11
42.497049
21
68.679113
31
0.0
0
ARC
8
0
10
42.650258
20
68.550555
30
0.0
40
0.200000
50
60.000000
51
140.000000
0
LINE
8
0
10
42.750258
20
68.723761
30
0.0
11
44.350258
21
67.800000
31
0.0
0
LINE
8
0
10
44.350258
20
67.800000
30
0.0
11
44.650258
21
67.800000
31
0.0
0
ARC
8
0
10
44.650258
20
68.100000
30
0.0
40
0.300000
50
270.000000
51
360.000000
0
LINE
8
0
10
44.950258
20
68.100000
30
0.0
11
44.950258
21
72.134315
31
0.0
0
ARC
8
0
10
44.850258
20
72.417157
30
0.0
40
0.300000
50
289.471221
51
70.528779
0
LINE
8
0
10
44.950258
20
72.700000
30
0.0
11
44.911976
21
72.700000
31
0.0
0
ARC
8
0
10
44.911976
20
72.100000
30
0.0
40
0.600000
50
90.000000
51
122.401721
0
LINE
8
0
10
44.590465
20
72.606587
30
0.0
11
42.882368
21
71.522524
31
0.0
0
LINE
8
0
10
42.882368
20
71.522524
30
0.0
11
42.894465
21
71.234102
31
0.0
0
ARC
8
0
10
42.694641
20
71.225721
30
0.0
40
0.200000
50
242.401721
51
360.000000
0
LINE
8
0
10
42.601987
20
71.048478
30
0.0
11
42.320917
21
71.195407
31
0.0
0
ARC
8
0
10
42.691532
20
71.904381
30
0.0
40
0.800000
50
197.401721
51
242.401721
0
LINE
8
0
10
41.928147
20
71.665126
30
0.0
11
41.326183
21
73.585794
31
0.0
0
ARC
8
0
10
41.612452
20
73.675515
30
0.0
40
0.300000
50
90.000000
51
197.401721
0
LINE
8
0
10
41.612452
20
73.975515
30
0.0
11
43.163546
21
73.975515
31
0.0
0
ARC
8
0
10
43.164949
20
73.775520
30
0.0
40
0.200000
50
29.632658
51
90.000000
0
ARC
8
0
10
43.599555
20
74.022739
30
0.0
40
0.300000
50
209.632658
51
287.401721
0
LINE
8
0
10
43.689276
20
73.736469
30
0.0
11
44.651479
21
73.990092
31
0.0
0
LINE
8
0
10
44.727943
20
74.000000
30
0.0
11
44.651479
21
73.990092
31
0.0
0
LINE
8
0
10
44.727943
20
74.000000
30
0.0
11
46.354918
21
74.000000
31
0.0
0
ARC
8
0
10
46.354918
20
73.700000
30
0.0
40
0.300000
50
360.000000
51
90.000000
0
LINE
8
0
10
46.654918
20
73.700000
30
0.0
11
46.654918
21
67.698889
31
0.0
0
ARC
8
0
10
46.954918
20
67.698889
30
0.0
40
0.300000
50
180.000000
51
270.000000
0
LINE
8
0
10
46.954918
20
67.398889
30
0.0
11
57.850258
21
67.398889
31
0.0
0
ARC
8
0
10
57.850258
20
67.698889
30
0.0
40
0.300000
50
270.000000
51
360.000000
0
LINE
8
0
10
58.150258
20
67.698889
30
0.0
11
58.150258
21
73.700000
31
0.0
0
ARC
8
0
10
58.450258
20
73.700000
30
0.0
40
0.300000
50
90.000000
51
180.000000
0
LINE
8
0
10
58.450258
20
74.000000
30
0.0
11
60.899703
21
74.000000
31
0.0
0
ARC
8
0
10
60.899703
20
73.700000
30
0.0
40
0.300000
50
30.000000
51
90.000000
0
LINE
8
0
10
61.159510
20
73.850000
30
0.0
11
61.610066
21
73.069615
31
0.0
0
ARC
8
0
10
61.350258
20
72.919615
30
0.0
40
0.300000
50
360.000000
51
30.000000
0
LINE
8
0
10
61.650258
20
72.919615
30
0.0
11
61.650258
21
72.800000
31
0.0
0
ARC
8
0
10
61.350258
20
72.800000
30
0.0
40
0.300000
50
270.000000
51
360.000000
0
LINE
8
0
10
61.350258
20
72.500000
30
0.0
11
59.950258
21
72.500000
31
0.0
0
ARC
8
0
10
59.950258
20
72.200000
30
0.0
40
0.300000
50
90.000000
51
180.000000
0
LINE
8
0
10
59.650258
20
72.200000
30
0.0
11
59.650258
21
67.698889
31
0.0
0
ARC
8
0
10
59.950258
20
67.698889
30
0.0
40
0.300000
50
180.000000
51
270.000000
0
LINE
8
0
10
59.950258
20
67.398889
30
0.0
11
61.150258
21
67.398889
31
0.0
0
ARC
8
0
10
61.150258
20
67.698889
30
0.0
40
0.300000
50
270.000000
51
360.000000
0
LINE
8
0
10
61.450258
20
67.698889
30
0.0
11
61.450258
21
68.700400
31
0.0
0
ARC
8
0
10
61.750258
20
68.700400
30
0.0
40
0.300000
50
90.000000
51
180.000000
0
LINE
8
0
10
61.750258
20
69.000400
30
0.0
11
63.150258
21
69.000400
31
0.0
0
ARC
8
0
10
63.150258
20
68.700400
30
0.0
40
0.300000
50
360.000000
51
90.000000
0
LINE
8
0
10
63.450258
20
68.700400
30
0.0
11
63.450258
21
67.698889
31
0.0
0
ARC
8
0
10
63.750258
20
67.698889
30
0.0
40
0.300000
50
180.000000
51
270.000000
0
LINE
8
0
10
63.750258
20
67.398889
30
0.0
11
70.050258
21
67.398889
31
0.0
0
ARC
8
0
10
70.050258
20
67.698889
30
0.0
40
0.300000
50
270.000000
51
360.000000
0
LINE
8
0
10
70.350258
20
67.698889
30
0.0
11
70.350258
21
68.700400
31
0.0
0
ARC
8
0
10
70.650258
20
68.700400
30
0.0
40
0.300000
50
90.000000
51
180.000000
0
LINE
8
0
10
70.650258
20
69.000400
30
0.0
11
72.050258
21
69.000400
31
0.0
0
ARC
8
0
10
72.050258
20
68.700400
30
0.0
40
0.300000
50
360.000000
51
90.000000
0
LINE
8
0
10
72.350258
20
68.700400
30
0.0
11
72.350258
21
67.698889
31
0.0
0
ARC
8
0
10
72.650258
20
67.698889
30
0.0
40
0.300000
50
180.000000
51
270.000000
0
LINE
8
0
10
72.650258
20
67.398889
30
0.0
11
73.850258
21
67.398889
31
0.0
0
ARC
8
0
10
73.850258
20
67.698889
30
0.0
40
0.300000
50
270.000000
51
360.000000
0
LINE
8
0
10
74.150258
20
67.698889
30
0.0
11
74.150258
21
72.200000
31
0.0
0
ARC
8
0
10
73.850258
20
72.200000
30
0.0
40
0.300000
50
360.000000
51
90.000000
0
LINE
8
0
10
73.850258
20
72.500000
30
0.0
11
71.950258
21
72.500000
31
0.0
0
ARC
8
0
10
71.950258
20
72.800000
30
0.0
40
0.300000
50
180.000000
51
270.000000
0
LINE
8
0
10
71.650258
20
72.800000
30
0.0
11
71.650258
21
72.919615
31
0.0
0
ARC
8
0
10
71.950258
20
72.919615
30
0.0
40
0.300000
50
150.000000
51
180.000000
0
LINE
8
0
10
71.690450
20
73.069615
30
0.0
11
72.141006
21
73.850000
31
0.0
0
ARC
8
0
10
72.400813
20
73.700000
30
0.0
40
0.300000
50
90.000000
51
150.000000
0
LINE
8
0
10
72.400813
20
74.000000
30
0.0
11
75.650258
21
74.000000
31
0.0
0
ARC
8
0
10
75.650258
20
73.700000
30
0.0
40
0.300000
50
360.000000
51
90.000000
0
LINE
8
0
10
75.950258
20
73.700000
30
0.0
11
75.950258
21
0.500000
31
0.0
0
ARC
8
0
10
75.450258
20
0.500000
30
0.0
40
0.500000
50
270.000000
51
360.000000
0
LINE
8
0
10
75.450258
20
0.000000
30
0.0
11
71.750258
21
0.000000
31
0.0
0
LINE
8
0
10
19.050000
20
69.300000
30
0.0
11
11.050000
21
69.300000
31
0.0
0
ARC
8
0
10
11.050000
20
69.000000
30
0.0
40
0.300000
50
90.000000
51
180.000000
0
LINE
8
0
10
10.750000
20
69.000000
30
0.0
11
10.750000
21
27.000000
31
0.0
0
ARC
8
0
10
11.050000
20
27.000000
30
0.0
40
0.300000
50
180.000000
51
270.000000
0
LINE
8
0
10
11.050000
20
26.700000
30
0.0
11
19.050000
21
26.700000
31
0.0
0
ARC
8
0
10
19.050000
20
27.000000
30
0.0
40
0.300000
50
270.000000
51
360.000000
0
LINE
8
0
10
19.350000
20
27.000000
30
0.0
11
19.350000
21
69.000000
31
0.0
0
ARC
8
0
10
19.050000
20
69.000000
30
0.0
40
0.300000
50
360.000000
51
90.000000
0
LINE
8
0
10
23.145877
20
23.728687
30
0.0
11
21.624889
21
24.656138
31
0.0
0
ARC
8
0
10
21.468705
20
24.400000
30
0.0
40
0.300000
50
58.626462
51
90.000000
0
LINE
8
0
10
21.468705
20
24.700000
30
0.0
11
21.250000
21
24.700000
31
0.0
0
ARC
8
0
10
21.250000
20
24.400000
30
0.0
40
0.300000
50
90.000000
51
180.000000
0
LINE
8
0
10
20.950000
20
24.400000
30
0.0
11
20.950000
21
20.365686
31
0.0
0
ARC
8
0
10
21.050000
20
20.082843
30
0.0
40
0.300000
50
109.471221
51
250.528779
0
LINE
8
0
10
20.950000
20
19.800000
30
0.0
11
20.988282
21
19.800000
31
0.0
0
ARC
8
0
10
20.988282
20
20.400000
30
0.0
40
0.600000
50
270.000000
51
302.401721
0
LINE
8
0
10
21.309793
20
19.893413
30
0.0
11
23.017890
21
20.977476
31
0.0
0
LINE
8
0
10
23.017890
20
20.977476
30
0.0
11
23.005793
21
21.265898
31
0.0
0
ARC
8
0
10
23.205618
20
21.274279
30
0.0
40
0.200000
50
62.401721
51
180.000000
0
LINE
8
0
10
23.298271
20
21.451522
30
0.0
11
23.579342
21
21.304593
31
0.0
0
ARC
8
0
10
23.208726
20
20.595619
30
0.0
40
0.800000
50
17.401721
51
62.401721
0
LINE
8
0
10
23.972111
20
20.834875
30
0.0
11
24.574076
21
18.914206
31
0.0
0
ARC
8
0
10
24.287806
20
18.824485
30
0.0
40
0.300000
50
270.000000
51
17.401721
0
LINE
8
0
10
24.287806
20
18.524485
30
0.0
11
22.736712
21
18.524485
31
0.0
0
ARC
8
0
10
22.735310
20
18.724480
30
0.0
40
0.200000
50
209.632658
51
270.000000
0
ARC
8
0
10
22.300703
20
18.477262
30
0.0
40
0.300000
50
29.632658
51
107.401721
0
LINE
8
0
10
22.210982
20
18.763531
30
0.0
11
21.248779
21
18.509908
31
0.0
0
LINE
8
0
10
21.172315
20
18.500000
30
0.0
11
21.248779
21
18.509908
31
0.0
0
LINE
8
0
10
21.172315
20
18.500000
30
0.0
11
19.600000
21
18.500000
31
0.0
0
ARC
8
0
10
19.600000
20
18.200000
30
0.0
40
0.300000
50
90.000000
51
180.000000
0
LINE
8
0
10
19.300000
20
18.200000
30
0.0
11
19.300000
21
14.300000
31
0.0
0
ARC
8
0
10
19.000000
20
14.300000
30
0.0
40
0.300000
50
270.000000
51
360.000000
0
LINE
8
0
10
19.000000
20
14.000000
30
0.0
11
18.000000
21
14.000000
31
0.0
0
ARC
8
0
10
18.000000
20
14.300000
30
0.0
40
0.300000
50
180.000000
51
270.000000
0
LINE
8
0
10
17.700000
20
14.300000
30
0.0
11
17.700000
21
24.700000
31
0.0
0
ARC
8
0
10
17.400000
20
24.700000
30
0.0
40
0.300000
50
360.000000
51
90.000000
0
LINE
8
0
10
17.400000
20
25.000000
30
0.0
11
9.450000
21
25.000000
31
0.0
0
ARC
8
0
10
9.450000
20
25.500000
30
0.0
40
0.500000
50
180.000000
51
270.000000
0
LINE
8
0
10
8.950000
20
25.500000
30
0.0
11
8.950000
21
95.700000
31
0.0
0
ARC
8
0
10
9.250000
20
95.700000
30
0.0
40
0.300000
50
90.000000
51
180.000000
0
LINE
8
0
10
9.250000
20
96.000000
30
0.0
11
13.150000
21
96.000000
31
0.0
0
ARC
8
0
10
13.150000
20
95.700000
30
0.0
40
0.300000
50
360.000000
51
90.000000
0
LINE
8
0
10
13.450000
20
95.700000
30
0.0
11
13.450000
21
94.200000
31
0.0
0
ARC
8
0
10
12.750000
20
94.200000
30
0.0
40
0.700000
50
270.000000
51
360.000000
0
ARC
8
0
10
12.750000
20
93.800000
30
0.0
40
0.300000
50
180.000000
51
270.000000
0
LINE
8
0
10
12.450000
20
93.800000
30
0.0
11
12.450000
21
94.500000
31
0.0
0
ARC
8
0
10
12.150000
20
94.500000
30
0.0
40
0.300000
50
360.000000
51
90.000000
0
LINE
8
0
10
12.150000
20
94.800000
30
0.0
11
10.950000
21
94.800000
31
0.0
0
ARC
8
0
10
10.950000
20
94.100000
30
0.0
40
0.700000
50
90.000000
51
180.000000
0
LINE
8
0
10
10.250000
20
94.100000
30
0.0
11
10.250000
21
87.900000
31
0.0
0
ARC
8
0
10
10.950000
20
87.900000
30
0.0
40
0.700000
50
180.000000
51
270.000000
0
LINE
8
0
10
10.950000
20
87.200000
30
0.0
11
12.150000
21
87.200000
31
0.0
0
ARC
8
0
10
12.150000
20
87.500000
30
0.0
40
0.300000
50
270.000000
51
360.000000
0
LINE
8
0
10
12.450000
20
87.500000
30
0.0
11
12.450000
21
88.200000
31
0.0
0
ARC
8
0
10
12.750000
20
88.200000
30
0.0
40
0.300000
50
90.000000
51
180.000000
0
ARC
8
0
10
12.750000
20
87.800000
30
0.0
40
0.700000
50
360.000000
51
90.000000
0
LINE
8
0
10
13.450000
20
87.800000
30
0.0
11
13.450000
21
84.800000
31
0.0
0
ARC
8
0
10
13.150000
20
84.800000
30
0.0
40
0.300000
50
270.000000
51
360.000000
0
LINE
8
0
10
13.150000
20
84.500000
30
0.0
11
12.750000
21
84.500000
31
0.0
0
ARC
8
0
10
12.750000
20
84.800000
30
0.0
40
0.300000
50
180.000000
51
270.000000
0
LINE
8
0
10
12.450000
20
84.800000
30
0.0
11
12.450000
21
85.700000
31
0.0
0
ARC
8
0
10
12.150000
20
85.700000
30
0.0
40
0.300000
50
360.000000
51
90.000000
0
LINE
8
0
10
12.150000
20
86.000000
30
0.0
11
10.750000
21
86.000000
31
0.0
0
ARC
8
0
10
10.750000
20
85.700000
30
0.0
40
0.300000
50
90.000000
51
180.000000
0
LINE
8
0
10
10.450000
20
85.700000
30
0.0
11
10.450000
21
72.000000
31
0.0
0
ARC
8
0
10
11.450000
20
72.000000
30
0.0
40
1.000000
50
180.000000
51
270.000000
0
LINE
8
0
10
11.450000
20
71.000000
30
0.0
11
18.650000
21
71.000000
31
0.0
0
ARC
8
0
10
18.650000
20
71.300000
30
0.0
40
0.300000
50
270.000000
51
360.000000
0
LINE
8
0
10
18.950000
20
71.300000
30
0.0
11
18.950000
21
73.700000
31
0.0
0
ARC
8
0
10
19.250000
20
73.700000
30
0.0
40
0.300000
50
90.000000
51
180.000000
0
LINE
8
0
10
19.250000
20
74.000000
30
0.0
11
21.172315
21
74.000000
31
0.0
0
LINE
8
0
10
21.248779
20
73.990092
30
0.0
11
21.172315
21
74.000000
31
0.0
0
LINE
8
0
10
21.248779
20
73.990092
30
0.0
11
22.210982
21
73.736469
31
0.0
0
ARC
8
0
10
22.300703
20
74.022739
30
0.0
40
0.300000
50
252.598279
51
330.367342
0
ARC
8
0
10
22.735310
20
73.775520
30
0.0
40
0.200000
50
90.000000
51
150.367342
0
LINE
8
0
10
22.736712
20
73.975515
30
0.0
11
24.287806
21
73.975515
31
0.0
0
ARC
8
0
10
24.287806
20
73.675515
30
0.0
40
0.300000
50
342.598279
51
90.000000
0
LINE
8
0
10
24.574076
20
73.585794
30
0.0
11
23.972111
21
71.665126
31
0.0
0
ARC
8
0
10
23.208726
20
71.904381
30
0.0
40
0.800000
50
297.598279
51
342.598279
0
LINE
8
0
10
23.579342
20
71.195407
30
0.0
11
23.298271
21
71.048478
31
0.0
0
ARC
8
0
10
23.205618
20
71.225721
30
0.0
40
0.200000
50
180.000000
51
297.598279
0
LINE
8
0
10
23.005793
20
71.234102
30
0.0
11
23.017890
21
71.522524
31
0.0
0
LINE
8
0
10
23.017890
20
71.522524
30
0.0
11
21.309793
21
72.606587
31
0.0
0
ARC
8
0
10
20.988282
20
72.100000
30
0.0
40
0.600000
50
57.598279
51
90.000000
0
LINE
8
0
10
20.988282
20
72.700000
30
0.0
11
20.950000
21
72.700000
31
0.0
0
ARC
8
0
10
21.050000
20
72.417157
30
0.0
40
0.300000
50
109.471221
51
250.528779
0
LINE
8
0
10
20.950000
20
72.134315
30
0.0
11
20.950000
21
68.100000
31
0.0
0
ARC
8
0
10
21.250000
20
68.100000
30
0.0
40
0.300000
50
180.000000
51
270.000000
0
LINE
8
0
10
21.250000
20
67.800000
30
0.0
11
21.468705
21
67.800000
31
0.0
0
ARC
8
0
10
21.468705
20
68.100000
30
0.0
40
0.300000
50
270.000000
51
301.373538
0
LINE
8
0
10
21.624889
20
67.843863
30
0.0
11
23.145877
21
68.771314
31
0.0
0
ARC
8
0
10
23.250000
20
68.600555
30
0.0
40
0.200000
50
360.000000
51
121.373538
0
LINE
8
0
10
23.450000
20
68.600555
30
0.0
11
23.450000
21
67.395855
31
0.0
0
ARC
8
0
10
22.450000
20
67.395855
30
0.0
40
1.000000
50
300.000000
51
360.000000
0
LINE
8
0
10
22.950000
20
66.529830
30
0.0
11
21.450000
21
65.663804
31
0.0
0
ARC
8
0
10
21.950000
20
64.797779
30
0.0
40
1.000000
50
120.000000
51
180.000000
0
LINE
8
0
10
20.950000
20
64.797779
30
0.0
11
20.950000
21
27.702222
31
0.0
0
ARC
8
0
10
21.950000
20
27.702222
30
0.0
40
1.000000
50
180.000000
51
240.000000
0
LINE
8
0
10
21.450000
20
26.836196
30
0.0
11
22.950000
21
25.970171
31
0.0
0
ARC
8
0
10
22.450000
20
25.104145
30
0.0
40
1.000000
50
360.000000
51
60.000000
0
LINE
8
0
10
23.450000
20
25.104145
30
0.0
11
23.450000
21
23.899445
31
0.0
0
ARC
8
0
10
23.250000
20
23.899445
30
0.0
40
0.200000
50
238.626462
51
360.000000
0
LINE
8
0
10
44.220740
20
72.059646
30
0.0
11
42.490387
21
71.060612
31
0.0
0
ARC
8
0
10
41.890381
20
72.099839
30
0.0
40
1.200000
50
270.000000
51
300.000345
0
LINE
8
0
10
41.890381
20
70.899839
30
0.0
11
40.818555
21
70.899839
31
0.0
0
ARC
8
0
10
40.818555
20
71.199839
30
0.0
40
0.300000
50
215.885612
51
270.000000
0
LINE
8
0
10
40.575499
20
71.023989
30
0.0
11
40.046748
21
71.754815
31
0.0
0
ARC
8
0
10
40.208786
20
71.872049
30
0.0
40
0.200000
50
108.581915
51
215.885612
0
LINE
8
0
10
40.145054
20
72.061623
30
0.0
11
40.256489
21
72.099086
31
0.0
0
ARC
8
0
10
40.208690
20
72.241266
30
0.0
40
0.150000
50
288.581915
51
57.436866
0
LINE
8
0
10
40.289424
20
72.367686
30
0.0
11
39.903810
21
72.613947
31
0.0
0
ARC
8
0
10
39.742341
20
72.361108
30
0.0
40
0.300000
50
57.436866
51
90.000000
0
LINE
8
0
10
39.742291
20
72.661108
30
0.0
11
39.404358
21
72.661051
31
0.0
0
ARC
8
0
10
39.404408
20
72.361051
30
0.0
40
0.300000
50
90.000000
51
202.907135
0
LINE
8
0
10
39.128067
20
72.244279
30
0.0
11
39.402658
21
71.594459
31
0.0
0
ARC
8
0
10
38.942089
20
71.399839
30
0.0
40
0.500000
50
270.000000
51
22.907135
0
LINE
8
0
10
38.942090
20
70.899839
30
0.0
11
25.740297
21
70.899828
31
0.0
0
ARC
8
0
10
25.740296
20
71.399828
30
0.0
40
0.500000
50
156.000000
51
270.000000
0
LINE
8
0
10
25.283524
20
71.603196
30
0.0
11
25.735321
21
72.617949
31
0.0
0
ARC
8
0
10
25.461257
20
72.739970
30
0.0
40
0.300000
50
336.000000
51
32.065684
0
ARC
8
0
10
25.969721
20
73.058505
30
0.0
40
0.300000
50
35.548433
51
212.065684
0
ARC
8
0
10
26.457896
20
73.407339
30
0.0
40
0.300000
50
215.548433
51
270.000000
0
LINE
8
0
10
26.457896
20
73.107339
30
0.0
11
37.916082
21
73.108092
31
0.0
0
ARC
8
0
10
37.916101
20
72.808092
30
0.0
40
0.300000
50
17.834934
51
90.000000
0
LINE
8
0
10
38.201684
20
72.899974
30
0.0
11
38.515535
21
71.924489
31
0.0
0
ARC
8
0
10
38.801117
20
72.016372
30
0.0
40
0.300000
50
197.834934
51
18.015506
0
LINE
8
0
10
39.086409
20
72.109154
30
0.0
11
38.889527
21
72.714537
31
0.0
0
ARC
8
0
10
39.174819
20
72.807320
30
0.0
40
0.300000
50
90.000000
51
198.015506
0
LINE
8
0
10
39.174995
20
73.107319
30
0.0
11
39.659189
21
73.107036
31
0.0
0
ARC
8
0
10
39.659014
20
72.807036
30
0.0
40
0.300000
50
37.522757
51
90.000000
0
LINE
8
0
10
39.896947
20
72.989759
30
0.0
11
40.367208
21
72.377406
31
0.0
0
ARC
8
0
10
40.208586
20
72.255591
30
0.0
40
0.200000
50
287.128706
51
37.522757
0
LINE
8
0
10
40.267490
20
72.064462
30
0.0
11
40.153477
21
72.029324
31
0.0
0
ARC
8
0
10
40.197655
20
71.885977
30
0.0
40
0.150000
50
107.128706
51
215.002354
0
LINE
8
0
10
40.074785
20
71.799936
30
0.0
11
40.541627
21
71.133275
31
0.0
0
ARC
8
0
10
40.787366
20
71.305358
30
0.0
40
0.300000
50
215.002354
51
270.000000
0
LINE
8
0
10
40.783867
20
71.005378
30
0.0
11
41.290320
21
70.999471
31
0.0
0
ARC
8
0
10
41.293819
20
71.299450
30
0.0
40
0.300000
50
270.000000
51
24.000000
0
LINE
8
0
10
41.567883
20
71.421471
30
0.0
11
40.551917
21
73.703368
31
0.0
0
ARC
8
0
10
40.095144
20
73.500000
30
0.0
40
0.500000
50
24.000000
51
90.000000
0
LINE
8
0
10
40.095144
20
74.000000
30
0.0
11
25.805211
21
73.999989
31
0.0
0
ARC
8
0
10
25.805212
20
73.499989
30
0.0
40
0.500000
50
90.000000
51
156.000000
0
LINE
8
0
10
25.348439
20
73.703357
30
0.0
11
24.180350
21
71.079786
31
0.0
0
ARC
8
0
10
23.908017
20
71.205622
30
0.0
40
0.300000
50
263.495163
51
335.200000
0
ARC
8
0
10
24.009975
20
72.099828
30
0.0
40
1.200000
50
239.999655
51
263.495163
0
LINE
8
0
10
23.409969
20
71.060601
30
0.0
11
21.679616
21
72.059635
31
0.0
0
ARC
8
0
10
21.529615
20
71.799828
30
0.0
40
0.300000
50
59.999655
51
90.000000
0
LINE
8
0
10
21.529615
20
72.099828
30
0.0
11
21.350000
21
72.099828
31
0.0
0
ARC
8
0
10
21.350000
20
71.699828
30
0.0
40
0.400000
50
90.000000
51
180.000000
0
LINE
8
0
10
20.950000
20
71.699828
30
0.0
11
20.950000
21
68.299828
31
0.0
0
ARC
8
0
10
21.350000
20
68.299828
30
0.0
40
0.400000
50
180.000000
51
270.000000
0
LINE
8
0
10
21.350000
20
67.899828
30
0.0
11
21.529616
21
67.899828
31
0.0
0
ARC
8
0
10
21.529616
20
68.199828
30
0.0
40
0.300000
50
270.000000
51
300.000000
0
LINE
8
0
10
21.679616
20
67.940020
30
0.0
11
23.410000
21
68.939058
31
0.0
0
ARC
8
0
10
24.010000
20
67.899828
30
0.0
40
1.200000
50
90.000000
51
120.000000
0
LINE
8
0
10
24.009999
20
69.099828
30
0.0
11
32.200178
21
69.099840
31
0.0
0
ARC
8
0
10
32.200178
20
68.899840
30
0.0
40
0.200000
50
360.000000
51
90.000000
0
LINE
8
0
10
32.400178
20
68.899840
30
0.0
11
32.400178
21
47.399839
31
0.0
0
ARC
8
0
10
32.700178
20
47.399839
30
0.0
40
0.300000
50
180.000000
51
270.000000
0
LINE
8
0
10
32.700178
20
47.099839
30
0.0
11
33.200178
21
47.099839
31
0.0
0
ARC
8
0
10
33.200178
20
47.399839
30
0.0
40
0.300000
50
270.000000
51
360.000000
0
LINE
8
0
10
33.500178
20
47.399839
30
0.0
11
33.500178
21
68.899840
31
0.0
0
ARC
8
0
10
33.700178
20
68.899840
30
0.0
40
0.200000
50
90.000000
51
180.000000
0
LINE
8
0
10
33.700178
20
69.099840
30
0.0
11
41.890356
21
69.099839
31
0.0
0
ARC
8
0
10
41.890356
20
67.899839
30
0.0
40
1.200000
50
60.000000
51
90.000000
0
LINE
8
0
10
42.490356
20
68.939070
30
0.0
11
44.220741
21
67.940032
31
0.0
0
ARC
8
0
10
44.370741
20
68.199839
30
0.0
40
0.300000
50
240.000000
51
270.000000
0
LINE
8
0
10
44.370741
20
67.899839
30
0.0
11
44.550356
21
67.899839
31
0.0
0
ARC
8
0
10
44.550356
20
68.299839
30
0.0
40
0.400000
50
270.000000
51
360.000000
0
LINE
8
0
10
44.950356
20
68.299839
30
0.0
11
44.950356
21
71.699839
31
0.0
0
ARC
8
0
10
44.550356
20
71.699839
30
0.0
40
0.400000
50
360.000000
51
90.000000
0
LINE
8
0
10
44.550356
20
72.099839
30
0.0
11
44.370742
21
72.099839
31
0.0
0
ARC
8
0
10
44.370742
20
71.799839
30
0.0
40
0.300000
50
90.000000
51
120.000345
0
LINE
8
0
10
21.679519
20
20.440349
30
0.0
11
23.409871
21
21.439382
31
0.0
0
ARC
8
0
10
24.009878
20
20.400155
30
0.0
40
1.200000
50
90.000000
51
120.000345
0
LINE
8
0
10
24.009878
20
21.600155
30
0.0
11
25.081703
21
21.600155
31
0.0
0
ARC
8
0
10
25.081703
20
21.300155
30
0.0
40
0.300000
50
35.885612
51
90.000000
0
LINE
8
0
10
25.324760
20
21.476006
30
0.0
11
25.853510
21
20.745180
31
0.0
0
ARC
8
0
10
25.691473
20
20.627946
30
0.0
40
0.200000
50
288.581915
51
35.885612
0
LINE
8
0
10
25.755205
20
20.438372
30
0.0
11
25.643769
21
20.400909
31
0.0
0
ARC
8
0
10
25.691568
20
20.258729
30
0.0
40
0.150000
50
108.581915
51
237.436866
0
LINE
8
0
10
25.610834
20
20.132309
30
0.0
11
25.996449
21
19.886047
31
0.0
0
ARC
8
0
10
26.157917
20
20.138887
30
0.0
40
0.300000
50
237.436866
51
270.000000
0
LINE
8
0
10
26.157968
20
19.838887
30
0.0
11
26.495900
21
19.838944
31
0.0
0
ARC
8
0
10
26.495850
20
20.138944
30
0.0
40
0.300000
50
270.000000
51
22.907135
0
LINE
8
0
10
26.772191
20
20.255715
30
0.0
11
26.497601
21
20.905536
31
0.0
0
ARC
8
0
10
26.958169
20
21.100155
30
0.0
40
0.500000
50
90.000000
51
202.907135
0
LINE
8
0
10
26.958169
20
21.600155
30
0.0
11
40.159962
21
21.600167
31
0.0
0
ARC
8
0
10
40.159962
20
21.100167
30
0.0
40
0.500000
50
336.000000
51
90.000000
0
LINE
8
0
10
40.616735
20
20.896798
30
0.0
11
40.164938
21
19.882046
31
0.0
0
ARC
8
0
10
40.439001
20
19.760025
30
0.0
40
0.300000
50
156.000000
51
212.065684
0
ARC
8
0
10
39.930537
20
19.441490
30
0.0
40
0.300000
50
215.548433
51
32.065684
0
ARC
8
0
10
39.442363
20
19.092655
30
0.0
40
0.300000
50
35.548433
51
90.000000
0
LINE
8
0
10
39.442363
20
19.392655
30
0.0
11
27.984177
21
19.391903
31
0.0
0
ARC
8
0
10
27.984157
20
19.691903
30
0.0
40
0.300000
50
197.834934
51
270.000000
0
LINE
8
0
10
27.698574
20
19.600020
30
0.0
11
27.384724
21
20.575506
31
0.0
0
ARC
8
0
10
27.099141
20
20.483623
30
0.0
40
0.300000
50
17.834934
51
198.015506
0
LINE
8
0
10
26.813849
20
20.390841
30
0.0
11
27.010731
21
19.785457
31
0.0
0
ARC
8
0
10
26.725439
20
19.692675
30
0.0
40
0.300000
50
270.000000
51
18.015506
0
LINE
8
0
10
26.725264
20
19.392675
30
0.0
11
26.241069
21
19.392958
31
0.0
0
ARC
8
0
10
26.241245
20
19.692958
30
0.0
40
0.300000
50
217.522757
51
270.000000
0
LINE
8
0
10
26.003311
20
19.510235
30
0.0
11
25.533050
21
20.122588
31
0.0
0
ARC
8
0
10
25.691672
20
20.244404
30
0.0
40
0.200000
50
107.128706
51
217.522757
0
LINE
8
0
10
25.632768
20
20.435533
30
0.0
11
25.746782
21
20.470670
31
0.0
0
ARC
8
0
10
25.702604
20
20.614017
30
0.0
40
0.150000
50
287.128706
51
35.002354
0
LINE
8
0
10
25.825473
20
20.700059
30
0.0
11
25.358631
21
21.366720
31
0.0
0
ARC
8
0
10
25.112893
20
21.194637
30
0.0
40
0.300000
50
35.002354
51
90.000000
0
LINE
8
0
10
25.116392
20
21.494616
30
0.0
11
24.609938
21
21.500524
31
0.0
0
ARC
8
0
10
24.606439
20
21.200544
30
0.0
40
0.300000
50
90.000000
51
204.000000
0
LINE
8
0
10
24.332375
20
21.078523
30
0.0
11
25.348341
21
18.796626
31
0.0
0
ARC
8
0
10
25.805114
20
18.999994
30
0.0
40
0.500000
50
204.000000
51
270.000000
0
LINE
8
0
10
25.805115
20
18.499994
30
0.0
11
40.095047
21
18.500006
31
0.0
0
ARC
8
0
10
40.095047
20
19.000006
30
0.0
40
0.500000
50
270.000000
51
336.000000
0
LINE
8
0
10
40.551819
20
18.796638
30
0.0
11
41.719908
21
21.420208
31
0.0
0
ARC
8
0
10
41.992242
20
21.294373
30
0.0
40
0.300000
50
83.495163
51
155.200000
0
ARC
8
0
10
41.890283
20
20.400167
30
0.0
40
1.200000
50
59.999655
51
83.495163
0
LINE
8
0
10
42.490289
20
21.439394
30
0.0
11
44.220642
21
20.440360
31
0.0
0
ARC
8
0
10
44.370644
20
20.700167
30
0.0
40
0.300000
50
239.999655
51
270.000000
0
LINE
8
0
10
44.370644
20
20.400167
30
0.0
11
44.550258
21
20.400167
31
0.0
0
ARC
8
0
10
44.550258
20
20.800167
30
0.0
40
0.400000
50
270.000000
51
360.000000
0
LINE
8
0
10
44.950258
20
20.800167
30
0.0
11
44.950258
21
24.200167
31
0.0
0
ARC
8
0
10
44.550258
20
24.200167
30
0.0
40
0.400000
50
360.000000
51
90.000000
0
LINE
8
0
10
44.550258
20
24.600167
30
0.0
11
44.370643
21
24.600167
31
0.0
0
ARC
8
0
10
44.370643
20
24.300167
30
0.0
40
0.300000
50
90.000000
51
120.000000
0
LINE
8
0
10
44.220643
20
24.559974
30
0.0
11
42.490258
21
23.560936
31
0.0
0
ARC
8
0
10
41.890258
20
24.600167
30
0.0
40
1.200000
50
270.000000
51
300.000000
0
LINE
8
0
10
41.890260
20
23.400167
30
0.0
11
33.700081
21
23.400155
31
0.0
0
ARC
8
0
10
33.700080
20
23.600155
30
0.0
40
0.200000
50
180.000000
51
270.000000
0
LINE
8
0
10
33.500080
20
23.600155
30
0.0
11
33.500080
21
45.100155
31
0.0
0
ARC
8
0
10
33.200080
20
45.100155
30
0.0
40
0.300000
50
360.000000
51
90.000000
0
LINE
8
0
10
33.200080
20
45.400155
30
0.0
11
32.700080
21
45.400155
31
0.0
0
ARC
8
0
10
32.700080
20
45.100155
30
0.0
40
0.300000
50
90.000000
51
180.000000
0
LINE
8
0
10
32.400080
20
45.100155
30
0.0
11
32.400080
21
23.600155
31
0.0
0
ARC
8
0
10
32.200080
20
23.600155
30
0.0
40
0.200000
50
270.000000
51
360.000000
0
LINE
8
0
10
32.200080
20
23.400155
30
0.0
11
24.009903
21
23.400155
31
0.0
0
ARC
8
0
10
24.009903
20
24.600155
30
0.0
40
1.200000
50
240.000000
51
270.000000
0
LINE
8
0
10
23.409903
20
23.560925
30
0.0
11
21.679518
21
24.559963
31
0.0
0
ARC
8
0
10
21.529518
20
24.300155
30
0.0
40
0.300000
50
60.000000
51
90.000000
0
LINE
8
0
10
21.529518
20
24.600155
30
0.0
11
21.349903
21
24.600155
31
0.0
0
ARC
8
0
10
21.349903
20
24.200155
30
0.0
40
0.400000
50
90.000000
51
180.000000
0
LINE
8
0
10
20.949903
20
24.200155
30
0.0
11
20.949903
21
20.800155
31
0.0
0
ARC
8
0
10
21.349903
20
20.800155
30
0.0
40
0.400000
50
180.000000
51
270.000000
0
LINE
8
0
10
21.349903
20
20.400155
30
0.0
11
21.529517
21
20.400155
31
0.0
0
ARC
8
0
10
21.529517
20
20.700155
30
0.0
40
0.300000
50
270.000000
51
300.000345
0
ATTDEF
8
0
10
20.211158
20
74.000000
30
0.0
40
3.5
1

3

2
VC_START
70
0
0
ATTDEF
8
0
10
24.287806
20
18.524485
30
0.0
40
3.5
1

3

2
VC_END
70
0
0
ARC
8
0
10
22.850000
20
6.400000
30
0.0
40
0.300000
50
360.000000
51
90.000000
0
LINE
8
0
10
22.850000
20
6.700000
30
0.0
11
22.700000
21
6.700000
31
0.0
0
ARC
8
0
10
22.700000
20
7.000000
30
0.0
40
0.300000
50
180.000000
51
270.000000
0
LINE
8
0
10
22.400000
20
7.000000
30
0.0
11
22.400000
21
10.400000
31
0.0
0
ARC
8
0
10
23.400000
20
10.400000
30
0.0
40
1.000000
50
90.000000
51
180.000000
0
LINE
8
0
10
23.400000
20
11.400000
30
0.0
11
25.400000
21
11.400000
31
0.0
0
ARC
8
0
10
25.400000
20
10.400000
30
0.0
40
1.000000
50
360.000000
51
90.000000
0
LINE
8
0
10
26.400000
20
10.400000
30
0.0
11
26.400000
21
7.000000
31
0.0
0
ARC
8
0
10
26.100000
20
7.000000
30
0.0
40
0.300000
50
270.000000
51
360.000000
0
LINE
8
0
10
26.100000
20
6.700000
30
0.0
11
25.950000
21
6.700000
31
0.0
0
ARC
8
0
10
25.950000
20
6.400000
30
0.0
40
0.300000
50
90.000000
51
180.000000
0
LINE
8
0
10
25.650000
20
6.400000
30
0.0
11
25.650000
21
6.000000
31
0.0
0
ARC
8
0
10
25.950000
20
6.000000
30
0.0
40
0.300000
50
180.000000
51
270.000000
0
LINE
8
0
10
25.950000
20
5.700000
30
0.0
11
26.100000
21
5.700000
31
0.0
0
ARC
8
0
10
26.100000
20
5.400000
30
0.0
40
0.300000
50
360.000000
51
90.000000
0
LINE
8
0
10
26.400000
20
5.400000
30
0.0
11
26.400000
21
4.900000
31
0.0
0
ARC
8
0
10
26.700000
20
4.900000
30
0.0
40
0.300000
50
180.000000
51
270.000000
0
LINE
8
0
10
26.700000
20
4.600000
30
0.0
11
27.900000
21
4.600000
31
0.0
0
ARC
8
0
10
27.900000
20
4.900000
30
0.0
40
0.300000
50
270.000000
51
360.000000
0
LINE
8
0
10
28.200000
20
4.900000
30
0.0
11
28.200000
21
13.600000
31
0.0
0
ARC
8
0
10
27.900000
20
13.600000
30
0.0
40
0.300000
50
360.000000
51
90.000000
0
LINE
8
0
10
27.900000
20
13.900000
30
0.0
11
21.900000
21
13.900000
31
0.0
0
ARC
8
0
10
21.900000
20
14.200000
30
0.0
40
0.300000
50
180.000000
51
270.000000
0
LINE
8
0
10
21.600000
20
14.200000
30
0.0
11
21.600000
21
17.600000
31
0.0
0
ARC
8
0
10
21.300000
20
17.600000
30
0.0
40
0.300000
50
360.000000
51
90.000000
0
LINE
8
0
10
21.300000
20
17.900000
30
0.0
11
19.900000
21
17.900000
31
0.0
0
ARC
8
0
10
19.900000
20
17.600000
30
0.0
40
0.300000
50
90.000000
51
180.000000
0
LINE
8
0
10
19.600000
20
17.600000
30
0.0
11
19.600000
21
14.200000
31
0.0
0
ARC
8
0
10
19.300000
20
14.200000
30
0.0
40
0.300000
50
270.000000
51
360.000000
0
LINE
8
0
10
19.300000
20
13.900000
30
0.0
11
18.000000
21
13.900000
31
0.0
0
ARC
8
0
10
18.000000
20
14.200000
30
0.0
40
0.300000
50
180.000000
51
270.000000
0
LINE
8
0
10
17.700000
20
14.200000
30
0.0
11
17.700000
21
24.000000
31
0.0
0
ARC
8
0
10
16.700000
20
24.000000
30
0.0
40
1.000000
50
360.000000
51
90.000000
0
LINE
8
0
10
16.700000
20
25.000000
30
0.0
11
7.000000
21
25.000000
31
0.0
0
ARC
8
0
10
7.000000
20
18.000000
30
0.0
40
7.000000
50
90.000000
51
180.000000
0
LINE
8
0
10
0.000000
20
18.000000
30
0.0
11
0.000000
21
6.000000
31
0.0
0
ARC
8
0
10
0.300000
20
6.000000
30
0.0
40
0.300000
50
180.000000
51
270.000000
0
LINE
8
0
10
0.300000
20
5.700000
30
0.0
11
2.400000
21
5.700000
31
0.0
0
ARC
8
0
10
2.400000
20
6.000000
30
0.0
40
0.300000
50
270.000000
51
360.000000
0
LINE
8
0
10
2.700000
20
6.000000
30
0.0
11
2.700000
21
6.600000
31
0.0
0
ARC
8
0
10
2.400000
20
6.600000
30
0.0
40
0.300000
50
360.000000
51
90.000000
0
LINE
8
0
10
2.400000
20
6.900000
30
0.0
11
1.700000
21
6.900000
31
0.0
0
ARC
8
0
10
1.700000
20
7.200000
30
0.0
40
0.300000
50
180.000000
51
270.000000
0
LINE
8
0
10
1.400000
20
7.200000
30
0.0
11
1.400000
21
18.000000
31
0.0
0
ARC
8
0
10
7.000000
20
18.000000
30
0.0
40
5.600000
50
67.000000
51
180.000000
0
LINE
8
0
10
9.188095
20
23.154827
30
0.0
11
12.918797
21
21.571238
31
0.0
0
LINE
8
0
10
12.918797
20
21.571238
30
0.0
11
13.195453
21
21.779713
31
0.0
0
LINE
8
0
10
13.195453
20
21.779713
30
0.0
11
13.237669
21
21.435885
31
0.0
0
LINE
8
0
10
13.237669
20
21.435885
30
0.0
11
16.117220
21
20.213588
31
0.0
0
ARC
8
0
10
16.000000
20
19.937437
30
0.0
40
0.300000
50
360.000000
51
66.999999
0
LINE
8
0
10
16.300000
20
19.937437
30
0.0
11
16.300000
21
7.200000
31
0.0
0
ARC
8
0
10
16.000000
20
7.200000
30
0.0
40
0.300000
50
270.000000
51
360.000000
0
LINE
8
0
10
16.000000
20
6.900000
30
0.0
11
14.600000
21
6.900000
31
0.0
0
ARC
8
0
10
14.600000
20
6.600000
30
0.0
40
0.300000
50
90.000000
51
180.000000
0
LINE
8
0
10
14.300000
20
6.600000
30
0.0
11
14.300000
21
6.000000
31
0.0
0
ARC
8
0
10
14.600000
20
6.000000
30
0.0
40
0.300000
50
180.000000
51
270.000000
0
LINE
8
0
10
14.600000
20
5.700000
30
0.0
11
17.400000
21
5.700000
31
0.0
0
ARC
8
0
10
17.400000
20
6.000000
30
0.0
40
0.300000
50
270.000000
51
360.000000
0
LINE
8
0
10
17.700000
20
6.000000
30
0.0
11
17.700000
21
10.400000
31
0.0
0
ARC
8
0
10
18.700000
20
10.400000
30
0.0
40
1.000000
50
90.000000
51
180.000000
0
LINE
8
0
10
18.700000
20
11.400000
30
0.0
11
20.000000
21
11.400000
31
0.0
0
ARC
8
0
10
20.000000
20
10.400000
30
0.0
40
1.000000
50
360.000000
51
90.000000
0
LINE
8
0
10
21.000000
20
10.400000
30
0.0
11
21.000000
21
6.000000
31
0.0
0
ARC
8
0
10
21.300000
20
6.000000
30
0.0
40
0.300000
50
180.000000
51
270.000000
0
LINE
8
0
10
21.300000
20
5.700000
30
0.0
11
22.850000
21
5.700000
31
0.0
0
ARC
8
0
10
22.850000
20
6.000000
30
0.0
40
0.300000
50
270.000000
51
360.000000
0
LINE
8
0
10
23.150000
20
6.000000
30
0.0
11
23.150000
21
6.400000
31
0.0
0
ATTDEF
8
0
10
0.000000
20
0.000000
30
0.0
40
3.5
1

3

2
DENS:0.000000
70
0
0
ATTDEF
8
0
10
0.000000
20
0.000000
30
0.0
40
3.5
1

3

2
GLASS_MIN:0.000000
70
0
0
ATTDEF
8
0
10
0.000000
20
0.000000
30
0.0
40
3.5
1

3

2
GLASS_MAX:0.000000
70
0
0
ATTDEF
8
0
10
0.000000
20
0.000000
30
0.0
40
3.5
1

3

2
DESC:U51320 - K1486
70
0
0
ATTDEF
8
0
10
0.000000
20
0.000000
30
0.0
40
3.5
1

3

2
BL01:6500.000000,,1
70
0
0
ATTDEF
8
0
10
0.000000
20
0.000000
30
0.0
40
3.5
1

3

2
HW_START
70
0
0
ATTDEF
8
0
10
75.950258
20
96.000000
30
0.0
40
3.5
1

3

2
HW_END
70
0
0
ATTDEF
8
0
10
0.000000
20
0.000000
30
0.0
40
3.5
1

3

2
FP_LCS_ORIG
70
0
0
ATTDEF
8
0
10
10.000000
20
0.000000
30
0.0
40
3.5
1

3

2
FP_LCS_HOT
70
0
0
ATTDEF
8
0
10
0.000000
20
10.000000
30
0.0
40
3.5
1

3

2
FP_LCS_INTERN
70
0
0
ATTDEF
8
0
10
0.000000
20
0.000000
30
0.0
40
3.5
1

3

2
TDEV:0.000000
70
0
0
ATTDEF
8
0
10
0.000000
20
0.000000
30
0.0
40
3.5
1

3

2
TDEV2:0.000000
70
0
0
ATTDEF
8
0
10
0.000000
20
0.000000
30
0.0
40
3.5
1

3

2
TDEV3:0.000000
70
0
0
ATTDEF
8
0
10
0.000000
20
0.000000
30
0.0
40
3.5
1

3

2
TDEV4:0.000000
70
0
0
ATTDEF
8
0
10
0.000000
20
0.000000
30
0.0
40
3.5
1

3

2
TDEV5:0.000000
70
0
0
ATTDEF
8
0
10
0.000000
20
0.000000
30
0.0
40
3.5
1

3

2
PANE_WIDTH:62.000000
70
0
0
ENDSEC
0
EOF
