0
SECTION
2
ENTITIES
0
LINE
8
0
10
198.383069
20
170.605411
30
0.0
11
198.383069
21
158.479798
31
0.0
0
ARC
8
0
10
198.683069
20
158.479798
30
0.0
40
0.300000
50
180.000000
51
255.000000
0
LINE
8
0
10
198.605423
20
158.190020
30
0.0
11
200.660714
21
157.639307
31
0.0
0
ARC
8
0
10
200.583069
20
157.349529
30
0.0
40
0.300000
50
0.000000
51
75.000000
0
LINE
8
0
10
200.883069
20
157.349529
30
0.0
11
200.883069
21
156.706522
31
0.0
0
ARC
8
0
10
200.583069
20
156.706522
30
0.0
40
0.300000
50
270.000000
51
0.000000
0
LINE
8
0
10
200.583069
20
156.406522
30
0.0
11
198.683069
21
156.406522
31
0.0
0
ARC
8
0
10
198.683069
20
156.106522
30
0.0
40
0.300000
50
90.000000
51
180.000000
0
LINE
8
0
10
198.383069
20
156.106522
30
0.0
11
198.383069
21
125.906522
31
0.0
0
ARC
8
0
10
198.683069
20
125.906522
30
0.0
40
0.300000
50
180.000000
51
270.000000
0
LINE
8
0
10
198.683069
20
125.606522
30
0.0
11
230.183069
21
125.606522
31
0.0
0
ARC
8
0
10
230.183069
20
125.906522
30
0.0
40
0.300000
50
270.000000
51
0.000000
0
LINE
8
0
10
230.483069
20
125.906522
30
0.0
11
230.483069
21
156.106522
31
0.0
0
ARC
8
0
10
230.183069
20
156.106522
30
0.0
40
0.300000
50
0.000000
51
90.000000
0
LINE
8
0
10
230.183069
20
156.406522
30
0.0
11
228.283069
21
156.406522
31
0.0
0
ARC
8
0
10
228.283069
20
156.706522
30
0.0
40
0.300000
50
180.000000
51
270.000000
0
LINE
8
0
10
227.983069
20
156.706522
30
0.0
11
227.983069
21
157.403119
31
0.0
0
ARC
8
0
10
228.283069
20
157.403119
30
0.0
40
0.300000
50
105.000000
51
180.000000
0
LINE
8
0
10
228.205423
20
157.692897
30
0.0
11
230.260714
21
158.243610
31
0.0
0
ARC
8
0
10
230.183069
20
158.533388
30
0.0
40
0.300000
50
285.000000
51
0.000000
0
LINE
8
0
10
230.483069
20
158.533388
30
0.0
11
230.483069
21
164.004301
31
0.0
0
ARC
8
0
10
230.183069
20
164.004301
30
0.0
40
0.300000
50
0.000000
51
90.000000
0
LINE
8
0
10
230.183069
20
164.304301
30
0.0
11
226.478409
21
164.304301
31
0.0
0
ARC
8
0
10
226.478409
20
165.004301
30
0.0
40
0.700000
50
180.000000
51
270.000000
0
LINE
8
0
10
225.778409
20
165.004301
30
0.0
11
225.778409
21
170.605411
31
0.0
0
ARC
8
0
10
225.478409
20
170.605411
30
0.0
40
0.300000
50
0.000000
51
90.000000
0
LINE
8
0
10
225.478409
20
170.905411
30
0.0
11
198.683069
21
170.905411
31
0.0
0
ARC
8
0
10
198.683069
20
170.605411
30
0.0
40
0.300000
50
90.000000
51
180.000000
0
LINE
8
0
10
228.312587
20
119.145765
30
0.0
11
230.042940
21
120.144799
31
0.0
0
ARC
8
0
10
230.642946
20
119.105572
30
0.0
40
1.200000
50
90.000000
51
120.000345
0
LINE
8
0
10
230.642946
20
120.305572
30
0.0
11
231.714772
21
120.305572
31
0.0
0
ARC
8
0
10
231.714772
20
120.005572
30
0.0
40
0.300000
50
35.885612
51
90.000000
0
LINE
8
0
10
231.957828
20
120.181423
30
0.0
11
232.486579
21
119.450597
31
0.0
0
ARC
8
0
10
232.324541
20
119.333363
30
0.0
40
0.200000
50
288.581915
51
35.885612
0
LINE
8
0
10
232.388273
20
119.143789
30
0.0
11
232.276838
21
119.106326
31
0.0
0
ARC
8
0
10
232.324637
20
118.964146
30
0.0
40
0.150000
50
108.581915
51
237.436866
0
LINE
8
0
10
232.243902
20
118.837726
30
0.0
11
232.629517
21
118.591464
31
0.0
0
ARC
8
0
10
232.790986
20
118.844304
30
0.0
40
0.300000
50
237.436866
51
270.000000
0
LINE
8
0
10
232.791036
20
118.544304
30
0.0
11
233.128969
21
118.544361
31
0.0
0
ARC
8
0
10
233.128918
20
118.844361
30
0.0
40
0.300000
50
270.000000
51
22.907135
0
LINE
8
0
10
233.405259
20
118.961132
30
0.0
11
233.130669
21
119.610953
31
0.0
0
ARC
8
0
10
233.591238
20
119.805572
30
0.0
40
0.500000
50
90.000000
51
202.907135
0
LINE
8
0
10
233.591237
20
120.305572
30
0.0
11
246.793030
21
120.305584
31
0.0
0
ARC
8
0
10
246.793030
20
119.805584
30
0.0
40
0.500000
50
336.000000
51
90.000000
0
LINE
8
0
10
247.249803
20
119.602215
30
0.0
11
246.798006
21
118.587463
31
0.0
0
ARC
8
0
10
247.072070
20
118.465442
30
0.0
40
0.300000
50
156.000000
51
212.065684
0
ARC
8
0
10
246.563606
20
118.146907
30
0.0
40
0.300000
50
215.548433
51
32.065684
0
ARC
8
0
10
246.075431
20
117.798072
30
0.0
40
0.300000
50
35.548433
51
90.000000
0
LINE
8
0
10
246.075431
20
118.098072
30
0.0
11
234.617245
21
118.097320
31
0.0
0
ARC
8
0
10
234.617225
20
118.397320
30
0.0
40
0.300000
50
197.834934
51
270.000000
0
LINE
8
0
10
234.331643
20
118.305437
30
0.0
11
234.017792
21
119.280923
31
0.0
0
ARC
8
0
10
233.732209
20
119.189040
30
0.0
40
0.300000
50
17.834934
51
198.015506
0
LINE
8
0
10
233.446918
20
119.096258
30
0.0
11
233.643800
21
118.490874
31
0.0
0
ARC
8
0
10
233.358508
20
118.398092
30
0.0
40
0.300000
50
270.000000
51
18.015506
0
LINE
8
0
10
233.358332
20
118.098092
30
0.0
11
232.874138
21
118.098375
31
0.0
0
ARC
8
0
10
232.874313
20
118.398375
30
0.0
40
0.300000
50
217.522757
51
270.000000
0
LINE
8
0
10
232.636380
20
118.215652
30
0.0
11
232.166118
21
118.828005
31
0.0
0
ARC
8
0
10
232.324741
20
118.949821
30
0.0
40
0.200000
50
107.128706
51
217.522757
0
LINE
8
0
10
232.265837
20
119.140950
30
0.0
11
232.379850
21
119.176087
31
0.0
0
ARC
8
0
10
232.335672
20
119.319434
30
0.0
40
0.150000
50
287.128706
51
35.002354
0
LINE
8
0
10
232.458541
20
119.405476
30
0.0
11
231.991700
21
120.072137
31
0.0
0
ARC
8
0
10
231.745961
20
119.900054
30
0.0
40
0.300000
50
35.002354
51
90.000000
0
LINE
8
0
10
231.749460
20
120.200033
30
0.0
11
231.243006
21
120.205941
31
0.0
0
ARC
8
0
10
231.239507
20
119.905961
30
0.0
40
0.300000
50
90.000000
51
204.000000
0
LINE
8
0
10
230.965444
20
119.783940
30
0.0
11
231.981410
21
117.502043
31
0.0
0
ARC
8
0
10
232.438183
20
117.705411
30
0.0
40
0.500000
50
204.000000
51
270.000000
0
LINE
8
0
10
232.438183
20
117.205411
30
0.0
11
246.728115
21
117.205423
31
0.0
0
ARC
8
0
10
246.728115
20
117.705423
30
0.0
40
0.500000
50
270.000000
51
336.000000
0
LINE
8
0
10
247.184888
20
117.502054
30
0.0
11
248.352977
21
120.125625
31
0.0
0
ARC
8
0
10
248.625310
20
119.999790
30
0.0
40
0.300000
50
83.495163
51
155.200000
0
ARC
8
0
10
248.523351
20
119.105584
30
0.0
40
1.200000
50
59.999655
51
83.495163
0
LINE
8
0
10
249.123358
20
120.144810
30
0.0
11
250.853711
21
119.145777
31
0.0
0
ARC
8
0
10
251.003712
20
119.405584
30
0.0
40
0.300000
50
239.999655
51
270.000000
0
LINE
8
0
10
251.003712
20
119.105584
30
0.0
11
251.183326
21
119.105584
31
0.0
0
ARC
8
0
10
251.183326
20
119.505584
30
0.0
40
0.400000
50
270.000000
51
0.000000
0
LINE
8
0
10
251.583326
20
119.505584
30
0.0
11
251.583326
21
122.905584
31
0.0
0
ARC
8
0
10
251.183326
20
122.905584
30
0.0
40
0.400000
50
0.000000
51
90.000000
0
LINE
8
0
10
251.183326
20
123.305584
30
0.0
11
251.003711
21
123.305584
31
0.0
0
ARC
8
0
10
251.003711
20
123.005584
30
0.0
40
0.300000
50
90.000000
51
120.000000
0
LINE
8
0
10
250.853711
20
123.265391
30
0.0
11
249.123326
21
122.266353
31
0.0
0
ARC
8
0
10
248.523326
20
123.305584
30
0.0
40
1.200000
50
270.000000
51
300.000000
0
LINE
8
0
10
248.523328
20
122.105584
30
0.0
11
240.333149
21
122.105572
31
0.0
0
ARC
8
0
10
240.333149
20
122.305572
30
0.0
40
0.200000
50
180.000000
51
270.000000
0
LINE
8
0
10
240.133149
20
122.305572
30
0.0
11
240.133149
21
143.805572
31
0.0
0
ARC
8
0
10
239.833149
20
143.805572
30
0.0
40
0.300000
50
0.000000
51
90.000000
0
LINE
8
0
10
239.833149
20
144.105572
30
0.0
11
239.333149
21
144.105572
31
0.0
0
ARC
8
0
10
239.333149
20
143.805572
30
0.0
40
0.300000
50
90.000000
51
180.000000
0
LINE
8
0
10
239.033149
20
143.805572
30
0.0
11
239.033149
21
122.305572
31
0.0
0
ARC
8
0
10
238.833149
20
122.305572
30
0.0
40
0.200000
50
270.000000
51
0.000000
0
LINE
8
0
10
238.833149
20
122.105572
30
0.0
11
230.642971
21
122.105572
31
0.0
0
ARC
8
0
10
230.642971
20
123.305572
30
0.0
40
1.200000
50
240.000000
51
270.000000
0
LINE
8
0
10
230.042971
20
122.266342
30
0.0
11
228.312586
21
123.265380
31
0.0
0
ARC
8
0
10
228.162586
20
123.005572
30
0.0
40
0.300000
50
60.000000
51
90.000000
0
LINE
8
0
10
228.162586
20
123.305572
30
0.0
11
227.982971
21
123.305572
31
0.0
0
ARC
8
0
10
227.982971
20
122.905572
30
0.0
40
0.400000
50
90.000000
51
180.000000
0
LINE
8
0
10
227.582971
20
122.905572
30
0.0
11
227.582971
21
119.505572
31
0.0
0
ARC
8
0
10
227.982971
20
119.505572
30
0.0
40
0.400000
50
180.000000
51
270.000000
0
LINE
8
0
10
227.982971
20
119.105572
30
0.0
11
228.162585
21
119.105572
31
0.0
0
ARC
8
0
10
228.162585
20
119.405572
30
0.0
40
0.300000
50
270.000000
51
300.000345
0
LINE
8
0
10
250.853808
20
170.765063
30
0.0
11
249.123455
21
169.766029
31
0.0
0
ARC
8
0
10
248.523449
20
170.805256
30
0.0
40
1.200000
50
270.000000
51
300.000345
0
LINE
8
0
10
248.523449
20
169.605256
30
0.0
11
247.451624
21
169.605256
31
0.0
0
ARC
8
0
10
247.451624
20
169.905256
30
0.0
40
0.300000
50
215.885612
51
270.000000
0
LINE
8
0
10
247.208567
20
169.729406
30
0.0
11
246.679816
21
170.460232
31
0.0
0
ARC
8
0
10
246.841854
20
170.577466
30
0.0
40
0.200000
50
108.581915
51
215.885612
0
LINE
8
0
10
246.778122
20
170.767040
30
0.0
11
246.889558
21
170.804502
31
0.0
0
ARC
8
0
10
246.841758
20
170.946683
30
0.0
40
0.150000
50
288.581915
51
57.436866
0
LINE
8
0
10
246.922493
20
171.073103
30
0.0
11
246.536878
21
171.319364
31
0.0
0
ARC
8
0
10
246.375409
20
171.066525
30
0.0
40
0.300000
50
57.436866
51
90.000000
0
LINE
8
0
10
246.375359
20
171.366525
30
0.0
11
246.037426
21
171.366468
31
0.0
0
ARC
8
0
10
246.037477
20
171.066468
30
0.0
40
0.300000
50
90.000000
51
202.907135
0
LINE
8
0
10
245.761136
20
170.949696
30
0.0
11
246.035726
21
170.299876
31
0.0
0
ARC
8
0
10
245.575157
20
170.105256
30
0.0
40
0.500000
50
270.000000
51
22.907135
0
LINE
8
0
10
245.575158
20
169.605256
30
0.0
11
232.373365
21
169.605245
31
0.0
0
ARC
8
0
10
232.373365
20
170.105245
30
0.0
40
0.500000
50
156.000000
51
270.000000
0
LINE
8
0
10
231.916592
20
170.308613
30
0.0
11
232.368389
21
171.323366
31
0.0
0
ARC
8
0
10
232.094325
20
171.445387
30
0.0
40
0.300000
50
336.000000
51
32.065684
0
ARC
8
0
10
232.602789
20
171.763922
30
0.0
40
0.300000
50
35.548433
51
212.065684
0
ARC
8
0
10
233.090964
20
172.112756
30
0.0
40
0.300000
50
215.548433
51
270.000000
0
LINE
8
0
10
233.090964
20
171.812756
30
0.0
11
244.549150
21
171.813509
31
0.0
0
ARC
8
0
10
244.549170
20
171.513509
30
0.0
40
0.300000
50
17.834934
51
90.000000
0
LINE
8
0
10
244.834752
20
171.605391
30
0.0
11
245.148603
21
170.629906
31
0.0
0
ARC
8
0
10
245.434186
20
170.721788
30
0.0
40
0.300000
50
197.834934
51
18.015506
0
LINE
8
0
10
245.719478
20
170.814571
30
0.0
11
245.522595
21
171.419954
31
0.0
0
ARC
8
0
10
245.807887
20
171.512736
30
0.0
40
0.300000
50
90.000000
51
198.015506
0
LINE
8
0
10
245.808063
20
171.812736
30
0.0
11
246.292257
21
171.812453
31
0.0
0
ARC
8
0
10
246.292082
20
171.512453
30
0.0
40
0.300000
50
37.522757
51
90.000000
0
LINE
8
0
10
246.530015
20
171.695176
30
0.0
11
247.000277
21
171.082823
31
0.0
0
ARC
8
0
10
246.841654
20
170.961008
30
0.0
40
0.200000
50
287.128706
51
37.522757
0
LINE
8
0
10
246.900558
20
170.769879
30
0.0
11
246.786545
21
170.734741
31
0.0
0
ARC
8
0
10
246.830723
20
170.591394
30
0.0
40
0.150000
50
107.128706
51
215.002354
0
LINE
8
0
10
246.707854
20
170.505353
30
0.0
11
247.174695
21
169.838692
31
0.0
0
ARC
8
0
10
247.420434
20
170.010775
30
0.0
40
0.300000
50
215.002354
51
270.000000
0
LINE
8
0
10
247.416935
20
169.710795
30
0.0
11
247.923389
21
169.704888
31
0.0
0
ARC
8
0
10
247.926888
20
170.004867
30
0.0
40
0.300000
50
270.000000
51
24.000000
0
LINE
8
0
10
248.200951
20
170.126888
30
0.0
11
247.184985
21
172.408785
31
0.0
0
ARC
8
0
10
246.728213
20
172.205417
30
0.0
40
0.500000
50
24.000000
51
90.000000
0
LINE
8
0
10
246.728212
20
172.705417
30
0.0
11
232.438280
21
172.705406
31
0.0
0
ARC
8
0
10
232.438280
20
172.205406
30
0.0
40
0.500000
50
90.000000
51
156.000000
0
LINE
8
0
10
231.981507
20
172.408774
30
0.0
11
230.813418
21
169.785203
31
0.0
0
ARC
8
0
10
230.541085
20
169.911039
30
0.0
40
0.300000
50
263.495163
51
335.200000
0
ARC
8
0
10
230.643044
20
170.805245
30
0.0
40
1.200000
50
239.999655
51
263.495163
0
LINE
8
0
10
230.043037
20
169.766018
30
0.0
11
228.312685
21
170.765052
31
0.0
0
ARC
8
0
10
228.162683
20
170.505245
30
0.0
40
0.300000
50
59.999655
51
90.000000
0
LINE
8
0
10
228.162683
20
170.805245
30
0.0
11
227.983069
21
170.805245
31
0.0
0
ARC
8
0
10
227.983069
20
170.405245
30
0.0
40
0.400000
50
90.000000
51
180.000000
0
LINE
8
0
10
227.583069
20
170.405245
30
0.0
11
227.583069
21
167.005245
31
0.0
0
ARC
8
0
10
227.983069
20
167.005245
30
0.0
40
0.400000
50
180.000000
51
270.000000
0
LINE
8
0
10
227.983069
20
166.605245
30
0.0
11
228.162684
21
166.605245
31
0.0
0
ARC
8
0
10
228.162684
20
166.905245
30
0.0
40
0.300000
50
270.000000
51
300.000000
0
LINE
8
0
10
228.312684
20
166.645437
30
0.0
11
230.043069
21
167.644475
31
0.0
0
ARC
8
0
10
230.643069
20
166.605245
30
0.0
40
1.200000
50
90.000000
51
120.000000
0
LINE
8
0
10
230.643067
20
167.805245
30
0.0
11
238.833246
21
167.805257
31
0.0
0
ARC
8
0
10
238.833246
20
167.605257
30
0.0
40
0.200000
50
0.000000
51
90.000000
0
LINE
8
0
10
239.033246
20
167.605257
30
0.0
11
239.033246
21
146.105256
31
0.0
0
ARC
8
0
10
239.333246
20
146.105256
30
0.0
40
0.300000
50
180.000000
51
270.000000
0
LINE
8
0
10
239.333246
20
145.805256
30
0.0
11
239.833246
21
145.805256
31
0.0
0
ARC
8
0
10
239.833246
20
146.105256
30
0.0
40
0.300000
50
270.000000
51
0.000000
0
LINE
8
0
10
240.133246
20
146.105256
30
0.0
11
240.133246
21
167.605257
31
0.0
0
ARC
8
0
10
240.333246
20
167.605257
30
0.0
40
0.200000
50
90.000000
51
180.000000
0
LINE
8
0
10
240.333246
20
167.805257
30
0.0
11
248.523424
21
167.805256
31
0.0
0
ARC
8
0
10
248.523424
20
166.605256
30
0.0
40
1.200000
50
60.000000
51
90.000000
0
LINE
8
0
10
249.123424
20
167.644487
30
0.0
11
250.853809
21
166.645449
31
0.0
0
ARC
8
0
10
251.003809
20
166.905256
30
0.0
40
0.300000
50
240.000000
51
270.000000
0
LINE
8
0
10
251.003809
20
166.605256
30
0.0
11
251.183424
21
166.605256
31
0.0
0
ARC
8
0
10
251.183424
20
167.005256
30
0.0
40
0.400000
50
270.000000
51
0.000000
0
LINE
8
0
10
251.583424
20
167.005256
30
0.0
11
251.583424
21
170.405256
31
0.0
0
ARC
8
0
10
251.183424
20
170.405256
30
0.0
40
0.400000
50
0.000000
51
90.000000
0
LINE
8
0
10
251.183424
20
170.805256
30
0.0
11
251.003810
21
170.805256
31
0.0
0
ARC
8
0
10
251.003810
20
170.505256
30
0.0
40
0.300000
50
90.000000
51
120.000345
0
ARC
8
0
10
200.783069
20
190.905411
30
0.0
40
0.300000
50
0.000000
51
90.000000
0
LINE
8
0
10
201.083069
20
190.905411
30
0.0
11
201.083069
21
189.405411
31
0.0
0
ARC
8
0
10
200.383069
20
189.405411
30
0.0
40
0.700000
50
270.000000
51
0.000000
0
ARC
8
0
10
200.383069
20
189.005411
30
0.0
40
0.300000
50
180.000000
51
270.000000
0
LINE
8
0
10
200.083069
20
189.005411
30
0.0
11
200.083069
21
189.705411
31
0.0
0
ARC
8
0
10
199.783069
20
189.705411
30
0.0
40
0.300000
50
0.000000
51
90.000000
0
LINE
8
0
10
199.783069
20
190.005411
30
0.0
11
198.583069
21
190.005411
31
0.0
0
ARC
8
0
10
198.583069
20
189.305411
30
0.0
40
0.700000
50
90.000000
51
180.000000
0
LINE
8
0
10
197.883069
20
189.305411
30
0.0
11
197.883069
21
183.105411
31
0.0
0
ARC
8
0
10
198.583069
20
183.105411
30
0.0
40
0.700000
50
180.000000
51
270.000000
0
LINE
8
0
10
198.583069
20
182.405411
30
0.0
11
199.783069
21
182.405411
31
0.0
0
ARC
8
0
10
199.783069
20
182.705411
30
0.0
40
0.300000
50
270.000000
51
0.000000
0
LINE
8
0
10
200.083069
20
182.705411
30
0.0
11
200.083069
21
183.405411
31
0.0
0
ARC
8
0
10
200.383069
20
183.405411
30
0.0
40
0.300000
50
90.000000
51
180.000000
0
ARC
8
0
10
200.383069
20
183.005411
30
0.0
40
0.700000
50
0.000000
51
90.000000
0
LINE
8
0
10
201.083069
20
183.005411
30
0.0
11
201.083069
21
181.505411
31
0.0
0
ARC
8
0
10
200.783069
20
181.505411
30
0.0
40
0.300000
50
270.000000
51
0.000000
0
LINE
8
0
10
200.783069
20
181.205411
30
0.0
11
198.683069
21
181.205411
31
0.0
0
ARC
8
0
10
198.683069
20
180.905411
30
0.0
40
0.300000
50
90.000000
51
180.000000
0
LINE
8
0
10
198.383069
20
180.905411
30
0.0
11
198.383069
21
173.705411
31
0.0
0
ARC
8
0
10
199.383069
20
173.705411
30
0.0
40
1.000000
50
180.000000
51
270.000000
0
LINE
8
0
10
199.383069
20
172.705411
30
0.0
11
227.805384
21
172.705411
31
0.0
0
LINE
8
0
10
227.881848
20
172.695503
30
0.0
11
227.805384
21
172.705411
31
0.0
0
LINE
8
0
10
227.881848
20
172.695503
30
0.0
11
228.844051
21
172.441881
31
0.0
0
ARC
8
0
10
228.933772
20
172.728150
30
0.0
40
0.300000
50
252.598279
51
330.367342
0
ARC
8
0
10
229.368378
20
172.480931
30
0.0
40
0.200000
50
90.000000
51
150.367342
0
LINE
8
0
10
229.369780
20
172.680926
30
0.0
11
230.920875
21
172.680926
31
0.0
0
ARC
8
0
10
230.920875
20
172.380926
30
0.0
40
0.300000
50
342.598279
51
90.000000
0
LINE
8
0
10
231.207144
20
172.291206
30
0.0
11
230.605180
21
170.370537
31
0.0
0
ARC
8
0
10
229.841795
20
170.609792
30
0.0
40
0.800000
50
297.598279
51
342.598279
0
LINE
8
0
10
230.212410
20
169.900818
30
0.0
11
229.931340
21
169.753889
31
0.0
0
ARC
8
0
10
229.838686
20
169.931133
30
0.0
40
0.200000
50
180.000000
51
297.598279
0
LINE
8
0
10
229.638862
20
169.939514
30
0.0
11
229.650959
21
170.227935
31
0.0
0
LINE
8
0
10
229.650959
20
170.227935
30
0.0
11
227.942862
21
171.311998
31
0.0
0
ARC
8
0
10
227.621350
20
170.805411
30
0.0
40
0.600000
50
57.598279
51
90.000000
0
LINE
8
0
10
227.621350
20
171.405411
30
0.0
11
227.583069
21
171.405411
31
0.0
0
ARC
8
0
10
227.683069
20
171.122569
30
0.0
40
0.300000
50
109.471221
51
250.528779
0
LINE
8
0
10
227.583069
20
170.839726
30
0.0
11
227.583069
21
166.905411
31
0.0
0
LINE
8
0
10
227.583069
20
166.905411
30
0.0
11
227.583069
21
166.805411
31
0.0
0
ARC
8
0
10
227.883069
20
166.805411
30
0.0
40
0.300000
50
180.000000
51
270.000000
0
LINE
8
0
10
227.883069
20
166.505411
30
0.0
11
228.183069
21
166.505411
31
0.0
0
LINE
8
0
10
228.183069
20
166.505411
30
0.0
11
229.783069
21
167.429172
31
0.0
0
ARC
8
0
10
229.883069
20
167.255967
30
0.0
40
0.200000
50
40.000000
51
120.000000
0
LINE
8
0
10
230.036278
20
167.384524
30
0.0
11
232.012882
21
165.028899
31
0.0
0
ARC
8
0
10
231.783069
20
164.836062
30
0.0
40
0.300000
50
0.000000
51
40.000000
0
LINE
8
0
10
232.083069
20
164.836062
30
0.0
11
232.083069
21
125.074760
31
0.0
0
ARC
8
0
10
231.783069
20
125.074760
30
0.0
40
0.300000
50
320.000000
51
0.000000
0
LINE
8
0
10
232.012882
20
124.881924
30
0.0
11
230.036278
21
122.526298
31
0.0
0
ARC
8
0
10
229.883069
20
122.654856
30
0.0
40
0.200000
50
240.000000
51
320.000000
0
LINE
8
0
10
229.783069
20
122.481651
30
0.0
11
228.183069
21
123.405411
31
0.0
0
LINE
8
0
10
228.183069
20
123.405411
30
0.0
11
227.883069
21
123.405411
31
0.0
0
ARC
8
0
10
227.883069
20
123.105411
30
0.0
40
0.300000
50
90.000000
51
180.000000
0
LINE
8
0
10
227.583069
20
123.105411
30
0.0
11
227.583069
21
119.071097
31
0.0
0
ARC
8
0
10
227.683069
20
118.788254
30
0.0
40
0.300000
50
109.471221
51
250.528779
0
LINE
8
0
10
227.583069
20
118.505411
30
0.0
11
227.621350
21
118.505411
31
0.0
0
ARC
8
0
10
227.621350
20
119.105411
30
0.0
40
0.600000
50
270.000000
51
302.401721
0
LINE
8
0
10
227.942862
20
118.598824
30
0.0
11
229.650959
21
119.682887
31
0.0
0
LINE
8
0
10
229.650959
20
119.682887
30
0.0
11
229.638862
21
119.971309
31
0.0
0
ARC
8
0
10
229.838686
20
119.979690
30
0.0
40
0.200000
50
62.401721
51
180.000000
0
LINE
8
0
10
229.931340
20
120.156934
30
0.0
11
230.212410
21
120.010004
31
0.0
0
ARC
8
0
10
229.841795
20
119.301030
30
0.0
40
0.800000
50
17.401721
51
62.401721
0
LINE
8
0
10
230.605180
20
119.540286
30
0.0
11
231.207144
21
117.619617
31
0.0
0
ARC
8
0
10
230.920875
20
117.529896
30
0.0
40
0.300000
50
270.000000
51
17.401721
0
LINE
8
0
10
230.920875
20
117.229896
30
0.0
11
229.369780
21
117.229896
31
0.0
0
ARC
8
0
10
229.368378
20
117.429891
30
0.0
40
0.200000
50
209.632658
51
270.000000
0
ARC
8
0
10
228.933772
20
117.182673
30
0.0
40
0.300000
50
29.632658
51
107.401721
0
LINE
8
0
10
228.844051
20
117.468942
30
0.0
11
227.881848
21
117.215320
31
0.0
0
LINE
8
0
10
227.805384
20
117.205411
30
0.0
11
227.881848
21
117.215320
31
0.0
0
LINE
8
0
10
227.805384
20
117.205411
30
0.0
11
226.178409
21
117.205411
31
0.0
0
ARC
8
0
10
226.178409
20
117.505411
30
0.0
40
0.300000
50
180.000000
51
270.000000
0
LINE
8
0
10
225.878409
20
117.505411
30
0.0
11
225.878409
21
123.506522
31
0.0
0
ARC
8
0
10
225.578409
20
123.506522
30
0.0
40
0.300000
50
0.000000
51
90.000000
0
LINE
8
0
10
225.578409
20
123.806522
30
0.0
11
214.683069
21
123.806522
31
0.0
0
ARC
8
0
10
214.683069
20
123.506522
30
0.0
40
0.300000
50
90.000000
51
180.000000
0
LINE
8
0
10
214.383069
20
123.506522
30
0.0
11
214.383069
21
117.505411
31
0.0
0
ARC
8
0
10
214.083069
20
117.505411
30
0.0
40
0.300000
50
270.000000
51
0.000000
0
LINE
8
0
10
214.083069
20
117.205411
30
0.0
11
211.633624
21
117.205411
31
0.0
0
ARC
8
0
10
211.633624
20
117.505411
30
0.0
40
0.300000
50
210.000000
51
270.000000
0
LINE
8
0
10
211.373816
20
117.355411
30
0.0
11
210.923261
21
118.135796
31
0.0
0
ARC
8
0
10
211.183069
20
118.285796
30
0.0
40
0.300000
50
180.000000
51
210.000000
0
LINE
8
0
10
210.883069
20
118.285796
30
0.0
11
210.883069
21
118.405411
31
0.0
0
ARC
8
0
10
211.183069
20
118.405411
30
0.0
40
0.300000
50
90.000000
51
180.000000
0
LINE
8
0
10
211.183069
20
118.705411
30
0.0
11
212.583069
21
118.705411
31
0.0
0
ARC
8
0
10
212.583069
20
119.005411
30
0.0
40
0.300000
50
270.000000
51
0.000000
0
LINE
8
0
10
212.883069
20
119.005411
30
0.0
11
212.883069
21
123.506522
31
0.0
0
ARC
8
0
10
212.583069
20
123.506522
30
0.0
40
0.300000
50
0.000000
51
90.000000
0
LINE
8
0
10
212.583069
20
123.806522
30
0.0
11
211.383069
21
123.806522
31
0.0
0
ARC
8
0
10
211.383069
20
123.506522
30
0.0
40
0.300000
50
90.000000
51
180.000000
0
LINE
8
0
10
211.083069
20
123.506522
30
0.0
11
211.083069
21
122.505011
31
0.0
0
ARC
8
0
10
210.783069
20
122.505011
30
0.0
40
0.300000
50
270.000000
51
0.000000
0
LINE
8
0
10
210.783069
20
122.205011
30
0.0
11
209.383069
21
122.205011
31
0.0
0
ARC
8
0
10
209.383069
20
122.505011
30
0.0
40
0.300000
50
180.000000
51
270.000000
0
LINE
8
0
10
209.083069
20
122.505011
30
0.0
11
209.083069
21
123.506522
31
0.0
0
ARC
8
0
10
208.783069
20
123.506522
30
0.0
40
0.300000
50
0.000000
51
90.000000
0
LINE
8
0
10
208.783069
20
123.806522
30
0.0
11
202.483069
21
123.806522
31
0.0
0
ARC
8
0
10
202.483069
20
123.506522
30
0.0
40
0.300000
50
90.000000
51
180.000000
0
LINE
8
0
10
202.183069
20
123.506522
30
0.0
11
202.183069
21
122.505011
31
0.0
0
ARC
8
0
10
201.883069
20
122.505011
30
0.0
40
0.300000
50
270.000000
51
0.000000
0
LINE
8
0
10
201.883069
20
122.205011
30
0.0
11
200.483069
21
122.205011
31
0.0
0
ARC
8
0
10
200.483069
20
122.505011
30
0.0
40
0.300000
50
180.000000
51
270.000000
0
LINE
8
0
10
200.183069
20
122.505011
30
0.0
11
200.183069
21
123.506522
31
0.0
0
ARC
8
0
10
199.883069
20
123.506522
30
0.0
40
0.300000
50
0.000000
51
90.000000
0
LINE
8
0
10
199.883069
20
123.806522
30
0.0
11
198.683069
21
123.806522
31
0.0
0
ARC
8
0
10
198.683069
20
123.506522
30
0.0
40
0.300000
50
90.000000
51
180.000000
0
LINE
8
0
10
198.383069
20
123.506522
30
0.0
11
198.383069
21
119.005411
31
0.0
0
ARC
8
0
10
198.683069
20
119.005411
30
0.0
40
0.300000
50
180.000000
51
270.000000
0
LINE
8
0
10
198.683069
20
118.705411
30
0.0
11
200.583069
21
118.705411
31
0.0
0
ARC
8
0
10
200.583069
20
118.405411
30
0.0
40
0.300000
50
0.000000
51
90.000000
0
LINE
8
0
10
200.883069
20
118.405411
30
0.0
11
200.883069
21
118.285796
31
0.0
0
ARC
8
0
10
200.583069
20
118.285796
30
0.0
40
0.300000
50
330.000000
51
0.000000
0
LINE
8
0
10
200.842876
20
118.135796
30
0.0
11
200.392321
21
117.355411
31
0.0
0
ARC
8
0
10
200.132513
20
117.505411
30
0.0
40
0.300000
50
270.000000
51
330.000000
0
LINE
8
0
10
200.132513
20
117.205411
30
0.0
11
196.883069
21
117.205411
31
0.0
0
ARC
8
0
10
196.883069
20
117.505411
30
0.0
40
0.300000
50
180.000000
51
270.000000
0
LINE
8
0
10
196.583069
20
117.505411
30
0.0
11
196.583069
21
190.705411
31
0.0
0
ARC
8
0
10
197.083069
20
190.705411
30
0.0
40
0.500000
50
90.000000
51
180.000000
0
LINE
8
0
10
197.083069
20
191.205411
30
0.0
11
200.783069
21
191.205411
31
0.0
0
LINE
8
0
10
258.683584
20
129.307633
30
0.0
11
253.183326
21
129.307633
31
0.0
0
LINE
8
0
10
253.183326
20
129.307633
30
0.0
11
253.183326
21
121.803190
31
0.0
0
LINE
8
0
10
253.183326
20
121.803190
30
0.0
11
258.683584
21
121.803190
31
0.0
0
LINE
8
0
10
258.683584
20
121.803190
30
0.0
11
258.683584
21
129.307633
31
0.0
0
ARC
8
0
10
258.183584
20
163.703190
30
0.0
40
0.300000
50
0.000000
51
90.000000
0
LINE
8
0
10
258.183584
20
164.003190
30
0.0
11
251.906202
21
164.003190
31
0.0
0
ARC
8
0
10
251.906202
20
165.003190
30
0.0
40
1.000000
50
228.590378
51
270.000000
0
ARC
8
0
10
250.583326
20
163.503190
30
0.0
40
1.000000
50
48.590378
51
60.000000
0
LINE
8
0
10
251.083326
20
164.369215
30
0.0
11
249.583326
21
165.235241
31
0.0
0
ARC
8
0
10
250.083326
20
166.101266
30
0.0
40
1.000000
50
180.000000
51
240.000000
0
LINE
8
0
10
249.083326
20
166.101266
30
0.0
11
249.083326
21
167.291858
31
0.0
0
ARC
8
0
10
249.283326
20
167.291858
30
0.0
40
0.200000
50
59.000000
51
180.000000
0
LINE
8
0
10
249.386334
20
167.463291
30
0.0
11
250.909200
21
166.548261
31
0.0
0
ARC
8
0
10
251.063711
20
166.805411
30
0.0
40
0.300000
50
239.000000
51
270.000000
0
LINE
8
0
10
251.063711
20
166.505411
30
0.0
11
251.283326
21
166.505411
31
0.0
0
ARC
8
0
10
251.283326
20
166.805411
30
0.0
40
0.300000
50
270.000000
51
0.000000
0
LINE
8
0
10
251.583326
20
166.805411
30
0.0
11
251.583326
21
170.839726
31
0.0
0
ARC
8
0
10
251.483326
20
171.122569
30
0.0
40
0.300000
50
289.471221
51
70.528779
0
LINE
8
0
10
251.583326
20
171.405411
30
0.0
11
251.545045
21
171.405411
31
0.0
0
ARC
8
0
10
251.545045
20
170.805411
30
0.0
40
0.600000
50
90.000000
51
122.401721
0
LINE
8
0
10
251.223533
20
171.311998
30
0.0
11
249.515436
21
170.227935
31
0.0
0
LINE
8
0
10
249.515436
20
170.227935
30
0.0
11
249.527534
21
169.939514
31
0.0
0
ARC
8
0
10
249.327709
20
169.931133
30
0.0
40
0.200000
50
242.401721
51
0.000000
0
LINE
8
0
10
249.235055
20
169.753889
30
0.0
11
248.953985
21
169.900818
31
0.0
0
ARC
8
0
10
249.324601
20
170.609792
30
0.0
40
0.800000
50
197.401721
51
242.401721
0
LINE
8
0
10
248.561215
20
170.370537
30
0.0
11
247.959251
21
172.291206
31
0.0
0
ARC
8
0
10
248.245520
20
172.380926
30
0.0
40
0.300000
50
90.000000
51
197.401721
0
LINE
8
0
10
248.245520
20
172.680926
30
0.0
11
249.799419
21
172.680926
31
0.0
0
ARC
8
0
10
249.798017
20
172.480931
30
0.0
40
0.200000
50
29.632658
51
90.000000
0
ARC
8
0
10
250.232623
20
172.728150
30
0.0
40
0.300000
50
209.632658
51
282.131204
0
LINE
8
0
10
250.295669
20
172.434849
30
0.0
11
251.322138
21
172.705411
31
0.0
0
LINE
8
0
10
251.322138
20
172.705411
30
0.0
11
252.933326
21
172.705411
31
0.0
0
ARC
8
0
10
252.933326
20
173.005411
30
0.0
40
0.300000
50
270.000000
51
0.000000
0
LINE
8
0
10
253.233326
20
173.005411
30
0.0
11
253.233326
21
176.905411
31
0.0
0
ARC
8
0
10
253.533326
20
176.905411
30
0.0
40
0.300000
50
90.000000
51
180.000000
0
LINE
8
0
10
253.533326
20
177.205411
30
0.0
11
254.533326
21
177.205411
31
0.0
0
ARC
8
0
10
254.533326
20
176.905411
30
0.0
40
0.300000
50
0.000000
51
90.000000
0
LINE
8
0
10
254.833326
20
176.905411
30
0.0
11
254.833326
21
166.505411
31
0.0
0
ARC
8
0
10
255.133326
20
166.505411
30
0.0
40
0.300000
50
180.000000
51
270.000000
0
LINE
8
0
10
255.133326
20
166.205411
30
0.0
11
260.183584
21
166.205411
31
0.0
0
ARC
8
0
10
260.183584
20
165.905411
30
0.0
40
0.300000
50
0.000000
51
90.000000
0
LINE
8
0
10
260.483584
20
165.905411
30
0.0
11
260.483584
21
165.303130
31
0.0
0
ARC
8
0
10
260.183584
20
165.303130
30
0.0
40
0.300000
50
270.000000
51
0.000000
0
LINE
8
0
10
260.183584
20
165.003130
30
0.0
11
260.083584
21
165.003130
31
0.0
0
LINE
8
0
10
260.083584
20
165.003130
30
0.0
11
260.083584
21
142.805411
31
0.0
0
LINE
8
0
10
260.083584
20
142.805411
30
0.0
11
260.183584
21
142.805411
31
0.0
0
ARC
8
0
10
260.183584
20
142.505411
30
0.0
40
0.300000
50
0.000000
51
90.000000
0
LINE
8
0
10
260.483584
20
142.505411
30
0.0
11
260.483584
21
141.905411
31
0.0
0
ARC
8
0
10
260.183584
20
141.905411
30
0.0
40
0.300000
50
270.000000
51
0.000000
0
LINE
8
0
10
260.183584
20
141.605411
30
0.0
11
260.083584
21
141.605411
31
0.0
0
LINE
8
0
10
260.083584
20
141.605411
30
0.0
11
260.083584
21
130.605411
31
0.0
0
LINE
8
0
10
260.083584
20
130.605411
30
0.0
11
260.183584
21
130.605411
31
0.0
0
ARC
8
0
10
260.183584
20
130.305411
30
0.0
40
0.300000
50
0.000000
51
90.000000
0
LINE
8
0
10
260.483584
20
130.305411
30
0.0
11
260.483584
21
129.705411
31
0.0
0
ARC
8
0
10
260.183584
20
129.705411
30
0.0
40
0.300000
50
270.000000
51
0.000000
0
LINE
8
0
10
260.183584
20
129.405411
30
0.0
11
260.083584
21
129.405411
31
0.0
0
LINE
8
0
10
260.083584
20
129.405411
30
0.0
11
260.083584
21
118.405411
31
0.0
0
LINE
8
0
10
260.083584
20
118.405411
30
0.0
11
260.183584
21
118.405411
31
0.0
0
ARC
8
0
10
260.183584
20
118.105411
30
0.0
40
0.300000
50
0.000000
51
90.000000
0
LINE
8
0
10
260.483584
20
118.105411
30
0.0
11
260.483584
21
117.505411
31
0.0
0
ARC
8
0
10
260.183584
20
117.505411
30
0.0
40
0.300000
50
270.000000
51
0.000000
0
LINE
8
0
10
260.183584
20
117.205411
30
0.0
11
259.083584
21
117.205411
31
0.0
0
ARC
8
0
10
259.083584
20
117.505411
30
0.0
40
0.300000
50
180.000000
51
270.000000
0
LINE
8
0
10
258.783584
20
117.505411
30
0.0
11
258.783584
21
119.905411
31
0.0
0
ARC
8
0
10
258.483584
20
119.905411
30
0.0
40
0.300000
50
0.000000
51
90.000000
0
LINE
8
0
10
258.483584
20
120.205411
30
0.0
11
253.883326
21
120.205411
31
0.0
0
ARC
8
0
10
253.883326
20
119.905411
30
0.0
40
0.300000
50
90.000000
51
180.000000
0
LINE
8
0
10
253.583326
20
119.905411
30
0.0
11
253.583326
21
117.505411
31
0.0
0
ARC
8
0
10
253.283326
20
117.505411
30
0.0
40
0.300000
50
270.000000
51
0.000000
0
LINE
8
0
10
253.283326
20
117.205411
30
0.0
11
251.322138
21
117.205411
31
0.0
0
LINE
8
0
10
251.322138
20
117.205411
30
0.0
11
250.322344
21
117.468942
31
0.0
0
ARC
8
0
10
250.232623
20
117.182673
30
0.0
40
0.300000
50
72.598279
51
150.367342
0
ARC
8
0
10
249.798017
20
117.429891
30
0.0
40
0.200000
50
270.000000
51
330.367342
0
LINE
8
0
10
249.796615
20
117.229896
30
0.0
11
248.245520
21
117.229896
31
0.0
0
ARC
8
0
10
248.245520
20
117.529896
30
0.0
40
0.300000
50
162.598279
51
270.000000
0
LINE
8
0
10
247.959251
20
117.619617
30
0.0
11
248.561215
21
119.540286
31
0.0
0
ARC
8
0
10
249.324601
20
119.301030
30
0.0
40
0.800000
50
117.598279
51
162.598279
0
LINE
8
0
10
248.953985
20
120.010004
30
0.0
11
249.235055
21
120.156934
31
0.0
0
ARC
8
0
10
249.327709
20
119.979690
30
0.0
40
0.200000
50
0.000000
51
117.598279
0
LINE
8
0
10
249.527534
20
119.971309
30
0.0
11
249.515436
21
119.682887
31
0.0
0
LINE
8
0
10
249.515436
20
119.682887
30
0.0
11
251.223533
21
118.598824
31
0.0
0
ARC
8
0
10
251.545045
20
119.105411
30
0.0
40
0.600000
50
237.598279
51
270.000000
0
LINE
8
0
10
251.545045
20
118.505411
30
0.0
11
251.583326
21
118.505411
31
0.0
0
ARC
8
0
10
251.483326
20
118.788254
30
0.0
40
0.300000
50
289.471221
51
70.528779
0
LINE
8
0
10
251.583326
20
119.071097
30
0.0
11
251.583326
21
123.105411
31
0.0
0
ARC
8
0
10
251.283326
20
123.105411
30
0.0
40
0.300000
50
0.000000
51
90.000000
0
LINE
8
0
10
251.283326
20
123.405411
30
0.0
11
251.063711
21
123.405411
31
0.0
0
ARC
8
0
10
251.063711
20
123.105411
30
0.0
40
0.300000
50
90.000000
51
121.000000
0
LINE
8
0
10
250.909200
20
123.362562
30
0.0
11
249.386334
21
122.447532
31
0.0
0
ARC
8
0
10
249.283326
20
122.618965
30
0.0
40
0.200000
50
180.000000
51
301.000000
0
LINE
8
0
10
249.083326
20
122.618965
30
0.0
11
249.083326
21
123.809557
31
0.0
0
ARC
8
0
10
250.083326
20
123.809557
30
0.0
40
1.000000
50
120.000000
51
180.000000
0
LINE
8
0
10
249.583326
20
124.675582
30
0.0
11
251.433326
21
125.743680
31
0.0
0
ARC
8
0
10
251.283326
20
126.003488
30
0.0
40
0.300000
50
300.000000
51
0.000000
0
LINE
8
0
10
251.583326
20
126.003488
30
0.0
11
251.583326
21
130.507633
31
0.0
0
ARC
8
0
10
251.883326
20
130.507633
30
0.0
40
0.300000
50
90.000000
51
180.000000
0
LINE
8
0
10
251.883326
20
130.807633
30
0.0
11
258.183584
21
130.807633
31
0.0
0
ARC
8
0
10
258.183584
20
131.107633
30
0.0
40
0.300000
50
270.000000
51
0.000000
0
LINE
8
0
10
258.483584
20
131.107633
30
0.0
11
258.483584
21
163.703190
31
0.0
0
ATTDEF
8
0
10
252.302732
20
117.205411
30
0.0
40
3.5
1

3

2
VC_START
70
0
0
ATTDEF
8
0
10
249.022470
20
172.680926
30
0.0
40
3.5
1

3

2
VC_END
70
0
0
ATTDEF
8
0
10
260.483584
20
191.205411
30
0.0
40
3.5
1

3

2
DESC:Anta Z per incollaggio Pannello
70
0
0
ATTDEF
8
0
10
260.483584
20
191.205411
30
0.0
40
3.5
1

3

2
DENS:1.840000
70
0
0
ATTDEF
8
0
10
260.483584
20
191.205411
30
0.0
40
3.5
1

3

2
TDEV:0.000000
70
0
0
ATTDEF
8
0
10
260.483584
20
191.205411
30
0.0
40
3.5
1

3

2
TDEV2:0.000000
70
0
0
ATTDEF
8
0
10
260.483584
20
191.205411
30
0.0
40
3.5
1

3

2
TDEV3:0.000000
70
0
0
ATTDEF
8
0
10
260.483584
20
191.205411
30
0.0
40
3.5
1

3

2
TDEV4:0.000000
70
0
0
ATTDEF
8
0
10
260.483584
20
191.205411
30
0.0
40
3.5
1

3

2
TDEV5:0.000000
70
0
0
ATTDEF
8
0
10
260.483584
20
191.205411
30
0.0
40
3.5
1

3

2
FRONT_VIEW
70
0
0
ATTDEF
8
0
10
260.483584
20
191.205411
30
0.0
40
3.5
1

3

2
BL01:6800.000000,,1
70
0
0
ATTDEF
8
0
10
260.483584
20
191.205411
30
0.0
40
3.5
1

3

2
OPTI:500.000000,1,0,3000.000000,6500.000000,500.000000,0,0.000000,0
70
0
0
ATTDEF
8
0
10
260.483584
20
191.205411
30
0.0
40
3.5
1

3

2
PANE_WIDTH:0.000000
70
0
0
ATTDEF
8
0
10
260.483584
20
191.205411
30
0.0
40
3.5
1

3

2
GLASS_MIN:0.000000
70
0
0
ATTDEF
8
0
10
260.483584
20
191.205411
30
0.0
40
3.5
1

3

2
GLASS_MAX:0.000000
70
0
0
ATTDEF
8
0
10
260.483584
20
191.205411
30
0.0
40
3.5
1

3

2
JX:0.000000
70
0
0
ATTDEF
8
0
10
260.483584
20
191.205411
30
0.0
40
3.5
1

3

2
WX:0.000000
70
0
0
ATTDEF
8
0
10
260.483584
20
191.205411
30
0.0
40
3.5
1

3

2
JY:0.000000
70
0
0
ATTDEF
8
0
10
260.483584
20
191.205411
30
0.0
40
3.5
1

3

2
WY:0.000000
70
0
0
ATTDEF
8
0
10
260.483584
20
191.205411
30
0.0
40
3.5
1

3

2
FP_LCS_ORIG
70
0
0
ATTDEF
8
0
10
250.483584
20
191.205411
30
0.0
40
3.5
1

3

2
FP_LCS_HOT
70
0
0
ATTDEF
8
0
10
260.483584
20
181.205411
30
0.0
40
3.5
1

3

2
FP_LCS_INTERN
70
0
0
ENDSEC
0
EOF
