0
SECTION
2
ENTITIES
0
ARC
8
0
10
3.800000
20
8.200000
30
0.0
40
0.700000
50
270.000000
51
360.000000
0
ARC
8
0
10
3.800000
20
7.800000
30
0.0
40
0.300000
50
180.000000
51
270.000000
0
LINE
8
0
10
3.500000
20
7.800000
30
0.0
11
3.500000
21
8.500000
31
0.0
0
ARC
8
0
10
3.200000
20
8.500000
30
0.0
40
0.300000
50
360.000000
51
90.000000
0
LINE
8
0
10
3.200000
20
8.800000
30
0.0
11
2.000000
21
8.800000
31
0.0
0
ARC
8
0
10
2.000000
20
8.100000
30
0.0
40
0.700000
50
90.000000
51
180.000000
0
LINE
8
0
10
1.300000
20
8.100000
30
0.0
11
1.300000
21
1.900000
31
0.0
0
ARC
8
0
10
2.000000
20
1.900000
30
0.0
40
0.700000
50
180.000000
51
270.000000
0
LINE
8
0
10
2.000000
20
1.200000
30
0.0
11
3.200000
21
1.200000
31
0.0
0
ARC
8
0
10
3.200000
20
1.500000
30
0.0
40
0.300000
50
270.000000
51
360.000000
0
LINE
8
0
10
3.500000
20
1.500000
30
0.0
11
3.500000
21
2.200000
31
0.0
0
ARC
8
0
10
3.800000
20
2.200000
30
0.0
40
0.300000
50
90.000000
51
180.000000
0
ARC
8
0
10
3.800000
20
1.800000
30
0.0
40
0.700000
50
360.000000
51
90.000000
0
LINE
8
0
10
4.500000
20
1.800000
30
0.0
11
4.500000
21
0.300000
31
0.0
0
ARC
8
0
10
4.200000
20
0.300000
30
0.0
40
0.300000
50
270.000000
51
360.000000
0
LINE
8
0
10
4.200000
20
0.000000
30
0.0
11
0.500000
21
0.000000
31
0.0
0
ARC
8
0
10
0.500000
20
0.500000
30
0.0
40
0.500000
50
180.000000
51
270.000000
0
LINE
8
0
10
0.000000
20
0.500000
30
0.0
11
0.000000
21
95.699973
31
0.0
0
ARC
8
0
10
0.300000
20
95.699973
30
0.0
40
0.300000
50
90.000000
51
180.000000
0
LINE
8
0
10
0.300000
20
95.999973
30
0.0
11
4.200000
21
95.999973
31
0.0
0
ARC
8
0
10
4.200000
20
95.699973
30
0.0
40
0.300000
50
360.000000
51
90.000000
0
LINE
8
0
10
4.500000
20
95.699973
30
0.0
11
4.500000
21
94.199973
31
0.0
0
ARC
8
0
10
3.800000
20
94.199973
30
0.0
40
0.700000
50
270.000000
51
360.000000
0
ARC
8
0
10
3.800000
20
93.799973
30
0.0
40
0.300000
50
180.000000
51
270.000000
0
LINE
8
0
10
3.500000
20
93.799973
30
0.0
11
3.500000
21
94.499973
31
0.0
0
ARC
8
0
10
3.200000
20
94.499973
30
0.0
40
0.300000
50
360.000000
51
90.000000
0
LINE
8
0
10
3.200000
20
94.799973
30
0.0
11
2.000000
21
94.799973
31
0.0
0
ARC
8
0
10
2.000000
20
94.099973
30
0.0
40
0.700000
50
90.000000
51
180.000000
0
LINE
8
0
10
1.300000
20
94.099973
30
0.0
11
1.300000
21
87.899973
31
0.0
0
ARC
8
0
10
2.000000
20
87.899973
30
0.0
40
0.700000
50
180.000000
51
270.000000
0
LINE
8
0
10
2.000000
20
87.199973
30
0.0
11
3.200000
21
87.199973
31
0.0
0
ARC
8
0
10
3.200000
20
87.499973
30
0.0
40
0.300000
50
270.000000
51
360.000000
0
LINE
8
0
10
3.500000
20
87.499973
30
0.0
11
3.500000
21
88.199973
31
0.0
0
ARC
8
0
10
3.800000
20
88.199973
30
0.0
40
0.300000
50
90.000000
51
180.000000
0
ARC
8
0
10
3.800000
20
87.799973
30
0.0
40
0.700000
50
360.000000
51
90.000000
0
LINE
8
0
10
4.500000
20
87.799973
30
0.0
11
4.500000
21
84.799973
31
0.0
0
ARC
8
0
10
4.200000
20
84.799973
30
0.0
40
0.300000
50
270.000000
51
360.000000
0
LINE
8
0
10
4.200000
20
84.499973
30
0.0
11
3.800000
21
84.499973
31
0.0
0
ARC
8
0
10
3.800000
20
84.799973
30
0.0
40
0.300000
50
180.000000
51
270.000000
0
LINE
8
0
10
3.500000
20
84.799973
30
0.0
11
3.500000
21
85.699973
31
0.0
0
ARC
8
0
10
3.200000
20
85.699973
30
0.0
40
0.300000
50
360.000000
51
90.000000
0
LINE
8
0
10
3.200000
20
85.999973
30
0.0
11
1.800000
21
85.999973
31
0.0
0
ARC
8
0
10
1.800000
20
85.699973
30
0.0
40
0.300000
50
90.000000
51
180.000000
0
LINE
8
0
10
1.500000
20
85.699973
30
0.0
11
1.500000
21
71.999973
31
0.0
0
ARC
8
0
10
2.500000
20
71.999973
30
0.0
40
1.000000
50
180.000000
51
270.000000
0
LINE
8
0
10
2.500000
20
70.999973
30
0.0
11
9.700000
21
70.999973
31
0.0
0
ARC
8
0
10
9.700000
20
71.299973
30
0.0
40
0.300000
50
270.000000
51
360.000000
0
LINE
8
0
10
10.000000
20
71.299973
30
0.0
11
10.000000
21
73.699973
31
0.0
0
ARC
8
0
10
10.300000
20
73.699973
30
0.0
40
0.300000
50
90.000000
51
180.000000
0
LINE
8
0
10
10.300000
20
73.999973
30
0.0
11
12.222315
21
73.999973
31
0.0
0
LINE
8
0
10
12.298779
20
73.990064
30
0.0
11
12.222315
21
73.999973
31
0.0
0
LINE
8
0
10
12.298779
20
73.990064
30
0.0
11
13.260982
21
73.736442
31
0.0
0
ARC
8
0
10
13.350703
20
74.022711
30
0.0
40
0.300000
50
252.598279
51
330.367342
0
ARC
8
0
10
13.785310
20
73.775492
30
0.0
40
0.200000
50
90.000000
51
150.367342
0
LINE
8
0
10
13.786712
20
73.975488
30
0.0
11
15.337806
21
73.975488
31
0.0
0
ARC
8
0
10
15.337806
20
73.675488
30
0.0
40
0.300000
50
342.598279
51
90.000000
0
LINE
8
0
10
15.624075
20
73.585767
30
0.0
11
15.022111
21
71.665098
31
0.0
0
ARC
8
0
10
14.258726
20
71.904353
30
0.0
40
0.800000
50
297.598279
51
342.598279
0
LINE
8
0
10
14.629341
20
71.195379
30
0.0
11
14.348271
21
71.048450
31
0.0
0
ARC
8
0
10
14.255617
20
71.225694
30
0.0
40
0.200000
50
180.000000
51
297.598279
0
LINE
8
0
10
14.055793
20
71.234075
30
0.0
11
14.067890
21
71.522496
31
0.0
0
LINE
8
0
10
14.067890
20
71.522496
30
0.0
11
12.359793
21
72.606560
31
0.0
0
ARC
8
0
10
12.038282
20
72.099973
30
0.0
40
0.600000
50
57.598279
51
90.000000
0
LINE
8
0
10
12.038282
20
72.699973
30
0.0
11
12.000000
21
72.699973
31
0.0
0
ARC
8
0
10
12.100000
20
72.417130
30
0.0
40
0.300000
50
109.471221
51
250.528779
0
LINE
8
0
10
12.000000
20
72.134287
30
0.0
11
12.000000
21
68.099973
31
0.0
0
ARC
8
0
10
12.300000
20
68.099973
30
0.0
40
0.300000
50
180.000000
51
270.000000
0
LINE
8
0
10
12.300000
20
67.799973
30
0.0
11
12.519615
21
67.799973
31
0.0
0
ARC
8
0
10
12.519615
20
68.099973
30
0.0
40
0.300000
50
270.000000
51
300.000000
0
LINE
8
0
10
12.669615
20
67.840165
30
0.0
11
14.200000
21
68.723733
31
0.0
0
ARC
8
0
10
14.300000
20
68.550528
30
0.0
40
0.200000
50
360.000000
51
120.000000
0
LINE
8
0
10
14.500000
20
68.550528
30
0.0
11
14.500000
21
67.395827
31
0.0
0
ARC
8
0
10
13.500000
20
67.395827
30
0.0
40
1.000000
50
300.000000
51
360.000000
0
LINE
8
0
10
14.000000
20
66.529802
30
0.0
11
12.500000
21
65.663777
31
0.0
0
ARC
8
0
10
13.000000
20
64.797751
30
0.0
40
1.000000
50
120.000000
51
180.000000
0
LINE
8
0
10
12.000000
20
64.797751
30
0.0
11
12.000000
21
27.999973
31
0.0
0
ARC
8
0
10
12.300000
20
27.999973
30
0.0
40
0.300000
50
180.000000
51
270.000000
0
LINE
8
0
10
12.300000
20
27.699973
30
0.0
11
14.200000
21
27.699973
31
0.0
0
ARC
8
0
10
14.200000
20
27.399973
30
0.0
40
0.300000
50
360.000000
51
90.000000
0
LINE
8
0
10
14.500000
20
27.399973
30
0.0
11
14.500000
21
23.949417
31
0.0
0
ARC
8
0
10
14.300000
20
23.949417
30
0.0
40
0.200000
50
240.000000
51
360.000000
0
LINE
8
0
10
14.200000
20
23.776212
30
0.0
11
12.669615
21
24.659780
31
0.0
0
ARC
8
0
10
12.519615
20
24.399973
30
0.0
40
0.300000
50
60.000000
51
90.000000
0
LINE
8
0
10
12.519615
20
24.699973
30
0.0
11
12.300000
21
24.699973
31
0.0
0
ARC
8
0
10
12.300000
20
24.399973
30
0.0
40
0.300000
50
90.000000
51
180.000000
0
LINE
8
0
10
12.000000
20
24.399973
30
0.0
11
12.000000
21
20.365658
31
0.0
0
ARC
8
0
10
12.100000
20
20.082815
30
0.0
40
0.300000
50
109.471221
51
250.528779
0
LINE
8
0
10
12.000000
20
19.799973
30
0.0
11
12.038282
21
19.799973
31
0.0
0
ARC
8
0
10
12.038282
20
20.399973
30
0.0
40
0.600000
50
270.000000
51
302.401721
0
LINE
8
0
10
12.359793
20
19.893385
30
0.0
11
14.067890
21
20.977449
31
0.0
0
LINE
8
0
10
14.067890
20
20.977449
30
0.0
11
14.055793
21
21.265870
31
0.0
0
ARC
8
0
10
14.255617
20
21.274251
30
0.0
40
0.200000
50
62.401721
51
180.000000
0
LINE
8
0
10
14.348271
20
21.451495
30
0.0
11
14.629341
21
21.304566
31
0.0
0
ARC
8
0
10
14.258726
20
20.595592
30
0.0
40
0.800000
50
17.401721
51
62.401721
0
LINE
8
0
10
15.022111
20
20.834847
30
0.0
11
15.624075
21
18.914178
31
0.0
0
ARC
8
0
10
15.337806
20
18.824457
30
0.0
40
0.300000
50
270.000000
51
17.401721
0
LINE
8
0
10
15.337806
20
18.524457
30
0.0
11
13.786712
21
18.524457
31
0.0
0
ARC
8
0
10
13.785310
20
18.724453
30
0.0
40
0.200000
50
209.632658
51
270.000000
0
ARC
8
0
10
13.350703
20
18.477234
30
0.0
40
0.300000
50
29.632658
51
107.401721
0
LINE
8
0
10
13.260982
20
18.763503
30
0.0
11
12.298779
21
18.509881
31
0.0
0
LINE
8
0
10
12.222315
20
18.499973
30
0.0
11
12.298779
21
18.509881
31
0.0
0
LINE
8
0
10
12.222315
20
18.499973
30
0.0
11
2.800000
21
18.499973
31
0.0
0
ARC
8
0
10
2.800000
20
17.499973
30
0.0
40
1.000000
50
90.000000
51
180.000000
0
LINE
8
0
10
1.800000
20
17.499973
30
0.0
11
1.800000
21
10.300000
31
0.0
0
ARC
8
0
10
2.100000
20
10.300000
30
0.0
40
0.300000
50
180.000000
51
270.000000
0
LINE
8
0
10
2.100000
20
10.000000
30
0.0
11
4.200000
21
10.000000
31
0.0
0
ARC
8
0
10
4.200000
20
9.700000
30
0.0
40
0.300000
50
360.000000
51
90.000000
0
LINE
8
0
10
4.500000
20
9.700000
30
0.0
11
4.500000
21
8.200000
31
0.0
0
LINE
8
0
10
3.000000
20
25.199973
30
0.0
11
2.100000
21
25.199973
31
0.0
0
ARC
8
0
10
2.100000
20
24.899973
30
0.0
40
0.300000
50
90.000000
51
180.000000
0
LINE
8
0
10
1.800000
20
24.899973
30
0.0
11
1.800000
21
20.600000
31
0.0
0
ARC
8
0
10
2.100000
20
20.600000
30
0.0
40
0.300000
50
180.000000
51
270.000000
0
LINE
8
0
10
2.100000
20
20.300000
30
0.0
11
10.100000
21
20.300000
31
0.0
0
ARC
8
0
10
10.100000
20
20.600000
30
0.0
40
0.300000
50
270.000000
51
360.000000
0
LINE
8
0
10
10.400000
20
20.600000
30
0.0
11
10.400000
21
24.899973
31
0.0
0
ARC
8
0
10
10.100000
20
24.899973
30
0.0
40
0.300000
50
360.000000
51
90.000000
0
LINE
8
0
10
10.100000
20
25.199973
30
0.0
11
9.200000
21
25.199973
31
0.0
0
ARC
8
0
10
9.200000
20
25.499973
30
0.0
40
0.300000
50
180.000000
51
270.000000
0
LINE
8
0
10
8.900000
20
25.499973
30
0.0
11
8.900000
21
26.399973
31
0.0
0
ARC
8
0
10
9.200000
20
26.399973
30
0.0
40
0.300000
50
90.000000
51
180.000000
0
LINE
8
0
10
9.200000
20
26.699973
30
0.0
11
10.100000
21
26.699973
31
0.0
0
ARC
8
0
10
10.100000
20
26.999973
30
0.0
40
0.300000
50
270.000000
51
360.000000
0
LINE
8
0
10
10.400000
20
26.999973
30
0.0
11
10.400000
21
68.999973
31
0.0
0
ARC
8
0
10
10.100000
20
68.999973
30
0.0
40
0.300000
50
360.000000
51
90.000000
0
LINE
8
0
10
10.100000
20
69.299973
30
0.0
11
2.100000
21
69.299973
31
0.0
0
ARC
8
0
10
2.100000
20
68.999973
30
0.0
40
0.300000
50
90.000000
51
180.000000
0
LINE
8
0
10
1.800000
20
68.999973
30
0.0
11
1.800000
21
26.999973
31
0.0
0
ARC
8
0
10
2.100000
20
26.999973
30
0.0
40
0.300000
50
180.000000
51
270.000000
0
LINE
8
0
10
2.100000
20
26.699973
30
0.0
11
3.000000
21
26.699973
31
0.0
0
ARC
8
0
10
3.000000
20
26.399973
30
0.0
40
0.300000
50
360.000000
51
90.000000
0
LINE
8
0
10
3.300000
20
26.399973
30
0.0
11
3.300000
21
25.499973
31
0.0
0
ARC
8
0
10
3.000000
20
25.499973
30
0.0
40
0.300000
50
270.000000
51
360.000000
0
LINE
8
0
10
12.729616
20
20.490315
30
0.0
11
14.459969
21
21.489349
31
0.0
0
ARC
8
0
10
15.059975
20
20.450122
30
0.0
40
1.200000
50
90.000000
51
120.000345
0
LINE
8
0
10
15.059975
20
21.650122
30
0.0
11
16.131801
21
21.650122
31
0.0
0
ARC
8
0
10
16.131801
20
21.350122
30
0.0
40
0.300000
50
35.885612
51
90.000000
0
LINE
8
0
10
16.374857
20
21.525973
30
0.0
11
16.903608
21
20.795146
31
0.0
0
ARC
8
0
10
16.741570
20
20.677912
30
0.0
40
0.200000
50
288.581915
51
35.885612
0
LINE
8
0
10
16.805302
20
20.488339
30
0.0
11
16.693867
21
20.450876
31
0.0
0
ARC
8
0
10
16.741666
20
20.308695
30
0.0
40
0.150000
50
108.581915
51
237.436866
0
LINE
8
0
10
16.660931
20
20.182275
30
0.0
11
17.046546
21
19.936014
31
0.0
0
ARC
8
0
10
17.208015
20
20.188854
30
0.0
40
0.300000
50
237.436866
51
270.000000
0
LINE
8
0
10
17.208065
20
19.888854
30
0.0
11
17.545998
21
19.888910
31
0.0
0
ARC
8
0
10
17.545947
20
20.188910
30
0.0
40
0.300000
50
270.000000
51
22.907135
0
LINE
8
0
10
17.822288
20
20.305682
30
0.0
11
17.547698
21
20.955503
31
0.0
0
ARC
8
0
10
18.008267
20
21.150122
30
0.0
40
0.500000
50
90.000000
51
202.907135
0
LINE
8
0
10
18.008266
20
21.650122
30
0.0
11
31.210059
21
21.650133
31
0.0
0
ARC
8
0
10
31.210059
20
21.150133
30
0.0
40
0.500000
50
336.000000
51
90.000000
0
LINE
8
0
10
31.666832
20
20.946765
30
0.0
11
31.215035
21
19.932012
31
0.0
0
ARC
8
0
10
31.489099
20
19.809991
30
0.0
40
0.300000
50
156.000000
51
212.065684
0
ARC
8
0
10
30.980635
20
19.491457
30
0.0
40
0.300000
50
215.548433
51
32.065684
0
ARC
8
0
10
30.492460
20
19.142622
30
0.0
40
0.300000
50
35.548433
51
90.000000
0
LINE
8
0
10
30.492460
20
19.442622
30
0.0
11
19.034274
21
19.441870
31
0.0
0
ARC
8
0
10
19.034254
20
19.741870
30
0.0
40
0.300000
50
197.834934
51
270.000000
0
LINE
8
0
10
18.748672
20
19.649987
30
0.0
11
18.434821
21
20.625472
31
0.0
0
ARC
8
0
10
18.149238
20
20.533590
30
0.0
40
0.300000
50
17.834934
51
198.015506
0
LINE
8
0
10
17.863947
20
20.440807
30
0.0
11
18.060829
21
19.835424
31
0.0
0
ARC
8
0
10
17.775537
20
19.742642
30
0.0
40
0.300000
50
270.000000
51
18.015506
0
LINE
8
0
10
17.775361
20
19.442642
30
0.0
11
17.291167
21
19.442925
31
0.0
0
ARC
8
0
10
17.291342
20
19.742925
30
0.0
40
0.300000
50
217.522757
51
270.000000
0
LINE
8
0
10
17.053409
20
19.560202
30
0.0
11
16.583147
21
20.172555
31
0.0
0
ARC
8
0
10
16.741770
20
20.294370
30
0.0
40
0.200000
50
107.128706
51
217.522757
0
LINE
8
0
10
16.682866
20
20.485499
30
0.0
11
16.796879
21
20.520637
31
0.0
0
ARC
8
0
10
16.752701
20
20.663984
30
0.0
40
0.150000
50
287.128706
51
35.002354
0
LINE
8
0
10
16.875571
20
20.750025
30
0.0
11
16.408729
21
21.416686
31
0.0
0
ARC
8
0
10
16.162990
20
21.244603
30
0.0
40
0.300000
50
35.002354
51
90.000000
0
LINE
8
0
10
16.166489
20
21.544583
30
0.0
11
15.660036
21
21.550490
31
0.0
0
ARC
8
0
10
15.656536
20
21.250511
30
0.0
40
0.300000
50
90.000000
51
204.000000
0
LINE
8
0
10
15.382473
20
21.128490
30
0.0
11
16.398439
21
18.846593
31
0.0
0
ARC
8
0
10
16.855212
20
19.049961
30
0.0
40
0.500000
50
204.000000
51
270.000000
0
LINE
8
0
10
16.855212
20
18.549961
30
0.0
11
31.145144
21
18.549973
31
0.0
0
ARC
8
0
10
31.145144
20
19.049973
30
0.0
40
0.500000
50
270.000000
51
336.000000
0
LINE
8
0
10
31.601917
20
18.846604
30
0.0
11
32.770006
21
21.470175
31
0.0
0
ARC
8
0
10
33.042339
20
21.344339
30
0.0
40
0.300000
50
83.495163
51
155.200000
0
ARC
8
0
10
32.940381
20
20.450133
30
0.0
40
1.200000
50
59.999655
51
83.495163
0
LINE
8
0
10
33.540387
20
21.489360
30
0.0
11
35.270740
21
20.490327
31
0.0
0
ARC
8
0
10
35.420741
20
20.750133
30
0.0
40
0.300000
50
239.999655
51
270.000000
0
LINE
8
0
10
35.420741
20
20.450133
30
0.0
11
35.600355
21
20.450133
31
0.0
0
ARC
8
0
10
35.600355
20
20.850133
30
0.0
40
0.400000
50
270.000000
51
360.000000
0
LINE
8
0
10
36.000355
20
20.850133
30
0.0
11
36.000355
21
24.250133
31
0.0
0
ARC
8
0
10
35.600355
20
24.250133
30
0.0
40
0.400000
50
360.000000
51
90.000000
0
LINE
8
0
10
35.600355
20
24.650133
30
0.0
11
35.420740
21
24.650133
31
0.0
0
ARC
8
0
10
35.420740
20
24.350133
30
0.0
40
0.300000
50
90.000000
51
120.000000
0
LINE
8
0
10
35.270740
20
24.609941
30
0.0
11
33.540355
21
23.610903
31
0.0
0
ARC
8
0
10
32.940355
20
24.650133
30
0.0
40
1.200000
50
270.000000
51
300.000000
0
LINE
8
0
10
32.940357
20
23.450133
30
0.0
11
24.750178
21
23.450121
31
0.0
0
ARC
8
0
10
24.750178
20
23.650121
30
0.0
40
0.200000
50
180.000000
51
270.000000
0
LINE
8
0
10
24.550178
20
23.650121
30
0.0
11
24.550178
21
45.150122
31
0.0
0
ARC
8
0
10
24.250178
20
45.150122
30
0.0
40
0.300000
50
360.000000
51
90.000000
0
LINE
8
0
10
24.250178
20
45.450122
30
0.0
11
23.750178
21
45.450122
31
0.0
0
ARC
8
0
10
23.750178
20
45.150122
30
0.0
40
0.300000
50
90.000000
51
180.000000
0
LINE
8
0
10
23.450178
20
45.150122
30
0.0
11
23.450178
21
23.650121
31
0.0
0
ARC
8
0
10
23.250178
20
23.650121
30
0.0
40
0.200000
50
270.000000
51
360.000000
0
LINE
8
0
10
23.250178
20
23.450121
30
0.0
11
15.060000
21
23.450122
31
0.0
0
ARC
8
0
10
15.060000
20
24.650122
30
0.0
40
1.200000
50
240.000000
51
270.000000
0
LINE
8
0
10
14.460000
20
23.610891
30
0.0
11
12.729615
21
24.609929
31
0.0
0
ARC
8
0
10
12.579615
20
24.350122
30
0.0
40
0.300000
50
60.000000
51
90.000000
0
LINE
8
0
10
12.579615
20
24.650122
30
0.0
11
12.400000
21
24.650122
31
0.0
0
ARC
8
0
10
12.400000
20
24.250122
30
0.0
40
0.400000
50
90.000000
51
180.000000
0
LINE
8
0
10
12.000000
20
24.250122
30
0.0
11
12.000000
21
20.850122
31
0.0
0
ARC
8
0
10
12.400000
20
20.850122
30
0.0
40
0.400000
50
180.000000
51
270.000000
0
LINE
8
0
10
12.400000
20
20.450122
30
0.0
11
12.579614
21
20.450122
31
0.0
0
ARC
8
0
10
12.579614
20
20.750122
30
0.0
40
0.300000
50
270.000000
51
300.000345
0
ARC
8
0
10
63.000257
20
33.855855
30
0.0
40
0.300000
50
180.000000
51
255.000000
0
LINE
8
0
10
62.700257
20
33.855855
30
0.0
11
62.700257
21
34.498862
31
0.0
0
ARC
8
0
10
63.000257
20
34.498862
30
0.0
40
0.300000
50
90.000000
51
180.000000
0
LINE
8
0
10
63.000257
20
34.798862
30
0.0
11
64.900257
21
34.798862
31
0.0
0
ARC
8
0
10
64.900257
20
35.098862
30
0.0
40
0.300000
50
270.000000
51
360.000000
0
LINE
8
0
10
65.200257
20
35.098862
30
0.0
11
65.200257
21
65.298862
31
0.0
0
ARC
8
0
10
64.900257
20
65.298862
30
0.0
40
0.300000
50
360.000000
51
90.000000
0
LINE
8
0
10
64.900257
20
65.598862
30
0.0
11
33.400257
21
65.598862
31
0.0
0
ARC
8
0
10
33.400257
20
65.298862
30
0.0
40
0.300000
50
90.000000
51
180.000000
0
LINE
8
0
10
33.100257
20
65.298862
30
0.0
11
33.100257
21
35.098862
31
0.0
0
ARC
8
0
10
33.400257
20
35.098862
30
0.0
40
0.300000
50
180.000000
51
270.000000
0
LINE
8
0
10
33.400257
20
34.798862
30
0.0
11
35.300257
21
34.798862
31
0.0
0
ARC
8
0
10
35.300257
20
34.498862
30
0.0
40
0.300000
50
360.000000
51
90.000000
0
LINE
8
0
10
35.600257
20
34.498862
30
0.0
11
35.600257
21
33.802265
31
0.0
0
ARC
8
0
10
35.300257
20
33.802265
30
0.0
40
0.300000
50
285.000000
51
360.000000
0
LINE
8
0
10
35.377902
20
33.512487
30
0.0
11
33.322611
21
32.961774
31
0.0
0
ARC
8
0
10
33.400257
20
32.671996
30
0.0
40
0.300000
50
105.000000
51
180.000000
0
LINE
8
0
10
33.100257
20
32.671996
30
0.0
11
33.100257
21
27.101083
31
0.0
0
ARC
8
0
10
33.400257
20
27.101083
30
0.0
40
0.300000
50
180.000000
51
270.000000
0
LINE
8
0
10
33.400257
20
26.801083
30
0.0
11
37.104916
21
26.801083
31
0.0
0
ARC
8
0
10
37.104916
20
26.101083
30
0.0
40
0.700000
50
360.000000
51
90.000000
0
LINE
8
0
10
37.804916
20
26.101083
30
0.0
11
37.804916
21
20.599973
31
0.0
0
ARC
8
0
10
38.104916
20
20.599973
30
0.0
40
0.300000
50
180.000000
51
270.000000
0
LINE
8
0
10
38.104916
20
20.299973
30
0.0
11
56.150257
21
20.299973
31
0.0
0
ARC
8
0
10
56.150257
20
20.599973
30
0.0
40
0.300000
50
270.000000
51
360.000000
0
LINE
8
0
10
56.450257
20
20.599973
30
0.0
11
56.450257
21
26.499945
31
0.0
0
ARC
8
0
10
56.750257
20
26.499945
30
0.0
40
0.300000
50
90.000000
51
180.000000
0
LINE
8
0
10
56.750257
20
26.799945
30
0.0
11
64.900257
21
26.799945
31
0.0
0
ARC
8
0
10
64.900257
20
27.099945
30
0.0
40
0.300000
50
270.000000
51
360.000000
0
LINE
8
0
10
65.200257
20
27.099945
30
0.0
11
65.200257
21
32.725586
31
0.0
0
ARC
8
0
10
64.900257
20
32.725586
30
0.0
40
0.300000
50
360.000000
51
75.000000
0
LINE
8
0
10
64.977902
20
33.015363
30
0.0
11
62.922611
21
33.566077
31
0.0
0
ARC
8
0
10
48.900257
20
67.698862
30
0.0
40
0.300000
50
270.000000
51
360.000000
0
LINE
8
0
10
49.200257
20
67.698862
30
0.0
11
49.200257
21
73.699973
31
0.0
0
ARC
8
0
10
49.500257
20
73.699973
30
0.0
40
0.300000
50
90.000000
51
180.000000
0
LINE
8
0
10
49.500257
20
73.999973
30
0.0
11
51.949701
21
73.999973
31
0.0
0
ARC
8
0
10
51.949701
20
73.699973
30
0.0
40
0.300000
50
30.000000
51
90.000000
0
LINE
8
0
10
52.209509
20
73.849973
30
0.0
11
52.660064
21
73.069588
31
0.0
0
ARC
8
0
10
52.400257
20
72.919588
30
0.0
40
0.300000
50
360.000000
51
30.000000
0
LINE
8
0
10
52.700257
20
72.919588
30
0.0
11
52.700257
21
72.799973
31
0.0
0
ARC
8
0
10
52.400257
20
72.799973
30
0.0
40
0.300000
50
270.000000
51
360.000000
0
LINE
8
0
10
52.400257
20
72.499973
30
0.0
11
51.000257
21
72.499973
31
0.0
0
ARC
8
0
10
51.000257
20
72.199973
30
0.0
40
0.300000
50
90.000000
51
180.000000
0
LINE
8
0
10
50.700257
20
72.199973
30
0.0
11
50.700257
21
67.698862
31
0.0
0
ARC
8
0
10
51.000257
20
67.698862
30
0.0
40
0.300000
50
180.000000
51
270.000000
0
LINE
8
0
10
51.000257
20
67.398862
30
0.0
11
52.200257
21
67.398862
31
0.0
0
ARC
8
0
10
52.200257
20
67.698862
30
0.0
40
0.300000
50
270.000000
51
360.000000
0
LINE
8
0
10
52.500257
20
67.698862
30
0.0
11
52.500257
21
68.700373
31
0.0
0
ARC
8
0
10
52.800257
20
68.700373
30
0.0
40
0.300000
50
90.000000
51
180.000000
0
LINE
8
0
10
52.800257
20
69.000373
30
0.0
11
54.200257
21
69.000373
31
0.0
0
ARC
8
0
10
54.200257
20
68.700373
30
0.0
40
0.300000
50
360.000000
51
90.000000
0
LINE
8
0
10
54.500257
20
68.700373
30
0.0
11
54.500257
21
67.698862
31
0.0
0
ARC
8
0
10
54.800257
20
67.698862
30
0.0
40
0.300000
50
180.000000
51
270.000000
0
LINE
8
0
10
54.800257
20
67.398862
30
0.0
11
61.100257
21
67.398862
31
0.0
0
ARC
8
0
10
61.100257
20
67.698862
30
0.0
40
0.300000
50
270.000000
51
360.000000
0
LINE
8
0
10
61.400257
20
67.698862
30
0.0
11
61.400257
21
68.700373
31
0.0
0
ARC
8
0
10
61.700257
20
68.700373
30
0.0
40
0.300000
50
90.000000
51
180.000000
0
LINE
8
0
10
61.700257
20
69.000373
30
0.0
11
63.100257
21
69.000373
31
0.0
0
ARC
8
0
10
63.100257
20
68.700373
30
0.0
40
0.300000
50
360.000000
51
90.000000
0
LINE
8
0
10
63.400257
20
68.700373
30
0.0
11
63.400257
21
67.698862
31
0.0
0
ARC
8
0
10
63.700257
20
67.698862
30
0.0
40
0.300000
50
180.000000
51
270.000000
0
LINE
8
0
10
63.700257
20
67.398862
30
0.0
11
64.900257
21
67.398862
31
0.0
0
ARC
8
0
10
64.900257
20
67.698862
30
0.0
40
0.300000
50
270.000000
51
360.000000
0
LINE
8
0
10
65.200257
20
67.698862
30
0.0
11
65.200257
21
72.199973
31
0.0
0
ARC
8
0
10
64.900257
20
72.199973
30
0.0
40
0.300000
50
360.000000
51
90.000000
0
LINE
8
0
10
64.900257
20
72.499973
30
0.0
11
63.000257
21
72.499973
31
0.0
0
ARC
8
0
10
63.000257
20
72.799973
30
0.0
40
0.300000
50
180.000000
51
270.000000
0
LINE
8
0
10
62.700257
20
72.799973
30
0.0
11
62.700257
21
72.919588
31
0.0
0
ARC
8
0
10
63.000257
20
72.919588
30
0.0
40
0.300000
50
150.000000
51
180.000000
0
LINE
8
0
10
62.740449
20
73.069588
30
0.0
11
63.191004
21
73.849973
31
0.0
0
ARC
8
0
10
63.450812
20
73.699973
30
0.0
40
0.300000
50
90.000000
51
150.000000
0
LINE
8
0
10
63.450812
20
73.999973
30
0.0
11
66.700257
21
73.999973
31
0.0
0
ARC
8
0
10
66.700257
20
73.699973
30
0.0
40
0.300000
50
360.000000
51
90.000000
0
ARC
8
0
10
66.700257
20
73.699973
30
0.0
40
0.300000
50
360.000000
51
90.000000
0
ARC
8
0
10
66.700257
20
73.699973
30
0.0
40
0.300000
50
360.000000
51
90.000000
0
LINE
8
0
10
67.000257
20
73.699973
30
0.0
11
67.000257
21
25.499945
31
0.0
0
ARC
8
0
10
66.500257
20
25.499945
30
0.0
40
0.500000
50
270.000000
51
360.000000
0
LINE
8
0
10
66.500257
20
24.999945
30
0.0
11
58.550257
21
24.999945
31
0.0
0
ARC
8
0
10
58.550257
20
24.699945
30
0.0
40
0.300000
50
90.000000
51
180.000000
0
LINE
8
0
10
58.250257
20
24.699945
30
0.0
11
58.250257
21
14.299945
31
0.0
0
ARC
8
0
10
57.950257
20
14.299945
30
0.0
40
0.300000
50
270.000000
51
360.000000
0
LINE
8
0
10
57.950257
20
13.999945
30
0.0
11
56.950257
21
13.999945
31
0.0
0
ARC
8
0
10
56.950257
20
14.299945
30
0.0
40
0.300000
50
180.000000
51
270.000000
0
LINE
8
0
10
56.650257
20
14.299945
30
0.0
11
56.650257
21
18.199973
31
0.0
0
ARC
8
0
10
56.350257
20
18.199973
30
0.0
40
0.300000
50
360.000000
51
90.000000
0
LINE
8
0
10
56.350257
20
18.499973
30
0.0
11
35.777942
21
18.499973
31
0.0
0
LINE
8
0
10
35.701478
20
18.509881
30
0.0
11
35.777942
21
18.499973
31
0.0
0
LINE
8
0
10
35.701478
20
18.509881
30
0.0
11
34.739275
21
18.763503
31
0.0
0
ARC
8
0
10
34.649554
20
18.477234
30
0.0
40
0.300000
50
72.598279
51
150.367342
0
ARC
8
0
10
34.214947
20
18.724453
30
0.0
40
0.200000
50
270.000000
51
330.367342
0
LINE
8
0
10
34.213545
20
18.524457
30
0.0
11
32.662451
21
18.524457
31
0.0
0
ARC
8
0
10
32.662451
20
18.824457
30
0.0
40
0.300000
50
162.598279
51
270.000000
0
LINE
8
0
10
32.376181
20
18.914178
30
0.0
11
32.978146
21
20.834847
31
0.0
0
ARC
8
0
10
33.741531
20
20.595592
30
0.0
40
0.800000
50
117.598279
51
162.598279
0
LINE
8
0
10
33.370915
20
21.304566
30
0.0
11
33.651986
21
21.451495
31
0.0
0
ARC
8
0
10
33.744640
20
21.274251
30
0.0
40
0.200000
50
360.000000
51
117.598279
0
LINE
8
0
10
33.944464
20
21.265870
30
0.0
11
33.932367
21
20.977449
31
0.0
0
LINE
8
0
10
33.932367
20
20.977449
30
0.0
11
35.640464
21
19.893385
31
0.0
0
ARC
8
0
10
35.961975
20
20.399973
30
0.0
40
0.600000
50
237.598279
51
270.000000
0
LINE
8
0
10
35.961975
20
19.799973
30
0.0
11
36.000257
21
19.799973
31
0.0
0
ARC
8
0
10
35.900257
20
20.082815
30
0.0
40
0.300000
50
289.471221
51
70.528779
0
LINE
8
0
10
36.000257
20
20.365658
30
0.0
11
36.000257
21
24.299973
31
0.0
0
LINE
8
0
10
36.000257
20
24.299973
30
0.0
11
36.000257
21
24.399973
31
0.0
0
ARC
8
0
10
35.700257
20
24.399973
30
0.0
40
0.300000
50
360.000000
51
90.000000
0
LINE
8
0
10
35.700257
20
24.699973
30
0.0
11
35.484370
21
24.699973
31
0.0
0
ARC
8
0
10
35.484370
20
24.399973
30
0.0
40
0.300000
50
90.000000
51
121.324705
0
LINE
8
0
10
35.328404
20
24.656243
30
0.0
11
33.800257
21
23.726212
31
0.0
0
ARC
8
0
10
33.700257
20
23.899417
30
0.0
40
0.200000
50
220.000000
51
300.000000
0
LINE
8
0
10
33.547048
20
23.770860
30
0.0
11
32.060206
21
25.592809
31
0.0
0
ARC
8
0
10
31.830393
20
25.399973
30
0.0
40
0.300000
50
40.000000
51
90.000000
0
LINE
8
0
10
31.830393
20
25.699973
30
0.0
11
29.300257
21
25.699973
31
0.0
0
ARC
8
0
10
29.300257
20
25.999973
30
0.0
40
0.300000
50
180.000000
51
270.000000
0
LINE
8
0
10
29.000257
20
25.999973
30
0.0
11
29.000257
21
27.399973
31
0.0
0
ARC
8
0
10
29.300257
20
27.399973
30
0.0
40
0.300000
50
90.000000
51
180.000000
0
LINE
8
0
10
29.300257
20
27.699973
30
0.0
11
31.200257
21
27.699973
31
0.0
0
ARC
8
0
10
31.200257
20
27.999973
30
0.0
40
0.300000
50
270.000000
51
360.000000
0
LINE
8
0
10
31.500257
20
27.999973
30
0.0
11
31.500257
21
65.875844
31
0.0
0
ARC
8
0
10
32.500257
20
65.875844
30
0.0
40
1.000000
50
140.000000
51
180.000000
0
LINE
8
0
10
31.734212
20
66.518632
30
0.0
11
33.547048
21
68.729085
31
0.0
0
ARC
8
0
10
33.700257
20
68.600528
30
0.0
40
0.200000
50
60.000000
51
140.000000
0
LINE
8
0
10
33.800257
20
68.773733
30
0.0
11
35.328404
21
67.843702
31
0.0
0
ARC
8
0
10
35.484370
20
68.099973
30
0.0
40
0.300000
50
238.675295
51
270.000000
0
LINE
8
0
10
35.484370
20
67.799973
30
0.0
11
35.700257
21
67.799973
31
0.0
0
ARC
8
0
10
35.700257
20
68.099973
30
0.0
40
0.300000
50
270.000000
51
360.000000
0
LINE
8
0
10
36.000257
20
68.099973
30
0.0
11
36.000257
21
72.134287
31
0.0
0
ARC
8
0
10
35.900257
20
72.417130
30
0.0
40
0.300000
50
289.471221
51
70.528779
0
LINE
8
0
10
36.000257
20
72.699973
30
0.0
11
35.961975
21
72.699973
31
0.0
0
ARC
8
0
10
35.961975
20
72.099973
30
0.0
40
0.600000
50
90.000000
51
122.401721
0
LINE
8
0
10
35.640464
20
72.606560
30
0.0
11
33.932367
21
71.522496
31
0.0
0
LINE
8
0
10
33.932367
20
71.522496
30
0.0
11
33.944464
21
71.234075
31
0.0
0
ARC
8
0
10
33.744640
20
71.225694
30
0.0
40
0.200000
50
242.401721
51
360.000000
0
LINE
8
0
10
33.651986
20
71.048450
30
0.0
11
33.370915
21
71.195379
31
0.0
0
ARC
8
0
10
33.741531
20
71.904353
30
0.0
40
0.800000
50
197.401721
51
242.401721
0
LINE
8
0
10
32.978146
20
71.665098
30
0.0
11
32.376181
21
73.585767
31
0.0
0
ARC
8
0
10
32.662451
20
73.675488
30
0.0
40
0.300000
50
90.000000
51
197.401721
0
LINE
8
0
10
32.662451
20
73.975488
30
0.0
11
34.213545
21
73.975488
31
0.0
0
ARC
8
0
10
34.214947
20
73.775492
30
0.0
40
0.200000
50
29.632658
51
90.000000
0
ARC
8
0
10
34.649554
20
74.022711
30
0.0
40
0.300000
50
209.632658
51
287.401721
0
LINE
8
0
10
34.739275
20
73.736442
30
0.0
11
35.701478
21
73.990064
31
0.0
0
LINE
8
0
10
35.777942
20
73.999973
30
0.0
11
35.701478
21
73.990064
31
0.0
0
LINE
8
0
10
35.777942
20
73.999973
30
0.0
11
37.500257
21
73.999973
31
0.0
0
ARC
8
0
10
37.500257
20
73.699973
30
0.0
40
0.300000
50
360.000000
51
90.000000
0
LINE
8
0
10
37.800257
20
73.699973
30
0.0
11
37.800257
21
67.698862
31
0.0
0
ARC
8
0
10
38.100257
20
67.698862
30
0.0
40
0.300000
50
180.000000
51
270.000000
0
LINE
8
0
10
38.100257
20
67.398862
30
0.0
11
48.900257
21
67.398862
31
0.0
0
LINE
8
0
10
35.270837
20
72.109624
30
0.0
11
33.540484
21
71.110591
31
0.0
0
ARC
8
0
10
32.940478
20
72.149817
30
0.0
40
1.200000
50
270.000000
51
300.000345
0
LINE
8
0
10
32.940478
20
70.949817
30
0.0
11
31.868653
21
70.949817
31
0.0
0
ARC
8
0
10
31.868653
20
71.249817
30
0.0
40
0.300000
50
215.885612
51
270.000000
0
LINE
8
0
10
31.625596
20
71.073967
30
0.0
11
31.096846
21
71.804793
31
0.0
0
ARC
8
0
10
31.258883
20
71.922027
30
0.0
40
0.200000
50
108.581915
51
215.885612
0
LINE
8
0
10
31.195151
20
72.111601
30
0.0
11
31.306587
21
72.149064
31
0.0
0
ARC
8
0
10
31.258788
20
72.291244
30
0.0
40
0.150000
50
288.581915
51
57.436866
0
LINE
8
0
10
31.339522
20
72.417664
30
0.0
11
30.953907
21
72.663925
31
0.0
0
ARC
8
0
10
30.792438
20
72.411086
30
0.0
40
0.300000
50
57.436866
51
90.000000
0
LINE
8
0
10
30.792388
20
72.711086
30
0.0
11
30.454455
21
72.711029
31
0.0
0
ARC
8
0
10
30.454506
20
72.411029
30
0.0
40
0.300000
50
90.000000
51
202.907135
0
LINE
8
0
10
30.178165
20
72.294257
30
0.0
11
30.452755
21
71.644437
31
0.0
0
ARC
8
0
10
29.992187
20
71.449817
30
0.0
40
0.500000
50
270.000000
51
22.907135
0
LINE
8
0
10
29.992187
20
70.949817
30
0.0
11
16.790394
21
70.949806
31
0.0
0
ARC
8
0
10
16.790394
20
71.449806
30
0.0
40
0.500000
50
156.000000
51
270.000000
0
LINE
8
0
10
16.333621
20
71.653174
30
0.0
11
16.785418
21
72.667927
31
0.0
0
ARC
8
0
10
16.511354
20
72.789948
30
0.0
40
0.300000
50
336.000000
51
32.065684
0
ARC
8
0
10
17.019818
20
73.108483
30
0.0
40
0.300000
50
35.548433
51
212.065684
0
ARC
8
0
10
17.507993
20
73.457317
30
0.0
40
0.300000
50
215.548433
51
270.000000
0
LINE
8
0
10
17.507993
20
73.157317
30
0.0
11
28.966179
21
73.158070
31
0.0
0
ARC
8
0
10
28.966199
20
72.858070
30
0.0
40
0.300000
50
17.834934
51
90.000000
0
LINE
8
0
10
29.251782
20
72.949952
30
0.0
11
29.565632
21
71.974467
31
0.0
0
ARC
8
0
10
29.851215
20
72.066350
30
0.0
40
0.300000
50
197.834934
51
18.015506
0
LINE
8
0
10
30.136507
20
72.159132
30
0.0
11
29.939624
21
72.764515
31
0.0
0
ARC
8
0
10
30.224916
20
72.857298
30
0.0
40
0.300000
50
90.000000
51
198.015506
0
LINE
8
0
10
30.225092
20
73.157298
30
0.0
11
30.709286
21
73.157014
31
0.0
0
ARC
8
0
10
30.709111
20
72.857014
30
0.0
40
0.300000
50
37.522757
51
90.000000
0
LINE
8
0
10
30.947044
20
73.039737
30
0.0
11
31.417306
21
72.427384
31
0.0
0
ARC
8
0
10
31.258684
20
72.305569
30
0.0
40
0.200000
50
287.128706
51
37.522757
0
LINE
8
0
10
31.317587
20
72.114440
30
0.0
11
31.203574
21
72.079302
31
0.0
0
ARC
8
0
10
31.247752
20
71.935955
30
0.0
40
0.150000
50
107.128706
51
215.002354
0
LINE
8
0
10
31.124883
20
71.849914
30
0.0
11
31.591724
21
71.183253
31
0.0
0
ARC
8
0
10
31.837463
20
71.355336
30
0.0
40
0.300000
50
215.002354
51
270.000000
0
LINE
8
0
10
31.833964
20
71.055356
30
0.0
11
32.340418
21
71.049449
31
0.0
0
ARC
8
0
10
32.343917
20
71.349428
30
0.0
40
0.300000
50
270.000000
51
24.000000
0
LINE
8
0
10
32.617980
20
71.471449
30
0.0
11
31.602014
21
73.753347
31
0.0
0
ARC
8
0
10
31.145242
20
73.549978
30
0.0
40
0.500000
50
24.000000
51
90.000000
0
LINE
8
0
10
31.145241
20
74.049978
30
0.0
11
16.855309
21
74.049967
31
0.0
0
ARC
8
0
10
16.855309
20
73.549967
30
0.0
40
0.500000
50
90.000000
51
156.000000
0
LINE
8
0
10
16.398537
20
73.753335
30
0.0
11
15.230448
21
71.129764
31
0.0
0
ARC
8
0
10
14.958114
20
71.255600
30
0.0
40
0.300000
50
263.495163
51
335.200000
0
ARC
8
0
10
15.060073
20
72.149806
30
0.0
40
1.200000
50
239.999655
51
263.495163
0
LINE
8
0
10
14.460066
20
71.110579
30
0.0
11
12.729714
21
72.109613
31
0.0
0
ARC
8
0
10
12.579712
20
71.849806
30
0.0
40
0.300000
50
59.999655
51
90.000000
0
LINE
8
0
10
12.579712
20
72.149806
30
0.0
11
12.400098
21
72.149806
31
0.0
0
ARC
8
0
10
12.400098
20
71.749806
30
0.0
40
0.400000
50
90.000000
51
180.000000
0
LINE
8
0
10
12.000098
20
71.749806
30
0.0
11
12.000098
21
68.349806
31
0.0
0
ARC
8
0
10
12.400098
20
68.349806
30
0.0
40
0.400000
50
180.000000
51
270.000000
0
LINE
8
0
10
12.400098
20
67.949806
30
0.0
11
12.579713
21
67.949806
31
0.0
0
ARC
8
0
10
12.579713
20
68.249806
30
0.0
40
0.300000
50
270.000000
51
300.000000
0
LINE
8
0
10
12.729713
20
67.989998
30
0.0
11
14.460098
21
68.989036
31
0.0
0
ARC
8
0
10
15.060098
20
67.949806
30
0.0
40
1.200000
50
90.000000
51
120.000000
0
LINE
8
0
10
15.060096
20
69.149806
30
0.0
11
23.250275
21
69.149818
31
0.0
0
ARC
8
0
10
23.250275
20
68.949818
30
0.0
40
0.200000
50
360.000000
51
90.000000
0
LINE
8
0
10
23.450275
20
68.949818
30
0.0
11
23.450275
21
47.449817
31
0.0
0
ARC
8
0
10
23.750275
20
47.449817
30
0.0
40
0.300000
50
180.000000
51
270.000000
0
LINE
8
0
10
23.750275
20
47.149817
30
0.0
11
24.250275
21
47.149817
31
0.0
0
ARC
8
0
10
24.250275
20
47.449817
30
0.0
40
0.300000
50
270.000000
51
360.000000
0
LINE
8
0
10
24.550275
20
47.449817
30
0.0
11
24.550275
21
68.949818
31
0.0
0
ARC
8
0
10
24.750275
20
68.949818
30
0.0
40
0.200000
50
90.000000
51
180.000000
0
LINE
8
0
10
24.750275
20
69.149818
30
0.0
11
32.940453
21
69.149817
31
0.0
0
ARC
8
0
10
32.940453
20
67.949817
30
0.0
40
1.200000
50
60.000000
51
90.000000
0
LINE
8
0
10
33.540453
20
68.989048
30
0.0
11
35.270838
21
67.990010
31
0.0
0
ARC
8
0
10
35.420838
20
68.249817
30
0.0
40
0.300000
50
240.000000
51
270.000000
0
LINE
8
0
10
35.420838
20
67.949817
30
0.0
11
35.600453
21
67.949817
31
0.0
0
ARC
8
0
10
35.600453
20
68.349817
30
0.0
40
0.400000
50
270.000000
51
360.000000
0
LINE
8
0
10
36.000453
20
68.349817
30
0.0
11
36.000453
21
71.749817
31
0.0
0
ARC
8
0
10
35.600453
20
71.749817
30
0.0
40
0.400000
50
360.000000
51
90.000000
0
LINE
8
0
10
35.600453
20
72.149817
30
0.0
11
35.420839
21
72.149817
31
0.0
0
ARC
8
0
10
35.420839
20
71.849817
30
0.0
40
0.300000
50
90.000000
51
120.000345
0
ATTDEF
8
0
10
10.300000
20
73.999973
30
0.0
40
3.5
1

3

2
VC_START
70
0
0
ATTDEF
8
0
10
15.337806
20
18.524457
30
0.0
40
3.5
1

3

2
VC_END
70
0
0
ARC
8
0
10
53.100257
20
6.399945
30
0.0
40
0.300000
50
90.000000
51
180.000000
0
LINE
8
0
10
53.100257
20
6.699945
30
0.0
11
53.250257
21
6.699945
31
0.0
0
ARC
8
0
10
53.250257
20
6.999945
30
0.0
40
0.300000
50
270.000000
51
360.000000
0
LINE
8
0
10
53.550257
20
6.999945
30
0.0
11
53.550257
21
10.399945
31
0.0
0
ARC
8
0
10
52.550257
20
10.399945
30
0.0
40
1.000000
50
360.000000
51
90.000000
0
LINE
8
0
10
52.550257
20
11.399945
30
0.0
11
50.550257
21
11.399945
31
0.0
0
ARC
8
0
10
50.550257
20
10.399945
30
0.0
40
1.000000
50
90.000000
51
180.000000
0
LINE
8
0
10
49.550257
20
10.399945
30
0.0
11
49.550257
21
6.999945
31
0.0
0
ARC
8
0
10
49.850257
20
6.999945
30
0.0
40
0.300000
50
180.000000
51
270.000000
0
LINE
8
0
10
49.850257
20
6.699945
30
0.0
11
50.000257
21
6.699945
31
0.0
0
ARC
8
0
10
50.000257
20
6.399945
30
0.0
40
0.300000
50
360.000000
51
90.000000
0
LINE
8
0
10
50.300257
20
6.399945
30
0.0
11
50.300257
21
5.999945
31
0.0
0
ARC
8
0
10
50.000257
20
5.999945
30
0.0
40
0.300000
50
270.000000
51
360.000000
0
LINE
8
0
10
50.000257
20
5.699945
30
0.0
11
49.850257
21
5.699945
31
0.0
0
ARC
8
0
10
49.850257
20
5.399945
30
0.0
40
0.300000
50
90.000000
51
180.000000
0
LINE
8
0
10
49.550257
20
5.399945
30
0.0
11
49.550257
21
4.899945
31
0.0
0
ARC
8
0
10
49.250257
20
4.899945
30
0.0
40
0.300000
50
270.000000
51
360.000000
0
LINE
8
0
10
49.250257
20
4.599945
30
0.0
11
48.050257
21
4.599945
31
0.0
0
ARC
8
0
10
48.050257
20
4.899945
30
0.0
40
0.300000
50
180.000000
51
270.000000
0
LINE
8
0
10
47.750257
20
4.899945
30
0.0
11
47.750257
21
13.599945
31
0.0
0
ARC
8
0
10
48.050257
20
13.599945
30
0.0
40
0.300000
50
90.000000
51
180.000000
0
LINE
8
0
10
48.050257
20
13.899945
30
0.0
11
54.050257
21
13.899945
31
0.0
0
ARC
8
0
10
54.050257
20
14.199945
30
0.0
40
0.300000
50
270.000000
51
360.000000
0
LINE
8
0
10
54.350257
20
14.199945
30
0.0
11
54.350257
21
17.599945
31
0.0
0
ARC
8
0
10
54.650257
20
17.599945
30
0.0
40
0.300000
50
90.000000
51
180.000000
0
LINE
8
0
10
54.650257
20
17.899945
30
0.0
11
56.050257
21
17.899945
31
0.0
0
ARC
8
0
10
56.050257
20
17.599945
30
0.0
40
0.300000
50
360.000000
51
90.000000
0
LINE
8
0
10
56.350257
20
17.599945
30
0.0
11
56.350257
21
14.199945
31
0.0
0
ARC
8
0
10
56.650257
20
14.199945
30
0.0
40
0.300000
50
180.000000
51
270.000000
0
LINE
8
0
10
56.650257
20
13.899945
30
0.0
11
57.950257
21
13.899945
31
0.0
0
ARC
8
0
10
57.950257
20
14.199945
30
0.0
40
0.300000
50
270.000000
51
360.000000
0
LINE
8
0
10
58.250257
20
14.199945
30
0.0
11
58.250257
21
23.999945
31
0.0
0
ARC
8
0
10
59.250257
20
23.999945
30
0.0
40
1.000000
50
90.000000
51
180.000000
0
LINE
8
0
10
59.250257
20
24.999945
30
0.0
11
68.950257
21
24.999945
31
0.0
0
ARC
8
0
10
68.950257
20
17.999945
30
0.0
40
7.000000
50
360.000000
51
90.000000
0
LINE
8
0
10
75.950257
20
17.999945
30
0.0
11
75.950257
21
5.999945
31
0.0
0
ARC
8
0
10
75.650257
20
5.999945
30
0.0
40
0.300000
50
270.000000
51
360.000000
0
LINE
8
0
10
75.650257
20
5.699945
30
0.0
11
73.550257
21
5.699945
31
0.0
0
ARC
8
0
10
73.550257
20
5.999945
30
0.0
40
0.300000
50
180.000000
51
270.000000
0
LINE
8
0
10
73.250257
20
5.999945
30
0.0
11
73.250257
21
6.599945
31
0.0
0
ARC
8
0
10
73.550257
20
6.599945
30
0.0
40
0.300000
50
90.000000
51
180.000000
0
LINE
8
0
10
73.550257
20
6.899945
30
0.0
11
74.250257
21
6.899945
31
0.0
0
ARC
8
0
10
74.250257
20
7.199945
30
0.0
40
0.300000
50
270.000000
51
360.000000
0
LINE
8
0
10
74.550257
20
7.199945
30
0.0
11
74.550257
21
17.999945
31
0.0
0
ARC
8
0
10
68.950257
20
17.999945
30
0.0
40
5.600000
50
360.000000
51
113.000000
0
LINE
8
0
10
66.762162
20
23.154772
30
0.0
11
63.031460
21
21.571183
31
0.0
0
LINE
8
0
10
63.031460
20
21.571183
30
0.0
11
62.754804
21
21.779658
31
0.0
0
LINE
8
0
10
62.754804
20
21.779658
30
0.0
11
62.712588
21
21.435830
31
0.0
0
LINE
8
0
10
62.712588
20
21.435830
30
0.0
11
59.833037
21
20.213533
31
0.0
0
ARC
8
0
10
59.950257
20
19.937382
30
0.0
40
0.300000
50
113.000001
51
180.000000
0
LINE
8
0
10
59.650257
20
19.937382
30
0.0
11
59.650257
21
7.199945
31
0.0
0
ARC
8
0
10
59.950257
20
7.199945
30
0.0
40
0.300000
50
180.000000
51
270.000000
0
LINE
8
0
10
59.950257
20
6.899945
30
0.0
11
61.350257
21
6.899945
31
0.0
0
ARC
8
0
10
61.350257
20
6.599945
30
0.0
40
0.300000
50
360.000000
51
90.000000
0
LINE
8
0
10
61.650257
20
6.599945
30
0.0
11
61.650257
21
5.999945
31
0.0
0
ARC
8
0
10
61.350257
20
5.999945
30
0.0
40
0.300000
50
270.000000
51
360.000000
0
LINE
8
0
10
61.350257
20
5.699945
30
0.0
11
58.550257
21
5.699945
31
0.0
0
ARC
8
0
10
58.550257
20
5.999945
30
0.0
40
0.300000
50
180.000000
51
270.000000
0
LINE
8
0
10
58.250257
20
5.999945
30
0.0
11
58.250257
21
10.399945
31
0.0
0
ARC
8
0
10
57.250257
20
10.399945
30
0.0
40
1.000000
50
360.000000
51
90.000000
0
LINE
8
0
10
57.250257
20
11.399945
30
0.0
11
55.950257
21
11.399945
31
0.0
0
ARC
8
0
10
55.950257
20
10.399945
30
0.0
40
1.000000
50
90.000000
51
180.000000
0
LINE
8
0
10
54.950257
20
10.399945
30
0.0
11
54.950257
21
5.999945
31
0.0
0
ARC
8
0
10
54.650257
20
5.999945
30
0.0
40
0.300000
50
270.000000
51
360.000000
0
LINE
8
0
10
54.650257
20
5.699945
30
0.0
11
53.100257
21
5.699945
31
0.0
0
ARC
8
0
10
53.100257
20
5.999945
30
0.0
40
0.300000
50
180.000000
51
270.000000
0
LINE
8
0
10
52.800257
20
5.999945
30
0.0
11
52.800257
21
6.399945
31
0.0
0
ATTDEF
8
0
10
0.000000
20
0.000000
30
0.0
40
3.5
1

3

2
DENS:0.000000
70
0
0
ATTDEF
8
0
10
0.000000
20
0.000000
30
0.0
40
3.5
1

3

2
GLASS_MIN:0.000000
70
0
0
ATTDEF
8
0
10
0.000000
20
0.000000
30
0.0
40
3.5
1

3

2
GLASS_MAX:0.000000
70
0
0
ATTDEF
8
0
10
0.000000
20
0.000000
30
0.0
40
3.5
1

3

2
DESC:U51340 - K1486
70
0
0
ATTDEF
8
0
10
0.000000
20
0.000000
30
0.0
40
3.5
1

3

2
BL01:6500.000000,,1
70
0
0
ATTDEF
8
0
10
0.000000
20
0.000000
30
0.0
40
3.5
1

3

2
HW_START
70
0
0
ATTDEF
8
0
10
75.950257
20
95.999973
30
0.0
40
3.5
1

3

2
HW_END
70
0
0
ATTDEF
8
0
10
0.000000
20
0.000000
30
0.0
40
3.5
1

3

2
FP_LCS_ORIG
70
0
0
ATTDEF
8
0
10
10.000000
20
0.000000
30
0.0
40
3.5
1

3

2
FP_LCS_HOT
70
0
0
ATTDEF
8
0
10
0.000000
20
10.000000
30
0.0
40
3.5
1

3

2
FP_LCS_INTERN
70
0
0
ENDSEC
0
EOF
