0
SECTION
2
ENTITIES
0
LINE
8
0
10
248.534958
20
137.747029
30
0.0
11
248.534958
21
149.872642
31
0.0
0
ARC
8
0
10
248.234958
20
149.872642
30
0.0
40
0.300000
50
360.000000
51
75.000000
0
LINE
8
0
10
248.312604
20
150.162420
30
0.0
11
246.257312
21
150.713134
31
0.0
0
ARC
8
0
10
246.334958
20
151.002911
30
0.0
40
0.300000
50
180.000000
51
255.000000
0
LINE
8
0
10
246.034958
20
151.002911
30
0.0
11
246.034958
21
151.645918
31
0.0
0
ARC
8
0
10
246.334958
20
151.645918
30
0.0
40
0.300000
50
90.000000
51
180.000000
0
LINE
8
0
10
246.334958
20
151.945918
30
0.0
11
248.234958
21
151.945918
31
0.0
0
ARC
8
0
10
248.234958
20
152.245918
30
0.0
40
0.300000
50
270.000000
51
360.000000
0
LINE
8
0
10
248.534958
20
152.245918
30
0.0
11
248.534958
21
182.445918
31
0.0
0
ARC
8
0
10
248.234958
20
182.445918
30
0.0
40
0.300000
50
360.000000
51
90.000000
0
LINE
8
0
10
248.234958
20
182.745918
30
0.0
11
216.734958
21
182.745918
31
0.0
0
ARC
8
0
10
216.734958
20
182.445918
30
0.0
40
0.300000
50
90.000000
51
180.000000
0
LINE
8
0
10
216.434958
20
182.445918
30
0.0
11
216.434958
21
152.245918
31
0.0
0
ARC
8
0
10
216.734958
20
152.245918
30
0.0
40
0.300000
50
180.000000
51
270.000000
0
LINE
8
0
10
216.734958
20
151.945918
30
0.0
11
218.634958
21
151.945918
31
0.0
0
ARC
8
0
10
218.634958
20
151.645918
30
0.0
40
0.300000
50
360.000000
51
90.000000
0
LINE
8
0
10
218.934958
20
151.645918
30
0.0
11
218.934958
21
150.949322
31
0.0
0
ARC
8
0
10
218.634958
20
150.949322
30
0.0
40
0.300000
50
285.000000
51
360.000000
0
LINE
8
0
10
218.712604
20
150.659544
30
0.0
11
216.657312
21
150.108830
31
0.0
0
ARC
8
0
10
216.734958
20
149.819052
30
0.0
40
0.300000
50
105.000000
51
180.000000
0
LINE
8
0
10
216.434958
20
149.819052
30
0.0
11
216.434958
21
144.348140
31
0.0
0
ARC
8
0
10
216.734958
20
144.348140
30
0.0
40
0.300000
50
180.000000
51
270.000000
0
LINE
8
0
10
216.734958
20
144.048140
30
0.0
11
220.439618
21
144.048140
31
0.0
0
ARC
8
0
10
220.439618
20
143.348140
30
0.0
40
0.700000
50
360.000000
51
90.000000
0
LINE
8
0
10
221.139618
20
143.348140
30
0.0
11
221.139618
21
137.747029
31
0.0
0
ARC
8
0
10
221.439618
20
137.747029
30
0.0
40
0.300000
50
180.000000
51
270.000000
0
LINE
8
0
10
221.439618
20
137.447029
30
0.0
11
248.234958
21
137.447029
31
0.0
0
ARC
8
0
10
248.234958
20
137.747029
30
0.0
40
0.300000
50
270.000000
51
360.000000
0
ARC
8
0
10
246.134958
20
117.447029
30
0.0
40
0.300000
50
180.000000
51
270.000000
0
LINE
8
0
10
245.834958
20
117.447029
30
0.0
11
245.834958
21
118.947029
31
0.0
0
ARC
8
0
10
246.534958
20
118.947029
30
0.0
40
0.700000
50
90.000000
51
180.000000
0
ARC
8
0
10
246.534958
20
119.347029
30
0.0
40
0.300000
50
360.000000
51
90.000000
0
LINE
8
0
10
246.834958
20
119.347029
30
0.0
11
246.834958
21
118.647029
31
0.0
0
ARC
8
0
10
247.134958
20
118.647029
30
0.0
40
0.300000
50
180.000000
51
270.000000
0
LINE
8
0
10
247.134958
20
118.347029
30
0.0
11
248.334958
21
118.347029
31
0.0
0
ARC
8
0
10
248.334958
20
119.047029
30
0.0
40
0.700000
50
270.000000
51
360.000000
0
LINE
8
0
10
249.034958
20
119.047029
30
0.0
11
249.034958
21
125.247029
31
0.0
0
ARC
8
0
10
248.334958
20
125.247029
30
0.0
40
0.700000
50
360.000000
51
90.000000
0
LINE
8
0
10
248.334958
20
125.947029
30
0.0
11
247.134958
21
125.947029
31
0.0
0
ARC
8
0
10
247.134958
20
125.647029
30
0.0
40
0.300000
50
90.000000
51
180.000000
0
LINE
8
0
10
246.834958
20
125.647029
30
0.0
11
246.834958
21
124.947029
31
0.0
0
ARC
8
0
10
246.534958
20
124.947029
30
0.0
40
0.300000
50
270.000000
51
360.000000
0
ARC
8
0
10
246.534958
20
125.347029
30
0.0
40
0.700000
50
180.000000
51
270.000000
0
LINE
8
0
10
245.834958
20
125.347029
30
0.0
11
245.834958
21
126.847029
31
0.0
0
ARC
8
0
10
246.134958
20
126.847029
30
0.0
40
0.300000
50
90.000000
51
180.000000
0
LINE
8
0
10
246.134958
20
127.147029
30
0.0
11
248.234958
21
127.147029
31
0.0
0
ARC
8
0
10
248.234958
20
127.447029
30
0.0
40
0.300000
50
270.000000
51
360.000000
0
LINE
8
0
10
248.534958
20
127.447029
30
0.0
11
248.534958
21
134.647029
31
0.0
0
ARC
8
0
10
247.534958
20
134.647029
30
0.0
40
1.000000
50
360.000000
51
90.000000
0
LINE
8
0
10
247.534958
20
135.647029
30
0.0
11
219.112643
21
135.647029
31
0.0
0
LINE
8
0
10
219.036179
20
135.656937
30
0.0
11
219.112643
21
135.647029
31
0.0
0
LINE
8
0
10
219.036179
20
135.656937
30
0.0
11
218.073976
21
135.910560
31
0.0
0
ARC
8
0
10
217.984255
20
135.624291
30
0.0
40
0.300000
50
72.598279
51
150.367342
0
ARC
8
0
10
217.549649
20
135.871509
30
0.0
40
0.200000
50
270.000000
51
330.367342
0
LINE
8
0
10
217.548246
20
135.671514
30
0.0
11
215.997152
21
135.671514
31
0.0
0
ARC
8
0
10
215.997152
20
135.971514
30
0.0
40
0.300000
50
162.598279
51
270.000000
0
LINE
8
0
10
215.710883
20
136.061235
30
0.0
11
216.312847
21
137.981904
31
0.0
0
ARC
8
0
10
217.076232
20
137.742648
30
0.0
40
0.800000
50
117.598279
51
162.598279
0
LINE
8
0
10
216.705617
20
138.451622
30
0.0
11
216.986687
21
138.598551
31
0.0
0
ARC
8
0
10
217.079341
20
138.421308
30
0.0
40
0.200000
50
360.000000
51
117.598279
0
LINE
8
0
10
217.279165
20
138.412927
30
0.0
11
217.267068
21
138.124505
31
0.0
0
LINE
8
0
10
217.267068
20
138.124505
30
0.0
11
218.975165
21
137.040442
31
0.0
0
ARC
8
0
10
219.296676
20
137.547029
30
0.0
40
0.600000
50
237.598279
51
270.000000
0
LINE
8
0
10
219.296676
20
136.947029
30
0.0
11
219.334958
21
136.947029
31
0.0
0
ARC
8
0
10
219.234958
20
137.229872
30
0.0
40
0.300000
50
289.471221
51
70.528779
0
LINE
8
0
10
219.334958
20
137.512715
30
0.0
11
219.334958
21
141.447029
31
0.0
0
LINE
8
0
10
219.334958
20
141.447029
30
0.0
11
219.334958
21
141.547029
31
0.0
0
ARC
8
0
10
219.034958
20
141.547029
30
0.0
40
0.300000
50
360.000000
51
90.000000
0
LINE
8
0
10
219.034958
20
141.847029
30
0.0
11
218.734958
21
141.847029
31
0.0
0
LINE
8
0
10
218.734958
20
141.847029
30
0.0
11
217.134958
21
140.923269
31
0.0
0
ARC
8
0
10
217.034958
20
141.096474
30
0.0
40
0.200000
50
220.000000
51
300.000000
0
LINE
8
0
10
216.881749
20
140.967916
30
0.0
11
214.905145
21
143.323542
31
0.0
0
ARC
8
0
10
215.134958
20
143.516378
30
0.0
40
0.300000
50
180.000000
51
220.000000
0
LINE
8
0
10
214.834958
20
143.516378
30
0.0
11
214.834958
21
183.277680
31
0.0
0
ARC
8
0
10
215.134958
20
183.277680
30
0.0
40
0.300000
50
140.000000
51
180.000000
0
LINE
8
0
10
214.905145
20
183.470517
30
0.0
11
216.881749
21
185.826142
31
0.0
0
ARC
8
0
10
217.034958
20
185.697584
30
0.0
40
0.200000
50
60.000000
51
140.000000
0
LINE
8
0
10
217.134958
20
185.870790
30
0.0
11
218.734958
21
184.947029
31
0.0
0
LINE
8
0
10
218.734958
20
184.947029
30
0.0
11
219.034958
21
184.947029
31
0.0
0
ARC
8
0
10
219.034958
20
185.247029
30
0.0
40
0.300000
50
270.000000
51
360.000000
0
LINE
8
0
10
219.334958
20
185.247029
30
0.0
11
219.334958
21
189.281344
31
0.0
0
ARC
8
0
10
219.234958
20
189.564186
30
0.0
40
0.300000
50
289.471221
51
70.528779
0
LINE
8
0
10
219.334958
20
189.847029
30
0.0
11
219.296676
21
189.847029
31
0.0
0
ARC
8
0
10
219.296676
20
189.247029
30
0.0
40
0.600000
50
90.000000
51
122.401721
0
LINE
8
0
10
218.975165
20
189.753616
30
0.0
11
217.267068
21
188.669553
31
0.0
0
LINE
8
0
10
217.267068
20
188.669553
30
0.0
11
217.279165
21
188.381131
31
0.0
0
ARC
8
0
10
217.079341
20
188.372750
30
0.0
40
0.200000
50
242.401721
51
360.000000
0
LINE
8
0
10
216.986687
20
188.195507
30
0.0
11
216.705617
21
188.342436
31
0.0
0
ARC
8
0
10
217.076232
20
189.051410
30
0.0
40
0.800000
50
197.401721
51
242.401721
0
LINE
8
0
10
216.312847
20
188.812155
30
0.0
11
215.710883
21
190.732823
31
0.0
0
ARC
8
0
10
215.997152
20
190.822544
30
0.0
40
0.300000
50
90.000000
51
197.401721
0
LINE
8
0
10
215.997152
20
191.122544
30
0.0
11
217.548246
21
191.122544
31
0.0
0
ARC
8
0
10
217.549649
20
190.922549
30
0.0
40
0.200000
50
29.632658
51
90.000000
0
ARC
8
0
10
217.984255
20
191.169768
30
0.0
40
0.300000
50
209.632658
51
287.401721
0
LINE
8
0
10
218.073976
20
190.883498
30
0.0
11
219.036179
21
191.137121
31
0.0
0
LINE
8
0
10
219.112643
20
191.147029
30
0.0
11
219.036179
21
191.137121
31
0.0
0
LINE
8
0
10
219.112643
20
191.147029
30
0.0
11
220.739618
21
191.147029
31
0.0
0
ARC
8
0
10
220.739618
20
190.847029
30
0.0
40
0.300000
50
360.000000
51
90.000000
0
LINE
8
0
10
221.039618
20
190.847029
30
0.0
11
221.039618
21
184.845918
31
0.0
0
ARC
8
0
10
221.339618
20
184.845918
30
0.0
40
0.300000
50
180.000000
51
270.000000
0
LINE
8
0
10
221.339618
20
184.545918
30
0.0
11
232.234958
21
184.545918
31
0.0
0
ARC
8
0
10
232.234958
20
184.845918
30
0.0
40
0.300000
50
270.000000
51
360.000000
0
LINE
8
0
10
232.534958
20
184.845918
30
0.0
11
232.534958
21
190.847029
31
0.0
0
ARC
8
0
10
232.834958
20
190.847029
30
0.0
40
0.300000
50
90.000000
51
180.000000
0
LINE
8
0
10
232.834958
20
191.147029
30
0.0
11
235.284403
21
191.147029
31
0.0
0
ARC
8
0
10
235.284403
20
190.847029
30
0.0
40
0.300000
50
30.000000
51
90.000000
0
LINE
8
0
10
235.544210
20
190.997029
30
0.0
11
235.994766
21
190.216644
31
0.0
0
ARC
8
0
10
235.734958
20
190.066644
30
0.0
40
0.300000
50
360.000000
51
30.000000
0
LINE
8
0
10
236.034958
20
190.066644
30
0.0
11
236.034958
21
189.947029
31
0.0
0
ARC
8
0
10
235.734958
20
189.947029
30
0.0
40
0.300000
50
270.000000
51
360.000000
0
LINE
8
0
10
235.734958
20
189.647029
30
0.0
11
234.334958
21
189.647029
31
0.0
0
ARC
8
0
10
234.334958
20
189.347029
30
0.0
40
0.300000
50
90.000000
51
180.000000
0
LINE
8
0
10
234.034958
20
189.347029
30
0.0
11
234.034958
21
184.845918
31
0.0
0
ARC
8
0
10
234.334958
20
184.845918
30
0.0
40
0.300000
50
180.000000
51
270.000000
0
LINE
8
0
10
234.334958
20
184.545918
30
0.0
11
235.534958
21
184.545918
31
0.0
0
ARC
8
0
10
235.534958
20
184.845918
30
0.0
40
0.300000
50
270.000000
51
360.000000
0
LINE
8
0
10
235.834958
20
184.845918
30
0.0
11
235.834958
21
185.847429
31
0.0
0
ARC
8
0
10
236.134958
20
185.847429
30
0.0
40
0.300000
50
90.000000
51
180.000000
0
LINE
8
0
10
236.134958
20
186.147429
30
0.0
11
237.534958
21
186.147429
31
0.0
0
ARC
8
0
10
237.534958
20
185.847429
30
0.0
40
0.300000
50
360.000000
51
90.000000
0
LINE
8
0
10
237.834958
20
185.847429
30
0.0
11
237.834958
21
184.845918
31
0.0
0
ARC
8
0
10
238.134958
20
184.845918
30
0.0
40
0.300000
50
180.000000
51
270.000000
0
LINE
8
0
10
238.134958
20
184.545918
30
0.0
11
244.434958
21
184.545918
31
0.0
0
ARC
8
0
10
244.434958
20
184.845918
30
0.0
40
0.300000
50
270.000000
51
360.000000
0
LINE
8
0
10
244.734958
20
184.845918
30
0.0
11
244.734958
21
185.847429
31
0.0
0
ARC
8
0
10
245.034958
20
185.847429
30
0.0
40
0.300000
50
90.000000
51
180.000000
0
LINE
8
0
10
245.034958
20
186.147429
30
0.0
11
246.434958
21
186.147429
31
0.0
0
ARC
8
0
10
246.434958
20
185.847429
30
0.0
40
0.300000
50
360.000000
51
90.000000
0
LINE
8
0
10
246.734958
20
185.847429
30
0.0
11
246.734958
21
184.845918
31
0.0
0
ARC
8
0
10
247.034958
20
184.845918
30
0.0
40
0.300000
50
180.000000
51
270.000000
0
LINE
8
0
10
247.034958
20
184.545918
30
0.0
11
248.234958
21
184.545918
31
0.0
0
ARC
8
0
10
248.234958
20
184.845918
30
0.0
40
0.300000
50
270.000000
51
360.000000
0
LINE
8
0
10
248.534958
20
184.845918
30
0.0
11
248.534958
21
189.347029
31
0.0
0
ARC
8
0
10
248.234958
20
189.347029
30
0.0
40
0.300000
50
360.000000
51
90.000000
0
LINE
8
0
10
248.234958
20
189.647029
30
0.0
11
246.334958
21
189.647029
31
0.0
0
ARC
8
0
10
246.334958
20
189.947029
30
0.0
40
0.300000
50
180.000000
51
270.000000
0
LINE
8
0
10
246.034958
20
189.947029
30
0.0
11
246.034958
21
190.066644
31
0.0
0
ARC
8
0
10
246.334958
20
190.066644
30
0.0
40
0.300000
50
150.000000
51
180.000000
0
LINE
8
0
10
246.075150
20
190.216644
30
0.0
11
246.525706
21
190.997029
31
0.0
0
ARC
8
0
10
246.785513
20
190.847029
30
0.0
40
0.300000
50
90.000000
51
150.000000
0
LINE
8
0
10
246.785513
20
191.147029
30
0.0
11
250.034958
21
191.147029
31
0.0
0
ARC
8
0
10
250.034958
20
190.847029
30
0.0
40
0.300000
50
360.000000
51
90.000000
0
LINE
8
0
10
250.334958
20
190.847029
30
0.0
11
250.334958
21
117.647029
31
0.0
0
ARC
8
0
10
249.834958
20
117.647029
30
0.0
40
0.500000
50
270.000000
51
360.000000
0
LINE
8
0
10
249.834958
20
117.147029
30
0.0
11
246.134958
21
117.147029
31
0.0
0
LINE
8
0
10
193.434700
20
186.447029
30
0.0
11
185.434700
21
186.447029
31
0.0
0
ARC
8
0
10
185.434700
20
186.147029
30
0.0
40
0.300000
50
90.000000
51
180.000000
0
LINE
8
0
10
185.134700
20
186.147029
30
0.0
11
185.134700
21
144.147029
31
0.0
0
ARC
8
0
10
185.434700
20
144.147029
30
0.0
40
0.300000
50
180.000000
51
270.000000
0
LINE
8
0
10
185.434700
20
143.847029
30
0.0
11
193.434700
21
143.847029
31
0.0
0
ARC
8
0
10
193.434700
20
144.147029
30
0.0
40
0.300000
50
270.000000
51
360.000000
0
LINE
8
0
10
193.734700
20
144.147029
30
0.0
11
193.734700
21
186.147029
31
0.0
0
ARC
8
0
10
193.434700
20
186.147029
30
0.0
40
0.300000
50
360.000000
51
90.000000
0
LINE
8
0
10
197.530577
20
140.875716
30
0.0
11
196.009589
21
141.803167
31
0.0
0
ARC
8
0
10
195.853405
20
141.547029
30
0.0
40
0.300000
50
58.626462
51
90.000000
0
LINE
8
0
10
195.853405
20
141.847029
30
0.0
11
195.634700
21
141.847029
31
0.0
0
ARC
8
0
10
195.634700
20
141.547029
30
0.0
40
0.300000
50
90.000000
51
180.000000
0
LINE
8
0
10
195.334700
20
141.547029
30
0.0
11
195.334700
21
137.512715
31
0.0
0
ARC
8
0
10
195.434700
20
137.229872
30
0.0
40
0.300000
50
109.471221
51
250.528779
0
LINE
8
0
10
195.334700
20
136.947029
30
0.0
11
195.372982
21
136.947029
31
0.0
0
ARC
8
0
10
195.372982
20
137.547029
30
0.0
40
0.600000
50
270.000000
51
302.401721
0
LINE
8
0
10
195.694493
20
137.040442
30
0.0
11
197.402590
21
138.124505
31
0.0
0
LINE
8
0
10
197.402590
20
138.124505
30
0.0
11
197.390493
21
138.412927
31
0.0
0
ARC
8
0
10
197.590318
20
138.421308
30
0.0
40
0.200000
50
62.401721
51
180.000000
0
LINE
8
0
10
197.682971
20
138.598551
30
0.0
11
197.964042
21
138.451622
31
0.0
0
ARC
8
0
10
197.593426
20
137.742648
30
0.0
40
0.800000
50
17.401721
51
62.401721
0
LINE
8
0
10
198.356811
20
137.981904
30
0.0
11
198.958776
21
136.061235
31
0.0
0
ARC
8
0
10
198.672506
20
135.971514
30
0.0
40
0.300000
50
270.000000
51
17.401721
0
LINE
8
0
10
198.672506
20
135.671514
30
0.0
11
197.121412
21
135.671514
31
0.0
0
ARC
8
0
10
197.120010
20
135.871509
30
0.0
40
0.200000
50
209.632658
51
270.000000
0
ARC
8
0
10
196.685403
20
135.624291
30
0.0
40
0.300000
50
29.632658
51
107.401721
0
LINE
8
0
10
196.595682
20
135.910560
30
0.0
11
195.633479
21
135.656937
31
0.0
0
LINE
8
0
10
195.557015
20
135.647029
30
0.0
11
195.633479
21
135.656937
31
0.0
0
LINE
8
0
10
195.557015
20
135.647029
30
0.0
11
193.984700
21
135.647029
31
0.0
0
ARC
8
0
10
193.984700
20
135.347029
30
0.0
40
0.300000
50
90.000000
51
180.000000
0
LINE
8
0
10
193.684700
20
135.347029
30
0.0
11
193.684700
21
131.447029
31
0.0
0
ARC
8
0
10
193.384700
20
131.447029
30
0.0
40
0.300000
50
270.000000
51
360.000000
0
LINE
8
0
10
193.384700
20
131.147029
30
0.0
11
192.384700
21
131.147029
31
0.0
0
ARC
8
0
10
192.384700
20
131.447029
30
0.0
40
0.300000
50
180.000000
51
270.000000
0
LINE
8
0
10
192.084700
20
131.447029
30
0.0
11
192.084700
21
141.847029
31
0.0
0
ARC
8
0
10
191.784700
20
141.847029
30
0.0
40
0.300000
50
360.000000
51
90.000000
0
LINE
8
0
10
191.784700
20
142.147029
30
0.0
11
183.834700
21
142.147029
31
0.0
0
ARC
8
0
10
183.834700
20
142.647029
30
0.0
40
0.500000
50
180.000000
51
270.000000
0
LINE
8
0
10
183.334700
20
142.647029
30
0.0
11
183.334700
21
212.847029
31
0.0
0
ARC
8
0
10
183.634700
20
212.847029
30
0.0
40
0.300000
50
90.000000
51
180.000000
0
LINE
8
0
10
183.634700
20
213.147029
30
0.0
11
187.534700
21
213.147029
31
0.0
0
ARC
8
0
10
187.534700
20
212.847029
30
0.0
40
0.300000
50
360.000000
51
90.000000
0
LINE
8
0
10
187.834700
20
212.847029
30
0.0
11
187.834700
21
211.347029
31
0.0
0
ARC
8
0
10
187.134700
20
211.347029
30
0.0
40
0.700000
50
270.000000
51
360.000000
0
ARC
8
0
10
187.134700
20
210.947029
30
0.0
40
0.300000
50
180.000000
51
270.000000
0
LINE
8
0
10
186.834700
20
210.947029
30
0.0
11
186.834700
21
211.647029
31
0.0
0
ARC
8
0
10
186.534700
20
211.647029
30
0.0
40
0.300000
50
360.000000
51
90.000000
0
LINE
8
0
10
186.534700
20
211.947029
30
0.0
11
185.334700
21
211.947029
31
0.0
0
ARC
8
0
10
185.334700
20
211.247029
30
0.0
40
0.700000
50
90.000000
51
180.000000
0
LINE
8
0
10
184.634700
20
211.247029
30
0.0
11
184.634700
21
205.047029
31
0.0
0
ARC
8
0
10
185.334700
20
205.047029
30
0.0
40
0.700000
50
180.000000
51
270.000000
0
LINE
8
0
10
185.334700
20
204.347029
30
0.0
11
186.534700
21
204.347029
31
0.0
0
ARC
8
0
10
186.534700
20
204.647029
30
0.0
40
0.300000
50
270.000000
51
360.000000
0
LINE
8
0
10
186.834700
20
204.647029
30
0.0
11
186.834700
21
205.347029
31
0.0
0
ARC
8
0
10
187.134700
20
205.347029
30
0.0
40
0.300000
50
90.000000
51
180.000000
0
ARC
8
0
10
187.134700
20
204.947029
30
0.0
40
0.700000
50
360.000000
51
90.000000
0
LINE
8
0
10
187.834700
20
204.947029
30
0.0
11
187.834700
21
201.947029
31
0.0
0
ARC
8
0
10
187.534700
20
201.947029
30
0.0
40
0.300000
50
270.000000
51
360.000000
0
LINE
8
0
10
187.534700
20
201.647029
30
0.0
11
187.134700
21
201.647029
31
0.0
0
ARC
8
0
10
187.134700
20
201.947029
30
0.0
40
0.300000
50
180.000000
51
270.000000
0
LINE
8
0
10
186.834700
20
201.947029
30
0.0
11
186.834700
21
202.847029
31
0.0
0
ARC
8
0
10
186.534700
20
202.847029
30
0.0
40
0.300000
50
360.000000
51
90.000000
0
LINE
8
0
10
186.534700
20
203.147029
30
0.0
11
185.134700
21
203.147029
31
0.0
0
ARC
8
0
10
185.134700
20
202.847029
30
0.0
40
0.300000
50
90.000000
51
180.000000
0
LINE
8
0
10
184.834700
20
202.847029
30
0.0
11
184.834700
21
189.147029
31
0.0
0
ARC
8
0
10
185.834700
20
189.147029
30
0.0
40
1.000000
50
180.000000
51
270.000000
0
LINE
8
0
10
185.834700
20
188.147029
30
0.0
11
193.034700
21
188.147029
31
0.0
0
ARC
8
0
10
193.034700
20
188.447029
30
0.0
40
0.300000
50
270.000000
51
360.000000
0
LINE
8
0
10
193.334700
20
188.447029
30
0.0
11
193.334700
21
190.847029
31
0.0
0
ARC
8
0
10
193.634700
20
190.847029
30
0.0
40
0.300000
50
90.000000
51
180.000000
0
LINE
8
0
10
193.634700
20
191.147029
30
0.0
11
195.557015
21
191.147029
31
0.0
0
LINE
8
0
10
195.633479
20
191.137121
30
0.0
11
195.557015
21
191.147029
31
0.0
0
LINE
8
0
10
195.633479
20
191.137121
30
0.0
11
196.595682
21
190.883498
31
0.0
0
ARC
8
0
10
196.685403
20
191.169768
30
0.0
40
0.300000
50
252.598279
51
330.367342
0
ARC
8
0
10
197.120010
20
190.922549
30
0.0
40
0.200000
50
90.000000
51
150.367342
0
LINE
8
0
10
197.121412
20
191.122544
30
0.0
11
198.672506
21
191.122544
31
0.0
0
ARC
8
0
10
198.672506
20
190.822544
30
0.0
40
0.300000
50
342.598279
51
90.000000
0
LINE
8
0
10
198.958776
20
190.732823
30
0.0
11
198.356811
21
188.812155
31
0.0
0
ARC
8
0
10
197.593426
20
189.051410
30
0.0
40
0.800000
50
297.598279
51
342.598279
0
LINE
8
0
10
197.964042
20
188.342436
30
0.0
11
197.682971
21
188.195507
31
0.0
0
ARC
8
0
10
197.590318
20
188.372750
30
0.0
40
0.200000
50
180.000000
51
297.598279
0
LINE
8
0
10
197.390493
20
188.381131
30
0.0
11
197.402590
21
188.669553
31
0.0
0
LINE
8
0
10
197.402590
20
188.669553
30
0.0
11
195.694493
21
189.753616
31
0.0
0
ARC
8
0
10
195.372982
20
189.247029
30
0.0
40
0.600000
50
57.598279
51
90.000000
0
LINE
8
0
10
195.372982
20
189.847029
30
0.0
11
195.334700
21
189.847029
31
0.0
0
ARC
8
0
10
195.434700
20
189.564186
30
0.0
40
0.300000
50
109.471221
51
250.528779
0
LINE
8
0
10
195.334700
20
189.281344
30
0.0
11
195.334700
21
185.247029
31
0.0
0
ARC
8
0
10
195.634700
20
185.247029
30
0.0
40
0.300000
50
180.000000
51
270.000000
0
LINE
8
0
10
195.634700
20
184.947029
30
0.0
11
195.853405
21
184.947029
31
0.0
0
ARC
8
0
10
195.853405
20
185.247029
30
0.0
40
0.300000
50
270.000000
51
301.373538
0
LINE
8
0
10
196.009589
20
184.990892
30
0.0
11
197.530577
21
185.918343
31
0.0
0
ARC
8
0
10
197.634700
20
185.747584
30
0.0
40
0.200000
50
360.000000
51
121.373538
0
LINE
8
0
10
197.834700
20
185.747584
30
0.0
11
197.834700
21
184.542884
31
0.0
0
ARC
8
0
10
196.834700
20
184.542884
30
0.0
40
1.000000
50
300.000000
51
360.000000
0
LINE
8
0
10
197.334700
20
183.676859
30
0.0
11
195.834700
21
182.810833
31
0.0
0
ARC
8
0
10
196.334700
20
181.944808
30
0.0
40
1.000000
50
120.000000
51
180.000000
0
LINE
8
0
10
195.334700
20
181.944808
30
0.0
11
195.334700
21
144.849251
31
0.0
0
ARC
8
0
10
196.334700
20
144.849251
30
0.0
40
1.000000
50
180.000000
51
240.000000
0
LINE
8
0
10
195.834700
20
143.983225
30
0.0
11
197.334700
21
143.117200
31
0.0
0
ARC
8
0
10
196.834700
20
142.251174
30
0.0
40
1.000000
50
360.000000
51
60.000000
0
LINE
8
0
10
197.834700
20
142.251174
30
0.0
11
197.834700
21
141.046474
31
0.0
0
ARC
8
0
10
197.634700
20
141.046474
30
0.0
40
0.200000
50
238.626462
51
360.000000
0
LINE
8
0
10
218.605440
20
189.206675
30
0.0
11
216.875087
21
188.207641
31
0.0
0
ARC
8
0
10
216.275081
20
189.246868
30
0.0
40
1.200000
50
270.000000
51
300.000345
0
LINE
8
0
10
216.275081
20
188.046868
30
0.0
11
215.203255
21
188.046868
31
0.0
0
ARC
8
0
10
215.203255
20
188.346868
30
0.0
40
0.300000
50
215.885612
51
270.000000
0
LINE
8
0
10
214.960199
20
188.171018
30
0.0
11
214.431448
21
188.901844
31
0.0
0
ARC
8
0
10
214.593486
20
189.019078
30
0.0
40
0.200000
50
108.581915
51
215.885612
0
LINE
8
0
10
214.529754
20
189.208652
30
0.0
11
214.641189
21
189.246115
31
0.0
0
ARC
8
0
10
214.593390
20
189.388295
30
0.0
40
0.150000
50
288.581915
51
57.436866
0
LINE
8
0
10
214.674124
20
189.514715
30
0.0
11
214.288510
21
189.760976
31
0.0
0
ARC
8
0
10
214.127041
20
189.508137
30
0.0
40
0.300000
50
57.436866
51
90.000000
0
LINE
8
0
10
214.126991
20
189.808137
30
0.0
11
213.789058
21
189.808080
31
0.0
0
ARC
8
0
10
213.789108
20
189.508080
30
0.0
40
0.300000
50
90.000000
51
202.907135
0
LINE
8
0
10
213.512767
20
189.391308
30
0.0
11
213.787358
21
188.741488
31
0.0
0
ARC
8
0
10
213.326789
20
188.546868
30
0.0
40
0.500000
50
270.000000
51
22.907135
0
LINE
8
0
10
213.326790
20
188.046868
30
0.0
11
200.124997
21
188.046857
31
0.0
0
ARC
8
0
10
200.124996
20
188.546857
30
0.0
40
0.500000
50
156.000000
51
270.000000
0
LINE
8
0
10
199.668224
20
188.750225
30
0.0
11
200.120021
21
189.764978
31
0.0
0
ARC
8
0
10
199.845957
20
189.886999
30
0.0
40
0.300000
50
336.000000
51
32.065684
0
ARC
8
0
10
200.354421
20
190.205534
30
0.0
40
0.300000
50
35.548433
51
212.065684
0
ARC
8
0
10
200.842596
20
190.554368
30
0.0
40
0.300000
50
215.548433
51
270.000000
0
LINE
8
0
10
200.842596
20
190.254368
30
0.0
11
212.300782
21
190.255121
31
0.0
0
ARC
8
0
10
212.300801
20
189.955121
30
0.0
40
0.300000
50
17.834934
51
90.000000
0
LINE
8
0
10
212.586384
20
190.047003
30
0.0
11
212.900235
21
189.071518
31
0.0
0
ARC
8
0
10
213.185817
20
189.163401
30
0.0
40
0.300000
50
197.834934
51
18.015506
0
LINE
8
0
10
213.471109
20
189.256183
30
0.0
11
213.274227
21
189.861566
31
0.0
0
ARC
8
0
10
213.559519
20
189.954349
30
0.0
40
0.300000
50
90.000000
51
198.015506
0
LINE
8
0
10
213.559695
20
190.254348
30
0.0
11
214.043889
21
190.254065
31
0.0
0
ARC
8
0
10
214.043714
20
189.954065
30
0.0
40
0.300000
50
37.522757
51
90.000000
0
LINE
8
0
10
214.281647
20
190.136788
30
0.0
11
214.751908
21
189.524435
31
0.0
0
ARC
8
0
10
214.593286
20
189.402620
30
0.0
40
0.200000
50
287.128706
51
37.522757
0
LINE
8
0
10
214.652190
20
189.211491
30
0.0
11
214.538177
21
189.176353
31
0.0
0
ARC
8
0
10
214.582355
20
189.033006
30
0.0
40
0.150000
50
107.128706
51
215.002354
0
LINE
8
0
10
214.459485
20
188.946965
30
0.0
11
214.926327
21
188.280304
31
0.0
0
ARC
8
0
10
215.172066
20
188.452387
30
0.0
40
0.300000
50
215.002354
51
270.000000
0
LINE
8
0
10
215.168567
20
188.152407
30
0.0
11
215.675020
21
188.146500
31
0.0
0
ARC
8
0
10
215.678519
20
188.446479
30
0.0
40
0.300000
50
270.000000
51
24.000000
0
LINE
8
0
10
215.952583
20
188.568500
30
0.0
11
214.936617
21
190.850397
31
0.0
0
ARC
8
0
10
214.479844
20
190.647029
30
0.0
40
0.500000
50
24.000000
51
90.000000
0
LINE
8
0
10
214.479844
20
191.147029
30
0.0
11
200.189911
21
191.147018
31
0.0
0
ARC
8
0
10
200.189912
20
190.647018
30
0.0
40
0.500000
50
90.000000
51
156.000000
0
LINE
8
0
10
199.733139
20
190.850386
30
0.0
11
198.565050
21
188.226815
31
0.0
0
ARC
8
0
10
198.292717
20
188.352651
30
0.0
40
0.300000
50
263.495163
51
335.200000
0
ARC
8
0
10
198.394675
20
189.246857
30
0.0
40
1.200000
50
239.999655
51
263.495163
0
LINE
8
0
10
197.794669
20
188.207630
30
0.0
11
196.064316
21
189.206664
31
0.0
0
ARC
8
0
10
195.914315
20
188.946857
30
0.0
40
0.300000
50
59.999655
51
90.000000
0
LINE
8
0
10
195.914315
20
189.246857
30
0.0
11
195.734700
21
189.246857
31
0.0
0
ARC
8
0
10
195.734700
20
188.846857
30
0.0
40
0.400000
50
90.000000
51
180.000000
0
LINE
8
0
10
195.334700
20
188.846857
30
0.0
11
195.334700
21
185.446857
31
0.0
0
ARC
8
0
10
195.734700
20
185.446857
30
0.0
40
0.400000
50
180.000000
51
270.000000
0
LINE
8
0
10
195.734700
20
185.046857
30
0.0
11
195.914316
21
185.046857
31
0.0
0
ARC
8
0
10
195.914316
20
185.346857
30
0.0
40
0.300000
50
270.000000
51
300.000000
0
LINE
8
0
10
196.064316
20
185.087049
30
0.0
11
197.794700
21
186.086087
31
0.0
0
ARC
8
0
10
198.394700
20
185.046857
30
0.0
40
1.200000
50
90.000000
51
120.000000
0
LINE
8
0
10
198.394699
20
186.246857
30
0.0
11
206.584878
21
186.246869
31
0.0
0
ARC
8
0
10
206.584878
20
186.046869
30
0.0
40
0.200000
50
360.000000
51
90.000000
0
LINE
8
0
10
206.784878
20
186.046869
30
0.0
11
206.784878
21
164.546868
31
0.0
0
ARC
8
0
10
207.084878
20
164.546868
30
0.0
40
0.300000
50
180.000000
51
270.000000
0
LINE
8
0
10
207.084878
20
164.246868
30
0.0
11
207.584878
21
164.246868
31
0.0
0
ARC
8
0
10
207.584878
20
164.546868
30
0.0
40
0.300000
50
270.000000
51
360.000000
0
LINE
8
0
10
207.884878
20
164.546868
30
0.0
11
207.884878
21
186.046869
31
0.0
0
ARC
8
0
10
208.084878
20
186.046869
30
0.0
40
0.200000
50
90.000000
51
180.000000
0
LINE
8
0
10
208.084878
20
186.246869
30
0.0
11
216.275056
21
186.246868
31
0.0
0
ARC
8
0
10
216.275056
20
185.046868
30
0.0
40
1.200000
50
60.000000
51
90.000000
0
LINE
8
0
10
216.875056
20
186.086099
30
0.0
11
218.605441
21
185.087061
31
0.0
0
ARC
8
0
10
218.755441
20
185.346868
30
0.0
40
0.300000
50
240.000000
51
270.000000
0
LINE
8
0
10
218.755441
20
185.046868
30
0.0
11
218.935056
21
185.046868
31
0.0
0
ARC
8
0
10
218.935056
20
185.446868
30
0.0
40
0.400000
50
270.000000
51
360.000000
0
LINE
8
0
10
219.335056
20
185.446868
30
0.0
11
219.335056
21
188.846868
31
0.0
0
ARC
8
0
10
218.935056
20
188.846868
30
0.0
40
0.400000
50
360.000000
51
90.000000
0
LINE
8
0
10
218.935056
20
189.246868
30
0.0
11
218.755442
21
189.246868
31
0.0
0
ARC
8
0
10
218.755442
20
188.946868
30
0.0
40
0.300000
50
90.000000
51
120.000345
0
LINE
8
0
10
196.064219
20
137.587378
30
0.0
11
197.794571
21
138.586411
31
0.0
0
ARC
8
0
10
198.394578
20
137.547184
30
0.0
40
1.200000
50
90.000000
51
120.000345
0
LINE
8
0
10
198.394578
20
138.747184
30
0.0
11
199.466403
21
138.747184
31
0.0
0
ARC
8
0
10
199.466403
20
138.447184
30
0.0
40
0.300000
50
35.885612
51
90.000000
0
LINE
8
0
10
199.709460
20
138.623035
30
0.0
11
200.238210
21
137.892209
31
0.0
0
ARC
8
0
10
200.076173
20
137.774975
30
0.0
40
0.200000
50
288.581915
51
35.885612
0
LINE
8
0
10
200.139905
20
137.585401
30
0.0
11
200.028469
21
137.547938
31
0.0
0
ARC
8
0
10
200.076268
20
137.405758
30
0.0
40
0.150000
50
108.581915
51
237.436866
0
LINE
8
0
10
199.995534
20
137.279338
30
0.0
11
200.381149
21
137.033076
31
0.0
0
ARC
8
0
10
200.542617
20
137.285916
30
0.0
40
0.300000
50
237.436866
51
270.000000
0
LINE
8
0
10
200.542668
20
136.985916
30
0.0
11
200.880600
21
136.985973
31
0.0
0
ARC
8
0
10
200.880550
20
137.285973
30
0.0
40
0.300000
50
270.000000
51
22.907135
0
LINE
8
0
10
201.156891
20
137.402744
30
0.0
11
200.882301
21
138.052565
31
0.0
0
ARC
8
0
10
201.342869
20
138.247184
30
0.0
40
0.500000
50
90.000000
51
202.907135
0
LINE
8
0
10
201.342869
20
138.747184
30
0.0
11
214.544662
21
138.747196
31
0.0
0
ARC
8
0
10
214.544662
20
138.247196
30
0.0
40
0.500000
50
336.000000
51
90.000000
0
LINE
8
0
10
215.001435
20
138.043827
30
0.0
11
214.549638
21
137.029075
31
0.0
0
ARC
8
0
10
214.823701
20
136.907054
30
0.0
40
0.300000
50
156.000000
51
212.065684
0
ARC
8
0
10
214.315237
20
136.588519
30
0.0
40
0.300000
50
215.548433
51
32.065684
0
ARC
8
0
10
213.827063
20
136.239684
30
0.0
40
0.300000
50
35.548433
51
90.000000
0
LINE
8
0
10
213.827063
20
136.539684
30
0.0
11
202.368877
21
136.538932
31
0.0
0
ARC
8
0
10
202.368857
20
136.838932
30
0.0
40
0.300000
50
197.834934
51
270.000000
0
LINE
8
0
10
202.083274
20
136.747049
30
0.0
11
201.769424
21
137.722535
31
0.0
0
ARC
8
0
10
201.483841
20
137.630652
30
0.0
40
0.300000
50
17.834934
51
198.015506
0
LINE
8
0
10
201.198549
20
137.537870
30
0.0
11
201.395431
21
136.932486
31
0.0
0
ARC
8
0
10
201.110139
20
136.839704
30
0.0
40
0.300000
50
270.000000
51
18.015506
0
LINE
8
0
10
201.109964
20
136.539704
30
0.0
11
200.625769
21
136.539987
31
0.0
0
ARC
8
0
10
200.625945
20
136.839987
30
0.0
40
0.300000
50
217.522757
51
270.000000
0
LINE
8
0
10
200.388011
20
136.657264
30
0.0
11
199.917750
21
137.269617
31
0.0
0
ARC
8
0
10
200.076372
20
137.391433
30
0.0
40
0.200000
50
107.128706
51
217.522757
0
LINE
8
0
10
200.017468
20
137.582562
30
0.0
11
200.131482
21
137.617699
31
0.0
0
ARC
8
0
10
200.087304
20
137.761046
30
0.0
40
0.150000
50
287.128706
51
35.002354
0
LINE
8
0
10
200.210173
20
137.847088
30
0.0
11
199.743331
21
138.513749
31
0.0
0
ARC
8
0
10
199.497593
20
138.341666
30
0.0
40
0.300000
50
35.002354
51
90.000000
0
LINE
8
0
10
199.501092
20
138.641645
30
0.0
11
198.994638
21
138.647553
31
0.0
0
ARC
8
0
10
198.991139
20
138.347573
30
0.0
40
0.300000
50
90.000000
51
204.000000
0
LINE
8
0
10
198.717075
20
138.225552
30
0.0
11
199.733041
21
135.943655
31
0.0
0
ARC
8
0
10
200.189814
20
136.147023
30
0.0
40
0.500000
50
204.000000
51
270.000000
0
LINE
8
0
10
200.189815
20
135.647023
30
0.0
11
214.479747
21
135.647035
31
0.0
0
ARC
8
0
10
214.479747
20
136.147035
30
0.0
40
0.500000
50
270.000000
51
336.000000
0
LINE
8
0
10
214.936519
20
135.943667
30
0.0
11
216.104608
21
138.567237
31
0.0
0
ARC
8
0
10
216.376942
20
138.441402
30
0.0
40
0.300000
50
83.495163
51
155.200000
0
ARC
8
0
10
216.274983
20
137.547196
30
0.0
40
1.200000
50
59.999655
51
83.495163
0
LINE
8
0
10
216.874989
20
138.586423
30
0.0
11
218.605342
21
137.587389
31
0.0
0
ARC
8
0
10
218.755344
20
137.847196
30
0.0
40
0.300000
50
239.999655
51
270.000000
0
LINE
8
0
10
218.755344
20
137.547196
30
0.0
11
218.934958
21
137.547196
31
0.0
0
ARC
8
0
10
218.934958
20
137.947196
30
0.0
40
0.400000
50
270.000000
51
360.000000
0
LINE
8
0
10
219.334958
20
137.947196
30
0.0
11
219.334958
21
141.347196
31
0.0
0
ARC
8
0
10
218.934958
20
141.347196
30
0.0
40
0.400000
50
360.000000
51
90.000000
0
LINE
8
0
10
218.934958
20
141.747196
30
0.0
11
218.755343
21
141.747196
31
0.0
0
ARC
8
0
10
218.755343
20
141.447196
30
0.0
40
0.300000
50
90.000000
51
120.000000
0
LINE
8
0
10
218.605343
20
141.707003
30
0.0
11
216.874958
21
140.707965
31
0.0
0
ARC
8
0
10
216.274958
20
141.747196
30
0.0
40
1.200000
50
270.000000
51
300.000000
0
LINE
8
0
10
216.274960
20
140.547196
30
0.0
11
208.084781
21
140.547184
31
0.0
0
ARC
8
0
10
208.084780
20
140.747184
30
0.0
40
0.200000
50
180.000000
51
270.000000
0
LINE
8
0
10
207.884780
20
140.747184
30
0.0
11
207.884780
21
162.247184
31
0.0
0
ARC
8
0
10
207.584780
20
162.247184
30
0.0
40
0.300000
50
360.000000
51
90.000000
0
LINE
8
0
10
207.584780
20
162.547184
30
0.0
11
207.084780
21
162.547184
31
0.0
0
ARC
8
0
10
207.084780
20
162.247184
30
0.0
40
0.300000
50
90.000000
51
180.000000
0
LINE
8
0
10
206.784780
20
162.247184
30
0.0
11
206.784780
21
140.747184
31
0.0
0
ARC
8
0
10
206.584780
20
140.747184
30
0.0
40
0.200000
50
270.000000
51
360.000000
0
LINE
8
0
10
206.584780
20
140.547184
30
0.0
11
198.394603
21
140.547184
31
0.0
0
ARC
8
0
10
198.394603
20
141.747184
30
0.0
40
1.200000
50
240.000000
51
270.000000
0
LINE
8
0
10
197.794603
20
140.707954
30
0.0
11
196.064218
21
141.706992
31
0.0
0
ARC
8
0
10
195.914218
20
141.447184
30
0.0
40
0.300000
50
60.000000
51
90.000000
0
LINE
8
0
10
195.914218
20
141.747184
30
0.0
11
195.734603
21
141.747184
31
0.0
0
ARC
8
0
10
195.734603
20
141.347184
30
0.0
40
0.400000
50
90.000000
51
180.000000
0
LINE
8
0
10
195.334603
20
141.347184
30
0.0
11
195.334603
21
137.947184
31
0.0
0
ARC
8
0
10
195.734603
20
137.947184
30
0.0
40
0.400000
50
180.000000
51
270.000000
0
LINE
8
0
10
195.734603
20
137.547184
30
0.0
11
195.914217
21
137.547184
31
0.0
0
ARC
8
0
10
195.914217
20
137.847184
30
0.0
40
0.300000
50
270.000000
51
300.000345
0
ATTDEF
8
0
10
194.595858
20
191.147029
30
0.0
40
3.5
1

3

2
VC_START
70
0
0
ATTDEF
8
0
10
198.672506
20
135.671514
30
0.0
40
3.5
1

3

2
VC_END
70
0
0
ATTDEF
8
0
10
183.334700
20
117.147029
30
0.0
40
3.5
1

3

2
DESC:Anta Z
70
0
0
ATTDEF
8
0
10
183.334700
20
117.147029
30
0.0
40
3.5
1

3

2
DENS:2.140000
70
0
0
ATTDEF
8
0
10
183.334700
20
117.147029
30
0.0
40
3.5
1

3

2
TDEV:0.000000
70
0
0
ATTDEF
8
0
10
183.334700
20
117.147029
30
0.0
40
3.5
1

3

2
TDEV2:0.000000
70
0
0
ATTDEF
8
0
10
183.334700
20
117.147029
30
0.0
40
3.5
1

3

2
TDEV3:0.000000
70
0
0
ATTDEF
8
0
10
183.334700
20
117.147029
30
0.0
40
3.5
1

3

2
TDEV4:0.000000
70
0
0
ATTDEF
8
0
10
183.334700
20
117.147029
30
0.0
40
3.5
1

3

2
TDEV5:0.000000
70
0
0
ATTDEF
8
0
10
183.334700
20
117.147029
30
0.0
40
3.5
1

3

2
FRONT_VIEW
70
0
0
ATTDEF
8
0
10
183.334700
20
117.147029
30
0.0
40
3.5
1

3

2
BL01:6800.000000,,1
70
0
0
ATTDEF
8
0
10
183.334700
20
117.147029
30
0.0
40
3.5
1

3

2
OPTI:500.000000,1,0,3000.000000,6500.000000,500.000000,0,0.000000,0
70
0
0
ATTDEF
8
0
10
183.334700
20
117.147029
30
0.0
40
3.5
1

3

2
GLASS_MIN:0.000000
70
0
0
ATTDEF
8
0
10
183.334700
20
117.147029
30
0.0
40
3.5
1

3

2
GLASS_MAX:0.000000
70
0
0
ATTDEF
8
0
10
183.334700
20
117.147029
30
0.0
40
3.5
1

3

2
JX:0.000000
70
0
0
ATTDEF
8
0
10
183.334700
20
117.147029
30
0.0
40
3.5
1

3

2
WX:0.000000
70
0
0
ATTDEF
8
0
10
183.334700
20
117.147029
30
0.0
40
3.5
1

3

2
JY:0.000000
70
0
0
ATTDEF
8
0
10
183.334700
20
117.147029
30
0.0
40
3.5
1

3

2
WY:0.000000
70
0
0
ATTDEF
8
0
10
183.334700
20
117.147029
30
0.0
40
3.5
1

3

2
FP_LCS_ORIG
70
0
0
ATTDEF
8
0
10
193.334700
20
117.147029
30
0.0
40
3.5
1

3

2
FP_LCS_HOT
70
0
0
ATTDEF
8
0
10
183.334700
20
127.147029
30
0.0
40
3.5
1

3

2
FP_LCS_INTERN
70
0
0
ATTDEF
8
0
10
0.000000
20
0.000000
30
0.0
40
3.5
1

3

2
CTYPE1:3F0B2FEE43C1BD82F7E6CBA71286DFF3|4.50,95.70,3,0.000000|0.00,0.00|4
70
0
0
ATTDEF
8
0
10
183.334700
20
117.147029
30
0.0
40
3.5
1

3

2
PANE_WIDTH:62.000000
70
0
0
ENDSEC
0
EOF
