0
SECTION
2
ENTITIES
0
LINE
8
0
10
105.591615
20
119.649337
30
0.0
11
114.105903
21
119.649337
31
0.0
0
ARC
8
0
10
114.105903
20
122.149337
30
0.0
40
2.500000
50
270.000000
51
320.000265
0
LINE
8
0
10
116.021022
20
120.542377
30
0.0
11
117.120499
21
121.852696
31
0.0
0
ARC
8
0
10
119.418642
20
119.924343
30
0.0
40
3.000000
50
90.000000
51
140.000265
0
LINE
8
0
10
119.418643
20
122.924343
30
0.0
11
119.445643
21
122.924343
31
0.0
0
ARC
8
0
10
119.445643
20
123.124343
30
0.0
40
0.200000
50
270.000000
51
299.999900
0
LINE
8
0
10
119.545643
20
122.951138
30
0.0
11
121.054981
21
123.822551
31
0.0
0
ARC
8
0
10
121.154981
20
123.649346
30
0.0
40
0.200000
50
90.000000
51
119.999900
0
LINE
8
0
10
121.154981
20
123.849346
30
0.0
11
121.548759
21
123.849346
31
0.0
0
ARC
8
0
10
121.548759
20
123.549346
30
0.0
40
0.300000
50
0.000000
51
90.000000
0
LINE
8
0
10
121.848759
20
123.549346
30
0.0
11
121.848759
21
122.649340
31
0.0
0
ARC
8
0
10
121.548759
20
122.649340
30
0.0
40
0.300000
50
270.000000
51
0.000000
0
LINE
8
0
10
121.548759
20
122.349340
30
0.0
11
121.428581
21
122.349340
31
0.0
0
ARC
8
0
10
121.098761
20
121.824346
30
0.0
40
0.620000
50
57.861485
51
302.135874
0
LINE
8
0
10
121.428557
20
121.299337
30
0.0
11
121.548759
21
121.299337
31
0.0
0
ARC
8
0
10
121.548759
20
120.999337
30
0.0
40
0.300000
50
0.000000
51
90.000000
0
LINE
8
0
10
121.848759
20
120.999337
30
0.0
11
121.848759
21
120.099346
31
0.0
0
ARC
8
0
10
121.548759
20
120.099346
30
0.0
40
0.300000
50
270.000000
51
0.000000
0
LINE
8
0
10
121.548759
20
119.799346
30
0.0
11
121.154972
21
119.799346
31
0.0
0
ARC
8
0
10
121.154972
20
119.999346
30
0.0
40
0.200000
50
239.999870
51
270.000000
0
LINE
8
0
10
121.054972
20
119.826141
30
0.0
11
119.545659
21
120.697548
31
0.0
0
ARC
8
0
10
119.445659
20
120.524343
30
0.0
40
0.200000
50
59.999870
51
90.000000
0
ARC
8
0
10
119.438964
20
119.524343
30
0.0
40
1.200000
50
90.000000
51
139.999842
0
LINE
8
0
10
118.519713
20
120.295691
30
0.0
11
116.682760
21
118.106539
31
0.0
0
ARC
8
0
10
115.916722
20
118.749334
30
0.0
40
1.000000
50
270.000000
51
319.999452
0
LINE
8
0
10
115.916722
20
117.749334
30
0.0
11
103.780796
21
117.749334
31
0.0
0
ARC
8
0
10
103.780796
20
118.749334
30
0.0
40
1.000000
50
220.000527
51
270.000000
0
LINE
8
0
10
103.014758
20
118.106539
30
0.0
11
101.177802
21
120.295697
31
0.0
0
ARC
8
0
10
100.258556
20
119.524343
30
0.0
40
1.200000
50
40.000527
51
90.000000
0
ARC
8
0
10
100.251861
20
120.524343
30
0.0
40
0.200000
50
90.000000
51
120.000130
0
LINE
8
0
10
100.151861
20
120.697548
30
0.0
11
98.642548
21
119.826141
31
0.0
0
ARC
8
0
10
98.542547
20
119.999346
30
0.0
40
0.200000
50
270.000000
51
300.000130
0
LINE
8
0
10
98.542547
20
119.799346
30
0.0
11
98.148760
21
119.799346
31
0.0
0
ARC
8
0
10
98.148760
20
120.099346
30
0.0
40
0.300000
50
180.000000
51
270.000000
0
LINE
8
0
10
97.848760
20
120.099346
30
0.0
11
97.848760
21
120.999337
31
0.0
0
ARC
8
0
10
98.148760
20
120.999337
30
0.0
40
0.300000
50
90.000000
51
180.000000
0
LINE
8
0
10
98.148760
20
121.299337
30
0.0
11
98.268963
21
121.299337
31
0.0
0
ARC
8
0
10
98.598759
20
121.824346
30
0.0
40
0.620000
50
237.864126
51
122.138515
0
LINE
8
0
10
98.268939
20
122.349340
30
0.0
11
98.148760
21
122.349340
31
0.0
0
ARC
8
0
10
98.148760
20
122.649340
30
0.0
40
0.300000
50
180.000000
51
270.000000
0
LINE
8
0
10
97.848760
20
122.649340
30
0.0
11
97.848760
21
123.549346
31
0.0
0
ARC
8
0
10
98.148760
20
123.549346
30
0.0
40
0.300000
50
90.000000
51
180.000000
0
LINE
8
0
10
98.148760
20
123.849346
30
0.0
11
98.542539
21
123.849346
31
0.0
0
ARC
8
0
10
98.542539
20
123.649346
30
0.0
40
0.200000
50
60.000100
51
90.000000
0
LINE
8
0
10
98.642539
20
123.822551
30
0.0
11
100.152067
21
122.951029
31
0.0
0
ARC
8
0
10
100.252066
20
123.124234
30
0.0
40
0.200000
50
240.000100
51
270.000000
0
ARC
8
0
10
100.278875
20
119.924346
30
0.0
40
3.000000
50
39.999735
51
90.480011
0
LINE
8
0
10
102.577017
20
121.852698
30
0.0
11
103.675383
21
120.543704
31
0.0
0
ARC
8
0
10
105.591615
20
122.149337
30
0.0
40
2.500000
50
219.960034
51
270.000000
0
LINE
8
0
10
105.591615
20
138.472791
30
0.0
11
114.105903
21
138.472791
31
0.0
0
ARC
8
0
10
114.105903
20
135.972791
30
0.0
40
2.500000
50
39.999735
51
90.000000
0
LINE
8
0
10
116.021022
20
137.579751
30
0.0
11
117.120499
21
136.269432
31
0.0
0
ARC
8
0
10
119.418642
20
138.197784
30
0.0
40
3.000000
50
219.999735
51
270.000000
0
LINE
8
0
10
119.418643
20
135.197784
30
0.0
11
119.445643
21
135.197784
31
0.0
0
ARC
8
0
10
119.445643
20
134.997784
30
0.0
40
0.200000
50
60.000100
51
90.000000
0
LINE
8
0
10
119.545643
20
135.170990
30
0.0
11
121.054981
21
134.299576
31
0.0
0
ARC
8
0
10
121.154981
20
134.472782
30
0.0
40
0.200000
50
240.000100
51
270.000000
0
LINE
8
0
10
121.154981
20
134.272782
30
0.0
11
121.548759
21
134.272782
31
0.0
0
ARC
8
0
10
121.548759
20
134.572782
30
0.0
40
0.300000
50
270.000000
51
0.000000
0
LINE
8
0
10
121.848759
20
134.572782
30
0.0
11
121.848759
21
135.472788
31
0.0
0
ARC
8
0
10
121.548759
20
135.472788
30
0.0
40
0.300000
50
0.000000
51
90.000000
0
LINE
8
0
10
121.548759
20
135.772788
30
0.0
11
121.428581
21
135.772788
31
0.0
0
ARC
8
0
10
121.098761
20
136.297782
30
0.0
40
0.620000
50
57.864126
51
302.138515
0
LINE
8
0
10
121.428557
20
136.822791
30
0.0
11
121.548759
21
136.822791
31
0.0
0
ARC
8
0
10
121.548759
20
137.122791
30
0.0
40
0.300000
50
270.000000
51
0.000000
0
LINE
8
0
10
121.848759
20
137.122791
30
0.0
11
121.848759
21
138.022782
31
0.0
0
ARC
8
0
10
121.548759
20
138.022782
30
0.0
40
0.300000
50
0.000000
51
90.000000
0
LINE
8
0
10
121.548759
20
138.322782
30
0.0
11
121.154972
21
138.322782
31
0.0
0
ARC
8
0
10
121.154972
20
138.122782
30
0.0
40
0.200000
50
90.000000
51
120.000130
0
LINE
8
0
10
121.054972
20
138.295986
30
0.0
11
119.545659
21
137.424580
31
0.0
0
ARC
8
0
10
119.445659
20
137.597784
30
0.0
40
0.200000
50
270.000000
51
300.000130
0
ARC
8
0
10
119.438964
20
138.597784
30
0.0
40
1.200000
50
220.000158
51
270.000000
0
LINE
8
0
10
118.519713
20
137.826437
30
0.0
11
116.682760
21
140.015589
31
0.0
0
ARC
8
0
10
115.916722
20
139.372794
30
0.0
40
1.000000
50
40.000548
51
90.000000
0
LINE
8
0
10
115.916722
20
140.372794
30
0.0
11
103.780796
21
140.372794
31
0.0
0
ARC
8
0
10
103.780796
20
139.372794
30
0.0
40
1.000000
50
90.000000
51
139.999473
0
LINE
8
0
10
103.014758
20
140.015588
30
0.0
11
101.177802
21
137.826431
31
0.0
0
ARC
8
0
10
100.258556
20
138.597784
30
0.0
40
1.200000
50
270.000000
51
319.999473
0
ARC
8
0
10
100.251861
20
137.597784
30
0.0
40
0.200000
50
239.999870
51
270.000000
0
LINE
8
0
10
100.151861
20
137.424580
30
0.0
11
98.642548
21
138.295986
31
0.0
0
ARC
8
0
10
98.542547
20
138.122782
30
0.0
40
0.200000
50
59.999870
51
90.000000
0
LINE
8
0
10
98.542547
20
138.322782
30
0.0
11
98.148760
21
138.322782
31
0.0
0
ARC
8
0
10
98.148760
20
138.022782
30
0.0
40
0.300000
50
90.000000
51
180.000000
0
LINE
8
0
10
97.848760
20
138.022782
30
0.0
11
97.848760
21
137.122791
31
0.0
0
ARC
8
0
10
98.148760
20
137.122791
30
0.0
40
0.300000
50
180.000000
51
270.000000
0
LINE
8
0
10
98.148760
20
136.822791
30
0.0
11
98.268963
21
136.822791
31
0.0
0
ARC
8
0
10
98.598759
20
136.297782
30
0.0
40
0.620000
50
237.861485
51
122.135874
0
LINE
8
0
10
98.268939
20
135.772788
30
0.0
11
98.148760
21
135.772788
31
0.0
0
ARC
8
0
10
98.148760
20
135.472788
30
0.0
40
0.300000
50
90.000000
51
180.000000
0
LINE
8
0
10
97.848760
20
135.472788
30
0.0
11
97.848760
21
134.572782
31
0.0
0
ARC
8
0
10
98.148760
20
134.572782
30
0.0
40
0.300000
50
180.000000
51
270.000000
0
LINE
8
0
10
98.148760
20
134.272782
30
0.0
11
98.542539
21
134.272782
31
0.0
0
ARC
8
0
10
98.542539
20
134.472782
30
0.0
40
0.200000
50
270.000000
51
299.999900
0
LINE
8
0
10
98.642539
20
134.299576
30
0.0
11
100.152067
21
135.171099
31
0.0
0
ARC
8
0
10
100.252066
20
134.997894
30
0.0
40
0.200000
50
90.000000
51
119.999900
0
ARC
8
0
10
100.278875
20
138.197782
30
0.0
40
3.000000
50
269.519989
51
320.000265
0
LINE
8
0
10
102.577017
20
136.269429
30
0.0
11
103.675383
21
137.578424
31
0.0
0
ARC
8
0
10
105.591615
20
135.972791
30
0.0
40
2.500000
50
90.000000
51
140.039966
0
ARC
8
0
10
145.648761
20
121.562954
30
0.0
40
0.300000
50
0.000000
51
90.000000
0
LINE
8
0
10
145.948761
20
121.562954
30
0.0
11
145.948761
21
116.662954
31
0.0
0
ARC
8
0
10
146.248761
20
116.662954
30
0.0
40
0.300000
50
180.000000
51
270.000000
0
LINE
8
0
10
146.248761
20
116.362954
30
0.0
11
150.748761
21
116.362954
31
0.0
0
ARC
8
0
10
150.748761
20
116.662954
30
0.0
40
0.300000
50
270.000000
51
0.000000
0
LINE
8
0
10
151.048761
20
116.662954
30
0.0
11
151.048761
21
133.362843
31
0.0
0
ARC
8
0
10
150.548761
20
133.362843
30
0.0
40
0.500000
50
0.000000
51
90.000000
0
LINE
8
0
10
150.548761
20
133.862843
30
0.0
11
141.948901
21
133.862843
31
0.0
0
ARC
8
0
10
141.948901
20
134.362843
30
0.0
40
0.500000
50
180.000000
51
270.000000
0
LINE
8
0
10
141.448901
20
134.362843
30
0.0
11
141.448901
21
138.562843
31
0.0
0
ARC
8
0
10
141.148901
20
138.562843
30
0.0
40
0.300000
50
0.000000
51
90.000000
0
LINE
8
0
10
141.148901
20
138.862843
30
0.0
11
123.748761
21
138.862843
31
0.0
0
ARC
8
0
10
123.748761
20
138.562843
30
0.0
40
0.300000
50
90.000000
51
180.000000
0
LINE
8
0
10
123.448761
20
138.562843
30
0.0
11
123.448761
21
117.462926
31
0.0
0
ARC
8
0
10
123.748761
20
117.462926
30
0.0
40
0.300000
50
180.000000
51
270.000000
0
LINE
8
0
10
123.748761
20
117.162926
30
0.0
11
138.648761
21
117.162926
31
0.0
0
ARC
8
0
10
138.648761
20
117.462926
30
0.0
40
0.300000
50
270.000000
51
0.000000
0
LINE
8
0
10
138.948761
20
117.462926
30
0.0
11
138.948761
21
121.562954
31
0.0
0
ARC
8
0
10
139.248761
20
121.562954
30
0.0
40
0.300000
50
90.000000
51
180.000000
0
LINE
8
0
10
139.248761
20
121.862954
30
0.0
11
145.648761
21
121.862954
31
0.0
0
LINE
8
0
10
94.598762
20
144.563104
30
0.0
11
94.598762
21
134.163104
31
0.0
0
ARC
8
0
10
94.298762
20
134.163104
30
0.0
40
0.300000
50
270.000000
51
0.000000
0
LINE
8
0
10
94.298762
20
133.863104
30
0.0
11
91.048504
21
133.863104
31
0.0
0
ARC
8
0
10
91.048504
20
133.563104
30
0.0
40
0.300000
50
90.000000
51
180.000000
0
LINE
8
0
10
90.748504
20
133.563104
30
0.0
11
90.748504
21
131.263104
31
0.0
0
ARC
8
0
10
90.448504
20
131.263104
30
0.0
40
0.300000
50
270.000000
51
0.000000
0
LINE
8
0
10
90.448504
20
130.963104
30
0.0
11
89.548762
21
130.963104
31
0.0
0
ARC
8
0
10
89.548762
20
130.663104
30
0.0
40
0.300000
50
90.000000
51
180.000000
0
LINE
8
0
10
89.248762
20
130.663104
30
0.0
11
89.248762
21
129.963104
31
0.0
0
ARC
8
0
10
89.548762
20
129.963104
30
0.0
40
0.300000
50
180.000000
51
270.000000
0
LINE
8
0
10
89.548762
20
129.663104
30
0.0
11
91.748504
21
129.663104
31
0.0
0
ARC
8
0
10
91.748504
20
129.963104
30
0.0
40
0.300000
50
270.000000
51
0.000000
0
LINE
8
0
10
92.048504
20
129.963104
30
0.0
11
92.048504
21
132.063104
31
0.0
0
ARC
8
0
10
92.348504
20
132.063104
30
0.0
40
0.300000
50
90.000000
51
180.000000
0
LINE
8
0
10
92.348504
20
132.363104
30
0.0
11
95.848013
21
132.363104
31
0.0
0
ARC
8
0
10
95.848013
20
132.063104
30
0.0
40
0.300000
50
0.000000
51
90.000000
0
LINE
8
0
10
96.148013
20
132.063104
30
0.0
11
96.148013
21
117.463146
31
0.0
0
ARC
8
0
10
95.848013
20
117.463146
30
0.0
40
0.300000
50
270.000000
51
0.000000
0
LINE
8
0
10
95.848013
20
117.163146
30
0.0
11
91.048504
21
117.163146
31
0.0
0
ARC
8
0
10
91.048504
20
116.863146
30
0.0
40
0.300000
50
90.000000
51
180.000000
0
LINE
8
0
10
90.748504
20
116.863146
30
0.0
11
90.748504
21
115.963146
31
0.0
0
ARC
8
0
10
91.048504
20
115.963146
30
0.0
40
0.300000
50
180.000000
51
270.000000
0
LINE
8
0
10
91.048504
20
115.663146
30
0.0
11
97.548762
21
115.663146
31
0.0
0
ARC
8
0
10
97.548762
20
115.963146
30
0.0
40
0.300000
50
270.000000
51
0.000000
0
LINE
8
0
10
97.848762
20
115.963146
30
0.0
11
97.848762
21
117.463129
31
0.0
0
ARC
8
0
10
98.148762
20
117.463129
30
0.0
40
0.300000
50
104.766462
51
180.000000
0
LINE
8
0
10
98.072298
20
117.753221
30
0.0
11
99.109744
21
118.026677
31
0.0
0
ARC
8
0
10
99.199465
20
117.740407
30
0.0
40
0.300000
50
29.632658
51
107.401721
0
ARC
8
0
10
99.634071
20
117.987626
30
0.0
40
0.200000
50
209.632658
51
270.000000
0
LINE
8
0
10
99.635474
20
117.787631
30
0.0
11
101.186568
21
117.787631
31
0.0
0
ARC
8
0
10
101.186568
20
118.087631
30
0.0
40
0.300000
50
270.000000
51
17.401721
0
LINE
8
0
10
101.472837
20
118.177352
30
0.0
11
100.870873
21
120.098021
31
0.0
0
ARC
8
0
10
100.107488
20
119.858765
30
0.0
40
0.800000
50
17.401721
51
62.401721
0
LINE
8
0
10
100.478103
20
120.567739
30
0.0
11
100.197033
21
120.714668
31
0.0
0
ARC
8
0
10
100.104379
20
120.537425
30
0.0
40
0.200000
50
62.401721
51
180.000000
0
LINE
8
0
10
99.904555
20
120.529044
30
0.0
11
99.916652
21
120.240622
31
0.0
0
LINE
8
0
10
99.916652
20
120.240622
30
0.0
11
98.208555
21
119.156559
31
0.0
0
ARC
8
0
10
97.887044
20
119.663146
30
0.0
40
0.600000
50
270.000000
51
302.401721
0
LINE
8
0
10
97.887044
20
119.063146
30
0.0
11
97.848762
21
119.063146
31
0.0
0
ARC
8
0
10
97.948762
20
119.345989
30
0.0
40
0.300000
50
109.471221
51
250.528779
0
LINE
8
0
10
97.848762
20
119.628831
30
0.0
11
97.848762
21
123.663146
31
0.0
0
ARC
8
0
10
98.148762
20
123.663146
30
0.0
40
0.300000
50
90.000000
51
180.000000
0
LINE
8
0
10
98.148762
20
123.963146
30
0.0
11
98.368377
21
123.963146
31
0.0
0
ARC
8
0
10
98.368377
20
123.663146
30
0.0
40
0.300000
50
60.000000
51
90.000000
0
LINE
8
0
10
98.518377
20
123.922954
30
0.0
11
100.048762
21
122.989386
31
0.0
0
ARC
8
0
10
100.148762
20
123.162591
30
0.0
40
0.200000
50
240.000000
51
0.000000
0
LINE
8
0
10
100.348762
20
123.162591
30
0.0
11
100.348762
21
124.367291
31
0.0
0
ARC
8
0
10
99.348762
20
124.367291
30
0.0
40
1.000000
50
0.000000
51
60.000001
0
LINE
8
0
10
99.848762
20
125.233317
30
0.0
11
98.348762
21
126.099342
31
0.0
0
ARC
8
0
10
98.848762
20
126.965367
30
0.0
40
1.000000
50
180.000000
51
240.000001
0
LINE
8
0
10
97.848762
20
126.965367
30
0.0
11
97.848762
21
131.160855
31
0.0
0
ARC
8
0
10
98.848762
20
131.160855
30
0.0
40
1.000000
50
119.999999
51
180.000000
0
LINE
8
0
10
98.348762
20
132.026881
30
0.0
11
99.848762
21
132.892906
31
0.0
0
ARC
8
0
10
99.348762
20
133.758932
30
0.0
40
1.000000
50
299.999999
51
0.000000
0
LINE
8
0
10
100.348762
20
133.758932
30
0.0
11
100.348762
21
134.963632
31
0.0
0
ARC
8
0
10
100.148762
20
134.963632
30
0.0
40
0.200000
50
0.000000
51
120.000000
0
LINE
8
0
10
100.048762
20
135.136837
30
0.0
11
98.518377
21
134.203269
31
0.0
0
ARC
8
0
10
98.368377
20
134.463077
30
0.0
40
0.300000
50
270.000000
51
300.000000
0
LINE
8
0
10
98.368377
20
134.163077
30
0.0
11
98.148762
21
134.163077
31
0.0
0
ARC
8
0
10
98.148762
20
134.463077
30
0.0
40
0.300000
50
180.000000
51
270.000000
0
LINE
8
0
10
97.848762
20
134.463077
30
0.0
11
97.848762
21
138.497391
31
0.0
0
ARC
8
0
10
97.948762
20
138.780234
30
0.0
40
0.300000
50
109.471221
51
250.528779
0
LINE
8
0
10
97.848762
20
139.063077
30
0.0
11
97.887044
21
139.063077
31
0.0
0
ARC
8
0
10
97.887044
20
138.463077
30
0.0
40
0.600000
50
57.598279
51
90.000000
0
LINE
8
0
10
98.208555
20
138.969664
30
0.0
11
99.916652
21
137.885601
31
0.0
0
LINE
8
0
10
99.916652
20
137.885601
30
0.0
11
99.904555
21
137.597179
31
0.0
0
ARC
8
0
10
100.104379
20
137.588798
30
0.0
40
0.200000
50
180.000000
51
297.598279
0
LINE
8
0
10
100.197033
20
137.411555
30
0.0
11
100.478103
21
137.558484
31
0.0
0
ARC
8
0
10
100.107488
20
138.267458
30
0.0
40
0.800000
50
297.598279
51
342.598279
0
LINE
8
0
10
100.870873
20
138.028202
30
0.0
11
101.472837
21
139.948871
31
0.0
0
ARC
8
0
10
101.186568
20
140.038592
30
0.0
40
0.300000
50
342.598279
51
90.000000
0
LINE
8
0
10
101.186568
20
140.338592
30
0.0
11
99.635474
21
140.338592
31
0.0
0
ARC
8
0
10
99.634071
20
140.138597
30
0.0
40
0.200000
50
90.000000
51
150.367342
0
ARC
8
0
10
99.199465
20
140.385815
30
0.0
40
0.300000
50
252.598279
51
330.367342
0
LINE
8
0
10
99.109744
20
140.099546
30
0.0
11
98.147506
21
140.353178
31
0.0
0
LINE
8
0
10
98.147506
20
140.353178
30
0.0
11
98.071046
21
140.363086
31
0.0
0
LINE
8
0
10
98.071046
20
140.363086
30
0.0
11
96.498762
21
140.363104
31
0.0
0
ARC
8
0
10
96.498762
20
140.663104
30
0.0
40
0.300000
50
180.000000
51
270.000000
0
LINE
8
0
10
96.198762
20
140.663104
30
0.0
11
96.198762
21
144.563104
31
0.0
0
ARC
8
0
10
95.898762
20
144.563104
30
0.0
40
0.300000
50
0.000000
51
90.000000
0
LINE
8
0
10
95.898762
20
144.863104
30
0.0
11
94.898762
21
144.863104
31
0.0
0
ARC
8
0
10
94.898762
20
144.563104
30
0.0
40
0.300000
50
90.000000
51
180.000000
0
ARC
8
0
10
145.648761
20
121.562954
30
0.0
40
0.300000
50
0.000000
51
90.000000
0
LINE
8
0
10
145.948761
20
121.562954
30
0.0
11
145.948761
21
116.662954
31
0.0
0
ARC
8
0
10
146.248761
20
116.662954
30
0.0
40
0.300000
50
180.000000
51
270.000000
0
LINE
8
0
10
146.248761
20
116.362954
30
0.0
11
150.748761
21
116.362954
31
0.0
0
ARC
8
0
10
150.748761
20
116.662954
30
0.0
40
0.300000
50
270.000000
51
0.000000
0
LINE
8
0
10
151.048761
20
116.662954
30
0.0
11
151.048761
21
133.362843
31
0.0
0
ARC
8
0
10
150.548761
20
133.362843
30
0.0
40
0.500000
50
0.000000
51
90.000000
0
LINE
8
0
10
150.548761
20
133.862843
30
0.0
11
141.948901
21
133.862843
31
0.0
0
ARC
8
0
10
141.948901
20
134.362843
30
0.0
40
0.500000
50
180.000000
51
270.000000
0
LINE
8
0
10
141.448901
20
134.362843
30
0.0
11
141.448901
21
138.562843
31
0.0
0
ARC
8
0
10
141.148901
20
138.562843
30
0.0
40
0.300000
50
0.000000
51
90.000000
0
LINE
8
0
10
141.148901
20
138.862843
30
0.0
11
123.748761
21
138.862843
31
0.0
0
ARC
8
0
10
123.748761
20
138.562843
30
0.0
40
0.300000
50
90.000000
51
180.000000
0
LINE
8
0
10
123.448761
20
138.562843
30
0.0
11
123.448761
21
117.462926
31
0.0
0
ARC
8
0
10
123.748761
20
117.462926
30
0.0
40
0.300000
50
180.000000
51
270.000000
0
LINE
8
0
10
123.748761
20
117.162926
30
0.0
11
138.648761
21
117.162926
31
0.0
0
ARC
8
0
10
138.648761
20
117.462926
30
0.0
40
0.300000
50
270.000000
51
0.000000
0
LINE
8
0
10
138.948761
20
117.462926
30
0.0
11
138.948761
21
121.562954
31
0.0
0
ARC
8
0
10
139.248761
20
121.562954
30
0.0
40
0.300000
50
90.000000
51
180.000000
0
LINE
8
0
10
139.248761
20
121.862954
30
0.0
11
145.648761
21
121.862954
31
0.0
0
LINE
8
0
10
119.500490
20
120.714449
30
0.0
11
119.219419
21
120.567519
31
0.0
0
ARC
8
0
10
119.590035
20
119.858545
30
0.0
40
0.800000
50
117.598279
51
162.598279
0
LINE
8
0
10
118.826650
20
120.097801
30
0.0
11
118.224685
21
118.177132
31
0.0
0
ARC
8
0
10
118.510955
20
118.087411
30
0.0
40
0.300000
50
162.598279
51
270.000000
0
LINE
8
0
10
118.510955
20
117.787411
30
0.0
11
120.062049
21
117.787411
31
0.0
0
ARC
8
0
10
120.063451
20
117.987406
30
0.0
40
0.200000
50
270.000000
51
330.367342
0
ARC
8
0
10
120.498058
20
117.740188
30
0.0
40
0.300000
50
72.598279
51
150.367342
0
LINE
8
0
10
120.587779
20
118.026457
30
0.0
11
121.549982
21
117.772835
31
0.0
0
LINE
8
0
10
121.549982
20
117.772835
30
0.0
11
121.587603
21
117.765452
31
0.0
0
ARC
8
0
10
121.548761
20
117.467977
30
0.0
40
0.300000
50
0.000000
51
82.560738
0
LINE
8
0
10
121.848761
20
117.467977
30
0.0
11
121.848761
21
115.962926
31
0.0
0
ARC
8
0
10
122.148761
20
115.962926
30
0.0
40
0.300000
50
180.000000
51
270.000000
0
LINE
8
0
10
122.148761
20
115.662926
30
0.0
11
139.948761
21
115.662926
31
0.0
0
ARC
8
0
10
139.948761
20
116.162926
30
0.0
40
0.500000
50
270.000000
51
0.000000
0
LINE
8
0
10
140.448761
20
116.162926
30
0.0
11
140.448761
21
120.062954
31
0.0
0
ARC
8
0
10
140.748761
20
120.062954
30
0.0
40
0.300000
50
90.000000
51
180.000000
0
LINE
8
0
10
140.748761
20
120.362954
30
0.0
11
144.148761
21
120.362954
31
0.0
0
ARC
8
0
10
144.148761
20
120.062954
30
0.0
40
0.300000
50
0.000000
51
90.000000
0
LINE
8
0
10
144.448761
20
120.062954
30
0.0
11
144.448761
21
115.162954
31
0.0
0
ARC
8
0
10
144.748761
20
115.162954
30
0.0
40
0.300000
50
180.000000
51
270.000000
0
LINE
8
0
10
144.748761
20
114.862954
30
0.0
11
152.348761
21
114.862954
31
0.0
0
ARC
8
0
10
152.348761
20
115.362954
30
0.0
40
0.500000
50
270.000000
51
0.000000
0
LINE
8
0
10
152.848761
20
115.362954
30
0.0
11
152.848761
21
146.362843
31
0.0
0
ARC
8
0
10
152.348761
20
146.362843
30
0.0
40
0.500000
50
0.000000
51
90.000000
0
LINE
8
0
10
152.348761
20
146.862843
30
0.0
11
151.348761
21
146.862843
31
0.0
0
ARC
8
0
10
151.348761
20
146.562843
30
0.0
40
0.300000
50
90.000000
51
180.000000
0
LINE
8
0
10
151.048761
20
146.562843
30
0.0
11
151.048761
21
140.663191
31
0.0
0
ARC
8
0
10
150.748761
20
140.663191
30
0.0
40
0.300000
50
270.000000
51
0.000000
0
LINE
8
0
10
150.748761
20
140.363191
30
0.0
11
150.649656
21
140.363191
31
0.0
0
ARC
8
0
10
150.649656
20
139.863191
30
0.0
40
0.500000
50
90.000000
51
180.000000
0
LINE
8
0
10
150.149656
20
139.863191
30
0.0
11
150.149656
21
139.163191
31
0.0
0
ARC
8
0
10
150.449656
20
139.163191
30
0.0
40
0.300000
50
180.000000
51
270.000000
0
LINE
8
0
10
150.449656
20
138.863191
30
0.0
11
150.748761
21
138.863191
31
0.0
0
ARC
8
0
10
150.748761
20
138.563191
30
0.0
40
0.300000
50
0.000000
51
90.000000
0
LINE
8
0
10
151.048761
20
138.563191
30
0.0
11
151.048761
21
135.862843
31
0.0
0
ARC
8
0
10
150.548761
20
135.862843
30
0.0
40
0.500000
50
270.000000
51
0.000000
0
LINE
8
0
10
150.548761
20
135.362843
30
0.0
11
143.448901
21
135.362843
31
0.0
0
ARC
8
0
10
143.448901
20
135.862843
30
0.0
40
0.500000
50
180.000000
51
270.000000
0
LINE
8
0
10
142.948901
20
135.862843
30
0.0
11
142.948901
21
138.562843
31
0.0
0
ARC
8
0
10
143.248901
20
138.562843
30
0.0
40
0.300000
50
90.000000
51
180.000000
0
LINE
8
0
10
143.248901
20
138.862843
30
0.0
11
143.848901
21
138.862843
31
0.0
0
ARC
8
0
10
143.848901
20
139.162843
30
0.0
40
0.300000
50
270.000000
51
0.000000
0
LINE
8
0
10
144.148901
20
139.162843
30
0.0
11
144.148901
21
139.862843
31
0.0
0
ARC
8
0
10
143.648901
20
139.862843
30
0.0
40
0.500000
50
0.000000
51
90.000000
0
LINE
8
0
10
143.648901
20
140.362843
30
0.0
11
121.626446
21
140.362843
31
0.0
0
LINE
8
0
10
121.626446
20
140.362843
30
0.0
11
121.549982
21
140.352935
31
0.0
0
LINE
8
0
10
121.549982
20
140.352935
30
0.0
11
120.587779
21
140.099313
31
0.0
0
ARC
8
0
10
120.498058
20
140.385582
30
0.0
40
0.300000
50
209.632658
51
287.401721
0
ARC
8
0
10
120.063451
20
140.138363
30
0.0
40
0.200000
50
29.632658
51
90.000000
0
LINE
8
0
10
120.062049
20
140.338358
30
0.0
11
118.510955
21
140.338358
31
0.0
0
ARC
8
0
10
118.510955
20
140.038358
30
0.0
40
0.300000
50
90.000000
51
197.401721
0
LINE
8
0
10
118.224685
20
139.948637
30
0.0
11
118.826650
21
138.027969
31
0.0
0
ARC
8
0
10
119.590035
20
138.267224
30
0.0
40
0.800000
50
197.401721
51
242.401721
0
LINE
8
0
10
119.219419
20
137.558250
30
0.0
11
119.500490
21
137.411321
31
0.0
0
ARC
8
0
10
119.593144
20
137.588565
30
0.0
40
0.200000
50
242.401721
51
0.000000
0
LINE
8
0
10
119.792968
20
137.596946
30
0.0
11
119.780871
21
137.885367
31
0.0
0
LINE
8
0
10
119.780871
20
137.885367
30
0.0
11
121.488968
21
138.969430
31
0.0
0
ARC
8
0
10
121.810479
20
138.462843
30
0.0
40
0.600000
50
90.000000
51
122.401721
0
LINE
8
0
10
121.810479
20
139.062843
30
0.0
11
121.848761
21
139.062843
31
0.0
0
ARC
8
0
10
121.748761
20
138.780001
30
0.0
40
0.300000
50
289.471221
51
70.528779
0
LINE
8
0
10
121.848761
20
138.497158
30
0.0
11
121.848761
21
134.462843
31
0.0
0
ARC
8
0
10
121.548761
20
134.462843
30
0.0
40
0.300000
50
270.000000
51
0.000000
0
LINE
8
0
10
121.548761
20
134.162843
30
0.0
11
121.329146
21
134.162843
31
0.0
0
ARC
8
0
10
121.329146
20
134.462843
30
0.0
40
0.300000
50
240.000000
51
270.000000
0
LINE
8
0
10
121.179146
20
134.203036
30
0.0
11
119.648761
21
135.136604
31
0.0
0
ARC
8
0
10
119.548761
20
134.963399
30
0.0
40
0.200000
50
60.000000
51
180.000000
0
LINE
8
0
10
119.348761
20
134.963399
30
0.0
11
119.348761
21
133.758698
31
0.0
0
ARC
8
0
10
120.348761
20
133.758698
30
0.0
40
1.000000
50
180.000000
51
240.000000
0
LINE
8
0
10
119.848761
20
132.892673
30
0.0
11
121.348761
21
132.026647
31
0.0
0
ARC
8
0
10
120.848761
20
131.160622
30
0.0
40
1.000000
50
0.000000
51
60.000000
0
LINE
8
0
10
121.848761
20
131.160622
30
0.0
11
121.848761
21
126.965148
31
0.0
0
ARC
8
0
10
120.848761
20
126.965148
30
0.0
40
1.000000
50
300.000000
51
0.000000
0
LINE
8
0
10
121.348761
20
126.099122
30
0.0
11
119.848761
21
125.233097
31
0.0
0
ARC
8
0
10
120.348761
20
124.367072
30
0.0
40
1.000000
50
120.000000
51
180.000000
0
LINE
8
0
10
119.348761
20
124.367072
30
0.0
11
119.348761
21
123.162371
31
0.0
0
ARC
8
0
10
119.548761
20
123.162371
30
0.0
40
0.200000
50
180.000000
51
300.000000
0
LINE
8
0
10
119.648761
20
122.989166
30
0.0
11
121.179146
21
123.922734
31
0.0
0
ARC
8
0
10
121.329146
20
123.662926
30
0.0
40
0.300000
50
90.000000
51
120.000000
0
LINE
8
0
10
121.329146
20
123.962926
30
0.0
11
121.548761
21
123.962926
31
0.0
0
ARC
8
0
10
121.548761
20
123.662926
30
0.0
40
0.300000
50
0.000000
51
90.000000
0
LINE
8
0
10
121.848761
20
123.662926
30
0.0
11
121.848761
21
119.628612
31
0.0
0
ARC
8
0
10
121.748761
20
119.345769
30
0.0
40
0.300000
50
289.471221
51
70.528779
0
LINE
8
0
10
121.848761
20
119.062926
30
0.0
11
121.810479
21
119.062926
31
0.0
0
ARC
8
0
10
121.810479
20
119.662926
30
0.0
40
0.600000
50
237.598279
51
270.000000
0
LINE
8
0
10
121.488968
20
119.156339
30
0.0
11
119.780871
21
120.240402
31
0.0
0
LINE
8
0
10
119.780871
20
120.240402
30
0.0
11
119.792968
21
120.528824
31
0.0
0
ARC
8
0
10
119.593144
20
120.537205
30
0.0
40
0.200000
50
0.000000
51
117.598279
0
ATTDEF
8
0
10
100.411021
20
140.338592
30
0.0
40
3.5
1

3

2
VC_START
70
0
0
ATTDEF
8
0
10
91.048504
20
115.663146
30
0.0
40
3.5
1

3

2
VC_END
70
0
0
ATTDEF
8
0
10
89.248762
20
114.862954
30
0.0
40
3.5
1

3

2
JY:0.000000
70
0
0
ATTDEF
8
0
10
89.248762
20
114.862954
30
0.0
40
3.5
1

3

2
WY:0.000000
70
0
0
ATTDEF
8
0
10
89.248762
20
114.862954
30
0.0
40
3.5
1

3

2
DESC:Profilo battuta per via di esodo
70
0
0
ATTDEF
8
0
10
89.248762
20
114.862954
30
0.0
40
3.5
1

3

2
DENS:1.120000
70
0
0
ATTDEF
8
0
10
89.248762
20
114.862954
30
0.0
40
3.5
1

3

2
TDEV:0.000000
70
0
0
ATTDEF
8
0
10
89.248762
20
114.862954
30
0.0
40
3.5
1

3

2
TDEV2:0.000000
70
0
0
ATTDEF
8
0
10
89.248762
20
114.862954
30
0.0
40
3.5
1

3

2
TDEV3:0.000000
70
0
0
ATTDEF
8
0
10
89.248762
20
114.862954
30
0.0
40
3.5
1

3

2
TDEV4:0.000000
70
0
0
ATTDEF
8
0
10
89.248762
20
114.862954
30
0.0
40
3.5
1

3

2
TDEV5:0.000000
70
0
0
ATTDEF
8
0
10
89.248762
20
114.862954
30
0.0
40
3.5
1

3

2
FRONT_VIEW
70
0
0
ATTDEF
8
0
10
89.248762
20
114.862954
30
0.0
40
3.5
1

3

2
BL01:6800.000000,,1
70
0
0
ATTDEF
8
0
10
89.248762
20
114.862954
30
0.0
40
3.5
1

3

2
OPTI:500.000000,1,0,3000.000000,6500.000000,500.000000,0,0.000000,0
70
0
0
ATTDEF
8
0
10
89.248762
20
114.862954
30
0.0
40
3.5
1

3

2
PANE_WIDTH:0.000000
70
0
0
ATTDEF
8
0
10
89.248762
20
114.862954
30
0.0
40
3.5
1

3

2
GLASS_MIN:0.000000
70
0
0
ATTDEF
8
0
10
89.248762
20
114.862954
30
0.0
40
3.5
1

3

2
GLASS_MAX:0.000000
70
0
0
ATTDEF
8
0
10
89.248762
20
114.862954
30
0.0
40
3.5
1

3

2
JX:0.000000
70
0
0
ATTDEF
8
0
10
89.248762
20
114.862954
30
0.0
40
3.5
1

3

2
WX:0.000000
70
0
0
ATTDEF
8
0
10
89.248762
20
114.862954
30
0.0
40
3.5
1

3

2
JY:0.000000
70
0
0
ATTDEF
8
0
10
89.248762
20
114.862954
30
0.0
40
3.5
1

3

2
WY:0.000000
70
0
0
ATTDEF
8
0
10
89.248762
20
114.862954
30
0.0
40
3.5
1

3

2
FP_LCS_ORIG
70
0
0
ATTDEF
8
0
10
99.248762
20
114.862954
30
0.0
40
3.5
1

3

2
FP_LCS_HOT
70
0
0
ATTDEF
8
0
10
89.248762
20
124.862954
30
0.0
40
3.5
1

3

2
FP_LCS_INTERN
70
0
0
ENDSEC
0
EOF
