0
SECTION
2
ENTITIES
0
ARC
8
0
10
177.976998
20
131.857217
30
0.0
40
1.000000
50
90.000000
51
160.000000
0
LINE
8
0
10
179.088826
20
132.857217
30
0.0
11
177.976998
21
132.857217
31
0.0
0
LINE
8
0
10
177.037305
20
132.199237
30
0.0
11
176.326674
21
130.246793
31
0.0
0
ARC
8
0
10
179.088826
20
134.057217
30
0.0
40
1.200000
50
270.000000
51
299.981639
0
ARC
8
0
10
175.199043
20
130.657217
30
0.0
40
1.200000
50
270.000000
51
340.000000
0
LINE
8
0
10
181.270436
20
133.930454
30
0.0
11
179.688492
21
133.017794
31
0.0
0
LINE
8
0
10
159.754608
20
129.457217
30
0.0
11
175.199043
21
129.457217
31
0.0
0
ARC
8
0
10
181.370381
20
133.757217
30
0.0
40
0.200000
50
90.000000
51
119.981639
0
ARC
8
0
10
159.754608
20
130.657217
30
0.0
40
1.200000
50
200.000000
51
270.000000
0
LINE
8
0
10
181.576825
20
133.957217
30
0.0
11
181.370381
21
133.957217
31
0.0
0
LINE
8
0
10
157.916345
20
132.199237
30
0.0
11
158.626977
21
130.246793
31
0.0
0
ARC
8
0
10
181.576825
20
133.557217
30
0.0
40
0.400000
50
360.000000
51
90.000000
0
ARC
8
0
10
156.976652
20
131.857217
30
0.0
40
1.000000
50
20.000000
51
90.000000
0
LINE
8
0
10
181.976825
20
133.130422
30
0.0
11
181.976825
21
133.557217
31
0.0
0
LINE
8
0
10
155.864825
20
132.857217
30
0.0
11
156.976652
21
132.857217
31
0.0
0
ARC
8
0
10
181.776825
20
133.130422
30
0.0
40
0.200000
50
300.000000
51
360.000000
0
ARC
8
0
10
155.864825
20
134.057217
30
0.0
40
1.200000
50
240.018361
51
270.000000
0
LINE
8
0
10
181.876825
20
132.582217
30
0.0
11
181.876825
21
132.957217
31
0.0
0
LINE
8
0
10
153.683214
20
133.930454
30
0.0
11
155.265158
21
133.017794
31
0.0
0
ARC
8
0
10
181.676825
20
132.582217
30
0.0
40
0.200000
50
270.000000
51
360.000000
0
ARC
8
0
10
153.583270
20
133.757217
30
0.0
40
0.200000
50
60.018361
51
90.000000
0
LINE
8
0
10
181.565019
20
132.382217
30
0.0
11
181.676825
21
132.382217
31
0.0
0
LINE
8
0
10
153.376825
20
133.957217
30
0.0
11
153.583270
21
133.957217
31
0.0
0
LINE
8
0
10
181.480470
20
132.400967
30
0.0
11
181.565019
21
132.382217
31
0.0
0
ARC
8
0
10
153.376825
20
133.557217
30
0.0
40
0.400000
50
90.000000
51
180.000000
0
ARC
8
0
10
181.226825
20
131.857217
30
0.0
40
0.600000
50
64.992167
51
180.000000
0
LINE
8
0
10
152.976825
20
133.130422
30
0.0
11
152.976825
21
133.557217
31
0.0
0
ARC
8
0
10
181.226825
20
131.857217
30
0.0
40
0.600000
50
180.000000
51
295.007833
0
ARC
8
0
10
153.176825
20
133.130422
30
0.0
40
0.200000
50
180.000000
51
240.000000
0
LINE
8
0
10
181.565019
20
131.332217
30
0.0
11
181.480470
21
131.313467
31
0.0
0
LINE
8
0
10
153.076825
20
132.582217
30
0.0
11
153.076825
21
132.957217
31
0.0
0
LINE
8
0
10
181.676825
20
131.332217
30
0.0
11
181.565019
21
131.332217
31
0.0
0
ARC
8
0
10
153.276825
20
132.582217
30
0.0
40
0.200000
50
180.000000
51
270.000000
0
ARC
8
0
10
181.676825
20
131.132217
30
0.0
40
0.200000
50
360.000000
51
90.000000
0
LINE
8
0
10
153.388631
20
132.382217
30
0.0
11
153.276825
21
132.382217
31
0.0
0
LINE
8
0
10
181.876825
20
130.757217
30
0.0
11
181.876825
21
131.132217
31
0.0
0
LINE
8
0
10
153.388631
20
132.382217
30
0.0
11
153.473180
21
132.400967
31
0.0
0
ARC
8
0
10
181.776825
20
130.584012
30
0.0
40
0.200000
50
360.000000
51
60.000000
0
ARC
8
0
10
153.726825
20
131.857217
30
0.0
40
0.600000
50
360.000000
51
115.007833
0
LINE
8
0
10
181.976825
20
130.157217
30
0.0
11
181.976825
21
130.584012
31
0.0
0
ARC
8
0
10
153.726825
20
131.857217
30
0.0
40
0.600000
50
244.992167
51
360.000000
0
ARC
8
0
10
181.576825
20
130.157217
30
0.0
40
0.400000
50
270.000000
51
360.000000
0
LINE
8
0
10
153.473180
20
131.313467
30
0.0
11
153.388631
21
131.332217
31
0.0
0
LINE
8
0
10
181.370381
20
129.757217
30
0.0
11
181.576825
21
129.757217
31
0.0
0
LINE
8
0
10
153.276825
20
131.332217
30
0.0
11
153.388631
21
131.332217
31
0.0
0
ARC
8
0
10
181.370381
20
129.957217
30
0.0
40
0.200000
50
240.018361
51
270.000000
0
ARC
8
0
10
153.276825
20
131.132217
30
0.0
40
0.200000
50
90.000000
51
180.000000
0
LINE
8
0
10
179.688492
20
130.696639
30
0.0
11
181.270436
21
129.783980
31
0.0
0
LINE
8
0
10
153.076825
20
130.757217
30
0.0
11
153.076825
21
131.132217
31
0.0
0
ARC
8
0
10
179.088826
20
129.657217
30
0.0
40
1.200000
50
60.018361
51
90.000000
0
ARC
8
0
10
153.176825
20
130.584012
30
0.0
40
0.200000
50
120.000000
51
180.000000
0
LINE
8
0
10
179.026762
20
130.857217
30
0.0
11
179.088826
21
130.857217
31
0.0
0
LINE
8
0
10
152.976825
20
130.157217
30
0.0
11
152.976825
21
130.584012
31
0.0
0
ARC
8
0
10
179.026762
20
130.357217
30
0.0
40
0.500000
50
90.000000
51
162.598279
0
ARC
8
0
10
153.376825
20
130.157217
30
0.0
40
0.400000
50
180.000000
51
270.000000
0
LINE
8
0
10
178.549647
20
130.506751
30
0.0
11
177.620743
21
127.954611
31
0.0
0
LINE
8
0
10
153.583270
20
129.757217
30
0.0
11
153.376825
21
129.757217
31
0.0
0
ARC
8
0
10
177.338836
20
128.057217
30
0.0
40
0.300000
50
270.000000
51
340.000000
0
ARC
8
0
10
153.583270
20
129.957217
30
0.0
40
0.200000
50
270.000000
51
299.981639
0
LINE
8
0
10
157.614815
20
127.757217
30
0.0
11
177.338836
21
127.757217
31
0.0
0
LINE
8
0
10
155.265158
20
130.696639
30
0.0
11
153.683214
21
129.783980
31
0.0
0
ARC
8
0
10
157.614815
20
128.057217
30
0.0
40
0.300000
50
200.000000
51
270.000000
0
ARC
8
0
10
155.864825
20
129.657217
30
0.0
40
1.200000
50
90.000000
51
119.981639
0
LINE
8
0
10
156.404004
20
130.506751
30
0.0
11
157.332907
21
127.954611
31
0.0
0
LINE
8
0
10
155.926888
20
130.857217
30
0.0
11
155.864825
21
130.857217
31
0.0
0
ARC
8
0
10
155.926888
20
130.357217
30
0.0
40
0.500000
50
17.401721
51
90.000000
0
ARC
8
0
10
196.787623
20
121.598983
30
0.0
40
0.300000
50
90.000000
51
180.000000
0
LINE
8
0
10
196.787623
20
121.898983
30
0.0
11
198.487623
21
121.898983
31
0.0
0
ARC
8
0
10
198.487623
20
122.398983
30
0.0
40
0.500000
50
270.000000
51
360.000000
0
LINE
8
0
10
198.987623
20
122.398983
30
0.0
11
198.987623
21
131.898983
31
0.0
0
ARC
8
0
10
196.987623
20
131.898983
30
0.0
40
2.000000
50
360.000000
51
90.000000
0
LINE
8
0
10
196.987623
20
133.898983
30
0.0
11
193.086048
21
133.898983
31
0.0
0
LINE
8
0
10
193.086048
20
133.898983
30
0.0
11
192.787623
21
134.198983
31
0.0
0
LINE
8
0
10
192.787623
20
134.198983
30
0.0
11
192.489197
21
133.898983
31
0.0
0
LINE
8
0
10
192.489197
20
133.898983
30
0.0
11
189.383989
21
133.898983
31
0.0
0
ARC
8
0
10
189.383989
20
133.498983
30
0.0
40
0.400000
50
90.000000
51
180.000000
0
LINE
8
0
10
188.983989
20
133.498983
30
0.0
11
188.983989
21
129.294334
31
0.0
0
ARC
8
0
10
188.583989
20
129.294334
30
0.0
40
0.400000
50
270.000000
51
360.000000
0
LINE
8
0
10
188.583989
20
128.894334
30
0.0
11
187.333989
21
128.894334
31
0.0
0
ARC
8
0
10
187.333989
20
129.194334
30
0.0
40
0.300000
50
180.000000
51
270.000000
0
LINE
8
0
10
187.033989
20
129.194334
30
0.0
11
187.033989
21
129.594334
31
0.0
0
ARC
8
0
10
187.333989
20
129.594334
30
0.0
40
0.300000
50
90.000000
51
180.000000
0
LINE
8
0
10
187.333989
20
129.894334
30
0.0
11
187.483989
21
129.894334
31
0.0
0
ARC
8
0
10
187.483989
20
130.194334
30
0.0
40
0.300000
50
270.000000
51
360.000000
0
LINE
8
0
10
187.783989
20
130.194334
30
0.0
11
187.783989
21
133.598983
31
0.0
0
ARC
8
0
10
187.483989
20
133.598983
30
0.0
40
0.300000
50
360.000000
51
90.000000
0
LINE
8
0
10
187.483989
20
133.898983
30
0.0
11
184.083989
21
133.898983
31
0.0
0
ARC
8
0
10
184.083989
20
133.598983
30
0.0
40
0.300000
50
90.000000
51
180.000000
0
LINE
8
0
10
183.783989
20
133.598983
30
0.0
11
183.783989
21
130.194334
31
0.0
0
ARC
8
0
10
184.083989
20
130.194334
30
0.0
40
0.300000
50
180.000000
51
270.000000
0
LINE
8
0
10
184.083989
20
129.894334
30
0.0
11
184.233989
21
129.894334
31
0.0
0
ARC
8
0
10
184.233989
20
129.594334
30
0.0
40
0.300000
50
360.000000
51
90.000000
0
LINE
8
0
10
184.533989
20
129.594334
30
0.0
11
184.533989
21
129.194334
31
0.0
0
ARC
8
0
10
184.233989
20
129.194334
30
0.0
40
0.300000
50
270.000000
51
360.000000
0
LINE
8
0
10
184.233989
20
128.894334
30
0.0
11
184.083989
21
128.894334
31
0.0
0
ARC
8
0
10
184.083989
20
128.594334
30
0.0
40
0.300000
50
90.000000
51
180.000000
0
LINE
8
0
10
183.783989
20
128.594334
30
0.0
11
183.783989
21
128.097274
31
0.0
0
ARC
8
0
10
183.483989
20
128.097274
30
0.0
40
0.300000
50
270.000000
51
360.000000
0
LINE
8
0
10
183.483989
20
127.797274
30
0.0
11
179.883474
21
127.797274
31
0.0
0
ARC
8
0
10
179.883474
20
128.197274
30
0.0
40
0.400000
50
180.000000
51
270.000000
0
LINE
8
0
10
179.483474
20
128.197274
30
0.0
11
179.483474
21
130.499539
31
0.0
0
ARC
8
0
10
179.683474
20
130.499539
30
0.0
40
0.200000
50
58.626462
51
180.000000
0
LINE
8
0
10
179.787597
20
130.670297
30
0.0
11
181.307674
21
129.743401
31
0.0
0
ARC
8
0
10
181.463858
20
129.999539
30
0.0
40
0.300000
50
238.626462
51
270.000000
0
LINE
8
0
10
181.463858
20
129.699539
30
0.0
11
181.683474
21
129.699539
31
0.0
0
ARC
8
0
10
181.683474
20
129.999539
30
0.0
40
0.300000
50
270.000000
51
360.000000
0
LINE
8
0
10
181.983474
20
129.999539
30
0.0
11
181.983474
21
134.033298
31
0.0
0
ARC
8
0
10
181.883474
20
134.316141
30
0.0
40
0.300000
50
289.471221
51
87.416256
0
LINE
8
0
10
181.896997
20
134.615836
30
0.0
11
181.609934
21
134.528688
31
0.0
0
LINE
8
0
10
181.609934
20
134.528688
30
0.0
11
179.833778
21
133.423666
31
0.0
0
ARC
8
0
10
179.939428
20
133.253849
30
0.0
40
0.200000
50
121.887477
51
180.000000
0
LINE
8
0
10
179.739537
20
133.247261
30
0.0
11
179.745242
21
133.074150
31
0.0
0
ARC
8
0
10
179.545350
20
133.067563
30
0.0
40
0.200000
50
241.887477
51
360.000000
0
LINE
8
0
10
179.451109
20
132.891158
30
0.0
11
179.171369
21
133.040604
31
0.0
0
ARC
8
0
10
179.548333
20
133.746223
30
0.0
40
0.800000
50
196.887477
51
241.887477
0
LINE
8
0
10
178.782831
20
133.513829
30
0.0
11
178.201435
21
135.428934
31
0.0
0
ARC
8
0
10
178.488498
20
135.516082
30
0.0
40
0.300000
50
90.000000
51
196.887477
0
LINE
8
0
10
178.489087
20
135.816081
30
0.0
11
180.038916
21
135.813037
31
0.0
0
ARC
8
0
10
180.038524
20
135.613038
30
0.0
40
0.200000
50
29.118414
51
90.000000
0
ARC
8
0
10
180.475331
20
135.856346
30
0.0
40
0.300000
50
209.118414
51
286.887477
0
LINE
8
0
10
180.562479
20
135.569283
30
0.0
11
181.648505
21
135.898983
31
0.0
0
LINE
8
0
10
181.648505
20
135.898983
30
0.0
11
194.791274
21
135.898983
31
0.0
0
ARC
8
0
10
194.791274
20
136.198983
30
0.0
40
0.300000
50
270.000000
51
360.000000
0
LINE
8
0
10
195.091274
20
136.198983
30
0.0
11
195.091274
21
141.975536
31
0.0
0
ARC
8
0
10
195.491274
20
141.975536
30
0.0
40
0.400000
50
20.000000
51
180.000000
0
LINE
8
0
10
195.867151
20
142.112344
30
0.0
11
196.971660
21
139.077731
31
0.0
0
ARC
8
0
10
196.689752
20
138.975125
30
0.0
40
0.300000
50
300.000000
51
20.000000
0
LINE
8
0
10
196.839752
20
138.715318
30
0.0
11
196.289752
21
138.397775
31
0.0
0
LINE
8
0
10
196.289752
20
138.397775
30
0.0
11
196.289752
21
136.198983
31
0.0
0
ARC
8
0
10
196.589752
20
136.198983
30
0.0
40
0.300000
50
180.000000
51
270.000000
0
LINE
8
0
10
196.589752
20
135.898983
30
0.0
11
200.487623
21
135.898983
31
0.0
0
ARC
8
0
10
200.487623
20
135.598983
30
0.0
40
0.300000
50
360.000000
51
90.000000
0
LINE
8
0
10
200.787623
20
135.598983
30
0.0
11
200.787623
21
112.398983
31
0.0
0
ARC
8
0
10
200.287623
20
112.398983
30
0.0
40
0.500000
50
270.000000
51
360.000000
0
LINE
8
0
10
200.287623
20
111.898983
30
0.0
11
196.787623
21
111.898983
31
0.0
0
ARC
8
0
10
196.787623
20
112.198983
30
0.0
40
0.300000
50
180.000000
51
270.000000
0
LINE
8
0
10
196.487623
20
112.198983
30
0.0
11
196.487623
21
113.698983
31
0.0
0
ARC
8
0
10
197.187623
20
113.698983
30
0.0
40
0.700000
50
90.000000
51
180.000000
0
ARC
8
0
10
197.187623
20
114.098983
30
0.0
40
0.300000
50
360.000000
51
90.000000
0
LINE
8
0
10
197.487623
20
114.098983
30
0.0
11
197.487623
21
113.398983
31
0.0
0
ARC
8
0
10
197.787623
20
113.398983
30
0.0
40
0.300000
50
180.000000
51
270.000000
0
LINE
8
0
10
197.787623
20
113.098983
30
0.0
11
198.787623
21
113.098983
31
0.0
0
ARC
8
0
10
198.787623
20
113.798983
30
0.0
40
0.700000
50
270.000000
51
360.000000
0
LINE
8
0
10
199.487623
20
113.798983
30
0.0
11
199.487623
21
119.998983
31
0.0
0
ARC
8
0
10
198.787623
20
119.998983
30
0.0
40
0.700000
50
360.000000
51
90.000000
0
LINE
8
0
10
198.787623
20
120.698983
30
0.0
11
197.787623
21
120.698983
31
0.0
0
ARC
8
0
10
197.787623
20
120.398983
30
0.0
40
0.300000
50
90.000000
51
180.000000
0
LINE
8
0
10
197.487623
20
120.398983
30
0.0
11
197.487623
21
119.698983
31
0.0
0
ARC
8
0
10
197.187623
20
119.698983
30
0.0
40
0.300000
50
270.000000
51
360.000000
0
ARC
8
0
10
197.187623
20
120.098983
30
0.0
40
0.700000
50
180.000000
51
270.000000
0
LINE
8
0
10
196.487623
20
120.098983
30
0.0
11
196.487623
21
121.598983
31
0.0
0
LINE
8
0
10
134.379840
20
135.898983
30
0.0
11
138.277711
21
135.898983
31
0.0
0
ARC
8
0
10
138.277711
20
136.198983
30
0.0
40
0.300000
50
270.000000
51
360.000000
0
LINE
8
0
10
138.577711
20
136.198983
30
0.0
11
138.577711
21
138.397775
31
0.0
0
LINE
8
0
10
138.577711
20
138.397775
30
0.0
11
138.027711
21
138.715318
31
0.0
0
ARC
8
0
10
138.177711
20
138.975125
30
0.0
40
0.300000
50
160.000000
51
240.000000
0
LINE
8
0
10
137.895803
20
139.077731
30
0.0
11
139.000312
21
142.112344
31
0.0
0
ARC
8
0
10
139.376189
20
141.975536
30
0.0
40
0.400000
50
360.000000
51
160.000000
0
LINE
8
0
10
139.776189
20
141.975536
30
0.0
11
139.776189
21
136.198983
31
0.0
0
ARC
8
0
10
140.076189
20
136.198983
30
0.0
40
0.300000
50
180.000000
51
270.000000
0
LINE
8
0
10
140.076189
20
135.898983
30
0.0
11
153.088958
21
135.898983
31
0.0
0
LINE
8
0
10
153.088958
20
135.898983
30
0.0
11
154.174983
21
135.569283
31
0.0
0
ARC
8
0
10
154.262131
20
135.856346
30
0.0
40
0.300000
50
253.112523
51
330.881586
0
ARC
8
0
10
154.698939
20
135.613038
30
0.0
40
0.200000
50
90.000000
51
150.881586
0
LINE
8
0
10
154.698546
20
135.813037
30
0.0
11
156.248376
21
135.816081
31
0.0
0
ARC
8
0
10
156.248965
20
135.516082
30
0.0
40
0.300000
50
343.112523
51
90.000000
0
LINE
8
0
10
156.536028
20
135.428934
30
0.0
11
155.954632
21
133.513829
31
0.0
0
ARC
8
0
10
155.189130
20
133.746223
30
0.0
40
0.800000
50
298.112523
51
343.112523
0
LINE
8
0
10
155.566094
20
133.040604
30
0.0
11
155.286354
21
132.891158
31
0.0
0
ARC
8
0
10
155.192113
20
133.067563
30
0.0
40
0.200000
50
180.000000
51
298.112523
0
LINE
8
0
10
154.992221
20
133.074150
30
0.0
11
154.997926
21
133.247261
31
0.0
0
ARC
8
0
10
154.798034
20
133.253849
30
0.0
40
0.200000
50
360.000000
51
58.112523
0
LINE
8
0
10
154.903685
20
133.423666
30
0.0
11
153.356798
21
134.396903
31
0.0
0
LINE
8
0
10
153.356798
20
134.396903
30
0.0
11
153.069648
21
134.483762
31
0.0
0
ARC
8
0
10
153.083474
20
134.184080
30
0.0
40
0.300000
50
92.641495
51
250.528779
0
LINE
8
0
10
152.983474
20
133.901238
30
0.0
11
152.983474
21
129.999539
31
0.0
0
ARC
8
0
10
153.283474
20
129.999539
30
0.0
40
0.300000
50
180.000000
51
270.000000
0
LINE
8
0
10
153.283474
20
129.699539
30
0.0
11
153.503089
21
129.699539
31
0.0
0
ARC
8
0
10
153.503089
20
129.999539
30
0.0
40
0.300000
50
270.000000
51
301.373538
0
LINE
8
0
10
153.659273
20
129.743401
30
0.0
11
155.179351
21
130.670297
31
0.0
0
ARC
8
0
10
155.283474
20
130.499539
30
0.0
40
0.200000
50
360.000000
51
121.373538
0
LINE
8
0
10
155.483474
20
130.499539
30
0.0
11
155.483474
21
128.197274
31
0.0
0
ARC
8
0
10
155.083474
20
128.197274
30
0.0
40
0.400000
50
270.000000
51
360.000000
0
LINE
8
0
10
155.083474
20
127.797274
30
0.0
11
151.482958
21
127.797274
31
0.0
0
ARC
8
0
10
151.482958
20
128.097274
30
0.0
40
0.300000
50
180.000000
51
270.000000
0
LINE
8
0
10
151.182958
20
128.097274
30
0.0
11
151.182958
21
128.594334
31
0.0
0
ARC
8
0
10
150.882958
20
128.594334
30
0.0
40
0.300000
50
360.000000
51
90.000000
0
LINE
8
0
10
150.882958
20
128.894334
30
0.0
11
150.732958
21
128.894334
31
0.0
0
ARC
8
0
10
150.732958
20
129.194334
30
0.0
40
0.300000
50
180.000000
51
270.000000
0
LINE
8
0
10
150.432958
20
129.194334
30
0.0
11
150.432958
21
129.594334
31
0.0
0
ARC
8
0
10
150.732958
20
129.594334
30
0.0
40
0.300000
50
90.000000
51
180.000000
0
LINE
8
0
10
150.732958
20
129.894334
30
0.0
11
150.882958
21
129.894334
31
0.0
0
ARC
8
0
10
150.882958
20
130.194334
30
0.0
40
0.300000
50
270.000000
51
360.000000
0
LINE
8
0
10
151.182958
20
130.194334
30
0.0
11
151.182958
21
133.598983
31
0.0
0
ARC
8
0
10
150.882958
20
133.598983
30
0.0
40
0.300000
50
360.000000
51
90.000000
0
LINE
8
0
10
150.882958
20
133.898983
30
0.0
11
147.482958
21
133.898983
31
0.0
0
ARC
8
0
10
147.482958
20
133.598983
30
0.0
40
0.300000
50
90.000000
51
180.000000
0
LINE
8
0
10
147.182958
20
133.598983
30
0.0
11
147.182958
21
130.194334
31
0.0
0
ARC
8
0
10
147.482958
20
130.194334
30
0.0
40
0.300000
50
180.000000
51
270.000000
0
LINE
8
0
10
147.482958
20
129.894334
30
0.0
11
147.632958
21
129.894334
31
0.0
0
ARC
8
0
10
147.632958
20
129.594334
30
0.0
40
0.300000
50
360.000000
51
90.000000
0
LINE
8
0
10
147.932958
20
129.594334
30
0.0
11
147.932958
21
129.194334
31
0.0
0
ARC
8
0
10
147.632958
20
129.194334
30
0.0
40
0.300000
50
270.000000
51
360.000000
0
LINE
8
0
10
147.632958
20
128.894334
30
0.0
11
146.382958
21
128.894334
31
0.0
0
ARC
8
0
10
146.382958
20
129.294334
30
0.0
40
0.400000
50
180.000000
51
270.000000
0
LINE
8
0
10
145.982958
20
129.294334
30
0.0
11
145.982958
21
133.498983
31
0.0
0
ARC
8
0
10
145.582958
20
133.498983
30
0.0
40
0.400000
50
360.000000
51
90.000000
0
LINE
8
0
10
145.582958
20
133.898983
30
0.0
11
142.378265
21
133.898983
31
0.0
0
LINE
8
0
10
142.378265
20
133.898983
30
0.0
11
142.079840
21
134.198983
31
0.0
0
LINE
8
0
10
142.079840
20
134.198983
30
0.0
11
141.781414
21
133.898983
31
0.0
0
LINE
8
0
10
141.781414
20
133.898983
30
0.0
11
136.075911
21
133.898983
31
0.0
0
ARC
8
0
10
136.075911
20
133.398983
30
0.0
40
0.500000
50
90.000000
51
180.000000
0
LINE
8
0
10
135.575911
20
133.398983
30
0.0
11
135.575911
21
128.199334
31
0.0
0
ARC
8
0
10
135.275911
20
128.199334
30
0.0
40
0.300000
50
270.000000
51
360.000000
0
LINE
8
0
10
135.275911
20
127.899334
30
0.0
11
134.379840
21
127.899334
31
0.0
0
ARC
8
0
10
134.379840
20
128.199334
30
0.0
40
0.300000
50
180.000000
51
270.000000
0
LINE
8
0
10
134.079840
20
128.199334
30
0.0
11
134.079840
21
135.598983
31
0.0
0
ARC
8
0
10
134.379840
20
135.598983
30
0.0
40
0.300000
50
90.000000
51
180.000000
0
ATTDEF
8
0
10
134.379840
20
135.898983
30
0.0
40
3.5
1

3

2
VC_START
70
0
0
ATTDEF
8
0
10
196.787623
20
111.898983
30
0.0
40
3.5
1

3

2
VC_END
70
0
0
ATTDEF
8
0
10
134.079840
20
111.898983
30
0.0
40
3.5
1

3

2
JY:0.000000
70
0
0
ATTDEF
8
0
10
134.079840
20
111.898983
30
0.0
40
3.5
1

3

2
WY:0.000000
70
0
0
ATTDEF
8
0
10
134.079840
20
111.898983
30
0.0
40
3.5
1

3

2
DESC:Sotto zoccolo
70
0
0
ATTDEF
8
0
10
134.079840
20
111.898983
30
0.0
40
3.5
1

3

2
DENS:0.760000
70
0
0
ATTDEF
8
0
10
134.079840
20
111.898983
30
0.0
40
3.5
1

3

2
TDEV:0.000000
70
0
0
ATTDEF
8
0
10
134.079840
20
111.898983
30
0.0
40
3.5
1

3

2
TDEV2:0.000000
70
0
0
ATTDEF
8
0
10
134.079840
20
111.898983
30
0.0
40
3.5
1

3

2
TDEV3:0.000000
70
0
0
ATTDEF
8
0
10
134.079840
20
111.898983
30
0.0
40
3.5
1

3

2
TDEV4:0.000000
70
0
0
ATTDEF
8
0
10
134.079840
20
111.898983
30
0.0
40
3.5
1

3

2
TDEV5:0.000000
70
0
0
ATTDEF
8
0
10
134.079840
20
111.898983
30
0.0
40
3.5
1

3

2
FRONT_VIEW
70
0
0
ATTDEF
8
0
10
134.079840
20
111.898983
30
0.0
40
3.5
1

3

2
BL01:6800.000000,,1
70
0
0
ATTDEF
8
0
10
134.079840
20
111.898983
30
0.0
40
3.5
1

3

2
OPTI:500.000000,1,0,3000.000000,6500.000000,500.000000,0,0.000000,0
70
0
0
ATTDEF
8
0
10
134.079840
20
111.898983
30
0.0
40
3.5
1

3

2
PANE_WIDTH:0.000000
70
0
0
ATTDEF
8
0
10
134.079840
20
111.898983
30
0.0
40
3.5
1

3

2
GLASS_MIN:0.000000
70
0
0
ATTDEF
8
0
10
134.079840
20
111.898983
30
0.0
40
3.5
1

3

2
GLASS_MAX:0.000000
70
0
0
ATTDEF
8
0
10
134.079840
20
111.898983
30
0.0
40
3.5
1

3

2
JX:0.000000
70
0
0
ATTDEF
8
0
10
134.079840
20
111.898983
30
0.0
40
3.5
1

3

2
WX:0.000000
70
0
0
ATTDEF
8
0
10
134.079840
20
111.898983
30
0.0
40
3.5
1

3

2
JY:0.000000
70
0
0
ATTDEF
8
0
10
134.079840
20
111.898983
30
0.0
40
3.5
1

3

2
WY:0.000000
70
0
0
ATTDEF
8
0
10
134.079840
20
111.898983
30
0.0
40
3.5
1

3

2
FP_LCS_ORIG
70
0
0
ATTDEF
8
0
10
144.079840
20
111.898983
30
0.0
40
3.5
1

3

2
FP_LCS_HOT
70
0
0
ATTDEF
8
0
10
134.079840
20
121.898983
30
0.0
40
3.5
1

3

2
FP_LCS_INTERN
70
0
0
ENDSEC
0
EOF
