0
SECTION
2
ENTITIES
0
LINE
8
0
10
125.053802
20
115.095498
30
0.0
11
123.523417
21
115.979066
31
0.0
0
ARC
8
0
10
123.373417
20
115.719259
30
0.0
40
0.300000
50
60.000000
51
90.000000
0
LINE
8
0
10
123.373417
20
116.019259
30
0.0
11
123.153802
21
116.019259
31
0.0
0
ARC
8
0
10
123.153802
20
115.719259
30
0.0
40
0.300000
50
90.000000
51
180.000000
0
LINE
8
0
10
122.853802
20
115.719259
30
0.0
11
122.853802
21
111.684944
31
0.0
0
ARC
8
0
10
122.953802
20
111.402101
30
0.0
40
0.300000
50
109.471221
51
267.528779
0
LINE
8
0
10
122.940867
20
111.102380
30
0.0
11
123.227758
21
111.190092
31
0.0
0
LINE
8
0
10
123.227758
20
111.190092
30
0.0
11
125.099665
21
112.359789
31
0.0
0
LINE
8
0
10
125.099665
20
112.359789
30
0.0
11
125.089591
21
112.648289
31
0.0
0
ARC
8
0
10
125.289469
20
112.655268
30
0.0
40
0.200000
50
62.000000
51
180.000000
0
LINE
8
0
10
125.383363
20
112.831858
30
0.0
11
125.663396
21
112.682962
31
0.0
0
ARC
8
0
10
125.287819
20
111.976604
30
0.0
40
0.800000
50
17.000000
51
62.000000
0
LINE
8
0
10
126.052863
20
112.210501
30
0.0
11
126.638019
21
110.296541
31
0.0
0
ARC
8
0
10
126.351128
20
110.208830
30
0.0
40
0.300000
50
270.000000
51
17.000000
0
LINE
8
0
10
126.351128
20
109.908830
30
0.0
11
124.801295
21
109.908830
31
0.0
0
ARC
8
0
10
124.801295
20
110.108830
30
0.0
40
0.200000
50
209.230937
51
270.000000
0
ARC
8
0
10
124.364966
20
109.864664
30
0.0
40
0.300000
50
29.230937
51
107.000000
0
LINE
8
0
10
124.277254
20
110.151556
30
0.0
11
123.233235
21
109.832367
31
0.0
0
LINE
8
0
10
123.145524
20
109.819259
30
0.0
11
123.233235
21
109.832367
31
0.0
0
LINE
8
0
10
123.145524
20
109.819259
30
0.0
11
102.653802
21
109.819259
31
0.0
0
ARC
8
0
10
102.653802
20
109.519259
30
0.0
40
0.300000
50
90.000000
51
180.000000
0
LINE
8
0
10
102.353802
20
109.519259
30
0.0
11
102.353802
21
108.316444
31
0.0
0
ARC
8
0
10
102.053802
20
108.316444
30
0.0
40
0.300000
50
270.000000
51
0.000000
0
LINE
8
0
10
102.053802
20
108.016444
30
0.0
11
101.453802
21
108.016444
31
0.0
0
ARC
8
0
10
101.453802
20
108.316444
30
0.0
40
0.300000
50
180.000000
51
270.000000
0
LINE
8
0
10
101.153802
20
108.316444
30
0.0
11
101.153802
21
109.519259
31
0.0
0
ARC
8
0
10
100.853802
20
109.519259
30
0.0
40
0.300000
50
0.000000
51
90.000000
0
LINE
8
0
10
100.853802
20
109.819259
30
0.0
11
96.853802
21
109.819259
31
0.0
0
LINE
8
0
10
96.853802
20
109.819259
30
0.0
11
96.853802
21
159.019259
31
0.0
0
ARC
8
0
10
97.353802
20
159.019259
30
0.0
40
0.500000
50
90.000000
51
180.000000
0
LINE
8
0
10
97.353802
20
159.519259
30
0.0
11
101.053802
21
159.519259
31
0.0
0
ARC
8
0
10
101.053802
20
159.219259
30
0.0
40
0.300000
50
0.000000
51
90.000000
0
LINE
8
0
10
101.353802
20
159.219259
30
0.0
11
101.353802
21
157.719259
31
0.0
0
ARC
8
0
10
100.653802
20
157.719259
30
0.0
40
0.700000
50
270.000000
51
0.000000
0
ARC
8
0
10
100.653802
20
157.319259
30
0.0
40
0.300000
50
180.000000
51
270.000000
0
LINE
8
0
10
100.353802
20
157.319259
30
0.0
11
100.353802
21
158.019259
31
0.0
0
ARC
8
0
10
100.053802
20
158.019259
30
0.0
40
0.300000
50
0.000000
51
90.000000
0
LINE
8
0
10
100.053802
20
158.319259
30
0.0
11
98.853802
21
158.319259
31
0.0
0
ARC
8
0
10
98.853802
20
157.619259
30
0.0
40
0.700000
50
90.000000
51
180.000000
0
LINE
8
0
10
98.153802
20
157.619259
30
0.0
11
98.153802
21
151.419259
31
0.0
0
ARC
8
0
10
98.853802
20
151.419259
30
0.0
40
0.700000
50
180.000000
51
270.000000
0
LINE
8
0
10
98.853802
20
150.719259
30
0.0
11
100.053802
21
150.719259
31
0.0
0
ARC
8
0
10
100.053802
20
151.019259
30
0.0
40
0.300000
50
270.000000
51
0.000000
0
LINE
8
0
10
100.353802
20
151.019259
30
0.0
11
100.353802
21
151.719259
31
0.0
0
ARC
8
0
10
100.653802
20
151.719259
30
0.0
40
0.300000
50
90.000000
51
180.000000
0
ARC
8
0
10
100.653802
20
151.319259
30
0.0
40
0.700000
50
0.000000
51
90.000000
0
LINE
8
0
10
101.353802
20
151.319259
30
0.0
11
101.353802
21
149.819259
31
0.0
0
ARC
8
0
10
101.053802
20
149.819259
30
0.0
40
0.300000
50
270.000000
51
0.000000
0
LINE
8
0
10
101.053802
20
149.519259
30
0.0
11
98.853802
21
149.519259
31
0.0
0
ARC
8
0
10
98.853802
20
149.219259
30
0.0
40
0.300000
50
90.000000
51
180.000000
0
LINE
8
0
10
98.553802
20
149.219259
30
0.0
11
98.553802
21
142.019259
31
0.0
0
ARC
8
0
10
99.553802
20
142.019259
30
0.0
40
1.000000
50
180.000000
51
270.000000
0
LINE
8
0
10
99.553802
20
141.019259
30
0.0
11
123.145524
21
141.019259
31
0.0
0
LINE
8
0
10
123.233235
20
141.006150
30
0.0
11
123.145524
21
141.019259
31
0.0
0
LINE
8
0
10
123.233235
20
141.006150
30
0.0
11
124.277254
21
140.686961
31
0.0
0
ARC
8
0
10
124.364966
20
140.973853
30
0.0
40
0.300000
50
253.000000
51
330.769063
0
ARC
8
0
10
124.801295
20
140.729687
30
0.0
40
0.200000
50
90.000000
51
150.769063
0
LINE
8
0
10
124.801295
20
140.929687
30
0.0
11
126.351128
21
140.929687
31
0.0
0
ARC
8
0
10
126.351128
20
140.629687
30
0.0
40
0.300000
50
343.000000
51
90.000000
0
LINE
8
0
10
126.638019
20
140.541976
30
0.0
11
126.052863
21
138.628016
31
0.0
0
ARC
8
0
10
125.287819
20
138.861914
30
0.0
40
0.800000
50
298.000000
51
343.000000
0
LINE
8
0
10
125.663396
20
138.155556
30
0.0
11
125.383363
21
138.006659
31
0.0
0
ARC
8
0
10
125.289469
20
138.183249
30
0.0
40
0.200000
50
180.000000
51
298.000000
0
LINE
8
0
10
125.089591
20
138.190229
30
0.0
11
125.099665
21
138.478728
31
0.0
0
LINE
8
0
10
125.099665
20
138.478728
30
0.0
11
123.227758
21
139.648425
31
0.0
0
LINE
8
0
10
123.227758
20
139.648425
30
0.0
11
122.940867
21
139.736137
31
0.0
0
ARC
8
0
10
122.953802
20
139.436416
30
0.0
40
0.300000
50
92.471221
51
250.528779
0
LINE
8
0
10
122.853802
20
139.153573
30
0.0
11
122.853802
21
135.119259
31
0.0
0
ARC
8
0
10
123.153802
20
135.119259
30
0.0
40
0.300000
50
180.000000
51
270.000000
0
LINE
8
0
10
123.153802
20
134.819259
30
0.0
11
123.373417
21
134.819259
31
0.0
0
ARC
8
0
10
123.373417
20
135.119259
30
0.0
40
0.300000
50
270.000000
51
300.000000
0
LINE
8
0
10
123.523417
20
134.859451
30
0.0
11
125.053802
21
135.743019
31
0.0
0
ARC
8
0
10
125.153802
20
135.569814
30
0.0
40
0.200000
50
0.000000
51
120.000000
0
LINE
8
0
10
125.353802
20
135.569814
30
0.0
11
125.353802
21
133.619272
31
0.0
0
ARC
8
0
10
125.653802
20
133.619272
30
0.0
40
0.300000
50
180.000000
51
270.000000
0
LINE
8
0
10
125.653802
20
133.319272
30
0.0
11
127.053802
21
133.319272
31
0.0
0
ARC
8
0
10
127.053802
20
133.019272
30
0.0
40
0.300000
50
0.000000
51
90.000000
0
LINE
8
0
10
127.353802
20
133.019272
30
0.0
11
127.353802
21
132.119272
31
0.0
0
ARC
8
0
10
127.053802
20
132.119272
30
0.0
40
0.300000
50
270.000000
51
0.000000
0
LINE
8
0
10
127.053802
20
131.819272
30
0.0
11
123.153802
21
131.819272
31
0.0
0
ARC
8
0
10
123.153802
20
131.519272
30
0.0
40
0.300000
50
90.000000
51
180.000000
0
LINE
8
0
10
122.853802
20
131.519272
30
0.0
11
122.853802
21
119.021480
31
0.0
0
ARC
8
0
10
123.853802
20
119.021480
30
0.0
40
1.000000
50
180.000000
51
240.000000
0
LINE
8
0
10
123.353802
20
118.155455
30
0.0
11
124.853802
21
117.289429
31
0.0
0
ARC
8
0
10
124.353802
20
116.423404
30
0.0
40
1.000000
50
0.000000
51
60.000000
0
LINE
8
0
10
125.353802
20
116.423404
30
0.0
11
125.353802
21
115.268703
31
0.0
0
ARC
8
0
10
125.153802
20
115.268703
30
0.0
40
0.200000
50
240.000000
51
0.000000
0
LINE
8
0
10
98.553802
20
111.719259
30
0.0
11
98.553802
21
139.119259
31
0.0
0
ARC
8
0
10
98.853802
20
139.119259
30
0.0
40
0.300000
50
90.000000
51
180.000000
0
LINE
8
0
10
98.853802
20
139.419259
30
0.0
11
120.953802
21
139.419259
31
0.0
0
ARC
8
0
10
120.953802
20
139.119259
30
0.0
40
0.300000
50
0.000000
51
90.000000
0
LINE
8
0
10
121.253802
20
139.119259
30
0.0
11
121.253802
21
111.719259
31
0.0
0
ARC
8
0
10
120.953802
20
111.719259
30
0.0
40
0.300000
50
270.000000
51
0.000000
0
LINE
8
0
10
120.953802
20
111.419259
30
0.0
11
98.853802
21
111.419259
31
0.0
0
ARC
8
0
10
98.853802
20
111.719259
30
0.0
40
0.300000
50
180.000000
51
270.000000
0
ARC
8
0
10
125.741801
20
139.119259
30
0.0
40
1.200000
50
240.018361
51
270.000000
0
LINE
8
0
10
125.741801
20
137.919259
30
0.0
11
125.803865
21
137.919259
31
0.0
0
ARC
8
0
10
125.803865
20
138.419259
30
0.0
40
0.500000
50
270.000000
51
342.598279
0
LINE
8
0
10
126.280980
20
138.269724
30
0.0
11
127.209884
21
140.821865
31
0.0
0
ARC
8
0
10
127.491791
20
140.719259
30
0.0
40
0.300000
50
90.000000
51
160.000000
0
LINE
8
0
10
127.491791
20
141.019259
30
0.0
11
142.215812
21
141.019259
31
0.0
0
ARC
8
0
10
142.215812
20
140.719259
30
0.0
40
0.300000
50
20.000000
51
90.000000
0
LINE
8
0
10
142.497720
20
140.821865
30
0.0
11
143.426623
21
138.269724
31
0.0
0
ARC
8
0
10
143.903739
20
138.419259
30
0.0
40
0.500000
50
197.401721
51
270.000000
0
LINE
8
0
10
143.903739
20
137.919259
30
0.0
11
143.965802
21
137.919259
31
0.0
0
ARC
8
0
10
143.965802
20
139.119259
30
0.0
40
1.200000
50
270.000000
51
299.981639
0
LINE
8
0
10
144.565469
20
138.079836
30
0.0
11
146.147413
21
138.992496
31
0.0
0
ARC
8
0
10
146.247357
20
138.819259
30
0.0
40
0.200000
50
90.000000
51
119.981639
0
LINE
8
0
10
146.247357
20
139.019259
30
0.0
11
146.453802
21
139.019259
31
0.0
0
ARC
8
0
10
146.453802
20
138.619259
30
0.0
40
0.400000
50
0.000000
51
90.000000
0
LINE
8
0
10
146.853802
20
138.619259
30
0.0
11
146.853802
21
138.192464
31
0.0
0
ARC
8
0
10
146.653802
20
138.192464
30
0.0
40
0.200000
50
300.000000
51
0.000000
0
LINE
8
0
10
146.753802
20
138.019259
30
0.0
11
146.753802
21
137.644259
31
0.0
0
ARC
8
0
10
146.553802
20
137.644259
30
0.0
40
0.200000
50
270.000000
51
0.000000
0
LINE
8
0
10
146.553802
20
137.444259
30
0.0
11
146.441996
21
137.444259
31
0.0
0
LINE
8
0
10
146.357447
20
137.463009
30
0.0
11
146.441996
21
137.444259
31
0.0
0
ARC
8
0
10
146.103802
20
136.919259
30
0.0
40
0.600000
50
64.992167
51
180.000000
0
ARC
8
0
10
146.103802
20
136.919259
30
0.0
40
0.600000
50
180.000000
51
295.007833
0
LINE
8
0
10
146.441996
20
136.394259
30
0.0
11
146.357447
21
136.375509
31
0.0
0
LINE
8
0
10
146.441996
20
136.394259
30
0.0
11
146.553802
21
136.394259
31
0.0
0
ARC
8
0
10
146.553802
20
136.194259
30
0.0
40
0.200000
50
0.000000
51
90.000000
0
LINE
8
0
10
146.753802
20
136.194259
30
0.0
11
146.753802
21
135.819259
31
0.0
0
ARC
8
0
10
146.653802
20
135.646054
30
0.0
40
0.200000
50
0.000000
51
60.000000
0
LINE
8
0
10
146.853802
20
135.646054
30
0.0
11
146.853802
21
135.219259
31
0.0
0
ARC
8
0
10
146.453802
20
135.219259
30
0.0
40
0.400000
50
270.000000
51
0.000000
0
LINE
8
0
10
146.453802
20
134.819259
30
0.0
11
146.247357
21
134.819259
31
0.0
0
ARC
8
0
10
146.247357
20
135.019259
30
0.0
40
0.200000
50
240.018361
51
270.000000
0
LINE
8
0
10
146.147413
20
134.846022
30
0.0
11
144.565469
21
135.758681
31
0.0
0
ARC
8
0
10
143.965802
20
134.719259
30
0.0
40
1.200000
50
60.018361
51
90.000000
0
LINE
8
0
10
143.965802
20
135.919259
30
0.0
11
142.853975
21
135.919259
31
0.0
0
ARC
8
0
10
142.853975
20
136.919259
30
0.0
40
1.000000
50
200.000000
51
270.000000
0
LINE
8
0
10
141.914282
20
136.577238
30
0.0
11
141.203650
21
138.529683
31
0.0
0
ARC
8
0
10
140.076019
20
138.119259
30
0.0
40
1.200000
50
20.000000
51
90.000000
0
LINE
8
0
10
140.076019
20
139.319259
30
0.0
11
136.953796
21
139.319259
31
0.0
0
ARC
8
0
10
136.953796
20
138.819259
30
0.0
40
0.500000
50
90.000000
51
180.000000
0
LINE
8
0
10
136.453796
20
138.819259
30
0.0
11
136.453796
21
119.619259
31
0.0
0
ARC
8
0
10
136.153796
20
119.619259
30
0.0
40
0.300000
50
270.000000
51
0.000000
0
LINE
8
0
10
136.153796
20
119.319259
30
0.0
11
135.653796
21
119.319259
31
0.0
0
ARC
8
0
10
135.653796
20
119.619259
30
0.0
40
0.300000
50
180.000000
51
270.000000
0
LINE
8
0
10
135.353796
20
119.619259
30
0.0
11
135.353796
21
138.819259
31
0.0
0
ARC
8
0
10
134.853796
20
138.819259
30
0.0
40
0.500000
50
0.000000
51
90.000000
0
LINE
8
0
10
134.853796
20
139.319259
30
0.0
11
129.631584
21
139.319259
31
0.0
0
ARC
8
0
10
129.631584
20
138.119259
30
0.0
40
1.200000
50
90.000000
51
160.000000
0
LINE
8
0
10
128.503953
20
138.529683
30
0.0
11
127.793321
21
136.577238
31
0.0
0
ARC
8
0
10
126.853629
20
136.919259
30
0.0
40
1.000000
50
270.000000
51
340.000000
0
LINE
8
0
10
126.853629
20
135.919259
30
0.0
11
125.741801
21
135.919259
31
0.0
0
ARC
8
0
10
125.741801
20
134.719259
30
0.0
40
1.200000
50
90.000000
51
119.981639
0
LINE
8
0
10
125.142134
20
135.758681
30
0.0
11
123.560191
21
134.846022
31
0.0
0
ARC
8
0
10
123.460246
20
135.019259
30
0.0
40
0.200000
50
270.000000
51
299.981639
0
LINE
8
0
10
123.460246
20
134.819259
30
0.0
11
123.253802
21
134.819259
31
0.0
0
ARC
8
0
10
123.253802
20
135.219259
30
0.0
40
0.400000
50
180.000000
51
270.000000
0
LINE
8
0
10
122.853802
20
135.219259
30
0.0
11
122.853802
21
135.646054
31
0.0
0
ARC
8
0
10
123.053802
20
135.646054
30
0.0
40
0.200000
50
120.000000
51
180.000000
0
LINE
8
0
10
122.953802
20
135.819259
30
0.0
11
122.953802
21
136.194259
31
0.0
0
ARC
8
0
10
123.153802
20
136.194259
30
0.0
40
0.200000
50
90.000000
51
180.000000
0
LINE
8
0
10
123.153802
20
136.394259
30
0.0
11
123.265608
21
136.394259
31
0.0
0
LINE
8
0
10
123.350156
20
136.375509
30
0.0
11
123.265608
21
136.394259
31
0.0
0
ARC
8
0
10
123.603802
20
136.919259
30
0.0
40
0.600000
50
244.992167
51
0.000000
0
ARC
8
0
10
123.603802
20
136.919259
30
0.0
40
0.600000
50
0.000000
51
115.007833
0
LINE
8
0
10
123.265608
20
137.444259
30
0.0
11
123.350156
21
137.463009
31
0.0
0
LINE
8
0
10
123.265608
20
137.444259
30
0.0
11
123.153802
21
137.444259
31
0.0
0
ARC
8
0
10
123.153802
20
137.644259
30
0.0
40
0.200000
50
180.000000
51
270.000000
0
LINE
8
0
10
122.953802
20
137.644259
30
0.0
11
122.953802
21
138.019259
31
0.0
0
ARC
8
0
10
123.053802
20
138.192464
30
0.0
40
0.200000
50
180.000000
51
240.000000
0
LINE
8
0
10
122.853802
20
138.192464
30
0.0
11
122.853802
21
138.619259
31
0.0
0
ARC
8
0
10
123.253802
20
138.619259
30
0.0
40
0.400000
50
90.000000
51
180.000000
0
LINE
8
0
10
123.253802
20
139.019259
30
0.0
11
123.460246
21
139.019259
31
0.0
0
ARC
8
0
10
123.460246
20
138.819259
30
0.0
40
0.200000
50
60.018361
51
90.000000
0
LINE
8
0
10
123.560191
20
138.992496
30
0.0
11
125.142134
21
138.079836
31
0.0
0
ARC
8
0
10
143.965802
20
111.684288
30
0.0
40
1.200000
50
60.018361
51
90.000000
0
LINE
8
0
10
143.965802
20
112.884288
30
0.0
11
143.903739
21
112.884288
31
0.0
0
ARC
8
0
10
143.903739
20
112.384288
30
0.0
40
0.500000
50
90.000000
51
162.598279
0
LINE
8
0
10
143.426623
20
112.533823
30
0.0
11
142.497720
21
109.981682
31
0.0
0
ARC
8
0
10
142.215812
20
110.084288
30
0.0
40
0.300000
50
270.000000
51
340.000000
0
LINE
8
0
10
142.215812
20
109.784288
30
0.0
11
127.491791
21
109.784288
31
0.0
0
ARC
8
0
10
127.491791
20
110.084288
30
0.0
40
0.300000
50
200.000000
51
270.000000
0
LINE
8
0
10
127.209884
20
109.981682
30
0.0
11
126.280980
21
112.533823
31
0.0
0
ARC
8
0
10
125.803865
20
112.384288
30
0.0
40
0.500000
50
17.401721
51
90.000000
0
LINE
8
0
10
125.803865
20
112.884288
30
0.0
11
125.741801
21
112.884288
31
0.0
0
ARC
8
0
10
125.741801
20
111.684288
30
0.0
40
1.200000
50
90.000000
51
119.981639
0
LINE
8
0
10
125.142134
20
112.723711
30
0.0
11
123.560191
21
111.811051
31
0.0
0
ARC
8
0
10
123.460246
20
111.984288
30
0.0
40
0.200000
50
270.000000
51
299.981639
0
LINE
8
0
10
123.460246
20
111.784288
30
0.0
11
123.253802
21
111.784288
31
0.0
0
ARC
8
0
10
123.253802
20
112.184288
30
0.0
40
0.400000
50
180.000000
51
270.000000
0
LINE
8
0
10
122.853802
20
112.184288
30
0.0
11
122.853802
21
112.611083
31
0.0
0
ARC
8
0
10
123.053802
20
112.611083
30
0.0
40
0.200000
50
120.000000
51
180.000000
0
LINE
8
0
10
122.953802
20
112.784288
30
0.0
11
122.953802
21
113.159288
31
0.0
0
ARC
8
0
10
123.153802
20
113.159288
30
0.0
40
0.200000
50
90.000000
51
180.000000
0
LINE
8
0
10
123.153802
20
113.359288
30
0.0
11
123.265608
21
113.359288
31
0.0
0
LINE
8
0
10
123.350156
20
113.340538
30
0.0
11
123.265608
21
113.359288
31
0.0
0
ARC
8
0
10
123.603802
20
113.884288
30
0.0
40
0.600000
50
244.992167
51
0.000000
0
ARC
8
0
10
123.603802
20
113.884288
30
0.0
40
0.600000
50
0.000000
51
115.007833
0
LINE
8
0
10
123.265608
20
114.409288
30
0.0
11
123.350156
21
114.428038
31
0.0
0
LINE
8
0
10
123.265608
20
114.409288
30
0.0
11
123.153802
21
114.409288
31
0.0
0
ARC
8
0
10
123.153802
20
114.609288
30
0.0
40
0.200000
50
180.000000
51
270.000000
0
LINE
8
0
10
122.953802
20
114.609288
30
0.0
11
122.953802
21
114.984288
31
0.0
0
ARC
8
0
10
123.053802
20
115.157493
30
0.0
40
0.200000
50
180.000000
51
240.000000
0
LINE
8
0
10
122.853802
20
115.157493
30
0.0
11
122.853802
21
115.584288
31
0.0
0
ARC
8
0
10
123.253802
20
115.584288
30
0.0
40
0.400000
50
90.000000
51
180.000000
0
LINE
8
0
10
123.253802
20
115.984288
30
0.0
11
123.460246
21
115.984288
31
0.0
0
ARC
8
0
10
123.460246
20
115.784288
30
0.0
40
0.200000
50
60.018361
51
90.000000
0
LINE
8
0
10
123.560191
20
115.957525
30
0.0
11
125.142134
21
115.044865
31
0.0
0
ARC
8
0
10
125.741801
20
116.084288
30
0.0
40
1.200000
50
240.018361
51
270.000000
0
LINE
8
0
10
125.741801
20
114.884288
30
0.0
11
126.853629
21
114.884288
31
0.0
0
ARC
8
0
10
126.853629
20
113.884288
30
0.0
40
1.000000
50
20.000000
51
90.000000
0
LINE
8
0
10
127.793321
20
114.226308
30
0.0
11
128.503953
21
112.273864
31
0.0
0
ARC
8
0
10
129.631584
20
112.684288
30
0.0
40
1.200000
50
200.000000
51
270.000000
0
LINE
8
0
10
129.631584
20
111.484288
30
0.0
11
132.753808
21
111.484288
31
0.0
0
ARC
8
0
10
132.753808
20
111.984288
30
0.0
40
0.500000
50
270.000000
51
0.000000
0
LINE
8
0
10
133.253808
20
111.984288
30
0.0
11
133.253808
21
131.184288
31
0.0
0
ARC
8
0
10
133.553808
20
131.184288
30
0.0
40
0.300000
50
90.000000
51
180.000000
0
LINE
8
0
10
133.553808
20
131.484288
30
0.0
11
134.053808
21
131.484288
31
0.0
0
ARC
8
0
10
134.053808
20
131.184288
30
0.0
40
0.300000
50
0.000000
51
90.000000
0
LINE
8
0
10
134.353808
20
131.184288
30
0.0
11
134.353808
21
111.984288
31
0.0
0
ARC
8
0
10
134.853808
20
111.984288
30
0.0
40
0.500000
50
180.000000
51
270.000000
0
LINE
8
0
10
134.853808
20
111.484288
30
0.0
11
140.076019
21
111.484288
31
0.0
0
ARC
8
0
10
140.076019
20
112.684288
30
0.0
40
1.200000
50
270.000000
51
340.000000
0
LINE
8
0
10
141.203650
20
112.273864
30
0.0
11
141.914282
21
114.226308
31
0.0
0
ARC
8
0
10
142.853975
20
113.884288
30
0.0
40
1.000000
50
90.000000
51
160.000000
0
LINE
8
0
10
142.853975
20
114.884288
30
0.0
11
143.965802
21
114.884288
31
0.0
0
ARC
8
0
10
143.965802
20
116.084288
30
0.0
40
1.200000
50
270.000000
51
299.981639
0
LINE
8
0
10
144.565469
20
115.044865
30
0.0
11
146.147413
21
115.957525
31
0.0
0
ARC
8
0
10
146.247357
20
115.784288
30
0.0
40
0.200000
50
90.000000
51
119.981639
0
LINE
8
0
10
146.247357
20
115.984288
30
0.0
11
146.453802
21
115.984288
31
0.0
0
ARC
8
0
10
146.453802
20
115.584288
30
0.0
40
0.400000
50
0.000000
51
90.000000
0
LINE
8
0
10
146.853802
20
115.584288
30
0.0
11
146.853802
21
115.157493
31
0.0
0
ARC
8
0
10
146.653802
20
115.157493
30
0.0
40
0.200000
50
300.000000
51
0.000000
0
LINE
8
0
10
146.753802
20
114.984288
30
0.0
11
146.753802
21
114.609288
31
0.0
0
ARC
8
0
10
146.553802
20
114.609288
30
0.0
40
0.200000
50
270.000000
51
0.000000
0
LINE
8
0
10
146.553802
20
114.409288
30
0.0
11
146.441996
21
114.409288
31
0.0
0
LINE
8
0
10
146.357447
20
114.428038
30
0.0
11
146.441996
21
114.409288
31
0.0
0
ARC
8
0
10
146.103802
20
113.884288
30
0.0
40
0.600000
50
64.992167
51
180.000000
0
ARC
8
0
10
146.103802
20
113.884288
30
0.0
40
0.600000
50
180.000000
51
295.007833
0
LINE
8
0
10
146.441996
20
113.359288
30
0.0
11
146.357447
21
113.340538
31
0.0
0
LINE
8
0
10
146.441996
20
113.359288
30
0.0
11
146.553802
21
113.359288
31
0.0
0
ARC
8
0
10
146.553802
20
113.159288
30
0.0
40
0.200000
50
0.000000
51
90.000000
0
LINE
8
0
10
146.753802
20
113.159288
30
0.0
11
146.753802
21
112.784288
31
0.0
0
ARC
8
0
10
146.653802
20
112.611083
30
0.0
40
0.200000
50
0.000000
51
60.000000
0
LINE
8
0
10
146.853802
20
112.611083
30
0.0
11
146.853802
21
112.184288
31
0.0
0
ARC
8
0
10
146.453802
20
112.184288
30
0.0
40
0.400000
50
270.000000
51
0.000000
0
LINE
8
0
10
146.453802
20
111.784288
30
0.0
11
146.247357
21
111.784288
31
0.0
0
ARC
8
0
10
146.247357
20
111.984288
30
0.0
40
0.200000
50
240.018361
51
270.000000
0
LINE
8
0
10
146.147413
20
111.811051
30
0.0
11
144.565469
21
112.723711
31
0.0
0
LINE
8
0
10
144.653802
20
115.045498
30
0.0
11
146.184187
21
115.979066
31
0.0
0
ARC
8
0
10
146.334187
20
115.719259
30
0.0
40
0.300000
50
90.000000
51
120.000000
0
LINE
8
0
10
146.334187
20
116.019259
30
0.0
11
146.553802
21
116.019259
31
0.0
0
ARC
8
0
10
146.553802
20
115.719259
30
0.0
40
0.300000
50
0.000000
51
90.000000
0
LINE
8
0
10
146.853802
20
115.719259
30
0.0
11
146.853802
21
111.684944
31
0.0
0
ARC
8
0
10
146.753802
20
111.402101
30
0.0
40
0.300000
50
272.471221
51
70.528779
0
LINE
8
0
10
146.766737
20
111.102380
30
0.0
11
146.479846
21
111.190092
31
0.0
0
LINE
8
0
10
146.479846
20
111.190092
30
0.0
11
144.607938
21
112.359789
31
0.0
0
LINE
8
0
10
144.607938
20
112.359789
30
0.0
11
144.618013
21
112.648289
31
0.0
0
ARC
8
0
10
144.418135
20
112.655268
30
0.0
40
0.200000
50
0.000000
51
118.000000
0
LINE
8
0
10
144.324241
20
112.831858
30
0.0
11
144.044207
21
112.682962
31
0.0
0
ARC
8
0
10
144.419785
20
111.976604
30
0.0
40
0.800000
50
118.000000
51
163.000000
0
LINE
8
0
10
143.654741
20
112.210501
30
0.0
11
143.069585
21
110.296541
31
0.0
0
ARC
8
0
10
143.356476
20
110.208830
30
0.0
40
0.300000
50
163.000000
51
270.000000
0
LINE
8
0
10
143.356476
20
109.908830
30
0.0
11
144.906308
21
109.908830
31
0.0
0
ARC
8
0
10
144.906308
20
110.108830
30
0.0
40
0.200000
50
270.000000
51
330.769063
0
ARC
8
0
10
145.342638
20
109.864664
30
0.0
40
0.300000
50
73.000000
51
150.769063
0
LINE
8
0
10
145.430349
20
110.151556
30
0.0
11
146.474822
21
109.832228
31
0.0
0
LINE
8
0
10
146.474822
20
109.832228
30
0.0
11
146.562534
21
109.819120
31
0.0
0
LINE
8
0
10
146.562534
20
109.819120
30
0.0
11
151.554550
21
109.819120
31
0.0
0
ARC
8
0
10
151.554550
20
109.519120
30
0.0
40
0.300000
50
0.000000
51
90.000000
0
LINE
8
0
10
151.854550
20
109.519136
30
0.0
11
151.854550
21
105.122101
31
0.0
0
ARC
8
0
10
152.154550
20
105.122101
30
0.0
40
0.300000
50
180.000000
51
270.000000
0
LINE
8
0
10
152.154550
20
104.822101
30
0.0
11
153.054550
21
104.822101
31
0.0
0
ARC
8
0
10
153.054550
20
105.122101
30
0.0
40
0.300000
50
270.000000
51
0.000000
0
LINE
8
0
10
153.354550
20
105.122101
30
0.0
11
153.354550
21
109.519259
31
0.0
0
ARC
8
0
10
153.654550
20
109.519259
30
0.0
40
0.300000
50
90.000000
51
180.000000
0
LINE
8
0
10
153.654550
20
109.819259
30
0.0
11
158.654060
21
109.819259
31
0.0
0
ARC
8
0
10
158.654060
20
110.119259
30
0.0
40
0.300000
50
270.000000
51
0.000000
0
LINE
8
0
10
158.954060
20
110.119259
30
0.0
11
158.954060
21
134.219286
31
0.0
0
ARC
8
0
10
158.654060
20
134.219286
30
0.0
40
0.300000
50
0.000000
51
90.000000
0
LINE
8
0
10
158.654060
20
134.519286
30
0.0
11
155.403802
21
134.519286
31
0.0
0
ARC
8
0
10
155.403802
20
134.819286
30
0.0
40
0.300000
50
180.000000
51
270.000000
0
LINE
8
0
10
155.103802
20
134.819286
30
0.0
11
155.103802
21
145.519286
31
0.0
0
LINE
8
0
10
155.103802
20
145.519286
30
0.0
11
153.803802
21
145.519286
31
0.0
0
ARC
8
0
10
153.803802
20
145.219286
30
0.0
40
0.300000
50
90.000000
51
180.000000
0
LINE
8
0
10
153.503802
20
145.219286
30
0.0
11
153.503802
21
141.319286
31
0.0
0
ARC
8
0
10
153.203802
20
141.319286
30
0.0
40
0.300000
50
270.000000
51
0.000000
0
LINE
8
0
10
153.203802
20
141.019286
30
0.0
11
146.562087
21
141.019261
31
0.0
0
LINE
8
0
10
146.562087
20
141.019261
30
0.0
11
146.474377
21
141.006153
31
0.0
0
LINE
8
0
10
146.474377
20
141.006153
30
0.0
11
145.430349
21
140.686961
31
0.0
0
ARC
8
0
10
145.342638
20
140.973853
30
0.0
40
0.300000
50
209.230937
51
287.000000
0
ARC
8
0
10
144.906308
20
140.729687
30
0.0
40
0.200000
50
29.230937
51
90.000000
0
LINE
8
0
10
144.906308
20
140.929687
30
0.0
11
143.356476
21
140.929687
31
0.0
0
ARC
8
0
10
143.356476
20
140.629687
30
0.0
40
0.300000
50
90.000000
51
197.000000
0
LINE
8
0
10
143.069585
20
140.541976
30
0.0
11
143.654741
21
138.628016
31
0.0
0
ARC
8
0
10
144.419785
20
138.861914
30
0.0
40
0.800000
50
197.000000
51
242.000000
0
LINE
8
0
10
144.044207
20
138.155556
30
0.0
11
144.324241
21
138.006659
31
0.0
0
ARC
8
0
10
144.418135
20
138.183249
30
0.0
40
0.200000
50
242.000000
51
0.000000
0
LINE
8
0
10
144.618013
20
138.190229
30
0.0
11
144.607938
21
138.478728
31
0.0
0
LINE
8
0
10
144.607938
20
138.478728
30
0.0
11
146.479846
21
139.648425
31
0.0
0
LINE
8
0
10
146.479846
20
139.648425
30
0.0
11
146.766737
21
139.736137
31
0.0
0
ARC
8
0
10
146.753802
20
139.436416
30
0.0
40
0.300000
50
289.471221
51
87.528779
0
LINE
8
0
10
146.853802
20
139.153573
30
0.0
11
146.853802
21
135.119259
31
0.0
0
ARC
8
0
10
146.553802
20
135.119259
30
0.0
40
0.300000
50
270.000000
51
0.000000
0
LINE
8
0
10
146.553802
20
134.819259
30
0.0
11
146.334187
21
134.819259
31
0.0
0
ARC
8
0
10
146.334187
20
135.119259
30
0.0
40
0.300000
50
240.000000
51
270.000000
0
LINE
8
0
10
146.184187
20
134.859451
30
0.0
11
144.653802
21
135.743019
31
0.0
0
ARC
8
0
10
144.553802
20
135.569814
30
0.0
40
0.200000
50
60.000000
51
180.000000
0
LINE
8
0
10
144.353802
20
135.569814
30
0.0
11
144.353802
21
133.619272
31
0.0
0
ARC
8
0
10
144.053802
20
133.619272
30
0.0
40
0.300000
50
270.000000
51
0.000000
0
LINE
8
0
10
144.053802
20
133.319272
30
0.0
11
142.653802
21
133.319272
31
0.0
0
ARC
8
0
10
142.653802
20
133.019272
30
0.0
40
0.300000
50
90.000000
51
180.000000
0
LINE
8
0
10
142.353802
20
133.019272
30
0.0
11
142.353802
21
132.119272
31
0.0
0
ARC
8
0
10
142.653802
20
132.119272
30
0.0
40
0.300000
50
180.000000
51
270.000000
0
LINE
8
0
10
142.653802
20
131.819272
30
0.0
11
146.554070
21
131.819272
31
0.0
0
ARC
8
0
10
146.550413
20
131.515903
30
0.0
40
0.303392
50
0.000000
51
90.000000
0
LINE
8
0
10
146.853802
20
131.517305
30
0.0
11
146.853802
21
119.021480
31
0.0
0
ARC
8
0
10
145.853802
20
119.021480
30
0.0
40
1.000000
50
299.999999
51
0.000000
0
LINE
8
0
10
146.353802
20
118.155455
30
0.0
11
144.853802
21
117.289429
31
0.0
0
ARC
8
0
10
145.353802
20
116.423404
30
0.0
40
1.000000
50
119.999999
51
180.000000
0
LINE
8
0
10
144.353802
20
116.423404
30
0.0
11
144.353802
21
115.218703
31
0.0
0
ARC
8
0
10
144.553802
20
115.218703
30
0.0
40
0.200000
50
180.000000
51
300.000000
0
ARC
8
0
10
153.203802
20
139.119268
30
0.0
40
0.300000
50
0.000000
51
90.000000
0
LINE
8
0
10
153.503802
20
139.119268
30
0.0
11
153.503802
21
133.319286
31
0.0
0
ARC
8
0
10
153.803802
20
133.319286
30
0.0
40
0.300000
50
180.000000
51
270.000000
0
LINE
8
0
10
153.803802
20
133.019286
30
0.0
11
157.354060
21
133.019286
31
0.0
0
ARC
8
0
10
157.354060
20
132.719286
30
0.0
40
0.300000
50
0.000000
51
90.000000
0
LINE
8
0
10
157.654060
20
132.719286
30
0.0
11
157.654060
21
111.619259
31
0.0
0
ARC
8
0
10
157.354060
20
111.619259
30
0.0
40
0.300000
50
270.000000
51
0.000000
0
LINE
8
0
10
157.354060
20
111.319259
30
0.0
11
148.654550
21
111.319259
31
0.0
0
ARC
8
0
10
148.654550
20
111.619259
30
0.0
40
0.300000
50
180.000000
51
270.000000
0
LINE
8
0
10
148.354550
20
111.619259
30
0.0
11
148.354550
21
139.119268
31
0.0
0
ARC
8
0
10
148.654550
20
139.119268
30
0.0
40
0.300000
50
90.000000
51
180.000000
0
LINE
8
0
10
148.654550
20
139.419268
30
0.0
11
153.203802
21
139.419268
31
0.0
0
ATTDEF
8
0
10
99.553802
20
141.019259
30
0.0
40
3.5
1

3

2
VC_START
70
0
0
ATTDEF
8
0
10
96.853802
20
109.819259
30
0.0
40
3.5
1

3

2
VC_END
70
0
0
ATTDEF
8
0
10
96.853802
20
104.822101
30
0.0
40
3.5
1

3

2
DESC:Inversione di battuta
70
0
0
ATTDEF
8
0
10
96.853802
20
104.822101
30
0.0
40
3.5
1

3

2
DENS:1.330000
70
0
0
ATTDEF
8
0
10
96.853802
20
104.822101
30
0.0
40
3.5
1

3

2
TDEV:0.000000
70
0
0
ATTDEF
8
0
10
96.853802
20
104.822101
30
0.0
40
3.5
1

3

2
TDEV2:0.000000
70
0
0
ATTDEF
8
0
10
96.853802
20
104.822101
30
0.0
40
3.5
1

3

2
TDEV3:0.000000
70
0
0
ATTDEF
8
0
10
96.853802
20
104.822101
30
0.0
40
3.5
1

3

2
TDEV4:0.000000
70
0
0
ATTDEF
8
0
10
96.853802
20
104.822101
30
0.0
40
3.5
1

3

2
TDEV5:0.000000
70
0
0
ATTDEF
8
0
10
96.853802
20
104.822101
30
0.0
40
3.5
1

3

2
FRONT_VIEW
70
0
0
ATTDEF
8
0
10
96.853802
20
104.822101
30
0.0
40
3.5
1

3

2
BL01:6800.000000,,1
70
0
0
ATTDEF
8
0
10
96.853802
20
104.822101
30
0.0
40
3.5
1

3

2
OPTI:500.000000,1,0,3000.000000,6500.000000,500.000000,0,0.000000,0
70
0
0
ATTDEF
8
0
10
96.853802
20
104.822101
30
0.0
40
3.5
1

3

2
PANE_WIDTH:0.000000
70
0
0
ATTDEF
8
0
10
96.853802
20
104.822101
30
0.0
40
3.5
1

3

2
GLASS_MIN:0.000000
70
0
0
ATTDEF
8
0
10
96.853802
20
104.822101
30
0.0
40
3.5
1

3

2
GLASS_MAX:0.000000
70
0
0
ATTDEF
8
0
10
96.853802
20
104.822101
30
0.0
40
3.5
1

3

2
JX:0.000000
70
0
0
ATTDEF
8
0
10
96.853802
20
104.822101
30
0.0
40
3.5
1

3

2
WX:0.000000
70
0
0
ATTDEF
8
0
10
96.853802
20
104.822101
30
0.0
40
3.5
1

3

2
JY:0.000000
70
0
0
ATTDEF
8
0
10
96.853802
20
104.822101
30
0.0
40
3.5
1

3

2
WY:0.000000
70
0
0
ATTDEF
8
0
10
96.853802
20
104.822101
30
0.0
40
3.5
1

3

2
FP_LCS_ORIG
70
0
0
ATTDEF
8
0
10
106.853802
20
104.822101
30
0.0
40
3.5
1

3

2
FP_LCS_HOT
70
0
0
ATTDEF
8
0
10
96.853802
20
114.822101
30
0.0
40
3.5
1

3

2
FP_LCS_INTERN
70
0
0
ENDSEC
0
EOF
